<?xml version="1.0" encoding="UTF-8" standalone="no"?>
<!-- Created with Inkscape (http://www.inkscape.org/) -->

<svg
   xmlns:dc="http://purl.org/dc/elements/1.1/"
   xmlns:cc="http://creativecommons.org/ns#"
   xmlns:rdf="http://www.w3.org/1999/02/22-rdf-syntax-ns#"
   xmlns:svg="http://www.w3.org/2000/svg"
   xmlns="http://www.w3.org/2000/svg"
   xmlns:xlink="http://www.w3.org/1999/xlink"
   xmlns:sodipodi="http://sodipodi.sourceforge.net/DTD/sodipodi-0.dtd"
   xmlns:inkscape="http://www.inkscape.org/namespaces/inkscape"
   width="105.375"
   height="43.244919"
   id="svg2"
   version="1.1"
   inkscape:version="0.48.2 r9819"
   sodipodi:docname="tlg.lion-knight.armor.svg">
  <defs
     id="defs4">
    <linearGradient
       inkscape:collect="always"
       id="linearGradient4011">
      <stop
         style="stop-color:#ffffff;stop-opacity:1;"
         offset="0"
         id="stop4013" />
      <stop
         style="stop-color:#ffffff;stop-opacity:0;"
         offset="1"
         id="stop4015" />
    </linearGradient>
    <linearGradient
       inkscape:collect="always"
       id="linearGradient3997">
      <stop
         style="stop-color:#ffffff;stop-opacity:1;"
         offset="0"
         id="stop3999" />
      <stop
         style="stop-color:#ffffff;stop-opacity:0;"
         offset="1"
         id="stop4001" />
    </linearGradient>
    <inkscape:path-effect
       effect="skeletal"
       id="path-effect4237"
       is_visible="true"
       pattern="M 0,5 C 0,2.24 2.24,0 5,0 7.76,0 10,2.24 10,5 10,7.76 7.76,10 5,10 2.24,10 0,7.76 0,5 z"
       copytype="single_stretched"
       prop_scale="1"
       scale_y_rel="false"
       spacing="0"
       normal_offset="0"
       tang_offset="0"
       prop_units="false"
       vertical_pattern="false"
       fuse_tolerance="0" />
    <clipPath
       id="clipPath2999"
       clipPathUnits="userSpaceOnUse">
      <path
         id="path3001"
         d="M 0,792 612,792 612,0 0,0 0,792 z"
         inkscape:connector-curvature="0" />
    </clipPath>
    <radialGradient
       gradientUnits="userSpaceOnUse"
       gradientTransform="matrix(0.75988491,-0.03632001,0.13155835,2.7524547,16.986326,-78.268899)"
       r="12.650181"
       fy="46.658409"
       fx="96.306435"
       cy="46.658409"
       cx="96.306435"
       id="radialGradient3972"
       xlink:href="#linearGradient3966"
       inkscape:collect="always" />
    <clipPath
       clipPathUnits="userSpaceOnUse"
       id="clipPath2999-4">
      <path
         inkscape:connector-curvature="0"
         d="M 0,792 612,792 612,0 0,0 0,792 z"
         id="path3001-0" />
    </clipPath>
    <linearGradient
       id="linearGradient3966">
      <stop
         id="stop3968"
         offset="0"
         style="stop-color:#c0ac02;stop-opacity:1;" />
      <stop
         id="stop3970"
         offset="1"
         style="stop-color:#fdea41;stop-opacity:0;" />
    </linearGradient>
    <radialGradient
       inkscape:collect="always"
       xlink:href="#linearGradient3997"
       id="radialGradient4003"
       cx="165.81134"
       cy="47.693741"
       fx="165.81134"
       fy="47.693741"
       r="3.8123069"
       gradientTransform="matrix(0.64374811,-0.18781617,0.31213841,1.069868,43.640483,27.15595)"
       gradientUnits="userSpaceOnUse" />
    <radialGradient
       inkscape:collect="always"
       xlink:href="#linearGradient3997"
       id="radialGradient4007"
       gradientUnits="userSpaceOnUse"
       gradientTransform="matrix(-0.64374811,-0.18781617,-0.31213841,1.069868,293.73143,27.15595)"
       cx="165.81134"
       cy="47.693741"
       fx="165.81134"
       fy="47.693741"
       r="3.8123069" />
    <radialGradient
       inkscape:collect="always"
       xlink:href="#linearGradient4011"
       id="radialGradient4017"
       cx="169.32254"
       cy="41.784931"
       fx="169.32254"
       fy="41.784931"
       r="6.982676"
       gradientTransform="matrix(0.31036379,-0.01814613,0.03701409,0.63307367,114.75293,21.468668)"
       gradientUnits="userSpaceOnUse" />
    <linearGradient
       id="linearGradient3966-2">
      <stop
         style="stop-color:#c0ac02;stop-opacity:1;"
         offset="0"
         id="stop3968-4" />
      <stop
         style="stop-color:#fdea41;stop-opacity:0;"
         offset="1"
         id="stop3970-5" />
    </linearGradient>
    <clipPath
       id="clipPath2999-4-8"
       clipPathUnits="userSpaceOnUse">
      <path
         id="path3001-0-8"
         d="M 0,792 612,792 612,0 0,0 0,792 z"
         inkscape:connector-curvature="0" />
    </clipPath>
    <radialGradient
       inkscape:collect="always"
       xlink:href="#linearGradient3966-2"
       id="radialGradient3972-4"
       cx="96.306435"
       cy="46.658409"
       fx="96.306435"
       fy="46.658409"
       r="12.650181"
       gradientTransform="matrix(0.75988491,-0.03632001,0.13155835,2.7524547,16.986326,-78.268899)"
       gradientUnits="userSpaceOnUse" />
    <clipPath
       clipPathUnits="userSpaceOnUse"
       id="clipPath2999-0">
      <path
         inkscape:connector-curvature="0"
         d="M 0,792 612,792 612,0 0,0 0,792 z"
         id="path3001-9" />
    </clipPath>
    <inkscape:path-effect
       fuse_tolerance="0"
       vertical_pattern="false"
       prop_units="false"
       tang_offset="0"
       normal_offset="0"
       spacing="0"
       scale_y_rel="false"
       prop_scale="1"
       copytype="single_stretched"
       pattern="M 0,5 C 0,2.24 2.24,0 5,0 7.76,0 10,2.24 10,5 10,7.76 7.76,10 5,10 2.24,10 0,7.76 0,5 z"
       is_visible="true"
       id="path-effect4237-4"
       effect="skeletal" />
  </defs>
  <sodipodi:namedview
     id="base"
     pagecolor="#ffffff"
     bordercolor="#666666"
     borderopacity="1.0"
     inkscape:pageopacity="0.0"
     inkscape:pageshadow="2"
     inkscape:zoom="5.2902971"
     inkscape:cx="44.85301"
     inkscape:cy="32.979975"
     inkscape:document-units="px"
     inkscape:current-layer="layer4"
     showgrid="false"
     fit-margin-top="0"
     fit-margin-left="0"
     fit-margin-right="0"
     fit-margin-bottom="0"
     inkscape:window-width="1280"
     inkscape:window-height="968"
     inkscape:window-x="-4"
     inkscape:window-y="-4"
     inkscape:window-maximized="1"
     showguides="true"
     inkscape:guide-bbox="true"
     inkscape:snap-global="false">
    <sodipodi:guide
       orientation="0,1"
       position="62.43758,-61.66462"
       id="guide3274" />
    <sodipodi:guide
       orientation="1,0"
       position="77.28784,-56.547918"
       id="guide3960" />
  </sodipodi:namedview>
  <metadata
     id="metadata7">
    <rdf:RDF>
      <cc:Work
         rdf:about="">
        <dc:format>image/svg+xml</dc:format>
        <dc:type
           rdf:resource="http://purl.org/dc/dcmitype/StillImage" />
        <dc:title></dc:title>
      </cc:Work>
    </rdf:RDF>
  </metadata>
  <g
     inkscape:groupmode="layer"
     id="layer3"
     inkscape:label="armor"
     style="display:inline"
     transform="translate(0,0.0261673)"
     sodipodi:insensitive="true">
    <path
       inkscape:connector-curvature="0"
       d="m 309.96625,369.71717 c 8.7325,-47.29375 5.3425,-42.67874 14.2675,-42.85625 l 23.44,0 c 8.92625,0.17751 5.535,-4.4375 14.265,42.85625 l -51.9725,0 z"
       style="fill:#7dbbdd;fill-opacity:1;stroke:#231f20;stroke-width:0.3125;stroke-linecap:butt;stroke-linejoin:miter;stroke-miterlimit:4;stroke-opacity:1;stroke-dasharray:none;display:inline"
       id="path3963"
       transform="translate(-309.78125,-326.66133)" />
    <path
       style="fill:#cb8442;stroke:none"
       d="m 46.90625,17.518027 c -2.748615,0.273116 -5.501386,4.017516 -8.25,5.78125 l 1.40625,2.875 c 2.5073,-2.358268 4.807577,-6.799768 8.073136,-6.125 -0.136423,-0.810372 -0.281291,-1.791388 -0.40625,-2.53125 -0.171159,-0.01111 -0.651977,-0.01701 -0.823136,0 z"
       id="path3943"
       inkscape:connector-curvature="0"
       sodipodi:nodetypes="cccccc" />
    <path
       style="fill:#0d69ab;stroke:none"
       d="m 46.75,19.986777 c -2.47795,0.250491 -4.442824,3.915212 -6.59375,6.28125 L 42,30.299277 c 3.269079,0.757225 5.860167,1.178097 7.78125,0.96875 -0.771221,-4.426912 -1.398346,-8.016108 -1.9375,-11.21875 L 47.25,19.986777 c -0.170059,-0.01519 -0.334803,-0.0167 -0.5,0 z"
       id="path3945"
       inkscape:connector-curvature="0" />
    <path
       style="fill:#cb8442;stroke:none"
       d="m 5.375,17.455527 c -0.1585739,0.01678 -0.6604388,-0.0666 -0.8190127,-0.023 -0.1289714,0.763373 -0.2963125,1.786686 -0.4375,2.625 3.6461933,-1.424894 6.0928717,3.548938 8.7565127,6.054254 l 1.375,-2.90625 c -2.960046,-1.899406 -5.9149534,-6.063135 -8.875,-5.75 z"
       id="path3102"
       inkscape:connector-curvature="0"
       sodipodi:nodetypes="cccccc" />
    <path
       style="fill:#0d69ab;stroke:none"
       d="m 5.5,19.986777 -1.03125,0.125 c -0.5346305,3.174439 -1.1132548,6.721543 -1.875,11.09375 1.9532212,0.319522 4.6622638,-0.09693 8.15625,-0.90625 l 1.84375,-4.03125 C 10.299429,23.744253 8.220936,19.743771 5.5,19.986777 z"
       id="path3955"
       inkscape:connector-curvature="0" />
    <path
       style="fill:#a43b01;fill-opacity:1;stroke:#1b2a34;stroke-width:1px;stroke-linecap:butt;stroke-linejoin:miter;stroke-opacity:1"
       d="m 20.1875,30.330527 c -5.854342,0.05065 -11.7081585,0.272656 -17.5625,0.65625 -0.4717675,2.710253 -1.0086214,5.703998 -1.59375,8.9375 l 50.34375,0.34375 c -0.553012,-3.052473 -1.047957,-5.879754 -1.5,-8.46875 l -0.09375,-0.375 C 39.920504,30.618423 30.048247,30.245215 20.1875,30.330527 z"
       id="path3062"
       inkscape:connector-curvature="0" />
    <path
       style="fill:#a1a5a2;stroke:#1b2a34;stroke-width:0.625;stroke-miterlimit:4;stroke-dasharray:none"
       d="m 10.25,0.28125 c 0.19176,11.571089 5.02152,14.615312 4.53125,20.3125 C 12.775273,24.548475 12.638449,29.642597 8.0625,31 l 5.25,9.09375 c 8.665016,0.259199 17.114912,0.09903 25.776262,0 l 6.067488,-9 c -5.450841,-0.74498 -5.087773,-6.545275 -7.09375,-10.5 -0.49027,-5.697188 4.18324,-8.616411 4.375,-20.1875 L 27.46875,0.375 l 0,-0.0625 z"
       id="path3092"
       inkscape:connector-curvature="0"
       sodipodi:nodetypes="ccccccccccc" />
    <path
       id="path3957"
       d="m 6.005905,19.986777 c 1.00298,0.101389 1.933209,0.776993 2.8125,1.6875 0.140167,0.264135 0.27664,0.554304 0.34375,0.875 0.01158,0.05297 0.02018,0.12117 0.03125,0.1875 0.02575,0.164633 0.02795,0.318691 0.03125,0.46875 0.0028,0.07759 0.0015,0.15416 0,0.21875 -0.0046,0.124383 -0.007,0.27586 -0.03125,0.4375 -0.0028,0.01871 0.0036,0.01562 0,0.03125 -0.0087,0.03795 -0.0208,0.03999 -0.03125,0.0625 -0.03265,0.192357 -0.08906,0.370368 -0.15625,0.5625 -0.07033,0.201102 -0.16186,0.371735 -0.25,0.53125 -0.0682,0.123438 -0.14143,0.237842 -0.21875,0.34375 0.0047,-0.01259 -0.01212,0.0298 -0.0625,0.09375 -0.01292,0.02366 -0.0049,0.03067 -0.03125,0.0625 -0.06624,0.08243 -0.07715,0.08653 -0.03125,0.03125 -0.247742,0.298991 -0.548481,0.53069 -0.875,0.71875 -0.243733,0.140379 -0.522788,0.33179 -0.90625,0.40625 l -0.53125,0.09375 0,-0.125 c -0.09651,0.0058 -0.178436,0.03845 -0.28125,0.03125 a 0.43861465,0.43861465 0 0 1 0.0625,-0.875 c 0.168003,0.01175 0.357813,-0.0217 0.5625,-0.0625 l 0.25,-0.03125 c 0.128407,-0.05443 0.248905,-0.09688 0.40625,-0.1875 0.248777,-0.143284 0.447578,-0.317127 0.625,-0.53125 0.0645,-0.07768 0.07925,-0.09098 0.03125,-0.03125 0.01092,-0.01846 0.01315,-0.0083 0.03125,-0.03125 0.08155,-0.10641 0.16062,-0.238535 0.21875,-0.34375 0.07842,-0.141917 0.14238,-0.245968 0.1875,-0.375 0.04825,-0.137986 0.06672,-0.278287 0.09375,-0.4375 0.0075,-0.04459 0.021,-0.03494 0.03125,-0.0625 0.01678,-0.100694 0.02615,-0.203601 0.03125,-0.34375 0.0013,-0.05987 0.0018,-0.10818 0,-0.15625 -0.0027,-0.123176 -0.01703,-0.242971 -0.03125,-0.34375 -0.0013,-0.0091 0.0014,-0.02205 0,-0.03125 -0.0062,-0.0336 -0.02215,-0.08349 -0.03125,-0.125 -0.05169,-0.247002 -0.147237,-0.507461 -0.28125,-0.75 -0.05995,-0.108499 -0.15371,-0.221884 -0.25,-0.34375 -0.08548,-0.108174 -0.180892,-0.198807 -0.3125,-0.3125 -0.256269,-0.221383 -0.529146,-0.34594 -0.8125,-0.4375 l -0.1875,-0.03125 c -0.205273,-0.04115 -0.39265,-0.07437 -0.5625,-0.0625 a 0.43861465,0.43861465 0 0 1 -0.21875,-0.8125 c 0.115839,-0.0034 0.230177,-0.01148 0.34375,0 z m -1,0.0625 c 0.01025,0.02756 0.02378,0.01791 0.03125,0.0625 0.02703,0.159213 0.0455,0.299514 0.09375,0.4375 0.04512,0.129032 0.109082,0.233083 0.1875,0.375 0.05813,0.105215 0.1372,0.23734 0.21875,0.34375 0.0181,0.02297 0.02033,0.01279 0.03125,0.03125 -0.048,-0.05973 -0.03325,-0.04643 0.03125,0.03125 0.177422,0.214123 0.376223,0.387966 0.625,0.53125 0.157345,0.09062 0.277843,0.133074 0.40625,0.1875 l 0.25,0.03125 c 0.204687,0.0408 0.394497,0.07425 0.5625,0.0625 a 0.43861465,0.43861465 0 0 1 0.0625,0.875 c -0.102814,0.0072 -0.184743,-0.02547 -0.28125,-0.03125 l 0,0.125 -0.53125,-0.09375 c -0.383462,-0.07446 -0.662517,-0.265871 -0.90625,-0.40625 -0.326519,-0.18806 -0.627258,-0.419759 -0.875,-0.71875 0.0459,0.05528 0.03499,0.05118 -0.03125,-0.03125 -0.02632,-0.03183 -0.01833,-0.03884 -0.03125,-0.0625 -0.05038,-0.06395 -0.06724,-0.10634 -0.0625,-0.09375 -0.07732,-0.105908 -0.150546,-0.220312 -0.21875,-0.34375 -0.08814,-0.159515 -0.179671,-0.330148 -0.25,-0.53125 -0.06719,-0.192132 -0.123597,-0.370143 -0.15625,-0.5625 -0.01045,-0.02251 -0.02259,-0.02455 -0.03125,-0.0625 -0.0036,-0.01563 0.0028,-0.01254 0,-0.03125 -0.0017,-0.01149 0.0015,-0.01987 0,-0.03125 l 0.875,-0.09375 z m 2.21875,3.1875 0,0.125 c 0.09645,-0.0057 0.178406,-0.03844 0.28125,-0.03125 a 0.43861465,0.43861465 0 0 1 -0.0625,0.875 c -0.16985,-0.01187 -0.357227,0.02135 -0.5625,0.0625 l -0.1875,0.03125 c -0.283354,0.09156 -0.556231,0.216117 -0.8125,0.4375 -0.131608,0.113693 -0.227025,0.204326 -0.3125,0.3125 -0.09629,0.121866 -0.190054,0.235251 -0.25,0.34375 -0.134013,0.242539 -0.229561,0.502998 -0.28125,0.75 -0.01124,0.05139 -0.02452,0.08465 -0.03125,0.125 -0.01735,0.110919 -0.02832,0.209461 -0.03125,0.34375 l 0,0.03125 c -0.0014,0.03846 -7.86e-4,0.07906 0,0.125 1.96e-4,0.01149 -2.69e-4,0.01928 0,0.03125 0.0046,0.12403 0.01586,0.25139 0.03125,0.34375 0.01025,0.02756 0.02378,0.01791 0.03125,0.0625 0.02703,0.159213 0.0455,0.268264 0.09375,0.40625 0.04512,0.129032 0.109082,0.264333 0.1875,0.40625 0.05813,0.105215 0.1372,0.20609 0.21875,0.3125 0.03992,0.05067 0.05203,0.06768 0.0625,0.09375 0.177422,0.214123 0.376223,0.387966 0.625,0.53125 0.157345,0.09062 0.277843,0.133074 0.40625,0.1875 l 0.25,0.03125 c 0.204687,0.0408 0.394497,0.07425 0.5625,0.0625 a 0.43861465,0.43861465 0 0 1 0.0625,0.875 c -0.102814,0.0072 -0.184743,-0.02547 -0.28125,-0.03125 l 0,0.125 -0.53125,-0.09375 c -0.383462,-0.07446 -0.662517,-0.265871 -0.90625,-0.40625 -0.326519,-0.18806 -0.627258,-0.419759 -0.875,-0.71875 0.0459,0.05528 0.03499,0.05118 -0.03125,-0.03125 -0.02632,-0.03183 -0.01833,-0.03884 -0.03125,-0.0625 -0.05038,-0.06395 -0.06724,-0.10634 -0.0625,-0.09375 -0.07732,-0.105908 -0.150546,-0.220312 -0.21875,-0.34375 -0.08814,-0.159515 -0.179671,-0.330148 -0.25,-0.53125 -0.06388,-0.182675 -0.124158,-0.380114 -0.15625,-0.5625 -0.0017,-0.0094 0.0016,-0.02178 0,-0.03125 -0.01019,-0.0284 -0.02447,-0.01706 -0.03125,-0.0625 -0.02938,-0.176232 -0.02638,-0.304275 -0.03125,-0.4375 l 0,-0.03125 c -0.0012,-0.05537 -0.0015,-0.122571 0,-0.1875 2.52e-4,-0.01082 -4.06e-4,-0.02017 0,-0.03125 0.0036,-0.140109 0.0072,-0.283794 0.03125,-0.4375 0.01107,-0.06633 0.01967,-0.134527 0.03125,-0.1875 0.07727,-0.369248 0.244793,-0.707791 0.40625,-1 0.09949,-0.180077 0.206696,-0.334848 0.3125,-0.46875 0.140389,-0.177672 0.295394,-0.314739 0.4375,-0.4375 0.378506,-0.32698 0.811681,-0.60937 1.375,-0.71875 l 0.53125,-0.09375 z m 3.1875,0.3125 c 0.19697,0.253814 0.397107,0.494396 0.59375,0.75 -0.167221,0.07746 -0.343738,0.14626 -0.5,0.28125 -0.131607,0.113693 -0.227025,0.204326 -0.3125,0.3125 -0.09629,0.121866 -0.190054,0.235251 -0.25,0.34375 -0.134013,0.242539 -0.229561,0.502998 -0.28125,0.75 -0.01124,0.05139 -0.02452,0.08465 -0.03125,0.125 -0.01735,0.110919 -0.02832,0.209461 -0.03125,0.34375 l 0,0.03125 c -0.0014,0.03846 -7.86e-4,0.07906 0,0.125 1.96e-4,0.01149 -2.69e-4,0.01928 0,0.03125 0.0046,0.12403 0.01586,0.25139 0.03125,0.34375 0.01025,0.02756 0.02378,0.01791 0.03125,0.0625 0.02703,0.159213 0.0455,0.268264 0.09375,0.40625 0.04512,0.129032 0.109082,0.264333 0.1875,0.40625 0.05813,0.105215 0.1372,0.20609 0.21875,0.3125 0.03992,0.05067 0.05203,0.06768 0.0625,0.09375 0.177421,0.214123 0.376223,0.387966 0.625,0.53125 0.157345,0.09062 0.277843,0.133074 0.40625,0.1875 l 0.09375,0 -0.375,0.84375 c -0.210446,-0.08868 -0.402237,-0.188946 -0.5625,-0.28125 -0.326518,-0.18806 -0.627258,-0.419759 -0.875,-0.71875 0.0459,0.05528 0.03499,0.05118 -0.03125,-0.03125 -0.02632,-0.03183 -0.01833,-0.03884 -0.03125,-0.0625 -0.05038,-0.06395 -0.06724,-0.10634 -0.0625,-0.09375 -0.07732,-0.105908 -0.150546,-0.220312 -0.21875,-0.34375 -0.08814,-0.159515 -0.179671,-0.330148 -0.25,-0.53125 -0.06388,-0.182675 -0.124158,-0.380114 -0.15625,-0.5625 -0.0017,-0.0094 0.0016,-0.02178 0,-0.03125 -0.01019,-0.0284 -0.02447,-0.01706 -0.03125,-0.0625 -0.02938,-0.176232 -0.02638,-0.304275 -0.03125,-0.4375 l 0,-0.03125 c -0.0012,-0.05537 -0.0015,-0.122571 0,-0.1875 2.52e-4,-0.01082 -4.06e-4,-0.02017 0,-0.03125 0.0036,-0.140109 0.0072,-0.283794 0.03125,-0.4375 0.01107,-0.06633 0.01967,-0.134527 0.03125,-0.1875 0.07727,-0.369248 0.244793,-0.707791 0.40625,-1 0.09949,-0.180077 0.206696,-0.334848 0.3125,-0.46875 0.140389,-0.177672 0.295394,-0.314739 0.4375,-0.4375 0.144163,-0.124538 0.304557,-0.239244 0.46875,-0.34375 z m 1.40625,1.78125 c 0.186135,0.230712 0.374221,0.440009 0.5625,0.65625 -0.07456,0.05013 -0.140888,0.111405 -0.21875,0.15625 -0.243733,0.140379 -0.522788,0.33179 -0.90625,0.40625 l -0.53125,0.09375 0,-0.125 c -0.09651,0.0058 -0.178436,0.03845 -0.28125,0.03125 a 0.43861465,0.43861465 0 0 1 0.0625,-0.875 c 0.168003,0.01175 0.357813,-0.0217 0.5625,-0.0625 l 0.25,-0.03125 c 0.128407,-0.05443 0.248905,-0.09688 0.40625,-0.1875 0.03439,-0.01981 0.06119,-0.0415 0.09375,-0.0625 z m -1.09375,1.4375 0.53125,0.09375 c 0.341329,0.06628 0.643694,0.210253 0.90625,0.375 l -0.375,0.84375 c -0.167414,-0.09859 -0.354154,-0.192775 -0.53125,-0.25 l -0.1875,-0.03125 c -0.205273,-0.04115 -0.39265,-0.07437 -0.5625,-0.0625 a 0.43861465,0.43861465 0 0 1 -0.0625,-0.875 c 0.102844,-0.0072 0.1848,0.02555 0.28125,0.03125 l 0,-0.125 z m -4.625,0.15625 0.53125,0.09375 c 0.563319,0.10938 0.996494,0.39177 1.375,0.71875 0.142106,0.122761 0.297111,0.259828 0.4375,0.4375 0.105804,0.133902 0.21301,0.288673 0.3125,0.46875 0.161457,0.292209 0.32898,0.630752 0.40625,1 0.01158,0.05297 0.02018,0.12117 0.03125,0.1875 0.02405,0.153706 0.02765,0.297391 0.03125,0.4375 4.06e-4,0.01108 -2.52e-4,0.02043 0,0.03125 0.0015,0.06493 0.0012,0.13213 0,0.1875 l 0,0.03125 c -6.96e-4,0.01894 4.93e-4,0.04362 0,0.0625 -0.309404,0.05105 -0.613298,0.118227 -0.90625,0.15625 0.0095,-0.07914 0.02789,-0.159519 0.03125,-0.25 2.69e-4,-0.01197 -1.96e-4,-0.01976 0,-0.03125 7.86e-4,-0.04594 0.0014,-0.08654 0,-0.125 l 0,-0.03125 c -0.0029,-0.134289 -0.0139,-0.232831 -0.03125,-0.34375 -0.0067,-0.04035 -0.02001,-0.07361 -0.03125,-0.125 -0.05169,-0.247002 -0.147237,-0.507461 -0.28125,-0.75 -0.05995,-0.108499 -0.15371,-0.221884 -0.25,-0.34375 -0.08548,-0.108174 -0.180892,-0.198807 -0.3125,-0.3125 -0.256269,-0.221383 -0.529146,-0.34594 -0.8125,-0.4375 l -0.1875,-0.03125 c -0.205273,-0.04115 -0.39265,-0.07437 -0.5625,-0.0625 a 0.43861465,0.43861465 0 0 1 -0.0625,-0.875 c 0.102844,-0.0072 0.1848,0.02555 0.28125,0.03125 l 0,-0.125 z"
       style="font-size:medium;font-style:normal;font-variant:normal;font-weight:normal;font-stretch:normal;text-indent:0;text-align:start;text-decoration:none;line-height:normal;letter-spacing:normal;word-spacing:normal;text-transform:none;direction:ltr;block-progression:tb;writing-mode:lr-tb;text-anchor:start;baseline-shift:baseline;color:#000000;fill:#7dbbdd;fill-opacity:1;stroke:none;stroke-width:0.875;marker:none;visibility:visible;display:inline;overflow:visible;enable-background:accumulate;font-family:Sans;-inkscape-font-specification:Sans"
       inkscape:connector-curvature="0" />
    <path
       style="fill:#e8ab2d;stroke:none"
       d="m 12.16098,10.61096 2.099737,2.537184 1.92476,5.686789 3.937008,4.286964 6.211723,4.024497 0,2.624672 C 22.455526,27.421252 18.576845,25.402891 14.698163,20.584714 14.387231,17.824028 13.658496,14.824597 11.723535,11.135895 z"
       id="path3094"
       inkscape:connector-curvature="0"
       sodipodi:nodetypes="ccccccccc" />
    <path
       style="fill:#f5cd2f;stroke:#1b2a34;stroke-width:1px;stroke-linecap:butt;stroke-linejoin:miter;stroke-opacity:1"
       d="M 27.12161,6.9364198 26.946632,5.4491057 C 22.868882,4.6073623 16.271013,2.9651668 15.718307,0.34455548 18.225275,3.0095215 23.628117,1.8164365 26.946632,1.774565"
       id="path3068"
       inkscape:connector-curvature="0"
       sodipodi:nodetypes="cccc" />
    <path
       sodipodi:nodetypes="ccccccccc"
       inkscape:connector-curvature="0"
       id="path3096"
       d="m 40.332459,10.61096 -2.099737,2.537184 -1.92476,5.686789 -3.937008,4.286964 -6.211723,4.024497 0,2.624672 c 3.878682,-2.349814 7.757363,-4.368175 11.636045,-9.186352 0.310932,-2.760686 1.039667,-5.760117 2.974628,-9.448819 z"
       style="fill:#e8ab2d;stroke:none" />
    <g
       id="g3072"
       style="fill:none"
       transform="translate(0,1.5180266)">
      <path
         style="fill:none;stroke:#1b2a34;stroke-width:1px;stroke-linecap:butt;stroke-linejoin:miter;stroke-opacity:1"
         d="m 10.411199,0.1690494 c -0.207753,2.6675136 0.24064,5.4990635 0.962379,8.3989501 0.404547,2.1295235 2.635559,4.5087325 3.324585,9.9737535 2.534672,4.346587 8.293376,7.71086 11.811099,9.580071"
         id="path3058"
         inkscape:connector-curvature="0"
         sodipodi:nodetypes="cccc" />
      <path
         sodipodi:nodetypes="cccc"
         inkscape:connector-curvature="0"
         id="path3056"
         d="m 10.411199,-1.3487556 c -0.207753,2.6675136 0.24064,7.0168685 0.962379,9.9167551 3.466664,2.5669685 3.860406,5.6460905 4.636921,8.6614175 2.534672,4.346587 6.980965,6.529739 10.498688,8.39895"
         style="fill:none;stroke:#1b2a34;stroke-width:1px;stroke-linecap:butt;stroke-linejoin:miter;stroke-opacity:1" />
      <path
         sodipodi:nodetypes="cscc"
         inkscape:connector-curvature="0"
         id="path3060"
         d="m 14.806649,19.066687 c -0.786365,2.399547 -2.814561,7.814534 -3.4213,8.741966 -0.405517,0.619854 -2.3553507,1.558841 -4.1027597,1.581744 l 5.6867887,8.928927"
         style="fill:none;stroke:#1b2a34;stroke-width:1px;stroke-linecap:butt;stroke-linejoin:miter;stroke-opacity:1" />
      <path
         sodipodi:nodetypes="cc"
         inkscape:connector-curvature="0"
         id="path3064"
         d="m 4.6073488,16.179548 c 3.6164721,-1.342787 6.4230632,3.698915 9.3909012,5.5993"
         style="fill:none;stroke:#1b2a34;stroke-width:0.75;stroke-linecap:butt;stroke-linejoin:miter;stroke-miterlimit:4;stroke-opacity:1;stroke-dasharray:none" />
      <path
         sodipodi:nodetypes="cc"
         inkscape:connector-curvature="0"
         id="path3066"
         d="m 4.2575457,18.541753 c 3.7654409,-1.143123 6.0526013,3.732319 8.7783253,6.124234"
         style="fill:none;stroke:#1b2a34;stroke-width:0.75;stroke-linecap:butt;stroke-linejoin:miter;stroke-miterlimit:4;stroke-opacity:1;stroke-dasharray:none" />
      <path
         transform="matrix(1.1666667,0,0,1,-2.9454651,0)"
         d="m 18.197726,16.00457 a 0.26246721,0.43744531 0 1 1 -0.524934,0 0.26246721,0.43744531 0 1 1 0.524934,0 z"
         sodipodi:ry="0.43744531"
         sodipodi:rx="0.26246721"
         sodipodi:cy="16.00457"
         sodipodi:cx="17.935259"
         id="path3070"
         style="fill:none;stroke:none"
         sodipodi:type="arc" />
    </g>
    <path
       style="font-size:medium;font-style:normal;font-variant:normal;font-weight:normal;font-stretch:normal;text-indent:0;text-align:start;text-decoration:none;line-height:normal;letter-spacing:normal;word-spacing:normal;text-transform:none;direction:ltr;block-progression:tb;writing-mode:lr-tb;text-anchor:start;baseline-shift:baseline;color:#000000;fill:#7dbbdd;fill-opacity:1;stroke:none;stroke-width:0.875;marker:none;visibility:visible;display:inline;overflow:visible;enable-background:accumulate;font-family:Sans;-inkscape-font-specification:Sans"
       d="m 46.75,19.986777 c -1.00298,0.101389 -1.933209,0.776993 -2.8125,1.6875 -0.140167,0.264135 -0.27664,0.554304 -0.34375,0.875 -0.01158,0.05297 -0.02018,0.12117 -0.03125,0.1875 -0.02575,0.164633 -0.02795,0.318691 -0.03125,0.46875 -0.0028,0.07759 -0.0015,0.15416 0,0.21875 0.0046,0.124383 0.007,0.27586 0.03125,0.4375 0.0028,0.01871 -0.0036,0.01562 0,0.03125 0.0087,0.03795 0.0208,0.03999 0.03125,0.0625 0.03265,0.192357 0.08906,0.370368 0.15625,0.5625 0.07033,0.201102 0.16186,0.371735 0.25,0.53125 0.0682,0.123438 0.14143,0.237842 0.21875,0.34375 -0.0047,-0.01259 0.01212,0.0298 0.0625,0.09375 0.01292,0.02366 0.0049,0.03067 0.03125,0.0625 0.06624,0.08243 0.07715,0.08653 0.03125,0.03125 0.247742,0.298991 0.548481,0.53069 0.875,0.71875 0.243733,0.140379 0.522788,0.33179 0.90625,0.40625 l 0.53125,0.09375 0,-0.125 c 0.09651,0.0058 0.178436,0.03845 0.28125,0.03125 a 0.43861465,0.43861465 0 1 0 -0.0625,-0.875 c -0.168003,0.01175 -0.357813,-0.0217 -0.5625,-0.0625 l -0.25,-0.03125 c -0.128407,-0.05443 -0.248905,-0.09688 -0.40625,-0.1875 -0.248777,-0.143284 -0.447578,-0.317127 -0.625,-0.53125 -0.0645,-0.07768 -0.07925,-0.09098 -0.03125,-0.03125 -0.01092,-0.01846 -0.01315,-0.0083 -0.03125,-0.03125 -0.08155,-0.10641 -0.16062,-0.238535 -0.21875,-0.34375 -0.07842,-0.141917 -0.14238,-0.245968 -0.1875,-0.375 -0.04825,-0.137986 -0.06672,-0.278287 -0.09375,-0.4375 -0.0075,-0.04459 -0.021,-0.03494 -0.03125,-0.0625 -0.01678,-0.100694 -0.02615,-0.203601 -0.03125,-0.34375 -0.0013,-0.05987 -0.0018,-0.10818 0,-0.15625 0.0027,-0.123176 0.01703,-0.242971 0.03125,-0.34375 0.0013,-0.0091 -0.0014,-0.02205 0,-0.03125 0.0062,-0.0336 0.02215,-0.08349 0.03125,-0.125 0.05169,-0.247002 0.147237,-0.507461 0.28125,-0.75 0.05995,-0.108499 0.15371,-0.221884 0.25,-0.34375 0.08548,-0.108174 0.180892,-0.198807 0.3125,-0.3125 0.256269,-0.221383 0.529146,-0.34594 0.8125,-0.4375 l 0.1875,-0.03125 c 0.205273,-0.04115 0.39265,-0.07437 0.5625,-0.0625 a 0.43861465,0.43861465 0 0 0 0.21875,-0.8125 c -0.115839,-0.0034 -0.230177,-0.01148 -0.34375,0 z m 1,0.0625 c -0.01025,0.02756 -0.02378,0.01791 -0.03125,0.0625 -0.02703,0.159213 -0.0455,0.299514 -0.09375,0.4375 -0.04512,0.129032 -0.109082,0.233083 -0.1875,0.375 -0.05813,0.105215 -0.1372,0.23734 -0.21875,0.34375 -0.0181,0.02297 -0.02033,0.01279 -0.03125,0.03125 0.048,-0.05973 0.03325,-0.04643 -0.03125,0.03125 -0.177422,0.214123 -0.376223,0.387966 -0.625,0.53125 -0.157345,0.09062 -0.277843,0.133074 -0.40625,0.1875 l -0.25,0.03125 c -0.204687,0.0408 -0.394497,0.07425 -0.5625,0.0625 a 0.43861465,0.43861465 0 1 0 -0.0625,0.875 c 0.102814,0.0072 0.184743,-0.02547 0.28125,-0.03125 l 0,0.125 0.53125,-0.09375 c 0.383462,-0.07446 0.662517,-0.265871 0.90625,-0.40625 0.326519,-0.18806 0.627258,-0.419759 0.875,-0.71875 -0.0459,0.05528 -0.03499,0.05118 0.03125,-0.03125 0.02632,-0.03183 0.01833,-0.03884 0.03125,-0.0625 0.05038,-0.06395 0.06724,-0.10634 0.0625,-0.09375 0.07732,-0.105908 0.150546,-0.220312 0.21875,-0.34375 0.08814,-0.159515 0.179671,-0.330148 0.25,-0.53125 0.06719,-0.192132 0.123597,-0.370143 0.15625,-0.5625 0.01045,-0.02251 0.02259,-0.02455 0.03125,-0.0625 0.0036,-0.01563 -0.0028,-0.01254 0,-0.03125 0.0017,-0.01149 -0.0015,-0.01987 0,-0.03125 l -0.875,-0.09375 z m -2.21875,3.1875 0,0.125 c -0.09645,-0.0057 -0.178406,-0.03844 -0.28125,-0.03125 a 0.43861465,0.43861465 0 1 0 0.0625,0.875 c 0.16985,-0.01187 0.357227,0.02135 0.5625,0.0625 l 0.1875,0.03125 c 0.283354,0.09156 0.556231,0.216117 0.8125,0.4375 0.131608,0.113693 0.227025,0.204326 0.3125,0.3125 0.09629,0.121866 0.190054,0.235251 0.25,0.34375 0.134013,0.242539 0.229561,0.502998 0.28125,0.75 0.01124,0.05139 0.02452,0.08465 0.03125,0.125 0.01735,0.110919 0.02832,0.209461 0.03125,0.34375 l 0,0.03125 c 0.0014,0.03846 7.86e-4,0.07906 0,0.125 -1.96e-4,0.01149 2.69e-4,0.01928 0,0.03125 -0.0046,0.12403 -0.01586,0.25139 -0.03125,0.34375 -0.01025,0.02756 -0.02378,0.01791 -0.03125,0.0625 -0.02703,0.159213 -0.0455,0.268264 -0.09375,0.40625 -0.04512,0.129032 -0.109082,0.264333 -0.1875,0.40625 -0.05813,0.105215 -0.1372,0.20609 -0.21875,0.3125 -0.03992,0.05067 -0.05203,0.06768 -0.0625,0.09375 -0.177422,0.214123 -0.376223,0.387966 -0.625,0.53125 -0.157345,0.09062 -0.277843,0.133074 -0.40625,0.1875 l -0.25,0.03125 c -0.204687,0.0408 -0.394497,0.07425 -0.5625,0.0625 a 0.43861465,0.43861465 0 1 0 -0.0625,0.875 c 0.102814,0.0072 0.184743,-0.02547 0.28125,-0.03125 l 0,0.125 0.53125,-0.09375 c 0.383462,-0.07446 0.662517,-0.265871 0.90625,-0.40625 0.326519,-0.18806 0.627258,-0.419759 0.875,-0.71875 -0.0459,0.05528 -0.03499,0.05118 0.03125,-0.03125 0.02632,-0.03183 0.01833,-0.03884 0.03125,-0.0625 0.05038,-0.06395 0.06724,-0.10634 0.0625,-0.09375 0.07732,-0.105908 0.150546,-0.220312 0.21875,-0.34375 0.08814,-0.159515 0.179671,-0.330148 0.25,-0.53125 0.06388,-0.182675 0.124158,-0.380114 0.15625,-0.5625 0.0017,-0.0094 -0.0016,-0.02178 0,-0.03125 0.01019,-0.0284 0.02447,-0.01706 0.03125,-0.0625 0.02938,-0.176232 0.02638,-0.304275 0.03125,-0.4375 l 0,-0.03125 c 0.0012,-0.05537 0.0015,-0.122571 0,-0.1875 -2.52e-4,-0.01082 4.06e-4,-0.02017 0,-0.03125 -0.0036,-0.140109 -0.0072,-0.283794 -0.03125,-0.4375 -0.01107,-0.06633 -0.01967,-0.134527 -0.03125,-0.1875 -0.07727,-0.369248 -0.244793,-0.707791 -0.40625,-1 -0.09949,-0.180077 -0.206696,-0.334848 -0.3125,-0.46875 -0.140389,-0.177672 -0.295394,-0.314739 -0.4375,-0.4375 -0.378506,-0.32698 -0.811681,-0.60937 -1.375,-0.71875 l -0.53125,-0.09375 z m -3.1875,0.3125 c -0.19697,0.253814 -0.397107,0.494396 -0.59375,0.75 0.167221,0.07746 0.343738,0.14626 0.5,0.28125 0.131607,0.113693 0.227025,0.204326 0.3125,0.3125 0.09629,0.121866 0.190054,0.235251 0.25,0.34375 0.134013,0.242539 0.229561,0.502998 0.28125,0.75 0.01124,0.05139 0.02452,0.08465 0.03125,0.125 0.01735,0.110919 0.02832,0.209461 0.03125,0.34375 l 0,0.03125 c 0.0014,0.03846 7.86e-4,0.07906 0,0.125 -1.96e-4,0.01149 2.69e-4,0.01928 0,0.03125 -0.0046,0.12403 -0.01586,0.25139 -0.03125,0.34375 -0.01025,0.02756 -0.02378,0.01791 -0.03125,0.0625 -0.02703,0.159213 -0.0455,0.268264 -0.09375,0.40625 -0.04512,0.129032 -0.109082,0.264333 -0.1875,0.40625 -0.05813,0.105215 -0.1372,0.20609 -0.21875,0.3125 -0.03992,0.05067 -0.05203,0.06768 -0.0625,0.09375 -0.177421,0.214123 -0.376223,0.387966 -0.625,0.53125 -0.157345,0.09062 -0.277843,0.133074 -0.40625,0.1875 l -0.09375,0 0.375,0.84375 c 0.210446,-0.08868 0.402237,-0.188946 0.5625,-0.28125 0.326518,-0.18806 0.627258,-0.419759 0.875,-0.71875 -0.0459,0.05528 -0.03499,0.05118 0.03125,-0.03125 0.02632,-0.03183 0.01833,-0.03884 0.03125,-0.0625 0.05038,-0.06395 0.06724,-0.10634 0.0625,-0.09375 0.07732,-0.105908 0.150546,-0.220312 0.21875,-0.34375 0.08814,-0.159515 0.179671,-0.330148 0.25,-0.53125 0.06388,-0.182675 0.124158,-0.380114 0.15625,-0.5625 0.0017,-0.0094 -0.0016,-0.02178 0,-0.03125 0.01019,-0.0284 0.02447,-0.01706 0.03125,-0.0625 0.02938,-0.176232 0.02638,-0.304275 0.03125,-0.4375 l 0,-0.03125 c 0.0012,-0.05537 0.0015,-0.122571 0,-0.1875 -2.52e-4,-0.01082 4.06e-4,-0.02017 0,-0.03125 -0.0036,-0.140109 -0.0072,-0.283794 -0.03125,-0.4375 -0.01107,-0.06633 -0.01967,-0.134527 -0.03125,-0.1875 -0.07727,-0.369248 -0.244793,-0.707791 -0.40625,-1 -0.09949,-0.180077 -0.206696,-0.334848 -0.3125,-0.46875 -0.140389,-0.177672 -0.295394,-0.314739 -0.4375,-0.4375 -0.144163,-0.124538 -0.304557,-0.239244 -0.46875,-0.34375 z m -1.40625,1.78125 c -0.186135,0.230712 -0.374221,0.440009 -0.5625,0.65625 0.07456,0.05013 0.140888,0.111405 0.21875,0.15625 0.243733,0.140379 0.522788,0.33179 0.90625,0.40625 l 0.53125,0.09375 0,-0.125 c 0.09651,0.0058 0.178436,0.03845 0.28125,0.03125 a 0.43861465,0.43861465 0 1 0 -0.0625,-0.875 c -0.168003,0.01175 -0.357813,-0.0217 -0.5625,-0.0625 l -0.25,-0.03125 c -0.128407,-0.05443 -0.248905,-0.09688 -0.40625,-0.1875 -0.03439,-0.01981 -0.06119,-0.0415 -0.09375,-0.0625 z m 1.09375,1.4375 -0.53125,0.09375 c -0.341329,0.06628 -0.643694,0.210253 -0.90625,0.375 l 0.375,0.84375 c 0.167414,-0.09859 0.354154,-0.192775 0.53125,-0.25 l 0.1875,-0.03125 c 0.205273,-0.04115 0.39265,-0.07437 0.5625,-0.0625 a 0.43861465,0.43861465 0 1 0 0.0625,-0.875 c -0.102844,-0.0072 -0.1848,0.02555 -0.28125,0.03125 l 0,-0.125 z m 4.625,0.15625 -0.53125,0.09375 c -0.563319,0.10938 -0.996494,0.39177 -1.375,0.71875 -0.142106,0.122761 -0.297111,0.259828 -0.4375,0.4375 -0.105804,0.133902 -0.21301,0.288673 -0.3125,0.46875 -0.161457,0.292209 -0.32898,0.630752 -0.40625,1 -0.01158,0.05297 -0.02018,0.12117 -0.03125,0.1875 -0.02405,0.153706 -0.02765,0.297391 -0.03125,0.4375 -4.06e-4,0.01108 2.52e-4,0.02043 0,0.03125 -0.0015,0.06493 -0.0012,0.13213 0,0.1875 l 0,0.03125 c 6.96e-4,0.01894 -4.93e-4,0.04362 0,0.0625 0.309404,0.05105 0.613298,0.118227 0.90625,0.15625 -0.0095,-0.07914 -0.02789,-0.159519 -0.03125,-0.25 -2.69e-4,-0.01197 1.96e-4,-0.01976 0,-0.03125 -7.86e-4,-0.04594 -0.0014,-0.08654 0,-0.125 l 0,-0.03125 c 0.0029,-0.134289 0.0139,-0.232831 0.03125,-0.34375 0.0067,-0.04035 0.02001,-0.07361 0.03125,-0.125 0.05169,-0.247002 0.147237,-0.507461 0.28125,-0.75 0.05995,-0.108499 0.15371,-0.221884 0.25,-0.34375 0.08548,-0.108174 0.180892,-0.198807 0.3125,-0.3125 0.256269,-0.221383 0.529146,-0.34594 0.8125,-0.4375 l 0.1875,-0.03125 c 0.205273,-0.04115 0.39265,-0.07437 0.5625,-0.0625 a 0.43861465,0.43861465 0 1 0 0.0625,-0.875 c -0.102844,-0.0072 -0.1848,0.02555 -0.28125,0.03125 l 0,-0.125 z"
       id="path3104"
       inkscape:connector-curvature="0" />
    <use
       x="0"
       y="0"
       xlink:href="#g3072"
       id="use3080"
       transform="matrix(-1,0,0,1,52.621172,3.4535107e-8)"
       width="52.34375"
       height="43.213669" />
    <path
       sodipodi:nodetypes="cccc"
       inkscape:connector-curvature="0"
       id="path3088"
       d="M 27.209099,6.9364198 27.384077,5.4491057 C 31.461827,4.6073623 38.468336,3.0235439 38.495648,0.40293259 36.105434,3.7100469 30.177658,1.8164365 26.859143,1.774565"
       style="fill:#f5cd2f;stroke:#1b2a34;stroke-width:1px;stroke-linecap:butt;stroke-linejoin:miter;stroke-opacity:1" />
    <path
       style="fill:#1b2a34;stroke:none"
       d="m 26.596675,1.9495432 0.349957,1.7497813 0.262467,-1.6622923"
       id="path3098"
       inkscape:connector-curvature="0" />
    <g
       transform="matrix(0.04777773,0,0,0.04907052,6.4209841,7.1147325)"
       style="display:inline"
       inkscape:label="outline"
       id="layer2-9">
      <path
         inkscape:connector-curvature="0"
         id="path3010"
         transform="translate(-16.574431,-8.0033426)"
         d="m 472.71875,0 c -2.01776,0.0541155 -3.79441,0.25796825 -5.25,0.59375 -2.65446,0.612345 -7.2672,1.09375 -10.25,1.09375 -7.22306,0 -22.1697,2.651167 -31.4375,5.5625 -11.82833,3.715685 -16.71343,4.52608 -26.96875,4.5625 -6.80898,0.02418 -10.83752,-0.459636 -13.90625,-1.6875 C 381.3699,8.710036 378.69541,8.514663 370.125,9 c -8.90323,0.504185 -11.49652,1.071684 -17.375,3.78125 -3.79969,1.751389 -7.67189,4.040567 -8.625,5.09375 -0.95312,1.053183 -4.32175,3.291414 -7.46875,4.96875 -4.13028,2.201418 -7.87826,5.550389 -13.53125,12.09375 -4.30721,4.985609 -10.11531,11.582163 -12.90625,14.65625 -5.7006,6.27894 -13.8106,18.29974 -14.90625,22.09375 -0.39707,1.375 -1.81456,4.13911 -3.15625,6.125 -2.05083,3.03552 -2.41895,4.64012 -2.21875,10.0625 0.19168,5.1917 -0.18267,7.14131 -1.96875,10.03125 -1.26174,2.041537 -2.28173,3.27543 -3.53125,3.875 -0.003,0.005 -0.0279,-0.005 -0.0312,0 -11.74112,17.65035 -34.21617,60.28682 8.25,112 8.24424,4.69156 17.89749,14.99445 19.28125,21.1875 1.31776,5.89764 3.39439,8.71875 6.40625,8.71875 1.38775,0 5.955,-1.59555 10.15625,-3.5625 6.29621,-2.94779 8.06048,-3.40072 9.96875,-2.53125 3.88851,1.77172 3.09086,6.35329 -2.0625,11.90625 -2.40262,2.58894 -5.09172,6.09165 -5.96875,7.8125 -0.87703,1.72085 -2.21324,3.38559 -3,3.6875 -0.78677,0.30191 -2.8847,3.6255 -4.65625,7.375 -4.11555,8.71058 -4.16042,13.27498 -0.1875,18.21875 1.6078,2.00069 3.87904,5.52397 5.0625,7.84375 3.47224,6.80614 18.40453,17.2209 24.75,17.25 3.35702,0.0154 4.05679,-1.86816 4.21875,-11.40625 0.10225,-6.0214 0.64562,-9.67634 1.65625,-11.21875 1.78158,-2.71905 8.27878,-4.87919 11.90625,-3.96875 5.42533,1.36167 7.46927,14.85901 3.5625,23.46875 -2.44498,5.38826 -2.48199,8.80101 -0.1875,13.78125 2.83466,6.1527 10.06638,14.0111 15.65625,17.03125 18.4247,9.95469 19.23612,10.78906 21.125,21.3125 0.83913,4.675 1.92878,9.625 2.40625,11 0.47747,1.375 1.13941,3.74086 1.46875,5.25 0.88723,4.06554 5.75464,5.80492 13.21875,4.71875 10.24548,-1.49092 17.54608,-3.00447 19.40625,-4 0.99253,-0.53119 5.65638,-0.96875 10.375,-0.96875 4.71862,0 9.35746,-0.41114 10.3125,-0.90625 0.95504,-0.49511 4.675,-2.05723 8.25,-3.5 3.575,-1.44277 9.875,-4.88405 14,-7.625 4.125,-2.74094 8.92967,-5.88545 10.65625,-7 6.57813,-4.24638 11.87104,-14.83351 12.78125,-25.5625 0.67889,-8.00234 0.63709,-8.22209 -3.375,-16.90625 -2.23623,-4.84031 -6.11618,-11.27177 -8.59375,-14.28125 -7.24813,-8.80424 -7.35975,-12.82354 -0.46875,-15.21875 5.2007,-1.80768 6.9786,-4.5419 7,-10.8125 0.0192,-5.61752 1.39053,-8.02503 5.59375,-9.78125 3.23731,-1.35263 6.03789,-1.20168 10.125,0.65625 11.57771,1.64291 22.53642,-3.51247 33.34375,-10.34375 1.81781,-1.53458 4.20703,-3.23929 7.1875,-5.125 3.16291,-2.00114 7.21291,-4.91218 9,-6.46875 1.78709,-1.55657 4.6,-3.55031 6.25,-4.40625 7.87703,-4.08621 14.09738,-13.84569 19.53125,-30.65625 3.27068,-10.11839 3.4529,-10.40955 9.40625,-15.15625 12.33811,-9.83738 26.5625,-27.7738 26.5625,-33.5 0,-0.93696 1.575,-4.52653 3.5,-7.96875 1.925,-3.44223 3.505,-7.08312 3.5,-8.09375 -0.022,-4.14351 -5.24904,-12.23596 -12.8125,-19.84375 -16.2739,-16.36928 -21.83829,-21.39016 -27.6875,-25.0625 -3.3,-2.07185 -7.575,-5.0318 -9.5,-6.5625 -3.9839,-3.16787 -17.46477,-9.62421 -22,-10.53125 -3.77754,-0.75551 -8.96733,-6.51167 -9.125,-10.125 -0.2007,-4.59918 0.14276,-5.5282 4.28125,-11.71875 3.83978,-5.74371 3.98774,-6.27765 3.59375,-12.5 -0.68191,-10.769385 -10.69273,-29 -15.9375,-29 -1.09763,0 -4.65097,1.635013 -7.875,3.625 -7.18987,4.437835 -8.31522,4.237998 -16.9375,-3.15625 -3.575,-3.065829 -8.975,-7.074246 -12,-8.90625 C 506.85694,4.845247 487.36021,0.24482 474.8125,0 c -0.72391,-0.01412425 -1.42116,-0.0180385 -2.09375,0 z M 485,19.125 c 0.66715,-0.02675 1.3467,-0.01778 2.03125,0 9.58367,0.248941 20.53132,4.510489 26,10.40625 10.84328,11.690107 19.42461,18.69411 24.59375,20.09375 2.65096,0.71779 2.66034,0.74129 -1.03125,1.96875 -4.99437,1.66064 -5.59368,4.0886 -2.3125,9.6875 1.46342,2.49714 3.73858,7.73249 5.0625,11.625 4.58226,13.47239 12.31785,22.39281 23.0625,26.625 3.23346,1.27362 8.6223,3.42606 11.96875,4.78125 6.73628,2.72794 26.78444,17.28429 32.71875,23.75 5.31496,5.79089 9.6875,12.18479 9.6875,14.15625 0,0.916 -0.91967,2.93893 -2.03125,4.5 -1.11157,1.56106 -2.6309,4.64617 -3.40625,6.84375 -1.95681,5.54618 -4.50246,9.128 -6.4375,9.125 -0.92469,-0.002 -2.7111,-2.03171 -4.125,-4.6875 -1.7182,-3.22737 -4.58729,-6.20398 -9.1875,-9.53125 -7.2699,-5.25821 -11.89658,-6.83473 -26.3125,-8.84375 -7.86398,-1.09594 -9.65267,-1.05764 -14,0.34375 -2.74127,0.88367 -7.66492,2.08205 -10.90625,2.65625 -7.95364,1.40898 -10.66721,3.38068 -16,11.5 -4.13732,6.29919 -6.6116,12.46422 -8.21875,20.5 -1.50276,7.51377 3.55834,22.85395 11.28125,34.1875 6.31627,9.26927 12.08408,14.08182 20.40625,17 4.20387,1.47409 7.4375,3.19008 7.4375,3.9375 0,0.72863 -2.475,2.80545 -5.5,4.625 -6.99626,4.20828 -12.0821,4.46584 -14.6875,0.75 -6.87292,-9.80223 -9.22347,-10.5515 -15.4375,-4.9375 -4.27841,3.86529 -7.99442,4.48753 -10.4375,1.75 -3.11222,-3.4873 -11.43701,-16.74327 -11.4375,-18.21875 -8e-4,-2.3728 -3.91621,-12.11679 -6.125,-15.21875 -4.11162,-5.77425 -6.41728,-3.20154 -8.40625,9.34375 -0.81623,5.1483 -2.23632,10.71769 -3.125,12.40625 -2.19798,4.17637 -7.46588,7.68605 -11,7.28125 -2.49945,-0.28628 -2.81906,-0.6907 -2.5625,-3.40625 0.21765,-2.30374 -0.8634,-4.77522 -4.3125,-9.8125 -2.9715,-4.33976 -4.9831,-8.64899 -5.71875,-12.15625 -1.05087,-5.01005 -0.96835,-5.65937 1.0625,-8.40625 1.2113,-1.63837 2.1875,-3.8882 2.1875,-5 0,-2.0222 -0.55238,-2.28529 -7.6875,-3.46875 -7.44699,-1.2352 -9.94323,-3.09256 -13.34375,-10 -2.90121,-5.89318 -3.17597,-7.23809 -2.6875,-12.625 0.30087,-3.31815 1.31469,-7.19752 2.25,-8.625 1.28676,-1.96384 1.67765,-4.77732 1.65625,-11.53125 -0.0272,-8.59149 0.0821,-9.06993 3.09375,-12.5 1.82574,-2.07941 6.07108,-4.87409 10.1875,-6.75 9.20001,-4.19258 10.53125,-5.60794 10.53125,-11.1875 0,-5.57457 -1.00779,-7.62685 -6.8125,-13.625 -7.30504,-7.54847 -11.91479,-6.04785 -10.78125,3.5 0.34331,2.89166 0.27185,5.78441 -0.15625,6.4375 -0.85724,1.30775 -5.56935,3.3125 -7.78125,3.3125 -1.99098,0 -9.01775,-15.2956 -10.375,-22.59375 -1.33352,-7.17059 -0.89857,-8.86011 2.71875,-10.25 13.6452,-5.24294 31.10136,-1.23995 43.96875,10.09375 3.59045,3.1625 7.13159,5.75 7.875,5.75 3.2656,0 1.00193,-4.54377 -5.40625,-10.875 -5.57778,-5.5108 -7.87881,-7.02343 -13.25,-8.78125 -15.18686,-4.97015 -28.25862,-5.01322 -38.6875,-0.125 -6.12814,2.87238 -6.3047,3.25124 -5.1875,12.25 0.9779,7.87672 4.77871,18.22462 9.375,25.53125 1.21093,1.925 2.49562,5.18041 2.875,7.21875 0.62082,3.33561 0.30783,4.10986 -3.09375,7.875 -2.07865,2.30083 -5.80202,5.06236 -8.28125,6.125 -5.93048,2.54191 -7.76051,4.29273 -10.625,10.21875 -2.4522,5.0731 -2.838,7.24615 -1.78125,10 1.01802,2.65291 3.69355,1.76676 7.59375,-2.5 3.27507,-3.58287 4.14332,-4.02664 7.5,-3.75 l 3.8125,0.3125 -0.21875,4.5 c -0.1282,2.475 -0.51447,7.26427 -0.84375,10.625 -0.51702,5.2769 -0.22676,7.00124 2.21875,12.75 1.72478,4.05453 5.20678,9.3412 8.875,13.53125 5.63817,6.44025 6.32964,7.81257 10.78125,21.25 2.61529,7.89443 4.73395,15.33595 4.71875,16.53125 -0.0152,1.19531 -1.17683,3.53483 -2.59375,5.21875 -1.41693,1.68392 -2.43614,3.84591 -2.25,4.8125 1.11425,5.7858 19.84399,5.98391 27.09375,0.28125 1.41235,-1.11096 4.06692,-2 5.96875,-2 6.31587,0 10.11004,6.88549 11.34375,20.5 0.60314,6.65589 0.49218,7.53568 -1.125,8.15625 -1.33399,0.5119 -2.66443,-0.26689 -5,-2.96875 -1.80585,-2.08905 -4.10198,-3.6875 -5.3125,-3.6875 -3.40128,0 -7.48877,7.14683 -8.25,14.40625 -0.5501,5.24597 -0.24777,7.01127 2.0625,12.59375 2.64529,6.39204 4.59404,9.62085 15.5625,25.46875 8.26915,11.94777 10.27614,20.56206 6.5,27.96875 -3.92591,7.70044 -9.4765,13.115 -15.9375,15.53125 -3.37612,1.26258 -7.06853,2.00756 -8.34375,1.6875 -2.82053,-0.70791 -9.38639,-13.44894 -10.8125,-20.96875 -2.05885,-10.85631 -6.34138,-15.21695 -10.46875,-10.65625 -2.28316,2.52286 -4.51887,17.68844 -3.75,25.46875 0.75038,7.59323 -1.00973,12.56301 -5.46875,15.4375 -4.45467,2.87168 -12.26602,3.95949 -13.9375,1.9375 -0.61694,-0.74632 -1.44454,-3.175 -1.84375,-5.375 -1.88403,-10.38264 -10.66917,-21.91511 -20.15625,-26.5 -3.40284,-1.64452 -6.46615,-3 -6.8125,-3 -1.53146,0 -7.66668,-5.50694 -9.59375,-8.625 -1.90565,-3.0834 -2.04017,-4.30794 -1.40625,-12.15625 0.3873,-4.79493 0.7621,-12.34616 0.8125,-16.78125 0.0909,-8.00267 0.032,-8.12612 -4.875,-15.90625 -6.12885,-9.71734 -9.14617,-11.8456 -15.8125,-11.125 -2.68207,0.28991 -5.83207,1.24223 -7,2.09375 -13.50127,9.84356 -15.20112,11.3446 -16.21875,14.4375 -0.59915,1.82101 -1.92037,3.77454 -2.9375,4.34375 -1.51774,0.84937 -2.34434,0.46949 -4.5625,-2.1875 -3.39716,-4.06925 -4.28756,-8.40697 -2.5,-11.90625 0.75278,-1.47363 1.67493,-4.16927 2.0625,-5.96875 0.52868,-2.45462 1.54764,-3.60547 4.0625,-4.65625 1.84364,-0.77032 4.38372,-2.95795 5.65625,-4.84375 1.27254,-1.8858 4.01833,-5.86594 6.09375,-8.875 5.82857,-8.45066 6.25017,-13.79563 2.6875,-33.71875 -0.97232,-5.43737 -7.34915,-20.19362 -13.4375,-31.125 -2.00389,-3.59791 -5.95081,-3.80343 -8.15625,-0.4375 -1.59947,2.44109 -1.63338,3.37371 -0.40625,10.8125 2.37221,14.38017 2.3882,19.59886 0.125,24.875 -2.79055,6.50555 -5.59992,7.7362 -10.96875,4.71875 -2.28071,-1.28184 -5.57646,-4.52235 -7.5,-7.375 -1.88518,-2.79575 -6.42869,-8.24375 -10.09375,-12.09375 -9.15549,-9.61747 -9.99605,-10.93246 -14.59375,-22.53125 -4.68824,-11.82722 -5.68946,-19.2191 -4.03125,-29.96875 1.73565,-11.25174 5.40393,-17.61251 12.9375,-22.5 7.23839,-4.696 8.16815,-6.88512 5.34375,-12.59375 -1.88614,-3.81221 -1.94192,-4.42707 -0.59375,-8.75 3.27012,-10.485683 4.54538,-15.9956 5.125,-22.53125 0.6353,-7.16357 1.13108,-8.19157 11.03125,-22.59375 8.4811,-12.33781 17.06595,-19.577878 32.125,-27.0625 13.97697,-6.946808 16.19057,-7.350655 40.125,-7.46875 18.20812,-0.08984 23.0246,-0.454176 31.375,-2.3125 5.61196,-1.248904 13.28457,-2.1875 17.8125,-2.1875 6.98238,0 8.88254,0.428108 15.53125,3.5 10.59517,4.89527 14.28125,4.476598 14.28125,-1.625 0,-4.04235 3.83092,-6.512375 11.25,-7.28125 0.64685,-0.06704 1.3016,-0.129501 1.96875,-0.15625 z m 30.8125,71.65625 c -0.28867,0.01127 -0.50811,0.03936 -0.59375,0.125 -1.35398,1.35398 1.10013,5.47212 6.25,10.5 4.83219,4.71773 5.87062,5.28125 9.71875,5.28125 6.41727,0 10.7783,-1.7794 10.40625,-4.25 -0.33049,-2.1947 -8.63764,-7.38594 -14.09375,-8.8125 -1.77326,-0.46364 -5.11733,-1.40952 -7.4375,-2.09375 -1.74012,-0.513172 -3.384,-0.783817 -4.25,-0.75 z m 38.4375,70.375 c 0.20967,-0.0106 0.43614,-0.012 0.65625,0 1.05653,0.0577 2.29652,0.35527 4.1875,0.875 13.64253,3.74958 15.70405,4.44391 18.03125,5.96875 3.07233,2.01306 6.66132,11.14867 7.375,18.75 0.48989,5.2178 0.32612,5.73639 -2.65625,8.71875 -1.7454,1.74541 -5.06638,3.68522 -7.375,4.3125 -2.30861,0.62728 -5.89512,1.7701 -7.96875,2.53125 -10.51638,3.86014 -17.26414,0.71583 -22.96875,-10.65625 -6.471,-12.89988 -4.57561,-23.23876 5.1875,-28.34375 2.75327,-1.43965 4.06357,-2.08199 5.53125,-2.15625 z"
         style="fill:#1b2a34" />
      <path
         inkscape:connector-curvature="0"
         id="path3023"
         transform="translate(-16.574431,-8.0033426)"
         d="m 484.96875,19.125 c -0.66715,0.02675 -1.3219,0.08921 -1.96875,0.15625 -7.41908,0.768875 -11.25,3.2389 -11.25,7.28125 0,6.101598 -3.68608,6.52027 -14.28125,1.625 -6.64871,-3.071892 -8.54887,-3.5 -15.53125,-3.5 -4.52793,0 -12.20054,0.938596 -17.8125,2.1875 -8.3504,1.858324 -13.16688,2.22266 -31.375,2.3125 -23.93443,0.118095 -26.14803,0.521942 -40.125,7.46875 -15.05905,7.484622 -23.6439,14.72469 -32.125,27.0625 -9.90017,14.40218 -10.39595,15.43018 -11.03125,22.59375 -0.57962,6.53565 -1.85488,12.045567 -5.125,22.53125 -1.34817,4.32293 -1.29239,4.93779 0.59375,8.75 2.8244,5.70863 1.89464,7.89775 -5.34375,12.59375 -7.53357,4.88749 -11.20185,11.24826 -12.9375,22.5 -1.65821,10.74965 -0.65699,18.14153 4.03125,29.96875 4.5977,11.59879 5.43826,12.91378 14.59375,22.53125 3.66506,3.85 8.20857,9.298 10.09375,12.09375 1.92354,2.85265 5.21929,6.09316 7.5,7.375 5.36883,3.01745 8.1782,1.7868 10.96875,-4.71875 2.2632,-5.27614 2.24721,-10.49483 -0.125,-24.875 -1.22713,-7.43879 -1.19322,-8.37141 0.40625,-10.8125 2.20544,-3.36593 6.15236,-3.16041 8.15625,0.4375 6.08835,10.93138 12.46518,25.68763 13.4375,31.125 3.56267,19.92312 3.14107,25.26809 -2.6875,33.71875 -2.07542,3.00906 -4.82121,6.9892 -6.09375,8.875 -1.27253,1.8858 -3.81261,4.07343 -5.65625,4.84375 -2.51486,1.05078 -3.53382,2.20163 -4.0625,4.65625 -0.38757,1.79948 -1.30972,4.49512 -2.0625,5.96875 -1.78756,3.49928 -0.89716,7.837 2.5,11.90625 2.21816,2.65699 3.04476,3.03687 4.5625,2.1875 1.01713,-0.56921 2.33835,-2.52274 2.9375,-4.34375 1.01763,-3.0929 2.71748,-4.59394 16.21875,-14.4375 1.16793,-0.85152 4.31793,-1.80384 7,-2.09375 6.66633,-0.7206 9.68365,1.40766 15.8125,11.125 4.907,7.78013 4.9659,7.90358 4.875,15.90625 -0.0504,4.43509 -0.4252,11.98632 -0.8125,16.78125 -0.63392,7.84831 -0.4994,9.07285 1.40625,12.15625 1.92707,3.11806 8.06229,8.625 9.59375,8.625 0.34635,0 3.40966,1.35548 6.8125,3 9.48708,4.58489 18.27222,16.11736 20.15625,26.5 0.39921,2.2 1.22681,4.62868 1.84375,5.375 1.67148,2.02199 9.48283,0.93418 13.9375,-1.9375 4.45902,-2.87449 6.21913,-7.84427 5.46875,-15.4375 -0.76887,-7.78031 1.46684,-22.94589 3.75,-25.46875 4.12737,-4.5607 8.4099,-0.20006 10.46875,10.65625 1.42611,7.51981 7.99197,20.26084 10.8125,20.96875 1.27522,0.32006 4.96763,-0.42492 8.34375,-1.6875 6.461,-2.41625 12.01159,-7.83081 15.9375,-15.53125 3.77614,-7.40669 1.76915,-16.02098 -6.5,-27.96875 -10.96846,-15.8479 -12.91721,-19.07671 -15.5625,-25.46875 -2.31027,-5.58248 -2.6126,-7.34778 -2.0625,-12.59375 0.76123,-7.25942 4.84872,-14.40625 8.25,-14.40625 1.21052,0 3.50665,1.59845 5.3125,3.6875 2.33557,2.70186 3.66601,3.48065 5,2.96875 1.61718,-0.62057 1.72814,-1.50036 1.125,-8.15625 -1.23371,-13.61451 -5.02788,-20.5 -11.34375,-20.5 -1.90183,0 -4.5564,0.88904 -5.96875,2 -7.24976,5.70266 -25.9795,5.50455 -27.09375,-0.28125 -0.18614,-0.96659 0.83307,-3.12858 2.25,-4.8125 1.41692,-1.68392 2.57855,-4.02344 2.59375,-5.21875 0.0152,-1.1953 -2.10346,-8.63682 -4.71875,-16.53125 -4.45161,-13.43743 -5.14308,-14.80975 -10.78125,-21.25 -3.66822,-4.19005 -7.15022,-9.47672 -8.875,-13.53125 -2.44551,-5.74876 -2.73577,-7.4731 -2.21875,-12.75 0.32928,-3.36073 0.71555,-8.15 0.84375,-10.625 l 0.21875,-4.5 -3.8125,-0.3125 c -3.35668,-0.27664 -4.22493,0.16713 -7.5,3.75 -3.9002,4.26676 -6.57573,5.15291 -7.59375,2.5 -1.05675,-2.75385 -0.67095,-4.9269 1.78125,-10 2.86449,-5.92602 4.69452,-7.67684 10.625,-10.21875 2.47923,-1.06264 6.2026,-3.82417 8.28125,-6.125 3.40158,-3.76514 3.71457,-4.53939 3.09375,-7.875 -0.37938,-2.03834 -1.66407,-5.29375 -2.875,-7.21875 -4.59629,-7.30663 -8.3971,-17.65453 -9.375,-25.53125 -1.1172,-8.99876 -0.94064,-9.37762 5.1875,-12.25 10.42888,-4.88822 23.50064,-4.84515 38.6875,0.125 5.37119,1.75782 7.67222,3.27045 13.25,8.78125 6.40818,6.33123 8.67185,10.875 5.40625,10.875 -0.74341,0 -4.28455,-2.5875 -7.875,-5.75 C 461.66386,77.6038 444.2077,73.60081 430.5625,78.84375 c -3.61732,1.38989 -4.05227,3.07941 -2.71875,10.25 1.35725,7.29815 8.38402,22.59375 10.375,22.59375 2.2119,0 6.92401,-2.00475 7.78125,-3.3125 0.4281,-0.65309 0.49956,-3.54584 0.15625,-6.4375 -1.13354,-9.54785 3.47621,-11.04847 10.78125,-3.5 5.80471,5.99815 6.8125,8.05043 6.8125,13.625 0,5.57956 -1.33124,6.99492 -10.53125,11.1875 -4.11642,1.87591 -8.36176,4.67059 -10.1875,6.75 -3.01165,3.43007 -3.12095,3.90851 -3.09375,12.5 0.0214,6.75393 -0.36949,9.56741 -1.65625,11.53125 -0.93531,1.42748 -1.94913,5.30685 -2.25,8.625 -0.48847,5.38691 -0.21371,6.73182 2.6875,12.625 3.40052,6.90744 5.89676,8.7648 13.34375,10 7.13512,1.18346 7.6875,1.44655 7.6875,3.46875 0,1.1118 -0.9762,3.36163 -2.1875,5 -2.03085,2.74688 -2.11337,3.3962 -1.0625,8.40625 0.73565,3.50726 2.74725,7.81649 5.71875,12.15625 3.4491,5.03728 4.53015,7.50876 4.3125,9.8125 -0.25656,2.71555 0.063,3.11997 2.5625,3.40625 3.53412,0.4048 8.80202,-3.10488 11,-7.28125 0.88868,-1.68856 2.30877,-7.25795 3.125,-12.40625 1.98897,-12.54529 4.29463,-15.118 8.40625,-9.34375 2.20879,3.10196 6.1242,12.84595 6.125,15.21875 4.9e-4,1.47548 8.32528,14.73145 11.4375,18.21875 2.44308,2.73753 6.15909,2.11529 10.4375,-1.75 6.21403,-5.614 8.56458,-4.86473 15.4375,4.9375 2.6054,3.71584 7.69124,3.45828 14.6875,-0.75 3.025,-1.81955 5.5,-3.89637 5.5,-4.625 0,-0.74742 -3.23363,-2.46341 -7.4375,-3.9375 -8.32217,-2.91818 -14.08998,-7.73073 -20.40625,-17 -7.72291,-11.33355 -12.78401,-26.67373 -11.28125,-34.1875 1.60715,-8.03578 4.08143,-14.20081 8.21875,-20.5 5.33279,-8.11932 8.04636,-10.09102 16,-11.5 3.24133,-0.5742 8.16498,-1.77258 10.90625,-2.65625 4.34733,-1.40139 6.13602,-1.43969 14,-0.34375 14.41592,2.00902 19.0426,3.58554 26.3125,8.84375 4.60021,3.32727 7.4693,6.30388 9.1875,9.53125 1.4139,2.65579 3.20031,4.6855 4.125,4.6875 1.93504,0.003 4.48069,-3.57882 6.4375,-9.125 0.77535,-2.19758 2.29468,-5.28269 3.40625,-6.84375 1.11158,-1.56107 2.03125,-3.584 2.03125,-4.5 0,-1.97146 -4.37254,-8.36536 -9.6875,-14.15625 -5.93431,-6.46571 -25.98247,-21.02206 -32.71875,-23.75 -3.34645,-1.35519 -8.73529,-3.50763 -11.96875,-4.78125 -10.74465,-4.23219 -18.48024,-13.15261 -23.0625,-26.625 -1.32392,-3.89251 -3.59908,-9.12786 -5.0625,-11.625 -3.28118,-5.5989 -2.68187,-8.02686 2.3125,-9.6875 3.69159,-1.22746 3.68221,-1.25096 1.03125,-1.96875 C 532.42461,48.22536 523.84328,41.221357 513,29.53125 507.53132,23.635489 496.58367,19.373941 487,19.125 c -0.68455,-0.01778 -1.3641,-0.02675 -2.03125,0 z m 30.8125,71.65625 c 0.866,-0.03382 2.50988,0.236828 4.25,0.75 2.32017,0.68423 5.66424,1.63011 7.4375,2.09375 5.45611,1.42656 13.76326,6.6178 14.09375,8.8125 0.37205,2.4706 -3.98898,4.25 -10.40625,4.25 -3.84813,0 -4.88656,-0.56352 -9.71875,-5.28125 -5.14987,-5.02788 -7.60398,-9.14602 -6.25,-10.5 0.0856,-0.08564 0.30508,-0.11373 0.59375,-0.125 z M 292.6875,213.8125 c 0.079,0.0962 0.17099,0.1849 0.25,0.28125 l 0.21875,0 c -0.15522,-0.0921 -0.31443,-0.19297 -0.46875,-0.28125 z"
         style="fill:#e29b3f;stroke:#000000;stroke-width:1px;stroke-linecap:butt;stroke-linejoin:miter;stroke-opacity:1" />
    </g>
    <path
       id="path3839"
       style="fill:#7dbbdd;fill-opacity:1;stroke:#231f20;stroke-width:0.3125;stroke-linecap:butt;stroke-linejoin:miter;stroke-miterlimit:4;stroke-opacity:1;stroke-dasharray:none;display:inline"
       d="m 53.230177,43.05584 c 8.7325,-47.29375 5.3425,-42.67874 14.2675,-42.85625 l 23.44,0 c 8.92625,0.17751 5.535,-4.4375 14.265003,42.85625 l -51.972503,0 z"
       inkscape:connector-curvature="0" />
    <path
       sodipodi:nodetypes="cccccc"
       inkscape:connector-curvature="0"
       id="path3841"
       d="m 99.951427,17.518027 c -2.748615,0.273116 -5.501386,4.017516 -8.25,5.78125 l 1.40625,2.875 c 2.5073,-2.358268 4.807577,-6.799768 8.073133,-6.125 -0.13642,-0.810372 -0.28129,-1.791388 -0.40625,-2.53125 -0.17116,-0.01111 -0.65197,-0.01701 -0.823133,0 z"
       style="fill:#cb8442;stroke:none" />
    <path
       inkscape:connector-curvature="0"
       id="path3843"
       d="m 99.795177,19.986777 c -2.47795,0.250491 -4.442824,3.915212 -6.59375,6.28125 l 1.84375,4.03125 c 3.269079,0.757225 5.860163,1.178097 7.781253,0.96875 -0.77122,-4.426912 -1.39835,-8.016108 -1.9375,-11.21875 l -0.59375,-0.0625 c -0.17006,-0.01519 -0.334806,-0.0167 -0.500003,0 z"
       style="fill:#0d69ab;stroke:none" />
    <path
       sodipodi:nodetypes="cccccc"
       inkscape:connector-curvature="0"
       id="path3845"
       d="m 58.420177,17.455527 c -0.158573,0.01678 -0.660438,-0.0666 -0.819012,-0.023 -0.128972,0.763373 -0.296313,1.786686 -0.4375,2.625 3.646193,-1.424894 6.092871,3.548938 8.756512,6.054254 l 1.375,-2.90625 c -2.960046,-1.899406 -5.914953,-6.063135 -8.875,-5.75 z"
       style="fill:#cb8442;stroke:none" />
    <path
       inkscape:connector-curvature="0"
       id="path3847"
       d="m 58.545177,19.986777 -1.03125,0.125 c -0.53463,3.174439 -1.113254,6.721543 -1.875,11.09375 1.953222,0.319522 4.662264,-0.09693 8.15625,-0.90625 l 1.84375,-4.03125 c -2.294321,-2.523774 -4.372814,-6.524256 -7.09375,-6.28125 z"
       style="fill:#0d69ab;stroke:none" />
    <path
       style="fill:#a43b01;fill-opacity:1;stroke:#1b2a34;stroke-width:1px;stroke-linecap:butt;stroke-linejoin:miter;stroke-opacity:1"
       d="M 73.21875,30.34375 C 67.364408,30.3944 61.510592,30.616406 55.65625,31 c -0.471767,2.710253 -1.008621,5.703998 -1.59375,8.9375 l 13.59375,0.09375 2.375,-4.125 9.53125,-0.03125 9.53125,-0.03125 2.53125,4.34375 12.78125,0.09375 c -0.55301,-3.052473 -1.04796,-5.879754 -1.5,-8.46875 l -0.0937,-0.375 C 92.951701,30.631646 83.079497,30.258438 73.21875,30.34375 z"
       id="path3849"
       inkscape:connector-curvature="0" />
    <path
       inkscape:connector-curvature="0"
       style="font-size:medium;font-style:normal;font-variant:normal;font-weight:normal;font-stretch:normal;text-indent:0;text-align:start;text-decoration:none;line-height:normal;letter-spacing:normal;word-spacing:normal;text-transform:none;direction:ltr;block-progression:tb;writing-mode:lr-tb;text-anchor:start;baseline-shift:baseline;color:#000000;fill:#7dbbdd;fill-opacity:1;stroke:none;stroke-width:0.875;marker:none;visibility:visible;display:inline;overflow:visible;enable-background:accumulate;font-family:Sans;-inkscape-font-specification:Sans"
       d="m 59.051082,19.986777 c 1.00298,0.101389 1.933209,0.776993 2.8125,1.6875 0.140167,0.264135 0.27664,0.554304 0.34375,0.875 0.01158,0.05297 0.02018,0.12117 0.03125,0.1875 0.02575,0.164633 0.02795,0.318691 0.03125,0.46875 0.0028,0.07759 0.0015,0.15416 0,0.21875 -0.0046,0.124383 -0.007,0.27586 -0.03125,0.4375 -0.0028,0.01871 0.0036,0.01562 0,0.03125 -0.0087,0.03795 -0.0208,0.03999 -0.03125,0.0625 -0.03265,0.192357 -0.08906,0.370368 -0.15625,0.5625 -0.07033,0.201102 -0.16186,0.371735 -0.25,0.53125 -0.0682,0.123438 -0.14143,0.237842 -0.21875,0.34375 0.0047,-0.01259 -0.01212,0.0298 -0.0625,0.09375 -0.01292,0.02366 -0.0049,0.03067 -0.03125,0.0625 -0.06624,0.08243 -0.07715,0.08653 -0.03125,0.03125 -0.247742,0.298991 -0.548481,0.53069 -0.875,0.71875 -0.243733,0.140379 -0.522788,0.33179 -0.90625,0.40625 l -0.53125,0.09375 0,-0.125 c -0.09651,0.0058 -0.178436,0.03845 -0.28125,0.03125 a 0.43861465,0.43861465 0 0 1 0.0625,-0.875 c 0.168003,0.01175 0.357813,-0.0217 0.5625,-0.0625 l 0.25,-0.03125 c 0.128407,-0.05443 0.248905,-0.09688 0.40625,-0.1875 0.248777,-0.143284 0.447578,-0.317127 0.625,-0.53125 0.0645,-0.07768 0.07925,-0.09098 0.03125,-0.03125 0.01092,-0.01846 0.01315,-0.0083 0.03125,-0.03125 0.08155,-0.10641 0.16062,-0.238535 0.21875,-0.34375 0.07842,-0.141917 0.14238,-0.245968 0.1875,-0.375 0.04825,-0.137986 0.06672,-0.278287 0.09375,-0.4375 0.0075,-0.04459 0.021,-0.03494 0.03125,-0.0625 0.01678,-0.100694 0.02615,-0.203601 0.03125,-0.34375 0.0013,-0.05987 0.0018,-0.10818 0,-0.15625 -0.0027,-0.123176 -0.01703,-0.242971 -0.03125,-0.34375 -0.0013,-0.0091 0.0014,-0.02205 0,-0.03125 -0.0062,-0.0336 -0.02215,-0.08349 -0.03125,-0.125 -0.05169,-0.247002 -0.147237,-0.507461 -0.28125,-0.75 -0.05995,-0.108499 -0.15371,-0.221884 -0.25,-0.34375 -0.08548,-0.108174 -0.180892,-0.198807 -0.3125,-0.3125 -0.256269,-0.221383 -0.529146,-0.34594 -0.8125,-0.4375 l -0.1875,-0.03125 c -0.205273,-0.04115 -0.39265,-0.07437 -0.5625,-0.0625 a 0.43861465,0.43861465 0 0 1 -0.21875,-0.8125 c 0.115839,-0.0034 0.230177,-0.01148 0.34375,0 z m -1,0.0625 c 0.01025,0.02756 0.02378,0.01791 0.03125,0.0625 0.02703,0.159213 0.0455,0.299514 0.09375,0.4375 0.04512,0.129032 0.109082,0.233083 0.1875,0.375 0.05813,0.105215 0.1372,0.23734 0.21875,0.34375 0.0181,0.02297 0.02033,0.01279 0.03125,0.03125 -0.048,-0.05973 -0.03325,-0.04643 0.03125,0.03125 0.177422,0.214123 0.376223,0.387966 0.625,0.53125 0.157345,0.09062 0.277843,0.133074 0.40625,0.1875 l 0.25,0.03125 c 0.204687,0.0408 0.394497,0.07425 0.5625,0.0625 a 0.43861465,0.43861465 0 0 1 0.0625,0.875 c -0.102814,0.0072 -0.184743,-0.02547 -0.28125,-0.03125 l 0,0.125 -0.53125,-0.09375 c -0.383462,-0.07446 -0.662517,-0.265871 -0.90625,-0.40625 -0.326519,-0.18806 -0.627258,-0.419759 -0.875,-0.71875 0.0459,0.05528 0.03499,0.05118 -0.03125,-0.03125 -0.02632,-0.03183 -0.01833,-0.03884 -0.03125,-0.0625 -0.05038,-0.06395 -0.06724,-0.10634 -0.0625,-0.09375 -0.07732,-0.105908 -0.150546,-0.220312 -0.21875,-0.34375 -0.08814,-0.159515 -0.179671,-0.330148 -0.25,-0.53125 -0.06719,-0.192132 -0.123597,-0.370143 -0.15625,-0.5625 -0.01045,-0.02251 -0.02259,-0.02455 -0.03125,-0.0625 -0.0036,-0.01563 0.0028,-0.01254 0,-0.03125 -0.0017,-0.01149 0.0015,-0.01987 0,-0.03125 l 0.875,-0.09375 z m 2.21875,3.1875 0,0.125 c 0.09645,-0.0057 0.178406,-0.03844 0.28125,-0.03125 a 0.43861465,0.43861465 0 0 1 -0.0625,0.875 c -0.16985,-0.01187 -0.357227,0.02135 -0.5625,0.0625 l -0.1875,0.03125 c -0.283354,0.09156 -0.556231,0.216117 -0.8125,0.4375 -0.131608,0.113693 -0.227025,0.204326 -0.3125,0.3125 -0.09629,0.121866 -0.190054,0.235251 -0.25,0.34375 -0.134013,0.242539 -0.229561,0.502998 -0.28125,0.75 -0.01124,0.05139 -0.02452,0.08465 -0.03125,0.125 -0.01735,0.110919 -0.02832,0.209461 -0.03125,0.34375 l 0,0.03125 c -0.0014,0.03846 -7.86e-4,0.07906 0,0.125 1.96e-4,0.01149 -2.69e-4,0.01928 0,0.03125 0.0046,0.12403 0.01586,0.25139 0.03125,0.34375 0.01025,0.02756 0.02378,0.01791 0.03125,0.0625 0.02703,0.159213 0.0455,0.268264 0.09375,0.40625 0.04512,0.129032 0.109082,0.264333 0.1875,0.40625 0.05813,0.105215 0.1372,0.20609 0.21875,0.3125 0.03992,0.05067 0.05203,0.06768 0.0625,0.09375 0.177422,0.214123 0.376223,0.387966 0.625,0.53125 0.157345,0.09062 0.277843,0.133074 0.40625,0.1875 l 0.25,0.03125 c 0.204687,0.0408 0.394497,0.07425 0.5625,0.0625 a 0.43861465,0.43861465 0 0 1 0.0625,0.875 c -0.102814,0.0072 -0.184743,-0.02547 -0.28125,-0.03125 l 0,0.125 -0.53125,-0.09375 c -0.383462,-0.07446 -0.662517,-0.265871 -0.90625,-0.40625 -0.326519,-0.18806 -0.627258,-0.419759 -0.875,-0.71875 0.0459,0.05528 0.03499,0.05118 -0.03125,-0.03125 -0.02632,-0.03183 -0.01833,-0.03884 -0.03125,-0.0625 -0.05038,-0.06395 -0.06724,-0.10634 -0.0625,-0.09375 -0.07732,-0.105908 -0.150546,-0.220312 -0.21875,-0.34375 -0.08814,-0.159515 -0.179671,-0.330148 -0.25,-0.53125 -0.06388,-0.182675 -0.124158,-0.380114 -0.15625,-0.5625 -0.0017,-0.0094 0.0016,-0.02178 0,-0.03125 -0.01019,-0.0284 -0.02447,-0.01706 -0.03125,-0.0625 -0.02938,-0.176232 -0.02638,-0.304275 -0.03125,-0.4375 l 0,-0.03125 c -0.0012,-0.05537 -0.0015,-0.122571 0,-0.1875 2.52e-4,-0.01082 -4.06e-4,-0.02017 0,-0.03125 0.0036,-0.140109 0.0072,-0.283794 0.03125,-0.4375 0.01107,-0.06633 0.01967,-0.134527 0.03125,-0.1875 0.07727,-0.369248 0.244793,-0.707791 0.40625,-1 0.09949,-0.180077 0.206696,-0.334848 0.3125,-0.46875 0.140389,-0.177672 0.295394,-0.314739 0.4375,-0.4375 0.378506,-0.32698 0.811681,-0.60937 1.375,-0.71875 l 0.53125,-0.09375 z m 3.1875,0.3125 c 0.19697,0.253814 0.397107,0.494396 0.59375,0.75 -0.167221,0.07746 -0.343738,0.14626 -0.5,0.28125 -0.131607,0.113693 -0.227025,0.204326 -0.3125,0.3125 -0.09629,0.121866 -0.190054,0.235251 -0.25,0.34375 -0.134013,0.242539 -0.229561,0.502998 -0.28125,0.75 -0.01124,0.05139 -0.02452,0.08465 -0.03125,0.125 -0.01735,0.110919 -0.02832,0.209461 -0.03125,0.34375 l 0,0.03125 c -0.0014,0.03846 -7.86e-4,0.07906 0,0.125 1.96e-4,0.01149 -2.69e-4,0.01928 0,0.03125 0.0046,0.12403 0.01586,0.25139 0.03125,0.34375 0.01025,0.02756 0.02378,0.01791 0.03125,0.0625 0.02703,0.159213 0.0455,0.268264 0.09375,0.40625 0.04512,0.129032 0.109082,0.264333 0.1875,0.40625 0.05813,0.105215 0.1372,0.20609 0.21875,0.3125 0.03992,0.05067 0.05203,0.06768 0.0625,0.09375 0.177421,0.214123 0.376223,0.387966 0.625,0.53125 0.157345,0.09062 0.277843,0.133074 0.40625,0.1875 l 0.09375,0 -0.375,0.84375 c -0.210446,-0.08868 -0.402237,-0.188946 -0.5625,-0.28125 -0.326518,-0.18806 -0.627258,-0.419759 -0.875,-0.71875 0.0459,0.05528 0.03499,0.05118 -0.03125,-0.03125 -0.02632,-0.03183 -0.01833,-0.03884 -0.03125,-0.0625 -0.05038,-0.06395 -0.06724,-0.10634 -0.0625,-0.09375 -0.07732,-0.105908 -0.150546,-0.220312 -0.21875,-0.34375 -0.08814,-0.159515 -0.179671,-0.330148 -0.25,-0.53125 -0.06388,-0.182675 -0.124158,-0.380114 -0.15625,-0.5625 -0.0017,-0.0094 0.0016,-0.02178 0,-0.03125 -0.01019,-0.0284 -0.02447,-0.01706 -0.03125,-0.0625 -0.02938,-0.176232 -0.02638,-0.304275 -0.03125,-0.4375 l 0,-0.03125 c -0.0012,-0.05537 -0.0015,-0.122571 0,-0.1875 2.52e-4,-0.01082 -4.06e-4,-0.02017 0,-0.03125 0.0036,-0.140109 0.0072,-0.283794 0.03125,-0.4375 0.01107,-0.06633 0.01967,-0.134527 0.03125,-0.1875 0.07727,-0.369248 0.244793,-0.707791 0.40625,-1 0.09949,-0.180077 0.206696,-0.334848 0.3125,-0.46875 0.140389,-0.177672 0.295394,-0.314739 0.4375,-0.4375 0.144163,-0.124538 0.304557,-0.239244 0.46875,-0.34375 z m 1.40625,1.78125 c 0.186135,0.230712 0.374221,0.440009 0.5625,0.65625 -0.07456,0.05013 -0.140888,0.111405 -0.21875,0.15625 -0.243733,0.140379 -0.522788,0.33179 -0.90625,0.40625 l -0.53125,0.09375 0,-0.125 c -0.09651,0.0058 -0.178436,0.03845 -0.28125,0.03125 a 0.43861465,0.43861465 0 0 1 0.0625,-0.875 c 0.168003,0.01175 0.357813,-0.0217 0.5625,-0.0625 l 0.25,-0.03125 c 0.128407,-0.05443 0.248905,-0.09688 0.40625,-0.1875 0.03439,-0.01981 0.06119,-0.0415 0.09375,-0.0625 z m -1.09375,1.4375 0.53125,0.09375 c 0.341329,0.06628 0.643694,0.210253 0.90625,0.375 l -0.375,0.84375 c -0.167414,-0.09859 -0.354154,-0.192775 -0.53125,-0.25 l -0.1875,-0.03125 c -0.205273,-0.04115 -0.39265,-0.07437 -0.5625,-0.0625 a 0.43861465,0.43861465 0 0 1 -0.0625,-0.875 c 0.102844,-0.0072 0.1848,0.02555 0.28125,0.03125 l 0,-0.125 z m -4.625,0.15625 0.53125,0.09375 c 0.563319,0.10938 0.996494,0.39177 1.375,0.71875 0.142106,0.122761 0.297111,0.259828 0.4375,0.4375 0.105804,0.133902 0.21301,0.288673 0.3125,0.46875 0.161457,0.292209 0.32898,0.630752 0.40625,1 0.01158,0.05297 0.02018,0.12117 0.03125,0.1875 0.02405,0.153706 0.02765,0.297391 0.03125,0.4375 4.06e-4,0.01108 -2.52e-4,0.02043 0,0.03125 0.0015,0.06493 0.0012,0.13213 0,0.1875 l 0,0.03125 c -6.96e-4,0.01894 4.93e-4,0.04362 0,0.0625 -0.309404,0.05105 -0.613298,0.118227 -0.90625,0.15625 0.0095,-0.07914 0.02789,-0.159519 0.03125,-0.25 2.69e-4,-0.01197 -1.96e-4,-0.01976 0,-0.03125 7.86e-4,-0.04594 0.0014,-0.08654 0,-0.125 l 0,-0.03125 c -0.0029,-0.134289 -0.0139,-0.232831 -0.03125,-0.34375 -0.0067,-0.04035 -0.02001,-0.07361 -0.03125,-0.125 -0.05169,-0.247002 -0.147237,-0.507461 -0.28125,-0.75 -0.05995,-0.108499 -0.15371,-0.221884 -0.25,-0.34375 -0.08548,-0.108174 -0.180892,-0.198807 -0.3125,-0.3125 -0.256269,-0.221383 -0.529146,-0.34594 -0.8125,-0.4375 l -0.1875,-0.03125 c -0.205273,-0.04115 -0.39265,-0.07437 -0.5625,-0.0625 a 0.43861465,0.43861465 0 0 1 -0.0625,-0.875 c 0.102844,-0.0072 0.1848,0.02555 0.28125,0.03125 l 0,-0.125 z"
       id="path3853" />
    <path
       style="fill:#a1a5a2;stroke:#1b2a34;stroke-width:0.625;stroke-miterlimit:4;stroke-dasharray:none"
       d="m 72.375,0.375 c 0,0 -4.978911,25.907201 -7.3125,29.03125 -0.998759,1.337069 -2.28782,1.467576 -3.90625,1.6875 l 0.3125,0.53125 5.71875,8.46875 c 0.147144,0.0017 0.290512,-0.0017 0.4375,0 l 2.40625,-4.1875 9.53125,-0.03125 9.53125,-0.03125 2.46875,4.25 c 0.188928,-0.0022 0.373315,0.0022 0.5625,0 l 5.6875,-8.4375 0.3125,-0.5625 C 96.507354,30.87396 95.248418,30.742862 94.25,29.40625 91.916411,26.282201 86.90625,0.375 86.90625,0.375 l -14.53125,0 z"
       id="path3851"
       inkscape:connector-curvature="0" />
    <path
       style="fill:#a1a5a2;stroke:#000000;stroke-width:0.625;stroke-linecap:butt;stroke-linejoin:miter;stroke-miterlimit:4;stroke-opacity:1;stroke-dasharray:none"
       d="m 63.625,0.15625 c -0.484313,0.0350362 -0.912732,0.12810525 -1.28125,0.3125 0.09246,0.7390988 0.633662,7.2596509 1.625,8.0732816 1.089269,0.8940067 15.5,4.6562504 15.5,4.6562504 0,0 14.212763,-3.637666 15.53125,-4.6562504 C 96.043423,7.735945 96.436992,2.1002832 96.5625,0.8125 95.425013,-0.17182437 93.832978,0.24508031 90.9375,0.1875 l -23.4375,0 C 65.826562,0.22078313 64.593626,0.08617762 63.625,0.15625 z"
       id="path3933"
       inkscape:connector-curvature="0"
       sodipodi:nodetypes="scscscccs" />
    <path
       style="fill:#f5cd2f;stroke:#1b2a34;stroke-width:0.625;stroke-linecap:butt;stroke-linejoin:miter;stroke-miterlimit:4;stroke-opacity:1;stroke-dasharray:none"
       d="m 67.825803,0.34375 c 0.552706,2.6206113 7.17225,4.2520066 11.25,5.09375 0.799339,8.175231 -0.281628,4.3607107 0.4375,0 C 83.591053,4.5957566 90.579741,3.0268613 90.607053,0.40625 88.236288,3.686455 88.552045,1.9458202 79.111606,1.8776848 69.671168,1.8095493 70.371197,2.8339633 67.825803,0.34375 z"
       id="path3857"
       inkscape:connector-curvature="0"
       sodipodi:nodetypes="cccczc" />
    <path
       sodipodi:nodetypes="cc"
       inkscape:connector-curvature="0"
       id="path3869"
       d="m 57.652526,17.697575 c 3.616472,-1.342787 6.423063,3.698915 9.390901,5.5993"
       style="fill:none;stroke:#1b2a34;stroke-width:0.75;stroke-linecap:butt;stroke-linejoin:miter;stroke-miterlimit:4;stroke-opacity:1;stroke-dasharray:none" />
    <path
       sodipodi:nodetypes="cc"
       inkscape:connector-curvature="0"
       id="path3871"
       d="m 57.302723,20.05978 c 3.765441,-1.143123 6.298906,3.896523 9.02463,6.288438"
       style="fill:none;stroke:#1b2a34;stroke-width:0.75;stroke-linecap:butt;stroke-linejoin:miter;stroke-miterlimit:4;stroke-opacity:1;stroke-dasharray:none" />
    <path
       transform="matrix(1.1666667,0,0,1,50.099712,1.5180266)"
       d="m 18.197726,16.00457 a 0.26246721,0.43744531 0 1 1 -0.524934,0 0.26246721,0.43744531 0 1 1 0.524934,0 z"
       sodipodi:ry="0.43744531"
       sodipodi:rx="0.26246721"
       sodipodi:cy="16.00457"
       sodipodi:cx="17.935259"
       id="path3873"
       style="fill:none;stroke:none"
       sodipodi:type="arc" />
    <path
       inkscape:connector-curvature="0"
       id="path3875"
       d="m 99.795177,19.986777 c -1.00298,0.101389 -1.933209,0.776993 -2.8125,1.6875 -0.140167,0.264135 -0.27664,0.554304 -0.34375,0.875 -0.01158,0.05297 -0.02018,0.12117 -0.03125,0.1875 -0.02575,0.164633 -0.02795,0.318691 -0.03125,0.46875 -0.0028,0.07759 -0.0015,0.15416 0,0.21875 0.0046,0.124383 0.007,0.27586 0.03125,0.4375 0.0028,0.01871 -0.0036,0.01562 0,0.03125 0.0087,0.03795 0.0208,0.03999 0.03125,0.0625 0.03265,0.192357 0.08906,0.370368 0.15625,0.5625 0.07033,0.201102 0.16186,0.371735 0.25,0.53125 0.0682,0.123438 0.14143,0.237842 0.21875,0.34375 -0.0047,-0.01259 0.01212,0.0298 0.0625,0.09375 0.01292,0.02366 0.0049,0.03067 0.03125,0.0625 0.06624,0.08243 0.07715,0.08653 0.03125,0.03125 0.247742,0.298991 0.548481,0.53069 0.875,0.71875 0.243733,0.140379 0.522788,0.33179 0.90625,0.40625 l 0.53125,0.09375 0,-0.125 c 0.09651,0.0058 0.178436,0.03845 0.28125,0.03125 a 0.43861465,0.43861465 0 1 0 -0.0625,-0.875 c -0.168003,0.01175 -0.357813,-0.0217 -0.5625,-0.0625 l -0.25,-0.03125 c -0.128407,-0.05443 -0.248905,-0.09688 -0.40625,-0.1875 -0.248777,-0.143284 -0.447578,-0.317127 -0.625,-0.53125 -0.0645,-0.07768 -0.07925,-0.09098 -0.03125,-0.03125 -0.01092,-0.01846 -0.01315,-0.0083 -0.03125,-0.03125 -0.08155,-0.10641 -0.16062,-0.238535 -0.21875,-0.34375 -0.07842,-0.141917 -0.14238,-0.245968 -0.1875,-0.375 -0.04825,-0.137986 -0.06672,-0.278287 -0.09375,-0.4375 -0.0075,-0.04459 -0.021,-0.03494 -0.03125,-0.0625 -0.01678,-0.100694 -0.02615,-0.203601 -0.03125,-0.34375 -0.0013,-0.05987 -0.0018,-0.10818 0,-0.15625 0.0027,-0.123176 0.01703,-0.242971 0.03125,-0.34375 0.0013,-0.0091 -0.0014,-0.02205 0,-0.03125 0.0062,-0.0336 0.02215,-0.08349 0.03125,-0.125 0.05169,-0.247002 0.147237,-0.507461 0.28125,-0.75 0.05995,-0.108499 0.15371,-0.221884 0.25,-0.34375 0.08548,-0.108174 0.180892,-0.198807 0.3125,-0.3125 0.256269,-0.221383 0.529146,-0.34594 0.8125,-0.4375 l 0.1875,-0.03125 c 0.205273,-0.04115 0.39265,-0.07437 0.5625,-0.0625 a 0.43861465,0.43861465 0 0 0 0.218753,-0.8125 c -0.11584,-0.0034 -0.23018,-0.01148 -0.343753,0 z m 1.000003,0.0625 c -0.0102,0.02756 -0.0238,0.01791 -0.0312,0.0625 -0.027,0.159213 -0.0455,0.299514 -0.0937,0.4375 -0.0451,0.129032 -0.10908,0.233083 -0.1875,0.375 -0.0581,0.105215 -0.1372,0.23734 -0.21875,0.34375 -0.0181,0.02297 -0.0203,0.01279 -0.0312,0.03125 0.048,-0.05973 0.0332,-0.04643 -0.0312,0.03125 -0.17742,0.214123 -0.376226,0.387966 -0.625003,0.53125 -0.157345,0.09062 -0.277843,0.133074 -0.40625,0.1875 l -0.25,0.03125 c -0.204687,0.0408 -0.394497,0.07425 -0.5625,0.0625 a 0.43861465,0.43861465 0 1 0 -0.0625,0.875 c 0.102814,0.0072 0.184743,-0.02547 0.28125,-0.03125 l 0,0.125 0.53125,-0.09375 c 0.383462,-0.07446 0.662517,-0.265871 0.906253,-0.40625 0.32652,-0.18806 0.62726,-0.419759 0.875,-0.71875 -0.0459,0.05528 -0.035,0.05118 0.0312,-0.03125 0.0263,-0.03183 0.0183,-0.03884 0.0312,-0.0625 0.0504,-0.06395 0.0672,-0.10634 0.0625,-0.09375 0.0773,-0.105908 0.15054,-0.220312 0.21875,-0.34375 0.0881,-0.159515 0.17967,-0.330148 0.25,-0.53125 0.0672,-0.192132 0.12359,-0.370143 0.15625,-0.5625 0.0104,-0.02251 0.0226,-0.02455 0.0312,-0.0625 0.004,-0.01563 -0.003,-0.01254 0,-0.03125 0.002,-0.01149 -0.002,-0.01987 0,-0.03125 l -0.875,-0.09375 z m -2.218753,3.1875 0,0.125 c -0.09645,-0.0057 -0.178406,-0.03844 -0.28125,-0.03125 a 0.43861465,0.43861465 0 1 0 0.0625,0.875 c 0.16985,-0.01187 0.357227,0.02135 0.5625,0.0625 l 0.1875,0.03125 c 0.283354,0.09156 0.556231,0.216117 0.8125,0.4375 0.131613,0.113693 0.227023,0.204326 0.312503,0.3125 0.0963,0.121866 0.19005,0.235251 0.25,0.34375 0.13401,0.242539 0.22956,0.502998 0.28125,0.75 0.0112,0.05139 0.0245,0.08465 0.0312,0.125 0.0173,0.110919 0.0283,0.209461 0.0312,0.34375 l 0,0.03125 c 0.001,0.03846 7.8e-4,0.07906 0,0.125 -2e-4,0.01149 2.7e-4,0.01928 0,0.03125 -0.005,0.12403 -0.0159,0.25139 -0.0312,0.34375 -0.0102,0.02756 -0.0238,0.01791 -0.0312,0.0625 -0.027,0.159213 -0.0455,0.268264 -0.0937,0.40625 -0.0451,0.129032 -0.10908,0.264333 -0.1875,0.40625 -0.0581,0.105215 -0.1372,0.20609 -0.21875,0.3125 -0.0399,0.05067 -0.052,0.06768 -0.0625,0.09375 -0.17742,0.214123 -0.376226,0.387966 -0.625003,0.53125 -0.157345,0.09062 -0.277843,0.133074 -0.40625,0.1875 l -0.25,0.03125 c -0.204687,0.0408 -0.394497,0.07425 -0.5625,0.0625 a 0.43861465,0.43861465 0 1 0 -0.0625,0.875 c 0.102814,0.0072 0.184743,-0.02547 0.28125,-0.03125 l 0,0.125 0.53125,-0.09375 c 0.383462,-0.07446 0.662517,-0.265871 0.906253,-0.40625 0.32652,-0.18806 0.62726,-0.419759 0.875,-0.71875 -0.0459,0.05528 -0.035,0.05118 0.0312,-0.03125 0.0263,-0.03183 0.0183,-0.03884 0.0312,-0.0625 0.0504,-0.06395 0.0672,-0.10634 0.0625,-0.09375 0.0773,-0.105908 0.15054,-0.220312 0.21875,-0.34375 0.0881,-0.159515 0.17967,-0.330148 0.25,-0.53125 0.0639,-0.182675 0.12416,-0.380114 0.15625,-0.5625 0.002,-0.0094 -0.002,-0.02178 0,-0.03125 0.0102,-0.0284 0.0245,-0.01706 0.0312,-0.0625 0.0294,-0.176232 0.0264,-0.304275 0.0312,-0.4375 l 0,-0.03125 c 0.001,-0.05537 0.001,-0.122571 0,-0.1875 -2.5e-4,-0.01082 4e-4,-0.02017 0,-0.03125 -0.004,-0.140109 -0.007,-0.283794 -0.0312,-0.4375 -0.0111,-0.06633 -0.0197,-0.134527 -0.0312,-0.1875 -0.0773,-0.369248 -0.2448,-0.707791 -0.40625,-1 -0.0995,-0.180077 -0.2067,-0.334848 -0.3125,-0.46875 -0.14039,-0.177672 -0.2954,-0.314739 -0.4375,-0.4375 -0.37851,-0.32698 -0.811684,-0.60937 -1.375003,-0.71875 l -0.53125,-0.09375 z m -3.1875,0.3125 c -0.19697,0.253814 -0.397107,0.494396 -0.59375,0.75 0.167221,0.07746 0.343738,0.14626 0.5,0.28125 0.131607,0.113693 0.227025,0.204326 0.3125,0.3125 0.09629,0.121866 0.190054,0.235251 0.25,0.34375 0.134013,0.242539 0.229561,0.502998 0.28125,0.75 0.01124,0.05139 0.02452,0.08465 0.03125,0.125 0.01735,0.110919 0.02832,0.209461 0.03125,0.34375 l 0,0.03125 c 0.0014,0.03846 7.86e-4,0.07906 0,0.125 -1.96e-4,0.01149 2.69e-4,0.01928 0,0.03125 -0.0046,0.12403 -0.01586,0.25139 -0.03125,0.34375 -0.01025,0.02756 -0.02378,0.01791 -0.03125,0.0625 -0.02703,0.159213 -0.0455,0.268264 -0.09375,0.40625 -0.04512,0.129032 -0.109082,0.264333 -0.1875,0.40625 -0.05813,0.105215 -0.1372,0.20609 -0.21875,0.3125 -0.03992,0.05067 -0.05203,0.06768 -0.0625,0.09375 -0.177421,0.214123 -0.376223,0.387966 -0.625,0.53125 -0.157345,0.09062 -0.277843,0.133074 -0.40625,0.1875 l -0.09375,0 0.375,0.84375 c 0.210446,-0.08868 0.402237,-0.188946 0.5625,-0.28125 0.326518,-0.18806 0.627258,-0.419759 0.875,-0.71875 -0.0459,0.05528 -0.03499,0.05118 0.03125,-0.03125 0.02632,-0.03183 0.01833,-0.03884 0.03125,-0.0625 0.05038,-0.06395 0.06724,-0.10634 0.0625,-0.09375 0.07732,-0.105908 0.150546,-0.220312 0.21875,-0.34375 0.08814,-0.159515 0.179671,-0.330148 0.25,-0.53125 0.06388,-0.182675 0.124158,-0.380114 0.15625,-0.5625 0.0017,-0.0094 -0.0016,-0.02178 0,-0.03125 0.01019,-0.0284 0.02447,-0.01706 0.03125,-0.0625 0.02938,-0.176232 0.02638,-0.304275 0.03125,-0.4375 l 0,-0.03125 c 0.0012,-0.05537 0.0015,-0.122571 0,-0.1875 -2.52e-4,-0.01082 4.06e-4,-0.02017 0,-0.03125 -0.0036,-0.140109 -0.0072,-0.283794 -0.03125,-0.4375 -0.01107,-0.06633 -0.01967,-0.134527 -0.03125,-0.1875 -0.07727,-0.369248 -0.244793,-0.707791 -0.40625,-1 -0.09949,-0.180077 -0.206696,-0.334848 -0.3125,-0.46875 -0.140389,-0.177672 -0.295394,-0.314739 -0.4375,-0.4375 -0.144163,-0.124538 -0.304557,-0.239244 -0.46875,-0.34375 z m -1.40625,1.78125 c -0.186135,0.230712 -0.374221,0.440009 -0.5625,0.65625 0.07456,0.05013 0.140888,0.111405 0.21875,0.15625 0.243733,0.140379 0.522788,0.33179 0.90625,0.40625 l 0.53125,0.09375 0,-0.125 c 0.09651,0.0058 0.178436,0.03845 0.28125,0.03125 a 0.43861465,0.43861465 0 1 0 -0.0625,-0.875 c -0.168003,0.01175 -0.357813,-0.0217 -0.5625,-0.0625 l -0.25,-0.03125 c -0.128407,-0.05443 -0.248905,-0.09688 -0.40625,-0.1875 -0.03439,-0.01981 -0.06119,-0.0415 -0.09375,-0.0625 z m 1.09375,1.4375 -0.53125,0.09375 c -0.341329,0.06628 -0.643694,0.210253 -0.90625,0.375 l 0.375,0.84375 c 0.167414,-0.09859 0.354154,-0.192775 0.53125,-0.25 l 0.1875,-0.03125 c 0.205273,-0.04115 0.39265,-0.07437 0.5625,-0.0625 a 0.43861465,0.43861465 0 1 0 0.0625,-0.875 c -0.102844,-0.0072 -0.1848,0.02555 -0.28125,0.03125 l 0,-0.125 z m 4.625,0.15625 -0.53125,0.09375 c -0.563319,0.10938 -0.996494,0.39177 -1.375,0.71875 -0.142106,0.122761 -0.297111,0.259828 -0.4375,0.4375 -0.105804,0.133902 -0.21301,0.288673 -0.3125,0.46875 -0.161457,0.292209 -0.32898,0.630752 -0.40625,1 -0.01158,0.05297 -0.02018,0.12117 -0.03125,0.1875 -0.02405,0.153706 -0.02765,0.297391 -0.03125,0.4375 -4.06e-4,0.01108 2.52e-4,0.02043 0,0.03125 -0.0015,0.06493 -0.0012,0.13213 0,0.1875 l 0,0.03125 c 6.96e-4,0.01894 -4.93e-4,0.04362 0,0.0625 0.309404,0.05105 0.613298,0.118227 0.90625,0.15625 -0.0095,-0.07914 -0.02789,-0.159519 -0.03125,-0.25 -2.69e-4,-0.01197 1.96e-4,-0.01976 0,-0.03125 -7.86e-4,-0.04594 -0.0014,-0.08654 0,-0.125 l 0,-0.03125 c 0.0029,-0.134289 0.0139,-0.232831 0.03125,-0.34375 0.0067,-0.04035 0.02001,-0.07361 0.03125,-0.125 0.05169,-0.247002 0.147237,-0.507461 0.28125,-0.75 0.05995,-0.108499 0.15371,-0.221884 0.25,-0.34375 0.08548,-0.108174 0.180892,-0.198807 0.3125,-0.3125 0.256269,-0.221383 0.529146,-0.34594 0.8125,-0.4375 l 0.1875,-0.03125 c 0.205273,-0.04115 0.39265,-0.07437 0.5625,-0.0625 a 0.43861465,0.43861465 0 1 0 0.0625,-0.875 c -0.102844,-0.0072 -0.1848,0.02555 -0.28125,0.03125 l 0,-0.125 z"
       style="font-size:medium;font-style:normal;font-variant:normal;font-weight:normal;font-stretch:normal;text-indent:0;text-align:start;text-decoration:none;line-height:normal;letter-spacing:normal;word-spacing:normal;text-transform:none;direction:ltr;block-progression:tb;writing-mode:lr-tb;text-anchor:start;baseline-shift:baseline;color:#000000;fill:#7dbbdd;fill-opacity:1;stroke:none;stroke-width:0.875;marker:none;visibility:visible;display:inline;overflow:visible;enable-background:accumulate;font-family:Sans;-inkscape-font-specification:Sans" />
    <path
       sodipodi:type="arc"
       style="fill:#1b2a34;fill-opacity:1;stroke:none"
       id="path3942"
       sodipodi:cx="79.304222"
       sodipodi:cy="9.8808327"
       sodipodi:rx="0.25062284"
       sodipodi:ry="0.17901631"
       d="m 79.554845,9.8808327 a 0.25062284,0.17901631 0 1 1 -0.501246,0 0.25062284,0.17901631 0 1 1 0.501246,0 z"
       transform="matrix(0.74813613,0,0,1.0473906,20.096131,1.5576724)" />
    <path
       transform="matrix(0.74813613,0,0,1.0473906,5.4525971,-2.7745222)"
       d="m 79.554845,9.8808327 a 0.25062284,0.17901631 0 1 1 -0.501246,0 0.25062284,0.17901631 0 1 1 0.501246,0 z"
       sodipodi:ry="0.17901631"
       sodipodi:rx="0.25062284"
       sodipodi:cy="9.8808327"
       sodipodi:cx="79.304222"
       id="path3944"
       style="fill:#1b2a34;fill-opacity:1;stroke:none"
       sodipodi:type="arc" />
    <path
       sodipodi:type="arc"
       style="fill:#1b2a34;fill-opacity:1;stroke:none"
       id="path3946"
       sodipodi:cx="79.304222"
       sodipodi:cy="9.8808327"
       sodipodi:rx="0.25062284"
       sodipodi:ry="0.17901631"
       d="m 79.554845,9.8808327 a 0.25062284,0.17901631 0 1 1 -0.501246,0 0.25062284,0.17901631 0 1 1 0.501246,0 z"
       transform="matrix(0.74813613,0,0,1.0473906,10.333777,-1.4856048)" />
    <path
       transform="matrix(0.74813613,0,0,1.0473906,15.214954,-0.08927761)"
       d="m 79.554845,9.8808327 a 0.25062284,0.17901631 0 1 1 -0.501246,0 0.25062284,0.17901631 0 1 1 0.501246,0 z"
       sodipodi:ry="0.17901631"
       sodipodi:rx="0.25062284"
       sodipodi:cy="9.8808327"
       sodipodi:cx="79.304222"
       id="path3948"
       style="fill:#1b2a34;fill-opacity:1;stroke:none"
       sodipodi:type="arc" />
    <path
       sodipodi:type="arc"
       style="fill:#1b2a34;fill-opacity:1;stroke:none"
       id="path3952"
       sodipodi:cx="79.304222"
       sodipodi:cy="9.8808327"
       sodipodi:rx="0.25062284"
       sodipodi:ry="0.17901631"
       d="m 79.554845,9.8808327 a 0.25062284,0.17901631 0 1 1 -0.501246,0 0.25062284,0.17901631 0 1 1 0.501246,0 z"
       transform="matrix(-0.74813613,0,0,1.0473906,153.32877,-2.7745222)" />
    <path
       transform="matrix(-0.74813613,0,0,1.0473906,148.44759,-1.4856048)"
       d="m 79.554845,9.8808327 a 0.25062284,0.17901631 0 1 1 -0.501246,0 0.25062284,0.17901631 0 1 1 0.501246,0 z"
       sodipodi:ry="0.17901631"
       sodipodi:rx="0.25062284"
       sodipodi:cy="9.8808327"
       sodipodi:cx="79.304222"
       id="path3954"
       style="fill:#1b2a34;fill-opacity:1;stroke:none"
       sodipodi:type="arc" />
    <path
       sodipodi:type="arc"
       style="fill:#1b2a34;fill-opacity:1;stroke:none"
       id="path3956"
       sodipodi:cx="79.304222"
       sodipodi:cy="9.8808327"
       sodipodi:rx="0.25062284"
       sodipodi:ry="0.17901631"
       d="m 79.554845,9.8808327 a 0.25062284,0.17901631 0 1 1 -0.501246,0 0.25062284,0.17901631 0 1 1 0.501246,0 z"
       transform="matrix(-0.74813613,0,0,1.0473906,143.56641,-0.08927761)" />
    <path
       style="fill:none;stroke:#1b2a34;stroke-width:0.75;stroke-linecap:butt;stroke-linejoin:miter;stroke-miterlimit:4;stroke-opacity:1;stroke-dasharray:none"
       d="m 100.84798,17.697575 c -3.616477,-1.342787 -5.684152,3.698915 -8.65199,5.5993"
       id="path3958"
       inkscape:connector-curvature="0"
       sodipodi:nodetypes="cc" />
    <path
       style="fill:none;stroke:#1b2a34;stroke-width:0.75;stroke-linecap:butt;stroke-linejoin:miter;stroke-miterlimit:4;stroke-opacity:1;stroke-dasharray:none"
       d="m 101.19778,20.05978 c -3.765443,-1.143123 -5.395788,3.650218 -8.121512,6.042133"
       id="path3960"
       inkscape:connector-curvature="0"
       sodipodi:nodetypes="cc" />
  </g>
  <g
     inkscape:groupmode="layer"
     id="layer4"
     inkscape:label="belt"
     style="display:inline"
     transform="translate(0,0.0261673)">
    <path
       style="fill:#a43b01;fill-opacity:1;stroke:#1b2a34;stroke-width:0.625;stroke-linecap:butt;stroke-linejoin:miter;stroke-miterlimit:4;stroke-opacity:1;stroke-dasharray:none"
       d="M 2.90625,27.78125 C 2.6220387,29.425002 2.326115,31.249652 2,33.09375 c 16.247142,4.592594 32.483328,9.260264 49.34375,9.96875 l 0.8125,0 c -0.364415,-1.974173 -0.67605,-3.733851 -1,-5.53125 -16.070242,-0.250075 -33.302101,-5.10415 -48.25,-9.75 z"
       id="path3082"
       inkscape:connector-curvature="0" />
    <path
       style="fill:#a43b01;fill-opacity:1;stroke:#1b2a34;stroke-width:0.625;stroke-linecap:butt;stroke-linejoin:miter;stroke-miterlimit:4;stroke-opacity:1;stroke-dasharray:none"
       d="M 25.984252,32.97479 22.057693,43.82733 15.156506,43.600105 19.685039,31.662454 z"
       id="path3086"
       inkscape:connector-curvature="0"
       sodipodi:nodetypes="ccccc" />
    <path
       style="opacity:0.43160005;fill:#1b2a34;stroke:none"
       d="m 22.204612,42.218677 -0.310244,0.753449 -0.531847,0 c 0.0882,-1.438936 0.02584,-2.829966 -2.437632,-3.457005 -0.417199,0.839589 -1.395323,0.69756 -2.26035,0.75345 l 0.265924,-1.240976 0.709129,-1.46258 c 1.908515,0.05912 3.483116,1.406187 4.56502,4.653662 z"
       id="path4000"
       inkscape:connector-curvature="0"
       sodipodi:nodetypes="cccccccc" />
    <path
       style="fill:#1b2a34;stroke:none"
       d="m 25.151129,32.750799 c 0.165661,0.702033 0.03071,1.353965 -0.871905,1.877951 -0.71541,0.250537 -1.43082,-0.933462 -2.14623,-1.475533 l 0.201209,-1.006045 -1.408463,-0.335349 -4.426599,8.51785 c 1.048675,0.140582 2.164555,0.361809 2.347439,-0.536558 2.954957,0.158022 1.880145,2.043088 2.615717,3.152275 l 0.603627,0 3.822972,-9.859242 z"
       id="path3825"
       inkscape:connector-curvature="0"
       sodipodi:nodetypes="ccccccccccc" />
    <path
       style="fill:#a43b01;fill-opacity:1;stroke:#1b2a34;stroke-width:0.625;stroke-linecap:butt;stroke-linejoin:miter;stroke-miterlimit:4;stroke-opacity:1;stroke-dasharray:none"
       d="m 18.582571,32.298667 c 2.81238,1.136306 5.676841,2.998892 8.15704,7.567336 -1.803309,0.32233 -3.31952,0.499531 -4.342411,2.382628 -2.524177,-4.060334 -3.386315,-4.335505 -7.111938,-5.490271"
       id="path3084"
       inkscape:connector-curvature="0"
       sodipodi:nodetypes="cccc" />
    <path
       style="font-size:medium;font-style:normal;font-variant:normal;font-weight:normal;font-stretch:normal;text-indent:0;text-align:start;text-decoration:none;line-height:normal;letter-spacing:normal;word-spacing:normal;text-transform:none;direction:ltr;block-progression:tb;writing-mode:lr-tb;text-anchor:start;baseline-shift:baseline;color:#000000;fill:#a1a5a2;fill-opacity:1;stroke:#1b2a34;stroke-width:0.5;stroke-miterlimit:4;stroke-dasharray:none;marker:none;visibility:visible;display:inline;overflow:visible;enable-background:accumulate;font-family:Sans;-inkscape-font-specification:Sans"
       d="m 18.5,30.15625 c -0.467965,-0.02115 -1.09061,0.0092 -1.75,0.15625 -1.31878,0.294176 -2.834427,1.195045 -3.28125,3.25 -0.449554,2.067512 0.538908,3.781813 1.65625,4.8125 0.558671,0.515343 1.156514,0.887436 1.6875,1.0625 0.265493,0.08753 0.523392,0.127742 1.4375,-0.03125 0.520338,-0.09051 0.393802,-0.07429 0.898678,-0.341587 -0.319112,-0.284126 -0.639617,-0.528861 -0.96875,-0.71875 -0.494366,0.123725 -0.336213,-0.02299 -0.742428,0.02909 -0.669992,-0.03459 -1.15907,-0.288955 -1.625,-0.71875 -0.931861,-0.859591 -1.7359,-2.215206 -1.375,-3.875 0.363631,-1.672351 1.440553,-2.256702 2.53125,-2.5 1.010568,-0.225424 1.834554,-0.08347 1.96875,-0.0625 0.620609,0.05682 0.868275,0.12009 1.3125,0.59375 0.284841,0.115086 0.549047,0.23526 0.8125,0.375 C 20.661113,31.476837 20.134373,30.844515 19.5,30.34375 L 19.40625,30.25 l -0.125,0 c 0,0 -0.313285,-0.0726 -0.78125,-0.09375 z"
       id="path3982"
       inkscape:connector-curvature="0"
       sodipodi:nodetypes="sssssscccsssccccccs" />
    <rect
       style="fill:#a1a5a2;stroke:#1b2a34;stroke-width:0.5;stroke-linecap:round;stroke-miterlimit:4;stroke-opacity:1;stroke-dasharray:none;stroke-dashoffset:0"
       id="rect3988"
       width="5.7139482"
       height="2.2855794"
       x="17.171801"
       y="29.661777"
       ry="0.81621438"
       transform="matrix(0.98559122,0.16914478,-0.16914478,0.98559122,0,0)" />
    <path
       sodipodi:type="arc"
       style="fill:#1b2a34;fill-opacity:1;stroke:none"
       id="path3992"
       sodipodi:cx="8.8419561"
       sodipodi:cy="31.003347"
       sodipodi:rx="0.73128963"
       sodipodi:ry="0.50968671"
       d="m 9.5732458,31.003347 a 0.73128963,0.50968671 0 1 1 -1.4625793,0 0.73128963,0.50968671 0 1 1 1.4625793,0 z"
       transform="translate(0,1.3096778)" />
    <path
       d="m 9.5732458,31.003347 a 0.73128963,0.50968671 0 1 1 -1.4625793,0 0.73128963,0.50968671 0 1 1 1.4625793,0 z"
       sodipodi:ry="0.50968671"
       sodipodi:rx="0.73128963"
       sodipodi:cy="31.003347"
       sodipodi:cx="8.8419561"
       id="path3994"
       style="fill:#1b2a34;fill-opacity:1;stroke:none"
       sodipodi:type="arc"
       transform="matrix(1,0,0,1.3043478,10.947184,-4.6912783)" />
    <path
       transform="matrix(1,0,0,1.3043478,14.492831,-1.7661199)"
       sodipodi:type="arc"
       style="fill:#1b2a34;fill-opacity:1;stroke:none"
       id="path3996"
       sodipodi:cx="8.8419561"
       sodipodi:cy="31.003347"
       sodipodi:rx="0.73128963"
       sodipodi:ry="0.50968671"
       d="m 9.5732458,31.003347 a 0.73128963,0.50968671 0 1 1 -1.4625793,0 0.73128963,0.50968671 0 1 1 1.4625793,0 z" />
    <path
       d="m 9.5732458,31.003347 a 0.73128963,0.50968671 0 1 1 -1.4625793,0 0.73128963,0.50968671 0 1 1 1.4625793,0 z"
       sodipodi:ry="0.50968671"
       sodipodi:rx="0.73128963"
       sodipodi:cy="31.003347"
       sodipodi:cx="8.8419561"
       id="path3998"
       style="fill:#1b2a34;fill-opacity:1;stroke:none"
       sodipodi:type="arc"
       transform="matrix(1,0,0,1.3043478,10.060773,0.71583276)" />
    <path
       style="fill:#a43b01;fill-opacity:1;stroke:#1b2a34;stroke-width:0.625;stroke-linecap:butt;stroke-linejoin:miter;stroke-miterlimit:4;stroke-opacity:1;stroke-dasharray:none"
       d="m 102.53706,27.78125 c 0.28259,1.634364 0.58225,3.448854 0.90625,5.28125 -16.251556,4.593706 -32.47923,9.288369 -49.343746,10 l -0.8125,0 c 0.36441,-1.974173 0.67605,-3.733851 1,-5.53125 16.080376,-0.250233 33.295573,-5.101542 48.249996,-9.75 z"
       id="path3889"
       inkscape:connector-curvature="0" />
  </g>
  <g
     inkscape:label="template"
     inkscape:groupmode="layer"
     id="layer1"
     transform="translate(-309.78125,-326.63516)"
     style="display:inline"
     sodipodi:insensitive="true">
    <path
       id="path4124"
       style="fill:none;stroke:#231f20;stroke-width:0.3125;stroke-linecap:butt;stroke-linejoin:miter;stroke-miterlimit:4;stroke-opacity:1;stroke-dasharray:none"
       d="m 309.96625,369.71717 c 8.7325,-47.29375 5.3425,-42.67874 14.2675,-42.85625 l 23.44,0 c 8.92625,0.17751 5.535,-4.4375 14.265,42.85625 l -51.9725,0 z"
       inkscape:connector-curvature="0" />
    <path
       inkscape:connector-curvature="0"
       d="m 363.01143,369.71717 c 8.7325,-47.29375 5.3425,-42.67874 14.2675,-42.85625 l 23.44,0 c 8.92625,0.17751 5.535,-4.4375 14.265,42.85625 l -51.9725,0 z"
       style="fill:none;stroke:#231f20;stroke-width:0.3125;stroke-linecap:butt;stroke-linejoin:miter;stroke-miterlimit:4;stroke-opacity:1;stroke-dasharray:none"
       id="path3911" />
  </g>
</svg>
