<?xml version="1.0" encoding="UTF-8" standalone="no"?>
<!-- Created with Inkscape (http://www.inkscape.org/) -->

<svg
   xmlns:dc="http://purl.org/dc/elements/1.1/"
   xmlns:cc="http://creativecommons.org/ns#"
   xmlns:rdf="http://www.w3.org/1999/02/22-rdf-syntax-ns#"
   xmlns:svg="http://www.w3.org/2000/svg"
   xmlns="http://www.w3.org/2000/svg"
   xmlns:xlink="http://www.w3.org/1999/xlink"
   xmlns:sodipodi="http://sodipodi.sourceforge.net/DTD/sodipodi-0.dtd"
   xmlns:inkscape="http://www.inkscape.org/namespaces/inkscape"
   width="105.4375"
   height="43.213669"
   id="svg2"
   version="1.1"
   inkscape:version="0.48.2 r9819"
   sodipodi:docname="quarter.dragon.svg"
   inkscape:export-filename="G:\GitHub\quarter.dragon.png"
   inkscape:export-xdpi="1715"
   inkscape:export-ydpi="1715">
  <defs
     id="defs4">
    <linearGradient
       inkscape:collect="always"
       id="linearGradient4011">
      <stop
         style="stop-color:#ffffff;stop-opacity:1;"
         offset="0"
         id="stop4013" />
      <stop
         style="stop-color:#ffffff;stop-opacity:0;"
         offset="1"
         id="stop4015" />
    </linearGradient>
    <linearGradient
       inkscape:collect="always"
       id="linearGradient3997">
      <stop
         style="stop-color:#ffffff;stop-opacity:1;"
         offset="0"
         id="stop3999" />
      <stop
         style="stop-color:#ffffff;stop-opacity:0;"
         offset="1"
         id="stop4001" />
    </linearGradient>
    <inkscape:path-effect
       effect="skeletal"
       id="path-effect4237"
       is_visible="true"
       pattern="M 0,5 C 0,2.24 2.24,0 5,0 7.76,0 10,2.24 10,5 10,7.76 7.76,10 5,10 2.24,10 0,7.76 0,5 z"
       copytype="single_stretched"
       prop_scale="1"
       scale_y_rel="false"
       spacing="0"
       normal_offset="0"
       tang_offset="0"
       prop_units="false"
       vertical_pattern="false"
       fuse_tolerance="0" />
    <clipPath
       id="clipPath2999"
       clipPathUnits="userSpaceOnUse">
      <path
         id="path3001"
         d="M 0,792 612,792 612,0 0,0 0,792 z"
         inkscape:connector-curvature="0" />
    </clipPath>
    <radialGradient
       gradientUnits="userSpaceOnUse"
       gradientTransform="matrix(0.75988491,-0.03632001,0.13155835,2.7524547,16.986326,-78.268899)"
       r="12.650181"
       fy="46.658409"
       fx="96.306435"
       cy="46.658409"
       cx="96.306435"
       id="radialGradient3972"
       xlink:href="#linearGradient3966"
       inkscape:collect="always" />
    <clipPath
       clipPathUnits="userSpaceOnUse"
       id="clipPath2999-4">
      <path
         inkscape:connector-curvature="0"
         d="M 0,792 612,792 612,0 0,0 0,792 z"
         id="path3001-0" />
    </clipPath>
    <linearGradient
       id="linearGradient3966">
      <stop
         id="stop3968"
         offset="0"
         style="stop-color:#c0ac02;stop-opacity:1;" />
      <stop
         id="stop3970"
         offset="1"
         style="stop-color:#fdea41;stop-opacity:0;" />
    </linearGradient>
    <radialGradient
       inkscape:collect="always"
       xlink:href="#linearGradient3997"
       id="radialGradient4003"
       cx="165.81134"
       cy="47.693741"
       fx="165.81134"
       fy="47.693741"
       r="3.8123069"
       gradientTransform="matrix(0.64374811,-0.18781617,0.31213841,1.069868,43.640483,27.15595)"
       gradientUnits="userSpaceOnUse" />
    <radialGradient
       inkscape:collect="always"
       xlink:href="#linearGradient3997"
       id="radialGradient4007"
       gradientUnits="userSpaceOnUse"
       gradientTransform="matrix(-0.64374811,-0.18781617,-0.31213841,1.069868,293.73143,27.15595)"
       cx="165.81134"
       cy="47.693741"
       fx="165.81134"
       fy="47.693741"
       r="3.8123069" />
    <radialGradient
       inkscape:collect="always"
       xlink:href="#linearGradient4011"
       id="radialGradient4017"
       cx="169.32254"
       cy="41.784931"
       fx="169.32254"
       fy="41.784931"
       r="6.982676"
       gradientTransform="matrix(0.31036379,-0.01814613,0.03701409,0.63307367,114.75293,21.468668)"
       gradientUnits="userSpaceOnUse" />
    <linearGradient
       id="linearGradient3966-2">
      <stop
         style="stop-color:#c0ac02;stop-opacity:1;"
         offset="0"
         id="stop3968-4" />
      <stop
         style="stop-color:#fdea41;stop-opacity:0;"
         offset="1"
         id="stop3970-5" />
    </linearGradient>
    <clipPath
       id="clipPath2999-4-8"
       clipPathUnits="userSpaceOnUse">
      <path
         id="path3001-0-8"
         d="M 0,792 612,792 612,0 0,0 0,792 z"
         inkscape:connector-curvature="0" />
    </clipPath>
    <radialGradient
       inkscape:collect="always"
       xlink:href="#linearGradient3966-2"
       id="radialGradient3972-4"
       cx="96.306435"
       cy="46.658409"
       fx="96.306435"
       fy="46.658409"
       r="12.650181"
       gradientTransform="matrix(0.75988491,-0.03632001,0.13155835,2.7524547,16.986326,-78.268899)"
       gradientUnits="userSpaceOnUse" />
    <clipPath
       clipPathUnits="userSpaceOnUse"
       id="clipPath2999-0">
      <path
         inkscape:connector-curvature="0"
         d="M 0,792 612,792 612,0 0,0 0,792 z"
         id="path3001-9" />
    </clipPath>
    <inkscape:path-effect
       fuse_tolerance="0"
       vertical_pattern="false"
       prop_units="false"
       tang_offset="0"
       normal_offset="0"
       spacing="0"
       scale_y_rel="false"
       prop_scale="1"
       copytype="single_stretched"
       pattern="M 0,5 C 0,2.24 2.24,0 5,0 7.76,0 10,2.24 10,5 10,7.76 7.76,10 5,10 2.24,10 0,7.76 0,5 z"
       is_visible="true"
       id="path-effect4237-4"
       effect="skeletal" />
    <inkscape:path-effect
       effect="skeletal"
       id="path-effect4237-4-5"
       is_visible="true"
       pattern="M 0,5 C 0,2.24 2.24,0 5,0 7.76,0 10,2.24 10,5 10,7.76 7.76,10 5,10 2.24,10 0,7.76 0,5 z"
       copytype="single_stretched"
       prop_scale="1"
       scale_y_rel="false"
       spacing="0"
       normal_offset="0"
       tang_offset="0"
       prop_units="false"
       vertical_pattern="false"
       fuse_tolerance="0" />
    <clipPath
       id="clipPath2999-0-6"
       clipPathUnits="userSpaceOnUse">
      <path
         id="path3001-9-8"
         d="M 0,792 612,792 612,0 0,0 0,792 z"
         inkscape:connector-curvature="0" />
    </clipPath>
    <radialGradient
       gradientUnits="userSpaceOnUse"
       gradientTransform="matrix(0.75988491,-0.03632001,0.13155835,2.7524547,16.986326,-78.268899)"
       r="12.650181"
       fy="46.658409"
       fx="96.306435"
       cy="46.658409"
       cx="96.306435"
       id="radialGradient3972-4-1"
       xlink:href="#linearGradient3966-2-4"
       inkscape:collect="always" />
    <clipPath
       clipPathUnits="userSpaceOnUse"
       id="clipPath2999-4-8-2">
      <path
         inkscape:connector-curvature="0"
         d="M 0,792 612,792 612,0 0,0 0,792 z"
         id="path3001-0-8-2" />
    </clipPath>
    <linearGradient
       id="linearGradient3966-2-4">
      <stop
         id="stop3968-4-2"
         offset="0"
         style="stop-color:#c0ac02;stop-opacity:1;" />
      <stop
         id="stop3970-5-3"
         offset="1"
         style="stop-color:#fdea41;stop-opacity:0;" />
    </linearGradient>
    <radialGradient
       gradientUnits="userSpaceOnUse"
       gradientTransform="matrix(0.31036379,-0.01814613,0.03701409,0.63307367,114.75293,21.468668)"
       r="6.982676"
       fy="41.784931"
       fx="169.32254"
       cy="41.784931"
       cx="169.32254"
       id="radialGradient4017-1"
       xlink:href="#linearGradient4011-4"
       inkscape:collect="always" />
    <radialGradient
       r="3.8123069"
       fy="47.693741"
       fx="165.81134"
       cy="47.693741"
       cx="165.81134"
       gradientTransform="matrix(-0.64374811,-0.18781617,-0.31213841,1.069868,293.73143,27.15595)"
       gradientUnits="userSpaceOnUse"
       id="radialGradient4007-6"
       xlink:href="#linearGradient3997-4"
       inkscape:collect="always" />
    <radialGradient
       gradientUnits="userSpaceOnUse"
       gradientTransform="matrix(0.64374811,-0.18781617,0.31213841,1.069868,43.640483,27.15595)"
       r="3.8123069"
       fy="47.693741"
       fx="165.81134"
       cy="47.693741"
       cx="165.81134"
       id="radialGradient4003-7"
       xlink:href="#linearGradient3997-4"
       inkscape:collect="always" />
    <linearGradient
       id="linearGradient3966-1">
      <stop
         style="stop-color:#c0ac02;stop-opacity:1;"
         offset="0"
         id="stop3968-5" />
      <stop
         style="stop-color:#fdea41;stop-opacity:0;"
         offset="1"
         id="stop3970-2" />
    </linearGradient>
    <clipPath
       id="clipPath2999-4-7"
       clipPathUnits="userSpaceOnUse">
      <path
         id="path3001-0-1"
         d="M 0,792 612,792 612,0 0,0 0,792 z"
         inkscape:connector-curvature="0" />
    </clipPath>
    <radialGradient
       inkscape:collect="always"
       xlink:href="#linearGradient3966-1"
       id="radialGradient3972-1"
       cx="96.306435"
       cy="46.658409"
       fx="96.306435"
       fy="46.658409"
       r="12.650181"
       gradientTransform="matrix(0.75988491,-0.03632001,0.13155835,2.7524547,16.986326,-78.268899)"
       gradientUnits="userSpaceOnUse" />
    <clipPath
       clipPathUnits="userSpaceOnUse"
       id="clipPath2999-45">
      <path
         inkscape:connector-curvature="0"
         d="M 0,792 612,792 612,0 0,0 0,792 z"
         id="path3001-5" />
    </clipPath>
    <inkscape:path-effect
       fuse_tolerance="0"
       vertical_pattern="false"
       prop_units="false"
       tang_offset="0"
       normal_offset="0"
       spacing="0"
       scale_y_rel="false"
       prop_scale="1"
       copytype="single_stretched"
       pattern="M 0,5 C 0,2.24 2.24,0 5,0 7.76,0 10,2.24 10,5 10,7.76 7.76,10 5,10 2.24,10 0,7.76 0,5 z"
       is_visible="true"
       id="path-effect4237-2"
       effect="skeletal" />
    <linearGradient
       id="linearGradient3997-4"
       inkscape:collect="always">
      <stop
         id="stop3999-8"
         offset="0"
         style="stop-color:#ffffff;stop-opacity:1;" />
      <stop
         id="stop4001-8"
         offset="1"
         style="stop-color:#ffffff;stop-opacity:0;" />
    </linearGradient>
    <linearGradient
       id="linearGradient4011-4"
       inkscape:collect="always">
      <stop
         id="stop4013-0"
         offset="0"
         style="stop-color:#ffffff;stop-opacity:1;" />
      <stop
         id="stop4015-9"
         offset="1"
         style="stop-color:#ffffff;stop-opacity:0;" />
    </linearGradient>
    <mask
       maskUnits="userSpaceOnUse"
       id="mask3195">
      <path
         inkscape:connector-curvature="0"
         d="M 0.185,43.05584 C 8.9175,-4.23791 5.5275,0.3771 14.4525,0.19959 l 23.44,0 c 8.92625,0.17751 5.535,-4.4375 14.265,42.85625 l -51.9725,0 z"
         style="fill:#f2f3f2;stroke:#231f20;stroke-width:0.3125;stroke-linecap:butt;stroke-linejoin:miter;stroke-miterlimit:4;stroke-opacity:1;stroke-dasharray:none;display:inline"
         id="path3197" />
    </mask>
    <mask
       maskUnits="userSpaceOnUse"
       id="mask3877">
      <path
         inkscape:connector-curvature="0"
         d="M 0.185,43.05584 C 8.9175,-4.23791 5.5275,0.3771 14.4525,0.19959 l 23.44,0 c 8.92625,0.17751 5.535,-4.4375 14.265,42.85625 l -51.9725,0 z"
         style="fill:#ffffff;fill-opacity:1;stroke:#231f20;stroke-width:0.3125;stroke-linecap:butt;stroke-linejoin:miter;stroke-miterlimit:4;stroke-opacity:1;stroke-dasharray:none;display:inline"
         id="path3879" />
    </mask>
    <mask
       maskUnits="userSpaceOnUse"
       id="mask4134">
      <path
         id="path4136"
         style="fill:#ffffff;fill-opacity:1;stroke:#231f20;stroke-width:0.3125;stroke-linecap:butt;stroke-linejoin:miter;stroke-miterlimit:4;stroke-opacity:1;stroke-dasharray:none;display:inline"
         d="M 0.185,43.05584 C 8.9175,-4.23791 5.5275,0.3771 14.4525,0.19959 l 23.44,0 c 8.92625,0.17751 5.535,-4.4375 14.265,42.85625 l -51.9725,0 z"
         inkscape:connector-curvature="0" />
    </mask>
    <mask
       maskUnits="userSpaceOnUse"
       id="mask4214">
      <path
         id="path4216"
         style="fill:#ffffff;fill-opacity:1;stroke:#231f20;stroke-width:0.3125;stroke-linecap:butt;stroke-linejoin:miter;stroke-miterlimit:4;stroke-opacity:1;stroke-dasharray:none;display:inline"
         d="m 54.321989,42.961327 c 8.7325,-47.2937497 5.3425,-42.67873965 14.2675,-42.85624965 l 23.44,0 c 8.926251,0.17751 5.535,-4.43750005 14.265001,42.85624965 l -51.972501,0 z"
         inkscape:connector-curvature="0" />
    </mask>
  </defs>
  <sodipodi:namedview
     id="base"
     pagecolor="#ffffff"
     bordercolor="#666666"
     borderopacity="1.0"
     inkscape:pageopacity="0.0"
     inkscape:pageshadow="2"
     inkscape:zoom="6.07"
     inkscape:cx="68.096712"
     inkscape:cy="15.087117"
     inkscape:document-units="px"
     inkscape:current-layer="layer2"
     showgrid="false"
     fit-margin-top="0"
     fit-margin-left="0"
     fit-margin-right="0"
     fit-margin-bottom="0"
     inkscape:window-width="1280"
     inkscape:window-height="968"
     inkscape:window-x="-4"
     inkscape:window-y="-4"
     inkscape:window-maximized="1"
     showguides="true"
     inkscape:guide-bbox="true"
     inkscape:snap-global="false">
    <sodipodi:guide
       orientation="0,1"
       position="62.43758,-61.6697"
       id="guide3274" />
    <sodipodi:guide
       orientation="1,0"
       position="77.28784,-56.552998"
       id="guide3960" />
  </sodipodi:namedview>
  <metadata
     id="metadata7">
    <rdf:RDF>
      <cc:Work
         rdf:about="">
        <dc:format>image/svg+xml</dc:format>
        <dc:type
           rdf:resource="http://purl.org/dc/dcmitype/StillImage" />
        <dc:title></dc:title>
      </cc:Work>
    </rdf:RDF>
  </metadata>
  <g
     inkscape:groupmode="layer"
     id="layer2"
     inkscape:label="torso"
     style="display:inline"
     transform="translate(0,-2.6947626e-6)">
    <g
       id="g3868"
       mask="url(#mask3877)">
      <path
         id="rect3070"
         d="m -0.53125,-1.4375 0,45.1875 53.71875,0 0,-45.1875 -53.71875,0 z"
         style="fill:#27462c;fill-opacity:1;stroke:none"
         inkscape:connector-curvature="0" />
      <path
         id="rect3072"
         d="m -0.53125,-1.4375 0,20.125 c 8.8462381,0.557543 16.929272,1.454406 26.71875,1.625 l 0,23.4375 27,0 0,-24.40625 c -9.111149,0.375656 -17.276415,1.054735 -27,0.78125 l 0,-21.5625 -26.71875,0 z"
         style="fill:#789081;fill-opacity:1;stroke:none"
         inkscape:connector-curvature="0" />
    </g>
    <path
       style="fill:#1b2a34;stroke:none;display:inline"
       d="M 0.4162831,42.103791 C 3.4918392,40.98769 5.1964984,40.283289 5.186819,36.88848 5.1781968,33.864428 3.6798425,33.229441 3.840798,32.447853 3.9510902,31.912282 4.9356688,30.152099 5.5611088,29.062725 4.6690477,29.453775 3.7769867,30.177557 2.8849257,31.219806 2.6486109,31.495907 3.4896091,24.506651 2.1759812,32.11489 1.3880641,37.772306 0.91965022,38.82715 0.4162831,42.103791 z"
       id="path3952"
       inkscape:connector-curvature="0"
       sodipodi:nodetypes="csscscc" />
    <path
       style="fill:#1b2a34;stroke:none;display:inline"
       d="M 51.886792,42.103791 C 46.330334,40.154699 47.071941,37.306507 47.610458,32.823 c 0.145183,-1.208744 -0.47802,-3.16323 -0.131952,-4.263837 0.227563,-0.723724 0.9877,2.569636 1.253261,1.768841 0.314474,-0.948294 -0.03608,-3.563389 0.324837,-4.539418 0.849924,5.671825 2.091379,12.419294 2.830188,16.315205 z"
       id="path3950"
       inkscape:connector-curvature="0"
       sodipodi:nodetypes="cssscc" />
    <path
       style="fill:#694020;fill-opacity:1;stroke:#1b2a34;stroke-width:0.5;stroke-miterlimit:4;stroke-dasharray:none;display:inline"
       d="m 12.0625,0.15625 c 1.830784,3.0666002 7.428071,5.3125 14.09375,5.3125 6.665679,0 12.294216,-2.2458998 14.125,-5.3125 -0.687855,0.0214364 -1.449605,0.0496527 -2.375,0.03125 l -23.46875,0 C 13.512234,0.2059027 12.750278,0.177686 12.0625,0.15625 z"
       id="path3901"
       inkscape:connector-curvature="0" />
    <path
       inkscape:connector-curvature="0"
       style="fill:#7c5c45;fill-opacity:1;stroke:#1b2a34;stroke-width:0.40004444;stroke-miterlimit:4;display:inline"
       d="m 15.1875,0.1875 c 1.729377,2.2099235 6.01164,3.78125 11,3.78125 4.98836,0 9.239373,-1.5713265 10.96875,-3.78125 l -21.96875,0 z"
       id="path3903" />
    <path
       style="fill:none;stroke:#1b2a34;stroke-width:0.5;stroke-linecap:butt;stroke-linejoin:miter;stroke-miterlimit:4;stroke-opacity:1;stroke-dasharray:none;display:inline"
       d="m 25.996893,1.4736378 c 1.766321,1.4880617 1.934092,2.206452 1.335634,2.5559169"
       id="path3908"
       inkscape:connector-curvature="0"
       sodipodi:nodetypes="cc" />
    <path
       sodipodi:nodetypes="cc"
       inkscape:connector-curvature="0"
       id="path3910"
       d="m 28.689798,1.162918 c 2.352038,1.9815077 1.869582,2.4946862 0.517866,2.6929052"
       style="fill:none;stroke:#1b2a34;stroke-width:0.375;stroke-linecap:butt;stroke-linejoin:miter;stroke-miterlimit:4;stroke-opacity:1;stroke-dasharray:none;display:inline" />
    <path
       style="fill:none;stroke:#1b2a34;stroke-width:0.375;stroke-linecap:butt;stroke-linejoin:miter;stroke-miterlimit:4;stroke-opacity:1;stroke-dasharray:none;display:inline"
       d="m 31.020197,1.162918 c 1.575238,1.3082814 1.662435,1.9250332 0.310719,2.1232522"
       id="path3912"
       inkscape:connector-curvature="0"
       sodipodi:nodetypes="cc" />
    <path
       sodipodi:nodetypes="cc"
       inkscape:connector-curvature="0"
       id="path3914"
       d="m 33.557742,1.6289978 c 0.262036,0.220756 0.488891,0.424573 0.683283,0.6127594"
       style="fill:none;stroke:#1b2a34;stroke-width:0.375;stroke-linecap:butt;stroke-linejoin:miter;stroke-miterlimit:4;stroke-opacity:1;stroke-dasharray:none;display:inline" />
    <path
       style="fill:none;stroke:#1b2a34;stroke-width:0.375;stroke-linecap:butt;stroke-linejoin:miter;stroke-miterlimit:4;stroke-opacity:1;stroke-dasharray:none;display:inline"
       d="m 23.328932,1.7963109 c 1.465885,1.6372168 1.324759,2.0338143 -0.04111,2.0623746"
       id="path3916"
       inkscape:connector-curvature="0"
       sodipodi:nodetypes="cc" />
    <path
       sodipodi:nodetypes="cc"
       inkscape:connector-curvature="0"
       id="path3918"
       d="m 21.657264,1.642914 c 0.775794,1.6659562 0.05936,2.085542 -1.225876,1.6222902"
       style="fill:none;stroke:#1b2a34;stroke-width:0.375;stroke-linecap:butt;stroke-linejoin:miter;stroke-miterlimit:4;stroke-opacity:1;stroke-dasharray:none;display:inline" />
    <path
       style="fill:none;stroke:#1b2a34;stroke-width:0.5;stroke-linecap:butt;stroke-linejoin:miter;stroke-miterlimit:4;stroke-opacity:1;stroke-dasharray:none;display:inline"
       d="m 19.689372,1.7464873 c 0.154354,0.7855833 0.0076,1.1533825 -1.277663,0.6901307"
       id="path3920"
       inkscape:connector-curvature="0"
       sodipodi:nodetypes="cc" />
    <path
       style="fill:#1b2a34;stroke:none;display:inline"
       d="M 8.1021088,5.9217709 C 8.4017984,6.821031 8.7015916,7.8401873 9.3145611,8.6031468 9.9935727,9.4483085 10.993869,10.0169 11.431743,10.583258 11.869617,11.149616 9.5173289,9.7680744 9.0675684,10.277059 8.6178079,10.786043 10.320472,12.796632 9.4894562,12.414557 8.6584399,12.032482 5.3420956,9.0979789 8.1021088,5.9217709 z"
       id="path3954"
       inkscape:connector-curvature="0"
       sodipodi:nodetypes="cszzzc" />
    <path
       style="fill:#1b2a34;stroke:none;display:inline"
       d="M 41.45394,10.361283 C 42.854574,9.1489619 44.467244,8.1910842 45.172031,6.1437465 46.00064,11.84376 44.611258,10.446202 44.117647,11.915112 44.370952,10.823357 45.001726,9.4485009 44.72808,8.7519596 43.6367,10.097029 42.54532,9.8347969 41.45394,10.361283 z"
       id="path3956"
       inkscape:connector-curvature="0"
       sodipodi:nodetypes="ccccc" />
    <g
       mask="url(#mask3877)"
       id="g3996"
       transform="translate(53.097345,0)">
      <path
         inkscape:connector-curvature="0"
         style="fill:#27462c;fill-opacity:1;stroke:none"
         d="m -0.53125,-1.4375 0,45.1875 53.71875,0 0,-45.1875 -53.71875,0 z"
         id="path3998" />
      <path
         inkscape:connector-curvature="0"
         style="fill:#789081;fill-opacity:1;stroke:none"
         d="m -0.53125,-1.4375 0,20.125 c 8.8462381,0.557543 16.929272,1.454406 26.71875,1.625 l 0,23.4375 27,0 0,-24.40625 c -9.111149,0.375656 -17.276415,1.054735 -27,0.78125 l 0,-21.5625 -26.71875,0 z"
         id="path4000" />
    </g>
    <path
       sodipodi:nodetypes="csscscc"
       inkscape:connector-curvature="0"
       id="path4049"
       d="m 53.496852,42.103791 c 3.075556,-1.116101 4.780215,-1.820502 4.770536,-5.215311 -0.0086,-3.024052 -1.506977,-3.659039 -1.346021,-4.440627 0.110292,-0.535571 1.094871,-2.295754 1.720311,-3.385128 -0.892062,0.39105 -1.784123,1.114832 -2.676184,2.157081 -0.236314,0.276101 0.604684,-6.713155 -0.708944,0.895084 -0.787917,5.657416 -1.256331,6.71226 -1.759698,9.988901 z"
       style="fill:#1b2a34;stroke:none;display:inline" />
    <path
       sodipodi:nodetypes="cssscc"
       inkscape:connector-curvature="0"
       id="path4051"
       d="m 104.96736,42.103791 c -5.556457,-1.949092 -4.81485,-4.797284 -4.27633,-9.280791 0.14518,-1.208744 -0.47802,-3.16323 -0.13196,-4.263837 0.22757,-0.723724 0.9877,2.569636 1.25327,1.768841 0.31447,-0.948294 -0.0361,-3.563389 0.32483,-4.539418 0.84993,5.671825 2.09138,12.419294 2.83019,16.315205 z"
       style="fill:#1b2a34;stroke:none;display:inline" />
    <path
       inkscape:connector-curvature="0"
       id="path4020"
       d="m 65.159845,0.15625 c 1.830784,3.0666002 7.428071,5.3125 14.09375,5.3125 6.665679,0 12.294216,-2.2458998 14.125,-5.3125 -0.687855,0.0214364 -1.449605,0.0496527 -2.375,0.03125 l -23.46875,0 c -0.925266,0.0184027 -1.687222,-0.009814 -2.375,-0.03125 z"
       style="fill:#694020;fill-opacity:1;stroke:#1b2a34;stroke-width:0.5;stroke-miterlimit:4;stroke-dasharray:none;display:inline" />
    <path
       id="path4022"
       d="m 68.284845,0.1875 c 1.729377,2.2099235 6.01164,3.78125 11,3.78125 4.98836,0 9.239373,-1.5713265 10.96875,-3.78125 l -21.96875,0 z"
       style="fill:#7c5c45;fill-opacity:1;stroke:#1b2a34;stroke-width:0.40004444;stroke-miterlimit:4;display:inline"
       inkscape:connector-curvature="0" />
    <path
       sodipodi:nodetypes="cc"
       inkscape:connector-curvature="0"
       id="path4024"
       d="m 79.094238,1.4736378 c 1.766321,1.4880617 1.934092,2.206452 1.335634,2.5559169"
       style="fill:none;stroke:#1b2a34;stroke-width:0.5;stroke-linecap:butt;stroke-linejoin:miter;stroke-miterlimit:4;stroke-opacity:1;stroke-dasharray:none;display:inline" />
    <path
       style="fill:none;stroke:#1b2a34;stroke-width:0.375;stroke-linecap:butt;stroke-linejoin:miter;stroke-miterlimit:4;stroke-opacity:1;stroke-dasharray:none;display:inline"
       d="m 81.787143,1.162918 c 2.352038,1.9815077 1.869582,2.4946862 0.517866,2.6929052"
       id="path4026"
       inkscape:connector-curvature="0"
       sodipodi:nodetypes="cc" />
    <path
       sodipodi:nodetypes="cc"
       inkscape:connector-curvature="0"
       id="path4028"
       d="m 84.117542,1.162918 c 1.575238,1.3082814 1.662435,1.9250332 0.310719,2.1232522"
       style="fill:none;stroke:#1b2a34;stroke-width:0.375;stroke-linecap:butt;stroke-linejoin:miter;stroke-miterlimit:4;stroke-opacity:1;stroke-dasharray:none;display:inline" />
    <path
       style="fill:none;stroke:#1b2a34;stroke-width:0.375;stroke-linecap:butt;stroke-linejoin:miter;stroke-miterlimit:4;stroke-opacity:1;stroke-dasharray:none;display:inline"
       d="m 86.655087,1.6289978 c 0.262036,0.220756 0.488891,0.424573 0.683283,0.6127594"
       id="path4030"
       inkscape:connector-curvature="0"
       sodipodi:nodetypes="cc" />
    <path
       sodipodi:nodetypes="cc"
       inkscape:connector-curvature="0"
       id="path4032"
       d="m 76.426277,1.7963109 c 1.465885,1.6372168 1.324759,2.0338143 -0.04111,2.0623746"
       style="fill:none;stroke:#1b2a34;stroke-width:0.375;stroke-linecap:butt;stroke-linejoin:miter;stroke-miterlimit:4;stroke-opacity:1;stroke-dasharray:none;display:inline" />
    <path
       style="fill:none;stroke:#1b2a34;stroke-width:0.375;stroke-linecap:butt;stroke-linejoin:miter;stroke-miterlimit:4;stroke-opacity:1;stroke-dasharray:none;display:inline"
       d="m 74.754609,1.642914 c 0.775794,1.6659562 0.05936,2.085542 -1.225876,1.6222902"
       id="path4034"
       inkscape:connector-curvature="0"
       sodipodi:nodetypes="cc" />
    <path
       sodipodi:nodetypes="cc"
       inkscape:connector-curvature="0"
       id="path4036"
       d="m 72.786717,1.7464873 c 0.154354,0.7855833 0.0076,1.1533825 -1.277663,0.6901307"
       style="fill:none;stroke:#1b2a34;stroke-width:0.5;stroke-linecap:butt;stroke-linejoin:miter;stroke-miterlimit:4;stroke-opacity:1;stroke-dasharray:none;display:inline" />
    <path
       sodipodi:nodetypes="cszzzc"
       inkscape:connector-curvature="0"
       id="path4038"
       d="m 61.199454,5.9217709 c 0.29969,0.8992601 0.599483,1.9184164 1.212452,2.6813759 0.679012,0.8451617 1.679308,1.4137532 2.117182,1.9801112 0.437874,0.566358 -1.914414,-0.8151836 -2.364174,-0.306199 -0.449761,0.508984 1.252903,2.519573 0.421887,2.137498 -0.831016,-0.382075 -4.14736,-3.3165781 -1.387347,-6.4927861 z"
       style="fill:#1b2a34;stroke:none;display:inline" />
    <path
       sodipodi:nodetypes="ccccc"
       inkscape:connector-curvature="0"
       id="path4040"
       d="m 94.551285,10.361283 c 1.400634,-1.2123211 3.013304,-2.1701988 3.718091,-4.2175365 0.828609,5.7000135 -0.560773,4.3024555 -1.054384,5.7713655 0.253305,-1.091755 0.884079,-2.4666111 0.610433,-3.1631524 -1.09138,1.3450694 -2.18276,1.0828373 -3.27414,1.6093234 z"
       style="fill:#1b2a34;stroke:none;display:inline" />
    <path
       transform="translate(-309.78125,-326.66133)"
       id="path4124"
       style="fill:none;stroke:#231f20;stroke-width:0.3125;stroke-linecap:butt;stroke-linejoin:miter;stroke-miterlimit:4;stroke-opacity:1;stroke-dasharray:none;display:inline"
       d="m 309.96625,369.71717 c 8.7325,-47.29375 5.3425,-42.67874 14.2675,-42.85625 l 23.44,0 c 8.92625,0.17751 5.535,-4.4375 14.265,42.85625 l -51.9725,0 z"
       inkscape:connector-curvature="0" />
    <path
       transform="translate(-309.78125,-326.66133)"
       inkscape:connector-curvature="0"
       d="m 363.0636,369.71717 c 8.7325,-47.29375 5.3425,-42.67874 14.2675,-42.85625 l 23.44,0 c 8.92625,0.17751 5.535,-4.4375 14.265,42.85625 l -51.9725,0 z"
       style="fill:none;stroke:#231f20;stroke-width:0.3125;stroke-linecap:butt;stroke-linejoin:miter;stroke-miterlimit:4;stroke-opacity:1;stroke-dasharray:none;display:inline"
       id="path4042" />
    <g
       style="display:inline"
       id="g4117"
       mask="url(#mask4134)">
      <rect
         ry="1.9144077"
         y="34.464939"
         x="28.077314"
         height="6.4089522"
         width="8.4435406"
         id="rect4071"
         style="fill:#a1a5a2;stroke:#1b2a34;stroke-width:0.625;stroke-linecap:round;stroke-linejoin:round;stroke-miterlimit:4;stroke-opacity:1;stroke-dasharray:none;stroke-dashoffset:0" />
      <rect
         transform="matrix(0.9876024,-0.15697612,0.15697612,0.9876024,0,0)"
         style="fill:#a1a5a2;stroke:#1b2a34;stroke-width:0.625;stroke-linecap:round;stroke-linejoin:round;stroke-miterlimit:4;stroke-opacity:1;stroke-dasharray:none;stroke-dashoffset:0"
         id="rect4073"
         width="8.4435406"
         height="6.4089522"
         x="31.484034"
         y="39.739609"
         ry="1.9144077" />
      <rect
         ry="1.9144077"
         y="39.584972"
         x="41.044521"
         height="6.4089522"
         width="8.4435406"
         id="rect4075"
         style="fill:#a1a5a2;stroke:#1b2a34;stroke-width:0.625;stroke-linecap:round;stroke-linejoin:round;stroke-miterlimit:4;stroke-opacity:1;stroke-dasharray:none;stroke-dashoffset:0"
         transform="matrix(0.9876024,-0.15697612,0.15697612,0.9876024,0,0)" />
      <rect
         transform="matrix(0.99516852,0.09818152,-0.09818152,0.99516852,0,0)"
         style="fill:#a1a5a2;stroke:#1b2a34;stroke-width:0.625;stroke-linecap:round;stroke-linejoin:round;stroke-miterlimit:4;stroke-opacity:1;stroke-dasharray:none;stroke-dashoffset:0"
         id="rect4077"
         width="8.4435406"
         height="6.4089522"
         x="13.234012"
         y="32.203266"
         ry="1.9144077" />
      <rect
         ry="1.9144077"
         y="32.161591"
         x="3.4052942"
         height="6.4089522"
         width="8.4435406"
         id="rect4079"
         style="fill:#a1a5a2;stroke:#1b2a34;stroke-width:0.625;stroke-linecap:round;stroke-linejoin:round;stroke-miterlimit:4;stroke-opacity:1;stroke-dasharray:none;stroke-dashoffset:0"
         transform="matrix(0.99516852,0.09818152,-0.09818152,0.99516852,0,0)" />
      <rect
         style="fill:#a1a5a2;stroke:#1b2a34;stroke-width:0.625;stroke-linecap:round;stroke-linejoin:round;stroke-miterlimit:4;stroke-opacity:1;stroke-dasharray:none;stroke-dashoffset:0"
         id="rect4085"
         width="9.8490295"
         height="2.1567218"
         x="35.740513"
         y="42.026894"
         ry="1.0783609"
         transform="matrix(0.98705256,-0.16039713,0.16039713,0.98705256,0,0)" />
      <path
         sodipodi:nodetypes="csssc"
         inkscape:connector-curvature="0"
         id="path4089"
         d="m 12.724659,36.527831 c 0,0 4.24511,-1.587493 6.470165,-1.653486 7.432212,-0.220432 13.387536,1.546867 13.443566,2.516175 0.09059,1.567162 -5.15484,3.035117 -14.090583,2.372394 -2.214399,-0.164232 -5.823148,-3.235083 -5.823148,-3.235083 z"
         style="fill:#624732;stroke:#1b2a34;stroke-width:0.50000000000000000;stroke-linecap:butt;stroke-linejoin:miter;stroke-miterlimit:4;stroke-opacity:1;stroke-dasharray:none" />
      <path
         inkscape:connector-curvature="0"
         style="fill:#a3a2a4;fill-opacity:1;stroke:#1b2a34;stroke-width:0.375;stroke-linecap:round;stroke-linejoin:round;stroke-miterlimit:4;stroke-opacity:1;stroke-dashoffset:0;display:inline"
         d="m 19.742777,34.264484 c -0.271503,0.006 -0.463595,0.238722 -0.457601,0.510225 l 0.02277,1.030999 c -0.913069,0.625342 -1.085251,1.797654 0.06346,2.8743 l 0.03656,1.655847 c 0.006,0.271501 0.207481,0.464282 0.478984,0.458287 l 6.061022,-0.133824 c 0.271503,-0.006 0.495526,-0.20817 0.489532,-0.479672 l -0.0069,-0.312424 -4.748842,0.104852 c -0.271503,0.006 -0.472989,-0.186787 -0.478984,-0.458289 l -0.08829,-3.999025 c -0.006,-0.271504 0.186096,-0.504231 0.457598,-0.510227 l 4.748843,-0.10485 -0.0062,-0.281181 c -0.006,-0.271503 -0.239415,-0.494837 -0.510919,-0.488842 l -6.061023,0.133823 z"
         id="path6746-4" />
      <rect
         transform="matrix(0.99975634,-0.02207397,0.02207397,0.99975634,0,0)"
         style="fill:#a3a2a4;fill-opacity:1;stroke:#1b2a34;stroke-width:0.375;stroke-linecap:round;stroke-linejoin:round;stroke-miterlimit:4;stroke-opacity:1;stroke-dasharray:none;stroke-dashoffset:0;display:inline"
         id="rect6748-8"
         width="3.8090243"
         height="1.1035491"
         x="18.768984"
         y="37.151344"
         ry="0.49019608" />
      <rect
         transform="matrix(0.99540739,0.09572947,-0.09572947,0.99540739,0,0)"
         ry="1.0783609"
         y="34.332691"
         x="7.689363"
         height="2.1567218"
         width="9.8490295"
         id="rect4087"
         style="fill:#a1a5a2;stroke:#1b2a34;stroke-width:0.625;stroke-linecap:round;stroke-linejoin:round;stroke-miterlimit:4;stroke-opacity:1;stroke-dasharray:none;stroke-dashoffset:0" />
      <rect
         transform="matrix(0.99835596,-0.05731828,0.05731828,0.99835596,0,0)"
         ry="1.0783609"
         y="38.379005"
         x="30.00284"
         height="2.1567218"
         width="9.8490295"
         id="rect4083"
         style="fill:#a1a5a2;stroke:#1b2a34;stroke-width:0.625;stroke-linecap:round;stroke-linejoin:round;stroke-miterlimit:4;stroke-opacity:1;stroke-dasharray:none;stroke-dashoffset:0" />
    </g>
    <g
       style="display:inline"
       id="g4197"
       transform="translate(-1.0396392,0.09451265)"
       mask="url(#mask4214)">
      <rect
         style="fill:#a1a5a2;stroke:#1b2a34;stroke-width:0.625;stroke-linecap:round;stroke-linejoin:round;stroke-miterlimit:4;stroke-opacity:1;stroke-dasharray:none;stroke-dashoffset:0"
         id="rect4140"
         width="8.4435406"
         height="6.4089522"
         x="81.378647"
         y="34.464939"
         ry="1.9144077" />
      <rect
         ry="1.9144077"
         y="48.106644"
         x="84.124557"
         height="6.4089522"
         width="8.4435406"
         id="rect4142"
         style="fill:#a1a5a2;stroke:#1b2a34;stroke-width:0.625;stroke-linecap:round;stroke-linejoin:round;stroke-miterlimit:4;stroke-opacity:1;stroke-dasharray:none;stroke-dashoffset:0"
         transform="matrix(0.9876024,-0.15697612,0.15697612,0.9876024,0,0)" />
      <rect
         transform="matrix(0.9876024,-0.15697612,0.15697612,0.9876024,0,0)"
         style="fill:#a1a5a2;stroke:#1b2a34;stroke-width:0.625;stroke-linecap:round;stroke-linejoin:round;stroke-miterlimit:4;stroke-opacity:1;stroke-dasharray:none;stroke-dashoffset:0"
         id="rect4144"
         width="8.4435406"
         height="6.4089522"
         x="93.685043"
         y="47.952007"
         ry="1.9144077" />
      <rect
         transform="matrix(0.98705256,-0.16039713,0.16039713,0.98705256,0,0)"
         ry="1.0783609"
         y="50.576275"
         x="88.35173"
         height="2.1567218"
         width="9.8490295"
         id="rect4150"
         style="fill:#a1a5a2;stroke:#1b2a34;stroke-width:0.625;stroke-linecap:round;stroke-linejoin:round;stroke-miterlimit:4;stroke-opacity:1;stroke-dasharray:none;stroke-dashoffset:0" />
      <rect
         style="fill:#a1a5a2;stroke:#1b2a34;stroke-width:0.625;stroke-linecap:round;stroke-linejoin:round;stroke-miterlimit:4;stroke-opacity:1;stroke-dasharray:none;stroke-dashoffset:0"
         id="rect4160"
         width="9.8490295"
         height="2.1567218"
         x="83.216545"
         y="41.434147"
         ry="1.0783609"
         transform="matrix(0.99835596,-0.05731828,0.05731828,0.99835596,0,0)" />
      <rect
         transform="scale(-1,1)"
         ry="1.9144077"
         y="34.464939"
         x="-79.380005"
         height="6.4089522"
         width="8.4435406"
         id="rect4185"
         style="fill:#a1a5a2;stroke:#1b2a34;stroke-width:0.625;stroke-linecap:round;stroke-linejoin:round;stroke-miterlimit:4;stroke-opacity:1;stroke-dasharray:none;stroke-dashoffset:0" />
      <rect
         transform="matrix(-0.9876024,-0.15697612,-0.15697612,0.9876024,0,0)"
         style="fill:#a1a5a2;stroke:#1b2a34;stroke-width:0.625;stroke-linecap:round;stroke-linejoin:round;stroke-miterlimit:4;stroke-opacity:1;stroke-dasharray:none;stroke-dashoffset:0"
         id="rect4187"
         width="8.4435406"
         height="6.4089522"
         x="-74.641083"
         y="22.871372"
         ry="1.9144077" />
      <rect
         ry="1.9144077"
         y="22.716736"
         x="-65.080597"
         height="6.4089522"
         width="8.4435406"
         id="rect4189"
         style="fill:#a1a5a2;stroke:#1b2a34;stroke-width:0.625;stroke-linecap:round;stroke-linejoin:round;stroke-miterlimit:4;stroke-opacity:1;stroke-dasharray:none;stroke-dashoffset:0"
         transform="matrix(-0.9876024,-0.15697612,-0.15697612,0.9876024,0,0)" />
      <rect
         style="fill:#a1a5a2;stroke:#1b2a34;stroke-width:0.625;stroke-linecap:round;stroke-linejoin:round;stroke-miterlimit:4;stroke-opacity:1;stroke-dasharray:none;stroke-dashoffset:0"
         id="rect4191"
         width="9.8490295"
         height="2.1567218"
         x="-70.325523"
         y="24.791048"
         ry="1.0783609"
         transform="matrix(-0.98705256,-0.16039713,-0.16039713,0.98705256,0,0)" />
      <rect
         transform="matrix(-0.99835596,-0.05731828,-0.05731828,0.99835596,0,0)"
         ry="1.0783609"
         y="32.219738"
         x="-77.277824"
         height="2.1567218"
         width="9.8490295"
         id="rect4193"
         style="fill:#a1a5a2;stroke:#1b2a34;stroke-width:0.625;stroke-linecap:round;stroke-linejoin:round;stroke-miterlimit:4;stroke-opacity:1;stroke-dasharray:none;stroke-dashoffset:0" />
      <rect
         transform="matrix(0.99995071,0.00992907,-0.00992907,0.99995071,0,0)"
         ry="1.0783609"
         y="35.794464"
         x="75.954651"
         height="2.1567218"
         width="9.8490295"
         id="rect4195"
         style="fill:#a1a5a2;stroke:#1b2a34;stroke-width:0.625;stroke-linecap:round;stroke-linejoin:round;stroke-miterlimit:4;stroke-opacity:1;stroke-dasharray:none;stroke-dashoffset:0" />
    </g>
    <path
       sodipodi:nodetypes="cscscsccccccsszzsccczzcccssc"
       inkscape:connector-curvature="0"
       id="path4115"
       d="m 19.805895,25.133151 c -0.471698,0.64017 -0.962144,1.282998 1.551638,3.134375 2.7353,2.014522 2.498122,1.50963 3.73233,1.179069 -0.320696,-1.969186 -0.01,-3.102674 0.644087,-3.781739 0.845084,-0.87739 2.479016,-1.391563 3.633412,-1.178721 -0.423592,-1.766965 1.597591,-4.417702 3.274564,-4.786348 0.341676,-0.07511 2.119615,1.372284 1.64995,3.707987 0.814954,0.452668 6.183975,-5.587942 -0.647016,-7.836089 0.62775,-0.651522 0.917489,-1.69739 0.970525,-3.019411 -0.814762,0.681359 -1.629523,1.017155 -2.444285,0.647017 2.388563,-3.8207851 0.811899,-6.5366628 -1.437815,-8.5190514 1.406146,3.6198159 -1.053571,6.0501354 -3.271028,8.5549964 -0.604575,-0.143416 -1.424823,-0.284565 -2.137235,-0.0152 -1.024833,0.387498 -0.144563,0.749359 -3.577735,3.35577 -1.290216,0.979511 -1.917655,1.668972 -3.127589,1.691777 -1.209933,0.02281 -2.921539,2.275847 -2.695902,3.414809 0.225636,1.138963 1.239433,1.533201 1.990516,1.794322 1.288664,0.448014 2.502654,0.578072 2.502654,0.578072 l 0.143782,-1.905104 2.264558,-0.215672 c -0.212337,-1.372868 0.476916,-2.352441 1.186197,-2.336449 0.70928,0.01599 2.256791,1.242648 2.480229,2.084832 0.223438,0.842184 -0.826743,1.401869 -0.826743,1.401869 -0.09322,0.220685 -2.216445,0.129063 -3.414809,0.179726 L 22.969087,25.888 c -0.834648,0.860819 -1.187695,0.205013 -1.619336,-0.290642 -0.114801,-0.131827 -0.201759,-0.486143 -0.344655,-0.518702 -0.376628,-0.08581 -0.770915,-0.09216 -1.199201,0.0545 z"
       style="fill:#524638;fill-opacity:1;stroke:#1b2a34;stroke-width:0.875;stroke-linecap:butt;stroke-linejoin:miter;stroke-miterlimit:4;stroke-opacity:1;stroke-dasharray:none;display:inline" />
    <path
       style="fill:#524638;fill-opacity:1;stroke:#1b2a34;stroke-width:0.375;stroke-linecap:butt;stroke-linejoin:miter;stroke-miterlimit:4;stroke-opacity:1;stroke-dasharray:none;display:inline"
       d="m 19.805895,25.133151 c -0.471698,0.64017 -0.962144,1.282998 1.551638,3.134375 2.7353,2.014522 2.498122,1.50963 3.73233,1.179069 -0.320696,-1.969186 -0.01,-3.102674 0.644087,-3.781739 0.845084,-0.87739 2.479016,-1.391563 3.633412,-1.178721 -0.423592,-1.766965 1.597591,-4.417702 3.274564,-4.786348 0.341676,-0.07511 2.119615,1.372284 1.64995,3.707987 0.814954,0.452668 6.183975,-5.587942 -0.647016,-7.836089 0.62775,-0.651522 0.917489,-1.69739 0.970525,-3.019411 -0.814762,0.681359 -1.629523,1.017155 -2.444285,0.647017 2.388563,-3.8207851 0.811899,-6.5366628 -1.437815,-8.5190514 1.406146,3.6198159 -1.053571,6.0501354 -3.271028,8.5549964 -0.604575,-0.143416 -1.424823,-0.284565 -2.137235,-0.0152 -1.024833,0.387498 -0.144563,0.749359 -3.577735,3.35577 -1.290216,0.979511 -1.917655,1.668972 -3.127589,1.691777 -1.209933,0.02281 -2.921539,2.275847 -2.695902,3.414809 0.225636,1.138963 1.239433,1.533201 1.990516,1.794322 1.288664,0.448014 2.502654,0.578072 2.502654,0.578072 l 0.143782,-1.905104 2.264558,-0.215672 c -0.212337,-1.372868 0.476916,-2.352441 1.186197,-2.336449 0.70928,0.01599 2.256791,1.242648 2.480229,2.084832 0.223438,0.842184 -0.826743,1.401869 -0.826743,1.401869 -0.09322,0.220685 -2.216445,0.129063 -3.414809,0.179726 L 22.969087,25.888 c -0.834648,0.860819 -1.187695,0.205013 -1.619336,-0.290642 -0.114801,-0.131827 -0.201759,-0.486143 -0.344655,-0.518702 -0.376628,-0.08581 -0.770915,-0.09216 -1.199201,0.0545 z"
       id="path4101"
       inkscape:connector-curvature="0"
       sodipodi:nodetypes="cscscsccccccsszzsccczzcccssc" />
    <path
       style="fill:none;stroke:#1b2a34;stroke-width:0.375;stroke-linecap:butt;stroke-linejoin:miter;stroke-miterlimit:4;stroke-opacity:1;stroke-dasharray:none;display:inline"
       d="m 26.671459,21.862123 c 1.376561,-0.08848 1.858195,-1.009449 1.898457,-2.340997 0.03348,-1.10715 -0.894399,-1.329608 -1.235978,-2.722275 -0.187457,-0.764291 -0.0225,-2.257813 0.164265,-3.563615"
       id="path4103"
       inkscape:connector-curvature="0"
       sodipodi:nodetypes="cssc" />
    <path
       style="fill:#1b2a34;stroke:none;display:inline"
       d="m 18.583753,18.339478 c 0.693931,2.761142 1.510854,2.82103 3.091301,3.594536 -0.637747,0.08329 -0.961884,-0.02306 -1.128477,0.279767 -0.23312,0.423753 -0.01396,0.796553 -0.201502,1.769119 -0.7258,-1.772514 -1.835038,-3.127467 -1.761322,-5.643422 z"
       id="path4105"
       inkscape:connector-curvature="0"
       sodipodi:nodetypes="ccscc" />
    <path
       style="fill:none;stroke:#1b2a34;stroke-width:0.375;stroke-linecap:butt;stroke-linejoin:miter;stroke-miterlimit:4;stroke-opacity:1;stroke-dasharray:none;display:inline"
       d="m 28.75629,19.56162 c 2.219195,-0.235505 4.003087,-0.214951 4.601007,0.503235"
       id="path4107"
       inkscape:connector-curvature="0"
       sodipodi:nodetypes="cc" />
    <path
       style="font-size:medium;font-style:normal;font-variant:normal;font-weight:normal;font-stretch:normal;text-indent:0;text-align:start;text-decoration:none;line-height:normal;letter-spacing:normal;word-spacing:normal;text-transform:none;direction:ltr;block-progression:tb;writing-mode:lr-tb;text-anchor:start;baseline-shift:baseline;color:#000000;fill:#1b2a34;fill-opacity:1;stroke:none;stroke-width:0.375;marker:none;visibility:visible;display:inline;overflow:visible;enable-background:accumulate;font-family:Sans;-inkscape-font-specification:Sans"
       d="m 32.3125,12.5625 c -0.67031,0.918197 -1.280226,0.81786 -1.261824,1.021559 0.0184,0.203699 0.830782,0.215702 1.574324,-0.802809 z"
       id="path4109"
       inkscape:connector-curvature="0"
       sodipodi:nodetypes="cccc" />
    <path
       style="font-size:medium;font-style:normal;font-variant:normal;font-weight:normal;font-stretch:normal;text-indent:0;text-align:start;text-decoration:none;line-height:normal;letter-spacing:normal;word-spacing:normal;text-transform:none;direction:ltr;block-progression:tb;writing-mode:lr-tb;text-anchor:start;baseline-shift:baseline;color:#000000;fill:#1b2a34;fill-opacity:1;stroke:none;stroke-width:0.375;marker:none;visibility:visible;display:inline;overflow:visible;enable-background:accumulate;font-family:Sans;-inkscape-font-specification:Sans"
       d="m 33.25,15.3125 c -0.349387,-0.01603 -0.783472,0.0086 -1.25,0.0625 -0.933057,0.107817 -2.018181,0.27372 -1.993753,0.460985 0.02443,0.187265 1.106538,0.02015 2.025003,-0.08599 0.459233,-0.05307 0.879056,-0.07665 1.1875,-0.0625 0.308444,0.01415 0.4969,0.07397 0.53125,0.125 L 34.0625,15.625 C 33.900408,15.384176 33.599387,15.328532 33.25,15.3125 z"
       id="path4111"
       inkscape:connector-curvature="0"
       sodipodi:nodetypes="sccssccs" />
    <path
       style="fill:#1b2a34;stroke:none;display:inline"
       d="m 25.341481,15.427903 -2.588066,2.300503 2.048886,0 z"
       id="path4113"
       inkscape:connector-curvature="0" />
  </g>
</svg>
