<?xml version="1.0" encoding="UTF-8" standalone="no"?>
<!-- Created with Inkscape (http://www.inkscape.org/) -->

<svg
   xmlns:dc="http://purl.org/dc/elements/1.1/"
   xmlns:cc="http://creativecommons.org/ns#"
   xmlns:rdf="http://www.w3.org/1999/02/22-rdf-syntax-ns#"
   xmlns:svg="http://www.w3.org/2000/svg"
   xmlns="http://www.w3.org/2000/svg"
   xmlns:xlink="http://www.w3.org/1999/xlink"
   xmlns:sodipodi="http://sodipodi.sourceforge.net/DTD/sodipodi-0.dtd"
   xmlns:inkscape="http://www.inkscape.org/namespaces/inkscape"
   width="105.4375"
   height="43.213669"
   id="svg2"
   version="1.1"
   inkscape:version="0.48.2 r9819"
   sodipodi:docname="quarter.lion.svg">
  <defs
     id="defs4">
    <linearGradient
       inkscape:collect="always"
       id="linearGradient4011">
      <stop
         style="stop-color:#ffffff;stop-opacity:1;"
         offset="0"
         id="stop4013" />
      <stop
         style="stop-color:#ffffff;stop-opacity:0;"
         offset="1"
         id="stop4015" />
    </linearGradient>
    <linearGradient
       inkscape:collect="always"
       id="linearGradient3997">
      <stop
         style="stop-color:#ffffff;stop-opacity:1;"
         offset="0"
         id="stop3999" />
      <stop
         style="stop-color:#ffffff;stop-opacity:0;"
         offset="1"
         id="stop4001" />
    </linearGradient>
    <inkscape:path-effect
       effect="skeletal"
       id="path-effect4237"
       is_visible="true"
       pattern="M 0,5 C 0,2.24 2.24,0 5,0 7.76,0 10,2.24 10,5 10,7.76 7.76,10 5,10 2.24,10 0,7.76 0,5 z"
       copytype="single_stretched"
       prop_scale="1"
       scale_y_rel="false"
       spacing="0"
       normal_offset="0"
       tang_offset="0"
       prop_units="false"
       vertical_pattern="false"
       fuse_tolerance="0" />
    <clipPath
       id="clipPath2999"
       clipPathUnits="userSpaceOnUse">
      <path
         id="path3001"
         d="M 0,792 612,792 612,0 0,0 0,792 z"
         inkscape:connector-curvature="0" />
    </clipPath>
    <radialGradient
       gradientUnits="userSpaceOnUse"
       gradientTransform="matrix(0.75988491,-0.03632001,0.13155835,2.7524547,16.986326,-78.268899)"
       r="12.650181"
       fy="46.658409"
       fx="96.306435"
       cy="46.658409"
       cx="96.306435"
       id="radialGradient3972"
       xlink:href="#linearGradient3966"
       inkscape:collect="always" />
    <clipPath
       clipPathUnits="userSpaceOnUse"
       id="clipPath2999-4">
      <path
         inkscape:connector-curvature="0"
         d="M 0,792 612,792 612,0 0,0 0,792 z"
         id="path3001-0" />
    </clipPath>
    <linearGradient
       id="linearGradient3966">
      <stop
         id="stop3968"
         offset="0"
         style="stop-color:#c0ac02;stop-opacity:1;" />
      <stop
         id="stop3970"
         offset="1"
         style="stop-color:#fdea41;stop-opacity:0;" />
    </linearGradient>
    <radialGradient
       inkscape:collect="always"
       xlink:href="#linearGradient3997"
       id="radialGradient4003"
       cx="165.81134"
       cy="47.693741"
       fx="165.81134"
       fy="47.693741"
       r="3.8123069"
       gradientTransform="matrix(0.64374811,-0.18781617,0.31213841,1.069868,43.640483,27.15595)"
       gradientUnits="userSpaceOnUse" />
    <radialGradient
       inkscape:collect="always"
       xlink:href="#linearGradient3997"
       id="radialGradient4007"
       gradientUnits="userSpaceOnUse"
       gradientTransform="matrix(-0.64374811,-0.18781617,-0.31213841,1.069868,293.73143,27.15595)"
       cx="165.81134"
       cy="47.693741"
       fx="165.81134"
       fy="47.693741"
       r="3.8123069" />
    <radialGradient
       inkscape:collect="always"
       xlink:href="#linearGradient4011"
       id="radialGradient4017"
       cx="169.32254"
       cy="41.784931"
       fx="169.32254"
       fy="41.784931"
       r="6.982676"
       gradientTransform="matrix(0.31036379,-0.01814613,0.03701409,0.63307367,114.75293,21.468668)"
       gradientUnits="userSpaceOnUse" />
    <linearGradient
       id="linearGradient3966-2">
      <stop
         style="stop-color:#c0ac02;stop-opacity:1;"
         offset="0"
         id="stop3968-4" />
      <stop
         style="stop-color:#fdea41;stop-opacity:0;"
         offset="1"
         id="stop3970-5" />
    </linearGradient>
    <clipPath
       id="clipPath2999-4-8"
       clipPathUnits="userSpaceOnUse">
      <path
         id="path3001-0-8"
         d="M 0,792 612,792 612,0 0,0 0,792 z"
         inkscape:connector-curvature="0" />
    </clipPath>
    <radialGradient
       inkscape:collect="always"
       xlink:href="#linearGradient3966-2"
       id="radialGradient3972-4"
       cx="96.306435"
       cy="46.658409"
       fx="96.306435"
       fy="46.658409"
       r="12.650181"
       gradientTransform="matrix(0.75988491,-0.03632001,0.13155835,2.7524547,16.986326,-78.268899)"
       gradientUnits="userSpaceOnUse" />
    <clipPath
       clipPathUnits="userSpaceOnUse"
       id="clipPath2999-0">
      <path
         inkscape:connector-curvature="0"
         d="M 0,792 612,792 612,0 0,0 0,792 z"
         id="path3001-9" />
    </clipPath>
    <inkscape:path-effect
       fuse_tolerance="0"
       vertical_pattern="false"
       prop_units="false"
       tang_offset="0"
       normal_offset="0"
       spacing="0"
       scale_y_rel="false"
       prop_scale="1"
       copytype="single_stretched"
       pattern="M 0,5 C 0,2.24 2.24,0 5,0 7.76,0 10,2.24 10,5 10,7.76 7.76,10 5,10 2.24,10 0,7.76 0,5 z"
       is_visible="true"
       id="path-effect4237-4"
       effect="skeletal" />
    <inkscape:path-effect
       effect="skeletal"
       id="path-effect4237-4-5"
       is_visible="true"
       pattern="M 0,5 C 0,2.24 2.24,0 5,0 7.76,0 10,2.24 10,5 10,7.76 7.76,10 5,10 2.24,10 0,7.76 0,5 z"
       copytype="single_stretched"
       prop_scale="1"
       scale_y_rel="false"
       spacing="0"
       normal_offset="0"
       tang_offset="0"
       prop_units="false"
       vertical_pattern="false"
       fuse_tolerance="0" />
    <clipPath
       id="clipPath2999-0-6"
       clipPathUnits="userSpaceOnUse">
      <path
         id="path3001-9-8"
         d="M 0,792 612,792 612,0 0,0 0,792 z"
         inkscape:connector-curvature="0" />
    </clipPath>
    <radialGradient
       gradientUnits="userSpaceOnUse"
       gradientTransform="matrix(0.75988491,-0.03632001,0.13155835,2.7524547,16.986326,-78.268899)"
       r="12.650181"
       fy="46.658409"
       fx="96.306435"
       cy="46.658409"
       cx="96.306435"
       id="radialGradient3972-4-1"
       xlink:href="#linearGradient3966-2-4"
       inkscape:collect="always" />
    <clipPath
       clipPathUnits="userSpaceOnUse"
       id="clipPath2999-4-8-2">
      <path
         inkscape:connector-curvature="0"
         d="M 0,792 612,792 612,0 0,0 0,792 z"
         id="path3001-0-8-2" />
    </clipPath>
    <linearGradient
       id="linearGradient3966-2-4">
      <stop
         id="stop3968-4-2"
         offset="0"
         style="stop-color:#c0ac02;stop-opacity:1;" />
      <stop
         id="stop3970-5-3"
         offset="1"
         style="stop-color:#fdea41;stop-opacity:0;" />
    </linearGradient>
    <radialGradient
       gradientUnits="userSpaceOnUse"
       gradientTransform="matrix(0.31036379,-0.01814613,0.03701409,0.63307367,114.75293,21.468668)"
       r="6.982676"
       fy="41.784931"
       fx="169.32254"
       cy="41.784931"
       cx="169.32254"
       id="radialGradient4017-1"
       xlink:href="#linearGradient4011-4"
       inkscape:collect="always" />
    <radialGradient
       r="3.8123069"
       fy="47.693741"
       fx="165.81134"
       cy="47.693741"
       cx="165.81134"
       gradientTransform="matrix(-0.64374811,-0.18781617,-0.31213841,1.069868,293.73143,27.15595)"
       gradientUnits="userSpaceOnUse"
       id="radialGradient4007-6"
       xlink:href="#linearGradient3997-4"
       inkscape:collect="always" />
    <radialGradient
       gradientUnits="userSpaceOnUse"
       gradientTransform="matrix(0.64374811,-0.18781617,0.31213841,1.069868,43.640483,27.15595)"
       r="3.8123069"
       fy="47.693741"
       fx="165.81134"
       cy="47.693741"
       cx="165.81134"
       id="radialGradient4003-7"
       xlink:href="#linearGradient3997-4"
       inkscape:collect="always" />
    <linearGradient
       id="linearGradient3966-1">
      <stop
         style="stop-color:#c0ac02;stop-opacity:1;"
         offset="0"
         id="stop3968-5" />
      <stop
         style="stop-color:#fdea41;stop-opacity:0;"
         offset="1"
         id="stop3970-2" />
    </linearGradient>
    <clipPath
       id="clipPath2999-4-7"
       clipPathUnits="userSpaceOnUse">
      <path
         id="path3001-0-1"
         d="M 0,792 612,792 612,0 0,0 0,792 z"
         inkscape:connector-curvature="0" />
    </clipPath>
    <radialGradient
       inkscape:collect="always"
       xlink:href="#linearGradient3966-1"
       id="radialGradient3972-1"
       cx="96.306435"
       cy="46.658409"
       fx="96.306435"
       fy="46.658409"
       r="12.650181"
       gradientTransform="matrix(0.75988491,-0.03632001,0.13155835,2.7524547,16.986326,-78.268899)"
       gradientUnits="userSpaceOnUse" />
    <clipPath
       clipPathUnits="userSpaceOnUse"
       id="clipPath2999-45">
      <path
         inkscape:connector-curvature="0"
         d="M 0,792 612,792 612,0 0,0 0,792 z"
         id="path3001-5" />
    </clipPath>
    <inkscape:path-effect
       fuse_tolerance="0"
       vertical_pattern="false"
       prop_units="false"
       tang_offset="0"
       normal_offset="0"
       spacing="0"
       scale_y_rel="false"
       prop_scale="1"
       copytype="single_stretched"
       pattern="M 0,5 C 0,2.24 2.24,0 5,0 7.76,0 10,2.24 10,5 10,7.76 7.76,10 5,10 2.24,10 0,7.76 0,5 z"
       is_visible="true"
       id="path-effect4237-2"
       effect="skeletal" />
    <linearGradient
       id="linearGradient3997-4"
       inkscape:collect="always">
      <stop
         id="stop3999-8"
         offset="0"
         style="stop-color:#ffffff;stop-opacity:1;" />
      <stop
         id="stop4001-8"
         offset="1"
         style="stop-color:#ffffff;stop-opacity:0;" />
    </linearGradient>
    <linearGradient
       id="linearGradient4011-4"
       inkscape:collect="always">
      <stop
         id="stop4013-0"
         offset="0"
         style="stop-color:#ffffff;stop-opacity:1;" />
      <stop
         id="stop4015-9"
         offset="1"
         style="stop-color:#ffffff;stop-opacity:0;" />
    </linearGradient>
    <mask
       maskUnits="userSpaceOnUse"
       id="mask3195">
      <path
         inkscape:connector-curvature="0"
         d="M 0.185,43.05584 C 8.9175,-4.23791 5.5275,0.3771 14.4525,0.19959 l 23.44,0 c 8.92625,0.17751 5.535,-4.4375 14.265,42.85625 l -51.9725,0 z"
         style="fill:#f2f3f2;stroke:#231f20;stroke-width:0.3125;stroke-linecap:butt;stroke-linejoin:miter;stroke-miterlimit:4;stroke-opacity:1;stroke-dasharray:none;display:inline"
         id="path3197" />
    </mask>
    <mask
       maskUnits="userSpaceOnUse"
       id="mask3877">
      <path
         inkscape:connector-curvature="0"
         d="M 0.185,43.05584 C 8.9175,-4.23791 5.5275,0.3771 14.4525,0.19959 l 23.44,0 c 8.92625,0.17751 5.535,-4.4375 14.265,42.85625 l -51.9725,0 z"
         style="fill:#ffffff;fill-opacity:1;stroke:#231f20;stroke-width:0.3125;stroke-linecap:butt;stroke-linejoin:miter;stroke-miterlimit:4;stroke-opacity:1;stroke-dasharray:none;display:inline"
         id="path3879" />
    </mask>
  </defs>
  <sodipodi:namedview
     id="base"
     pagecolor="#ffffff"
     bordercolor="#666666"
     borderopacity="1.0"
     inkscape:pageopacity="0.0"
     inkscape:pageshadow="2"
     inkscape:zoom="4.53"
     inkscape:cx="53.860203"
     inkscape:cy="21.606827"
     inkscape:document-units="px"
     inkscape:current-layer="layer2"
     showgrid="false"
     fit-margin-top="0"
     fit-margin-left="0"
     fit-margin-right="0"
     fit-margin-bottom="0"
     inkscape:window-width="1280"
     inkscape:window-height="968"
     inkscape:window-x="-4"
     inkscape:window-y="-4"
     inkscape:window-maximized="1"
     showguides="true"
     inkscape:guide-bbox="true"
     inkscape:snap-global="false">
    <sodipodi:guide
       orientation="0,1"
       position="62.43758,-61.6697"
       id="guide3274" />
    <sodipodi:guide
       orientation="1,0"
       position="77.28784,-56.552998"
       id="guide3960" />
  </sodipodi:namedview>
  <metadata
     id="metadata7">
    <rdf:RDF>
      <cc:Work
         rdf:about="">
        <dc:format>image/svg+xml</dc:format>
        <dc:type
           rdf:resource="http://purl.org/dc/dcmitype/StillImage" />
        <dc:title />
      </cc:Work>
    </rdf:RDF>
  </metadata>
  <g
     inkscape:groupmode="layer"
     id="layer2"
     inkscape:label="torso"
     style="display:inline"
     transform="translate(0,-2.6947626e-6)">
    <g
       id="g3868"
       mask="url(#mask3877)">
      <path
         id="rect3070"
         d="m -0.53125,-1.4375 0,45.1875 53.71875,0 0,-45.1875 -53.71875,0 z"
         style="fill:#f2f3f2;fill-opacity:1;stroke:none"
         inkscape:connector-curvature="0" />
      <path
         id="rect3072"
         d="m -0.53125,-1.4375 0,20.125 c 8.8462381,0.557543 16.929272,1.454406 26.71875,1.625 l 0,23.4375 27,0 0,-24.40625 c -9.111149,0.375656 -17.276415,1.054735 -27,0.78125 l 0,-21.5625 -26.71875,0 z"
         style="fill:#c4281b;fill-opacity:1;stroke:none"
         inkscape:connector-curvature="0" />
    </g>
    <path
       style="fill:#1b2a34;stroke:none;display:inline"
       d="M 0.4162831,42.103791 C 3.4918392,40.98769 5.1964984,40.283289 5.186819,36.88848 5.1781968,33.864428 3.6798425,33.229441 3.840798,32.447853 3.9510902,31.912282 4.9356688,30.152099 5.5611088,29.062725 4.6690477,29.453775 3.7769867,30.177557 2.8849257,31.219806 2.6486109,31.495907 3.4896091,24.506651 2.1759812,32.11489 1.3880641,37.772306 0.91965022,38.82715 0.4162831,42.103791 z"
       id="path3952"
       inkscape:connector-curvature="0"
       sodipodi:nodetypes="csscscc" />
    <path
       style="fill:#1b2a34;stroke:none;display:inline"
       d="M 51.886792,42.103791 C 46.330334,40.154699 47.071941,37.306507 47.610458,32.823 c 0.145183,-1.208744 -0.47802,-3.16323 -0.131952,-4.263837 0.227563,-0.723724 0.9877,2.569636 1.253261,1.768841 0.314474,-0.948294 -0.03608,-3.563389 0.324837,-4.539418 0.849924,5.671825 2.091379,12.419294 2.830188,16.315205 z"
       id="path3950"
       inkscape:connector-curvature="0"
       sodipodi:nodetypes="cssscc" />
    <path
       style="font-size:medium;font-style:normal;font-variant:normal;font-weight:normal;font-stretch:normal;text-indent:0;text-align:start;text-decoration:none;line-height:normal;letter-spacing:normal;word-spacing:normal;text-transform:none;direction:ltr;block-progression:tb;writing-mode:lr-tb;text-anchor:start;baseline-shift:baseline;color:#000000;fill:#624732;fill-opacity:1;stroke:#1b2a34;stroke-width:0.375;stroke-miterlimit:4;stroke-dasharray:none;marker:none;visibility:visible;display:inline;overflow:visible;enable-background:accumulate;font-family:Sans;-inkscape-font-specification:Sans"
       d="M 50.574841,35.105117 C 37.063045,38.149974 18.537986,37.24369 1.4467656,36.205814 L 0.82316643,39.713043 C 17.903853,40.75028 37.040065,41.993273 51.381268,38.761509 z"
       id="path6722"
       inkscape:connector-curvature="0"
       sodipodi:nodetypes="ccccc" />
    <path
       id="path6746"
       d="m 23.203563,35.665256 c -0.271503,0.006 -0.463594,0.238722 -0.4576,0.510225 l 0.02277,1.030999 c -0.913069,0.625342 -1.085251,1.797654 0.06346,2.8743 l 0.03656,1.655847 c 0.006,0.271501 0.207481,0.464282 0.478984,0.458287 l 6.061022,-0.133824 c 0.271503,-0.006 0.495526,-0.20817 0.489532,-0.479672 l -0.0069,-0.312424 -4.748842,0.104852 c -0.271503,0.006 -0.472989,-0.186787 -0.478984,-0.458289 l -0.08829,-3.999025 c -0.006,-0.271504 0.186096,-0.504231 0.457598,-0.510227 l 4.748843,-0.10485 -0.0062,-0.281181 c -0.006,-0.271503 -0.239415,-0.494837 -0.510919,-0.488842 l -6.061023,0.133823 z"
       style="fill:#a3a2a4;fill-opacity:1;stroke:#1b2a34;stroke-width:0.375;stroke-linecap:round;stroke-linejoin:round;stroke-miterlimit:4;stroke-opacity:1;stroke-dashoffset:0;display:inline"
       inkscape:connector-curvature="0" />
    <path
       sodipodi:nodetypes="czcc"
       inkscape:connector-curvature="0"
       id="path3659"
       d="m 35.458041,37.407891 c 0,0 2.760259,0.266273 3.969924,1.917252 1.209664,1.650977 -0.09956,2.140909 -0.09956,2.140909 z"
       style="fill:#1b2a34;stroke:none;display:inline" />
    <path
       sodipodi:nodetypes="cscscsc"
       inkscape:connector-curvature="0"
       id="path3661"
       d="m 28.208519,40.818879 c 2.185076,0.147354 4.206031,0.04952 5.734776,0.336315 1.528745,0.286805 2.557261,0.805349 2.616042,0.862115 0.762164,0.224271 2.074628,0.465677 2.565602,-0.04241 0.453569,-0.469378 0.131879,-1.660431 -0.236471,-2.175546 -1.219793,-1.177989 -2.469511,-2.001708 -4.270501,-2.339583 -1.800991,-0.337878 -3.900732,-0.133988 -6.149095,-0.285613"
       style="font-size:medium;font-style:normal;font-variant:normal;font-weight:normal;font-stretch:normal;text-indent:0;text-align:start;text-decoration:none;line-height:normal;letter-spacing:normal;word-spacing:normal;text-transform:none;direction:ltr;block-progression:tb;writing-mode:lr-tb;text-anchor:start;baseline-shift:baseline;color:#000000;fill:#624732;fill-opacity:1;stroke:#1b2a34;stroke-width:0.375;stroke-miterlimit:4;stroke-dasharray:none;marker:none;visibility:visible;display:inline;overflow:visible;enable-background:accumulate;font-family:Sans;-inkscape-font-specification:Sans" />
    <rect
       ry="0.49019608"
       y="38.628166"
       x="22.198006"
       height="1.1035491"
       width="3.8090243"
       id="rect6748"
       style="fill:#a3a2a4;fill-opacity:1;stroke:#1b2a34;stroke-width:0.375;stroke-linecap:round;stroke-linejoin:round;stroke-miterlimit:4;stroke-opacity:1;stroke-dasharray:none;stroke-dashoffset:0;display:inline"
       transform="matrix(0.99975634,-0.02207397,0.02207397,0.99975634,0,0)" />
    <path
       d="m 18.689138,38.652729 a 0.5873729,0.53397536 0 1 1 -1.174746,0 0.5873729,0.53397536 0 1 1 1.174746,0 z"
       sodipodi:ry="0.53397536"
       sodipodi:rx="0.5873729"
       sodipodi:cy="38.652729"
       sodipodi:cx="18.101765"
       id="path3663"
       style="fill:#1b2a34;fill-opacity:1;stroke:none;display:inline"
       sodipodi:type="arc"
       transform="matrix(0.99341095,-0.11460667,0.11460667,0.99341095,9.2938157,2.821356)" />
    <path
       transform="matrix(0.99341095,-0.11460667,0.11460667,0.99341095,12.526869,3.200893)"
       sodipodi:type="arc"
       style="fill:#1b2a34;fill-opacity:1;stroke:none;display:inline"
       id="path3665"
       sodipodi:cx="18.101765"
       sodipodi:cy="38.652729"
       sodipodi:rx="0.5873729"
       sodipodi:ry="0.53397536"
       d="m 18.689138,38.652729 a 0.5873729,0.53397536 0 1 1 -1.174746,0 0.5873729,0.53397536 0 1 1 1.174746,0 z" />
    <path
       style="fill:#694020;fill-opacity:1;stroke:#1b2a34;stroke-width:0.5;stroke-miterlimit:4;stroke-dasharray:none;display:inline"
       d="m 12.0625,0.15625 c 1.830784,3.0666002 7.428071,5.3125 14.09375,5.3125 6.665679,0 12.294216,-2.2458998 14.125,-5.3125 -0.687855,0.0214364 -1.449605,0.0496527 -2.375,0.03125 l -23.46875,0 C 13.512234,0.2059027 12.750278,0.177686 12.0625,0.15625 z"
       id="path3901"
       inkscape:connector-curvature="0" />
    <path
       inkscape:connector-curvature="0"
       style="fill:#f2f3f2;fill-opacity:1;stroke:#1b2a34;stroke-width:0.40004444;stroke-miterlimit:4;display:inline"
       d="m 15.1875,0.1875 c 1.729377,2.2099235 6.01164,3.78125 11,3.78125 4.98836,0 9.239373,-1.5713265 10.96875,-3.78125 l -21.96875,0 z"
       id="path3903" />
    <path
       style="fill:#f2f3f2;stroke:#1b2a34;stroke-width:0.5;stroke-linecap:butt;stroke-linejoin:miter;stroke-miterlimit:4;stroke-opacity:1;stroke-dasharray:none;display:inline"
       d="m 25.996893,1.4736378 c 1.766321,1.4880617 1.934092,2.206452 1.335634,2.5559169"
       id="path3908"
       inkscape:connector-curvature="0"
       sodipodi:nodetypes="cc" />
    <path
       sodipodi:nodetypes="cc"
       inkscape:connector-curvature="0"
       id="path3910"
       d="m 28.689798,1.162918 c 2.352038,1.9815077 1.869582,2.4946862 0.517866,2.6929052"
       style="fill:none;stroke:#1b2a34;stroke-width:0.375;stroke-linecap:butt;stroke-linejoin:miter;stroke-miterlimit:4;stroke-opacity:1;stroke-dasharray:none;display:inline" />
    <path
       style="fill:#f2f3f2;stroke:#1b2a34;stroke-width:0.375;stroke-linecap:butt;stroke-linejoin:miter;stroke-miterlimit:4;stroke-opacity:1;stroke-dasharray:none;display:inline"
       d="m 31.020197,1.162918 c 1.575238,1.3082814 1.662435,1.9250332 0.310719,2.1232522"
       id="path3912"
       inkscape:connector-curvature="0"
       sodipodi:nodetypes="cc" />
    <path
       sodipodi:nodetypes="cc"
       inkscape:connector-curvature="0"
       id="path3914"
       d="m 33.557742,1.6289978 c 0.262036,0.220756 0.488891,0.424573 0.683283,0.6127594"
       style="fill:#f2f3f2;stroke:#1b2a34;stroke-width:0.375;stroke-linecap:butt;stroke-linejoin:miter;stroke-miterlimit:4;stroke-opacity:1;stroke-dasharray:none;display:inline" />
    <path
       style="fill:#f2f3f2;stroke:#1b2a34;stroke-width:0.375;stroke-linecap:butt;stroke-linejoin:miter;stroke-miterlimit:4;stroke-opacity:1;stroke-dasharray:none;display:inline"
       d="m 23.328932,1.7963109 c 1.465885,1.6372168 1.324759,2.0338143 -0.04111,2.0623746"
       id="path3916"
       inkscape:connector-curvature="0"
       sodipodi:nodetypes="cc" />
    <path
       sodipodi:nodetypes="cc"
       inkscape:connector-curvature="0"
       id="path3918"
       d="m 21.657264,1.642914 c 0.775794,1.6659562 0.05936,2.085542 -1.225876,1.6222902"
       style="fill:#f2f3f2;stroke:#1b2a34;stroke-width:0.375;stroke-linecap:butt;stroke-linejoin:miter;stroke-miterlimit:4;stroke-opacity:1;stroke-dasharray:none;display:inline" />
    <path
       style="fill:#f2f3f2;stroke:#1b2a34;stroke-width:0.5;stroke-linecap:butt;stroke-linejoin:miter;stroke-miterlimit:4;stroke-opacity:1;stroke-dasharray:none;display:inline"
       d="m 19.689372,1.7464873 c 0.154354,0.7855833 0.0076,1.1533825 -1.277663,0.6901307"
       id="path3920"
       inkscape:connector-curvature="0"
       sodipodi:nodetypes="cc" />
    <path
       style="fill:#1b2a34;stroke:none;display:inline"
       d="M 8.1021088,5.9217709 C 8.4017984,6.821031 8.7015916,7.8401873 9.3145611,8.6031468 9.9935727,9.4483085 10.993869,10.0169 11.431743,10.583258 11.869617,11.149616 9.5173289,9.7680744 9.0675684,10.277059 8.6178079,10.786043 10.320472,12.796632 9.4894562,12.414557 8.6584399,12.032482 5.3420956,9.0979789 8.1021088,5.9217709 z"
       id="path3954"
       inkscape:connector-curvature="0"
       sodipodi:nodetypes="cszzzc" />
    <path
       style="fill:#1b2a34;stroke:none;display:inline"
       d="M 41.45394,10.361283 C 42.854574,9.1489619 44.467244,8.1910842 45.172031,6.1437465 46.00064,11.84376 44.611258,10.446202 44.117647,11.915112 44.370952,10.823357 45.001726,9.4485009 44.72808,8.7519596 43.6367,10.097029 42.54532,9.8347969 41.45394,10.361283 z"
       id="path3956"
       inkscape:connector-curvature="0"
       sodipodi:nodetypes="ccccc" />
    <g
       mask="url(#mask3877)"
       id="g3996"
       transform="translate(53.097345,0)">
      <path
         inkscape:connector-curvature="0"
         style="fill:#f2f3f2;fill-opacity:1;stroke:none"
         d="m -0.53125,-1.4375 0,45.1875 53.71875,0 0,-45.1875 -53.71875,0 z"
         id="path3998" />
      <path
         inkscape:connector-curvature="0"
         style="fill:#c4281b;fill-opacity:1;stroke:none"
         d="m -0.53125,-1.4375 0,20.125 c 8.8462381,0.557543 16.929272,1.454406 26.71875,1.625 l 0,23.4375 27,0 0,-24.40625 c -9.111149,0.375656 -17.276415,1.054735 -27,0.78125 l 0,-21.5625 -26.71875,0 z"
         id="path4000" />
    </g>
    <path
       sodipodi:nodetypes="csscscc"
       inkscape:connector-curvature="0"
       id="path4049"
       d="m 53.496852,42.103791 c 3.075556,-1.116101 4.780215,-1.820502 4.770536,-5.215311 -0.0086,-3.024052 -1.506977,-3.659039 -1.346021,-4.440627 0.110292,-0.535571 1.094871,-2.295754 1.720311,-3.385128 -0.892062,0.39105 -1.784123,1.114832 -2.676184,2.157081 -0.236314,0.276101 0.604684,-6.713155 -0.708944,0.895084 -0.787917,5.657416 -1.256331,6.71226 -1.759698,9.988901 z"
       style="fill:#1b2a34;stroke:none;display:inline" />
    <path
       sodipodi:nodetypes="cssscc"
       inkscape:connector-curvature="0"
       id="path4051"
       d="m 104.96736,42.103791 c -5.556457,-1.949092 -4.81485,-4.797284 -4.27633,-9.280791 0.14518,-1.208744 -0.47802,-3.16323 -0.13196,-4.263837 0.22757,-0.723724 0.9877,2.569636 1.25327,1.768841 0.31447,-0.948294 -0.0361,-3.563389 0.32483,-4.539418 0.84993,5.671825 2.09138,12.419294 2.83019,16.315205 z"
       style="fill:#1b2a34;stroke:none;display:inline" />
    <path
       sodipodi:nodetypes="ccccc"
       inkscape:connector-curvature="0"
       id="path4006"
       d="m 103.67219,35.105117 c -13.5118,3.044857 -32.036859,2.138573 -49.128079,1.100697 l -0.623599,3.507229 c 17.080686,1.037237 36.216898,2.28023 50.558098,-0.951534 z"
       style="font-size:medium;font-style:normal;font-variant:normal;font-weight:normal;font-stretch:normal;text-indent:0;text-align:start;text-decoration:none;line-height:normal;letter-spacing:normal;word-spacing:normal;text-transform:none;direction:ltr;block-progression:tb;writing-mode:lr-tb;text-anchor:start;baseline-shift:baseline;color:#000000;fill:#624732;fill-opacity:1;stroke:#1b2a34;stroke-width:0.375;stroke-miterlimit:4;stroke-dasharray:none;marker:none;visibility:visible;display:inline;overflow:visible;enable-background:accumulate;font-family:Sans;-inkscape-font-specification:Sans" />
    <path
       inkscape:connector-curvature="0"
       id="path4020"
       d="m 65.159845,0.15625 c 1.830784,3.0666002 7.428071,5.3125 14.09375,5.3125 6.665679,0 12.294216,-2.2458998 14.125,-5.3125 -0.687855,0.0214364 -1.449605,0.0496527 -2.375,0.03125 l -23.46875,0 c -0.925266,0.0184027 -1.687222,-0.009814 -2.375,-0.03125 z"
       style="fill:#694020;fill-opacity:1;stroke:#1b2a34;stroke-width:0.5;stroke-miterlimit:4;stroke-dasharray:none;display:inline" />
    <path
       id="path4022"
       d="m 68.284845,0.1875 c 1.729377,2.2099235 6.01164,3.78125 11,3.78125 4.98836,0 9.239373,-1.5713265 10.96875,-3.78125 l -21.96875,0 z"
       style="fill:#f2f3f2;fill-opacity:1;stroke:#1b2a34;stroke-width:0.40004444;stroke-miterlimit:4;display:inline"
       inkscape:connector-curvature="0" />
    <path
       sodipodi:nodetypes="cc"
       inkscape:connector-curvature="0"
       id="path4024"
       d="m 79.094238,1.4736378 c 1.766321,1.4880617 1.934092,2.206452 1.335634,2.5559169"
       style="fill:#f2f3f2;stroke:#1b2a34;stroke-width:0.5;stroke-linecap:butt;stroke-linejoin:miter;stroke-miterlimit:4;stroke-opacity:1;stroke-dasharray:none;display:inline" />
    <path
       style="fill:none;stroke:#1b2a34;stroke-width:0.375;stroke-linecap:butt;stroke-linejoin:miter;stroke-miterlimit:4;stroke-opacity:1;stroke-dasharray:none;display:inline"
       d="m 81.787143,1.162918 c 2.352038,1.9815077 1.869582,2.4946862 0.517866,2.6929052"
       id="path4026"
       inkscape:connector-curvature="0"
       sodipodi:nodetypes="cc" />
    <path
       sodipodi:nodetypes="cc"
       inkscape:connector-curvature="0"
       id="path4028"
       d="m 84.117542,1.162918 c 1.575238,1.3082814 1.662435,1.9250332 0.310719,2.1232522"
       style="fill:#f2f3f2;stroke:#1b2a34;stroke-width:0.375;stroke-linecap:butt;stroke-linejoin:miter;stroke-miterlimit:4;stroke-opacity:1;stroke-dasharray:none;display:inline" />
    <path
       style="fill:#f2f3f2;stroke:#1b2a34;stroke-width:0.375;stroke-linecap:butt;stroke-linejoin:miter;stroke-miterlimit:4;stroke-opacity:1;stroke-dasharray:none;display:inline"
       d="m 86.655087,1.6289978 c 0.262036,0.220756 0.488891,0.424573 0.683283,0.6127594"
       id="path4030"
       inkscape:connector-curvature="0"
       sodipodi:nodetypes="cc" />
    <path
       sodipodi:nodetypes="cc"
       inkscape:connector-curvature="0"
       id="path4032"
       d="m 76.426277,1.7963109 c 1.465885,1.6372168 1.324759,2.0338143 -0.04111,2.0623746"
       style="fill:#f2f3f2;stroke:#1b2a34;stroke-width:0.375;stroke-linecap:butt;stroke-linejoin:miter;stroke-miterlimit:4;stroke-opacity:1;stroke-dasharray:none;display:inline" />
    <path
       style="fill:#f2f3f2;stroke:#1b2a34;stroke-width:0.375;stroke-linecap:butt;stroke-linejoin:miter;stroke-miterlimit:4;stroke-opacity:1;stroke-dasharray:none;display:inline"
       d="m 74.754609,1.642914 c 0.775794,1.6659562 0.05936,2.085542 -1.225876,1.6222902"
       id="path4034"
       inkscape:connector-curvature="0"
       sodipodi:nodetypes="cc" />
    <path
       sodipodi:nodetypes="cc"
       inkscape:connector-curvature="0"
       id="path4036"
       d="m 72.786717,1.7464873 c 0.154354,0.7855833 0.0076,1.1533825 -1.277663,0.6901307"
       style="fill:#f2f3f2;stroke:#1b2a34;stroke-width:0.5;stroke-linecap:butt;stroke-linejoin:miter;stroke-miterlimit:4;stroke-opacity:1;stroke-dasharray:none;display:inline" />
    <path
       sodipodi:nodetypes="cszzzc"
       inkscape:connector-curvature="0"
       id="path4038"
       d="m 61.199454,5.9217709 c 0.29969,0.8992601 0.599483,1.9184164 1.212452,2.6813759 0.679012,0.8451617 1.679308,1.4137532 2.117182,1.9801112 0.437874,0.566358 -1.914414,-0.8151836 -2.364174,-0.306199 -0.449761,0.508984 1.252903,2.519573 0.421887,2.137498 -0.831016,-0.382075 -4.14736,-3.3165781 -1.387347,-6.4927861 z"
       style="fill:#1b2a34;stroke:none;display:inline" />
    <path
       sodipodi:nodetypes="ccccc"
       inkscape:connector-curvature="0"
       id="path4040"
       d="m 94.551285,10.361283 c 1.400634,-1.2123211 3.013304,-2.1701988 3.718091,-4.2175365 0.828609,5.7000135 -0.560773,4.3024555 -1.054384,5.7713655 0.253305,-1.091755 0.884079,-2.4666111 0.610433,-3.1631524 -1.09138,1.3450694 -2.18276,1.0828373 -3.27414,1.6093234 z"
       style="fill:#1b2a34;stroke:none;display:inline" />
    <g
       transform="matrix(0.06387115,0,0,0.06387115,-1.0398842,9.353387)"
       style="display:inline"
       inkscape:label="outline"
       id="layer2-9">
      <path
         inkscape:connector-curvature="0"
         id="path3010"
         transform="translate(-16.574431,-8.0033426)"
         d="m 472.71875,0 c -2.01776,0.0541155 -3.79441,0.25796825 -5.25,0.59375 -2.65446,0.612345 -7.2672,1.09375 -10.25,1.09375 -7.22306,0 -22.1697,2.651167 -31.4375,5.5625 -11.82833,3.715685 -16.71343,4.52608 -26.96875,4.5625 -6.80898,0.02418 -10.83752,-0.459636 -13.90625,-1.6875 C 381.3699,8.710036 378.69541,8.514663 370.125,9 c -8.90323,0.504185 -11.49652,1.071684 -17.375,3.78125 -3.79969,1.751389 -7.67189,4.040567 -8.625,5.09375 -0.95312,1.053183 -4.32175,3.291414 -7.46875,4.96875 -4.13028,2.201418 -7.87826,5.550389 -13.53125,12.09375 -4.30721,4.985609 -10.11531,11.582163 -12.90625,14.65625 -5.7006,6.27894 -13.8106,18.29974 -14.90625,22.09375 -0.39707,1.375 -1.81456,4.13911 -3.15625,6.125 -2.05083,3.03552 -2.41895,4.64012 -2.21875,10.0625 0.19168,5.1917 -0.18267,7.14131 -1.96875,10.03125 -1.26174,2.041537 -2.28173,3.27543 -3.53125,3.875 -0.003,0.005 -0.0279,-0.005 -0.0312,0 -11.74112,17.65035 -34.21617,60.28682 8.25,112 8.24424,4.69156 17.89749,14.99445 19.28125,21.1875 1.31776,5.89764 3.39439,8.71875 6.40625,8.71875 1.38775,0 5.955,-1.59555 10.15625,-3.5625 6.29621,-2.94779 8.06048,-3.40072 9.96875,-2.53125 3.88851,1.77172 3.09086,6.35329 -2.0625,11.90625 -2.40262,2.58894 -5.09172,6.09165 -5.96875,7.8125 -0.87703,1.72085 -2.21324,3.38559 -3,3.6875 -0.78677,0.30191 -2.8847,3.6255 -4.65625,7.375 -4.11555,8.71058 -4.16042,13.27498 -0.1875,18.21875 1.6078,2.00069 3.87904,5.52397 5.0625,7.84375 3.47224,6.80614 18.40453,17.2209 24.75,17.25 3.35702,0.0154 4.05679,-1.86816 4.21875,-11.40625 0.10225,-6.0214 0.64562,-9.67634 1.65625,-11.21875 1.78158,-2.71905 8.27878,-4.87919 11.90625,-3.96875 5.42533,1.36167 7.46927,14.85901 3.5625,23.46875 -2.44498,5.38826 -2.48199,8.80101 -0.1875,13.78125 2.83466,6.1527 10.06638,14.0111 15.65625,17.03125 18.4247,9.95469 19.23612,10.78906 21.125,21.3125 0.83913,4.675 1.92878,9.625 2.40625,11 0.47747,1.375 1.13941,3.74086 1.46875,5.25 0.88723,4.06554 5.75464,5.80492 13.21875,4.71875 10.24548,-1.49092 17.54608,-3.00447 19.40625,-4 0.99253,-0.53119 5.65638,-0.96875 10.375,-0.96875 4.71862,0 9.35746,-0.41114 10.3125,-0.90625 0.95504,-0.49511 4.675,-2.05723 8.25,-3.5 3.575,-1.44277 9.875,-4.88405 14,-7.625 4.125,-2.74094 8.92967,-5.88545 10.65625,-7 6.57813,-4.24638 11.87104,-14.83351 12.78125,-25.5625 0.67889,-8.00234 0.63709,-8.22209 -3.375,-16.90625 -2.23623,-4.84031 -6.11618,-11.27177 -8.59375,-14.28125 -7.24813,-8.80424 -7.35975,-12.82354 -0.46875,-15.21875 5.2007,-1.80768 6.9786,-4.5419 7,-10.8125 0.0192,-5.61752 1.39053,-8.02503 5.59375,-9.78125 3.23731,-1.35263 6.03789,-1.20168 10.125,0.65625 11.57771,1.64291 22.53642,-3.51247 33.34375,-10.34375 1.81781,-1.53458 4.20703,-3.23929 7.1875,-5.125 3.16291,-2.00114 7.21291,-4.91218 9,-6.46875 1.78709,-1.55657 4.6,-3.55031 6.25,-4.40625 7.87703,-4.08621 14.09738,-13.84569 19.53125,-30.65625 3.27068,-10.11839 3.4529,-10.40955 9.40625,-15.15625 12.33811,-9.83738 26.5625,-27.7738 26.5625,-33.5 0,-0.93696 1.575,-4.52653 3.5,-7.96875 1.925,-3.44223 3.505,-7.08312 3.5,-8.09375 -0.022,-4.14351 -5.24904,-12.23596 -12.8125,-19.84375 -16.2739,-16.36928 -21.83829,-21.39016 -27.6875,-25.0625 -3.3,-2.07185 -7.575,-5.0318 -9.5,-6.5625 -3.9839,-3.16787 -17.46477,-9.62421 -22,-10.53125 -3.77754,-0.75551 -8.96733,-6.51167 -9.125,-10.125 -0.2007,-4.59918 0.14276,-5.5282 4.28125,-11.71875 3.83978,-5.74371 3.98774,-6.27765 3.59375,-12.5 -0.68191,-10.769385 -10.69273,-29 -15.9375,-29 -1.09763,0 -4.65097,1.635013 -7.875,3.625 -7.18987,4.437835 -8.31522,4.237998 -16.9375,-3.15625 -3.575,-3.065829 -8.975,-7.074246 -12,-8.90625 C 506.85694,4.845247 487.36021,0.24482 474.8125,0 c -0.72391,-0.01412425 -1.42116,-0.0180385 -2.09375,0 z M 485,19.125 c 0.66715,-0.02675 1.3467,-0.01778 2.03125,0 9.58367,0.248941 20.53132,4.510489 26,10.40625 10.84328,11.690107 19.42461,18.69411 24.59375,20.09375 2.65096,0.71779 2.66034,0.74129 -1.03125,1.96875 -4.99437,1.66064 -5.59368,4.0886 -2.3125,9.6875 1.46342,2.49714 3.73858,7.73249 5.0625,11.625 4.58226,13.47239 12.31785,22.39281 23.0625,26.625 3.23346,1.27362 8.6223,3.42606 11.96875,4.78125 6.73628,2.72794 26.78444,17.28429 32.71875,23.75 5.31496,5.79089 9.6875,12.18479 9.6875,14.15625 0,0.916 -0.91967,2.93893 -2.03125,4.5 -1.11157,1.56106 -2.6309,4.64617 -3.40625,6.84375 -1.95681,5.54618 -4.50246,9.128 -6.4375,9.125 -0.92469,-0.002 -2.7111,-2.03171 -4.125,-4.6875 -1.7182,-3.22737 -4.58729,-6.20398 -9.1875,-9.53125 -7.2699,-5.25821 -11.89658,-6.83473 -26.3125,-8.84375 -7.86398,-1.09594 -9.65267,-1.05764 -14,0.34375 -2.74127,0.88367 -7.66492,2.08205 -10.90625,2.65625 -7.95364,1.40898 -10.66721,3.38068 -16,11.5 -4.13732,6.29919 -6.6116,12.46422 -8.21875,20.5 -1.50276,7.51377 3.55834,22.85395 11.28125,34.1875 6.31627,9.26927 12.08408,14.08182 20.40625,17 4.20387,1.47409 7.4375,3.19008 7.4375,3.9375 0,0.72863 -2.475,2.80545 -5.5,4.625 -6.99626,4.20828 -12.0821,4.46584 -14.6875,0.75 -6.87292,-9.80223 -9.22347,-10.5515 -15.4375,-4.9375 -4.27841,3.86529 -7.99442,4.48753 -10.4375,1.75 -3.11222,-3.4873 -11.43701,-16.74327 -11.4375,-18.21875 -8e-4,-2.3728 -3.91621,-12.11679 -6.125,-15.21875 -4.11162,-5.77425 -6.41728,-3.20154 -8.40625,9.34375 -0.81623,5.1483 -2.23632,10.71769 -3.125,12.40625 -2.19798,4.17637 -7.46588,7.68605 -11,7.28125 -2.49945,-0.28628 -2.81906,-0.6907 -2.5625,-3.40625 0.21765,-2.30374 -0.8634,-4.77522 -4.3125,-9.8125 -2.9715,-4.33976 -4.9831,-8.64899 -5.71875,-12.15625 -1.05087,-5.01005 -0.96835,-5.65937 1.0625,-8.40625 1.2113,-1.63837 2.1875,-3.8882 2.1875,-5 0,-2.0222 -0.55238,-2.28529 -7.6875,-3.46875 -7.44699,-1.2352 -9.94323,-3.09256 -13.34375,-10 -2.90121,-5.89318 -3.17597,-7.23809 -2.6875,-12.625 0.30087,-3.31815 1.31469,-7.19752 2.25,-8.625 1.28676,-1.96384 1.67765,-4.77732 1.65625,-11.53125 -0.0272,-8.59149 0.0821,-9.06993 3.09375,-12.5 1.82574,-2.07941 6.07108,-4.87409 10.1875,-6.75 9.20001,-4.19258 10.53125,-5.60794 10.53125,-11.1875 0,-5.57457 -1.00779,-7.62685 -6.8125,-13.625 -7.30504,-7.54847 -11.91479,-6.04785 -10.78125,3.5 0.34331,2.89166 0.27185,5.78441 -0.15625,6.4375 -0.85724,1.30775 -5.56935,3.3125 -7.78125,3.3125 -1.99098,0 -9.01775,-15.2956 -10.375,-22.59375 -1.33352,-7.17059 -0.89857,-8.86011 2.71875,-10.25 13.6452,-5.24294 31.10136,-1.23995 43.96875,10.09375 3.59045,3.1625 7.13159,5.75 7.875,5.75 3.2656,0 1.00193,-4.54377 -5.40625,-10.875 -5.57778,-5.5108 -7.87881,-7.02343 -13.25,-8.78125 -15.18686,-4.97015 -28.25862,-5.01322 -38.6875,-0.125 -6.12814,2.87238 -6.3047,3.25124 -5.1875,12.25 0.9779,7.87672 4.77871,18.22462 9.375,25.53125 1.21093,1.925 2.49562,5.18041 2.875,7.21875 0.62082,3.33561 0.30783,4.10986 -3.09375,7.875 -2.07865,2.30083 -5.80202,5.06236 -8.28125,6.125 -5.93048,2.54191 -7.76051,4.29273 -10.625,10.21875 -2.4522,5.0731 -2.838,7.24615 -1.78125,10 1.01802,2.65291 3.69355,1.76676 7.59375,-2.5 3.27507,-3.58287 4.14332,-4.02664 7.5,-3.75 l 3.8125,0.3125 -0.21875,4.5 c -0.1282,2.475 -0.51447,7.26427 -0.84375,10.625 -0.51702,5.2769 -0.22676,7.00124 2.21875,12.75 1.72478,4.05453 5.20678,9.3412 8.875,13.53125 5.63817,6.44025 6.32964,7.81257 10.78125,21.25 2.61529,7.89443 4.73395,15.33595 4.71875,16.53125 -0.0152,1.19531 -1.17683,3.53483 -2.59375,5.21875 -1.41693,1.68392 -2.43614,3.84591 -2.25,4.8125 1.11425,5.7858 19.84399,5.98391 27.09375,0.28125 1.41235,-1.11096 4.06692,-2 5.96875,-2 6.31587,0 10.11004,6.88549 11.34375,20.5 0.60314,6.65589 0.49218,7.53568 -1.125,8.15625 -1.33399,0.5119 -2.66443,-0.26689 -5,-2.96875 -1.80585,-2.08905 -4.10198,-3.6875 -5.3125,-3.6875 -3.40128,0 -7.48877,7.14683 -8.25,14.40625 -0.5501,5.24597 -0.24777,7.01127 2.0625,12.59375 2.64529,6.39204 4.59404,9.62085 15.5625,25.46875 8.26915,11.94777 10.27614,20.56206 6.5,27.96875 -3.92591,7.70044 -9.4765,13.115 -15.9375,15.53125 -3.37612,1.26258 -7.06853,2.00756 -8.34375,1.6875 -2.82053,-0.70791 -9.38639,-13.44894 -10.8125,-20.96875 -2.05885,-10.85631 -6.34138,-15.21695 -10.46875,-10.65625 -2.28316,2.52286 -4.51887,17.68844 -3.75,25.46875 0.75038,7.59323 -1.00973,12.56301 -5.46875,15.4375 -4.45467,2.87168 -12.26602,3.95949 -13.9375,1.9375 -0.61694,-0.74632 -1.44454,-3.175 -1.84375,-5.375 -1.88403,-10.38264 -10.66917,-21.91511 -20.15625,-26.5 -3.40284,-1.64452 -6.46615,-3 -6.8125,-3 -1.53146,0 -7.66668,-5.50694 -9.59375,-8.625 -1.90565,-3.0834 -2.04017,-4.30794 -1.40625,-12.15625 0.3873,-4.79493 0.7621,-12.34616 0.8125,-16.78125 0.0909,-8.00267 0.032,-8.12612 -4.875,-15.90625 -6.12885,-9.71734 -9.14617,-11.8456 -15.8125,-11.125 -2.68207,0.28991 -5.83207,1.24223 -7,2.09375 -13.50127,9.84356 -15.20112,11.3446 -16.21875,14.4375 -0.59915,1.82101 -1.92037,3.77454 -2.9375,4.34375 -1.51774,0.84937 -2.34434,0.46949 -4.5625,-2.1875 -3.39716,-4.06925 -4.28756,-8.40697 -2.5,-11.90625 0.75278,-1.47363 1.67493,-4.16927 2.0625,-5.96875 0.52868,-2.45462 1.54764,-3.60547 4.0625,-4.65625 1.84364,-0.77032 4.38372,-2.95795 5.65625,-4.84375 1.27254,-1.8858 4.01833,-5.86594 6.09375,-8.875 5.82857,-8.45066 6.25017,-13.79563 2.6875,-33.71875 -0.97232,-5.43737 -7.34915,-20.19362 -13.4375,-31.125 -2.00389,-3.59791 -5.95081,-3.80343 -8.15625,-0.4375 -1.59947,2.44109 -1.63338,3.37371 -0.40625,10.8125 2.37221,14.38017 2.3882,19.59886 0.125,24.875 -2.79055,6.50555 -5.59992,7.7362 -10.96875,4.71875 -2.28071,-1.28184 -5.57646,-4.52235 -7.5,-7.375 -1.88518,-2.79575 -6.42869,-8.24375 -10.09375,-12.09375 -9.15549,-9.61747 -9.99605,-10.93246 -14.59375,-22.53125 -4.68824,-11.82722 -5.68946,-19.2191 -4.03125,-29.96875 1.73565,-11.25174 5.40393,-17.61251 12.9375,-22.5 7.23839,-4.696 8.16815,-6.88512 5.34375,-12.59375 -1.88614,-3.81221 -1.94192,-4.42707 -0.59375,-8.75 3.27012,-10.485683 4.54538,-15.9956 5.125,-22.53125 0.6353,-7.16357 1.13108,-8.19157 11.03125,-22.59375 8.4811,-12.33781 17.06595,-19.577878 32.125,-27.0625 13.97697,-6.946808 16.19057,-7.350655 40.125,-7.46875 18.20812,-0.08984 23.0246,-0.454176 31.375,-2.3125 5.61196,-1.248904 13.28457,-2.1875 17.8125,-2.1875 6.98238,0 8.88254,0.428108 15.53125,3.5 10.59517,4.89527 14.28125,4.476598 14.28125,-1.625 0,-4.04235 3.83092,-6.512375 11.25,-7.28125 0.64685,-0.06704 1.3016,-0.129501 1.96875,-0.15625 z m 30.8125,71.65625 c -0.28867,0.01127 -0.50811,0.03936 -0.59375,0.125 -1.35398,1.35398 1.10013,5.47212 6.25,10.5 4.83219,4.71773 5.87062,5.28125 9.71875,5.28125 6.41727,0 10.7783,-1.7794 10.40625,-4.25 -0.33049,-2.1947 -8.63764,-7.38594 -14.09375,-8.8125 -1.77326,-0.46364 -5.11733,-1.40952 -7.4375,-2.09375 -1.74012,-0.513172 -3.384,-0.783817 -4.25,-0.75 z m 38.4375,70.375 c 0.20967,-0.0106 0.43614,-0.012 0.65625,0 1.05653,0.0577 2.29652,0.35527 4.1875,0.875 13.64253,3.74958 15.70405,4.44391 18.03125,5.96875 3.07233,2.01306 6.66132,11.14867 7.375,18.75 0.48989,5.2178 0.32612,5.73639 -2.65625,8.71875 -1.7454,1.74541 -5.06638,3.68522 -7.375,4.3125 -2.30861,0.62728 -5.89512,1.7701 -7.96875,2.53125 -10.51638,3.86014 -17.26414,0.71583 -22.96875,-10.65625 -6.471,-12.89988 -4.57561,-23.23876 5.1875,-28.34375 2.75327,-1.43965 4.06357,-2.08199 5.53125,-2.15625 z"
         style="fill:#1b2a34" />
      <path
         inkscape:connector-curvature="0"
         id="path3023"
         transform="translate(-16.574431,-8.0033426)"
         d="m 484.96875,19.125 c -0.66715,0.02675 -1.3219,0.08921 -1.96875,0.15625 -7.41908,0.768875 -11.25,3.2389 -11.25,7.28125 0,6.101598 -3.68608,6.52027 -14.28125,1.625 -6.64871,-3.071892 -8.54887,-3.5 -15.53125,-3.5 -4.52793,0 -12.20054,0.938596 -17.8125,2.1875 -8.3504,1.858324 -13.16688,2.22266 -31.375,2.3125 -23.93443,0.118095 -26.14803,0.521942 -40.125,7.46875 -15.05905,7.484622 -23.6439,14.72469 -32.125,27.0625 -9.90017,14.40218 -10.39595,15.43018 -11.03125,22.59375 -0.57962,6.53565 -1.85488,12.045567 -5.125,22.53125 -1.34817,4.32293 -1.29239,4.93779 0.59375,8.75 2.8244,5.70863 1.89464,7.89775 -5.34375,12.59375 -7.53357,4.88749 -11.20185,11.24826 -12.9375,22.5 -1.65821,10.74965 -0.65699,18.14153 4.03125,29.96875 4.5977,11.59879 5.43826,12.91378 14.59375,22.53125 3.66506,3.85 8.20857,9.298 10.09375,12.09375 1.92354,2.85265 5.21929,6.09316 7.5,7.375 5.36883,3.01745 8.1782,1.7868 10.96875,-4.71875 2.2632,-5.27614 2.24721,-10.49483 -0.125,-24.875 -1.22713,-7.43879 -1.19322,-8.37141 0.40625,-10.8125 2.20544,-3.36593 6.15236,-3.16041 8.15625,0.4375 6.08835,10.93138 12.46518,25.68763 13.4375,31.125 3.56267,19.92312 3.14107,25.26809 -2.6875,33.71875 -2.07542,3.00906 -4.82121,6.9892 -6.09375,8.875 -1.27253,1.8858 -3.81261,4.07343 -5.65625,4.84375 -2.51486,1.05078 -3.53382,2.20163 -4.0625,4.65625 -0.38757,1.79948 -1.30972,4.49512 -2.0625,5.96875 -1.78756,3.49928 -0.89716,7.837 2.5,11.90625 2.21816,2.65699 3.04476,3.03687 4.5625,2.1875 1.01713,-0.56921 2.33835,-2.52274 2.9375,-4.34375 1.01763,-3.0929 2.71748,-4.59394 16.21875,-14.4375 1.16793,-0.85152 4.31793,-1.80384 7,-2.09375 6.66633,-0.7206 9.68365,1.40766 15.8125,11.125 4.907,7.78013 4.9659,7.90358 4.875,15.90625 -0.0504,4.43509 -0.4252,11.98632 -0.8125,16.78125 -0.63392,7.84831 -0.4994,9.07285 1.40625,12.15625 1.92707,3.11806 8.06229,8.625 9.59375,8.625 0.34635,0 3.40966,1.35548 6.8125,3 9.48708,4.58489 18.27222,16.11736 20.15625,26.5 0.39921,2.2 1.22681,4.62868 1.84375,5.375 1.67148,2.02199 9.48283,0.93418 13.9375,-1.9375 4.45902,-2.87449 6.21913,-7.84427 5.46875,-15.4375 -0.76887,-7.78031 1.46684,-22.94589 3.75,-25.46875 4.12737,-4.5607 8.4099,-0.20006 10.46875,10.65625 1.42611,7.51981 7.99197,20.26084 10.8125,20.96875 1.27522,0.32006 4.96763,-0.42492 8.34375,-1.6875 6.461,-2.41625 12.01159,-7.83081 15.9375,-15.53125 3.77614,-7.40669 1.76915,-16.02098 -6.5,-27.96875 -10.96846,-15.8479 -12.91721,-19.07671 -15.5625,-25.46875 -2.31027,-5.58248 -2.6126,-7.34778 -2.0625,-12.59375 0.76123,-7.25942 4.84872,-14.40625 8.25,-14.40625 1.21052,0 3.50665,1.59845 5.3125,3.6875 2.33557,2.70186 3.66601,3.48065 5,2.96875 1.61718,-0.62057 1.72814,-1.50036 1.125,-8.15625 -1.23371,-13.61451 -5.02788,-20.5 -11.34375,-20.5 -1.90183,0 -4.5564,0.88904 -5.96875,2 -7.24976,5.70266 -25.9795,5.50455 -27.09375,-0.28125 -0.18614,-0.96659 0.83307,-3.12858 2.25,-4.8125 1.41692,-1.68392 2.57855,-4.02344 2.59375,-5.21875 0.0152,-1.1953 -2.10346,-8.63682 -4.71875,-16.53125 -4.45161,-13.43743 -5.14308,-14.80975 -10.78125,-21.25 -3.66822,-4.19005 -7.15022,-9.47672 -8.875,-13.53125 -2.44551,-5.74876 -2.73577,-7.4731 -2.21875,-12.75 0.32928,-3.36073 0.71555,-8.15 0.84375,-10.625 l 0.21875,-4.5 -3.8125,-0.3125 c -3.35668,-0.27664 -4.22493,0.16713 -7.5,3.75 -3.9002,4.26676 -6.57573,5.15291 -7.59375,2.5 -1.05675,-2.75385 -0.67095,-4.9269 1.78125,-10 2.86449,-5.92602 4.69452,-7.67684 10.625,-10.21875 2.47923,-1.06264 6.2026,-3.82417 8.28125,-6.125 3.40158,-3.76514 3.71457,-4.53939 3.09375,-7.875 -0.37938,-2.03834 -1.66407,-5.29375 -2.875,-7.21875 -4.59629,-7.30663 -8.3971,-17.65453 -9.375,-25.53125 -1.1172,-8.99876 -0.94064,-9.37762 5.1875,-12.25 10.42888,-4.88822 23.50064,-4.84515 38.6875,0.125 5.37119,1.75782 7.67222,3.27045 13.25,8.78125 6.40818,6.33123 8.67185,10.875 5.40625,10.875 -0.74341,0 -4.28455,-2.5875 -7.875,-5.75 C 461.66386,77.6038 444.2077,73.60081 430.5625,78.84375 c -3.61732,1.38989 -4.05227,3.07941 -2.71875,10.25 1.35725,7.29815 8.38402,22.59375 10.375,22.59375 2.2119,0 6.92401,-2.00475 7.78125,-3.3125 0.4281,-0.65309 0.49956,-3.54584 0.15625,-6.4375 -1.13354,-9.54785 3.47621,-11.04847 10.78125,-3.5 5.80471,5.99815 6.8125,8.05043 6.8125,13.625 0,5.57956 -1.33124,6.99492 -10.53125,11.1875 -4.11642,1.87591 -8.36176,4.67059 -10.1875,6.75 -3.01165,3.43007 -3.12095,3.90851 -3.09375,12.5 0.0214,6.75393 -0.36949,9.56741 -1.65625,11.53125 -0.93531,1.42748 -1.94913,5.30685 -2.25,8.625 -0.48847,5.38691 -0.21371,6.73182 2.6875,12.625 3.40052,6.90744 5.89676,8.7648 13.34375,10 7.13512,1.18346 7.6875,1.44655 7.6875,3.46875 0,1.1118 -0.9762,3.36163 -2.1875,5 -2.03085,2.74688 -2.11337,3.3962 -1.0625,8.40625 0.73565,3.50726 2.74725,7.81649 5.71875,12.15625 3.4491,5.03728 4.53015,7.50876 4.3125,9.8125 -0.25656,2.71555 0.063,3.11997 2.5625,3.40625 3.53412,0.4048 8.80202,-3.10488 11,-7.28125 0.88868,-1.68856 2.30877,-7.25795 3.125,-12.40625 1.98897,-12.54529 4.29463,-15.118 8.40625,-9.34375 2.20879,3.10196 6.1242,12.84595 6.125,15.21875 4.9e-4,1.47548 8.32528,14.73145 11.4375,18.21875 2.44308,2.73753 6.15909,2.11529 10.4375,-1.75 6.21403,-5.614 8.56458,-4.86473 15.4375,4.9375 2.6054,3.71584 7.69124,3.45828 14.6875,-0.75 3.025,-1.81955 5.5,-3.89637 5.5,-4.625 0,-0.74742 -3.23363,-2.46341 -7.4375,-3.9375 -8.32217,-2.91818 -14.08998,-7.73073 -20.40625,-17 -7.72291,-11.33355 -12.78401,-26.67373 -11.28125,-34.1875 1.60715,-8.03578 4.08143,-14.20081 8.21875,-20.5 5.33279,-8.11932 8.04636,-10.09102 16,-11.5 3.24133,-0.5742 8.16498,-1.77258 10.90625,-2.65625 4.34733,-1.40139 6.13602,-1.43969 14,-0.34375 14.41592,2.00902 19.0426,3.58554 26.3125,8.84375 4.60021,3.32727 7.4693,6.30388 9.1875,9.53125 1.4139,2.65579 3.20031,4.6855 4.125,4.6875 1.93504,0.003 4.48069,-3.57882 6.4375,-9.125 0.77535,-2.19758 2.29468,-5.28269 3.40625,-6.84375 1.11158,-1.56107 2.03125,-3.584 2.03125,-4.5 0,-1.97146 -4.37254,-8.36536 -9.6875,-14.15625 -5.93431,-6.46571 -25.98247,-21.02206 -32.71875,-23.75 -3.34645,-1.35519 -8.73529,-3.50763 -11.96875,-4.78125 -10.74465,-4.23219 -18.48024,-13.15261 -23.0625,-26.625 -1.32392,-3.89251 -3.59908,-9.12786 -5.0625,-11.625 -3.28118,-5.5989 -2.68187,-8.02686 2.3125,-9.6875 3.69159,-1.22746 3.68221,-1.25096 1.03125,-1.96875 C 532.42461,48.22536 523.84328,41.221357 513,29.53125 507.53132,23.635489 496.58367,19.373941 487,19.125 c -0.68455,-0.01778 -1.3641,-0.02675 -2.03125,0 z m 30.8125,71.65625 c 0.866,-0.03382 2.50988,0.236828 4.25,0.75 2.32017,0.68423 5.66424,1.63011 7.4375,2.09375 5.45611,1.42656 13.76326,6.6178 14.09375,8.8125 0.37205,2.4706 -3.98898,4.25 -10.40625,4.25 -3.84813,0 -4.88656,-0.56352 -9.71875,-5.28125 -5.14987,-5.02788 -7.60398,-9.14602 -6.25,-10.5 0.0856,-0.08564 0.30508,-0.11373 0.59375,-0.125 z M 292.6875,213.8125 c 0.079,0.0962 0.17099,0.1849 0.25,0.28125 l 0.21875,0 c -0.15522,-0.0921 -0.31443,-0.19297 -0.46875,-0.28125 z"
         style="fill:#e29b3f;stroke:#000000;stroke-width:1px;stroke-linecap:butt;stroke-linejoin:miter;stroke-opacity:1" />
    </g>
    <path
       transform="translate(-309.78125,-326.66133)"
       id="path4124"
       style="fill:none;stroke:#231f20;stroke-width:0.3125;stroke-linecap:butt;stroke-linejoin:miter;stroke-miterlimit:4;stroke-opacity:1;stroke-dasharray:none;display:inline"
       d="m 309.96625,369.71717 c 8.7325,-47.29375 5.3425,-42.67874 14.2675,-42.85625 l 23.44,0 c 8.92625,0.17751 5.535,-4.4375 14.265,42.85625 l -51.9725,0 z"
       inkscape:connector-curvature="0" />
    <path
       transform="translate(-309.78125,-326.66133)"
       inkscape:connector-curvature="0"
       d="m 363.0636,369.71717 c 8.7325,-47.29375 5.3425,-42.67874 14.2675,-42.85625 l 23.44,0 c 8.92625,0.17751 5.535,-4.4375 14.265,42.85625 l -51.9725,0 z"
       style="fill:none;stroke:#231f20;stroke-width:0.3125;stroke-linecap:butt;stroke-linejoin:miter;stroke-miterlimit:4;stroke-opacity:1;stroke-dasharray:none;display:inline"
       id="path4042" />
  </g>
  <g
     inkscape:label="template"
     inkscape:groupmode="layer"
     id="layer1"
     transform="translate(-309.78125,-326.66133)"
     style="display:inline" />
</svg>
