<?xml version="1.0" encoding="UTF-8" standalone="no"?>
<!-- Generator: Adobe Illustrator 15.1.0, SVG Export Plug-In . SVG Version: 6.00 Build 0)  -->

<svg
   xmlns:dc="http://purl.org/dc/elements/1.1/"
   xmlns:cc="http://creativecommons.org/ns#"
   xmlns:rdf="http://www.w3.org/1999/02/22-rdf-syntax-ns#"
   xmlns:svg="http://www.w3.org/2000/svg"
   xmlns="http://www.w3.org/2000/svg"
   xmlns:sodipodi="http://sodipodi.sourceforge.net/DTD/sodipodi-0.dtd"
   xmlns:inkscape="http://www.inkscape.org/namespaces/inkscape"
   version="1.1"
   id="Decals"
   x="0px"
   y="0px"
   width="56.689999"
   height="56.689999"
   viewBox="0 0 56.69 56.69"
   enable-background="new 0 0 56.69 56.69"
   xml:space="preserve"
   inkscape:version="0.48.1 "
   sodipodi:docname="torso-muscle.svg"
   style="display:inline"><metadata
   id="metadata19"><rdf:RDF><cc:Work
       rdf:about=""><dc:format>image/svg+xml</dc:format><dc:type
         rdf:resource="http://purl.org/dc/dcmitype/StillImage" /></cc:Work></rdf:RDF></metadata><defs
   id="defs17" /><sodipodi:namedview
   pagecolor="#ffffff"
   bordercolor="#666666"
   borderopacity="1"
   objecttolerance="10"
   gridtolerance="10"
   guidetolerance="10"
   inkscape:pageopacity="0"
   inkscape:pageshadow="2"
   inkscape:window-width="1280"
   inkscape:window-height="1002"
   id="namedview15"
   showgrid="false"
   inkscape:zoom="5.1331806"
   inkscape:cx="5.0650858"
   inkscape:cy="28.344999"
   inkscape:window-x="1358"
   inkscape:window-y="-8"
   inkscape:window-maximized="1"
   inkscape:current-layer="layer2" />


<g
   inkscape:groupmode="layer"
   id="layer1"
   inkscape:label="design"
   style="display:inline"><path
     style="fill:#f4d7b4;stroke:#de8b5f;stroke-width:0.49511045;stroke-miterlimit:10"
     inkscape:connector-curvature="0"
     id="Torso"
     stroke-miterlimit="10"
     d="M 28.343836,49.672996 H 2.8476668 l 6.420619,-38.672531 c 0,0 0.033768,-1.3320898 1.2226422,-2.7165785 0.974621,-1.1364685 2.658374,-1.2668829 2.658374,-1.2668829 H 28.345 43.540698 c 0,0 1.683753,0.1304144 2.658374,1.2668829 1.188874,1.3856531 1.222642,2.7165785 1.222642,2.7165785 l 6.420619,38.672531 H 28.343836 z" /><g
     style="opacity:0.5"
     id="Muscles"
     transform="matrix(1.1644213,0,0,1.1644144,-4.6849746,-4.6609084)"><path
       style="fill:#f26926"
       inkscape:connector-curvature="0"
       d="m 37.875,13.75 c 0.074,0.259 1.169,-0.355 3.39,-0.033 2.063,0.299 2.72,0.893 2.829,0.752 0.168,-0.216 0.128,-1.01 -0.016,-1.094 -0.188,-0.109 -2.162,-0.44 -2.891,-0.406 -0.849,0.039 -3.406,0.453 -3.312,0.781 z"
       id="path5" /><path
       style="fill:#f26926"
       inkscape:connector-curvature="0"
       d="m 42.688,35.958 c -0.379,-0.345 -1.665,1.526 -2.259,4.051 -0.688,2.921 -1.449,5.283 -1.337,6.033 0.888,0.313 1.366,0.271 2.479,0 0.283,-0.625 0.341,-3.823 0.387,-5.097 0.101,-3.632 0.959,-4.778 0.73,-4.987 z"
       id="path7" /><path
       style="fill:#f26926"
       inkscape:connector-curvature="0"
       d="m 18.833,13.75 c -0.074,0.259 -1.169,-0.355 -3.39,-0.033 -2.063,0.299 -2.72,0.893 -2.829,0.752 -0.168,-0.216 -0.128,-1.01 0.016,-1.094 0.188,-0.109 2.162,-0.44 2.891,-0.406 0.85,0.039 3.406,0.453 3.312,0.781 z"
       id="path9" /><path
       style="fill:#f26926"
       inkscape:connector-curvature="0"
       d="m 46.406,30.578 c -0.171,-0.063 -0.484,0.671 -1.469,0.688 -0.859,0.016 -0.924,-0.377 -1.141,-0.595 -0.189,-0.19 -0.172,-0.749 0.029,-0.867 2.002,0.07 2.377,-0.981 2.268,-1.212 -0.125,-0.265 -0.453,0.298 -1.545,0.403 -0.98,0.095 -1.188,-0.396 -1.185,-0.409 0.005,-0.025 -0.298,-0.662 -0.099,-0.883 0.265,-0.295 0.605,-0.26 1.291,-0.468 1.084,-0.329 1.304,-1.346 1.132,-1.486 -0.124,-0.102 -0.47,0.61 -1.601,0.872 -0.653,0.151 -1.049,0.237 -1.133,-0.034 -0.199,-0.647 1.404,-1.243 2.286,-1.819 0.321,-0.627 0.099,-2.265 0.036,-2.423 -0.98,1.701 -3.117,2.544 -3.215,2.624 -0.021,0.017 -2.699,0.879 -5.641,0.968 -1.908,0.058 -3.525,0.134 -4.486,0.021 -1.236,-0.146 -1.657,-0.252 -1.994,-0.655 -0.191,-0.229 -0.206,-0.384 -0.072,-0.745 0.02,-0.051 0.078,-0.102 0.067,-0.167 -0.014,-0.084 -0.116,-0.127 -0.176,-0.189 -0.289,-0.299 -0.597,-0.568 -0.665,-0.83 -0.107,-0.412 -0.2,-0.858 -0.279,-1.326 -0.069,-0.408 -0.146,-2.329 -0.185,-2.86 -0.039,-0.54 0.245,-2.309 0.182,-2.702 -0.055,-0.339 0.603,-1.342 1.034,-1.768 0.967,-0.954 5.213,-2.192 7.98,-2.545 5.031,-0.641 5.568,0.51 5.732,0.107 0.127,-0.311 -1.248,-1.014 -5.227,-0.89 -0.259,0.008 -1.287,0.309 -1.428,0.262 -0.303,-0.101 -0.765,-0.573 -0.884,-0.479 -0.197,0.155 0.023,0.425 -0.071,0.659 -0.073,0.181 -0.287,0.253 -0.494,0.2 -0.314,-0.081 -0.902,-0.772 -1.069,-0.736 -0.201,0.043 -0.381,0.781 -0.595,0.967 -0.302,0.263 -1.112,0.3 -1.597,0.114 -0.2,-0.077 -0.257,0.04 -0.135,-0.421 0.122,-0.461 0.501,-0.963 0.267,-1.095 -0.066,-0.038 -1.505,0.057 -1.521,0.333 -0.012,0.213 0.409,0.107 0.48,0.299 0.122,0.327 -0.207,0.899 -0.419,1.109 -0.327,0.325 -1.498,1.005 -1.54,1.013 -0.449,0.091 -0.974,0.118 -0.974,0.118 v 12.366 c 0,0 0.203,-0.406 0.408,-0.53 0.222,-0.134 0.46,0.016 0.489,0.037 0.403,0.303 1.206,0.88 2.475,1.206 1.119,0.287 2.602,0.347 4.492,0.295 2.763,-0.076 5.241,-0.247 5.25,-0.091 0.003,0.045 -0.271,0.447 -1.174,1.003 -0.849,0.523 -1.748,0.7 -1.67,0.934 0.045,0.134 0.931,-0.116 1.835,-0.563 0.858,-0.425 1.695,-1.121 1.697,-1.063 0.026,0.786 0,1.567 -0.194,1.982 -0.237,0.507 -1.197,1.02 -1.747,1.201 -0.783,0.259 -1.463,0.19 -1.507,0.114 -0.114,-0.198 -0.876,-0.771 -1.075,-0.883 -0.455,-0.255 -1.05,-0.426 -1.55,-0.575 -0.611,-0.183 -2.143,0.289 -2.542,-0.208 -0.097,-0.121 -0.218,-0.238 -0.342,-0.331 -0.203,-0.151 -1.216,0.682 -2.908,0.638 -0.882,0.143 -1.413,-0.473 -1.68,-0.77 -0.069,-0.077 -0.205,-0.129 -0.248,-0.145 v -0.006 c 0,0 -0.007,0.002 -0.009,0.003 -0.002,0 -0.01,-0.003 -0.01,-0.003 v 0.007 c -0.043,0.016 -0.179,0.068 -0.248,0.145 -0.268,0.296 -0.798,0.912 -1.68,0.77 -1.693,0.044 -2.706,-0.789 -2.909,-0.638 -0.124,0.092 -0.245,0.209 -0.342,0.33 -0.399,0.497 -1.931,0.025 -2.542,0.208 -0.5,0.149 -1.095,0.32 -1.55,0.575 -0.199,0.112 -0.961,0.685 -1.075,0.883 -0.044,0.076 -0.724,0.145 -1.507,-0.114 -0.55,-0.182 -1.51,-0.694 -1.747,-1.201 -0.194,-0.415 -0.221,-1.196 -0.194,-1.981 0.002,-0.059 0.839,0.637 1.697,1.063 0.904,0.447 1.79,0.696 1.835,0.563 0.078,-0.234 -0.821,-0.41 -1.67,-0.934 -0.903,-0.557 -1.177,-0.959 -1.174,-1.004 0.009,-0.155 2.487,0.016 5.25,0.092 1.891,0.051 3.373,-0.009 4.493,-0.296 1.269,-0.325 2.072,-0.903 2.476,-1.206 0.028,-0.021 0.267,-0.17 0.488,-0.037 0.206,0.124 0.409,0.53 0.409,0.53 V 13.732 c 0,0 -0.525,-0.026 -0.974,-0.118 -0.042,-0.008 -1.213,-0.688 -1.541,-1.013 -0.212,-0.21 -0.542,-0.782 -0.419,-1.109 0.071,-0.192 0.493,-0.086 0.481,-0.299 -0.016,-0.276 -1.455,-0.371 -1.521,-0.333 -0.235,0.132 0.145,0.634 0.267,1.095 0.122,0.461 0.065,0.345 -0.135,0.421 -0.485,0.186 -1.295,0.148 -1.597,-0.114 -0.214,-0.187 -0.394,-0.924 -0.595,-0.967 -0.167,-0.036 -0.755,0.655 -1.069,0.736 -0.207,0.053 -0.421,-0.019 -0.494,-0.2 -0.095,-0.233 0.126,-0.504 -0.071,-0.659 -0.119,-0.093 -0.581,0.378 -0.884,0.479 -0.141,0.047 -1.169,-0.254 -1.428,-0.262 -3.979,-0.124 -5.354,0.579 -5.227,0.89 0.164,0.402 0.701,-0.748 5.732,-0.107 2.768,0.353 7.015,1.591 7.981,2.545 0.432,0.425 1.089,1.428 1.035,1.768 -0.063,0.393 0.221,2.162 0.182,2.702 -0.039,0.531 -0.116,2.452 -0.186,2.86 -0.079,0.468 -0.171,0.915 -0.278,1.326 -0.068,0.261 -0.376,0.531 -0.666,0.83 -0.06,0.062 -0.162,0.105 -0.176,0.189 -0.011,0.065 0.048,0.116 0.067,0.167 0.134,0.36 0.119,0.516 -0.072,0.745 -0.337,0.402 -0.758,0.51 -1.995,0.655 -0.961,0.112 -2.579,0.036 -4.487,-0.021 -2.941,-0.089 -5.62,-0.951 -5.641,-0.968 -0.098,-0.08 -2.234,-0.923 -3.215,-2.624 -0.063,0.159 -0.285,1.796 0.036,2.423 0.882,0.576 2.485,1.171 2.286,1.819 -0.084,0.271 -0.479,0.185 -1.133,0.034 -1.131,-0.262 -1.477,-0.975 -1.601,-0.872 -0.172,0.141 0.048,1.157 1.132,1.486 0.686,0.208 1.026,0.173 1.291,0.468 0.199,0.223 -0.104,0.858 -0.099,0.884 0.003,0.014 -0.204,0.504 -1.185,0.409 -1.092,-0.105 -1.42,-0.668 -1.545,-0.403 -0.109,0.23 0.266,1.282 2.268,1.212 0.201,0.118 0.219,0.677 0.029,0.867 -0.217,0.218 -0.281,0.61 -1.141,0.595 -0.984,-0.018 -1.298,-0.751 -1.469,-0.688 -0.172,0.063 0.046,1.267 1.14,1.422 0.82,0.116 1.406,-0.494 1.799,-0.405 0.369,0.084 0.405,0.499 1.873,1.499 0.603,0.41 2.474,1.371 2.882,1.605 0,0.125 -0.002,0.244 0.004,0.385 0.014,0.335 0.538,0.831 0.525,1.166 -0.009,0.226 -0.348,1.016 -0.333,1.75 0.016,0.786 1.031,2.132 1.024,2.917 -0.002,0.271 -0.007,0.568 0.009,1.425 0.013,0.69 0.108,1.247 0.274,1.783 0.107,0.349 0.404,1.017 0.584,1.334 0.422,0.744 1.984,0.729 2.017,0.574 0.037,-0.18 -1.22,-0.205 -1.517,-0.991 -0.225,-0.596 -0.503,-2.142 -0.167,-2.684 0.433,-0.435 3.036,-0.413 4.042,-0.274 0.858,0.119 2.594,0.197 3.417,0.583 0.515,0.575 0.178,2.442 0.209,3.083 0.067,0.146 0.216,0.193 0.26,0.204 v 0.005 c 0,0 0.007,-0.002 0.009,-0.002 0.002,0 0.01,0.002 0.01,0.002 v -0.005 c 0.044,-0.011 0.194,-0.058 0.261,-0.204 0.031,-0.641 -0.306,-2.508 0.208,-3.083 0.823,-0.386 2.558,-0.464 3.417,-0.583 1.006,-0.139 3.609,-0.16 4.042,0.274 0.336,0.542 0.058,2.088 -0.167,2.684 -0.297,0.786 -1.554,0.812 -1.517,0.991 0.032,0.154 1.595,0.17 2.017,-0.574 0.18,-0.317 0.477,-0.985 0.584,-1.334 0.166,-0.536 0.262,-1.093 0.274,-1.783 0.016,-0.856 0.011,-1.154 0.009,-1.425 -0.007,-0.785 1.009,-2.131 1.024,-2.917 0.015,-0.734 -0.324,-1.524 -0.333,-1.75 -0.013,-0.335 0.512,-0.831 0.525,-1.166 0.006,-0.141 0.004,-0.26 0.004,-0.385 0.408,-0.234 2.279,-1.195 2.882,-1.605 1.468,-1 1.504,-1.415 1.873,-1.499 0.393,-0.089 0.979,0.521 1.799,0.405 1.104,-0.157 1.322,-1.361 1.15,-1.424 z m -30.369,2.016 c -0.627,-0.206 -2.05,-1.154 -2.22,-1.483 -0.149,-0.289 -0.006,-1.226 -0.006,-1.226 0,0 0.412,0.066 0.661,0.23 0.654,0.432 1.233,0.894 1.761,1.187 0.958,0.532 1.567,0.504 1.758,0.987 0.17,0.432 -0.017,0.867 -1.954,0.305 z m 3.192,0.927 c 0.188,-0.617 0.163,-1.558 1.604,-2.162 0.805,-0.632 2.691,-1.15 3.692,-1.296 0.735,-0.107 2.402,0.616 2.863,1.2 0.438,0.554 0.699,1.791 0.65,2.496 -0.023,0.337 0.017,1.385 -0.229,1.616 -0.672,0.632 -2.887,0.278 -3.809,0.254 -1.177,-0.031 -3.313,0.017 -4.646,-0.75 -0.326,-0.188 -0.234,-0.998 -0.125,-1.358 z m 8.626,7.812 C 27.47,41.72 25.464,41.5 24.917,41.5 c -0.772,0 -3.996,-0.246 -4.542,-0.792 -0.206,-0.206 -0.976,-1.578 -0.976,-1.87 0,-0.313 0.046,-1.93 0.267,-2.15 0.486,-0.486 3.792,0.146 4.479,0.146 0.63,0 3.015,0.385 3.289,0.639 0.42,0.391 0.608,1.429 0.608,1.611 10e-4,0.301 0.026,2.036 -0.187,2.249 z m 8.478,-0.625 c -0.546,0.546 -3.77,0.792 -4.541,0.792 -0.547,0 -2.552,0.22 -2.938,-0.167 -0.213,-0.213 -0.188,-1.948 -0.188,-2.25 0,-0.183 0.189,-1.221 0.609,-1.611 0.273,-0.254 2.657,-0.639 3.287,-0.639 0.688,0 3.993,-0.632 4.479,-0.146 0.221,0.221 0.267,1.838 0.267,2.15 10e-4,0.293 -0.769,1.665 -0.975,1.871 z m 1.021,-5.829 c -1.334,0.767 -3.47,0.719 -4.646,0.75 -0.922,0.024 -3.136,0.378 -3.808,-0.254 -0.246,-0.231 -0.206,-1.279 -0.229,-1.616 -0.049,-0.705 0.213,-1.942 0.65,-2.496 0.461,-0.584 2.127,-1.308 2.862,-1.2 1,0.146 2.887,0.664 3.691,1.296 1.441,0.604 1.417,1.545 1.604,2.162 0.111,0.36 0.203,1.17 -0.124,1.358 z m 5.538,-3.769 c -0.17,0.329 -1.593,1.277 -2.22,1.483 -1.938,0.563 -2.124,0.127 -1.954,-0.305 0.19,-0.483 0.8,-0.455 1.758,-0.987 0.527,-0.293 1.106,-0.755 1.761,-1.187 0.249,-0.164 0.661,-0.23 0.661,-0.23 0,0 0.143,0.937 -0.006,1.226 z"
       id="path11" /><path
       style="fill:#f26926"
       inkscape:connector-curvature="0"
       d="m 14.021,35.958 c 0.379,-0.345 1.665,1.526 2.259,4.051 0.688,2.921 1.449,5.283 1.337,6.033 -0.888,0.313 -1.366,0.271 -2.479,0 -0.283,-0.625 -0.341,-3.823 -0.387,-5.097 -0.101,-3.632 -0.959,-4.778 -0.73,-4.987 z"
       id="path13" /></g></g><g
   inkscape:groupmode="layer"
   id="layer2"
   inkscape:label="template"
   style="display:none"
   sodipodi:insensitive="true"><path
     id="path4124"
     style="fill:none;stroke:#231f20;stroke-width:0.3125;stroke-linecap:butt;stroke-linejoin:miter;stroke-miterlimit:4;stroke-opacity:1;stroke-dasharray:none;display:inline"
     d="M 2.3587515,49.799277 C 11.09125,2.5055246 7.7012515,7.1205246 16.626252,6.9430246 l 23.440001,0 c 8.926249,0.1775 5.534999,-4.4375 14.264995,42.8562524 l -51.9724965,0 z"
     inkscape:connector-curvature="0" /></g></svg>