<?xml version="1.0" encoding="utf-8"?>
<!-- Generator: Adobe Illustrator 15.0.0, SVG Export Plug-In . SVG Version: 6.00 Build 0)  -->
<!DOCTYPE svg PUBLIC "-//W3C//DTD SVG 1.1//EN" "http://www.w3.org/Graphics/SVG/1.1/DTD/svg11.dtd">
<svg version="1.1" id="Layer_1" xmlns="http://www.w3.org/2000/svg" xmlns:xlink="http://www.w3.org/1999/xlink" x="0px" y="0px"
	 width="243.78px" height="39.69px" viewBox="0 0 243.78 39.69" enable-background="new 0 0 243.78 39.69" xml:space="preserve">
<rect x="-8.709" y="-8.825" fill="#1C1315" width="258.752" height="57.333"/>
<polygon fill="#A3A0A2" points="240.329,37.937 185.048,37.937 174.329,30.812 134.673,30.687 120.496,37.062 3.45,26.938 
	3.45,12.747 120.496,2.623 134.673,8.998 174.329,8.873 185.048,1.748 240.329,1.748 "/>
<g>
	<rect x="11.001" y="12.062" fill="#A3A0A2" width="229" height="15.562"/>
	<path fill="#635F62" d="M239.501,12.562v14.562h-228V12.562H239.501 M240.501,11.562h-230v16.562h230V11.562L240.501,11.562z"/>
</g>
<g>
	<path fill="#635F62" d="M-6.594,40.665V-0.981h0.5c11.482,0,20.823,9.341,20.823,20.822c0,11.482-9.341,20.824-20.823,20.824
		H-6.594z"/>
	<path fill="#635F62" d="M-6.094-0.481c11.224,0,20.323,9.099,20.323,20.322c0,11.225-9.099,20.324-20.323,20.324V-0.481
		 M-6.094-1.481h-1v1v40.646v1h1c11.758,0,21.323-9.566,21.323-21.324C15.229,8.084,5.664-1.481-6.094-1.481L-6.094-1.481z"/>
</g>
<g>
	<path fill="#1C1315" d="M-6.219-0.601C4.826-0.334,13.729,8.733,13.729,19.841c0,11.108-8.903,20.177-19.948,20.443V-0.601z"/>
	<path fill="#A3A0A2" d="M-5.719-0.082C4.818,0.44,13.229,9.177,13.229,19.841c0,10.665-8.411,19.402-18.948,19.925V-0.082
		 M-6.719-1.106V40.79c11.569,0,20.948-9.38,20.948-20.949C14.229,8.272,4.851-1.106-6.719-1.106L-6.719-1.106z"/>
</g>
<g>
	<path fill="#A3A0A2" d="M54.115,23.458c-1.993,0-3.615-1.622-3.615-3.616c0-1.993,1.622-3.615,3.615-3.615s3.615,1.622,3.615,3.615
		C57.729,21.836,56.108,23.458,54.115,23.458z"/>
	<path fill="#635F62" d="M54.115,16.728c1.717,0,3.115,1.397,3.115,3.115s-1.397,3.116-3.115,3.116S51,21.56,51,19.842
		S52.397,16.728,54.115,16.728 M54.115,15.728c-2.272,0-4.115,1.841-4.115,4.115c0,2.273,1.842,4.116,4.115,4.116
		s4.115-1.843,4.115-4.116C58.229,17.569,56.387,15.728,54.115,15.728L54.115,15.728z"/>
</g>
<path fill="#635F62" d="M92.062,15.218c0,0.5-0.406,0.906-0.906,0.906h-8.219c-0.5,0-0.906-0.406-0.906-0.906l0,0
	c0-0.5,0.406-0.906,0.906-0.906h8.219C91.657,14.312,92.062,14.717,92.062,15.218L92.062,15.218z"/>
<path fill="#635F62" d="M92.062,24.468c0,0.5-0.406,0.906-0.906,0.906h-8.219c-0.5,0-0.906-0.406-0.906-0.906l0,0
	c0-0.5,0.406-0.906,0.906-0.906h8.219C91.657,23.562,92.062,23.968,92.062,24.468L92.062,24.468z"/>
<g>
	<path fill="#635F62" d="M144.25,19v1.781h-4.75V19H144.25 M145.25,18h-6.75v3.781h6.75V18L145.25,18z"/>
</g>
<g>
	<path fill="#635F62" d="M144.25,23.844v1.781h-4.75v-1.781H144.25 M145.25,22.844h-6.75v3.781h6.75V22.844L145.25,22.844z"/>
</g>
<rect x="134.844" y="23.062" fill="#1C1315" width="2.656" height="3.344"/>
<rect x="146.25" y="12.25" fill="#635F62" width="0.438" height="15.729"/>
<g>
	<path fill="#635F62" d="M155.89,13.92l14.892,2.384v7.254l-14.886,2.207L150,25.764V13.92H155.89 M155.969,12.92H149v13.844
		l6.969,0.001l15.812-2.345v-8.969L155.969,12.92L155.969,12.92z"/>
</g>
<polygon fill="none" stroke="#635F62" stroke-width="0.5" stroke-miterlimit="10" points="149.644,16.879 155.599,17.962 
	155.599,21.801 149.644,22.805 "/>
<rect x="184.781" y="11.853" fill="#635F62" width="0.438" height="15.979"/>
<rect x="189.5" y="11.956" fill="#635F62" width="0.438" height="15.771"/>
<rect x="227.75" y="12.146" fill="#635F62" width="0.438" height="15.937"/>
<rect x="-6.719" y="18.311" fill="#A3A0A2" width="20.719" height="3.062"/>
<polygon fill="#635F62" points="86.107,34.08 85.219,34.006 85.219,27.782 86.107,27.782 "/>
<polygon fill="#1C1315" points="233.438,28.123 245.218,45.434 245.218,-5.749 233.438,11.561 "/>
<g>
	<g>
		<path fill="#EEEEEE" d="M241.779,0c1.104,0,2,0.896,2,2v35.686c0,1.104-0.896,2-2,2H2c-1.104,0-2-0.896-2-2V2c0-1.104,0.896-2,2-2
			H241.779 M241.779-0.25H2C0.759-0.25-0.25,0.759-0.25,2v35.686c0,1.24,1.009,2.25,2.25,2.25h239.779c1.24,0,2.25-1.01,2.25-2.25V2
			C244.029,0.759,243.02-0.25,241.779-0.25L241.779-0.25z"/>
	</g>
</g>
<polygon fill="#635F62" points="86.107,5.61 85.219,5.685 85.219,11.908 86.107,11.908 "/>
</svg>
