<?xml version="1.0" encoding="utf-8"?>
<!-- Generator: Adobe Illustrator 15.1.0, SVG Export Plug-In . SVG Version: 6.00 Build 0)  -->
<!DOCTYPE svg PUBLIC "-//W3C//DTD SVG 1.1//EN" "http://www.w3.org/Graphics/SVG/1.1/DTD/svg11.dtd">
<svg version="1.1" xmlns="http://www.w3.org/2000/svg" xmlns:xlink="http://www.w3.org/1999/xlink" x="0px" y="0px"
	 width="53.858px" height="45.354px" viewBox="0 0 53.858 45.354" enable-background="new 0 0 53.858 45.354" xml:space="preserve">
<g id="torso">
	<path id="base" inkscape:connector-curvature="0" fill="none" stroke="#231F20" stroke-width="0.3125" d="M0.943,44.131
		C9.675-3.163,6.286,1.452,15.21,1.275h23.44c8.926,0.177,5.535-4.438,14.265,42.856H0.943z"/>
</g>
<g id="design">
	<defs>
		<path id="SVGID_1_" d="M1.351,43.792c1.942-10.538,3.294-18.564,4.285-24.444C8.405,2.906,8.631,1.563,11.979,1.563
			c0.332,0,0.691,0.012,1.084,0.025c0.48,0.016,1.01,0.033,1.597,0.033c0.181,0,0.365-0.002,0.557-0.005H38.65
			c0.184,0.003,0.371,0.005,0.551,0.005c0.586,0,1.115-0.018,1.596-0.033c0.395-0.013,0.754-0.025,1.086-0.025
			c3.348,0,3.574,1.342,6.34,17.771c0.99,5.883,2.342,13.913,4.285,24.458H1.351z"/>
	</defs>
	<clipPath id="SVGID_2_">
		<use xlink:href="#SVGID_1_"  overflow="visible"/>
	</clipPath>
	<g id="vest" clip-path="url(#SVGID_2_)">
		<path fill="#605F61" stroke="#000000" stroke-width="0.5669" d="M51.917,32.39c0,0-7.664,0.332-9.262-15.126
			c-0.317-4.375-0.515-3.586-0.296-4.758C42.844,9.897,45.63,1.84,45.63,1.84L36.99-0.495c0,0-3.438,10.557-3.557,10.567
			c-3.58,1.537-9.419,1.537-13,0c-0.118-0.011-3.558-10.567-3.558-10.567L8.231,1.84c0,0,2.783,8.058,3.272,10.667
			c0.22,1.171,0.022,0.382-0.295,4.757C9.609,32.722,1.942,32.39,1.942,32.39l-2.667,12.891c0,0,20.75,0.426,27.668,0.426
			c6.911,0,27.639-0.426,27.639-0.426L51.917,32.39z"/>
		<g>
			<path fill="#A2A1A3" stroke="#000000" stroke-width="0.4252" d="M28.188,40.541c-16.097,0-28.443-1.273-28.629-1.293l0.314-2.981
				c0.275,0.028,27.755,2.858,54.102,0l0.323,2.981C45.363,40.217,36.298,40.541,28.188,40.541z"/>
			<path fill="#3A3B3C" stroke="#000000" stroke-width="0.3118" stroke-linejoin="round" stroke-miterlimit="10" d="M28.05,37.771
				c0.338,0,0.627-0.204,0.752-0.5c0,0,0.887,0.149,1.115,0.34c0.354,0.293,0.354,2.578,0,2.869c-0.229,0.19-1.115,0.34-1.115,0.34
				c-0.125-0.294-0.414-0.5-0.752-0.5c-0.337,0-0.626,0.206-0.753,0.5h-1.499v-3.549h1.499
				C27.424,37.567,27.713,37.771,28.05,37.771z M23.675,37.271v3.549h1.787v-3.549H23.675z"/>
		</g>
	</g>
	<g id="dynamites" clip-path="url(#SVGID_2_)">
		<g>
			<path fill="none" stroke="#FFCD03" stroke-width="0.4252" stroke-linecap="round" d="M15.206,23.017
				c0.015-0.25,1.207-0.463,1.211-0.724c0.005-0.255-1.18-0.537-1.175-0.793c0.007-0.26,1.202-0.456,1.222-0.707
				c0.021-0.264-1.121-0.686-1.071-0.928c0.054-0.262,1.248-0.141,1.352-0.364c0.109-0.237-0.699-1.126-0.514-1.304
				c0.175-0.167,1.011,0.68,1.27,0.581c0.214-0.082,0.195-1.284,0.479-1.311c0.231-0.021,0.497,1.161,0.779,1.181
				c0.235,0.017,0.635-1.127,0.909-1.078c0.15,0.027,0.336,0.952,0.561,0.992c0.271,0.049,0.752-0.801,1.068-0.734
				c0.568,0.119,0.943,0.657,1.006,0.673"/>
			<path fill="none" stroke="#FFCD03" stroke-width="0.4252" stroke-linecap="round" d="M18.597,24.555
				c0.119-0.33,1.389-0.265,1.469-0.55c0.096-0.345-1.03-0.945-0.973-1.231c0.073-0.357,1.335-0.447,1.384-0.73
				c0.062-0.361-1.069-0.979-0.973-1.251c0.107-0.304,1.259,0.097,1.517-0.14c0.2-0.182-0.22-1.363,0.13-1.529
				c0.169-0.08,0.568,0.354,0.919,0.612c0.171,0.125,0.207-1.165,0.322-1.205"/>
			<path fill="none" stroke="#FFCD03" stroke-width="0.4252" stroke-linecap="round" d="M22.016,25.314
				c0.328-0.407,1.257,0.377,1.588-0.143c0.167-0.26-0.706-1.175-0.533-1.51c0.155-0.301,1.417-0.14,1.537-0.471
				c0.12-0.333-0.964-0.965-0.917-1.302c0.05-0.357,1.247-0.758,1.172-1.09c-0.076-0.332-1.271-0.101-1.519-0.374
				c-0.208-0.231-0.562-1.618-0.923-1.785"/>
			<g>
				<path fill="none" stroke="#9AC43F" stroke-width="0.4252" stroke-linejoin="round" d="M21.576,26.384
					c0.151-0.246,1.312,0.169,1.462-0.055c0.162-0.24-0.655-1.162-0.495-1.377c0.174-0.231,1.285,0.3,1.457,0.097
					c0.188-0.222-0.51-1.235-0.324-1.425c0.205-0.209,1.225,0.481,1.427,0.31c0.224-0.189-0.274-1.314-0.055-1.46
					c0.245-0.163,1.076,0.743,1.315,0.63c0.264-0.125,0.109-1.342,0.365-1.412c0.278-0.077,0.752,1.055,1.02,1.037
					c0.284-0.02,0.6-1.202,0.87-1.166c0.277,0.037,0.28,1.266,0.543,1.353c0.264,0.087,0.981-0.907,1.228-0.78
					c0.247,0.127-0.13,1.298,0.098,1.455c0.229,0.159,1.181-0.62,1.39-0.441c0.214,0.183-0.4,1.25-0.209,1.445
					c0.202,0.205,1.276-0.396,1.451-0.192c0.19,0.225-0.572,1.191-0.417,1.399c0.187,0.25,1.328-0.207,1.46-0.008
					c0.277,0.422-0.797,0.952-0.604,1.314"/>
			</g>
			<g>
				<path fill="#ED1C24" stroke="#231F20" stroke-width="0.3125" d="M16.009,22.891c-0.931-0.317-1.826-0.166-1.999,0.341
					L8.541,39.261l3.372,1.151l5.469-16.029C17.555,23.876,16.94,23.208,16.009,22.891z"/>
				
					<ellipse transform="matrix(0.9464 0.3231 -0.3231 0.9464 13.421 -1.1676)" fill="#ED1C24" stroke="#231F20" stroke-width="0.3125" cx="10.227" cy="39.837" rx="1.782" ry="0.968"/>
			</g>
			<g>
				<path fill="#ED1C24" stroke="#231F20" stroke-width="0.3125" d="M19.38,24.042c-0.931-0.318-1.825-0.165-1.998,0.342
					l-5.469,16.029l3.372,1.15l5.469-16.029C20.927,25.027,20.312,24.359,19.38,24.042z"/>
				
					<ellipse transform="matrix(0.9464 0.3229 -0.3229 0.9464 13.9644 -2.1955)" fill="#ED1C24" stroke="#231F20" stroke-width="0.3125" cx="13.599" cy="40.988" rx="1.781" ry="0.969"/>
			</g>
			<g>
				<path fill="#ED1C24" stroke="#231F20" stroke-width="0.3125" d="M22.752,25.192c-0.931-0.318-1.826-0.165-1.999,0.342
					l-5.469,16.029l3.372,1.15l5.469-16.029C24.298,26.177,23.684,25.509,22.752,25.192z"/>
				
					<ellipse transform="matrix(0.9464 0.3229 -0.3229 0.9464 14.5165 -3.2226)" fill="#ED1C24" stroke="#231F20" stroke-width="0.3125" cx="16.97" cy="42.138" rx="1.781" ry="0.968"/>
			</g>
			<path fill="none" stroke="#605F61" stroke-width="0.4252" stroke-linecap="round" d="M18.424,10.136"/>
			<path fill="none" stroke="#FFCD03" stroke-width="0.4252" stroke-linecap="round" d="M22.421,18.64"/>
			<g>
				<path fill="none" stroke="#FFCD03" stroke-width="0.4252" stroke-linecap="round" d="M22.298,18.612
					c0.113-0.365,1.297-0.232,1.455-0.51c0.185-0.328-0.497-1.298-0.259-1.524c0.26-0.246,1.19,0.498,1.501,0.35
					c0.309-0.147,0.275-1.332,0.623-1.405c0.332-0.07,0.839,1.021,1.195,0.996c0.341-0.024,0.645-1.18,0.999-1.182
					c0.345-0.002,0.695,1.15,1.045,1.152c0.35,0.002,0.684-1.147,1.029-1.158c0.353-0.012,0.793,1.108,1.133,1.064
					c0.352-0.045,0.453-1.231,0.78-1.33c0.335-0.102,1.115,0.807,1.415,0.628c0.289-0.173-0.156-1.271,0.091-1.537
					c0.222-0.239,1.349,0.147,1.528-0.181"/>
			</g>
			<path fill="#A2A1A3" stroke="#000000" stroke-width="0.4252" d="M22.559,36.157c-5.286-3.641-13.314-3.952-13.396-3.954
				l0.457-2.125c0.36,0.005,8.04,0.176,13.863,4.188L22.559,36.157z"/>
		</g>
		<g>
			<path fill="none" stroke="#ED1C24" stroke-width="0.4252" stroke-linecap="round" d="M38.654,23.017
				c-0.016-0.25-1.207-0.463-1.211-0.724c-0.006-0.255,1.18-0.537,1.174-0.793c-0.007-0.26-1.201-0.456-1.222-0.707
				c-0.021-0.264,1.12-0.686,1.071-0.928c-0.055-0.262-1.248-0.141-1.352-0.364c-0.109-0.237,0.698-1.126,0.514-1.304
				c-0.176-0.167-1.012,0.68-1.271,0.581c-0.214-0.082-0.195-1.284-0.479-1.311c-0.23-0.021-0.496,1.161-0.779,1.181
				c-0.234,0.017-0.635-1.127-0.908-1.078c-0.15,0.027-0.336,0.952-0.562,0.992c-0.271,0.049-0.753-0.801-1.067-0.734
				c-0.568,0.119-0.943,0.657-1.007,0.673"/>
			<path fill="none" stroke="#ED1C24" stroke-width="0.4252" stroke-linecap="round" d="M35.262,24.555
				c-0.118-0.33-1.39-0.265-1.47-0.55c-0.096-0.345,1.031-0.945,0.974-1.231c-0.073-0.356-1.335-0.447-1.384-0.73
				c-0.063-0.361,1.068-0.979,0.973-1.251c-0.107-0.304-1.259,0.097-1.517-0.14c-0.2-0.182,0.22-1.363-0.13-1.529
				c-0.169-0.08-0.568,0.354-0.92,0.612c-0.17,0.125-0.207-1.165-0.322-1.205"/>
			<path fill="none" stroke="#ED1C24" stroke-width="0.4252" stroke-linecap="round" d="M31.843,25.314
				c-0.328-0.407-1.257,0.377-1.588-0.143c-0.168-0.26,0.705-1.175,0.532-1.51c-0.155-0.301-1.417-0.14-1.536-0.471
				c-0.12-0.332,0.964-0.965,0.916-1.302c-0.05-0.357-1.246-0.758-1.172-1.09c0.076-0.332,1.271-0.101,1.52-0.374
				c0.208-0.231,0.562-1.618,0.923-1.785"/>
			<g>
				<path fill="#ED1C24" stroke="#231F20" stroke-width="0.3125" d="M37.85,22.891c0.931-0.317,1.825-0.165,1.999,0.341
					l5.469,16.029l-3.372,1.151l-5.469-16.029C36.304,23.876,36.919,23.208,37.85,22.891z"/>
				
					<ellipse transform="matrix(-0.9464 0.3231 -0.3231 -0.9464 97.7954 63.4382)" fill="#ED1C24" stroke="#231F20" stroke-width="0.3125" cx="43.632" cy="39.837" rx="1.782" ry="0.968"/>
			</g>
			<g>
				<path fill="#ED1C24" stroke="#231F20" stroke-width="0.3125" d="M34.479,24.042c0.931-0.318,1.825-0.165,1.998,0.342
					l5.469,16.029l-3.371,1.15l-5.47-16.029C32.933,25.027,33.547,24.359,34.479,24.042z"/>
				
					<ellipse transform="matrix(-0.9464 0.323 -0.323 -0.9464 91.6006 66.7765)" fill="#ED1C24" stroke="#231F20" stroke-width="0.3125" cx="40.26" cy="40.988" rx="1.781" ry="0.969"/>
			</g>
			<g>
				<path fill="#ED1C24" stroke="#231F20" stroke-width="0.3125" d="M31.107,25.192c0.931-0.318,1.826-0.165,1.998,0.342
					l5.47,16.029l-3.372,1.15l-5.469-16.029C29.561,26.177,30.175,25.509,31.107,25.192z"/>
				
					<ellipse transform="matrix(-0.9464 0.3229 -0.3229 -0.9464 85.4072 70.1088)" fill="#ED1C24" stroke="#231F20" stroke-width="0.3125" cx="36.889" cy="42.138" rx="1.781" ry="0.968"/>
			</g>
			<path fill="none" stroke="#605F61" stroke-width="0.4252" stroke-linecap="round" d="M35.435,10.136"/>
			<path fill="none" stroke="#ED1C24" stroke-width="0.4252" stroke-linecap="round" d="M31.438,18.64"/>
			<g>
				<path fill="none" stroke="#ED1C24" stroke-width="0.4252" stroke-linecap="round" d="M31.149,18.573
					c-0.223-0.211,0.357-0.591,0.163-0.914c-0.09-0.148-0.799-0.027-0.883-0.242c-0.067-0.173,0.527-0.565,0.48-0.78
					c-0.04-0.185-0.749-0.291-0.763-0.506c-0.013-0.192,0.672-0.394,0.688-0.611c0.014-0.193-0.641-0.486-0.6-0.699"/>
			</g>
			<path fill="#A2A1A3" stroke="#000000" stroke-width="0.4252" d="M31.217,36.158c5.285-3.641,13.314-3.952,13.396-3.954
				l-0.457-2.125c-0.36,0.005-8.039,0.176-13.863,4.188L31.217,36.158z"/>
		</g>
	</g>
	<g id="electronics" clip-path="url(#SVGID_2_)">
		<g id="wires">
			<g>
				<path fill="none" stroke="#F58233" stroke-width="0.4252" d="M16.448,8.245c0.511-0.292,1.206,1.49,1.895,1.211
					c0.31-0.125,0.035-2.049,0.464-2.187c0.344-0.11,1.239,1.608,1.652,1.507c0.36-0.088,0.353-2.029,0.761-2.101
					c0.371-0.065,1.029,1.758,1.436,1.713c0.378-0.041,0.626-1.965,1.033-1.983c0.382-0.017,0.795,1.877,1.2,1.887
					c0.384,0.009,0.885-1.866,1.289-1.83c0.383,0.034,0.544,1.966,0.943,2.029c0.381,0.059,1.122-1.734,1.515-1.646
					c0.376,0.084,0.285,2.021,0.671,2.133c0.37,0.107,1.332-1.578,1.711-1.441c0.363,0.13,0.036,2.042,0.407,2.201
					c0.355,0.152,1.511-1.407,1.872-1.227c0.346,0.172-0.199,2.034,0.15,2.232c0.337,0.191,1.656-1.231,1.997-1.014
					c0.327,0.209-0.405,2.006-0.075,2.24"/>
			</g>
			<g>
				<path fill="none" stroke="#0075BF" stroke-width="0.4252" d="M17.354,10.382c0,0.356-1.297,1.193-1.07,1.454
					c0.197,0.228,1.438-0.837,1.776-0.672c0.276,0.134,0.024,1.756,0.376,1.853c0.305,0.084,0.985-1.423,1.336-1.364
					c0.318,0.054,0.436,1.701,0.784,1.736c0.325,0.033,0.79-1.555,1.134-1.536c0.33,0.019,0.606,1.648,0.948,1.655
					c0.333,0.007,0.682-1.61,1.023-1.612c0.335-0.002,0.704,1.61,1.042,1.6c0.339-0.01,0.614-1.642,0.95-1.658
					c0.342-0.017,0.774,1.58,1.107,1.558c0.343-0.023,0.562-1.662,0.891-1.688c0.346-0.028,0.823,1.555,1.148,1.524
					c0.351-0.033,0.525-1.678,0.845-1.711c0.359-0.039,0.877,1.531,1.186,1.495c0.383-0.045,0.52-1.695,0.805-1.732
					c0.625-0.083,0.727,1.539,1.222,1.462"/>
			</g>
		</g>
		<g id="keypad">
			<path stroke="#A2A1A3" stroke-width="0.3125" d="M18.202,12.542c0.106,0.458-0.18,0.915-0.636,1.021l-5.285,1.222
				c-0.458,0.105-0.914-0.18-1.02-0.637L9.757,7.644c-0.105-0.458,0.18-0.915,0.637-1.021l5.285-1.222
				c0.457-0.105,0.914,0.18,1.019,0.638L18.202,12.542z"/>
			<path stroke="#A2A1A3" stroke-width="0.3125" d="M18.426,13.509c0.105,0.458-0.18,0.915-0.636,1.02l-5.285,1.222
				c-0.458,0.106-0.915-0.179-1.02-0.637L9.981,8.611c-0.105-0.458,0.18-0.915,0.637-1.021l5.285-1.222
				c0.457-0.105,0.914,0.18,1.019,0.637L18.426,13.509z"/>
			<g>
				<g>
					
						<rect x="10.869" y="8.335" transform="matrix(0.9743 -0.2251 0.2251 0.9743 -1.659 2.8344)" fill="#EFF0ED" width="1.469" height="0.719"/>
					
						<rect x="12.818" y="7.884" transform="matrix(0.9743 -0.2254 0.2254 0.9743 -1.5092 3.2663)" fill="#EFF0ED" width="1.469" height="0.719"/>
					
						<rect x="14.766" y="7.434" transform="matrix(0.9743 -0.2251 0.2251 0.9743 -1.3562 3.6884)" fill="#EFF0ED" width="1.469" height="0.719"/>
				</g>
				<g>
					
						<rect x="11.195" y="9.743" transform="matrix(0.9743 -0.2251 0.2251 0.9743 -1.9675 2.9438)" fill="#EFF0ED" width="1.469" height="0.719"/>
					
						<rect x="13.143" y="9.293" transform="matrix(0.9743 -0.2254 0.2254 0.9743 -1.8182 3.376)" fill="#EFF0ED" width="1.469" height="0.719"/>
					
						<rect x="15.092" y="8.842" transform="matrix(0.9743 -0.2251 0.2251 0.9743 -1.6652 3.7991)" fill="#EFF0ED" width="1.468" height="0.719"/>
				</g>
				<g>
					
						<rect x="11.52" y="11.151" transform="matrix(0.9744 -0.225 0.225 0.9744 -2.2755 3.0522)" fill="#EFF0ED" width="1.469" height="0.719"/>
					
						<rect x="13.469" y="10.701" transform="matrix(0.9743 -0.2254 0.2254 0.9743 -2.1278 3.4867)" fill="#EFF0ED" width="1.468" height="0.719"/>
					
						<rect x="15.417" y="10.25" transform="matrix(0.9743 -0.2251 0.2251 0.9743 -1.9734 3.9072)" fill="#EFF0ED" width="1.469" height="0.719"/>
				</g>
				<g>
					
						<rect x="11.846" y="12.559" transform="matrix(0.9743 -0.2251 0.2251 0.9743 -2.5847 3.1626)" fill="#EFF0ED" width="1.469" height="0.719"/>
					
						<rect x="13.794" y="12.109" transform="matrix(0.9743 -0.2254 0.2254 0.9743 -2.4369 3.5963)" fill="#EFF0ED" width="1.468" height="0.719"/>
					
						<rect x="15.743" y="11.659" transform="matrix(0.9744 -0.225 0.225 0.9744 -2.2814 4.0152)" fill="#EFF0ED" width="1.469" height="0.719"/>
				</g>
				<g>
					
						<rect x="12.171" y="13.968" transform="matrix(0.9743 -0.2251 0.2251 0.9743 -2.8932 3.272)" fill="#EFF0ED" width="1.469" height="0.719"/>
					
						<rect x="14.12" y="13.517" transform="matrix(0.9743 -0.2254 0.2254 0.9743 -2.7459 3.7059)" fill="#EFF0ED" width="1.468" height="0.719"/>
					
						<rect x="16.068" y="13.067" transform="matrix(0.9743 -0.2251 0.2251 0.9743 -2.5905 4.1259)" fill="#EFF0ED" width="1.469" height="0.719"/>
				</g>
			</g>
		</g>
		<g id="timer">
			
				<rect x="29.447" y="10.609" transform="matrix(0.9937 -0.1121 0.1121 0.9937 -1.2154 4.0609)" stroke="#A2A1A3" stroke-width="0.4252" stroke-linecap="round" stroke-linejoin="round" width="12.082" height="4.449"/>
			<g>
				<path fill="#ED1C24" d="M30.699,13.16l-0.123-1.092l0.465,0.366l0.064,0.572l-0.231,0.298L30.699,13.16z M32.273,11.797
					l-0.371,0.465l-0.789,0.089l-0.466-0.371L32.273,11.797z M31.182,13.694l0.064,0.568l-0.371,0.466l-0.123-1.093l0.139-0.175
					L31.182,13.694z M32.59,14.615l-1.626,0.184l0.372-0.466l0.789-0.089L32.59,14.615z M32.051,12.901l-0.064-0.57l0.372-0.46
					l0.122,1.089l-0.139,0.179L32.051,12.901z M32.535,13.434l0.123,1.089l-0.466-0.372l-0.063-0.565l0.231-0.291L32.535,13.434z"/>
				<path fill="#ED1C24" d="M32.952,12.899l-0.123-1.085l0.466,0.366l0.063,0.567l-0.231,0.295L32.952,12.899z M34.527,11.543
					l-0.371,0.465l-0.789,0.089l-0.466-0.371L34.527,11.543z M34.295,12.784l0.233,0.186l-0.186,0.232l-0.894,0.101l-0.233-0.185
					l0.186-0.233L34.295,12.784z M34.844,14.361l-1.626,0.183l0.372-0.466l0.789-0.089L34.844,14.361z M34.789,13.178l0.123,1.091
					l-0.466-0.372l-0.063-0.567l0.231-0.291L34.789,13.178z"/>
				<path fill="#ED1C24" d="M35.223,12.365l-0.048-0.418l0.419-0.047l0.047,0.418L35.223,12.365z M35.441,14.293l-0.048-0.419
					l0.419-0.047l0.047,0.419L35.441,14.293z"/>
				<path fill="#ED1C24" d="M36.188,12.541l-0.123-1.092l0.466,0.366l0.064,0.572l-0.231,0.298L36.188,12.541z M37.763,11.178
					l-0.372,0.465l-0.788,0.089l-0.466-0.371L37.763,11.178z M36.672,13.074l0.064,0.568l-0.372,0.466l-0.123-1.093l0.14-0.175
					L36.672,13.074z M38.081,13.996l-1.626,0.183l0.372-0.466l0.788-0.089L38.081,13.996z M37.541,12.282l-0.064-0.57l0.373-0.46
					l0.122,1.089l-0.139,0.179L37.541,12.282z M38.025,12.815l0.123,1.089l-0.466-0.372l-0.064-0.565l0.232-0.292L38.025,12.815z"/>
				<path fill="#ED1C24" d="M40.017,10.924l-0.372,0.465l-0.789,0.089l-0.465-0.371L40.017,10.924z M38.926,12.821l0.064,0.567
					l-0.372,0.466l-0.123-1.091l0.14-0.175L38.926,12.821z M39.786,12.165l0.233,0.185l-0.186,0.233l-0.894,0.101l-0.233-0.186
					l0.186-0.232L39.786,12.165z M40.334,13.741l-1.626,0.184l0.371-0.466l0.789-0.089L40.334,13.741z M39.794,12.025l-0.064-0.567
					l0.373-0.46l0.122,1.085l-0.139,0.179L39.794,12.025z"/>
			</g>
		</g>
	</g>
</g>
</svg>
