<?xml version="1.0" encoding="utf-8"?>
<!-- Generator: Adobe Illustrator 15.1.0, SVG Export Plug-In . SVG Version: 6.00 Build 0)  -->
<!DOCTYPE svg PUBLIC "-//W3C//DTD SVG 1.1//EN" "http://www.w3.org/Graphics/SVG/1.1/DTD/svg11.dtd">
<svg version="1.1" xmlns="http://www.w3.org/2000/svg" xmlns:xlink="http://www.w3.org/1999/xlink" x="0px" y="0px"
	 width="53.858px" height="45.354px" viewBox="0 0 53.858 45.354" enable-background="new 0 0 53.858 45.354" xml:space="preserve">
<g id="base">
	<path id="front-base_1_" fill="#0B75BC" stroke="#0B75BC" stroke-width="0.3125" d="M0.943,44.132
		C9.675-3.162,6.286,1.453,15.21,1.275H38.65c8.926,0.177,5.535-4.438,14.266,42.856H0.943z"/>
</g>
<g id="front-torso">
	<defs>
		<path id="SVGID_1_" d="M1.283,43.849c1.95-10.578,3.306-18.626,4.296-24.511c2.773-16.462,3-17.807,6.399-17.807h29.902
			c3.4,0,3.627,1.344,6.396,17.794l0.026,0.158c0.987,5.863,2.338,13.882,4.271,24.365H1.283z"/>
	</defs>
	<clipPath id="SVGID_2_">
		<use xlink:href="#SVGID_1_"  overflow="visible"/>
	</clipPath>
	<g id="logo" clip-path="url(#SVGID_2_)">
		<g id="splats">
			<path fill-rule="evenodd" clip-rule="evenodd" fill="#F58232" d="M14.136,20.558c0.022-0.425-0.551-0.584-0.471,0
				C13.757,20.695,14.044,20.695,14.136,20.558z M10.63,23.959c0.025,0.252,0.379,0.402,0.628,0.262
				C11.224,23.862,10.866,23.699,10.63,23.959z M10.63,28.669c0.102,0.158,0.449-0.134,0.367-0.262
				C10.895,28.249,10.547,28.541,10.63,28.669z M19.055,22.755 M16.177,21.343c-0.772-0.497-1.86-0.448-2.617-0.209
				c-0.083,0.556-0.548,0.464-0.994,0.576c-0.26,0.065-0.39-0.877-0.681-0.576c-0.662,0.686,0.589,0.556,0.576,0.837
				c-0.013,0.274-0.277,0.337-0.366,0.576c-0.165,0.438-0.004,0.864-0.052,1.255c-0.067,0.073-0.284,0.011-0.314,0.105
				c-0.07,0.223,0.177,0.346,0.209,0.575c-0.204,0.25-0.373,0.534-0.628,0.732c0.117,0.145,0.263,0.34,0.314,0.472
				c0.124,0.323,0.298,1.017,0.261,1.36c-0.011,0.1-0.18,0.27-0.157,0.366c0.048,0.199,0.58,0.324,0.628,0.523
				c0.023,0.097-0.178,0.269-0.157,0.366c0.048,0.227,0.474,0.522,0.68,0.628c0.178,0.091,0.688-0.018,0.785,0.157
				c0.054,0.098-0.22,0.326-0.157,0.418c0.112,0.161,0.596,0.054,0.785,0c0.119-0.034,0.296-0.259,0.419-0.262
				c0.135-0.004,0.336,0.252,0.471,0.262c0.112,0.009,0.309-0.175,0.419-0.156c0.101,0.018,0.212,0.27,0.314,0.262
				c0.138-0.011,0.228-0.414,0.366-0.419c0.111-0.004,0.211,0.356,0.314,0.313c0.108-0.045-0.07-0.377,0-0.471
				c0.057-0.076,0.271-0.113,0.366-0.104c0.117,0.011,0.319,0.271,0.419,0.209c0.089-0.055-0.065-0.336,0-0.418
				c0.151-0.188,0.777-0.033,0.942-0.21c0.117-0.126,0.02-0.53,0.104-0.68c0.15-0.267,0.978-0.48,0.942-0.785
				c-0.01-0.087-0.289-0.073-0.314-0.157c-0.062-0.202,0.466-0.527,0.418-0.732c-0.021-0.092-0.267-0.128-0.314-0.21
				c-0.073-0.129-0.026-0.515,0.157-0.575c0.139,0,0.299,0.02,0.366-0.053c0.102-0.188-0.02-0.191-0.052-0.366
				c0.211-0.05,0.417-0.106,0.628-0.156c-0.005-0.215,0.209-0.21,0.157-0.472c-0.27-0.192-0.569-0.041-0.889,0.053
				c-0.053-0.104-0.231-0.083-0.209-0.262c0.311-0.226-0.017-0.471-0.104-0.575C18.613,22.821,16.965,21.85,16.177,21.343
				C15.405,20.846,16.965,21.85,16.177,21.343z M18.584,22.755"/>
			<path fill="#4FC6E0" d="M44.26,26.988c0,0.319-0.221,0.584-0.506,0.584s-0.522-0.265-0.522-0.584s0.128-0.609,0.413-0.609
				S44.26,26.669,44.26,26.988z"/>
			<path fill="#4FC6E0" d="M40.563,17.239c-0.098,0.438-0.551,1.015-0.938,0.929c-0.387-0.085-0.532-0.794-0.436-1.233
				c0.097-0.438,0.468-0.735,0.855-0.65C40.431,16.37,40.659,16.8,40.563,17.239z"/>
			<path fill="#4FC6E0" d="M43.989,22.936c-0.116,0-1.049,0.191-1.611-0.747c-0.116-0.193-0.071-0.342,0.08-0.597
				c0.271-0.457,0.887-0.8,1.063-0.8c0.293,0,0.71-0.059,0.71-0.335s-0.417-0.402-0.71-0.402c-0.192,0-0.841,0.682-1.485,0.504
				c-0.497-0.137-0.805-0.352-0.729-0.837c0.036-0.232,0.264-0.285,0.386-0.298c0.281-0.029,0.689-0.361,0.492-0.671
				c-0.258-0.405-0.705,0.227-0.945,0.283c-0.116,0.027-0.575-0.125-0.757-0.2c-0.4-0.164-0.877-0.407-1.681-0.407
				c-1.916,0-3.505,1.745-3.505,3.825c0,1.188,0.533,2.258,1.239,2.71c1.625,1.04,0.646,1.741,0.447,2.289
				c-0.063,0.175,0.043,0.716,0.207,0.716s0.429-0.298,0.429-0.574c0-0.121-0.08-1.317,0.621-1.489
				c0.259-0.063,1.061-0.208,1.326,0.045c0.225,0.214,0.164,0.913,0.164,1.101c0,0.328,0.018,0.583,0.259,0.583
				s0.407-0.255,0.407-0.583c0-0.214-0.552-1.002-0.358-1.434c0.104-0.232,0.551-0.276,0.807-0.262
				c0.402,0.023,0.521,0.486,0.521,0.555c0,0.302,0.313,0.67,0.624,0.67s0.467-0.368,0.467-0.67s-0.405-0.306-0.561-0.425
				c-0.156-0.12-0.289-0.435-0.34-0.834c-0.083-0.651,0.08-1.111,0.411-1.324c0.26-0.166,0.701,0.13,0.843,0.221
				c0.276,0.178,0.8,0.521,1.18,0.521s0.874-0.232,0.874-0.612S44.369,22.936,43.989,22.936z"/>
			<path fill="#9AC43E" d="M13.401,13.331c0.216-0.063,0.429,0.003,0.584-0.249c0.278-0.453,0.123-1.155,0.042-1.311
				c-0.137-0.259-0.197-0.729,0.048-0.857c0.244-0.129,0.667,0.149,0.803,0.409c0.089,0.17-0.277,1.079,0.181,1.566
				c0.353,0.376,0.725,0.692,1.119,0.399c0.188-0.14-0.033-0.438-0.079-0.552c-0.105-0.262,0.085-0.842,0.451-0.812
				c0.479,0.04-0.012,0.794,0.05,1.033c0.03,0.116,0.389,0.567,0.54,0.693c0.331,0.278,0.931,0.417,1.305,1.128
				c0.229,0.435,0.203,0.927,0.22,1.401c0.017,0.475-0.034,0.922-0.208,1.375c-0.168,0.439-0.534,0.715-0.86,1.079
				c-0.312,0.348-0.562,0.707-1,0.937c-0.49,0.257-0.931,0.707-1.41,0.708c-0.547,0.002-1.052-0.447-1.494-0.521
				c-0.742-0.126-1.361-0.166-1.621-0.491c-0.403-0.504-0.326-1.144-0.745-1.387c-0.241-0.14-0.824-0.013-1.075-0.114
				c-0.116-0.046-0.325-0.33-0.25-0.43c0.2-0.268,0.966-0.082,1.258-0.453c0.157-0.201,0.284-0.502,0.152-0.722
				c-0.208-0.345-0.507-0.245-0.567-0.212c-0.268,0.14-0.539-0.235-0.367-0.494c0.291-0.438,0.777-0.025,1.154-0.166
				c0.615-0.23,0.774-0.543,0.68-0.836c-0.047-0.147-0.062-0.371-0.28-0.545c-0.325-0.26-0.913-0.482-0.554-1.097
				c0.495-0.198,0.575,0.486,0.875,0.707C12.542,13.657,13,13.448,13.401,13.331z"/>
			<path fill="#9AC43E" d="M11.449,19.99c-0.225,0.115-0.49,0.055-0.593-0.145c-0.103-0.201-0.002-0.462,0.223-0.577
				c0.224-0.115,0.474-0.13,0.577,0.071C11.758,19.539,11.673,19.875,11.449,19.99z"/>
		</g>
		<g id="stains">
			<g>
				<path fill="#091724" d="M22.911,29.526c-0.089-0.886,0.02-0.896-0.07-1.782c-0.089-0.885-0.127-0.881-0.217-1.767
					c-0.028-0.276,0.178-0.49,0.454-0.519c0.276-0.027,0.605,0.133,0.633,0.408c0.003,0.034,0.043,0.091,0.04,0.123
					c-0.089,0.886-0.331,0.861-0.42,1.746c-0.09,0.886,0.109,0.906,0.02,1.792c-0.008,0.078-0.174,0.237-0.252,0.229
					C23.03,29.75,22.917,29.593,22.911,29.526z"/>
			</g>
			<g>
				<path fill="#091724" d="M21.467,28.247c-0.144-1.125-0.109-1.129-0.253-2.254c-0.035-0.276,0.115-0.5,0.391-0.535
					c0.276-0.036,0.517,0.138,0.552,0.414c0.005,0.043-0.044,0.078-0.049,0.119c-0.144,1.125-0.068,1.135-0.212,2.26
					c-0.015,0.117-0.135,0.161-0.252,0.146C21.545,28.385,21.479,28.342,21.467,28.247z"/>
			</g>
			<g>
				<path fill="#091724" d="M16.313,25.281c-0.179-0.979-0.181-0.979-0.36-1.958c-0.041-0.224,0.165-0.5,0.389-0.541
					c0.224-0.041,0.436,0.159,0.477,0.382c0.007,0.037-0.032,0.066-0.035,0.102c-0.002,0.021-0.015,0.019-0.017,0.039
					c-0.085,0.979,0.002,0.987-0.083,1.966c-0.007,0.078-0.099,0.133-0.177,0.126c-0.065-0.006-0.099-0.077-0.11-0.138
					C16.369,25.239,16.315,25.288,16.313,25.281z"/>
			</g>
			<g>
				<path fill="#091724" d="M34.32,24.425c-0.146-1.167-0.104-1.172-0.25-2.338c-0.034-0.276,0.194-0.54,0.471-0.574
					s0.459,0.177,0.493,0.454c0.005,0.042,0.109,0.081,0.104,0.121c-0.146,1.167-0.09,1.173-0.236,2.34
					c-0.015,0.115-0.216,0.237-0.331,0.223C34.474,24.638,34.332,24.518,34.32,24.425z"/>
			</g>
		</g>
		<g id="brick">
			<polygon fill="#EC2127" stroke="#091724" stroke-width="0.5102" stroke-linecap="round" stroke-linejoin="round" points="
				22.083,26.457 15.512,23.019 15.512,17.895 22.083,20.939 			"/>
			<polygon fill="#EC2127" stroke="#091724" stroke-width="0.5102" stroke-linecap="round" stroke-linejoin="round" points="
				37.239,21.246 22.083,26.457 22.083,20.939 37.239,16.676 			"/>
			<polygon fill="#EC2127" stroke="#091724" stroke-width="0.5102" stroke-linecap="round" stroke-linejoin="round" points="
				31.208,14.832 15.512,17.895 22.083,20.939 37.239,16.676 			"/>
			<g>
				<path fill="#EC2127" stroke="#091724" stroke-width="0.4252" stroke-linecap="round" stroke-linejoin="round" d="M31.446,15.812
					c0,0.388-0.755,0.702-1.688,0.702c-0.932,0-1.688-0.314-1.688-0.702c0-0.108,0-1.102,0-1.102h3.376
					C31.446,14.71,31.446,15.715,31.446,15.812z"/>
				
					<ellipse fill="#EC2127" stroke="#091724" stroke-width="0.4252" stroke-linecap="round" stroke-linejoin="round" cx="29.758" cy="14.71" rx="1.688" ry="0.702"/>
			</g>
			<g>
				<path fill="#EC2127" stroke="#091724" stroke-width="0.4252" stroke-linecap="round" stroke-linejoin="round" d="M34.538,16.577
					c0,0.388-0.755,0.702-1.688,0.702c-0.932,0-1.687-0.314-1.687-0.702c0-0.108,0-1.102,0-1.102h3.375
					C34.538,15.475,34.538,16.48,34.538,16.577z"/>
				
					<ellipse fill="#EC2127" stroke="#091724" stroke-width="0.4252" stroke-linecap="round" stroke-linejoin="round" cx="32.85" cy="15.475" rx="1.688" ry="0.702"/>
			</g>
			<g>
				<path fill="#EC2127" stroke="#091724" stroke-width="0.4252" stroke-linecap="round" stroke-linejoin="round" d="M28.102,16.5
					c0,0.396-0.779,0.717-1.74,0.717c-0.961,0-1.741-0.321-1.741-0.717c0-0.11,0-1.125,0-1.125h3.481
					C28.102,15.375,28.102,16.4,28.102,16.5z"/>
				
					<ellipse fill="#EC2127" stroke="#091724" stroke-width="0.4252" stroke-linecap="round" stroke-linejoin="round" cx="26.362" cy="15.375" rx="1.74" ry="0.716"/>
			</g>
			<g>
				<path fill="#EC2127" stroke="#091724" stroke-width="0.4252" stroke-linecap="round" stroke-linejoin="round" d="M31.194,17.548
					c0,0.396-0.779,0.717-1.74,0.717s-1.74-0.321-1.74-0.717c0-0.11,0-1.125,0-1.125h3.48
					C31.194,16.423,31.194,17.449,31.194,17.548z"/>
				
					<ellipse fill="#EC2127" stroke="#091724" stroke-width="0.4252" stroke-linecap="round" stroke-linejoin="round" cx="29.454" cy="16.423" rx="1.74" ry="0.716"/>
			</g>
			<g>
				<path fill="#EC2127" stroke="#091724" stroke-width="0.4252" stroke-linecap="round" stroke-linejoin="round" d="M24.601,17.213
					c0,0.404-0.795,0.731-1.776,0.731s-1.776-0.327-1.776-0.731c0-0.113,0-1.148,0-1.148h3.553
					C24.601,16.065,24.601,17.112,24.601,17.213z"/>
				
					<ellipse fill="#EC2127" stroke="#091724" stroke-width="0.4252" stroke-linecap="round" stroke-linejoin="round" cx="22.824" cy="16.065" rx="1.776" ry="0.731"/>
			</g>
			<g>
				<path fill="#EC2127" stroke="#091724" stroke-width="0.4252" stroke-linecap="round" stroke-linejoin="round" d="M27.693,18.544
					c0,0.404-0.796,0.731-1.777,0.731s-1.776-0.327-1.776-0.731c0-0.113,0-1.148,0-1.148h3.553
					C27.693,17.396,27.693,18.443,27.693,18.544z"/>
				
					<ellipse fill="#EC2127" stroke="#091724" stroke-width="0.4252" stroke-linecap="round" stroke-linejoin="round" cx="25.916" cy="17.396" rx="1.777" ry="0.731"/>
			</g>
			<g>
				<path fill="#EC2127" stroke="#091724" stroke-width="0.4252" stroke-linecap="round" stroke-linejoin="round" d="M21.241,18.184
					c0,0.412-0.812,0.746-1.813,0.746s-1.813-0.334-1.813-0.746c0-0.115,0-1.171,0-1.171h3.625
					C21.241,17.013,21.241,18.081,21.241,18.184z"/>
				
					<ellipse fill="#EC2127" stroke="#091724" stroke-width="0.4252" stroke-linecap="round" stroke-linejoin="round" cx="19.428" cy="17.013" rx="1.813" ry="0.746"/>
			</g>
			<g>
				<path fill="#EC2127" stroke="#091724" stroke-width="0.4252" stroke-linecap="round" stroke-linejoin="round" d="M24.191,19.516
					c0,0.412-0.812,0.746-1.813,0.746s-1.813-0.334-1.813-0.746c0-0.115,0-1.171,0-1.171h3.625
					C24.191,18.344,24.191,19.413,24.191,19.516z"/>
				
					<ellipse fill="#EC2127" stroke="#091724" stroke-width="0.4252" stroke-linecap="round" stroke-linejoin="round" cx="22.378" cy="18.344" rx="1.813" ry="0.746"/>
			</g>
		</g>
	</g>
	<g id="hoodie" clip-path="url(#SVGID_2_)">
		<polygon fill="#FFCE08" points="33.853,2.666 19.969,2.666 18.551,1.531 35.27,1.531 		"/>
		<path fill="#9AC43E" d="M19.616,2.241l1.033,0.785l6.282,3.775l6.194-3.775l1.117-0.785C32.708,2.845,21.149,2.845,19.616,2.241z"
			/>
		<g id="outline">
			<path fill="#091724" d="M48.54,41.806c-0.08-1.502-0.76-2.852-1.69-3.984c-0.473-0.563-1.034-1.063-1.677-1.442
				c-0.629-0.395-1.37-0.628-2.121-0.674l-0.018-0.001c-0.039-0.002-0.072,0.027-0.074,0.066c-0.002,0.026,0.012,0.05,0.032,0.063
				c0.585,0.37,1.133,0.775,1.642,1.224c0.459,0.391,0.809,1.247,0.343,1.118c-0.298-0.082-0.608-0.179-0.832-0.257
				c-0.994-0.343-1.915-0.88-2.678-1.601c-0.767-0.717-1.37-1.61-1.802-2.587c-0.428-0.971-0.71-2.051-0.786-3.091v-0.003
				l-0.012-0.333l-0.326-0.014c-3.87-0.17-7.736-0.278-11.612-0.284c-3.874,0.006-7.742,0.114-11.611,0.284l-0.329,0.014
				l-0.009,0.333v0.002c-0.076,1.043-0.358,2.121-0.785,3.092c-0.432,0.977-1.035,1.87-1.802,2.587
				c-0.783,0.749-2.359,1.501-3.411,1.855c-0.567,0.19-0.216-0.726,0.245-1.116c0.508-0.448,1.057-0.854,1.642-1.224
				c0.021-0.014,0.034-0.037,0.033-0.063c-0.002-0.039-0.036-0.068-0.074-0.066l-0.018,0.001c-0.751,0.046-1.493,0.279-2.122,0.674
				c-0.643,0.379-1.204,0.879-1.677,1.442c-0.931,1.133-1.611,2.482-1.691,3.984l0,0.015c-0.001,0.026,0.012,0.053,0.036,0.065
				c0.034,0.02,0.077,0.007,0.096-0.027c0.332-0.604,0.712-1.181,1.095-1.745c0.187-0.261,0.285-0.34,0.565-0.493
				c0.864-0.476,1.966-0.541,2.903-0.887c1.09-0.395,2.111-1.014,2.947-1.831c0.84-0.813,1.486-1.81,1.936-2.874
				c0.403-0.973,0.662-1.98,0.758-3.041c3.755-0.161,7.517-0.267,11.275-0.271c3.756,0.005,7.52,0.11,11.274,0.271
				c0.097,1.063,0.355,2.069,0.759,3.041c0.45,1.064,1.096,2.062,1.936,2.874c0.836,0.817,1.857,1.437,2.947,1.831
				c0.937,0.346,2.043,0.413,2.903,0.887c0.279,0.153,0.378,0.232,0.564,0.493c0.383,0.564,0.763,1.142,1.095,1.745
				c0.02,0.034,0.063,0.047,0.097,0.027c0.024-0.013,0.037-0.039,0.036-0.065L48.54,41.806z"/>
			<g>
				<g>
					<path fill="none" stroke="#091724" stroke-width="0.5669" stroke-linecap="round" d="M46.526,40.749
						c-0.144-0.016-0.286-0.033-0.426-0.054"/>
					<path fill="none" stroke="#091724" stroke-width="0.5669" stroke-linecap="round" stroke-dasharray="0.8476,1.1301" d="
						M44.989,40.49c-5.314-1.229-6.996-5.382-7.55-7.596"/>
					<path fill="none" stroke="#091724" stroke-width="0.5669" stroke-linecap="round" d="M37.316,32.35
						c-0.032-0.156-0.057-0.295-0.077-0.413c-0.132-0.005-0.272-0.011-0.423-0.017"/>
					<path fill="none" stroke="#091724" stroke-width="0.5669" stroke-linecap="round" stroke-dasharray="0.8854,1.1805" d="
						M35.641,31.877c-2.251-0.079-5.542-0.17-8.712-0.17c-3.456,0-7.056,0.108-9.295,0.19"/>
					<path fill="none" stroke="#091724" stroke-width="0.5669" stroke-linecap="round" d="M17.042,31.92
						c-0.15,0.006-0.291,0.012-0.422,0.017c-0.02,0.118-0.045,0.257-0.077,0.413"/>
					<path fill="none" stroke="#091724" stroke-width="0.5669" stroke-linecap="round" stroke-dasharray="0.8476,1.1301" d="
						M16.269,33.442c-0.711,2.377-2.632,6.18-7.947,7.162"/>
					<path fill="none" stroke="#091724" stroke-width="0.5669" stroke-linecap="round" d="M7.758,40.695
						c-0.14,0.021-0.281,0.038-0.425,0.054"/>
				</g>
			</g>
			<g>
				<path fill="#091724" d="M18.498,39.829c0.688,0.185,1.357,0.276,2.053,0.325c0.688,0.079,1.39,0.095,2.094,0.116
					c1.411,0.053,2.84-0.018,4.266-0.139c1.424-0.138,2.859-0.255,4.285-0.451c1.426-0.197,2.864-0.352,4.287-0.594
					c0.049-0.008,0.095,0.024,0.104,0.073c0.007,0.042-0.018,0.083-0.056,0.098l-0.007,0.003c-0.683,0.267-1.378,0.481-2.076,0.691
					c-0.696,0.215-1.398,0.418-2.109,0.573c-1.42,0.314-2.845,0.672-4.303,0.83c-1.455,0.182-2.923,0.314-4.423,0.318
					c-0.75,0.002-1.51-0.087-2.258-0.302c-0.738-0.209-1.5-0.603-2.021-1.229l-0.021-0.025c-0.064-0.076-0.053-0.189,0.023-0.253
					C18.383,39.826,18.444,39.815,18.498,39.829z"/>
			</g>
			<g>
				<path fill="#091724" d="M19.363,1.959c2.505,0.324,5.041,0.47,7.566,0.509c2.524-0.039,5.061-0.185,7.565-0.509
					c0.155-0.023,0.299,0.084,0.321,0.24c0.022,0.155-0.084,0.299-0.239,0.322c-0.006,0-0.017,0.001-0.021,0.002
					c-2.543,0.179-5.076,0.363-7.626,0.341c-2.55,0.022-5.084-0.162-7.626-0.341c-0.156-0.011-0.274-0.146-0.263-0.303
					c0.011-0.156,0.147-0.274,0.303-0.263C19.348,1.957,19.358,1.958,19.363,1.959z"/>
			</g>
			<path fill="#091724" d="M41.146,1.658c-1.095,0.518-2.108,1.247-2.947,2.147c-0.854,0.888-1.474,1.959-2.287,2.776
				c-0.787,0.851-1.86,1.331-3.003,1.582c-0.916,0.206-1.866,0.29-2.822,0.341c0.399-0.195,0.783-0.412,1.165-0.629
				c1.604-0.919,3.077-2.028,4.669-2.894l0.005-0.003c0.068-0.038,0.094-0.124,0.057-0.192c-0.036-0.066-0.117-0.092-0.185-0.061
				c-1.686,0.792-3.188,1.857-4.779,2.739c-0.792,0.433-1.611,0.864-2.448,1.048c-0.412,0.087-0.833,0.068-1.04-0.166
				c-0.217-0.222-0.299-0.692-0.275-1.056c0.041-0.313,0.353-0.635,0.694-0.892c0.345-0.262,0.732-0.492,1.128-0.711
				c0.793-0.437,1.619-0.836,2.435-1.263c1.624-0.845,3.279-1.803,4.509-3.24l0.004-0.005C36.1,1.09,36.089,0.956,36,0.879
				c-0.087-0.075-0.218-0.066-0.295,0.018c-1.215,1.331-2.827,2.212-4.437,3.056c-0.812,0.418-1.64,0.812-2.456,1.255
				c-0.407,0.224-0.812,0.459-1.2,0.749c-0.237,0.189-0.494,0.41-0.682,0.701c-0.188-0.292-0.445-0.512-0.682-0.701
				c-0.387-0.29-0.793-0.525-1.201-0.749c-0.816-0.443-1.645-0.837-2.456-1.255c-1.61-0.844-3.223-1.726-4.438-3.056
				c-0.077-0.084-0.208-0.093-0.295-0.018c-0.089,0.076-0.1,0.21-0.023,0.299l0.004,0.005c1.229,1.437,2.885,2.395,4.51,3.24
				c0.816,0.427,1.643,0.826,2.436,1.263c0.395,0.219,0.782,0.449,1.128,0.711c0.339,0.257,0.652,0.579,0.693,0.892
				c0.023,0.364-0.058,0.834-0.275,1.056c-0.208,0.234-0.628,0.253-1.041,0.166c-0.836-0.184-1.657-0.615-2.449-1.048
				c-1.593-0.881-3.095-1.947-4.781-2.739c-0.067-0.031-0.149-0.005-0.185,0.061c-0.037,0.069-0.012,0.155,0.057,0.192l0.005,0.003
				c1.592,0.865,3.066,1.974,4.67,2.894c0.382,0.217,0.766,0.434,1.166,0.629c-0.957-0.051-1.907-0.135-2.823-0.341
				c-1.143-0.251-2.217-0.731-3.004-1.582c-0.814-0.817-1.435-1.888-2.288-2.776c-0.839-0.9-1.853-1.629-2.947-2.147
				c-0.025-0.012-0.058-0.004-0.073,0.02c-0.017,0.026-0.01,0.062,0.017,0.079c1.011,0.653,1.929,1.422,2.682,2.334
				c0.768,0.9,1.351,1.952,2.203,2.884c0.866,0.931,2.087,1.498,3.298,1.721c1.218,0.235,2.745,0.096,3.656,0.182
				c0.175,0.017,0.476,0.102,0.687,0.154c0.455,0.101,1.088,0.159,1.551-0.293c0.084-0.093,0.143-0.191,0.199-0.289
				c0.056,0.098,0.114,0.196,0.199,0.289c0.462,0.452,1.095,0.394,1.55,0.293c0.211-0.052,0.512-0.137,0.687-0.154
				c0.911-0.087,2.438,0.054,3.655-0.182c1.21-0.223,2.431-0.79,3.297-1.721c0.851-0.933,1.435-1.984,2.201-2.884
				c0.753-0.912,1.672-1.681,2.683-2.334c0.026-0.017,0.033-0.052,0.017-0.079C41.204,1.654,41.171,1.646,41.146,1.658z"/>
		</g>
		<g>
			<path fill="#F8992F" d="M36.784,13.479c-0.441,0-0.84-0.101-1.193-0.302c-1.23-0.702-1.517-2.346-1.793-3.937
				c-0.196-1.125-0.418-2.401-0.944-2.793c-0.376-0.281-0.454-0.813-0.173-1.19c0.281-0.376,0.813-0.454,1.19-0.173
				c1.068,0.797,1.34,2.357,1.603,3.865c0.199,1.146,0.425,2.446,0.959,2.75c0.296,0.167,0.794,0.039,1.162-0.1
				c0.436-0.166,0.929,0.055,1.096,0.494s-0.055,0.93-0.494,1.097C37.687,13.383,37.215,13.479,36.784,13.479z"/>
			<path fill="#091724" d="M36.767,13.762c-0.465,0.047-1.177-0.071-1.654-0.313c-0.59-0.311-0.98-0.794-1.185-1.331
				c-0.438-1.06-0.318-2.117-0.502-3.09c-0.08-0.489-0.164-0.974-0.291-1.431c-0.064-0.227-0.142-0.448-0.242-0.635
				c-0.091-0.208-0.213-0.241-0.453-0.536c-0.204-0.294-0.258-0.637-0.168-0.962c0.051-0.162,0.118-0.304,0.24-0.441
				c0.053-0.07,0.251-0.243,0.39-0.289c0.302-0.135,0.667-0.137,0.964,0.018c0.072,0.044,0.144,0.078,0.212,0.136l0.145,0.119
				c0.097,0.093,0.215,0.201,0.295,0.306c0.708,0.863,0.909,1.924,1.089,2.903c0.184,0.982,0.263,2.002,0.618,2.865
				c0.096,0.201,0.219,0.396,0.361,0.442c0.137,0.062,0.38,0.031,0.597-0.023c0.227-0.039,0.406-0.19,0.796-0.167
				c0.313,0.025,0.604,0.197,0.789,0.45c0.09,0.112,0.16,0.304,0.184,0.409c0.032,0.171,0.027,0.344-0.013,0.492
				c-0.08,0.308-0.303,0.579-0.597,0.714c-0.486,0.207-1.011,0.348-1.558,0.365L36.767,13.762z M36.784,13.195
				c0.453-0.005,0.91-0.115,1.34-0.286c0.152-0.067,0.27-0.204,0.315-0.364c0.024-0.088,0.021-0.157,0.02-0.221
				c-0.034-0.143-0.049-0.167-0.102-0.253c-0.096-0.135-0.254-0.226-0.419-0.239c-0.081-0.046-0.369,0.089-0.632,0.155
				c-0.268,0.056-0.552,0.136-0.916,0.001c-0.361-0.154-0.501-0.455-0.625-0.694c-0.42-1.008-0.494-2.007-0.693-2.978
				c-0.18-0.958-0.411-1.946-1.01-2.622c-0.074-0.091-0.143-0.146-0.224-0.224l-0.147-0.116c-0.024-0.021-0.066-0.036-0.097-0.057
				c-0.139-0.069-0.306-0.057-0.438,0.008c-0.298,0.141-0.345,0.508-0.191,0.718c0.001,0.01,0.021,0.042,0.081,0.09l0.148,0.129
				c0.125,0.123,0.221,0.254,0.292,0.383c0.148,0.259,0.24,0.516,0.321,0.77c0.155,0.508,0.254,1.008,0.349,1.502
				c0.169,0.987,0.251,1.97,0.589,2.844c0.157,0.436,0.459,0.814,0.782,1.065c0.411,0.273,0.752,0.382,1.272,0.388L36.784,13.195z"
				/>
		</g>
		<g>
			<path fill="#F8992F" d="M17.025,14.126c-0.672,0-1.36-0.212-1.904-0.413c-0.44-0.163-0.666-0.652-0.503-1.093
				c0.163-0.441,0.652-0.667,1.093-0.503c1.248,0.461,1.601,0.276,1.659,0.235c0.323-0.23,0.296-1.446,0.277-2.334
				c-0.039-1.846-0.093-4.374,2.103-5.362c0.426-0.195,0.931-0.002,1.125,0.426c0.193,0.428,0.002,0.932-0.426,1.125
				c-1.089,0.49-1.143,1.813-1.101,3.775c0.033,1.544,0.064,3.003-0.991,3.756C17.957,14.022,17.495,14.126,17.025,14.126z"/>
			<path fill="#091724" d="M17.015,14.41c-0.589-0.015-1.196-0.17-1.733-0.366l-0.204-0.076c-0.117-0.043-0.141-0.067-0.216-0.102
				c-0.173-0.113-0.311-0.247-0.392-0.407c-0.187-0.313-0.18-0.729-0.014-1.035c0.164-0.332,0.509-0.539,0.861-0.574
				c0.172-0.023,0.373,0.02,0.511,0.071l0.393,0.127c0.26,0.074,0.528,0.135,0.773,0.141c0.105,0.009,0.268-0.032,0.235-0.032
				c0.044-0.043,0.071-0.13,0.102-0.261c0.172-1.036-0.011-2.202,0.032-3.351c0.01-1.138,0.166-2.426,1.027-3.43
				c0.21-0.244,0.457-0.46,0.726-0.638c0.301-0.16,0.454-0.362,1.05-0.38c0.935-0.028,1.649,1.122,1.173,1.981
				c-0.099,0.211-0.261,0.393-0.453,0.529l-0.231,0.14c-0.054,0.033-0.144,0.078-0.148,0.095c-0.096,0.079-0.225,0.234-0.292,0.411
				c-0.156,0.366-0.192,0.891-0.194,1.418c-0.023,1.073,0.209,2.198-0.049,3.478c-0.112,0.623-0.423,1.354-1.039,1.775
				c-0.575,0.412-1.315,0.532-1.909,0.486L17.015,14.41z M17.025,13.843c0.523-0.002,0.995-0.143,1.357-0.495
				c0.357-0.331,0.538-0.828,0.611-1.354c0.144-1.062-0.007-2.203,0.05-3.36c0.031-0.578,0.07-1.183,0.348-1.777
				c0.144-0.296,0.35-0.564,0.655-0.766c0.305-0.184,0.463-0.225,0.54-0.406c0.199-0.329-0.073-0.806-0.459-0.806
				c-0.104-0.043-0.417,0.109-0.618,0.235C19.288,5.25,19.087,5.412,18.913,5.6c-0.712,0.757-0.931,1.88-0.98,2.971
				c-0.07,1.113,0.113,2.218-0.09,3.442c-0.034,0.141-0.084,0.354-0.256,0.523c-0.277,0.21-0.43,0.152-0.605,0.17
				c-0.331-0.012-0.621-0.086-0.907-0.168L15.659,12.4c-0.127-0.043-0.193-0.055-0.295-0.047c-0.188,0.02-0.365,0.13-0.444,0.297
				c-0.094,0.179-0.091,0.381,0.008,0.546c0.043,0.09,0.121,0.144,0.169,0.19c0.052,0.023,0.153,0.079,0.165,0.077l0.195,0.069
				c0.528,0.179,1.032,0.305,1.578,0.312L17.025,13.843z"/>
		</g>
	</g>
</g>
</svg>
