<?xml version="1.0" encoding="utf-8"?>
<!-- Generator: Adobe Illustrator 15.1.0, SVG Export Plug-In . SVG Version: 6.00 Build 0)  -->
<!DOCTYPE svg PUBLIC "-//W3C//DTD SVG 1.1//EN" "http://www.w3.org/Graphics/SVG/1.1/DTD/svg11.dtd">
<svg version="1.1" xmlns="http://www.w3.org/2000/svg" xmlns:xlink="http://www.w3.org/1999/xlink" x="0px" y="0px"
	 width="130.394px" height="113.386px" viewBox="0 0 130.394 113.386" enable-background="new 0 0 130.394 113.386"
	 xml:space="preserve">
<g id="toroso">
	<path id="torso" inkscape:connector-curvature="0" fill="#EFF0ED" stroke="#605F61" stroke-width="0.3125" d="M7.984,63.537
		c8.732-47.294,5.343-42.679,14.268-42.856h23.44c8.926,0.177,5.535-4.438,14.264,42.856H7.984z"/>
	<g id="design_1_">
		<defs>
			<path id="clipping_mask_2_" inkscape:connector-curvature="0" d="M8.503,63.108c8.559-46.349,5.236-41.826,13.982-42h22.972
				c8.747,0.173,5.425-4.349,13.979,42H8.503z"/>
		</defs>
		<clipPath id="clipping_mask_4_">
			<use xlink:href="#clipping_mask_2_"  overflow="visible"/>
		</clipPath>
		<g id="chest_armor" clip-path="url(#clipping_mask_4_)">
			<g>
				<polygon points="8.502,35.805 14.829,38.648 22.048,29.118 22.2,28.171 25.089,23.865 26.127,22.805 19.065,15.43 				"/>
				<polygon points="48.876,15.43 41.814,22.805 42.853,23.865 45.742,28.171 45.893,29.118 53.113,38.649 59.439,35.805 				"/>
			</g>
			<linearGradient id="gradient_shading_1_" gradientUnits="userSpaceOnUse" x1="33.9707" y1="54.2954" x2="33.9707" y2="49.5121">
				<stop  offset="0" style="stop-color:#EFF0ED;stop-opacity:0"/>
				<stop  offset="1" style="stop-color:#605F61"/>
			</linearGradient>
			<path id="gradient_shading" fill="url(#gradient_shading_1_)" d="M49.317,52.76l-7.049-2.701l-4.266-0.76H29.94l-4.266,0.76
				l-7.05,2.701c0,0,11.469,1.535,15.347,1.535C37.848,54.295,49.317,52.76,49.317,52.76z"/>
			<g id="waist">
				<polyline fill="none" stroke="#A2A1A3" stroke-width="0.5669" stroke-linejoin="round" points="58.077,59.993 56.961,60.717 
					44.102,57.43 33.97,57.372 23.837,57.43 10.979,60.717 9.864,59.993 				"/>
				<polyline fill="none" stroke="#605F61" stroke-width="0.4252" stroke-linejoin="round" points="58.077,59.568 56.961,60.292 
					44.102,57.005 33.97,56.947 23.837,57.005 10.979,60.292 9.864,59.568 				"/>
				<polygon fill="none" stroke="#605F61" stroke-width="0.4252" stroke-linejoin="round" points="9.561,61.955 5.838,61.085 
					6.6,56.211 10.41,56.52 				"/>
				<polygon fill="none" stroke="#605F61" stroke-width="0.4252" stroke-linejoin="round" points="58.379,61.955 62.102,61.085 
					61.34,56.211 57.53,56.52 				"/>
			</g>
			<g id="chest_shading_2_">
				<path id="collar_1_" fill="#A2A1A3" d="M45.712,21.597c-0.027-0.027-0.071-0.028-0.099-0.002
					c-0.676,0.65-1.489,1.23-2.558,1.826c-0.893,0.489-1.864,0.904-2.886,1.232c-1.019,0.32-2.046,0.551-3.055,0.682
					c-0.787,0.105-1.826,0.226-2.885,0.226c-0.086,0-0.173-0.001-0.263-0.003c-1.143,0.018-2.292-0.109-3.144-0.223
					c-1.009-0.131-2.037-0.361-3.055-0.682c-1.021-0.328-1.993-0.742-2.887-1.232c-1.068-0.596-1.882-1.176-2.558-1.826
					c-0.028-0.025-0.072-0.025-0.099,0.002c-0.027,0.027-0.029,0.07-0.002,0.099c0.648,0.683,1.472,1.327,2.516,1.97
					c0.891,0.541,1.863,1.009,2.891,1.39c1.029,0.376,2.074,0.659,3.104,0.841c1.035,0.187,2.166,0.305,3.188,0.332
					c0.006,0.002,0.014,0.004,0.021,0.004c0.002,0,0.027-0.002,0.03-0.002c0.002,0,0.017,0.002,0.019,0.002
					c0.007,0,0.014-0.002,0.021-0.004c1.022-0.027,2.153-0.146,3.189-0.332c1.03-0.182,2.075-0.465,3.104-0.841
					c1.026-0.38,1.999-0.848,2.892-1.39c1.043-0.643,1.866-1.287,2.515-1.97C45.741,21.667,45.74,21.625,45.712,21.597z"/>
				<path fill="#A2A1A3" d="M57.862,49.289c0,0-3.074,1.266-4.635,1.727c-0.779,0.23-1.564,0.449-2.334,0.605
					c-0.361,0.076-0.82,0.141-1.018,0.123c-0.334-0.047-0.666-0.174-1.043-0.314c-1.475-0.584-3.123-1.504-4.514-1.951
					c-1.566-0.506-3.64-0.756-4.079-1.295c-0.389-0.475,1.406-6.346,1.406-6.346s1.451-5.006,1.918-5.275
					c0.451-0.26,3.976,0.826,5.3,1.303c1.043,0.376,3.043,1.619,4.15,1.568c0.678-0.031,1.877-0.391,2.803-2.215
					c0.414-0.814-0.758,0.425-0.758,0.425l-1.947,1.019l-3.715-1.68l-5.013-1.902c0,0-0.45-0.428-0.272-1.027l0.523-1.559
					l1.102-3.102c0.76-2.061,1.561-4.105,2.402-6.137c-0.271,0.514-2.035,4.35-2.035,4.35l-2.816,7.182
					c0,0.002-3.748,12.863-4.592,13.371c-0.951,0.572-4.27,0.541-4.701,0.535l0,0c0,0-0.016,0-0.025,0c-0.008,0-0.023,0-0.023,0l0,0
					c-0.432,0.006-3.752,0.037-4.701-0.535c-0.845-0.508-4.594-13.371-4.594-13.371l-2.816-7.182c0,0-1.763-3.836-2.034-4.35
					c0.843,2.031,1.644,4.076,2.401,6.137l1.103,3.102l0.524,1.559c0.178,0.6-0.272,1.027-0.272,1.027l-5.014,1.902l-3.714,1.68
					l-1.947-1.019c0,0-1.172-1.522-0.759-0.708c0.925,1.824,2.126,2.467,2.804,2.498c1.107,0.051,3.105-1.192,4.15-1.568
					c1.324-0.477,4.848-1.563,5.299-1.303c0.467,0.27,1.918,5.275,1.918,5.275s1.795,5.871,1.406,6.346
					c-0.439,0.539-2.512,0.789-4.078,1.295c-1.393,0.447-3.04,1.367-4.514,1.951c-0.379,0.141-0.709,0.268-1.044,0.314
					c-0.197,0.018-0.656-0.047-1.017-0.123c-0.771-0.156-1.556-0.375-2.334-0.605c-1.561-0.461-4.637-1.727-4.637-1.727L9.802,50.13
					l8.359,2.387l9.112-3.105h13.392l9.112,3.105l8.359-2.387L57.862,49.289z"/>
			</g>
			<path id="chest_outline_1_" d="M49.833,52.831c-0.732-0.047-2.17-0.573-3.834-1.183l-0.868-0.321
				c-1.956-0.729-3.979-1.483-5.862-1.608c-0.263-0.004-0.53-0.006-0.797-0.006c-0.918,0-1.838,0.021-2.67,0.038
				c-0.688,0.015-1.315,0.028-1.832,0.028s-1.145-0.014-1.832-0.028c-0.832-0.018-1.751-0.038-2.67-0.038
				c-0.267,0-0.534,0.002-0.798,0.006c-1.883,0.125-3.907,0.879-5.864,1.609l-0.865,0.32c-1.664,0.609-3.101,1.136-3.834,1.183
				L18,52.833c-1.788,0-7.986-2.431-8.249-2.534l0.191-0.564c0.687,0.239,6.432,2.477,8.021,2.477l0.103-0.004
				c0.643-0.041,2.106-0.576,3.655-1.144c2.127-0.778,4.769-1.745,6.618-1.92c-0.353-1.876-0.817-3.939-1.487-6.46
				c-0.579-2.157-1.256-4.392-2.013-6.641l-0.288-0.816c-3.988,0.924-5.693,1.869-7.341,2.782c-0.269,0.149-0.536,0.297-0.812,0.444
				c-0.399,0.213-1.013,0.468-1.665,0.468c-0.094,0-0.189-0.005-0.284-0.017c-1.024-0.122-1.924-1.438-1.962-1.495l0.477-0.357
				c0.253,0.324,0.944,1.16,1.559,1.232c0.068,0.008,0.137,0.012,0.205,0.012c0.556,0,1.102-0.246,1.377-0.393
				c0.239-0.127,0.802-0.439,0.802-0.439c1.679-0.93,3.415-1.892,7.474-2.813c-1.396-3.89-2.973-7.771-4.706-11.498l0.13-0.092
				c2.083,4.237,3.893,8.556,5.417,12.851c0.796,2.248,1.511,4.48,2.126,6.635c0.73,2.583,1.218,4.606,1.583,6.556
				c0.002-0.002,0.059-0.004,0.16-0.004c0.732,0,3.773,0.062,4.879,0.062c1.267,0,5.065-0.08,5.065-0.08
				c0.336-1.919,0.824-3.941,1.556-6.534c0.613-2.149,1.329-4.382,2.127-6.635c1.521-4.293,3.331-8.612,5.379-12.837l0.152,0.042
				c-1.719,3.764-3.295,7.645-4.671,11.572c4.041,0.884,5.775,1.846,7.453,2.776c0,0,0.568,0.315,0.803,0.439
				c0.275,0.147,0.821,0.393,1.377,0.393c0.068,0,0.137-0.003,0.205-0.012c0.612-0.072,1.304-0.908,1.519-1.225l0.509,0.311
				c-0.088,0.18-0.96,1.416-1.955,1.534c-0.095,0.011-0.189,0.017-0.283,0.017c-0.65,0-1.265-0.254-1.665-0.468
				c-0.275-0.146-0.542-0.294-0.811-0.444c-1.649-0.913-3.354-1.857-7.375-2.763l-0.095,0.341l-0.159,0.456
				c-0.757,2.247-1.434,4.481-2.014,6.641c-0.672,2.53-1.137,4.594-1.462,6.493c1.824,0.142,4.466,1.108,6.588,1.886
				c1.559,0.57,3.019,1.104,3.659,1.145l0.104,0.004c1.59,0,7.335-2.237,7.984-2.492l0.244,0.543
				c-0.279,0.141-6.489,2.571-8.266,2.571L49.833,52.831z"/>
			<g id="under_armor">
				<path id="left_shoulder" d="M6.159,37.068c0,0,6.781,1.188,7.375-0.709c2.094-8.884,4.34-9.572,4.396-16.938
					c-2.357-2.742-11.771-2.978-11.771-2.978V37.068z"/>
				<ellipse id="collar" cx="33.97" cy="19.318" rx="11.78" ry="5.313"/>
				<path id="right_shoulder" d="M50.011,19.421c0.056,7.366,2.302,8.053,4.396,16.938c0.594,1.897,7.375,0.709,7.375,0.709V16.443
					C61.782,16.443,52.368,16.679,50.011,19.421z"/>
			</g>
		</g>
		<g id="cammo_1_" clip-path="url(#clipping_mask_4_)">
			<path fill="#FFCD03" d="M26.022,25.354c0.742-0.235,1.971,0.516,2.69,0.812c0.529,0.219,0.806,0.399,0.99,0.934
				c0.156,0.453-0.363,1.11-0.545,1.287c-0.174,0.169-0.828,0.119-1.229,0.394c-0.511,0.35-0.938,1.371-0.701,1.52
				c0.423,0.265,0.181,0.431-0.102,0.421c-0.09-0.003-0.511,0.059-1.092-0.047c-0.342-0.062-0.86,0.569-1.249,0.497
				c-0.388-0.072,0.575-0.758,0.231-0.821c-0.556-0.102-0.971-0.253-1.097-0.269c-0.414-0.048,0.534-0.738,1.303-1.131
				c0.503-0.258,0.402-0.306,0.843-0.66c0.441-0.354-0.594-0.3-0.37-0.82c0.269-0.621,0.214-0.616-0.078-0.842
				S25.465,25.53,26.022,25.354z"/>
			<path fill="#FFCD03" d="M24.537,42.537c-0.577,1.005-0.911,2.173-1.97,1.702c-0.956-0.426,0.362-1.797,0.037-2.792
				c-0.325-0.994-1.687-1.03-1.166-1.938c0.576-1.005,1.456-1.521,2.514-1.05c0.956,0.425,0.583,1.188,1.024,2.137
				C25.353,41.408,25.057,41.629,24.537,42.537z"/>
			<path fill="#FFCD03" d="M41.646,33.726c-0.458,0.43-0.659,0.516-1.21,0.817c-0.551,0.302-0.31,0.743-0.86,1.044
				c-0.553,0.303-1.473-1.378-2.026-1.075c-0.553,0.303-0.227,0.853-0.857,0.847c-0.572-0.006-0.022-0.812-0.502-1.124
				s-1.714,0.772-1.881,0.225c-0.213-0.696,0.856-0.797,1.023-1.505c0.166-0.708,0.47,0.092,1.027-0.376
				c0.537-0.451,1.34-0.656,2.04-0.677c0.702-0.021-0.886-1.488-0.185-1.509c0.702-0.021,0.255,0.093,0.893-0.202
				c0.619-0.287,0.357,0.099,0.808-0.415c0.452-0.514,0.794-0.213,1.246-0.728c0.451-0.515,0.457-0.124,1.14-0.07
				c0.582,0.046,0.951-0.346,1.107,0.217s-0.141,0.801-0.286,1.367c-0.2,0.781-0.921,0.521-1.14,1.297
				C41.711,32.818,42.234,33.174,41.646,33.726z"/>
			<path fill="#FFCD03" d="M54.354,42.35c-0.327,0.289-0.392,0.976-0.828,0.976c-0.438,0-0.438-0.259-0.876-0.259
				s-1.028,0.171-1.357-0.118c-0.289-0.255-0.369-0.933-0.369-1.318c0-0.385,0.639-0.429,0.927-0.684
				c0.328-0.289,0.36-0.603,0.797-0.603c0.438,0,0.438-0.202,0.876-0.202s0.149,0.881,0.478,1.17
				c0.29,0.254-0.278,0.059-0.203,0.437C53.873,42.131,54.643,42.095,54.354,42.35z"/>
			<path fill="#FFCD03" d="M51.817,50.406c-0.271,0.302-0.781,0.276-1.187,0.276s-0.405-0.086-0.812-0.086
				c-0.407,0-0.407,0.043-0.814,0.043c-0.406,0-0.479-0.325-0.751-0.627c-0.303-0.335-1.206-0.395-1.206-0.846
				s0.319-0.451,0.319-0.903s-0.148-1.17,0.152-1.506c0.271-0.302,1.077-0.45,1.482-0.45s0.405,1.196,0.812,1.196
				c0.407,0,0.407-0.782,0.814-0.782c0.406,0,1.2-0.259,1.473,0.044c0.302,0.334-1.405,1.046-1.405,1.496
				c0,0.452-0.124,0.747,0.035,1.17C50.97,50.074,52.119,50.07,51.817,50.406z"/>
		</g>
		<g id="battle_scars" clip-path="url(#clipping_mask_4_)">
			<path fill="#C8C0B4" d="M14.433,53.215l0.693,0.005l-0.657,0.385c-0.747,0.206-1.491,0.43-2.246,0.606
				c0.558-0.239,1.106-0.506,1.654-0.769l-0.652-0.232L14.433,53.215z"/>
			<polygon fill="#C8C0B4" points="48.737,38.357 47.533,38.255 47.592,38.255 46.415,38.538 46.511,38.479 46.167,38.955 
				45.72,39.572 45.789,38.818 45.854,38.084 45.957,38.226 44.496,37.595 46.048,37.943 46.14,37.964 46.151,38.084 46.216,38.818 
				45.837,38.681 46.244,38.256 46.291,38.207 46.341,38.197 47.531,37.97 47.571,37.963 47.591,37.97 			"/>
		</g>
		<g id="dirt" clip-path="url(#clipping_mask_4_)">
			<path fill="#692E14" d="M53.957,54.567c0.137-0.03,0.178-0.199,0.079-0.253c-0.042-0.129-0.233-0.213-0.339-0.176
				c-0.14,0.13-0.141,0.298-0.037,0.414C53.742,54.664,53.848,54.651,53.957,54.567z"/>
			<path fill="#692E14" d="M55.117,53.333c-0.002-0.053-0.011-0.182,0.065-0.229c0.071,0.018,0.206,0.025,0.234,0.097
				c0.021,0.075-0.044,0.158-0.124,0.157C55.225,53.415,55.161,53.403,55.117,53.333z"/>
			<path fill="#692E14" d="M15.635,49.195c-0.004-0.146,0.267-0.258,0.536-0.29c0.16,0.06,0.347,0.178,0.349,0.46
				c-0.083,0.048-0.246,0.384-0.505,0.452C15.8,49.655,15.591,49.423,15.635,49.195z"/>
			<path fill="#692E14" d="M54.488,56.505c0.143,0.174,0.112,0.298-0.048,0.472c-0.109,0.163-0.192,0.089-0.276,0.034
				c-0.149-0.139-0.23-0.342-0.102-0.539C54.203,56.364,54.366,56.448,54.488,56.505z"/>
			<path fill="#692E14" d="M54.216,55.772c-0.155-0.108-0.212-0.163-0.188-0.241c0.066-0.181,0.197-0.251,0.325-0.207
				c0.085,0.034,0.204,0.224,0.129,0.334C54.493,55.812,54.305,55.786,54.216,55.772z"/>
			<path fill="#692E14" d="M16.8,48.371c0.033-0.236,0.209-0.159,0.351-0.052c0.154,0.143,0.181,0.221,0.09,0.434
				c-0.081,0.001-0.329,0.157-0.456,0.012C16.649,48.728,16.662,48.465,16.8,48.371z"/>
			<path fill="#692E14" d="M16.58,46.934c0-0.308-0.062-0.448-0.213-0.455c-0.155,0.009-0.242,0.192-0.264,0.317
				c0.047,0.211,0.134,0.438,0.292,0.356C16.496,47.272,16.571,47.089,16.58,46.934z"/>
			<path fill="#692E14" d="M53.367,56.199c0.089-0.212,0.064-0.313-0.104-0.472c-0.174-0.096-0.266-0.034-0.406,0.086
				c-0.099,0.219-0.034,0.311,0.119,0.348C53.16,56.375,53.264,56.322,53.367,56.199z"/>
			<path fill="#692E14" d="M15.741,48.444c-0.031-0.073-0.061-0.132-0.061-0.206c0.006-0.073,0.032-0.18,0.067-0.233
				c0.068-0.132,0.167-0.237,0.292-0.284c0.13-0.043,0.275-0.03,0.389-0.068c0.114-0.036,0.201-0.121,0.285-0.216
				c0.161-0.199,0.349-0.331,0.519-0.439c0.188-0.102,0.344-0.103,0.57-0.265l0.056,0.01c0.133,0.306-0.109,0.622-0.3,0.765
				c-0.222,0.138-0.454,0.203-0.708,0.208c-0.125,0.006-0.244,0.026-0.334,0.099c-0.089,0.073-0.145,0.201-0.204,0.293
				c-0.064,0.085-0.144,0.129-0.223,0.176c-0.07,0.028-0.163,0.074-0.292,0.178L15.741,48.444z"/>
			<path fill="#692E14" d="M17.698,45.87c-0.024-0.056,0.05-0.152,0.14-0.169c0.078-0.079,0.136-0.036,0.168,0.019
				c0.024,0.129-0.004,0.149-0.063,0.161C17.837,45.961,17.747,45.951,17.698,45.87z"/>
		</g>
	</g>
</g>
<g id="helmet">
	<path id="color-1_2_" d="M128.598,36.689h0.003V2.101h-11.578v25.234h9l0.354,7.961c-20.428,1.666-22.7,14.23-22.7,14.23
		l-7.015-2.4l-7.014,2.4c0,0-2.272-12.564-22.7-14.23l0.354-7.961h9V2.101H64.725v34.588h0.003
		c-0.009,8.92,0.002,19.378,0.002,19.378h63.866C128.596,56.068,128.607,45.61,128.598,36.689z"/>
	<g id="lines">
		<line fill="none" stroke="#A2A1A3" stroke-width="0.4252" x1="84.856" y1="29.322" x2="84.856" y2="3.311"/>
		<line fill="none" stroke="#A2A1A3" stroke-width="0.4252" x1="108.33" y1="29.322" x2="108.33" y2="3.311"/>
	</g>
	<path fill="#246EB7" d="M98.974,44.223c0.084-0.162,0.147-0.339,0.181-0.523l1.599-10.036l22.654-0.261
		c0.779,0,1.417-0.638,1.417-1.418c0,0,0.597-1.867,0.283-2.376c-0.208-0.337-0.779-0.283-1.559-0.283c0,0-22.449,0-23.229,0
		c0,0-3.633,0-3.666,0c-0.034,0-27.02,0-27.02,0c-0.779,0-1.352-0.054-1.559,0.283c-0.313,0.51,0.283,2.376,0.283,2.376
		c0,0.78,0.638,1.418,1.417,1.418l22.654,0.261L94.03,43.7c0.033,0.186,0.097,0.361,0.181,0.523"/>
	<path d="M94.21,44.223l-10.745,7.783c-0.145,0.105-0.203,0.299-0.13,0.471c0.085,0.197,0.314,0.289,0.513,0.205l12.744-5.458
		l12.745,5.458c0.164,0.07,0.36,0.02,0.47-0.131c0.127-0.174,0.088-0.418-0.087-0.545l-10.746-7.783c0,0-1.636-0.142-2.382-0.142
		S94.21,44.223,94.21,44.223z"/>
	<g id="speaker">
		<circle fill="#A2A1A3" cx="86.292" cy="53.696" r="0.875"/>
		<circle fill="#A2A1A3" cx="106.917" cy="53.697" r="0.875"/>
		<g>
			<polygon fill="#A2A1A3" points="93.074,55.008 94.518,55.008 94.801,52.383 93.924,52.808 			"/>
			<polygon fill="#A2A1A3" points="100.135,55.008 98.691,55.008 98.408,52.383 99.285,52.808 			"/>
		</g>
	</g>
	<g id="cammo">
		<path fill="#605F61" d="M91.859,9.308c-0.186,1.555-0.754,1.335-1.608,2.647s-0.242,3.111-1.707,2.559
			c-1.927-0.725-1.248-1.74-1.486-3.784c-0.196-1.688-0.564-2.118,0.706-3.248c1.152-1.024,1.49-0.341,3.006-0.061
			C91.902,7.631,91.992,8.194,91.859,9.308z"/>
		<path fill="#605F61" d="M106.586,22.122c-0.89,2.416-2.494-0.614-5.244-0.781c-0.5-1.833-2.185-1.677-3.428-4.033
			c-0.736-1.396,1.664-0.317,3.253-0.354c1.279-0.03,2.529,0.192,3.054,0.527C105.305,18.173,107.488,19.678,106.586,22.122z"/>
		<path fill="#605F61" d="M90.158,40.682c-0.568,1.227-1.047,2.356-2.119,1.533c-1.708-1.31-1.295-1.967-1.185-4.117
			c0.072-1.403,0.093-2.333,1.489-2.487c1.32-0.146,1.093,0.974,1.839,2.073C91.032,38.936,90.789,39.318,90.158,40.682z"/>
		<path fill="#605F61" d="M104.708,38.718c0.282,1.698,0.961,2.072-0.099,3.428c-0.696,0.892-1.518,0.236-2.145-0.706
			c-0.814-1.221-0.527-1.509-0.243-2.949c0.285-1.445,0.05-1.96,1.341-2.67C104.896,35.088,104.462,37.236,104.708,38.718z"/>
		<path fill="#605F61" d="M111.807,38.085c-0.379,0.729-0.65,1.004-1.451,0.82c-0.745-0.172-1.065-0.64-0.712-1.318
			c0.456-0.878,0.805-0.782,1.795-0.804C112.14,36.767,112.105,37.512,111.807,38.085z"/>
	</g>
</g>
<g id="legs">
	<g id="base">
		<rect x="36.771" y="66.391" fill="#EFF0ED" stroke="#605F61" stroke-width="0.3118" width="22.697" height="42.435"/>
		<rect x="8.489" y="66.391" fill="#EFF0ED" stroke="#605F61" stroke-width="0.3118" width="22.697" height="42.435"/>
	</g>
	<g id="right_leg_details">
		<defs>
			<path id="clipping_mask_1_" inkscape:connector-curvature="0" d="M59.355,108.719H36.884V66.498h22.471V108.719z"/>
		</defs>
		<clipPath id="clipping_mask_5_">
			<use xlink:href="#clipping_mask_1_"  overflow="visible"/>
		</clipPath>
		<polygon clip-path="url(#clipping_mask_5_)" points="59.355,108.719 36.884,108.719 36.884,66.964 44.919,66.964 45.938,80.871 
			59.355,88.219 		"/>
		<rect x="46.245" y="89.322" clip-path="url(#clipping_mask_5_)" fill="#FFCD03" width="3.75" height="19.625"/>
		<polygon clip-path="url(#clipping_mask_5_)" fill="#FFCD03" points="59.355,108.719 36.771,108.719 36.771,104.361 59.355,98.693 
					"/>
		<polygon clip-path="url(#clipping_mask_5_)" fill="#FFCD03" points="61.244,89.683 43.103,81.249 42.797,65.546 48.466,65.464 
			48.719,78.512 63.037,85.828 		"/>
		<path clip-path="url(#clipping_mask_5_)" fill="none" stroke="#EFF0ED" stroke-width="2.8347" d="M35.752,103.797
			c0,0,16.438-0.063,25.75-8.063"/>
		<g id="under_armor_1_" clip-path="url(#clipping_mask_5_)">
			<path stroke="#A2A1A3" stroke-width="0.4252" d="M35.159,89.538c-1.185,0.907-1.35,5.373,0,5.401
				c5.306,0.112,6.544-1.417,6.544-1.417l-0.991-3.134C40.711,90.388,38.547,90.967,35.159,89.538z"/>
			<path stroke="#A2A1A3" stroke-width="0.4252" d="M61.056,89.538c1.185,0.907,1.35,5.373,0,5.401
				c-5.306,0.112-6.544-1.417-6.544-1.417l0.991-3.134C55.503,90.388,57.667,90.967,61.056,89.538z"/>
			<path stroke="#A2A1A3" stroke-width="0.4252" d="M34.273,65.217l-0.151,23.248c0,0-0.467-0.74,2.256-3.962
				c2.862-3.386,3.544-9.119,5.173-14.982c0.617-2.221,6.514-2.399,8.805-2.399c7.418,0,9.946,2.864,9.946,2.864
				s0.188-4.607,0.188-4.769H34.273z"/>
		</g>
		<g id="knee_pad" clip-path="url(#clipping_mask_5_)">
			<path fill="none" stroke="#A2A1A3" stroke-width="0.5669" d="M53.64,96.447c-0.195,1.295-1.63,2.354-3.189,2.354h-4.379
				c-1.56,0-3.059-1.06-3.331-2.354c-0.272-1.294-0.975-3.413-1.559-4.708s0.213-2.354,1.772-2.354h10.33
				c1.56,0,2.356,1.06,1.772,2.354S53.835,95.153,53.64,96.447z"/>
		</g>
		<path clip-path="url(#clipping_mask_5_)" fill="#A2A1A3" d="M50.6,68.553c0.085,0.829,0.119,1.657,0.177,2.485l-0.117,2.474
			l-0.27,4.946c-0.106,1.65-0.203,3.295-0.395,4.952c-0.027,0.208-0.055,0.415-0.097,0.632c-0.018,0.099-0.053,0.239-0.093,0.34
			l-0.108,0.293l-0.457,1.161c-0.404,0.73-0.814,1.453-1.275,2.148l0.743-2.371c0.167-0.374,0.313-0.757,0.459-1.139l0.106-0.287
			c0.035-0.092,0.048-0.152,0.069-0.256c0.037-0.188,0.064-0.391,0.09-0.592c0.188-1.622,0.286-3.273,0.392-4.916l0.269-4.939
			l0.115-2.472C50.34,70.194,50.448,69.373,50.6,68.553z"/>
	</g>
	<g id="left_leg_details_1_">
		<defs>
			<path id="clipping_mask_3_" inkscape:connector-curvature="0" d="M8.602,108.719h22.471V66.498H8.602V108.719z"/>
		</defs>
		<clipPath id="clipping_mask_6_">
			<use xlink:href="#clipping_mask_3_"  overflow="visible"/>
		</clipPath>
		<polygon clip-path="url(#clipping_mask_6_)" points="8.602,108.719 31.073,108.719 31.073,66.964 23.038,66.964 22.019,80.871 
			8.602,88.219 		"/>
		<rect x="17.962" y="89.322" clip-path="url(#clipping_mask_6_)" fill="#FFCD03" width="3.75" height="19.625"/>
		<polygon clip-path="url(#clipping_mask_6_)" fill="#FFCD03" points="8.602,108.719 31.186,108.719 31.186,104.361 8.602,98.693 		
			"/>
		<polygon clip-path="url(#clipping_mask_6_)" fill="#FFCD03" points="6.713,89.683 24.854,81.249 25.16,65.546 19.491,65.464 
			19.238,78.512 4.92,85.828 		"/>
		<path clip-path="url(#clipping_mask_6_)" fill="none" stroke="#EFF0ED" stroke-width="2.8347" d="M32.205,103.797
			c0,0-16.438-0.063-25.75-8.063"/>
		<g id="under_armor_2_" clip-path="url(#clipping_mask_6_)">
			<path stroke="#A2A1A3" stroke-width="0.4252" d="M32.798,89.538c1.185,0.907,1.35,5.373,0,5.401
				c-5.306,0.112-6.544-1.417-6.544-1.417l0.991-3.134C27.246,90.388,29.41,90.967,32.798,89.538z"/>
			<path stroke="#A2A1A3" stroke-width="0.4252" d="M6.901,89.538c-1.185,0.907-1.35,5.373,0,5.401
				c5.306,0.112,6.544-1.417,6.544-1.417l-0.991-3.134C12.454,90.388,10.29,90.967,6.901,89.538z"/>
			<path stroke="#A2A1A3" stroke-width="0.4252" d="M33.683,65.217l0.151,23.248c0,0,0.468-0.74-2.256-3.962
				c-2.862-3.386-3.544-9.119-5.173-14.982c-0.617-2.221-6.514-2.399-8.805-2.399c-7.418,0-9.946,2.864-9.946,2.864
				s-0.188-4.607-0.188-4.769H33.683z"/>
		</g>
		<g id="knee_pad_1_" clip-path="url(#clipping_mask_6_)">
			<path fill="none" stroke="#A2A1A3" stroke-width="0.5669" d="M14.317,96.447c0.195,1.295,1.63,2.354,3.189,2.354h4.38
				c1.559,0,3.058-1.06,3.331-2.354c0.273-1.294,0.974-3.413,1.559-4.708s-0.213-2.354-1.772-2.354H14.672
				c-1.559,0-2.356,1.06-1.772,2.354S14.122,95.153,14.317,96.447z"/>
		</g>
		<path clip-path="url(#clipping_mask_6_)" fill="#A2A1A3" d="M17.357,68.553c-0.085,0.829-0.119,1.657-0.177,2.485l0.117,2.474
			l0.27,4.946c0.106,1.65,0.203,3.295,0.395,4.952c0.027,0.208,0.055,0.415,0.097,0.632c0.018,0.099,0.053,0.239,0.093,0.34
			l0.108,0.293l0.457,1.161c0.404,0.73,0.814,1.453,1.275,2.148l-0.743-2.371c-0.167-0.374-0.313-0.757-0.459-1.139l-0.106-0.287
			c-0.035-0.092-0.048-0.152-0.069-0.256c-0.037-0.188-0.064-0.391-0.09-0.592c-0.188-1.622-0.286-3.273-0.392-4.916l-0.269-4.939
			l-0.115-2.472C17.617,70.194,17.509,69.373,17.357,68.553z"/>
	</g>
	<g id="dirt_1_">
		<g>
			<g>
				<path fill="#692E14" d="M55.119,103.135c-0.262,0.03-0.4-0.176-0.408-0.408c-0.08-0.179,0.13-0.369,0.266-0.361
					c0.262-0.101,0.341,0.078,0.506,0.25C55.423,102.828,55.259,103.105,55.119,103.135z"/>
			</g>
			<g>
				<path fill="#692E14" d="M11.851,105.656c-0.199,0.135-0.302,0.138-0.442,0.007c-0.122-0.156-0.168-0.332,0.058-0.491
					c0.03-0.083,0.26-0.021,0.452,0.11C12.024,105.398,11.98,105.596,11.851,105.656z"/>
			</g>
			<g>
				<path fill="#692E14" d="M55.373,100.512c0.126-0.197,0.108-0.51-0.191-0.633c-0.225-0.12-0.382-0.046-0.487,0.191
					c-0.238,0.179-0.104,0.395,0.035,0.561C55.016,100.769,55.278,100.725,55.373,100.512z"/>
			</g>
			<g>
				<path fill="#692E14" d="M55.608,99.047c-0.06-0.127,0.036-0.203,0.188-0.256c0.075-0.023,0.229,0.011,0.219,0.148
					c0.051,0.113-0.04,0.184-0.186,0.242C55.735,99.197,55.581,99.16,55.608,99.047z"/>
			</g>
			<g>
				<path fill="#692E14" d="M54.191,104.305c0.125,0.032,0.219,0.123,0.197,0.256c-0.031,0.128-0.106,0.203-0.251,0.176
					c-0.14-0.004-0.223-0.129-0.169-0.255C53.996,104.363,54.06,104.278,54.191,104.305z"/>
			</g>
			<g>
				<path fill="#692E14" d="M13.411,103.329c-0.118-0.137-0.096-0.396,0.111-0.5c0.129-0.129,0.285-0.002,0.383,0.155
					c0.168,0.141,0.095,0.355,0.014,0.425C13.724,103.56,13.457,103.485,13.411,103.329z"/>
			</g>
			<g>
				<path fill="#692E14" d="M12.031,103.955c0.18,0.185,0.11,0.358-0.089,0.457c-0.143,0.096-0.322,0.188-0.439,0.03
					c-0.188-0.15-0.103-0.49,0.017-0.555C11.676,103.775,11.958,103.806,12.031,103.955z"/>
			</g>
			<g>
				<path fill="#692E14" d="M11.275,98.578c0.061,0.146,0.149,0.269,0.013,0.404c-0.094,0.116-0.225,0.104-0.327,0.014
					c-0.103-0.138-0.216-0.292-0.137-0.436C10.975,98.45,11.108,98.483,11.275,98.578z"/>
			</g>
			<g>
				<path fill="#692E14" d="M13.326,103.876c0.222,0.146,0.302,0.548,0.118,0.739c-0.165,0.196-0.472,0.332-0.814,0.173
					c-0.047-0.145,0.013-0.398,0.081-0.659C12.96,103.858,13.17,103.728,13.326,103.876z"/>
			</g>
			<g>
				<path fill="#692E14" d="M12.367,106.558c0.18-0.039,0.32,0.081,0.379,0.211c-0.048,0.153-0.136,0.284-0.372,0.304
					c-0.103,0.012-0.245-0.057-0.209-0.251C12.054,106.684,12.217,106.572,12.367,106.558z"/>
			</g>
			<g>
				<path fill="#692E14" d="M55.184,105.398c-0.119-0.091-0.084-0.313,0.048-0.467c0.149-0.142,0.359-0.14,0.433-0.011
					c0.174,0.117,0.072,0.345-0.051,0.482C55.506,105.53,55.259,105.538,55.184,105.398z"/>
			</g>
			<g>
				<path fill="#692E14" d="M56.159,103.364c0.151-0.038,0.227,0.047,0.305,0.152c0.042,0.154-0.043,0.255-0.12,0.273
					c-0.169,0.054-0.24,0.04-0.29-0.12C55.996,103.566,56.003,103.411,56.159,103.364z"/>
			</g>
			<g>
				<path fill="#692E14" d="M12.616,103.4c-0.192,0.121-0.331-0.095-0.486-0.309c-0.135-0.198-0.234-0.57-0.057-0.71
					c0.181-0.136,0.413,0.008,0.54,0.318C12.743,102.907,12.691,103.251,12.616,103.4z"/>
			</g>
			<g>
				<path fill="#692E14" d="M10.857,101.057c0.027-0.22,0.093-0.324,0.356-0.307c0.125-0.063,0.342,0.111,0.3,0.337
					c0.115,0.24-0.2,0.408-0.346,0.357C10.976,101.491,10.758,101.331,10.857,101.057z"/>
			</g>
		</g>
	</g>
</g>
<g id="arms">
	<g id="right">
		<path id="arms_base" inkscape:connector-curvature="0" fill="#EFF0ED" stroke="#605F61" stroke-width="0.3125" d="M85.729,108.019
			c1.463-1.132,3.679-3.146,6.063-6.383c0.618-0.84,1.247-1.76,1.877-2.767l-5.685-5.685c0,0-1.88-1.736-1.794-4.534
			c0,0,1.354-14.479-0.677-17.774c-2.927-4.75-7.1-3.993-7.1-3.993c-10.11,0.864-10.317,9.087-10.317,9.087s-0.07,9.775-0.026,14.57
			c0.046,4.795,3.344,7.492,3.344,7.492l12.537,11.191C83.951,109.224,84.627,108.871,85.729,108.019L85.729,108.019z"/>
		<g id="right_arm">
			<defs>
				<path id="SVGID_1_" d="M71.602,97.821c-0.041-0.033-3.205-2.686-3.249-7.283C68.31,85.8,68.379,76.07,68.379,75.972
					c0.009-0.32,0.33-7.975,10.059-8.807c0.038-0.006,0.261-0.043,0.63-0.043c1.143,0,4.033,0.38,6.204,3.902
					c1.959,3.178,0.649,17.456,0.636,17.6c-0.09,2.911,1.803,4.694,1.884,4.769l5.517,5.517c-0.56,0.885-1.146,1.744-1.745,2.559
					c-2.376,3.226-4.578,5.221-6.008,6.326c-0.752,0.582-1.306,0.929-1.567,1.083L71.602,97.821z"/>
			</defs>
			<clipPath id="SVGID_2_">
				<use xlink:href="#SVGID_1_"  overflow="visible"/>
			</clipPath>
			<rect id="color-1" x="69.815" y="89.568" clip-path="url(#SVGID_2_)" fill="#FFCD03" width="25.688" height="21.688"/>
			<polygon clip-path="url(#SVGID_2_)" points="87.774,89.818 64.107,91.235 64.107,76.568 87.774,76.568 			"/>
			<path clip-path="url(#SVGID_2_)" d="M83.002,91.621c-0.923-0.06-6.982,6-6.923,6.924c5.819,2.047,11.514,9.405,11.514,9.405
				l4.815-4.815C92.409,103.134,85.05,97.44,83.002,91.621z"/>
			<path clip-path="url(#SVGID_2_)" stroke="#605F61" stroke-width="0.3125" d="M87.691,92.068l-4.862,2.539l-0.671-0.897
				c0,0-4.646,3.197-6.365,4.976c-0.869,0.115-3.102-1.034-3.102-1.034l-3.642,2.309l-3.601-9.175c0,0,9.457,0.317,12.35-0.777
				c0.54-0.204,1.823-1.419,1.823-1.419l7.702,0.338L87.691,92.068z"/>
			<g id="shadow_1_" clip-path="url(#SVGID_2_)">
				<path fill="#605F61" d="M84.084,84.107c-0.598,1.439-2.361,2.618-3.921,2.618h-5.36c-1.56,0-3.388-1.149-4.063-2.555
					l-1.652-3.432c-0.676-1.405-1.371-3.822-1.544-5.372l-0.645-5.741c-0.173-1.55,0.96-2.817,2.52-2.817h14.996
					c1.56,0,2.756,1.273,2.658,2.829l-0.355,5.718c-0.098,1.556-0.665,4.008-1.263,5.447L84.084,84.107z"/>
			</g>
			<g clip-path="url(#SVGID_2_)">
				<path fill="#EFF0ED" d="M84.084,82.733c-0.598,1.439-2.361,2.618-3.921,2.618h-5.36c-1.56,0-3.388-1.149-4.063-2.555
					l-1.652-3.432c-0.676-1.405-1.371-3.822-1.544-5.372l-0.645-5.741c-0.173-1.55,0.96-2.817,2.52-2.817h14.996
					c1.56,0,2.756,1.273,2.658,2.829l-0.355,5.718c-0.098,1.556-0.665,4.008-1.263,5.447L84.084,82.733z"/>
				<path fill="none" stroke="#000000" stroke-width="0.5669" d="M84.084,82.733c-0.598,1.439-2.361,2.618-3.921,2.618h-5.36
					c-1.56,0-3.388-1.149-4.063-2.555l-1.652-3.432c-0.676-1.405-1.371-3.822-1.544-5.372l-0.645-5.741
					c-0.173-1.55,0.96-2.817,2.52-2.817h14.996c1.56,0,2.756,1.273,2.658,2.829l-0.355,5.718c-0.098,1.556-0.665,4.008-1.263,5.447
					L84.084,82.733z"/>
			</g>
			
				<line clip-path="url(#SVGID_2_)" fill="none" stroke="#605F61" stroke-width="2.126" x1="77.341" y1="62.9" x2="77.341" y2="79.401"/>
			<g clip-path="url(#SVGID_2_)">
				<path fill="#A2A1A3" d="M83.382,70.512c-0.417,2.378-0.854,4.752-1.319,7.12c-0.118,0.595-0.214,1.179-0.362,1.782
					c-0.179,0.627-0.533,1.169-0.985,1.613c-0.456,0.44-1.013,0.776-1.626,0.96c-0.308,0.088-0.63,0.133-0.949,0.139l-0.905,0.004
					c-0.587-0.01-1.239,0.043-1.854-0.181c-0.606-0.196-1.156-0.542-1.605-0.985c-0.449-0.441-0.809-0.99-0.984-1.607
					c-0.159-0.6-0.28-1.179-0.415-1.771c-0.54-2.352-1.054-4.71-1.545-7.074c0.645,2.327,1.267,4.659,1.862,6.997l0.45,1.744
					c0.16,0.544,0.489,1.037,0.902,1.434c0.411,0.398,0.916,0.707,1.459,0.876c0.536,0.192,1.119,0.139,1.73,0.144
					c0.614-0.007,1.207,0.053,1.742-0.108c0.546-0.157,1.054-0.454,1.47-0.849c0.413-0.394,0.74-0.894,0.898-1.428l0.399-1.756
					C82.265,75.209,82.813,72.859,83.382,70.512z"/>
			</g>
		</g>
	</g>
	<g id="left_1_">
		<path id="arms_base_2_" inkscape:connector-curvature="0" fill="#EFF0ED" stroke="#605F61" stroke-width="0.3125" d="
			M105.95,107.988c1.101,0.852,1.777,1.205,1.777,1.205l12.537-11.191c0,0,3.298-2.697,3.344-7.492
			c0.044-4.795-0.026-14.57-0.026-14.57s-0.207-8.223-10.317-9.087c0,0-4.173-0.757-7.1,3.993
			c-2.031,3.295-0.677,17.774-0.677,17.774c0.086,2.798-1.794,4.534-1.794,4.534l-5.685,5.685c0.63,1.007,1.259,1.927,1.877,2.767
			C102.27,104.841,104.486,106.856,105.95,107.988L105.95,107.988z"/>
		<g id="left_arm">
			<defs>
				<path id="SVGID_3_" d="M120.076,97.79c0.041-0.033,3.205-2.686,3.249-7.283c0.043-4.737-0.026-14.468-0.026-14.565
					c-0.009-0.32-0.33-7.975-10.059-8.807c-0.038-0.006-0.261-0.043-0.63-0.043c-1.143,0-4.033,0.38-6.204,3.902
					c-1.959,3.178-0.649,17.456-0.636,17.6c0.09,2.911-1.803,4.694-1.884,4.769l-5.517,5.517c0.56,0.885,1.146,1.744,1.745,2.559
					c2.376,3.226,4.578,5.221,6.008,6.326c0.752,0.582,1.306,0.929,1.567,1.083L120.076,97.79z"/>
			</defs>
			<clipPath id="SVGID_4_">
				<use xlink:href="#SVGID_3_"  overflow="visible"/>
			</clipPath>
			<rect id="color-1_1_" x="96.175" y="89.537" clip-path="url(#SVGID_4_)" fill="#FFCD03" width="25.688" height="21.688"/>
			<polygon clip-path="url(#SVGID_4_)" points="103.904,89.787 127.571,91.204 127.571,76.537 103.904,76.537 			"/>
			<path clip-path="url(#SVGID_4_)" d="M108.675,91.589c0.923-0.06,6.982,6,6.923,6.924c-5.819,2.047-11.514,9.405-11.514,9.405
				l-4.815-4.815C99.269,103.103,106.627,97.409,108.675,91.589z"/>
			<path clip-path="url(#SVGID_4_)" stroke="#605F61" stroke-width="0.3125" d="M103.987,92.037l4.862,2.539l0.671-0.897
				c0,0,4.646,3.197,6.365,4.976c0.869,0.115,3.102-1.034,3.102-1.034l3.642,2.309l3.601-9.175c0,0-9.457,0.317-12.35-0.777
				c-0.54-0.204-1.823-1.419-1.823-1.419l-7.702,0.338L103.987,92.037z"/>
			<g id="shadow_2_" clip-path="url(#SVGID_4_)">
				<path fill="#605F61" d="M107.593,84.076c0.598,1.439,2.361,2.618,3.921,2.618h5.36c1.56,0,3.388-1.149,4.063-2.555l1.652-3.432
					c0.676-1.405,1.371-3.822,1.544-5.372l0.645-5.741c0.173-1.55-0.96-2.817-2.52-2.817h-14.996c-1.56,0-2.756,1.273-2.658,2.829
					l0.355,5.718c0.098,1.556,0.665,4.008,1.263,5.447L107.593,84.076z"/>
			</g>
			<g clip-path="url(#SVGID_4_)">
				<path fill="#EFF0ED" d="M107.593,82.702c0.598,1.439,2.361,2.618,3.921,2.618h5.36c1.56,0,3.388-1.149,4.063-2.555l1.652-3.432
					c0.676-1.405,1.371-3.822,1.544-5.372l0.645-5.741c0.173-1.55-0.96-2.817-2.52-2.817h-14.996c-1.56,0-2.756,1.273-2.658,2.829
					l0.355,5.718c0.098,1.556,0.665,4.008,1.263,5.447L107.593,82.702z"/>
				<path fill="none" stroke="#000000" stroke-width="0.5669" d="M107.593,82.702c0.598,1.439,2.361,2.618,3.921,2.618h5.36
					c1.56,0,3.388-1.149,4.063-2.555l1.652-3.432c0.676-1.405,1.371-3.822,1.544-5.372l0.645-5.741
					c0.173-1.55-0.96-2.817-2.52-2.817h-14.996c-1.56,0-2.756,1.273-2.658,2.829l0.355,5.718c0.098,1.556,0.665,4.008,1.263,5.447
					L107.593,82.702z"/>
			</g>
			
				<line clip-path="url(#SVGID_4_)" fill="none" stroke="#605F61" stroke-width="2.126" x1="114.336" y1="62.869" x2="114.336" y2="79.37"/>
			<g clip-path="url(#SVGID_4_)">
				<path fill="#A2A1A3" d="M108.295,70.481c0.569,2.347,1.117,4.697,1.638,7.054l0.399,1.756c0.158,0.534,0.486,1.034,0.898,1.428
					c0.416,0.395,0.924,0.691,1.47,0.849c0.535,0.161,1.128,0.102,1.742,0.108c0.611-0.005,1.194,0.049,1.73-0.144
					c0.543-0.169,1.048-0.478,1.46-0.876c0.412-0.396,0.741-0.89,0.901-1.434l0.45-1.744c0.596-2.338,1.218-4.67,1.862-6.997
					c-0.491,2.364-1.005,4.723-1.545,7.074c-0.135,0.592-0.256,1.171-0.415,1.771c-0.176,0.617-0.535,1.166-0.984,1.607
					c-0.449,0.443-0.999,0.789-1.605,0.985c-0.615,0.224-1.268,0.171-1.854,0.181l-0.905-0.004
					c-0.319-0.006-0.642-0.051-0.949-0.139c-0.613-0.184-1.17-0.52-1.625-0.96c-0.453-0.444-0.808-0.986-0.986-1.613
					c-0.148-0.604-0.244-1.187-0.362-1.782C109.15,75.233,108.712,72.859,108.295,70.481z"/>
			</g>
		</g>
	</g>
</g>
</svg>
