<?xml version="1.0" encoding="utf-8"?>
<!-- Generator: Adobe Illustrator 15.1.0, SVG Export Plug-In . SVG Version: 6.00 Build 0)  -->
<!DOCTYPE svg PUBLIC "-//W3C//DTD SVG 1.1//EN" "http://www.w3.org/Graphics/SVG/1.1/DTD/svg11.dtd">
<svg version="1.1" xmlns="http://www.w3.org/2000/svg" xmlns:xlink="http://www.w3.org/1999/xlink" x="0px" y="0px"
	 width="56.693px" height="56.693px" viewBox="0 0 56.693 56.693" enable-background="new 0 0 56.693 56.693" xml:space="preserve">
<g id="torso_base">
	<path id="torso" fill="#67879D" stroke="#67879D" stroke-width="0.3125" d="M2.361,49.801
		C11.093,2.507,7.704,7.122,16.628,6.944h23.44c8.926,0.177,5.535-4.438,14.264,42.857H2.361z"/>
</g>
<g id="design">
	<defs>
		<path id="clipping_mask_2_" d="M2.88,49.383c8.628-46.727,5.167-41.825,13.982-42h22.972
			c8.817,0.175,5.354-4.728,13.979,42H2.88z"/>
	</defs>
	<clipPath id="clipping_mask_1_">
		<use xlink:href="#clipping_mask_2_"  overflow="visible"/>
	</clipPath>
	<polygon id="neck" clip-path="url(#clipping_mask_1_)" fill="#F4D7B3" points="34.657,15.409 22.038,15.409 19.203,5.769 
		37.491,5.769 	"/>
	
		<path id="v-neck" clip-path="url(#clipping_mask_1_)" fill="#091724" stroke="#606062" stroke-width="0.4252" stroke-linejoin="round" d="
		M29.795,11.034l-0.197,2.5h-2.503l-0.197-2.5c0,0-5.358-0.188-7.695-5.266c0.892,9.265,4.959,22.578,4.959,22.578h8.369
		c0,0,4.068-13.313,4.96-22.578C35.154,10.846,29.795,11.034,29.795,11.034z"/>
	<g id="Wrinkles" clip-path="url(#clipping_mask_1_)">
		<path fill="#44484E" d="M29.289,17.336c0.259-0.432,0.632-0.844,1.095-1.199c0.825-0.651,1.749-1.043,2.461-1.311
			c0.743-0.278,1.5-0.491,2.232-0.697l0.349-0.099c0.203-0.062,0.401-0.124,0.594-0.191l-0.085,0.418
			c-0.132,0.085-0.239,0.152-0.35,0.21c-0.764,0.418-1.554,0.715-2.318,1.002l-0.311,0.116
			C32.135,15.89,30.175,16.451,29.289,17.336z"/>
		<path fill="#44484E" d="M28.489,23.522c-0.563,0.802-1.327,2.17-1.351,2.754c0,0,0.947-1.564,2.384-2.536
			c0.482-0.326,1.165-1.437,1.034-2.241C29.833,21.721,29.128,22.776,28.489,23.522z"/>
		<path fill="#44484E" d="M27.684,22.917c0.553-0.737-2.597-2.562-2.614-2.568c0.341,0.378,1.012,1.119,1.5,2.149
			C26.779,22.971,26.987,23.013,27.684,22.917z"/>
		<path fill="#44484E" d="M22.154,13.221c0.294,0.314,0.578,0.593,0.879,0.821c0.306,0.224,0.633,0.396,1,0.579
			c0.358,0.192,0.749,0.417,1.053,0.74c0.313,0.311,0.528,0.702,0.651,1.11c-0.833-0.375-1.208-0.875-1.994-1.299
			c-0.36-0.193-0.756-0.433-1.044-0.779C22.403,14.056,22.23,13.638,22.154,13.221z"/>
	</g>
	<g id="v-nek_outline" clip-path="url(#clipping_mask_1_)">
		<path fill="#BCCADD" d="M19.485,5.74c0.19,1.911,0.487,3.81,0.833,5.701c0.363,1.888,0.648,3.794,1.054,5.679
			c0.451,1.874,0.956,3.733,1.494,5.584c0.504,1.857,1.019,3.717,1.577,5.556l0,0l-0.281-0.208l8.369,0.029l-0.253,0.188v-0.001
			c1.097-3.688,2.023-7.433,2.913-11.178c0.861-3.75,1.627-7.532,2.018-11.349l0.564,0.055c-0.149,1.936-0.469,3.849-0.813,5.752
			c-0.331,1.907-0.824,3.779-1.28,5.656l-0.726,2.804l-0.64,2.826c-0.409,1.89-0.943,3.745-1.53,5.59l0,0
			c-0.025,0.104-0.115,0.177-0.217,0.186l-0.036,0.002c-1.395,0.107-2.79,0.089-4.185,0.131c-1.395-0.036-2.79-0.007-4.185-0.102
			l-0.035-0.002c-0.121-0.009-0.218-0.095-0.246-0.206l0,0c-1.097-3.71-2.08-7.443-2.953-11.209
			c-0.876-3.763-1.628-7.565-2.007-11.426L19.485,5.74z"/>
	</g>
	<g id="belt" clip-path="url(#clipping_mask_1_)">
		<g id="stripes" opacity="0.4">
			<path fill="none" stroke="#091724" stroke-width="0.7087" d="M40.14,46.496c-7.86,0.247-15.727,0.247-23.587,0 M39.771,48.321
				c-7.614,0.23-15.233,0.23-22.848,0"/>
		</g>
		<g>
			<path id="fill" fill="#091724" d="M39.673,44.806l15.164-0.822v6.283h-16.23L39.673,44.806z M17.021,44.806L1.856,43.984v6.283
				h16.23L17.021,44.806z"/>
			<path id="stripes_1_" fill="none" stroke="#44484E" stroke-width="0.7087" d="M54.074,45.409c0,0-6.418,0.945-13.934,0.945
				 M39.716,48.167c7.516,0,14.357-0.945,14.357-0.945 M2.619,45.409c0,0,6.418,0.945,13.935,0.945 M2.619,47.221
				c0,0,6.843,0.945,14.359,0.945"/>
		</g>
		<path id="outline" fill="none" stroke="#091724" stroke-width="0.7087" stroke-linecap="round" d="M54.333,44.125
			c0,0-11.043,0.991-25.986,0.991c-14.942,0-25.986-0.991-25.986-0.991 M16.455,44.948l1.065,5.461 M40.239,44.948l-1.064,5.461"/>
	</g>
	<g id="wrinkles" opacity="0.4" clip-path="url(#clipping_mask_1_)">
		<path fill="#091724" d="M13.529,21.66c0.492,0.958,1.162,1.702,1.912,2.372c0.758,0.66,1.58,1.261,2.427,1.859
			c0.834,0.617,1.706,1.223,2.488,1.985c0.392,0.378,0.76,0.802,1.044,1.292c0.273,0.489,0.447,1.083,0.315,1.616
			c-0.267-1.055-1.12-1.631-1.926-2.229c-0.837-0.575-1.72-1.131-2.585-1.746c-0.852-0.63-1.705-1.313-2.401-2.17
			C14.107,23.8,13.56,22.748,13.529,21.66z"/>
		<path fill="#091724" d="M10.828,26.959c1.157,2.152,2.364,4.152,3.781,6.045c0.675,0.969,1.385,1.946,2.259,2.771
			c0.871,0.825,1.885,1.488,2.942,2.048c2.129,1.098,4.318,2,6.575,2.732c2.243,0.771,4.535,1.424,6.898,1.975l-0.006,0.113
			c-2.453,0.161-4.913-0.231-7.267-0.937c-2.336-0.763-4.584-1.865-6.535-3.361c-0.977-0.742-1.91-1.522-2.851-2.295
			c-0.94-0.771-1.911-1.541-2.751-2.454c-1.627-1.863-2.738-4.186-3.153-6.599L10.828,26.959z"/>
		<path fill="#091724" d="M51.538,32.98c-0.693,0.527-2.017-0.724-3.421-0.656c1.201-0.815,1.835-1.154,2.832-3.851
			C51.569,30.795,51.441,31.557,51.538,32.98z"/>
		<path fill="#091724" d="M15.9,9.958c-0.138,0.577-0.671,1.02-1.208,1.25c-0.543,0.249-1.113,0.372-1.658,0.507
			c-0.547,0.125-1.083,0.25-1.559,0.471c-0.474,0.219-0.87,0.594-1.083,1.142c-0.015-0.581,0.336-1.195,0.865-1.517
			c0.515-0.343,1.096-0.499,1.65-0.636c0.559-0.126,1.109-0.224,1.631-0.371C15.052,10.649,15.558,10.434,15.9,9.958z"/>
		<path fill="#091724" d="M38.466,10.472c0.791-0.018,1.604,0.081,2.371,0.363c0.772,0.268,1.484,0.735,2.075,1.301
			c1.174,1.168,1.879,2.512,2.991,3.648c-0.715-0.353-1.352-0.875-1.896-1.45c-0.557-0.568-1.041-1.175-1.586-1.688
			C41.368,11.576,39.979,10.969,38.466,10.472z"/>
		<path fill="#091724" d="M11.654,43.684c-4.188-0.154-6.188-0.283-6.188-0.283s0.931-0.523,1.017-0.809
			c0.188-0.624-0.517-1.688-0.167-2.75C9.091,42.78,10.716,42.592,11.654,43.684z"/>
		<path fill="#091724" d="M49.272,43.424c-0.687,0.164-0.927-0.537-1.88-0.231c0.412-0.656,2.724-1.728,2.83-2.872
			c0.387,0.862-0.528,1.798-0.781,2.213c0.82-0.062,1.808-0.009,2.459,0.522C50.957,43.057,50.723,43.078,49.272,43.424z"/>
		<path fill="#091724" d="M36.68,31.977c0.476-0.589,1.7-1.289,2.867-1.998c0.709-0.431,2.386-1.764,2.962-2.387
			c0.601-0.603,1.213-1.208,1.892-1.728l0.066,0.074c-0.582,0.613-1.081,1.292-1.577,1.977c-0.482,0.695-0.842,1.511-1.469,2.125
			C40.815,30.676,39.322,31.679,36.68,31.977z"/>
	</g>
</g>
</svg>
