<?xml version="1.0" encoding="UTF-8" standalone="no"?>
<!-- Created with Inkscape (http://www.inkscape.org/) -->

<svg
   xmlns:dc="http://purl.org/dc/elements/1.1/"
   xmlns:cc="http://creativecommons.org/ns#"
   xmlns:rdf="http://www.w3.org/1999/02/22-rdf-syntax-ns#"
   xmlns:svg="http://www.w3.org/2000/svg"
   xmlns="http://www.w3.org/2000/svg"
   xmlns:sodipodi="http://sodipodi.sourceforge.net/DTD/sodipodi-0.dtd"
   xmlns:inkscape="http://www.inkscape.org/namespaces/inkscape"
   width="78.235161"
   height="78.214722"
   id="svg2"
   version="1.1"
   inkscape:version="0.47 r22583"
   sodipodi:docname="Neues Dokument 1">
  <defs
     id="defs4">
    <inkscape:perspective
       sodipodi:type="inkscape:persp3d"
       inkscape:vp_x="0 : 526.18109 : 1"
       inkscape:vp_y="0 : 1000 : 0"
       inkscape:vp_z="744.09448 : 526.18109 : 1"
       inkscape:persp3d-origin="372.04724 : 350.78739 : 1"
       id="perspective10" />
    <inkscape:perspective
       id="perspective2824"
       inkscape:persp3d-origin="0.5 : 0.33333333 : 1"
       inkscape:vp_z="1 : 0.5 : 1"
       inkscape:vp_y="0 : 1000 : 0"
       inkscape:vp_x="0 : 0.5 : 1"
       sodipodi:type="inkscape:persp3d" />
    <inkscape:perspective
       id="perspective2840"
       inkscape:persp3d-origin="0.5 : 0.33333333 : 1"
       inkscape:vp_z="1 : 0.5 : 1"
       inkscape:vp_y="0 : 1000 : 0"
       inkscape:vp_x="0 : 0.5 : 1"
       sodipodi:type="inkscape:persp3d" />
  </defs>
  <sodipodi:namedview
     id="base"
     pagecolor="#ffffff"
     bordercolor="#666666"
     borderopacity="1.0"
     inkscape:pageopacity="0.0"
     inkscape:pageshadow="2"
     inkscape:zoom="1.2020815"
     inkscape:cx="45.266729"
     inkscape:cy="40.775338"
     inkscape:document-units="px"
     inkscape:current-layer="layer1"
     showgrid="false"
     inkscape:window-width="1280"
     inkscape:window-height="725"
     inkscape:window-x="0"
     inkscape:window-y="24"
     inkscape:window-maximized="1" />
  <metadata
     id="metadata7">
    <rdf:RDF>
      <cc:Work
         rdf:about="">
        <dc:format>image/svg+xml</dc:format>
        <dc:type
           rdf:resource="http://purl.org/dc/dcmitype/StillImage" />
        <dc:title></dc:title>
      </cc:Work>
    </rdf:RDF>
  </metadata>
  <g
     inkscape:label="Ebene 1"
     inkscape:groupmode="layer"
     id="layer1"
     transform="translate(-224.78497,-420.87956)">
    <path
       style="fill:#aa0000"
       d="m 258.9547,420.91237 c -1.94467,0.7158 -8.98131,13.03679 -11.015,19.56514 -4.26267,13.68359 -3.6936,23.88656 1.46965,26.47489 2.94632,1.47699 3.03967,1.43685 5.5203,-0.90835 1.9226,-1.81764 1.9229,-1.95117 0.04,-2.94353 -1.65234,-0.87085 -3.91421,-4.73393 -4.46245,-9.70305 -0.84428,-7.65234 0.16402,-9.68074 1.92377,-15.66667 1.11015,-3.77628 3.20153,-9.04598 4.6594,-11.67918 1.45787,-2.6332 2.44036,-4.93146 2.18261,-5.12299 -0.0815,-0.0605 -0.18862,-0.064 -0.31827,-0.0163 z m 31.78997,7.1601 c -4.12351,0.56009 -7.09193,2.5875 -11.27061,7.75747 -3.3899,4.19408 -3.96629,4.5539 -4.73761,3.00413 -2.20801,-4.43638 -2.3685,-4.47169 -2.82379,-0.94209 -0.42358,3.28379 -0.54592,3.41542 -1.56629,1.5891 -1.74865,-3.12983 -3.99497,-3.67349 -2.75187,-0.6684 1.20153,2.90457 0.0526,4.34903 -1.99975,2.50585 -2.11453,-1.89899 -3.478,-1.31108 -2.34668,1.0092 0.86963,1.78359 0.67935,1.9887 -1.63626,1.75735 -1.43845,-0.14371 -2.83504,0.22441 -3.09875,0.83575 -0.26371,0.61135 -1.61711,1.14992 -3.04409,1.20674 -2.12581,0.0847 -2.67264,0.68898 -2.99979,3.22182 -0.36368,2.81554 -0.10156,7.41296 2.34031,10.52121 0.78328,0.99704 1.74592,1.51159 4.05783,1.17086 4.67713,-0.68932 6.44047,-0.11509 8.56868,2.84352 2.79477,3.88529 3.39341,10.10433 1.25079,12.98768 -2.33797,3.14624 -7.69016,3.28689 -17.4064,0.41741 -7.54184,-2.22732 -17.74066,-3.28211 -18.73388,-1.94553 -0.83656,1.12576 3.09703,3.14033 6.56467,3.39158 2.07889,0.15061 2.56054,0.52591 1.70268,1.26526 -0.65639,0.56571 -2.17823,1.1658 -3.37049,1.34961 -2.9481,0.45554 -4.72138,4.40023 -4.04372,8.99826 0.49426,3.35358 0.7851,3.70349 2.44794,2.89274 1.4104,-0.68768 1.96355,-0.49436 2.17813,0.84772 0.24436,1.5282 0.50359,1.40539 1.76839,-0.86079 l 1.4732,-2.64936 1.07916,2.17843 c 0.94232,1.93265 1.16344,1.98315 1.76515,0.40319 0.63886,-1.67748 0.80565,-1.69332 2.60151,-0.35182 1.80907,1.35134 1.91286,1.32457 1.91028,-0.75536 -0.003,-2.74414 1.33791,-3.06667 3.08607,-0.70752 0.72896,0.98374 1.91078,1.46657 2.62104,1.06673 0.71027,-0.39984 1.69285,-0.27017 2.15795,0.28212 0.62101,0.73746 1.13319,0.64367 2.00499,-0.32708 1.44133,-1.60494 3.36922,-0.92952 3.69595,1.28737 0.18609,1.26268 0.45133,1.31912 1.2386,0.25968 1.51914,-2.04433 2.56973,-1.8534 2.92369,0.54832 l 0.31895,2.16412 1.96884,-2.5013 c 2.10526,-2.65579 3.35744,-2.50977 3.7939,0.45165 0.30813,2.09072 1.4198,2.1646 2.87357,0.20825 0.78727,-1.05945 1.10595,-0.64039 1.47553,1.86731 0.51837,3.5172 2.03691,3.17409 2.90513,-0.64927 0.50467,-2.2224 0.53633,-2.2004 1.90964,0.0976 0.92571,1.549 1.31857,1.73537 1.19597,0.61343 -0.24356,-2.22856 1.44882,-3.54845 3.03008,-2.37342 2.10962,1.56766 2.87579,0.86626 2.41631,-2.25137 -0.43268,-2.93579 1.51035,-4.4609 3.17098,-2.48895 1.39171,1.65263 2.19886,0.71542 1.75438,-2.02746 -0.39163,-2.41665 -0.11059,-2.72851 2.48888,-2.83065 2.88153,-0.11322 2.90179,-0.16595 0.98408,-2.32457 -2.38428,-2.68381 -1.93625,-3.4216 2.61122,-4.14377 l 3.55079,-0.5549 -2.93932,-1.08301 c -1.61598,-0.59124 -2.99838,-1.48373 -3.07602,-2.01048 -0.12538,-0.85072 1.94006,-1.72337 4.04511,-1.70174 1.35738,0.0139 0.61605,-1.25524 -1.34927,-2.29656 -1.75784,-0.93139 -1.69761,-1.11932 0.7976,-2.51821 l 2.74208,-1.54128 -2.42286,-1.22229 c -0.93337,-0.4679 -2.65464,-1.1406 -2.884,-1.56497 -0.22104,-0.40898 1.0245,-0.53863 1.35638,-1.08436 0.65209,-1.07224 0.55358,-1.61827 -0.39347,-2.02679 -0.46831,-0.202 -2.17054,-0.43662 -2.10718,-0.79501 0.0628,-0.35551 1.87181,-0.84051 2.47294,-1.43844 1.55893,-1.5506 1.54243,-1.71738 -0.16079,-2.37696 -0.50236,-0.19454 -1.21782,-0.0422 -1.48691,-0.44419 -0.27399,-0.40933 -0.0777,-1.37307 0.0185,-1.80323 0.24217,-1.08252 -0.34137,-1.4343 -1.94545,-1.19789 -1.77516,0.26162 -2.28265,-0.29955 -1.49538,-1.35899 0.71308,-0.95958 1.21213,-1.89032 1.04591,-2.33369 -0.20027,-0.5343 -1.03849,-0.13123 -2.51429,0.0863 -1.3603,0.20049 -2.53889,-0.0807 -2.61909,-0.6248 -0.0802,-0.54412 0.29939,-1.05492 0.84351,-1.13511 0.54412,-0.0802 0.92974,-0.55003 0.85718,-1.04238 -0.0726,-0.49234 -1.99663,-0.43066 -4.27293,0.15594 l -4.13624,1.08341 3.2901,-2.53808 c 2.13418,-1.62878 3.63174,-3.89691 4.2582,-6.47128 0.53182,-2.18542 1.76056,-5.10501 2.73779,-6.4999 0.97724,-1.39489 1.43003,-2.48911 1.00132,-2.42188 -1.30418,0.20335 -5.04465,4.07017 -8.27955,8.54856 -1.68532,2.33317 -3.72417,4.33938 -4.55437,4.46174 -1.55981,0.22988 6.71569,-10.94433 9.95937,-13.43951 1.69615,-1.30474 1.6412,-1.35033 -0.84418,-1.01274 z m -56.45683,15.36469 c -1.52977,0.22545 -2.79545,3.16293 -2.0954,4.85743 0.2165,0.52403 0.16414,3.39313 -0.0998,6.3954 -0.40661,4.62432 -0.24348,5.57901 1.06586,6.16043 2.60004,1.15453 2.82078,0.73187 2.63724,-5.25317 -0.0976,-3.18228 -0.14974,-7.26834 -0.10652,-9.08152 0.0598,-2.50937 -0.26855,-3.24553 -1.40135,-3.07857 z m 4.271,2.40294 c -0.82181,0.17268 -1.45096,1.04791 -1.24865,2.45833 0.1757,1.22497 0.38066,4.53432 0.457,7.38731 0.12113,4.52615 0.37917,5.23644 2.06135,5.41355 3.97172,0.41818 4.20334,0.091 3.84199,-5.65183 -0.1993,-3.16729 -0.18692,-6.69429 0.0448,-7.84033 0.39652,-1.96086 0.33648,-1.98907 -0.77843,-0.13797 -1.12528,1.86829 -1.2068,1.86762 -1.98416,0.0397 -0.56722,-1.33375 -1.57209,-1.84147 -2.39391,-1.66879 z m 32.3633,-0.0948 c 1.05242,-0.17251 1.91949,-0.15163 2.47068,0.0465 2.19619,0.78945 3.89237,3.54546 2.78218,4.51762 -0.44271,0.38766 -0.95808,1.70043 -1.14939,2.91751 -0.19132,1.21708 -1.26063,3.53527 -2.36811,5.15033 -3.3118,4.82961 -6.15085,3.79961 -7.94125,-2.87282 -1.15875,-4.31845 -1.4915,-4.65907 -4.84379,-5.00347 -5.29004,-0.54346 -5.8016,-1.44737 -0.98902,-1.78108 2.31327,-0.1604 6.13042,-1.03873 8.46351,-1.94229 1.29151,-0.50016 2.52276,-0.8598 3.57519,-1.03231 z m -2.75409,3.81736 c -3.55326,0.52368 -3.5786,0.56245 -1.53244,2.24745 2.42063,1.99338 3.0052,1.99464 4.38033,0.14412 1.71232,-2.3043 0.92126,-2.94708 -2.84789,-2.39157 z m 4.11514,4.13164 c -0.56771,0.2211 -1.85074,1.08646 -2.66398,1.21389 -1.35595,0.21248 -4.26772,-0.201 -4.31295,0.0987 -0.0452,0.29965 2.7646,1.30473 4.11511,1.13083 1.07832,-0.13881 3.08204,-1.92281 3.15373,-2.39164 0.0179,-0.11721 -0.10267,-0.12544 -0.29191,-0.0517 z m -14.79835,3.53926 c 0.99859,-0.007 2.40821,0.26557 2.54652,1.20407 0.0315,0.21385 -3.87779,0.96679 -4.93843,0.56989 -0.52949,-0.19814 1.7736,-1.76946 2.39191,-1.77396 z m 15.50456,-1.74809 c -0.0806,0.0331 -0.2395,0.16613 -0.44909,0.38206 -0.89969,0.92688 -2.15704,1.76817 -3.67867,1.61615 -1.13087,-0.11299 -2.60044,-0.6309 -2.92727,-0.35827 -0.47258,0.39422 0.22277,1.45946 1.52663,2.42836 1.91704,1.42455 2.34635,1.23866 4.6042,-2.19477 0.82576,-1.25571 1.16584,-1.97292 0.9242,-1.87353 z m -48.18571,8.90214 c -0.48728,0.65575 8.67033,5.83779 11.82076,6.69173 2.10837,0.57148 2.84344,0.38429 3.64158,-1.01051 0.54804,-0.95773 0.87688,-1.8127 0.7296,-1.90802 -1.03532,-0.67004 -15.91948,-4.13984 -16.19194,-3.7732 z m 19.20251,2.98203 c -0.56131,0.1501 -1.24023,0.96785 -1.97795,2.43947 -1.12246,2.2391 -1.0456,2.47763 0.64471,2.87421 3.0764,0.72177 3.35492,0.47365 2.90088,-2.60707 -0.29206,-1.98163 -0.84597,-2.89958 -1.56764,-2.70661 z m 28.28102,-3.78903 c 0.14392,-0.10585 0.46036,0.27231 0.9724,1.02543 0.93651,1.3775 1.07649,2.57719 0.52139,3.96637 -0.66144,1.65538 -0.87551,1.3449 -1.33006,-1.95193 -0.26815,-1.94483 -0.34878,-2.90376 -0.16373,-3.03987 z m -25.13636,4.33637 c -0.58602,0.10658 -0.55677,0.96541 0.1263,2.57157 0.21181,0.49805 0.0625,1.51041 0.52071,1.81851 0.96048,0.64584 3.07788,0.31089 6.10089,0.45911 3.17116,0.15549 7.22775,0.98942 9.01939,1.82947 4.04277,1.89552 4.49722,1.83001 5.41942,-0.73554 0.6123,-1.70347 0.21449,-2.32746 -2.25627,-3.52115 -5.0905,-2.45936 -8.51263,-2.98506 -12.08659,-1.85124 -2.13247,0.67651 -4.08354,0.70477 -5.13955,0.0625 -0.79987,-0.48644 -1.35269,-0.69721 -1.7043,-0.63327 z m 26.18829,6.65901 0.47093,2.55236 c 0.25648,1.41607 -0.26579,3.88106 -1.18223,5.48095 -1.2109,2.11394 -2.6013,3.06833 -5.02301,3.42524 -1.83282,0.27012 -3.65566,0.0839 -4.07214,-0.41065 -0.45584,-0.5413 0.78688,-1.12677 3.13129,-1.47229 4.20437,-0.61964 5.58129,-2.0964 6.2505,-6.67014 l 0.42466,-2.90547 z m -28.14889,4.6856 c 1.17524,-0.24939 14.41386,3.71091 14.50621,4.33751 0.0451,0.30619 -0.25709,0.57028 -0.66908,0.60401 -1.13104,0.0926 -14.70907,-4.75651 -13.83713,-4.94152 z"
       id="path2830" />
  </g>
</svg>
