<?xml version="1.0" encoding="UTF-8" standalone="no"?>
<!-- Created with Inkscape (http://www.inkscape.org/) -->

<svg
   xmlns:dc="http://purl.org/dc/elements/1.1/"
   xmlns:cc="http://creativecommons.org/ns#"
   xmlns:rdf="http://www.w3.org/1999/02/22-rdf-syntax-ns#"
   xmlns:svg="http://www.w3.org/2000/svg"
   xmlns="http://www.w3.org/2000/svg"
   xmlns:xlink="http://www.w3.org/1999/xlink"
   xmlns:sodipodi="http://sodipodi.sourceforge.net/DTD/sodipodi-0.dtd"
   xmlns:inkscape="http://www.inkscape.org/namespaces/inkscape"
   width="58.375"
   height="70.28125"
   id="svg2"
   version="1.1"
   inkscape:version="0.48.2 r9819"
   sodipodi:docname="black_falcon.old.[973p43].svg">
  <defs
     id="defs4">
    <linearGradient
       inkscape:collect="always"
       id="linearGradient4011">
      <stop
         style="stop-color:#ffffff;stop-opacity:1;"
         offset="0"
         id="stop4013" />
      <stop
         style="stop-color:#ffffff;stop-opacity:0;"
         offset="1"
         id="stop4015" />
    </linearGradient>
    <linearGradient
       inkscape:collect="always"
       id="linearGradient3997">
      <stop
         style="stop-color:#ffffff;stop-opacity:1;"
         offset="0"
         id="stop3999" />
      <stop
         style="stop-color:#ffffff;stop-opacity:0;"
         offset="1"
         id="stop4001" />
    </linearGradient>
    <inkscape:path-effect
       effect="skeletal"
       id="path-effect4237"
       is_visible="true"
       pattern="M 0,5 C 0,2.24 2.24,0 5,0 7.76,0 10,2.24 10,5 10,7.76 7.76,10 5,10 2.24,10 0,7.76 0,5 z"
       copytype="single_stretched"
       prop_scale="1"
       scale_y_rel="false"
       spacing="0"
       normal_offset="0"
       tang_offset="0"
       prop_units="false"
       vertical_pattern="false"
       fuse_tolerance="0" />
    <clipPath
       id="clipPath2999"
       clipPathUnits="userSpaceOnUse">
      <path
         id="path3001"
         d="M 0,792 612,792 612,0 0,0 0,792 z"
         inkscape:connector-curvature="0" />
    </clipPath>
    <radialGradient
       gradientUnits="userSpaceOnUse"
       gradientTransform="matrix(0.75988491,-0.03632001,0.13155835,2.7524547,16.986326,-78.268899)"
       r="12.650181"
       fy="46.658409"
       fx="96.306435"
       cy="46.658409"
       cx="96.306435"
       id="radialGradient3972"
       xlink:href="#linearGradient3966"
       inkscape:collect="always" />
    <clipPath
       clipPathUnits="userSpaceOnUse"
       id="clipPath2999-4">
      <path
         inkscape:connector-curvature="0"
         d="M 0,792 612,792 612,0 0,0 0,792 z"
         id="path3001-0" />
    </clipPath>
    <linearGradient
       id="linearGradient3966">
      <stop
         id="stop3968"
         offset="0"
         style="stop-color:#c0ac02;stop-opacity:1;" />
      <stop
         id="stop3970"
         offset="1"
         style="stop-color:#fdea41;stop-opacity:0;" />
    </linearGradient>
    <radialGradient
       inkscape:collect="always"
       xlink:href="#linearGradient3997"
       id="radialGradient4003"
       cx="165.81134"
       cy="47.693741"
       fx="165.81134"
       fy="47.693741"
       r="3.8123069"
       gradientTransform="matrix(0.64374811,-0.18781617,0.31213841,1.069868,43.640483,27.15595)"
       gradientUnits="userSpaceOnUse" />
    <radialGradient
       inkscape:collect="always"
       xlink:href="#linearGradient3997"
       id="radialGradient4007"
       gradientUnits="userSpaceOnUse"
       gradientTransform="matrix(-0.64374811,-0.18781617,-0.31213841,1.069868,293.73143,27.15595)"
       cx="165.81134"
       cy="47.693741"
       fx="165.81134"
       fy="47.693741"
       r="3.8123069" />
    <radialGradient
       inkscape:collect="always"
       xlink:href="#linearGradient4011"
       id="radialGradient4017"
       cx="169.32254"
       cy="41.784931"
       fx="169.32254"
       fy="41.784931"
       r="6.982676"
       gradientTransform="matrix(0.31036379,-0.01814613,0.03701409,0.63307367,114.75293,21.468668)"
       gradientUnits="userSpaceOnUse" />
    <linearGradient
       id="linearGradient3966-2">
      <stop
         style="stop-color:#c0ac02;stop-opacity:1;"
         offset="0"
         id="stop3968-4" />
      <stop
         style="stop-color:#fdea41;stop-opacity:0;"
         offset="1"
         id="stop3970-5" />
    </linearGradient>
    <clipPath
       id="clipPath2999-4-8"
       clipPathUnits="userSpaceOnUse">
      <path
         id="path3001-0-8"
         d="M 0,792 612,792 612,0 0,0 0,792 z"
         inkscape:connector-curvature="0" />
    </clipPath>
    <radialGradient
       inkscape:collect="always"
       xlink:href="#linearGradient3966-2"
       id="radialGradient3972-4"
       cx="96.306435"
       cy="46.658409"
       fx="96.306435"
       fy="46.658409"
       r="12.650181"
       gradientTransform="matrix(0.75988491,-0.03632001,0.13155835,2.7524547,16.986326,-78.268899)"
       gradientUnits="userSpaceOnUse" />
    <clipPath
       clipPathUnits="userSpaceOnUse"
       id="clipPath2999-0">
      <path
         inkscape:connector-curvature="0"
         d="M 0,792 612,792 612,0 0,0 0,792 z"
         id="path3001-9" />
    </clipPath>
    <inkscape:path-effect
       fuse_tolerance="0"
       vertical_pattern="false"
       prop_units="false"
       tang_offset="0"
       normal_offset="0"
       spacing="0"
       scale_y_rel="false"
       prop_scale="1"
       copytype="single_stretched"
       pattern="M 0,5 C 0,2.24 2.24,0 5,0 7.76,0 10,2.24 10,5 10,7.76 7.76,10 5,10 2.24,10 0,7.76 0,5 z"
       is_visible="true"
       id="path-effect4237-4"
       effect="skeletal" />
  </defs>
  <sodipodi:namedview
     id="base"
     pagecolor="#ffffff"
     bordercolor="#666666"
     borderopacity="1.0"
     inkscape:pageopacity="0.0"
     inkscape:pageshadow="2"
     inkscape:zoom="4.4785584"
     inkscape:cx="-9.9327773"
     inkscape:cy="11.107989"
     inkscape:document-units="px"
     inkscape:current-layer="svg2"
     showgrid="false"
     fit-margin-top="0"
     fit-margin-left="0"
     fit-margin-right="0"
     fit-margin-bottom="0"
     inkscape:window-width="1600"
     inkscape:window-height="848"
     inkscape:window-x="-8"
     inkscape:window-y="-8"
     inkscape:window-maximized="1"
     showguides="true"
     inkscape:guide-bbox="true"
     inkscape:snap-global="false">
    <sodipodi:guide
       orientation="0,1"
       position="21.912416,160.16607"
       id="guide3274" />
    <sodipodi:guide
       orientation="1,0"
       position="36.762676,165.28277"
       id="guide3960" />
    <sodipodi:guide
       orientation="0,1"
       position="-12.085624,56.626052"
       id="guide3928" />
    <sodipodi:guide
       orientation="1,0"
       position="5.395096,48.142762"
       id="guide3930" />
    <sodipodi:guide
       orientation="0,1"
       position="-34.964797,77.191605"
       id="guide3932" />
    <sodipodi:guide
       orientation="0,1"
       position="1.834646,14.0106"
       id="guide3943" />
    <sodipodi:guide
       orientation="1,0"
       position="-4.607784,70.941085"
       id="guide3945" />
  </sodipodi:namedview>
  <metadata
     id="metadata7">
    <rdf:RDF>
      <cc:Work
         rdf:about="">
        <dc:format>image/svg+xml</dc:format>
        <dc:type
           rdf:resource="http://purl.org/dc/dcmitype/StillImage" />
        <dc:title />
      </cc:Work>
    </rdf:RDF>
  </metadata>
  <path
     style="fill:#c7c1b7;stroke:#000000;stroke-width:1px;stroke-linecap:butt;stroke-linejoin:miter;stroke-opacity:1"
     d="m 29.404038,0.48735 -28.892481,0 0,24.90257 c 0,15.54691 5.365747,32.60723 28.754898,44.43939"
     id="path3977"
     inkscape:connector-curvature="0"
     sodipodi:nodetypes="cccc" />
  <path
     sodipodi:nodetypes="cccc"
     inkscape:connector-curvature="0"
     id="path3979"
     d="m 28.991288,0.48735 28.892481,0 0,24.90257 c 0,15.54691 -5.365747,32.60723 -28.754898,44.43939"
     style="fill:#1b2a34;stroke:#000000;stroke-width:1px;stroke-linecap:butt;stroke-linejoin:miter;stroke-opacity:1" />
  <path
     style="font-size:medium;font-style:normal;font-variant:normal;font-weight:normal;font-stretch:normal;text-indent:0;text-align:start;text-decoration:none;line-height:normal;letter-spacing:normal;word-spacing:normal;text-transform:none;direction:ltr;block-progression:tb;writing-mode:lr-tb;text-anchor:start;baseline-shift:baseline;color:#000000;fill:#1b2a34;stroke:none;stroke-width:1;marker:none;visibility:visible;display:inline;overflow:visible;enable-background:accumulate;font-family:Sans;-inkscape-font-specification:Sans"
     d="M 29.382517,63.97638 C 9.483755,53.08353 5.75,39.20936 5.75,25.375 l 0,-19.625 23.65625,0"
     id="path3985"
     inkscape:connector-curvature="0"
     sodipodi:nodetypes="cscc" />
  <path
     sodipodi:nodetypes="cscc"
     inkscape:connector-curvature="0"
     id="path3991"
     d="M 29.300468,63.97638 C 49.19923,53.08353 52.932985,39.20936 52.932985,25.375 l 0,-19.625 -23.65625,0"
     style="font-size:medium;font-style:normal;font-variant:normal;font-weight:normal;font-stretch:normal;text-indent:0;text-align:start;text-decoration:none;line-height:normal;letter-spacing:normal;word-spacing:normal;text-transform:none;direction:ltr;block-progression:tb;writing-mode:lr-tb;text-anchor:start;baseline-shift:baseline;color:#000000;fill:#c7c1b7;stroke:none;stroke-width:1;marker:none;visibility:visible;display:inline;overflow:visible;enable-background:accumulate;font-family:Sans;-inkscape-font-specification:Sans" />
  <path
     style="fill:#1b2a34;stroke:none"
     d="m 47.107126,8.286438 -7.6875,6.6875 c 1.18023,1.29351 1.9375,3.11446 1.9375,5.15625 0,3.91503 -2.71762,7.09375 -6.0625,7.09375 -1.89454,0.18873 -5.19376,-2.84648 -4.125,-3.3125 1.18664,-0.54185 2.09777,-1.57996 2.53125,-2.84375 l 1.375,-0.625 1.5625,-0.6875 -1.59375,-0.6875 -1.15625,-0.5 c -0.41409,-2.20894 -2.28936,-3.89177 -4.5625,-3.9375 l 0,9.6875 0,8.46875 0,2.90625 0,23.0625 c 2.73687,-0.0466 2.00971,-1.79948 2.0625,-7.625 l 1.3125,2.15625 c 0.3518,0.58303 1.10447,0.7893 1.6875,0.4375 0.58303,-0.3518 0.75805,-1.10447 0.40625,-1.6875 l -2.84375,-4.75 c -0.088,-0.14576 -0.21461,-0.28106 -0.34375,-0.375 0.0473,-0.51263 0.0939,-1.02571 0.15625,-1.53125 1.25122,1.05726 2.39408,2.25693 3.34375,3.96875 0.26193,-0.69498 0.47594,-1.23512 0.75,-1.71875 0.21908,1.70712 1.50038,5.00493 3.1875,1.65625 -1.87247,0.24412 -1.64641,-1.53027 -0.90625,-2.1875 0.74022,-0.65728 3.06161,-1.03105 4.6875,0.4375 0.18623,-4.07385 -3.30136,-2.87422 -5.40625,-1.75 0.29174,-0.25848 0.57319,-0.50568 0.96875,-0.8125 -2.27422,0.1824 -5.01433,-0.76127 -6.3125,-1.78125 0.15987,-0.93677 0.35943,-1.82613 0.5625,-2.65625 0.39935,-1.87406 -0.0391,-5.12602 1.09375,-5.4375 1.35129,-0.37153 3.02784,4.84131 4.3125,4.28125 1.28466,-0.56006 -1.37938,-5.35657 -0.1875,-6.09375 1.19188,-0.73718 4.30017,3.80555 5.375,2.90625 1.07483,-0.8993 -2.84216,-4.76939 -1.90625,-5.8125 0.93591,-1.04311 5.19082,2.44694 5.96875,1.28125 0.77793,-1.16569 -4.04162,-3.76671 -3.4375,-5.03125 0.60412,-1.26454 5.64449,0.86889 6.0625,-0.46875 0.41801,-1.33764 -4.94214,-2.46024 -4.71875,-3.84375 0.22339,-1.38351 5.66328,-0.75503 5.6875,-2.15625 0.0242,-1.40122 -5.44956,-0.98459 -5.625,-2.375 -0.17544,-1.39041 5.24653,-2.33621 4.875,-3.6875 -0.37153,-1.35129 -5.50244,0.62841 -6.0625,-0.65625 -0.56006,-1.28466 4.36218,-3.71437 3.625,-4.90625 -0.11518,-0.18623 -0.32848,-0.25009 -0.59375,-0.25 z"
     id="path3970"
     inkscape:connector-curvature="0" />
  <path
     id="path3975"
     d="m 11.545046,8.286438 7.6875,6.6875 c -1.18023,1.29351 -1.9375,3.11446 -1.9375,5.15625 0,3.91503 2.71762,7.09375 6.0625,7.09375 1.89454,0.18873 5.19376,-2.84648 4.125,-3.3125 -1.18664,-0.54185 -2.09777,-1.57996 -2.53125,-2.84375 -0.19778,-0.59453 -0.43421,-1.35619 -0.1875,-2.5 0.41409,-2.20894 2.28936,-3.89177 4.5625,-3.9375 l 0,9.6875 0,8.46875 0,2.90625 0,23.0625 c -2.73687,-0.0466 -2.00971,-1.79948 -2.0625,-7.625 l -1.3125,2.15625 c -0.3518,0.58303 -1.10447,0.7893 -1.6875,0.4375 -0.58303,-0.3518 -0.75805,-1.10447 -0.40625,-1.6875 l 2.84375,-4.75 c 0.088,-0.14576 0.21461,-0.28106 0.34375,-0.375 -0.0473,-0.51263 -0.0939,-1.02571 -0.15625,-1.53125 -1.25122,1.05726 -2.39408,2.25693 -3.34375,3.96875 -0.26193,-0.69498 -0.47594,-1.23512 -0.75,-1.71875 -0.21908,1.70712 -1.50038,5.00493 -3.1875,1.65625 1.87247,0.24412 1.64641,-1.53027 0.90625,-2.1875 -0.74022,-0.65728 -3.06161,-1.03105 -4.6875,0.4375 -0.18623,-4.07385 3.30136,-2.87422 5.40625,-1.75 -0.29174,-0.25848 -0.57319,-0.50568 -0.96875,-0.8125 2.27422,0.1824 5.01433,-0.76127 6.3125,-1.78125 -0.15987,-0.93677 -0.35943,-1.82613 -0.5625,-2.65625 -0.39935,-1.87406 0.0391,-5.12602 -1.09375,-5.4375 -1.35129,-0.37153 -3.02784,4.84131 -4.3125,4.28125 -1.28466,-0.56006 1.37938,-5.35657 0.1875,-6.09375 -1.19188,-0.73718 -4.30017,3.80555 -5.375,2.90625 -1.07483,-0.8993 2.84216,-4.76939 1.90625,-5.8125 -0.93591,-1.04311 -5.19082,2.44694 -5.96875,1.28125 -0.77793,-1.16569 4.04162,-3.76671 3.4375,-5.03125 -0.60412,-1.26454 -5.64449,0.86889 -6.0625,-0.46875 -0.41801,-1.33764 4.94214,-2.46024 4.71875,-3.84375 -0.22339,-1.38351 -5.66328,-0.75503 -5.6875,-2.15625 -0.0242,-1.40122 5.44956,-0.98459 5.625,-2.375 0.17544,-1.39041 -5.24653,-2.33621 -4.875,-3.6875 0.37153,-1.35129 5.50244,0.62841 6.0625,-0.65625 0.56006,-1.28466 -4.36218,-3.71437 -3.625,-4.90625 0.11518,-0.18623 0.32848,-0.25009 0.59375,-0.25 z"
     style="fill:#c7c1b7;stroke:none"
     inkscape:connector-curvature="0"
     sodipodi:nodetypes="ccscccccccccccscccccccscccccssssssssscssscc" />
  <g
     inkscape:groupmode="layer"
     id="layer4"
     inkscape:label="falcon"
     transform="translate(-132.13703,-143.05391)" />
</svg>
