<?xml version="1.0" encoding="UTF-8" standalone="no"?>
<!-- Created with Inkscape (http://www.inkscape.org/) -->

<svg
   xmlns:dc="http://purl.org/dc/elements/1.1/"
   xmlns:cc="http://creativecommons.org/ns#"
   xmlns:rdf="http://www.w3.org/1999/02/22-rdf-syntax-ns#"
   xmlns:svg="http://www.w3.org/2000/svg"
   xmlns="http://www.w3.org/2000/svg"
   xmlns:sodipodi="http://sodipodi.sourceforge.net/DTD/sodipodi-0.dtd"
   xmlns:inkscape="http://www.inkscape.org/namespaces/inkscape"
   width="163.65617"
   height="178.3125"
   id="svg2"
   version="1.1"
   inkscape:version="0.48.2 r9819"
   sodipodi:docname="New document 1">
  <defs
     id="defs4" />
  <sodipodi:namedview
     id="base"
     pagecolor="#ffffff"
     bordercolor="#666666"
     borderopacity="1.0"
     inkscape:pageopacity="0.0"
     inkscape:pageshadow="2"
     inkscape:zoom="1.69"
     inkscape:cx="67.241447"
     inkscape:cy="101.68442"
     inkscape:document-units="px"
     inkscape:current-layer="layer1"
     showgrid="false"
     fit-margin-top="0"
     fit-margin-left="0"
     fit-margin-right="0"
     fit-margin-bottom="0"
     inkscape:window-width="1280"
     inkscape:window-height="968"
     inkscape:window-x="-4"
     inkscape:window-y="-4"
     inkscape:window-maximized="1" />
  <metadata
     id="metadata7">
    <rdf:RDF>
      <cc:Work
         rdf:about="">
        <dc:format>image/svg+xml</dc:format>
        <dc:type
           rdf:resource="http://purl.org/dc/dcmitype/StillImage" />
        <dc:title></dc:title>
      </cc:Work>
    </rdf:RDF>
  </metadata>
  <g
     inkscape:label="Layer 1"
     inkscape:groupmode="layer"
     id="layer1"
     transform="translate(-481.37504,-151.875)">
    <path
       style="fill:#1b2a34;stroke:#1b2a34;stroke-width:1px;stroke-linecap:butt;stroke-linejoin:miter;stroke-opacity:1"
       d="m 563.98442,152.36218 -81.75183,0 c -5.01717,112.92519 45.97757,159.34163 81.0219,177.37227"
       id="path3014"
       inkscape:connector-curvature="0"
       sodipodi:nodetypes="ccc" />
    <path
       sodipodi:nodetypes="ccc"
       inkscape:connector-curvature="0"
       id="path3016"
       d="m 562.42991,152.36218 81.75183,0 c 5.01717,112.92519 -45.97757,159.34163 -81.0219,177.37227"
       style="fill:#a3a2a4;stroke:#1b2a34;stroke-width:1px;stroke-linecap:butt;stroke-linejoin:miter;stroke-opacity:1" />
    <path
       style="fill:#1b2a34;fill-opacity:1;stroke:#1b2a34"
       d="m 622.69468,159.87889 -1.67567,2.46356 c -6.44445,9.42295 -8.42517,12.06925 -12.86748,17.17034 -5.99935,6.88902 -10.86066,11.75112 -14.00529,14.01622 l -2.31697,1.6797 0.88955,2.0903 c 0.62702,1.47795 0.70253,3.56067 0.26894,7.16675 -0.55591,4.62344 -0.81176,5.2911 -2.79279,7.40937 -1.69921,1.81693 -3.77025,2.90405 -6.0506,3.24856 -17.78491,0.74059 -18.72658,-25.68393 -7.45818,-18.19795 l 0.24824,-2.74352 c 0.13958,-1.51015 -0.0445,-3.55848 -0.41374,-4.5352 -0.58428,-1.54573 -1.09602,-1.83986 -3.93058,-2.31427 -3.59645,-0.60191 -10.29887,-0.2063 -10.4057,0.6159 -0.0374,0.28791 -0.009,18.47311 0.062,40.40627 0.0707,21.93316 0.14132,46.7703 0.16549,55.20635 0.0443,15.44022 0.14412,18.05311 0.62062,18.10351 0.14279,0.0151 1.94062,-1.47207 3.99265,-3.32209 5.7103,-5.14816 5.59851,-4.87629 4.61326,-11.44067 -1.0246,-6.8265 -1.04631,-6.67682 0.14481,-6.55085 0.51601,0.0546 1.90993,1.54098 3.0824,3.30342 1.17248,1.76243 2.42908,3.17041 2.79278,3.11679 0.36371,-0.0536 1.78082,-1.43442 3.14447,-3.0608 l 2.48247,-2.96748 -2.39969,-3.37808 c -4.09564,-5.80504 -9.03411,-17.53366 -8.99896,-21.3696 0.0132,-1.44648 0.29121,-1.80328 1.42742,-1.82901 1.00627,-0.0228 2.75746,1.48506 6.12343,5.24442 3.84464,4.29399 4.81666,5.0891 5.23388,4.25525 1.03977,-2.07804 2.36431,-1.55555 2.48247,0.98916 0.24581,5.29323 2.60949,6.47686 6.55787,3.2661 1.27216,-1.0345 2.32528,-1.95772 2.33766,-2.05298 0.0124,-0.0953 -0.92595,-0.16112 -2.08941,-0.13064 -4.55375,0.11931 -4.58215,-4.13118 -0.062,-10.20888 3.01264,-4.05076 3.68684,-5.3269 6.56872,-5.20964 1.59662,0.065 2.54566,1.66766 2.88536,2.05552 1.22957,1.40388 1.67804,0.75187 2.19285,-3.2101 0.56241,-4.32825 0.0704,-5.52661 -2.37903,-5.78566 -1.95532,-0.20679 -6.66158,2.84037 -9.32996,6.02828 -2.07869,2.4834 -2.11742,2.50231 -4.86151,1.82901 -1.52208,-0.37345 -4.28977,-1.39125 -6.14412,-2.25827 -1.85436,-0.86702 -4.15877,-1.93058 -5.10976,-2.37025 -6.72,-5.30899 4.48711,-7.78198 9.22652,-8.17457 0.009,-0.0662 -0.43604,-1.21925 -0.99298,-2.57555 -1.15352,-2.8091 -1.01044,-5.82765 0.26893,-5.69234 0.46767,0.0495 2.06366,1.56639 3.55821,3.37808 1.49456,1.81168 3.03946,3.33633 3.43409,3.37807 1.37265,0.14517 12.19815,-1.87233 12.61923,-2.35159 0.23313,-0.26532 0.0715,-0.51514 -0.35168,-0.5599 -0.86702,-0.0917 -6.16042,-4.98552 -8.10941,-7.48402 -1.28701,-1.64988 -1.56955,-3.7737 -0.47581,-3.65803 0.32408,0.0343 2.67525,1.25185 5.2132,2.68753 2.53792,1.43568 6.88669,3.28245 9.66095,4.10595 l 5.0477,1.49307 1.75841,-1.54906 c 0.97475,-0.85015 2.46147,-2.11349 3.28928,-2.81818 0.8278,-0.70468 2.17698,-2.2192 3.02034,-3.35941 l 1.55151,-2.07164 -7.32329,-1.10114 c -8.77512,-1.32665 -14.06334,-3.20667 -13.83979,-4.92714 0.13434,-1.03382 0.62626,-1.12109 4.34433,-0.72787 6.11393,0.6466 19.15279,-0.54761 21.76301,-1.99698 0.96871,-0.53789 2.85165,-4.77596 3.84783,-8.67849 0.67972,-2.6628 0.31337,-3.41991 -1.17917,-2.4449 -0.38056,0.2486 -3.88277,1.34122 -7.77841,2.4449 -6.43722,1.82377 -15.19624,2.79777 -16.5912,1.84768 -1.15455,-0.78635 0.0399,-1.7931 3.22722,-2.76218 3.74298,-1.13802 18.18892,-8.07345 21.47339,-10.3022 1.1056,-0.75024 2.05592,-1.69205 2.1101,-2.10897 0.10559,-0.81265 -0.9387,-5.85806 -1.6343,-7.91328 -0.44811,-2.5143 -1.49781,-2.13267 -3.20652,-0.93317 -13.09661,9.30317 -26.3693,15.81092 -25.3626,12.42982 0.13096,-0.43981 2.94289,-2.87255 6.24756,-5.39372 6.01872,-4.59176 11.81564,-10.12844 15.7637,-15.06137 l 2.1101,-2.63154 -2.23423,-3.39674 c -1.21918,-1.86539 -2.94796,-4.38153 -3.84783,-5.59902 z"
       id="rect2998"
       inkscape:connector-curvature="0"
       sodipodi:nodetypes="cscccssscccscsscsscsccccscsssscsssssssssscccsccsscscccscccsssscssssssccscccccc" />
    <path
       sodipodi:nodetypes="cscccsssccscsscsccccscsssscsssssssssscccsccsscscccscccsssscssssssccscccccc"
       inkscape:connector-curvature="0"
       id="path3001"
       d="m 501.63069,159.87889 1.67566,2.46356 c 6.44445,9.42295 8.42517,12.06925 12.86749,17.17034 5.99934,6.88902 10.86065,11.75112 14.00528,14.01622 l 2.31697,1.6797 -0.88955,2.0903 c -0.62702,1.47795 -0.70253,3.56067 -0.26893,7.16675 0.55591,4.62344 0.81175,5.2911 2.79278,7.40937 2.58708,2.76631 6.0361,3.84087 9.77345,3.17853 9.90152,-2.35515 10.75278,-24.9015 18.23711,-27.10501 0.0374,0.28791 0.009,18.47311 -0.062,40.40627 -0.0707,21.93316 -0.14133,46.7703 -0.1655,55.20635 -0.0443,15.44022 -0.14412,18.05311 -0.62062,18.10351 -0.14279,0.0151 -1.94062,-1.47207 -3.99264,-3.32209 -5.71031,-5.14816 -5.59852,-4.87629 -4.61327,-11.44067 1.0246,-6.8265 1.04631,-6.67682 -0.14481,-6.55085 -0.51601,0.0546 -1.90992,1.54098 -3.0824,3.30342 -1.17248,1.76243 -2.42908,3.17041 -2.79278,3.11679 -0.36371,-0.0536 -1.78082,-1.43442 -3.14447,-3.0608 l -2.48247,-2.96748 2.39969,-3.37808 c 4.09564,-5.80504 9.03412,-17.53366 8.99896,-21.3696 -0.0132,-1.44648 -0.29121,-1.80328 -1.42742,-1.82901 -1.00627,-0.0228 -2.75746,1.48506 -6.12343,5.24442 -3.84464,4.29399 -4.81666,5.0891 -5.23388,4.25525 -1.03977,-2.07804 -2.36431,-1.55555 -2.48247,0.98916 -0.24581,5.29323 -2.60948,6.47686 -6.55787,3.2661 -1.27216,-1.0345 -2.32528,-1.95772 -2.33766,-2.05298 -0.0124,-0.0953 0.92595,-0.16112 2.08942,-0.13064 4.55374,0.11931 4.58214,-4.13118 0.062,-10.20888 -3.01264,-4.05076 -3.68684,-5.3269 -6.56872,-5.20964 -1.59662,0.065 -2.54566,1.66766 -2.88536,2.05552 -1.22956,1.40388 -1.67804,0.75187 -2.19285,-3.2101 -0.56241,-4.32825 -0.0704,-5.52661 2.37904,-5.78566 1.95531,-0.20679 6.66158,2.84037 9.32996,6.02828 2.07868,2.4834 2.11741,2.50231 4.8615,1.82901 1.52208,-0.37345 4.28977,-1.39125 6.14412,-2.25827 1.85437,-0.86702 4.15877,-1.93058 5.10976,-2.37025 6.72,-4.64907 -5.40146,-7.78198 -9.22652,-8.17457 -0.009,-0.0662 0.43605,-1.21925 0.99299,-2.57555 1.15351,-2.8091 1.01043,-5.82765 -0.26894,-5.69234 -0.46767,0.0495 -2.06365,1.56639 -3.55821,3.37808 -1.49455,1.81168 -3.03946,3.33633 -3.43409,3.37807 -1.37264,0.14517 -12.19814,-1.87233 -12.61923,-2.35159 -0.23313,-0.26532 -0.0715,-0.51514 0.35168,-0.5599 0.86702,-0.0917 6.16043,-4.98552 8.10941,-7.48402 1.28701,-1.64988 1.56955,-3.7737 0.47581,-3.65803 -0.32408,0.0343 -2.67525,1.25185 -5.21319,2.68753 -2.53793,1.43568 -6.88669,3.28245 -9.66096,4.10595 l -5.04769,1.49307 -1.75842,-1.54906 c -0.97475,-0.85015 -2.46147,-2.11349 -3.28928,-2.81818 -0.8278,-0.70468 -2.17698,-2.2192 -3.02034,-3.35941 l -1.55151,-2.07164 7.32329,-1.10114 c 8.77512,-1.32665 14.06334,-3.20667 13.83979,-4.92714 -0.13433,-1.03382 -0.62626,-1.12109 -4.34433,-0.72787 -6.11393,0.6466 -19.15278,-0.54761 -21.76301,-1.99698 -0.96871,-0.53789 -2.85164,-4.77596 -3.84783,-8.67849 -0.67972,-2.6628 -0.31337,-3.41991 1.17917,-2.4449 0.38056,0.2486 3.88278,1.34122 7.77842,2.4449 6.43721,1.82377 15.19623,2.79777 16.59119,1.84768 1.15455,-0.78635 -0.0399,-1.7931 -3.22722,-2.76218 -3.74297,-1.13802 -18.18892,-8.07345 -21.47338,-10.3022 -1.1056,-0.75024 -2.05593,-1.69205 -2.1101,-2.10897 -0.1056,-0.81265 0.93869,-5.85806 1.63429,-7.91328 0.44812,-2.5143 1.49781,-2.13267 3.20653,-0.93317 13.0966,9.30317 26.3693,15.81092 25.36259,12.42982 -0.13095,-0.43981 -2.94289,-2.87255 -6.24755,-5.39372 -6.01873,-4.59176 -11.81565,-10.12844 -15.76371,-15.06137 l -2.1101,-2.63154 2.23423,-3.39674 c 1.21918,-1.86539 2.94796,-4.38153 3.84783,-5.59902 z"
       style="fill:#a3a2a4;fill-opacity:1;stroke:#a3a2a4" />
    <path
       sodipodi:type="arc"
       style="opacity:0.8;fill:#a3a2a4;fill-opacity:1;stroke:#1b2a34;stroke-width:2.125;stroke-linecap:round;stroke-linejoin:round;stroke-miterlimit:4;stroke-opacity:1;stroke-dasharray:none;stroke-dashoffset:0"
       id="path3022"
       sodipodi:cx="488.78925"
       sodipodi:cy="158.19177"
       sodipodi:rx="4.4843049"
       sodipodi:ry="4.4843049"
       d="m 493.27355,158.19177 c 0,2.47662 -2.00769,4.48431 -4.4843,4.48431 -2.47662,0 -4.48431,-2.00769 -4.48431,-4.48431 0,-2.47661 2.00769,-4.4843 4.48431,-4.4843 2.27755,0 4.19336,1.70727 4.45468,3.96978"
       sodipodi:start="0"
       sodipodi:end="6.1681933"
       sodipodi:open="true" />
    <path
       sodipodi:open="true"
       sodipodi:end="6.1681933"
       sodipodi:start="0"
       d="m 493.27355,158.19177 c 0,2.47662 -2.00769,4.48431 -4.4843,4.48431 -2.47662,0 -4.48431,-2.00769 -4.48431,-4.48431 0,-2.47661 2.00769,-4.4843 4.48431,-4.4843 2.27755,0 4.19336,1.70727 4.45468,3.96978"
       sodipodi:ry="4.4843049"
       sodipodi:rx="4.4843049"
       sodipodi:cy="158.19177"
       sodipodi:cx="488.78925"
       id="path3792"
       style="opacity:0.8;fill:#a3a2a4;fill-opacity:1;stroke:#1b2a34;stroke-width:2.125;stroke-linecap:round;stroke-linejoin:round;stroke-miterlimit:4;stroke-opacity:1;stroke-dasharray:none;stroke-dashoffset:0"
       sodipodi:type="arc"
       transform="translate(47.982063,0.44843049)" />
    <path
       transform="translate(99.103139,0.89686098)"
       sodipodi:type="arc"
       style="opacity:0.8;fill:#a3a2a4;fill-opacity:1;stroke:#1b2a34;stroke-width:2.125;stroke-linecap:round;stroke-linejoin:round;stroke-miterlimit:4;stroke-opacity:1;stroke-dasharray:none;stroke-dashoffset:0"
       id="path3794"
       sodipodi:cx="488.78925"
       sodipodi:cy="158.19177"
       sodipodi:rx="4.4843049"
       sodipodi:ry="4.4843049"
       d="m 493.27355,158.19177 c 0,2.47662 -2.00769,4.48431 -4.4843,4.48431 -2.47662,0 -4.48431,-2.00769 -4.48431,-4.48431 0,-2.47661 2.00769,-4.4843 4.48431,-4.4843 2.27755,0 4.19336,1.70727 4.45468,3.96978"
       sodipodi:start="0"
       sodipodi:end="6.1681933"
       sodipodi:open="true" />
    <path
       sodipodi:open="true"
       sodipodi:end="6.1681933"
       sodipodi:start="0"
       d="m 493.27355,158.19177 c 0,2.47662 -2.00769,4.48431 -4.4843,4.48431 -2.47662,0 -4.48431,-2.00769 -4.48431,-4.48431 0,-2.47661 2.00769,-4.4843 4.48431,-4.4843 2.27755,0 4.19336,1.70727 4.45468,3.96978"
       sodipodi:ry="4.4843049"
       sodipodi:rx="4.4843049"
       sodipodi:cy="158.19177"
       sodipodi:cx="488.78925"
       id="path3796"
       style="opacity:0.8;fill:#a3a2a4;fill-opacity:1;stroke:#1b2a34;stroke-width:2.125;stroke-linecap:round;stroke-linejoin:round;stroke-miterlimit:4;stroke-opacity:1;stroke-dasharray:none;stroke-dashoffset:0"
       sodipodi:type="arc"
       transform="translate(148.87892,0.89686098)" />
    <path
       transform="translate(140.35874,74.439462)"
       sodipodi:type="arc"
       style="opacity:0.8;fill:#a3a2a4;fill-opacity:1;stroke:#1b2a34;stroke-width:2.125;stroke-linecap:round;stroke-linejoin:round;stroke-miterlimit:4;stroke-opacity:1;stroke-dasharray:none;stroke-dashoffset:0"
       id="path3798"
       sodipodi:cx="488.78925"
       sodipodi:cy="158.19177"
       sodipodi:rx="4.4843049"
       sodipodi:ry="4.4843049"
       d="m 493.27355,158.19177 c 0,2.47662 -2.00769,4.48431 -4.4843,4.48431 -2.47662,0 -4.48431,-2.00769 -4.48431,-4.48431 0,-2.47661 2.00769,-4.4843 4.48431,-4.4843 2.27755,0 4.19336,1.70727 4.45468,3.96978"
       sodipodi:start="0"
       sodipodi:end="6.1681933"
       sodipodi:open="true" />
    <path
       sodipodi:open="true"
       sodipodi:end="6.1681933"
       sodipodi:start="0"
       d="m 493.27355,158.19177 c 0,2.47662 -2.00769,4.48431 -4.4843,4.48431 -2.47662,0 -4.48431,-2.00769 -4.48431,-4.48431 0,-2.47661 2.00769,-4.4843 4.48431,-4.4843 2.27755,0 4.19336,1.70727 4.45468,3.96978"
       sodipodi:ry="4.4843049"
       sodipodi:rx="4.4843049"
       sodipodi:cy="158.19177"
       sodipodi:cx="488.78925"
       id="path3800"
       style="opacity:0.8;fill:#a3a2a4;fill-opacity:1;stroke:#1b2a34;stroke-width:2.125;stroke-linecap:round;stroke-linejoin:round;stroke-miterlimit:4;stroke-opacity:1;stroke-dasharray:none;stroke-dashoffset:0"
       sodipodi:type="arc"
       transform="translate(115.24663,121.52466)" />
    <path
       transform="translate(74.887886,159.19282)"
       sodipodi:type="arc"
       style="opacity:0.8;fill:#a3a2a4;fill-opacity:1;stroke:#1b2a34;stroke-width:2.125;stroke-linecap:round;stroke-linejoin:round;stroke-miterlimit:4;stroke-opacity:1;stroke-dasharray:none;stroke-dashoffset:0"
       id="path3802"
       sodipodi:cx="488.78925"
       sodipodi:cy="158.19177"
       sodipodi:rx="4.4843049"
       sodipodi:ry="4.4843049"
       d="m 493.27355,158.19177 c 0,2.47662 -2.00769,4.48431 -4.4843,4.48431 -2.47662,0 -4.48431,-2.00769 -4.48431,-4.48431 0,-2.47661 2.00769,-4.4843 4.48431,-4.4843 2.27755,0 4.19336,1.70727 4.45468,3.96978"
       sodipodi:start="0"
       sodipodi:end="6.1681933"
       sodipodi:open="true" />
    <path
       sodipodi:open="true"
       sodipodi:end="6.1681933"
       sodipodi:start="0"
       d="m 493.27355,158.19177 c 0,2.47662 -2.00769,4.48431 -4.4843,4.48431 -2.47662,0 -4.48431,-2.00769 -4.48431,-4.48431 0,-2.47661 2.00769,-4.4843 4.48431,-4.4843 2.27755,0 4.19336,1.70727 4.45468,3.96978"
       sodipodi:ry="4.4843049"
       sodipodi:rx="4.4843049"
       sodipodi:cy="158.19177"
       sodipodi:cx="488.78925"
       id="path3804"
       style="opacity:0.8;fill:#a3a2a4;fill-opacity:1;stroke:#1b2a34;stroke-width:2.125;stroke-linecap:round;stroke-linejoin:round;stroke-miterlimit:4;stroke-opacity:1;stroke-dasharray:none;stroke-dashoffset:0"
       sodipodi:type="arc"
       transform="translate(33.632281,121.97309)" />
    <path
       transform="translate(8.9686039,74.887888)"
       sodipodi:type="arc"
       style="opacity:0.8;fill:#a3a2a4;fill-opacity:1;stroke:#1b2a34;stroke-width:2.125;stroke-linecap:round;stroke-linejoin:round;stroke-miterlimit:4;stroke-opacity:1;stroke-dasharray:none;stroke-dashoffset:0"
       id="path3806"
       sodipodi:cx="488.78925"
       sodipodi:cy="158.19177"
       sodipodi:rx="4.4843049"
       sodipodi:ry="4.4843049"
       d="m 493.27355,158.19177 c 0,2.47662 -2.00769,4.48431 -4.4843,4.48431 -2.47662,0 -4.48431,-2.00769 -4.48431,-4.48431 0,-2.47661 2.00769,-4.4843 4.48431,-4.4843 2.27755,0 4.19336,1.70727 4.45468,3.96978"
       sodipodi:start="0"
       sodipodi:end="6.1681933"
       sodipodi:open="true" />
  </g>
</svg>
