<?xml version="1.0" encoding="utf-8"?>
<!-- Generator: Adobe Illustrator 15.1.0, SVG Export Plug-In . SVG Version: 6.00 Build 0)  -->
<!DOCTYPE svg PUBLIC "-//W3C//DTD SVG 1.1//EN" "http://www.w3.org/Graphics/SVG/1.1/DTD/svg11.dtd">
<svg version="1.1" id="mining-symbol_1_" xmlns="http://www.w3.org/2000/svg" xmlns:xlink="http://www.w3.org/1999/xlink" x="0px"
	 y="0px" width="42.52px" height="42.52px" viewBox="0 0 42.52 42.52" enable-background="new 0 0 42.52 42.52"
	 xml:space="preserve">
<g id="mining-symbol">
	<circle fill="#EFF0ED" cx="21.26" cy="21.259" r="14.812"/>
	<path fill="#ED1C24" d="M40.137,26.563l0.602-3.061l-2.366-0.465c0.058-0.574,0.089-1.157,0.089-1.747
		c0-0.635-0.041-1.261-0.107-1.879l2.375-0.478l-0.614-3.057l-2.382,0.479c-0.351-1.169-0.817-2.289-1.396-3.34l2.021-1.356
		l-1.738-2.589l-2.026,1.36c-0.763-0.938-1.624-1.79-2.563-2.549l1.353-2.035l-2.596-1.727L29.44,6.145
		c-1.054-0.573-2.177-1.03-3.348-1.375l0.47-2.387l-3.061-0.602l-0.467,2.375c-0.594-0.063-1.196-0.097-1.806-0.097
		c-0.614,0-1.221,0.035-1.818,0.098l-0.476-2.366l-3.057,0.614l0.476,2.367c-1.174,0.347-2.3,0.807-3.355,1.383l-1.338-1.993
		L9.072,5.899l1.339,1.996c-0.943,0.764-1.805,1.624-2.569,2.567L5.849,9.136l-1.728,2.597L6.1,13.049
		c-0.579,1.059-1.042,2.188-1.39,3.366l-2.327-0.458l-0.602,3.06l2.314,0.455c-0.063,0.598-0.098,1.204-0.098,1.819
		c0,0.619,0.036,1.229,0.1,1.831l-2.306,0.463l0.615,3.057l2.308-0.463c0.35,1.18,0.817,2.311,1.398,3.373l-1.949,1.307l1.737,2.59
		l1.954-1.313c0.77,0.947,1.638,1.809,2.588,2.574L9.137,36.67l2.596,1.727l1.299-1.951c1.063,0.576,2.198,1.033,3.38,1.379
		l-0.455,2.313l3.06,0.602l0.453-2.305c0.578,0.059,1.165,0.088,1.759,0.088c0.639,0,1.268-0.041,1.89-0.109l0.465,2.316
		l3.058-0.615l-0.468-2.322c1.177-0.354,2.301-0.826,3.357-1.41l1.327,1.977l2.589-1.738l-1.333-1.984
		c0.94-0.77,1.792-1.639,2.553-2.586l2.003,1.334l1.728-2.598l-2-1.33c0.571-1.057,1.025-2.184,1.368-3.359L40.137,26.563z
		 M7.393,21.291c0-7.629,6.207-13.836,13.836-13.836c7.628,0,13.835,6.207,13.835,13.836s-6.207,13.836-13.835,13.836
		C13.6,35.127,7.393,28.92,7.393,21.291z"/>
	<g id="picks">
		<g>
			<g>
				<path d="M37.171,24.035c-0.312,0-0.583-0.35-0.612-0.39l-5.338-5.651l-0.682-0.279l-5.204,4.977
					c-0.026,0.025-0.063,0.039-0.098,0.039c-0.027,0-0.055-0.008-0.079-0.024c-0.056-0.037-0.077-0.107-0.053-0.17
					c0.211-0.527,0.317-1.071,0.317-1.615c0-0.32-0.046-0.66-0.139-1.038c-0.012-0.049,0.003-0.101,0.04-0.136l3.746-3.584
					l-0.215-0.648l-2.388-2.53c-0.448-0.469-0.887-0.907-1.32-1.34c-0.67-0.669-1.303-1.302-1.965-2.037
					c-0.09-0.099-0.181-0.298-0.167-0.501c0.01-0.157,0.08-0.294,0.201-0.396c0.099-0.083,0.219-0.126,0.347-0.126
					c0.161,0,0.284,0.067,0.298,0.075c0.022,0.014,1.932,1.176,2.974,2.064c1.054,0.898,3.152,3.068,3.525,3.456l0.413-0.104
					c0.012-0.003,0.023-0.004,0.035-0.004c0.038,0,0.076,0.016,0.103,0.044l1.837,1.938c0.033,0.035,0.047,0.084,0.035,0.131
					l-0.14,0.574l2.019,2.507c1.246,1.429,2.974,3.869,2.829,4.531c-0.02,0.094-0.075,0.165-0.155,0.201
					C37.283,24.023,37.229,24.035,37.171,24.035L37.171,24.035z"/>
				<path fill="#EFF0ED" d="M23.563,8.728c0.128,0,0.228,0.057,0.228,0.057s1.906,1.158,2.952,2.049
					c1.161,0.99,3.572,3.506,3.572,3.506l0.493-0.125l1.837,1.938l-0.156,0.642l2.063,2.562c1.524,1.749,3.201,4.3,2.726,4.515
					c-0.035,0.016-0.071,0.022-0.106,0.022c-0.25,0-0.499-0.333-0.499-0.333l-5.348-5.663l-0.816-0.348l-5.271,5.041
					c0.206-0.517,0.327-1.077,0.327-1.667c0-0.372-0.058-0.727-0.143-1.072l3.812-3.646l-0.243-0.733l-2.419-2.582
					c-1.13-1.182-2.187-2.158-3.283-3.375c-0.108-0.119-0.243-0.472,0.021-0.694C23.394,8.75,23.483,8.728,23.563,8.728
					 M23.563,8.444L23.563,8.444c-0.162,0-0.313,0.055-0.437,0.159c-0.153,0.128-0.24,0.3-0.253,0.496
					c-0.017,0.246,0.091,0.481,0.204,0.606c0.664,0.736,1.298,1.37,1.97,2.041c0.433,0.433,0.87,0.869,1.318,1.339l2.375,2.535
					l0.167,0.503l-3.683,3.522c-0.073,0.07-0.104,0.174-0.079,0.273c0.091,0.367,0.135,0.695,0.135,1.004
					c0,0.526-0.104,1.051-0.308,1.562c-0.049,0.124-0.006,0.266,0.105,0.341c0.048,0.032,0.104,0.048,0.158,0.048
					c0.071,0,0.142-0.026,0.196-0.078l5.135-4.912l0.59,0.252l5.308,5.62c0.035,0.05,0.333,0.422,0.705,0.422
					c0.077,0,0.152-0.016,0.223-0.047c0.122-0.056,0.206-0.162,0.236-0.301c0.18-0.821-1.892-3.543-2.864-4.659l-1.968-2.445
					l0.123-0.506c0.022-0.093-0.004-0.192-0.069-0.262l-1.837-1.938c-0.055-0.058-0.129-0.089-0.206-0.089
					c-0.023,0-0.047,0.003-0.069,0.009l-0.334,0.084c-0.498-0.516-2.45-2.53-3.479-3.406c-1.051-0.896-2.91-2.028-2.988-2.076
					C23.903,8.522,23.757,8.444,23.563,8.444L23.563,8.444z"/>
			</g>
			<g>
				<path d="M13.095,34.254c-0.126,0-0.2-0.064-0.245-0.112l-0.983-1.028c-0.134-0.142-0.129-0.367,0.011-0.502l4.285-4.099
					c0.026-0.025,0.062-0.039,0.098-0.039h2.679c0.058,0,0.11,0.035,0.131,0.089c0.022,0.054,0.008,0.115-0.033,0.155l-5.684,5.438
					c-0.068,0.063-0.155,0.098-0.246,0.098L13.095,34.254z"/>
				<path fill="#EFF0ED" d="M18.939,28.615l-5.684,5.438c-0.04,0.037-0.093,0.059-0.148,0.059c-0.004,0-0.009,0-0.013,0
					c-0.064,0-0.104-0.026-0.141-0.066l-0.984-1.029c-0.082-0.086-0.078-0.221,0.007-0.303l4.284-4.098H18.939 M18.939,28.332H16.26
					c-0.073,0-0.143,0.028-0.196,0.078l-4.284,4.098c-0.197,0.19-0.204,0.505-0.017,0.703l0.985,1.03
					c0.034,0.036,0.144,0.154,0.346,0.154c0.141-0.001,0.262-0.049,0.355-0.136l5.686-5.439c0.084-0.08,0.11-0.203,0.067-0.311
					C19.159,28.402,19.055,28.332,18.939,28.332L18.939,28.332z"/>
			</g>
		</g>
		<g>
			<g>
				<path d="M5.349,24.035c-0.058,0-0.113-0.012-0.165-0.035c-0.081-0.036-0.136-0.107-0.156-0.201
					c-0.145-0.663,1.583-3.103,2.833-4.536l2.015-2.503l-0.139-0.574c-0.011-0.046,0.002-0.096,0.035-0.131l1.837-1.938
					c0.027-0.028,0.064-0.044,0.103-0.044c0.012,0,0.023,0.001,0.035,0.004l0.413,0.104c0.373-0.388,2.471-2.558,3.525-3.456
					c1.042-0.889,2.951-2.051,2.97-2.063c0.018-0.01,0.141-0.077,0.302-0.077c0.128,0,0.248,0.043,0.346,0.126
					c0.122,0.102,0.191,0.239,0.202,0.396c0.014,0.203-0.077,0.402-0.167,0.502c-0.662,0.734-1.294,1.366-1.963,2.035
					c-0.435,0.434-0.873,0.872-1.323,1.343l-2.418,2.581l-0.186,0.595l3.748,3.585c0.037,0.035,0.052,0.087,0.04,0.136
					c-0.095,0.386-0.139,0.715-0.139,1.038c0,0.545,0.107,1.088,0.318,1.615c0.025,0.062,0.003,0.133-0.052,0.17
					c-0.024,0.017-0.052,0.024-0.08,0.024c-0.036,0-0.071-0.014-0.098-0.039l-5.203-4.976l-0.731,0.312l-5.3,5.63
					C5.931,23.686,5.66,24.035,5.349,24.035z"/>
				<path fill="#EFF0ED" d="M18.956,8.728c0.08,0,0.17,0.022,0.254,0.093c0.264,0.222,0.129,0.575,0.021,0.694
					c-1.097,1.217-2.154,2.192-3.284,3.375l-2.419,2.582l-0.244,0.733l3.812,3.646c-0.084,0.345-0.143,0.7-0.143,1.072
					c0,0.591,0.121,1.151,0.328,1.667l-5.271-5.041l-0.817,0.348l-5.347,5.663c0,0-0.25,0.333-0.499,0.333
					c-0.036,0-0.071-0.007-0.106-0.022c-0.476-0.215,1.2-2.766,2.726-4.515l2.062-2.562l-0.156-0.642l1.837-1.938l0.493,0.125
					c0,0,2.411-2.516,3.572-3.506c1.046-0.892,2.952-2.049,2.952-2.049S18.828,8.728,18.956,8.728 M18.956,8.444
					c-0.193,0-0.34,0.078-0.368,0.094c-0.086,0.052-1.945,1.184-2.996,2.08c-1.028,0.876-2.98,2.89-3.478,3.406l-0.333-0.084
					c-0.023-0.006-0.046-0.009-0.07-0.009c-0.077,0-0.151,0.031-0.206,0.089l-1.837,1.938c-0.066,0.07-0.093,0.168-0.07,0.262
					l0.123,0.506l-1.974,2.453c-0.965,1.106-3.037,3.828-2.858,4.65c0.03,0.139,0.114,0.245,0.236,0.301
					c0.071,0.031,0.146,0.047,0.223,0.047c0.372,0,0.669-0.371,0.725-0.446l5.286-5.595l0.591-0.252l5.136,4.912
					c0.054,0.052,0.125,0.078,0.196,0.078c0.055,0,0.11-0.016,0.159-0.049c0.111-0.074,0.154-0.216,0.104-0.34
					c-0.204-0.51-0.308-1.035-0.308-1.562c0-0.311,0.042-0.63,0.134-1.004c0.024-0.098-0.006-0.202-0.08-0.272l-3.682-3.522
					l0.167-0.503l2.376-2.537c0.447-0.468,0.885-0.906,1.319-1.339c0.67-0.67,1.304-1.303,1.968-2.04
					c0.113-0.125,0.22-0.362,0.203-0.607c-0.013-0.196-0.101-0.367-0.252-0.494C19.269,8.5,19.118,8.444,18.956,8.444L18.956,8.444z
					"/>
			</g>
			<g>
				<path d="M29.403,34.253c-0.083,0-0.169-0.034-0.236-0.097l-5.685-5.438c-0.042-0.04-0.056-0.102-0.034-0.155
					s0.074-0.089,0.132-0.089h2.68c0.036,0,0.071,0.014,0.098,0.039l4.283,4.098c0.142,0.136,0.147,0.361,0.012,0.503l-0.984,1.029
					c-0.044,0.047-0.117,0.111-0.243,0.111L29.403,34.253z"/>
				<path fill="#EFF0ED" d="M26.26,28.615l4.283,4.098c0.086,0.082,0.089,0.217,0.007,0.303l-0.984,1.029
					c-0.037,0.04-0.076,0.066-0.141,0.066c-0.005,0-0.009,0-0.014,0c-0.055,0-0.107-0.021-0.147-0.059l-5.684-5.438H26.26
					 M26.26,28.332h-2.68c-0.116,0-0.22,0.07-0.263,0.178c-0.044,0.107-0.017,0.23,0.066,0.311l5.684,5.438
					c0.097,0.089,0.218,0.137,0.344,0.137h0.001c0.215,0,0.324-0.117,0.36-0.156l0.982-1.026c0.189-0.199,0.183-0.515-0.017-0.704
					l-4.282-4.098C26.403,28.36,26.333,28.332,26.26,28.332L26.26,28.332z"/>
			</g>
		</g>
	</g>
	<path id="helm" stroke="#EFF0ED" stroke-width="0.4252" stroke-linejoin="round" stroke-miterlimit="10" d="M34.814,30.465H7.705
		l4.677-2.641h17.754L34.814,30.465z M29.84,27.262H12.68c0.438-2.26,1.782-4.197,3.654-5.45c-0.041-0.257-0.079-0.515-0.079-0.783
		c0-2.759,2.245-5.004,5.005-5.004c2.758,0,5.003,2.245,5.003,5.004c0,0.268-0.038,0.526-0.079,0.783
		C28.058,23.064,29.402,25.002,29.84,27.262z M17.389,21.028c0,2.134,1.736,3.87,3.871,3.87c2.133,0,3.87-1.736,3.87-3.87
		c0-2.134-1.736-3.871-3.87-3.871C19.125,17.158,17.389,18.894,17.389,21.028z"/>
</g>
</svg>
