<?xml version="1.0" encoding="UTF-8" standalone="no"?>
<!-- Created with Inkscape (http://www.inkscape.org/) -->

<svg
   xmlns:dc="http://purl.org/dc/elements/1.1/"
   xmlns:cc="http://creativecommons.org/ns#"
   xmlns:rdf="http://www.w3.org/1999/02/22-rdf-syntax-ns#"
   xmlns:svg="http://www.w3.org/2000/svg"
   xmlns="http://www.w3.org/2000/svg"
   xmlns:xlink="http://www.w3.org/1999/xlink"
   xmlns:sodipodi="http://sodipodi.sourceforge.net/DTD/sodipodi-0.dtd"
   xmlns:inkscape="http://www.inkscape.org/namespaces/inkscape"
   width="113.125"
   height="21.71875"
   id="svg2"
   version="1.1"
   inkscape:version="0.48.2 r9819"
   sodipodi:docname="half-blood-tyson.svg"
   inkscape:export-filename="C:\Dokumente und Einstellungen\John\Desktop\minifigs\done\half-blood-tyson.png"
   inkscape:export-xdpi="1698.9928"
   inkscape:export-ydpi="1698.9928">
  <defs
     id="defs4">
    <linearGradient
       inkscape:collect="always"
       id="linearGradient4011">
      <stop
         style="stop-color:#ffffff;stop-opacity:1;"
         offset="0"
         id="stop4013" />
      <stop
         style="stop-color:#ffffff;stop-opacity:0;"
         offset="1"
         id="stop4015" />
    </linearGradient>
    <linearGradient
       inkscape:collect="always"
       id="linearGradient3997">
      <stop
         style="stop-color:#ffffff;stop-opacity:1;"
         offset="0"
         id="stop3999" />
      <stop
         style="stop-color:#ffffff;stop-opacity:0;"
         offset="1"
         id="stop4001" />
    </linearGradient>
    <inkscape:path-effect
       effect="skeletal"
       id="path-effect4237"
       is_visible="true"
       pattern="M 0,5 C 0,2.24 2.24,0 5,0 7.76,0 10,2.24 10,5 10,7.76 7.76,10 5,10 2.24,10 0,7.76 0,5 z"
       copytype="single_stretched"
       prop_scale="1"
       scale_y_rel="false"
       spacing="0"
       normal_offset="0"
       tang_offset="0"
       prop_units="false"
       vertical_pattern="false"
       fuse_tolerance="0" />
    <clipPath
       id="clipPath2999"
       clipPathUnits="userSpaceOnUse">
      <path
         id="path3001"
         d="M 0,792 612,792 612,0 0,0 0,792 z"
         inkscape:connector-curvature="0" />
    </clipPath>
    <radialGradient
       gradientUnits="userSpaceOnUse"
       gradientTransform="matrix(0.75988491,-0.03632001,0.13155835,2.7524547,16.986326,-78.268899)"
       r="12.650181"
       fy="46.658409"
       fx="96.306435"
       cy="46.658409"
       cx="96.306435"
       id="radialGradient3972"
       xlink:href="#linearGradient3966"
       inkscape:collect="always" />
    <clipPath
       clipPathUnits="userSpaceOnUse"
       id="clipPath2999-4">
      <path
         inkscape:connector-curvature="0"
         d="M 0,792 612,792 612,0 0,0 0,792 z"
         id="path3001-0" />
    </clipPath>
    <linearGradient
       id="linearGradient3966">
      <stop
         id="stop3968"
         offset="0"
         style="stop-color:#c0ac02;stop-opacity:1;" />
      <stop
         id="stop3970"
         offset="1"
         style="stop-color:#fdea41;stop-opacity:0;" />
    </linearGradient>
    <radialGradient
       inkscape:collect="always"
       xlink:href="#linearGradient3997"
       id="radialGradient4003"
       cx="165.81134"
       cy="47.693741"
       fx="165.81134"
       fy="47.693741"
       r="3.8123069"
       gradientTransform="matrix(0.64374811,-0.18781617,0.31213841,1.069868,43.640483,27.15595)"
       gradientUnits="userSpaceOnUse" />
    <radialGradient
       inkscape:collect="always"
       xlink:href="#linearGradient3997"
       id="radialGradient4007"
       gradientUnits="userSpaceOnUse"
       gradientTransform="matrix(-0.64374811,-0.18781617,-0.31213841,1.069868,293.73143,27.15595)"
       cx="165.81134"
       cy="47.693741"
       fx="165.81134"
       fy="47.693741"
       r="3.8123069" />
    <radialGradient
       inkscape:collect="always"
       xlink:href="#linearGradient4011"
       id="radialGradient4017"
       cx="169.32254"
       cy="41.784931"
       fx="169.32254"
       fy="41.784931"
       r="6.982676"
       gradientTransform="matrix(0.31036379,-0.01814613,0.03701409,0.63307367,114.75293,21.468668)"
       gradientUnits="userSpaceOnUse" />
    <linearGradient
       id="linearGradient3966-2">
      <stop
         style="stop-color:#c0ac02;stop-opacity:1;"
         offset="0"
         id="stop3968-4" />
      <stop
         style="stop-color:#fdea41;stop-opacity:0;"
         offset="1"
         id="stop3970-5" />
    </linearGradient>
    <clipPath
       id="clipPath2999-4-8"
       clipPathUnits="userSpaceOnUse">
      <path
         id="path3001-0-8"
         d="M 0,792 612,792 612,0 0,0 0,792 z"
         inkscape:connector-curvature="0" />
    </clipPath>
    <radialGradient
       inkscape:collect="always"
       xlink:href="#linearGradient3966-2"
       id="radialGradient3972-4"
       cx="96.306435"
       cy="46.658409"
       fx="96.306435"
       fy="46.658409"
       r="12.650181"
       gradientTransform="matrix(0.75988491,-0.03632001,0.13155835,2.7524547,16.986326,-78.268899)"
       gradientUnits="userSpaceOnUse" />
    <clipPath
       clipPathUnits="userSpaceOnUse"
       id="clipPath2999-0">
      <path
         inkscape:connector-curvature="0"
         d="M 0,792 612,792 612,0 0,0 0,792 z"
         id="path3001-9" />
    </clipPath>
    <inkscape:path-effect
       fuse_tolerance="0"
       vertical_pattern="false"
       prop_units="false"
       tang_offset="0"
       normal_offset="0"
       spacing="0"
       scale_y_rel="false"
       prop_scale="1"
       copytype="single_stretched"
       pattern="M 0,5 C 0,2.24 2.24,0 5,0 7.76,0 10,2.24 10,5 10,7.76 7.76,10 5,10 2.24,10 0,7.76 0,5 z"
       is_visible="true"
       id="path-effect4237-4"
       effect="skeletal" />
  </defs>
  <sodipodi:namedview
     id="base"
     pagecolor="#ffffff"
     bordercolor="#666666"
     borderopacity="1.0"
     inkscape:pageopacity="0.0"
     inkscape:pageshadow="2"
     inkscape:zoom="2.38"
     inkscape:cx="82.234754"
     inkscape:cy="34.445519"
     inkscape:document-units="px"
     inkscape:current-layer="layer12"
     showgrid="false"
     fit-margin-top="0"
     fit-margin-left="0"
     fit-margin-right="0"
     fit-margin-bottom="0"
     inkscape:window-width="1280"
     inkscape:window-height="968"
     inkscape:window-x="-4"
     inkscape:window-y="-4"
     inkscape:window-maximized="1"
     showguides="true"
     inkscape:guide-bbox="true"
     inkscape:snap-global="false">
    <sodipodi:guide
       orientation="0,1"
       position="78.75008,-31.450951"
       id="guide3274" />
    <sodipodi:guide
       orientation="1,0"
       position="93.60034,-26.334249"
       id="guide3960" />
  </sodipodi:namedview>
  <metadata
     id="metadata7">
    <rdf:RDF>
      <cc:Work
         rdf:about="">
        <dc:format>image/svg+xml</dc:format>
        <dc:type
           rdf:resource="http://purl.org/dc/dcmitype/StillImage" />
        <dc:title></dc:title>
      </cc:Work>
    </rdf:RDF>
  </metadata>
  <g
     inkscape:groupmode="layer"
     id="layer12"
     inkscape:label="tyson"
     transform="translate(-75.29937,6.1e-4)">
    <g
       id="g4453"
       transform="translate(-28.303005,0)">
      <path
         sodipodi:nodetypes="ccccccccccc"
         inkscape:connector-curvature="0"
         id="path4342"
         d="m 129.86871,14.008893 c -0.58179,0.01338 -1.3612,0.07857 -2.4375,0.1875 l 4.25,0.780974 c -0.0149,0.0056 -0.0153,0.02588 -0.0312,0.03125 l 0.21875,0 0.1875,0 c -0.016,-0.0054 -0.0163,-0.02564 -0.0312,-0.03125 l 4.28125,-0.780974 c -3.80118,-0.384708 -4.00892,-0.08419 -4.46875,0.15625 -0.31471,-0.16994 -0.53273,-0.376772 -1.96875,-0.34375 z"
         style="fill:#1b2a34;stroke:none" />
      <g
         transform="translate(-0.13072544,0)"
         id="g4333">
        <path
           inkscape:connector-curvature="0"
           style="fill:#1b2a34;stroke:#1b2a34;stroke-width:0.708;stroke-miterlimit:4;stroke-dasharray:none"
           d="m 127.47244,14.523302 0,1.21875 c 0,1.349649 1.08785,2.4375 2.4375,2.4375 l 4.21875,0 c 1.34965,0 2.4375,-1.087851 2.4375,-2.4375 l 0,-1.1875 c -1.31402,0.118087 -2.77969,0.21875 -4.3125,0.21875 -1.73621,0 -3.33699,-0.10075 -4.78125,-0.25 z"
           id="path4017" />
        <path
           inkscape:connector-curvature="0"
           style="fill:#f2f3f2;fill-opacity:1;stroke:none"
           d="m 131.91186,17.01433 c -1.52164,0 -2.8959,0.08083 -3.90625,0.21875 0.4457,0.566493 1.12684,0.9375 1.90625,0.9375 l 4.21875,0 c 0.77101,0 1.46012,-0.35022 1.90625,-0.90625 -1.02521,-0.156801 -2.48813,-0.25 -4.125,-0.25 z"
           id="path4035" />
        <path
           id="path4001"
           d="m 127.47244,14.523302 0,1.21875 c 0,1.349649 1.08785,2.4375 2.4375,2.4375 l 4.21875,0 c 1.34965,0 2.4375,-1.087851 2.4375,-2.4375 l 0,-1.1875 c -1.31402,0.118087 -2.77969,0.21875 -4.3125,0.21875 -1.73621,0 -3.33699,-0.10075 -4.78125,-0.25 z"
           style="fill:none;stroke:#1b2a34;stroke-width:0.708;stroke-miterlimit:4;stroke-dasharray:none"
           inkscape:connector-curvature="0" />
        <path
           sodipodi:nodetypes="cccccc"
           inkscape:connector-curvature="0"
           id="path4003"
           d="m 127.1634,14.182744 c -0.48644,0.160537 -1.07571,0.288547 0.18404,0.639762 l 0.34375,0.263296 0,-0.375 0,-0.493352 c -0.18016,-0.971122 -0.44731,-0.567979 -0.52779,-0.03471 z"
           style="font-size:medium;font-style:normal;font-variant:normal;font-weight:normal;font-stretch:normal;text-indent:0;text-align:start;text-decoration:none;line-height:normal;letter-spacing:normal;word-spacing:normal;text-transform:none;direction:ltr;block-progression:tb;writing-mode:lr-tb;text-anchor:start;baseline-shift:baseline;color:#000000;fill:#1b2a34;fill-opacity:1;stroke:none;stroke-width:0.69999999;marker:none;visibility:visible;display:inline;overflow:visible;enable-background:accumulate;font-family:Sans;-inkscape-font-specification:Sans" />
        <path
           style="font-size:medium;font-style:normal;font-variant:normal;font-weight:normal;font-stretch:normal;text-indent:0;text-align:start;text-decoration:none;line-height:normal;letter-spacing:normal;word-spacing:normal;text-transform:none;direction:ltr;block-progression:tb;writing-mode:lr-tb;text-anchor:start;baseline-shift:baseline;color:#000000;fill:#1b2a34;fill-opacity:1;stroke:none;stroke-width:0.69999999;marker:none;visibility:visible;display:inline;overflow:visible;enable-background:accumulate;font-family:Sans;-inkscape-font-specification:Sans"
           d="m 136.83557,14.182744 c 0.48643,0.160537 1.0757,0.288547 -0.18405,0.639762 l -0.34375,0.263296 0,-0.375 0,-0.493352 c 0.18017,-0.971122 0.44731,-0.567979 0.5278,-0.03471 z"
           id="path4005"
           inkscape:connector-curvature="0"
           sodipodi:nodetypes="cccccc" />
        <path
           inkscape:connector-curvature="0"
           style="fill:#f2f3f2;fill-opacity:1;stroke:none"
           d="m 129.88061,14.70183 0,0.625 c 0,0.329009 0.26474,0.59375 0.59375,0.59375 l 0.65625,0 c 0.32901,0 0.59375,-0.264741 0.59375,-0.59375 l 0,-0.5625 c -0.62967,-0.0077 -1.25259,-0.03155 -1.84375,-0.0625 z"
           id="rect4019" />
        <path
           inkscape:connector-curvature="0"
           style="fill:#f2f3f2;fill-opacity:1;stroke:none"
           d="m 134.13061,14.70183 c -0.58904,0.02798 -1.19576,0.06138 -1.8125,0.0625 l 0,0.59375 c 0,0.329009 0.26474,0.59375 0.59375,0.59375 l 0.625,0 c 0.32901,0 0.59375,-0.264741 0.59375,-0.59375 l 0,-0.65625 z"
           id="rect4021" />
      </g>
      <g
         transform="translate(-189.63252,-1.3513514)"
         id="g4142">
        <g
           id="g4135"
           transform="translate(-0.08128357,0)">
          <path
             sodipodi:open="true"
             sodipodi:end="9.9794975"
             sodipodi:start="5.7591768"
             transform="translate(178.51342,1.1111856)"
             d="m 146.1675,6.8813995 c 0.97034,1.2341967 0.39579,2.8129046 -1.28329,3.5261425 -1.67909,0.713239 -3.82686,0.290918 -4.7972,-0.9432785 -0.64753,-0.8236125 -0.62625,-1.8422653 0.0554,-2.6508745"
             sodipodi:ry="2.5810325"
             sodipodi:rx="3.5114045"
             sodipodi:cy="8.1728315"
             sodipodi:cx="143.12726"
             id="path4057"
             style="fill:none;stroke:#1b2a34;stroke-width:0.70866144;stroke-linecap:round;stroke-miterlimit:4;stroke-opacity:1;stroke-dasharray:none"
             sodipodi:type="arc" />
          <g
             transform="translate(288.40668,111.79926)"
             id="g3170">
            <path
               sodipodi:type="arc"
               style="fill:#000000;fill-opacity:1;stroke:none"
               id="path3172"
               sodipodi:cx="206.08511"
               sodipodi:cy="14.904921"
               sodipodi:rx="1.7446809"
               sodipodi:ry="1.7446809"
               d="m 207.82979,14.904921 c 0,0.96356 -0.78112,1.74468 -1.74468,1.74468 -0.96356,0 -1.74468,-0.78112 -1.74468,-1.74468 0,-0.963561 0.78112,-1.744681 1.74468,-1.744681 0.96356,0 1.74468,0.78112 1.74468,1.744681 z"
               transform="matrix(-1,0,0,1,239.26098,-117.01324)" />
            <path
               transform="matrix(-1,0,0,1,239.43119,-117.09835)"
               sodipodi:type="arc"
               style="fill:#ffffff;fill-opacity:1;stroke:none"
               id="path3174"
               sodipodi:cx="206.38298"
               sodipodi:cy="14.351728"
               sodipodi:rx="0.59574467"
               sodipodi:ry="0.68085104"
               d="m 206.97873,14.351728 c 0,0.376024 -0.26673,0.680851 -0.59575,0.680851 -0.32902,0 -0.59574,-0.304827 -0.59574,-0.680851 0,-0.376023 0.26672,-0.680851 0.59574,-0.680851 0.32902,0 0.59575,0.304828 0.59575,0.680851 z" />
          </g>
          <path
             sodipodi:nodetypes="cc"
             inkscape:connector-curvature="0"
             id="path4055"
             d="m 317.05073,9.1039452 c 3.76539,-3.5281017 5.7774,-3.0264291 9.06363,0"
             style="fill:none;stroke:#694020;stroke-width:0.70866144;stroke-linecap:round;stroke-linejoin:miter;stroke-miterlimit:4;stroke-opacity:1;stroke-dasharray:none" />
        </g>
        <path
           style="fill:none;stroke:#000000;stroke-width:0.35433072;stroke-linecap:round;stroke-linejoin:miter;stroke-miterlimit:4;stroke-opacity:1;stroke-dasharray:none"
           d="m 328.95134,8.9571991 -1.92975,0.8683865 1.83326,0.7397364"
           id="path4061"
           inkscape:connector-curvature="0" />
        <path
           inkscape:connector-curvature="0"
           id="path4063"
           d="m 314.05121,8.9571991 1.92975,0.8683865 -1.83326,0.7397364"
           style="fill:none;stroke:#000000;stroke-width:0.35433072;stroke-linecap:round;stroke-linejoin:miter;stroke-miterlimit:4;stroke-opacity:1;stroke-dasharray:none" />
      </g>
      <g
         style="stroke-width:0.39748061;stroke-miterlimit:4;stroke-dasharray:none"
         transform="matrix(1.4636504,0,0,1.0811122,-60.798192,-1.0481819)"
         id="g4328">
        <path
           sodipodi:nodetypes="cc"
           inkscape:connector-curvature="0"
           id="path4214"
           d="m 133.48442,13.033428 c 0.21316,-0.644205 -0.16369,-0.550903 -0.5284,-0.472774"
           style="fill:none;stroke:#1b2a34;stroke-width:0.39748061;stroke-linecap:round;stroke-linejoin:miter;stroke-miterlimit:4;stroke-opacity:1;stroke-dasharray:none" />
        <path
           sodipodi:open="true"
           sodipodi:type="arc"
           style="fill:none;stroke:#1b2a34;stroke-width:0.39748061;stroke-linecap:round;stroke-miterlimit:4;stroke-opacity:1;stroke-dasharray:none"
           id="path4324"
           sodipodi:cx="131.91727"
           sodipodi:cy="12.599186"
           sodipodi:rx="1.3141663"
           sodipodi:ry="1.0116994"
           d="m 133.18531,12.864856 c -0.19059,0.539137 -0.91282,0.85725 -1.61314,0.710524 -0.46025,-0.09643 -0.8165,-0.377272 -0.93079,-0.733781"
           sodipodi:start="0.26571386"
           sodipodi:end="2.8996291"
           transform="translate(-0.22945762,-0.27117718)" />
        <path
           style="fill:none;stroke:#1b2a34;stroke-width:0.39748061;stroke-linecap:round;stroke-linejoin:miter;stroke-miterlimit:4;stroke-opacity:1;stroke-dasharray:none"
           d="m 129.78466,13.033428 c -0.21316,-0.644205 0.16369,-0.550903 0.5284,-0.472774"
           id="path4326"
           inkscape:connector-curvature="0"
           sodipodi:nodetypes="cc" />
      </g>
    </g>
    <g
       id="g4422"
       transform="translate(8.328885,0)">
      <path
         inkscape:connector-curvature="0"
         style="fill:#f2f3f2;fill-opacity:1;stroke:none"
         d="m 149.88061,14.70183 0,0.625 c 0,0.329009 0.26474,0.59375 0.59375,0.59375 l 0.65625,0 c 0.32901,0 0.59375,-0.264741 0.59375,-0.59375 l 0,-0.5625 c -0.62967,-0.0077 -1.25259,-0.03155 -1.84375,-0.0625 z"
         id="path4249" />
      <path
         inkscape:connector-curvature="0"
         style="fill:#f2f3f2;fill-opacity:1;stroke:none"
         d="m 154.13061,14.70183 c -0.58904,0.02798 -1.19576,0.06138 -1.8125,0.0625 l 0,0.59375 c 0,0.329009 0.26474,0.59375 0.59375,0.59375 l 0.625,0 c 0.32901,0 0.59375,-0.264741 0.59375,-0.59375 l 0,-0.65625 z"
         id="path4251" />
      <g
         id="g4253"
         transform="translate(-169.63252,-1.3513514)">
        <g
           transform="translate(-0.08128357,0)"
           id="g4255">
          <path
             sodipodi:type="arc"
             style="fill:none;stroke:#1b2a34;stroke-width:0.70866144;stroke-linecap:round;stroke-miterlimit:4;stroke-opacity:1;stroke-dasharray:none"
             id="path4257"
             sodipodi:cx="143.12726"
             sodipodi:cy="8.1728315"
             sodipodi:rx="3.5114045"
             sodipodi:ry="2.5810325"
             d="m 146.1675,6.8813995 c 0.97034,1.2341967 0.39579,2.8129046 -1.28329,3.5261425 -1.67909,0.713239 -3.82686,0.290918 -4.7972,-0.9432785 -0.64753,-0.8236125 -0.62625,-1.8422653 0.0554,-2.6508745"
             transform="translate(178.51342,1.1111856)"
             sodipodi:start="5.7591768"
             sodipodi:end="9.9794975"
             sodipodi:open="true" />
          <g
             id="g4259"
             transform="translate(288.40668,111.79926)">
            <path
               transform="matrix(-1,0,0,1,239.26098,-117.01324)"
               d="m 207.82979,14.904921 c 0,0.96356 -0.78112,1.74468 -1.74468,1.74468 -0.96356,0 -1.74468,-0.78112 -1.74468,-1.74468 0,-0.963561 0.78112,-1.744681 1.74468,-1.744681 0.96356,0 1.74468,0.78112 1.74468,1.744681 z"
               sodipodi:ry="1.7446809"
               sodipodi:rx="1.7446809"
               sodipodi:cy="14.904921"
               sodipodi:cx="206.08511"
               id="path4261"
               style="fill:#000000;fill-opacity:1;stroke:none"
               sodipodi:type="arc" />
            <path
               d="m 206.97873,14.351728 c 0,0.376024 -0.26673,0.680851 -0.59575,0.680851 -0.32902,0 -0.59574,-0.304827 -0.59574,-0.680851 0,-0.376023 0.26672,-0.680851 0.59574,-0.680851 0.32902,0 0.59575,0.304828 0.59575,0.680851 z"
               sodipodi:ry="0.68085104"
               sodipodi:rx="0.59574467"
               sodipodi:cy="14.351728"
               sodipodi:cx="206.38298"
               id="path4263"
               style="fill:#ffffff;fill-opacity:1;stroke:none"
               sodipodi:type="arc"
               transform="matrix(-1,0,0,1,239.43119,-117.09835)" />
          </g>
          <path
             style="fill:none;stroke:#694020;stroke-width:0.70866144;stroke-linecap:round;stroke-linejoin:miter;stroke-miterlimit:4;stroke-opacity:1;stroke-dasharray:none"
             d="m 317.05073,9.1039452 c 3.76539,-3.5281017 5.7774,-3.0264291 9.06363,0"
             id="path4265"
             inkscape:connector-curvature="0"
             sodipodi:nodetypes="cc" />
        </g>
        <path
           inkscape:connector-curvature="0"
           id="path4267"
           d="m 328.95134,8.9571991 -1.92975,0.8683865 1.83326,0.7397364"
           style="fill:none;stroke:#000000;stroke-width:0.35433072;stroke-linecap:round;stroke-linejoin:miter;stroke-miterlimit:4;stroke-opacity:1;stroke-dasharray:none" />
        <path
           style="fill:none;stroke:#000000;stroke-width:0.35433072;stroke-linecap:round;stroke-linejoin:miter;stroke-miterlimit:4;stroke-opacity:1;stroke-dasharray:none"
           d="m 314.05121,8.9571991 1.92975,0.8683865 -1.83326,0.7397364"
           id="path4269"
           inkscape:connector-curvature="0" />
      </g>
      <g
         id="g4351"
         transform="matrix(1.4636504,0,0,1.0811122,-40.798192,-1.0481819)"
         style="stroke-width:0.39748061;stroke-miterlimit:4;stroke-dasharray:none">
        <path
           style="fill:none;stroke:#1b2a34;stroke-width:0.39748061;stroke-linecap:round;stroke-linejoin:miter;stroke-miterlimit:4;stroke-opacity:1;stroke-dasharray:none"
           d="m 133.48442,13.033428 c 0.21316,-0.644205 -0.16369,-0.550903 -0.5284,-0.472774"
           id="path4353"
           inkscape:connector-curvature="0"
           sodipodi:nodetypes="cc" />
        <path
           transform="translate(-0.22945762,-0.27117718)"
           sodipodi:end="2.8996291"
           sodipodi:start="0.26571386"
           d="m 133.18531,12.864856 c -0.19059,0.539137 -0.91282,0.85725 -1.61314,0.710524 -0.46025,-0.09643 -0.8165,-0.377272 -0.93079,-0.733781"
           sodipodi:ry="1.0116994"
           sodipodi:rx="1.3141663"
           sodipodi:cy="12.599186"
           sodipodi:cx="131.91727"
           id="path4355"
           style="fill:none;stroke:#1b2a34;stroke-width:0.39748061;stroke-linecap:round;stroke-miterlimit:4;stroke-opacity:1;stroke-dasharray:none"
           sodipodi:type="arc"
           sodipodi:open="true" />
        <path
           sodipodi:nodetypes="cc"
           inkscape:connector-curvature="0"
           id="path4357"
           d="m 129.78466,13.033428 c -0.21316,-0.644205 0.16369,-0.550903 0.5284,-0.472774"
           style="fill:none;stroke:#1b2a34;stroke-width:0.39748061;stroke-linecap:round;stroke-linejoin:miter;stroke-miterlimit:4;stroke-opacity:1;stroke-dasharray:none" />
      </g>
      <g
         transform="translate(46.561492,94.783904)"
         id="g4407">
        <g
           id="g3984"
           transform="translate(30.307263,-9.4953165)">
          <path
             style="fill:#1b2a34;stroke:#000000;stroke-width:0.70866144;stroke-linecap:butt;stroke-linejoin:miter;stroke-miterlimit:4;stroke-opacity:1;stroke-dasharray:none"
             d="m 71.0625,-70.71875 c -0.568749,0.03461 -0.771918,0.765486 -1.125,1.4375 -0.417701,0.795004 -0.921104,1.571912 -0.53125,1.9375 2.10186,0.35149 3.585866,0.520499 5.59375,0.46875 1.852041,0.05379 3.792088,-0.15239 5.59375,-0.46875 0.389854,-0.365588 -0.113549,-1.142496 -0.53125,-1.9375 -0.353082,-0.672014 -0.525001,-1.40289 -1.09375,-1.4375 -0.51833,-0.03154 -0.04587,0.546096 -3.96875,0.65625 -3.891011,-0.112291 -3.420462,-0.687716 -3.9375,-0.65625 z"
             id="path3951"
             inkscape:connector-curvature="0"
             sodipodi:nodetypes="sscccsscs" />
          <path
             id="path3953"
             d="m 71.0625,-70.71875 c -0.568749,0.03461 -0.771918,0.765486 -1.125,1.4375 -0.0066,0.0125 -0.02464,0.01876 -0.03125,0.03125 0.06161,0.01978 0.118055,0.04454 0.1875,0.0625 2.321215,0.600325 7.314412,0.532656 9.96875,0.15625 0.04573,-0.0065 0.08401,-0.02223 0.125,-0.03125 -0.03989,-0.07394 -0.08581,-0.144164 -0.125,-0.21875 -0.353082,-0.672014 -0.525001,-1.40289 -1.09375,-1.4375 -0.51833,-0.03154 -0.04587,0.546096 -3.96875,0.65625 -3.891011,-0.112291 -3.420462,-0.687716 -3.9375,-0.65625 z"
             style="fill:#f2f3f2;stroke:none"
             inkscape:connector-curvature="0" />
          <path
             id="rect3960"
             d="m 71.90625,-68.53125 c -0.817943,-0.01053 -0.926533,0.338146 -1.0625,1.40625 1.410556,0.196243 2.639889,0.289081 4.15625,0.25 1.41982,0.04124 2.891237,-0.05315 4.3125,-0.25 -0.08845,-0.985585 -0.13025,-1.505602 -1.34375,-1.40625 -2.019328,0.11539 -4.043172,0.11539 -6.0625,0 z"
             style="fill:#f2f3f2;fill-opacity:1;stroke:none"
             inkscape:connector-curvature="0" />
          <path
             sodipodi:nodetypes="sscccsscs"
             inkscape:connector-curvature="0"
             id="path3178"
             d="m 71.0625,-70.71875 c -0.568749,0.03461 -0.771918,0.765486 -1.125,1.4375 -0.417701,0.795004 -0.921104,1.571912 -0.53125,1.9375 2.10186,0.35149 3.585866,0.520499 5.59375,0.46875 1.852041,0.05379 3.792088,-0.15239 5.59375,-0.46875 0.389854,-0.365588 -0.113549,-1.142496 -0.53125,-1.9375 -0.353082,-0.672014 -0.525001,-1.40289 -1.09375,-1.4375 -0.51833,-0.03154 -0.04587,0.546096 -3.96875,0.65625 -3.891011,-0.112291 -3.420462,-0.687716 -3.9375,-0.65625 z"
             style="fill:none;stroke:#000000;stroke-width:0.70866144;stroke-linecap:butt;stroke-linejoin:miter;stroke-miterlimit:4;stroke-opacity:1;stroke-dasharray:none" />
          <path
             transform="matrix(0.3794215,-0.92000097,0.3794215,0.92000097,72.292848,60.225202)"
             inkscape:transform-center-y="-0.22622105"
             inkscape:transform-center-x="0.011535858"
             d="m 73.41611,-66.047015 -0.182657,0.348015 -0.06046,0.47021 -0.210061,-0.332192 -0.376984,-0.287466 0.392718,-0.01582 z"
             inkscape:randomized="0"
             inkscape:rounded="0"
             inkscape:flatsided="false"
             sodipodi:arg2="0.05183283"
             sodipodi:arg1="-0.75837771"
             sodipodi:r2="0.17533895"
             sodipodi:r1="0.49281442"
             sodipodi:cy="-65.708084"
             sodipodi:cx="73.05835"
             sodipodi:sides="3"
             id="path3967"
             style="fill:#1b2a34;fill-opacity:1;stroke:none"
             sodipodi:type="star" />
          <path
             sodipodi:type="star"
             style="fill:#1b2a34;fill-opacity:1;stroke:none"
             id="path3970"
             sodipodi:sides="3"
             sodipodi:cx="73.05835"
             sodipodi:cy="-65.708084"
             sodipodi:r1="0.49281442"
             sodipodi:r2="0.17533895"
             sodipodi:arg1="-0.75837771"
             sodipodi:arg2="0.05183283"
             inkscape:flatsided="false"
             inkscape:rounded="0"
             inkscape:randomized="0"
             d="m 73.41611,-66.047015 -0.182657,0.348015 -0.06046,0.47021 -0.210061,-0.332192 -0.376984,-0.287466 0.392718,-0.01582 z"
             inkscape:transform-center-x="0.011535858"
             inkscape:transform-center-y="-0.22622105"
             transform="matrix(0.3794215,-0.92000097,0.3794215,0.92000097,73.99671,60.225202)" />
          <path
             sodipodi:type="star"
             style="fill:#1b2a34;fill-opacity:1;stroke:none"
             id="path3972"
             sodipodi:sides="3"
             sodipodi:cx="73.05835"
             sodipodi:cy="-65.708084"
             sodipodi:r1="0.49281442"
             sodipodi:r2="0.17533895"
             sodipodi:arg1="-0.75837771"
             sodipodi:arg2="0.05183283"
             inkscape:flatsided="false"
             inkscape:rounded="0"
             inkscape:randomized="0"
             d="m 73.41611,-66.047015 -0.182657,0.348015 -0.06046,0.47021 -0.210061,-0.332192 -0.376984,-0.287466 0.392718,-0.01582 z"
             inkscape:transform-center-x="0.011535858"
             inkscape:transform-center-y="-0.22622105"
             transform="matrix(0.3794215,-0.92000097,0.3794215,0.92000097,70.426713,60.225202)" />
          <path
             transform="matrix(0.3794215,0.92000097,0.3794215,-0.92000097,72.258075,-197.27691)"
             inkscape:transform-center-y="0.22622196"
             inkscape:transform-center-x="0.011535858"
             d="m 73.41611,-66.047015 -0.182657,0.348015 -0.06046,0.47021 -0.210061,-0.332192 -0.376984,-0.287466 0.392718,-0.01582 z"
             inkscape:randomized="0"
             inkscape:rounded="0"
             inkscape:flatsided="false"
             sodipodi:arg2="0.05183283"
             sodipodi:arg1="-0.75837771"
             sodipodi:r2="0.17533895"
             sodipodi:r1="0.49281442"
             sodipodi:cy="-65.708084"
             sodipodi:cx="73.05835"
             sodipodi:sides="3"
             id="path3974"
             style="fill:#1b2a34;fill-opacity:1;stroke:none"
             sodipodi:type="star" />
          <path
             sodipodi:type="star"
             style="fill:#1b2a34;fill-opacity:1;stroke:none"
             id="path3976"
             sodipodi:sides="3"
             sodipodi:cx="73.05835"
             sodipodi:cy="-65.708084"
             sodipodi:r1="0.49281442"
             sodipodi:r2="0.17533895"
             sodipodi:arg1="-0.75837771"
             sodipodi:arg2="0.05183283"
             inkscape:flatsided="false"
             inkscape:rounded="0"
             inkscape:randomized="0"
             d="m 73.41611,-66.047015 -0.182657,0.348015 -0.06046,0.47021 -0.210061,-0.332192 -0.376984,-0.287466 0.392718,-0.01582 z"
             inkscape:transform-center-x="0.011535858"
             inkscape:transform-center-y="0.22622196"
             transform="matrix(0.3794215,0.92000097,0.3794215,-0.92000097,73.915574,-197.27691)" />
          <path
             transform="matrix(0.3794215,0.92000097,0.3794215,-0.92000097,75.376027,-197.52032)"
             inkscape:transform-center-y="0.22622196"
             inkscape:transform-center-x="0.011535858"
             d="m 73.41611,-66.047015 -0.182657,0.348015 -0.06046,0.47021 -0.210061,-0.332192 -0.376984,-0.287466 0.392718,-0.01582 z"
             inkscape:randomized="0"
             inkscape:rounded="0"
             inkscape:flatsided="false"
             sodipodi:arg2="0.05183283"
             sodipodi:arg1="-0.75837771"
             sodipodi:r2="0.17533895"
             sodipodi:r1="0.49281442"
             sodipodi:cy="-65.708084"
             sodipodi:cx="73.05835"
             sodipodi:sides="3"
             id="path3978"
             style="fill:#1b2a34;fill-opacity:1;stroke:none"
             sodipodi:type="star" />
          <path
             sodipodi:type="star"
             style="fill:#1b2a34;fill-opacity:1;stroke:none"
             id="path3980"
             sodipodi:sides="3"
             sodipodi:cx="73.05835"
             sodipodi:cy="-65.708084"
             sodipodi:r1="0.49281442"
             sodipodi:r2="0.17533895"
             sodipodi:arg1="-0.75837771"
             sodipodi:arg2="0.05183283"
             inkscape:flatsided="false"
             inkscape:rounded="0"
             inkscape:randomized="0"
             d="m 73.41611,-66.047015 -0.182657,0.348015 -0.06046,0.47021 -0.210061,-0.332192 -0.376984,-0.287466 0.392718,-0.01582 z"
             inkscape:transform-center-x="0.011535858"
             inkscape:transform-center-y="0.22622196"
             transform="matrix(0.3794215,0.92000097,0.3794215,-0.92000097,69.001033,-197.52032)" />
          <path
             sodipodi:type="star"
             style="fill:#1b2a34;fill-opacity:1;stroke:none"
             id="path3982"
             sodipodi:sides="3"
             sodipodi:cx="73.05835"
             sodipodi:cy="-65.708084"
             sodipodi:r1="0.49281442"
             sodipodi:r2="0.17533895"
             sodipodi:arg1="-0.75837771"
             sodipodi:arg2="0.05183283"
             inkscape:flatsided="false"
             inkscape:rounded="0"
             inkscape:randomized="0"
             d="m 73.41611,-66.047015 -0.182657,0.348015 -0.06046,0.47021 -0.210061,-0.332192 -0.376984,-0.287466 0.392718,-0.01582 z"
             inkscape:transform-center-x="0.011535858"
             inkscape:transform-center-y="0.22622196"
             transform="matrix(0.3794215,0.92000097,0.3794215,-0.92000097,70.403531,-197.27691)" />
        </g>
      </g>
    </g>
  </g>
  <g
     inkscape:label="template"
     inkscape:groupmode="layer"
     id="layer1"
     transform="translate(-293.46875,-378.375)"
     style="display:inline">
    <path
       inkscape:connector-curvature="0"
       d="m 406.43813,399.93655 -112.8,0 0,-21.39125 112.8,0 0,21.39125 z"
       style="fill:none;stroke:#231f20;stroke-width:0.3125;stroke-linecap:butt;stroke-linejoin:miter;stroke-miterlimit:4;stroke-opacity:1;stroke-dasharray:none"
       id="path3081" />
  </g>
</svg>
