<?xml version="1.0" encoding="UTF-8" standalone="no"?>
<!-- Created with Inkscape (http://www.inkscape.org/) -->

<svg
   xmlns:dc="http://purl.org/dc/elements/1.1/"
   xmlns:cc="http://creativecommons.org/ns#"
   xmlns:rdf="http://www.w3.org/1999/02/22-rdf-syntax-ns#"
   xmlns:svg="http://www.w3.org/2000/svg"
   xmlns="http://www.w3.org/2000/svg"
   xmlns:xlink="http://www.w3.org/1999/xlink"
   xmlns:sodipodi="http://sodipodi.sourceforge.net/DTD/sodipodi-0.dtd"
   xmlns:inkscape="http://www.inkscape.org/namespaces/inkscape"
   width="52.375"
   height="43.213669"
   id="svg2"
   version="1.1"
   inkscape:version="0.48.2 r9819"
   sodipodi:docname="elf.svg">
  <defs
     id="defs4">
    <linearGradient
       inkscape:collect="always"
       id="linearGradient4011">
      <stop
         style="stop-color:#ffffff;stop-opacity:1;"
         offset="0"
         id="stop4013" />
      <stop
         style="stop-color:#ffffff;stop-opacity:0;"
         offset="1"
         id="stop4015" />
    </linearGradient>
    <linearGradient
       inkscape:collect="always"
       id="linearGradient3997">
      <stop
         style="stop-color:#ffffff;stop-opacity:1;"
         offset="0"
         id="stop3999" />
      <stop
         style="stop-color:#ffffff;stop-opacity:0;"
         offset="1"
         id="stop4001" />
    </linearGradient>
    <inkscape:path-effect
       effect="skeletal"
       id="path-effect4237"
       is_visible="true"
       pattern="M 0,5 C 0,2.24 2.24,0 5,0 7.76,0 10,2.24 10,5 10,7.76 7.76,10 5,10 2.24,10 0,7.76 0,5 z"
       copytype="single_stretched"
       prop_scale="1"
       scale_y_rel="false"
       spacing="0"
       normal_offset="0"
       tang_offset="0"
       prop_units="false"
       vertical_pattern="false"
       fuse_tolerance="0" />
    <clipPath
       id="clipPath2999"
       clipPathUnits="userSpaceOnUse">
      <path
         id="path3001"
         d="M 0,792 612,792 612,0 0,0 0,792 z"
         inkscape:connector-curvature="0" />
    </clipPath>
    <radialGradient
       gradientUnits="userSpaceOnUse"
       gradientTransform="matrix(0.75988491,-0.03632001,0.13155835,2.7524547,16.986326,-78.268899)"
       r="12.650181"
       fy="46.658409"
       fx="96.306435"
       cy="46.658409"
       cx="96.306435"
       id="radialGradient3972"
       xlink:href="#linearGradient3966"
       inkscape:collect="always" />
    <clipPath
       clipPathUnits="userSpaceOnUse"
       id="clipPath2999-4">
      <path
         inkscape:connector-curvature="0"
         d="M 0,792 612,792 612,0 0,0 0,792 z"
         id="path3001-0" />
    </clipPath>
    <linearGradient
       id="linearGradient3966">
      <stop
         id="stop3968"
         offset="0"
         style="stop-color:#c0ac02;stop-opacity:1;" />
      <stop
         id="stop3970"
         offset="1"
         style="stop-color:#fdea41;stop-opacity:0;" />
    </linearGradient>
    <radialGradient
       inkscape:collect="always"
       xlink:href="#linearGradient3997"
       id="radialGradient4003"
       cx="165.81134"
       cy="47.693741"
       fx="165.81134"
       fy="47.693741"
       r="3.8123069"
       gradientTransform="matrix(0.64374811,-0.18781617,0.31213841,1.069868,43.640483,27.15595)"
       gradientUnits="userSpaceOnUse" />
    <radialGradient
       inkscape:collect="always"
       xlink:href="#linearGradient3997"
       id="radialGradient4007"
       gradientUnits="userSpaceOnUse"
       gradientTransform="matrix(-0.64374811,-0.18781617,-0.31213841,1.069868,293.73143,27.15595)"
       cx="165.81134"
       cy="47.693741"
       fx="165.81134"
       fy="47.693741"
       r="3.8123069" />
    <radialGradient
       inkscape:collect="always"
       xlink:href="#linearGradient4011"
       id="radialGradient4017"
       cx="169.32254"
       cy="41.784931"
       fx="169.32254"
       fy="41.784931"
       r="6.982676"
       gradientTransform="matrix(0.31036379,-0.01814613,0.03701409,0.63307367,114.75293,21.468668)"
       gradientUnits="userSpaceOnUse" />
    <linearGradient
       id="linearGradient3966-2">
      <stop
         style="stop-color:#c0ac02;stop-opacity:1;"
         offset="0"
         id="stop3968-4" />
      <stop
         style="stop-color:#fdea41;stop-opacity:0;"
         offset="1"
         id="stop3970-5" />
    </linearGradient>
    <clipPath
       id="clipPath2999-4-8"
       clipPathUnits="userSpaceOnUse">
      <path
         id="path3001-0-8"
         d="M 0,792 612,792 612,0 0,0 0,792 z"
         inkscape:connector-curvature="0" />
    </clipPath>
    <radialGradient
       inkscape:collect="always"
       xlink:href="#linearGradient3966-2"
       id="radialGradient3972-4"
       cx="96.306435"
       cy="46.658409"
       fx="96.306435"
       fy="46.658409"
       r="12.650181"
       gradientTransform="matrix(0.75988491,-0.03632001,0.13155835,2.7524547,16.986326,-78.268899)"
       gradientUnits="userSpaceOnUse" />
    <clipPath
       clipPathUnits="userSpaceOnUse"
       id="clipPath2999-0">
      <path
         inkscape:connector-curvature="0"
         d="M 0,792 612,792 612,0 0,0 0,792 z"
         id="path3001-9" />
    </clipPath>
    <inkscape:path-effect
       fuse_tolerance="0"
       vertical_pattern="false"
       prop_units="false"
       tang_offset="0"
       normal_offset="0"
       spacing="0"
       scale_y_rel="false"
       prop_scale="1"
       copytype="single_stretched"
       pattern="M 0,5 C 0,2.24 2.24,0 5,0 7.76,0 10,2.24 10,5 10,7.76 7.76,10 5,10 2.24,10 0,7.76 0,5 z"
       is_visible="true"
       id="path-effect4237-4"
       effect="skeletal" />
    <mask
       maskUnits="userSpaceOnUse"
       id="mask4028">
      <path
         inkscape:connector-curvature="0"
         d="m 142.96875,74.54469 c 8.7325,-47.29375 5.3425,-42.67875 14.2675,-42.85625 l 23.44,0 c 8.92625,0.1775 5.535,-4.4375 14.265,42.85625 l -51.9725,0 z"
         style="fill:#ffffff;fill-opacity:1;stroke:#231f20;stroke-width:0.3125;stroke-linecap:butt;stroke-linejoin:miter;stroke-miterlimit:4;stroke-opacity:1;stroke-dasharray:none;display:inline"
         id="path4030" />
    </mask>
    <mask
       maskUnits="userSpaceOnUse"
       id="mask4044">
      <path
         id="path4046"
         style="fill:#ffffff;fill-opacity:1;stroke:#231f20;stroke-width:0.3125;stroke-linecap:butt;stroke-linejoin:miter;stroke-miterlimit:4;stroke-opacity:1;stroke-dasharray:none;display:inline"
         d="m 142.96875,74.54469 c 8.7325,-47.29375 5.3425,-42.67875 14.2675,-42.85625 l 23.44,0 c 8.92625,0.1775 5.535,-4.4375 14.265,42.85625 l -51.9725,0 z"
         inkscape:connector-curvature="0" />
    </mask>
    <mask
       maskUnits="userSpaceOnUse"
       id="mask4057">
      <path
         inkscape:connector-curvature="0"
         d="m 142.96875,74.54469 c 8.7325,-47.29375 5.3425,-42.67875 14.2675,-42.85625 l 23.44,0 c 8.92625,0.1775 5.535,-4.4375 14.265,42.85625 l -51.9725,0 z"
         style="fill:#ffffff;fill-opacity:1;stroke:#231f20;stroke-width:0.3125;stroke-linecap:butt;stroke-linejoin:miter;stroke-miterlimit:4;stroke-opacity:1;stroke-dasharray:none;display:inline"
         id="path4059" />
    </mask>
    <mask
       maskUnits="userSpaceOnUse"
       id="mask4071">
      <path
         id="path4073"
         style="fill:#ffffff;fill-opacity:1;stroke:#231f20;stroke-width:0.3125;stroke-linecap:butt;stroke-linejoin:miter;stroke-miterlimit:4;stroke-opacity:1;stroke-dasharray:none;display:inline"
         d="m 142.96875,74.54469 c 8.7325,-47.29375 5.3425,-42.67875 14.2675,-42.85625 l 23.44,0 c 8.92625,0.1775 5.535,-4.4375 14.265,42.85625 l -51.9725,0 z"
         inkscape:connector-curvature="0" />
    </mask>
    <mask
       maskUnits="userSpaceOnUse"
       id="mask4075">
      <path
         inkscape:connector-curvature="0"
         d="m 143.28876,70.273332 c 8.7325,-47.29375 5.3425,-42.67875 14.2675,-42.85625 l 23.44,0 c 8.92625,0.1775 5.535,-4.4375 14.265,42.85625 l -51.9725,0 z"
         style="fill:#ffffff;fill-opacity:1;stroke:#231f20;stroke-width:0.3125;stroke-linecap:butt;stroke-linejoin:miter;stroke-miterlimit:4;stroke-opacity:1;stroke-dasharray:none;display:inline"
         id="path4077" />
    </mask>
  </defs>
  <sodipodi:namedview
     id="base"
     pagecolor="#ffffff"
     bordercolor="#666666"
     borderopacity="1.0"
     inkscape:pageopacity="0.0"
     inkscape:pageshadow="2"
     inkscape:zoom="3.2656155"
     inkscape:cx="-33.640618"
     inkscape:cy="5.503255"
     inkscape:document-units="px"
     inkscape:current-layer="layer5"
     showgrid="false"
     fit-margin-top="0"
     fit-margin-left="0"
     fit-margin-right="0"
     fit-margin-bottom="0"
     inkscape:window-width="1600"
     inkscape:window-height="848"
     inkscape:window-x="-8"
     inkscape:window-y="-8"
     inkscape:window-maximized="1"
     showguides="true"
     inkscape:guide-bbox="true"
     inkscape:snap-global="false">
    <sodipodi:guide
       orientation="0,1"
       position="11.28133,21.517799"
       id="guide3274" />
    <sodipodi:guide
       orientation="1,0"
       position="26.13159,26.634501"
       id="guide3960" />
  </sodipodi:namedview>
  <metadata
     id="metadata7">
    <rdf:RDF>
      <cc:Work
         rdf:about="">
        <dc:format>image/svg+xml</dc:format>
        <dc:type
           rdf:resource="http://purl.org/dc/dcmitype/StillImage" />
        <dc:title />
      </cc:Work>
    </rdf:RDF>
  </metadata>
  <g
     inkscape:groupmode="layer"
     id="layer3"
     inkscape:label="elf"
     style="display:inline"
     transform="translate(-142.76812,-31.473222)">
    <g
       inkscape:groupmode="layer"
       id="layer5"
       inkscape:label="scales"
       style="display:inline"
       sodipodi:insensitive="true">
      <g
         style="display:inline"
         id="g3833"
         transform="translate(-40.280961,-13.077214)">
        <path
           sodipodi:nodetypes="ssscccss"
           inkscape:connector-curvature="0"
           id="rect3054"
           d="m 160.26583,54.398907 3.64233,0 c 0.42419,0 0.76568,0.341492 0.76568,0.765677 l 0,2.311957 c 0.0528,1.200243 -2.652,2.563334 -2.652,2.563334 0,0 -2.54786,-1.379388 -2.52169,-2.563334 l 0,-2.311957 c 0,-0.424185 0.3415,-0.765677 0.76568,-0.765677 z"
           style="fill:#f2f3f2;fill-opacity:1;stroke:#1b2a34;stroke-width:0.5;stroke-linecap:round;stroke-linejoin:round;stroke-miterlimit:4;stroke-opacity:1;stroke-dasharray:none;stroke-dashoffset:0" />
        <path
           sodipodi:nodetypes="cscccscc"
           inkscape:connector-curvature="0"
           id="path3828"
           d="m 160.65625,54.180201 c -0.0245,0.07519 -0.0625,0.135161 -0.0625,0.21875 l 0,3.351049 c 0.69088,0.616202 1.4375,1.15625 1.4375,1.15625 0,0 0.82918,-0.515786 1.5625,-1.125 l 0,-3.382299 c 0,-0.08277 -0.007,-0.144201 -0.0312,-0.21875 z"
           style="fill:#27462c;fill-opacity:1;stroke:none" />
      </g>
      <g
         style="display:inline"
         id="g3951"
         transform="translate(-0.32000655,4.2713579)"
         mask="url(#mask4075)">
        <g
           transform="translate(0,7.6749515)"
           id="g3899">
          <g
             id="g3887">
            <use
               height="147.96875"
               width="289.36462"
               transform="translate(75.219857,13.185093)"
               id="use3837"
               xlink:href="#g3833"
               y="0"
               x="0" />
            <use
               height="147.96875"
               width="289.36462"
               transform="translate(-6.9746533,0)"
               id="use3839"
               xlink:href="#use3837"
               y="0"
               x="0" />
            <use
               height="147.96875"
               width="289.36462"
               transform="translate(-6.9746533,0)"
               id="use3841"
               xlink:href="#use3839"
               y="0"
               x="0" />
            <use
               height="147.96875"
               width="289.36462"
               transform="translate(-6.9746533,0)"
               id="use3843"
               xlink:href="#use3841"
               y="0"
               x="0" />
            <use
               height="147.96875"
               width="289.36462"
               transform="translate(-6.9746534,0)"
               id="use3845"
               xlink:href="#use3843"
               y="0"
               x="0" />
            <use
               height="147.96875"
               width="289.36462"
               transform="translate(-6.9746533,0)"
               id="use3847"
               xlink:href="#use3845"
               y="0"
               x="0" />
            <use
               height="147.96875"
               width="289.36462"
               transform="translate(-6.9746533,0)"
               id="use3849"
               xlink:href="#use3847"
               y="0"
               x="0" />
            <use
               transform="translate(-6.9746533,0)"
               height="147.96875"
               width="289.36462"
               id="use3851"
               xlink:href="#use3849"
               y="0"
               x="0" />
          </g>
          <use
             x="0"
             y="0"
             xlink:href="#g3887"
             id="use3897"
             transform="translate(-3.1894934,-3.2833021)"
             width="289.36462"
             height="147.96875" />
        </g>
        <use
           height="147.96875"
           width="289.36462"
           transform="translate(0,-5.4242701)"
           id="use3911"
           xlink:href="#g3899"
           y="0"
           x="0" />
        <use
           transform="translate(0,-5.4242701)"
           height="147.96875"
           width="289.36462"
           id="use3913"
           xlink:href="#use3911"
           y="0"
           x="0" />
        <use
           transform="translate(0,-5.4242701)"
           height="147.96875"
           width="289.36462"
           id="use3915"
           xlink:href="#use3913"
           y="0"
           x="0" />
        <use
           transform="translate(0,-5.4242701)"
           height="147.96875"
           width="289.36462"
           id="use3917"
           xlink:href="#use3915"
           y="0"
           x="0" />
      </g>
    </g>
    <g
       inkscape:groupmode="layer"
       id="layer8"
       inkscape:label="shoulder_guard"
       style="display:inline"
       sodipodi:insensitive="true">
      <g
         id="g4061"
         mask="url(#mask4071)">
        <path
           inkscape:connector-curvature="0"
           id="path3895"
           d="m 147.875,29.84375 0.0625,11.875 c 6.67564,5.382036 16.58124,9.165908 20.59375,9.5 l 0,0.03125 c 0.10231,0.0036 0.22866,0.0036 0.34375,0 0.11509,0.0036 0.24144,0.0036 0.34375,0 l 0,-0.03125 c 4.01251,-0.334092 13.91811,-4.117964 20.59375,-9.5 l 0.0625,-11.875 -21,0.9375 -21,-0.9375 z"
           style="fill:#a05f34;stroke:#000000;stroke-width:0.625;stroke-linecap:butt;stroke-linejoin:miter;stroke-miterlimit:4;stroke-opacity:1;stroke-dasharray:none;display:inline" />
        <path
           sodipodi:nodetypes="ccccccc"
           inkscape:connector-curvature="0"
           style="fill:none;stroke:#000000;stroke-width:0.375;stroke-linecap:butt;stroke-linejoin:miter;stroke-miterlimit:4;stroke-opacity:1;stroke-dasharray:none;display:inline"
           d="m 147.9375,35.45092 c 6.67564,5.382036 16.58124,9.165908 20.59375,9.5 l 0,0.03125 c 0.10231,0.0036 0.22866,0.0036 0.34375,0 0.11509,0.0036 0.24144,0.0036 0.34375,0 l 0,-0.03125 c 4.01251,-0.334092 13.91811,-4.117964 20.59375,-9.5"
           id="path3900" />
        <g
           id="g3909">
          <path
             style="fill:none;stroke:#e5e4de;stroke-width:0.75;stroke-linecap:round;stroke-linejoin:miter;stroke-miterlimit:4;stroke-opacity:1;stroke-dasharray:none"
             d="m 183.29503,42.247088 c 0.21402,1.117641 1.37536,-0.405549 2.61494,-1.429258 0.91823,-0.758321 1.9728,-1.111802 2.22823,-0.599075 0.25543,0.512727 -1.77713,3.196326 -5.98614,4.266226 -2.59833,0.660476 -4.21163,0.916789 -4.77645,1.570405 -0.81381,0.941745 0.50575,0.900381 1.5585,0.644144 0.85496,-0.208095 1.10501,-1.053756 0.71821,-1.43064 0,0 1.50278,-0.313125 -0.53813,-1.117653 -2.04091,-0.804528 -6.63863,4.31954 -7.40962,4.470611 l -2.81484,1.241836"
             id="path3905"
             inkscape:connector-curvature="0"
             sodipodi:nodetypes="cszsssszcc" />
          <path
             style="fill:none;stroke:#e5e4de;stroke-width:0.75;stroke-linecap:butt;stroke-linejoin:miter;stroke-miterlimit:4;stroke-opacity:1;stroke-dasharray:none"
             d="m 171.37341,48.746031 c 3.07288,-1.566639 6.14977,-3.143935 8.89982,-3.849692"
             id="path3907"
             inkscape:connector-curvature="0"
             sodipodi:nodetypes="cc" />
        </g>
        <g
           transform="matrix(-1,0,0,1,337.94951,0)"
           id="g3913">
          <path
             sodipodi:nodetypes="cszsssszcc"
             inkscape:connector-curvature="0"
             id="path3915"
             d="m 183.29503,42.247088 c 0.21402,1.117641 1.37536,-0.405549 2.61494,-1.429258 0.91823,-0.758321 1.9728,-1.111802 2.22823,-0.599075 0.25543,0.512727 -1.77713,3.196326 -5.98614,4.266226 -2.59833,0.660476 -4.21163,0.916789 -4.77645,1.570405 -0.81381,0.941745 0.50575,0.900381 1.5585,0.644144 0.85496,-0.208095 1.10501,-1.053756 0.71821,-1.43064 0,0 1.50278,-0.313125 -0.53813,-1.117653 -2.04091,-0.804528 -6.63863,4.31954 -7.40962,4.470611 l -2.81484,1.241836"
             style="fill:none;stroke:#e5e4de;stroke-width:0.75;stroke-linecap:round;stroke-linejoin:miter;stroke-miterlimit:4;stroke-opacity:1;stroke-dasharray:none" />
          <path
             sodipodi:nodetypes="cc"
             inkscape:connector-curvature="0"
             id="path3917"
             d="m 171.37341,48.746031 c 3.07288,-1.566639 6.14977,-3.143935 8.89982,-3.849692"
             style="fill:none;stroke:#e5e4de;stroke-width:0.75;stroke-linecap:butt;stroke-linejoin:miter;stroke-miterlimit:4;stroke-opacity:1;stroke-dasharray:none" />
        </g>
      </g>
    </g>
    <g
       inkscape:groupmode="layer"
       id="layer9"
       inkscape:label="straps"
       style="display:inline"
       sodipodi:insensitive="true">
      <g
         id="g4048"
         mask="url(#mask4057)">
        <g
           id="g3926">
          <path
             sodipodi:nodetypes="cc"
             inkscape:connector-curvature="0"
             id="path3924"
             d="M 145.0638,57.438193 C 163.94757,54.031972 179.72401,43.806267 186.76964,32.65646"
             style="fill:none;stroke:#1b2a34;stroke-width:3.625;stroke-linecap:butt;stroke-linejoin:miter;stroke-miterlimit:4;stroke-opacity:1;stroke-dasharray:none" />
          <path
             style="fill:none;stroke:#a05f34;stroke-width:2.375;stroke-linecap:butt;stroke-linejoin:miter;stroke-miterlimit:4;stroke-opacity:1;stroke-dasharray:none"
             d="M 145.0638,57.438193 C 163.94757,54.031972 179.72401,43.806267 186.76964,32.65646"
             id="path3920"
             inkscape:connector-curvature="0"
             sodipodi:nodetypes="cc" />
        </g>
        <g
           transform="matrix(0.09380346,0.99559074,-0.99559074,0.09380346,178.94934,-138.66833)"
           id="g3930">
          <path
             style="fill:none;stroke:#1b2a34;stroke-width:3.625;stroke-linecap:butt;stroke-linejoin:miter;stroke-miterlimit:4;stroke-opacity:1;stroke-dasharray:none"
             d="m 172.81665,46.376318 c 6.03013,-4.054965 10.84243,-8.797352 13.95299,-13.719858"
             id="path3932"
             inkscape:connector-curvature="0"
             sodipodi:nodetypes="cc" />
          <path
             sodipodi:nodetypes="cc"
             inkscape:connector-curvature="0"
             id="path3934"
             d="m 173.10904,46.178519 c 5.89336,-4.011013 10.60048,-8.679374 13.6606,-13.522059"
             style="fill:none;stroke:#a05f34;stroke-width:2.375;stroke-linecap:butt;stroke-linejoin:miter;stroke-miterlimit:4;stroke-opacity:1;stroke-dasharray:none" />
        </g>
        <path
           inkscape:connector-curvature="0"
           id="path3936"
           d="m 165.1875,48.78125 c -0.42139,-0.09063 -0.74993,0.0827 -1.0625,0.28125 -0.31257,0.198546 -0.63659,0.451951 -0.90625,0.75 -0.26966,0.298049 -0.48987,0.637934 -0.65625,0.96875 -0.16638,0.330816 -0.31971,0.683501 -0.1875,1.09375 0.13221,0.410249 0.45302,0.60983 0.78125,0.78125 0.32823,0.17142 0.73205,0.290489 1.125,0.375 0.39295,0.08451 0.78657,0.115071 1.15625,0.09375 0.36968,-0.02132 0.74207,-0.05538 1.03125,-0.375 0.28918,-0.319621 0.29691,-0.692534 0.28125,-1.0625 -0.0157,-0.369966 -0.0955,-0.77369 -0.21875,-1.15625 -0.12329,-0.38256 -0.29669,-0.753005 -0.5,-1.0625 -0.20331,-0.309495 -0.42236,-0.596872 -0.84375,-0.6875 z M 164.96875,49.75 c -0.051,-0.01097 0.0837,0.0757 0.21875,0.28125 0.13502,0.205546 0.27473,0.501346 0.375,0.8125 0.10027,0.311154 0.1771,0.629293 0.1875,0.875 0.0104,0.245707 -0.0663,0.382451 -0.0312,0.34375 0.035,-0.0387 -0.0982,0.04834 -0.34375,0.0625 -0.24552,0.01416 -0.58665,0.0062 -0.90625,-0.0625 -0.3196,-0.06874 -0.62576,-0.198654 -0.84375,-0.3125 -0.21799,-0.113846 -0.29726,-0.237175 -0.28125,-0.1875 0.016,0.04968 0.0145,-0.124044 0.125,-0.34375 0.1105,-0.219706 0.28067,-0.476333 0.5,-0.71875 0.21933,-0.242417 0.47991,-0.461889 0.6875,-0.59375 0.20759,-0.131861 0.36352,-0.145276 0.3125,-0.15625 z"
           style="font-size:medium;font-style:normal;font-variant:normal;font-weight:normal;font-stretch:normal;text-indent:0;text-align:start;text-decoration:none;line-height:normal;letter-spacing:normal;word-spacing:normal;text-transform:none;direction:ltr;block-progression:tb;writing-mode:lr-tb;text-anchor:start;baseline-shift:baseline;color:#000000;fill:#c7c1b7;fill-opacity:1;fill-rule:nonzero;stroke:#1b2a34;stroke-width:0.375;stroke-miterlimit:4;stroke-dasharray:none;marker:none;visibility:visible;display:inline;overflow:visible;enable-background:accumulate;font-family:Sans;-inkscape-font-specification:Sans" />
      </g>
    </g>
    <g
       inkscape:groupmode="layer"
       id="layer6"
       inkscape:label="cape"
       style="display:inline"
       sodipodi:insensitive="true">
      <g
         id="g4032"
         mask="url(#mask4044)">
        <path
           inkscape:connector-curvature="0"
           id="path3076"
           d="m 184.11348,33.146055 -3.04965,2.269504"
           style="fill:none;stroke:#1b2a34;stroke-width:0.75;stroke-linecap:round;stroke-linejoin:miter;stroke-miterlimit:4;stroke-opacity:1;stroke-dasharray:none;display:inline" />
        <path
           sodipodi:nodetypes="cccccccc"
           inkscape:connector-curvature="0"
           id="path3084"
           d="m 189.64539,36.763076 c -4.54099,3.602103 -7.81908,1.647463 -11.48936,1.41844 -10.5762,5.095113 -21.50427,5.967711 -32.83688,1.985816 l 2.62411,-9.929078 17.51773,-0.07092 c 2.97829,1.956917 6.00645,3.878631 12.12766,3.617021 3.26666,-0.21074 5.28344,-2.581343 8.01418,-4.042553 z"
           style="fill:#27462c;stroke:#1b2a34;stroke-width:1px;stroke-linecap:butt;stroke-linejoin:miter;stroke-opacity:1;display:inline" />
        <path
           sodipodi:nodetypes="cccc"
           inkscape:connector-curvature="0"
           id="path3078"
           d="m 181.125,36.40625 0.0312,1 c 1.93069,-0.0069 3.77053,-0.286343 5.5121,-0.860594 -2.45411,0.213395 -4.41117,0.213764 -5.5433,-0.139406 z"
           style="font-size:medium;font-style:normal;font-variant:normal;font-weight:normal;font-stretch:normal;text-indent:0;text-align:start;text-decoration:none;line-height:normal;letter-spacing:normal;word-spacing:normal;text-transform:none;direction:ltr;block-progression:tb;writing-mode:lr-tb;text-anchor:start;baseline-shift:baseline;color:#000000;fill:#1b2a34;fill-opacity:1;stroke:none;stroke-width:1px;marker:none;visibility:visible;display:inline;overflow:visible;enable-background:accumulate;font-family:Sans;-inkscape-font-specification:Sans" />
        <path
           style="font-size:medium;font-style:normal;font-variant:normal;font-weight:normal;font-stretch:normal;text-indent:0;text-align:start;text-decoration:none;line-height:normal;letter-spacing:normal;word-spacing:normal;text-transform:none;direction:ltr;block-progression:tb;writing-mode:lr-tb;text-anchor:start;baseline-shift:baseline;color:#000000;fill:#1b2a34;fill-opacity:1;stroke:none;stroke-width:1px;marker:none;visibility:visible;display:inline;overflow:visible;enable-background:accumulate;font-family:Sans;-inkscape-font-specification:Sans"
           d="m 179.81824,35.607828 0.53426,0.845893 c 1.66022,-0.985541 3.10386,-2.15984 4.31325,-3.538323 -2.00649,1.429053 -3.69275,2.422345 -4.84751,2.69243 z"
           id="path3885"
           inkscape:connector-curvature="0"
           sodipodi:nodetypes="cccc" />
        <path
           transform="translate(0.60240964,0)"
           d="m 181.3253,36.72377 c 0,2.162561 -1.7531,3.915663 -3.91566,3.915663 -2.16256,0 -3.91567,-1.753102 -3.91567,-3.915663 0,-2.162561 1.75311,-3.915663 3.91567,-3.915663 2.16256,0 3.91566,1.753102 3.91566,3.915663 z"
           sodipodi:ry="3.9156628"
           sodipodi:rx="3.9156628"
           sodipodi:cy="36.72377"
           sodipodi:cx="177.40964"
           id="path3969"
           style="fill:#e5e4de;fill-opacity:1;stroke:#1b2a34;stroke-width:0.5;stroke-miterlimit:4;stroke-dasharray:none;display:inline"
           sodipodi:type="arc" />
        <path
           sodipodi:type="arc"
           style="fill:#27462c;fill-opacity:1;stroke:#1b2a34;stroke-width:0.77999997;stroke-miterlimit:4;stroke-dasharray:none;display:inline"
           id="path3971"
           sodipodi:cx="177.40964"
           sodipodi:cy="36.72377"
           sodipodi:rx="3.9156628"
           sodipodi:ry="3.9156628"
           d="m 181.3253,36.72377 c 0,2.162561 -1.7531,3.915663 -3.91566,3.915663 -2.16256,0 -3.91567,-1.753102 -3.91567,-3.915663 0,-2.162561 1.75311,-3.915663 3.91567,-3.915663 2.16256,0 3.91566,1.753102 3.91566,3.915663 z"
           transform="matrix(0.64102565,0,0,0.64102565,64.287919,13.182891)" />
        <path
           transform="matrix(0.12820515,0,0,0.12820515,154.66481,31.714388)"
           d="m 181.3253,36.72377 c 0,2.162561 -1.7531,3.915663 -3.91566,3.915663 -2.16256,0 -3.91567,-1.753102 -3.91567,-3.915663 0,-2.162561 1.75311,-3.915663 3.91567,-3.915663 2.16256,0 3.91566,1.753102 3.91566,3.915663 z"
           sodipodi:ry="3.9156628"
           sodipodi:rx="3.9156628"
           sodipodi:cy="36.72377"
           sodipodi:cx="177.40964"
           id="path3973"
           style="fill:#f2f3f2;fill-opacity:1;stroke:none;display:inline"
           sodipodi:type="arc" />
        <path
           sodipodi:nodetypes="cc"
           inkscape:connector-curvature="0"
           id="path3070"
           d="m 167.44681,37.330452 c -5.31088,1.105825 -10.21883,0.801365 -14.39716,-2.056737"
           style="fill:none;stroke:#1b2a34;stroke-width:0.75;stroke-linecap:round;stroke-linejoin:miter;stroke-miterlimit:4;stroke-opacity:1;stroke-dasharray:none;display:inline" />
        <path
           sodipodi:nodetypes="ccsccscc"
           inkscape:connector-curvature="0"
           id="path3072"
           d="m 172.39711,37.053357 c -0.0451,0.01278 0.17273,0.853264 0.13546,0.881662 -4.05594,2.17982 -7.97386,2.646234 -11.62632,2.564981 -3.65246,-0.08125 -6.78592,-0.659601 -8.39863,-1.511054 -0.35997,-0.179987 -0.61759,0.206067 -0.25762,0.386054 1.77126,0.935164 4.89716,1.791374 8.65625,1.875 3.75909,0.08363 8.12201,-0.622871 12.3125,-2.875 0.5917,-0.157566 -0.44529,-1.436232 -0.82164,-1.321643 z"
           style="font-size:medium;font-style:normal;font-variant:normal;font-weight:normal;font-stretch:normal;text-indent:0;text-align:start;text-decoration:none;line-height:normal;letter-spacing:normal;word-spacing:normal;text-transform:none;direction:ltr;block-progression:tb;writing-mode:lr-tb;text-anchor:start;baseline-shift:baseline;color:#000000;fill:#1b2a34;fill-opacity:1;stroke:none;stroke-width:0.75;marker:none;visibility:visible;display:inline;overflow:visible;enable-background:accumulate;font-family:Sans;-inkscape-font-specification:Sans" />
        <path
           sodipodi:nodetypes="cccccc"
           inkscape:connector-curvature="0"
           id="path3074"
           d="m 163.71875,32.0625 c -0.26373,0.07693 -0.11704,0.262816 0.0999,0.431306 2.47169,2.655357 5.31979,3.675992 8.65006,3.506194 0.39271,0.01638 0.42396,-0.733654 0.0312,-0.75 -3.07584,-0.03487 -5.90262,-0.856328 -8.40625,-3.09375 -0.0956,-0.09581 -0.24554,-0.13329 -0.375,-0.09375 z"
           style="font-size:medium;font-style:normal;font-variant:normal;font-weight:normal;font-stretch:normal;text-indent:0;text-align:start;text-decoration:none;line-height:normal;letter-spacing:normal;word-spacing:normal;text-transform:none;direction:ltr;block-progression:tb;writing-mode:lr-tb;text-anchor:start;baseline-shift:baseline;color:#000000;fill:#1b2a34;fill-opacity:1;stroke:none;stroke-width:0.75;marker:none;visibility:visible;display:inline;overflow:visible;enable-background:accumulate;font-family:Sans;-inkscape-font-specification:Sans" />
      </g>
    </g>
    <g
       inkscape:groupmode="layer"
       id="layer7"
       inkscape:label="belt"
       style="display:inline"
       sodipodi:insensitive="true">
      <g
         id="g4016"
         mask="url(#mask4028)">
        <path
           inkscape:connector-curvature="0"
           id="path3945"
           d="M 143.15625,64.0625 141.5,75.03125 168.6875,74.9375 195.90625,75.03125 194.25,64.0625 l -1.15625,0.03125 c -6.57585,4.844376 -15.67951,-2.580359 -20.625,5.09375 l -3.78125,2.46875 -3.75,-2.46875 c -4.94549,-7.674109 -14.0179,-0.249374 -20.59375,-5.09375 l -1.1875,-0.03125 z"
           style="fill:#c7c1b7;stroke:#1b2a34;stroke-width:0.625;stroke-linecap:butt;stroke-linejoin:miter;stroke-miterlimit:4;stroke-opacity:1;stroke-dasharray:none" />
        <path
           sodipodi:nodetypes="cssccsscc"
           inkscape:connector-curvature="0"
           id="path3947"
           d="m 191.06725,66.366195 c -2.74489,1.080184 -5.85683,0.493837 -8.87975,0.258805 -1.86654,-0.145123 -3.72344,-0.227326 -5.4375,0.25 -1.05304,0.293248 -1.97795,0.946976 -2.85726,1.769142 -1.82609,2.114472 -1.80304,2.327791 0.1073,0.252314 0.86666,-0.800492 1.86995,-1.287973 2.88397,-1.570352 1.58795,-0.442207 3.39323,-0.251017 5.24099,-0.107354 2.96732,0.230709 6.16712,0.542455 9.07547,-0.571811 2.5426,-1.279658 2.26285,-1.440132 -0.13322,-0.280744 z"
           style="font-size:medium;font-style:normal;font-variant:normal;font-weight:normal;font-stretch:normal;text-indent:0;text-align:start;text-decoration:none;line-height:normal;letter-spacing:normal;word-spacing:normal;text-transform:none;direction:ltr;block-progression:tb;writing-mode:lr-tb;text-anchor:start;baseline-shift:baseline;color:#000000;fill:#1b2a34;fill-opacity:1;stroke:none;stroke-width:0.625;marker:none;visibility:visible;display:inline;overflow:visible;enable-background:accumulate;font-family:Sans;-inkscape-font-specification:Sans" />
        <path
           style="font-size:medium;font-style:normal;font-variant:normal;font-weight:normal;font-stretch:normal;text-indent:0;text-align:start;text-decoration:none;line-height:normal;letter-spacing:normal;word-spacing:normal;text-transform:none;direction:ltr;block-progression:tb;writing-mode:lr-tb;text-anchor:start;baseline-shift:baseline;color:#000000;fill:#1b2a34;fill-opacity:1;stroke:none;stroke-width:0.625;marker:none;visibility:visible;display:inline;overflow:visible;enable-background:accumulate;font-family:Sans;-inkscape-font-specification:Sans"
           d="m 146.39163,66.366195 c 2.74489,1.080184 5.85683,0.493837 8.87975,0.258805 1.86654,-0.145123 3.72344,-0.227326 5.4375,0.25 1.05304,0.293248 1.97795,0.946976 2.85726,1.769142 1.82609,2.114472 1.80304,2.327791 -0.1073,0.252314 -0.86666,-0.800492 -1.86995,-1.287973 -2.88397,-1.570352 -1.58795,-0.442207 -3.39323,-0.251017 -5.24099,-0.107354 -2.96732,0.230709 -6.16712,0.542455 -9.07547,-0.571811 -2.5426,-1.279658 -2.26285,-1.440132 0.13322,-0.280744 z"
           id="path3956"
           inkscape:connector-curvature="0"
           sodipodi:nodetypes="cssccsscc" />
        <path
           transform="matrix(1.8610584,-0.64728198,0.64728198,1.8610584,-189.08711,50.867116)"
           d="m 170.49645,70.380101 c -0.8476,0.762839 -4.47811,-0.417681 -4.71495,-1.533143 -0.23683,-1.115462 2.60078,-3.669316 3.68522,-3.316693 1.08444,0.352623 1.87733,4.086997 1.02973,4.849836 z"
           inkscape:randomized="0"
           inkscape:rounded="0.23"
           inkscape:flatsided="true"
           sodipodi:arg2="1.8851788"
           sodipodi:arg1="0.83798123"
           sodipodi:r2="2.4789746"
           sodipodi:r1="2.8624732"
           sodipodi:cy="68.252441"
           sodipodi:cx="168.58156"
           sodipodi:sides="3"
           id="path3975"
           style="fill:#e5e4de;fill-opacity:1;stroke:#1b2a34;stroke-width:0.5;stroke-linecap:round;stroke-linejoin:round;stroke-miterlimit:4;stroke-opacity:1;stroke-dasharray:none;stroke-dashoffset:0;display:inline"
           sodipodi:type="star" />
        <path
           inkscape:connector-curvature="0"
           id="path3958"
           d="m 168.8125,63.84375 -0.34375,1.0625 c -1.39174,0.476432 -3.2594,3.843618 -3.03125,5.375 l -0.78125,0.875 1.125,-0.21875 c 1.12131,0.916474 4.77179,0.889473 6.0625,0 L 173,71.15625 l -0.71875,-0.8125 c 0.40393,-1.378198 -1.61928,-4.809728 -3.09375,-5.40625 l -0.375,-1.09375 z"
           style="fill:#27462c;fill-opacity:1;stroke:#1b2a34;stroke-width:0.625;stroke-linecap:round;stroke-linejoin:round;stroke-miterlimit:4;stroke-opacity:1;stroke-dasharray:none;stroke-dashoffset:0;display:inline" />
        <path
           sodipodi:nodetypes="ccccc"
           inkscape:connector-curvature="0"
           id="path3972"
           d="m 168.26186,66.652703 c -0.48558,0.549009 -0.94347,1.312037 -1.24627,2.053234 -0.29165,0.706986 0.99135,0.916325 1.21941,0.579552 0.28872,-0.665707 0.67957,-1.342711 1.11207,-1.853461 0.20901,-0.293082 -0.49996,-1.074609 -1.08521,-0.779325 z"
           style="fill:#f2f3f2;fill-opacity:1;stroke:none;display:inline" />
        <path
           sodipodi:nodetypes="ccssssscccssssscccccscc"
           inkscape:connector-curvature="0"
           id="path3980"
           d="m 192.21875,67.25 c -0.17136,-0.01906 -0.32984,0.05208 -0.46875,0.125 -0.55563,0.291685 -1.06203,0.981329 -1.75,1.8125 -1.37593,1.662342 -3.23793,3.78671 -5.25,3.875 -2.03058,0.0891 -3.94396,-1.675017 -5.53125,-3.125 -0.79365,-0.724992 -1.50534,-1.359683 -2.1875,-1.625 -0.34108,-0.132658 -0.70619,-0.172893 -1.03125,0 -0.32506,0.172893 -0.42422,0.52751 -0.60462,0.997827 -0.13095,0.310895 0.3175,0.706314 0.44837,0.395383 0.1503,-0.391852 0.30265,-0.758985 0.4375,-0.83071 0.45469,-0.15896 0.26334,0.837558 0.50217,0.930448 0.0865,0.03363 0.20932,-0.848853 0.3096,-0.788565 0.45363,0.27273 1.04054,0.797704 1.68823,1.389367 1.58174,1.444901 3.60502,3.386343 6,3.28125 2.41349,-0.105905 4.30777,-2.426825 5.6875,-4.09375 0.68986,-0.833462 1.31289,-1.508808 1.59375,-1.65625 0.0702,-0.03686 0.0931,-0.06258 0.0937,-0.0625 7e-4,7.8e-5 0.003,-0.0039 0.0312,0.03125 0.14443,0.875624 0.60909,1.926631 0.91577,1.939142 0.11905,-0.05145 -0.0926,-0.997386 -0.10327,-1.126642 -0.0555,-0.555338 -0.13201,-0.919912 -0.34375,-1.1875 -0.10587,-0.133794 -0.26614,-0.26219 -0.4375,-0.28125 z"
           style="font-size:medium;font-style:normal;font-variant:normal;font-weight:normal;font-stretch:normal;text-indent:0;text-align:start;text-decoration:none;line-height:normal;letter-spacing:normal;word-spacing:normal;text-transform:none;direction:ltr;block-progression:tb;writing-mode:lr-tb;text-anchor:start;baseline-shift:baseline;color:#000000;fill:#635f61;fill-opacity:1;stroke:none;stroke-width:0.625;marker:none;visibility:visible;display:inline;overflow:visible;enable-background:accumulate;font-family:Sans;-inkscape-font-specification:Sans" />
        <path
           sodipodi:nodetypes="csscscsccccssscsssssssssssscscscccccccccssssscc"
           inkscape:connector-curvature="0"
           id="path3986"
           d="m 184.78125,67.4375 c -1.82025,0.03486 -3.08111,1.429455 -4.15625,2.75 -0.53757,0.660273 -1.02393,1.286133 -1.53125,1.78125 -0.50732,0.495117 -1.00403,0.841404 -1.53125,0.90625 -0.41599,0.05116 -0.70128,-0.01201 -0.84375,-0.09375 -0.14247,-0.08174 -0.20206,-0.163984 -0.21875,-0.40625 -0.007,-0.09685 0.0472,-0.455211 0.1875,-0.71875 0.1403,-0.263539 0.32022,-0.454496 0.65625,-0.46875 0.15734,-0.0067 0.2783,0.0026 0.40625,0.09375 0.32254,0.173263 0.46847,0.34392 0.45526,1.002344 0.10556,0.192534 0.31825,-0.418054 0.30422,-0.716719 -0.0331,-0.383464 -0.24504,-0.588173 -0.50437,-0.772969 -0.25933,-0.184796 -0.45507,-0.241483 -0.69266,-0.231406 -0.58166,0.02467 -0.98148,0.394252 -1.1875,0.78125 -0.20602,0.386998 -0.26902,0.78677 -0.25,1.0625 0.004,0.05675 -0.24552,0.422886 -0.80371,0.601019 -0.79979,0.255237 -1.99533,0.341003 -1.96673,0.414983 0.027,0.0699 1.30188,0.108611 2.12812,0.0012 0.65237,-0.08485 0.89344,-0.322759 0.9313,-0.279449 0.069,0.0789 0.14984,0.146762 0.24227,0.199794 0.32289,0.185254 0.72824,0.21658 1.21875,0.15625 0.726,-0.08929 1.35085,-0.520458 1.90625,-1.0625 0.5554,-0.542042 1.06386,-1.224157 1.59375,-1.875 1.05979,-1.301685 2.15112,-2.471173 3.65625,-2.5 0.74117,-0.0142 1.42764,0.282963 2.0625,0.78125 0.63486,0.498287 1.19923,1.176339 1.75,1.875 0.55077,0.698661 1.08422,1.424719 1.59375,1.96875 0.50953,0.544031 1.02787,0.973066 1.65625,0.9375 0.34584,-0.01957 0.70303,-0.170045 0.96875,-0.4375 0.26572,-0.267455 0.41715,-0.677244 0.40625,-1.15625 -0.003,-0.147424 -0.0487,-0.293956 -0.125,-0.46875 -0.0763,-0.174794 -0.17553,-0.353332 -0.34375,-0.53125 -0.33645,-0.355836 -0.89633,-0.626483 -1.65625,-0.53125 -0.0814,0.0012 -0.25621,-0.365664 -0.31317,-0.307534 -0.0958,0.11203 -0.001,0.695504 0.0944,0.807534 0.0329,0.04111 0.0763,0.0737 0.125,0.09375 0.0482,0.02361 0.10264,0.03449 0.15625,0.03125 0.58339,-0.07311 0.90305,0.109007 1.125,0.34375 0.11098,0.117372 0.19956,0.22823 0.25,0.34375 0.0504,0.11552 0.0623,0.241889 0.0625,0.25 0.008,0.334201 -0.10443,0.540982 -0.25,0.6875 -0.14557,0.146518 -0.3263,0.2384 -0.53125,0.25 -0.30445,0.01723 -0.72135,-0.252286 -1.1875,-0.75 -0.46615,-0.497714 -0.97042,-1.194827 -1.53125,-1.90625 -0.56083,-0.711423 -1.16925,-1.446067 -1.875,-2 -0.70575,-0.553933 -1.51598,-0.9239 -2.4375,-0.90625 z"
           style="font-size:medium;font-style:normal;font-variant:normal;font-weight:normal;font-stretch:normal;text-indent:0;text-align:start;text-decoration:none;line-height:normal;letter-spacing:normal;word-spacing:normal;text-transform:none;direction:ltr;block-progression:tb;writing-mode:lr-tb;text-anchor:start;baseline-shift:baseline;color:#000000;fill:#635f61;fill-opacity:1;stroke:none;stroke-width:0.625;marker:none;visibility:visible;display:inline;overflow:visible;enable-background:accumulate;font-family:Sans;-inkscape-font-specification:Sans" />
        <path
           style="font-size:medium;font-style:normal;font-variant:normal;font-weight:normal;font-stretch:normal;text-indent:0;text-align:start;text-decoration:none;line-height:normal;letter-spacing:normal;word-spacing:normal;text-transform:none;direction:ltr;block-progression:tb;writing-mode:lr-tb;text-anchor:start;baseline-shift:baseline;color:#000000;fill:#635f61;fill-opacity:1;stroke:none;stroke-width:0.625;marker:none;visibility:visible;display:inline;overflow:visible;enable-background:accumulate;font-family:Sans;-inkscape-font-specification:Sans"
           d="m 145.70887,67.25 c 0.17136,-0.01906 0.32984,0.05208 0.46875,0.125 0.55563,0.291685 1.06203,0.981329 1.75,1.8125 1.37593,1.662342 3.23793,3.78671 5.25,3.875 2.03058,0.0891 3.94396,-1.675017 5.53125,-3.125 0.79365,-0.724992 1.50534,-1.359683 2.1875,-1.625 0.34108,-0.132658 0.70619,-0.172893 1.03125,0 0.32506,0.172893 0.42422,0.52751 0.60462,0.997827 0.13095,0.310895 -0.3175,0.706314 -0.44837,0.395383 -0.1503,-0.391852 -0.30265,-0.758985 -0.4375,-0.83071 -0.45469,-0.15896 -0.26334,0.837558 -0.50217,0.930448 -0.0865,0.03363 -0.20932,-0.848853 -0.3096,-0.788565 -0.45363,0.27273 -1.04054,0.797704 -1.68823,1.389367 -1.58174,1.444901 -3.60502,3.386343 -6,3.28125 -2.41349,-0.105905 -4.30777,-2.426825 -5.6875,-4.09375 -0.68986,-0.833462 -1.31289,-1.508808 -1.59375,-1.65625 -0.0702,-0.03686 -0.0931,-0.06258 -0.0937,-0.0625 -7e-4,7.8e-5 -0.003,-0.0039 -0.0312,0.03125 -0.14443,0.875624 -0.60909,1.926631 -0.91577,1.939142 -0.11905,-0.05145 0.0926,-0.997386 0.10327,-1.126642 0.0555,-0.555338 0.13201,-0.919912 0.34375,-1.1875 0.10587,-0.133794 0.26614,-0.26219 0.4375,-0.28125 z"
           id="path3992"
           inkscape:connector-curvature="0"
           sodipodi:nodetypes="ccssssscccssssscccccscc" />
        <path
           style="font-size:medium;font-style:normal;font-variant:normal;font-weight:normal;font-stretch:normal;text-indent:0;text-align:start;text-decoration:none;line-height:normal;letter-spacing:normal;word-spacing:normal;text-transform:none;direction:ltr;block-progression:tb;writing-mode:lr-tb;text-anchor:start;baseline-shift:baseline;color:#000000;fill:#635f61;fill-opacity:1;stroke:none;stroke-width:0.625;marker:none;visibility:visible;display:inline;overflow:visible;enable-background:accumulate;font-family:Sans;-inkscape-font-specification:Sans"
           d="m 153.14637,67.4375 c 1.82025,0.03486 3.08111,1.429455 4.15625,2.75 0.53757,0.660273 1.02393,1.286133 1.53125,1.78125 0.50732,0.495117 1.00403,0.841404 1.53125,0.90625 0.41599,0.05116 0.70128,-0.01201 0.84375,-0.09375 0.14247,-0.08174 0.20206,-0.163984 0.21875,-0.40625 0.007,-0.09685 -0.0472,-0.455211 -0.1875,-0.71875 -0.1403,-0.263539 -0.32022,-0.454496 -0.65625,-0.46875 -0.15734,-0.0067 -0.2783,0.0026 -0.40625,0.09375 -0.32254,0.173263 -0.46847,0.34392 -0.45526,1.002344 -0.10556,0.192534 -0.31825,-0.418054 -0.30422,-0.716719 0.0331,-0.383464 0.24504,-0.588173 0.50437,-0.772969 0.25933,-0.184796 0.45507,-0.241483 0.69266,-0.231406 0.58166,0.02467 0.98148,0.394252 1.1875,0.78125 0.20602,0.386998 0.26902,0.78677 0.25,1.0625 -0.004,0.05675 0.24552,0.422886 0.80371,0.601019 0.79979,0.255237 1.99533,0.341003 1.96673,0.414983 -0.027,0.0699 -1.30188,0.108611 -2.12812,0.0012 -0.65237,-0.08485 -0.89344,-0.322759 -0.9313,-0.279449 -0.069,0.0789 -0.14984,0.146762 -0.24227,0.199794 -0.32289,0.185254 -0.72824,0.21658 -1.21875,0.15625 -0.726,-0.08929 -1.35085,-0.520458 -1.90625,-1.0625 -0.5554,-0.542042 -1.06386,-1.224157 -1.59375,-1.875 -1.05979,-1.301685 -2.15112,-2.471173 -3.65625,-2.5 -0.74117,-0.0142 -1.42764,0.282963 -2.0625,0.78125 -0.63486,0.498287 -1.19923,1.176339 -1.75,1.875 -0.55077,0.698661 -1.08422,1.424719 -1.59375,1.96875 -0.50953,0.544031 -1.02787,0.973066 -1.65625,0.9375 -0.34584,-0.01957 -0.70303,-0.170045 -0.96875,-0.4375 -0.26572,-0.267455 -0.41715,-0.677244 -0.40625,-1.15625 0.003,-0.147424 0.0487,-0.293956 0.125,-0.46875 0.0763,-0.174794 0.17553,-0.353332 0.34375,-0.53125 0.33645,-0.355836 0.89633,-0.626483 1.65625,-0.53125 0.0814,0.0012 0.25621,-0.365664 0.31317,-0.307534 0.0958,0.11203 0.001,0.695504 -0.0944,0.807534 -0.0329,0.04111 -0.0763,0.0737 -0.125,0.09375 -0.0482,0.02361 -0.10264,0.03449 -0.15625,0.03125 -0.58339,-0.07311 -0.90305,0.109007 -1.125,0.34375 -0.11098,0.117372 -0.19956,0.22823 -0.25,0.34375 -0.0504,0.11552 -0.0623,0.241889 -0.0625,0.25 -0.008,0.334201 0.10443,0.540982 0.25,0.6875 0.14557,0.146518 0.3263,0.2384 0.53125,0.25 0.30445,0.01723 0.72135,-0.252286 1.1875,-0.75 0.46615,-0.497714 0.97042,-1.194827 1.53125,-1.90625 0.56083,-0.711423 1.16925,-1.446067 1.875,-2 0.70575,-0.553933 1.51598,-0.9239 2.4375,-0.90625 z"
           id="path3994"
           inkscape:connector-curvature="0"
           sodipodi:nodetypes="csscscsccccssscsssssssssssscscscccccccccssssscc" />
      </g>
    </g>
  </g>
  <g
     inkscape:label="template"
     inkscape:groupmode="layer"
     id="layer1"
     transform="translate(-360.9375,-409.84883)"
     style="display:inline">
    <path
       inkscape:connector-curvature="0"
       d="m 361.13813,452.9203 c 8.7325,-47.29375 5.3425,-42.67875 14.2675,-42.85625 l 23.44,0 c 8.92625,0.1775 5.535,-4.4375 14.265,42.85625 l -51.9725,0 z"
       style="fill:none;stroke:#231f20;stroke-width:0.3125;stroke-linecap:butt;stroke-linejoin:miter;stroke-miterlimit:4;stroke-opacity:1;stroke-dasharray:none"
       id="path3093" />
    <path
       id="path4124"
       style="fill:none;stroke:#231f20;stroke-width:0.3125;stroke-linecap:butt;stroke-linejoin:miter;stroke-miterlimit:4;stroke-opacity:1;stroke-dasharray:none"
       d="m 361.13813,452.9203 c 8.7325,-47.29375 5.3425,-42.67875 14.2675,-42.85625 l 23.44,0 c 8.92625,0.1775 5.535,-4.4375 14.265,42.85625 l -51.9725,0 z"
       inkscape:connector-curvature="0" />
  </g>
</svg>
