<?xml version="1.0" encoding="UTF-8" standalone="no"?>
<!-- Generator: Adobe Illustrator 15.1.0, SVG Export Plug-In . SVG Version: 6.00 Build 0)  -->

<svg
   xmlns:dc="http://purl.org/dc/elements/1.1/"
   xmlns:cc="http://creativecommons.org/ns#"
   xmlns:rdf="http://www.w3.org/1999/02/22-rdf-syntax-ns#"
   xmlns:svg="http://www.w3.org/2000/svg"
   xmlns="http://www.w3.org/2000/svg"
   xmlns:xlink="http://www.w3.org/1999/xlink"
   xmlns:sodipodi="http://sodipodi.sourceforge.net/DTD/sodipodi-0.dtd"
   xmlns:inkscape="http://www.inkscape.org/namespaces/inkscape"
   version="1.1"
   x="0px"
   y="0px"
   width="53.858px"
   height="45.354px"
   viewBox="0 0 53.858 45.354"
   enable-background="new 0 0 53.858 45.354"
   xml:space="preserve"
   id="svg2"
   inkscape:version="0.48.1 "
   sodipodi:docname="sheik.svg"
   inkscape:export-filename="D:\Bricks\Decals\designs\games\zelda\sheik.png"
   inkscape:export-xdpi="600"
   inkscape:export-ydpi="600"><metadata
   id="metadata128"><rdf:RDF><cc:Work
       rdf:about=""><dc:format>image/svg+xml</dc:format><dc:type
         rdf:resource="http://purl.org/dc/dcmitype/StillImage" /><dc:title></dc:title></cc:Work></rdf:RDF></metadata><defs
   id="defs126" /><sodipodi:namedview
   pagecolor="#ffffff"
   bordercolor="#666666"
   borderopacity="1"
   objecttolerance="10"
   gridtolerance="10"
   guidetolerance="10"
   inkscape:pageopacity="0"
   inkscape:pageshadow="2"
   inkscape:window-width="1160"
   inkscape:window-height="480"
   id="namedview124"
   showgrid="false"
   inkscape:zoom="6.4161926"
   inkscape:cx="26.929001"
   inkscape:cy="22.754928"
   inkscape:window-x="1366"
   inkscape:window-y="0"
   inkscape:window-maximized="0"
   inkscape:current-layer="svg2" />
<g
   id="torso">
	<rect
   id="helper"
   fill="#A2A1A3"
   width="53.858"
   height="45.354" />
	<path
   id="torso_1_"
   connector-curvature="0"
   fill="#0075BF"
   d="M0.943,44.131C9.675-3.163,6.286,1.452,15.21,1.275h23.44   c8.926,0.177,5.535-4.438,14.264,42.856H0.943z" />
</g>
<g
   id="bandages_1_">
	<defs
   id="defs8">
		<path
   id="SVGID_1_"
   d="M1.113,43.99c1.965-10.651,3.33-18.752,4.327-24.676c2.795-16.595,3.023-17.95,6.539-17.95    c0.333,0,0.695,0.012,1.091,0.025c0.479,0.016,1.006,0.032,1.59,0.032c0.179,0,0.363-0.001,0.553-0.005h23.438    c0.187,0.004,0.371,0.005,0.55,0.005c0.584,0,1.111-0.017,1.591-0.032c0.396-0.014,0.757-0.025,1.091-0.025    c3.516,0,3.743,1.354,6.534,17.937c0.998,5.926,2.362,14.03,4.328,24.689H1.113z" />
	</defs>
	<clipPath
   id="SVGID_2_">
		<use
   xlink:href="#SVGID_1_"
   overflow="visible"
   id="use12" />
	</clipPath>
	<path
   clip-path="url(#SVGID_2_)"
   fill="#E3E2DB"
   stroke="#000000"
   stroke-width="0.2835"
   stroke-miterlimit="10"
   d="M53.858,30.981   c0,0-17.208-0.236-26.834-0.145C18.9,30.915,3.295,30.981,3.295,30.981v-13.74h50.563V30.981z"
   id="path14" />
	
		<rect
   x="0.534"
   y="-3.343"
   clip-path="url(#SVGID_2_)"
   fill="#89C6ED"
   stroke="#000000"
   stroke-width="0.4252"
   stroke-linejoin="round"
   width="4.252"
   height="4.252"
   id="rect16" />
	<g
   id="bandages"
   clip-path="url(#SVGID_2_)">
		<g
   id="g19">
			<path
   fill="#E3E2DB"
   d="M54.41,31.966c-0.072-0.004-2.678-0.157-6.314-0.378c-0.144-0.009-0.578-0.593-0.578-0.593l-0.672,0.517     l-0.608-0.505c0,0-1.614,0.37-2.078,0.341c-6.206-0.383-13.592-0.855-17.171-1.146c-5.963-0.485-23.865-1.479-24.045-1.498     l3.391-3.945c0.18,0.019,15.064,0.726,20.985,1.207c6.736,0.548,27.13,1.745,27.335,1.758L54.41,31.966z"
   id="path21" />
			<path
   d="M54.543,32.117l-3.717-0.222l-1.788-0.107l-0.894-0.055c-0.026-0.003-0.081,0.005-0.157-0.034     c-0.072-0.039-0.088-0.06-0.126-0.09c-0.063-0.057-0.115-0.114-0.168-0.172c-0.103-0.116-0.197-0.233-0.29-0.356l0.199,0.027     l-0.671,0.517l-0.09,0.069l-0.088-0.072l-0.607-0.505h-0.001l0.122,0.028c-0.444,0.102-0.887,0.195-1.338,0.272     c-0.228,0.036-0.449,0.074-0.696,0.081l-0.688-0.035l-2.708-0.162l-5.415-0.353c-3.61-0.217-7.225-0.471-10.829-0.735     L2.928,28.844h0l-0.273-0.022l0.181-0.211l3.39-3.944l0-0.001l0.045-0.053l0.077,0.005l12.079,0.661     c4.027,0.222,8.056,0.517,12.075,0.836c8.047,0.584,16.103,1.049,24.161,1.467l0,0l0.141,0.009l-0.008,0.141L54.543,32.117z      M54.276,31.816l0.236-4.101l0.133,0.149l0,0l-24.156-1.573c-4.025-0.302-8.045-0.579-12.076-0.783L6.318,24.899l0.122-0.048h0     l-3.39,3.945l-0.092-0.233h0c7.21,0.407,14.448,0.742,21.663,1.271c3.61,0.29,7.21,0.568,10.822,0.81l5.415,0.34l2.707,0.176     c0.895,0.142,1.749-0.122,2.64-0.289l0.072-0.014l0.051,0.042v0.001l0.608,0.504L46.759,31.4l0.671-0.517l0.114-0.087     l0.086,0.114c0.087,0.115,0.181,0.23,0.275,0.338c0.106,0.105,0.184,0.22,0.257,0.202l0.894,0.054l1.787,0.107L54.276,31.816z"
   id="path23" />
		</g>
		<g
   id="g25">
			<path
   fill="#E3E2DB"
   d="M28.672,21.071c-0.808-0.073-1.616-0.139-2.425-0.198C18.631,20.32,4.72,20.495,4.131,20.501l-1.36,5.177     c0.142-0.002,15.731-1.313,23.163-0.775c7.374,0.541,14.797,1.984,19.464,2.809c0.155,0.027,0.74-0.344,0.74-0.344     s0.489,0.564,0.84,0.629c2.011,0.369,3.22,0.62,3.258,0.629l0.893-4.233C51.011,24.369,40.146,22.096,28.672,21.071z"
   id="path27" />
			<path
   d="M28.66,21.212c-4.072-0.387-8.161-0.486-12.252-0.554c-4.091-0.059-8.183-0.059-12.275-0.015l0.136-0.105l-1.36,5.177     L2.77,25.537h0.001c3.615-0.283,7.261-0.524,10.896-0.695c3.638-0.161,7.282-0.289,10.93-0.158     c3.648,0.185,7.265,0.646,10.869,1.184c1.802,0.273,3.599,0.574,5.392,0.89l2.688,0.479l1.344,0.241l0.336,0.06l0.168,0.03     c0.041,0.007,0.045,0,0.095-0.015c0.188-0.071,0.389-0.19,0.574-0.305l0.104-0.063l0.08,0.091l0,0     c0.229,0.245,0.511,0.531,0.79,0.588l1.077,0.201l2.155,0.424l-0.171,0.108l0.893-4.233l0.11,0.168     C43.682,23.052,36.192,21.904,28.66,21.212z M28.685,20.93c7.546,0.693,15.043,1.843,22.471,3.324l0.141,0.027l-0.029,0.141     l-0.893,4.233l-0.028,0.137l-0.143-0.028l-2.144-0.421l-1.076-0.2c-0.443-0.112-0.686-0.411-0.952-0.681l-0.001-0.001     l0.184,0.027c-0.202,0.122-0.393,0.24-0.632,0.332c-0.056,0.021-0.167,0.048-0.238,0.026l-0.168-0.03l-0.337-0.06l-1.344-0.24     l-2.688-0.479c-1.793-0.314-3.587-0.614-5.386-0.886c-3.596-0.536-7.212-0.994-10.837-1.178     c-3.63-0.132-7.271-0.005-10.905,0.154c-3.638,0.17-7.258,0.408-10.903,0.691H2.773l-0.188,0.009l0.049-0.187l1.36-5.177     l0.028-0.104l0.108-0.001c4.094-0.044,8.188-0.044,12.282,0.015C20.503,20.442,24.605,20.542,28.685,20.93z"
   id="path29" />
		</g>
		<g
   id="g31">
			<path
   fill="#E3E2DB"
   d="M51.155,24.914c-0.003,0-7.999-0.96-23.676-2.771c-12.018-1.388-24.313-1.711-24.437-1.714L3.15,14.76     c0.125,0.003,12.611,1.749,24.817,3.159c15.691,1.812,23.695,2.773,23.695,2.773L51.155,24.914z"
   id="path33" />
			<path
   d="M51.154,24.927c-2.014-0.137-4.005-0.436-6.006-0.668l-6.006-0.668l-12.01-1.348c-4-0.457-8.012-0.803-12.029-1.08     c-4.018-0.268-8.04-0.49-12.063-0.636l-0.098-0.003l0.002-0.097l0.127-5.667v0l0-0.086l0.081,0.009     c4.063,0.467,8.088,1.001,12.133,1.505c4.038,0.528,8.078,1.039,12.122,1.52l24.259,2.949l0.037,0.004L51.7,20.697l-0.532,4.231     L51.154,24.927z M51.142,24.898l0.483-4.21l0.032,0.041l-24.284-2.731c-4.047-0.46-8.091-0.951-12.133-1.459     c-4.035-0.53-8.083-1.081-12.093-1.699l0.081-0.077v0l-0.087,5.668L3.045,20.33c8.058,0.211,16.105,0.757,24.119,1.636     c4.004,0.447,8,0.956,12,1.439l5.997,0.74C47.156,24.384,49.161,24.558,51.142,24.898z"
   id="path35" />
		</g>
		<g
   id="g37">
			<path
   fill="#E3E2DB"
   d="M1.983,30.647l-1.546-3.96c0.174-0.067,2.436-0.94,6.906-2.229c0.347-0.101,0.938,0.259,0.938,0.259     l0.702-0.31c0,0,0.217-0.473,0.378-0.517c3.99-1.094,9.346-2.409,16.125-3.757c12.936-2.573,24.38-4.991,24.495-5l0.364,5.654     c-0.111,0.01-11.335,0.992-24.029,3.517C10.085,27.53,2.062,30.617,1.983,30.647z"
   id="path39" />
			<path
   d="M1.958,30.703l-1.572-3.996l-0.02-0.051l0.051-0.02l0,0c1.285-0.499,2.59-0.937,3.899-1.362l1.973-0.608l0.99-0.293     c0.41-0.101,0.743,0.098,1.055,0.257l-0.095-0.006l0.701-0.312l-0.053,0.052c0.122-0.202,0.155-0.414,0.453-0.578l0.636-0.174     l1.275-0.343l2.556-0.66c1.707-0.43,3.418-0.84,5.138-1.214c3.436-0.766,6.893-1.423,10.344-2.103l10.349-2.066l10.338-2.158     l0.066-0.014l0.005,0.076l0.399,5.651v0l0.007,0.097l-0.099,0.01c-4.098,0.41-8.187,0.936-12.263,1.529     c-4.075,0.602-8.138,1.296-12.176,2.11c-4.037,0.821-8.067,1.679-12.063,2.685c-3.992,1.01-7.975,2.092-11.854,3.478     L1.958,30.703z M2.009,30.592c3.861-1.417,7.821-2.532,11.794-3.575c3.993-1.029,8.011-1.966,12.057-2.766     c8.093-1.595,16.26-2.819,24.476-3.565l-0.092,0.106v0l-0.329-5.655l0.071,0.062l-20.667,4.25     c-3.446,0.705-6.896,1.387-10.322,2.179l-5.133,1.211l-2.557,0.646l-1.275,0.335l-0.637,0.171     c-0.098,0.042-0.236,0.288-0.318,0.46l-0.018,0.036l-0.036,0.016l-0.703,0.308l-0.046,0.021l-0.048-0.026     c-0.277-0.151-0.618-0.321-0.893-0.24l-0.99,0.286L4.37,25.445c-1.314,0.402-2.625,0.818-3.913,1.293l0,0l0.031-0.07     L2.009,30.592z"
   id="path41" />
		</g>
	</g>
	<g
   id="bandage_details"
   clip-path="url(#SVGID_2_)">
		<g
   id="g44">
			<path
   fill="#A2A1A3"
   d="M5.638,26.718c1.638-0.579,3.288-1.126,4.947-1.643c1.651-0.543,3.33-1.009,5.054-1.278l0.007,0.027     c-1.65,0.559-3.316,1.03-4.997,1.469c-1.671,0.468-3.339,0.951-5.002,1.452L5.638,26.718z"
   id="path46" />
		</g>
		<g
   id="g48">
			<path
   fill="#A2A1A3"
   d="M11.458,25.965c1.077-0.543,2.225-0.915,3.37-1.273c1.156-0.324,2.32-0.626,3.512-0.797     c-1.136,0.399-2.289,0.714-3.432,1.068L11.458,25.965z"
   id="path50" />
		</g>
		<g
   id="g52">
			<path
   fill="#A2A1A3"
   d="M6.093,28.194c0.993-0.393,2.006-0.718,3.023-1.027l0.012-0.003l0.018-0.002     c0.396-0.038,0.793-0.053,1.19-0.076l-0.029,0.006c0.877-0.267,1.769-0.489,2.668-0.685c-0.854,0.344-1.716,0.66-2.592,0.933     l-0.013,0.005l-0.016,0.001c-0.396,0.031-0.792,0.071-1.19,0.088l0.029-0.005C8.169,27.716,7.141,27.989,6.093,28.194z"
   id="path54" />
		</g>
		<g
   id="g56">
			<path
   fill="#A2A1A3"
   d="M40.914,19.223c1.163-0.418,2.356-0.726,3.547-1.04c1.198-0.281,2.396-0.569,3.619-0.747     c-1.168,0.407-2.36,0.708-3.551,1.021C43.331,18.739,42.135,19.03,40.914,19.223z"
   id="path58" />
		</g>
		<g
   id="g60">
			<path
   fill="#A2A1A3"
   d="M43.879,19.948l-0.029,0.015l-0.008,0.003c-0.013-0.016,0.02,0.039-0.03-0.036     c0.015-0.018,0.011-0.009,0.017-0.014l0.016-0.009l0.056-0.032c0.038-0.021,0.075-0.043,0.114-0.058     c0.077-0.031,0.152-0.069,0.231-0.094c0.158-0.052,0.315-0.104,0.479-0.128c0.335-0.022,0.667-0.057,0.973-0.199     c0.618-0.252,1.258-0.42,1.941-0.41l0.006,0.027c-0.601,0.324-1.245,0.47-1.91,0.534c-0.337,0.016-0.646,0.14-0.953,0.276     c-0.156,0.055-0.319,0.083-0.482,0.111c-0.081,0.016-0.166,0.018-0.249,0.027c-0.041,0.006-0.084,0.004-0.126,0.004l-0.063,0     h-0.015l0.011-0.011c-0.047-0.074-0.012-0.02-0.021-0.036l0.007,0l0.031,0.002L43.879,19.948z"
   id="path62" />
		</g>
		<g
   id="g64">
			<path
   fill="#A2A1A3"
   d="M47.346,25.532c-1.032-0.098-2.061-0.219-3.083-0.376l0.03,0.002l-0.812,0.071L43.47,25.23l-0.013-0.001     c-1.646-0.161-3.291-0.342-4.924-0.635c1.658,0.04,3.306,0.193,4.951,0.365H43.46l0.813-0.054l0.017-0.001l0.014,0.003     C45.324,25.084,46.336,25.295,47.346,25.532z"
   id="path66" />
		</g>
		<g
   id="g68">
			<path
   fill="#A2A1A3"
   d="M29.721,24.532c1.264,0.062,2.517,0.209,3.769,0.362l-0.015-0.001c0.833,0.024,1.666,0.047,2.498,0.102     l0.012,0.001h0.004c0.58,0.12,1.156,0.265,1.732,0.411c-0.591-0.062-1.182-0.126-1.768-0.214l0.015,0.001     c-0.834,0.014-1.667-0.006-2.5-0.023h-0.009l-0.007-0.002C32.205,24.99,30.958,24.803,29.721,24.532z"
   id="path70" />
		</g>
		<g
   id="g72">
			<path
   fill="#A2A1A3"
   d="M15.284,17.907c-0.734-0.002-1.466-0.031-2.198-0.068c-0.729-0.059-1.461-0.091-2.188-0.172l0.042-0.003     l-0.815,0.176l-0.025,0.005l-0.021-0.003c-0.81-0.141-1.616-0.307-2.418-0.497c0.823,0.06,1.641,0.144,2.456,0.253l-0.046,0.002     l0.81-0.199l0.018-0.004l0.024,0.001c0.73,0.044,1.457,0.137,2.186,0.203C13.833,17.688,14.56,17.784,15.284,17.907z"
   id="path74" />
		</g>
		<g
   id="g76">
			<path
   fill="#A2A1A3"
   d="M6.284,18.268c0.154-0.09,0.306-0.114,0.457-0.087c0.149,0.064,0.299,0.115,0.452,0.055     c0.306-0.086,0.608-0.088,0.904,0.095l-0.001,0.028c-0.308,0.162-0.61,0.14-0.908,0.032c-0.149-0.07-0.302-0.029-0.455,0.024     c-0.152,0.016-0.302-0.018-0.45-0.119L6.284,18.268z"
   id="path78" />
		</g>
		<g
   id="g80">
			<path
   fill="#A2A1A3"
   d="M5.909,19.594c0.689-0.233,1.395-0.357,2.106-0.442l0.012-0.001l0.007,0     c0.458,0.004,0.917,0.051,1.375,0.13c-0.458,0.079-0.917,0.126-1.375,0.13l0.019-0.001C7.347,19.535,6.636,19.619,5.909,19.594z"
   id="path82" />
		</g>
		<g
   id="g84">
			<path
   fill="#A2A1A3"
   d="M49.342,29.608c-0.846-0.11-1.666-0.312-2.471-0.569l0.017,0.004c-0.748-0.127-1.478-0.381-2.24-0.407     c-0.764-0.025-1.509-0.176-2.241-0.402l0.004-0.027c0.768,0.003,1.522,0.082,2.259,0.285s1.508,0.178,2.26,0.28l0.009,0.002     l0.008,0.002c0.82,0.201,1.625,0.457,2.404,0.806L49.342,29.608z"
   id="path86" />
		</g>
	</g>
</g>
<g
   id="armor">
	<g
   id="tunic">
		<defs
   id="defs90">
			<path
   id="torso_2_"
   connector-curvature="0"
   d="M0.943,44.131C9.675-3.163,6.286,1.452,15.21,1.275h23.44     c8.926,0.177,5.535-4.438,14.264,42.856H0.943z" />
		</defs>
		<clipPath
   id="torso_3_">
			<use
   xlink:href="#torso_2_"
   overflow="visible"
   id="use94" />
		</clipPath>
		<g
   clip-path="url(#torso_3_)"
   id="g96">
			<path
   fill="#EFF0EF"
   d="M4.408-0.678c0,0,0.493,13.534,2.208,17.625c0.327,0.782,1.563,2.41,2.341,2.933     c0.834,0.56,3.469,1.715,3.469,1.715l0.889,7.297l0.349,0.9l-0.229,0.621l0.5,0.451l0.615,0.538l-0.518,0.586l-0.225,3.96     l0.529,0.779l-0.095,0.969l0.228,4.276l1.477,0.111l0.339-0.541l0.292,0.589l2.374,0.181l0.788-0.458l0.62,0.508l0.754-1.441     l0.505,1.621l1.829,0.13l0.749-0.513l0.856,0.335l0.35-0.664l0.497-0.102l0.438,1.18l0.432-0.651l0.378,0.679l2.348-0.176     l0.511-1.538l0.303,0.216l0.56-0.912l0.669,2.071l3.335-0.267l1.007-0.493l0.445,0.023l0.444-1.109l0.439,0.871l0.77-0.204     l0.891,0.593l0.482-2.73l0.28-0.545l0.921-11.942l0.162-1.134l0.445,0.431l0.093-4.495c0,0,2.776-1.155,3.61-1.715     c0.778-0.523,2.014-2.151,2.341-2.933c1.715-4.091,2.208-17.625,2.208-17.625H4.408z"
   id="path98" />
			<path
   d="M4.633-0.466c0.189,4.157,0.471,8.323,1.054,12.439c0.155,1.045,0.333,2.088,0.576,3.11     c0.248,1.034,0.532,2.013,1.181,2.84c0.625,0.835,1.263,1.681,2.202,2.113c0.927,0.49,1.894,0.931,2.858,1.361l0.006,0.002     l0.113,0.052l0.012,0.117l0.382,3.655c0.131,1.219,0.314,2.431,0.474,3.646l-0.011-0.043l0.378,0.883l0.002,0.005l0.029,0.075     l-0.028,0.076l-0.229,0.62l-0.057-0.231l1.113,0.987l0.16,0.142l-0.141,0.159l-0.514,0.582l-0.004,0.004L14.242,32     c-0.066,0.327-0.108,0.655-0.133,0.984c-0.029,0.329-0.072,0.657-0.088,0.987c0,0.661-0.058,1.319-0.002,1.983v0.005     l-0.037-0.131l0.526,0.775l0.002,0.004l0.045,0.079l-0.009,0.061c-0.051,0.321-0.124,0.64-0.158,0.963l0-0.022     c0.024,0.713,0.028,1.427,0.069,2.139c0.073,0.71,0.094,1.423,0.222,2.13l0,0.004l-0.196-0.2l1.477,0.111l-0.196,0.099     l0.339-0.54l0.202-0.322l0.169,0.34l0.29,0.586l0.001,0.003l-0.174-0.117c0.392,0.07,0.787,0.098,1.181,0.142     c0.394,0.046,0.791,0.057,1.189,0.039h0.004l-0.123,0.028l0.788-0.458l0.127-0.074l0.114,0.094l0.62,0.508l-0.323,0.065     l0.754-1.441l0.238-0.456l0.153,0.491l0.504,1.618l0,0.003l-0.188-0.148c0.302,0.061,0.606,0.079,0.91,0.114     c0.303,0.034,0.609,0.039,0.916,0.016h0.003l-0.135,0.036l0.749-0.513l0.093-0.063l0.105,0.041l0.855,0.335l-0.265,0.099     l0.35-0.663l0.047-0.09l0.099-0.02l0.497-0.102l0.178-0.037l0.063,0.171l0.438,1.18l-0.376-0.043l0.432-0.651l0.193-0.291     l0.17,0.305l0.377,0.677l0.001,0.002l-0.201-0.108c0.78-0.076,1.559-0.177,2.345-0.176h0.003l-0.187,0.145l0.511-1.538     l0.091-0.272l0.234,0.167l0.303,0.216l-0.305,0.062l0.559-0.91l0.001-0.002l0.242-0.393l0.142,0.438l0.669,2.069v0.002     l-0.219-0.146c0.562,0.033,1.117-0.016,1.675-0.033c0.558-0.012,1.111-0.081,1.658-0.233h0.002l-0.077,0.021l1.007-0.492     l0.05-0.024l0.056,0.003l0.444,0.023l-0.208,0.133l0.444-1.109l0.175-0.438l0.212,0.421l0.439,0.871l-0.244-0.109l0.77-0.204     l0.093-0.025l0.08,0.054l0.891,0.593l-0.327,0.14l0.482-2.73l0.005-0.031l0.015-0.029l0.28-0.544l0,0l-0.022,0.08     c0.125-1.087,0.229-2.176,0.317-3.266l0.278-3.27l0.223-3.273c0.084-1.079,0.113-2.199,0.266-3.281l0.057-0.399l0.302,0.277     h0.001l0.444,0.43l-0.36,0.148l0,0c0.056-0.748,0.07-1.497,0.099-2.246c0.031-0.749,0.033-1.498-0.006-2.249l-0.006-0.122     l0.137-0.07l0.001,0c0.978-0.413,1.957-0.839,2.898-1.314c0.957-0.4,1.617-1.245,2.247-2.08c0.303-0.43,0.598-0.857,0.77-1.337     c0.181-0.479,0.326-0.992,0.45-1.503c0.248-1.026,0.428-2.074,0.585-3.125c0.602-4.209,0.888-8.472,1.077-12.725l0.213,0.22     H4.633z M4.186-0.891H49.41h0.223l-0.01,0.22c-0.191,4.269-0.477,8.532-1.082,12.771c-0.159,1.059-0.34,2.116-0.593,3.163     c-0.128,0.525-0.272,1.042-0.468,1.561c-0.192,0.527-0.51,0.989-0.82,1.428c-0.637,0.849-1.354,1.764-2.397,2.209     c-0.964,0.486-1.941,0.911-2.929,1.329l-0.001,0l0.131-0.192c-0.069,0.748-0.1,1.497-0.099,2.246     c-0.003,0.75-0.019,1.499,0.006,2.249l0,0l-0.011,0.487l-0.35-0.339l-0.445-0.43l0,0l0.357-0.123     c-0.187,1.082-0.236,2.146-0.328,3.249l-0.257,3.271l-0.496,6.543l-0.003,0.042l-0.02,0.039h-0.001l-0.279,0.544l0.02-0.06     l-0.482,2.73l-0.057,0.32l-0.271-0.181l-0.891-0.593l0.173,0.028l-0.77,0.204l-0.167,0.045l-0.077-0.154l-0.439-0.871     l0.387-0.017L36.52,41.94l-0.057,0.142l-0.152-0.009l-0.444-0.023l0.104-0.021l-1.007,0.492l-0.036,0.019l-0.041,0.003h-0.001     c-0.56-0.002-1.116,0.023-1.671,0.083c-0.555,0.058-1.11,0.1-1.663,0.184l-0.153,0.023l-0.065-0.17l-0.001-0.002l-0.668-2.069     l0.384,0.046l-0.002,0.002l-0.558,0.91l-0.119,0.194l-0.186-0.133l-0.303-0.216l0.325-0.105l-0.511,1.538l-0.045,0.134     l-0.142,0.011h-0.002c-0.396-0.033-0.788-0.02-1.178,0.02c-0.389,0.049-0.781,0.072-1.167,0.156l-0.108,0.023L26.96,43.04     l-0.001-0.002l-0.377-0.677l0.363,0.014l-0.432,0.651l-0.231,0.349l-0.146-0.392l-0.438-1.18l0.242,0.134l-0.497,0.102     l0.146-0.108l-0.35,0.663l-0.088,0.169l-0.177-0.069l-0.855-0.335l0.197-0.022l-0.749,0.513l-0.061,0.042l-0.074-0.006h-0.003     c-0.301-0.066-0.604-0.105-0.91-0.114c-0.305-0.008-0.609-0.032-0.917-0.016l-0.122,0.007l-0.065-0.155l-0.001-0.004     l-0.504-1.617L21.3,41.02l-0.754,1.441l-0.121,0.231l-0.202-0.166l-0.62-0.508l0.242,0.02l-0.788,0.458L19,42.53l-0.066-0.005     H18.93c-0.391-0.078-0.785-0.128-1.181-0.142c-0.396-0.017-0.791-0.049-1.189-0.039l-0.103,0.002l-0.072-0.12l-0.002-0.003     l-0.29-0.585l0.371,0.019l-0.339,0.54l-0.068,0.109l-0.128-0.01l-1.477-0.111l-0.186-0.014l-0.01-0.188V41.98     c-0.044-1.426-0.106-2.851-0.215-4.272l-0.001-0.012l0.001-0.019l0.083-0.97l0.036,0.14l-0.003-0.004l-0.526-0.775l-0.041-0.06     l0.004-0.071l0-0.005c0.101-1.317,0.18-2.636,0.224-3.955l0.002-0.07l0.051-0.059l0.003-0.004l0.514-0.582l0.019,0.301     l-1.117-0.991l-0.108-0.096l0.051-0.137l0.229-0.62l0.001,0.15l-0.002-0.006l-0.315-0.907l-0.009-0.025l-0.002-0.018     c-0.137-1.218-0.25-2.438-0.415-3.651l-0.507-3.641l0.125,0.168l-0.006-0.002c-0.974-0.434-1.939-0.873-2.889-1.375     c-0.474-0.233-0.962-0.585-1.321-0.986C7.75,19.03,7.412,18.61,7.098,18.17c-0.305-0.435-0.616-0.913-0.794-1.437     c-0.188-0.511-0.329-1.03-0.454-1.551c-0.248-1.042-0.427-2.094-0.583-3.147C4.669,7.817,4.385,3.576,4.195-0.67L4.186-0.891z"
   id="path100" />
		</g>
	</g>
	<g
   id="chest_armor_1_">
		<path
   id="chest_armor"
   fill="#89C6ED"
   stroke="#000000"
   stroke-width="0.4252"
   stroke-linejoin="round"
   d="M35.924,6.443    c-2.675,3.409-6.619,3.949-6.619,3.949s-1.463-2.033-2.374-2.048c-0.91,0.015-2.375,2.048-2.375,2.048s-3.945-0.54-6.621-3.949    c-4.759,1.688-10.096,6.437-10.244,8.762c0.426,0.832,1.818,3.115,2.849,3.637c1.816,0.92,8.118,0.646,8.118,0.646l1.227-0.316    l3.427-2.753c0,0,2.671-1.255,3.62-1.296c0.772-0.033,3.017,0.823,3.017,0.823l4.037,3.117l1.371,0.427    c0,0,6.182,0.257,7.962-0.646c1.03-0.523,2.424-2.805,2.849-3.637C46.018,12.879,40.681,8.131,35.924,6.443z" />
		<path
   fill="#89C6ED"
   stroke="#000000"
   stroke-width="0.4252"
   stroke-linejoin="round"
   d="M42.116,8.598    c0,0-1.528-1.097-2.061-1.428c-0.56-0.348-2.307-1.278-2.307-1.278s3.541-3.674,4.436-3.112    C43.278,3.467,42.116,8.598,42.116,8.598z"
   id="path104" />
		<path
   fill="#89C6ED"
   stroke="#000000"
   stroke-width="0.4252"
   stroke-linejoin="round"
   d="M11.742,8.598    c0,0,1.529-1.097,2.061-1.428c0.56-0.348,2.308-1.278,2.308-1.278s-3.542-3.674-4.437-3.113    C10.579,3.467,11.742,8.598,11.742,8.598z"
   id="path106" />
		<path
   fill="#89C6ED"
   stroke="#000000"
   stroke-width="0.4252"
   stroke-linejoin="round"
   d="M36.854,39.274    c0,0-7.68-0.119-7.379-0.626c1.066-1.804,1.816-1.912,1.998-5.483c0.078-1.527-1.039-3.948-1.609-5.987s-0.027-3.697-0.027-3.697    s2.08-0.386,3.58-1.199c2.307-1.25,5.412-1.459,5.412-1.459s-1.08,4.418-1.275,6.377C37.235,30.384,36.854,39.274,36.854,39.274z"
   id="path108" />
		<path
   fill="#89C6ED"
   stroke="#000000"
   stroke-width="0.4252"
   stroke-linejoin="round"
   d="M17.004,39.274    c0,0,7.679-0.119,7.379-0.626c-1.066-1.804-1.816-1.912-1.999-5.483c-0.078-1.527,1.039-3.948,1.609-5.987    s0.027-3.697,0.027-3.697s-2.079-0.386-3.579-1.199c-2.307-1.25-5.413-1.459-5.413-1.459s1.081,4.418,1.276,6.377    C16.623,30.384,17.004,39.274,17.004,39.274z"
   id="path110" />
	</g>
	<g
   id="eye_symbol">
		<path
   fill="#ED1C24"
   stroke="#8F2733"
   stroke-width="0.2"
   stroke-linejoin="round"
   stroke-miterlimit="10"
   d="M35.861,17.609    c-0.022-0.123-0.159-0.447-0.332-0.572c-0.383-0.318-0.81-0.302-1.188-0.227c-0.122,0.024-0.2,0.143-0.179,0.265    c0.025,0.114,0.129,0.191,0.24,0.182l0.028-0.002c0.266-0.023,0.581,0.049,0.689,0.203c0.067,0.107,0.076,0.101,0.106,0.305    c-0.014,0.059-0.009,0.156-0.069,0.229c-0.224,0.309-1.07,0.53-1.522,0.237c-1.81-1.175-3.913-3.541-6.707-3.409    c-2.793-0.132-4.896,2.234-6.705,3.409c-0.453,0.293-1.3,0.071-1.522-0.237c-0.063-0.073-0.057-0.171-0.07-0.229    c0.031-0.204,0.039-0.197,0.105-0.305c0.109-0.154,0.424-0.227,0.69-0.203l0.028,0.002c0.112,0.01,0.216-0.067,0.24-0.182    c0.023-0.122-0.056-0.24-0.179-0.265c-0.377-0.075-0.805-0.092-1.187,0.227c-0.173,0.125-0.31,0.449-0.333,0.572    c-0.052,0.269-0.017,0.521,0.106,0.73c0.24,0.409,1.196,0.811,1.518,0.984c0.535,0.589,1.898,2.089,5.404,2.652    c0.144,0.023,0.595,0.21,0.669,0.549c0.541,2.439,0.324,3.895-0.105,5.412c-0.388,1.372-1.505,3.384-1.505,5.441    c0,2.582,1.292,4.675,2.847,4.677c1.555-0.002,2.846-2.095,2.846-4.677c0-2.058-1.116-4.069-1.505-5.441    c-0.429-1.518-0.645-2.973-0.105-5.412c0.075-0.339,0.526-0.525,0.67-0.549c3.505-0.563,4.868-2.063,5.404-2.652    c0.321-0.174,1.276-0.575,1.517-0.984C35.877,18.129,35.915,17.877,35.861,17.609z M26.928,20.611    c-1.104,0-2.001-0.919-2.001-2.048s0.898-2.047,2.001-2.047c1.104,0,2.003,0.918,2.003,2.047S28.033,20.611,26.928,20.611z     M21.205,18.993c0.176-0.346,1.742-1.87,3.775-2.965c0.217-0.117,0.464-0.19,0.724-0.246c-0.995,0.471-1.689,1.489-1.689,2.679    c0,0.918,0.419,1.728,1.064,2.271C23.274,20.441,21.184,19.77,21.205,18.993z M28.861,20.662c0.599-0.541,0.981-1.322,0.981-2.201    c0-1.189-0.695-2.209-1.691-2.679c0.261,0.055,0.508,0.129,0.727,0.246c2.033,1.095,3.598,2.619,3.773,2.965    C32.674,19.714,30.68,20.343,28.861,20.662z"
   id="path113" />
		<g
   id="g115">
			<path
   fill="#ED1C24"
   stroke="#8F2733"
   stroke-width="0.2"
   stroke-linejoin="round"
   stroke-miterlimit="10"
   d="M29.336,14.444     h-4.949l2.475-4.311L29.336,14.444z M25.438,13.836h2.849l-1.424-2.482L25.438,13.836z"
   id="path117" />
			<path
   fill="#ED1C24"
   stroke="#8F2733"
   stroke-width="0.2"
   stroke-linejoin="round"
   stroke-miterlimit="10"
   d="M33.729,16.784     l-3.234-2.153l3.261-2.568L33.729,16.784z M31.531,14.588l1.598,1.063l0.013-2.332L31.531,14.588z"
   id="path119" />
			<path
   fill="#ED1C24"
   stroke="#8F2733"
   stroke-width="0.2"
   stroke-linejoin="round"
   stroke-miterlimit="10"
   d="M20.103,12.062     l3.261,2.568l-3.234,2.153L20.103,12.062z M20.717,13.32l0.012,2.332l1.598-1.063L20.717,13.32z"
   id="path121" />
		</g>
	</g>
	<path
   id="outline_mask"
   connector-curvature="0"
   fill="none"
   stroke="#EFF0EF"
   stroke-width="0.3118"
   d="M0.943,44.131   C9.675-3.163,6.286,1.452,15.21,1.275h23.44c8.926,0.177,5.535-4.438,14.264,42.856H0.943z" />
</g>
</svg>