<?xml version="1.0" encoding="UTF-8" standalone="no"?>
<!-- Created with Inkscape (http://www.inkscape.org/) -->

<svg
   xmlns:dc="http://purl.org/dc/elements/1.1/"
   xmlns:cc="http://creativecommons.org/ns#"
   xmlns:rdf="http://www.w3.org/1999/02/22-rdf-syntax-ns#"
   xmlns:svg="http://www.w3.org/2000/svg"
   xmlns="http://www.w3.org/2000/svg"
   xmlns:xlink="http://www.w3.org/1999/xlink"
   xmlns:sodipodi="http://sodipodi.sourceforge.net/DTD/sodipodi-0.dtd"
   xmlns:inkscape="http://www.inkscape.org/namespaces/inkscape"
   width="118.89077"
   height="121.21875"
   id="svg2"
   version="1.1"
   inkscape:version="0.48.2 r9819"
   sodipodi:docname="bears.svg">
  <defs
     id="defs4">
    <inkscape:perspective
       sodipodi:type="inkscape:persp3d"
       inkscape:vp_x="0 : 526.18109 : 1"
       inkscape:vp_y="0 : 1000 : 0"
       inkscape:vp_z="744.09448 : 526.18109 : 1"
       inkscape:persp3d-origin="372.04724 : 350.78739 : 1"
       id="perspective10" />
    <inkscape:perspective
       id="perspective2824"
       inkscape:persp3d-origin="0.5 : 0.33333333 : 1"
       inkscape:vp_z="1 : 0.5 : 1"
       inkscape:vp_y="0 : 1000 : 0"
       inkscape:vp_x="0 : 0.5 : 1"
       sodipodi:type="inkscape:persp3d" />
    <inkscape:perspective
       id="perspective2856"
       inkscape:persp3d-origin="0.5 : 0.33333333 : 1"
       inkscape:vp_z="1 : 0.5 : 1"
       inkscape:vp_y="0 : 1000 : 0"
       inkscape:vp_x="0 : 0.5 : 1"
       sodipodi:type="inkscape:persp3d" />
    <inkscape:perspective
       id="perspective2894"
       inkscape:persp3d-origin="0.5 : 0.33333333 : 1"
       inkscape:vp_z="1 : 0.5 : 1"
       inkscape:vp_y="0 : 1000 : 0"
       inkscape:vp_x="0 : 0.5 : 1"
       sodipodi:type="inkscape:persp3d" />
  </defs>
  <sodipodi:namedview
     id="base"
     pagecolor="#ffffff"
     bordercolor="#666666"
     borderopacity="1.0"
     inkscape:pageopacity="0.0"
     inkscape:pageshadow="2"
     inkscape:zoom="5.12"
     inkscape:cx="54.965164"
     inkscape:cy="51.326405"
     inkscape:document-units="px"
     inkscape:current-layer="layer1"
     showgrid="false"
     inkscape:window-width="1280"
     inkscape:window-height="968"
     inkscape:window-x="-4"
     inkscape:window-y="-4"
     inkscape:window-maximized="1"
     fit-margin-top="0"
     fit-margin-left="0"
     fit-margin-right="0"
     fit-margin-bottom="0" />
  <metadata
     id="metadata7">
    <rdf:RDF>
      <cc:Work
         rdf:about="">
        <dc:format>image/svg+xml</dc:format>
        <dc:type
           rdf:resource="http://purl.org/dc/dcmitype/StillImage" />
        <dc:title />
      </cc:Work>
    </rdf:RDF>
  </metadata>
  <g
     inkscape:label="Ebene 1"
     inkscape:groupmode="layer"
     id="layer1"
     transform="translate(-377.52442,-492.3125)">
    <path
       style="font-size:medium;font-style:normal;font-variant:normal;font-weight:normal;font-stretch:normal;text-indent:0;text-align:start;text-decoration:none;line-height:normal;letter-spacing:normal;word-spacing:normal;text-transform:none;direction:ltr;block-progression:tb;writing-mode:lr-tb;text-anchor:start;color:#000000;fill:#1b2a34;fill-opacity:1;stroke:none;stroke-width:4.50000000000000000;marker:none;visibility:visible;display:inline;overflow:visible;enable-background:accumulate;font-family:Andale Mono;-inkscape-font-specification:Andale Mono"
       d="m 429.90161,576.78858 c 0.16161,6.98373 0.82008,17.93868 7.12959,18.05532 l 0.125,-31.375 -0.125,0 0,-1.875 0.28125,0 0,-13.875 c 0.29278,-2.60047 0.15264,-7.2997 -0.17476,-10.5 -6.66452,0.25633 -10.5658,3.55644 -10.45024,6.0625 0.10929,2.37021 5.8255,1.66791 9.625,4.90625 l 0,10.71875 -3.75,2.9375 -12.09375,0.0625 c -0.29568,-0.85763 -2.44007,-7.26685 -2.59375,-14.6875 -0.0802,-3.87347 1.0101,-8.05332 3.9375,-11.40625 2.9274,-3.35293 7.71799,-5.93487 15.21875,-6.5 l -0.0625,-0.625 c 0.48543,0.006 0.96829,0.0334 1.46875,0.0625 l -0.15625,-1.59375 c 0,0 -1.39196,0.12739 -1.96875,0 -0.57679,-0.12739 -3.22354,-2.98973 -8.41159,-5.91235 -2.61587,-1.47361 -12.42581,-2.19938 -13.21341,-3.3064 -0.73245,-1.0295 -1.54178,-10.47733 -1.65625,-11.84375 1.75833,-0.76481 4.09201,-1.76571 6.6875,-2.84375 2.36151,-0.98085 4.76477,-1.93263 6.65625,-2.625 0.94574,-0.34618 1.76765,-0.64612 2.34375,-0.8125 0.23044,-0.0666 0.37258,-0.0972 0.5,-0.125 0.063,0.0277 0.47057,0.15956 1.03125,0.4375 0.63053,0.31256 1.36284,0.74062 2.0625,1.15625 1.39932,0.83125 5,1.96875 5,1.96875 l 0.125,-4.09375 c 0,0 -1.2913,-0.84635 -2.8125,-1.75 -0.7606,-0.45183 -1.58134,-0.91907 -2.375,-1.3125 -0.79366,-0.39343 -1.4581,-0.74656 -2.40625,-0.90625 -0.67852,-0.11428 -0.96989,-0.001 -1.3125,0.0625 -0.34261,0.0638 -0.68656,0.14143 -1.0625,0.25 -0.75188,0.21715 -1.62318,0.53954 -2.625,0.90625 -2.00363,0.73342 -4.45043,1.69343 -6.84375,2.6875 -4.25974,1.76929 -7.46705,3.22015 -8.3125,3.59375 l -18.75,-9.59375 -1.46875,-0.78125 5e-5,-1.5e-4 -1.1875,1.21875 c 0,0 -2.41481,2.55633 -4.9375,5.875 -2.52269,3.31867 -5.30506,7.20839 -5.75,11.1875 -0.43278,3.87037 1.23979,7.95814 2.8125,11.3125 1.29917,2.77094 2.22309,4.20917 2.65625,4.90625 -3.78494,9.01334 -5.25088,18.00326 -5.40625,25.40625 -0.16168,7.70356 0.7848,13.43036 2.5625,16.59375 0.58632,1.04336 1.37976,1.78359 2.40625,2.6875 1.02649,0.90391 2.27206,1.87841 3.6875,2.90625 2.83088,2.05568 6.30012,4.31296 9.6875,6.4375 6.28261,3.94041 11.41209,6.89525 12.25,7.375 0.11206,0.96048 0.5046,4.47273 1.3125,8.9375 0.45612,2.52071 1.01268,5.02015 1.65625,7.03125 0.32178,1.00555 0.63888,1.89063 1.125,2.6875 0.24306,0.39843 0.52904,0.7773 1,1.15625 0.47096,0.37895 1.26186,0.55575 2.125,0.65625 4.44028,0.51699 6.88338,-2.56869 7.71875,-2.625 0.83537,-0.0563 1.51951,4.86073 7.1875,6.8125 2.19747,0.97821 6.79772,0.42719 10.0625,0.65625 l -2.375,-13.96875 c -5.11692,0.4591 -6.96441,-0.5549 -8.78125,-1.5625 l -0.125,-0.3125 0.15625,-0.0312 -9.875,-32 -0.125,0.0312 0,-0.0312 c -11.50462,-6.61871 -12.63238,-15.25112 -23.5,-23.84375 1.20517,17.36828 20.56623,26.47326 21.28125,28.78125 0.71502,2.30799 -4.07462,6.61728 -6.96875,6.8125 -2.89413,0.19522 -16.375,-13.125 -16.375,-13.125 -3.78643,-12.65494 -1.23891,-23.8993 3.09375,-34.75 -6.49729,8.40083 -8.68066,20.17605 -7,34.9375 l -5.15625,2.75 c -0.31205,-0.33361 -0.53694,-0.57952 -0.5625,-0.625 -0.74995,-1.33453 -2.11962,-7.09297 -1.96875,-14.28125 0.15087,-7.18828 1.58343,-16.05431 5.4375,-24.78125 l 0.46875,-1.125 -0.625,-1 c 0,0 -1.53487,-2.37926 -2.96875,-5.4375 -1.43388,-3.05824 -2.59906,-6.87123 -2.375,-8.875 0.2119,-1.89503 2.46064,-5.87482 4.8125,-8.96875 1.81467,-2.38725 2.87943,-3.44311 3.59375,-4.21875 l 18.03125,9.25 0.96875,0.5 0.0937,-0.0312 0,19.53125 9.3125,9.125 c -2.20962,3.35625 -2.91752,7.40681 -2.84375,10.96875 0.17193,8.30193 2.90625,15.875 2.90625,15.875 l 0.21875,0.59375 0.625,0 2.875,-0.0312 7.21416,13.10093 z M 391.875,510.78125 399.03125,525.4375 404.5,517.625 391.875,510.78125 z m 28.375,14.40625 c 2.88626,0.0219 5.64884,0.94751 8.0625,2.125 -3.77112,1.06475 -6.35885,3.08752 -9.03125,5.03125 l -5.875,-5.28125 c 2.27154,-1.35109 4.59888,-1.89204 6.84375,-1.875 z m 12.0625,38.4375 -1.75,12.28125 -6.71875,-12.21875 8.46875,-0.0625 z m -11.1875,10.9375 6.03125,19.5625 c -0.0593,-1.8e-4 -0.0739,-0.0186 -0.3125,0.0312 -4.06443,0.84846 -6.87547,3.43071 -8.75,5.75 -1.03499,1.28056 -1.80959,2.43679 -2.4375,3.28125 -0.058,-0.1606 -0.0985,-0.19444 -0.15625,-0.375 -0.52663,-1.64568 -1.06161,-4.04605 -1.5,-6.46875 -0.87678,-4.84539 -1.4375,-9.78125 -1.4375,-9.78125 l -0.125,-1.125 -1,-0.5625 c 0,0 -0.12215,-0.0609 -0.125,-0.0625 2.40538,-4.15214 3.4403,-9.33789 9.8125,-10.25 l 0,5e-5 z m 11.96875,7.78125 c 0.30153,0.089 2.17254,8.24389 1.21875,10.59375 -1.49786,-1.94833 -2.24873,-3.96371 -2.40625,-6.3125 0,0 0.88597,-4.37025 1.1875,-4.28125 z"
       id="path2900"
       sodipodi:nodetypes="ccccccccsccccssccccssscssssssccssssssscccccssscssssscssssssccccccccccssccccsscccsssccccccscccccccccccccccccccsscssccccccccccc"
       inkscape:connector-curvature="0" />
    <use
       x="0"
       y="0"
       xlink:href="#path2900"
       id="use3678"
       transform="matrix(-1,0,0,1,873.9396,-1.27e-6)"
       width="744.09448"
       height="1052.3622"
       style="fill:#1b2a34" />
    <path
       style="fill:#1b2a34;stroke:none"
       d="m 436.9962,502.88129 0,22.09708 c -0.51908,-2.56631 -2.14872,-4.82413 -7.68137,-5.99778 1.42165,-2.93695 4.78199,-5.81006 5.05076,-6.83957 0.26877,-1.02951 -2.47118,-9.3883 -4.10374,-12.62691"
       id="path3738"
       sodipodi:nodetypes="ccczc"
       inkscape:connector-curvature="0" />
    <path
       style="fill:#1b2a34;stroke:none"
       d="m 443.62533,498.77754 -2.52539,12.62691 c 0,0 4.78933,7.22967 5.68211,7.15525 0.89278,-0.0744 6.8711,-2.61484 13.31502,-3.82571 l 2.36339,-1.64595 0.4209,-8.41794 -19.25603,-5.89256 z"
       id="path3740"
       sodipodi:nodetypes="cczcccc"
       inkscape:connector-curvature="0" />
    <path
       style="fill:#1b2a34;stroke:none"
       d="m 464.25605,525.40845 c 0.42281,24.49172 -4.36938,30.83479 -9.50408,37.77649 2.65703,-8.31777 4.11572,-16.99181 -0.64483,-27.51481 l 10.14891,-10.26168 z"
       id="path3742"
       sodipodi:nodetypes="cccc"
       inkscape:connector-curvature="0" />
  </g>
</svg>
