<?xml version="1.0" encoding="UTF-8" standalone="no"?>
<!-- Created with Inkscape (http://www.inkscape.org/) -->

<svg
   xmlns:dc="http://purl.org/dc/elements/1.1/"
   xmlns:cc="http://creativecommons.org/ns#"
   xmlns:rdf="http://www.w3.org/1999/02/22-rdf-syntax-ns#"
   xmlns:svg="http://www.w3.org/2000/svg"
   xmlns="http://www.w3.org/2000/svg"
   xmlns:xlink="http://www.w3.org/1999/xlink"
   xmlns:sodipodi="http://sodipodi.sourceforge.net/DTD/sodipodi-0.dtd"
   xmlns:inkscape="http://www.inkscape.org/namespaces/inkscape"
   width="87.179527"
   height="82.559822"
   id="svg2"
   version="1.1"
   inkscape:version="0.48.2 r9819"
   sodipodi:docname="bull.svg">
  <defs
     id="defs4" />
  <sodipodi:namedview
     id="base"
     pagecolor="#ffffff"
     bordercolor="#666666"
     borderopacity="1.0"
     inkscape:pageopacity="0.0"
     inkscape:pageshadow="2"
     inkscape:zoom="3.4802131"
     inkscape:cx="50.93569"
     inkscape:cy="6.9525665"
     inkscape:document-units="px"
     inkscape:current-layer="layer1"
     showgrid="false"
     inkscape:window-width="1600"
     inkscape:window-height="848"
     inkscape:window-x="-8"
     inkscape:window-y="-8"
     inkscape:window-maximized="1"
     fit-margin-top="0"
     fit-margin-left="0"
     fit-margin-right="0"
     fit-margin-bottom="0" />
  <metadata
     id="metadata7">
    <rdf:RDF>
      <cc:Work
         rdf:about="">
        <dc:format>image/svg+xml</dc:format>
        <dc:type
           rdf:resource="http://purl.org/dc/dcmitype/StillImage" />
        <dc:title></dc:title>
      </cc:Work>
    </rdf:RDF>
  </metadata>
  <g
     inkscape:label="Ebene 1"
     inkscape:groupmode="layer"
     id="layer1"
     transform="translate(-546.57378,-729.39987)">
    <g
       id="g3843">
      <g
         style="fill:#1b2a34;stroke:none"
         transform="translate(-75.654853,0.15408317)"
         id="g3885">
        <path
           style="fill:#1b2a34;stroke:none"
           d="m 645.51847,729.25818 c -1.97594,0.14957 -3.46313,1.61057 -3.47698,3.33446 -31.65818,0.48154 -21.0859,34.65521 1.78934,32.33217 4.38291,-0.20611 7.74708,-1.98602 8.13609,-5.12875 0.38901,-3.14274 -0.77859,-6.33211 -6.46781,-6.78115 -9.41801,-0.34881 -12.35519,-3.39732 -13.56018,-6.49498 -2.2583,-5.80535 3.19645,-10.96215 10.24036,-12.93486 0.50078,1.43127 2.06632,2.41341 3.83925,2.27921 2.07033,-0.15672 3.6277,-1.75731 3.48926,-3.58611 -0.13843,-1.8288 -1.91899,-3.17671 -3.98933,-3.01999 z m 12.49709,21.25945 c -1.09074,0.0711 -5.16539,1.77856 -6.17664,2.20541 0.43154,0.35349 0.82448,0.73618 1.15382,1.16623 1.47597,1.92736 1.6871,4.24506 1.44246,6.22137 -0.29536,2.3862 -1.8282,4.33022 -3.75283,5.48642 -1.62224,0.97454 -3.53872,1.49123 -5.75917,1.75221 -2.63931,0.41386 -18.83527,5.81977 -14.43864,14.19285 1.17213,1.56578 15.12345,-0.24516 12.93651,-8.74235 -1.73542,1.86725 -3.95902,4.07995 -3.80909,0.89714 0.0212,-0.44961 -4.20244,1.86065 -4.46993,1.47548 -0.81336,-1.17123 4.65607,-4.38878 9.70642,-5.49834 0.30424,0.78925 0.344,1.60041 0.40447,2.44519 0.94648,7.87075 2.73885,19.62141 7.45552,22.3134 2.80254,1.47252 3.75324,-2.36232 13.4417,-3.07516 l 1.86373,-34.02972 c -1.06328,-1.83971 -4.30364,-7.18151 -9.99833,-6.81013 z m 7.87647,42.12023 c -3.22022,0.0795 -5.91114,0.93214 -8.33703,1.92049 -5.25106,2.13938 -8.48863,5.68623 -7.38168,9.18619 1.0778,2.95245 3.518,10.75302 16.15776,7.11167 z"
           id="path3085"
           inkscape:connector-curvature="0"
           sodipodi:nodetypes="sccscscsssccssscccsccccccccsccc" />
        <use
           style="fill:#1b2a34;stroke:none"
           x="0"
           y="0"
           xlink:href="#path3085"
           id="use3883"
           transform="matrix(-1,0,0,1,1331.6368,0)"
           width="744.09448"
           height="1052.3622" />
      </g>
      <g
         id="g3794">
        <path
           style="fill:#c4281b;stroke:#1b2a34"
           d="m 574.3125,771.21875 c -0.74943,-0.0444 -1.43032,0.0522 -2.0625,0.0937 -0.042,0.0546 -0.0838,0.0983 -0.125,0.15625 -0.73856,5.87074 1.5188,8.75527 3.59375,11.8125 3.33759,0.0756 3.45046,-2.73526 10.71875,-1.84375 -0.0565,-0.17935 -0.1388,-0.39233 -0.21875,-0.59375 -5.0683,-3.49645 -6.26943,-6.98595 -9.78125,-9 -0.74968,-0.42995 -1.46147,-0.58565 -2.125,-0.625 z"
           id="path3010"
           inkscape:connector-curvature="0" />
        <path
           style="fill:#7c5c45;stroke:none"
           d="m 569.61781,770.00149 c 13.4226,-5.57762 16.77717,7.28706 19.53132,12.6219 -7.67719,-4.04624 -8.60346,-8.41043 -12.71097,-10.76611 -2.99874,-1.7198 -5.32992,0.89934 -6.82035,-1.85579 z"
           id="path3008"
           inkscape:connector-curvature="0"
           sodipodi:nodetypes="ccsc" />
        <path
           style="fill:none;stroke:#7c5c45;stroke-width:1px;stroke-linecap:round;stroke-linejoin:miter;stroke-opacity:1"
           d="m 582.62056,765.48589 6.09333,4.84203"
           id="path3018"
           inkscape:connector-curvature="0" />
      </g>
      <path
         transform="matrix(1,0,0,1.3333333,0,-267.80199)"
         d="m 585.61282,802.34509 c 0,0.58592 -0.7551,1.0609 -1.68655,1.0609 -0.93145,0 -1.68655,-0.47498 -1.68655,-1.0609 0,-0.58591 0.7551,-1.06089 1.68655,-1.06089 0.93145,0 1.68655,0.47498 1.68655,1.06089 z"
         sodipodi:ry="1.0608928"
         sodipodi:rx="1.6865475"
         sodipodi:cy="802.34509"
         sodipodi:cx="583.92627"
         id="path3790"
         style="fill:#7c5c45;stroke:none"
         sodipodi:type="arc" />
      <path
         sodipodi:type="arc"
         style="fill:#7c5c45;stroke:none"
         id="path3792"
         sodipodi:cx="583.92627"
         sodipodi:cy="802.34509"
         sodipodi:rx="1.6865475"
         sodipodi:ry="1.0608928"
         d="m 585.61282,802.34509 c 0,0.58592 -0.7551,1.0609 -1.68655,1.0609 -0.93145,0 -1.68655,-0.47498 -1.68655,-1.0609 0,-0.58591 0.7551,-1.06089 1.68655,-1.06089 0.93145,0 1.68655,0.47498 1.68655,1.06089 z"
         transform="matrix(1,0,0,1.3333333,12.513094,-267.80199)" />
      <path
         sodipodi:nodetypes="csc"
         inkscape:connector-curvature="0"
         id="path3788"
         d="m 583.87187,802.42672 c 0.37928,3.78288 4.3338,5.2885 6.47416,5.33167 2.06781,0.0417 5.53258,-1.20178 6.14774,-5.33167"
         style="fill:none;stroke:#e8ab2d;stroke-width:2.5999999;stroke-linecap:round;stroke-linejoin:miter;stroke-miterlimit:4;stroke-opacity:1;stroke-dasharray:none" />
      <g
         transform="matrix(-1,0,0,1,1180.2653,0.06698011)"
         id="g3799">
        <path
           inkscape:connector-curvature="0"
           id="path3801"
           d="m 574.3125,771.21875 c -0.74943,-0.0444 -1.43032,0.0522 -2.0625,0.0937 -0.042,0.0546 -0.0838,0.0983 -0.125,0.15625 -0.73856,5.87074 1.5188,8.75527 3.59375,11.8125 3.33759,0.0756 3.45046,-2.73526 10.71875,-1.84375 -0.0565,-0.17935 -0.1388,-0.39233 -0.21875,-0.59375 -5.0683,-3.49645 -6.26943,-6.98595 -9.78125,-9 -0.74968,-0.42995 -1.46147,-0.58565 -2.125,-0.625 z"
           style="fill:#c4281b;stroke:#1b2a34" />
        <path
           sodipodi:nodetypes="ccsc"
           inkscape:connector-curvature="0"
           id="path3803"
           d="m 569.61781,770.00149 c 13.4226,-5.57762 16.77717,7.28706 19.53132,12.6219 -7.67719,-4.04624 -8.60346,-8.41043 -12.71097,-10.76611 -2.99874,-1.7198 -5.32992,0.89934 -6.82035,-1.85579 z"
           style="fill:#7c5c45;stroke:none" />
        <path
           inkscape:connector-curvature="0"
           id="path3805"
           d="m 582.62056,765.48589 6.09333,4.84203"
           style="fill:none;stroke:#7c5c45;stroke-width:1px;stroke-linecap:round;stroke-linejoin:miter;stroke-opacity:1" />
      </g>
      <path
         id="path3811"
         d="m 606.96875,770.75 c -1.04401,0.0513 -2.36705,0.3487 -3.78125,1.09375 -3.93259,2.25536 -4.96426,6.35419 -11.78125,10.25 -0.0904,0.18695 -0.19238,0.42161 -0.28125,0.59375 6.22509,-3.28092 8.01334,-6.76004 10.65625,-9.21875 0.20907,-0.1945 0.40259,-0.38152 0.625,-0.5625 0.20578,-0.16744 0.43473,-0.34514 0.65625,-0.5 0.0114,-0.008 0.0198,-0.0234 0.0312,-0.0312 0.23429,-0.16235 0.46203,-0.29027 0.71875,-0.4375 2.15718,-1.23716 3.97319,-0.26267 5.375,-0.625 -0.1495,-0.32775 -0.98602,-0.62313 -2.21875,-0.5625 z"
         style="fill:#624732;stroke:none"
         inkscape:connector-curvature="0" />
      <path
         inkscape:connector-curvature="0"
         style="fill:#624732;stroke:none"
         d="m 573.34375,770.75 c 1.04401,0.0513 2.36705,0.3487 3.78125,1.09375 3.93259,2.25536 4.96426,6.35419 11.78125,10.25 0.0904,0.18695 0.19238,0.42161 0.28125,0.59375 -6.22509,-3.28092 -8.01334,-6.76004 -10.65625,-9.21875 -0.20907,-0.1945 -0.40259,-0.38152 -0.625,-0.5625 -0.20578,-0.16744 -0.43473,-0.34514 -0.65625,-0.5 -0.0114,-0.008 -0.0198,-0.0234 -0.0312,-0.0312 -0.23429,-0.16235 -0.46203,-0.29027 -0.71875,-0.4375 -2.15718,-1.23716 -3.97319,-0.26267 -5.375,-0.625 0.1495,-0.32775 0.98602,-0.62313 2.21875,-0.5625 z"
         id="path3841" />
    </g>
  </g>
</svg>
