<?xml version="1.0" encoding="UTF-8" standalone="no"?>
<svg
   xmlns:dc="http://purl.org/dc/elements/1.1/"
   xmlns:cc="http://creativecommons.org/ns#"
   xmlns:rdf="http://www.w3.org/1999/02/22-rdf-syntax-ns#"
   xmlns:svg="http://www.w3.org/2000/svg"
   xmlns="http://www.w3.org/2000/svg"
   xmlns:sodipodi="http://sodipodi.sourceforge.net/DTD/sodipodi-0.dtd"
   xmlns:inkscape="http://www.inkscape.org/namespaces/inkscape"
   version="1.1"
   id="Layer_1"
   x="0px"
   y="0px"
   width="34.016px"
   height="34.016px"
   viewBox="0 0 34.016 34.016"
   enable-background="new 0 0 34.016 34.016"
   xml:space="preserve"
   inkscape:version="0.48.1 "
   sodipodi:docname="forestmen-symbol.svg"><metadata
   id="metadata3806"><rdf:RDF><cc:Work
       rdf:about=""><dc:format>image/svg+xml</dc:format><dc:type
         rdf:resource="http://purl.org/dc/dcmitype/StillImage" /><dc:title></dc:title></cc:Work></rdf:RDF></metadata><defs
   id="defs3804" /><sodipodi:namedview
   pagecolor="#ffffff"
   bordercolor="#666666"
   borderopacity="1"
   objecttolerance="10"
   gridtolerance="10"
   guidetolerance="10"
   inkscape:pageopacity="0"
   inkscape:pageshadow="2"
   inkscape:window-width="1366"
   inkscape:window-height="716"
   id="namedview3802"
   showgrid="false"
   inkscape:zoom="8.554798"
   inkscape:cx="17.007999"
   inkscape:cy="16.014405"
   inkscape:window-x="-8"
   inkscape:window-y="-8"
   inkscape:window-maximized="1"
   inkscape:current-layer="Layer_1" />
<g
   id="Symbol_2_">
	<g
   id="g3789">
		<path
   id="head_2_"
   fill="#DCC392"
   stroke="#684330"
   stroke-width="0.4252"
   stroke-miterlimit="10"
   d="M7.391,16.76    c-0.111-0.67,1.28-0.844,1.837-1.107c0.76-0.36,2.186-0.051,2.916-0.578c0.543-0.393,1.26-1.458,2.518-1.601    c1.479-0.167,1.968,0.803,2.596,0.787c0.349-0.01,0.462-0.347,1.111-0.387c0.811-0.051,0.824,0.56,1.167,0.517    c0.371-0.046,0.761-0.847,1.129-0.917c0.718-0.137,2.745,0.359,2.798,0.679c0.062,0.365-1.374,1.329-1.987,1.519    c-0.359,0.112-1.37-0.372-1.5-0.019c-0.142,0.385,2.519,1.307,3.112,2.018c0.104,0.123,0.265,1.338,0.427,1.688    c0.271,0.59,0.559,0.436,0.685,0.973c0.14,0.6-0.034,0.767-0.062,1.021c-0.042,0.401,0.469,1.174,0.381,1.567    c-0.063,0.275-0.63,0.611-0.716,0.883c-0.144,0.458,0.292,1.46,0.137,1.915c-0.097,0.289-0.653,0.276-0.801,0.543    c-0.162,0.296-0.11,1.468-0.385,1.663c-0.242,0.171-0.929-0.21-1.186-0.061c-0.444,0.256-0.436,1.686-0.929,1.824    c-0.287,0.081-0.724-0.667-1.02-0.624c-0.559,0.083-0.941,1.641-1.504,1.688c-0.311,0.026-0.663-0.767-0.974-0.775    c-0.423-0.013-0.962,1.012-1.384,0.974c-0.346-0.032-0.629-0.949-0.974-0.988c-0.331-0.038-0.805,0.806-1.125,0.715    c-0.438-0.126-0.349-1.533-0.791-1.643c-0.33-0.083-0.771,0.908-1.095,0.806c-0.506-0.158-0.277-1.669-0.685-2.007    c-0.228-0.188-0.752,0.15-0.964-0.168c-0.409-0.613,0.348-1.503,0.113-1.932c-0.149-0.271-0.865,0.085-1.003-0.349    c-0.249-0.787,0.986-1.291,1.008-1.721c0.02-0.385-0.443-0.688-0.336-0.965c0.197-0.509,1.449-0.949,1.805-1.396    c0.163-0.204,0.217-0.751,0.56-0.882c0.496-0.189,1.578,0.109,2.109,0.104c0.553-0.003,1.671-0.19,2.156-0.456    c0.278-0.152,1.016-0.5,0.846-0.767c-0.17-0.266-0.921,0.218-1.217,0.325c-0.414,0.15-1.304,0.244-1.744,0.242    c-0.563-0.002-1.689-0.17-2.231-0.323c-0.297-0.085-0.835-0.417-1.135-0.487C10.488,18.93,9.28,19.149,8.74,18.94    c-0.269-0.104-0.723-0.498-0.892-0.73C7.683,17.981,7.438,17.039,7.391,16.76z" />
		<path
   d="M14.583,15.594c0.044,0.421-0.316,0.805-0.805,0.856c-0.298,0.03-0.557-0.223-0.754-0.247    c-0.323-0.04-1.295,0.251-1.301,0.064c-0.005-0.163,0.86-0.3,1.092-0.489c0.095-0.362,0.316-0.805,0.804-0.856    C14.108,14.871,14.539,15.172,14.583,15.594z"
   id="path3792" />
		<path
   id="nostril"
   d="M8.563,17.177c0,0.183-0.149,0.332-0.332,0.332c-0.089,0-0.167-0.092-0.229-0.092    c-0.152,0-0.533,0.346-0.59,0.152c-0.048-0.163,0.376-0.283,0.487-0.393c0.083-0.083,0.149-0.332,0.332-0.332    S8.563,16.994,8.563,17.177z" />
		<circle
   id="twinkle_2_"
   fill="#FFFFFF"
   cx="13.694"
   cy="15.292"
   r="0.167" />
	</g>
	<g
   id="g3796">
		<path
   fill="#692E14"
   stroke="#754C29"
   stroke-width="0.2835"
   stroke-miterlimit="10"
   d="M13.724,13.371    c0.337-0.04,1.393-0.397,1.464-1c0.06-0.506-0.656-0.561-0.911-0.777c-0.406-0.344-0.312-1.345-0.53-2.241    C13.452,8.151,12.871,6.928,12.4,7.08c-0.618,0.2,1.361,3.681-0.892,3.966c-1.583,0.2-3.192-0.707-3.599-1.325    c-0.306-0.466-0.289-1.369-0.074-1.75c0.271-0.48,1.1-0.931,1.764-1.328c1.23-0.734,1.779-1.287,1.514-1.552    c-0.243-0.243-0.548,0.311-1.423,0.625c-0.603,0.216-1.32,0.417-1.579,0.193C7.875,5.702,7.944,5.125,8.165,4.544    c0.257-0.677,0.682-1.359,0.489-1.465C8.285,2.877,7.52,4.666,7.272,5.116C6.745,6.08,6.127,5.971,5.818,5.334    C5.597,4.88,5.579,4.084,5.274,3.841C4.806,3.467,5.419,6.195,5.726,6.906C5.988,7.512,6.787,8.97,6.125,9.519    c-0.3,0.249-0.952,0.394-1.544-0.001C3.885,9.053,3.253,8.017,3.107,8.08c-0.326,0.144,0.254,1.896,1.274,2.575    c1.6,1.062,5.001,0.302,4.421,1.298c-0.331,0.565-1.136,0.344-2.203,1.166c-0.749,0.577-1.037,1.836-0.717,1.998    c0.312,0.157,0.236-0.67,1.562-1.419c0.452-0.257,1.778-0.527,2.411-0.742c0.72-0.246,1.242-0.728,1.655-0.728    c0.619-0.01,1.529,0.161,1.524,0.523C13.026,13.286,13.453,13.4,13.724,13.371z"
   id="path3798" />
		<path
   fill="#692E14"
   stroke="#754C29"
   stroke-width="0.2835"
   stroke-miterlimit="10"
   d="M30.969,10.046    c-0.3-0.451-0.984,0.108-1.944,0.363c-0.818,0.219-1.462,0.285-1.765-0.036c-0.243-0.256-0.335-1.351-0.473-1.793    c-0.14-0.451-0.596-1.226-0.546-1.808c0.063-0.723,1.691-2.072,1.273-2.455c-0.354-0.323-1.911,1.721-2.709,1.455    c-0.683-0.227-1.057-2.767-1.765-2.655c-0.396,0.063,0.2,3.128-0.582,3.237c-0.537,0.075-1.963-0.927-2.109-0.6    c-0.09,0.201,1.108,1.764,3.291,1.837c1.037,0.034,1.323,1.244,1.418,1.945c0.055,0.403-0.458,1.168-0.764,1.438    c-0.481,0.423-1.76,0.863-2.4,0.909c-0.483,0.035-1.537-0.087-1.891-0.419c-0.402-0.375,0.131-0.782-0.619-2.109    c-0.546-0.964-1.628-1.874-2.055-1.418c-0.272,0.29,0.699,0.474,1.091,2.254c0.061,0.278-0.09,0.878-0.254,1.11    c-0.111,0.156-1.13,1.004-1.887,1.244c-0.346,0.11-0.963,0.229-0.693,1.325c0.123,0.498,1.183,0.846,1.862,0.498    c0.583-0.299,0.821-0.834,1.251-0.996c0.827-0.311,2.496-0.303,3.122-0.16c1.824,0.417,2.357,0.475,2.627,1.384    c0.161,0.547,0.16,0.883,0.554,1.379c0.813,1.03,2.329,1.263,2.457,1.036c0.163-0.291-0.459-0.199-1.219-1.158    c-0.301-0.38-0.304-0.852-0.523-1.523c-0.208-0.641-0.827-1.025-0.786-1.392c0.094-0.844,2.26-1.233,3.093-1.4    C28.833,11.375,31.297,10.537,30.969,10.046z"
   id="path3800" />
	</g>
</g>
</svg>