<?xml version="1.0" encoding="UTF-8" standalone="no"?>
<!-- Created with Inkscape (http://www.inkscape.org/) -->

<svg
   xmlns:dc="http://purl.org/dc/elements/1.1/"
   xmlns:cc="http://creativecommons.org/ns#"
   xmlns:rdf="http://www.w3.org/1999/02/22-rdf-syntax-ns#"
   xmlns:svg="http://www.w3.org/2000/svg"
   xmlns="http://www.w3.org/2000/svg"
   xmlns:sodipodi="http://sodipodi.sourceforge.net/DTD/sodipodi-0.dtd"
   xmlns:inkscape="http://www.inkscape.org/namespaces/inkscape"
   width="178.8208"
   height="220.09364"
   id="svg2"
   version="1.1"
   inkscape:version="0.48.2 r9819"
   sodipodi:docname="New document 1">
  <defs
     id="defs4" />
  <sodipodi:namedview
     id="base"
     pagecolor="#ffffff"
     bordercolor="#666666"
     borderopacity="1.0"
     inkscape:pageopacity="0.0"
     inkscape:pageshadow="2"
     inkscape:zoom="1.68"
     inkscape:cx="102.61475"
     inkscape:cy="91.227356"
     inkscape:document-units="px"
     inkscape:current-layer="layer1"
     showgrid="false"
     fit-margin-top="0"
     fit-margin-left="0"
     fit-margin-right="0"
     fit-margin-bottom="0"
     inkscape:window-width="1280"
     inkscape:window-height="968"
     inkscape:window-x="-4"
     inkscape:window-y="-4"
     inkscape:window-maximized="1" />
  <metadata
     id="metadata7">
    <rdf:RDF>
      <cc:Work
         rdf:about="">
        <dc:format>image/svg+xml</dc:format>
        <dc:type
           rdf:resource="http://purl.org/dc/dcmitype/StillImage" />
        <dc:title></dc:title>
      </cc:Work>
    </rdf:RDF>
  </metadata>
  <g
     inkscape:label="Layer 1"
     inkscape:groupmode="layer"
     id="layer1"
     transform="translate(-305.91357,-547.06246)">
    <path
       style="fill:#e8ab2d;stroke:none"
       d="m 340.09009,563.17299 10.36036,13.96397 -17.56757,30.63063 -5.4054,67.56757 30.18018,43.24324 40.99099,11.71171 39.18919,-18.91892 31.53153,-54.05405 -11.71171,-52.70271 -18.01802,-23.87387 14.41441,-13.96396 -4.95495,-3.15316 c -9.5872,-2.98283 -17.57508,-2.99551 -22.97297,1.80181 l -11.71172,-15.76577 c -9.06435,0.68618 -13.12884,7.20553 -18.91891,11.71171 l -14.41442,-13.96396 c -7.72975,3.68166 -11.42182,11.401 -14.41441,19.81982 -5.43847,-7.85009 -15.173,-7.53767 -26.57658,-4.05406 z"
       id="path3074"
       inkscape:connector-curvature="0"
       sodipodi:nodetypes="cccccccccccccccccc" />
    <path
       style="fill:#1b2a34"
       d="m 381.25,547.0625 c -1.11624,-0.006 -2.11874,0.62601 -4.125,2.15625 -1.96382,1.49788 -4.98203,4.91354 -6.71875,7.59375 -3.41396,5.26864 -4.05871,5.53872 -7.84375,3.375 -5.36522,-3.06704 -25.06582,-0.31177 -25.71875,3.59375 -0.13004,0.77784 1.78246,2.92952 4.25,4.78125 4.93389,3.70258 5.49088,5.05345 2.46875,5.84375 -1.94562,0.5088 -2.46591,1.85552 -1.40625,3.34375 1.13406,1.73139 5.66687,4.10302 1.2187,5.78125 -0.86998,0.33384 -3.23248,0.6129 -5.25,0.625 -4.12134,0.0247 -12.1875,3.31331 -12.1875,4.96875 0,0.46173 0.4311,1.00289 1,1.375 0.20328,0.45318 0.75141,1.11278 1.40625,1.65625 0.2579,0.21404 0.46896,0.41851 0.65625,0.625 -0.0536,1.3621 -1.46095,3.04906 -3.9375,4.3125 -4.60793,2.35079 -11.02028,9.827 -8.96875,10.46875 0.0139,0.004 0.0479,0.0267 0.0625,0.0312 l -0.21875,0.28125 3.09375,0.90625 c 1.45642,0.41769 3.04501,1.31332 3.84375,2.15625 0.0148,1.1481 -0.90067,2.54713 -2.78125,3.9375 -3.13526,2.318 -8.15625,10.1557 -8.15625,12.75 0,0.94743 0.38078,1.30162 1.84375,1.25 0.57434,0.17505 1.44742,0.20739 2.84375,0.125 2.16033,-0.12747 3.87523,0.16645 4.96875,0.71875 0.29091,0.99403 -0.26647,2.46222 -1.40625,3.71875 -1.97711,2.17964 -10.59253,14.83858 -12.96875,19.03125 -2.05037,3.61773 -1.64552,5.9506 0.9375,5.34375 0.0111,7.9e-4 0.0199,-7.2e-4 0.0312,0 0.75533,0.0479 1.90431,-0.0176 3.65625,-0.25 2.72494,-0.36147 3.96658,-0.50305 4.53125,-0.125 0.38372,1.2807 -0.2841,3.7912 -2,7.84375 -4.55591,10.75995 -6.67641,21.97197 -4.40625,23.375 0.0544,0.0337 0.13848,0.0468 0.21875,0.0625 0.1628,0.26625 0.36087,0.4375 0.625,0.4375 0.53671,0 2.44921,-0.90206 4.25,-2 1.43422,-0.87445 2.67611,-1.47008 3.71875,-1.75 1.19413,-0.3206 2.14124,-0.24692 2.75,0.21875 0.0114,0.009 0.0202,0.0223 0.0312,0.0312 0.52048,0.92682 0.34786,3.53061 -0.1875,10.75 -1.08578,14.64206 -1.04382,17.54996 0.40625,19 0.21472,0.2147 0.46294,0.31765 0.71875,0.34375 0.0404,0.004 0.083,0.0322 0.125,0.0312 0.34141,0.0681 0.74846,-0.13875 1.3125,-0.65625 0.7312,-0.5688 1.65182,-1.51917 2.9375,-3 0.51636,-0.59474 0.97051,-1.0829 1.40625,-1.53125 1.4607,-1.13175 2.83546,-1.6144 3.8125,-1.375 0.9239,1.18498 1.44516,4.38108 2,10.09375 0.29953,3.0841 0.72024,5.78785 1.25,8.09375 0.40699,2.6102 0.9035,4.07805 1.65625,5.15625 0.0135,0.0283 0.0177,0.0661 0.0312,0.0937 0.73755,1.5166 1.56827,2.37005 2.40625,2.46875 l 0.53125,0.53125 L 341.25,734 l 0.0625,-0.0312 c 0.66729,-0.6738 1.40607,-1.6187 2.09375,-2.625 0.0601,-0.088 0.12837,-0.1606 0.1875,-0.25 1.15586,-1.4184 2.10316,-2.5147 2.6875,-3.0625 0.0902,-0.0846 0.1684,-0.119 0.25,-0.1875 0.51745,-0.3585 0.96509,-0.5639 1.3125,-0.5 0.44115,0.0812 1.40377,1.28895 2.59375,3.15625 0.008,0.0132 0.0233,0.0181 0.0312,0.0312 0.0424,0.0667 0.082,0.15025 0.125,0.21875 1.10368,1.8494 2.42037,4.25515 3.75,6.90625 1.56255,3.1155 2.9976,5.8315 4.3125,8.1875 0.58158,1.0421 1.15766,2.049 1.6875,2.9375 0.0394,0.0674 0.086,0.15225 0.125,0.21875 0.52427,0.8732 1.02948,1.68945 1.5,2.40625 1.82182,2.8287 3.16695,4.36525 4.125,4.65625 0.13463,0.0506 0.25903,0.0937 0.375,0.0937 0.0963,-0.005 0.20548,-0.0562 0.34375,-0.125 0.14518,-0.0709 0.31452,-0.1743 0.5,-0.3125 0.16046,-0.1184 0.3463,-0.277 0.53125,-0.4375 0.0303,-0.027 0.063,-0.0657 0.0937,-0.0937 0.22209,-0.2021 0.47202,-0.4331 0.71875,-0.6875 0.13534,-0.1353 0.29618,-0.32035 0.4375,-0.46875 0.28001,-0.3052 0.55058,-0.5863 0.84375,-0.9375 0.67072,-0.7662 1.38304,-1.5803 2.0625,-2.5 1.01411,-1.3728 2.01181,-2.55055 2.90625,-3.46875 1.51595,-1.2047 2.77242,-1.1283 4.0625,0.3125 0.0248,0.0278 0.0376,0.0652 0.0625,0.0937 0.74437,1.1529 1.60108,2.65685 2.40625,4.28125 1.2375,2.4967 3.28005,5.81885 5.125,8.40625 0.0285,0.041 0.0654,0.0844 0.0937,0.125 0.009,0.0123 0.0224,0.019 0.0312,0.0312 0.58326,0.8318 1.15034,1.60135 1.65625,2.21875 0.50827,0.6203 1.05528,1.17855 1.5625,1.71875 0.005,0.005 -0.005,0.0258 0,0.0312 0.51617,0.548 1.0167,1.0211 1.46875,1.4375 0.46142,0.419 0.8395,0.7662 1.1875,1 0.005,0.004 0.0261,-0.004 0.0312,0 0.33256,0.2208 0.60761,0.375 0.78125,0.375 0.0284,-0.001 0.0634,-0.0272 0.0937,-0.0312 0.1078,-0.0143 0.21281,-0.0426 0.34375,-0.0937 2.51063,-0.9845 9.11383,-8.5446 12.375,-14.375 1.84579,-3.3 4.01106,-6 4.8125,-6 0.80145,0 2.7875,2.08135 4.4375,4.65625 1.65,2.5748 3.675,4.99405 4.5,5.34375 0.0386,0.0164 0.0847,-0.0118 0.125,0 0.0115,0.003 0.0197,0.0282 0.0312,0.0312 0.55108,0.5343 0.82988,0.64275 0.96875,0.46875 0.27411,-0.3434 0.49192,-0.64295 0.75,-0.96875 2.57276,-1.692 6.44261,-7.28785 10.1875,-15.03125 3.39857,-7.0273 6.41869,-11.6452 8.3125,-12.75 0.40524,-0.0168 0.79462,0.0695 1.1875,0.3125 0.47172,0.2918 1.09119,0.8621 1.6875,1.5625 0.0154,0.0181 0.0159,0.0442 0.0312,0.0625 0.065,0.0883 0.12154,0.1581 0.1875,0.25 0.34312,0.4781 0.68405,1.0125 1.03125,1.5625 0.24767,0.3923 0.51572,0.73475 0.78125,1.09375 0.85455,1.4164 1.66382,2.2642 2.4375,2.5625 0.0825,0.0319 0.16858,0.1058 0.25,0.125 0.2018,0.1094 0.38592,0.21875 0.53125,0.21875 2.21244,0 4.16761,-4.6929 5.90625,-14.0625 0.86262,-4.6486 1.74231,-9.1125 1.9375,-9.9375 0.65828,-2.78231 3.32634,-2.12113 5.75,1.4375 4.89805,7.1917 7.36887,3.3502 6.375,-9.90625 -0.64238,-8.56814 -0.14871,-15.15636 1.125,-17 1.01686,-0.18444 2.48974,0.54284 4.65625,1.8125 2.47184,1.4486 4.82466,2.65625 5.21875,2.65625 0.13577,0 0.24278,-0.19355 0.3125,-0.46875 0.0978,-0.008 0.18962,-0.0252 0.25,-0.0625 1.5328,-0.94732 1.13239,-6.24376 -1.09375,-14.96875 -2.74202,-10.74684 -3.94203,-15.24719 -3.4375,-16.84375 0.34188,-0.0891 0.80055,-0.10833 1.40625,-0.0937 1.375,0.0329 3.5125,0.39581 4.75,0.8125 1.05665,0.3558 1.72479,0.30311 2.03125,-0.15625 0.53827,-0.1056 0.81796,-0.41293 1.03125,-0.96875 0.63527,-1.6555 -2.61531,-8.47544 -8.625,-18 -4.19354,-6.64621 -5.33513,-9.03208 -4.28125,-10.125 0.01,-0.01 0.0215,-0.0217 0.0312,-0.0312 0.64557,-0.0834 1.4822,-0.0937 2.5625,-0.0937 1.70127,0 2.80745,-0.0777 3.5,-0.3125 1.58959,0.33277 2.09375,0.0103 2.09375,-1.15625 0,-2.64853 -2.96311,-7.69086 -7.21875,-12.34375 -2.39612,-2.6198 -3.26981,-3.88085 -3.15625,-4.84375 0.53279,-0.74157 1.45906,-1.34934 2.78125,-1.78125 0.58242,-0.19025 1.0691,-0.39208 1.5625,-0.5625 0.0524,-10e-4 0.10433,0 0.15625,0 1.82743,0 2.875,-0.53012 2.875,-1.4375 0,-1.59698 -4.83211,-6.74899 -9.9375,-10.59375 -3.12002,-2.34962 -3.25279,-2.65347 -1.71875,-4.1875 0.90779,-0.9078 1.65625,-2.16508 1.65625,-2.78125 0,-1.54802 -7.84677,-4.9546 -11.5,-5 -4.9545,-0.0616 -5.8818,-1.29547 -6.125,-8 -0.2055,-5.6651 -0.0596,-6.19627 2.21875,-7.0625 0.80798,-0.30719 1.47656,-0.74209 2,-1.21875 0.64341,-0.5859 1.06261,-1.24506 1.37773,-1.86629 0.31512,-0.62122 0.17272,-1.23968 -0.28398,-1.78996 -3.1808,-3.83263 -16.63743,-5.36834 -26.1875,-3 -2.32593,0.57681 -3.02995,0.0864 -5.90625,-4.1875 -4.47285,-6.64626 -8.01303,-10.34375 -9.9375,-10.34375 -2.01143,0 -9.87889,4.9543 -12.4375,7.84375 -1.04774,1.18323 -2.39787,2.15625 -3.03125,2.15625 -0.63338,0 -3.28515,-1.96321 -5.875,-4.375 -2.58986,-2.41178 -6.01639,-4.92744 -7.625,-5.59375 -0.98602,-0.40842 -1.70526,-0.65266 -2.375,-0.65625 z m -0.71875,3.03125 c 0.30442,0.0489 0.66502,0.0625 1.0625,0.0625 0.47571,0 1.09462,0.19459 1.78125,0.5 2.70611,1.96826 7.1875,6.39895 7.1875,7.4375 0,0.63877 -0.9,1.9019 -2,2.84375 -2.39033,2.04666 -2.6426,6.95115 -0.46875,9.125 2.57767,2.57767 7.9039,2.98354 12.125,1.75 1.134,-0.16092 2.09074,-0.39937 2.6875,-0.71875 0.56119,-0.30034 0.9734,-0.70653 1.28125,-1.21875 0.26319,-0.20745 0.48497,-0.42673 0.6875,-0.65625 0.0302,-0.0319 0.0644,-0.0614 0.0937,-0.0937 0.0149,-0.0179 0.0167,-0.0445 0.0312,-0.0625 0.43895,-0.49449 0.79443,-1.03798 1,-1.625 0.78597,-2.24438 0.53101,-3.308 -1.34375,-5.84375 L 402.375,558.5 l 3.28125,-3.40625 c 0.13425,-0.13851 0.27286,-0.24484 0.40625,-0.375 0.44067,-0.39998 0.86899,-0.79636 1.28125,-1.125 0.0477,-0.038 0.0777,-0.0879 0.125,-0.125 0.11749,-0.0905 0.22691,-0.16632 0.34375,-0.25 0.17737,-0.13254 0.35831,-0.2561 0.53125,-0.375 3.81053,-2.41055 7.28699,-1.15377 10.59375,3.8125 2.38247,3.57812 2.01952,5.8603 -1.375,9.03125 -3.45779,3.23006 -3.68788,4.91216 -1.1875,8 0.78537,0.96989 1.90471,1.68711 3.46875,2.15625 2.99224,1.50843 5.78288,1.5176 7.84375,0.4375 0.838,-0.30126 1.56181,-0.83547 2.46875,-1.6875 1.99677,-1.87586 2.45296,-3.1397 2.21875,-6.3125 -0.25322,-3.43007 0.0573,-4.19382 2.40625,-5.53125 2.50021,-1.42356 3.19791,-1.3899 8.5,0.4375 3.23404,1.07799 6.46733,3.11709 7.28125,3.8125 0.28712,1.75007 -0.60731,2.82054 -4.78125,5.9375 -7.24952,5.4137 -13.08231,8.21252 -15.6875,7.53125 -2.86084,-0.74813 -5.15625,1.28902 -5.15625,4.59375 0,0.75162 -0.087,1.41462 -0.25,2 -0.52437,0.069 -0.99922,0.15667 -1.375,0.25 l -0.40625,0 c -0.0345,0.058 -0.0864,0.1027 -0.125,0.15625 -0.10457,0.0469 -0.18836,0.10047 -0.25,0.15625 -0.33459,0.30279 -0.63446,0.53965 -0.9375,0.71875 -1.19531,0.70646 -2.54284,0.45588 -7.25,-0.75 -7.56006,-1.9368 -30.28671,-1.52537 -38.15625,0.6875 -1.05689,0.29719 -2.10919,0.52405 -3.125,0.71875 -1.33756,0.0212 -2.11444,-0.59927 -3.4375,-2.28125 -1.18122,-1.50168 -2.15625,-3.54152 -2.15625,-4.5 0,-2.45565 -2.52817,-4.25477 -4.90625,-3.5 -3.7674,0.26901 -5.37323,-1.10271 -8.15625,-3.09375 -0.002,0.0295 0.002,0.0367 0,0.0625 -4.90837,-3.43754 -11.84375,-9.47298 -11.84375,-10.5625 0,-0.42879 0.11982,-0.80301 0.375,-1.15625 1.1058,-1.53073 4.59383,-2.36286 10.25,-2.40625 7.65058,-0.0587 9.3553,0.94369 7.46875,4.46875 -2.13599,3.99113 0.18936,7.91277 4.5,9.125 0.01,0.003 0.0216,-0.003 0.0312,0 2.93886,1.185 3.85832,1.16475 7.46875,-0.0937 1.79841,-0.62693 2.97135,-1.4422 3.5,-2.40625 0.007,-0.012 0.0249,-0.0192 0.0312,-0.0312 0.006,-0.006 -0.006,-0.0251 0,-0.0312 2.12798,-2.28383 1.72837,-5.50331 -1.78125,-8.25 -3.00629,-2.35277 -3.09687,-2.61265 -1.875,-5.5625 1.09406,-2.6413 5.57116,-7.33351 8,-8.6875 z m 2.875,25.15625 c -2.8279,0 -4.30716,3.47409 -2.3125,5.46875 1.92395,1.92396 4.26652,1.68122 5.71875,-0.625 1.29339,-2.05398 -0.65875,-4.84375 -3.40625,-4.84375 z m 24.5625,0.5 c -3.30514,0 -4.51986,2.52216 -2.4375,5.03125 0.66276,0.79858 1.74719,1.46875 2.4375,1.46875 1.85227,0 3.74079,-2.65708 3.34375,-4.71875 -0.24069,-1.24982 -1.27749,-1.78125 -3.34375,-1.78125 z m -14,11.8125 c 2.23504,-0.0289 3.98017,0.004 4.65625,0 4.58191,0.2927 16.46798,-0.0888 17.75,3.46875 0.19714,0.63236 -0.0513,1.37451 -0.6875,2.25 -0.38686,0.53241 -0.88529,1.11379 -1.5625,1.75 -0.40735,0.38268 -0.79064,0.70775 -1.21875,0.96875 -1.85514,1.131 -4.79843,1.21875 -16.71875,1.21875 -3.21183,0 -5.50159,-0.0344 -7.5625,-0.0625 -4.00286,-0.13432 -6.64716,-0.30703 -8.125,-0.65625 -1.42171,-0.84147 -4.50362,-2.26115 -4.28125,-3.9375 -0.0738,-4.22939 11.04488,-4.91321 17.75,-5 z m -37.78125,3.75 c 0.46141,-0.008 0.93092,-0.0161 1.375,0 2.13159,0.0771 4.0241,0.44236 5.25,1.09375 1.20134,0.63835 4.97348,3.53142 8.40625,6.4375 l 2.9375,2.46875 2.5,2.21875 0.0937,0 0.71875,0.59375 10.375,-0.5625 c 6.45917,-0.36578 13.47925,-0.10812 18.59375,0.6875 2.93243,0.45618 4.84885,0.71739 6.21875,0.78125 l 0.0937,0 0.875,0.15625 0.21875,-0.15625 c 1.42368,-0.10902 2.19839,-0.60909 3.46875,-1.59375 13.79228,-10.69042 18.04649,-11.94909 26.4375,-7.84375 5.00973,2.45103 7.62938,5.63224 8.4375,10.46875 0.0252,0.15079 0.0408,0.31472 0.0625,0.46875 0.009,0.10623 0.024,0.20541 0.0312,0.3125 0.14736,2.1842 -0.0153,4.55398 -0.5,6.90625 -0.0549,0.19593 -0.0957,0.39384 -0.15625,0.59375 -1.30877,4.32246 -3.9141,9.47718 -6.21875,12.15625 -0.28631,0.33282 -0.56923,0.62566 -0.84375,0.875 -0.0244,0.0227 -0.0697,0.0403 -0.0937,0.0625 -0.19465,0.1708 -0.3768,0.34675 -0.5625,0.46875 -0.0291,0.0232 -0.065,0.0401 -0.0937,0.0625 -1.76101,1.13838 -2.38889,1.02683 -4.6875,-0.78125 -4.35839,-3.42831 -4.82735,-5.18706 -2.5625,-9.5625 1.24179,-2.39899 1.82339,-4.93084 1.5,-6.625 -0.39963,-2.09361 0.21331,-3.57443 2.5625,-6.25 0.76207,-0.86794 1.33957,-1.69664 1.75,-2.46875 0.52,-0.67627 0.71379,-1.1611 0.625,-1.59375 0.33362,-1.47233 -0.25576,-2.4375 -1.8125,-2.4375 -0.26104,0 -0.9366,0.41831 -1.875,1.09375 -0.0784,0.0564 -0.13668,0.0959 -0.21875,0.15625 -1.18117,0.7552 -2.87436,2.1326 -5.625,4.5 -3.90954,3.36484 -7.50467,6.89811 -8,7.84375 -0.39938,0.76245 -0.55655,1.56292 -0.4375,2.40625 -0.10179,2.35053 2.16904,4.74022 6.8125,9.46875 1.47062,1.49756 2.90466,2.98133 4.28125,4.46875 l 1.0625,0.34375 c 0.26047,0.3685 0.4981,0.7109 0.6875,1.03125 1.30369,2.205 3.9799,5.58 5.96875,7.5 3.56815,3.44463 10.5,13.83421 10.5,15.75 0,0.54222 -2.31417,1.92561 -5.125,3.09375 -4.12473,1.71415 -4.978,2.45497 -4.40625,3.875 3.19592,7.93762 4.74435,13.28653 4.21875,14.65625 -0.47086,1.22702 -1.99513,1.625 -6.15625,1.625 -4.92904,0 -5.69288,0.28921 -7.21875,2.75 -2.8406,4.58108 -6.62753,8.33701 -10.40625,10.28125 -2.79291,1.43701 -4.19971,3.23691 -6.375,8.15625 -3.89098,8.79932 -6.87728,12.43158 -12.5625,15.3125 -4.25357,2.15545 -6.20311,2.50265 -14.6875,2.46875 -10.35146,-0.0414 -14.14437,-1.09778 -19.875,-5.46875 -2.90477,-2.21558 -4.24595,-4.79079 -9.40625,-18 -0.64459,-1.65 -3.02277,-4.35 -5.28125,-6 -2.25848,-1.65 -5.27449,-5.02757 -6.71875,-7.5 -2.4553,-4.20322 -3.00325,-4.55315 -8.0625,-5.28125 -2.97597,-0.42828 -5.83111,-1.20612 -6.375,-1.75 -0.65185,-0.65186 0.27578,-3.59344 2.75,-8.59375 1.95354,-3.94802 2.9167,-6.3156 2.84375,-7.84375 0.006,-0.0705 0.007,-0.14129 0,-0.1875 -0.1667,-1.55784 -1.53058,-2.18111 -4.21875,-2.71875 -1.65065,-0.33013 -3.25324,-1.2566 -3.5625,-2.0625 -0.93263,-2.4304 4.92733,-9.77928 19.125,-23.96875 l 0.0312,-0.0312 0.96875,-0.40625 c 2.50557,-2.52218 5.0526,-5.01646 7.5,-7.34375 2.82119,-2.68275 5.125,-5.4663 5.125,-6.1875 0,-0.13624 -0.0593,-0.30708 -0.15625,-0.53125 0.005,-0.0148 0.0312,-0.0521 0.0312,-0.0625 0,-0.55064 -1.1872,-2.08735 -2.84375,-3.96875 -3.99924,-4.93943 -10.80698,-11.875 -12.21875,-11.875 -3.13045,0 -3.28681,2.89548 -0.3125,6 2.29767,2.39825 2.65834,3.43833 2.125,6.28125 -0.40492,2.15843 -0.074,4.74773 0.90625,7.09375 0.39451,0.94419 0.68102,1.70666 0.84375,2.375 0.005,0.0202 0.0267,0.0425 0.0312,0.0625 0.0112,0.0814 0.0224,0.16963 0.0312,0.25 0.0562,0.50509 0.0663,0.97181 0.0312,1.4375 -7.8e-4,0.0104 8.3e-4,0.0209 0,0.0312 -0.008,0.0415 -0.0222,0.0836 -0.0312,0.125 -0.25375,1.15155 -1.10844,2.2703 -2.75,4.09375 -2.56738,2.85187 -4.76733,2.85187 -7.375,0 -8.88077,-9.71241 -7.78764,-25.35627 2.09375,-29.84375 2.53937,-1.15322 6.08266,-1.78659 9.3125,-1.84375 z m 17.03125,33.65625 c -0.23874,-0.005 -0.48168,0.0136 -0.71875,0.0312 -1.72416,0.12928 -3.37838,0.8421 -4.84375,2.21875 -3.42073,3.21361 -3.05473,7.32027 1.0625,11.4375 3.58435,3.58435 6.43532,4.19366 11.21875,2.375 1.82761,-0.69485 3.01013,-0.77837 3.53125,-0.28125 l 0.21875,0.65625 0.0625,0 c 0.11585,1.00032 -0.63284,2.76135 -2.28125,5.25 -1.72501,2.60429 -3.129,5.6693 -3.125,6.8125 0.009,2.85587 2.84148,6.90124 7.8125,11.15625 3.29024,2.81632 4.1875,4.26276 4.1875,6.78125 0,4.55038 -2.46564,7.65625 -6.09375,7.65625 -2.46314,0 -3.47885,0.76219 -5.71875,4.46875 -3.13024,5.1799 -5.23551,5.41793 -6.75,0.75 -0.57871,-1.78371 -2.71621,-4.94847 -4.75,-7.03125 -5.07448,-5.19675 -4.83321,-9.08323 1,-15.34375 3.11765,-3.34603 2.70433,-5.66603 -1.59375,-8.5625 -3.82811,-2.57977 -9.74165,-3.02301 -12.59375,-0.9375 -2.64491,1.93401 -1.36913,4.08482 3.25,5.46875 5.9559,1.78443 6.90441,3.37861 4.75,8.15625 -2.37611,5.26925 -1.45457,9.26318 3.34375,14.46875 3.46369,3.75765 3.90559,4.90047 4.53125,11.25 1.08131,10.97351 4.42454,13.44097 8,5.90625 0.65713,-1.3848 1.41939,-2.5569 2,-3.15625 0.25181,-0.16623 0.50009,-0.28813 0.75,-0.375 0.58091,0.23183 1.79637,1.85198 2.8125,3.84375 1.09647,2.14927 2.46983,4.06177 3.03125,4.25 0.56142,0.18784 3.27386,0.19297 6.0625,0 0.52267,-0.0362 0.97921,-0.085 1.40625,-0.125 0.0471,-0.004 0.1102,0.005 0.15625,0 0.88337,-0.0459 1.56837,-0.12728 2.09375,-0.34375 1.52111,-0.43491 2.11079,-1.28548 3.0625,-3.28125 2.12122,-4.44825 3.75425,-4.29832 6.25,0.59375 3.5273,6.91408 5.82611,5.15939 7.90625,-6 1.09648,-5.88236 1.6908,-6.94406 6.28125,-11.21875 l 5.09375,-4.75 -0.6875,-6.625 c -0.48718,-4.75518 -0.37038,-7.1141 1,-8.4375 0.10937,-0.10562 0.21787,-0.188 0.34375,-0.28125 0.0187,-0.0121 0.0437,-0.0193 0.0625,-0.0312 0.0127,-0.009 0.0184,-0.0223 0.0312,-0.0312 0.2085,-0.13355 0.43881,-0.27863 0.65625,-0.40625 0.74483,-0.35568 1.68466,-0.58919 2.875,-0.8125 6.80468,-1.27657 6.6969,-5.71434 -0.15625,-7 -4.39279,-0.82409 -12.40625,2.8577 -12.40625,5.6875 0,1.05569 1.35,3.78474 3,6.0625 4.13959,5.71453 3.89307,8.30882 -1.25,13.15625 -2.3375,2.20314 -4.95448,5.37049 -5.78125,7.0625 -2.22335,4.55017 -4.13704,4.3066 -6.875,-0.875 -1.87176,-3.5423 -2.92219,-4.5 -4.90625,-4.5 -2.43675,0 -4.2186,-1.12643 -5.25,-2.78125 -0.0279,-0.0448 -0.067,-0.0794 -0.0937,-0.125 -1.66253,-2.8281 -1.13872,-7.11014 2.28125,-9.96875 7.16294,-5.9872 10.875,-10.29033 10.875,-12.65625 0,-1.33712 -0.98376,-4.45985 -2.1875,-6.9375 -1.20373,-2.47765 -1.86482,-4.82268 -1.46875,-5.21875 0.39606,-0.39607 2.49,-0.23445 4.65625,0.34375 2.10616,0.56217 3.45262,0.68944 5.03125,0.3125 0.87578,-0.1153 1.83766,-0.45695 2.78125,-1 0.0194,-0.0112 0.0431,-0.0199 0.0625,-0.0312 2.17204,-0.97245 4.46642,-2.73408 5.09375,-3.90625 1.83778,-3.43393 0.85678,-8.08102 -2.1875,-10.34375 -2.25136,-1.67338 -3.0719,-1.84678 -6.0625,-1 -1.0482,0.18788 -1.90397,0.48157 -3.5,1.4375 -1.59603,0.95594 -3.16027,2.57749 -5.25,5.40625 -0.006,0.007 0.006,0.0245 0,0.0312 -0.15868,0.21452 -0.33946,0.38548 -0.5,0.59375 -0.58545,0.69567 -1.18295,1.41338 -1.875,2.25 -0.13879,0.16779 -0.28751,0.31402 -0.4375,0.46875 -1.00457,1.03632 -2.25426,1.78207 -3.625,2.25 -4.97376,1.69791 -11.57211,-0.23228 -14.15625,-5.09375 -1.89771,-3.57011 -4.17724,-5.72548 -6.0625,-7.21875 -1.687,-1.14827 -3.57873,-1.86943 -5.4375,-1.90625 z m 14.8125,16.34375 3.90625,0.25 c 0.7871,-0.0916 1.61412,-0.15866 2.46875,-0.15625 1.05951,0.003 2.12698,0.0885 3.09375,0.25 l 1.96875,0.0312 c 3.66786,3.99644 6.56046,11.26428 6.25,12.4375 l -11.53125,0.21875 c -5.6375,-0.36801 -12.8759,-1.13498 -13.28125,-1.5 -1.00519,-0.90517 4.49857,-9.81361 7.125,-11.53125 z"
       id="path3018"
       inkscape:connector-curvature="0"
       sodipodi:nodetypes="cssssssccsscscscccccsscscssccscsccsssccsccccsccscccccccccccccccsccccccccccccccccccccccccccccccssccccccscccccccccssssscssccsccscssccscsscscssssssssscssssssssccscssscsccccsccccccccsssccsssccssscccccssscsscccssssccccccsscsssssscssscccssscccsccsccccccsccccsscccccsccccssssccsccsscsccssssscssssssssssscsccsscccsscscssssccccccssscccscscccscssssssssssssssccscccccssscccsccccssssssssccssssscccsscsccccsssccccccsccscccccs" />
  </g>
</svg>
