<?xml version="1.0" encoding="UTF-8" standalone="no"?>
<!-- Created with Inkscape (http://www.inkscape.org/) -->

<svg
   xmlns:dc="http://purl.org/dc/elements/1.1/"
   xmlns:cc="http://creativecommons.org/ns#"
   xmlns:rdf="http://www.w3.org/1999/02/22-rdf-syntax-ns#"
   xmlns:svg="http://www.w3.org/2000/svg"
   xmlns="http://www.w3.org/2000/svg"
   xmlns:sodipodi="http://sodipodi.sourceforge.net/DTD/sodipodi-0.dtd"
   xmlns:inkscape="http://www.inkscape.org/namespaces/inkscape"
   width="337.25491"
   height="337.25491"
   id="svg3812"
   version="1.1"
   inkscape:version="0.48.2 r9819"
   sodipodi:docname="New document 5">
  <defs
     id="defs3814" />
  <sodipodi:namedview
     id="base"
     pagecolor="#ffffff"
     bordercolor="#666666"
     borderopacity="1.0"
     inkscape:pageopacity="0.0"
     inkscape:pageshadow="2"
     inkscape:zoom="0.55048947"
     inkscape:cx="191.24809"
     inkscape:cy="73.742048"
     inkscape:document-units="px"
     inkscape:current-layer="layer1"
     showgrid="false"
     fit-margin-top="0"
     fit-margin-left="0"
     fit-margin-right="0"
     fit-margin-bottom="0"
     inkscape:window-width="1280"
     inkscape:window-height="968"
     inkscape:window-x="-4"
     inkscape:window-y="-4"
     inkscape:window-maximized="1" />
  <metadata
     id="metadata3817">
    <rdf:RDF>
      <cc:Work
         rdf:about="">
        <dc:format>image/svg+xml</dc:format>
        <dc:type
           rdf:resource="http://purl.org/dc/dcmitype/StillImage" />
        <dc:title></dc:title>
      </cc:Work>
    </rdf:RDF>
  </metadata>
  <g
     inkscape:label="Layer 1"
     inkscape:groupmode="layer"
     id="layer1"
     transform="translate(-232.35292,-388.63667)">
    <path
       sodipodi:type="arc"
       style="fill:#1b2a34;fill-opacity:1;stroke:none"
       id="path4374"
       sodipodi:cx="408.82352"
       sodipodi:cy="551.38177"
       sodipodi:rx="171.56863"
       sodipodi:ry="171.56863"
       d="m 580.39215,551.38177 c 0,94.75475 -76.81389,171.56864 -171.56863,171.56864 -94.75474,0 -171.56864,-76.81389 -171.56864,-171.56864 0,-94.75474 76.8139,-171.56863 171.56864,-171.56863 87.13867,0 160.43736,65.31988 170.43554,151.88306"
       sodipodi:start="0"
       sodipodi:end="6.1681933"
       sodipodi:open="true"
       transform="matrix(0.98285714,0,0,0.98285714,-0.83473465,15.334612)" />
    <path
       style="fill:#f2f3f2;stroke:#000000;stroke-width:1px;stroke-linecap:butt;stroke-linejoin:miter;stroke-opacity:1"
       d="m 333.61162,491.92905 -64.75,127.84375 88.6875,0 3.40625,-5.8125 3.21875,5.8125 8.25,0 52.4375,0 8.25,0 3.21875,-5.8125 3.40625,5.8125 88.6875,0 -64.75,-127.84375 -53.375,0 -7,0 -4.5625,7.96875 -4.53125,-7.96875 -7.21875,0 -53.375,0 z"
       id="path3831"
       inkscape:connector-curvature="0" />
    <path
       sodipodi:nodetypes="cccccccccccccc"
       inkscape:connector-curvature="0"
       style="fill:#ee1413;fill-opacity:1;stroke:#000000;stroke-width:0.86183727px;stroke-linecap:butt;stroke-linejoin:miter;stroke-opacity:1"
       d="m 342.5965,503.35981 -55.804,104.98222 64.00842,0 10.67066,-20.57445 10.86452,20.57445 c 18.67109,0 56.01326,0 56.01326,0 l 8.74412,-21.00089 10.29593,21.00089 63.10383,0 -55.804,-104.98222 -46.00058,0 -9.75178,20.72705 -10.3398,-20.72705 z"
       id="path3851" />
    <path
       style="font-size:medium;font-style:normal;font-variant:normal;font-weight:normal;font-stretch:normal;text-indent:0;text-align:start;text-decoration:none;line-height:normal;letter-spacing:normal;word-spacing:normal;text-transform:none;direction:ltr;block-progression:tb;writing-mode:lr-tb;text-anchor:start;baseline-shift:baseline;color:#000000;fill:#1b2a34;fill-opacity:1;stroke:none;stroke-width:9.96199989;marker:none;visibility:visible;display:inline;overflow:visible;enable-background:accumulate;font-family:Sans;-inkscape-font-specification:Sans"
       d="m 342.596,503.35092 -55.8125,105 64.03125,0 10.65625,-20.59375 10.875,20.59375 56,0 8.75,-21.03125 10.28125,21.03125 63.125,0 -55.8125,-105 -46,0 -9.75,20.71875 -10.34375,-20.71875 -46,0 z m 3,4.96875 39.9375,0 8.96875,17.96875 4.59375,9.21875 4.375,-9.3125 8.40625,-17.875 39.84375,0 50.5,95.03125 -51.71875,0 -8.90625,-18.21875 -4.84375,-9.875 -4.25,10.15625 -7.46875,17.9375 -49.6875,0 -9.46875,-17.90625 -4.4375,-8.4375 -4.375,8.46875 -9.25,17.875 -52.71875,0 50.5,-95.03125 z"
       id="path3847"
       inkscape:connector-curvature="0" />
    <path
       style="fill:none;stroke:#1b2a34;stroke-width:8.2741642;stroke-linecap:butt;stroke-linejoin:miter;stroke-miterlimit:4;stroke-opacity:1;stroke-dasharray:none"
       d="m 299.6732,590.13062 198.21796,0"
       id="path4368"
       inkscape:connector-curvature="0" />
    <path
       inkscape:connector-curvature="0"
       id="path4370"
       d="m 326.65733,539.7338 143.65079,0"
       style="fill:none;stroke:#1b2a34;stroke-width:5.10000038;stroke-linecap:butt;stroke-linejoin:miter;stroke-miterlimit:4;stroke-opacity:1;stroke-dasharray:none" />
    <path
       inkscape:connector-curvature="0"
       id="path4372"
       d="m 309.59384,569.89252 177.58018,0"
       style="fill:none;stroke:#1b2a34;stroke-width:6.38183451;stroke-linecap:butt;stroke-linejoin:miter;stroke-miterlimit:4;stroke-opacity:1;stroke-dasharray:none" />
  </g>
</svg>
