<?xml version="1.0" encoding="utf-8"?>
<!-- Generator: Adobe Illustrator 15.1.0, SVG Export Plug-In . SVG Version: 6.00 Build 0)  -->
<!DOCTYPE svg PUBLIC "-//W3C//DTD SVG 1.1//EN" "http://www.w3.org/Graphics/SVG/1.1/DTD/svg11.dtd">
<svg version="1.1" xmlns="http://www.w3.org/2000/svg" xmlns:xlink="http://www.w3.org/1999/xlink" x="0px" y="0px"
	 width="53.858px" height="45.354px" viewBox="0 0 53.858 45.354" enable-background="new 0 0 53.858 45.354" xml:space="preserve">
<g id="torso">
	<path id="base"  fill="#ED1C24" stroke="#231F20" stroke-width="0.3125" d="M0.943,44.131
		C9.675-3.163,6.286,1.452,15.21,1.275h23.44c8.926,0.177,5.535-4.438,14.265,42.856H0.943z"/>
</g>
<g id="design">
	<defs>
		<path id="SVGID_1_" d="M1.351,43.792c1.942-10.538,3.294-18.564,4.285-24.444C8.405,2.906,8.631,1.563,11.979,1.563
			c0.332,0,0.691,0.012,1.084,0.025c0.48,0.016,1.01,0.033,1.597,0.033c0.181,0,0.365-0.002,0.557-0.005H38.65
			c0.184,0.003,0.371,0.005,0.551,0.005c0.586,0,1.115-0.018,1.596-0.033c0.395-0.013,0.754-0.025,1.086-0.025
			c3.348,0,3.574,1.342,6.34,17.771c0.99,5.883,2.342,13.913,4.285,24.458H1.351z"/>
	</defs>
	<clipPath id="SVGID_2_">
		<use xlink:href="#SVGID_1_"  overflow="visible"/>
	</clipPath>
	<g id="pocket" clip-path="url(#SVGID_2_)">
		<path fill="none" stroke="#000000" stroke-width="0.8504" stroke-linejoin="round" stroke-miterlimit="10" d="M40.881,40.089
			c0,0-9.923,1.342-13.33,1.408c-3.62,0.071-14.401-1.129-14.401-1.129l-0.242-4.461c0,0,2.55-1.599,4.078-4.127
			c1.414-2.337,2.333-5.768,2.333-5.768s2.98,0.431,7.852,0.448c5.406,0.02,8.704-0.748,8.704-0.748s-0.12,2.641,0.771,5.138
			c1.104,3.093,4.503,4.929,4.503,4.929L40.881,40.089z"/>
		<g>
			<g>
				<path fill="none" stroke="#000000" stroke-width="0.4252" stroke-linejoin="round" d="M21.27,26.478c0,0-0.922,4.509-1.76,6.125
					c-0.797,1.534-3.025,3.965-6.4,5.314"/>
				<path fill="none" stroke="#000000" stroke-width="0.4252" stroke-linejoin="round" d="M34.155,26.328
					c0,0-0.864,3.675,0.976,6.675c1.691,2.76,4.945,4.745,5.845,4.97"/>
			</g>
		</g>
	</g>
	<g id="wrinkles" clip-path="url(#SVGID_2_)">
		<g>
			<path d="M22.076,37.301c0.627,0.197,1.182,0.471,1.777,0.605c0.588,0.155,1.187,0.237,1.796,0.318
				c0.549,0.059,1.207-0.057,1.825-0.129c0.63-0.078,1.257-0.179,1.901-0.232c1.291,0.032,2.548-0.04,3.795-0.201
				c0.308-0.042,0.618-0.069,0.866-0.165c0.276-0.107,0.565-0.242,0.861-0.338c0.602-0.183,1.218-0.339,1.889-0.37l0.027,0.066
				c-1.019,0.853-2.198,1.385-3.608,1.379c-1.284-0.004-2.566-0.195-3.809-0.141c-1.258,0.155-2.4,0.662-3.791,0.725
				c-0.654-0.01-1.314-0.145-1.929-0.395c-0.619-0.252-1.153-0.647-1.635-1.061L22.076,37.301z"/>
		</g>
		<g>
			<path d="M34.207,39.583c-0.58,0.151-1.179,0.203-1.771,0.202c-0.594,0.007-1.183-0.044-1.771-0.13l-0.017-0.003l-0.024-0.007
				c-0.489-0.203-0.974-0.42-1.439-0.692c0.534,0.074,1.05,0.204,1.56,0.346l-0.039-0.009c0.58,0.034,1.165,0.064,1.746,0.118
				C33.034,39.45,33.613,39.513,34.207,39.583z"/>
		</g>
	</g>
	<polygon id="shirt" clip-path="url(#SVGID_2_)" fill="#C4D82E" points="27.629,16.622 26.239,15.069 24.081,13.098 23.408,11.346 
		22.846,9.365 18.172,4.964 16.981,1.036 38.482,1.036 37.863,3.968 31.193,10.764 29.345,13.036 	"/>
	
		<path id="shirt_collar" clip-path="url(#SVGID_2_)" fill="none" stroke="#000000" stroke-width="0.5669" stroke-miterlimit="10" d="
		M36.708,0.94c0,2.01-4.106,3.298-9.17,3.298S18.37,2.95,18.37,0.94"/>
	
		<path id="hoodie_v-neck" clip-path="url(#SVGID_2_)" fill="none" stroke="#000000" stroke-width="0.7087" stroke-linejoin="round" stroke-miterlimit="10" d="
		M23.223,11.485c1.274,3.239,2.673,1.413,4.065,5.783c1.595-4.841,3.351-6.261,3.351-6.261"/>
	<g id="hood_inside_1_" clip-path="url(#SVGID_2_)">
		
			<path fill="#EFF0ED" stroke="#000000" stroke-width="0.4252" stroke-linecap="round" stroke-linejoin="round" stroke-miterlimit="10" d="
			M38.123,1.036c-0.273,0.858-0.832,2.176-1.242,2.756c-0.616,0.872-2.184,1.877-3.215,2.809c-1.824,1.649-3.908,5.383-3.575,5.348
			c1.061-2.13,4.017-2.957,7.724-6.151c0.976-1.053,3.411-4.763,3.411-4.763"/>
		
			<path fill="#EFF0ED" stroke="#000000" stroke-width="0.4252" stroke-linecap="round" stroke-linejoin="round" stroke-miterlimit="10" d="
			M14.007,1.036c0,0,0.413,2.346,2.095,4.5c3.693,3.471,6.537,4.86,7.296,6.224c0.009,0.001,0.093-1.682-1.571-3.186
			c-1.03-0.93-2.584-2.177-3.118-3.062c-0.587-0.97-1.64-3.344-2.067-4.477"/>
	</g>
	
		<path id="hood_outside_1_" clip-path="url(#SVGID_2_)" fill="none" stroke="#000000" stroke-width="0.5669" stroke-linecap="round" stroke-linejoin="round" stroke-miterlimit="10" d="
		M13.969,0.87c0.305,1.566,1.025,3.782,2.7,5.288c3.527,3.172,8.188,5.472,6.579,7.06c-0.462,0.455-2.156,0.327-2.746-1.095
		c-0.395-0.95-0.954-1.6-2.928-2.892c-1.917-1.254-2.664-2.054-3.458-2.843c-1.096-1.089-3.083-3.471-4.437-5.153 M41.25,0.7
		c-0.807,1.566-2.193,3.938-3.86,5.437c-3.524,3.172-8.634,5.081-6.916,6.55c1.155,0.985,2.158-0.038,2.563-0.552
		c1.088-1.381,2.691-2.895,3.79-3.604c0.855-0.552,2.081-1.112,3.284-2.164c0.853-0.746,3.487-2.96,4.818-4.764"/>
	<g id="cord_holes" clip-path="url(#SVGID_2_)">
		<path d="M22.228,12.64c-0.069,0-0.14-0.009-0.208-0.027c-0.198-0.052-0.364-0.17-0.454-0.325
			c-0.044-0.075-0.089-0.192-0.054-0.324c0.054-0.209,0.277-0.349,0.554-0.349c0.069,0,0.139,0.009,0.207,0.027
			c0.349,0.092,0.576,0.383,0.506,0.65C22.724,12.5,22.503,12.64,22.228,12.64L22.228,12.64z M31.496,12.41
			c-0.181-0.019-0.345-0.093-0.459-0.208c-0.104-0.104-0.154-0.23-0.141-0.354c0.023-0.244,0.293-0.434,0.612-0.434
			c0.293,0.025,0.476,0.116,0.588,0.254c0.055,0.067,0.116,0.175,0.102,0.311c-0.023,0.249-0.288,0.435-0.615,0.435L31.496,12.41z"
			/>
		<path d="M31.508,11.626L31.508,11.626c0.021,0,0.044,0.001,0.067,0.003c0.146,0.015,0.28,0.08,0.356,0.173
			c0.028,0.036,0.062,0.091,0.055,0.158c-0.014,0.133-0.194,0.242-0.404,0.242c-0.021,0-0.043-0.001-0.064-0.003
			c-0.131-0.014-0.252-0.067-0.331-0.147c-0.033-0.034-0.089-0.102-0.08-0.185C31.121,11.734,31.3,11.626,31.508,11.626
			 M22.064,11.828c0.051,0,0.103,0.007,0.152,0.02c0.245,0.064,0.39,0.26,0.355,0.393c-0.028,0.108-0.173,0.187-0.344,0.187
			c-0.051,0-0.104-0.007-0.155-0.021c-0.142-0.037-0.263-0.121-0.325-0.226c-0.023-0.04-0.048-0.101-0.031-0.163
			C21.745,11.908,21.892,11.828,22.064,11.828 M31.508,11.201c-0.429,0-0.789,0.265-0.824,0.625
			c-0.041,0.392,0.315,0.747,0.79,0.796c0.037,0.004,0.073,0.005,0.108,0.005c0.432,0,0.792-0.264,0.827-0.625
			c0.041-0.392-0.314-0.747-0.792-0.794C31.581,11.203,31.544,11.201,31.508,11.201L31.508,11.201z M22.064,11.403
			c-0.363,0-0.679,0.197-0.759,0.507c-0.1,0.379,0.197,0.788,0.66,0.908c0.088,0.023,0.177,0.034,0.262,0.034
			c0.363,0,0.676-0.197,0.756-0.506c0.1-0.38-0.196-0.788-0.659-0.91C22.237,11.414,22.149,11.403,22.064,11.403L22.064,11.403z"/>
	</g>
	<g id="cords" clip-path="url(#SVGID_2_)">
		<g id="cord_left">
			<path fill="#EFF0ED" d="M21.072,23.663c-0.066-0.014-0.113-0.073-0.112-0.141c0.001-0.069,0.026-1.7,0.063-1.95
				c0.127-0.858,0.23-1.701,0.096-2.573c-0.048-0.313-0.197-0.768-0.354-1.25c-0.272-0.83-0.549-1.675-0.508-2.299
				c0.066-0.961,1.316-3.174,1.459-3.423c0.084-0.15,0.245-0.243,0.418-0.243c0.083,0,0.166,0.022,0.239,0.064
				c0.111,0.063,0.192,0.166,0.226,0.29c0.034,0.125,0.018,0.255-0.046,0.367c-0.496,0.869-1.296,2.455-1.333,3.01
				c-0.029,0.438,0.229,1.226,0.457,1.922c0.189,0.571,0.338,1.037,0.396,1.416c0.154,1.002,0.046,1.902-0.089,2.813
				c-0.04,0.271-0.679,1.748-0.752,1.915c-0.023,0.052-0.074,0.085-0.13,0.085C21.092,23.666,21.082,23.665,21.072,23.663z"/>
			<path d="M22.135,11.926c0.057,0,0.115,0.014,0.169,0.045c0.163,0.092,0.22,0.3,0.126,0.464c-0.361,0.633-1.308,2.417-1.352,3.07
				c-0.031,0.465,0.232,1.268,0.464,1.977c0.171,0.518,0.332,1.01,0.39,1.392c0.149,0.966,0.048,1.845-0.089,2.771
				c-0.039,0.261-0.742,1.879-0.742,1.879s0.026-1.688,0.062-1.931c0.129-0.87,0.232-1.732,0.096-2.616
				c-0.05-0.327-0.203-0.792-0.363-1.284c-0.264-0.804-0.537-1.636-0.497-2.234c0.063-0.926,1.3-3.116,1.44-3.362
				C21.902,11.988,22.017,11.926,22.135,11.926 M22.135,11.643L22.135,11.643c-0.224,0-0.432,0.121-0.542,0.315
				c-0.234,0.41-1.41,2.511-1.477,3.482c-0.043,0.653,0.238,1.511,0.51,2.34c0.16,0.49,0.307,0.939,0.353,1.24
				c0.131,0.853,0.029,1.684-0.096,2.531c-0.037,0.25-0.061,1.684-0.065,1.968c-0.002,0.135,0.091,0.253,0.223,0.281
				c0.021,0.005,0.041,0.007,0.06,0.007c0.111,0,0.214-0.065,0.26-0.171c0.168-0.388,0.722-1.674,0.762-1.951
				c0.137-0.922,0.246-1.833,0.089-2.855c-0.06-0.389-0.21-0.861-0.401-1.438c-0.212-0.65-0.477-1.459-0.45-1.87
				c0.034-0.502,0.79-2.027,1.315-2.948c0.083-0.146,0.104-0.314,0.06-0.475c-0.044-0.161-0.148-0.294-0.293-0.376
				C22.35,11.671,22.243,11.643,22.135,11.643L22.135,11.643z"/>
		</g>
		<g id="cord_right">
			<path fill="#EFF0ED" d="M32.164,23.099c-0.056,0-0.107-0.033-0.13-0.085c-0.09-0.207-0.538-1.252-0.56-1.52
				c-0.08-1.004-0.074-2.46,0.014-3.462c0.032-0.361,0.116-0.821,0.223-1.384c0.173-0.92,0.365-1.95,0.274-2.514
				c-0.054-0.32-0.572-1.292-0.923-1.878c-0.065-0.111-0.085-0.24-0.054-0.365c0.031-0.125,0.109-0.229,0.221-0.295
				c0.074-0.045,0.16-0.069,0.247-0.069c0.17,0,0.324,0.088,0.413,0.235c0.157,0.263,0.945,1.603,1.045,2.218
				c0.122,0.735-0.09,1.857-0.276,2.848c-0.093,0.493-0.181,0.958-0.209,1.289c-0.085,0.951-0.09,2.331-0.013,3.282
				c0.021,0.291-0.116,1.446-0.132,1.577c-0.008,0.063-0.057,0.114-0.12,0.123C32.177,23.099,32.17,23.099,32.164,23.099z"/>
			<path d="M31.476,11.667c0.115,0,0.228,0.06,0.292,0.167c0.094,0.157,0.928,1.561,1.026,2.168c0.117,0.709-0.092,1.82-0.276,2.798
				c-0.094,0.498-0.182,0.968-0.211,1.303c-0.083,0.936-0.092,2.329-0.013,3.306c0.021,0.285-0.131,1.548-0.131,1.548
				s-0.527-1.217-0.548-1.475c-0.079-0.984-0.075-2.435,0.014-3.438c0.032-0.369,0.123-0.855,0.221-1.37
				c0.173-0.923,0.37-1.972,0.274-2.563c-0.061-0.362-0.609-1.375-0.94-1.929c-0.097-0.162-0.044-0.37,0.117-0.466
				C31.356,11.683,31.417,11.667,31.476,11.667 M31.476,11.384c-0.113,0-0.225,0.032-0.322,0.091
				c-0.141,0.084-0.242,0.22-0.282,0.381c-0.041,0.162-0.017,0.33,0.069,0.473c0.399,0.668,0.858,1.559,0.904,1.83
				c0.087,0.538-0.104,1.555-0.271,2.452c-0.109,0.579-0.194,1.042-0.227,1.41c-0.09,1.008-0.096,2.474-0.014,3.485
				c0.021,0.275,0.406,1.186,0.57,1.565c0.045,0.104,0.148,0.171,0.26,0.171c0.014,0,0.027-0.001,0.041-0.003
				c0.127-0.018,0.225-0.119,0.24-0.247c0.026-0.215,0.154-1.306,0.132-1.604c-0.076-0.945-0.071-2.315,0.013-3.259
				c0.028-0.327,0.119-0.809,0.207-1.276c0.189-1.001,0.403-2.137,0.277-2.897c-0.102-0.625-0.839-1.893-1.063-2.267
				C31.898,11.5,31.693,11.384,31.476,11.384L31.476,11.384z"/>
		</g>
		<polygon fill="#A2A1A3" stroke="#000000" stroke-width="0.2835" stroke-linejoin="round" stroke-miterlimit="10" points="
			21.466,24.427 20.565,24.247 20.798,22.538 21.869,22.718 		"/>
		<polygon fill="#A2A1A3" stroke="#000000" stroke-width="0.2835" stroke-linejoin="round" stroke-miterlimit="10" points="
			32.577,24.089 31.66,24.144 31.447,22.435 32.531,22.336 		"/>
	</g>
</g>
</svg>
