<?xml version="1.0" encoding="UTF-8" standalone="no"?>
<!-- Created with Inkscape (http://www.inkscape.org/) -->

<svg
   xmlns:dc="http://purl.org/dc/elements/1.1/"
   xmlns:cc="http://creativecommons.org/ns#"
   xmlns:rdf="http://www.w3.org/1999/02/22-rdf-syntax-ns#"
   xmlns:svg="http://www.w3.org/2000/svg"
   xmlns="http://www.w3.org/2000/svg"
   xmlns:xlink="http://www.w3.org/1999/xlink"
   xmlns:sodipodi="http://sodipodi.sourceforge.net/DTD/sodipodi-0.dtd"
   xmlns:inkscape="http://www.inkscape.org/namespaces/inkscape"
   width="52.375"
   height="43.213669"
   id="svg2"
   version="1.1"
   inkscape:version="0.48.2 r9819"
   sodipodi:docname="torso_blank.svg">
  <defs
     id="defs4">
    <linearGradient
       inkscape:collect="always"
       id="linearGradient4011">
      <stop
         style="stop-color:#ffffff;stop-opacity:1;"
         offset="0"
         id="stop4013" />
      <stop
         style="stop-color:#ffffff;stop-opacity:0;"
         offset="1"
         id="stop4015" />
    </linearGradient>
    <linearGradient
       inkscape:collect="always"
       id="linearGradient3997">
      <stop
         style="stop-color:#ffffff;stop-opacity:1;"
         offset="0"
         id="stop3999" />
      <stop
         style="stop-color:#ffffff;stop-opacity:0;"
         offset="1"
         id="stop4001" />
    </linearGradient>
    <inkscape:path-effect
       effect="skeletal"
       id="path-effect4237"
       is_visible="true"
       pattern="M 0,5 C 0,2.24 2.24,0 5,0 7.76,0 10,2.24 10,5 10,7.76 7.76,10 5,10 2.24,10 0,7.76 0,5 z"
       copytype="single_stretched"
       prop_scale="1"
       scale_y_rel="false"
       spacing="0"
       normal_offset="0"
       tang_offset="0"
       prop_units="false"
       vertical_pattern="false"
       fuse_tolerance="0" />
    <clipPath
       id="clipPath2999"
       clipPathUnits="userSpaceOnUse">
      <path
         id="path3001"
         d="M 0,792 612,792 612,0 0,0 0,792 z"
         inkscape:connector-curvature="0" />
    </clipPath>
    <radialGradient
       gradientUnits="userSpaceOnUse"
       gradientTransform="matrix(0.75988491,-0.03632001,0.13155835,2.7524547,16.986326,-78.268899)"
       r="12.650181"
       fy="46.658409"
       fx="96.306435"
       cy="46.658409"
       cx="96.306435"
       id="radialGradient3972"
       xlink:href="#linearGradient3966"
       inkscape:collect="always" />
    <clipPath
       clipPathUnits="userSpaceOnUse"
       id="clipPath2999-4">
      <path
         inkscape:connector-curvature="0"
         d="M 0,792 612,792 612,0 0,0 0,792 z"
         id="path3001-0" />
    </clipPath>
    <linearGradient
       id="linearGradient3966">
      <stop
         id="stop3968"
         offset="0"
         style="stop-color:#c0ac02;stop-opacity:1;" />
      <stop
         id="stop3970"
         offset="1"
         style="stop-color:#fdea41;stop-opacity:0;" />
    </linearGradient>
    <radialGradient
       inkscape:collect="always"
       xlink:href="#linearGradient3997"
       id="radialGradient4003"
       cx="165.81134"
       cy="47.693741"
       fx="165.81134"
       fy="47.693741"
       r="3.8123069"
       gradientTransform="matrix(0.64374811,-0.18781617,0.31213841,1.069868,43.640483,27.15595)"
       gradientUnits="userSpaceOnUse" />
    <radialGradient
       inkscape:collect="always"
       xlink:href="#linearGradient3997"
       id="radialGradient4007"
       gradientUnits="userSpaceOnUse"
       gradientTransform="matrix(-0.64374811,-0.18781617,-0.31213841,1.069868,293.73143,27.15595)"
       cx="165.81134"
       cy="47.693741"
       fx="165.81134"
       fy="47.693741"
       r="3.8123069" />
    <radialGradient
       inkscape:collect="always"
       xlink:href="#linearGradient4011"
       id="radialGradient4017"
       cx="169.32254"
       cy="41.784931"
       fx="169.32254"
       fy="41.784931"
       r="6.982676"
       gradientTransform="matrix(0.31036379,-0.01814613,0.03701409,0.63307367,114.75293,21.468668)"
       gradientUnits="userSpaceOnUse" />
    <linearGradient
       id="linearGradient3966-2">
      <stop
         style="stop-color:#c0ac02;stop-opacity:1;"
         offset="0"
         id="stop3968-4" />
      <stop
         style="stop-color:#fdea41;stop-opacity:0;"
         offset="1"
         id="stop3970-5" />
    </linearGradient>
    <clipPath
       id="clipPath2999-4-8"
       clipPathUnits="userSpaceOnUse">
      <path
         id="path3001-0-8"
         d="M 0,792 612,792 612,0 0,0 0,792 z"
         inkscape:connector-curvature="0" />
    </clipPath>
    <radialGradient
       inkscape:collect="always"
       xlink:href="#linearGradient3966-2"
       id="radialGradient3972-4"
       cx="96.306435"
       cy="46.658409"
       fx="96.306435"
       fy="46.658409"
       r="12.650181"
       gradientTransform="matrix(0.75988491,-0.03632001,0.13155835,2.7524547,16.986326,-78.268899)"
       gradientUnits="userSpaceOnUse" />
    <clipPath
       clipPathUnits="userSpaceOnUse"
       id="clipPath2999-0">
      <path
         inkscape:connector-curvature="0"
         d="M 0,792 612,792 612,0 0,0 0,792 z"
         id="path3001-9" />
    </clipPath>
    <inkscape:path-effect
       fuse_tolerance="0"
       vertical_pattern="false"
       prop_units="false"
       tang_offset="0"
       normal_offset="0"
       spacing="0"
       scale_y_rel="false"
       prop_scale="1"
       copytype="single_stretched"
       pattern="M 0,5 C 0,2.24 2.24,0 5,0 7.76,0 10,2.24 10,5 10,7.76 7.76,10 5,10 2.24,10 0,7.76 0,5 z"
       is_visible="true"
       id="path-effect4237-4"
       effect="skeletal" />
    <inkscape:path-effect
       effect="skeletal"
       id="path-effect4237-4-5"
       is_visible="true"
       pattern="M 0,5 C 0,2.24 2.24,0 5,0 7.76,0 10,2.24 10,5 10,7.76 7.76,10 5,10 2.24,10 0,7.76 0,5 z"
       copytype="single_stretched"
       prop_scale="1"
       scale_y_rel="false"
       spacing="0"
       normal_offset="0"
       tang_offset="0"
       prop_units="false"
       vertical_pattern="false"
       fuse_tolerance="0" />
    <clipPath
       id="clipPath2999-0-6"
       clipPathUnits="userSpaceOnUse">
      <path
         id="path3001-9-8"
         d="M 0,792 612,792 612,0 0,0 0,792 z"
         inkscape:connector-curvature="0" />
    </clipPath>
    <radialGradient
       gradientUnits="userSpaceOnUse"
       gradientTransform="matrix(0.75988491,-0.03632001,0.13155835,2.7524547,16.986326,-78.268899)"
       r="12.650181"
       fy="46.658409"
       fx="96.306435"
       cy="46.658409"
       cx="96.306435"
       id="radialGradient3972-4-1"
       xlink:href="#linearGradient3966-2-4"
       inkscape:collect="always" />
    <clipPath
       clipPathUnits="userSpaceOnUse"
       id="clipPath2999-4-8-2">
      <path
         inkscape:connector-curvature="0"
         d="M 0,792 612,792 612,0 0,0 0,792 z"
         id="path3001-0-8-2" />
    </clipPath>
    <linearGradient
       id="linearGradient3966-2-4">
      <stop
         id="stop3968-4-2"
         offset="0"
         style="stop-color:#c0ac02;stop-opacity:1;" />
      <stop
         id="stop3970-5-3"
         offset="1"
         style="stop-color:#fdea41;stop-opacity:0;" />
    </linearGradient>
    <radialGradient
       gradientUnits="userSpaceOnUse"
       gradientTransform="matrix(0.31036379,-0.01814613,0.03701409,0.63307367,114.75293,21.468668)"
       r="6.982676"
       fy="41.784931"
       fx="169.32254"
       cy="41.784931"
       cx="169.32254"
       id="radialGradient4017-1"
       xlink:href="#linearGradient4011-4"
       inkscape:collect="always" />
    <radialGradient
       r="3.8123069"
       fy="47.693741"
       fx="165.81134"
       cy="47.693741"
       cx="165.81134"
       gradientTransform="matrix(-0.64374811,-0.18781617,-0.31213841,1.069868,293.73143,27.15595)"
       gradientUnits="userSpaceOnUse"
       id="radialGradient4007-6"
       xlink:href="#linearGradient3997-4"
       inkscape:collect="always" />
    <radialGradient
       gradientUnits="userSpaceOnUse"
       gradientTransform="matrix(0.64374811,-0.18781617,0.31213841,1.069868,43.640483,27.15595)"
       r="3.8123069"
       fy="47.693741"
       fx="165.81134"
       cy="47.693741"
       cx="165.81134"
       id="radialGradient4003-7"
       xlink:href="#linearGradient3997-4"
       inkscape:collect="always" />
    <linearGradient
       id="linearGradient3966-1">
      <stop
         style="stop-color:#c0ac02;stop-opacity:1;"
         offset="0"
         id="stop3968-5" />
      <stop
         style="stop-color:#fdea41;stop-opacity:0;"
         offset="1"
         id="stop3970-2" />
    </linearGradient>
    <clipPath
       id="clipPath2999-4-7"
       clipPathUnits="userSpaceOnUse">
      <path
         id="path3001-0-1"
         d="M 0,792 612,792 612,0 0,0 0,792 z"
         inkscape:connector-curvature="0" />
    </clipPath>
    <radialGradient
       inkscape:collect="always"
       xlink:href="#linearGradient3966-1"
       id="radialGradient3972-1"
       cx="96.306435"
       cy="46.658409"
       fx="96.306435"
       fy="46.658409"
       r="12.650181"
       gradientTransform="matrix(0.75988491,-0.03632001,0.13155835,2.7524547,16.986326,-78.268899)"
       gradientUnits="userSpaceOnUse" />
    <clipPath
       clipPathUnits="userSpaceOnUse"
       id="clipPath2999-45">
      <path
         inkscape:connector-curvature="0"
         d="M 0,792 612,792 612,0 0,0 0,792 z"
         id="path3001-5" />
    </clipPath>
    <inkscape:path-effect
       fuse_tolerance="0"
       vertical_pattern="false"
       prop_units="false"
       tang_offset="0"
       normal_offset="0"
       spacing="0"
       scale_y_rel="false"
       prop_scale="1"
       copytype="single_stretched"
       pattern="M 0,5 C 0,2.24 2.24,0 5,0 7.76,0 10,2.24 10,5 10,7.76 7.76,10 5,10 2.24,10 0,7.76 0,5 z"
       is_visible="true"
       id="path-effect4237-2"
       effect="skeletal" />
    <linearGradient
       id="linearGradient3997-4"
       inkscape:collect="always">
      <stop
         id="stop3999-8"
         offset="0"
         style="stop-color:#ffffff;stop-opacity:1;" />
      <stop
         id="stop4001-8"
         offset="1"
         style="stop-color:#ffffff;stop-opacity:0;" />
    </linearGradient>
    <linearGradient
       id="linearGradient4011-4"
       inkscape:collect="always">
      <stop
         id="stop4013-0"
         offset="0"
         style="stop-color:#ffffff;stop-opacity:1;" />
      <stop
         id="stop4015-9"
         offset="1"
         style="stop-color:#ffffff;stop-opacity:0;" />
    </linearGradient>
  </defs>
  <sodipodi:namedview
     id="base"
     pagecolor="#ffffff"
     bordercolor="#666666"
     borderopacity="1.0"
     inkscape:pageopacity="0.0"
     inkscape:pageshadow="2"
     inkscape:zoom="6.21"
     inkscape:cx="28.654896"
     inkscape:cy="17.163978"
     inkscape:document-units="px"
     inkscape:current-layer="layer1"
     showgrid="false"
     fit-margin-top="0"
     fit-margin-left="0"
     fit-margin-right="0"
     fit-margin-bottom="0"
     inkscape:window-width="1400"
     inkscape:window-height="1024"
     inkscape:window-x="1276"
     inkscape:window-y="-4"
     inkscape:window-maximized="1"
     showguides="true"
     inkscape:guide-bbox="true"
     inkscape:snap-global="false">
    <sodipodi:guide
       orientation="1,0"
       position="26.13159,26.634501"
       id="guide3960" />
  </sodipodi:namedview>
  <metadata
     id="metadata7">
    <rdf:RDF>
      <cc:Work
         rdf:about="">
        <dc:format>image/svg+xml</dc:format>
        <dc:type
           rdf:resource="http://purl.org/dc/dcmitype/StillImage" />
        <dc:title></dc:title>
      </cc:Work>
    </rdf:RDF>
  </metadata>
  <g
     inkscape:label="template"
     inkscape:groupmode="layer"
     id="layer1"
     transform="translate(-360.9375,-409.84883)"
     style="opacity:1;display:inline">
    <path
       inkscape:connector-curvature="0"
       d="m 361.13813,452.9203 c 5.34433,-28.94397 6.14818,-38.44556 8.01326,-41.50217 -1.27954,9.9412 5.75884,8.62326 10.14674,10.62107 3.29131,1.49853 4.21829,4.26872 8.07836,3.87654 10.11999,-1.02818 19.39052,-7.34584 17.58703,-14.70754 1.96547,2.81988 2.67556,12.07063 8.14711,41.7121 z"
       style="fill:#d7c599;stroke:#231f20;stroke-width:0.31250000000000000;stroke-linecap:butt;stroke-linejoin:miter;stroke-miterlimit:4;stroke-opacity:1;stroke-dasharray:none"
       id="path4434"
       sodipodi:nodetypes="ccssccc" />
    <use
       x="0"
       y="0"
       xlink:href="#g4361"
       id="use4366"
       transform="matrix(-1,0,0,1,774.5043,0)"
       width="52.375"
       height="43.213669" />
    <path
       inkscape:connector-curvature="0"
       d="m 361.13813,452.9203 c 8.7325,-47.29375 5.3425,-42.67875 14.2675,-42.85625 l 23.44,0 c 8.92625,0.1775 5.535,-4.4375 14.265,42.85625 l -51.9725,0 z"
       style="fill:none;stroke:#231f20;stroke-width:0.31250000000000000;stroke-linecap:butt;stroke-linejoin:miter;stroke-miterlimit:4;stroke-opacity:1;stroke-dasharray:none"
       id="path3093" />
    <path
       id="path4124"
       style="fill:none;stroke:#231f20;stroke-width:0.31250000000000000;stroke-linecap:butt;stroke-linejoin:miter;stroke-miterlimit:4;stroke-opacity:1;stroke-dasharray:none"
       d="m 361.13813,452.9203 c 8.7325,-47.29375 5.3425,-42.67875 14.2675,-42.85625 l 23.44,0 c 8.92625,0.1775 5.535,-4.4375 14.265,42.85625 l -51.9725,0 z"
       inkscape:connector-curvature="0" />
    <g
       id="g4361">
      <path
         sodipodi:nodetypes="scsssccsscccsscssss"
         inkscape:connector-curvature="0"
         id="path4347"
         transform="translate(360.9375,409.84883)"
         d="m 17.994431,6.9201715 c -0.218088,0.00268 -0.36492,-0.1617563 -0.536818,-0.00619 0.0944,-0.5873721 -1.181563,-0.3744717 -2.495,-0.6202819 C 14.120834,6.1361593 13.324774,5.8280388 12.402823,5.7873654 11.514434,5.7481727 10.71048,6.0353816 10.021544,5.9191953 9.1285858,5.7686016 8.4288568,5.229204 7.9889551,5.4118147 c -0.6269574,2.5945669 -0.231004,4.2760769 0.056301,6.4499173 0.1261205,0.235658 0.5605802,0.687797 0.96875,1.03125 0.702658,0.591248 1.4834979,0.862473 3.1095209,0.744102 0.944547,-0.06876 2.184931,-0.567287 2.75,-0.774615 l 0.726121,-0.405513 1.622788,1.351858 c 1.787042,1.931369 3.546346,4.585311 4.721698,6.938237 1.144405,2.290975 2.743714,7.210505 3.375,10.375 0.292053,1.463996 0.956518,4.487935 0.990418,4.455035 0.241021,-0.233927 1.065275,-10.585332 1.087115,-14.264586 0.0264,-4.446528 0.14931,-4.513816 -0.3656,-4.875 C 26.13783,15.810934 24.940344,14.425681 22.749263,11.357018 20.349141,7.9955862 18.939477,6.9085574 17.994431,6.9201715 z"
         style="fill:#f2f3f2;fill-opacity:1;stroke:#1b2a34;stroke-width:0.14269407000000001;stroke-linecap:round;stroke-linejoin:round;stroke-miterlimit:4;stroke-opacity:1;stroke-dasharray:none" />
      <path
         transform="translate(360.9375,409.84883)"
         sodipodi:nodetypes="ccc"
         inkscape:connector-curvature="0"
         id="path4302"
         d="M 8.4464555,1.0568061 C 7.1214502,7.2829131 5.4217788,16.494594 15.61086,12.746097 c 8.208342,7.654367 9.47107,17.799906 10.935143,27.526395"
         style="fill:none;stroke:#000000;stroke-width:1px;stroke-linecap:butt;stroke-linejoin:miter;stroke-opacity:1" />
      <path
         transform="translate(360.9375,409.84883)"
         id="path4304"
         d="m 8.28125,4.875 -0.125,0.59375 C 8.8354873,5.610218 9.2059607,5.927221 9.59375,6.28125 9.3777603,6.5190727 9.1796624,6.784609 9,7.125 9.3141767,6.8819695 9.5954683,6.6993982 9.875,6.53125 c 0.702843,-0.4227852 1.312965,-0.6226095 1.9375,-0.625 0.806327,-0.00309 1.668563,0.3397769 2.5625,0.875 C 14.28102,7.0252085 14.28922,7.2897114 14.5625,7.5625 14.8689,7.2834284 14.92475,7.1104233 15,6.96875 c 0.07525,-0.1416733 0.158963,-0.2421974 0.34375,-0.3125 0.27718,-0.105454 0.762847,-0.1128537 1.46875,0.03125 -0.235755,0.2133397 -0.431442,0.504361 -0.59375,0.875 -0.245383,0.5603467 -0.429454,1.3756938 -0.5625,2.34375 -0.590766,0.297161 -1.086331,0.361286 -1.625,0.25 C 13.490637,10.044562 12.913322,9.8097563 12.3125,9.625 12.612546,9.2336673 12.788036,8.8084996 12.875,8.375 12.199858,8.8672637 11.536141,9.685185 10.75,10.09375 9.9638593,10.502315 9.1271849,10.556151 8.0625,9.625 L 7.625,10.09375 c 1.2128261,1.060712 2.479571,1.060345 3.4375,0.5625 0.439051,-0.228179 0.821674,-0.547168 1.125,-0.90625 l -0.438123,0.352103 c 0.578589,0.171376 1.494663,0.511088 2.156873,0.647897 0.66221,0.136809 1.387502,0.142795 2.15625,-0.28125 l 0.15625,-0.09375 0,-0.15625 C 16.349952,9.1296329 16.550484,8.3394668 16.78125,7.8125 17.012016,7.2855332 17.263959,7.0640745 17.5,7 c 0.709317,-0.192548 1.404925,0.1047694 2.1875,0.8125 0.782575,0.7077306 1.594065,1.7939343 2.40625,2.96875 1.575752,2.279306 3.144129,4.863782 4.96875,5.9375 0.658749,6.496589 -0.521959,13.044459 -0.90625,19.625 l 0.625,0.03125 c 0.383113,-6.560366 1.598293,-13.167384 0.90625,-19.8125 l -0.03125,-0.15625 -0.125,-0.09375 C 25.935645,15.467371 24.233412,12.80925 22.59375,10.4375 21.773919,9.2516251 20.98203,8.118815 20.125,7.34375 19.3938,6.6824804 18.607498,6.2594797 17.78125,6.3125 l 0,-0.03125 C 16.586039,5.9098653 15.738459,5.8291076 15.125,6.0625 c -0.130985,0.049834 -0.239866,0.1378799 -0.34375,0.21875 -0.972536,-0.593563 -1.962397,-1.0038519 -2.96875,-1 -0.606122,0.00232 -1.210799,0.1694724 -1.75,0.5625 C 9.6345031,5.4568651 9.1334399,5.0524897 8.28125,4.875 z"
         style="font-size:medium;font-style:normal;font-variant:normal;font-weight:normal;font-stretch:normal;text-indent:0;text-align:start;text-decoration:none;line-height:normal;letter-spacing:normal;word-spacing:normal;text-transform:none;direction:ltr;block-progression:tb;writing-mode:lr-tb;text-anchor:start;baseline-shift:baseline;color:#000000;fill:#000000;fill-opacity:1;stroke:none;stroke-width:0.62500000000000000;marker:none;visibility:visible;display:inline;overflow:visible;enable-background:accumulate;font-family:Sans;-inkscape-font-specification:Sans"
         inkscape:connector-curvature="0"
         sodipodi:nodetypes="ccccssccsscscsccsccsccscccssssccccccssccscscc" />
    </g>
    <path
       style="fill:none;stroke:#000000;stroke-width:0.50000000000000000;stroke-linecap:round;stroke-linejoin:miter;stroke-miterlimit:4;stroke-opacity:1;stroke-dasharray:none"
       d="m 17.980688,8.5140948 1.296853,1.1917025"
       id="path4368"
       inkscape:connector-curvature="0"
       transform="translate(360.9375,409.84883)" />
    <path
       inkscape:connector-curvature="0"
       id="path4370"
       d="m 382.67448,423.30831 1.07469,1.39536"
       style="fill:none;stroke:#000000;stroke-width:0.50000000000000000;stroke-linecap:round;stroke-linejoin:miter;stroke-miterlimit:4;stroke-opacity:1;stroke-dasharray:none" />
    <path
       sodipodi:type="arc"
       style="fill:#1b2a34;fill-opacity:1;stroke:none"
       id="path4372"
       sodipodi:cx="30.633766"
       sodipodi:cy="13.719031"
       sodipodi:rx="1.1566525"
       sodipodi:ry="1.0690273"
       d="m 31.790419,13.719031 a 1.1566525,1.0690273 0 1 1 -2.313305,0 1.1566525,1.0690273 0 1 1 2.313305,0 z"
       transform="translate(356.03049,422.11636)" />
    <use
       x="0"
       y="0"
       xlink:href="#path4372"
       id="use4374"
       transform="translate(8.7625187,-17.139487)"
       width="52.375"
       height="43.213669" />
    <use
       x="0"
       y="0"
       xlink:href="#path4372"
       id="use4376"
       transform="translate(-0.10515023,-8.0264671)"
       width="52.375"
       height="43.213669" />
    <path
       inkscape:connector-curvature="0"
       id="path4404"
       d="m 391.37594,437.78633 a 0.60006002,0.60006002 0 0 1 0.0937,1.125 l -7.53125,3.96875 a 0.60110575,0.60110575 0 0 1 -0.5625,-1.0625 l 7.53125,-3.96875 a 0.60006002,0.60006002 0 0 1 0.4688,-0.0625 z"
       style="font-size:medium;font-style:normal;font-variant:normal;font-weight:normal;font-stretch:normal;text-indent:0;text-align:start;text-decoration:none;line-height:normal;letter-spacing:normal;word-spacing:normal;text-transform:none;direction:ltr;block-progression:tb;writing-mode:lr-tb;text-anchor:start;baseline-shift:baseline;color:#000000;fill:#7b2e2f;fill-opacity:1;stroke:#1b2a34;stroke-width:0.50000000000000000;stroke-miterlimit:4;stroke-dasharray:none;marker:none;visibility:visible;display:inline;overflow:visible;enable-background:accumulate;font-family:Sans;-inkscape-font-specification:Sans" />
    <path
       style="font-size:medium;font-style:normal;font-variant:normal;font-weight:normal;font-stretch:normal;text-indent:0;text-align:start;text-decoration:none;line-height:normal;letter-spacing:normal;word-spacing:normal;text-transform:none;direction:ltr;block-progression:tb;writing-mode:lr-tb;text-anchor:start;baseline-shift:baseline;color:#000000;fill:#7b2e2f;fill-opacity:1;stroke:#1b2a34;stroke-width:0.50000000000000000;stroke-miterlimit:4;stroke-dasharray:none;marker:none;visibility:visible;display:inline;overflow:visible;enable-background:accumulate;font-family:Sans;-inkscape-font-specification:Sans"
       d="m 383.5,437.78633 a 0.60006002,0.60006002 0 0 0 -0.0937,1.125 l 7.53125,3.96875 a 0.60110575,0.60110575 0 1 0 0.5625,-1.0625 l -7.53125,-3.96875 a 0.60006002,0.60006002 0 0 0 -0.4688,-0.0625 z"
       id="path4398"
       inkscape:connector-curvature="0" />
    <path
       style="font-size:medium;font-style:normal;font-variant:normal;font-weight:normal;font-stretch:normal;text-indent:0;text-align:start;text-decoration:none;line-height:normal;letter-spacing:normal;word-spacing:normal;text-transform:none;direction:ltr;block-progression:tb;writing-mode:lr-tb;text-anchor:start;baseline-shift:baseline;color:#000000;fill:#7b2e2f;fill-opacity:1;stroke:#1b2a34;stroke-width:0.50000000000000000;marker:none;visibility:visible;display:inline;overflow:visible;enable-background:accumulate;font-family:Sans;-inkscape-font-specification:Sans;stroke-miterlimit:4;stroke-dasharray:none"
       d="m 396.0625,428.47383 a 0.60006002,0.60006002 0 0 0 -0.0937,0.0312 l -14.5625,5.5 a 0.60006002,0.60006002 0 1 0 0.40625,1.125 l 14.5625,-5.5 a 0.60006002,0.60006002 0 0 0 -0.3125,-1.15625 z"
       id="path4406"
       inkscape:connector-curvature="0" />
    <path
       style="font-size:medium;font-style:normal;font-variant:normal;font-weight:normal;font-stretch:normal;text-indent:0;text-align:start;text-decoration:none;line-height:normal;letter-spacing:normal;word-spacing:normal;text-transform:none;direction:ltr;block-progression:tb;writing-mode:lr-tb;text-anchor:start;baseline-shift:baseline;color:#000000;fill:#7b2e2f;fill-opacity:1;stroke:#1b2a34;stroke-width:0.50000000000000000;marker:none;visibility:visible;display:inline;overflow:visible;enable-background:accumulate;font-family:Sans;-inkscape-font-specification:Sans;stroke-miterlimit:4;stroke-dasharray:none"
       d="m 389.9375,445.44258 a 0.60006002,0.60006002 0 0 0 -0.21875,0.0937 l -5.5,3.84375 a 0.60006002,0.60006002 0 1 0 0.6875,0.96875 l 5.5,-3.8125 a 0.60006002,0.60006002 0 0 0 -0.46875,-1.09375 z"
       id="path4412"
       inkscape:connector-curvature="0" />
    <path
       inkscape:connector-curvature="0"
       id="path4418"
       d="m 378.67778,428.47383 a 0.60006002,0.60006002 0 0 1 0.0937,0.0312 l 14.5625,5.5 a 0.60006002,0.60006002 0 1 1 -0.40625,1.125 l -14.5625,-5.5 a 0.60006002,0.60006002 0 0 1 0.3125,-1.15625 z"
       style="font-size:medium;font-style:normal;font-variant:normal;font-weight:normal;font-stretch:normal;text-indent:0;text-align:start;text-decoration:none;line-height:normal;letter-spacing:normal;word-spacing:normal;text-transform:none;direction:ltr;block-progression:tb;writing-mode:lr-tb;text-anchor:start;baseline-shift:baseline;color:#000000;fill:#7b2e2f;fill-opacity:1;stroke:#1b2a34;stroke-width:0.50000000000000000;stroke-miterlimit:4;stroke-dasharray:none;marker:none;visibility:visible;display:inline;overflow:visible;enable-background:accumulate;font-family:Sans;-inkscape-font-specification:Sans" />
    <path
       inkscape:connector-curvature="0"
       id="path4420"
       d="m 384.80278,445.44258 a 0.60006002,0.60006002 0 0 1 0.21875,0.0937 l 5.5,3.84375 a 0.60006002,0.60006002 0 1 1 -0.6875,0.96875 l -5.5,-3.8125 a 0.60006002,0.60006002 0 0 1 0.46875,-1.09375 z"
       style="font-size:medium;font-style:normal;font-variant:normal;font-weight:normal;font-stretch:normal;text-indent:0;text-align:start;text-decoration:none;line-height:normal;letter-spacing:normal;word-spacing:normal;text-transform:none;direction:ltr;block-progression:tb;writing-mode:lr-tb;text-anchor:start;baseline-shift:baseline;color:#000000;fill:#7b2e2f;fill-opacity:1;stroke:#1b2a34;stroke-width:0.50000000000000000;stroke-miterlimit:4;stroke-dasharray:none;marker:none;visibility:visible;display:inline;overflow:visible;enable-background:accumulate;font-family:Sans;-inkscape-font-specification:Sans" />
    <path
       style="font-size:medium;font-style:normal;font-variant:normal;font-weight:normal;font-stretch:normal;text-indent:0;text-align:start;text-decoration:none;line-height:normal;letter-spacing:normal;word-spacing:normal;text-transform:none;direction:ltr;block-progression:tb;writing-mode:lr-tb;text-anchor:start;baseline-shift:baseline;color:#000000;fill:#7b2e2f;fill-opacity:1;stroke:#1b2a34;stroke-width:0.50000000000000000;marker:none;visibility:visible;display:inline;overflow:visible;enable-background:accumulate;font-family:Sans;-inkscape-font-specification:Sans;stroke-miterlimit:4;stroke-dasharray:none"
       d="m 376.0625,424.47383 a 0.60006002,0.60006002 0 0 0 -0.25,0.0937 c -1.31378,0.74512 -1.91086,1.90753 -2.0625,3.09375 -0.15164,1.18622 0.0578,2.41844 0.21875,3.5625 0.16098,1.14406 0.25223,2.1914 0.0312,2.96875 -0.22098,0.77735 -0.6774,1.35692 -1.96875,1.75 a 0.60777032,0.60777032 0 1 0 0.375,1.15625 c 1.56749,-0.47713 2.43298,-1.4473 2.75,-2.5625 0.31702,-1.1152 0.16378,-2.30484 0,-3.46875 -0.16378,-1.16391 -0.33767,-2.31974 -0.21875,-3.25 0.11892,-0.93026 0.45855,-1.6458 1.46875,-2.21875 a 0.60006002,0.60006002 0 0 0 -0.34375,-1.125 z"
       id="path4422"
       inkscape:connector-curvature="0" />
    <path
       style="font-size:medium;font-style:normal;font-variant:normal;font-weight:normal;font-stretch:normal;text-indent:0;text-align:start;text-decoration:none;line-height:normal;letter-spacing:normal;word-spacing:normal;text-transform:none;direction:ltr;block-progression:tb;writing-mode:lr-tb;text-anchor:start;baseline-shift:baseline;color:#000000;fill:#7b2e2f;fill-opacity:1;stroke:#1b2a34;stroke-width:0.50000000000000000;marker:none;visibility:visible;display:inline;overflow:visible;enable-background:accumulate;font-family:Sans;-inkscape-font-specification:Sans;stroke-miterlimit:4;stroke-dasharray:none"
       d="m 398.25,424.91133 a 0.60006002,0.60006002 0 0 0 -0.25,1.03125 c 1.48662,1.48662 1.68188,2.2411 1.625,2.90625 -0.0569,0.66515 -0.52033,1.41127 -0.53125,2.5625 -0.0104,1.09229 0.31403,1.97348 0.40625,2.75 0.0922,0.77652 0.0161,1.45312 -0.71875,2.40625 a 0.6031331,0.6031331 0 1 0 0.96875,0.71875 c 0.90496,-1.1737 1.05174,-2.28808 0.9375,-3.25 -0.11424,-0.96192 -0.41414,-1.76257 -0.40625,-2.59375 0.007,-0.77224 0.44243,-1.46138 0.53125,-2.5 0.0888,-1.03861 -0.35759,-2.26384 -1.96875,-3.875 A 0.60006002,0.60006002 0 0 0 398.25,424.91133 z"
       id="path4428"
       inkscape:connector-curvature="0" />
    <use
       x="0"
       y="0"
       xlink:href="#use4376"
       id="use4436"
       transform="translate(4.9917531,-4.354508)"
       width="52.375"
       height="43.213669" />
  </g>
</svg>
