<?xml version="1.0" encoding="UTF-8" standalone="no"?>
<!-- Created with Inkscape (http://www.inkscape.org/) -->

<svg
   xmlns:dc="http://purl.org/dc/elements/1.1/"
   xmlns:cc="http://creativecommons.org/ns#"
   xmlns:rdf="http://www.w3.org/1999/02/22-rdf-syntax-ns#"
   xmlns:svg="http://www.w3.org/2000/svg"
   xmlns="http://www.w3.org/2000/svg"
   xmlns:xlink="http://www.w3.org/1999/xlink"
   xmlns:sodipodi="http://sodipodi.sourceforge.net/DTD/sodipodi-0.dtd"
   xmlns:inkscape="http://www.inkscape.org/namespaces/inkscape"
   width="52.38813"
   height="43.401779"
   id="svg2"
   version="1.1"
   inkscape:version="0.48.2 r9819"
   sodipodi:docname="female.[CMF1 Cheerleader]">
  <defs
     id="defs4">
    <linearGradient
       inkscape:collect="always"
       id="linearGradient4011">
      <stop
         style="stop-color:#ffffff;stop-opacity:1;"
         offset="0"
         id="stop4013" />
      <stop
         style="stop-color:#ffffff;stop-opacity:0;"
         offset="1"
         id="stop4015" />
    </linearGradient>
    <linearGradient
       inkscape:collect="always"
       id="linearGradient3997">
      <stop
         style="stop-color:#ffffff;stop-opacity:1;"
         offset="0"
         id="stop3999" />
      <stop
         style="stop-color:#ffffff;stop-opacity:0;"
         offset="1"
         id="stop4001" />
    </linearGradient>
    <inkscape:path-effect
       effect="skeletal"
       id="path-effect4237"
       is_visible="true"
       pattern="M 0,5 C 0,2.24 2.24,0 5,0 7.76,0 10,2.24 10,5 10,7.76 7.76,10 5,10 2.24,10 0,7.76 0,5 z"
       copytype="single_stretched"
       prop_scale="1"
       scale_y_rel="false"
       spacing="0"
       normal_offset="0"
       tang_offset="0"
       prop_units="false"
       vertical_pattern="false"
       fuse_tolerance="0" />
    <clipPath
       id="clipPath2999"
       clipPathUnits="userSpaceOnUse">
      <path
         id="path3001"
         d="M 0,792 612,792 612,0 0,0 0,792 z"
         inkscape:connector-curvature="0" />
    </clipPath>
    <radialGradient
       gradientUnits="userSpaceOnUse"
       gradientTransform="matrix(0.75988491,-0.03632001,0.13155835,2.7524547,16.986326,-78.268899)"
       r="12.650181"
       fy="46.658409"
       fx="96.306435"
       cy="46.658409"
       cx="96.306435"
       id="radialGradient3972"
       xlink:href="#linearGradient3966"
       inkscape:collect="always" />
    <clipPath
       clipPathUnits="userSpaceOnUse"
       id="clipPath2999-4">
      <path
         inkscape:connector-curvature="0"
         d="M 0,792 612,792 612,0 0,0 0,792 z"
         id="path3001-0" />
    </clipPath>
    <linearGradient
       id="linearGradient3966">
      <stop
         id="stop3968"
         offset="0"
         style="stop-color:#c0ac02;stop-opacity:1;" />
      <stop
         id="stop3970"
         offset="1"
         style="stop-color:#fdea41;stop-opacity:0;" />
    </linearGradient>
    <radialGradient
       inkscape:collect="always"
       xlink:href="#linearGradient3997"
       id="radialGradient4003"
       cx="165.81134"
       cy="47.693741"
       fx="165.81134"
       fy="47.693741"
       r="3.8123069"
       gradientTransform="matrix(0.64374811,-0.18781617,0.31213841,1.069868,43.640483,27.15595)"
       gradientUnits="userSpaceOnUse" />
    <radialGradient
       inkscape:collect="always"
       xlink:href="#linearGradient3997"
       id="radialGradient4007"
       gradientUnits="userSpaceOnUse"
       gradientTransform="matrix(-0.64374811,-0.18781617,-0.31213841,1.069868,293.73143,27.15595)"
       cx="165.81134"
       cy="47.693741"
       fx="165.81134"
       fy="47.693741"
       r="3.8123069" />
    <radialGradient
       inkscape:collect="always"
       xlink:href="#linearGradient4011"
       id="radialGradient4017"
       cx="169.32254"
       cy="41.784931"
       fx="169.32254"
       fy="41.784931"
       r="6.982676"
       gradientTransform="matrix(0.31036379,-0.01814613,0.03701409,0.63307367,114.75293,21.468668)"
       gradientUnits="userSpaceOnUse" />
    <linearGradient
       id="linearGradient3966-2">
      <stop
         style="stop-color:#c0ac02;stop-opacity:1;"
         offset="0"
         id="stop3968-4" />
      <stop
         style="stop-color:#fdea41;stop-opacity:0;"
         offset="1"
         id="stop3970-5" />
    </linearGradient>
    <clipPath
       id="clipPath2999-4-8"
       clipPathUnits="userSpaceOnUse">
      <path
         id="path3001-0-8"
         d="M 0,792 612,792 612,0 0,0 0,792 z"
         inkscape:connector-curvature="0" />
    </clipPath>
    <radialGradient
       inkscape:collect="always"
       xlink:href="#linearGradient3966-2"
       id="radialGradient3972-4"
       cx="96.306435"
       cy="46.658409"
       fx="96.306435"
       fy="46.658409"
       r="12.650181"
       gradientTransform="matrix(0.75988491,-0.03632001,0.13155835,2.7524547,16.986326,-78.268899)"
       gradientUnits="userSpaceOnUse" />
    <clipPath
       clipPathUnits="userSpaceOnUse"
       id="clipPath2999-0">
      <path
         inkscape:connector-curvature="0"
         d="M 0,792 612,792 612,0 0,0 0,792 z"
         id="path3001-9" />
    </clipPath>
    <inkscape:path-effect
       fuse_tolerance="0"
       vertical_pattern="false"
       prop_units="false"
       tang_offset="0"
       normal_offset="0"
       spacing="0"
       scale_y_rel="false"
       prop_scale="1"
       copytype="single_stretched"
       pattern="M 0,5 C 0,2.24 2.24,0 5,0 7.76,0 10,2.24 10,5 10,7.76 7.76,10 5,10 2.24,10 0,7.76 0,5 z"
       is_visible="true"
       id="path-effect4237-4"
       effect="skeletal" />
  </defs>
  <sodipodi:namedview
     id="base"
     pagecolor="#ffffff"
     bordercolor="#666666"
     borderopacity="1.0"
     inkscape:pageopacity="0.0"
     inkscape:pageshadow="2"
     inkscape:zoom="3.14"
     inkscape:cx="17.762777"
     inkscape:cy="-19.937401"
     inkscape:document-units="px"
     inkscape:current-layer="layer36"
     showgrid="false"
     fit-margin-top="0"
     fit-margin-left="0"
     fit-margin-right="0"
     fit-margin-bottom="0"
     inkscape:window-width="1280"
     inkscape:window-height="968"
     inkscape:window-x="-4"
     inkscape:window-y="-4"
     inkscape:window-maximized="1"
     showguides="true"
     inkscape:guide-bbox="true"
     inkscape:snap-global="false">
    <sodipodi:guide
       orientation="0,1"
       position="11.28133,21.705909"
       id="guide3274" />
    <sodipodi:guide
       orientation="1,0"
       position="26.13159,26.822611"
       id="guide3960" />
  </sodipodi:namedview>
  <metadata
     id="metadata7">
    <rdf:RDF>
      <cc:Work
         rdf:about="">
        <dc:format>image/svg+xml</dc:format>
        <dc:type
           rdf:resource="http://purl.org/dc/dcmitype/StillImage" />
        <dc:title></dc:title>
      </cc:Work>
    </rdf:RDF>
  </metadata>
  <g
     inkscape:groupmode="layer"
     id="layer36"
     inkscape:label="torso"
     transform="translate(-142.76812,-31.473222)"
     style="display:inline">
    <path
       inkscape:connector-curvature="0"
       d="m 142.96875,74.54469 c 8.7325,-47.29375 5.3425,-42.67875 14.2675,-42.85625 l 23.44,0 c 8.92625,0.1775 5.535,-4.4375 14.265,42.85625 l -51.9725,0 z"
       style="display:inline;fill:none;stroke:#231f20;stroke-width:0.31250000000000000;stroke-linecap:butt;stroke-linejoin:miter;stroke-miterlimit:4;stroke-opacity:1;stroke-dasharray:none"
       id="path3062" />
    <path
       style="display:inline;fill:none;stroke:#231f20;stroke-width:0.31250000000000000;stroke-linecap:butt;stroke-linejoin:miter;stroke-miterlimit:4;stroke-opacity:1;stroke-dasharray:none"
       d="m 153.86125,31.629048 c -0.19243,0.002 -0.35737,0.01787 -0.53125,0.03125 -0.11774,0.0085 -0.23376,0.016 -0.34375,0.03125 -0.0455,0.0065 -0.0808,0.02336 -0.125,0.03125 -0.14709,0.02481 -0.27203,0.05234 -0.40625,0.09375 -0.25225,0.08042 -0.50443,0.185425 -0.71875,0.34375 -0.0121,0.0087 -0.0193,0.02225 -0.0312,0.03125 -0.0816,0.06269 -0.14163,0.142005 -0.21875,0.21875 -0.0816,0.07994 -0.17278,0.153015 -0.25,0.25 -0.0142,0.01794 -0.0172,0.04395 -0.0312,0.0625 -0.13541,0.178525 -0.28123,0.385162 -0.40625,0.625 -0.0234,0.04486 -0.0394,0.07781 -0.0625,0.125 -0.1421,0.290288 -0.27169,0.645343 -0.40625,1.03125 -0.0179,0.05135 -0.0447,0.103075 -0.0625,0.15625 -0.13299,0.396662 -0.24314,0.838245 -0.375,1.34375 -0.28239,1.082549 -0.58908,2.419371 -0.90625,4.09375 -0.011,0.05794 -0.0202,0.09752 -0.0312,0.15625 -0.31054,1.647598 -0.63537,3.57563 -1.03125,5.90625 -0.4064,2.392543 -0.85618,5.200459 -1.40625,8.4375 -0.27877,1.6405 -0.0941,2.88401 0.46875,6 0.26574,1.47124 1.7484,3.138 1.5625,3.9375 -0.15723,0.67621 -0.56838,1.70889 -0.84375,2.75 -0.22468,0.84953 -0.27082,1.65785 -0.40625,2.59375 -0.16495,1.13985 -0.75555,1.76346 -1.34375,2.34375 -0.61445,0.60619 -1.22651,1.1698 -1.4375,2.3125 l 48.875,0 c -0.21099,-1.1427 -0.8543,-1.70631 -1.46875,-2.3125 -0.5882,-0.58029 -1.14755,-1.2039 -1.3125,-2.34375 -0.13543,-0.9359 -0.21282,-1.74422 -0.4375,-2.59375 -0.27537,-1.04111 -0.68652,-2.07379 -0.84375,-2.75 -0.1859,-0.7995 1.32801,-2.46626 1.59375,-3.9375 0.56282,-3.11599 0.74752,-4.3595 0.46875,-6 -1.65023,-9.711124 -2.52783,-15.346104 -3.375,-18.59375 -0.14119,-0.541274 -0.29479,-1.020496 -0.4375,-1.4375 -0.14271,-0.417004 -0.28647,-0.785224 -0.4375,-1.09375 -0.0231,-0.04719 -0.0391,-0.08014 -0.0625,-0.125 -0.12952,-0.248465 -0.26551,-0.473422 -0.40625,-0.65625 -0.0831,-0.10792 -0.16187,-0.193541 -0.25,-0.28125 -0.062,-0.0617 -0.12264,-0.13497 -0.1875,-0.1875 -0.21319,-0.16987 -0.43657,-0.287184 -0.6875,-0.375 -0.16086,-0.05775 -0.35131,-0.09331 -0.53125,-0.125 -0.0591,-0.01 -0.12616,-0.02357 -0.1875,-0.03125 -0.0876,-0.01129 -0.18883,-0.02414 -0.28125,-0.03125 -0.2375,-0.01718 -0.50868,-0.03324 -0.78125,-0.03125 -0.22766,0.0015 -0.46352,0.02329 -0.71875,0.03125 -0.0804,0.0025 -0.19796,-0.0027 -0.28125,0 -0.62137,0.02032 -1.29085,0.04722 -2.09375,0.03125 -0.012,-2.22e-4 -0.0192,2.39e-4 -0.0312,0 l -23.40625,0 c -0.012,2.39e-4 -0.0193,-2.22e-4 -0.0312,0 -0.8029,0.01597 -1.47238,-0.01093 -2.09375,-0.03125 -0.0945,-0.0031 -0.19043,0.0028 -0.28125,0 -0.25523,-0.008 -0.49109,-0.02974 -0.71875,-0.03125 -0.0791,-5.26e-4 -0.17402,-7.76e-4 -0.25,0 z"
       id="path3078"
       inkscape:connector-curvature="0" />
    <g
       style="display:inline"
       id="g3858"
       transform="matrix(1.0588333,0,0,1,-8.51222,-0.152202)">
      <path
         sodipodi:nodetypes="sscsscs"
         inkscape:connector-curvature="0"
         id="path3080"
         d="m 151.26566,56.0625 c 2.99693,3.939515 8.713,4.764133 12.75,1.84375 4.037,-2.920383 4.87193,-8.497985 1.64062,-12.265625 2.56485,3.8515 1.79189,9.033863 -1.98437,11.765625 -3.77626,2.731762 -9.10703,1.960875 -11.90625,-1.71875 -2.04958,-2.694211 -2.23755,-6.311271 -0.73438,-9.34375 -2.16216,2.927686 -1.96216,6.831361 0.23438,9.71875 z"
         style="font-size:medium;font-style:normal;font-variant:normal;font-weight:normal;font-stretch:normal;text-indent:0;text-align:start;text-decoration:none;line-height:normal;letter-spacing:normal;word-spacing:normal;text-transform:none;direction:ltr;block-progression:tb;writing-mode:lr-tb;text-anchor:start;baseline-shift:baseline;color:#000000;fill:#000000;fill-opacity:1;stroke:none;stroke-width:0.60000002;marker:none;visibility:visible;display:inline;overflow:visible;enable-background:accumulate;font-family:Sans;-inkscape-font-specification:Sans" />
      <path
         style="font-size:medium;font-style:normal;font-variant:normal;font-weight:normal;font-stretch:normal;text-indent:0;text-align:start;text-decoration:none;line-height:normal;letter-spacing:normal;word-spacing:normal;text-transform:none;direction:ltr;block-progression:tb;writing-mode:lr-tb;text-anchor:start;baseline-shift:baseline;color:#000000;fill:#000000;fill-opacity:1;stroke:none;stroke-width:0.60000002;marker:none;visibility:visible;display:inline;overflow:visible;enable-background:accumulate;font-family:Sans;-inkscape-font-specification:Sans"
         d="m 183.94711,56.0625 c -2.99693,3.939515 -8.713,4.764133 -12.75,1.84375 -4.037,-2.920383 -4.87193,-8.497985 -1.64062,-12.265625 -2.56485,3.8515 -1.79189,9.033863 1.98437,11.765625 3.77626,2.731762 9.10703,1.960875 11.90625,-1.71875 2.04958,-2.694211 2.23755,-6.311271 0.73438,-9.34375 2.16216,2.927686 1.96216,6.831361 -0.23438,9.71875 z"
         id="path3856"
         inkscape:connector-curvature="0"
         sodipodi:nodetypes="sscsscs" />
    </g>
    <path
       sodipodi:type="arc"
       style="display:inline;fill:#000000;stroke:#000000;stroke-width:0.60000001999999997;stroke-miterlimit:4;stroke-opacity:1;stroke-dasharray:none"
       id="path3862"
       sodipodi:cx="167.90822"
       sodipodi:cy="68.916588"
       sodipodi:rx="0.66542226"
       sodipodi:ry="1.4195675"
       d="m 168.57364,68.916588 a 0.66542226,1.4195675 0 1 1 -1.33084,0 0.66542226,1.4195675 0 1 1 1.33084,0 z"
       transform="matrix(0.6783476,0,0,0.6783476,54.257443,22.124472)" />
  </g>
</svg>
