<?xml version="1.0" encoding="UTF-8" standalone="no"?>
<!-- Created with Inkscape (http://www.inkscape.org/) -->

<svg
   xmlns:dc="http://purl.org/dc/elements/1.1/"
   xmlns:cc="http://creativecommons.org/ns#"
   xmlns:rdf="http://www.w3.org/1999/02/22-rdf-syntax-ns#"
   xmlns:svg="http://www.w3.org/2000/svg"
   xmlns="http://www.w3.org/2000/svg"
   xmlns:xlink="http://www.w3.org/1999/xlink"
   xmlns:sodipodi="http://sodipodi.sourceforge.net/DTD/sodipodi-0.dtd"
   xmlns:inkscape="http://www.inkscape.org/namespaces/inkscape"
   width="52.38813"
   height="43.401779"
   id="svg2"
   version="1.1"
   inkscape:version="0.48.2 r9819"
   sodipodi:docname="female.(DC new 52).svg">
  <defs
     id="defs4">
    <linearGradient
       inkscape:collect="always"
       id="linearGradient4011">
      <stop
         style="stop-color:#ffffff;stop-opacity:1;"
         offset="0"
         id="stop4013" />
      <stop
         style="stop-color:#ffffff;stop-opacity:0;"
         offset="1"
         id="stop4015" />
    </linearGradient>
    <linearGradient
       inkscape:collect="always"
       id="linearGradient3997">
      <stop
         style="stop-color:#ffffff;stop-opacity:1;"
         offset="0"
         id="stop3999" />
      <stop
         style="stop-color:#ffffff;stop-opacity:0;"
         offset="1"
         id="stop4001" />
    </linearGradient>
    <inkscape:path-effect
       effect="skeletal"
       id="path-effect4237"
       is_visible="true"
       pattern="M 0,5 C 0,2.24 2.24,0 5,0 7.76,0 10,2.24 10,5 10,7.76 7.76,10 5,10 2.24,10 0,7.76 0,5 z"
       copytype="single_stretched"
       prop_scale="1"
       scale_y_rel="false"
       spacing="0"
       normal_offset="0"
       tang_offset="0"
       prop_units="false"
       vertical_pattern="false"
       fuse_tolerance="0" />
    <clipPath
       id="clipPath2999"
       clipPathUnits="userSpaceOnUse">
      <path
         id="path3001"
         d="M 0,792 612,792 612,0 0,0 0,792 z"
         inkscape:connector-curvature="0" />
    </clipPath>
    <radialGradient
       gradientUnits="userSpaceOnUse"
       gradientTransform="matrix(0.75988491,-0.03632001,0.13155835,2.7524547,16.986326,-78.268899)"
       r="12.650181"
       fy="46.658409"
       fx="96.306435"
       cy="46.658409"
       cx="96.306435"
       id="radialGradient3972"
       xlink:href="#linearGradient3966"
       inkscape:collect="always" />
    <clipPath
       clipPathUnits="userSpaceOnUse"
       id="clipPath2999-4">
      <path
         inkscape:connector-curvature="0"
         d="M 0,792 612,792 612,0 0,0 0,792 z"
         id="path3001-0" />
    </clipPath>
    <linearGradient
       id="linearGradient3966">
      <stop
         id="stop3968"
         offset="0"
         style="stop-color:#c0ac02;stop-opacity:1;" />
      <stop
         id="stop3970"
         offset="1"
         style="stop-color:#fdea41;stop-opacity:0;" />
    </linearGradient>
    <radialGradient
       inkscape:collect="always"
       xlink:href="#linearGradient3997"
       id="radialGradient4003"
       cx="165.81134"
       cy="47.693741"
       fx="165.81134"
       fy="47.693741"
       r="3.8123069"
       gradientTransform="matrix(0.64374811,-0.18781617,0.31213841,1.069868,43.640483,27.15595)"
       gradientUnits="userSpaceOnUse" />
    <radialGradient
       inkscape:collect="always"
       xlink:href="#linearGradient3997"
       id="radialGradient4007"
       gradientUnits="userSpaceOnUse"
       gradientTransform="matrix(-0.64374811,-0.18781617,-0.31213841,1.069868,293.73143,27.15595)"
       cx="165.81134"
       cy="47.693741"
       fx="165.81134"
       fy="47.693741"
       r="3.8123069" />
    <radialGradient
       inkscape:collect="always"
       xlink:href="#linearGradient4011"
       id="radialGradient4017"
       cx="169.32254"
       cy="41.784931"
       fx="169.32254"
       fy="41.784931"
       r="6.982676"
       gradientTransform="matrix(0.31036379,-0.01814613,0.03701409,0.63307367,114.75293,21.468668)"
       gradientUnits="userSpaceOnUse" />
    <linearGradient
       id="linearGradient3966-2">
      <stop
         style="stop-color:#c0ac02;stop-opacity:1;"
         offset="0"
         id="stop3968-4" />
      <stop
         style="stop-color:#fdea41;stop-opacity:0;"
         offset="1"
         id="stop3970-5" />
    </linearGradient>
    <clipPath
       id="clipPath2999-4-8"
       clipPathUnits="userSpaceOnUse">
      <path
         id="path3001-0-8"
         d="M 0,792 612,792 612,0 0,0 0,792 z"
         inkscape:connector-curvature="0" />
    </clipPath>
    <radialGradient
       inkscape:collect="always"
       xlink:href="#linearGradient3966-2"
       id="radialGradient3972-4"
       cx="96.306435"
       cy="46.658409"
       fx="96.306435"
       fy="46.658409"
       r="12.650181"
       gradientTransform="matrix(0.75988491,-0.03632001,0.13155835,2.7524547,16.986326,-78.268899)"
       gradientUnits="userSpaceOnUse" />
    <clipPath
       clipPathUnits="userSpaceOnUse"
       id="clipPath2999-0">
      <path
         inkscape:connector-curvature="0"
         d="M 0,792 612,792 612,0 0,0 0,792 z"
         id="path3001-9" />
    </clipPath>
    <inkscape:path-effect
       fuse_tolerance="0"
       vertical_pattern="false"
       prop_units="false"
       tang_offset="0"
       normal_offset="0"
       spacing="0"
       scale_y_rel="false"
       prop_scale="1"
       copytype="single_stretched"
       pattern="M 0,5 C 0,2.24 2.24,0 5,0 7.76,0 10,2.24 10,5 10,7.76 7.76,10 5,10 2.24,10 0,7.76 0,5 z"
       is_visible="true"
       id="path-effect4237-4"
       effect="skeletal" />
    <inkscape:path-effect
       effect="skeletal"
       id="path-effect4237-4-5"
       is_visible="true"
       pattern="M 0,5 C 0,2.24 2.24,0 5,0 7.76,0 10,2.24 10,5 10,7.76 7.76,10 5,10 2.24,10 0,7.76 0,5 z"
       copytype="single_stretched"
       prop_scale="1"
       scale_y_rel="false"
       spacing="0"
       normal_offset="0"
       tang_offset="0"
       prop_units="false"
       vertical_pattern="false"
       fuse_tolerance="0" />
    <clipPath
       id="clipPath2999-0-6"
       clipPathUnits="userSpaceOnUse">
      <path
         id="path3001-9-8"
         d="M 0,792 612,792 612,0 0,0 0,792 z"
         inkscape:connector-curvature="0" />
    </clipPath>
    <radialGradient
       gradientUnits="userSpaceOnUse"
       gradientTransform="matrix(0.75988491,-0.03632001,0.13155835,2.7524547,16.986326,-78.268899)"
       r="12.650181"
       fy="46.658409"
       fx="96.306435"
       cy="46.658409"
       cx="96.306435"
       id="radialGradient3972-4-1"
       xlink:href="#linearGradient3966-2-4"
       inkscape:collect="always" />
    <clipPath
       clipPathUnits="userSpaceOnUse"
       id="clipPath2999-4-8-2">
      <path
         inkscape:connector-curvature="0"
         d="M 0,792 612,792 612,0 0,0 0,792 z"
         id="path3001-0-8-2" />
    </clipPath>
    <linearGradient
       id="linearGradient3966-2-4">
      <stop
         id="stop3968-4-2"
         offset="0"
         style="stop-color:#c0ac02;stop-opacity:1;" />
      <stop
         id="stop3970-5-3"
         offset="1"
         style="stop-color:#fdea41;stop-opacity:0;" />
    </linearGradient>
    <radialGradient
       gradientUnits="userSpaceOnUse"
       gradientTransform="matrix(0.31036379,-0.01814613,0.03701409,0.63307367,114.75293,21.468668)"
       r="6.982676"
       fy="41.784931"
       fx="169.32254"
       cy="41.784931"
       cx="169.32254"
       id="radialGradient4017-1"
       xlink:href="#linearGradient4011-4"
       inkscape:collect="always" />
    <radialGradient
       r="3.8123068"
       fy="47.693741"
       fx="165.81134"
       cy="47.693741"
       cx="165.81134"
       gradientTransform="matrix(-0.64374811,-0.18781617,-0.31213841,1.069868,293.73143,27.15595)"
       gradientUnits="userSpaceOnUse"
       id="radialGradient4007-6"
       xlink:href="#linearGradient3997-4"
       inkscape:collect="always" />
    <radialGradient
       gradientUnits="userSpaceOnUse"
       gradientTransform="matrix(0.64374811,-0.18781617,0.31213841,1.069868,43.640483,27.15595)"
       r="3.8123068"
       fy="47.693741"
       fx="165.81134"
       cy="47.693741"
       cx="165.81134"
       id="radialGradient4003-7"
       xlink:href="#linearGradient3997-4"
       inkscape:collect="always" />
    <linearGradient
       id="linearGradient3966-1">
      <stop
         style="stop-color:#c0ac02;stop-opacity:1;"
         offset="0"
         id="stop3968-5" />
      <stop
         style="stop-color:#fdea41;stop-opacity:0;"
         offset="1"
         id="stop3970-2" />
    </linearGradient>
    <clipPath
       id="clipPath2999-4-7"
       clipPathUnits="userSpaceOnUse">
      <path
         id="path3001-0-1"
         d="M 0,792 612,792 612,0 0,0 0,792 z"
         inkscape:connector-curvature="0" />
    </clipPath>
    <radialGradient
       inkscape:collect="always"
       xlink:href="#linearGradient3966-1"
       id="radialGradient3972-1"
       cx="96.306435"
       cy="46.658409"
       fx="96.306435"
       fy="46.658409"
       r="12.650181"
       gradientTransform="matrix(0.75988491,-0.03632001,0.13155835,2.7524547,16.986326,-78.268899)"
       gradientUnits="userSpaceOnUse" />
    <clipPath
       clipPathUnits="userSpaceOnUse"
       id="clipPath2999-45">
      <path
         inkscape:connector-curvature="0"
         d="M 0,792 612,792 612,0 0,0 0,792 z"
         id="path3001-5" />
    </clipPath>
    <inkscape:path-effect
       fuse_tolerance="0"
       vertical_pattern="false"
       prop_units="false"
       tang_offset="0"
       normal_offset="0"
       spacing="0"
       scale_y_rel="false"
       prop_scale="1"
       copytype="single_stretched"
       pattern="M 0,5 C 0,2.24 2.24,0 5,0 7.76,0 10,2.24 10,5 10,7.76 7.76,10 5,10 2.24,10 0,7.76 0,5 z"
       is_visible="true"
       id="path-effect4237-2"
       effect="skeletal" />
    <linearGradient
       id="linearGradient3997-4"
       inkscape:collect="always">
      <stop
         id="stop3999-8"
         offset="0"
         style="stop-color:#ffffff;stop-opacity:1;" />
      <stop
         id="stop4001-8"
         offset="1"
         style="stop-color:#ffffff;stop-opacity:0;" />
    </linearGradient>
    <linearGradient
       id="linearGradient4011-4"
       inkscape:collect="always">
      <stop
         id="stop4013-0"
         offset="0"
         style="stop-color:#ffffff;stop-opacity:1;" />
      <stop
         id="stop4015-9"
         offset="1"
         style="stop-color:#ffffff;stop-opacity:0;" />
    </linearGradient>
    <mask
       id="mask4064"
       maskUnits="userSpaceOnUse">
      <path
         inkscape:connector-curvature="0"
         d="m 195.68193,74.54469 c 8.7325,-47.29375 5.3425,-42.67875 14.2675,-42.85625 l 23.44,0 c 8.92625,0.1775 5.535,-4.4375 14.265,42.85625 l -51.9725,0 z"
         style="fill:#ffffff;fill-opacity:1;stroke:none;display:inline"
         id="path4066" />
    </mask>
    <inkscape:path-effect
       effect="skeletal"
       id="path-effect4237-4-4"
       is_visible="true"
       pattern="M 0,5 C 0,2.24 2.24,0 5,0 7.76,0 10,2.24 10,5 10,7.76 7.76,10 5,10 2.24,10 0,7.76 0,5 z"
       copytype="single_stretched"
       prop_scale="1"
       scale_y_rel="false"
       spacing="0"
       normal_offset="0"
       tang_offset="0"
       prop_units="false"
       vertical_pattern="false"
       fuse_tolerance="0" />
    <clipPath
       id="clipPath2999-0-0"
       clipPathUnits="userSpaceOnUse">
      <path
         id="path3001-9-2"
         d="M 0,792 612,792 612,0 0,0 0,792 z"
         inkscape:connector-curvature="0" />
    </clipPath>
    <radialGradient
       gradientUnits="userSpaceOnUse"
       gradientTransform="matrix(0.75988491,-0.03632001,0.13155835,2.7524547,16.986326,-78.268899)"
       r="12.650181"
       fy="46.658409"
       fx="96.306435"
       cy="46.658409"
       cx="96.306435"
       id="radialGradient3972-4-6"
       xlink:href="#linearGradient3966-2-8"
       inkscape:collect="always" />
    <clipPath
       clipPathUnits="userSpaceOnUse"
       id="clipPath2999-4-8-0">
      <path
         inkscape:connector-curvature="0"
         d="M 0,792 612,792 612,0 0,0 0,792 z"
         id="path3001-0-8-28" />
    </clipPath>
    <linearGradient
       id="linearGradient3966-2-8">
      <stop
         id="stop3968-4-6"
         offset="0"
         style="stop-color:#c0ac02;stop-opacity:1;" />
      <stop
         id="stop3970-5-5"
         offset="1"
         style="stop-color:#fdea41;stop-opacity:0;" />
    </linearGradient>
    <radialGradient
       gradientUnits="userSpaceOnUse"
       gradientTransform="matrix(0.31036379,-0.01814613,0.03701409,0.63307367,114.75293,21.468668)"
       r="6.982676"
       fy="41.784931"
       fx="169.32254"
       cy="41.784931"
       cx="169.32254"
       id="radialGradient4017-19"
       xlink:href="#linearGradient4011-7"
       inkscape:collect="always" />
    <radialGradient
       r="3.8123069"
       fy="47.693741"
       fx="165.81134"
       cy="47.693741"
       cx="165.81134"
       gradientTransform="matrix(-0.64374811,-0.18781617,-0.31213841,1.069868,293.73143,27.15595)"
       gradientUnits="userSpaceOnUse"
       id="radialGradient4007-3"
       xlink:href="#linearGradient3997-43"
       inkscape:collect="always" />
    <radialGradient
       gradientUnits="userSpaceOnUse"
       gradientTransform="matrix(0.64374811,-0.18781617,0.31213841,1.069868,43.640483,27.15595)"
       r="3.8123069"
       fy="47.693741"
       fx="165.81134"
       cy="47.693741"
       cx="165.81134"
       id="radialGradient4003-79"
       xlink:href="#linearGradient3997-43"
       inkscape:collect="always" />
    <linearGradient
       id="linearGradient3966-4">
      <stop
         style="stop-color:#c0ac02;stop-opacity:1;"
         offset="0"
         id="stop3968-2" />
      <stop
         style="stop-color:#fdea41;stop-opacity:0;"
         offset="1"
         id="stop3970-7" />
    </linearGradient>
    <clipPath
       id="clipPath2999-4-3"
       clipPathUnits="userSpaceOnUse">
      <path
         id="path3001-0-87"
         d="M 0,792 612,792 612,0 0,0 0,792 z"
         inkscape:connector-curvature="0" />
    </clipPath>
    <radialGradient
       inkscape:collect="always"
       xlink:href="#linearGradient3966-4"
       id="radialGradient3972-11"
       cx="96.306435"
       cy="46.658409"
       fx="96.306435"
       fy="46.658409"
       r="12.650181"
       gradientTransform="matrix(0.75988491,-0.03632001,0.13155835,2.7524547,16.986326,-78.268899)"
       gradientUnits="userSpaceOnUse" />
    <clipPath
       clipPathUnits="userSpaceOnUse"
       id="clipPath2999-3">
      <path
         inkscape:connector-curvature="0"
         d="M 0,792 612,792 612,0 0,0 0,792 z"
         id="path3001-4" />
    </clipPath>
    <inkscape:path-effect
       fuse_tolerance="0"
       vertical_pattern="false"
       prop_units="false"
       tang_offset="0"
       normal_offset="0"
       spacing="0"
       scale_y_rel="false"
       prop_scale="1"
       copytype="single_stretched"
       pattern="M 0,5 C 0,2.24 2.24,0 5,0 7.76,0 10,2.24 10,5 10,7.76 7.76,10 5,10 2.24,10 0,7.76 0,5 z"
       is_visible="true"
       id="path-effect4237-3"
       effect="skeletal" />
    <linearGradient
       id="linearGradient3997-43"
       inkscape:collect="always">
      <stop
         id="stop3999-1"
         offset="0"
         style="stop-color:#ffffff;stop-opacity:1;" />
      <stop
         id="stop4001-2"
         offset="1"
         style="stop-color:#ffffff;stop-opacity:0;" />
    </linearGradient>
    <linearGradient
       id="linearGradient4011-7"
       inkscape:collect="always">
      <stop
         id="stop4013-9"
         offset="0"
         style="stop-color:#ffffff;stop-opacity:1;" />
      <stop
         id="stop4015-5"
         offset="1"
         style="stop-color:#ffffff;stop-opacity:0;" />
    </linearGradient>
  </defs>
  <sodipodi:namedview
     id="base"
     pagecolor="#ffffff"
     bordercolor="#666666"
     borderopacity="1.0"
     inkscape:pageopacity="0.0"
     inkscape:pageshadow="2"
     inkscape:zoom="16.701291"
     inkscape:cx="26.201569"
     inkscape:cy="23.164742"
     inkscape:document-units="px"
     inkscape:current-layer="layer2"
     showgrid="false"
     fit-margin-top="0"
     fit-margin-left="0"
     fit-margin-right="0"
     fit-margin-bottom="0"
     inkscape:window-width="1600"
     inkscape:window-height="848"
     inkscape:window-x="-8"
     inkscape:window-y="-8"
     inkscape:window-maximized="1"
     showguides="true"
     inkscape:guide-bbox="true"
     inkscape:snap-global="false">
    <sodipodi:guide
       orientation="0,1"
       position="11.28133,21.705909"
       id="guide3274" />
    <sodipodi:guide
       orientation="1,0"
       position="26.115185,-0.071745012"
       id="guide3960" />
  </sodipodi:namedview>
  <metadata
     id="metadata7">
    <rdf:RDF>
      <cc:Work
         rdf:about="">
        <dc:format>image/svg+xml</dc:format>
        <dc:type
           rdf:resource="http://purl.org/dc/dcmitype/StillImage" />
        <dc:title />
      </cc:Work>
    </rdf:RDF>
  </metadata>
  <g
     inkscape:groupmode="layer"
     id="layer2"
     inkscape:label="new">
    <path
       style="fill:none;stroke:#1b2a34;stroke-width:0.31250000000000000;stroke-linecap:butt;stroke-linejoin:miter;stroke-miterlimit:4;stroke-opacity:1;stroke-dasharray:none;display:inline"
       d="M 11.625,0.15625 C 11.235909,0.14766235 10.885112,0.1643808 10.5625,0.1875 10.401194,0.1990596 10.240677,0.22532024 10.09375,0.25 9.999592,0.26771108 9.9012977,0.28795271 9.8125,0.3125 9.7038131,0.34069905 9.601221,0.39773521 9.5,0.4375 9.4291414,0.46726451 9.3487872,0.46375917 9.28125,0.5 9.158602,0.56130695 9.0502489,0.633936 8.9375,0.71875 8.9260803,0.72767071 8.9175775,0.74081924 8.90625,0.75 8.3709915,1.1838181 7.9422141,1.9275498 7.53125,3.125 7.5011287,3.2127663 7.4674136,3.3133483 7.4375,3.40625 7.3747324,3.6017985 7.3123658,3.7489562 7.25,3.96875 7.225339,4.054399 7.212141,4.1292832 7.1875,4.21875 6.9811777,4.9678768 6.7791967,5.8628626 6.5625,6.90625 6.3681258,7.842155 6.1563492,8.947364 5.9375,10.15625 5.668384,11.642801 5.3943373,13.292919 5.0625,15.25 5.3821078,15.990793 5.8242685,16.629166 6,17.625 c 0.175354,0.993695 0.093576,2.486453 0.2967544,3.25 0.2955524,1.11069 0.6809318,1.235476 0.9844956,2.34375 0.3925932,1.433309 -0.1444465,1.8712 0.34375,5.0625 0.2670958,1.745984 0.9793021,2.564078 0.84375,4.15625 C 8.108297,36.671319 1.5272274,39.992875 0.25,42.75 0.2294778,42.86133 0.2081578,42.950589 0.1875,43.0625 l 51.96875,0 C 52.13551,42.950177 52.11435,42.861738 52.09375,42.75 50.816523,39.992875 44.235453,36.671319 43.875,32.4375 c -0.135552,-1.592172 0.576654,-2.410266 0.84375,-4.15625 0.488196,-3.1913 -0.04884,-3.629191 0.34375,-5.0625 0.303564,-1.108274 0.579689,-1.23306 0.875241,-2.34375 0.20318,-0.763547 0.230659,-2.256305 0.406009,-3.25 0.175731,-0.995834 0.617892,-1.634207 0.9375,-2.375 -0.197228,-1.163195 -0.35821,-2.101336 -0.53125,-3.09375 -0.113214,-0.648743 -0.238863,-1.421219 -0.34375,-2 -0.218849,-1.208886 -0.430626,-2.314095 -0.625,-3.25 -0.216697,-1.0433874 -0.418678,-1.9383732 -0.625,-2.6875 -0.08138,-0.2954924 -0.167938,-0.5576425 -0.25,-0.8125 C 44.874866,3.3084757 44.844096,3.2169719 44.8125,3.125 44.401536,1.9275498 43.972759,1.1838181 43.4375,0.75 43.3193,0.65420071 43.191511,0.56922794 43.0625,0.5 43.006866,0.47219066 42.932894,0.4609903 42.875,0.4375 42.760135,0.38759374 42.655732,0.34691195 42.53125,0.3125 42.435985,0.28778336 42.351528,0.26705399 42.25,0.25 42.103073,0.22532024 41.942556,0.1990596 41.78125,0.1875 41.458638,0.1643808 41.107841,0.14766235 40.71875,0.15625 c -0.778181,0.0171753 -1.696719,0.0846875 -2.8125,0.0625 -0.01112,-2.0393e-4 -0.0201,2.2179e-4 -0.03125,0 l -23.40625,0 c -0.01115,2.2179e-4 -0.02013,-2.0393e-4 -0.03125,0 -1.115781,0.0221875 -2.034319,-0.0453247 -2.8125,-0.0625 z"
       id="path3943"
       inkscape:connector-curvature="0"
       sodipodi:nodetypes="sscccccssccssscsssssccccssssscccssccscccsssccccs" />
    <path
       style="fill:#1b2a34;fill-opacity:1;stroke:none;display:inline"
       d="m 7.1297824,15.727718 c -0.73311,1.041476 -1.1875,2.253697 -1.1875,3.5625 0,3.798322 3.54978,6.875 7.9374996,6.875 3.68403,0 6.78844,-2.180491 7.6875,-5.125 -1.06045,2.702051 -3.98753,4.625 -7.4375,4.625 -4.3440596,0 -7.8749996,-3.076678 -7.8749996,-6.875 0,-1.114575 0.33674,-2.131405 0.875,-3.0625 z"
       id="path3165"
       inkscape:connector-curvature="0" />
    <path
       id="path3172"
       d="m 45.214474,15.727718 c 0.73311,1.041476 1.1875,2.253697 1.1875,3.5625 0,3.798322 -3.54978,6.875 -7.9375,6.875 -3.68403,0 -6.78844,-2.180491 -7.6875,-5.125 1.06045,2.702051 3.98753,4.625 7.4375,4.625 4.34406,0 7.875,-3.076678 7.875,-6.875 0,-1.114575 -0.33674,-2.131405 -0.875,-3.0625 z"
       style="fill:#1b2a34;fill-opacity:1;stroke:none;display:inline"
       inkscape:connector-curvature="0" />
    <path
       style="font-size:medium;font-style:normal;font-variant:normal;font-weight:normal;font-stretch:normal;text-indent:0;text-align:start;text-decoration:none;line-height:normal;letter-spacing:normal;word-spacing:normal;text-transform:none;direction:ltr;block-progression:tb;writing-mode:lr-tb;text-anchor:start;baseline-shift:baseline;color:#000000;fill:#1b2a34;fill-opacity:1;stroke:none;stroke-width:1px;marker:none;visibility:visible;display:inline;overflow:visible;enable-background:accumulate;font-family:Sans;-inkscape-font-specification:Sans"
       d="m 29.265442,1.633969 c -1.1334,0.189853 -1.788,0.676502 -2.21875,1.03125 -0.21538,0.177374 -0.37051,0.300681 -0.5,0.375 -0.11136,0.06392 -0.20538,0.09285 -0.34375,0.09375 -0.0257,0.0014 -0.04,1.46e-4 -0.0625,0 -0.13837,-8.98e-4 -0.23239,-0.02983 -0.34375,-0.09375 -0.12949,-0.07432 -0.28462,-0.197626 -0.5,-0.375 -0.43075,-0.354748 -1.08535,-0.841397 -2.21875,-1.03125 -2.16944,-0.36339 -5.30878,-0.435516 -5.32813,-0.234375 -0.0193,0.201141 2.68994,0.183485 4.85938,0.546875 1.1334,0.189853 2.3505,1.145252 2.78125,1.5 0.21538,0.177374 0.37051,0.30068 0.5,0.375 0.055,0.03159 0.10464,0.04668 0.15625,0.0625 -0.002,0.01364 0.002,0.01671 0,0.03125 0.0533,0.003 0.0839,-0.02739 0.125,-0.03125 0.0411,0.0039 0.0717,0.03421 0.125,0.03125 -0.002,-0.01454 0.002,-0.01761 0,-0.03125 0.0516,-0.01582 0.10122,-0.03091 0.15625,-0.0625 0.12949,-0.07432 0.28462,-0.197626 0.5,-0.375 0.43075,-0.354748 1.64785,-1.310147 2.78125,-1.5 2.16944,-0.36339 4.90141,-0.368424 4.85937,-0.546875 -0.042,-0.178451 -3.15868,-0.129015 -5.32812,0.234375 z"
       id="path3174"
       inkscape:connector-curvature="0"
       sodipodi:nodetypes="ssscsssszsscccccccsszs" />
    <path
       style="font-size:medium;font-style:normal;font-variant:normal;font-weight:normal;font-stretch:normal;text-indent:0;text-align:start;text-decoration:none;line-height:normal;letter-spacing:normal;word-spacing:normal;text-transform:none;direction:ltr;block-progression:tb;writing-mode:lr-tb;text-anchor:start;baseline-shift:baseline;color:#000000;fill:#1b2a34;fill-opacity:1;stroke:#1b2a34;stroke-width:0.125;stroke-linecap:round;stroke-linejoin:round;stroke-miterlimit:4;stroke-dasharray:none;marker:none;visibility:visible;display:inline;overflow:visible;enable-background:accumulate;font-family:Sans;-inkscape-font-specification:Sans"
       d="M 26.1875 30.4375 C 26.1875 30.4375 26.087485 34.320815 26.09375 42.9375 L 26.28125 42.9375 C 26.263442 34.193701 26.1875 30.4375 26.1875 30.4375 z "
       id="path4178" />
    <path
       style="fill:#1b2a34;stroke:none"
       d="m 26.1875,33.38646 0.0625,1.84375 c 0.06326,-0.541309 0.298785,-0.519655 0.46875,-0.6875 -0.291131,-0.162036 -0.413036,-0.648378 -0.53125,-1.15625 z m 0,0 c -0.118214,0.507872 -0.240119,0.994214 -0.53125,1.15625 0.169965,0.167845 0.405489,0.146191 0.46875,0.6875 l 0.0625,-1.84375 z"
       id="path4184"
       inkscape:connector-curvature="0" />
    <path
       id="path4189"
       d="m 26.1875,38.360734 0.0625,1.84375 c 0.06326,-0.541309 0.298785,-0.519655 0.46875,-0.6875 -0.291131,-0.162036 -0.413036,-0.648378 -0.53125,-1.15625 z m 0,0 c -0.118214,0.507872 -0.240119,0.994214 -0.53125,1.15625 0.169965,0.167845 0.405489,0.146191 0.46875,0.6875 l 0.0625,-1.84375 z"
       style="fill:#1b2a34;stroke:none"
       inkscape:connector-curvature="0" />
    <g
       id="g4197"
       style="stroke:#1b2a34"
       transform="translate(0,0.50221509)">
      <path
         style="font-size:medium;font-style:normal;font-variant:normal;font-weight:normal;font-stretch:normal;text-indent:0;text-align:start;text-decoration:none;line-height:normal;letter-spacing:normal;word-spacing:normal;text-transform:none;direction:ltr;block-progression:tb;writing-mode:lr-tb;text-anchor:start;baseline-shift:baseline;color:#000000;fill:#1b2a34;fill-opacity:1;stroke:none;stroke-width:0.375;marker:none;visibility:visible;display:inline;overflow:visible;enable-background:accumulate;font-family:Sans;-inkscape-font-specification:Sans"
         d="m 19.068672,33.716937 c -0.194464,0.367171 0.09695,0.747743 0.211897,0.989704 -0.11968,0.234724 -0.125086,0.490396 -0.08114,0.787015 l 0.38084,2.889482 c 0.04627,0.312286 0.128423,0.584591 0.327968,0.826711 -0.10887,0.213391 -0.112067,0.474355 -0.08289,0.755814 l 0.356388,2.452665 0.28081,-0.01572 -0.358135,-2.483866 -0.0017,-0.0312 c -0.01457,-0.211882 0.05455,-0.398141 0.155768,-0.5721 l 0.08662,-0.130045 -0.10059,-0.119565 c -0.196866,-0.201968 -0.343568,-0.449066 -0.38513,-0.729615 l -0.412042,-2.887734 c -0.0401,-0.270661 0.02448,-0.51368 0.148782,-0.696905 l 0.08662,-0.130045 -0.10059,-0.119565 c -0.236629,-0.212566 -0.448626,-0.498065 -0.513429,-0.785031 z"
         id="rect4171"
         inkscape:connector-curvature="0" />
      <path
         style="font-size:medium;font-style:normal;font-variant:normal;font-weight:normal;font-stretch:normal;text-indent:0;text-align:start;text-decoration:none;line-height:normal;letter-spacing:normal;word-spacing:normal;text-transform:none;direction:ltr;block-progression:tb;writing-mode:lr-tb;text-anchor:start;baseline-shift:baseline;color:#000000;fill:#1b2a34;fill-opacity:1;stroke:none;stroke-width:0.37500000000000000;marker:none;visibility:visible;display:inline;overflow:visible;enable-background:accumulate;font-family:Sans;-inkscape-font-specification:Sans"
         d="m 26.153696,27.0625 c -2.545234,0.08581 -5.327197,0.480424 -6.934946,2.1875 2.00966,-1.627791 5.425532,-1.773875 6.966196,-1.8125 0.03429,-0.112228 -0.02417,-0.289996 -0.03125,-0.375 z"
         id="path3078"
         inkscape:connector-curvature="0"
         sodipodi:nodetypes="cccc" />
    </g>
    <use
       x="0"
       y="0"
       xlink:href="#g4197"
       id="use4201"
       transform="matrix(-1,0,0,1,52.34461,-0.00261649)"
       width="52.38813"
       height="43.401779" />
    <path
       style="fill:#1b2a34;stroke:#1b2a34;stroke-width:0.125;stroke-linecap:round;stroke-linejoin:round;stroke-miterlimit:4;stroke-opacity:1;stroke-dasharray:none"
       d="m 8.4092371,26.732936 c 0.586117,1.152985 1.57265,1.259425 2.3342369,1.167118 -0.708251,-0.14962 -1.6259859,-0.465827 -2.3342369,-1.167118 z"
       id="path3858"
       inkscape:connector-curvature="0"
       sodipodi:nodetypes="ccc" />
    <path
       sodipodi:nodetypes="ccc"
       inkscape:connector-curvature="0"
       id="path3860"
       d="m 8.648646,27.959907 c 0.586117,1.152985 1.57265,1.259425 2.334237,1.167118 -0.708251,-0.14962 -1.625986,-0.465827 -2.334237,-1.167118 z"
       style="fill:#1b2a34;stroke:#1b2a34;stroke-width:0.125;stroke-linecap:round;stroke-linejoin:round;stroke-miterlimit:4;stroke-opacity:1;stroke-dasharray:none" />
    <path
       sodipodi:nodetypes="ccc"
       inkscape:connector-curvature="0"
       id="path3862"
       d="m 43.871679,26.732936 c -0.586117,1.152985 -1.57265,1.259425 -2.334237,1.167118 0.708251,-0.14962 1.625986,-0.465827 2.334237,-1.167118 z"
       style="fill:#1b2a34;stroke:#1b2a34;stroke-width:0.125;stroke-linecap:round;stroke-linejoin:round;stroke-miterlimit:4;stroke-opacity:1;stroke-dasharray:none" />
    <path
       style="fill:#1b2a34;stroke:#1b2a34;stroke-width:0.125;stroke-linecap:round;stroke-linejoin:round;stroke-miterlimit:4;stroke-opacity:1;stroke-dasharray:none"
       d="m 43.63227,27.959907 c -0.586117,1.152985 -1.57265,1.259425 -2.334237,1.167118 0.708251,-0.14962 1.625986,-0.465827 2.334237,-1.167118 z"
       id="path3864"
       inkscape:connector-curvature="0"
       sodipodi:nodetypes="ccc" />
  </g>
</svg>
