<?xml version="1.0" encoding="UTF-8" standalone="no"?>
<!-- Created with Inkscape (http://www.inkscape.org/) -->

<svg
   xmlns:dc="http://purl.org/dc/elements/1.1/"
   xmlns:cc="http://creativecommons.org/ns#"
   xmlns:rdf="http://www.w3.org/1999/02/22-rdf-syntax-ns#"
   xmlns:svg="http://www.w3.org/2000/svg"
   xmlns="http://www.w3.org/2000/svg"
   xmlns:xlink="http://www.w3.org/1999/xlink"
   xmlns:sodipodi="http://sodipodi.sourceforge.net/DTD/sodipodi-0.dtd"
   xmlns:inkscape="http://www.inkscape.org/namespaces/inkscape"
   width="52.38813"
   height="43.401779"
   id="svg2"
   version="1.1"
   inkscape:version="0.48.2 r9819"
   sodipodi:docname="male.[Super Heroes].svg">
  <defs
     id="defs4">
    <linearGradient
       inkscape:collect="always"
       id="linearGradient4011">
      <stop
         style="stop-color:#ffffff;stop-opacity:1;"
         offset="0"
         id="stop4013" />
      <stop
         style="stop-color:#ffffff;stop-opacity:0;"
         offset="1"
         id="stop4015" />
    </linearGradient>
    <linearGradient
       inkscape:collect="always"
       id="linearGradient3997">
      <stop
         style="stop-color:#ffffff;stop-opacity:1;"
         offset="0"
         id="stop3999" />
      <stop
         style="stop-color:#ffffff;stop-opacity:0;"
         offset="1"
         id="stop4001" />
    </linearGradient>
    <inkscape:path-effect
       effect="skeletal"
       id="path-effect4237"
       is_visible="true"
       pattern="M 0,5 C 0,2.24 2.24,0 5,0 7.76,0 10,2.24 10,5 10,7.76 7.76,10 5,10 2.24,10 0,7.76 0,5 z"
       copytype="single_stretched"
       prop_scale="1"
       scale_y_rel="false"
       spacing="0"
       normal_offset="0"
       tang_offset="0"
       prop_units="false"
       vertical_pattern="false"
       fuse_tolerance="0" />
    <clipPath
       id="clipPath2999"
       clipPathUnits="userSpaceOnUse">
      <path
         id="path3001"
         d="M 0,792 612,792 612,0 0,0 0,792 z"
         inkscape:connector-curvature="0" />
    </clipPath>
    <radialGradient
       gradientUnits="userSpaceOnUse"
       gradientTransform="matrix(0.75988491,-0.03632001,0.13155835,2.7524547,16.986326,-78.268899)"
       r="12.650181"
       fy="46.658409"
       fx="96.306435"
       cy="46.658409"
       cx="96.306435"
       id="radialGradient3972"
       xlink:href="#linearGradient3966"
       inkscape:collect="always" />
    <clipPath
       clipPathUnits="userSpaceOnUse"
       id="clipPath2999-4">
      <path
         inkscape:connector-curvature="0"
         d="M 0,792 612,792 612,0 0,0 0,792 z"
         id="path3001-0" />
    </clipPath>
    <linearGradient
       id="linearGradient3966">
      <stop
         id="stop3968"
         offset="0"
         style="stop-color:#c0ac02;stop-opacity:1;" />
      <stop
         id="stop3970"
         offset="1"
         style="stop-color:#fdea41;stop-opacity:0;" />
    </linearGradient>
    <radialGradient
       inkscape:collect="always"
       xlink:href="#linearGradient3997"
       id="radialGradient4003"
       cx="165.81134"
       cy="47.693741"
       fx="165.81134"
       fy="47.693741"
       r="3.8123069"
       gradientTransform="matrix(0.64374811,-0.18781617,0.31213841,1.069868,43.640483,27.15595)"
       gradientUnits="userSpaceOnUse" />
    <radialGradient
       inkscape:collect="always"
       xlink:href="#linearGradient3997"
       id="radialGradient4007"
       gradientUnits="userSpaceOnUse"
       gradientTransform="matrix(-0.64374811,-0.18781617,-0.31213841,1.069868,293.73143,27.15595)"
       cx="165.81134"
       cy="47.693741"
       fx="165.81134"
       fy="47.693741"
       r="3.8123069" />
    <radialGradient
       inkscape:collect="always"
       xlink:href="#linearGradient4011"
       id="radialGradient4017"
       cx="169.32254"
       cy="41.784931"
       fx="169.32254"
       fy="41.784931"
       r="6.982676"
       gradientTransform="matrix(0.31036379,-0.01814613,0.03701409,0.63307367,114.75293,21.468668)"
       gradientUnits="userSpaceOnUse" />
    <linearGradient
       id="linearGradient3966-2">
      <stop
         style="stop-color:#c0ac02;stop-opacity:1;"
         offset="0"
         id="stop3968-4" />
      <stop
         style="stop-color:#fdea41;stop-opacity:0;"
         offset="1"
         id="stop3970-5" />
    </linearGradient>
    <clipPath
       id="clipPath2999-4-8"
       clipPathUnits="userSpaceOnUse">
      <path
         id="path3001-0-8"
         d="M 0,792 612,792 612,0 0,0 0,792 z"
         inkscape:connector-curvature="0" />
    </clipPath>
    <radialGradient
       inkscape:collect="always"
       xlink:href="#linearGradient3966-2"
       id="radialGradient3972-4"
       cx="96.306435"
       cy="46.658409"
       fx="96.306435"
       fy="46.658409"
       r="12.650181"
       gradientTransform="matrix(0.75988491,-0.03632001,0.13155835,2.7524547,16.986326,-78.268899)"
       gradientUnits="userSpaceOnUse" />
    <clipPath
       clipPathUnits="userSpaceOnUse"
       id="clipPath2999-0">
      <path
         inkscape:connector-curvature="0"
         d="M 0,792 612,792 612,0 0,0 0,792 z"
         id="path3001-9" />
    </clipPath>
    <inkscape:path-effect
       fuse_tolerance="0"
       vertical_pattern="false"
       prop_units="false"
       tang_offset="0"
       normal_offset="0"
       spacing="0"
       scale_y_rel="false"
       prop_scale="1"
       copytype="single_stretched"
       pattern="M 0,5 C 0,2.24 2.24,0 5,0 7.76,0 10,2.24 10,5 10,7.76 7.76,10 5,10 2.24,10 0,7.76 0,5 z"
       is_visible="true"
       id="path-effect4237-4"
       effect="skeletal" />
  </defs>
  <sodipodi:namedview
     id="base"
     pagecolor="#ffffff"
     bordercolor="#666666"
     borderopacity="1.0"
     inkscape:pageopacity="0.0"
     inkscape:pageshadow="2"
     inkscape:zoom="3.14"
     inkscape:cx="17.762777"
     inkscape:cy="-19.937401"
     inkscape:document-units="px"
     inkscape:current-layer="layer36"
     showgrid="false"
     fit-margin-top="0"
     fit-margin-left="0"
     fit-margin-right="0"
     fit-margin-bottom="0"
     inkscape:window-width="1280"
     inkscape:window-height="968"
     inkscape:window-x="-4"
     inkscape:window-y="-4"
     inkscape:window-maximized="1"
     showguides="true"
     inkscape:guide-bbox="true"
     inkscape:snap-global="false">
    <sodipodi:guide
       orientation="0,1"
       position="11.28133,21.705909"
       id="guide3274" />
    <sodipodi:guide
       orientation="1,0"
       position="26.13159,26.822611"
       id="guide3960" />
  </sodipodi:namedview>
  <metadata
     id="metadata7">
    <rdf:RDF>
      <cc:Work
         rdf:about="">
        <dc:format>image/svg+xml</dc:format>
        <dc:type
           rdf:resource="http://purl.org/dc/dcmitype/StillImage" />
        <dc:title></dc:title>
      </cc:Work>
    </rdf:RDF>
  </metadata>
  <g
     inkscape:groupmode="layer"
     id="layer36"
     inkscape:label="torso"
     transform="translate(-142.76812,-31.473222)"
     style="display:inline">
    <path
       inkscape:connector-curvature="0"
       d="m 142.96875,74.54469 c 8.73249,-47.29375 5.3425,-42.67875 14.26749,-42.85625 l 23.44001,0 c 8.92625,0.1775 5.535,-4.4375 14.265,42.85625 l -51.9725,0 z"
       style="display:inline;fill:none;stroke:#231f20;stroke-width:0.31250000000000000;stroke-linecap:butt;stroke-linejoin:miter;stroke-miterlimit:4;stroke-opacity:1;stroke-dasharray:none"
       id="path4150" />
    <path
       inkscape:connector-curvature="0"
       id="path4079"
       d="m 152.11234,52.059471 c -6.44056,11.249345 -3.22028,5.624674 0,0 z m 22.17872,-1.792511 c -0.15894,-0.05594 -0.64658,-0.139749 -1.08365,-0.186246 -0.43708,-0.04649 -1.52588,-0.226108 -2.41955,-0.399138 l -1.62488,-0.3146 -0.68691,0.05732 c -0.37781,0.03153 -1.36962,0.174706 -2.20403,0.318182 -0.83441,0.143478 -2.23232,0.307994 -3.10646,0.365588 l -1.58936,0.10472 -1.87833,-0.151068 c -2.07494,-0.166883 -2.50128,-0.23272 -6.08486,-0.939671 l -2.4727,-0.487796 -0.8505,-0.345274 -0.8505,-0.345272 -0.54183,-0.515001 -0.54182,-0.515002 0,-0.479789 0,-0.479789 0.19211,-0.136639 0.1921,-0.136635 0.42197,0.349711 c 0.71234,0.590374 1.52654,0.977325 2.73375,1.299217 2.53523,0.675999 3.24148,0.836628 4.76806,1.084449 l 1.58935,0.258009 2.74525,0.06093 2.74525,0.06093 1.0432,-0.189442 c 1.36617,-0.24809 2.26878,-0.59917 2.57705,-1.002369 0.41258,-0.539642 0.6395,-1.645209 0.71303,-3.473971 0.0383,-0.953466 0.10283,-2.040048 0.14329,-2.414624 0.0405,-0.374577 0.0214,-1.697656 -0.0423,-2.940179 l -0.11595,-2.259141 -0.42733,-0.526974 -0.42732,-0.526975 -0.93714,-0.392199 c -1.19827,-0.501488 -2.26489,-0.869777 -2.81545,-0.972135 -1.33436,-0.248079 -3.35692,-0.443679 -4.62358,-0.447146 -1.41673,-0.0039 -4.34828,0.218008 -4.59303,0.347641 -0.18889,0.100043 -2.88383,0.658964 -3.17734,0.658964 -0.32563,0 -0.47783,-0.320561 -0.25933,-0.546194 0.51498,-0.531785 4.11491,-1.269327 6.80156,-1.393482 l 1.51711,-0.07011 1.80609,0.149111 c 0.99334,0.08201 2.17994,0.178715 2.63688,0.214899 l 0.8308,0.06579 0,-0.379055 c 0,-0.208481 0.0708,-0.416565 0.15737,-0.462409 l 0.15737,-0.08335 0.60118,0.386909 c 0.88643,0.570483 2.40899,1.421576 2.9713,1.660917 0.68852,0.29306 1.01306,0.263769 1.79674,-0.162159 0.37592,-0.204315 0.7136,-0.371481 0.75038,-0.371481 0.0368,0 0.37589,-0.186705 0.75354,-0.414901 0.94007,-0.568032 1.89386,-1.006407 1.99712,-0.91791 0.0471,0.04033 0.009,0.19553 -0.084,0.344884 l -0.16958,0.271554 0.15831,0.135672 0.15831,0.135674 1.04709,-0.15533 c 0.57591,-0.08543 2.15242,-0.18685 3.50337,-0.225374 l 2.45628,-0.07004 1.0114,0.135185 c 2.0423,0.272974 3.63263,0.610963 4.4457,0.944832 0.92425,0.379526 1.08233,0.514171 0.84375,0.71864 l -0.16142,0.138333 -1.26363,-0.202356 c -0.69499,-0.111295 -1.68625,-0.289313 -2.20279,-0.395594 l -0.93917,-0.193236 -2.60328,-0.08159 -2.60329,-0.08159 -1.51459,0.210509 c -2.5518,0.354668 -4.47025,1.014463 -5.24547,1.804021 l -0.3659,0.372671 -0.18666,0.713243 -0.18665,0.713243 0.01,2.600364 c 0.0176,4.64989 0.0402,5.186489 0.26283,6.244523 l 0.21965,1.043791 0.37638,0.336687 c 0.46521,0.416139 1.22151,0.663859 2.78655,0.912717 l 1.20798,0.192083 1.82625,-0.0076 c 2.45028,-0.01024 5.02219,-0.27731 7.14404,-0.741748 0.65126,-0.142552 1.57422,-0.343424 2.05103,-0.446384 1.21628,-0.262647 2.27664,-0.702947 2.95182,-1.225708 0.31747,-0.245802 0.64468,-0.411176 0.72714,-0.367496 0.22372,0.11849 0.18132,0.651736 -0.0909,1.143352 l -0.24082,0.43493 -0.66222,0.413237 c -0.73046,0.455819 -2.01623,0.921293 -2.54487,0.921293 -0.18691,0 -0.38002,0.05573 -0.42913,0.123829 -0.0491,0.06811 -0.26427,0.123681 -0.47811,0.123504 -0.21385,-1.25e-4 -0.81144,0.07936 -1.32798,0.176734 -3.54622,0.668559 -8.38185,1.102547 -9.17491,0.823426 z"
       style="display:inline;fill:#b68012;fill-opacity:1"
       sodipodi:nodetypes="cccssccsscsscccccccccssscccssscscccssccssscsscsccssssscccccsscssccsscccssccccscsscsssscscssccccc" />
    <path
       style="display:inline;font-size:medium;font-style:normal;font-variant:normal;font-weight:normal;font-stretch:normal;text-indent:0;text-align:start;text-decoration:none;line-height:normal;letter-spacing:normal;word-spacing:normal;text-transform:none;direction:ltr;block-progression:tb;writing-mode:lr-tb;text-anchor:start;baseline-shift:baseline;color:#000000;fill:#b68012;fill-opacity:1;stroke:none;stroke-width:1px;marker:none;visibility:visible;overflow:visible;enable-background:accumulate;font-family:Sans;-inkscape-font-specification:Sans"
       d="m 168.264,53.005499 c -4.17,-0.04409 -8.34256,0.879228 -12.5,2.90625 -1.65135,0.856633 -3.46114,2.510864 0.4375,0.875 8.05811,-3.92885 16.07197,-3.564343 24.15625,0.03125 2.57877,1.421072 2.48077,0.577107 0.40625,-0.9375 -4.14435,-1.843254 -8.33,-2.830914 -12.5,-2.875 z"
       id="path4093"
       inkscape:connector-curvature="0"
       sodipodi:nodetypes="sccccs" />
  </g>
</svg>
