<?xml version="1.0" encoding="UTF-8" standalone="no"?>
<!-- Created with Inkscape (http://www.inkscape.org/) -->

<svg
   xmlns:dc="http://purl.org/dc/elements/1.1/"
   xmlns:cc="http://creativecommons.org/ns#"
   xmlns:rdf="http://www.w3.org/1999/02/22-rdf-syntax-ns#"
   xmlns:svg="http://www.w3.org/2000/svg"
   xmlns="http://www.w3.org/2000/svg"
   xmlns:xlink="http://www.w3.org/1999/xlink"
   xmlns:sodipodi="http://sodipodi.sourceforge.net/DTD/sodipodi-0.dtd"
   xmlns:inkscape="http://www.inkscape.org/namespaces/inkscape"
   width="52.38813"
   height="43.401779"
   id="svg2"
   version="1.1"
   inkscape:version="0.48.2 r9819"
   sodipodi:docname="male.[CMF3 Sumo]">
  <defs
     id="defs4">
    <linearGradient
       inkscape:collect="always"
       id="linearGradient4011">
      <stop
         style="stop-color:#ffffff;stop-opacity:1;"
         offset="0"
         id="stop4013" />
      <stop
         style="stop-color:#ffffff;stop-opacity:0;"
         offset="1"
         id="stop4015" />
    </linearGradient>
    <linearGradient
       inkscape:collect="always"
       id="linearGradient3997">
      <stop
         style="stop-color:#ffffff;stop-opacity:1;"
         offset="0"
         id="stop3999" />
      <stop
         style="stop-color:#ffffff;stop-opacity:0;"
         offset="1"
         id="stop4001" />
    </linearGradient>
    <inkscape:path-effect
       effect="skeletal"
       id="path-effect4237"
       is_visible="true"
       pattern="M 0,5 C 0,2.24 2.24,0 5,0 7.76,0 10,2.24 10,5 10,7.76 7.76,10 5,10 2.24,10 0,7.76 0,5 z"
       copytype="single_stretched"
       prop_scale="1"
       scale_y_rel="false"
       spacing="0"
       normal_offset="0"
       tang_offset="0"
       prop_units="false"
       vertical_pattern="false"
       fuse_tolerance="0" />
    <clipPath
       id="clipPath2999"
       clipPathUnits="userSpaceOnUse">
      <path
         id="path3001"
         d="M 0,792 612,792 612,0 0,0 0,792 z"
         inkscape:connector-curvature="0" />
    </clipPath>
    <radialGradient
       gradientUnits="userSpaceOnUse"
       gradientTransform="matrix(0.75988491,-0.03632001,0.13155835,2.7524547,16.986326,-78.268899)"
       r="12.650181"
       fy="46.658409"
       fx="96.306435"
       cy="46.658409"
       cx="96.306435"
       id="radialGradient3972"
       xlink:href="#linearGradient3966"
       inkscape:collect="always" />
    <clipPath
       clipPathUnits="userSpaceOnUse"
       id="clipPath2999-4">
      <path
         inkscape:connector-curvature="0"
         d="M 0,792 612,792 612,0 0,0 0,792 z"
         id="path3001-0" />
    </clipPath>
    <linearGradient
       id="linearGradient3966">
      <stop
         id="stop3968"
         offset="0"
         style="stop-color:#c0ac02;stop-opacity:1;" />
      <stop
         id="stop3970"
         offset="1"
         style="stop-color:#fdea41;stop-opacity:0;" />
    </linearGradient>
    <radialGradient
       inkscape:collect="always"
       xlink:href="#linearGradient3997"
       id="radialGradient4003"
       cx="165.81134"
       cy="47.693741"
       fx="165.81134"
       fy="47.693741"
       r="3.8123069"
       gradientTransform="matrix(0.64374811,-0.18781617,0.31213841,1.069868,43.640483,27.15595)"
       gradientUnits="userSpaceOnUse" />
    <radialGradient
       inkscape:collect="always"
       xlink:href="#linearGradient3997"
       id="radialGradient4007"
       gradientUnits="userSpaceOnUse"
       gradientTransform="matrix(-0.64374811,-0.18781617,-0.31213841,1.069868,293.73143,27.15595)"
       cx="165.81134"
       cy="47.693741"
       fx="165.81134"
       fy="47.693741"
       r="3.8123069" />
    <radialGradient
       inkscape:collect="always"
       xlink:href="#linearGradient4011"
       id="radialGradient4017"
       cx="169.32254"
       cy="41.784931"
       fx="169.32254"
       fy="41.784931"
       r="6.982676"
       gradientTransform="matrix(0.31036379,-0.01814613,0.03701409,0.63307367,114.75293,21.468668)"
       gradientUnits="userSpaceOnUse" />
    <linearGradient
       id="linearGradient3966-2">
      <stop
         style="stop-color:#c0ac02;stop-opacity:1;"
         offset="0"
         id="stop3968-4" />
      <stop
         style="stop-color:#fdea41;stop-opacity:0;"
         offset="1"
         id="stop3970-5" />
    </linearGradient>
    <clipPath
       id="clipPath2999-4-8"
       clipPathUnits="userSpaceOnUse">
      <path
         id="path3001-0-8"
         d="M 0,792 612,792 612,0 0,0 0,792 z"
         inkscape:connector-curvature="0" />
    </clipPath>
    <radialGradient
       inkscape:collect="always"
       xlink:href="#linearGradient3966-2"
       id="radialGradient3972-4"
       cx="96.306435"
       cy="46.658409"
       fx="96.306435"
       fy="46.658409"
       r="12.650181"
       gradientTransform="matrix(0.75988491,-0.03632001,0.13155835,2.7524547,16.986326,-78.268899)"
       gradientUnits="userSpaceOnUse" />
    <clipPath
       clipPathUnits="userSpaceOnUse"
       id="clipPath2999-0">
      <path
         inkscape:connector-curvature="0"
         d="M 0,792 612,792 612,0 0,0 0,792 z"
         id="path3001-9" />
    </clipPath>
    <inkscape:path-effect
       fuse_tolerance="0"
       vertical_pattern="false"
       prop_units="false"
       tang_offset="0"
       normal_offset="0"
       spacing="0"
       scale_y_rel="false"
       prop_scale="1"
       copytype="single_stretched"
       pattern="M 0,5 C 0,2.24 2.24,0 5,0 7.76,0 10,2.24 10,5 10,7.76 7.76,10 5,10 2.24,10 0,7.76 0,5 z"
       is_visible="true"
       id="path-effect4237-4"
       effect="skeletal" />
  </defs>
  <sodipodi:namedview
     id="base"
     pagecolor="#ffffff"
     bordercolor="#666666"
     borderopacity="1.0"
     inkscape:pageopacity="0.0"
     inkscape:pageshadow="2"
     inkscape:zoom="3.14"
     inkscape:cx="17.762777"
     inkscape:cy="-19.937401"
     inkscape:document-units="px"
     inkscape:current-layer="layer36"
     showgrid="false"
     fit-margin-top="0"
     fit-margin-left="0"
     fit-margin-right="0"
     fit-margin-bottom="0"
     inkscape:window-width="1280"
     inkscape:window-height="968"
     inkscape:window-x="-4"
     inkscape:window-y="-4"
     inkscape:window-maximized="1"
     showguides="true"
     inkscape:guide-bbox="true"
     inkscape:snap-global="false">
    <sodipodi:guide
       orientation="0,1"
       position="11.28133,21.705909"
       id="guide3274" />
    <sodipodi:guide
       orientation="1,0"
       position="26.13159,26.822611"
       id="guide3960" />
  </sodipodi:namedview>
  <metadata
     id="metadata7">
    <rdf:RDF>
      <cc:Work
         rdf:about="">
        <dc:format>image/svg+xml</dc:format>
        <dc:type
           rdf:resource="http://purl.org/dc/dcmitype/StillImage" />
        <dc:title></dc:title>
      </cc:Work>
    </rdf:RDF>
  </metadata>
  <g
     inkscape:groupmode="layer"
     id="layer36"
     inkscape:label="torso"
     transform="translate(-142.76812,-31.473222)"
     style="display:inline">
    <path
       style="display:inline;fill:#fe0901;fill-opacity:1;stroke:none"
       d="m 168.955,58.80253 c 0.84645,-0.258319 3.194,-1.372595 9.60419,-0.202194 -3.17993,-2.889102 -8.31696,-1.475896 -9.60794,-1.415355 -0.63176,-0.03176 -2.15129,-0.376568 -3.92405,-0.396899 -1.88358,-0.02159 -4.04133,0.326723 -5.6764,1.812254 6.41019,-1.170401 8.75774,-0.05612 9.6042,0.202194 z m 0,-11.420195 c -0.29135,2.487611 -0.9226,3.172057 -1.8834,3.05537 l -14.04871,-0.614068 c -1.66586,-0.152601 -2.61013,-1.593071 -3.31747,-2.61354 -0.32491,2.388381 1.13462,4.056678 2.9655,4.27602 l 14.13858,0.262103 c 1.09493,0.0071 1.87696,-0.115654 2.14175,-1.340468 0.26448,1.226187 1.05388,1.347599 2.14925,1.340468 l 14.13857,-0.262103 c 1.83089,-0.219342 3.29042,-1.887639 2.96551,-4.27602 -0.70734,1.020469 -1.65162,2.460939 -3.31747,2.61354 l -14.04872,0.614068 c -0.9608,0.116687 -1.59204,-0.567759 -1.88339,-3.05537 z m 0,-11.607409 c -4.32505,-1.773225 -7.97872,-2.338102 -10.68256,-2.276551 -3.06436,0.06976 -5.08006,0.942521 -6.03586,1.752345 9.37665,-2.24215 13.1209,0.678936 16.71842,2.179197 3.59752,-1.500261 7.34176,-4.421347 16.71841,-2.179197 -1.01202,-0.857461 -3.20749,-1.781216 -6.58252,-1.752345 -2.62503,0.02246 -6.09918,0.621542 -10.13589,2.276551 z M 156.77471,60.57734 c -0.35687,0.02748 0.37953,5.775528 0.15726,8.012858 -0.2285,2.30002 -1.05559,4.171766 -1.46778,6.11074 l 3.05537,0 c -0.20779,-0.813942 -0.28052,-1.525545 -0.1947,-2.119289 0.11811,-0.817276 1.33631,-1.480785 1.32549,-1.714901 -0.0108,-0.234116 -1.39129,-2.085852 -1.34796,-3.077836 0.0453,-1.036965 1.21455,-2.796047 1.26558,-3.032904 0.051,-0.236857 -0.13385,-0.200279 -0.62904,-0.951058 l -2.08185,-3.152722 c -0.0342,-0.05178 -0.0586,-0.07672 -0.0824,-0.07489 z m 24.36058,0 c -0.0238,-0.0019 -0.0482,0.0231 -0.0824,0.07489 l -2.08185,3.152722 c -0.49519,0.75078 -0.68008,0.714202 -0.62904,0.951058 0.051,0.236858 1.22028,1.995941 1.26558,3.032905 0.0433,0.991984 -1.33713,2.843719 -1.34796,3.077836 -0.0109,0.234115 1.20738,0.897625 1.32549,1.714901 0.0858,0.593743 0.0131,1.305346 -0.1947,2.119288 l 3.05537,0 c -0.41219,-1.938974 -1.23928,-3.81072 -1.46778,-6.11074 -0.22227,-2.237329 0.51413,-7.985371 0.15726,-8.012857 z m -12.40534,1.94705 c -0.14134,0.498895 -0.15698,1.753739 -0.55003,2.044402 -1.22682,0.907257 -4.58913,0.07778 -4.68789,0.531694 -0.0988,0.453914 4.71335,0.253665 4.75529,0.913615 0,0 0.26169,3.615562 0.0449,4.238578 -0.15633,0.449333 -4.97235,0.297444 -4.97246,0.958547 -1.2e-4,0.661104 3.42707,-0.524026 5.09228,0.981013 0.42685,0.385791 0.27267,1.512912 0.41936,1.969515 -0.0172,-0.0081 -0.0159,0.164519 0.11982,0.172252 0.13575,0.0078 0.14051,-0.155448 0.12731,-0.172252 0.14669,-0.456603 -0.007,-1.583724 0.41936,-1.969515 1.66521,-1.505039 5.0924,-0.319909 5.09229,-0.981013 -1.2e-4,-0.661103 -4.81614,-0.509214 -4.97247,-0.958547 -0.21675,-0.623016 0.0449,-4.238578 0.0449,-4.238578 0.0419,-0.65995 4.85406,-0.459701 4.7553,-0.913615 -0.0988,-0.453913 -3.46108,0.375563 -4.6879,-0.531694 -0.39305,-0.290663 -0.30096,-1.514726 -0.44229,-2.013621 -0.004,-0.0065 -0.0857,-0.283756 -0.33653,-0.232975 -0.25079,0.05079 -0.20474,0.152486 -0.22131,0.202194 z m -19.99057,1.003479 c 0.28002,3.497123 -0.0334,7.035798 -0.60658,10.82859 l 2.61354,0.08987 c -0.37961,-3.65795 -0.18398,-8.844961 -2.00696,-10.91846 z m 40.43123,0 c -1.82297,2.073499 -1.62734,7.26051 -2.00696,10.918454 l 2.61354,-0.08987 c -0.57319,-3.79279 -0.8866,-7.331464 -0.60658,-10.828587 z"
       id="path2856"
       sodipodi:nodetypes="cccccccccccccccccccccccccccsccssssccccccssssccsccsscsssczcssscssczccccccccc"
       inkscape:connector-curvature="0" />
    <path
       inkscape:connector-curvature="0"
       d="m 142.96875,74.54469 c 8.73249,-47.29375 5.3425,-42.67875 14.26749,-42.85625 l 23.44001,0 c 8.92625,0.1775 5.535,-4.4375 14.265,42.85625 l -51.9725,0 z"
       style="display:inline;fill:none;stroke:#231f20;stroke-width:0.31250000000000000;stroke-linecap:butt;stroke-linejoin:miter;stroke-miterlimit:4;stroke-opacity:1;stroke-dasharray:none"
       id="path4150" />
  </g>
</svg>
