<?xml version="1.0" encoding="UTF-8" standalone="no"?>
<!-- Created with Inkscape (http://www.inkscape.org/) -->

<svg
   xmlns:dc="http://purl.org/dc/elements/1.1/"
   xmlns:cc="http://creativecommons.org/ns#"
   xmlns:rdf="http://www.w3.org/1999/02/22-rdf-syntax-ns#"
   xmlns:svg="http://www.w3.org/2000/svg"
   xmlns="http://www.w3.org/2000/svg"
   xmlns:xlink="http://www.w3.org/1999/xlink"
   xmlns:sodipodi="http://sodipodi.sourceforge.net/DTD/sodipodi-0.dtd"
   xmlns:inkscape="http://www.inkscape.org/namespaces/inkscape"
   width="52.38813"
   height="43.401779"
   id="svg2"
   version="1.1"
   inkscape:version="0.48.2 r9819"
   sodipodi:docname="male.[CMF7 Boxer].svg">
  <defs
     id="defs4">
    <linearGradient
       inkscape:collect="always"
       id="linearGradient4011">
      <stop
         style="stop-color:#ffffff;stop-opacity:1;"
         offset="0"
         id="stop4013" />
      <stop
         style="stop-color:#ffffff;stop-opacity:0;"
         offset="1"
         id="stop4015" />
    </linearGradient>
    <linearGradient
       inkscape:collect="always"
       id="linearGradient3997">
      <stop
         style="stop-color:#ffffff;stop-opacity:1;"
         offset="0"
         id="stop3999" />
      <stop
         style="stop-color:#ffffff;stop-opacity:0;"
         offset="1"
         id="stop4001" />
    </linearGradient>
    <inkscape:path-effect
       effect="skeletal"
       id="path-effect4237"
       is_visible="true"
       pattern="M 0,5 C 0,2.24 2.24,0 5,0 7.76,0 10,2.24 10,5 10,7.76 7.76,10 5,10 2.24,10 0,7.76 0,5 z"
       copytype="single_stretched"
       prop_scale="1"
       scale_y_rel="false"
       spacing="0"
       normal_offset="0"
       tang_offset="0"
       prop_units="false"
       vertical_pattern="false"
       fuse_tolerance="0" />
    <clipPath
       id="clipPath2999"
       clipPathUnits="userSpaceOnUse">
      <path
         id="path3001"
         d="M 0,792 612,792 612,0 0,0 0,792 z"
         inkscape:connector-curvature="0" />
    </clipPath>
    <radialGradient
       gradientUnits="userSpaceOnUse"
       gradientTransform="matrix(0.75988491,-0.03632001,0.13155835,2.7524547,16.986326,-78.268899)"
       r="12.650181"
       fy="46.658409"
       fx="96.306435"
       cy="46.658409"
       cx="96.306435"
       id="radialGradient3972"
       xlink:href="#linearGradient3966"
       inkscape:collect="always" />
    <clipPath
       clipPathUnits="userSpaceOnUse"
       id="clipPath2999-4">
      <path
         inkscape:connector-curvature="0"
         d="M 0,792 612,792 612,0 0,0 0,792 z"
         id="path3001-0" />
    </clipPath>
    <linearGradient
       id="linearGradient3966">
      <stop
         id="stop3968"
         offset="0"
         style="stop-color:#c0ac02;stop-opacity:1;" />
      <stop
         id="stop3970"
         offset="1"
         style="stop-color:#fdea41;stop-opacity:0;" />
    </linearGradient>
    <radialGradient
       inkscape:collect="always"
       xlink:href="#linearGradient3997"
       id="radialGradient4003"
       cx="165.81134"
       cy="47.693741"
       fx="165.81134"
       fy="47.693741"
       r="3.8123069"
       gradientTransform="matrix(0.64374811,-0.18781617,0.31213841,1.069868,43.640483,27.15595)"
       gradientUnits="userSpaceOnUse" />
    <radialGradient
       inkscape:collect="always"
       xlink:href="#linearGradient3997"
       id="radialGradient4007"
       gradientUnits="userSpaceOnUse"
       gradientTransform="matrix(-0.64374811,-0.18781617,-0.31213841,1.069868,293.73143,27.15595)"
       cx="165.81134"
       cy="47.693741"
       fx="165.81134"
       fy="47.693741"
       r="3.8123069" />
    <radialGradient
       inkscape:collect="always"
       xlink:href="#linearGradient4011"
       id="radialGradient4017"
       cx="169.32254"
       cy="41.784931"
       fx="169.32254"
       fy="41.784931"
       r="6.982676"
       gradientTransform="matrix(0.31036379,-0.01814613,0.03701409,0.63307367,114.75293,21.468668)"
       gradientUnits="userSpaceOnUse" />
    <linearGradient
       id="linearGradient3966-2">
      <stop
         style="stop-color:#c0ac02;stop-opacity:1;"
         offset="0"
         id="stop3968-4" />
      <stop
         style="stop-color:#fdea41;stop-opacity:0;"
         offset="1"
         id="stop3970-5" />
    </linearGradient>
    <clipPath
       id="clipPath2999-4-8"
       clipPathUnits="userSpaceOnUse">
      <path
         id="path3001-0-8"
         d="M 0,792 612,792 612,0 0,0 0,792 z"
         inkscape:connector-curvature="0" />
    </clipPath>
    <radialGradient
       inkscape:collect="always"
       xlink:href="#linearGradient3966-2"
       id="radialGradient3972-4"
       cx="96.306435"
       cy="46.658409"
       fx="96.306435"
       fy="46.658409"
       r="12.650181"
       gradientTransform="matrix(0.75988491,-0.03632001,0.13155835,2.7524547,16.986326,-78.268899)"
       gradientUnits="userSpaceOnUse" />
    <clipPath
       clipPathUnits="userSpaceOnUse"
       id="clipPath2999-0">
      <path
         inkscape:connector-curvature="0"
         d="M 0,792 612,792 612,0 0,0 0,792 z"
         id="path3001-9" />
    </clipPath>
    <inkscape:path-effect
       fuse_tolerance="0"
       vertical_pattern="false"
       prop_units="false"
       tang_offset="0"
       normal_offset="0"
       spacing="0"
       scale_y_rel="false"
       prop_scale="1"
       copytype="single_stretched"
       pattern="M 0,5 C 0,2.24 2.24,0 5,0 7.76,0 10,2.24 10,5 10,7.76 7.76,10 5,10 2.24,10 0,7.76 0,5 z"
       is_visible="true"
       id="path-effect4237-4"
       effect="skeletal" />
  </defs>
  <sodipodi:namedview
     id="base"
     pagecolor="#ffffff"
     bordercolor="#666666"
     borderopacity="1.0"
     inkscape:pageopacity="0.0"
     inkscape:pageshadow="2"
     inkscape:zoom="3.14"
     inkscape:cx="17.762777"
     inkscape:cy="-19.937401"
     inkscape:document-units="px"
     inkscape:current-layer="layer36"
     showgrid="false"
     fit-margin-top="0"
     fit-margin-left="0"
     fit-margin-right="0"
     fit-margin-bottom="0"
     inkscape:window-width="1280"
     inkscape:window-height="968"
     inkscape:window-x="-4"
     inkscape:window-y="-4"
     inkscape:window-maximized="1"
     showguides="true"
     inkscape:guide-bbox="true"
     inkscape:snap-global="false">
    <sodipodi:guide
       orientation="0,1"
       position="11.28133,21.705909"
       id="guide3274" />
    <sodipodi:guide
       orientation="1,0"
       position="26.13159,26.822611"
       id="guide3960" />
  </sodipodi:namedview>
  <metadata
     id="metadata7">
    <rdf:RDF>
      <cc:Work
         rdf:about="">
        <dc:format>image/svg+xml</dc:format>
        <dc:type
           rdf:resource="http://purl.org/dc/dcmitype/StillImage" />
        <dc:title></dc:title>
      </cc:Work>
    </rdf:RDF>
  </metadata>
  <g
     inkscape:groupmode="layer"
     id="layer36"
     inkscape:label="torso"
     transform="translate(-142.76812,-31.473222)"
     style="display:inline">
    <path
       inkscape:connector-curvature="0"
       d="m 142.96875,74.54469 c 8.73249,-47.29375 5.3425,-42.67875 14.26749,-42.85625 l 23.44001,0 c 8.92625,0.1775 5.535,-4.4375 14.265,42.85625 l -51.9725,0 z"
       style="display:inline;fill:none;stroke:#231f20;stroke-width:0.31250000000000000;stroke-linecap:butt;stroke-linejoin:miter;stroke-miterlimit:4;stroke-opacity:1;stroke-dasharray:none"
       id="path4150" />
    <path
       style="display:inline;fill:#b68012;fill-opacity:1"
       d="m 187.877,74.57356 -0.50571,-0.08935 -0.0439,-1.300384 c -0.0794,-2.352186 0.28755,-5.389959 0.7981,-6.607031 l 0.22593,-0.53859 0.28653,-0.09094 0.28653,-0.09094 0.11481,0.185753 c 0.0631,0.102167 0.1141,2.092205 0.11325,4.422309 l -10e-4,4.236553 -0.38414,-0.01902 c -0.21128,-0.01041 -0.61172,-0.05922 -0.88985,-0.108359 z m -39.41092,-0.192897 -0.15672,-0.188834 0.12824,-1.876624 c 0.0705,-1.032141 0.13441,-2.72187 0.14194,-3.754948 0.008,-1.033082 0.0597,-2.137706 0.11593,-2.45472 l 0.10223,-0.576392 0.25382,-0.04888 0.25383,-0.04888 0.27588,0.625274 c 0.15174,0.343901 0.35836,1.080408 0.45915,1.636683 l 0.18326,1.011406 0.007,2.889735 0.007,2.889737 -0.80769,0.04264 -0.8077,0.04264 -0.15672,-0.188834 z m 8.59357,-0.07938 -0.24362,-0.269195 -0.23536,-1.614353 -0.23537,-1.614353 0.14579,-1.410535 0.14578,-1.410535 -0.18524,-0.361218 c -0.10189,-0.198668 -0.31947,-0.816353 -0.48351,-1.372624 l -0.29825,-1.011415 -0.15767,-1.878327 c -0.0867,-1.03308 -0.22987,-2.138403 -0.31812,-2.456278 -0.0882,-0.31787 -0.16662,-1.270737 -0.17415,-2.117487 l -0.0137,-1.53954 0.44627,-0.555516 c 0.54972,-0.684296 1.60688,-1.426744 3.31039,-2.324896 l 1.30038,-0.685609 2.31179,0.0031 2.31179,0.0031 1.64838,0.269922 1.64838,0.269925 0.4828,-0.174584 0.4828,-0.174584 0.49191,0.177882 0.49192,0.177882 1.82966,-0.255739 1.82966,-0.255734 1.68105,0.0139 c 2.09306,0.0173 2.45522,0.08193 3.73625,0.666733 1.14869,0.524383 2.29663,1.333115 3.14732,2.217313 l 0.56518,0.58744 0.11531,0.836909 c 0.12508,0.907824 0.0557,1.666946 -0.23488,2.570752 -0.10221,0.317875 -0.22973,1.228139 -0.28339,2.022816 -0.16173,2.395272 -0.38071,3.420024 -1.07461,5.028707 l -0.29939,0.694104 0.17037,0.993533 0.17037,0.993535 -0.17571,1.685716 -0.17572,1.685717 -0.22099,0.42735 -0.22099,0.427349 -0.60626,-0.04405 -0.60626,-0.04404 0.0251,-0.288974 c 0.0138,-0.158936 0.0943,-0.549051 0.17899,-0.866921 0.0847,-0.317871 0.19547,-1.228139 0.24624,-2.022815 l 0.0923,-1.444869 -0.2722,-0.333491 -0.2722,-0.333495 -0.93826,0.146822 c -1.24791,0.195277 -4.22027,0.457016 -5.92305,0.52157 -0.75494,0.02862 -1.63089,0.137542 -1.94656,0.242047 l -0.57393,0.19001 -0.18249,0.361214 -0.18249,0.361218 -0.002,1.464985 -0.002,1.464981 -0.26183,0.323333 -0.26182,0.323338 -0.3244,-0.102963 c -0.4628,-0.146882 -0.59693,-0.633052 -0.59693,-2.163244 l 0,-1.343731 -0.29673,-0.377227 -0.29672,-0.377224 -0.53408,-0.14988 c -0.29374,-0.08244 -1.73692,-0.249542 -3.20707,-0.371349 -1.47016,-0.121808 -3.04387,-0.258784 -3.49714,-0.304394 -1.01337,-0.101975 -1.37829,-0.01512 -1.87038,0.445229 l -0.38272,0.358023 -0.0926,0.694019 -0.0926,0.694021 0.16092,0.939167 c 0.0885,0.516537 0.17237,1.166729 0.18637,1.444867 l 0.0255,0.505704 -0.44085,0.04313 -0.44084,0.04314 -0.24362,-0.269198 z m 10.12618,-5.798098 c 0.10295,-0.0084 0.34677,-0.174764 0.54182,-0.369821 l 0.35465,-0.354647 0,-1.852747 0,-1.85275 -0.23131,-0.330242 c -0.40958,-0.584757 -0.65047,-0.620812 -5.47591,-0.819664 -1.11255,-0.04585 -2.56168,-0.151867 -3.2203,-0.235602 -1.42625,-0.181331 -1.80318,-0.109592 -2.02907,0.386191 l -0.16963,0.372285 0.0882,0.823194 c 0.0485,0.452757 0.18789,1.180213 0.30972,1.616574 l 0.22151,0.79338 0.45072,0.450717 0.45071,0.450713 1.29887,0.29724 c 0.71438,0.163485 2.11161,0.372104 3.10496,0.463605 0.99335,0.0915 1.93612,0.178585 2.09506,0.193526 0.26646,0.02506 1.77596,0.0031 2.20999,-0.03196 z m 9.14062,-0.233009 c 1.88734,-0.248927 2.19972,-0.320302 2.97862,-0.680564 l 0.60299,-0.278898 0.35454,-0.89234 0.35453,-0.89234 0.10076,-1.237644 0.10075,-1.237642 -0.21457,-0.178082 -0.21458,-0.178081 -0.91595,0.0672 c -0.50378,0.03697 -1.37108,0.105275 -1.92736,0.15184 -0.55627,0.04656 -2.31179,0.106817 -3.90115,0.133919 l -2.88973,0.04928 -0.46427,0.240293 -0.46428,0.240292 -0.15135,0.562084 -0.15135,0.562079 0.0508,1.351406 0.0509,1.351402 0.23967,0.462399 c 0.13183,0.25432 0.35347,0.533831 0.49253,0.621134 l 0.25286,0.158728 2.07405,-0.08485 c 1.14073,-0.04667 2.77944,-0.17789 3.64158,-0.291599 z m -9.13557,-6.842286 c 0.34413,-0.07132 0.68622,-0.19019 0.76018,-0.26416 0.074,-0.07397 0.15828,-1.157231 0.18734,-2.407248 l 0.0529,-2.272755 -0.23508,-0.270704 c -0.33272,-0.38314 -1.64469,-0.716503 -4.01895,-1.021188 l -2.05002,-0.263076 -0.78675,0.106766 -0.78676,0.106765 -1.02878,0.611188 c -0.56583,0.336155 -1.38887,0.949492 -1.82898,1.362971 l -0.80019,0.751783 -0.0783,0.722436 -0.0783,0.722432 0.19276,0.564147 c 0.10602,0.310281 0.35812,0.686804 0.56023,0.836719 0.48579,0.360318 1.80194,0.694769 3.31693,0.842869 1.44274,0.141035 5.72117,0.05772 6.6219,-0.128942 z m 12.52041,-0.130676 1.00921,-0.302527 0.25505,-0.314977 0.25505,-0.314976 0,-1.200957 0,-1.200958 -0.8308,-0.697487 c -0.45694,-0.383611 -0.86331,-0.736526 -0.90304,-0.784244 -0.16882,-0.202765 -1.41277,-0.931361 -1.87833,-1.100169 -0.27813,-0.100844 -1.02585,-0.222607 -1.6616,-0.270572 l -1.15589,-0.08721 -0.93916,0.17349 c -0.51655,0.09542 -1.32974,0.221641 -1.8071,0.280488 -0.8687,0.107087 -2.12165,0.567985 -2.29159,0.842967 -0.0497,0.0804 -0.10235,1.130776 -0.11701,2.334153 l -0.0267,2.187962 0.30391,0.30391 c 0.46943,0.469432 1.12839,0.533061 5.09434,0.491887 l 3.68441,-0.03826 1.0092,-0.302524 z m 7.76836,-0.990568 c -0.0993,-0.04315 -0.1806,-0.19275 -0.1806,-0.332435 l 0,-0.253972 0.7542,-0.410486 c 0.89609,-0.487715 1.92907,-1.408269 2.22721,-1.984809 l 0.21398,-0.413793 0.31675,0.04508 0.31675,0.04508 0.0419,0.577948 0.0419,0.577947 -0.37868,0.577947 -0.37869,0.577947 -0.74685,0.455687 -0.74685,0.455682 -0.65019,0.08033 c -0.35761,0.04418 -0.73147,0.04501 -0.8308,0.0019 z m -38.58957,-0.486757 c -0.57764,-0.136638 -1.42016,-0.788638 -1.86673,-1.44461 l -0.32509,-0.477539 0,-0.611129 0,-0.611131 0.21596,-0.179233 c 0.11878,-0.09857 0.35148,-0.143792 0.51712,-0.100471 l 0.30115,0.07875 -0.0885,-0.230761 c -0.0487,-0.126924 -0.15327,-0.519585 -0.23238,-0.872586 l -0.14384,-0.641823 0.16642,-0.200524 c 0.29278,-0.352772 0.55515,-0.221096 1.43624,0.720791 l 0.86184,0.921315 0.70024,0.301232 c 0.38513,0.165674 0.78326,0.401275 0.88474,0.523552 l 0.18451,0.222317 -0.19412,0.233902 -0.19412,0.233902 -0.80064,-0.07259 -0.80065,-0.07261 -0.82901,-0.448513 -0.82901,-0.448515 0,0.159174 c 0,0.08755 0.13389,0.397399 0.29753,0.688565 l 0.29753,0.529388 0.80423,0.573934 c 0.44232,0.315666 0.93645,0.677189 1.09808,0.803385 l 0.29385,0.229453 -0.10376,0.167888 c -0.11547,0.186849 -0.91503,0.198699 -1.65154,0.02447 z m 37.60578,-1.943194 -0.28046,-0.208267 0.14901,-0.243534 c 0.082,-0.133943 0.49671,-0.381574 0.92167,-0.550289 l 0.77264,-0.306752 0.95667,-0.897612 c 0.96321,-0.903747 1.39945,-1.096071 1.55669,-0.686294 0.13981,0.364317 -0.39266,1.546375 -0.94846,2.105552 l -0.51849,0.521645 -0.81691,0.236909 c -1.00509,0.291483 -1.42927,0.298262 -1.79236,0.02862 z m -0.70847,-2.436062 -0.28352,-0.214133 0.19285,-0.232367 c 0.10606,-0.127808 0.27455,-0.232365 0.37442,-0.232365 0.0999,0 0.56329,-0.170952 1.02984,-0.379887 l 0.84826,-0.379886 0.67518,-0.651249 0.67518,-0.651253 0.22786,0.08743 c 0.12533,0.0481 0.22786,0.186031 0.22786,0.306533 0,0.3724 -0.84752,1.61921 -1.37323,2.020184 l -0.49937,0.380895 -0.90591,0.08011 -0.9059,0.08011 -0.28352,-0.214132 z m -35.51241,-0.245149 c -0.55685,-0.167606 -1.52088,-0.962156 -1.78345,-1.469912 -0.24786,-0.479304 -0.22305,-1.295605 0.042,-1.382566 0.0955,-0.03133 0.29058,0.08499 0.43346,0.258518 0.35741,0.434093 1.93513,1.582295 2.17418,1.582295 0.3523,0 1.04757,0.436373 1.04757,0.657476 0,0.42059 -1.04848,0.614634 -1.91378,0.354189 z m 24.0925,-2.445771 c -0.15894,-0.06527 -0.64658,-0.163066 -1.08365,-0.21732 -0.43707,-0.05425 -1.52587,-0.263833 -2.41955,-0.465732 l -1.62488,-0.367089 -0.68691,0.06688 c -0.37781,0.03678 -1.36961,0.203854 -2.20403,0.371268 -0.83441,0.167417 -2.23232,0.359381 -3.10646,0.426585 l -1.58936,0.122192 -1.87833,-0.176272 c -2.07494,-0.194724 -2.50128,-0.271546 -6.08486,-1.096447 l -2.4727,-0.569183 -0.8505,-0.402881 -0.8505,-0.402878 -0.54182,-0.600927 -0.54183,-0.600927 0,-0.55984 0,-0.559838 0.19211,-0.159437 0.19211,-0.159432 0.42196,0.408058 c 0.71234,0.688875 1.52655,1.140387 2.73375,1.515985 2.53523,0.788786 3.24148,0.976215 4.76806,1.265384 l 1.58936,0.301055 2.74524,0.07109 2.74525,0.07109 1.0432,-0.221049 c 1.36617,-0.289483 2.26878,-0.699139 2.57705,-1.169609 0.41258,-0.629679 0.6395,-1.919703 0.71303,-4.053584 0.0383,-1.112547 0.10283,-2.380419 0.14329,-2.817491 0.0405,-0.437073 0.0214,-1.980901 -0.0423,-3.430732 l -0.11595,-2.636054 -0.42733,-0.614896 -0.42732,-0.614898 -0.93713,-0.457636 c -1.19827,-0.585158 -2.2649,-1.014895 -2.81546,-1.134331 -1.33436,-0.289468 -3.35692,-0.517704 -4.62358,-0.521749 -1.41673,-0.0045 -4.34828,0.254381 -4.59303,0.405643 -0.18889,0.116734 -2.88382,0.768909 -3.17733,0.768909 -0.32564,0 -0.47784,-0.374045 -0.25934,-0.637324 0.51498,-0.620511 4.11491,-1.481108 6.80156,-1.625977 l 1.51711,-0.0818 1.80609,0.17399 c 0.99334,0.09569 2.17994,0.208533 2.63688,0.250753 l 0.8308,0.07677 0,-0.442299 c 0,-0.243264 0.0708,-0.486065 0.15737,-0.539559 l 0.15737,-0.09726 0.60119,0.451463 c 0.88642,0.665666 2.40898,1.658758 2.97129,1.938032 0.68852,0.341956 1.01306,0.307777 1.79674,-0.189215 0.37592,-0.238403 0.7136,-0.43346 0.75039,-0.43346 0.0368,0 0.37588,-0.217856 0.75353,-0.484125 0.94007,-0.662805 1.89386,-1.174321 1.99712,-1.071058 0.0471,0.04706 0.009,0.228153 -0.084,0.402426 l -0.16958,0.316861 0.15831,0.158309 0.15831,0.15831 1.04709,-0.181246 c 0.57591,-0.09969 2.15242,-0.218025 3.50337,-0.262977 l 2.45628,-0.08173 1.0114,0.15774 c 2.0423,0.318518 3.63263,0.712899 4.4457,1.102472 0.92425,0.442848 1.08233,0.599958 0.84375,0.838541 l -0.16142,0.161414 -1.26363,-0.236118 c -0.69506,-0.129865 -1.68632,-0.337583 -2.20286,-0.461597 l -0.93916,-0.225477 -2.60329,-0.0952 -2.60328,-0.0952 -1.51459,0.245631 c -2.55181,0.413843 -4.47026,1.18372 -5.24548,2.105012 l -0.3659,0.434849 -0.18665,0.832244 -0.18666,0.832244 0.01,3.03422 c 0.0176,5.425699 0.0402,6.051826 0.26283,7.286388 l 0.21965,1.217942 0.37638,0.39286 c 0.46521,0.48557 1.22151,0.774621 2.78655,1.065 l 1.20798,0.224131 1.82625,-0.0089 c 2.45028,-0.01195 5.02219,-0.323577 7.14404,-0.865505 0.65126,-0.166336 1.57422,-0.400722 2.05103,-0.520861 1.21628,-0.306467 2.27665,-0.820229 2.95182,-1.43021 0.31747,-0.286813 0.64468,-0.479778 0.72715,-0.428811 0.22371,0.138259 0.18131,0.760474 -0.0909,1.334114 l -0.24083,0.507496 -0.66222,0.482183 c -0.73046,0.53187 -2.01623,1.075007 -2.54487,1.075007 -0.18691,0 -0.38002,0.06502 -0.42913,0.144489 -0.0491,0.07947 -0.26427,0.144315 -0.47811,0.144109 -0.21385,-1.46e-4 -0.81144,0.0926 -1.32798,0.206221 -3.54622,0.780105 -8.38185,1.286501 -9.17491,0.96081 z"
       id="path4022"
       inkscape:connector-curvature="0" />
  </g>
</svg>
