<?xml version="1.0" encoding="utf-8"?>
<!-- Generator: Adobe Illustrator 15.1.0, SVG Export Plug-In . SVG Version: 6.00 Build 0)  -->
<!DOCTYPE svg PUBLIC "-//W3C//DTD SVG 1.1//EN" "http://www.w3.org/Graphics/SVG/1.1/DTD/svg11.dtd">
<svg version="1.1" xmlns="http://www.w3.org/2000/svg" xmlns:xlink="http://www.w3.org/1999/xlink" x="0px" y="0px"
	 width="56.693px" height="48.189px" viewBox="0 0 56.693 48.189" enable-background="new 0 0 56.693 48.189" xml:space="preserve">
<g id="torso_1_">
	<path id="torso" inkscape:connector-curvature="0" stroke="#000000" stroke-width="0.3125" d="M2.36,45.549
		C11.093-1.745,7.703,2.87,16.628,2.693h23.44c8.926,0.177,5.535-4.438,14.265,42.856H2.36z"/>
</g>
<g id="Layer_1">
	<defs>
		<path id="clipping_mask_1_" d="M2.701,45.266C4.65,34.696,6.005,26.647,6.998,20.755C9.774,4.271,10.001,2.924,13.397,2.924
			c0.332,0,0.692,0.012,1.086,0.025c0.48,0.016,1.01,0.033,1.595,0.033c0.18,0,0.364-0.002,0.556-0.006l23.435,0
			c0.185,0.003,0.37,0.005,0.55,0.005c0.586,0,1.115-0.018,1.596-0.033c0.394-0.013,0.754-0.025,1.086-0.025
			c3.396,0,3.622,1.346,6.396,17.818c0.992,5.895,2.348,13.946,4.297,24.523H2.701z"/>
	</defs>
	<clipPath id="clipping_mask_2_">
		<use xlink:href="#clipping_mask_1_"  overflow="visible"/>
	</clipPath>
	<rect x="21.128" y="2.737" clip-path="url(#clipping_mask_2_)" fill="#F5D7B3" width="14.438" height="10.94"/>
	<g id="shirt" clip-path="url(#clipping_mask_2_)">
		<path fill="#EFF0ED" d="M40.162,2.693h-5.204c-0.995,1.663-3.215,4.607-5.142,6.493c-0.467,0.457-2.32,4.127-2.32,4.127
			l-0.218-3.952c0,0-4.514-3.978-5.519-6.668h-5.038C7.797,2.87,11.187-1.745,2.454,45.549h51.973
			C45.697-1.745,49.088,2.87,40.162,2.693z"/>
		<g>
			<path d="M27.007,45.183c0.002-6.021,0.014-12.036-0.092-18.055l-0.058-4.515l-0.023-2.258c-0.019-0.745,0-1.52,0.098-2.272
				c0.212-1.506,0.336-2.979,0.413-4.507c0.203-0.812,0.563-1.446,0.898-2.135c0.34-0.676,0.71-1.333,1.105-1.978
				c0.034-0.061,0.111-0.083,0.173-0.048c0.06,0.034,0.079,0.112,0.048,0.172c-0.364,0.655-0.718,1.319-1.052,1.99
				c-0.321,0.667-0.678,1.361-0.844,2.046c-0.101,1.486-0.299,3-0.389,4.49c-0.067,2.972,0.042,6.007,0.069,9.008
				c0.118,6.02,0.108,12.043,0.112,18.062c0,0.127-0.103,0.229-0.229,0.229C27.11,45.412,27.007,45.31,27.007,45.183L27.007,45.183z
				"/>
		</g>
		<g id="buttons">
			<g>
				<path fill="#EFF0ED" stroke="#000000" stroke-width="0.4252" stroke-linecap="round" stroke-linejoin="round" d="M26.649,11.748
					c0,0.308-0.249,0.558-0.557,0.558l0,0c-0.308,0-0.558-0.25-0.558-0.558l0,0c0-0.308,0.25-0.558,0.558-0.558l0,0
					C26.4,11.19,26.649,11.439,26.649,11.748L26.649,11.748z"/>
				<g>
					<path fill="#605F61" d="M29.2,11.919c0.302-0.042,0.551,0.052,0.778,0.199c0.238,0.121,0.473,0.249,0.705,0.384
						c0.007,0.004,0.01,0.013,0.006,0.02c-0.004,0.005-0.01,0.008-0.016,0.007c-0.263-0.059-0.521-0.125-0.778-0.199
						c-0.267-0.047-0.513-0.148-0.705-0.384c-0.006-0.007-0.005-0.017,0.002-0.023C29.194,11.921,29.197,11.92,29.2,11.919z"/>
				</g>
				<path fill="#EFF0ED" stroke="#000000" stroke-width="0.4252" d="M29.252,19.48c0,0.308-0.249,0.558-0.557,0.558l0,0
					c-0.308,0-0.558-0.25-0.558-0.558l0,0c0-0.309,0.25-0.558,0.558-0.558l0,0C29.003,18.923,29.252,19.172,29.252,19.48
					L29.252,19.48z"/>
				<path fill="#EFF0ED" stroke="#000000" stroke-width="0.4252" d="M29.525,26.491c0,0.308-0.249,0.558-0.557,0.558l0,0
					c-0.307,0-0.557-0.25-0.557-0.558l0,0c0-0.308,0.25-0.558,0.557-0.558l0,0C29.276,25.934,29.525,26.184,29.525,26.491
					L29.525,26.491z"/>
				<path fill="#EFF0ED" stroke="#000000" stroke-width="0.4252" d="M29.677,33.196c0,0.307-0.25,0.558-0.558,0.558l0,0
					c-0.308,0-0.557-0.251-0.557-0.558l0,0c0-0.309,0.25-0.558,0.557-0.558l0,0C29.427,32.639,29.677,32.888,29.677,33.196
					L29.677,33.196z"/>
				<path fill="#EFF0ED" stroke="#000000" stroke-width="0.4252" d="M29.561,39.328c0,0.307-0.25,0.558-0.558,0.558l0,0
					c-0.308,0-0.557-0.251-0.557-0.558l0,0c0-0.309,0.25-0.558,0.557-0.558l0,0C29.311,38.771,29.561,39.02,29.561,39.328
					L29.561,39.328z"/>
			</g>
		</g>
		<g id="wrinkles">
			<g>
				<path fill="#A2A1A3" d="M25.76,26.637c-0.222,0.285-0.512,0.441-0.829,0.546c-0.303,0.131-0.61,0.255-0.921,0.371l-0.013-0.025
					c0.272-0.189,0.549-0.371,0.829-0.546c0.267-0.201,0.561-0.351,0.921-0.371L25.76,26.637z"/>
			</g>
			<g>
				<path fill="#A2A1A3" d="M26.254,26.041c-0.241,0.085-0.505,0.133-0.768,0.129c-0.261-0.001-0.52-0.047-0.774-0.101
					c-0.497-0.147-0.984-0.348-1.375-0.695l0.729,0.22c0.24,0.071,0.475,0.149,0.717,0.201
					C25.263,25.933,25.735,25.998,26.254,26.041z"/>
			</g>
			<g>
				<path fill="#A2A1A3" d="M30.255,26.002c0.307-0.126,0.582-0.139,0.874-0.129c0.287-0.022,0.576-0.074,0.833-0.227l0.018,0.021
					c-0.213,0.225-0.514,0.354-0.813,0.429c-0.298,0.103-0.624,0.105-0.913-0.067L30.255,26.002z"/>
			</g>
			<g>
				<path fill="#A2A1A3" d="M30.585,26.61c0.286-0.175,0.631-0.124,0.893,0.041c0.276,0.134,0.508,0.342,0.679,0.58l-0.021,0.02
					c-0.228-0.18-0.479-0.314-0.741-0.389c-0.274-0.049-0.515-0.097-0.805-0.225L30.585,26.61z"/>
			</g>
			<g>
				<path fill="#A2A1A3" d="M26.606,19.512c-0.299-0.124-0.554-0.275-0.797-0.458c-0.223-0.213-0.47-0.406-0.773-0.483
					c-0.592-0.18-1.143-0.376-1.701-0.672l0.005-0.028c0.645-0.039,1.253,0.203,1.765,0.562c0.249,0.195,0.537,0.305,0.832,0.424
					c0.272,0.151,0.514,0.364,0.688,0.633L26.606,19.512z"/>
			</g>
			<g>
				<path fill="#A2A1A3" d="M23.729,19.593c0.25-0.072,0.501-0.136,0.754-0.192c0.249-0.085,0.504-0.112,0.777,0.004l0.004,0.028
					c-0.237,0.179-0.492,0.215-0.754,0.192c-0.258,0.006-0.518,0.005-0.777-0.004L23.729,19.593z"/>
			</g>
			<g>
				<path fill="#A2A1A3" d="M29.957,18.871c0.201-0.238,0.455-0.341,0.729-0.39c0.265-0.075,0.531-0.144,0.802-0.204l0.01,0.026
					c-0.24,0.137-0.483,0.267-0.729,0.39c-0.235,0.149-0.492,0.244-0.802,0.204L29.957,18.871z"/>
			</g>
			<g>
				<path fill="#A2A1A3" d="M30.399,20.009c0.438,0.088,0.827,0.273,1.22,0.452c0.378,0.207,0.76,0.407,1.093,0.705
					c-0.438-0.087-0.827-0.273-1.22-0.452C31.114,20.506,30.732,20.307,30.399,20.009z"/>
			</g>
		</g>
		<path id="collar_shadow" opacity="0.8" d="M25.359,8.391l1.478,1.05c0,0-1.017-0.329-1.575,0.184
			c-1.186,1.089-1.937,2.433-1.937,2.433l0.388-1.465L25.359,8.391z M31.837,8.217l-2.378,1.309c0,0,1.521-0.194,2.209,0.618
			c0.531,0.628,1.503,2.006,1.503,2.006l0.245-1.364L31.837,8.217z"/>
		<g id="collar">
			<g>
				<path fill="#EFF0EF" d="M19.909,2.958c0,0,0.271,1.987,0.931,4.034c0.527,1.641,2.344,4.783,2.344,4.783
					s0.821-1.505,1.134-1.983c0.239-0.365,1.042-1.4,1.042-1.4l1.899,1.125c-2.388-2.672-2.674-2.55-3.66-3.701
					c-1.243-1.451-1.833-2.858-1.833-2.858"/>
				<path d="M19.938,2.954c0.144,0.775,0.333,1.542,0.536,2.302c0.213,0.756,0.434,1.516,0.742,2.225
					c0.643,1.421,1.432,2.793,2.208,4.154l-0.484,0.006c0.335-0.586,0.669-1.167,1.027-1.746c0.382-0.595,0.816-1.093,1.234-1.627
					l0.004-0.005c0.062-0.079,0.173-0.096,0.255-0.044l1.862,1.189l-0.159,0.192l0,0c-0.486-0.527-0.985-1.041-1.487-1.548
					c-0.502-0.51-1.039-0.966-1.57-1.467c-1.036-1.029-1.867-2.256-2.368-3.617c-0.005-0.015,0.002-0.031,0.017-0.036
					c0.013-0.005,0.029,0.002,0.036,0.015c0.702,1.244,1.526,2.423,2.534,3.41c0.521,0.475,1.075,0.956,1.573,1.476
					c0.508,0.513,0.981,1.056,1.453,1.599l0,0c0.048,0.049,0.047,0.128-0.002,0.177c-0.04,0.04-0.101,0.046-0.147,0.021
					l-0.009-0.005l-1.937-1.062l0.259-0.049c-0.39,0.539-0.814,1.08-1.134,1.632c-0.329,0.576-0.644,1.171-0.956,1.762
					c-0.071,0.135-0.237,0.187-0.372,0.116c-0.049-0.026-0.087-0.064-0.112-0.11c-0.774-1.389-1.505-2.795-2.071-4.295
					c-0.276-0.759-0.45-1.535-0.618-2.31c-0.164-0.777-0.287-1.56-0.374-2.347c-0.001-0.016,0.01-0.03,0.025-0.031
					C19.921,2.929,19.935,2.94,19.938,2.954z"/>
			</g>
			<g>
				<path fill="#EFF0EF" d="M36.784,2.958c0,0-0.209,1.508-1.057,3.884c-0.469,1.317-2.359,5.074-2.359,5.074
					s-0.377-1.075-0.875-1.763c-0.779-1.073-1.443-1.479-1.443-1.479l-1.591,0.851c0,0,2.001-2.267,3.161-3.585
					c0.613-0.695,2.021-2.982,2.021-2.982"/>
				<path d="M36.813,2.962c-0.088,0.802-0.243,1.596-0.447,2.376c-0.209,0.78-0.42,1.558-0.724,2.319
					c-0.588,1.508-1.272,2.96-2.029,4.382l-0.005,0.011c-0.07,0.132-0.235,0.182-0.367,0.112c-0.064-0.034-0.109-0.091-0.13-0.155
					l0,0c-0.216-0.609-0.479-1.237-0.839-1.752c-0.377-0.533-0.827-1.046-1.328-1.406l0.203,0.006l-1.626,0.784H29.52
					c-0.062,0.035-0.14,0.013-0.175-0.049c-0.026-0.048-0.02-0.105,0.014-0.146l0.004-0.005c0.897-1.072,1.813-2.128,2.748-3.166
					c0.487-0.511,0.878-1.051,1.285-1.628c0.397-0.571,0.804-1.14,1.222-1.702c0.01-0.013,0.027-0.016,0.04-0.006
					c0.012,0.008,0.015,0.024,0.009,0.036c-0.318,0.625-0.664,1.235-1.044,1.825c-0.363,0.589-0.798,1.181-1.269,1.69
					c-0.912,1.059-1.846,2.099-2.798,3.123l-0.157-0.199l0,0l1.555-0.918c0.065-0.039,0.145-0.033,0.204,0.006
					c0.611,0.41,1.067,0.924,1.495,1.47c0.434,0.582,0.716,1.205,0.974,1.856l0,0l-0.502-0.032c0.673-1.452,1.409-2.878,2.105-4.313
					c0.343-0.708,0.607-1.467,0.866-2.222c0.243-0.76,0.492-1.522,0.66-2.305c0.003-0.016,0.018-0.026,0.033-0.023
					C36.804,2.934,36.813,2.948,36.813,2.962z"/>
			</g>
		</g>
		<g>
			<path d="M27.353,9.504c0.119,0.693,0.075,1.412,0.038,2.098c-0.041,0.688-0.007,1.373,0.245,1.998
				c0.031,0.077-0.006,0.165-0.083,0.196s-0.166-0.006-0.197-0.083c0-0.001-0.001-0.005-0.002-0.006
				c-0.256-0.684-0.269-1.427-0.208-2.119c0.057-0.697,0.118-1.375,0.021-2.06c-0.008-0.052,0.028-0.1,0.08-0.107
				c0.051-0.007,0.098,0.027,0.107,0.078L27.353,9.504z"/>
		</g>
	</g>
	<g id="coat_1_" clip-path="url(#clipping_mask_2_)">
		<path id="fill" stroke="#605F61" stroke-width="0.2835" d="M37.466,0c-2.026,18.282-7.962,31.679-9.119,31.679
			c-1.135,0-7.094-13.397-9.119-31.679C14.804,0-2.589,0-2.589,0v47.425h27.867h6.137h27.867V0C59.282,0,41.89,0,37.466,0z"/>
		<path fill="none" stroke="#605F61" stroke-width="0.2835" stroke-linecap="round" d="M28.397,31.739
			c-0.873,0.654-0.891,1.144-0.933,1.654c-0.282,3.375-0.309,13.11-0.309,13.11"/>
		<path fill="none" stroke="#605F61" stroke-width="0.3402" d="M29.979,35.827c0,0.432-0.35,0.781-0.781,0.781
			s-0.781-0.35-0.781-0.781s0.349-0.781,0.781-0.781S29.979,35.396,29.979,35.827z M29.197,41.733c-0.432,0-0.781,0.35-0.781,0.781
			s0.349,0.781,0.781,0.781s0.781-0.35,0.781-0.781S29.629,41.733,29.197,41.733z"/>
		<g>
			<g>
				<path fill="#605F61" d="M38.083,1.609l2.449,5.835c0.033,0.08,0.001,0.171-0.072,0.213l-3.012,1.74L37.41,9.087
					c0.467,0.114,0.977,0.198,1.469,0.28l1.495,0.225c0.093,0.013,0.158,0.098,0.146,0.191l-0.008,0.031v0.001
					c-1.302,3.878-2.808,7.695-4.637,11.36c-0.917,1.831-1.916,3.623-3.033,5.341c-1.132,1.708-2.326,3.383-3.853,4.797
					c-0.051,0.048-0.131,0.045-0.178-0.006c-0.047-0.052-0.044-0.131,0.007-0.178l0.01-0.01c1.472-1.373,2.671-3.058,3.783-4.753
					c1.104-1.711,2.092-3.498,2.998-5.323c1.808-3.656,3.295-7.465,4.579-11.336l0.001-0.001l0.138,0.222l-1.503-0.226
					c-0.503-0.085-0.993-0.163-1.508-0.289c-0.09-0.022-0.145-0.113-0.123-0.203c0.012-0.046,0.041-0.083,0.078-0.104l0.007-0.004
					l3.012-1.74l-0.072,0.213l-2.449-5.835c-0.036-0.087,0.005-0.187,0.092-0.223C37.946,1.481,38.046,1.522,38.083,1.609z"/>
				<path fill="#605F61" d="M18.924,1.741l-2.45,5.835l-0.072-0.213l3.013,1.741l0.006,0.003c0.08,0.046,0.107,0.148,0.061,0.229
					c-0.023,0.041-0.063,0.068-0.105,0.079c-0.515,0.126-1.005,0.204-1.508,0.289l-1.503,0.226l0.138-0.222v0.001
					c1.285,3.872,2.772,7.681,4.582,11.336c0.906,1.826,1.894,3.612,2.999,5.324c1.113,1.695,2.313,3.379,3.785,4.751l0.01,0.011
					c0.051,0.047,0.054,0.127,0.006,0.178s-0.127,0.054-0.178,0.007c-1.526-1.414-2.721-3.09-3.854-4.797
					c-1.118-1.719-2.118-3.511-3.035-5.341c-1.83-3.665-3.336-7.482-4.639-11.361V9.813c-0.03-0.089,0.018-0.185,0.106-0.215
					l0.031-0.007l1.496-0.225c0.493-0.082,1.002-0.166,1.469-0.28l-0.038,0.311l-3.013-1.741c-0.075-0.043-0.104-0.136-0.072-0.213
					l2.45-5.835c0.036-0.086,0.136-0.127,0.223-0.091C18.919,1.554,18.96,1.654,18.924,1.741z"/>
			</g>
		</g>
		<path fill="none" stroke="#605F61" stroke-width="0.4252" stroke-linecap="round" stroke-linejoin="round" d="M37.958,41.717
			l10.986-0.879l0.217,1.225 M18.735,41.717L7.747,40.838L7.53,42.063"/>
	</g>
	<g id="scarf" clip-path="url(#clipping_mask_2_)">
		<path fill="#003A57" stroke="#000000" stroke-width="0.4252" stroke-linecap="round" stroke-linejoin="round" d="M33.587,21.166
			c0,0-2.939,0.407-4.364,0.533c-0.141,0.013-0.374,0.029-0.374,0.029s0.075,0.547-0.067,0.59c-1.833,0.556-5.365-0.587-5.365-0.587
			s0.548-9.309,2.269-10.778c1.26-1.076,4.064-1.29,5.208-0.142C32.494,12.418,33.587,21.166,33.587,21.166z"/>
		<path fill="#003A57" stroke="#000000" stroke-width="0.3543" stroke-linecap="round" stroke-linejoin="round" d="M30.366,10.541
			c0,0-3.779,2.558-5.106,2.48c-3.92-0.23-5.385-10.917-5.385-10.917s3.731-1.062,3.848,0C24.304,7.416,30.366,10.541,30.366,10.541
			z"/>
		<path fill="#003A57" stroke="#000000" stroke-width="0.3543" stroke-linecap="round" stroke-linejoin="round" d="M24.253,14.788
			c-0.771-0.792-0.359-1.026-0.591-1.379c-0.293-0.446-0.888-0.296-1.035-1.68c-0.261-3.591,9.338-0.987,11.208-9.362
			c1.268-0.343,3.551,0,3.551,0S33.888,15.567,24.253,14.788z"/>
		<g>
			<path d="M20.59,0.991c0.579,1.3,1.078,2.614,1.685,3.88c0.279,0.644,0.601,1.266,0.939,1.876c0.343,0.608,0.715,1.2,1.189,1.731
				c-0.595-0.401-1.059-0.973-1.467-1.558c-0.406-0.593-0.732-1.231-1.047-1.871C21.319,3.743,20.834,2.397,20.59,0.991z"/>
		</g>
		<g>
			<path d="M25.635,14.058c0.048-0.331,0.235-0.632,0.51-0.814c0.145-0.084,0.314-0.12,0.456-0.187
				c0.142-0.068,0.271-0.155,0.404-0.25c0.535-0.379,1.197-0.513,1.833-0.32c0.012,0.003,0.019,0.017,0.016,0.029
				c-0.002,0.006-0.006,0.01-0.011,0.013c-0.582,0.333-1.142,0.412-1.75,0.493c-0.15,0.024-0.299,0.068-0.423,0.154
				c-0.122,0.091-0.211,0.224-0.299,0.34c-0.203,0.205-0.406,0.388-0.7,0.566c-0.011,0.006-0.025,0.003-0.032-0.008
				C25.635,14.07,25.635,14.063,25.635,14.058z"/>
		</g>
		<g>
			<path d="M28.278,10.354c1.183-0.519,2.275-1.122,3.263-1.874c0.497-0.371,0.954-0.788,1.394-1.231
				c0.436-0.447,0.825-0.941,1.219-1.458c-0.374,1.247-1.224,2.346-2.271,3.14c-0.53,0.39-1.1,0.729-1.711,0.966
				C29.564,10.138,28.93,10.32,28.278,10.354z"/>
		</g>
		<g>
			<path d="M23.865,13.108c-0.107-0.383,0.019-0.779,0.188-1.122c0.184-0.346,0.488-0.598,0.787-0.818
				c0.604-0.448,1.292-0.725,1.99-0.908l0.015,0.04c-0.654,0.297-1.278,0.66-1.787,1.129c-0.25,0.241-0.446,0.518-0.645,0.783
				c-0.207,0.265-0.368,0.556-0.505,0.895L23.865,13.108z"/>
		</g>
		<g>
			<path d="M22.27,0.989c0.156,0.376,0.228,0.748,0.331,1.115c0.092,0.369,0.125,0.748,0.203,1.121
				c0.163,0.743,0.408,1.47,0.714,2.181c0.004,0.011,0,0.023-0.011,0.028c-0.01,0.004-0.021,0-0.027-0.008
				c-0.415-0.654-0.762-1.362-1.004-2.11c-0.126-0.371-0.256-0.748-0.295-1.14c-0.029-0.393-0.041-0.79,0.047-1.182
				c0.002-0.012,0.014-0.02,0.026-0.017C22.261,0.978,22.267,0.983,22.27,0.989z"/>
		</g>
		<g>
			<path d="M28.649,21.923c0.003-1.415,0.028-2.833,0.284-4.225c0.002-0.016,0.018-0.026,0.033-0.023
				c0.015,0.003,0.024,0.018,0.023,0.032c-0.132,1.395-0.034,2.803,0.085,4.192l0,0.006c0.01,0.117-0.077,0.22-0.194,0.23
				c-0.117,0.01-0.22-0.077-0.23-0.194C28.649,21.936,28.649,21.929,28.649,21.923z"/>
		</g>
		<g>
			<path d="M27.565,14.703c-0.033-0.004,0.046,0.036,0.072,0.161c0.008,0.056-0.005,0.106-0.02,0.138l-0.008,0.016l-0.027,0.052
				l-0.053,0.106l-0.098,0.219c-0.062,0.148-0.115,0.301-0.16,0.456c-0.091,0.311-0.143,0.634-0.14,0.962
				c0.001,0.023-0.017,0.042-0.04,0.043c-0.021,0-0.038-0.015-0.042-0.034c-0.061-0.333-0.066-0.679-0.027-1.02
				c0.019-0.17,0.047-0.34,0.085-0.508l0.064-0.252l0.037-0.125l0.021-0.063l0.004-0.013c-0.01,0.022-0.02,0.063-0.007,0.109
				c0.034,0.106,0.121,0.127,0.097,0.104c-0.097-0.067-0.121-0.2-0.054-0.296C27.336,14.66,27.469,14.636,27.565,14.703z"/>
		</g>
		<g>
			<path d="M29.937,14.032l0.112,0.768c0.036,0.25,0.074,0.532,0.037,0.79c-0.001,0.032-0.029,0.057-0.062,0.055
				c-0.027-0.001-0.051-0.028-0.054-0.055c-0.029-0.497-0.255-0.979-0.394-1.475l-0.002-0.007c-0.027-0.098,0.03-0.2,0.129-0.228
				c0.098-0.028,0.2,0.03,0.228,0.128C29.934,14.016,29.936,14.024,29.937,14.032z"/>
		</g>
		<g>
			<path d="M30.35,13.578l0.215,0.552c0.063,0.189,0.146,0.365,0.167,0.577h-0.033c-0.077-0.162-0.215-0.313-0.332-0.463
				l-0.378-0.441L30.35,13.578z"/>
		</g>
	</g>
</g>
</svg>
