<?xml version="1.0" encoding="utf-8"?>
<!-- Generator: Adobe Illustrator 15.1.0, SVG Export Plug-In . SVG Version: 6.00 Build 0)  -->
<!DOCTYPE svg PUBLIC "-//W3C//DTD SVG 1.1//EN" "http://www.w3.org/Graphics/SVG/1.1/DTD/svg11.dtd">
<svg version="1.1" xmlns="http://www.w3.org/2000/svg" xmlns:xlink="http://www.w3.org/1999/xlink" x="0px" y="0px"
	 width="56.693px" height="48.189px" viewBox="0 0 56.693 48.189" enable-background="new 0 0 56.693 48.189" xml:space="preserve">
<g id="torso_1_">
	<path id="torso" inkscape:connector-curvature="0" stroke="#000000" stroke-width="0.3125" d="M2.36,45.549
		C11.093-1.745,7.703,2.87,16.628,2.693h23.44c8.926,0.177,5.535-4.438,14.265,42.856H2.36z"/>
</g>
<g id="Layer_1">
	<defs>
		<path id="clipping_mask" d="M2.701,45.266C4.65,34.696,6.005,26.647,6.998,20.755C9.774,4.271,10.001,2.924,13.397,2.924
			c0.332,0,0.692,0.012,1.086,0.025c0.48,0.016,1.01,0.033,1.595,0.033c0.18,0,0.364-0.002,0.556-0.006l23.435,0
			c0.185,0.003,0.37,0.005,0.55,0.005c0.586,0,1.115-0.018,1.596-0.033c0.394-0.013,0.754-0.025,1.086-0.025
			c3.396,0,3.622,1.346,6.396,17.818c0.992,5.895,2.348,13.946,4.297,24.523H2.701z"/>
	</defs>
	<clipPath id="clipping_mask_1_">
		<use xlink:href="#clipping_mask"  overflow="visible"/>
	</clipPath>
	<rect x="21.128" y="2.737" clip-path="url(#clipping_mask_1_)" fill="#F5D7B3" width="14.438" height="6.688"/>
	<g id="shirt" clip-path="url(#clipping_mask_1_)">
		<g>
			<defs>
				<path id="SVGID_1_" d="M55.48,46.676H1.392V2.977l19.399-1.681c0,0,3.221,4.962,7.605,7.339c3.366-1.46,7.205-6.927,7.205-6.927
					l19.88,0.549V46.676z"/>
			</defs>
			<clipPath id="SVGID_2_">
				<use xlink:href="#SVGID_1_"  overflow="visible"/>
			</clipPath>
			<g clip-path="url(#SVGID_2_)">
				<polygon fill="#E3E2DB" stroke="#A2A1A3" stroke-miterlimit="10" points="58.11,46.175 -1.417,46.175 3.504,0 58.11,0 				"/>
				<rect x="3.762" y="-1.907" fill="none" stroke="#A2A1A3" stroke-width="0.2835" width="52.004" height="52.004"/>
				<line fill="none" stroke="#A2A1A3" stroke-width="0.2835" x1="3.762" y1="48.827" x2="55.767" y2="48.827"/>
				<line fill="none" stroke="#A2A1A3" stroke-width="0.2835" x1="3.762" y1="47.558" x2="55.767" y2="47.558"/>
				<line fill="none" stroke="#A2A1A3" stroke-width="0.2835" x1="3.762" y1="46.288" x2="55.767" y2="46.288"/>
				<line fill="none" stroke="#A2A1A3" stroke-width="0.2835" x1="3.762" y1="45.019" x2="55.767" y2="45.019"/>
				<line fill="none" stroke="#A2A1A3" stroke-width="0.2835" x1="3.762" y1="43.749" x2="55.767" y2="43.749"/>
				<line fill="none" stroke="#A2A1A3" stroke-width="0.2835" x1="3.762" y1="42.491" x2="55.767" y2="42.491"/>
				<line fill="none" stroke="#A2A1A3" stroke-width="0.2835" x1="3.762" y1="41.222" x2="55.767" y2="41.222"/>
				<line fill="none" stroke="#A2A1A3" stroke-width="0.2835" x1="3.762" y1="39.952" x2="55.767" y2="39.952"/>
				<line fill="none" stroke="#A2A1A3" stroke-width="0.2835" x1="3.762" y1="38.683" x2="55.767" y2="38.683"/>
				<line fill="none" stroke="#A2A1A3" stroke-width="0.2835" x1="3.762" y1="37.413" x2="55.767" y2="37.413"/>
				<line fill="none" stroke="#A2A1A3" stroke-width="0.2835" x1="3.762" y1="36.144" x2="55.767" y2="36.144"/>
				<line fill="none" stroke="#A2A1A3" stroke-width="0.2835" x1="3.762" y1="34.874" x2="55.767" y2="34.874"/>
				<line fill="none" stroke="#A2A1A3" stroke-width="0.2835" x1="3.762" y1="33.604" x2="55.767" y2="33.604"/>
				<line fill="none" stroke="#A2A1A3" stroke-width="0.2835" x1="3.762" y1="32.335" x2="55.767" y2="32.335"/>
				<line fill="none" stroke="#A2A1A3" stroke-width="0.2835" x1="3.762" y1="31.065" x2="55.767" y2="31.065"/>
				<line fill="none" stroke="#A2A1A3" stroke-width="0.2835" x1="3.762" y1="29.808" x2="55.767" y2="29.808"/>
				<line fill="none" stroke="#A2A1A3" stroke-width="0.2835" x1="3.762" y1="28.538" x2="55.767" y2="28.538"/>
				<line fill="none" stroke="#A2A1A3" stroke-width="0.2835" x1="3.762" y1="27.269" x2="55.767" y2="27.269"/>
				<line fill="none" stroke="#A2A1A3" stroke-width="0.2835" x1="3.762" y1="25.999" x2="55.767" y2="25.999"/>
				<line fill="none" stroke="#A2A1A3" stroke-width="0.2835" x1="3.762" y1="24.729" x2="55.767" y2="24.729"/>
				<line fill="none" stroke="#A2A1A3" stroke-width="0.2835" x1="3.762" y1="23.46" x2="55.767" y2="23.46"/>
				<line fill="none" stroke="#A2A1A3" stroke-width="0.2835" x1="3.762" y1="22.19" x2="55.767" y2="22.19"/>
				<line fill="none" stroke="#A2A1A3" stroke-width="0.2835" x1="3.762" y1="20.921" x2="55.767" y2="20.921"/>
				<line fill="none" stroke="#A2A1A3" stroke-width="0.2835" x1="3.762" y1="19.651" x2="55.767" y2="19.651"/>
				<line fill="none" stroke="#A2A1A3" stroke-width="0.2835" x1="3.762" y1="18.381" x2="55.767" y2="18.381"/>
				<line fill="none" stroke="#A2A1A3" stroke-width="0.2835" x1="3.762" y1="17.125" x2="55.767" y2="17.125"/>
				<line fill="none" stroke="#A2A1A3" stroke-width="0.2835" x1="3.762" y1="15.855" x2="55.767" y2="15.855"/>
				<line fill="none" stroke="#A2A1A3" stroke-width="0.2835" x1="3.762" y1="14.585" x2="55.767" y2="14.585"/>
				<line fill="none" stroke="#A2A1A3" stroke-width="0.2835" x1="3.762" y1="13.315" x2="55.767" y2="13.315"/>
				<line fill="none" stroke="#A2A1A3" stroke-width="0.2835" x1="3.762" y1="12.046" x2="55.767" y2="12.046"/>
				<line fill="none" stroke="#A2A1A3" stroke-width="0.2835" x1="3.762" y1="10.776" x2="55.767" y2="10.776"/>
				<line fill="none" stroke="#A2A1A3" stroke-width="0.2835" x1="3.762" y1="9.507" x2="55.767" y2="9.507"/>
				<line fill="none" stroke="#A2A1A3" stroke-width="0.2835" x1="3.762" y1="8.237" x2="55.767" y2="8.237"/>
				<line fill="none" stroke="#A2A1A3" stroke-width="0.2835" x1="3.762" y1="6.967" x2="55.767" y2="6.967"/>
				<line fill="none" stroke="#A2A1A3" stroke-width="0.2835" x1="3.762" y1="5.698" x2="55.767" y2="5.698"/>
				<line fill="none" stroke="#A2A1A3" stroke-width="0.2835" x1="3.762" y1="4.441" x2="55.767" y2="4.441"/>
				<line fill="none" stroke="#A2A1A3" stroke-width="0.2835" x1="3.762" y1="3.171" x2="55.767" y2="3.171"/>
				<line fill="none" stroke="#A2A1A3" stroke-width="0.2835" x1="3.762" y1="1.902" x2="55.767" y2="1.902"/>
				<line fill="none" stroke="#A2A1A3" stroke-width="0.2835" x1="3.762" y1="0.632" x2="55.767" y2="0.632"/>
				<line fill="none" stroke="#A2A1A3" stroke-width="0.2835" x1="3.762" y1="-0.638" x2="55.767" y2="-0.638"/>
				<line fill="none" stroke="#A2A1A3" stroke-width="0.2835" x1="54.497" y1="-1.907" x2="54.497" y2="50.097"/>
				<line fill="none" stroke="#A2A1A3" stroke-width="0.2835" x1="53.228" y1="-1.907" x2="53.228" y2="50.097"/>
				<line fill="none" stroke="#A2A1A3" stroke-width="0.2835" x1="51.958" y1="-1.907" x2="51.958" y2="50.097"/>
				<line fill="none" stroke="#A2A1A3" stroke-width="0.2835" x1="50.688" y1="-1.907" x2="50.688" y2="50.097"/>
				<line fill="none" stroke="#A2A1A3" stroke-width="0.2835" x1="49.419" y1="-1.907" x2="49.419" y2="50.097"/>
				<line fill="none" stroke="#A2A1A3" stroke-width="0.2835" x1="48.161" y1="-1.907" x2="48.161" y2="50.097"/>
				<line fill="none" stroke="#A2A1A3" stroke-width="0.2835" x1="46.892" y1="-1.907" x2="46.892" y2="50.097"/>
				<line fill="none" stroke="#A2A1A3" stroke-width="0.2835" x1="45.622" y1="-1.907" x2="45.622" y2="50.097"/>
				<line fill="none" stroke="#A2A1A3" stroke-width="0.2835" x1="44.353" y1="-1.907" x2="44.353" y2="50.097"/>
				<line fill="none" stroke="#A2A1A3" stroke-width="0.2835" x1="43.083" y1="-1.907" x2="43.083" y2="50.097"/>
				<line fill="none" stroke="#A2A1A3" stroke-width="0.2835" x1="41.813" y1="-1.907" x2="41.813" y2="50.097"/>
				<line fill="none" stroke="#A2A1A3" stroke-width="0.2835" x1="40.544" y1="-1.907" x2="40.544" y2="50.097"/>
				<line fill="none" stroke="#A2A1A3" stroke-width="0.2835" x1="39.274" y1="-1.907" x2="39.274" y2="50.097"/>
				<line fill="none" stroke="#A2A1A3" stroke-width="0.2835" x1="38.005" y1="-1.907" x2="38.005" y2="50.097"/>
				<line fill="none" stroke="#A2A1A3" stroke-width="0.2835" x1="36.735" y1="-1.907" x2="36.735" y2="50.097"/>
				<line fill="none" stroke="#A2A1A3" stroke-width="0.2835" x1="35.478" y1="-1.907" x2="35.478" y2="50.097"/>
				<line fill="none" stroke="#A2A1A3" stroke-width="0.2835" x1="34.208" y1="-1.907" x2="34.208" y2="50.097"/>
				<line fill="none" stroke="#A2A1A3" stroke-width="0.2835" x1="32.938" y1="-1.907" x2="32.938" y2="50.097"/>
				<line fill="none" stroke="#A2A1A3" stroke-width="0.2835" x1="31.669" y1="-1.907" x2="31.669" y2="50.097"/>
				<line fill="none" stroke="#A2A1A3" stroke-width="0.2835" x1="30.399" y1="-1.907" x2="30.399" y2="50.097"/>
				<line fill="none" stroke="#A2A1A3" stroke-width="0.2835" x1="29.13" y1="-1.907" x2="29.13" y2="50.097"/>
				<line fill="none" stroke="#A2A1A3" stroke-width="0.2835" x1="27.86" y1="-1.907" x2="27.86" y2="50.097"/>
				<line fill="none" stroke="#A2A1A3" stroke-width="0.2835" x1="26.59" y1="-1.907" x2="26.59" y2="50.097"/>
				<line fill="none" stroke="#A2A1A3" stroke-width="0.2835" x1="25.32" y1="-1.907" x2="25.32" y2="50.097"/>
				<line fill="none" stroke="#A2A1A3" stroke-width="0.2835" x1="24.051" y1="-1.907" x2="24.051" y2="50.097"/>
				<line fill="none" stroke="#A2A1A3" stroke-width="0.2835" x1="22.794" y1="-1.907" x2="22.794" y2="50.097"/>
				<line fill="none" stroke="#A2A1A3" stroke-width="0.2835" x1="21.524" y1="-1.907" x2="21.524" y2="50.097"/>
				<line fill="none" stroke="#A2A1A3" stroke-width="0.2835" x1="20.255" y1="-1.907" x2="20.255" y2="50.097"/>
				<line fill="none" stroke="#A2A1A3" stroke-width="0.2835" x1="18.985" y1="-1.907" x2="18.985" y2="50.097"/>
				<line fill="none" stroke="#A2A1A3" stroke-width="0.2835" x1="17.715" y1="-1.907" x2="17.715" y2="50.097"/>
				<line fill="none" stroke="#A2A1A3" stroke-width="0.2835" x1="16.446" y1="-1.907" x2="16.446" y2="50.097"/>
				<line fill="none" stroke="#A2A1A3" stroke-width="0.2835" x1="15.176" y1="-1.907" x2="15.176" y2="50.097"/>
				<line fill="none" stroke="#A2A1A3" stroke-width="0.2835" x1="13.907" y1="-1.907" x2="13.907" y2="50.097"/>
				<line fill="none" stroke="#A2A1A3" stroke-width="0.2835" x1="12.637" y1="-1.907" x2="12.637" y2="50.097"/>
				<line fill="none" stroke="#A2A1A3" stroke-width="0.2835" x1="11.367" y1="-1.907" x2="11.367" y2="50.097"/>
				<line fill="none" stroke="#A2A1A3" stroke-width="0.2835" x1="10.11" y1="-1.907" x2="10.11" y2="50.097"/>
				<line fill="none" stroke="#A2A1A3" stroke-width="0.2835" x1="8.841" y1="-1.907" x2="8.841" y2="50.097"/>
				<line fill="none" stroke="#A2A1A3" stroke-width="0.2835" x1="7.571" y1="-1.907" x2="7.571" y2="50.097"/>
				<line fill="none" stroke="#A2A1A3" stroke-width="0.2835" x1="6.301" y1="-1.907" x2="6.301" y2="50.097"/>
				<line fill="none" stroke="#A2A1A3" stroke-width="0.2835" x1="5.032" y1="-1.907" x2="5.032" y2="50.097"/>
			</g>
		</g>
		<g id="collar_shadow" opacity="0.75">
			<path d="M20.361,7.153c0.354,0.929,0.855,1.779,1.453,2.552c0.3,0.386,0.62,0.753,0.962,1.098c0.336,0.34,0.71,0.68,1.064,0.945
				l-0.739,0.014c0.753-0.654,1.517-1.255,2.338-1.82c0.411-0.28,0.834-0.547,1.29-0.785c0.465-0.226,0.929-0.467,1.588-0.506
				c0.728,0.02,1.162,0.314,1.62,0.558c0.442,0.263,0.85,0.553,1.244,0.854c0.789,0.607,1.521,1.247,2.24,1.934l-0.632-0.113
				l-0.001,0c0.301-0.125,0.749-0.49,1.08-0.833c0.352-0.359,0.673-0.762,0.97-1.187c0.594-0.852,1.091-1.789,1.524-2.757
				l0.002-0.005c0.029-0.064,0.105-0.094,0.17-0.064c0.061,0.027,0.09,0.097,0.068,0.159c-0.347,1.013-0.761,2.008-1.294,2.95
				c-0.269,0.47-0.566,0.927-0.911,1.354c-0.358,0.426-0.707,0.825-1.258,1.147l-0.001,0l-0.011,0.005
				c-0.105,0.047-0.225,0.019-0.299-0.06c-0.65-0.694-1.357-1.354-2.108-1.939c-0.374-0.295-0.758-0.578-1.158-0.824
				C29.17,9.596,28.73,9.35,28.336,9.355c-0.848,0.112-1.679,0.71-2.438,1.246c-0.769,0.556-1.496,1.193-2.163,1.862
				c-0.135,0.139-0.36,0.141-0.502,0.01c-0.773-0.737-1.396-1.541-1.944-2.417c-0.54-0.873-0.969-1.822-1.23-2.807
				c-0.022-0.085,0.028-0.172,0.113-0.194C20.251,7.035,20.333,7.079,20.361,7.153z"/>
		</g>
		<g>
			<g>
				<path d="M22.279,2.758c0.713,1.204,1.631,2.313,2.656,3.283c1.021,0.978,2.155,1.839,3.391,2.513
					c0.104,0.057,0.142,0.187,0.085,0.291c-0.027,0.05-0.071,0.084-0.122,0.101L28.279,8.95c-0.448,0.145-0.872,0.357-1.271,0.592
					l-1.191,0.66c-0.385,0.236-0.785,0.462-1.167,0.734c-0.39,0.261-0.754,0.565-1.123,0.866l-0.01,0.008
					c-0.083,0.068-0.197,0.073-0.285,0.022c-0.767-0.448-1.363-1.105-1.84-1.81c-0.48-0.708-0.862-1.468-1.182-2.248
					c-0.33-0.778-0.549-1.593-0.754-2.405c-0.2-0.815-0.358-1.634-0.446-2.475c-0.012-0.117,0.073-0.222,0.189-0.233
					c0.111-0.012,0.211,0.064,0.231,0.172l0.001,0.007c0.147,0.8,0.331,1.606,0.542,2.396c0.211,0.792,0.484,1.564,0.771,2.326
					c0.295,0.758,0.646,1.495,1.088,2.165c0.44,0.667,0.983,1.273,1.652,1.669l-0.292,0.03c0.715-0.625,1.44-1.273,2.281-1.781
					c0.837-0.513,1.762-0.854,2.691-1.107l-0.046,0.391c-1.266-0.708-2.423-1.596-3.459-2.603c-1.033-1.012-1.965-2.115-2.745-3.349
					c-0.063-0.1-0.033-0.231,0.066-0.293c0.099-0.063,0.23-0.033,0.293,0.066C22.275,2.751,22.278,2.757,22.279,2.758z"/>
			</g>
			<g>
				<path d="M34.779,2.977c-0.78,1.234-1.712,2.337-2.745,3.349c-1.036,1.006-2.193,1.895-3.459,2.603l-0.046-0.391h0
					c0.933,0.257,1.864,0.568,2.724,1.072c0.427,0.252,0.833,0.561,1.175,0.936c0.346,0.373,0.608,0.813,0.844,1.225v0l-0.348-0.094
					c0.691-0.411,1.248-1.047,1.707-1.738c0.46-0.696,0.83-1.457,1.148-2.239c0.655-1.556,1.151-3.204,1.482-4.866l0.002-0.008
					c0.022-0.115,0.135-0.189,0.25-0.167c0.112,0.022,0.187,0.131,0.168,0.243C37.395,4.618,36.97,6.3,36.323,7.925
					c-0.341,0.803-0.737,1.589-1.236,2.32c-0.499,0.725-1.109,1.413-1.908,1.873c-0.121,0.071-0.275,0.031-0.347-0.09l-0.003-0.004
					l0,0c-0.358-0.354-0.635-0.701-0.958-0.976c-0.321-0.276-0.657-0.524-1.029-0.754c-0.359-0.253-0.771-0.437-1.176-0.662
					c-0.408-0.217-0.832-0.425-1.25-0.684h0c-0.113-0.032-0.179-0.149-0.147-0.263c0.016-0.056,0.054-0.102,0.101-0.128
					c1.228-0.687,2.357-1.552,3.37-2.536c1.007-0.984,1.93-2.081,2.676-3.263L34.42,2.75c0.063-0.099,0.193-0.129,0.293-0.066
					C34.813,2.747,34.842,2.877,34.779,2.977L34.779,2.977z"/>
			</g>
		</g>
		<g>
			<path d="M27.007,45.183c0.001-5.991,0.014-11.978-0.091-17.967c-0.036-2.996-0.092-5.989-0.087-8.99l0.115-8.987
				c0.001-0.12,0.1-0.216,0.22-0.214c0.12,0.002,0.216,0.1,0.214,0.22v0.002l-0.123,8.982c-0.006,2.989,0.06,5.986,0.1,8.98
				c0.118,5.989,0.107,11.984,0.111,17.974c0,0.127-0.103,0.229-0.229,0.229C27.11,45.412,27.007,45.31,27.007,45.183L27.007,45.183
				z"/>
		</g>
		<g id="buttons">
			<g>
				<path fill="#EFF0ED" stroke="#000000" stroke-width="0.4252" stroke-linecap="round" stroke-linejoin="round" d="M29.441,14.725
					c0,0.362-0.293,0.656-0.656,0.656l0,0c-0.362,0-0.656-0.294-0.656-0.656l0,0c0-0.362,0.294-0.656,0.656-0.656l0,0
					C29.148,14.068,29.441,14.362,29.441,14.725L29.441,14.725z"/>
				<path fill="#EFF0ED" stroke="#000000" stroke-width="0.4252" d="M29.352,20.934c0,0.362-0.294,0.656-0.656,0.656l0,0
					c-0.362,0-0.656-0.294-0.656-0.656l0,0c0-0.362,0.294-0.656,0.656-0.656l0,0C29.058,20.278,29.352,20.572,29.352,20.934
					L29.352,20.934z"/>
				<path fill="#EFF0ED" stroke="#000000" stroke-width="0.4252" d="M29.626,27.937c0,0.361-0.294,0.656-0.656,0.656l0,0
					c-0.362,0-0.656-0.295-0.656-0.656l0,0c0-0.363,0.294-0.656,0.656-0.656l0,0C29.332,27.28,29.626,27.573,29.626,27.937
					L29.626,27.937z"/>
				<path fill="#EFF0ED" stroke="#000000" stroke-width="0.4252" d="M29.774,34.631c0,0.361-0.293,0.656-0.655,0.656l0,0
					c-0.362,0-0.656-0.295-0.656-0.656l0,0c0-0.363,0.294-0.656,0.656-0.656l0,0C29.481,33.975,29.774,34.268,29.774,34.631
					L29.774,34.631z"/>
				<path fill="#EFF0ED" stroke="#000000" stroke-width="0.4252" d="M29.659,40.745c0,0.361-0.294,0.656-0.656,0.656l0,0
					c-0.362,0-0.656-0.295-0.656-0.656l0,0c0-0.363,0.294-0.656,0.656-0.656l0,0C29.365,40.089,29.659,40.382,29.659,40.745
					L29.659,40.745z"/>
			</g>
			<path fill="#EFF0ED" stroke="#000000" stroke-width="0.4252" stroke-linecap="round" stroke-linejoin="round" d="M29.301,10.572
				c0,0.362-0.294,0.656-0.656,0.656l0,0c-0.362,0-0.656-0.294-0.656-0.656l0,0c0-0.362,0.294-0.656,0.656-0.656l0,0
				C29.007,9.916,29.301,10.209,29.301,10.572L29.301,10.572z"/>
		</g>
	</g>
	<g id="cardigan" display="none" clip-path="url(#clipping_mask_1_)">
		<path display="inline" fill="#9E2D3A" stroke="#000000" stroke-width="0.5669" stroke-linejoin="round" d="M38.592,1.6
			c0,0,1.369,10.093-10.243,18.692C16.733,11.692,18.104,1.6,18.104,1.6L1.349,1.438v45.313h53.996V1.438L38.592,1.6z"/>
		<path display="inline" fill="none" stroke="#000000" stroke-width="0.5669" stroke-linejoin="round" d="M38.591,7.788
			c0,0,1.369,5.84-10.243,14.44c-11.615-8.6-10.245-14.44-10.245-14.44"/>
	</g>
	<g id="belt" clip-path="url(#clipping_mask_1_)">
		
			<rect x="-0.566" y="42.258" fill="#692E14" stroke="#000000" stroke-width="0.5669" stroke-linejoin="round" stroke-miterlimit="10" width="55.481" height="3.438"/>
		<g>
			<circle cx="20.479" cy="43.992" r="0.411"/>
			<circle cx="24.135" cy="43.992" r="0.411"/>
			<circle cx="27.791" cy="43.992" r="0.411"/>
			<circle cx="31.447" cy="43.992" r="0.411"/>
			<circle cx="35.104" cy="43.992" r="0.411"/>
		</g>
		<g>
			
				<path fill="#A2A1A3" stroke="#000000" stroke-width="0.2835" stroke-linecap="round" stroke-linejoin="round" stroke-miterlimit="10" d="
				M29.854,41.695h-2.835c-0.498,0-0.903,0.404-0.903,0.902v2.788c0,0.498,0.405,0.902,0.903,0.902h2.835
				c0.498,0,0.903-0.404,0.903-0.902v-2.788C30.757,42.1,30.352,41.695,29.854,41.695z M29.907,45.386h-2.889V42.57h2.889V45.386z"
				/>
			
				<path fill="#A2A1A3" stroke="#000000" stroke-width="0.2835" stroke-linecap="round" stroke-linejoin="round" stroke-miterlimit="10" d="
				M27.864,44.325h-1.67c-0.142,0-0.258-0.151-0.258-0.334c0-0.184,0.116-0.332,0.258-0.332h1.67c0.142,0,0.258,0.148,0.258,0.332
				C28.122,44.174,28.006,44.325,27.864,44.325z"/>
		</g>
	</g>
	<g id="coat" clip-path="url(#clipping_mask_1_)">
		<path stroke="#676C68" stroke-width="0.5669" stroke-linecap="round" stroke-linejoin="round" d="M18.822,1.237
			c0,0-0.058,8.25,3.351,18.204c-0.043,2.022-1.501,27.108-1.501,27.108L1.077,46.675L1.452,0L18.822,1.237z M37.872,1.237
			c0,0,0.058,8.25-3.35,18.204c0.043,2.022,1.217,27.108,1.217,27.108l19.873,0.125L55.237,0L37.872,1.237z"/>
		<path fill="none" stroke="#676C68" stroke-width="0.4252" stroke-linecap="round" stroke-linejoin="round" d="M22.007,23.329
			c0,0-0.919-2.987-4.604-9.596c-0.861-1.544-1.661-2.758-2.276-3.65c0.116-0.561,3.433-2.357,3.433-2.357s-4.274,1.929-4.878,1.299
			c-0.952-0.993,0.088-6.412,0.088-6.412 M34.687,23.187c0,0,1.067-5.337,6.88-13.246c-0.115-0.561-3.433-2.216-3.433-2.216
			s4.274,1.929,4.878,1.299c0.953-0.993-0.088-6.412-0.088-6.412 M38.545,9.778l0.676,0.36"/>
		<g>
			
				<circle fill="none" stroke="#676C68" stroke-width="0.4252" stroke-linecap="round" stroke-linejoin="round" cx="20.199" cy="23.612" r="0.759"/>
			
				<circle fill="none" stroke="#676C68" stroke-width="0.4252" stroke-linecap="round" stroke-linejoin="round" cx="19.653" cy="31.308" r="0.759"/>
			
				<circle fill="none" stroke="#676C68" stroke-width="0.4252" stroke-linecap="round" stroke-linejoin="round" cx="19.107" cy="39.003" r="0.759"/>
		</g>
		<g>
			
				<line fill="none" stroke="#676C68" stroke-width="0.4252" stroke-linecap="round" stroke-linejoin="round" x1="37.692" y1="22.826" x2="35.632" y2="23.086"/>
			
				<line fill="none" stroke="#676C68" stroke-width="0.4252" stroke-linecap="round" stroke-linejoin="round" x1="38.163" y1="30.954" x2="36.095" y2="31.146"/>
			
				<line fill="none" stroke="#676C68" stroke-width="0.4252" stroke-linecap="round" stroke-linejoin="round" x1="38.633" y1="39.081" x2="36.559" y2="39.206"/>
		</g>
		<g>
			<g>
				<path fill="none" stroke="#605F61" stroke-width="0.4252" stroke-linejoin="round" stroke-miterlimit="10" d="M16.4,31.961
					l-0.009,2.534c0,0-1.596-0.104-2.483-0.104c-0.733-0.002-2.859,1.157-2.859,1.157S8.991,34.39,8.28,34.39
					c-0.887,0.002-2.484,0.105-2.484,0.105l-0.008-2.533h5.348L16.4,31.961z"/>
				<path fill="none" stroke="#605F61" stroke-width="0.4252" stroke-linejoin="round" stroke-miterlimit="10" d="M16.137,34.414
					l-0.135,5.89c0,0.299-0.241,0.54-0.54,0.54H6.725c-0.298,0-0.54-0.241-0.54-0.54l-0.135-5.89"/>
				<g>
					<path fill="#605F61" d="M11.094,33.273c0.286,0,0.518,0.232,0.518,0.518s-0.232,0.518-0.518,0.518
						c-0.285,0-0.517-0.232-0.517-0.518S10.809,33.273,11.094,33.273 M11.094,32.849c-0.52,0-0.942,0.421-0.942,0.942
						c0,0.52,0.422,0.942,0.942,0.942c0.521,0,0.943-0.423,0.943-0.942C12.037,33.27,11.614,32.849,11.094,32.849L11.094,32.849z"/>
				</g>
				<g display="none">
					
						<line display="inline" fill="none" stroke="#605F61" stroke-width="0.4252" stroke-linejoin="round" stroke-miterlimit="10" x1="9.542" y1="40.844" x2="9.542" y2="34.848"/>
					
						<line display="inline" fill="none" stroke="#605F61" stroke-width="0.4252" stroke-linejoin="round" stroke-miterlimit="10" x1="12.646" y1="40.844" x2="12.646" y2="34.848"/>
				</g>
			</g>
			<g>
				<path fill="none" stroke="#605F61" stroke-width="0.4252" stroke-linejoin="round" stroke-miterlimit="10" d="M50.905,31.961
					l-0.008,2.534c0,0-1.597-0.104-2.483-0.104c-0.733-0.002-2.859,1.157-2.859,1.157s-2.058-1.159-2.769-1.159
					c-0.887,0.002-2.483,0.105-2.483,0.105l-0.009-2.533h5.348L50.905,31.961z"/>
				<path fill="none" stroke="#605F61" stroke-width="0.4252" stroke-linejoin="round" stroke-miterlimit="10" d="M50.643,34.414
					l-0.134,5.89c0,0.299-0.241,0.54-0.54,0.54h-8.737c-0.299,0-0.54-0.241-0.54-0.54l-0.135-5.89"/>
				<g>
					<path fill="#605F61" d="M45.6,33.273c0.285,0,0.518,0.232,0.518,0.518s-0.232,0.518-0.518,0.518s-0.518-0.232-0.518-0.518
						S45.314,33.273,45.6,33.273 M45.6,32.849c-0.521,0-0.942,0.421-0.942,0.942c0,0.52,0.422,0.942,0.942,0.942
						s0.942-0.423,0.942-0.942C46.542,33.27,46.12,32.849,45.6,32.849L45.6,32.849z"/>
				</g>
				<g display="none">
					
						<line display="inline" fill="none" stroke="#605F61" stroke-width="0.4252" stroke-linejoin="round" stroke-miterlimit="10" x1="44.048" y1="40.844" x2="44.048" y2="34.848"/>
					
						<line display="inline" fill="none" stroke="#605F61" stroke-width="0.4252" stroke-linejoin="round" stroke-miterlimit="10" x1="47.152" y1="40.844" x2="47.152" y2="34.848"/>
				</g>
			</g>
		</g>
		<g>
			<g>
				<path fill="none" stroke="#605F61" stroke-width="0.4252" stroke-linejoin="round" stroke-miterlimit="10" d="M16.147,15.876
					l-0.006,2.027c0,0-2.336,0.845-3.425,0.843c-1.071-0.002-3.353-0.843-3.353-0.843l-0.007-2.026h3.429L16.147,15.876z"/>
				<path fill="none" stroke="#605F61" stroke-width="0.4252" stroke-linejoin="round" stroke-miterlimit="10" d="M16.08,17.839
					l-0.108,4.711c0,0.24-0.193,0.432-0.432,0.432H9.966c-0.238,0-0.432-0.192-0.432-0.432l-0.107-4.711"/>
				<g>
					<path fill="#605F61" d="M12.753,16.899c0.244,0,0.442,0.198,0.442,0.442s-0.198,0.442-0.442,0.442s-0.442-0.198-0.442-0.442
						S12.509,16.899,12.753,16.899 M12.753,16.587c-0.416,0-0.754,0.336-0.754,0.754c0,0.416,0.338,0.754,0.754,0.754
						s0.754-0.338,0.754-0.754C13.507,16.923,13.169,16.587,12.753,16.587L12.753,16.587z"/>
				</g>
			</g>
			<g>
				<path fill="none" stroke="#605F61" stroke-width="0.4252" stroke-linejoin="round" stroke-miterlimit="10" d="M47.336,15.876
					l-0.007,2.027c0,0-2.336,0.845-3.425,0.843c-1.071-0.002-3.352-0.843-3.352-0.843l-0.008-2.026h3.43L47.336,15.876z"/>
				<path fill="none" stroke="#605F61" stroke-width="0.4252" stroke-linejoin="round" stroke-miterlimit="10" d="M47.268,17.839
					L47.16,22.55c0,0.24-0.194,0.432-0.433,0.432h-5.574c-0.238,0-0.432-0.192-0.432-0.432l-0.107-4.711"/>
				<g>
					<path fill="#605F61" d="M43.94,16.899c0.244,0,0.443,0.198,0.443,0.442s-0.199,0.442-0.443,0.442s-0.442-0.198-0.442-0.442
						S43.696,16.899,43.94,16.899 M43.94,16.587c-0.416,0-0.754,0.336-0.754,0.754c0,0.416,0.338,0.754,0.754,0.754
						c0.417,0,0.755-0.338,0.755-0.754C44.695,16.923,44.357,16.587,43.94,16.587L43.94,16.587z"/>
				</g>
			</g>
		</g>
	</g>
	
		<path id="torso_2_" inkscape:connector-curvature="0" display="none" clip-path="url(#clipping_mask_1_)" stroke="#000000" stroke-width="0.3125" d="
		M2.36,45.549C11.093-1.745,7.703,2.87,16.628,2.693h23.44c8.926,0.177,5.535-4.438,14.265,42.856H2.36z"/>
</g>
</svg>
