<?xml version="1.0" encoding="utf-8"?>
<!-- Generator: Adobe Illustrator 15.1.0, SVG Export Plug-In . SVG Version: 6.00 Build 0)  -->
<!DOCTYPE svg PUBLIC "-//W3C//DTD SVG 1.1//EN" "http://www.w3.org/Graphics/SVG/1.1/DTD/svg11.dtd">
<svg version="1.1" xmlns="http://www.w3.org/2000/svg" xmlns:xlink="http://www.w3.org/1999/xlink" x="0px" y="0px"
	 width="117.764px" height="48.189px" viewBox="0 0 117.764 48.189" enable-background="new 0 0 117.764 48.189"
	 xml:space="preserve">
<g id="torso-base">
	<path id="torso-front" fill="#DCC291" stroke="#DCC291" stroke-width="0.3125" d="M2.358,45.644
		C11.091-1.65,7.701,2.964,16.626,2.787h23.44c8.926,0.177,5.535-4.438,14.266,42.857H2.358z"/>
	<path id="torso-back" fill="#DCC291" stroke="#DCC291" stroke-width="0.3125" d="M63.43,45.644
		C72.162-1.65,68.773,2.964,77.697,2.788h23.441c8.926,0.177,5.535-4.438,14.266,42.856H63.43z"/>
</g>
<g id="front-design">
	<defs>
		<path id="mask_2_" d="M2.869,45.219c1.933-10.488,3.279-18.484,4.267-24.346C10.008,3.822,10.242,3.16,13.395,3.16
			c0.331,0,0.689,0.012,1.082,0.024c0.481,0.016,1.012,0.033,1.6,0.033c0.181,0,0.366-0.002,0.558-0.005h23.432
			c0.183,0.003,0.369,0.005,0.55,0.005c0.588,0,1.118-0.018,1.6-0.033c0.393-0.013,0.751-0.024,1.082-0.024
			c3.153,0,3.388,0.662,6.256,17.701c0.987,5.864,2.334,13.862,4.268,24.358H2.869z"/>
	</defs>
	<clipPath id="mask_1_">
		<use xlink:href="#mask_2_"  overflow="visible"/>
	</clipPath>
	<g id="vest_details" clip-path="url(#mask_1_)">
		<g id="pads">
			<g id="right_pads">
				<g>
					<path fill="#091724" d="M34.836,24.933c-0.281,0.233-0.863,0.713-1.548,0.343c-0.303-0.195-0.391-0.489-0.438-0.716
						c-0.052-0.234-0.028-0.464-0.024-0.665c0.027-0.798-0.019-1.595-0.021-2.393l-0.088-4.784l-0.084-2.391
						c-0.01-0.193-0.025-0.407-0.021-0.605c0.016-0.226,0.062-0.435,0.14-0.638c0.162-0.403,0.462-0.758,0.851-0.971
						c0.376-0.224,0.861-0.288,1.263-0.249l1.194,0.064l2.389,0.128l2.4,0.132c0.874,0.085,1.699,0.563,2.182,1.331
						c0.252,0.395,0.333,0.868,0.306,1.316c-0.027,0.438-0.127,0.858-0.278,1.257c-0.148,0.4-0.351,0.78-0.608,1.132
						c-0.275,0.365-0.576,0.624-0.847,0.913c-2.221,2.292-4.479,4.545-6.753,6.782l-0.01,0.011L34.836,24.933z M34.39,24.395
						l6.81-6.67c0.279-0.285,0.592-0.547,0.8-0.845c0.218-0.304,0.394-0.644,0.521-0.999c0.244-0.7,0.369-1.509-0.002-2.061
						c-0.37-0.568-1.032-0.987-1.729-1.065l-2.372-0.178l-2.386-0.189l-1.192-0.095c-0.391-0.044-0.729,0.004-1.047,0.174
						c-0.313,0.162-0.556,0.441-0.694,0.762c-0.067,0.162-0.107,0.341-0.123,0.501c-0.01,0.201,0.001,0.378,0.006,0.587l0.066,2.392
						l0.134,4.783l0.066,2.392c-0.002,0.369,0.084,0.773,0.303,0.877c0.209,0.111,0.549-0.078,0.818-0.345L34.39,24.395z"/>
				</g>
				<g>
					<path fill="#091724" d="M47.627,19.596c0.148,0.101,0.303,0.223,0.459,0.383c0.139,0.152,0.259,0.316,0.363,0.492
						c0.201,0.354,0.318,0.751,0.352,1.153c0.063,0.799-0.185,1.65-0.782,2.238l0.021-0.023c-1.146,1.399-2.369,2.676-3.603,3.966
						c-1.234,1.28-2.484,2.552-3.848,3.733c-1.372,1.148-2.802,2.329-4.614,2.937c-0.917,0.278-1.918,0.286-2.854-0.072
						c-0.466-0.185-0.865-0.604-1.006-1.091c-0.146-0.492-0.05-0.998,0.128-1.434c0.738-1.678,1.908-3.052,3.07-4.404l3.584-3.942
						l3.594-3.946c0.693-0.664,1.641-0.974,2.574-0.971c0.469,0.002,0.938,0.096,1.374,0.283c0.446,0.197,0.795,0.462,1.175,0.692
						L47.627,19.596z M47.387,19.947c-0.377-0.231-0.746-0.504-1.113-0.665c-0.379-0.165-0.795-0.251-1.213-0.254
						c-0.831-0.009-1.691,0.279-2.284,0.845l-3.593,3.918l-3.594,3.934c-1.152,1.315-2.286,2.716-2.969,4.305
						c-0.151,0.376-0.218,0.796-0.104,1.16c0.107,0.363,0.391,0.65,0.767,0.777c0.759,0.254,1.674,0.125,2.472-0.145
						c1.633-0.575,3.066-1.661,4.415-2.782c1.35-1.137,2.601-2.396,3.863-3.641c1.249-1.253,2.511-2.52,3.646-3.85l0.013-0.014
						l0.006-0.006c0.495-0.472,0.737-1.184,0.678-1.871c-0.028-0.344-0.129-0.681-0.298-0.978c-0.087-0.146-0.188-0.284-0.302-0.409
						c-0.105-0.11-0.24-0.223-0.402-0.333L47.387,19.947z"/>
				</g>
				<g>
					<path fill="#091724" d="M49.536,27.67c-0.017-0.315-0.081-0.597-0.255-0.778c-0.166-0.169-0.434-0.142-0.674,0.007
						c-0.238,0.132-0.453,0.373-0.692,0.585L47.22,28.13l-2.796,2.573c-0.925,0.864-1.881,1.695-2.83,2.533
						c-0.438,0.419-1.082,0.831-1.102,1.241c-0.02,0.161,0.181,0.306,0.453,0.37c0.26,0.059,0.595,0.065,0.907,0.096l3.787,0.3
						l1.894,0.15c0.32,0.025,0.622,0.061,0.896-0.004c0.281-0.061,0.542-0.201,0.753-0.396c0.439-0.41,0.561-0.995,0.497-1.634
						l-0.048-1.898l-0.095-3.798V27.67z M49.831,27.656l0.095,3.799l0.048,1.899c0.007,0.306,0.033,0.651-0.063,0.985
						c-0.087,0.332-0.272,0.636-0.517,0.876c-0.249,0.235-0.562,0.406-0.896,0.481c-0.344,0.082-0.68,0.04-0.988,0.02l-1.896-0.134
						l-3.789-0.268c-0.316-0.029-0.625-0.025-0.968-0.097c-0.166-0.042-0.336-0.101-0.488-0.217
						c-0.153-0.111-0.271-0.316-0.266-0.521c0.013-0.406,0.286-0.689,0.509-0.905l0.71-0.639l2.828-2.537l2.827-2.537
						c0.497-0.414,0.887-0.863,1.471-1.25c0.275-0.179,0.765-0.249,1.054,0.062c0.266,0.281,0.313,0.672,0.328,0.978V27.656z"/>
				</g>
			</g>
			<g id="left_pads_1_">
				<g>
					<path fill="#091724" d="M22.504,24.213c0.265,0.28,0.472,0.396,0.566,0.411c0.163,0.032,0.362-0.374,0.376-0.741
						c0.072-0.796,0.071-1.594,0.112-2.39l0.179-4.782l0.049-2.392c0.011-0.415,0.012-0.78-0.148-1.11
						c-0.151-0.329-0.409-0.607-0.73-0.763c-0.326-0.167-0.668-0.198-1.058-0.156l-1.193,0.083l-2.387,0.166l-2.375,0.168
						c-0.709,0.073-1.4,0.5-1.741,1.103c-0.348,0.575-0.189,1.367,0.081,2.046c0.14,0.343,0.327,0.668,0.55,0.952
						c0.21,0.27,0.525,0.529,0.813,0.808c2.337,2.173,4.637,4.384,6.921,6.611L22.504,24.213z M22.031,24.725l-6.837-6.696
						c-0.277-0.284-0.581-0.54-0.858-0.876c-0.264-0.332-0.476-0.697-0.638-1.085c-0.164-0.388-0.279-0.799-0.32-1.233
						c-0.042-0.442,0.023-0.918,0.265-1.325c0.454-0.802,1.308-1.288,2.194-1.369l2.403-0.123l2.391-0.104l1.195-0.052
						c0.401-0.037,0.888,0.009,1.274,0.23c0.397,0.207,0.71,0.562,0.885,0.971c0.085,0.208,0.137,0.42,0.157,0.657
						c0.01,0.197-0.001,0.419-0.006,0.609l-0.067,2.392l-0.133,4.783l-0.067,2.392c-0.023,0.389-0.021,0.932-0.535,1.244
						c-0.57,0.244-1.02-0.162-1.296-0.408L22.031,24.725z"/>
				</g>
				<g>
					<path fill="#091724" d="M9.313,19.941c-0.161,0.109-0.294,0.221-0.399,0.331c-0.113,0.125-0.214,0.263-0.302,0.41
						c-0.169,0.296-0.27,0.634-0.297,0.978c-0.067,0.689,0.209,1.394,0.702,1.845l0.003,0.003l0.019,0.021
						c1.161,1.302,2.448,2.543,3.722,3.768c1.293,1.214,2.55,2.465,3.905,3.573c1.346,1.108,2.801,2.124,4.354,2.706
						c0.749,0.272,1.608,0.559,2.374,0.356c0.378-0.096,0.679-0.37,0.787-0.739c0.118-0.365,0.056-0.788-0.092-1.169
						c-0.673-1.598-1.783-3.023-2.949-4.333l-3.603-3.925l-3.608-3.905c-0.6-0.568-1.465-0.853-2.298-0.841
						c-0.419,0.005-0.836,0.092-1.215,0.259C10.051,19.438,9.686,19.709,9.313,19.941z M9.077,19.587
						c0.378-0.23,0.725-0.496,1.171-0.695c0.435-0.189,0.906-0.285,1.376-0.289c0.936-0.006,1.887,0.301,2.588,0.967l3.609,3.934
						l3.593,3.934c1.176,1.347,2.321,2.746,3.05,4.432c0.175,0.44,0.266,0.95,0.117,1.443c-0.14,0.493-0.558,0.9-1.026,1.053
						c-0.943,0.307-1.888,0.142-2.756-0.14c-1.734-0.614-3.184-1.725-4.554-2.861c-1.369-1.152-2.624-2.417-3.889-3.664
						c-1.257-1.263-2.507-2.514-3.678-3.885l0.019,0.021c-0.595-0.568-0.876-1.411-0.806-2.212c0.033-0.402,0.15-0.799,0.352-1.153
						c0.104-0.176,0.224-0.339,0.363-0.492c0.156-0.16,0.311-0.282,0.459-0.383L9.077,19.587z"/>
				</g>
				<g>
					<path fill="#091724" d="M6.859,27.651c0.01-0.306,0.05-0.698,0.316-0.989c0.292-0.322,0.799-0.257,1.081-0.078
						c0.322,0.172,0.539,0.411,0.781,0.608l0.718,0.622l2.86,2.5c0.96,0.826,1.889,1.688,2.825,2.54l0.708,0.648
						c0.22,0.22,0.519,0.52,0.531,0.979c0.005,0.233-0.134,0.47-0.304,0.591c-0.169,0.127-0.35,0.186-0.524,0.229
						c-0.361,0.071-0.664,0.063-0.981,0.09l-3.792,0.235l-1.896,0.118c-0.309,0.018-0.648,0.058-0.995-0.028
						c-0.337-0.079-0.65-0.254-0.899-0.492C7.044,34.98,6.86,34.673,6.775,34.34c-0.092-0.336-0.064-0.681-0.059-0.986l0.047-1.899
						l0.095-3.798V27.651z M7.154,27.665L7.06,31.462l-0.048,1.898c-0.007,0.324-0.029,0.622,0.052,0.901
						c0.074,0.281,0.231,0.537,0.436,0.74c0.211,0.198,0.474,0.343,0.757,0.407c0.278,0.068,0.582,0.035,0.902,0.012l1.895-0.134
						l3.79-0.268c0.313-0.027,0.643-0.029,0.921-0.089c0.281-0.063,0.539-0.221,0.527-0.453c-0.039-0.509-0.693-0.893-1.121-1.322
						l-2.828-2.537l-2.828-2.537c-0.472-0.396-0.941-0.902-1.416-1.211c-0.248-0.147-0.533-0.17-0.701,0.01
						c-0.174,0.191-0.231,0.475-0.243,0.79V27.665z"/>
				</g>
			</g>
		</g>
		<g id="vest-outlines">
			<g>
				<path fill="#091724" d="M10.432,45.14c-1.236,0.101-2.492,0.044-3.73-0.322c-0.599-0.205-1.288-0.453-1.699-1.2
					c-0.283-0.594-0.453-1.231-0.584-1.845c-0.244-1.246-0.306-2.5-0.264-3.742c0.043-1.242,0.182-2.479,0.473-3.687l0.198,3.676
					c0.089,1.212,0.191,2.421,0.423,3.587c0.106,0.59,0.265,1.146,0.471,1.678c0.151,0.383,0.686,0.695,1.204,0.924
					C8.008,44.658,9.222,44.903,10.432,45.14z"/>
			</g>
			<g>
				<path fill="#091724" d="M46.26,45.14c1.21-0.237,2.424-0.482,3.507-0.932c0.519-0.229,1.054-0.541,1.204-0.924
					c0.206-0.532,0.364-1.088,0.471-1.678c0.231-1.167,0.333-2.375,0.422-3.587l0.198-3.676c0.291,1.208,0.43,2.444,0.474,3.687
					c0.042,1.242-0.02,2.495-0.264,3.741c-0.131,0.614-0.301,1.251-0.583,1.846c-0.411,0.747-1.1,0.995-1.698,1.2
					C48.751,45.184,47.496,45.241,46.26,45.14z"/>
			</g>
			<g>
				<path fill="#091724" d="M8.136,15.94c0.496-1.169,0.775-2.403,0.913-3.623c0.135-1.222,0.098-2.438-0.101-3.598l1.5-0.044
					c-0.047,1.311-0.278,2.6-0.671,3.824C9.381,13.72,8.85,14.895,8.136,15.94z"/>
			</g>
			<g>
				<path fill="#091724" d="M48.555,15.94c-0.786-1.004-1.402-2.158-1.884-3.38c-0.479-1.225-0.801-2.538-0.93-3.9l1.501,0.044
					c-0.117,1.21-0.064,2.451,0.156,3.673C47.623,13.598,47.986,14.812,48.555,15.94z"/>
			</g>
		</g>
	</g>
	
		<path clip-path="url(#mask_1_)" fill="#692F16" stroke="#091724" stroke-width="0.4252" stroke-linecap="round" stroke-linejoin="round" d="
		M30.073,43.262c-1.338-1.826-1.729-4.251-1.729-4.251s-0.39,2.425-1.728,4.251c-1.27,1.734-4.535,2.624-4.535,2.624h6.263h6.264
		C34.608,45.886,31.343,44.997,30.073,43.262z"/>
	<g id="straps" clip-path="url(#mask_1_)">
		<path id="top-strap" fill="#684431" stroke="#091724" stroke-width="0.4252" d="M49.176,10.508
			c-0.086-0.03-11.48-3.322-20.718-3.322c-9.26,0-20.633,3.292-20.719,3.322l0.181-2.812c0.367-0.131,10.793-3.345,20.539-3.345
			c9.744,0,20.169,3.214,20.537,3.345L49.176,10.508z"/>
		<path fill="#B45B33" stroke="#091724" stroke-width="0.4252" d="M2.318,28.287c2.591-0.518,4.857-1.697,6.515-3.521
			c1.66-1.806,2.659-4.179,3.013-6.677c0.362-2.502,0.113-5.119-0.599-7.594c-0.71-2.48-1.893-4.825-3.422-6.894l3.948-2.764
			c1.735,2.609,3.021,5.509,3.734,8.557c0.712,3.042,0.588,6.246-0.021,9.375c-0.597,3.113-2.04,6.179-4.377,8.478
			c-2.303,2.32-5.175,3.689-8.194,4.13L2.318,28.287z"/>
		<path fill="#B45B33" stroke="#091724" stroke-width="0.4252" d="M54.373,28.287c-2.592-0.518-4.857-1.697-6.516-3.521
			c-1.66-1.806-2.658-4.18-3.014-6.678c-0.361-2.502-0.113-5.118,0.6-7.593c0.709-2.48,1.893-4.825,3.422-6.894l-3.949-2.764
			c-1.734,2.609-3.02,5.509-3.734,8.557c-0.711,3.042-0.588,6.246,0.021,9.374c0.598,3.113,2.041,6.18,4.377,8.479
			c2.303,2.32,5.176,3.689,8.195,4.13L54.373,28.287z"/>
	</g>
	<g id="neck" clip-path="url(#mask_1_)">
		<path fill="#FFCE08" d="M28.345,2.032H11.996c0,0,5.701,0.589,9.9,4.985c2.656,2.781,4.553,3.464,6.449,3.464
			s3.792-0.683,6.448-3.464c4.199-4.396,9.9-4.985,9.9-4.985H28.345z"/>
		<path fill="#091724" d="M28.345,2.244H11.996l0.022-0.424h0.002c3.16,0.452,6.18,1.721,8.676,3.719c1.273,1,2.21,2.271,3.457,3.17
			c1.21,0.941,2.655,1.575,4.192,1.558c1.537,0.016,2.982-0.617,4.192-1.558c1.252-0.905,2.179-2.165,3.458-3.17
			c2.496-1.999,5.516-3.268,8.675-3.719h0.003l0.021,0.424H28.345z M28.345,1.819h16.35l0.021,0.424h-0.001
			c-3.01,0.6-5.952,1.845-8.294,3.818c-0.596,0.48-1.097,1.038-1.674,1.593c-0.579,0.55-1.188,1.075-1.85,1.54
			c-1.298,0.943-2.924,1.584-4.552,1.501c-1.628,0.078-3.253-0.559-4.551-1.502c-0.662-0.465-1.27-0.987-1.852-1.54
			c-0.579-0.557-1.069-1.104-1.672-1.591c-2.341-1.973-5.285-3.218-8.293-3.818h-0.002l0.022-0.424H28.345z"/>
	</g>
	<g id="zipper" clip-path="url(#mask_1_)">
		<path id="chains" fill="#E3E2DB" stroke="#091724" stroke-width="0.4252" d="M30.393,20.07v1.885v0.04v1.885
			c-1.547,0-2.047-0.709-2.047-0.709s-0.5-0.708-2.047-0.708v-0.469v-0.04v-0.469c1.547,0,2.047-0.708,2.047-0.708
			S28.846,20.07,30.393,20.07z M28.346,25.578c0,0,0.5-0.707,2.047-0.707v-0.47v-0.04v-0.469c-1.547,0-2.047-0.708-2.047-0.708
			s-0.5-0.709-2.047-0.709v1.886v0.04v1.886C27.846,26.287,28.346,25.578,28.346,25.578z M30.393,24.881v1.885v0.039v1.886
			c-1.546,0-2.046-0.709-2.046-0.709s-0.5-0.709-2.047-0.709v-0.468v-0.039v-0.469c1.547,0,2.047-0.709,2.047-0.709
			S28.847,24.881,30.393,24.881z M28.347,30.388c0,0,0.5-0.707,2.046-0.707v-0.469v-0.041v-0.469c-1.546,0-2.046-0.707-2.046-0.707
			s-0.5-0.709-2.047-0.709v1.885v0.041v1.885C27.847,31.097,28.347,30.388,28.347,30.388z M30.394,34.504v1.885v0.039v1.886
			c-1.547,0-2.047-0.709-2.047-0.709s-0.5-0.708-2.047-0.708v-0.469v-0.039V35.92c1.547,0,2.047-0.709,2.047-0.709
			S28.847,34.504,30.394,34.504z M30.393,29.693v1.885v0.039v1.886c-1.547,0-2.047-0.709-2.047-0.709s-0.5-0.708-2.047-0.708v-0.469
			v-0.039v-0.469c1.547,0,2.047-0.709,2.047-0.709S28.846,29.693,30.393,29.693z M28.346,35.2c0,0,0.5-0.707,2.047-0.707v-0.47
			v-0.04v-0.469c-1.547,0-2.047-0.708-2.047-0.708s-0.5-0.709-2.047-0.709v1.886v0.04v1.886C27.846,35.909,28.346,35.2,28.346,35.2z
			 M30.393,15.259v1.885v0.04v1.885c-1.547,0-2.047-0.709-2.047-0.709s-0.5-0.708-2.047-0.708v-0.469v-0.04v-0.469
			c1.547,0,2.047-0.708,2.047-0.708S28.846,15.259,30.393,15.259z M28.346,20.766c0,0,0.5-0.707,2.047-0.707v-0.469v-0.04v-0.469
			c-1.547,0-2.047-0.708-2.047-0.708s-0.5-0.709-2.047-0.709v1.886v0.04v1.886C27.846,21.475,28.346,20.766,28.346,20.766z"/>
		<g id="slider">
			<g>
				<path fill="#E3E2DB" stroke="#091724" stroke-width="0.4252" stroke-miterlimit="10" d="M26.524,9.925
					c-0.39,0-0.721,0.319-0.736,0.708l-0.085,2.146c-0.016,0.389,0.288,0.708,0.675,0.708c0.386,0,0.702-0.319,0.702-0.708v-0.125
					c0-0.39,0.072-0.868,0.16-1.063c0.087-0.195,0.8-0.354,1.106-0.354c0.306,0,0.717,0.072,0.911,0.159
					c0.195,0.088,0.354,0.868,0.354,1.258v0.125c0,0.39,0.316,0.708,0.703,0.708c0.386,0,0.689-0.319,0.674-0.708l-0.085-2.146
					c-0.016-0.389-0.348-0.708-0.737-0.708H26.524z"/>
				<path fill="#E3E2DB" stroke="#091724" stroke-width="0.4252" d="M26.524,9.925c-0.39,0-0.721,0.319-0.736,0.708l-0.085,2.146
					c-0.016,0.389,0.288,0.708,0.675,0.708c0.386,0,0.702-0.319,0.702-0.708v-0.125c0-0.39,0.072-0.868,0.16-1.063
					c0.087-0.195,0.8-0.354,1.106-0.354c0.306,0,0.717,0.072,0.911,0.159c0.195,0.088,0.354,0.868,0.354,1.258v0.125
					c0,0.39,0.316,0.708,0.703,0.708c0.386,0,0.689-0.319,0.674-0.708l-0.085-2.146c-0.016-0.389-0.348-0.708-0.737-0.708H26.524z"
					/>
			</g>
			<g>
				<polygon fill="#E3E2DB" stroke="#091724" stroke-width="0.4252" points="28.346,20.877 28.346,20.877 28.345,20.877 				"/>
				<path fill="#E3E2DB" stroke="#091724" stroke-width="0.4252" d="M30.498,13.794c-0.194-0.197-0.51-0.269-0.886-0.292v4.568
					c0,0.78-0.569,1.561-1.266,1.561s-1.267-0.781-1.267-1.561c0-0.206,0-4.569,0-4.569c-0.376,0.023-0.692,0.095-0.887,0.292
					c-0.452,0.458-0.52,1.619-0.52,2.946c0,3.306,0.919,3.995,2.672,3.995c1.752,0,2.671-0.689,2.671-3.995
					C31.017,15.413,30.949,14.252,30.498,13.794z"/>
			</g>
			<path fill="#E3E2DB" stroke="#091724" stroke-width="0.4252" d="M29.604,16.172c0,0.39-0.319,0.708-0.709,0.708h-1.106
				c-0.39,0-0.709-0.319-0.709-0.708v-4.226c0-0.39,0.319-0.708,0.709-0.708h1.106c0.39,0,0.709,0.319,0.709,0.708V16.172z"/>
		</g>
	</g>
	<g id="belt-strap" clip-path="url(#mask_1_)">
		<g id="belt">
			<path fill="#684431" stroke="#091724" stroke-width="0.4252" d="M24.391,42.332c-2.2-0.003-2.922-0.059-5.09-0.145
				c-2.162-0.088-4.324-0.212-6.49-0.382c-4.335-0.354-8.673-0.835-13.094-1.828l1.55-6.016c3.854,1.104,7.987,1.819,12.128,2.392
				c2.075,0.283,4.164,0.523,6.258,0.729c2.087,0.203,2.792,0.379,4.855,0.5L24.391,42.332z"/>
			<path fill="#684431" stroke="#091724" stroke-width="0.4252" d="M30.882,42.332c2.199-0.003,4.34-0.059,6.508-0.145
				c2.16-0.088,4.322-0.212,6.49-0.382c4.334-0.354,8.672-0.835,13.094-1.828l-1.551-6.016c-3.854,1.104-7.986,1.819-12.127,2.392
				c-2.076,0.283-4.164,0.523-6.258,0.729c-2.088,0.203-4.209,0.379-6.273,0.5L30.882,42.332z"/>
		</g>
		<g id="plastic_buckle">
			<path fill="#B45B33" stroke="#091724" stroke-width="0.4252" stroke-linejoin="round" d="M26.768,42.673H26.02
				c-0.624,0-1.134-0.51-1.134-1.134v-3.17c0-0.624,0.51-1.134,1.134-1.134h0.748c0.156,0,0.306,0.032,0.441,0.09
				c-0.104-0.663-0.687-1.173-1.396-1.173h-1.118c-0.783,0-1.417,0.619-1.417,1.382v4.841c0,0.763,0.635,1.382,1.417,1.382h1.118
				c0.71,0,1.292-0.511,1.396-1.174C27.073,42.641,26.924,42.673,26.768,42.673z"/>
			<path fill="#B45B33" stroke="#091724" stroke-width="0.4252" stroke-linejoin="round" d="M33.235,36.26
				c-0.72-0.627-2.068,1.275-3.7,1.275c-1.118,0-0.922-0.391-2.092-0.996c-0.694-0.359-1.458-0.421-1.458-0.421l-0.034,1.063
				c0,0,0.318,2.014,0.331,2.843c-0.013,0.832-0.331,2.561-0.331,2.561l0.034,1.063c0,0,0.764-0.062,1.458-0.421
				c1.17-0.605,0.974-0.996,2.092-0.996c1.632,0,2.98,1.902,3.7,1.275c0.81-0.705-1.407-2.165-1.407-3.624
				C31.828,38.426,34.045,36.965,33.235,36.26z"/>
		</g>
	</g>
	<g id="right-carbine" clip-path="url(#mask_1_)">
		<path fill="#684431" stroke="#091724" stroke-width="0.4252" d="M44.269,19.118l-1.62-0.552c0.739-2.166-0.009-4.615-0.016-4.64
			l1.633-0.513C44.304,13.534,45.19,16.411,44.269,19.118z"/>
		<path fill="#E3E2DB" stroke="#091724" stroke-width="0.4252" d="M47.686,27.36c-0.762-1.912-3.566-4.742-3.718-4.881
			c0.663-0.525,1.063-1.355,0.997-2.26c-0.107-1.447-1.385-2.539-2.832-2.432c-1.445,0.106-2.551,1.369-2.443,2.816
			c0.066,0.904,0.585,1.666,1.317,2.088c-0.13,0.161-2.486,3.372-2.96,5.376c-0.688,2.92,0.534,3.758,2.181,3.871
			c0.823,0.055,1.883,0.039,2.948-0.04s2.117-0.214,2.923-0.388C47.709,31.156,48.797,30.147,47.686,27.36z M42.237,19.201
			c0.668-0.049,1.264,0.455,1.313,1.123c0.05,0.666-0.465,1.247-1.134,1.296c-0.666,0.049-1.264-0.455-1.313-1.121
			C41.054,19.831,41.571,19.25,42.237,19.201z M45.57,29.384c0,0-0.628,0.188-2.557,0.331c-1.928,0.143-2.577,0.05-2.577,0.05
			c-0.467,0.034-0.543-0.488-0.537-0.729c0.04-1.579,1.637-4.016,2.246-4.639c0.09-0.089,0.267-0.206,0.458-0.244
			c0.194,0.009,0.387,0.099,0.488,0.173c0.695,0.527,2.633,2.704,2.904,4.259C46.037,28.824,46.039,29.35,45.57,29.384z"/>
		<path fill="#684431" stroke="#091724" stroke-width="0.4252" d="M41.384,20.722c-0.719-0.874-1.524-1.881-1.274-4.42
			c0.146-1.483,0.893-3.247,0.924-3.321c0.174-0.412,1.898,0.275,1.67,0.813c-0.008,0.019-0.311,1.011-0.589,2.143
			c-0.271,1.102-0.362,2.228,0.078,3.043c0.326,0.606,1.524,0.992,0.677,2.02C42.511,21.434,41.777,21.2,41.384,20.722z"/>
		<g>
			<path fill="#E3E2DB" d="M44.934,13.794c-0.033,0.31-0.314,0.536-0.624,0.502l-3.43-0.37c-0.31-0.034-0.536-0.314-0.503-0.625
				l0.266-2.47c0.033-0.31,0.314-0.536,0.624-0.503l3.431,0.37c0.31,0.033,0.536,0.314,0.503,0.624L44.934,13.794z"/>
			<path fill="none" stroke="#091724" stroke-width="0.4252" d="M44.934,13.794c-0.033,0.31-0.314,0.536-0.624,0.502l-3.43-0.37
				c-0.31-0.034-0.536-0.314-0.503-0.625l0.266-2.47c0.033-0.31,0.314-0.536,0.624-0.503l3.431,0.37
				c0.31,0.033,0.536,0.314,0.503,0.624L44.934,13.794z"/>
		</g>
	</g>
	<g id="left-carabin" clip-path="url(#mask_1_)">
		<path fill="#E3E2DB" stroke="#091724" stroke-width="0.4252" stroke-linejoin="round" d="M18.958,35.484
			c-1.119-2.834-2.521-4.507-4.042-4.897c0.961-0.572,1.343-1.434,1.114-2.547c-0.329-1.591-1.767-2.35-3.622-1.967
			c-1.857,0.384-2.734,1.644-2.405,3.234c0.251,1.216,0.936,1.879,2.203,1.938c-1.348,1.179-1.478,3.494-1.368,5.907
			c0.118,2.58,0.399,4.33,1.536,5.167c0.801,0.59,1.936,0.604,3.743,0.357c0.23-0.031,0.653-0.111,0.653-0.111
			c1.28-0.264,2.563-0.622,2.979-1.445C20.277,40.077,20.088,38.347,18.958,35.484z M11.325,29.035
			c-0.158-0.763,0.258-1.657,1.309-1.875c1.047-0.217,1.633,0.403,1.791,1.166s-0.117,1.509-1.165,1.726
			C12.208,30.268,11.482,29.798,11.325,29.035z M17.842,39.833c-0.007,0.561-0.898,0.731-2.012,0.88
			c-1.281,0.175-2.133,0.114-2.533-0.18c-0.716-0.527-0.745-2.595-0.76-3.458c-0.073-4.237,0.63-4.698,1.5-4.878
			c1.025-0.205,2.204,1.327,3.06,3.97C18.07,39.167,17.85,39.223,17.842,39.833z"/>
		<g>
			<path fill="#E3E2DB" d="M20.055,37.95c0.162,0.439-0.069,0.915-0.514,1.06l-1.508,0.486c-0.445,0.145-0.936-0.1-1.091-0.541
				l-1.312-3.738c-0.155-0.441,0.07-0.954,0.5-1.139l1.369-0.587c0.43-0.185,0.914,0.023,1.076,0.462L20.055,37.95z"/>
			<path fill="none" stroke="#091724" stroke-width="0.4252" d="M20.055,37.95c0.162,0.439-0.069,0.915-0.514,1.06l-1.508,0.486
				c-0.445,0.145-0.936-0.1-1.091-0.541l-1.312-3.738c-0.155-0.441,0.07-0.954,0.5-1.139l1.369-0.587
				c0.43-0.185,0.914,0.023,1.076,0.462L20.055,37.95z"/>
		</g>
		<path fill="#684431" stroke="#091724" stroke-width="0.4252" d="M14.059,27.459c-0.199-1.13-0.336-4.336,0.005-5.954l-2.219-0.469
			c-0.494,2.339-0.128,6.219-0.047,6.679c0,0,0.626,0.466,1.225,0.358C13.616,27.968,14.059,27.459,14.059,27.459z"/>
		<g>
			<path fill="#E3E2DB" d="M14.527,22.879c-0.075,0.303-0.384,0.489-0.687,0.414l-2.816-0.697c-0.303-0.075-0.489-0.384-0.414-0.687
				l0.465-1.878c0.075-0.303,0.384-0.489,0.687-0.414l2.816,0.697c0.303,0.075,0.489,0.384,0.414,0.687L14.527,22.879z"/>
			<path fill="none" stroke="#091724" stroke-width="0.4252" d="M14.527,22.879c-0.075,0.303-0.384,0.489-0.687,0.414l-2.816-0.697
				c-0.303-0.075-0.489-0.384-0.414-0.687l0.465-1.878c0.075-0.303,0.384-0.489,0.687-0.414l2.816,0.697
				c0.303,0.075,0.489,0.384,0.414,0.687L14.527,22.879z"/>
		</g>
	</g>
</g>
<g id="torso-back_1_">
	<defs>
		<path id="mask_3_" d="M63.941,45.219c1.932-10.488,3.279-18.484,4.266-24.346c2.873-17.051,3.107-17.713,6.26-17.713
			c0.33,0,0.689,0.012,1.082,0.023c0.48,0.016,1.012,0.033,1.6,0.033c0.182,0,0.365-0.002,0.559-0.005h23.432
			c0.182,0.003,0.369,0.005,0.549,0.005c0.588,0,1.119-0.018,1.6-0.033c0.393-0.012,0.752-0.023,1.082-0.023
			c3.154,0,3.389,0.661,6.256,17.7c0.988,5.864,2.334,13.862,4.268,24.358H63.941z"/>
	</defs>
	<clipPath id="mask_4_">
		<use xlink:href="#mask_3_"  overflow="visible"/>
	</clipPath>
	<g id="vest_details_1_" clip-path="url(#mask_4_)">
		<g id="padding">
			<g>
				<path fill="#091724" d="M109.655,39.369l-12.265,1.559c-0.117,0.015-0.224-0.067-0.238-0.185l-0.002-0.025l-0.04-4.874
					c0.007-0.813-0.046-1.625,0.018-2.438c0.018-0.406,0.045-0.813,0.05-1.219c-0.012-0.406-0.084-0.812-0.087-1.218
					c0.257-1.627-0.432-3.247-0.021-4.876c0.038-0.813-0.104-1.624-0.13-2.436c-0.041-0.813-0.028-1.625,0.067-2.438l0.004-0.028
					c0.012-0.098,0.088-0.172,0.182-0.184l11.984-1.558c0.116-0.015,0.223,0.067,0.238,0.184l0.002,0.023l0.424,19.499
					C109.844,39.262,109.762,39.355,109.655,39.369z M109.412,38.971l-0.42-19.308l0.24,0.206l-11.984,1.558l0.186-0.212
					c0.032,1.625-0.023,3.25,0.082,4.875c0.065,0.813-0.076,1.626-0.029,2.438c-0.007,0.813,0.053,1.625,0.058,2.438
					c-0.003,0.406-0.07,0.813-0.078,1.22c0.01,0.406,0.046,0.812,0.069,1.218c0.076,0.813,0.032,1.625,0.05,2.438
					c0.005,1.625,0.024,3.25-0.009,4.875l-0.239-0.209L109.412,38.971z"/>
			</g>
			<g>
				<polygon fill="#091724" points="97.652,21.046 98.477,22.681 98.269,22.564 104.524,22.085 104.55,22.367 98.306,22.988 
					98.163,23.002 98.098,22.872 97.273,21.237 				"/>
			</g>
			<line fill="none" stroke="#091724" stroke-width="0.4252" x1="98.287" y1="22.776" x2="98.797" y2="37.658"/>
			<g>
				<path fill="#091724" d="M69.422,38.971l12.075,1.534l-0.239,0.209l0.031-4.875c0.019-0.813-0.021-1.625,0.054-2.437
					c0.022-0.406,0.057-0.813,0.067-1.219c-0.006-0.406-0.072-0.813-0.069-1.22c0.281-1.622-0.384-3.253,0.051-4.874
					c0.05-0.813-0.079-1.626-0.094-2.438c-0.029-0.813-0.006-1.625,0.103-2.437l0.186,0.212L69.602,19.87l0.24-0.206L69.422,38.971z
					 M68.992,39.153l0.424-19.499c0.003-0.118,0.101-0.21,0.218-0.208l0.022,0.001l11.984,1.558
					c0.106,0.014,0.185,0.108,0.186,0.212c0.009,1.625-0.071,3.25,0.011,4.875c0.054,0.813-0.1,1.624-0.064,2.438
					c-0.02,0.813,0.028,1.625,0.021,2.438c-0.01,0.406-0.083,0.812-0.096,1.218c0.004,0.406,0.034,0.813,0.051,1.22
					c0.064,0.813,0.009,1.625,0.015,2.438c-0.019,1.625-0.023,3.25-0.08,4.874l-0.001,0.007c-0.004,0.117-0.103,0.209-0.22,0.205
					l-0.02-0.002l-12.265-1.559C69.069,39.355,68.99,39.26,68.992,39.153z"/>
			</g>
			<g>
				<polygon fill="#091724" points="81.561,21.237 80.736,22.872 80.671,23.002 80.528,22.988 74.284,22.367 74.31,22.085 
					80.565,22.564 80.357,22.681 81.182,21.046 				"/>
			</g>
			<line fill="none" stroke="#091724" stroke-width="0.4252" x1="80.547" y1="22.776" x2="80.037" y2="37.658"/>
			<g>
				<path fill="#091724" d="M97.192,30.558c-1.299,0-2.589,0.094-3.885,0.128c-1.295,0.08-2.58,0.162-3.893,0.193
					c-1.308,0.02-2.596-0.106-3.889-0.188c-1.292-0.099-2.587-0.115-3.892-0.047l0.052-0.707c1.284,0.16,2.574,0.266,3.867,0.289
					c1.292,0.032,2.587,0.071,3.865,0.126c1.272,0.003,2.574-0.045,3.863-0.092l3.869-0.267L97.192,30.558z"/>
			</g>
			<g>
				<path fill="#091724" d="M97.188,26.931c-1.292,0.091-2.581,0.215-3.877,0.248c-1.297,0.04-2.585,0.11-3.895,0.108
					c-1.306,0.027-2.6-0.014-3.896-0.045c-0.648-0.007-1.295-0.043-1.94-0.107c-0.646-0.053-1.29-0.102-1.933-0.204l0.041-0.564
					c1.286,0.13,2.572,0.29,3.862,0.375c1.289,0.093,2.58,0.194,3.868,0.228c2.574-0.1,5.158-0.332,7.729-0.603L97.188,26.931z"/>
			</g>
			<g>
				<path fill="#091724" d="M97.178,33.373c-1.289,0.13-2.579,0.236-3.873,0.293l-3.888,0.15c-1.305,0.019-2.596-0.057-3.89-0.122
					c-1.293-0.068-2.583-0.185-3.871-0.321l0.021-0.283c1.292,0.048,2.585,0.105,3.874,0.191c1.289,0.08,2.582,0.168,3.865,0.213
					c1.285,0.018,2.579-0.089,3.866-0.186c1.289-0.098,2.581-0.163,3.873-0.219L97.178,33.373z"/>
			</g>
			<g>
				<path fill="#091724" d="M97.167,36.479c-1.292,0.027-2.583,0.038-3.875-0.012c-1.292-0.055-2.583-0.113-3.875-0.034
					s-2.583,0.03-3.875-0.029c-1.292-0.026-2.583-0.005-3.875,0.075v-0.531c1.292,0.08,2.583,0.102,3.875,0.075
					c1.292-0.06,2.583-0.108,3.875-0.029s2.583,0.021,3.875-0.034c1.292-0.05,2.583-0.039,3.875-0.012V36.479z"/>
			</g>
			<path fill="none" stroke="#091724" stroke-width="0.4252" d="M80.261,20.934l0.271-11.396c0.007-0.312,0.268-0.567,0.58-0.567
				h16.611c0.313,0,0.573,0.255,0.58,0.567l0.271,11.396"/>
			<rect x="82.479" y="14.721" fill="none" stroke="#091724" stroke-width="0.4252" width="13.875" height="4.75"/>
		</g>
		<g id="vest-outlines_1_">
			<g>
				<path fill="#091724" d="M71.504,44.856c-1.236,0.101-2.491,0.044-3.73-0.322c-0.599-0.205-1.287-0.452-1.698-1.2
					c-0.282-0.594-0.453-1.231-0.584-1.845c-0.244-1.246-0.306-2.499-0.264-3.741c0.044-1.242,0.183-2.479,0.474-3.687l0.197,3.676
					c0.089,1.212,0.191,2.42,0.423,3.586c0.107,0.591,0.266,1.145,0.473,1.678c0.149,0.383,0.685,0.696,1.203,0.925
					C69.08,44.375,70.294,44.62,71.504,44.856z"/>
			</g>
			<g>
				<path fill="#091724" d="M107.332,44.856c1.21-0.236,2.424-0.481,3.507-0.932c0.519-0.229,1.053-0.541,1.204-0.924
					c0.206-0.532,0.364-1.087,0.471-1.678c0.231-1.166,0.333-2.375,0.422-3.587l0.197-3.675c0.291,1.208,0.43,2.444,0.474,3.686
					c0.043,1.243-0.019,2.496-0.263,3.742c-0.131,0.613-0.301,1.25-0.583,1.845c-0.411,0.747-1.1,0.995-1.698,1.2
					C109.823,44.9,108.568,44.957,107.332,44.856z"/>
			</g>
			<g>
				<path fill="#091724" d="M69.207,15.657c0.434-1.677,0.761-3.376,0.98-5.071c0.21-1.688,0.318-3.406,0.113-4.984l1.502-0.044
					c-0.045,1.803-0.423,3.519-0.883,5.195C70.448,12.426,69.876,14.063,69.207,15.657z"/>
			</g>
			<g>
				<path fill="#091724" d="M109.627,15.657c-0.748-1.565-1.401-3.182-1.957-4.849c-0.543-1.673-1.013-3.388-1.141-5.266
					l1.502,0.044c-0.121,1.653,0.077,3.37,0.371,5.055C108.706,12.329,109.115,14.008,109.627,15.657z"/>
			</g>
		</g>
	</g>
	<g id="straps_1_" clip-path="url(#mask_4_)">
		<path fill="#B45B33" stroke="#091724" stroke-width="0.4252" d="M63.391,28.286c2.59-0.518,4.857-1.697,6.514-3.519
			c1.66-1.806,2.66-4.18,3.014-6.678c0.361-2.502,0.113-5.118-0.6-7.594c-0.709-2.48-1.893-4.824-3.422-6.894l3.949-2.764
			c1.734,2.608,3.021,5.509,3.734,8.557c0.713,3.042,0.588,6.246-0.021,9.374c-0.596,3.113-2.039,6.18-4.377,8.479
			c-2.303,2.32-5.176,3.689-8.193,4.129L63.391,28.286z"/>
		<path fill="#B45B33" stroke="#091724" stroke-width="0.4252" d="M115.445,28.286c-2.592-0.518-4.857-1.697-6.516-3.519
			c-1.66-1.806-2.658-4.18-3.014-6.678c-0.361-2.502-0.113-5.118,0.6-7.594c0.709-2.48,1.893-4.824,3.422-6.894l-3.949-2.764
			c-1.734,2.608-3.02,5.509-3.734,8.557c-0.711,3.042-0.588,6.246,0.021,9.374c0.598,3.113,2.041,6.18,4.377,8.479
			c2.303,2.32,5.176,3.689,8.195,4.129L115.445,28.286z"/>
		<g id="strap-2">
			<path fill="#B45B33" stroke="#091724" stroke-width="0.4252" stroke-linejoin="round" d="M89.544,21.317
				c-3.721,0-7.441-0.022-7.962-0.065c-0.867-0.072-5.692-0.965-6.68-1.143c0,0-0.298-0.962-0.183-1.625
				c0.129-0.74,0.403-1.165,0.403-1.165c2.233,0.403,6.129,1.061,6.694,1.107c0.939,0.076,14.511,0.076,15.448,0
				c0.566-0.047,4.462-0.704,6.695-1.107c0,0,0.274,0.425,0.403,1.165c0.115,0.663-0.183,1.625-0.183,1.625
				c-0.987,0.178-5.813,1.07-6.681,1.143C96.981,21.295,93.263,21.317,89.544,21.317z"/>
			<g>
				<path fill="#E3E2DB" d="M83.555,20.997c-0.014,0.312-0.278,0.537-0.589,0.5l-2.827-0.331c-0.311-0.036-0.552-0.321-0.538-0.632
					l0.096-2.114c0.014-0.312,0.278-0.537,0.589-0.5l2.827,0.331c0.311,0.036,0.552,0.321,0.538,0.632L83.555,20.997z"/>
				<path fill="none" stroke="#091724" stroke-width="0.4252" stroke-linejoin="round" d="M83.555,20.997
					c-0.014,0.312-0.278,0.537-0.589,0.5l-2.827-0.331c-0.311-0.036-0.552-0.321-0.538-0.632l0.096-2.114
					c0.014-0.312,0.278-0.537,0.589-0.5l2.827,0.331c0.311,0.036,0.552,0.321,0.538,0.632L83.555,20.997z"/>
			</g>
			<g>
				<path fill="#E3E2DB" d="M95.529,21.08c0.014,0.312,0.278,0.537,0.589,0.5l2.827-0.331c0.311-0.036,0.552-0.321,0.538-0.632
					l-0.096-2.114c-0.014-0.312-0.278-0.537-0.589-0.5l-2.827,0.331c-0.311,0.036-0.552,0.321-0.538,0.632L95.529,21.08z"/>
				<path fill="none" stroke="#091724" stroke-width="0.4252" stroke-linejoin="round" d="M95.529,21.08
					c0.014,0.312,0.278,0.537,0.589,0.5l2.827-0.331c0.311-0.036,0.552-0.321,0.538-0.632l-0.096-2.114
					c-0.014-0.312-0.278-0.537-0.589-0.5l-2.827,0.331c-0.311,0.036-0.552,0.321-0.538,0.632L95.529,21.08z"/>
			</g>
		</g>
		<g id="strap-1">
			<path fill="#B45B33" stroke="#091724" stroke-width="0.4252" stroke-linejoin="round" d="M89.419,15.896
				c-3.721,0-7.441-0.022-7.962-0.065c-0.867-0.072-5.692-0.965-6.68-1.143c0,0-0.298-0.962-0.183-1.625
				c0.129-0.74,0.403-1.165,0.403-1.165c2.233,0.403,6.129,1.061,6.694,1.107c0.939,0.076,14.511,0.076,15.448,0
				c0.566-0.047,4.462-0.704,6.695-1.107c0,0,0.274,0.425,0.403,1.165c0.115,0.663-0.183,1.625-0.183,1.625
				c-0.987,0.178-5.813,1.07-6.681,1.143C96.856,15.874,93.138,15.896,89.419,15.896z"/>
			<g>
				<path fill="#E3E2DB" d="M83.43,15.575c-0.014,0.312-0.278,0.537-0.589,0.5l-2.827-0.331c-0.311-0.036-0.552-0.321-0.538-0.632
					l0.096-2.114c0.014-0.312,0.278-0.537,0.589-0.5l2.827,0.331c0.311,0.036,0.552,0.321,0.538,0.632L83.43,15.575z"/>
				<path fill="none" stroke="#091724" stroke-width="0.4252" stroke-linejoin="round" d="M83.43,15.575
					c-0.014,0.312-0.278,0.537-0.589,0.5l-2.827-0.331c-0.311-0.036-0.552-0.321-0.538-0.632l0.096-2.114
					c0.014-0.312,0.278-0.537,0.589-0.5l2.827,0.331c0.311,0.036,0.552,0.321,0.538,0.632L83.43,15.575z"/>
			</g>
			<g>
				<path fill="#E3E2DB" d="M95.404,15.658c0.014,0.312,0.278,0.537,0.589,0.5l2.827-0.331c0.311-0.036,0.552-0.321,0.538-0.632
					l-0.096-2.114c-0.014-0.312-0.278-0.537-0.589-0.5l-2.827,0.331c-0.311,0.036-0.552,0.321-0.538,0.632L95.404,15.658z"/>
				<path fill="none" stroke="#091724" stroke-width="0.4252" stroke-linejoin="round" d="M95.404,15.658
					c0.014,0.312,0.278,0.537,0.589,0.5l2.827-0.331c0.311-0.036,0.552-0.321,0.538-0.632l-0.096-2.114
					c-0.014-0.312-0.278-0.537-0.589-0.5l-2.827,0.331c-0.311,0.036-0.552,0.321-0.538,0.632L95.404,15.658z"/>
			</g>
		</g>
	</g>
	<g id="strap-belt" clip-path="url(#mask_4_)">
		<path fill="#684431" stroke="#091724" stroke-width="0.4252" d="M116.494,33.961c-3.854,1.104-7.986,1.818-12.127,2.391
			c-2.076,0.283-27.826,0.283-29.9,0c-4.141-0.572-8.275-1.287-12.129-2.391l-1.549,6.016c4.422,0.992,8.758,1.475,13.094,1.828
			c2.166,0.17,28.9,0.17,31.068,0c4.334-0.354,8.672-0.836,13.094-1.828L116.494,33.961z"/>
		<path fill="#B45B33" stroke="#091724" stroke-width="0.4252" d="M88,42.556c-0.392,0-0.709-0.318-0.709-0.709V36.29
			c0-0.392,0.317-0.709,0.709-0.709s0.709,0.317,0.709,0.709v5.558C88.709,42.238,88.392,42.556,88,42.556z"/>
		<path fill="#B45B33" stroke="#091724" stroke-width="0.4252" d="M90.834,42.556c-0.392,0-0.709-0.318-0.709-0.709V36.29
			c0-0.392,0.317-0.709,0.709-0.709s0.709,0.317,0.709,0.709v5.558C91.543,42.238,91.226,42.556,90.834,42.556z"/>
		<path fill="#B45B33" stroke="#091724" stroke-width="0.4252" stroke-linejoin="round" d="M76.174,36.341
			c-0.501,0.043-1.75-0.151-2.032,0.035c0,0,0.059,0.738,0.105,2.892c0.048,2.201-0.093,2.497-0.013,2.644
			c0.165,0.034,1.675-0.054,1.645,0.005c-0.218,0.434-0.963,0.999-2.863,0.617c0.174-3.41,0.14-4.159-0.132-6.725
			c0.831-0.548,3.23-0.254,3.23-0.254s0.552,0.186,0.546,0.473c-0.003,0.24-0.188,0.287-0.475,0.313L76.174,36.341z"/>
		<path fill="#B45B33" stroke="#091724" stroke-width="0.4252" stroke-linejoin="round" d="M102.66,36.341
			c0.501,0.043,1.75-0.151,2.032,0.035c0,0-0.059,0.738-0.105,2.892c-0.048,2.201,0.093,2.497,0.013,2.644
			c-0.165,0.034-1.675-0.054-1.645,0.005c0.218,0.434,0.963,0.999,2.863,0.617c-0.174-3.41-0.14-4.159,0.132-6.725
			c-0.831-0.548-3.23-0.254-3.23-0.254s-0.552,0.186-0.546,0.473c0.003,0.24,0.188,0.287,0.475,0.313L102.66,36.341z"/>
	</g>
</g>
</svg>
