<?xml version="1.0" encoding="utf-8"?>
<!-- Generator: Adobe Illustrator 15.1.0, SVG Export Plug-In . SVG Version: 6.00 Build 0)  -->
<!DOCTYPE svg PUBLIC "-//W3C//DTD SVG 1.1//EN" "http://www.w3.org/Graphics/SVG/1.1/DTD/svg11.dtd">
<svg version="1.1" xmlns="http://www.w3.org/2000/svg" xmlns:xlink="http://www.w3.org/1999/xlink" x="0px" y="0px"
	 width="117.764px" height="48.189px" viewBox="0 0 117.764 48.189" enable-background="new 0 0 117.764 48.189"
	 xml:space="preserve">
<g id="torso-base">
	<path id="torso-front" inkscape:connector-curvature="0" fill="#DCC392" stroke="#DCC392" stroke-width="0.3125" d="M2.359,45.644
		C11.092-1.65,7.702,2.964,16.627,2.787h23.441c8.926,0.177,5.535-4.438,14.266,42.857H2.359z"/>
	<path id="torso-back" inkscape:connector-curvature="0" fill="#DCC392" stroke="#DCC392" stroke-width="0.3125" d="M63.43,45.644
		C72.162-1.65,68.773,2.964,77.697,2.788h23.441c8.926,0.177,5.535-4.438,14.266,42.856H63.43z"/>
</g>
<g id="front-design">
	<defs>
		<path id="mask_2_" d="M2.871,45.219C4.803,34.731,6.15,26.735,7.137,20.873C10.009,3.822,10.243,3.16,13.396,3.16
			c0.331,0,0.689,0.012,1.082,0.024c0.481,0.016,1.012,0.033,1.6,0.033c0.181,0,0.366-0.002,0.558-0.005h23.433
			c0.182,0.003,0.369,0.005,0.549,0.005c0.588,0,1.119-0.018,1.6-0.033c0.393-0.013,0.752-0.024,1.082-0.024
			c3.154,0,3.389,0.662,6.256,17.701c0.988,5.864,2.334,13.862,4.268,24.358H2.871z"/>
	</defs>
	<clipPath id="mask_1_">
		<use xlink:href="#mask_2_"  overflow="visible"/>
	</clipPath>
	<g id="vest_details_2_" clip-path="url(#mask_1_)">
		<g>
			<g>
				<path fill="#091824" d="M44.763,35.782c-2.738-0.001-5.472,0.093-8.207,0.127c-2.735,0.083-5.467,0.175-8.209,0.198
					c-2.743,0.014-5.474-0.11-8.209-0.192c-2.734-0.1-5.469-0.115-8.209-0.047c-0.196,0.005-0.359-0.15-0.364-0.346
					c-0.005-0.196,0.15-0.359,0.346-0.364c0.009,0,0.019,0,0.029,0.001l0.013,0.001c2.73,0.16,5.463,0.265,8.198,0.289l8.196,0.126
					c2.726,0.003,5.464-0.045,8.197-0.092l8.198-0.268h0.011c0.156-0.005,0.287,0.117,0.292,0.273
					c0.006,0.156-0.117,0.287-0.273,0.293C44.769,35.782,44.765,35.782,44.763,35.782z"/>
			</g>
			<g>
				<path fill="#091824" d="M44.011,31.022c-2.609,0.091-5.218,0.215-7.828,0.247c-2.611,0.04-5.219,0.111-7.836,0.108
					c-2.617,0.027-5.226-0.014-7.838-0.044c-1.306-0.007-2.61-0.043-3.915-0.107c-1.304-0.054-2.608-0.102-3.911-0.204l-0.016-0.001
					c-0.156-0.013-0.272-0.148-0.26-0.305c0.012-0.153,0.144-0.269,0.296-0.261c2.606,0.13,5.212,0.291,7.82,0.376
					c2.607,0.093,5.216,0.194,7.823,0.228c5.214-0.099,10.432-0.333,15.643-0.604c0.157-0.008,0.29,0.112,0.298,0.269
					c0.009,0.156-0.111,0.289-0.268,0.298C44.018,31.022,44.012,31.022,44.011,31.022z"/>
			</g>
			<g>
				<path fill="#091824" d="M45.443,39.917c-2.847,0.143-5.694,0.256-8.544,0.307l-8.553,0.144c-2.855,0.02-5.705-0.023-8.554-0.1
					c-2.849-0.078-5.697-0.195-8.543-0.351c-0.104-0.005-0.184-0.095-0.178-0.198c0.005-0.102,0.09-0.18,0.191-0.179
					c2.849,0.03,5.698,0.086,8.546,0.162l8.539,0.235c2.844,0.028,5.693-0.087,8.54-0.191s5.695-0.163,8.545-0.206
					c0.104-0.002,0.19,0.081,0.191,0.186C45.625,39.827,45.545,39.912,45.443,39.917z"/>
			</g>
		</g>
		<path fill="#091824" d="M46.432,43.063l-4.054-23.666c0,0-0.028-0.219-0.276-0.237l-27.51,0c-0.248,0.018-0.276,0.237-0.276,0.237
			L10.262,42.92l1.52-4.348l3.591-18.739H41.32l3.591,18.598L46.432,43.063z"/>
		<g>
			<path fill="none" stroke="#091824" stroke-width="0.3118" stroke-linejoin="round" d="M9.492,38.719
				c0.5-9.499,2.713-20.915,2.713-20.915c0.089-0.459,0.544-0.835,1.012-0.835h30.258c0.468,0,0.924,0.375,1.013,0.835
				c0,0,2.213,11.416,2.713,20.916"/>
		</g>
		<path fill="none" stroke="#091724" stroke-width="0.4252" stroke-linecap="round" d="M12.341,43.877
			c8.519,1.02,23.493,1.02,32.012,0"/>
	</g>
	<polygon clip-path="url(#mask_1_)" fill="#FFCE08" stroke="#091724" stroke-width="0.4252" stroke-miterlimit="10" points="
		30.767,16.236 26,16.236 18.146,1.701 42.144,1.701 	"/>
	<g id="zipper" clip-path="url(#mask_1_)">
		<path id="chains" fill="#E3E2DB" stroke="#091824" stroke-width="0.4252" d="M30.395,26.286v1.884v0.04v1.885
			c-1.547,0-2.047-0.709-2.047-0.709s-0.5-0.707-2.047-0.707v-0.469v-0.04v-0.469c1.547,0,2.047-0.708,2.047-0.708
			S28.847,26.286,30.395,26.286z M28.347,31.792c0,0,0.5-0.707,2.047-0.707v-0.47v-0.04v-0.469c-1.547,0-2.047-0.707-2.047-0.707
			s-0.5-0.709-2.047-0.709v1.885v0.04V32.5C27.847,32.5,28.347,31.792,28.347,31.792z M30.395,31.095v1.885v0.039v1.886
			c-1.546,0-2.046-0.709-2.046-0.709s-0.5-0.709-2.047-0.709v-0.468V32.98v-0.469c1.547,0,2.047-0.709,2.047-0.709
			S28.848,31.095,30.395,31.095z M28.348,36.602c0,0,0.5-0.707,2.046-0.707v-0.469v-0.041v-0.469c-1.546,0-2.046-0.707-2.046-0.707
			s-0.5-0.709-2.047-0.709v1.885v0.041v1.885C27.848,37.311,28.348,36.602,28.348,36.602z M30.396,40.718v1.885v0.039v1.886
			c-1.547,0-2.047-0.709-2.047-0.709s-0.5-0.708-2.047-0.708v-0.469v-0.039v-0.469c1.547,0,2.047-0.709,2.047-0.709
			S28.848,40.718,30.396,40.718z M30.395,35.907v1.885v0.039v1.886c-1.547,0-2.047-0.709-2.047-0.709s-0.5-0.708-2.047-0.708v-0.469
			v-0.039v-0.469c1.547,0,2.047-0.709,2.047-0.709S28.847,35.907,30.395,35.907z M28.347,41.414c0,0,0.5-0.707,2.047-0.707v-0.47
			v-0.04v-0.469c-1.547,0-2.047-0.708-2.047-0.708s-0.5-0.709-2.047-0.709v1.886v0.04v1.886
			C27.847,42.123,28.347,41.414,28.347,41.414z M30.395,21.475v1.884v0.04v1.886c-1.547,0-2.047-0.709-2.047-0.709
			s-0.5-0.708-2.047-0.708v-0.469v-0.04V22.89c1.547,0,2.047-0.708,2.047-0.708S28.847,21.475,30.395,21.475z M28.347,26.981
			c0,0,0.5-0.707,2.047-0.707v-0.469v-0.04v-0.469c-1.547,0-2.047-0.708-2.047-0.708s-0.5-0.709-2.047-0.709v1.886v0.04v1.885
			C27.847,27.69,28.347,26.981,28.347,26.981z M28.343,46.206c0,0,0.5-0.707,2.047-0.707v-0.47v-0.04V44.52
			c-1.547,0-2.047-0.708-2.047-0.708s-0.5-0.709-2.047-0.709v1.886v0.04v1.886C27.843,46.915,28.343,46.206,28.343,46.206z"/>
		<g id="slider">
			<g>
				<path fill="#E3E2DB" stroke="#091824" stroke-width="0.4252" stroke-miterlimit="10" d="M26.526,15.835
					c-0.39,0-0.721,0.319-0.736,0.708l-0.085,2.146c-0.016,0.389,0.288,0.708,0.675,0.708c0.386,0,0.702-0.319,0.702-0.708v-0.125
					c0-0.39,0.072-0.868,0.16-1.063c0.087-0.195,0.8-0.354,1.106-0.354c0.306,0,0.717,0.072,0.912,0.159
					c0.195,0.088,0.354,0.868,0.354,1.258v0.125c0,0.39,0.316,0.708,0.703,0.708c0.386,0,0.689-0.319,0.674-0.708l-0.085-2.146
					c-0.016-0.389-0.348-0.708-0.737-0.708H26.526z"/>
				<path fill="#E3E2DB" stroke="#091824" stroke-width="0.4252" d="M26.526,15.835c-0.39,0-0.721,0.319-0.736,0.708l-0.085,2.146
					c-0.016,0.389,0.288,0.708,0.675,0.708c0.386,0,0.702-0.319,0.702-0.708v-0.125c0-0.39,0.072-0.868,0.16-1.063
					c0.087-0.195,0.8-0.354,1.106-0.354c0.306,0,0.717,0.072,0.912,0.159c0.195,0.088,0.354,0.868,0.354,1.258v0.125
					c0,0.39,0.316,0.708,0.703,0.708c0.386,0,0.689-0.319,0.674-0.708l-0.085-2.146c-0.016-0.389-0.348-0.708-0.737-0.708H26.526z"
					/>
			</g>
			<g>
				<polygon fill="#E3E2DB" stroke="#091824" stroke-width="0.4252" points="28.347,26.786 28.347,26.786 28.346,26.786 				"/>
				<path fill="#E3E2DB" stroke="#091824" stroke-width="0.4252" d="M30.5,19.703c-0.194-0.196-0.51-0.269-0.886-0.291v4.568
					c0,0.78-0.569,1.561-1.266,1.561c-0.696,0-1.267-0.78-1.267-1.561c0-0.205,0-4.568,0-4.568
					c-0.376,0.023-0.692,0.094-0.887,0.292c-0.452,0.458-0.52,1.619-0.52,2.946c0,3.307,0.919,3.994,2.672,3.995
					c1.752-0.001,2.671-0.688,2.671-3.995C31.019,21.322,30.951,20.161,30.5,19.703z"/>
			</g>
			<path fill="#E3E2DB" stroke="#091824" stroke-width="0.4252" d="M29.606,22.081c0,0.389-0.319,0.708-0.709,0.708h-1.106
				c-0.39,0-0.709-0.319-0.709-0.708v-4.225c0-0.39,0.319-0.708,0.709-0.708h1.106c0.39,0,0.709,0.319,0.709,0.708V22.081z"/>
		</g>
	</g>
	<g id="collar" clip-path="url(#mask_1_)">
		<path id="shadow" fill="#091724" d="M32.48,14.667c3.928-0.415,11.437-6.515,11.437-6.515s-4.5,5.042-10.771,7.485L32.48,14.667z
			 M21.781,17.839l-0.446-1.756c-3.426-2.005-9.468-7.714-9.468-7.714S16.5,14.627,21.781,17.839z"/>
		<g id="outline">
			<path fill="#DCC291" stroke="#091724" stroke-width="0.4252" stroke-linejoin="round" stroke-miterlimit="10" d="M23.483,5.844
				c3.042,1.1,4.083,1.967,4.083,1.967s-0.333,3.333,0.167,4.167c-2.333-0.458-4.692-1.9-4.692-1.9L23.483,5.844z"/>
			<g>
				<path fill="#DCC291" d="M23.025,10.303c0,0,3.75,2.025,4.325,3.116c-0.1,1.377-0.075,2.8-0.525,4.167
					c-1.8-2.058-3.909-2.992-3.909-2.992L23.025,10.303z"/>
				<path fill="#091724" d="M23.126,10.116c0.792,0.435,1.563,0.893,2.318,1.389c0.376,0.249,0.748,0.508,1.107,0.791
					c0.353,0.293,0.715,0.569,0.987,1.024c0.02,0.033,0.028,0.07,0.025,0.106l-0.001,0.008c-0.114,1.381-0.04,2.827-0.474,4.237
					c-0.044,0.145-0.198,0.226-0.342,0.182c-0.048-0.015-0.089-0.042-0.122-0.077l-0.008-0.009
					c-0.542-0.596-1.146-1.136-1.795-1.614c-0.64-0.48-1.323-0.945-2.026-1.286l-0.013-0.006c-0.108-0.053-0.169-0.163-0.166-0.276
					c0.051-1.43,0.098-2.86,0.195-4.289l0-0.011c0.008-0.116,0.109-0.205,0.226-0.196C23.07,10.092,23.1,10.102,23.126,10.116z
					 M23.228,10.672l-0.099,3.927l-0.126-0.2c0.774,0.369,1.473,0.822,2.143,1.331c0.667,0.51,1.285,1.083,1.84,1.715l-0.362,0.074
					c0.431-1.299,0.416-2.707,0.515-4.115l0.024,0.114c-0.187-0.32-0.541-0.619-0.875-0.889c-0.344-0.271-0.708-0.524-1.077-0.769
					C24.568,11.438,23.899,11.049,23.228,10.672z"/>
			</g>
			<g id="collar_outline">
				<path fill="#DCC291" d="M42.642,1.694c-1.708,3.75-12.417,4.108-12.417,4.108v8.975c0,0,10.5,0,17.726-12.241"/>
				<path fill="#091724" d="M42.832,1.789c-0.525,1.109-1.592,1.779-2.609,2.271c-1.042,0.492-2.14,0.826-3.245,1.095
					c-2.217,0.525-4.468,0.807-6.742,0.931h-0.001l0.273-0.283v8.975l-0.283-0.284l0,0c1.797-0.084,3.629-0.547,5.345-1.194
					c1.723-0.659,3.357-1.551,4.863-2.624c3.02-2.149,5.486-5.025,7.396-8.211l0.244,0.145c-1.88,3.239-4.335,6.19-7.382,8.424
					c-1.519,1.115-3.176,2.05-4.933,2.751c-1.763,0.69-3.594,1.196-5.533,1.278l0,0l-0.283,0.001v-0.285V5.803V5.53l0.273-0.01
					h0.001c2.227-0.098,4.472-0.355,6.648-0.848c1.086-0.252,2.16-0.569,3.163-1.029c0.986-0.462,1.963-1.079,2.424-2.043
					L42.832,1.789z"/>
			</g>
			<g>
				<path fill="#DCC291" d="M14.333,0.142c0,0,4.542,3.411,9.333,5.828C22.792,9.178,23,16.711,23,16.711s-6.375-2.225-15.5-13.6"/>
				<path fill="#091724" d="M14.461-0.028c2.965,2.135,6.073,4.107,9.333,5.745l0.204,0.102L23.94,6.044l0,0
					c-0.541,1.672-0.647,3.5-0.752,5.28c-0.057,1.792-0.06,3.593,0.095,5.379l0.035,0.406l-0.412-0.13l0,0
					c-1.668-0.698-3.105-1.673-4.52-2.703c-1.401-1.04-2.727-2.174-3.996-3.364C11.855,8.527,9.544,5.92,7.39,3.2L7.61,3.022
					c2.185,2.683,4.521,5.246,7.069,7.577c1.275,1.164,2.604,2.269,4,3.276c1.393,0.991,2.871,1.948,4.414,2.568l0,0l-0.376,0.275
					l0.089-2.706l0.098-2.701c0.028-0.901,0.083-1.8,0.151-2.702c0.075-0.901,0.151-1.803,0.338-2.715v0l0.146,0.328
					c-3.281-1.702-6.37-3.719-9.333-5.911L14.461-0.028z"/>
			</g>
		</g>
		<g id="button_holes">
			
				<ellipse transform="matrix(0.9986 0.0527 -0.0527 0.9986 0.5191 -1.3666)" fill="#091724" cx="26.167" cy="9.157" rx="0.5" ry="0.687"/>
			
				<ellipse transform="matrix(-0.1773 -0.9842 0.9842 -0.1773 16.3542 42.1428)" fill="#091724" cx="25.792" cy="14.236" rx="0.625" ry="0.417"/>
			<circle fill="#091724" cx="32.854" cy="8.615" r="0.771"/>
			<circle fill="#091724" cx="32.604" cy="12.14" r="0.771"/>
		</g>
	</g>
	<g id="left_gadget" clip-path="url(#mask_1_)">
		<g id="phone">
			<g>
				<path fill="#E3E2DB" d="M21.659,43.062c-0.056,0.777-0.739,1.367-1.516,1.311l-8.935-0.65c-0.777-0.057-1.367-0.738-1.311-1.517
					l1.148-15.792c0.056-0.777,0.739-1.367,1.516-1.311l8.935,0.65c0.777,0.057,1.367,0.738,1.311,1.516L21.659,43.062z"/>
				<path fill="none" stroke="#091724" stroke-width="0.4252" d="M21.659,43.062c-0.056,0.777-0.739,1.367-1.516,1.311l-8.935-0.65
					c-0.777-0.057-1.367-0.738-1.311-1.517l1.148-15.792c0.056-0.777,0.739-1.367,1.516-1.311l8.935,0.65
					c0.777,0.057,1.367,0.738,1.311,1.516L21.659,43.062z"/>
			</g>
			<path fill="#091724" d="M12.456,40.556c-0.393-0.027-0.691-0.371-0.662-0.764l0.9-12.386c0.028-0.393,0.373-0.689,0.765-0.661
				l6.912,0.502c0.393,0.03,0.691,0.373,0.662,0.766l-0.9,12.386c-0.028,0.391-0.373,0.69-0.766,0.659L12.456,40.556z"/>
			<path fill="none" stroke="#091724" stroke-width="0.3402" d="M16.717,42.41c-0.029,0.39-0.461,0.672-0.968,0.634
				c-0.507-0.037-0.894-0.381-0.866-0.767c0.029-0.388,0.461-0.672,0.968-0.635C16.357,41.678,16.745,42.022,16.717,42.41z"/>
			<g>
				<defs>
					<path id="SVGID_1_" d="M12.476,40.272c-0.236-0.018-0.415-0.224-0.398-0.459l0.9-12.385c0.018-0.236,0.224-0.413,0.46-0.396
						l6.911,0.502c0.236,0.017,0.415,0.224,0.398,0.457l-0.901,12.387c-0.017,0.236-0.223,0.414-0.46,0.397L12.476,40.272z"/>
				</defs>
				<clipPath id="SVGID_2_">
					<use xlink:href="#SVGID_1_"  overflow="visible"/>
				</clipPath>
				
					<line clip-path="url(#SVGID_2_)" fill="none" stroke="#FFFFFF" stroke-width="1.9842" x1="11.695" y1="40.771" x2="18.178" y2="25.77"/>
				<line clip-path="url(#SVGID_2_)" fill="none" stroke="#FFFFFF" x1="13.667" y1="41.881" x2="20.151" y2="26.88"/>
			</g>
		</g>
		<g id="gadget_strap">
			<path fill="#DCC291" stroke="#091724" stroke-width="0.5669" d="M19.297,40.808c-0.653,0.024-1.721,0.005-2.373-0.044
				c0,0-3.589-0.274-5.102-0.573c-1.055-0.209-2.887-0.718-2.887-0.718c-0.627-0.175-1.14-0.827-1.139-1.451
				c0,0,0.37-2.262,0.432-3.295c0.042-0.711,0.52-1.006,1.152-0.849c0,0,1.619,0.481,2.259,0.608c0,0,1.946,0.407,3.919,0.554
				c2.09,0.154,4.191,0.032,4.191,0.032c0.654,0.005,3.184-0.138,3.184-0.138c0.652-0.048,1.174,0.422,1.16,1.046l-0.078,3.511
				c-0.014,0.624-0.559,1.171-1.21,1.218L19.297,40.808z"/>
			<g>
				<path fill="#091724" d="M8.979,38.286c-0.134-0.279-0.184-0.574-0.212-0.869c-0.034-0.296-0.008-0.592,0.038-0.886
					c0.058-0.292,0.137-0.583,0.282-0.85c0.138-0.268,0.313-0.522,0.561-0.708l-0.285,1.656c-0.055,0.269-0.093,0.54-0.162,0.813
					C9.139,37.718,9.08,37.996,8.979,38.286z"/>
			</g>
			<g>
				<path fill="#091724" d="M22.962,36.547c0.124,0.284,0.164,0.581,0.181,0.876c0.023,0.298-0.014,0.593-0.069,0.885
					c-0.069,0.289-0.158,0.578-0.312,0.84c-0.148,0.263-0.331,0.511-0.586,0.688l0.344-1.646c0.064-0.266,0.113-0.536,0.191-0.808
					C22.783,37.109,22.852,36.833,22.962,36.547z"/>
			</g>
		</g>
	</g>
	<g id="right_gadget" clip-path="url(#mask_1_)">
		<g id="locator">
			<g id="antenna">
				<g>
					<path fill="#E3E2DB" d="M44.34,21.689c-0.021-0.467-0.421-0.832-0.889-0.81l-0.048,0.002c-0.468,0.021-0.832,0.422-0.811,0.889
						l0.145,3.087c0.021,0.468,0.421,0.832,0.889,0.811l0.048-0.003c0.468-0.021,0.832-0.421,0.811-0.889L44.34,21.689z"/>
					<path fill="none" stroke="#091724" stroke-width="0.4252" d="M44.34,21.689c-0.021-0.467-0.421-0.832-0.889-0.81l-0.048,0.002
						c-0.468,0.021-0.832,0.422-0.811,0.889l0.145,3.087c0.021,0.468,0.421,0.832,0.889,0.811l0.048-0.003
						c0.468-0.021,0.832-0.421,0.811-0.889L44.34,21.689z"/>
				</g>
				<g>
					<path fill="#A2A0A2" d="M45.744,25.844c0.021,0.468-0.343,0.867-0.811,0.889l-2.462,0.115
						c-0.468,0.021-0.867-0.343-0.889-0.811l-0.024-0.507c-0.021-0.467,0.343-0.867,0.811-0.889l2.462-0.114
						c0.468-0.022,0.867,0.343,0.889,0.81L45.744,25.844z"/>
					<path fill="none" stroke="#091724" stroke-width="0.4252" d="M45.744,25.844c0.021,0.468-0.343,0.867-0.811,0.889l-2.462,0.115
						c-0.468,0.021-0.867-0.343-0.889-0.811l-0.024-0.507c-0.021-0.467,0.343-0.867,0.811-0.889l2.462-0.114
						c0.468-0.022,0.867,0.343,0.889,0.81L45.744,25.844z"/>
				</g>
			</g>
			<g id="body">
				<path fill="#E3E2DB" d="M48.061,42.456c0.008,0.156-0.113,0.289-0.27,0.296l-10.979,0.512c-0.156,0.007-0.289-0.114-0.296-0.271
					l-0.754-16.187c-0.007-0.156,0.114-0.289,0.271-0.297l10.979-0.511c0.156-0.008,0.289,0.113,0.297,0.27L48.061,42.456z"/>
				<path fill="none" stroke="#091724" stroke-width="0.4252" d="M48.061,42.456c0.008,0.156-0.113,0.289-0.27,0.296l-10.979,0.512
					c-0.156,0.007-0.289-0.114-0.296-0.271l-0.754-16.187c-0.007-0.156,0.114-0.289,0.271-0.297l10.979-0.511
					c0.156-0.008,0.289,0.113,0.297,0.27L48.061,42.456z"/>
			</g>
			
				<rect id="screen" x="38.065" y="28.243" transform="matrix(0.9989 -0.0465 0.0465 0.9989 -1.5639 1.9849)" fill="#091724" stroke="#091724" stroke-width="0.4252" width="7.692" height="12.776"/>
			<g id="onscreen">
				<defs>
					
						<rect id="SVGID_3_" x="38.065" y="28.243" transform="matrix(0.9989 -0.0465 0.0465 0.9989 -1.5639 1.9849)" width="7.692" height="12.776"/>
				</defs>
				<clipPath id="SVGID_4_">
					<use xlink:href="#SVGID_3_"  overflow="visible"/>
				</clipPath>
				<circle clip-path="url(#SVGID_4_)" fill="#9E2D3A" cx="44.306" cy="29.231" r="0.717"/>
				<path clip-path="url(#SVGID_4_)" fill="none" stroke="#D5E6A2" stroke-width="0.5669" d="M39.29,36.157
					c-1,0.046-1.849-0.727-1.896-1.729c-0.047-1.001,0.727-1.85,1.728-1.896c1.002-0.047,1.85,0.726,1.896,1.727
					C41.065,35.261,40.292,36.11,39.29,36.157z M42.558,34.304c-0.089-1.913-1.709-3.388-3.622-3.299
					c-1.914,0.089-3.39,1.708-3.3,3.621c0.089,1.914,1.708,3.39,3.622,3.301C41.171,37.838,42.646,36.218,42.558,34.304z
					 M43.977,34.295c-0.127-2.728-2.438-4.832-5.165-4.705c-2.729,0.127-4.834,2.438-4.707,5.165
					c0.127,2.73,2.438,4.834,5.167,4.707C41.999,39.335,44.104,37.026,43.977,34.295z M39.897,32.678l1.313-2.925 M43.432,31.958
					l-1.322,0.764 M40.181,35.818l0.967,1.202"/>
			</g>
		</g>
		<g id="gadget_pocket">
			<g>
				<path fill="#DCC291" d="M49.701,42.685c0.015,0.779-0.613,1.287-1.392,1.302c0,0-1.476,0.308-5.911,0.394
					c-4.779,0.092-6.379-0.165-6.379-0.165c-0.779,0.015-1.425-0.47-1.439-1.248l-0.143-7.581c-0.015-0.779,1.003-1.437,1.395-1.443
					c0.828,2.61,2.048,2.937,2.827,2.922l6.988-0.128c0.78-0.015,2.14-1.1,2.378-3.021c0.44-0.008,1.521,0.61,1.535,1.389
					L49.701,42.685z"/>
				<path fill="#091724" d="M49.914,42.692c0.005,0.16-0.033,0.42-0.115,0.597c-0.082,0.193-0.21,0.367-0.367,0.503
					c-0.317,0.271-0.726,0.393-1.118,0.397l0.037-0.005c-1.047,0.164-2.063,0.215-3.095,0.267c-1.028,0.047-2.056,0.063-3.083,0.078
					c-1.027,0.027-2.056,0.042-3.084,0.033c-1.033-0.015-2.051-0.028-3.102-0.146l0.036,0.002c-0.539,0.018-1.147-0.206-1.453-0.724
					c-0.154-0.246-0.21-0.563-0.204-0.816l-0.015-0.741l-0.056-2.966l-0.056-2.966l-0.014-0.741
					c-0.004-0.153,0.004-0.253,0.05-0.433c0.048-0.14,0.107-0.273,0.188-0.388c0.155-0.235,0.354-0.424,0.573-0.58
					c0.229-0.15,0.438-0.297,0.791-0.333c0.091-0.009,0.173,0.047,0.2,0.13l0.007,0.019v0.001c0.191,0.601,0.435,1.188,0.779,1.695
					c0.341,0.505,0.813,0.921,1.384,1.036c0.275,0.064,0.586,0.034,0.917,0.033l0.967-0.018l1.936-0.036
					c1.271-0.036,2.622-0.02,3.827-0.099c0.524-0.142,1.015-0.599,1.348-1.092c0.338-0.508,0.542-1.101,0.622-1.71v-0.001
					l0.005-0.029c0.016-0.098,0.105-0.165,0.202-0.157c0.536,0.046,0.882,0.295,1.229,0.587c0.164,0.153,0.313,0.334,0.414,0.556
					c0.109,0.221,0.113,0.502,0.112,0.683l0.046,2.451l0.091,4.902V42.692z M49.488,42.689l-0.076-4.902l-0.038-2.451
					c0.108-0.739-0.715-1.334-1.346-1.437l0.18-0.161v0.001c-0.174,1.305-0.882,2.68-2.281,3.148
					c-1.354,0.099-2.598,0.072-3.902,0.114l-1.935,0.039l-0.968,0.02c-0.313,0-0.653,0.038-1.01-0.04
					c-0.712-0.144-1.273-0.653-1.646-1.207c-0.381-0.561-0.635-1.18-0.836-1.806l0,0l0.206,0.148
					c-0.332,0.056-0.789,0.387-1.004,0.729c-0.062,0.088-0.099,0.182-0.13,0.274c-0.019,0.053-0.037,0.203-0.028,0.295l0.021,0.741
					l0.086,2.965l0.086,2.966l0.021,0.741c0.001,0.236,0.039,0.392,0.136,0.553c0.188,0.307,0.579,0.486,0.989,0.479l0.042,0.003
					l0.014,0.001c0.971,0.125,2.014,0.158,3.028,0.186c1.021,0.023,2.044,0.024,3.067,0.013c1.023-0.021,2.046-0.065,3.064-0.128
					c1.011-0.069,2.055-0.135,3.015-0.3l0.013-0.002l0.047-0.004c0.292-0.007,0.576-0.104,0.775-0.279
					c0.104-0.081,0.193-0.177,0.276-0.289c0.084-0.131,0.126-0.225,0.133-0.421V42.689z"/>
			</g>
			<g>
				<path fill="#091724" d="M34.664,43.492l1.479-1.732l-0.047,0.13l0.197-3.749c0.003-0.039,0.036-0.069,0.075-0.067
					c0.037,0.002,0.066,0.033,0.067,0.069l0.086,3.753c0.001,0.045-0.014,0.086-0.038,0.118l-0.009,0.012l-1.37,1.822
					c-0.094,0.125-0.271,0.15-0.396,0.056c-0.125-0.094-0.15-0.271-0.057-0.396C34.656,43.501,34.66,43.497,34.664,43.492z"/>
			</g>
			<g>
				<path fill="#091724" d="M49.211,43.583l-1.438-1.768l-0.01-0.012c-0.028-0.034-0.042-0.076-0.042-0.117l-0.054-3.754
					c-0.001-0.039,0.03-0.071,0.069-0.072c0.037,0,0.068,0.028,0.071,0.064l0.337,3.74l-0.051-0.128l1.544,1.675
					c0.106,0.115,0.1,0.295-0.016,0.4c-0.115,0.106-0.295,0.1-0.401-0.016C49.219,43.592,49.214,43.587,49.211,43.583z"/>
			</g>
			<path fill="none" stroke="#091724" stroke-width="0.4252" stroke-linecap="round" stroke-linejoin="round" d="M36.311,41.951
				c0,0,1.469,0.549,5.927,0.457c4.3-0.09,5.697-0.673,5.697-0.673"/>
		</g>
	</g>
</g>
<g id="torso-back_1_">
	<defs>
		<path id="mask_3_" d="M63.941,45.219c1.932-10.488,3.279-18.484,4.266-24.346c2.873-17.051,3.107-17.713,6.26-17.713
			c0.33,0,0.689,0.012,1.082,0.023c0.48,0.016,1.012,0.033,1.6,0.033c0.182,0,0.365-0.002,0.559-0.005h23.432
			c0.182,0.003,0.369,0.005,0.549,0.005c0.588,0,1.119-0.018,1.6-0.033c0.393-0.012,0.752-0.023,1.082-0.023
			c3.154,0,3.389,0.661,6.256,17.7c0.988,5.864,2.334,13.862,4.268,24.358H63.941z"/>
	</defs>
	<clipPath id="mask_4_">
		<use xlink:href="#mask_3_"  overflow="visible"/>
	</clipPath>
	<g id="straps_2_" clip-path="url(#mask_4_)">
		
			<ellipse transform="matrix(0.9767 0.2147 -0.2147 0.9767 4.3548 -14.4319)" fill="#091724" cx="68.626" cy="12.835" rx="2.333" ry="7.084"/>
		
			<ellipse transform="matrix(-0.9767 0.2148 -0.2148 -0.9767 220.5855 1.7041)" fill="#091724" cx="110.2" cy="12.835" rx="2.333" ry="7.084"/>
		<path id="straps" fill="#684431" stroke="#091724" stroke-width="0.4252" d="M110.266,18.633
			c-0.239-0.478-6.063-11.787-20.859-11.896c-14.844,0.11-20.778,11.778-20.837,11.896l-2.795-1.381
			C66.047,16.7,72.639,3.743,89.406,3.619c16.791,0.124,23.383,13.083,23.654,13.634L110.266,18.633z"/>
	</g>
	
		<ellipse id="neck" clip-path="url(#mask_4_)" fill="#FFCE08" stroke="#091724" stroke-width="0.7087" cx="89.417" cy="2.458" rx="13.27" ry="6.374"/>
	<g id="vest_padding" clip-path="url(#mask_4_)">
		<g>
			<path fill="#091724" d="M97.516,31.228c-1.348,0.09-2.692,0.209-4.043,0.248c-1.352,0.045-2.695,0.116-4.058,0.116
				c-1.359,0.022-2.708-0.024-4.059-0.061c-0.676-0.011-1.351-0.048-2.022-0.109c-0.674-0.052-1.347-0.1-2.018-0.194l0.035-0.492
				c1.342,0.126,2.684,0.276,4.029,0.36c1.345,0.091,2.691,0.189,4.036,0.22c2.687-0.093,5.381-0.321,8.063-0.58L97.516,31.228z"/>
		</g>
		<g>
			<path fill="#091724" d="M97.511,37.611c-1.343,0.143-2.688,0.256-4.038,0.306l-4.058,0.145c-1.36,0.02-2.709-0.024-4.059-0.101
				c-1.348-0.078-2.693-0.194-4.036-0.35l0.027-0.377c1.349,0.03,2.696,0.086,4.041,0.163c1.345,0.07,2.69,0.188,4.028,0.234
				c1.335,0.028,2.687-0.087,4.028-0.191c1.344-0.104,2.691-0.163,4.04-0.206L97.511,37.611z"/>
		</g>
		<g>
			<path fill="#091724" d="M97.498,34.852c-1.347,0.055-2.694,0.054-4.041-0.006c-1.347-0.104-2.694-0.178-4.041-0.063
				c-1.347,0.119-2.694,0.045-4.041-0.045c-1.347-0.038-2.694-0.006-4.041,0.113v-0.797c1.347,0.119,2.694,0.151,4.041,0.113
				c1.347-0.09,2.694-0.164,4.041-0.045c1.347,0.115,2.694,0.042,4.041-0.063c1.347-0.06,2.694-0.061,4.041-0.006V34.852z"/>
		</g>
		<g>
			<path fill="#091724" d="M95.699,18.69c-2.094-0.143-4.186-0.149-6.282-0.203c-1.122-0.06-2.244,0.088-3.366,0.099l-3.365,0.048
				l0.423-0.365v0.001c-0.515,3.714-0.882,7.467-1.145,11.217c-0.257,3.753-0.396,7.514-0.355,11.272l-0.306-0.346l0,0
				c1.321,0.171,2.683,0.218,4.036,0.252c1.355,0.029,2.717,0.03,4.071,0.006c1.385,0.024,2.724,0.023,4.086-0.006
				c1.354-0.034,2.716-0.081,4.036-0.252l-0.306,0.346v-0.001c0.029-3.758-0.122-7.519-0.391-11.27
				C96.571,25.879,96.196,22.267,95.699,18.69z M96.639,18.138c0.358,1.87,0.565,3.747,0.723,5.633
				c0.16,1.884,0.292,3.771,0.393,5.659c0.199,3.776,0.281,7.56,0.182,11.341l0,0c-0.001,0.178-0.136,0.323-0.307,0.346
				c-1.382,0.179-2.748,0.225-4.117,0.26c-1.361,0.029-2.747,0.029-4.086,0.006c-1.37,0.023-2.733,0.023-4.103-0.006
				c-1.368-0.035-2.734-0.081-4.117-0.259v-0.001c-0.175-0.021-0.303-0.167-0.307-0.337V40.77
				c-0.082-3.781,0.018-7.563,0.234-11.336c0.11-1.887,0.25-3.772,0.419-5.655c0.168-1.884,0.353-3.763,0.714-5.63v-0.001
				c0.029-0.211,0.215-0.365,0.423-0.365l3.365-0.001c1.121-0.004,2.243,0.078,3.364,0.058c2.237-0.033,4.485-0.045,6.727-0.128
				c0.238-0.009,0.442,0.159,0.485,0.386L96.639,18.138z"/>
		</g>
		<path fill="none" stroke="#091724" stroke-width="0.4252" stroke-linejoin="round" d="M78.927,30.707
			c0-5.92,1.606-14.837,1.606-14.837h17.769c0,0,1.606,8.917,1.606,14.837"/>
	</g>
	<g id="pens" clip-path="url(#mask_4_)">
		<g id="pen-1">
			
				<rect x="75.694" y="23.606" transform="matrix(0.9693 -0.2458 0.2458 0.9693 -4.8902 19.7517)" fill="#606062" stroke="#091724" stroke-width="0.4252" stroke-linejoin="round" width="1.979" height="11.722"/>
			<g>
				<path fill="#606062" stroke="#091724" stroke-width="0.4252" stroke-linejoin="round" d="M75.566,19.076
					c-0.313-1.241-1.209-2.094-1.99-1.896c-0.781,0.198-1.163,1.375-0.849,2.614l1.429,5.656l2.842-0.718L75.566,19.076z"/>
			</g>
			
				<rect x="71.972" y="19.826" transform="matrix(0.9695 -0.2452 0.2452 0.9695 -2.8643 18.4072)" fill="#091724" width="1.025" height="1.758"/>
			<g>
				<path fill="#091724" d="M73.01,26.437c-0.095-0.514-0.276-0.996-0.457-1.479l-0.006-0.016l-0.004-0.017
					c-0.511-2.166-0.98-4.341-1.53-6.498c-0.036-0.143,0.05-0.287,0.192-0.323c0.142-0.037,0.286,0.049,0.323,0.192
					c0,0.002,0.001,0.006,0.002,0.009c0.47,2.176,1.02,4.332,1.528,6.499l-0.01-0.032c0.181,0.482,0.359,0.966,0.625,1.416
					c0.101,0.171,0.044,0.392-0.128,0.492c-0.171,0.102-0.392,0.044-0.492-0.127C73.032,26.517,73.018,26.477,73.01,26.437z"/>
			</g>
		</g>
		<g id="pen-2">
			<g>
				<path fill="#091724" d="M78.996,18.87c0.045,0.778-0.158,1.429-0.45,1.445c-0.291,0.017-0.566-0.606-0.611-1.385l-0.03-0.539
					c-0.045-0.778,0.157-1.429,0.449-1.446c0.292-0.017,0.566,0.606,0.611,1.385L78.996,18.87z"/>
			</g>
			<g>
				<path fill="#606062" d="M80.32,33.23c0.018,0.312-0.223,0.581-0.534,0.599l-0.927,0.054c-0.312,0.018-0.581-0.223-0.599-0.534
					l-0.826-14.404c-0.018-0.311,0.223-0.581,0.534-0.599l0.927-0.053c0.312-0.018,0.581,0.222,0.599,0.533L80.32,33.23z"/>
				<path fill="none" stroke="#091724" stroke-width="0.4252" stroke-linecap="round" d="M80.32,33.23
					c0.018,0.312-0.223,0.581-0.534,0.599l-0.927,0.054c-0.312,0.018-0.581-0.223-0.599-0.534l-0.826-14.404
					c-0.018-0.311,0.223-0.581,0.534-0.599l0.927-0.053c0.312-0.018,0.581,0.222,0.599,0.533L80.32,33.23z"/>
			</g>
		</g>
	</g>
	<g id="pockets_2_" clip-path="url(#mask_4_)">
		<g id="pockets">
			<g>
				<g id="gadget_pocket_1_">
					<path fill="#DCC291" d="M82.641,38.788c-0.018,1.179-0.666,1.92-1.443,1.906L70.18,40.531
						c-0.779-0.011-1.404-0.771-1.387-1.948l0.164-10.334c0.018-1.182,1.063-2.839,1.455-2.831c0.719,3.982,1.785,4.246,2.564,4.256
						l5.998,0.229c0.779,0.012,2.037-1.429,2.357-4.324c0.439,0.007,1.492,1.699,1.477,2.876L82.641,38.788z"/>
					<path fill="#091724" d="M82.617,26.76c-0.125-0.271-0.268-0.534-0.439-0.786c-0.088-0.126-0.178-0.249-0.295-0.368
						c-0.129-0.109-0.205-0.259-0.547-0.312c-0.133-0.021-0.258,0.071-0.279,0.204l-0.008,0.048v0.001
						c-0.338,1.293-0.855,2.614-1.65,3.38c-0.096,0.093-0.197,0.156-0.283,0.2c-0.025,0.015-0.055,0.023-0.074,0.029l-0.051,0.002
						h-0.002l-0.018-0.001l-0.064-0.004l-0.129-0.009l-0.258-0.018l-0.518-0.035l-2.072-0.137l-2.074-0.036
						c-0.328-0.002-0.727-0.02-1-0.01c-0.211-0.001-0.328-0.031-0.51-0.169c-0.352-0.287-0.672-0.883-0.938-1.471
						c-0.25-0.606-0.504-1.245-0.717-1.9v-0.002l-0.008-0.043c-0.021-0.125-0.141-0.211-0.266-0.19
						c-0.398,0.063-0.455,0.23-0.6,0.348c-0.119,0.131-0.223,0.264-0.316,0.401c-0.189,0.275-0.348,0.563-0.486,0.863
						c-0.287,0.577-0.434,1.314-0.412,1.942l-0.125,3.745l-0.123,3.746l-0.061,1.872c-0.031,0.564-0.076,1.416,0.357,2.11
						c0.209,0.349,0.543,0.676,0.982,0.829c0.098,0.039,0.242,0.069,0.365,0.087l0.268,0.021l0.469,0.032l1.871,0.127
						c1.248,0.099,2.496,0.166,3.746,0.146c1.248,0.013,2.498-0.003,3.748-0.066l0.938-0.035c0.119-0.006,0.406-0.005,0.619-0.087
						c0.225-0.071,0.424-0.195,0.588-0.338c0.643-0.632,0.678-1.439,0.678-2.077v-0.009l0.068-6.851l0.035-3.425
						C83.047,27.892,82.861,27.299,82.617,26.76z M69.096,38.065l0.035-1.873l0.072-3.746l0.064-3.747
						c-0.029-0.624,0.066-1.148,0.313-1.706c0.117-0.271,0.254-0.536,0.414-0.781c0.061-0.094,0.129-0.18,0.195-0.263
						c0.061,0.54,0.135,1.083,0.287,1.621c0.191,0.694,0.418,1.417,1.031,2.052c0.301,0.316,0.791,0.553,1.236,0.583
						c0.396,0.029,0.705,0.02,1.063,0.032l2.074,0.041l2.074,0.003c0,0,0.816,0.009,1.088-0.004c0.492-0.022,0.852-0.36,1.105-0.63
						c0.898-1.049,1.234-2.317,1.406-3.564c0.059,0.067,0.119,0.136,0.174,0.212c0.154,0.216,0.289,0.453,0.406,0.696
						c0.232,0.488,0.396,1.013,0.389,1.519l-0.055,3.425l-0.111,6.849v-0.009c-0.002,0.187-0.029,0.368-0.07,0.543
						c-0.336-0.577-0.666-1.163-0.93-1.75c-0.305-0.695-0.27-1.581-0.297-2.42c-0.018-0.849,0.023-1.702,0.027-2.558l0.043-2.572
						c0-0.051-0.035-0.098-0.088-0.107c-0.059-0.01-0.113,0.029-0.123,0.088c-0.293,1.701-0.459,3.416-0.477,5.15
						c0.012,0.585,0.004,1.18,0.086,1.788c-0.691,0.221-1.416,0.386-2.141,0.486c-0.883,0.109-1.771,0.17-2.656,0.118
						c-1.648-0.07-3.316-0.442-4.904-0.946c0.055-0.526,0.061-1.043,0.084-1.553c0.027-1.741-0.078-3.469-0.305-5.189
						c-0.006-0.052-0.051-0.092-0.104-0.093c-0.059-0.001-0.107,0.046-0.109,0.104l-0.1,5.162c-0.049,0.846-0.027,1.732-0.328,2.447
						c-0.236,0.561-0.525,1.12-0.822,1.674C69.08,38.82,69.078,38.462,69.096,38.065z M81.053,40.422l-0.938,0.024
						c-1.25,0.039-2.5,0.061-3.75,0.07c-1.248,0.04-2.496-0.036-3.744-0.128l-1.873-0.109c-0.293-0.028-0.68-0.011-0.84-0.083
						c-0.102-0.034-0.195-0.094-0.281-0.164c0.354-0.754,0.695-1.499,0.979-2.306c0.787,0.136,1.568,0.248,2.355,0.36
						c0.906,0.118,1.82,0.208,2.752,0.21c0.92-0.01,1.836-0.048,2.748-0.123c0.766-0.071,1.523-0.177,2.291-0.285
						c0.307,0.806,0.674,1.543,1.053,2.291c-0.016,0.013-0.025,0.031-0.043,0.044C81.551,40.378,81.363,40.419,81.053,40.422z"/>
				</g>
			</g>
		</g>
		<g id="pockets_1_">
			<g>
				<g id="gadget_pocket_2_">
					<path fill="#DCC291" d="M96.191,38.788c0.018,1.179,0.666,1.92,1.443,1.906l11.018-0.163c0.779-0.011,1.404-0.771,1.387-1.948
						l-0.164-10.334c-0.018-1.182-1.063-2.839-1.453-2.831c-0.719,3.982-1.785,4.246-2.564,4.256l-5.998,0.229
						c-0.779,0.012-2.039-1.429-2.357-4.324c-0.441,0.007-1.494,1.699-1.477,2.876L96.191,38.788z"/>
					<path fill="#091724" d="M95.805,28.517l0.037,3.425l0.066,6.851v0.009c0.002,0.638,0.037,1.445,0.678,2.077
						c0.166,0.143,0.365,0.267,0.588,0.338c0.213,0.082,0.5,0.081,0.621,0.087l0.938,0.035c1.25,0.063,2.498,0.079,3.748,0.066
						c1.25,0.02,2.498-0.048,3.744-0.146l1.873-0.127l0.467-0.032l0.268-0.021c0.123-0.018,0.268-0.048,0.365-0.087
						c0.441-0.153,0.775-0.48,0.984-0.829c0.434-0.694,0.389-1.546,0.357-2.11l-0.063-1.872l-0.123-3.746l-0.123-3.745
						c0.021-0.628-0.125-1.365-0.414-1.942c-0.137-0.301-0.297-0.588-0.484-0.863c-0.094-0.138-0.199-0.271-0.316-0.401
						c-0.146-0.117-0.203-0.285-0.6-0.348c-0.127-0.021-0.244,0.065-0.266,0.19l-0.008,0.043v0.002
						c-0.215,0.655-0.469,1.294-0.719,1.9c-0.266,0.588-0.586,1.184-0.936,1.471c-0.184,0.138-0.301,0.168-0.51,0.169
						c-0.273-0.01-0.672,0.008-1.002,0.01l-2.074,0.036l-2.07,0.137l-0.518,0.035l-0.26,0.018l-0.129,0.009l-0.064,0.004
						l-0.016,0.001h-0.004l-0.049-0.002c-0.02-0.006-0.049-0.015-0.076-0.029c-0.084-0.044-0.186-0.107-0.281-0.2
						c-0.795-0.766-1.313-2.087-1.652-3.38v-0.001l-0.008-0.048c-0.02-0.133-0.145-0.225-0.279-0.204
						c-0.34,0.053-0.418,0.202-0.545,0.312c-0.117,0.119-0.207,0.242-0.295,0.368c-0.174,0.252-0.316,0.515-0.441,0.786
						C95.971,27.299,95.787,27.892,95.805,28.517z M109.688,39.147c-0.297-0.554-0.586-1.113-0.822-1.674
						c-0.301-0.715-0.277-1.602-0.328-2.447l-0.1-5.162c0-0.059-0.049-0.105-0.109-0.104c-0.053,0.001-0.096,0.041-0.104,0.093
						c-0.227,1.721-0.33,3.448-0.305,5.189c0.023,0.51,0.031,1.026,0.086,1.553c-1.59,0.504-3.258,0.876-4.904,0.946
						c-0.885,0.052-1.775-0.009-2.658-0.118c-0.723-0.101-1.449-0.266-2.141-0.486c0.084-0.608,0.074-1.203,0.088-1.788
						c-0.018-1.734-0.184-3.449-0.477-5.15c-0.01-0.059-0.064-0.098-0.123-0.088c-0.053,0.01-0.09,0.057-0.088,0.107l0.041,2.572
						c0.004,0.855,0.047,1.709,0.029,2.558c-0.029,0.839,0.008,1.725-0.299,2.42c-0.264,0.587-0.592,1.173-0.93,1.75
						c-0.039-0.175-0.068-0.356-0.07-0.543v0.009l-0.109-6.849l-0.057-3.425c-0.008-0.506,0.158-1.03,0.391-1.519
						c0.117-0.243,0.252-0.48,0.404-0.696c0.055-0.076,0.115-0.145,0.176-0.212c0.172,1.247,0.506,2.516,1.406,3.564
						c0.254,0.27,0.615,0.607,1.104,0.63c0.271,0.013,1.088,0.004,1.088,0.004l2.076-0.003l2.074-0.041
						c0.357-0.013,0.666-0.003,1.063-0.032c0.443-0.03,0.936-0.267,1.236-0.583c0.611-0.635,0.84-1.357,1.031-2.052
						c0.15-0.538,0.225-1.081,0.285-1.621c0.068,0.083,0.137,0.169,0.197,0.263c0.158,0.245,0.297,0.51,0.412,0.781
						c0.246,0.558,0.342,1.082,0.313,1.706l0.066,3.747l0.07,3.746l0.037,1.873C109.754,38.462,109.752,38.82,109.688,39.147z
						 M97.07,40.224c-0.016-0.013-0.025-0.031-0.041-0.044c0.379-0.748,0.744-1.485,1.051-2.291c0.77,0.108,1.525,0.214,2.293,0.285
						c0.912,0.075,1.826,0.113,2.748,0.123c0.93-0.002,1.844-0.092,2.752-0.21c0.785-0.112,1.566-0.225,2.355-0.36
						c0.283,0.807,0.623,1.552,0.979,2.306c-0.088,0.07-0.18,0.13-0.281,0.164c-0.16,0.072-0.549,0.055-0.842,0.083l-1.871,0.109
						c-1.248,0.092-2.496,0.168-3.746,0.128c-1.25-0.01-2.498-0.031-3.748-0.07l-0.938-0.024
						C97.469,40.419,97.281,40.378,97.07,40.224z"/>
				</g>
			</g>
		</g>
	</g>
</g>
</svg>
