<?xml version="1.0" encoding="utf-8"?>
<!-- Generator: Adobe Illustrator 15.0.0, SVG Export Plug-In . SVG Version: 6.00 Build 0)  -->
<!DOCTYPE svg PUBLIC "-//W3C//DTD SVG 1.1//EN" "http://www.w3.org/Graphics/SVG/1.1/DTD/svg11.dtd">
<svg version="1.1" id="Layer_1" xmlns="http://www.w3.org/2000/svg" xmlns:xlink="http://www.w3.org/1999/xlink" x="0px" y="0px"
	 width="39.685px" height="22.677px" viewBox="0 0 39.685 22.677" enable-background="new 0 0 39.685 22.677" xml:space="preserve">
<g>
	<path fill="#CCCCCC" d="M37.686,0c1.103,0,1.999,1.009,1.999,2.253v18.17c0,1.243-0.896,2.254-1.999,2.254H2
		c-1.104,0-2-1.011-2-2.254V2.253C0,1.009,0.895,0,2,0H37.686 M37.686-0.5H2c-1.378,0-2.5,1.235-2.5,2.753v18.17
		c0,1.519,1.121,2.754,2.5,2.754h35.686c1.378,0,2.499-1.235,2.499-2.754V2.253C40.185,0.735,39.063-0.5,37.686-0.5L37.686-0.5z"/>
</g>
</svg>
