<?xml version="1.0" encoding="utf-8"?>
<!-- Generator: Adobe Illustrator 15.0.0, SVG Export Plug-In . SVG Version: 6.00 Build 0)  -->
<!DOCTYPE svg PUBLIC "-//W3C//DTD SVG 1.1//EN" "http://www.w3.org/Graphics/SVG/1.1/DTD/svg11.dtd">
<svg version="1.1" id="Layer_1" xmlns="http://www.w3.org/2000/svg" xmlns:xlink="http://www.w3.org/1999/xlink" x="0px" y="0px"
	 width="90.709px" height="62.36px" viewBox="0 0 90.709 62.36" enable-background="new 0 0 90.709 62.36" xml:space="preserve">
<g>
	<path fill="#CCCCCC" d="M88.709,0c1.104,0,1.999,0.896,1.999,2v58.362c0,1.104-0.895,2-1.999,2H2c-1.104,0-2-0.896-2-2V2
		c0-1.104,0.896-2,2-2H88.709 M88.709-0.5H2C0.621-0.5-0.5,0.622-0.5,2v58.362c0,1.379,1.122,2.5,2.5,2.5h86.709
		c1.378,0,2.499-1.121,2.499-2.5V2C91.208,0.622,90.087-0.5,88.709-0.5L88.709-0.5z"/>
</g>
</svg>
