<?xml version="1.0" encoding="utf-8"?>
<!-- Generator: Adobe Illustrator 15.0.0, SVG Export Plug-In . SVG Version: 6.00 Build 0)  -->
<!DOCTYPE svg PUBLIC "-//W3C//DTD SVG 1.1//EN" "http://www.w3.org/Graphics/SVG/1.1/DTD/svg11.dtd">
<svg version="1.1" id="Layer_1" xmlns="http://www.w3.org/2000/svg" xmlns:xlink="http://www.w3.org/1999/xlink" x="0px" y="0px"
	 width="39.689px" height="17.008px" viewBox="0 0 39.689 17.008" enable-background="new 0 0 39.689 17.008" xml:space="preserve">
<g>
	<path fill="#CCCCCC" d="M37.69,0.002c1.104,0,2,0.896,2,2v13.004c0,1.104-0.896,2-2,2H2c-1.104,0-2-0.896-2-2V2.002
		c0-1.104,0.896-2,2-2H37.69 M37.69-0.498H2c-1.378,0-2.5,1.122-2.5,2.5v13.004c0,1.379,1.122,2.5,2.5,2.5h35.69
		c1.379,0,2.5-1.121,2.5-2.5V2.002C40.19,0.624,39.069-0.498,37.69-0.498L37.69-0.498z"/>
</g>
</svg>
