<?xml version="1.0" encoding="utf-8"?>
<!-- Generator: Adobe Illustrator 15.0.0, SVG Export Plug-In . SVG Version: 6.00 Build 0)  -->
<!DOCTYPE svg PUBLIC "-//W3C//DTD SVG 1.1//EN" "http://www.w3.org/Graphics/SVG/1.1/DTD/svg11.dtd">
<svg version="1.1" id="Layer_1" xmlns="http://www.w3.org/2000/svg" xmlns:xlink="http://www.w3.org/1999/xlink" x="0px" y="0px"
	 width="231.023px" height="42.52px" viewBox="0 0 231.023 42.52" enable-background="new 0 0 231.023 42.52" xml:space="preserve">
<g>
	<path fill="#CCCCCC" d="M229.023,0c1.104,0,2,0.896,2,2v38.52c0,1.104-0.896,2-2,2H183.67
		c-0.238-0.004-121.996-1.583-136.107-2.082c-14.125-0.5-46.188-3.094-46.656-3.172S0,36.594,0,35.953s0.422-1.234,0.922-1.438
		S142.766,0,142.766,0h40.677H229.023 M229.023-1h-45.581h-40.677h-0.12l-0.116,0.028C89.715,11.849,1.04,33.388,0.545,33.589
		C-0.364,33.959-1,34.931-1,35.953c0,1.126,0.765,2.136,1.742,2.299c0.706,0.117,32.95,2.695,46.786,3.185
		c12.802,0.453,114.947,1.806,135.294,2.072l0.833,0.011h45.369c1.654,0,3-1.346,3-3V2C232.023,0.346,230.678-1,229.023-1L229.023-1
		z"/>
</g>
</svg>
