<?xml version="1.0" encoding="utf-8"?>
<!-- Generator: Adobe Illustrator 15.0.0, SVG Export Plug-In . SVG Version: 6.00 Build 0)  -->
<!DOCTYPE svg PUBLIC "-//W3C//DTD SVG 1.1//EN" "http://www.w3.org/Graphics/SVG/1.1/DTD/svg11.dtd">
<svg version="1.1" id="Layer_1" xmlns="http://www.w3.org/2000/svg" xmlns:xlink="http://www.w3.org/1999/xlink" x="0px" y="0px"
	 width="185.67px" height="42.52px" viewBox="0 0 185.67 42.52" enable-background="new 0 0 185.67 42.52" xml:space="preserve">
<g>
	<path fill="#CCCCCC" d="M183.67,0c1.104,0,2,0.896,2,2v38.52c0,1.104-0.896,2-2,2c0,0-121.982-1.582-136.107-2.082
		S1.375,37.344,0.906,37.266S0,36.594,0,35.953s0.422-1.234,0.922-1.438S142.766,0,142.766,0H183.67 M183.67-1h-40.904h-0.12
		l-0.116,0.028C89.715,11.85,1.04,33.389,0.545,33.589C-0.364,33.959-1,34.931-1,35.953c0,1.126,0.765,2.136,1.742,2.299
		c0.706,0.117,32.95,2.695,46.786,3.185c13.974,0.495,134.91,2.067,136.13,2.083c1.667,0,3.013-1.346,3.013-3V2
		C186.67,0.346,185.324-1,183.67-1L183.67-1z"/>
</g>
</svg>
