<?xml version="1.0" encoding="utf-8"?>
<!-- Generator: Adobe Illustrator 15.0.0, SVG Export Plug-In . SVG Version: 6.00 Build 0)  -->
<!DOCTYPE svg PUBLIC "-//W3C//DTD SVG 1.1//EN" "http://www.w3.org/Graphics/SVG/1.1/DTD/svg11.dtd">
<svg version="1.1" id="Layer_1" xmlns="http://www.w3.org/2000/svg" xmlns:xlink="http://www.w3.org/1999/xlink" x="0px" y="0px"
	 width="62.362px" height="62.36px" viewBox="0 0 62.362 62.36" enable-background="new 0 0 62.362 62.36" xml:space="preserve">
<g>
	<path fill="#CCCCCC" d="M2-0.001L60.362,0c1.104,0,2,0.896,2,2v4.063c0,0-1.174,19.906-4.143,34.656s-6.695,21.643-7.625,21.643
		L11.768,62.36c-0.93,0-4.656-6.893-7.625-21.643S0,6.062,0,6.062V1.999C0,0.895,0.896-0.001,2-0.001 M2-1.001L2-1.001
		c-1.654,0-3,1.346-3,3v4.063v0.029l0.002,0.03c0.012,0.2,1.212,20.145,4.16,34.794c1.647,8.182,3.426,13.502,4.628,16.525
		c2.355,5.92,3.492,5.92,3.977,5.92l38.827,0.001c0.485,0,1.622,0,3.977-5.92c1.203-3.023,2.982-8.344,4.629-16.525
		c2.948-14.649,4.148-34.594,4.16-34.794l0.002-0.03V6.063V2c0-1.654-1.346-3-3-3L2-1.001L2-1.001z"/>
</g>
</svg>
