<?xml version="1.0" encoding="UTF-8" standalone="no"?>
<!-- Created with Inkscape (http://www.inkscape.org/) -->

<svg
   xmlns:dc="http://purl.org/dc/elements/1.1/"
   xmlns:cc="http://creativecommons.org/ns#"
   xmlns:rdf="http://www.w3.org/1999/02/22-rdf-syntax-ns#"
   xmlns:svg="http://www.w3.org/2000/svg"
   xmlns="http://www.w3.org/2000/svg"
   xmlns:xlink="http://www.w3.org/1999/xlink"
   xmlns:sodipodi="http://sodipodi.sourceforge.net/DTD/sodipodi-0.dtd"
   xmlns:inkscape="http://www.inkscape.org/namespaces/inkscape"
   width="51.28125"
   height="42.75"
   id="svg2"
   version="1.1"
   inkscape:version="0.48.2 r9819"
   sodipodi:docname="pleated_layered.[CMF1 Cheerleader].svg">
  <defs
     id="defs4">
    <linearGradient
       inkscape:collect="always"
       id="linearGradient4011">
      <stop
         style="stop-color:#ffffff;stop-opacity:1;"
         offset="0"
         id="stop4013" />
      <stop
         style="stop-color:#ffffff;stop-opacity:0;"
         offset="1"
         id="stop4015" />
    </linearGradient>
    <linearGradient
       inkscape:collect="always"
       id="linearGradient3997">
      <stop
         style="stop-color:#ffffff;stop-opacity:1;"
         offset="0"
         id="stop3999" />
      <stop
         style="stop-color:#ffffff;stop-opacity:0;"
         offset="1"
         id="stop4001" />
    </linearGradient>
    <inkscape:path-effect
       effect="skeletal"
       id="path-effect4237"
       is_visible="true"
       pattern="M 0,5 C 0,2.24 2.24,0 5,0 7.76,0 10,2.24 10,5 10,7.76 7.76,10 5,10 2.24,10 0,7.76 0,5 z"
       copytype="single_stretched"
       prop_scale="1"
       scale_y_rel="false"
       spacing="0"
       normal_offset="0"
       tang_offset="0"
       prop_units="false"
       vertical_pattern="false"
       fuse_tolerance="0" />
    <clipPath
       id="clipPath2999"
       clipPathUnits="userSpaceOnUse">
      <path
         id="path3001"
         d="M 0,792 612,792 612,0 0,0 0,792 z"
         inkscape:connector-curvature="0" />
    </clipPath>
    <radialGradient
       gradientUnits="userSpaceOnUse"
       gradientTransform="matrix(0.75988491,-0.03632001,0.13155835,2.7524547,16.986326,-78.268899)"
       r="12.650181"
       fy="46.658409"
       fx="96.306435"
       cy="46.658409"
       cx="96.306435"
       id="radialGradient3972"
       xlink:href="#linearGradient3966"
       inkscape:collect="always" />
    <clipPath
       clipPathUnits="userSpaceOnUse"
       id="clipPath2999-4">
      <path
         inkscape:connector-curvature="0"
         d="M 0,792 612,792 612,0 0,0 0,792 z"
         id="path3001-0" />
    </clipPath>
    <linearGradient
       id="linearGradient3966">
      <stop
         id="stop3968"
         offset="0"
         style="stop-color:#c0ac02;stop-opacity:1;" />
      <stop
         id="stop3970"
         offset="1"
         style="stop-color:#fdea41;stop-opacity:0;" />
    </linearGradient>
    <radialGradient
       inkscape:collect="always"
       xlink:href="#linearGradient3997"
       id="radialGradient4003"
       cx="165.81134"
       cy="47.693741"
       fx="165.81134"
       fy="47.693741"
       r="3.8123069"
       gradientTransform="matrix(0.64374811,-0.18781617,0.31213841,1.069868,43.640483,27.15595)"
       gradientUnits="userSpaceOnUse" />
    <radialGradient
       inkscape:collect="always"
       xlink:href="#linearGradient3997"
       id="radialGradient4007"
       gradientUnits="userSpaceOnUse"
       gradientTransform="matrix(-0.64374811,-0.18781617,-0.31213841,1.069868,293.73143,27.15595)"
       cx="165.81134"
       cy="47.693741"
       fx="165.81134"
       fy="47.693741"
       r="3.8123069" />
    <radialGradient
       inkscape:collect="always"
       xlink:href="#linearGradient4011"
       id="radialGradient4017"
       cx="169.32254"
       cy="41.784931"
       fx="169.32254"
       fy="41.784931"
       r="6.982676"
       gradientTransform="matrix(0.31036379,-0.01814613,0.03701409,0.63307367,114.75293,21.468668)"
       gradientUnits="userSpaceOnUse" />
    <linearGradient
       id="linearGradient3966-2">
      <stop
         style="stop-color:#c0ac02;stop-opacity:1;"
         offset="0"
         id="stop3968-4" />
      <stop
         style="stop-color:#fdea41;stop-opacity:0;"
         offset="1"
         id="stop3970-5" />
    </linearGradient>
    <clipPath
       id="clipPath2999-4-8"
       clipPathUnits="userSpaceOnUse">
      <path
         id="path3001-0-8"
         d="M 0,792 612,792 612,0 0,0 0,792 z"
         inkscape:connector-curvature="0" />
    </clipPath>
    <radialGradient
       inkscape:collect="always"
       xlink:href="#linearGradient3966-2"
       id="radialGradient3972-4"
       cx="96.306435"
       cy="46.658409"
       fx="96.306435"
       fy="46.658409"
       r="12.650181"
       gradientTransform="matrix(0.75988491,-0.03632001,0.13155835,2.7524547,16.986326,-78.268899)"
       gradientUnits="userSpaceOnUse" />
    <clipPath
       clipPathUnits="userSpaceOnUse"
       id="clipPath2999-0">
      <path
         inkscape:connector-curvature="0"
         d="M 0,792 612,792 612,0 0,0 0,792 z"
         id="path3001-9" />
    </clipPath>
    <inkscape:path-effect
       fuse_tolerance="0"
       vertical_pattern="false"
       prop_units="false"
       tang_offset="0"
       normal_offset="0"
       spacing="0"
       scale_y_rel="false"
       prop_scale="1"
       copytype="single_stretched"
       pattern="M 0,5 C 0,2.24 2.24,0 5,0 7.76,0 10,2.24 10,5 10,7.76 7.76,10 5,10 2.24,10 0,7.76 0,5 z"
       is_visible="true"
       id="path-effect4237-4"
       effect="skeletal" />
  </defs>
  <sodipodi:namedview
     id="base"
     pagecolor="#ffffff"
     bordercolor="#666666"
     borderopacity="1.0"
     inkscape:pageopacity="0.0"
     inkscape:pageshadow="2"
     inkscape:zoom="4.79"
     inkscape:cx="27.584046"
     inkscape:cy="36.086139"
     inkscape:document-units="px"
     inkscape:current-layer="layer33"
     showgrid="false"
     fit-margin-top="0"
     fit-margin-left="0"
     fit-margin-right="0"
     fit-margin-bottom="0"
     inkscape:window-width="1280"
     inkscape:window-height="968"
     inkscape:window-x="-4"
     inkscape:window-y="-4"
     inkscape:window-maximized="1"
     showguides="true"
     inkscape:guide-bbox="true"
     inkscape:snap-global="false">
    <sodipodi:guide
       orientation="0,1"
       position="10.75008,80.955299"
       id="guide3274" />
    <sodipodi:guide
       orientation="1,0"
       position="25.60034,86.072001"
       id="guide3960" />
  </sodipodi:namedview>
  <metadata
     id="metadata7">
    <rdf:RDF>
      <cc:Work
         rdf:about="">
        <dc:format>image/svg+xml</dc:format>
        <dc:type
           rdf:resource="http://purl.org/dc/dcmitype/StillImage" />
        <dc:title></dc:title>
      </cc:Work>
    </rdf:RDF>
  </metadata>
  <g
     inkscape:groupmode="layer"
     id="layer33"
     inkscape:label="cheer"
     transform="translate(-143.29937,-91.37439)">
    <path
       style="font-size:medium;font-style:normal;font-variant:normal;font-weight:normal;font-stretch:normal;text-indent:0;text-align:start;text-decoration:none;line-height:normal;letter-spacing:normal;word-spacing:normal;text-transform:none;direction:ltr;block-progression:tb;writing-mode:lr-tb;text-anchor:start;baseline-shift:baseline;color:#000000;fill:#000000;fill-opacity:1;stroke:none;stroke-width:1.5;marker:none;visibility:visible;display:inline;overflow:visible;enable-background:accumulate;font-family:Sans;-inkscape-font-specification:Sans"
       d="m 125.37735,116.6627 -1.53125,12.59375 c -2.85672,0.43042 -5.85337,0.39561 -9.78125,-0.90625 l -0.46875,1.4375 c 4.06413,1.34701 7.33684,1.46437 10.34375,1.03125 l -0.28125,2.09375 c -2.85672,0.43042 -5.85337,0.39561 -9.78125,-0.90625 l -0.28125,1.09375 c 4.40351,1.4595 8.31776,1.43769 11.53125,0.875 l 0.5625,-0.0937 0.0625,-0.59375 -0.375,-13.3125 0,-3.3125 z"
       id="path4367"
       inkscape:connector-curvature="0" />
    <use
       x="0"
       y="0"
       xlink:href="#path4367"
       id="use4376"
       transform="translate(37.550567,21.404773)"
       width="289.36462"
       height="147.96875" />
    <use
       x="0"
       y="0"
       xlink:href="#path4367"
       id="use4378"
       transform="matrix(0.99286857,0.11921411,-0.11921411,0.99286857,43.313902,6.4996674)"
       width="289.36462"
       height="147.96875" />
    <use
       x="0"
       y="0"
       xlink:href="#path4367"
       id="use4380"
       transform="matrix(0.9893153,-0.14579175,0.14579175,0.9893153,41.306021,40.167142)"
       width="289.36462"
       height="147.96875" />
    <use
       x="0"
       y="0"
       xlink:href="#path4367"
       id="use4382"
       transform="matrix(0.99663598,-0.08195562,0.08195562,0.99663598,38.03503,32.254375)"
       width="289.36462"
       height="147.96875" />
    <use
       x="0"
       y="0"
       xlink:href="#path4367"
       id="use4384"
       transform="matrix(0.97529579,-0.22090298,0.22090298,0.97529579,44.47094,49.067527)"
       width="289.36462"
       height="147.96875" />
    <path
       style="font-size:medium;font-style:normal;font-variant:normal;font-weight:normal;font-stretch:normal;text-indent:0;text-align:start;text-decoration:none;line-height:normal;letter-spacing:normal;word-spacing:normal;text-transform:none;direction:ltr;block-progression:tb;writing-mode:lr-tb;text-anchor:start;baseline-shift:baseline;color:#000000;fill:#1b2a34;fill-opacity:1;stroke:none;stroke-width:1.5;marker:none;visibility:visible;display:inline;overflow:visible;enable-background:accumulate;font-family:Sans;-inkscape-font-specification:Sans"
       d="m 154.46875,99.53125 -3,12.3125 c -2.45756,0.0739 -4.99151,-0.20741 -8,-1.375 l 0,1.59375 c 2.91858,1.06341 5.47186,1.40112 7.90625,1.34375 l -0.53125,2.0625 c -2.28606,0.0687 -4.63629,-0.18412 -7.375,-1.15625 l 0,1.15625 c 3.00807,1.0092 5.78916,1.3076 8.25,1.21875 l 0,0.0625 c 4.19246,1.38955 7.93954,1.42181 11.0625,0.9375 l -0.0312,0.15625 c 1.17291,0.28454 2.31831,0.45452 3.40625,0.5625 l 0,-1.125 c -0.7224,-0.0748 -1.48401,-0.18052 -2.28125,-0.34375 l -0.0625,-2.09375 c 0.81562,0.15649 1.59206,0.24364 2.34375,0.3125 l 0,-1.53125 c -0.7508,-0.0738 -1.54634,-0.17519 -2.375,-0.34375 L 163.5,103.625 l 0,-3.3125 -1.53125,12.59375 c -2.60064,0.39184 -5.32042,0.39048 -8.75,-0.59375 l 0.875,-9.5 0.375,-3.28125 z m -1.375,14.34375 c 3.44301,0.95048 6.30694,0.97717 8.96875,0.59375 l -0.28125,2.09375 c -2.63833,0.39752 -5.40588,0.40275 -8.90625,-0.625 l 0.21875,-2.0625 z"
       id="use4489"
       inkscape:connector-curvature="0" />
    <path
       transform="translate(-218.16938,-378.37561)"
       inkscape:connector-curvature="0"
       d="m 384.32188,512.3378 -22.6975,0 0,-42.43375 22.6975,0 0,42.43375 z"
       style="fill:none;stroke:#231f20;stroke-width:0.3125;stroke-linecap:butt;stroke-linejoin:miter;stroke-miterlimit:4;stroke-opacity:1;stroke-dasharray:none;display:inline"
       id="path3033" />
    <path
       transform="translate(-218.16938,-378.37561)"
       id="path4076"
       style="fill:none;stroke:#231f20;stroke-width:0.3125;stroke-linecap:butt;stroke-linejoin:miter;stroke-miterlimit:4;stroke-opacity:1;stroke-dasharray:none;display:inline"
       d="m 412.60471,512.3378 -22.6975,0 0,-42.43375 22.6975,0 0,42.43375 z"
       inkscape:connector-curvature="0" />
    <path
       style="fill:#1b2a34;stroke:none;display:inline"
       d="m 193.09375,97.40625 1.3125,12.625 c -2.63522,1.02904 -5.51493,1.63332 -9.5,1.28125 l -1.5,-8.46875 -0.46875,-3.28125 0.3125,12.6875 c -2.53987,0.77416 -5.25687,1.18277 -8.84375,0.6875 l -1,-9.125 -0.28125,-3.3125 -0.46875,12.6875 c -0.29773,0.0702 -0.60284,0.12883 -0.90625,0.1875 l 0,1.5625 c 0.37646,-0.0669 0.75936,-0.13502 1.125,-0.21875 l -0.125,2.125 c -0.32835,0.0774 -0.66553,0.12403 -1,0.1875 l 0,1.25 c 0.902,-0.13078 1.75525,-0.28923 2.5625,-0.5 l 0.375,-0.0937 c 4.13389,0.55589 7.66383,-0.0196 10.53125,-0.96875 l 0.53125,-0.1875 -0.0312,-0.46875 c 3.33276,0.26237 6.24233,-0.18924 8.71875,-0.9375 l 0,-1.28125 c -2.47628,0.8944 -5.22014,1.41914 -8.90625,1.09375 l -0.34375,-2.09375 c 3.73726,0.27714 6.66173,-0.25232 9.25,-1.1875 l 0,-8.71875 -0.59375,-2.3125 -0.75,-3.21875 z m -9.5,16.375 0,2.09375 c -2.528,0.77055 -5.2192,1.17213 -8.78125,0.6875 l -0.21875,-2.09375 c 3.54543,0.43863 6.42219,0.08 9,-0.6875 z"
       id="path4514"
       inkscape:connector-curvature="0" />
    <text
       xml:space="preserve"
       style="font-size:6px;font-style:normal;font-weight:normal;line-height:125%;letter-spacing:0px;word-spacing:0px;fill:#000000;fill-opacity:1;stroke:none;font-family:Sans"
       x="110.94028"
       y="141.01373"
       id="text4542"
       sodipodi:linespacing="125%"><tspan
         sodipodi:role="line"
         x="110.94028"
         y="141.01373"
         id="tspan4546">master</tspan><tspan
         sodipodi:role="line"
         x="110.94028"
         y="148.51373"
         id="tspan4550" /></text>
  </g>
  <g
     inkscape:label="template"
     inkscape:groupmode="layer"
     id="layer1"
     transform="translate(-361.46875,-469.75)"
     style="display:inline" />
</svg>
