<?xml version="1.0" encoding="UTF-8" standalone="no"?>
<!-- Created with Inkscape (http://www.inkscape.org/) -->

<svg
   xmlns:dc="http://purl.org/dc/elements/1.1/"
   xmlns:cc="http://creativecommons.org/ns#"
   xmlns:rdf="http://www.w3.org/1999/02/22-rdf-syntax-ns#"
   xmlns:svg="http://www.w3.org/2000/svg"
   xmlns="http://www.w3.org/2000/svg"
   xmlns:xlink="http://www.w3.org/1999/xlink"
   xmlns:sodipodi="http://sodipodi.sourceforge.net/DTD/sodipodi-0.dtd"
   xmlns:inkscape="http://www.inkscape.org/namespaces/inkscape"
   sodipodi:docname="ammo.large.svg"
   inkscape:version="0.48.2 r9819"
   version="1.1"
   id="svg2"
   height="43.213669"
   width="52.375">
  <sodipodi:namedview
     id="base"
     pagecolor="#ffffff"
     bordercolor="#666666"
     borderopacity="1.0"
     inkscape:pageopacity="0.0"
     inkscape:pageshadow="2"
     inkscape:zoom="9.66"
     inkscape:cx="29.688623"
     inkscape:cy="15.433256"
     inkscape:document-units="px"
     inkscape:current-layer="layer1"
     showgrid="false"
     fit-margin-top="0"
     fit-margin-left="0"
     fit-margin-right="0"
     fit-margin-bottom="0"
     inkscape:window-width="1280"
     inkscape:window-height="968"
     inkscape:window-x="-4"
     inkscape:window-y="-4"
     inkscape:window-maximized="1"
     showguides="true"
     inkscape:guide-bbox="true"
     inkscape:snap-global="false">
    <sodipodi:guide
       orientation="0,1"
       position="11.28133,21.517799"
       id="guide3274" />
    <sodipodi:guide
       orientation="1,0"
       position="26.13159,26.634501"
       id="guide3960" />
  </sodipodi:namedview>
  <defs
     id="defs4">
    <linearGradient
       inkscape:collect="always"
       id="linearGradient4011">
      <stop
         style="stop-color:#ffffff;stop-opacity:1;"
         offset="0"
         id="stop4013" />
      <stop
         style="stop-color:#ffffff;stop-opacity:0;"
         offset="1"
         id="stop4015" />
    </linearGradient>
    <linearGradient
       inkscape:collect="always"
       id="linearGradient3997">
      <stop
         style="stop-color:#ffffff;stop-opacity:1;"
         offset="0"
         id="stop3999" />
      <stop
         style="stop-color:#ffffff;stop-opacity:0;"
         offset="1"
         id="stop4001" />
    </linearGradient>
    <inkscape:path-effect
       effect="skeletal"
       id="path-effect4237"
       is_visible="true"
       pattern="M 0,5 C 0,2.24 2.24,0 5,0 7.76,0 10,2.24 10,5 10,7.76 7.76,10 5,10 2.24,10 0,7.76 0,5 z"
       copytype="single_stretched"
       prop_scale="1"
       scale_y_rel="false"
       spacing="0"
       normal_offset="0"
       tang_offset="0"
       prop_units="false"
       vertical_pattern="false"
       fuse_tolerance="0" />
    <clipPath
       id="clipPath2999"
       clipPathUnits="userSpaceOnUse">
      <path
         id="path3001"
         d="M 0,792 612,792 612,0 0,0 0,792 z"
         inkscape:connector-curvature="0" />
    </clipPath>
    <radialGradient
       gradientUnits="userSpaceOnUse"
       gradientTransform="matrix(0.75988491,-0.03632001,0.13155835,2.7524547,16.986326,-78.268899)"
       r="12.650181"
       fy="46.658409"
       fx="96.306435"
       cy="46.658409"
       cx="96.306435"
       id="radialGradient3972"
       xlink:href="#linearGradient3966"
       inkscape:collect="always" />
    <clipPath
       clipPathUnits="userSpaceOnUse"
       id="clipPath2999-4">
      <path
         inkscape:connector-curvature="0"
         d="M 0,792 612,792 612,0 0,0 0,792 z"
         id="path3001-0" />
    </clipPath>
    <linearGradient
       id="linearGradient3966">
      <stop
         id="stop3968"
         offset="0"
         style="stop-color:#c0ac02;stop-opacity:1;" />
      <stop
         id="stop3970"
         offset="1"
         style="stop-color:#fdea41;stop-opacity:0;" />
    </linearGradient>
    <radialGradient
       inkscape:collect="always"
       xlink:href="#linearGradient3997"
       id="radialGradient4003"
       cx="165.81134"
       cy="47.693741"
       fx="165.81134"
       fy="47.693741"
       r="3.8123069"
       gradientTransform="matrix(0.64374811,-0.18781617,0.31213841,1.069868,43.640483,27.15595)"
       gradientUnits="userSpaceOnUse" />
    <radialGradient
       inkscape:collect="always"
       xlink:href="#linearGradient3997"
       id="radialGradient4007"
       gradientUnits="userSpaceOnUse"
       gradientTransform="matrix(-0.64374811,-0.18781617,-0.31213841,1.069868,293.73143,27.15595)"
       cx="165.81134"
       cy="47.693741"
       fx="165.81134"
       fy="47.693741"
       r="3.8123069" />
    <radialGradient
       inkscape:collect="always"
       xlink:href="#linearGradient4011"
       id="radialGradient4017"
       cx="169.32254"
       cy="41.784931"
       fx="169.32254"
       fy="41.784931"
       r="6.982676"
       gradientTransform="matrix(0.31036379,-0.01814613,0.03701409,0.63307367,114.75293,21.468668)"
       gradientUnits="userSpaceOnUse" />
    <linearGradient
       id="linearGradient3966-2">
      <stop
         style="stop-color:#c0ac02;stop-opacity:1;"
         offset="0"
         id="stop3968-4" />
      <stop
         style="stop-color:#fdea41;stop-opacity:0;"
         offset="1"
         id="stop3970-5" />
    </linearGradient>
    <clipPath
       id="clipPath2999-4-8"
       clipPathUnits="userSpaceOnUse">
      <path
         id="path3001-0-8"
         d="M 0,792 612,792 612,0 0,0 0,792 z"
         inkscape:connector-curvature="0" />
    </clipPath>
    <radialGradient
       inkscape:collect="always"
       xlink:href="#linearGradient3966-2"
       id="radialGradient3972-4"
       cx="96.306435"
       cy="46.658409"
       fx="96.306435"
       fy="46.658409"
       r="12.650181"
       gradientTransform="matrix(0.75988491,-0.03632001,0.13155835,2.7524547,16.986326,-78.268899)"
       gradientUnits="userSpaceOnUse" />
    <clipPath
       clipPathUnits="userSpaceOnUse"
       id="clipPath2999-0">
      <path
         inkscape:connector-curvature="0"
         d="M 0,792 612,792 612,0 0,0 0,792 z"
         id="path3001-9" />
    </clipPath>
    <inkscape:path-effect
       fuse_tolerance="0"
       vertical_pattern="false"
       prop_units="false"
       tang_offset="0"
       normal_offset="0"
       spacing="0"
       scale_y_rel="false"
       prop_scale="1"
       copytype="single_stretched"
       pattern="M 0,5 C 0,2.24 2.24,0 5,0 7.76,0 10,2.24 10,5 10,7.76 7.76,10 5,10 2.24,10 0,7.76 0,5 z"
       is_visible="true"
       id="path-effect4237-4"
       effect="skeletal" />
    <inkscape:path-effect
       effect="skeletal"
       id="path-effect4237-4-5"
       is_visible="true"
       pattern="M 0,5 C 0,2.24 2.24,0 5,0 7.76,0 10,2.24 10,5 10,7.76 7.76,10 5,10 2.24,10 0,7.76 0,5 z"
       copytype="single_stretched"
       prop_scale="1"
       scale_y_rel="false"
       spacing="0"
       normal_offset="0"
       tang_offset="0"
       prop_units="false"
       vertical_pattern="false"
       fuse_tolerance="0" />
    <clipPath
       id="clipPath2999-0-6"
       clipPathUnits="userSpaceOnUse">
      <path
         id="path3001-9-8"
         d="M 0,792 612,792 612,0 0,0 0,792 z"
         inkscape:connector-curvature="0" />
    </clipPath>
    <radialGradient
       gradientUnits="userSpaceOnUse"
       gradientTransform="matrix(0.75988491,-0.03632001,0.13155835,2.7524547,16.986326,-78.268899)"
       r="12.650181"
       fy="46.658409"
       fx="96.306435"
       cy="46.658409"
       cx="96.306435"
       id="radialGradient3972-4-1"
       xlink:href="#linearGradient3966-2-4"
       inkscape:collect="always" />
    <clipPath
       clipPathUnits="userSpaceOnUse"
       id="clipPath2999-4-8-2">
      <path
         inkscape:connector-curvature="0"
         d="M 0,792 612,792 612,0 0,0 0,792 z"
         id="path3001-0-8-2" />
    </clipPath>
    <linearGradient
       id="linearGradient3966-2-4">
      <stop
         id="stop3968-4-2"
         offset="0"
         style="stop-color:#c0ac02;stop-opacity:1;" />
      <stop
         id="stop3970-5-3"
         offset="1"
         style="stop-color:#fdea41;stop-opacity:0;" />
    </linearGradient>
    <radialGradient
       gradientUnits="userSpaceOnUse"
       gradientTransform="matrix(0.31036379,-0.01814613,0.03701409,0.63307367,114.75293,21.468668)"
       r="6.982676"
       fy="41.784931"
       fx="169.32254"
       cy="41.784931"
       cx="169.32254"
       id="radialGradient4017-1"
       xlink:href="#linearGradient4011-4"
       inkscape:collect="always" />
    <radialGradient
       r="3.8123069"
       fy="47.693741"
       fx="165.81134"
       cy="47.693741"
       cx="165.81134"
       gradientTransform="matrix(-0.64374811,-0.18781617,-0.31213841,1.069868,293.73143,27.15595)"
       gradientUnits="userSpaceOnUse"
       id="radialGradient4007-6"
       xlink:href="#linearGradient3997-4"
       inkscape:collect="always" />
    <radialGradient
       gradientUnits="userSpaceOnUse"
       gradientTransform="matrix(0.64374811,-0.18781617,0.31213841,1.069868,43.640483,27.15595)"
       r="3.8123069"
       fy="47.693741"
       fx="165.81134"
       cy="47.693741"
       cx="165.81134"
       id="radialGradient4003-7"
       xlink:href="#linearGradient3997-4"
       inkscape:collect="always" />
    <linearGradient
       id="linearGradient3966-1">
      <stop
         style="stop-color:#c0ac02;stop-opacity:1;"
         offset="0"
         id="stop3968-5" />
      <stop
         style="stop-color:#fdea41;stop-opacity:0;"
         offset="1"
         id="stop3970-2" />
    </linearGradient>
    <clipPath
       id="clipPath2999-4-7"
       clipPathUnits="userSpaceOnUse">
      <path
         id="path3001-0-1"
         d="M 0,792 612,792 612,0 0,0 0,792 z"
         inkscape:connector-curvature="0" />
    </clipPath>
    <radialGradient
       inkscape:collect="always"
       xlink:href="#linearGradient3966-1"
       id="radialGradient3972-1"
       cx="96.306435"
       cy="46.658409"
       fx="96.306435"
       fy="46.658409"
       r="12.650181"
       gradientTransform="matrix(0.75988491,-0.03632001,0.13155835,2.7524547,16.986326,-78.268899)"
       gradientUnits="userSpaceOnUse" />
    <clipPath
       clipPathUnits="userSpaceOnUse"
       id="clipPath2999-45">
      <path
         inkscape:connector-curvature="0"
         d="M 0,792 612,792 612,0 0,0 0,792 z"
         id="path3001-5" />
    </clipPath>
    <inkscape:path-effect
       fuse_tolerance="0"
       vertical_pattern="false"
       prop_units="false"
       tang_offset="0"
       normal_offset="0"
       spacing="0"
       scale_y_rel="false"
       prop_scale="1"
       copytype="single_stretched"
       pattern="M 0,5 C 0,2.24 2.24,0 5,0 7.76,0 10,2.24 10,5 10,7.76 7.76,10 5,10 2.24,10 0,7.76 0,5 z"
       is_visible="true"
       id="path-effect4237-2"
       effect="skeletal" />
    <linearGradient
       id="linearGradient3997-4"
       inkscape:collect="always">
      <stop
         id="stop3999-8"
         offset="0"
         style="stop-color:#ffffff;stop-opacity:1;" />
      <stop
         id="stop4001-8"
         offset="1"
         style="stop-color:#ffffff;stop-opacity:0;" />
    </linearGradient>
    <linearGradient
       id="linearGradient4011-4"
       inkscape:collect="always">
      <stop
         id="stop4013-0"
         offset="0"
         style="stop-color:#ffffff;stop-opacity:1;" />
      <stop
         id="stop4015-9"
         offset="1"
         style="stop-color:#ffffff;stop-opacity:0;" />
    </linearGradient>
    <mask
       maskUnits="userSpaceOnUse"
       id="mask14361">
      <path
         id="path14363"
         style="fill:#ffffff;fill-opacity:1;stroke:#231f20;stroke-width:0.3125;stroke-linecap:butt;stroke-linejoin:miter;stroke-miterlimit:4;stroke-opacity:1;stroke-dasharray:none"
         d="m 361.13813,452.9203 c 8.7325,-47.29375 5.3425,-42.67875 14.2675,-42.85625 l 23.44,0 c 8.92625,0.1775 5.535,-4.4375 14.265,42.85625 l -51.9725,0 z"
         inkscape:connector-curvature="0" />
    </mask>
  </defs>
  <metadata
     id="metadata7">
    <rdf:RDF>
      <cc:Work
         rdf:about="">
        <dc:format>image/svg+xml</dc:format>
        <dc:type
           rdf:resource="http://purl.org/dc/dcmitype/StillImage" />
        <dc:title />
      </cc:Work>
    </rdf:RDF>
  </metadata>
  <g
     inkscape:label="template"
     inkscape:groupmode="layer"
     id="layer1"
     transform="translate(-360.9375,-409.84883)"
     style="display:inline">
    <path
       style="font-size:medium;font-style:normal;font-variant:normal;font-weight:normal;font-stretch:normal;text-indent:0;text-align:start;text-decoration:none;line-height:normal;letter-spacing:normal;word-spacing:normal;text-transform:none;direction:ltr;block-progression:tb;writing-mode:lr-tb;text-anchor:start;baseline-shift:baseline;color:#000000;fill:#1b2a34;fill-opacity:1;stroke:#1b2a34;stroke-width:0.75000000000000000;stroke-miterlimit:4;stroke-dasharray:none;marker:none;visibility:visible;display:inline;overflow:visible;enable-background:accumulate;font-family:Sans;-inkscape-font-specification:Sans"
       d="M 9.46875 0.78125 L 8.15625 1.6875 C 7.6449833 2.5763618 7.1959425 3.9740631 6.71875 6.15625 C 16.261749 18.982377 29.702156 30.600528 47.96875 40.75 C 48.3037 40.936109 51.179228 42.234337 52.125 42.6875 C 51.702391 40.394289 51.305565 38.303411 50.9375 36.25 C 31.986686 25.779305 18.62342 13.84316 9.46875 0.78125 z "
       transform="translate(360.9375,409.84883)"
       id="path14353" />
    <path
       style="font-size:medium;font-style:normal;font-variant:normal;font-weight:normal;font-stretch:normal;text-indent:0;text-align:start;text-decoration:none;line-height:normal;letter-spacing:normal;word-spacing:normal;text-transform:none;direction:ltr;block-progression:tb;writing-mode:lr-tb;text-anchor:start;baseline-shift:baseline;color:#000000;fill:#694020;fill-opacity:1;stroke:#1b2a34;stroke-width:0.75;stroke-miterlimit:4;stroke-dasharray:none;marker:none;visibility:visible;display:inline;overflow:visible;enable-background:accumulate;font-family:Sans;-inkscape-font-specification:Sans"
       d="M 10.59375 0.1875 C 9.9479993 0.23421448 9.420575 0.37882263 8.96875 0.71875 C 8.2305471 1.2741319 7.6811118 2.4145589 7.125 4.53125 C 16.692671 17.58801 30.269768 29.415848 48.8125 39.71875 C 49.056575 39.854366 50.55712 40.53072 51.84375 41.125 C 51.427012 38.848114 51.017809 36.624957 50.65625 34.59375 C 32.508665 24.391667 19.586555 12.819649 10.625 0.1875 C 10.61546 0.18814734 10.603238 0.18681362 10.59375 0.1875 z "
       transform="translate(360.9375,409.84883)"
       id="path7404" />
    <g
       id="g1682"
       mask="url(#mask14361)">
      <path
         style="fill:#a3a2a4;stroke:#1b2a34;stroke-width:0.375;stroke-linecap:round;stroke-linejoin:round;stroke-miterlimit:4;stroke-opacity:1;display:inline"
         d="M413.26952058 445.7796927C413.26952058 445.7796927 410.337926463 451.025481792 410.337926463 451.025481792C410.200359583 451.271643713 409.891435561 451.359061693 409.64527364 451.221494813C409.64527364 451.221494813 407.969041898 450.284737534 407.969041898 450.284737534C407.722862519 450.147160898 407.63544839 449.838250485 407.77301527 449.592088564C407.77301527 449.592088564 410.704609386 444.346299471 410.704609386 444.346299471C410.919930824 443.96100369 412.669857427 442.949609633 413.108357117 443.15067539C413.546856807 443.351741147 413.515940912 445.338748612 413.26952058 445.7796927C413.26952058 445.7796927 413.26952058 445.7796927 413.26952058 445.7796927M409.404735868 443.599192554C409.404735868 443.599192554 406.347815024 448.772940847 406.347815024 448.772940847C406.204367109 449.015722208 405.893430236 449.095684069 405.650648875 448.952236154C405.650648875 448.952236154 403.997436944 447.975432157 403.997436944 447.975432157C403.754638364 447.831974069 403.674680026 447.521050893 403.818127941 447.278269531C403.818127941 447.278269531 406.875048784 442.104521238 406.875048784 442.104521238C407.099575293 441.724516752 408.873320444 440.755508671 409.306856262 440.967063384C409.740392081 441.178618096 409.66169076 443.164303984 409.404735868 443.599192554C409.404735868 443.599192554 409.404735868 443.599192554 409.404735868 443.599192554M405.600921314 441.31768888C405.600921314 441.31768888 402.416542502 446.413967314 402.416542502 446.413967314C402.267113543 446.653113354 401.954288408 446.725333487 401.715142368 446.575904528C401.715142368 446.575904528 400.086685042 445.558372799 400.086685042 445.558372799C399.847522042 445.408933242 399.77530509 445.096121887 399.92473405 444.856975847C399.92473405 444.856975847 403.109112861 439.760697413 403.109112861 439.760697413C403.343000977 439.386382978 405.140246243 438.461696513 405.568397376 438.683945413C405.99654851 438.906194313 405.868589911 440.889312176 405.600921314 441.31768888C405.600921314 441.31768888 405.600921314 441.31768888 405.600921314 441.31768888M401.864153571 438.931465184C401.864153571 438.931465184 398.55046022 443.944612095 398.55046022 443.944612095C398.394963096 444.179857137 398.080393454 444.244051524 397.845148412 444.0885544C397.845148412 444.0885544 396.243254811 443.029701693 396.243254811 443.029701693C396.007993085 442.87419354 395.863763546 442.491835975 396.025401072 442.260767512C396.025401072 442.260767512 399.469948351 437.336624817 399.469948351 437.336624817C399.722945472 436.974953509 401.476685633 436.064627994 401.899010899 436.297755822C402.321336165 436.53088365 402.142691931 438.510076246 401.864153571 438.931465184C401.864153571 438.931465184 401.864153571 438.931465184 401.864153571 438.931465184M398.200922574 436.437089441C398.200922574 436.437089441 394.756375295 441.361232135 394.756375295 441.361232135C394.594737768 441.592300598 394.278587326 441.648189232 394.047518863 441.486551706C394.047518863 441.486551706 392.391831578 440.306119884 392.391831578 440.306119884C392.165207787 440.138274718 392.117900301 439.820741691 392.285733564 439.594133971C392.285733564 439.594133971 395.862313962 434.765051139 395.862313962 434.765051139C396.125008729 434.410361843 397.889080461 433.561048074 398.305119763 433.805215537C398.721159067 434.049383001 398.490460092 436.023181911 398.200922574 436.437089441C398.200922574 436.437089441 398.200922574 436.437089441 398.200922574 436.437089441M394.618106621 433.831493191C394.618106621 433.831493191 391.041526222 438.660576023 391.041526222 438.660576023C390.873692959 438.887183743 390.556145944 438.934493313 390.329538224 438.76666005C390.329538224 438.76666005 388.717597088 437.522303447 388.717597088 437.522303447C388.495725485 437.348225665 388.457260359 437.029501147 388.631325796 436.807645278C388.631325796 436.807645278 392.340715805 432.079825911 392.340715805 432.079825911C392.61316525 431.732574273 394.498716231 431.004714603 394.900738085 431.271329219C395.302759939 431.537943835 394.918742417 433.425576085 394.618106621 433.831493191C394.618106621 433.831493191 394.618106621 433.831493191 394.618106621 433.831493191M391.12293391 431.112054403C391.12293391 431.112054403 387.4135439 435.83987377 387.4135439 435.83987377C387.239478464 436.061729639 386.829155919 436.02396409 386.612347977 435.843650853C386.612347977 435.843650853 385.136001215 434.615813617 385.136001215 434.615813617C384.919177896 434.435487591 384.889806053 434.115797353 385.070119291 433.898989411C385.070119291 433.898989411 388.912651929 429.27874297 388.912651929 429.27874297C389.194880511 428.939392411 391.100393781 428.265531695 391.494658431 428.54348774C391.888923082 428.821443784 391.434733253 430.714649178 391.12293391 431.112054403C391.12293391 431.112054403 391.12293391 431.112054403 391.12293391 431.112054403M387.78920459 428.304021233C387.78920459 428.304021233 383.813677473 432.810328612 383.813677473 432.810328612C383.627123386 433.021789892 383.306699403 433.041834452 383.095238122 432.855280366C383.095238122 432.855280366 381.655299281 431.584946269 381.655299281 431.584946269C381.443823003 431.398378952 381.340796682 430.993983087 381.53356053 430.788167236C381.53356053 430.788167236 385.641419647 426.402165781 385.641419647 426.402165781C385.943136084 426.080020185 387.80219454 425.411170924 388.188191623 425.700497221C388.574188707 425.989823518 388.123374558 427.92523559 387.78920459 428.304021233C387.78920459 428.304021233 387.78920459 428.304021233 387.78920459 428.304021233M384.512757307 425.331804479C384.512757307 425.331804479 380.404898189 429.717805934 380.404898189 429.717805934C380.212134341 429.923621784 379.891256251 429.934122273 379.685440401 429.741358425C379.685440401 429.741358425 378.208772951 428.323788406 378.208772951 428.323788406C378.008884247 428.124857184 378.008120582 427.803822823 378.207037697 427.603948294C378.207037697 427.603948294 382.446024905 423.34455829 382.446024905 423.34455829C382.757372514 423.031712126 384.611826804 422.440626148 384.989042611 422.74131037C385.366258419 423.041994591 384.858050677 424.963131363 384.512757307 425.331804479C384.512757307 425.331804479 384.512757307 425.331804479 384.512757307 425.331804479M381.350346445 422.240459545C381.350346445 422.240459545 377.111359237 426.499849548 377.111359237 426.499849548C376.912442122 426.699724077 376.591393619 426.700487776 376.39151909 426.501570661C376.39151909 426.501570661 374.982209083 425.013887193 374.982209083 425.013887193C374.788552002 424.808885093 374.797691363 424.487980344 375.002678925 424.294336997C375.002678925 424.294336997 379.371029289 420.167735454 379.371029289 420.167735454C379.691878439 419.864642414 381.664386773 419.423922906 382.022509947 419.747109126C382.380633123 420.070295346 381.706662018 421.882428979 381.350346445 422.240459545C381.350346445 422.240459545 381.350346445 422.240459545 381.350346445 422.240459545M378.374135787 419.070784101C378.374135787 419.070784101 373.87875893 423.058619641 373.87875893 423.058619641C373.667810571 423.245751308 373.347335397 423.226570546 373.160203731 423.015622187C373.160203731 423.015622187 371.885936619 421.579176068 371.885936619 421.579176068C371.698791681 421.368212748 371.643743041 420.94600075 371.860515686 420.765648476C371.860515686 420.765648476 376.480009945 416.922283969 376.480009945 416.922283969C376.819305259 416.639994288 378.739810951 416.201124534 379.087641776 416.535362091C379.435472602 416.869599647 378.752002646 418.735579526 378.374135787 419.070784101C378.374135787 419.070784101 378.374135787 419.070784101 378.374135787 419.070784101M375.492630185 415.720364421C375.492630185 415.720364421 370.873135925 419.563728927 370.873135925 419.563728927C370.65636328 419.744081201 370.336657242 419.714753823 370.156304968 419.497981177C370.156304968 419.497981177 368.871190367 417.895762274 368.871190367 417.895762274C368.697856685 417.673312462 368.737400253 417.354723199 368.959834289 417.181401809C368.959834289 417.181401809 373.699974586 413.487867683 373.699974586 413.487867683C374.04813118 413.216582832 376.053549364 412.964991893 376.379394246 413.320695927C376.705239128 413.676399962 375.880929952 415.397303614 375.492630185 415.720364421C375.492630185 415.720364421 375.492630185 415.720364421 375.492630185 415.720364421M372.751571861 412.254961331C372.751571861 412.254961331 368.011431564 415.948495456 368.011431564 415.948495456C367.788997528 416.121816845 367.394402242 415.970635833 367.228343667 415.742728682C367.228343667 415.742728682 366.097573098 414.190802214 366.097573098 414.190802214C365.931502746 413.962878899 365.981298931 413.645730602 366.209206082 413.479672026C366.209206082 413.479672026 371.065980198 409.94091079 371.065980198 409.94091079C371.422703381 409.680993788 373.43519039 409.494200361 373.749395645 409.860226393C374.063600902 410.226252426 373.150012744 411.944494782 372.751571861 412.254961331C372.751571861 412.254961331 372.751571861 412.254961331 372.751571861 412.254961331"
         id="path13699" />
      <path
         style="fill:#694020;stroke:#1b2a34;stroke-width:0.375;stroke-miterlimit:4;display:inline"
         d="M411.124822081 444.591443936C411.520303489 445.226728738 412.092202227 445.546332699 412.840518293 445.55025582C413.122513083 445.551734332 413.174106923 445.996751599 413.036540043 446.242913519C413.036540043 446.242913519 410.975119859 449.931614985 410.975119859 449.931614985C410.837552979 450.177776906 410.549573291 450.218041995 410.282462159 450.127636736C409.679278339 449.923499948 409.046590834 449.828219516 408.566765947 449.168824851C408.400842201 448.9408112 408.233177316 448.722329072 408.370744196 448.476167151C408.370744196 448.476167151 410.43216438 444.787465686 410.43216438 444.787465686C410.56973126 444.541303766 410.975797823 444.352048696 411.124822081 444.591443936C411.124822081 444.591443936 411.124822081 444.591443936 411.124822081 444.591443936M407.289242681 442.359701972C407.669328258 443.004314693 408.233373069 443.337581841 408.981377114 443.359503416C409.263254319 443.367764451 409.304128944 443.81389329 409.160681029 444.056674651C409.160681029 444.056674651 407.011134375 447.694718914 407.011134375 447.694718914C406.86768646 447.937500275 406.578822019 447.970826743 406.313963139 447.87402283C405.71586496 447.655436757 405.085653303 447.54496571 404.621828707 446.874221385C404.461437741 446.642283013 404.299076876 446.419831511 404.44252479 446.17705015C404.44252479 446.17705015 406.592071445 442.539005888 406.592071445 442.539005888C406.735519359 442.296224527 407.146020054 442.116791812 407.289242681 442.359701972C407.289242681 442.359701972 407.289242681 442.359701972 407.289242681 442.359701972M403.51684533 440.026078791C403.880814942 440.679925071 404.436413948 441.027087755 405.183642346 441.067566844C405.465227255 441.082821076 405.495016999 441.529826235 405.34558804 441.768972275C405.34558804 441.768972275 403.106416281 445.352541763 403.106416281 445.352541763C402.956987322 445.591687803 402.667385204 445.617834786 402.405010849 445.514487457C401.812522812 445.281125189 401.185247993 445.155047469 400.738213833 444.472999404C400.583628876 444.237152186 400.42683918 444.010740011 400.576268139 443.771593972C400.576268139 443.771593972 402.815439897 440.188024485 402.815439897 440.188024485C402.964868857 439.948878445 403.3796957 439.779689275 403.51684533 440.026078791C403.51684533 440.026078791 403.51684533 440.026078791 403.51684533 440.026078791M399.813801998 437.586969619C400.160926682 438.249911154 400.707462645 438.611171779 401.453409885 438.670751493C401.734511999 438.693203588 401.752857655 439.140823773 401.59736053 439.376068814C401.59736053 439.376068814 399.267258176 442.901182393 399.267258176 442.901182393C399.111761051 443.136427434 398.82158533 443.155157862 398.561940854 443.045133039C397.975617001 442.796691797 397.35177349 442.654609985 396.922332967 441.961351165C396.773831762 441.721627254 396.570743125 441.441731252 396.732380652 441.210662789C396.732380652 441.210662789 399.154496061 437.748134645 399.154496061 437.748134645C399.316133587 437.517066182 399.683000055 437.337152867 399.813801998 437.586969619C399.813801998 437.586969619 399.813801998 437.586969619 399.813801998 437.586969619M396.247831791 435.061777824C396.559069708 435.742302847 397.053068745 436.086449126 397.797187219 436.165650697C398.077600179 436.195497075 398.084152509 436.643444396 397.922514983 436.874512859C397.922514983 436.874512859 395.500399573 440.337041004 395.500399573 440.337041004C395.338762047 440.568109467 395.048194204 440.579192332 394.79153741 440.462368769C394.211959897 440.198574742 393.518789905 439.990741722 393.126972266 439.275548375C392.991480788 439.028239461 392.85304694 438.790162146 393.020880203 438.563554426C393.020880203 438.563554426 395.535837842 435.167869887 395.535837842 435.167869887C395.703671105 434.941262167 396.130553079 434.805335356 396.247831791 435.061777824C396.247831791 435.061777824 396.247831791 435.061777824 396.247831791 435.061777824M392.717838298 432.387150778C393.010044207 433.076060948 393.480167516 433.449908477 394.221867995 433.549224876C394.501369757 433.58665131 394.49579332 434.034611105 394.327960057 434.261218824C394.327960057 434.261218824 391.813002417 437.656903364 391.813002417 437.656903364C391.645169154 437.883511084 391.354408255 437.886723926 391.101008469 437.762995428C390.528785468 437.483608805 389.852882474 437.238364957 389.481091502 436.512560656C389.352525109 436.261582446 389.220760946 436.019750489 389.394826383 435.79789462C389.394826383 435.79789462 392.003172261 432.473415897 392.003172261 432.473415897C392.177237698 432.251560028 392.607731421 432.127548676 392.717838298 432.387150778C392.717838298 432.387150778 392.717838298 432.387150778 392.717838298 432.387150778M389.280867887 429.596683525C389.553333887 430.293635457 390.05703563 430.712550425 390.791973115 430.853428426C391.068926308 430.906516897 390.995023547 431.311694543 390.82095811 431.533550412C390.82095811 431.533550412 388.212612231 434.858029136 388.212612231 434.858029136C388.038546794 435.079885004 387.685086772 435.022757551 387.439048462 434.88497211C386.883448181 434.573842319 386.278911102 434.364324913 385.927943236 433.628227209C385.806577333 433.373689507 385.681754468 433.128203257 385.862067705 432.911395315C385.862067705 432.911395315 388.564035993 429.662559055 388.564035993 429.662559055C388.74434923 429.445751113 389.178199601 429.334051191 389.280867887 429.596683525C389.280867887 429.596683525 389.280867887 429.596683525 389.280867887 429.596683525M385.944654889 426.688735141C386.196695857 427.393329583 386.687975902 427.826743679 387.418495024 427.988977429C387.693783202 428.050113582 387.650008362 428.495962113 387.463454276 428.707423394C387.463454276 428.707423394 384.667967755 431.876140691 384.667967755 431.876140691C384.481413669 432.087601972 384.191440223 432.06599612 383.94952179 431.921099944C383.403224508 431.593912782 382.805050339 431.366868699 382.475681656 430.620857654C382.361784608 430.362891882 382.189510668 430.054728465 382.382274516 429.848912615C382.382274516 429.848912615 385.270813433 426.764791293 385.270813433 426.764791293C385.463577281 426.558975443 385.849683364 426.423223027 385.944654889 426.688735141C385.944654889 426.688735141 385.944654889 426.688735141 385.944654889 426.688735141M382.784438787 423.694048127C382.993706201 424.412506147 383.42622075 424.821968684 384.151587525 425.005869104C384.424934093 425.075170105 384.367911163 425.519517876 384.175147315 425.725333726C384.175147315 425.725333726 381.286608397 428.809455049 381.286608397 428.809455049C381.093844549 429.015270899 380.804642898 428.985045631 380.567143774 428.83301484C380.030825658 428.48971637 379.36954287 428.175159023 379.085575031 427.410714994C378.987377306 427.146375005 378.884929715 426.890742322 379.08384683 426.690867793C379.08384683 426.690867793 382.064591585 423.695776326 382.064591585 423.695776326C382.2635087 423.495901797 382.705585598 423.423312105 382.784438787 423.694048127C382.784438787 423.694048127 382.784438787 423.694048127 382.784438787 423.694048127M379.698501308 420.527497298C379.885507243 421.252067622 380.279774094 421.697905311 380.99922864 421.903720604C381.270347246 421.981279985 381.199873955 422.423693275 381.00095684 422.623567804C381.00095684 422.623567804 378.020212084 425.618659271 378.020212084 425.618659271C377.821294969 425.8185338 377.533143464 425.779551249 377.300364883 425.620387471C376.774706167 425.260981354 376.147009827 424.90113396 375.886757596 424.12829535C375.796760583 423.861052462 375.702247144 423.602381634 375.907234706 423.408738286C375.907234706 423.408738286 378.978944244 420.507020187 378.978944244 420.507020187C379.183931806 420.313376839 379.628036894 420.254458132 379.698501308 420.527497298C379.698501308 420.527497298 379.698501308 420.527497298 379.698501308 420.527497298M376.740346638 417.24262025C376.904580035 417.972688416 377.339336002 418.462776809 378.044614539 418.71288543C378.310391062 418.807136269 378.212572079 419.244316442 378.00162372 419.431448108C378.00162372 419.431448108 374.84059248 422.235589591 374.84059248 422.235589591C374.629644121 422.422721258 374.344471307 422.365914604 374.122029801 422.192598773C373.619713176 421.801234572 373.053694712 421.502939113 372.8177619 420.722333592C372.736174396 420.452404848 372.60226152 420.1191138 372.819034166 419.938761527C372.819034166 419.938761527 376.067341511 417.236208291 376.067341511 417.236208291C376.284114157 417.055856017 376.678463575 416.967509489 376.740346638 417.24262025C376.740346638 417.24262025 376.740346638 417.24262025 376.740346638 417.24262025M373.991836587 413.877074267C374.109255724 414.616116218 374.47761967 415.079868968 375.174617029 415.352202905C375.437272875 415.454829112 375.325648319 415.888689274 375.108875674 416.069041548C375.108875674 416.069041548 371.860568328 418.771594784 371.860568328 418.771594784C371.643795682 418.951947058 371.360566651 418.8861315 371.143729684 418.70585343C370.654068671 418.298767119 370.041431127 417.894027039 369.855675687 417.099985504C369.791439226 416.825410454 369.721893461 416.558940282 369.944327497 416.385618893C369.944327497 416.385618893 373.277469975 413.788422456 373.277469975 413.788422456C373.499904011 413.615101066 373.94759448 413.598582232 373.991836587 413.877074267C373.991836587 413.877074267 373.991836587 413.877074267 373.991836587 413.877074267M371.345139943 410.339326122C371.438666873 411.081769639 371.824464519 411.611257756 372.502532881 411.927790471C372.758055534 412.047072505 372.579288024 412.417855149 372.356853988 412.591176538C372.356853988 412.591176538 369.023711509 415.188372976 369.023711509 415.188372976C368.801277473 415.361694365 368.46941101 415.209480686 368.264599414 415.015649678C367.802092959 414.577958098 367.267260624 414.226803364 367.107206477 413.427185328C367.051857379 413.150681849 366.990940391 412.882107827 367.218847541 412.716049252C367.218847541 412.716049252 370.634003866 410.227685056 370.634003866 410.227685056C370.861911017 410.061626481 371.309901097 410.059552434 371.345139943 410.339326122C371.345139943 410.339326122 371.345139943 410.339326122 371.345139943 410.339326122"
         id="path13701" />
    </g>
    <path
       inkscape:connector-curvature="0"
       d="m 361.13813,452.9203 c 8.7325,-47.29375 5.3425,-42.67875 14.2675,-42.85625 l 23.44,0 c 8.92625,0.1775 5.535,-4.4375 14.265,42.85625 l -51.9725,0 z"
       style="fill:none;stroke:#231f20;stroke-width:0.3125;stroke-linecap:butt;stroke-linejoin:miter;stroke-miterlimit:4;stroke-opacity:1;stroke-dasharray:none"
       id="path3093" />
    <g
       transform="matrix(0.00215595,0.99999768,-0.99999768,0.00215595,866.92789,104.18923)"
       id="g7408">
      <path
         style="fill:#a3a2a4;stroke:#1b2a34;stroke-width:0.375;stroke-linecap:round;stroke-linejoin:round;stroke-miterlimit:4;stroke-opacity:1;display:inline"
         d="m 369.27978,489.99013 0,6.00951 c 0,0.282 -0.22703,0.50902 -0.50903,0.50902 l -1.92027,0 c -0.28202,0 -0.50903,-0.22702 -0.50903,-0.50902 l 0,-6.00951 c 0,-0.44139 1.0342,-2.17799 1.51508,-2.21639 0.48088,-0.0384 1.42325,1.71125 1.42325,2.21639 z"
         id="rect7393"
         inkscape:connector-curvature="0"
         sodipodi:nodetypes="sssssszs" />
      <path
         style="fill:#694020;stroke:#1b2a34;stroke-width:0.375;stroke-miterlimit:4;display:inline"
         d="m 366.82787,489.99913 c 0.65516,0.36164 1.31032,0.36164 1.96548,0 0.24689,-0.13628 0.50903,0.22703 0.50903,0.50903 l 0,4.22573 c 0,0.282 -0.23175,0.45764 -0.50903,0.50903 -0.62614,0.11606 -1.22493,0.34154 -1.96548,0 -0.25608,-0.1181 -0.50903,-0.22703 -0.50903,-0.50903 l 0,-4.22573 c 0,-0.282 0.26215,-0.64531 0.50903,-0.50903 z"
         id="rect7390"
         inkscape:connector-curvature="0"
         sodipodi:nodetypes="sssssssss" />
    </g>
  </g>
</svg>
