<?xml version="1.0" encoding="UTF-8" standalone="no"?>
<!-- Created with Inkscape (http://www.inkscape.org/) -->

<svg
   xmlns:dc="http://purl.org/dc/elements/1.1/"
   xmlns:cc="http://creativecommons.org/ns#"
   xmlns:rdf="http://www.w3.org/1999/02/22-rdf-syntax-ns#"
   xmlns:svg="http://www.w3.org/2000/svg"
   xmlns="http://www.w3.org/2000/svg"
   xmlns:xlink="http://www.w3.org/1999/xlink"
   xmlns:sodipodi="http://sodipodi.sourceforge.net/DTD/sodipodi-0.dtd"
   xmlns:inkscape="http://www.inkscape.org/namespaces/inkscape"
   width="65.634331"
   height="12.974426"
   id="svg2"
   version="1.1"
   inkscape:version="0.48.2 r9819"
   sodipodi:docname="ammo.hip.[3376].svg">
  <defs
     id="defs4">
    <linearGradient
       inkscape:collect="always"
       id="linearGradient4011">
      <stop
         style="stop-color:#ffffff;stop-opacity:1;"
         offset="0"
         id="stop4013" />
      <stop
         style="stop-color:#ffffff;stop-opacity:0;"
         offset="1"
         id="stop4015" />
    </linearGradient>
    <linearGradient
       inkscape:collect="always"
       id="linearGradient3997">
      <stop
         style="stop-color:#ffffff;stop-opacity:1;"
         offset="0"
         id="stop3999" />
      <stop
         style="stop-color:#ffffff;stop-opacity:0;"
         offset="1"
         id="stop4001" />
    </linearGradient>
    <inkscape:path-effect
       effect="skeletal"
       id="path-effect4237"
       is_visible="true"
       pattern="M 0,5 C 0,2.24 2.24,0 5,0 7.76,0 10,2.24 10,5 10,7.76 7.76,10 5,10 2.24,10 0,7.76 0,5 z"
       copytype="single_stretched"
       prop_scale="1"
       scale_y_rel="false"
       spacing="0"
       normal_offset="0"
       tang_offset="0"
       prop_units="false"
       vertical_pattern="false"
       fuse_tolerance="0" />
    <clipPath
       id="clipPath2999"
       clipPathUnits="userSpaceOnUse">
      <path
         id="path3001"
         d="M 0,792 612,792 612,0 0,0 0,792 z"
         inkscape:connector-curvature="0" />
    </clipPath>
    <radialGradient
       gradientUnits="userSpaceOnUse"
       gradientTransform="matrix(0.75988491,-0.03632001,0.13155835,2.7524547,16.986326,-78.268899)"
       r="12.650181"
       fy="46.658409"
       fx="96.306435"
       cy="46.658409"
       cx="96.306435"
       id="radialGradient3972"
       xlink:href="#linearGradient3966"
       inkscape:collect="always" />
    <clipPath
       clipPathUnits="userSpaceOnUse"
       id="clipPath2999-4">
      <path
         inkscape:connector-curvature="0"
         d="M 0,792 612,792 612,0 0,0 0,792 z"
         id="path3001-0" />
    </clipPath>
    <linearGradient
       id="linearGradient3966">
      <stop
         id="stop3968"
         offset="0"
         style="stop-color:#c0ac02;stop-opacity:1;" />
      <stop
         id="stop3970"
         offset="1"
         style="stop-color:#fdea41;stop-opacity:0;" />
    </linearGradient>
    <radialGradient
       inkscape:collect="always"
       xlink:href="#linearGradient3997"
       id="radialGradient4003"
       cx="165.81134"
       cy="47.693741"
       fx="165.81134"
       fy="47.693741"
       r="3.8123069"
       gradientTransform="matrix(0.64374811,-0.18781617,0.31213841,1.069868,43.640483,27.15595)"
       gradientUnits="userSpaceOnUse" />
    <radialGradient
       inkscape:collect="always"
       xlink:href="#linearGradient3997"
       id="radialGradient4007"
       gradientUnits="userSpaceOnUse"
       gradientTransform="matrix(-0.64374811,-0.18781617,-0.31213841,1.069868,293.73143,27.15595)"
       cx="165.81134"
       cy="47.693741"
       fx="165.81134"
       fy="47.693741"
       r="3.8123069" />
    <radialGradient
       inkscape:collect="always"
       xlink:href="#linearGradient4011"
       id="radialGradient4017"
       cx="169.32254"
       cy="41.784931"
       fx="169.32254"
       fy="41.784931"
       r="6.982676"
       gradientTransform="matrix(0.31036379,-0.01814613,0.03701409,0.63307367,114.75293,21.468668)"
       gradientUnits="userSpaceOnUse" />
    <linearGradient
       id="linearGradient3966-2">
      <stop
         style="stop-color:#c0ac02;stop-opacity:1;"
         offset="0"
         id="stop3968-4" />
      <stop
         style="stop-color:#fdea41;stop-opacity:0;"
         offset="1"
         id="stop3970-5" />
    </linearGradient>
    <clipPath
       id="clipPath2999-4-8"
       clipPathUnits="userSpaceOnUse">
      <path
         id="path3001-0-8"
         d="M 0,792 612,792 612,0 0,0 0,792 z"
         inkscape:connector-curvature="0" />
    </clipPath>
    <radialGradient
       inkscape:collect="always"
       xlink:href="#linearGradient3966-2"
       id="radialGradient3972-4"
       cx="96.306435"
       cy="46.658409"
       fx="96.306435"
       fy="46.658409"
       r="12.650181"
       gradientTransform="matrix(0.75988491,-0.03632001,0.13155835,2.7524547,16.986326,-78.268899)"
       gradientUnits="userSpaceOnUse" />
    <clipPath
       clipPathUnits="userSpaceOnUse"
       id="clipPath2999-0">
      <path
         inkscape:connector-curvature="0"
         d="M 0,792 612,792 612,0 0,0 0,792 z"
         id="path3001-9" />
    </clipPath>
    <inkscape:path-effect
       fuse_tolerance="0"
       vertical_pattern="false"
       prop_units="false"
       tang_offset="0"
       normal_offset="0"
       spacing="0"
       scale_y_rel="false"
       prop_scale="1"
       copytype="single_stretched"
       pattern="M 0,5 C 0,2.24 2.24,0 5,0 7.76,0 10,2.24 10,5 10,7.76 7.76,10 5,10 2.24,10 0,7.76 0,5 z"
       is_visible="true"
       id="path-effect4237-4"
       effect="skeletal" />
    <linearGradient
       inkscape:collect="always"
       id="linearGradient4011-4">
      <stop
         style="stop-color:#ffffff;stop-opacity:1;"
         offset="0"
         id="stop4013-0" />
      <stop
         style="stop-color:#ffffff;stop-opacity:0;"
         offset="1"
         id="stop4015-9" />
    </linearGradient>
    <linearGradient
       inkscape:collect="always"
       id="linearGradient3997-4">
      <stop
         style="stop-color:#ffffff;stop-opacity:1;"
         offset="0"
         id="stop3999-8" />
      <stop
         style="stop-color:#ffffff;stop-opacity:0;"
         offset="1"
         id="stop4001-8" />
    </linearGradient>
    <inkscape:path-effect
       effect="skeletal"
       id="path-effect4237-2"
       is_visible="true"
       pattern="M 0,5 C 0,2.24 2.24,0 5,0 7.76,0 10,2.24 10,5 10,7.76 7.76,10 5,10 2.24,10 0,7.76 0,5 z"
       copytype="single_stretched"
       prop_scale="1"
       scale_y_rel="false"
       spacing="0"
       normal_offset="0"
       tang_offset="0"
       prop_units="false"
       vertical_pattern="false"
       fuse_tolerance="0" />
    <clipPath
       id="clipPath2999-45"
       clipPathUnits="userSpaceOnUse">
      <path
         id="path3001-5"
         d="M 0,792 612,792 612,0 0,0 0,792 z"
         inkscape:connector-curvature="0" />
    </clipPath>
    <radialGradient
       gradientUnits="userSpaceOnUse"
       gradientTransform="matrix(0.75988491,-0.03632001,0.13155835,2.7524547,16.986326,-78.268899)"
       r="12.650181"
       fy="46.658409"
       fx="96.306435"
       cy="46.658409"
       cx="96.306435"
       id="radialGradient3972-1"
       xlink:href="#linearGradient3966-1"
       inkscape:collect="always" />
    <clipPath
       clipPathUnits="userSpaceOnUse"
       id="clipPath2999-4-7">
      <path
         inkscape:connector-curvature="0"
         d="M 0,792 612,792 612,0 0,0 0,792 z"
         id="path3001-0-1" />
    </clipPath>
    <linearGradient
       id="linearGradient3966-1">
      <stop
         id="stop3968-5"
         offset="0"
         style="stop-color:#c0ac02;stop-opacity:1;" />
      <stop
         id="stop3970-2"
         offset="1"
         style="stop-color:#fdea41;stop-opacity:0;" />
    </linearGradient>
    <radialGradient
       inkscape:collect="always"
       xlink:href="#linearGradient3997-4"
       id="radialGradient4003-7"
       cx="165.81134"
       cy="47.693741"
       fx="165.81134"
       fy="47.693741"
       r="3.8123069"
       gradientTransform="matrix(0.64374811,-0.18781617,0.31213841,1.069868,43.640483,27.15595)"
       gradientUnits="userSpaceOnUse" />
    <radialGradient
       inkscape:collect="always"
       xlink:href="#linearGradient3997-4"
       id="radialGradient4007-6"
       gradientUnits="userSpaceOnUse"
       gradientTransform="matrix(-0.64374811,-0.18781617,-0.31213841,1.069868,293.73143,27.15595)"
       cx="165.81134"
       cy="47.693741"
       fx="165.81134"
       fy="47.693741"
       r="3.8123069" />
    <radialGradient
       inkscape:collect="always"
       xlink:href="#linearGradient4011-4"
       id="radialGradient4017-1"
       cx="169.32254"
       cy="41.784931"
       fx="169.32254"
       fy="41.784931"
       r="6.982676"
       gradientTransform="matrix(0.31036379,-0.01814613,0.03701409,0.63307367,114.75293,21.468668)"
       gradientUnits="userSpaceOnUse" />
    <linearGradient
       id="linearGradient3966-2-4">
      <stop
         style="stop-color:#c0ac02;stop-opacity:1;"
         offset="0"
         id="stop3968-4-2" />
      <stop
         style="stop-color:#fdea41;stop-opacity:0;"
         offset="1"
         id="stop3970-5-3" />
    </linearGradient>
    <clipPath
       id="clipPath2999-4-8-2"
       clipPathUnits="userSpaceOnUse">
      <path
         id="path3001-0-8-2"
         d="M 0,792 612,792 612,0 0,0 0,792 z"
         inkscape:connector-curvature="0" />
    </clipPath>
    <radialGradient
       inkscape:collect="always"
       xlink:href="#linearGradient3966-2-4"
       id="radialGradient3972-4-1"
       cx="96.306435"
       cy="46.658409"
       fx="96.306435"
       fy="46.658409"
       r="12.650181"
       gradientTransform="matrix(0.75988491,-0.03632001,0.13155835,2.7524547,16.986326,-78.268899)"
       gradientUnits="userSpaceOnUse" />
    <clipPath
       clipPathUnits="userSpaceOnUse"
       id="clipPath2999-0-6">
      <path
         inkscape:connector-curvature="0"
         d="M 0,792 612,792 612,0 0,0 0,792 z"
         id="path3001-9-8" />
    </clipPath>
    <inkscape:path-effect
       fuse_tolerance="0"
       vertical_pattern="false"
       prop_units="false"
       tang_offset="0"
       normal_offset="0"
       spacing="0"
       scale_y_rel="false"
       prop_scale="1"
       copytype="single_stretched"
       pattern="M 0,5 C 0,2.24 2.24,0 5,0 7.76,0 10,2.24 10,5 10,7.76 7.76,10 5,10 2.24,10 0,7.76 0,5 z"
       is_visible="true"
       id="path-effect4237-4-5"
       effect="skeletal" />
    <inkscape:path-effect
       effect="skeletal"
       id="path-effect4237-4-2"
       is_visible="true"
       pattern="M 0,5 C 0,2.24 2.24,0 5,0 7.76,0 10,2.24 10,5 10,7.76 7.76,10 5,10 2.24,10 0,7.76 0,5 z"
       copytype="single_stretched"
       prop_scale="1"
       scale_y_rel="false"
       spacing="0"
       normal_offset="0"
       tang_offset="0"
       prop_units="false"
       vertical_pattern="false"
       fuse_tolerance="0" />
    <clipPath
       id="clipPath2999-0-61"
       clipPathUnits="userSpaceOnUse">
      <path
         id="path3001-9-89"
         d="M 0,792 612,792 612,0 0,0 0,792 z"
         inkscape:connector-curvature="0" />
    </clipPath>
    <radialGradient
       gradientUnits="userSpaceOnUse"
       gradientTransform="matrix(0.75988491,-0.03632001,0.13155835,2.7524547,16.986326,-78.268899)"
       r="12.650181"
       fy="46.658409"
       fx="96.306435"
       cy="46.658409"
       cx="96.306435"
       id="radialGradient3972-4-7"
       xlink:href="#linearGradient3966-2-2"
       inkscape:collect="always" />
    <clipPath
       clipPathUnits="userSpaceOnUse"
       id="clipPath2999-4-8-8">
      <path
         inkscape:connector-curvature="0"
         d="M 0,792 612,792 612,0 0,0 0,792 z"
         id="path3001-0-8-5" />
    </clipPath>
    <linearGradient
       id="linearGradient3966-2-2">
      <stop
         id="stop3968-4-21"
         offset="0"
         style="stop-color:#c0ac02;stop-opacity:1;" />
      <stop
         id="stop3970-5-6"
         offset="1"
         style="stop-color:#fdea41;stop-opacity:0;" />
    </linearGradient>
    <radialGradient
       gradientUnits="userSpaceOnUse"
       gradientTransform="matrix(0.31036379,-0.01814613,0.03701409,0.63307367,114.75293,21.468668)"
       r="6.982676"
       fy="41.784931"
       fx="169.32254"
       cy="41.784931"
       cx="169.32254"
       id="radialGradient4017-3"
       xlink:href="#linearGradient4011-40"
       inkscape:collect="always" />
    <radialGradient
       r="3.8123069"
       fy="47.693741"
       fx="165.81134"
       cy="47.693741"
       cx="165.81134"
       gradientTransform="matrix(-0.64374811,-0.18781617,-0.31213841,1.069868,293.73143,27.15595)"
       gradientUnits="userSpaceOnUse"
       id="radialGradient4007-2"
       xlink:href="#linearGradient3997-8"
       inkscape:collect="always" />
    <radialGradient
       gradientUnits="userSpaceOnUse"
       gradientTransform="matrix(0.64374811,-0.18781617,0.31213841,1.069868,43.640483,27.15595)"
       r="3.8123069"
       fy="47.693741"
       fx="165.81134"
       cy="47.693741"
       cx="165.81134"
       id="radialGradient4003-4"
       xlink:href="#linearGradient3997-8"
       inkscape:collect="always" />
    <linearGradient
       id="linearGradient3966-27">
      <stop
         style="stop-color:#c0ac02;stop-opacity:1;"
         offset="0"
         id="stop3968-6" />
      <stop
         style="stop-color:#fdea41;stop-opacity:0;"
         offset="1"
         id="stop3970-1" />
    </linearGradient>
    <clipPath
       id="clipPath2999-4-1"
       clipPathUnits="userSpaceOnUse">
      <path
         id="path3001-0-15"
         d="M 0,792 612,792 612,0 0,0 0,792 z"
         inkscape:connector-curvature="0" />
    </clipPath>
    <radialGradient
       inkscape:collect="always"
       xlink:href="#linearGradient3966-27"
       id="radialGradient3972-7"
       cx="96.306435"
       cy="46.658409"
       fx="96.306435"
       fy="46.658409"
       r="12.650181"
       gradientTransform="matrix(0.75988491,-0.03632001,0.13155835,2.7524547,16.986326,-78.268899)"
       gradientUnits="userSpaceOnUse" />
    <clipPath
       clipPathUnits="userSpaceOnUse"
       id="clipPath2999-5">
      <path
         inkscape:connector-curvature="0"
         d="M 0,792 612,792 612,0 0,0 0,792 z"
         id="path3001-1" />
    </clipPath>
    <inkscape:path-effect
       fuse_tolerance="0"
       vertical_pattern="false"
       prop_units="false"
       tang_offset="0"
       normal_offset="0"
       spacing="0"
       scale_y_rel="false"
       prop_scale="1"
       copytype="single_stretched"
       pattern="M 0,5 C 0,2.24 2.24,0 5,0 7.76,0 10,2.24 10,5 10,7.76 7.76,10 5,10 2.24,10 0,7.76 0,5 z"
       is_visible="true"
       id="path-effect4237-5"
       effect="skeletal" />
    <linearGradient
       id="linearGradient3997-8"
       inkscape:collect="always">
      <stop
         id="stop3999-82"
         offset="0"
         style="stop-color:#ffffff;stop-opacity:1;" />
      <stop
         id="stop4001-4"
         offset="1"
         style="stop-color:#ffffff;stop-opacity:0;" />
    </linearGradient>
    <linearGradient
       id="linearGradient4011-40"
       inkscape:collect="always">
      <stop
         id="stop4013-9"
         offset="0"
         style="stop-color:#ffffff;stop-opacity:1;" />
      <stop
         id="stop4015-4"
         offset="1"
         style="stop-color:#ffffff;stop-opacity:0;" />
    </linearGradient>
    <mask
       maskUnits="userSpaceOnUse"
       id="mask3974">
      <path
         sodipodi:nodetypes="ccsccc"
         inkscape:connector-curvature="0"
         id="path3976"
         d="m 256.44908,107.5395 -32.46352,0 c 0,0 -6.91787,1.45438 -6.91787,4.01191 0,2.49929 6.91787,4.18585 6.91787,4.18585 l 32.46352,0 z"
         style="fill:#e5e4de;stroke:none" />
    </mask>
    <mask
       id="mask14361"
       maskUnits="userSpaceOnUse">
      <path
         inkscape:connector-curvature="0"
         d="m 361.13813,452.9203 c 8.7325,-47.29375 5.3425,-42.67875 14.2675,-42.85625 l 23.44,0 c 8.92625,0.1775 5.535,-4.4375 14.265,42.85625 l -51.9725,0 z"
         style="fill:#ffffff;fill-opacity:1;stroke:#231f20;stroke-width:0.3125;stroke-linecap:butt;stroke-linejoin:miter;stroke-miterlimit:4;stroke-opacity:1;stroke-dasharray:none"
         id="path14363" />
    </mask>
    <linearGradient
       inkscape:collect="always"
       id="linearGradient4011-4-6">
      <stop
         style="stop-color:#ffffff;stop-opacity:1;"
         offset="0"
         id="stop4013-0-0" />
      <stop
         style="stop-color:#ffffff;stop-opacity:0;"
         offset="1"
         id="stop4015-9-2" />
    </linearGradient>
    <linearGradient
       inkscape:collect="always"
       id="linearGradient3997-4-0">
      <stop
         style="stop-color:#ffffff;stop-opacity:1;"
         offset="0"
         id="stop3999-8-2" />
      <stop
         style="stop-color:#ffffff;stop-opacity:0;"
         offset="1"
         id="stop4001-8-8" />
    </linearGradient>
    <inkscape:path-effect
       effect="skeletal"
       id="path-effect4237-2-5"
       is_visible="true"
       pattern="M 0,5 C 0,2.24 2.24,0 5,0 7.76,0 10,2.24 10,5 10,7.76 7.76,10 5,10 2.24,10 0,7.76 0,5 z"
       copytype="single_stretched"
       prop_scale="1"
       scale_y_rel="false"
       spacing="0"
       normal_offset="0"
       tang_offset="0"
       prop_units="false"
       vertical_pattern="false"
       fuse_tolerance="0" />
    <clipPath
       id="clipPath2999-45-8"
       clipPathUnits="userSpaceOnUse">
      <path
         id="path3001-5-6"
         d="M 0,792 612,792 612,0 0,0 0,792 z"
         inkscape:connector-curvature="0" />
    </clipPath>
    <radialGradient
       gradientUnits="userSpaceOnUse"
       gradientTransform="matrix(0.75988491,-0.03632001,0.13155835,2.7524547,16.986326,-78.268899)"
       r="12.650181"
       fy="46.658409"
       fx="96.306435"
       cy="46.658409"
       cx="96.306435"
       id="radialGradient3972-1-9"
       xlink:href="#linearGradient3966-1-7"
       inkscape:collect="always" />
    <clipPath
       clipPathUnits="userSpaceOnUse"
       id="clipPath2999-4-7-3">
      <path
         inkscape:connector-curvature="0"
         d="M 0,792 612,792 612,0 0,0 0,792 z"
         id="path3001-0-1-1" />
    </clipPath>
    <linearGradient
       id="linearGradient3966-1-7">
      <stop
         id="stop3968-5-7"
         offset="0"
         style="stop-color:#c0ac02;stop-opacity:1;" />
      <stop
         id="stop3970-2-9"
         offset="1"
         style="stop-color:#fdea41;stop-opacity:0;" />
    </linearGradient>
    <radialGradient
       inkscape:collect="always"
       xlink:href="#linearGradient3997-4-0"
       id="radialGradient4003-7-2"
       cx="165.81134"
       cy="47.693741"
       fx="165.81134"
       fy="47.693741"
       r="3.8123069"
       gradientTransform="matrix(0.64374811,-0.18781617,0.31213841,1.069868,43.640483,27.15595)"
       gradientUnits="userSpaceOnUse" />
    <radialGradient
       inkscape:collect="always"
       xlink:href="#linearGradient3997-4-0"
       id="radialGradient4007-6-4"
       gradientUnits="userSpaceOnUse"
       gradientTransform="matrix(-0.64374811,-0.18781617,-0.31213841,1.069868,293.73143,27.15595)"
       cx="165.81134"
       cy="47.693741"
       fx="165.81134"
       fy="47.693741"
       r="3.8123069" />
    <radialGradient
       inkscape:collect="always"
       xlink:href="#linearGradient4011-4-6"
       id="radialGradient4017-1-7"
       cx="169.32254"
       cy="41.784931"
       fx="169.32254"
       fy="41.784931"
       r="6.982676"
       gradientTransform="matrix(0.31036379,-0.01814613,0.03701409,0.63307367,114.75293,21.468668)"
       gradientUnits="userSpaceOnUse" />
    <linearGradient
       id="linearGradient3966-2-4-1">
      <stop
         style="stop-color:#c0ac02;stop-opacity:1;"
         offset="0"
         id="stop3968-4-2-3" />
      <stop
         style="stop-color:#fdea41;stop-opacity:0;"
         offset="1"
         id="stop3970-5-3-8" />
    </linearGradient>
    <clipPath
       id="clipPath2999-4-8-2-4"
       clipPathUnits="userSpaceOnUse">
      <path
         id="path3001-0-8-2-1"
         d="M 0,792 612,792 612,0 0,0 0,792 z"
         inkscape:connector-curvature="0" />
    </clipPath>
    <radialGradient
       inkscape:collect="always"
       xlink:href="#linearGradient3966-2-4-1"
       id="radialGradient3972-4-1-3"
       cx="96.306435"
       cy="46.658409"
       fx="96.306435"
       fy="46.658409"
       r="12.650181"
       gradientTransform="matrix(0.75988491,-0.03632001,0.13155835,2.7524547,16.986326,-78.268899)"
       gradientUnits="userSpaceOnUse" />
    <clipPath
       clipPathUnits="userSpaceOnUse"
       id="clipPath2999-0-6-2">
      <path
         inkscape:connector-curvature="0"
         d="M 0,792 612,792 612,0 0,0 0,792 z"
         id="path3001-9-8-3" />
    </clipPath>
    <inkscape:path-effect
       fuse_tolerance="0"
       vertical_pattern="false"
       prop_units="false"
       tang_offset="0"
       normal_offset="0"
       spacing="0"
       scale_y_rel="false"
       prop_scale="1"
       copytype="single_stretched"
       pattern="M 0,5 C 0,2.24 2.24,0 5,0 7.76,0 10,2.24 10,5 10,7.76 7.76,10 5,10 2.24,10 0,7.76 0,5 z"
       is_visible="true"
       id="path-effect4237-4-5-1"
       effect="skeletal" />
    <inkscape:path-effect
       effect="skeletal"
       id="path-effect4237-4-3"
       is_visible="true"
       pattern="M 0,5 C 0,2.24 2.24,0 5,0 7.76,0 10,2.24 10,5 10,7.76 7.76,10 5,10 2.24,10 0,7.76 0,5 z"
       copytype="single_stretched"
       prop_scale="1"
       scale_y_rel="false"
       spacing="0"
       normal_offset="0"
       tang_offset="0"
       prop_units="false"
       vertical_pattern="false"
       fuse_tolerance="0" />
    <clipPath
       id="clipPath2999-0-5"
       clipPathUnits="userSpaceOnUse">
      <path
         id="path3001-9-4"
         d="M 0,792 612,792 612,0 0,0 0,792 z"
         inkscape:connector-curvature="0" />
    </clipPath>
    <radialGradient
       gradientUnits="userSpaceOnUse"
       gradientTransform="matrix(0.75988491,-0.03632001,0.13155835,2.7524547,16.986326,-78.268899)"
       r="12.650181"
       fy="46.658409"
       fx="96.306435"
       cy="46.658409"
       cx="96.306435"
       id="radialGradient3972-4-9"
       xlink:href="#linearGradient3966-2-7"
       inkscape:collect="always" />
    <clipPath
       clipPathUnits="userSpaceOnUse"
       id="clipPath2999-4-8-89">
      <path
         inkscape:connector-curvature="0"
         d="M 0,792 612,792 612,0 0,0 0,792 z"
         id="path3001-0-8-27" />
    </clipPath>
    <linearGradient
       id="linearGradient3966-2-7">
      <stop
         id="stop3968-4-6"
         offset="0"
         style="stop-color:#c0ac02;stop-opacity:1;" />
      <stop
         id="stop3970-5-1"
         offset="1"
         style="stop-color:#fdea41;stop-opacity:0;" />
    </linearGradient>
    <radialGradient
       gradientUnits="userSpaceOnUse"
       gradientTransform="matrix(0.31036379,-0.01814613,0.03701409,0.63307367,114.75293,21.468668)"
       r="6.982676"
       fy="41.784931"
       fx="169.32254"
       cy="41.784931"
       cx="169.32254"
       id="radialGradient4017-5"
       xlink:href="#linearGradient4011-48"
       inkscape:collect="always" />
    <radialGradient
       r="3.8123069"
       fy="47.693741"
       fx="165.81134"
       cy="47.693741"
       cx="165.81134"
       gradientTransform="matrix(-0.64374811,-0.18781617,-0.31213841,1.069868,293.73143,27.15595)"
       gradientUnits="userSpaceOnUse"
       id="radialGradient4007-8"
       xlink:href="#linearGradient3997-45"
       inkscape:collect="always" />
    <radialGradient
       gradientUnits="userSpaceOnUse"
       gradientTransform="matrix(0.64374811,-0.18781617,0.31213841,1.069868,43.640483,27.15595)"
       r="3.8123069"
       fy="47.693741"
       fx="165.81134"
       cy="47.693741"
       cx="165.81134"
       id="radialGradient4003-6"
       xlink:href="#linearGradient3997-45"
       inkscape:collect="always" />
    <linearGradient
       id="linearGradient3966-23">
      <stop
         style="stop-color:#c0ac02;stop-opacity:1;"
         offset="0"
         id="stop3968-2" />
      <stop
         style="stop-color:#fdea41;stop-opacity:0;"
         offset="1"
         id="stop3970-21" />
    </linearGradient>
    <clipPath
       id="clipPath2999-4-76"
       clipPathUnits="userSpaceOnUse">
      <path
         id="path3001-0-14"
         d="M 0,792 612,792 612,0 0,0 0,792 z"
         inkscape:connector-curvature="0" />
    </clipPath>
    <radialGradient
       inkscape:collect="always"
       xlink:href="#linearGradient3966-23"
       id="radialGradient3972-2"
       cx="96.306435"
       cy="46.658409"
       fx="96.306435"
       fy="46.658409"
       r="12.650181"
       gradientTransform="matrix(0.75988491,-0.03632001,0.13155835,2.7524547,16.986326,-78.268899)"
       gradientUnits="userSpaceOnUse" />
    <clipPath
       clipPathUnits="userSpaceOnUse"
       id="clipPath2999-1">
      <path
         inkscape:connector-curvature="0"
         d="M 0,792 612,792 612,0 0,0 0,792 z"
         id="path3001-15" />
    </clipPath>
    <inkscape:path-effect
       fuse_tolerance="0"
       vertical_pattern="false"
       prop_units="false"
       tang_offset="0"
       normal_offset="0"
       spacing="0"
       scale_y_rel="false"
       prop_scale="1"
       copytype="single_stretched"
       pattern="M 0,5 C 0,2.24 2.24,0 5,0 7.76,0 10,2.24 10,5 10,7.76 7.76,10 5,10 2.24,10 0,7.76 0,5 z"
       is_visible="true"
       id="path-effect4237-7"
       effect="skeletal" />
    <linearGradient
       id="linearGradient3997-45"
       inkscape:collect="always">
      <stop
         id="stop3999-5"
         offset="0"
         style="stop-color:#ffffff;stop-opacity:1;" />
      <stop
         id="stop4001-1"
         offset="1"
         style="stop-color:#ffffff;stop-opacity:0;" />
    </linearGradient>
    <linearGradient
       id="linearGradient4011-48"
       inkscape:collect="always">
      <stop
         id="stop4013-8"
         offset="0"
         style="stop-color:#ffffff;stop-opacity:1;" />
      <stop
         id="stop4015-2"
         offset="1"
         style="stop-color:#ffffff;stop-opacity:0;" />
    </linearGradient>
  </defs>
  <sodipodi:namedview
     id="base"
     pagecolor="#ffffff"
     bordercolor="#666666"
     borderopacity="1.0"
     inkscape:pageopacity="0.0"
     inkscape:pageshadow="2"
     inkscape:zoom="6.53"
     inkscape:cx="42.127824"
     inkscape:cy="-27.038147"
     inkscape:document-units="px"
     inkscape:current-layer="layer2"
     showgrid="false"
     fit-margin-top="0"
     fit-margin-left="0"
     fit-margin-right="0"
     fit-margin-bottom="0"
     inkscape:window-width="1280"
     inkscape:window-height="968"
     inkscape:window-x="-4"
     inkscape:window-y="-4"
     inkscape:window-maximized="1"
     showguides="true"
     inkscape:guide-bbox="true"
     inkscape:snap-global="false">
    <sodipodi:guide
       orientation="0,1"
       position="17.907451,23.018173"
       id="guide3274" />
    <sodipodi:guide
       orientation="1,0"
       position="32.757711,28.134875"
       id="guide3960" />
  </sodipodi:namedview>
  <metadata
     id="metadata7">
    <rdf:RDF>
      <cc:Work
         rdf:about="">
        <dc:format>image/svg+xml</dc:format>
        <dc:type
           rdf:resource="http://purl.org/dc/dcmitype/StillImage" />
        <dc:title></dc:title>
      </cc:Work>
    </rdf:RDF>
  </metadata>
  <g
     inkscape:groupmode="layer"
     id="layer2"
     inkscape:label="holster"
     transform="translate(-136.142,-63.212838)">
    <g
       id="g4226"
       transform="translate(-34.609495,-39.050536)">
      <g
         transform="translate(28.533333,4.8)"
         id="g4043">
        <path
           style="fill:#694020;fill-opacity:1;stroke:#694020;stroke-width:0.875;stroke-linecap:round;stroke-linejoin:round;stroke-miterlimit:4;stroke-opacity:1;stroke-dasharray:none;stroke-dashoffset:0"
           d="m 142.97832,98.204376 c 7.03739,0 14.07477,0 21.11216,0 0,0 2.82752,2.544774 2.82752,5.372294 0,3.26735 -2.82752,6.12629 -2.82752,6.12629 l -21.11216,0 z"
           id="rect4034"
           inkscape:connector-curvature="0"
           sodipodi:nodetypes="ccsccc" />
        <path
           style="font-size:medium;font-style:normal;font-variant:normal;font-weight:normal;font-stretch:normal;text-indent:0;text-align:start;text-decoration:none;line-height:normal;letter-spacing:normal;word-spacing:normal;text-transform:none;direction:ltr;block-progression:tb;writing-mode:lr-tb;text-anchor:start;baseline-shift:baseline;color:#000000;fill:none;stroke:#1b2a34;stroke-width:0.375;stroke-miterlimit:4;stroke-dasharray:none;marker:none;visibility:visible;display:inline;overflow:visible;enable-background:accumulate;font-family:Sans;-inkscape-font-specification:Sans"
           d="m 142.8125,97.65625 a 0.56255625,0.56255625 0 0 0 -0.40625,0.5625 l 0,11.46875 a 0.56255625,0.56255625 0 0 0 0.5625,0.5625 l 21.125,0 A 0.56255625,0.56255625 0 0 0 164.5,110.09375 c 0,0 2.96875,-2.93938 2.96875,-6.53125 0,-3.20252 -3,-5.78125 -3,-5.78125 a 0.56255625,0.56255625 0 0 0 -0.375,-0.125 l -21.125,0 a 0.56255625,0.56255625 0 0 0 -0.15625,0 z m 0.71875,1.125 20.3125,0 c 0.23417,0.227391 2.5,2.44894 2.5,4.78125 0,2.78207 -2.23977,5.28197 -2.5,5.5625 l -20.3125,0 0,-10.34375 z"
           id="path4037"
           inkscape:connector-curvature="0" />
      </g>
      <g
         id="g4009">
        <g
           id="g3978"
           transform="translate(-26.013195,-3.1102733)">
          <path
             inkscape:connector-curvature="0"
             id="path3126"
             d="m 257.05635,107.38318 0.0768,8.44144"
             style="fill:none;stroke:#000000;stroke-width:1px;stroke-linecap:butt;stroke-linejoin:miter;stroke-opacity:1" />
          <path
             sodipodi:nodetypes="ccsccc"
             inkscape:connector-curvature="0"
             id="rect3128"
             d="m 257.09194,107.5395 -32.99345,0 c 0,0 -7.0308,1.45438 -7.0308,4.01191 0,2.49929 7.0308,4.18585 7.0308,4.18585 l 32.99345,0 z"
             style="fill:#694020;stroke:#694020" />
          <path
             inkscape:connector-curvature="0"
             id="path3131"
             d="m 257.58919,107.03748 0,0.5 0,8.1875 0,0.5 -0.5,0 -33,0 -0.0625,0 -0.0312,0 c 0,0 -1.7895,-0.43401 -3.59375,-1.1875 -0.90213,-0.37675 -1.81344,-0.82006 -2.53125,-1.375 -0.71781,-0.55494 -1.3125,-1.26575 -1.3125,-2.125 0,-0.86847 0.5915,-1.5512 1.3125,-2.09375 0.721,-0.54255 1.62786,-0.96132 2.53125,-1.3125 1.80674,-0.70237 3.5937,-1.09375 3.5937,-1.09375 l 0.0625,0 0.0312,0 33,0 0.5,0 z m -1,1 -32.375,0 c 0,0 -1.72889,0.33579 -3.4375,1 -0.85431,0.3321 -1.71522,0.7693 -2.3125,1.21875 -0.59728,0.44945 -0.90625,0.87095 -0.90625,1.28125 0,0.3904 0.30579,0.84828 0.90625,1.3125 0.60046,0.46422 1.45693,0.92394 2.3125,1.28125 1.65035,0.68922 3.19617,1.06536 3.3125,1.09375 9.9e-4,2.4e-4 0.0305,-1.9e-4 0.0312,0 l 32.46875,0 0,-7.1875 z"
             style="font-size:medium;font-style:normal;font-variant:normal;font-weight:normal;font-stretch:normal;text-indent:0;text-align:start;text-decoration:none;line-height:normal;letter-spacing:normal;word-spacing:normal;text-transform:none;direction:ltr;block-progression:tb;writing-mode:lr-tb;text-anchor:start;baseline-shift:baseline;color:#000000;fill:none;stroke:#1b2a34;stroke-width:0.375;stroke-miterlimit:4;stroke-dasharray:none;marker:none;visibility:visible;display:inline;overflow:visible;enable-background:accumulate;font-family:Sans;-inkscape-font-specification:Sans" />
          <g
             mask="url(#mask3974)"
             id="g3947">
            <g
               id="g3918"
               transform="translate(32.24277,0)">
              <use
                 height="147.96875"
                 width="289.36462"
                 transform="matrix(1,0,0,-1,0,222.55522)"
                 id="use3912"
                 xlink:href="#path3910"
                 y="0"
                 x="0" />
              <path
                 sodipodi:nodetypes="cccc"
                 inkscape:connector-curvature="0"
                 id="path3910"
                 d="m 219.23721,111.21091 c 0.99192,-1.46678 4.07795,-2.80599 6.17973,0.0667 l 2.37267,-2.18827 2.22019,2.25497"
                 style="fill:none;stroke:#1b2a34;stroke-width:0.375;stroke-linecap:butt;stroke-linejoin:miter;stroke-miterlimit:4;stroke-opacity:1;stroke-dasharray:none" />
              <path
                 id="path3914"
                 d="m 222.58756,111.38905 c 0,0.10857 -0.096,0.19657 -0.21444,0.19657 -0.11843,0 -0.21444,-0.088 -0.21444,-0.19657 0,-0.10856 0.096,-0.19657 0.21444,-0.19657 0.11843,0 0.21444,0.088 0.21444,0.19657 z"
                 style="fill:#1b2a34;stroke:none"
                 transform="matrix(2.1818182,0,0,2.1818182,-262.87932,-131.65948)"
                 inkscape:connector-curvature="0" />
            </g>
            <g
               id="g3923"
               transform="translate(21.49518,0)">
              <use
                 x="0"
                 y="0"
                 xlink:href="#path3910"
                 id="use3925"
                 transform="matrix(1,0,0,-1,0,222.55522)"
                 width="289.36462"
                 height="147.96875" />
              <path
                 style="fill:none;stroke:#1b2a34;stroke-width:0.375;stroke-linecap:butt;stroke-linejoin:miter;stroke-miterlimit:4;stroke-opacity:1;stroke-dasharray:none"
                 d="m 219.23721,111.21091 c 0.99192,-1.46678 4.07795,-2.80599 6.17973,0.0667 l 2.37267,-2.18827 2.22019,2.25497"
                 id="path3927"
                 inkscape:connector-curvature="0"
                 sodipodi:nodetypes="cccc" />
              <path
                 transform="matrix(2.1818182,0,0,2.1818182,-262.87932,-131.65948)"
                 style="fill:#1b2a34;stroke:none"
                 d="m 222.58756,111.38905 c 0,0.10857 -0.096,0.19657 -0.21444,0.19657 -0.11843,0 -0.21444,-0.088 -0.21444,-0.19657 0,-0.10856 0.096,-0.19657 0.21444,-0.19657 0.11843,0 0.21444,0.088 0.21444,0.19657 z"
                 id="path3929"
                 inkscape:connector-curvature="0" />
            </g>
            <g
               id="g3931"
               transform="translate(10.74759,0)">
              <use
                 height="147.96875"
                 width="289.36462"
                 transform="matrix(1,0,0,-1,0,222.55522)"
                 id="use3933"
                 xlink:href="#path3910"
                 y="0"
                 x="0" />
              <path
                 sodipodi:nodetypes="cccc"
                 inkscape:connector-curvature="0"
                 id="path3935"
                 d="m 219.23721,111.21091 c 0.99192,-1.46678 4.07795,-2.80599 6.17973,0.0667 l 2.37267,-2.18827 2.22019,2.25497"
                 style="fill:none;stroke:#1b2a34;stroke-width:0.375;stroke-linecap:butt;stroke-linejoin:miter;stroke-miterlimit:4;stroke-opacity:1;stroke-dasharray:none" />
              <path
                 id="path3937"
                 d="m 222.58756,111.38905 c 0,0.10857 -0.096,0.19657 -0.21444,0.19657 -0.11843,0 -0.21444,-0.088 -0.21444,-0.19657 0,-0.10856 0.096,-0.19657 0.21444,-0.19657 0.11843,0 0.21444,0.088 0.21444,0.19657 z"
                 style="fill:#1b2a34;stroke:none"
                 transform="matrix(2.1818182,0,0,2.1818182,-262.87932,-131.65948)"
                 inkscape:connector-curvature="0" />
            </g>
            <g
               id="g3939">
              <use
                 x="0"
                 y="0"
                 xlink:href="#path3910"
                 id="use3941"
                 transform="matrix(1,0,0,-1,0,222.55522)"
                 width="289.36462"
                 height="147.96875" />
              <path
                 style="fill:none;stroke:#1b2a34;stroke-width:0.375;stroke-linecap:butt;stroke-linejoin:miter;stroke-miterlimit:4;stroke-opacity:1;stroke-dasharray:none"
                 d="m 219.23721,111.21091 c 0.99192,-1.46678 4.07795,-2.80599 6.17973,0.0667 l 2.37267,-2.18827 2.22019,2.25497"
                 id="path3943"
                 inkscape:connector-curvature="0"
                 sodipodi:nodetypes="cccc" />
              <path
                 transform="matrix(2.1818182,0,0,2.1818182,-262.87932,-131.65948)"
                 style="fill:#1b2a34;stroke:none"
                 d="m 222.58756,111.38905 c 0,0.10857 -0.096,0.19657 -0.21444,0.19657 -0.11843,0 -0.21444,-0.088 -0.21444,-0.19657 0,-0.10856 0.096,-0.19657 0.21444,-0.19657 0.11843,0 0.21444,0.088 0.21444,0.19657 z"
                 id="path3945"
                 inkscape:connector-curvature="0" />
            </g>
          </g>
        </g>
        <path
           style="font-size:medium;font-style:normal;font-variant:normal;font-weight:normal;font-stretch:normal;text-indent:0;text-align:start;text-decoration:none;line-height:normal;letter-spacing:normal;word-spacing:normal;text-transform:none;direction:ltr;block-progression:tb;writing-mode:lr-tb;text-anchor:start;baseline-shift:baseline;color:#000000;fill:#cb8442;fill-opacity:1;stroke:#1b2a34;stroke-width:0.375;stroke-miterlimit:4;stroke-dasharray:none;marker:none;visibility:visible;display:inline;overflow:visible;enable-background:accumulate;font-family:Sans;-inkscape-font-specification:Sans"
           d="m 221.5,102.90625 c -1.68713,-0.059 -3.50754,0.12138 -5.53125,0.75 l -0.34375,0.125 0,0.375 0,8.84375 0,0.40625 L 216,113.5 c 3.2725,0.83059 6.68405,1.18696 10.28125,-0.0312 l 0.3125,-0.0937 0,-0.375 0,-8.84375 0,-0.40625 -0.375,-0.0937 c -1.49184,-0.38584 -3.03162,-0.69095 -4.71875,-0.75 z m -0.0312,1 c 1.45306,0.0517 2.78692,0.32371 4.125,0.65625 l 0,8.03125 c -3.09516,0.95721 -6.02378,0.71222 -8.96875,0 l 0,-8.03125 c 1.75169,-0.49905 3.3728,-0.70862 4.84375,-0.65625 z"
           id="rect4000"
           inkscape:connector-curvature="0" />
        <rect
           style="fill:#cb8442;fill-opacity:1;stroke:#1b2a34;stroke-width:0.375;stroke-linecap:round;stroke-linejoin:round;stroke-miterlimit:4;stroke-opacity:1;stroke-dasharray:none;stroke-dashoffset:0"
           id="rect4007"
           width="4.7125354"
           height="1.3195099"
           x="223.65692"
           y="107.91682"
           ry="0.47125354" />
      </g>
      <g
         transform="translate(0.3477414,0.09413102)"
         id="g4212">
        <g
           transform="matrix(-0.99999768,0.00215595,-0.00215595,-0.99999768,554.84617,600.00413)"
           id="g7408">
          <path
             style="fill:#a3a2a4;stroke:#1b2a34;stroke-width:0.375;stroke-linecap:round;stroke-linejoin:round;stroke-miterlimit:4;stroke-opacity:1;display:inline"
             d="m 369.27978,489.99013 0,6.00951 c 0,0.282 -0.22703,0.50902 -0.50903,0.50902 l -1.92027,0 c -0.28202,0 -0.50903,-0.22702 -0.50903,-0.50902 l 0,-6.00951 c 0,-0.44139 1.0342,-2.17799 1.51508,-2.21639 0.48088,-0.0384 1.42325,1.71125 1.42325,2.21639 z"
             id="rect7393"
             inkscape:connector-curvature="0"
             sodipodi:nodetypes="sssssszs" />
          <path
             style="fill:#694020;stroke:#1b2a34;stroke-width:0.375;stroke-miterlimit:4;display:inline"
             d="m 366.82787,489.99913 c 0.65516,0.36164 1.31032,0.36164 1.96548,0 0.24689,-0.13628 0.50903,0.22703 0.50903,0.50903 l 0,4.22573 c 0,0.282 -0.23175,0.45764 -0.50903,0.50903 -0.62614,0.11606 -1.22493,0.34154 -1.96548,0 -0.25608,-0.1181 -0.50903,-0.22703 -0.50903,-0.50903 l 0,-4.22573 c 0,-0.282 0.26215,-0.64531 0.50903,-0.50903 z"
             id="rect7390"
             inkscape:connector-curvature="0"
             sodipodi:nodetypes="sssssssss" />
        </g>
        <g
           id="g4194"
           transform="matrix(-0.99999768,0.00215595,-0.00215595,-0.99999768,551.87852,600.00413)">
          <path
             sodipodi:nodetypes="sssssszs"
             inkscape:connector-curvature="0"
             id="path4196"
             d="m 369.27978,489.99013 0,6.00951 c 0,0.282 -0.22703,0.50902 -0.50903,0.50902 l -1.92027,0 c -0.28202,0 -0.50903,-0.22702 -0.50903,-0.50902 l 0,-6.00951 c 0,-0.44139 1.0342,-2.17799 1.51508,-2.21639 0.48088,-0.0384 1.42325,1.71125 1.42325,2.21639 z"
             style="fill:#a3a2a4;stroke:#1b2a34;stroke-width:0.375;stroke-linecap:round;stroke-linejoin:round;stroke-miterlimit:4;stroke-opacity:1;display:inline" />
          <path
             sodipodi:nodetypes="sssssssss"
             inkscape:connector-curvature="0"
             id="path4198"
             d="m 366.82787,489.99913 c 0.65516,0.36164 1.31032,0.36164 1.96548,0 0.24689,-0.13628 0.50903,0.22703 0.50903,0.50903 l 0,4.22573 c 0,0.282 -0.23175,0.45764 -0.50903,0.50903 -0.62614,0.11606 -1.22493,0.34154 -1.96548,0 -0.25608,-0.1181 -0.50903,-0.22703 -0.50903,-0.50903 l 0,-4.22573 c 0,-0.282 0.26215,-0.64531 0.50903,-0.50903 z"
             style="fill:#694020;stroke:#1b2a34;stroke-width:0.375;stroke-miterlimit:4;display:inline" />
        </g>
        <g
           transform="matrix(-0.99999768,0.00215595,-0.00215595,-0.99999768,548.91088,600.00413)"
           id="g4200">
          <path
             style="fill:#a3a2a4;stroke:#1b2a34;stroke-width:0.375;stroke-linecap:round;stroke-linejoin:round;stroke-miterlimit:4;stroke-opacity:1;display:inline"
             d="m 369.27978,489.99013 0,6.00951 c 0,0.282 -0.22703,0.50902 -0.50903,0.50902 l -1.92027,0 c -0.28202,0 -0.50903,-0.22702 -0.50903,-0.50902 l 0,-6.00951 c 0,-0.44139 1.0342,-2.17799 1.51508,-2.21639 0.48088,-0.0384 1.42325,1.71125 1.42325,2.21639 z"
             id="path4202"
             inkscape:connector-curvature="0"
             sodipodi:nodetypes="sssssszs" />
          <path
             style="fill:#694020;stroke:#1b2a34;stroke-width:0.375;stroke-miterlimit:4;display:inline"
             d="m 366.82787,489.99913 c 0.65516,0.36164 1.31032,0.36164 1.96548,0 0.24689,-0.13628 0.50903,0.22703 0.50903,0.50903 l 0,4.22573 c 0,0.282 -0.23175,0.45764 -0.50903,0.50903 -0.62614,0.11606 -1.22493,0.34154 -1.96548,0 -0.25608,-0.1181 -0.50903,-0.22703 -0.50903,-0.50903 l 0,-4.22573 c 0,-0.282 0.26215,-0.64531 0.50903,-0.50903 z"
             id="path4204"
             inkscape:connector-curvature="0"
             sodipodi:nodetypes="sssssssss" />
        </g>
        <g
           id="g4206"
           transform="matrix(-0.99999768,0.00215595,-0.00215595,-0.99999768,545.94323,600.00413)">
          <path
             sodipodi:nodetypes="sssssszs"
             inkscape:connector-curvature="0"
             id="path4208"
             d="m 369.27978,489.99013 0,6.00951 c 0,0.282 -0.22703,0.50902 -0.50903,0.50902 l -1.92027,0 c -0.28202,0 -0.50903,-0.22702 -0.50903,-0.50902 l 0,-6.00951 c 0,-0.44139 1.0342,-2.17799 1.51508,-2.21639 0.48088,-0.0384 1.42325,1.71125 1.42325,2.21639 z"
             style="fill:#a3a2a4;stroke:#1b2a34;stroke-width:0.375;stroke-linecap:round;stroke-linejoin:round;stroke-miterlimit:4;stroke-opacity:1;display:inline" />
          <path
             sodipodi:nodetypes="sssssssss"
             inkscape:connector-curvature="0"
             id="path4210"
             d="m 366.82787,489.99913 c 0.65516,0.36164 1.31032,0.36164 1.96548,0 0.24689,-0.13628 0.50903,0.22703 0.50903,0.50903 l 0,4.22573 c 0,0.282 -0.23175,0.45764 -0.50903,0.50903 -0.62614,0.11606 -1.22493,0.34154 -1.96548,0 -0.25608,-0.1181 -0.50903,-0.22703 -0.50903,-0.50903 l 0,-4.22573 c 0,-0.282 0.26215,-0.64531 0.50903,-0.50903 z"
             style="fill:#694020;stroke:#1b2a34;stroke-width:0.375;stroke-miterlimit:4;display:inline" />
        </g>
      </g>
    </g>
  </g>
</svg>
