<?xml version="1.0" encoding="UTF-8" standalone="no"?>
<!-- Created with Inkscape (http://www.inkscape.org/) -->

<svg
   xmlns:dc="http://purl.org/dc/elements/1.1/"
   xmlns:cc="http://creativecommons.org/ns#"
   xmlns:rdf="http://www.w3.org/1999/02/22-rdf-syntax-ns#"
   xmlns:svg="http://www.w3.org/2000/svg"
   xmlns="http://www.w3.org/2000/svg"
   xmlns:xlink="http://www.w3.org/1999/xlink"
   xmlns:sodipodi="http://sodipodi.sourceforge.net/DTD/sodipodi-0.dtd"
   xmlns:inkscape="http://www.inkscape.org/namespaces/inkscape"
   width="52.375"
   height="43.213669"
   id="svg2"
   version="1.1"
   inkscape:version="0.48.2 r9819"
   sodipodi:docname="texan.bull.[3376].svg">
  <sodipodi:namedview
     id="base"
     pagecolor="#ffffff"
     bordercolor="#666666"
     borderopacity="1.0"
     inkscape:pageopacity="0.0"
     inkscape:pageshadow="2"
     inkscape:zoom="8.33"
     inkscape:cx="29.696732"
     inkscape:cy="1.3317952"
     inkscape:document-units="px"
     inkscape:current-layer="layer1"
     showgrid="false"
     fit-margin-top="0"
     fit-margin-left="0"
     fit-margin-right="0"
     fit-margin-bottom="0"
     inkscape:window-width="1280"
     inkscape:window-height="968"
     inkscape:window-x="-4"
     inkscape:window-y="-4"
     inkscape:window-maximized="1"
     showguides="true"
     inkscape:guide-bbox="true"
     inkscape:snap-global="false">
    <sodipodi:guide
       id="guide3274"
       position="11.28133,21.517799"
       orientation="0,1" />
    <sodipodi:guide
       id="guide3960"
       position="26.13159,26.634501"
       orientation="1,0" />
  </sodipodi:namedview>
  <defs
     id="defs4">
    <linearGradient
       id="linearGradient4011"
       inkscape:collect="always">
      <stop
         id="stop4013"
         offset="0"
         style="stop-color:#ffffff;stop-opacity:1;" />
      <stop
         id="stop4015"
         offset="1"
         style="stop-color:#ffffff;stop-opacity:0;" />
    </linearGradient>
    <linearGradient
       id="linearGradient3997"
       inkscape:collect="always">
      <stop
         id="stop3999"
         offset="0"
         style="stop-color:#ffffff;stop-opacity:1;" />
      <stop
         id="stop4001"
         offset="1"
         style="stop-color:#ffffff;stop-opacity:0;" />
    </linearGradient>
    <inkscape:path-effect
       fuse_tolerance="0"
       vertical_pattern="false"
       prop_units="false"
       tang_offset="0"
       normal_offset="0"
       spacing="0"
       scale_y_rel="false"
       prop_scale="1"
       copytype="single_stretched"
       pattern="M 0,5 C 0,2.24 2.24,0 5,0 7.76,0 10,2.24 10,5 10,7.76 7.76,10 5,10 2.24,10 0,7.76 0,5 z"
       is_visible="true"
       id="path-effect4237"
       effect="skeletal" />
    <clipPath
       clipPathUnits="userSpaceOnUse"
       id="clipPath2999">
      <path
         inkscape:connector-curvature="0"
         d="M 0,792 612,792 612,0 0,0 0,792 z"
         id="path3001" />
    </clipPath>
    <radialGradient
       inkscape:collect="always"
       xlink:href="#linearGradient3966"
       id="radialGradient3972"
       cx="96.306435"
       cy="46.658409"
       fx="96.306435"
       fy="46.658409"
       r="12.650181"
       gradientTransform="matrix(0.75988491,-0.03632001,0.13155835,2.7524547,16.986326,-78.268899)"
       gradientUnits="userSpaceOnUse" />
    <clipPath
       id="clipPath2999-4"
       clipPathUnits="userSpaceOnUse">
      <path
         id="path3001-0"
         d="M 0,792 612,792 612,0 0,0 0,792 z"
         inkscape:connector-curvature="0" />
    </clipPath>
    <linearGradient
       id="linearGradient3966">
      <stop
         style="stop-color:#c0ac02;stop-opacity:1;"
         offset="0"
         id="stop3968" />
      <stop
         style="stop-color:#fdea41;stop-opacity:0;"
         offset="1"
         id="stop3970" />
    </linearGradient>
    <radialGradient
       gradientUnits="userSpaceOnUse"
       gradientTransform="matrix(0.64374811,-0.18781617,0.31213841,1.069868,43.640483,27.15595)"
       r="3.8123069"
       fy="47.693741"
       fx="165.81134"
       cy="47.693741"
       cx="165.81134"
       id="radialGradient4003"
       xlink:href="#linearGradient3997"
       inkscape:collect="always" />
    <radialGradient
       r="3.8123069"
       fy="47.693741"
       fx="165.81134"
       cy="47.693741"
       cx="165.81134"
       gradientTransform="matrix(-0.64374811,-0.18781617,-0.31213841,1.069868,293.73143,27.15595)"
       gradientUnits="userSpaceOnUse"
       id="radialGradient4007"
       xlink:href="#linearGradient3997"
       inkscape:collect="always" />
    <radialGradient
       gradientUnits="userSpaceOnUse"
       gradientTransform="matrix(0.31036379,-0.01814613,0.03701409,0.63307367,114.75293,21.468668)"
       r="6.982676"
       fy="41.784931"
       fx="169.32254"
       cy="41.784931"
       cx="169.32254"
       id="radialGradient4017"
       xlink:href="#linearGradient4011"
       inkscape:collect="always" />
    <linearGradient
       id="linearGradient3966-2">
      <stop
         id="stop3968-4"
         offset="0"
         style="stop-color:#c0ac02;stop-opacity:1;" />
      <stop
         id="stop3970-5"
         offset="1"
         style="stop-color:#fdea41;stop-opacity:0;" />
    </linearGradient>
    <clipPath
       clipPathUnits="userSpaceOnUse"
       id="clipPath2999-4-8">
      <path
         inkscape:connector-curvature="0"
         d="M 0,792 612,792 612,0 0,0 0,792 z"
         id="path3001-0-8" />
    </clipPath>
    <radialGradient
       gradientUnits="userSpaceOnUse"
       gradientTransform="matrix(0.75988491,-0.03632001,0.13155835,2.7524547,16.986326,-78.268899)"
       r="12.650181"
       fy="46.658409"
       fx="96.306435"
       cy="46.658409"
       cx="96.306435"
       id="radialGradient3972-4"
       xlink:href="#linearGradient3966-2"
       inkscape:collect="always" />
    <clipPath
       id="clipPath2999-0"
       clipPathUnits="userSpaceOnUse">
      <path
         id="path3001-9"
         d="M 0,792 612,792 612,0 0,0 0,792 z"
         inkscape:connector-curvature="0" />
    </clipPath>
    <inkscape:path-effect
       effect="skeletal"
       id="path-effect4237-4"
       is_visible="true"
       pattern="M 0,5 C 0,2.24 2.24,0 5,0 7.76,0 10,2.24 10,5 10,7.76 7.76,10 5,10 2.24,10 0,7.76 0,5 z"
       copytype="single_stretched"
       prop_scale="1"
       scale_y_rel="false"
       spacing="0"
       normal_offset="0"
       tang_offset="0"
       prop_units="false"
       vertical_pattern="false"
       fuse_tolerance="0" />
    <inkscape:path-effect
       fuse_tolerance="0"
       vertical_pattern="false"
       prop_units="false"
       tang_offset="0"
       normal_offset="0"
       spacing="0"
       scale_y_rel="false"
       prop_scale="1"
       copytype="single_stretched"
       pattern="M 0,5 C 0,2.24 2.24,0 5,0 7.76,0 10,2.24 10,5 10,7.76 7.76,10 5,10 2.24,10 0,7.76 0,5 z"
       is_visible="true"
       id="path-effect4237-4-5"
       effect="skeletal" />
    <clipPath
       clipPathUnits="userSpaceOnUse"
       id="clipPath2999-0-6">
      <path
         inkscape:connector-curvature="0"
         d="M 0,792 612,792 612,0 0,0 0,792 z"
         id="path3001-9-8" />
    </clipPath>
    <radialGradient
       inkscape:collect="always"
       xlink:href="#linearGradient3966-2-4"
       id="radialGradient3972-4-1"
       cx="96.306435"
       cy="46.658409"
       fx="96.306435"
       fy="46.658409"
       r="12.650181"
       gradientTransform="matrix(0.75988491,-0.03632001,0.13155835,2.7524547,16.986326,-78.268899)"
       gradientUnits="userSpaceOnUse" />
    <clipPath
       id="clipPath2999-4-8-2"
       clipPathUnits="userSpaceOnUse">
      <path
         id="path3001-0-8-2"
         d="M 0,792 612,792 612,0 0,0 0,792 z"
         inkscape:connector-curvature="0" />
    </clipPath>
    <linearGradient
       id="linearGradient3966-2-4">
      <stop
         style="stop-color:#c0ac02;stop-opacity:1;"
         offset="0"
         id="stop3968-4-2" />
      <stop
         style="stop-color:#fdea41;stop-opacity:0;"
         offset="1"
         id="stop3970-5-3" />
    </linearGradient>
    <radialGradient
       inkscape:collect="always"
       xlink:href="#linearGradient4011-4"
       id="radialGradient4017-1"
       cx="169.32254"
       cy="41.784931"
       fx="169.32254"
       fy="41.784931"
       r="6.982676"
       gradientTransform="matrix(0.31036379,-0.01814613,0.03701409,0.63307367,114.75293,21.468668)"
       gradientUnits="userSpaceOnUse" />
    <radialGradient
       inkscape:collect="always"
       xlink:href="#linearGradient3997-4"
       id="radialGradient4007-6"
       gradientUnits="userSpaceOnUse"
       gradientTransform="matrix(-0.64374811,-0.18781617,-0.31213841,1.069868,293.73143,27.15595)"
       cx="165.81134"
       cy="47.693741"
       fx="165.81134"
       fy="47.693741"
       r="3.8123069" />
    <radialGradient
       inkscape:collect="always"
       xlink:href="#linearGradient3997-4"
       id="radialGradient4003-7"
       cx="165.81134"
       cy="47.693741"
       fx="165.81134"
       fy="47.693741"
       r="3.8123069"
       gradientTransform="matrix(0.64374811,-0.18781617,0.31213841,1.069868,43.640483,27.15595)"
       gradientUnits="userSpaceOnUse" />
    <linearGradient
       id="linearGradient3966-1">
      <stop
         id="stop3968-5"
         offset="0"
         style="stop-color:#c0ac02;stop-opacity:1;" />
      <stop
         id="stop3970-2"
         offset="1"
         style="stop-color:#fdea41;stop-opacity:0;" />
    </linearGradient>
    <clipPath
       clipPathUnits="userSpaceOnUse"
       id="clipPath2999-4-7">
      <path
         inkscape:connector-curvature="0"
         d="M 0,792 612,792 612,0 0,0 0,792 z"
         id="path3001-0-1" />
    </clipPath>
    <radialGradient
       gradientUnits="userSpaceOnUse"
       gradientTransform="matrix(0.75988491,-0.03632001,0.13155835,2.7524547,16.986326,-78.268899)"
       r="12.650181"
       fy="46.658409"
       fx="96.306435"
       cy="46.658409"
       cx="96.306435"
       id="radialGradient3972-1"
       xlink:href="#linearGradient3966-1"
       inkscape:collect="always" />
    <clipPath
       id="clipPath2999-45"
       clipPathUnits="userSpaceOnUse">
      <path
         id="path3001-5"
         d="M 0,792 612,792 612,0 0,0 0,792 z"
         inkscape:connector-curvature="0" />
    </clipPath>
    <inkscape:path-effect
       effect="skeletal"
       id="path-effect4237-2"
       is_visible="true"
       pattern="M 0,5 C 0,2.24 2.24,0 5,0 7.76,0 10,2.24 10,5 10,7.76 7.76,10 5,10 2.24,10 0,7.76 0,5 z"
       copytype="single_stretched"
       prop_scale="1"
       scale_y_rel="false"
       spacing="0"
       normal_offset="0"
       tang_offset="0"
       prop_units="false"
       vertical_pattern="false"
       fuse_tolerance="0" />
    <linearGradient
       inkscape:collect="always"
       id="linearGradient3997-4">
      <stop
         style="stop-color:#ffffff;stop-opacity:1;"
         offset="0"
         id="stop3999-8" />
      <stop
         style="stop-color:#ffffff;stop-opacity:0;"
         offset="1"
         id="stop4001-8" />
    </linearGradient>
    <linearGradient
       inkscape:collect="always"
       id="linearGradient4011-4">
      <stop
         style="stop-color:#ffffff;stop-opacity:1;"
         offset="0"
         id="stop4013-0" />
      <stop
         style="stop-color:#ffffff;stop-opacity:0;"
         offset="1"
         id="stop4015-9" />
    </linearGradient>
  </defs>
  <metadata
     id="metadata7">
    <rdf:RDF>
      <cc:Work
         rdf:about="">
        <dc:format>image/svg+xml</dc:format>
        <dc:type
           rdf:resource="http://purl.org/dc/dcmitype/StillImage" />
        <dc:title />
      </cc:Work>
    </rdf:RDF>
  </metadata>
  <g
     style="display:inline"
     transform="translate(-360.9375,-409.84883)"
     id="layer1"
     inkscape:groupmode="layer"
     inkscape:label="template">
    <path
       style="fill:#1b2a34;fill-opacity:1;stroke:none;stroke-width:0.50000000000000000;stroke-linecap:round;stroke-linejoin:round;stroke-miterlimit:4;stroke-opacity:1;stroke-dasharray:none"
       d="M 1.4375 36.25 C 1.0710483 38.293767 0.67047738 40.374961 0.25 42.65625 C 0.48745694 42.855229 0.78954874 42.96875 1.125 42.96875 L 51.34375 42.96875 C 51.642424 42.96875 51.900526 42.879976 52.125 42.71875 C 51.700135 40.413605 51.307294 38.313056 50.9375 36.25 L 1.4375 36.25 z "
       transform="translate(360.9375,409.84883)"
       id="rect7385" />
    <path
       transform="translate(360.9375,409.61055)"
       d="m 37.013503,37.296272 c 0,2.961018 -4.569612,5.361398 -10.206513,5.361398 -5.636902,0 -10.206514,-2.40038 -10.206514,-5.361398 0,-2.961018 4.569612,-5.361397 10.206514,-5.361397 5.636901,0 10.206513,2.400379 10.206513,5.361397 z"
       sodipodi:ry="5.3613977"
       sodipodi:rx="10.206513"
       sodipodi:cy="37.296272"
       sodipodi:cx="26.80699"
       id="path3929"
       style="fill:#a3a2a4;stroke:#1b2a34;stroke-width:0.50000000000000000;stroke-linecap:round;stroke-linejoin:round;stroke-miterlimit:4;stroke-opacity:1;stroke-dasharray:none"
       sodipodi:type="arc" />
    <path
       id="path3093"
       style="fill:none;stroke:#231f20;stroke-width:0.3125;stroke-linecap:butt;stroke-linejoin:miter;stroke-miterlimit:4;stroke-opacity:1;stroke-dasharray:none"
       d="m 361.13813,452.9203 c 8.7325,-47.29375 5.3425,-42.67875 14.2675,-42.85625 l 23.44,0 c 8.92625,0.1775 5.535,-4.4375 14.265,42.85625 l -51.9725,0 z"
       inkscape:connector-curvature="0" />
    <path
       inkscape:connector-curvature="0"
       d="m 361.13813,452.9203 c 8.7325,-47.29375 5.3425,-42.67875 14.2675,-42.85625 l 23.44,0 c 8.92625,0.1775 5.535,-4.4375 14.265,42.85625 l -51.9725,0 z"
       style="fill:none;stroke:#231f20;stroke-width:0.3125;stroke-linecap:butt;stroke-linejoin:miter;stroke-miterlimit:4;stroke-opacity:1;stroke-dasharray:none"
       id="path4124" />
    <g
       style="stroke:#1b2a34"
       id="g3923">
      <path
         style="fill:none;stroke:#1b2a34;stroke-width:0.375;stroke-linecap:butt;stroke-linejoin:miter;stroke-miterlimit:4;stroke-opacity:1;stroke-dasharray:none"
         d="m 26.930437,35.275713 c -2.681376,0 -2.727431,0.661299 -3.207809,1.003649 -2.356455,0.212209 -2.837657,-1.718728 -3.558394,-3.375912 0.291575,2.792432 0.6815,5.470123 3.832116,4.927007 -0.178498,0.627317 -0.0284,1.320355 1.00365,2.189781 -0.717441,1.74166 0.622336,1.825714 1.913526,1.824818"
         id="path3917"
         inkscape:connector-curvature="0"
         transform="translate(360.9375,409.84883)"
         sodipodi:nodetypes="cccccc" />
      <path
         style="fill:none;stroke:#1b2a34;stroke-width:0.37500000000000000;stroke-linecap:round;stroke-linejoin:miter;stroke-miterlimit:4;stroke-opacity:1;stroke-dasharray:none"
         d="m 25.031928,38.190255 c 0.601319,0.247151 0.782932,0.774105 1.064283,1.234568"
         id="path3919"
         inkscape:connector-curvature="0"
         transform="translate(360.9375,409.84883)"
         sodipodi:nodetypes="cc" />
    </g>
    <path
       sodipodi:nodetypes="csc"
       transform="translate(360.9375,409.84883)"
       inkscape:connector-curvature="0"
       id="path3921"
       d="m 26.011069,41.127675 c 0.008,-0.358391 0.216752,-0.51581 0.772218,-0.484618 0.480496,0.02698 0.790708,0.173696 0.80292,0.442048"
       style="fill:none;stroke:#1b2a34;stroke-width:0.50000000000000000;stroke-linecap:round;stroke-linejoin:miter;stroke-miterlimit:4;stroke-opacity:1;stroke-dasharray:none" />
    <use
       height="43.213669"
       width="52.375"
       transform="matrix(-1,0,0,1,775.41393,0)"
       id="use3927"
       xlink:href="#g3923"
       y="0"
       x="0" />
    <path
       transform="translate(372.64711,402.83737)"
       d="m 22.953217,45.869614 a 0.17056531,0.12183236 0 1 1 -0.34113,0 0.17056531,0.12183236 0 1 1 0.34113,0 z"
       sodipodi:ry="0.12183236"
       sodipodi:rx="0.17056531"
       sodipodi:cy="45.869614"
       sodipodi:cx="22.782652"
       id="path3934"
       style="fill:none;stroke:#1b2a34;stroke-width:0.5;stroke-linecap:round;stroke-linejoin:round;stroke-miterlimit:4;stroke-opacity:1;stroke-dasharray:none"
       sodipodi:type="arc" />
    <path
       d="m 393.68665,450.01723 c -0.0171,-0.0401 -0.003,-0.0898 0.0372,-0.13053 0.0401,-0.0407 0.0907,-0.0641 0.14764,-0.0688 0.0569,-0.005 0.10422,0.0163 0.124,0.0552 0.02,0.0387 0.009,0.0894 -0.0276,0.1329 -0.037,0.0435 -0.1045,0.0748 -0.16164,0.0753 -0.0571,5.1e-4 -0.10276,-0.0239 -0.11965,-0.0641 l 0,0 m -1.73846,0.59937 c -0.012,-0.0419 0.008,-0.0895 0.0532,-0.1249 0.0449,-0.0354 0.10751,-0.0531 0.16427,-0.0465 0.0568,0.007 0.099,0.0365 0.11075,0.0785 0.012,0.0419 -0.008,0.0895 -0.0532,0.1249 -0.0449,0.0354 -0.10751,0.0531 -0.16427,0.0465 -0.0568,-0.007 -0.099,-0.0365 -0.11075,-0.0785 l 0,0 m -1.80615,0.35045 c -0.005,-0.0432 0.0222,-0.0871 0.072,-0.11507 0.0498,-0.028 0.10798,-0.0364 0.16371,-0.0238 0.0557,0.0126 0.0945,0.0469 0.10174,0.0899 0.007,0.0429 -0.0178,0.0881 -0.0662,0.11851 -0.0484,0.0304 -0.11907,0.0407 -0.1741,0.0253 -0.055,-0.0154 -0.0921,-0.0515 -0.0971,-0.0948 l 0,0 m -5.50025,-0.11181 c 0.007,-0.043 0.046,-0.0772 0.10174,-0.0899 0.0557,-0.0126 0.11991,-0.002 0.1683,0.0287 0.0484,0.0304 0.0736,0.0756 0.0662,0.11851 -0.007,0.043 -0.046,0.0772 -0.10174,0.0899 -0.0557,0.0126 -0.11991,0.002 -0.1683,-0.0287 -0.0484,-0.0304 -0.0736,-0.0756 -0.0662,-0.11851 l 0,0 m -1.78684,-0.43718 c 0.0142,-0.0412 0.0528,-0.068 0.10951,-0.0746 0.0568,-0.007 0.1194,0.0111 0.16427,0.0465 0.0449,0.0354 0.0652,0.083 0.0532,0.1249 -0.0118,0.042 -0.054,0.0719 -0.11075,0.0785 -0.0568,0.007 -0.1194,-0.0111 -0.16427,-0.0465 -0.0449,-0.0354 -0.0664,-0.0877 -0.0519,-0.1288 l 0,0 m -1.69332,-0.71528 c 0.0198,-0.0388 0.0671,-0.0599 0.124,-0.0552 0.057,0.005 0.11487,0.0344 0.1519,0.0779 0.037,0.0435 0.0476,0.0942 0.0276,0.1329 -0.0198,0.0388 -0.0671,0.0598 -0.12401,0.0552 -0.0569,-0.005 -0.11486,-0.0344 -0.1519,-0.0779 -0.037,-0.0435 -0.0475,-0.0942 -0.0275,-0.1329 l 0,0 m -1.44196,-1.12571 c 0.0342,-0.027 0.0859,-0.0263 0.13562,0.002 0.0497,0.028 0.0868,0.0587 0.10955,0.11108 0.0228,0.0524 0.0181,0.1039 -0.0123,0.13512 -0.0302,0.0314 -0.0815,0.0378 -0.13464,0.0167 -0.0531,-0.021 -0.11331,-0.0775 -0.12876,-0.13247 -0.0154,-0.055 -0.004,-0.10536 0.0305,-0.13216 l 0,0 m -0.59202,-1.68564 c 0.043,0.007 0.0812,0.0368 0.10014,0.0907 0.0189,0.0539 0.0142,0.10507 -0.005,0.15897 -0.0189,0.0539 -0.0574,0.0885 -0.10089,0.0907 -0.0435,0.002 -0.0855,-0.0278 -0.11011,-0.0793 -0.0246,-0.0515 -0.0199,-0.13033 0.005,-0.18187 0.0246,-0.0515 0.0679,-0.0863 0.11086,-0.0792 l 0,0 m 0.8879,-1.56668 c 0.0304,0.0312 0.0351,0.0827 0.0123,0.13511 -0.0228,0.0524 -0.0695,0.0976 -0.12263,0.11866 -0.0531,0.021 -0.0973,0.0132 -0.13142,-0.0138 -0.0343,-0.0268 -0.0383,-0.0856 -0.0155,-0.13801 0.0228,-0.0524 0.0695,-0.0976 0.12264,-0.11866 0.0531,-0.021 0.10443,-0.0147 0.13463,0.0167 l 0,0 m 1.52755,-1.0125 c 0.02,0.0387 0.009,0.0894 -0.0276,0.1329 -0.037,0.0435 -0.095,0.0732 -0.1519,0.0779 -0.0569,0.005 -0.10423,-0.0163 -0.12401,-0.0552 -0.02,-0.0387 -0.009,-0.0894 0.0276,-0.1329 0.037,-0.0435 0.095,-0.0732 0.1519,-0.0779 0.0569,-0.005 0.10422,0.0163 0.124,0.0552 l 0,0 m 1.72316,-0.64035 c 0.012,0.0419 -0.008,0.0895 -0.0532,0.1249 -0.0449,0.0354 -0.10751,0.0531 -0.16427,0.0465 -0.0567,-0.007 -0.099,-0.0365 -0.11075,-0.0785 -0.012,-0.0419 0.008,-0.0895 0.0532,-0.1249 0.0449,-0.0354 0.10751,-0.0531 0.16427,-0.0465 0.0568,0.007 0.099,0.0365 0.11075,0.0785 l 0,0 m 1.7982,-0.38857 c 0.007,0.0429 -0.0178,0.0881 -0.0662,0.11851 -0.0484,0.0304 -0.11257,0.0413 -0.1683,0.0287 -0.0557,-0.0126 -0.0945,-0.0469 -0.10174,-0.0899 -0.007,-0.0429 0.0178,-0.0881 0.0662,-0.11851 0.0484,-0.0304 0.11257,-0.0413 0.1683,-0.0287 0.0557,0.0126 0.0945,0.0469 0.10174,0.0899 l 0,0 m 1.83145,-0.18031 c 10e-4,0.0436 -0.0264,0.0844 -0.0775,0.10987 -0.0511,0.0255 -0.11607,0.0301 -0.1703,0.0121 -0.0542,-0.018 -0.0895,-0.0559 -0.0925,-0.0994 -0.003,-0.0435 0.0263,-0.086 0.0775,-0.11147 0.0511,-0.0255 0.11607,-0.0301 0.1703,-0.0121 0.0542,0.018 0.0916,0.0574 0.0925,0.10098 l 0,0 m 1.84043,0.009 c -0.003,0.0435 -0.0382,0.0814 -0.0925,0.0994 -0.0542,0.018 -0.11333,0.0181 -0.16562,-0.005 -0.0523,-0.0231 -0.0838,-0.0641 -0.0827,-0.10767 9.1e-4,-0.0436 0.0343,-0.0831 0.0876,-0.10366 0.0533,-0.0206 0.12451,-0.0201 0.17564,0.005 0.0511,0.0255 0.0807,0.068 0.0775,0.11148 l 0,0 m 1.82968,0.19584 c -0.007,0.043 -0.046,0.0772 -0.10174,0.0899 -0.0557,0.0126 -0.1199,0.002 -0.1683,-0.0287 -0.0484,-0.0304 -0.0721,-0.0712 -0.0668,-0.11448 0.005,-0.0433 0.0466,-0.0813 0.10233,-0.0939 0.0557,-0.0126 0.11991,-0.002 0.1683,0.0287 0.0484,0.0304 0.0736,0.0756 0.0662,0.11851 l 0,0 m 1.79482,0.40351 c -0.0118,0.042 -0.054,0.0719 -0.11075,0.0785 -0.0568,0.007 -0.1194,-0.0111 -0.16427,-0.0465 -0.0449,-0.0354 -0.0651,-0.083 -0.0532,-0.1249 0.0118,-0.042 0.054,-0.0719 0.11075,-0.0785 0.0568,-0.007 0.1194,0.0111 0.16427,0.0465 0.0449,0.0354 0.0651,0.083 0.0532,0.1249 l 0,0 m 1.71277,0.66671 c -0.0198,0.0388 -0.0671,0.0599 -0.12401,0.0552 -0.0569,-0.005 -0.10479,-0.0339 -0.14491,-0.0746 -0.0401,-0.0407 -0.0543,-0.0905 -0.0372,-0.13054 0.0169,-0.0402 0.0625,-0.0646 0.11965,-0.0641 0.0571,5.1e-4 0.12188,0.0376 0.15891,0.0811 0.037,0.0435 0.0476,0.0942 0.0276,0.1329 l 0,0 m 1.50298,1.04671 c -0.0302,0.0314 -0.0815,0.0378 -0.13464,0.0167 -0.0531,-0.021 -0.0999,-0.0663 -0.12263,-0.11866 -0.0228,-0.0524 -0.0144,-0.10053 0.0122,-0.13502 0.0264,-0.0346 0.0816,-0.0378 0.13472,-0.0168 0.0531,0.021 0.0999,0.0663 0.12263,0.11866 0.0228,0.0524 0.0181,0.10389 -0.0123,0.13511 l 0,0 m 0.79346,1.61006 c -0.0435,0.002 -0.0855,-0.0278 -0.11011,-0.0793 -0.0246,-0.0515 -0.0338,-0.10213 -0.0208,-0.15775 0.013,-0.0556 0.0476,-0.0942 0.0906,-0.10105 0.043,-0.007 0.088,0.0184 0.11798,0.067 0.03,0.0486 0.0421,0.12642 0.0232,0.18032 -0.0189,0.0539 -0.0574,0.0885 -0.10088,0.0907 l 0,0"
       id="path4401"
       style="fill:none;stroke:#1b2a34;stroke-width:0.5;stroke-linecap:round;stroke-linejoin:round;stroke-miterlimit:4;stroke-opacity:1;stroke-dasharray:none"
       inkscape:connector-curvature="0"
       sodipodi:nodetypes="csscsscccsscsscccsscsscccsscsscccsscsscccsscsscccsscsscccsscsscccsscsscccsscsscccsscsscccsscsscccsscsscccsscsscccsscsscccsscsscccsscsscccsscsscccsscsscc" />
  </g>
</svg>
