<?xml version="1.0" encoding="UTF-8" standalone="no"?>
<!-- Generator: Adobe Illustrator 15.1.0, SVG Export Plug-In . SVG Version: 6.00 Build 0)  -->

<svg
   xmlns:dc="http://purl.org/dc/elements/1.1/"
   xmlns:cc="http://creativecommons.org/ns#"
   xmlns:rdf="http://www.w3.org/1999/02/22-rdf-syntax-ns#"
   xmlns:svg="http://www.w3.org/2000/svg"
   xmlns="http://www.w3.org/2000/svg"
   xmlns:xlink="http://www.w3.org/1999/xlink"
   xmlns:sodipodi="http://sodipodi.sourceforge.net/DTD/sodipodi-0.dtd"
   xmlns:inkscape="http://www.inkscape.org/namespaces/inkscape"
   version="1.1"
   x="0px"
   y="0px"
   width="53.857px"
   height="45.354px"
   viewBox="0 0.233 53.857 45.354"
   enable-background="new 0 0.233 53.857 45.354"
   xml:space="preserve"
   id="svg2"
   inkscape:version="0.48.1 "
   sodipodi:docname="amalgam-captain-marvel.svg"
   inkscape:export-filename="D:\Bricks\Decals\designs\superheroes\amalgam captain marvel\amalgam-captain-marvel.png"
   inkscape:export-xdpi="600"
   inkscape:export-ydpi="600"><metadata
   id="metadata33"><rdf:RDF><cc:Work
       rdf:about=""><dc:format>image/svg+xml</dc:format><dc:type
         rdf:resource="http://purl.org/dc/dcmitype/StillImage" /><dc:title></dc:title></cc:Work></rdf:RDF></metadata><defs
   id="defs31" /><sodipodi:namedview
   pagecolor="#ffffff"
   bordercolor="#666666"
   borderopacity="1"
   objecttolerance="10"
   gridtolerance="10"
   guidetolerance="10"
   inkscape:pageopacity="0"
   inkscape:pageshadow="2"
   inkscape:window-width="1366"
   inkscape:window-height="716"
   id="namedview29"
   showgrid="false"
   inkscape:zoom="6.416"
   inkscape:cx="26.93"
   inkscape:cy="21.35"
   inkscape:window-x="-8"
   inkscape:window-y="-8"
   inkscape:window-maximized="1"
   inkscape:current-layer="svg2" />
<g
   id="base">
	<path
   id="torso_1_"
   connector-curvature="0"
   fill="#EFF0ED"
   stroke="#231F20"
   stroke-width="0.3125"
   d="M0.942,44.551   C9.675-2.741,6.284,1.873,15.21,1.696h23.439c8.927,0.177,5.535-4.438,14.266,42.855H0.942z" />
</g>
<g
   id="design">
	<defs
   id="defs7">
		<path
   id="clipping_mask_2_"
   d="M1.35,44.025C3.293,33.487,4.645,25.46,5.635,19.58C8.405,3.139,8.631,1.795,11.978,1.795    c0.332,0,0.691,0.013,1.085,0.025c0.48,0.016,1.01,0.033,1.597,0.033c0.181,0,0.365-0.002,0.557-0.006H38.65    c0.184,0.004,0.37,0.006,0.55,0.006c0.587,0,1.116-0.018,1.597-0.033c0.394-0.013,0.753-0.025,1.085-0.025    c3.348,0,3.574,1.343,6.34,17.771c0.99,5.884,2.342,13.913,4.285,24.458H1.35z" />
	</defs>
	<clipPath
   id="clipping_mask_1_">
		<use
   xlink:href="#clipping_mask_2_"
   overflow="visible"
   id="use11" />
	</clipPath>
	<path
   clip-path="url(#clipping_mask_1_)"
   fill="#00AC4E"
   stroke="#001423"
   stroke-width="0.4252"
   d="M39.342,0.233H26.929h-0.167   H14.35c0,0-0.162,5.048,0.833,5.478c8.623,3.728,11.663,4.393,11.663,4.393s3.039-0.665,11.663-4.393   C39.504,5.28,39.342,0.233,39.342,0.233z"
   id="path13" />
	<g
   opacity="0.2"
   clip-path="url(#clipping_mask_1_)"
   id="g15">
		<g
   id="g17">
			<path
   fill="#001423"
   d="M39.502,5.555c0.069,0.241,1.086-0.33,3.15-0.031c1.917,0.278,2.526,0.83,2.629,0.699     c0.155-0.201,0.119-0.939-0.016-1.017c-0.174-0.102-2.008-0.409-2.686-0.378C41.791,4.865,39.414,5.25,39.502,5.555z"
   id="path19" />
			<path
   fill="#001423"
   d="M14.356,5.555c-0.069,0.241-1.086-0.33-3.15-0.031c-1.917,0.278-2.527,0.83-2.629,0.699     C8.421,6.022,8.458,5.284,8.591,5.207c0.174-0.102,2.009-0.409,2.686-0.378C12.067,4.865,14.443,5.25,14.356,5.555z"
   id="path21" />
		</g>
		<path
   fill="#001423"
   d="M15.929,3.727c3.214,0.41,8.146,1.707,9.271,2.814c0.037,0.037,1.031-0.11,1.593-0.123v0.036h0.043    c0.051-0.002,0.1-0.012,0.15-0.012c0.543,0,1.633,0.164,1.672,0.125c1.123-1.107,6.057-2.405,9.271-2.814    c5.844-0.744,6.468,0.592,6.659,0.125c0.147-0.36-1.45-1.177-6.071-1.033c-0.302,0.01-1.495,0.359-1.659,0.305    c-0.352-0.118-0.889-0.665-1.026-0.557c-0.229,0.18,0.028,0.494-0.083,0.766c-0.084,0.21-0.334,0.293-0.574,0.231    c-0.364-0.094-1.049-0.896-1.24-0.855c-0.234,0.051-0.443,0.907-0.692,1.124c-0.35,0.306-1.291,0.35-1.854,0.133    c-0.232-0.089-0.299,0.046-0.156-0.489c0.141-0.535,0.581-1.119,0.309-1.272c-0.077-0.044-1.748,0.066-1.767,0.387    c-0.014,0.248,0.477,0.125,0.56,0.348c0.141,0.379-0.24,1.044-0.487,1.289c-0.381,0.377-1.741,1.167-1.79,1.176    c-0.369,0.075-0.779,0.112-0.989,0.127V5.531c-0.08,0.005-0.13,0.008-0.13,0.008s-0.61-0.031-1.132-0.137    c-0.049-0.009-1.409-0.799-1.79-1.176c-0.247-0.244-0.629-0.909-0.487-1.289c0.083-0.223,0.573-0.1,0.56-0.348    c-0.019-0.321-1.689-0.431-1.767-0.387c-0.272,0.153,0.167,0.737,0.309,1.272c0.142,0.536,0.076,0.4-0.156,0.489    c-0.563,0.217-1.505,0.173-1.854-0.133c-0.25-0.216-0.458-1.073-0.692-1.124c-0.192-0.042-0.876,0.761-1.24,0.855    c-0.241,0.062-0.49-0.021-0.575-0.231c-0.11-0.271,0.147-0.585-0.082-0.766c-0.139-0.108-0.675,0.439-1.026,0.557    c-0.164,0.054-1.358-0.295-1.659-0.305C10.72,2.674,9.123,3.491,9.27,3.851C9.461,4.319,10.085,2.983,15.929,3.727z"
   id="path23" />
		<path
   fill="#001423"
   d="M47.999,15.428c-1.19,2.065-4.269,3.02-6.484,3.564c-2.415,0.594-4.831,0.745-7.308,0.815    c-1.137,0.032-3.854-0.573-4.656,0.205c3.18,1.439,6.4,1.124,9.877,0.922c1.026-0.06,2.243-0.202,3.21,0.231    c1.181,0.53-0.021,2.851-0.785,3.333c-2.509,1.587-6.005,0.318-8.576-0.513c-1.257-0.406-2.011-0.332-3.326-0.333    c-1.573,0-1.813-0.657-3.017-1.105c-0.002,0.065-0.003,0.131-0.004,0.196c-0.003-0.074-0.003-0.149-0.005-0.223    c-1.204,0.449-1.443,1.105-3.017,1.105c-1.316,0.001-2.069-0.073-3.326,0.333c-2.571,0.831-6.068,2.1-8.577,0.513    c-0.763-0.482-1.966-2.804-0.784-3.333c0.967-0.434,2.184-0.291,3.209-0.231c3.478,0.202,6.698,0.517,9.877-0.922    c-0.801-0.778-3.519-0.173-4.655-0.205c-2.477-0.07-4.894-0.221-7.308-0.815c-2.216-0.545-5.295-1.5-6.485-3.564    c-1.268,3.229-2.173,6.643-3.247,9.942c1.61-0.913,5.089-3.084,6.92-1.887c2.327,1.522,3.413,4.299,5.208,6.291    c0.719,0.797,0.688,2.135,0.481,3.134c-0.346,1.671,1.112,2.675,1.1,4.236c-0.014,1.434-0.04,2.876,0.514,4.226    c0.147,0.36,2.571,3.008,2.835,1.717c0.014-0.065-1.331-0.604-1.441-0.7c-0.588-0.517-0.655-1.687-0.689-2.398    c-0.098-2.085,2.76-1.279,2.852-2.078c-0.033,0.284-2.912-1.228-3.226-1.779c-0.481-0.848-1.2-3.026-0.321-3.899    c0.62-0.62,3.496-0.035,3.478-0.787c-1.249-0.135-4.248-0.728-4.089-2.346c0.359-3.647,5.691-5.51,8.671-3.859    c1.654,0.917,1.75,2.873,1.629,4.573c-0.093,1.317-3.521,2.012-3.539,1.95c0.116,0.384,2.253,1.02,2.673,1.255    c0.722,0.403,0.906,1.533,0.908,2.294c0.001,0.547,0.238,2.248-0.471,2.425c-1.094,0.274-2.361,0.187-3.478,0.135    c-0.016,0.024,3.299,1.093,3.753,1.306c0.94,1.052-0.236,2.842,0.547,3.824c0.002-0.066,0.002-0.135,0.004-0.201    c0.002,0.075,0.003,0.152,0.005,0.228c0.783-0.982-0.395-2.772,0.547-3.824c0.453-0.213,3.769-1.281,3.753-1.306    c-1.116,0.052-2.384,0.14-3.478-0.135c-0.709-0.177-0.472-1.878-0.471-2.425c0.002-0.761,0.186-1.891,0.908-2.294    c0.42-0.235,2.557-0.871,2.673-1.255c-0.019,0.062-3.446-0.633-3.54-1.95c-0.12-1.7-0.025-3.656,1.63-4.573    c2.979-1.65,8.312,0.212,8.671,3.859c0.158,1.618-2.84,2.211-4.089,2.346c-0.019,0.752,2.857,0.167,3.478,0.787    c0.879,0.873,0.16,3.052-0.322,3.899c-0.313,0.552-3.191,2.063-3.225,1.779c0.092,0.799,2.949-0.007,2.852,2.078    c-0.034,0.712-0.102,1.882-0.689,2.398c-0.11,0.096-1.455,0.635-1.441,0.7c0.264,1.291,2.688-1.356,2.835-1.717    c0.554-1.35,0.526-2.792,0.514-4.226c-0.013-1.562,1.445-2.565,1.1-4.236c-0.206-0.999-0.237-2.337,0.481-3.134    c1.795-1.992,2.881-4.769,5.207-6.291c1.831-1.198,5.311,0.974,6.92,1.887C50.173,22.072,49.266,18.657,47.999,15.428z"
   id="path25" />
	</g>
	<polygon
   clip-path="url(#clipping_mask_1_)"
   fill="#00AC4E"
   stroke="#001423"
   stroke-width="0.4252"
   points="34.793,12.911    25.037,12.911 21.332,20.129 24.698,20.129 21.679,26.096 24.047,26.096 22.381,35.743 31.542,26.134 29.671,26.134 33.442,19.934    30.596,19.934  "
   id="polygon27" />
</g>
</svg>