<?xml version="1.0" encoding="utf-8"?>
<!-- Generator: Adobe Illustrator 15.1.0, SVG Export Plug-In . SVG Version: 6.00 Build 0)  -->
<!DOCTYPE svg PUBLIC "-//W3C//DTD SVG 1.1//EN" "http://www.w3.org/Graphics/SVG/1.1/DTD/svg11.dtd">
<svg version="1.1" xmlns="http://www.w3.org/2000/svg" xmlns:xlink="http://www.w3.org/1999/xlink" x="0px" y="0px"
	 width="113.386px" height="142.062px" viewBox="0 0 113.386 142.062" enable-background="new 0 0 113.386 142.062"
	 xml:space="preserve">
<g id="base">
	<path id="torso" inkscape:connector-curvature="0" fill="#0B75BC" stroke="#0B75BC" stroke-width="0.3125" d="M30.707,69.842
		c8.732-47.294,5.343-42.679,14.268-42.856h23.44c8.926,0.177,5.535-4.438,14.265,42.856H30.707z"/>
</g>
<g id="design">
	<defs>
		<path id="SVGID_1_" d="M31.116,69.502c1.942-10.538,3.294-18.564,4.285-24.444c2.77-16.441,2.996-17.785,6.343-17.785
			c0.332,0,0.691,0.012,1.084,0.025c0.48,0.016,1.01,0.033,1.597,0.033c0.181,0,0.365-0.002,0.557-0.005h23.434
			c0.184,0.003,0.37,0.005,0.55,0.005c0.587,0,1.116-0.018,1.597-0.033c0.394-0.013,0.753-0.025,1.085-0.025
			c3.348,0,3.574,1.342,6.34,17.771c0.99,5.883,2.342,13.913,4.285,24.458H31.116z"/>
	</defs>
	<clipPath id="SVGID_2_">
		<use xlink:href="#SVGID_1_"  overflow="visible"/>
	</clipPath>
	<path id="abs" opacity="0.5" clip-path="url(#SVGID_2_)" fill="#091724" d="M67.974,55.839c-0.088-0.06-0.207-0.039-0.271,0.045
		c-0.244,0.328-0.716,0.495-1.158,0.639c-0.452,0.14-0.923,0.24-1.396,0.323c-0.949,0.163-1.914,0.259-2.879,0.313
		c-0.965,0.058-1.936,0.054-2.893-0.019c-0.479-0.014-0.954-0.128-1.411-0.276c-0.174-0.056-0.57-0.255-0.599-0.317
		c-0.205-0.319-0.286-0.638-0.257-0.957c-0.02-3.101-0.289-2.892,1.952-4.247c0.771-0.466,1.643-0.479,2.494-0.448
		c0.876,0,1.787,0.001,2.675,0.315c0.891,0.329,1.764,0.743,2.642,1.164c0.056,0.027,0.126,0.014,0.166-0.036
		c0.048-0.06,0.039-0.146-0.02-0.192c-0.767-0.62-1.794-1.357-2.487-1.621c-0.694-0.265-1.86-0.379-2.938-0.476
		c-1.108-0.064-3.049,0.416-3.049,0.416s-1.104,0.341-1.867,0.355c-0.762-0.015-1.867-0.355-1.867-0.355s-1.94-0.48-3.049-0.416
		c-1.077,0.097-2.242,0.211-2.938,0.476c-0.694,0.264-1.721,1.001-2.487,1.621c-0.059,0.047-0.067,0.133-0.02,0.192
		c0.04,0.05,0.11,0.063,0.166,0.036c0.878-0.421,1.751-0.835,2.642-1.164c0.888-0.314,1.799-0.315,2.675-0.315
		c0.852-0.031,1.723-0.018,2.494,0.448c2.242,1.355,1.971,1.146,1.952,4.247c0.03,0.319-0.051,0.638-0.256,0.957
		c-0.028,0.063-0.424,0.262-0.599,0.317c-0.457,0.148-0.933,0.263-1.411,0.276c-0.957,0.072-1.927,0.076-2.892,0.019
		c-0.965-0.054-1.93-0.149-2.879-0.313c-0.474-0.083-0.944-0.184-1.397-0.323c-0.442-0.144-0.914-0.311-1.158-0.639
		c-0.063-0.084-0.183-0.104-0.27-0.045c-0.089,0.063-0.112,0.185-0.05,0.274l0.003,0.005c0.334,0.485,0.853,0.672,1.305,0.877
		c0.47,0.191,0.949,0.339,1.431,0.468c0.965,0.255,1.942,0.442,2.926,0.587c0.984,0.142,1.972,0.257,2.974,0.346
		c0.501,0.022,1.177,0.043,1.526,0.204c0.249,0.114,0.672,0.552,0.727,0.817c0.051,0.319,0.083,0.638,0.125,0.957
		c0.068,0.638,0.061,1.276-0.052,1.914c-0.034,0.319-0.209,0.823-0.436,0.957c-0.875,0.516-4.059,0.368-4.059,0.368
		c-1.409-0.001-2.815-0.225-4.224-0.245c-0.001,0-0.004,0-0.006,0c-0.115,0.002-0.207,0.096-0.205,0.211
		c0.001,0.115,0.14,0.186,0.211,0.205c1.021,0.275,2.811,0.329,4.212,0.414c1.245,0.075,2.705,0.016,3.717,0.355
		c0.316,0.106,0.657,0.356,0.675,0.605c0.05,0.319,0.12,0.638,0.138,0.957c0.051,0.638,0.053,1.276-0.138,1.914
		c-0.028,0.095-0.03,0.197,0,0.299c0.066,0.224,0.275,0.358,0.496,0.362l0,0c0.001,0-0.001,0,0,0s-0.001,0,0,0l0,0
		c0.221-0.004,0.429-0.139,0.496-0.362c0.03-0.102,0.028-0.204,0-0.299c-0.191-0.638-0.189-1.276-0.139-1.914
		c0.018-0.319,0.088-0.638,0.139-0.957c0.018-0.249,0.359-0.499,0.675-0.605c1.013-0.34,2.473-0.28,3.717-0.355
		c1.402-0.085,3.19-0.139,4.212-0.414c0.071-0.02,0.21-0.09,0.211-0.205c0.002-0.115-0.09-0.209-0.205-0.211
		c-0.001,0-0.004,0-0.006,0c-1.407,0.021-2.814,0.244-4.224,0.245c0,0-3.183,0.147-4.059-0.368
		c-0.227-0.134-0.401-0.638-0.437-0.957c-0.113-0.638-0.12-1.276-0.052-1.914c0.041-0.319,0.073-0.638,0.124-0.957
		c0.055-0.266,0.479-0.703,0.727-0.817c0.35-0.161,1.025-0.182,1.527-0.204c1.001-0.089,1.989-0.204,2.974-0.346
		c0.984-0.145,1.961-0.332,2.926-0.587c0.481-0.129,0.961-0.276,1.431-0.468c0.452-0.205,0.971-0.392,1.305-0.877l0.003-0.005
		C68.086,56.023,68.063,55.901,67.974,55.839z"/>
	<path id="red_collar" clip-path="url(#SVGID_2_)" fill="#EC2127" stroke="#231F20" stroke-width="0.3125" d="M73.524,25.71H39.861
		c0,0-0.251,5.505,0.833,5.478c13.917-0.332,15.998,4.417,15.998,4.417s2.082-4.75,15.999-4.417
		C73.775,31.215,73.524,25.71,73.524,25.71z"/>
	<g id="chest_muscle" opacity="0.5" clip-path="url(#SVGID_2_)">
		<path fill="#091724" d="M45.688,29.086c3.214,0.409,8.147,1.849,9.271,2.957c0.502,0.494,1.266,1.661,1.203,2.054
			c-0.053,0.329,0.458,1.482,0.533,2.339l0,0c0.074-0.856,0.585-2.01,0.533-2.339c-0.063-0.394,0.701-1.56,1.202-2.054
			c1.124-1.108,6.056-2.548,9.27-2.957c5.845-0.744,6.471,0.593,6.66,0.124c0.147-0.359-1.45-1.177-6.072-1.034
			c-0.301,0.01-1.495,0.36-1.658,0.305c-0.351-0.118-0.887-0.665-1.026-0.557c-0.229,0.18,0.028,0.494-0.083,0.766
			c-0.085,0.21-0.334,0.293-0.574,0.231c-0.364-0.094-1.048-0.897-1.243-0.855c-0.232,0.051-0.441,0.907-0.689,1.124
			c-0.35,0.306-1.292,0.35-1.854,0.133c-0.233-0.089-0.298,0.047-0.157-0.489c0.142-0.536,0.583-1.119,0.311-1.273
			c-0.078-0.043-1.748,0.066-1.767,0.388c-0.015,0.247,0.475,0.124,0.558,0.348c0.143,0.38-0.24,1.044-0.485,1.289
			c-0.381,0.377-1.741,1.168-1.789,1.177c-0.524,0.106-1.133,0.137-1.133,0.137s-0.609-0.03-1.131-0.137
			c-0.049-0.009-1.409-0.8-1.79-1.177c-0.247-0.244-0.628-0.908-0.487-1.289c0.083-0.224,0.573-0.101,0.559-0.348
			c-0.019-0.321-1.689-0.431-1.767-0.388c-0.272,0.154,0.167,0.737,0.309,1.273c0.142,0.536,0.076,0.4-0.157,0.489
			c-0.563,0.217-1.505,0.173-1.854-0.133c-0.25-0.217-0.458-1.073-0.692-1.124c-0.192-0.042-0.876,0.761-1.24,0.855
			c-0.241,0.062-0.49-0.021-0.575-0.231c-0.11-0.272,0.147-0.586-0.083-0.766c-0.138-0.107-0.675,0.439-1.026,0.557
			c-0.164,0.055-1.358-0.295-1.659-0.305c-4.621-0.144-6.219,0.674-6.071,1.034C39.219,29.679,39.843,28.343,45.688,29.086z"/>
		<path fill="#091724" d="M76.83,44.864c-0.146-0.119-0.548,0.708-1.86,1.012c-0.76,0.175-1.218,0.275-1.316-0.039
			c-0.229-0.752,1.632-1.445,2.656-2.114c0.373-0.729,0.114-2.632,0.042-2.815c-1.14,1.977-3.621,2.955-3.734,3.05
			c-0.023,0.019-3.136,1.021-6.553,1.124c-2.217,0.067-4.095,0.156-5.211,0.025c-1.437-0.169-1.926-0.293-2.317-0.762
			c-0.222-0.266-0.238-0.446-0.083-0.866c0.022-0.059,0.092-0.117,0.077-0.193c-0.015-0.099-0.134-0.148-0.203-0.22
			c-0.336-0.348-0.693-0.661-0.773-0.964c-0.125-0.479-0.232-0.999-0.324-1.542c-0.06-0.353-0.489-1.682-0.537-2.592l0,0
			c-0.048,0.91-0.477,2.239-0.537,2.592c-0.092,0.543-0.199,1.063-0.324,1.542c-0.08,0.304-0.438,0.617-0.773,0.964
			c-0.069,0.071-0.188,0.121-0.204,0.22c-0.013,0.076,0.055,0.135,0.077,0.193c0.157,0.42,0.139,0.601-0.083,0.866
			c-0.39,0.467-0.88,0.593-2.317,0.762c-1.116,0.131-2.995,0.042-5.21-0.025c-3.417-0.104-6.529-1.105-6.553-1.124
			c-0.113-0.095-2.596-1.073-3.735-3.05c-0.072,0.184-0.331,2.087,0.042,2.815c1.024,0.669,2.887,1.362,2.655,2.114
			c-0.097,0.314-0.556,0.214-1.315,0.039c-1.313-0.304-1.716-1.132-1.859-1.012c-0.199,0.162,0.056,1.344,1.314,1.727
			c0.797,0.241,2.788,0.107,2.788,0.107c0.002-0.068,0.974,0.74,1.971,1.235c1.05,0.519,2.079,0.808,2.132,0.654
			c0.091-0.272-0.955-0.477-1.94-1.085c-1.049-0.647-1.367-1.115-1.363-1.167c0.009-0.181,2.889,0.019,6.099,0.105
			c2.196,0.06,3.917-0.009,5.218-0.343c1.475-0.378,2.407-1.05,2.876-1.401c0.032-0.025,0.31-0.198,0.566-0.044
			c0.239,0.145,0.475,0.616,0.475,0.616s0.236-0.472,0.475-0.616c0.258-0.154,0.535,0.02,0.57,0.045
			c0.467,0.351,1.399,1.022,2.873,1.4c1.3,0.334,3.021,0.403,5.218,0.343c3.209-0.087,6.088-0.286,6.099-0.105
			c0.004,0.053-0.313,0.519-1.362,1.167c-0.985,0.608-2.031,0.813-1.94,1.085c0.053,0.154,1.081-0.135,2.132-0.654
			c0.996-0.495,1.969-1.303,1.972-1.236c0,0,1.99,0.135,2.787-0.106C76.772,46.208,77.029,45.026,76.83,44.864z"/>
	</g>
	<path id="red_line" clip-path="url(#SVGID_2_)" fill="#EC2127" stroke="#091724" stroke-width="0.4252" stroke-miterlimit="10" d="
		M66.471,38.326l-1.199-0.755l-3.601,3.896c-0.38-1.221-0.71-2.896-0.741-3.652c-0.066-1.579,1.071-6.389,1.071-6.389l-5.388,1.402
		l-5.388-1.402c0,0,1.138,4.81,1.071,6.389c-0.03,0.721-0.331,2.316-0.688,3.481l-3.493-3.724l-1.199,0.754l3.701,6.225
		c0,0-0.52,1.699-0.406,2.452c0.184,1.214,2.208,5.026,2.208,5.026s0.311,5.799,0.245,10.328c-0.045,3.104-0.7,6.276-0.871,8.157
		c-0.098,1.07,9.739,1.07,9.642,0c-0.171-1.881-0.826-5.054-0.871-8.157c-0.065-4.529,0.245-10.328,0.245-10.328
		s2.024-3.812,2.208-5.026c0.114-0.753-0.406-2.452-0.406-2.452L66.471,38.326z"/>
	<g id="black_symbol" clip-path="url(#SVGID_2_)">
		<path fill="#091724" d="M61.943,45.717c0-2.317-1.511-4.261-3.594-4.958v-6.938h-3.313v6.938
			c-2.083,0.696-3.594,2.641-3.594,4.958s1.511,4.261,3.594,4.958v19.482h3.313V50.676C60.433,49.979,61.943,48.034,61.943,45.717z"
			/>
	</g>
	<g id="shoulder_gards_2" clip-path="url(#SVGID_2_)">
		<g>
			<g>
				<path fill="#ED1C24" stroke="#000000" stroke-width="0.4252" stroke-linejoin="round" d="M49.142,72.551l0.667-6.333
					c0,0-3.534,0.071-5.226-0.676c-1-0.441-1.979-7.336-2.142-8.726c-0.187-1.599,0.293-3.015,0.293-3.015s-5.144-0.426-6.137-1.667
					c0.183-4.083-0.392-8.725-0.392-8.725l-1.759-1.208l-1.851,11.67l3.161,0.531c0,0,2.608,10.689,2.742,17.511
					C40.903,74.075,49.142,72.551,49.142,72.551z"/>
				<g>
					
						<rect x="27.134" y="67.618" transform="matrix(-0.9954 0.0956 -0.0956 -0.9954 71.696 133.3009)" fill="#ED1C24" stroke="#000000" stroke-width="0.4252" stroke-linejoin="round" width="11.041" height="1.5"/>
					
						<rect x="26.632" y="63.805" transform="matrix(-0.9927 0.121 -0.121 -0.9927 71.8651 124.7456)" fill="#ED1C24" stroke="#000000" stroke-width="0.4252" stroke-linejoin="round" width="11.027" height="1.498"/>
					
						<rect x="25.982" y="59.991" transform="matrix(-0.9872 0.1592 -0.1592 -0.9872 72.2616 115.6891)" fill="#ED1C24" stroke="#000000" stroke-width="0.4252" stroke-linejoin="round" width="11.026" height="1.497"/>
					
						<rect x="25.183" y="56.318" transform="matrix(-0.9835 0.1808 -0.1808 -0.9835 71.2192 107.6436)" fill="#ED1C24" stroke="#000000" stroke-width="0.4252" stroke-linejoin="round" width="11.041" height="1.499"/>
				</g>
				<g>
					<path d="M39.863,55.918c-0.513-0.231-1.004-0.392-1.444-0.655c-0.463-0.226-0.839-0.54-1.239-0.937
						c0.089,0.576,0.548,1.026,1.037,1.311C38.73,55.885,39.301,56.035,39.863,55.918z"/>
				</g>
				<g>
					<path d="M40.628,58.855c-0.513-0.231-1.004-0.392-1.444-0.655c-0.463-0.226-0.839-0.54-1.239-0.937
						c0.089,0.576,0.548,1.026,1.037,1.311C39.495,58.822,40.065,58.973,40.628,58.855z"/>
				</g>
				<path inkscape:connector-curvature="0" opacity="0.25" fill="#091724" d="M38.386,62.018c0.354-0.321,1.011,0.564,1.563,2.917
					c0.641,2.721,1.515,4.367,1.41,5.066c-0.86,0.054-0.98,0.066-1.947,0.033C39.248,67.441,38.173,62.212,38.386,62.018z"/>
			</g>
		</g>
		<g>
			<g>
				<path fill="#ED1C24" stroke="#000000" stroke-width="0.4252" stroke-linejoin="round" d="M64.239,72.551l-0.667-6.333
					c0,0,3.534,0.071,5.226-0.676c1-0.441,1.979-7.336,2.142-8.726c0.187-1.599-0.293-3.015-0.293-3.015s5.144-0.426,6.137-1.667
					c-0.183-4.083,0.392-8.725,0.392-8.725l1.759-1.208l1.851,11.67l-3.161,0.531c0,0-2.608,10.689-2.742,17.511
					C72.478,74.075,64.239,72.551,64.239,72.551z"/>
				<g>
					
						<rect x="75.206" y="67.618" transform="matrix(0.9954 0.0956 -0.0956 0.9954 6.9069 -7.4054)" fill="#ED1C24" stroke="#000000" stroke-width="0.4252" stroke-linejoin="round" width="11.041" height="1.5"/>
					
						<rect x="75.721" y="63.805" transform="matrix(0.9927 0.121 -0.121 0.9927 8.4058 -9.353)" fill="#ED1C24" stroke="#000000" stroke-width="0.4252" stroke-linejoin="round" width="11.027" height="1.498"/>
					
						<rect x="76.372" y="59.991" transform="matrix(0.9872 0.1592 -0.1592 0.9872 10.7171 -12.2644)" fill="#ED1C24" stroke="#000000" stroke-width="0.4252" stroke-linejoin="round" width="11.026" height="1.497"/>
					
						<rect x="77.156" y="56.318" transform="matrix(0.9835 0.1808 -0.1808 0.9835 11.6792 -14.0063)" fill="#ED1C24" stroke="#000000" stroke-width="0.4252" stroke-linejoin="round" width="11.041" height="1.499"/>
				</g>
				<g>
					<path d="M73.518,55.918c0.513-0.231,1.004-0.392,1.444-0.655c0.463-0.226,0.839-0.54,1.239-0.937
						c-0.089,0.576-0.548,1.026-1.037,1.311C74.65,55.885,74.08,56.035,73.518,55.918z"/>
				</g>
				<g>
					<path d="M72.753,58.855c0.513-0.231,1.004-0.392,1.444-0.655c0.463-0.226,0.839-0.54,1.239-0.937
						c-0.089,0.576-0.548,1.026-1.037,1.311C73.886,58.822,73.315,58.973,72.753,58.855z"/>
				</g>
				<path inkscape:connector-curvature="0" opacity="0.25" fill="#091724" d="M74.995,62.018c-0.354-0.321-1.011,0.564-1.563,2.917
					c-0.641,2.721-1.515,4.367-1.41,5.066c0.86,0.054,0.98,0.066,1.947,0.033C74.133,67.441,75.208,62.212,74.995,62.018z"/>
			</g>
		</g>
	</g>
	<g id="collar" clip-path="url(#SVGID_2_)">
		<path fill="#676C68" stroke="#091724" stroke-width="0.4252" d="M56.693,33.638c-6.338,0-11.304-2.965-11.304-6.75
			s4.965-6.75,11.304-6.75s11.303,2.965,11.303,6.75S63.031,33.638,56.693,33.638z M56.693,22.264c-5.49,0-9.178,2.391-9.178,4.624
			c0,2.233,3.688,4.625,9.178,4.625s9.177-2.391,9.177-4.625C65.87,24.655,62.183,22.264,56.693,22.264z"/>
		<g>
			<ellipse fill="#EFF0ED" cx="56.693" cy="32.488" rx="3.573" ry="2.804"/>
			<path fill="#605F61" stroke="#000000" stroke-width="0.2835" d="M56.693,35.792c-2.246,0-4.074-1.482-4.074-3.304
				s1.828-3.304,4.074-3.304s4.073,1.482,4.073,3.304S58.939,35.792,56.693,35.792z M56.693,30.184
				c-1.695,0-3.074,1.033-3.074,2.304s1.379,2.304,3.074,2.304c1.694,0,3.073-1.033,3.073-2.304S58.388,30.184,56.693,30.184z"/>
			<g>
				<path fill="#A2A1A3" d="M54.051,32.441c0.011-0.222,0.108-0.387,0.186-0.576c0.103-0.162,0.224-0.305,0.348-0.451
					c0.252-0.289,0.579-0.467,0.907-0.62c0.34-0.128,0.69-0.221,1.058-0.209c0.184,0.008,0.366,0.024,0.545,0.043
					c0.188,0.066,0.366,0.095,0.551,0.201l0.016,0.099c-0.65,0.108-1.288,0.282-1.892,0.537c-0.602,0.245-1.197,0.568-1.64,1.04
					L54.051,32.441z"/>
			</g>
		</g>
	</g>
	<g id="shoulder_gards" clip-path="url(#SVGID_2_)">
		<g>
			<g>
				<path fill="#ED1C24" stroke="#000000" stroke-width="0.4252" stroke-linejoin="round" stroke-miterlimit="10" d="M29.736,35.093
					c0,0,7.271-0.625,11.188-0.158c1.083-1.383,2.871-2.439,4.395-2.675c0.167-3.083,2.751-7.809,2.751-7.809l-16.384,0.025
					L29.736,35.093z"/>
				<path opacity="0.5" fill="#091724" d="M46.762,24.984c-1.238,2.001,0.753,9.305,0.753,9.305l0.855-0.555
					c0,0-4.32,2.883-5.296,2.159c-1.667-1.042-1.683-3.824-2.124-4.225c-0.188-0.17-2.442-0.533-2.442-0.533s1.59-2.125-0.429-3.785
					C39.107,25.72,46.762,24.984,46.762,24.984z"/>
				<path fill="#ED1C24" stroke="#000000" stroke-width="0.4252" stroke-linejoin="round" stroke-miterlimit="10" d="M47.187,24.417
					c-1.238,2.001,0.753,9.305,0.753,9.305l0.855-0.555c0,0,0.237,2.5,0.933,5.934c-1.462-0.017-2.868,0.154-2.868,0.154
					s-0.104-0.802-0.579-2.511c-0.251-0.903-2.306-0.352-3.281-1.077c-0.931-0.822-1.183-4.166-1.624-4.567
					c-0.188-0.17-2.442-0.533-2.442-0.533s1.59-2.125-0.429-3.785C39.532,25.153,47.187,24.417,47.187,24.417z"/>
				<circle cx="48.24" cy="38.011" r="0.328"/>
			</g>
		</g>
		<g>
			<g>
				<path fill="#ED1C24" stroke="#000000" stroke-width="0.4252" stroke-linejoin="round" stroke-miterlimit="10" d="M83.622,35.093
					c0,0-7.271-0.625-11.188-0.158c-1.083-1.383-2.871-2.439-4.395-2.675c-0.167-3.083-2.751-7.809-2.751-7.809l16.384,0.025
					L83.622,35.093z"/>
				<path opacity="0.5" fill="#091724" d="M66.597,24.984c1.238,2.001-0.753,9.305-0.753,9.305l-0.855-0.555
					c0,0,4.32,2.883,5.296,2.159c1.667-1.042,1.683-3.824,2.124-4.225c0.188-0.17,2.442-0.533,2.442-0.533s-1.59-2.125,0.429-3.785
					C74.251,25.72,66.597,24.984,66.597,24.984z"/>
				<path fill="#ED1C24" stroke="#000000" stroke-width="0.4252" stroke-linejoin="round" stroke-miterlimit="10" d="M66.172,24.417
					c1.238,2.001-0.753,9.305-0.753,9.305l-0.855-0.555c0,0-0.237,2.5-0.933,5.934c1.462-0.017,2.868,0.154,2.868,0.154
					s0.104-0.802,0.579-2.511c0.251-0.903,2.306-0.352,3.281-1.077c0.931-0.822,1.183-4.166,1.624-4.567
					c0.188-0.17,2.442-0.533,2.442-0.533s-1.59-2.125,0.429-3.785C73.826,25.153,66.172,24.417,66.172,24.417z"/>
				<circle cx="65.118" cy="38.011" r="0.328"/>
			</g>
		</g>
	</g>
</g>
<g id="head">
	<path id="helmet-base" inkscape:connector-curvature="0" fill="#A2A1A3" d="M83.094,22.194H30.292V0.804h52.802V22.194
		L83.094,22.194z"/>
	<g id="face_expression">
		<polygon id="face-base" fill="#F4D7B3" stroke="#091724" stroke-width="0.4252" points="60.383,14.551 56.693,13.573 
			53.004,14.551 45.296,13.259 48.431,18.384 53.415,20.374 56.693,19.047 59.971,20.374 65.237,18.243 68.09,13.259 		"/>
		<g id="smile">
			<g>
				<path fill="#091724" d="M52.455,17.09c0.578-0.6,1.385-0.758,2.104-0.9c0.741-0.116,1.484-0.082,2.215-0.041
					c1.463,0.078,2.919,0.27,4.326,0.732c0.111,0.037,0.172,0.157,0.136,0.268c-0.035,0.108-0.149,0.168-0.258,0.139l-0.007-0.002
					c-1.356-0.374-2.797-0.495-4.21-0.5c-0.709,0.013-1.412,0.091-2.101,0.163c-0.687,0.074-1.375,0.167-1.941,0.476l-0.005,0.002
					c-0.104,0.057-0.234,0.019-0.292-0.085C52.375,17.257,52.392,17.156,52.455,17.09z"/>
			</g>
			<g>
				<path fill="#091724" d="M54.837,17.737c1.123-0.247,2.279-0.319,3.438-0.217c0.078,0.007,0.136,0.076,0.129,0.154
					s-0.076,0.136-0.154,0.129c-0.001,0-0.003,0-0.005,0l-0.009-0.001c-1.108-0.144-2.258-0.123-3.373,0.076
					c-0.039,0.007-0.075-0.019-0.082-0.058C54.775,17.781,54.801,17.745,54.837,17.737z"/>
			</g>
			<g>
				<g>
					<path fill="#DD8B5E" d="M63.387,17.786c-0.247-0.609-0.354-1.239-0.466-1.869l0.023,0.064
						c-0.244-0.438-0.491-0.873-0.632-1.374c0.38,0.354,0.654,0.774,0.931,1.191l0.019,0.029l0.005,0.036
						C63.35,16.498,63.438,17.131,63.387,17.786z"/>
				</g>
				<g>
					<path fill="#DD8B5E" d="M49.598,17.786c-0.052-0.655,0.037-1.289,0.121-1.923l0.004-0.036l0.019-0.029
						c0.276-0.417,0.55-0.837,0.93-1.191c-0.14,0.5-0.387,0.936-0.631,1.374l0.023-0.064C49.952,16.547,49.845,17.177,49.598,17.786
						z"/>
				</g>
			</g>
		</g>
	</g>
	<g id="mask">
		<defs>
			<path id="path3081_2_" inkscape:connector-curvature="0" d="M111.965,21.98H1.421V1.018h110.544V21.98L111.965,21.98z"/>
		</defs>
		<clipPath id="path3081_1_">
			<use xlink:href="#path3081_2_"  overflow="visible"/>
		</clipPath>
		<g clip-path="url(#path3081_1_)">
			<g>
				<g>
					<path display="none" opacity="0.7" fill="#E3E2DB" d="M47.396,9.625c0.075-0.952,0.551-1.471,0.866-1.814
						c0.121-0.132,0.226-0.246,0.267-0.34c0.181-0.411-0.034-1.763-0.132-2.249c-0.015-0.07,0.025-0.14,0.094-0.162
						c0.066-0.021,0.142,0.009,0.173,0.073c0.184,0.383,0.746,1.417,1.135,1.591c0.107,0.048,0.28,0.091,0.499,0.144
						c1.16,0.283,3.433,0.73,4.517,4.49c0.013,0.042-2.459,1.128-4.293,1.128c-0.95,0-1.662-0.18-2.116-0.534
						C47.325,11.11,47.359,9.963,47.396,9.625z"/>
					<g>
						<path fill="#ED1C24" stroke="#000000" stroke-width="0.4252" d="M48.71,8.992c-0.433,1.331,0.355,2.82,2.457,3.502
							c2.102,0.681,4.444-0.327,4.444-0.327s-0.796-3.407-2.882-4.351C50.717,6.906,49.142,7.661,48.71,8.992z"/>
						<circle fill="#F48472" cx="51.166" cy="9.301" r="0.521"/>
					</g>
					<g>
						<path opacity="0.3" fill="#003A57" d="M42.341,7.893l0.692-0.153c-0.01-0.043-0.936-4.398,1.517-6.964l-0.546-0.352
							C41.287,3.266,42.298,7.7,42.341,7.893z"/>
						<path fill="#A2A0A2" stroke="#000000" stroke-width="0.4252" stroke-linejoin="round" d="M53.536,20.343
							c0,0-1.792-1.375-3.9-2.125c-2.767-1.958-5.07-6.443-5.07-6.443c-0.304-0.503-3.438,0.347-3.43,0.358
							c0,0,4.716,6.035,6.375,7.31c1.34,1.03,6.15,2.608,6.15,2.608C53.76,22.099,53.584,20.401,53.536,20.343z"/>
						<path fill="#A2A1A3" stroke="#000000" stroke-width="0.2835" d="M42.249,8.134l0.635-0.316
							c-0.021-0.04-1.975-4.04-0.218-7.125l-0.615-0.209C40.104,3.901,42.161,7.958,42.249,8.134z"/>
						<circle fill="#605F61" stroke="#000000" stroke-width="0.4252" cx="42.833" cy="10.313" r="2.542"/>
						<circle fill="#605F61" stroke="#000000" stroke-width="0.4252" cx="42.833" cy="10.313" r="1.541"/>
					</g>
					<g>
						<path fill="#A2A1A3" stroke="#231F20" stroke-width="0.3125" d="M56.693,18.399c-1.887,0-3.416,1.689-3.416,2.333
							c-0.116,1.777,1.529,2.333,3.416,2.333"/>
						
							<line fill="none" stroke="#605F61" stroke-width="0.3125" stroke-linecap="round" x1="56.178" y1="22.127" x2="56.036" y2="19.352"/>
						
							<line fill="none" stroke="#605F61" stroke-width="0.3125" stroke-linecap="round" x1="55.387" y1="21.844" x2="55.104" y2="19.652"/>
						
							<line fill="none" stroke="#605F61" stroke-width="0.3125" stroke-linecap="round" x1="54.553" y1="21.627" x2="54.27" y2="20.21"/>
					</g>
					<path fill="none" stroke="#606062" stroke-width="0.4252" stroke-linecap="round" d="M52.403,5.501
						c0.434-1.083,1.292-1.566,1.292-1.566l0.142-4.36 M48.023,4.658c5.279-0.065,5.588,2.543,7.26,3.969"/>
					<path fill="none" stroke="#000000" stroke-width="0.4252" stroke-linejoin="round" d="M49.503,18.218
						c0,0-1.009,0.625-1.342,1.625"/>
					<path fill="none" stroke="#000000" stroke-width="0.4252" stroke-linejoin="round" d="M47.494,16.093
						c0,0-1.166,0.625-1.666,1.667"/>
				</g>
			</g>
			<g>
				<g>
					<path display="none" opacity="0.7" fill="#E3E2DB" d="M65.99,9.625c-0.075-0.952-0.551-1.471-0.866-1.814
						c-0.121-0.132-0.226-0.246-0.267-0.34c-0.181-0.411,0.034-1.763,0.132-2.249c0.015-0.07-0.025-0.14-0.094-0.162
						c-0.066-0.021-0.142,0.009-0.173,0.073c-0.184,0.383-0.746,1.417-1.135,1.591c-0.107,0.048-0.28,0.091-0.499,0.144
						c-1.16,0.283-3.433,0.73-4.517,4.49c-0.013,0.042,2.459,1.128,4.293,1.128c0.95,0,1.662-0.18,2.116-0.534
						C66.062,11.11,66.027,9.963,65.99,9.625z"/>
					<g>
						<path fill="#ED1C24" stroke="#000000" stroke-width="0.4252" d="M64.677,8.992c0.433,1.331-0.355,2.82-2.457,3.502
							c-2.102,0.681-4.444-0.327-4.444-0.327s0.796-3.407,2.882-4.351C62.67,6.906,64.245,7.661,64.677,8.992z"/>
						<circle fill="#F48472" cx="62.221" cy="9.301" r="0.521"/>
					</g>
					<g>
						<path opacity="0.3" fill="#003A57" d="M71.046,7.893L70.354,7.74c0.01-0.043,0.936-4.398-1.517-6.964l0.546-0.352
							C72.1,3.266,71.089,7.7,71.046,7.893z"/>
						<path fill="#A2A0A2" stroke="#000000" stroke-width="0.4252" stroke-linejoin="round" d="M59.851,20.343
							c0,0,1.792-1.375,3.9-2.125c2.767-1.958,5.07-6.443,5.07-6.443c0.304-0.503,3.438,0.347,3.43,0.358
							c0,0-4.716,6.035-6.375,7.31c-1.34,1.03-6.15,2.608-6.15,2.608C59.627,22.099,59.803,20.401,59.851,20.343z"/>
						<path fill="#A2A1A3" stroke="#000000" stroke-width="0.2835" d="M71.138,8.134l-0.635-0.316
							c0.021-0.04,1.975-4.04,0.218-7.125l0.615-0.209C73.282,3.901,71.226,7.958,71.138,8.134z"/>
						<circle fill="#605F61" stroke="#000000" stroke-width="0.4252" cx="70.554" cy="10.313" r="2.542"/>
						<circle fill="#605F61" stroke="#000000" stroke-width="0.4252" cx="70.554" cy="10.313" r="1.541"/>
					</g>
					<g>
						<path fill="#A2A1A3" stroke="#231F20" stroke-width="0.3125" d="M56.693,18.399c1.887,0,3.416,1.689,3.416,2.333
							c0.116,1.777-1.529,2.333-3.416,2.333"/>
						
							<line fill="none" stroke="#605F61" stroke-width="0.3125" stroke-linecap="round" x1="57.208" y1="22.127" x2="57.351" y2="19.352"/>
						
							<line fill="none" stroke="#605F61" stroke-width="0.3125" stroke-linecap="round" x1="58" y1="21.844" x2="58.283" y2="19.652"/>
						
							<line fill="none" stroke="#605F61" stroke-width="0.3125" stroke-linecap="round" x1="58.834" y1="21.627" x2="59.117" y2="20.21"/>
					</g>
					<path fill="none" stroke="#606062" stroke-width="0.4252" stroke-linecap="round" d="M60.983,5.501
						c-0.434-1.083-1.292-1.566-1.292-1.566l-0.142-4.36 M65.363,4.658c-5.279-0.065-5.588,2.543-7.26,3.969"/>
					<path fill="none" stroke="#000000" stroke-width="0.4252" stroke-linejoin="round" d="M63.884,18.218
						c0,0,1.009,0.625,1.342,1.625"/>
					<path fill="none" stroke="#000000" stroke-width="0.4252" stroke-linejoin="round" d="M65.893,16.093
						c0,0,1.166,0.625,1.666,1.667"/>
				</g>
			</g>
		</g>
	</g>
</g>
<g id="arms">
	<g id="right_arm">
		<path id="path3065" inkscape:connector-curvature="0" fill="#0B75BC" stroke="#0B75BC" stroke-width="0.3125" d="M19.931,68.711
			c1.463-1.132,3.679-3.146,6.063-6.383c0.618-0.84,1.247-1.759,1.877-2.766l-5.685-5.682c0,0-1.88-1.737-1.794-4.534
			c0,0,1.354-14.479-0.677-17.773c-2.927-4.75-7.1-3.994-7.1-3.994c-10.11,0.864-10.317,9.086-10.317,9.086
			s-0.07,9.776-0.026,14.571c0.046,4.793,3.344,7.488,3.344,7.488l12.537,11.191C18.152,69.916,18.829,69.563,19.931,68.711
			L19.931,68.711z"/>
		<g>
			<defs>
				<path id="mask_1_" d="M5.805,58.514c-0.131-0.109-3.206-2.734-3.25-7.28C2.52,47.32,2.561,39.899,2.58,36.891l0.001-0.223
					c0.009-0.326,0.331-7.975,10.059-8.806c0.074-0.011,0.29-0.043,0.63-0.043c1.143,0,4.033,0.38,6.204,3.903
					c1.976,3.204,0.649,17.455,0.636,17.598c-0.091,2.915,1.803,4.694,1.884,4.769l5.501,5.498
					c-0.548,0.906-1.131,1.761-1.729,2.573c-2.376,3.226-4.578,5.221-6.007,6.326c-0.747,0.577-1.292,0.92-1.55,1.072l-0.019,0.011
					L5.805,58.514z"/>
			</defs>
			<clipPath id="mask_3_">
				<use xlink:href="#mask_1_"  overflow="visible"/>
			</clipPath>
			<g clip-path="url(#mask_3_)">
				<path fill="#EC2127" stroke="#091724" stroke-width="0.4252" d="M21.803,51.347c-2.862,2.577-7.762-0.912-7.762-0.912
					s-1.597,1.44-3.097,2.979c-1.479,1.518-2.854,3.131-2.854,3.131s3.617,4.804,1.114,7.732c1.022,3.442,7.605,8.672,7.605,8.672
					l13.861-14.229C30.671,58.719,25.27,52.277,21.803,51.347z"/>
				<g>
					<g>
						<path fill="#091724" d="M21.007,68.4c-2.057-1.105-3.992-2.413-5.887-3.772c-1.857-1.404-3.71-2.856-5.243-4.627
							c1.774,1.512,3.612,2.922,5.494,4.285L21.007,68.4z"/>
						<path fill="#091724" d="M26.296,62.971l-4.261-5.524c-1.412-1.846-2.871-3.645-4.428-5.379c1.81,1.485,3.31,3.299,4.763,5.118
							C23.778,59.045,25.137,60.943,26.296,62.971z"/>
						<polygon fill="#091724" points="23.329,58.795 20.905,62.951 20.883,62.988 20.846,63.012 16.756,65.544 20.607,62.66 
							20.548,62.721 						"/>
						<path fill="#091724" d="M20.21,54.597c-0.432,0.844-0.902,1.663-1.379,2.479c-0.476,0.815-0.984,1.61-1.475,2.417
							l-0.023,0.039l-0.038,0.024c-0.793,0.512-1.576,1.039-2.378,1.537c-0.803,0.498-1.609,0.989-2.442,1.442
							c0.734-0.6,1.495-1.159,2.26-1.714c0.765-0.554,1.549-1.079,2.324-1.618l-0.061,0.062c0.521-0.787,1.023-1.586,1.559-2.364
							C19.09,56.122,19.63,55.347,20.21,54.597z"/>
					</g>
				</g>
			</g>
		</g>
	</g>
	<g id="left_arm">
		<path id="path3065_1_" inkscape:connector-curvature="0" fill="#0B75BC" stroke="#0B75BC" stroke-width="0.3125" d="
			M93.455,68.045c-1.463-1.132-3.679-3.147-6.063-6.384c-0.618-0.839-1.247-1.758-1.877-2.766l5.685-5.682
			c0,0,1.88-1.737,1.794-4.533c0,0-1.354-14.479,0.677-17.774c2.927-4.75,7.1-3.994,7.1-3.994
			c10.11,0.864,10.317,9.086,10.317,9.086s0.07,9.776,0.026,14.57c-0.046,4.794-3.344,7.489-3.344,7.489L95.233,69.25
			C95.233,69.25,94.557,68.896,93.455,68.045L93.455,68.045z"/>
		<g>
			<defs>
				<path id="mask_2_" d="M107.581,57.847c0.131-0.108,3.206-2.733,3.25-7.279c0.035-3.914-0.006-11.334-0.025-14.343l-0.001-0.223
					c-0.009-0.326-0.331-7.975-10.059-8.806c-0.074-0.011-0.29-0.043-0.63-0.043c-1.143,0-4.033,0.38-6.204,3.903
					c-1.976,3.204-0.649,17.455-0.636,17.599c0.091,2.915-1.803,4.693-1.884,4.768l-5.501,5.498
					c0.548,0.907,1.131,1.762,1.729,2.573c2.376,3.226,4.578,5.222,6.007,6.327c0.747,0.577,1.292,0.919,1.55,1.071l0.019,0.011
					L107.581,57.847z"/>
			</defs>
			<clipPath id="mask_4_">
				<use xlink:href="#mask_2_"  overflow="visible"/>
			</clipPath>
			<g clip-path="url(#mask_4_)">
				<path fill="#EC2127" stroke="#091724" stroke-width="0.4252" d="M91.583,50.68c2.862,2.578,7.762-0.911,7.762-0.911
					s1.597,1.44,3.097,2.979c1.479,1.518,2.854,3.13,2.854,3.13s-3.617,4.805-1.114,7.733c-1.022,3.441-7.605,8.672-7.605,8.672
					L82.715,58.053C82.715,58.053,88.116,51.611,91.583,50.68z"/>
				<g>
					<g>
						<path fill="#091724" d="M103.509,59.335c-1.533,1.769-3.386,3.222-5.242,4.627c-1.896,1.358-3.83,2.667-5.888,3.771
							l5.636-4.114C99.896,62.257,101.735,60.847,103.509,59.335z"/>
						<path fill="#091724" d="M95.778,51.401c-1.559,1.733-3.016,3.533-4.428,5.379l-4.261,5.524
							c1.158-2.028,2.517-3.927,3.926-5.785C92.469,54.701,93.97,52.888,95.778,51.401z"/>
						<path fill="#091724" d="M96.63,64.877c-0.711-0.379-1.396-0.796-2.077-1.219c-0.682-0.423-1.341-0.876-2.013-1.313
							l-0.037-0.023l-0.022-0.037c-0.42-0.683-0.854-1.355-1.26-2.047c-0.405-0.692-0.805-1.388-1.164-2.109
							c0.508,0.626,0.977,1.277,1.438,1.932c0.463,0.655,0.895,1.33,1.343,1.994l-0.059-0.061c0.651,0.466,1.314,0.915,1.957,1.395
							S96.018,64.354,96.63,64.877z"/>
						<path fill="#091724" d="M100.911,61.868c-0.833-0.453-1.639-0.944-2.441-1.442c-0.804-0.497-1.585-1.025-2.379-1.536
							l-0.038-0.024l-0.023-0.039c-0.491-0.806-0.998-1.602-1.475-2.417s-0.948-1.634-1.379-2.479c0.58,0.75,1.12,1.524,1.654,2.304
							c0.534,0.778,1.039,1.576,1.559,2.364l-0.062-0.063c0.774,0.541,1.56,1.064,2.323,1.619
							C99.416,60.71,100.177,61.27,100.911,61.868z"/>
					</g>
				</g>
			</g>
		</g>
	</g>
</g>
<g id="legs">
	<g id="legs-base">
		<path id="path3029" inkscape:connector-curvature="0" fill="#EC2127" stroke="#EC2127" stroke-width="0.3125" d="M31.204,136.625
			h22.695V125.42H31.204V136.625z"/>
		<path id="path3045" inkscape:connector-curvature="0" fill="#EC2127" stroke="#EC2127" stroke-width="0.3125" d="M59.435,136.626
			H82.13v-11.205H59.435V136.626z"/>
		<path id="path3033" inkscape:connector-curvature="0" fill="#0B75BC" stroke="#0B75BC" stroke-width="0.3125" d="M53.9,123.918
			H31.203V81.491H53.9V123.918z"/>
		<path id="path4076" inkscape:connector-curvature="0" fill="#0B75BC" stroke="#0B75BC" stroke-width="0.3125" d="M82.184,123.918
			H59.486V81.491h22.697V123.918z"/>
	</g>
	<path id="belt-base" inkscape:connector-curvature="0" fill="#EC2127" stroke="#EC2127" stroke-width="0.3125" d="M82.358,80.167
		h-51.33v-7.064h51.33V80.167L82.358,80.167z"/>
	<g id="legs_design">
		<g>
			<g>
				<defs>
					<path id="SVGID_3_" inkscape:connector-curvature="0" d="M31.097,123.918h22.697V81.491H31.097V123.918z"/>
				</defs>
				<clipPath id="SVGID_4_">
					<use xlink:href="#SVGID_3_"  overflow="visible"/>
				</clipPath>
			</g>
			<g>
				<defs>
					<path id="SVGID_5_" inkscape:connector-curvature="0" d="M31.097,123.918h22.697V81.491H31.097V123.918z"/>
				</defs>
				<clipPath id="SVGID_6_">
					<use xlink:href="#SVGID_5_"  overflow="visible"/>
				</clipPath>
				<path clip-path="url(#SVGID_6_)" fill="#EC2127" stroke="#091724" stroke-width="0.4252" d="M28.87,111.644
					c6.083-1.251,8.809-5.441,8.809-5.441s2.361-0.223,4.727-0.225c2.385-0.002,4.767,0.225,4.767,0.225s2.726,4.19,8.809,5.441
					c-0.215,2.615,0,13.333,0,13.333H28.87C28.87,124.977,27.451,113.852,28.87,111.644z"/>
				<g clip-path="url(#SVGID_6_)">
					<path fill="#091724" d="M28.87,113.644c1.797-0.293,3.56-0.896,5.159-1.804c1.601-0.906,3.082-2.029,4.277-3.485l-0.174,0.1
						c2.849-0.263,5.735-0.264,8.585,0.001l-0.174-0.1c1.195,1.455,2.676,2.579,4.277,3.485c1.6,0.906,3.362,1.511,5.159,1.803
						c-1.768-0.445-3.447-1.162-4.983-2.103c-0.768-0.471-1.495-1.005-2.174-1.592c-0.673-0.585-1.337-1.214-1.873-1.9l-0.068-0.088
						l-0.105-0.012c-1.45-0.161-2.896-0.244-4.351-0.255c-1.456,0.013-2.9,0.096-4.352,0.256l-0.104,0.011L37.9,108.05
						c-0.536,0.686-1.2,1.314-1.872,1.9c-0.68,0.587-1.406,1.121-2.175,1.591C32.317,112.482,30.638,113.198,28.87,113.644z"/>
				</g>
				<g clip-path="url(#SVGID_6_)">
					<path fill="#091724" d="M28.943,117.139c2.211-0.673,4.445-1.252,6.7-1.701c2.254-0.438,4.536-0.786,6.818-0.77
						c2.282-0.016,4.564,0.331,6.818,0.771c2.255,0.449,4.489,1.028,6.7,1.7c-2.134-0.895-4.353-1.584-6.607-2.126
						c-2.258-0.532-4.57-0.882-6.911-0.911c-2.341,0.031-4.653,0.379-6.91,0.912C33.296,115.556,31.078,116.245,28.943,117.139z"/>
				</g>
				<g clip-path="url(#SVGID_6_)">
					<path fill="#091724" d="M28.943,122.228c2.211-0.673,4.445-1.252,6.7-1.701c2.254-0.438,4.536-0.786,6.818-0.77
						c2.282-0.016,4.564,0.331,6.818,0.771c2.255,0.449,4.489,1.028,6.7,1.7c-2.134-0.895-4.353-1.584-6.607-2.126
						c-2.258-0.532-4.57-0.882-6.911-0.911c-2.341,0.031-4.653,0.379-6.91,0.912C33.296,120.645,31.078,121.334,28.943,122.228z"/>
				</g>
				<g clip-path="url(#SVGID_6_)">
					<path fill="#091724" d="M42.445,109.301c-0.117,1.307-0.172,2.612-0.217,3.919c-0.047,1.307-0.043,2.612-0.066,3.919
						c0.022,1.307,0.02,2.612,0.065,3.919s0.1,2.612,0.218,3.919c0.118-1.307,0.172-2.612,0.218-3.919s0.043-2.612,0.065-3.919
						c-0.023-1.307-0.02-2.612-0.066-3.919C42.617,111.913,42.563,110.607,42.445,109.301z"/>
				</g>
				<g clip-path="url(#SVGID_6_)">
					<g opacity="0.5">
						<path fill="#091724" d="M48.409,104c0.689-0.55,1.114-1.366,1.423-2.163c0.305-0.809,0.514-1.646,0.597-2.494
							c0.069-0.853,0.025-1.707,0.063-2.548c0.036-0.841,0.146-1.674,0.26-2.514c0.124-0.839,0.204-1.685,0.21-2.531
							c0.018-0.847,0.02-1.696-0.059-2.541c-0.181-1.681-0.512-3.393-1.311-4.923l-0.096,0.031c0.184,1.679,0.246,3.319,0.343,4.974
							c0.134,1.648,0.217,3.303,0.365,4.973c0.062,0.835,0.075,1.675-0.036,2.503c-0.11,0.828-0.354,1.639-0.561,2.439
							c-0.387,1.606-0.561,3.225-1.277,4.731L48.409,104z"/>
					</g>
					<g opacity="0.5">
						<path fill="#091724" d="M37.33,103.945c-0.52-1.574-0.651-3.199-0.819-4.827c-0.145-1.627-0.357-3.26-0.454-4.907
							c-0.09-1.647-0.116-3.301-0.077-4.953c0.029-1.652,0.104-3.31,0.355-4.946l-0.098-0.02c-0.386,1.621-0.595,3.28-0.757,4.938
							c-0.141,1.662-0.214,3.329-0.224,5c-0.011,1.669-0.019,3.354,0.263,5.018c0.145,0.83,0.318,1.659,0.592,2.466
							c0.27,0.801,0.594,1.611,1.131,2.278L37.33,103.945z"/>
					</g>
					<g opacity="0.5">
						<path fill="#091724" d="M36.807,105.157c-0.063-0.237-0.194-0.374-0.318-0.52c-0.133-0.133-0.322-0.183-0.492-0.26
							c-0.335-0.163-0.679-0.313-1.031-0.449l-0.031,0.047c0.262,0.273,0.531,0.533,0.811,0.779
							c0.137,0.128,0.255,0.283,0.429,0.354c0.183,0.06,0.358,0.128,0.603,0.095L36.807,105.157z"/>
					</g>
					<g opacity="0.5">
						<path fill="#091724" d="M50.353,104.459c-0.331,0.03-0.657,0.075-0.979,0.135c-0.162,0.024-0.335,0.019-0.475,0.107
							c-0.136,0.103-0.273,0.195-0.372,0.402l0.02,0.053c0.206,0.1,0.372,0.085,0.541,0.08c0.164-0.019,0.296-0.132,0.438-0.215
							c0.287-0.155,0.569-0.325,0.847-0.51L50.353,104.459z"/>
					</g>
				</g>
				<path clip-path="url(#SVGID_6_)" fill="#EC2127" stroke="#091724" stroke-width="0.4252" d="M55.587,86.857
					c-4.431,0.91-8.902,1.764-13.366,2.541c-4.462,0.762-8.955,1.502-13.393,1.886l0.15,2.83c4.66-0.161,9.203-0.676,13.757-1.21
					c4.55-0.552,9.07-1.173,13.61-1.863L55.587,86.857z"/>
				<path clip-path="url(#SVGID_6_)" fill="#EC2127" stroke="#091724" stroke-width="0.4252" d="M27.245,99.375
					c0,0.782,0.635,1.417,1.417,1.417h3.082c0.782,0,1.417-0.635,1.417-1.417v-1.083l1.416-1.166l-1.416-1.184v-9.441
					c0-0.782-0.635-1.417-1.417-1.417h-3.082c-0.782,0-1.417,0.635-1.417,1.417V99.375z"/>
			</g>
			<g>
				<defs>
					<path id="SVGID_7_" inkscape:connector-curvature="0" d="M31.097,123.918h22.697V81.491H31.097V123.918z"/>
				</defs>
				<clipPath id="SVGID_8_">
					<use xlink:href="#SVGID_7_"  overflow="visible"/>
				</clipPath>
			</g>
		</g>
		<g>
			<g>
				<defs>
					<path id="SVGID_9_" inkscape:connector-curvature="0" d="M82.29,123.918H59.593V81.491H82.29V123.918z"/>
				</defs>
				<clipPath id="SVGID_10_">
					<use xlink:href="#SVGID_9_"  overflow="visible"/>
				</clipPath>
			</g>
			<g>
				<defs>
					<path id="SVGID_11_" inkscape:connector-curvature="0" d="M82.29,123.918H59.593V81.491H82.29V123.918z"/>
				</defs>
				<clipPath id="SVGID_12_">
					<use xlink:href="#SVGID_11_"  overflow="visible"/>
				</clipPath>
				<path clip-path="url(#SVGID_12_)" fill="#EC2127" stroke="#091724" stroke-width="0.4252" d="M84.517,111.644
					c-6.083-1.251-8.809-5.441-8.809-5.441s-2.361-0.223-4.727-0.225c-2.385-0.002-4.767,0.225-4.767,0.225s-2.726,4.19-8.809,5.441
					c0.215,2.615,0,13.333,0,13.333h27.11C84.517,124.977,85.936,113.852,84.517,111.644z"/>
				<g clip-path="url(#SVGID_12_)">
					<path fill="#091724" d="M84.517,113.644c-1.797-0.293-3.56-0.896-5.159-1.804c-1.601-0.906-3.082-2.029-4.277-3.485l0.174,0.1
						c-2.849-0.263-5.735-0.264-8.585,0.001l0.174-0.1c-1.195,1.455-2.676,2.579-4.277,3.485c-1.6,0.906-3.362,1.511-5.159,1.803
						c1.768-0.445,3.447-1.162,4.983-2.103c0.768-0.471,1.495-1.005,2.174-1.592c0.673-0.585,1.337-1.214,1.873-1.9l0.068-0.088
						l0.105-0.012c1.45-0.161,2.896-0.244,4.351-0.255c1.456,0.013,2.9,0.096,4.352,0.256l0.104,0.011l0.069,0.089
						c0.536,0.686,1.2,1.314,1.872,1.9c0.68,0.587,1.406,1.121,2.175,1.591C81.069,112.482,82.749,113.198,84.517,113.644z"/>
				</g>
				<g clip-path="url(#SVGID_12_)">
					<path fill="#091724" d="M84.443,117.139c-2.211-0.673-4.445-1.252-6.7-1.701c-2.254-0.438-4.536-0.786-6.818-0.77
						c-2.282-0.016-4.564,0.331-6.818,0.771c-2.255,0.449-4.489,1.028-6.7,1.7c2.134-0.895,4.353-1.584,6.607-2.126
						c2.258-0.532,4.57-0.882,6.911-0.911c2.341,0.031,4.653,0.379,6.91,0.912C80.091,115.556,82.309,116.245,84.443,117.139z"/>
				</g>
				<g clip-path="url(#SVGID_12_)">
					<path fill="#091724" d="M84.443,122.228c-2.211-0.673-4.445-1.252-6.7-1.701c-2.254-0.438-4.536-0.786-6.818-0.77
						c-2.282-0.016-4.564,0.331-6.818,0.771c-2.255,0.449-4.489,1.028-6.7,1.7c2.134-0.895,4.353-1.584,6.607-2.126
						c2.258-0.532,4.57-0.882,6.911-0.911c2.341,0.031,4.653,0.379,6.91,0.912C80.091,120.645,82.309,121.334,84.443,122.228z"/>
				</g>
				<g clip-path="url(#SVGID_12_)">
					<path fill="#091724" d="M70.941,109.301c0.117,1.307,0.172,2.612,0.217,3.919c0.047,1.307,0.043,2.612,0.066,3.919
						c-0.022,1.307-0.02,2.612-0.065,3.919s-0.1,2.612-0.218,3.919c-0.118-1.307-0.172-2.612-0.218-3.919s-0.043-2.612-0.065-3.919
						c0.023-1.307,0.02-2.612,0.066-3.919C70.77,111.913,70.824,110.607,70.941,109.301z"/>
				</g>
				<g clip-path="url(#SVGID_12_)">
					<g opacity="0.5">
						<path fill="#091724" d="M64.978,104c-0.689-0.55-1.114-1.366-1.423-2.163c-0.305-0.809-0.514-1.646-0.597-2.494
							c-0.069-0.853-0.025-1.707-0.063-2.548c-0.036-0.841-0.146-1.674-0.26-2.514c-0.124-0.839-0.204-1.685-0.21-2.531
							c-0.018-0.847-0.02-1.696,0.059-2.541c0.181-1.681,0.512-3.393,1.311-4.923l0.096,0.031c-0.184,1.679-0.246,3.319-0.343,4.974
							c-0.134,1.648-0.217,3.303-0.365,4.973c-0.062,0.835-0.075,1.675,0.036,2.503c0.11,0.828,0.354,1.639,0.561,2.439
							c0.387,1.606,0.561,3.225,1.277,4.731L64.978,104z"/>
					</g>
					<g opacity="0.5">
						<path fill="#091724" d="M76.057,103.945c0.52-1.574,0.651-3.199,0.819-4.827c0.145-1.627,0.357-3.26,0.454-4.907
							c0.09-1.647,0.116-3.301,0.077-4.953c-0.029-1.652-0.104-3.31-0.355-4.946l0.098-0.02c0.386,1.621,0.595,3.28,0.757,4.938
							c0.141,1.662,0.214,3.329,0.224,5c0.011,1.669,0.019,3.354-0.263,5.018c-0.145,0.83-0.318,1.659-0.592,2.466
							c-0.27,0.801-0.594,1.611-1.131,2.278L76.057,103.945z"/>
					</g>
					<g opacity="0.5">
						<path fill="#091724" d="M76.58,105.157c0.063-0.237,0.194-0.374,0.318-0.52c0.133-0.133,0.322-0.183,0.492-0.26
							c0.335-0.163,0.679-0.313,1.031-0.449l0.031,0.047c-0.262,0.273-0.531,0.533-0.811,0.779
							c-0.137,0.128-0.255,0.283-0.429,0.354c-0.183,0.06-0.358,0.128-0.603,0.095L76.58,105.157z"/>
					</g>
					<g opacity="0.5">
						<path fill="#091724" d="M63.034,104.459c0.331,0.03,0.657,0.075,0.979,0.135c0.162,0.024,0.335,0.019,0.475,0.107
							c0.136,0.103,0.273,0.195,0.372,0.402l-0.02,0.053c-0.206,0.1-0.372,0.085-0.541,0.08c-0.164-0.019-0.296-0.132-0.438-0.215
							c-0.287-0.155-0.569-0.325-0.847-0.51L63.034,104.459z"/>
					</g>
				</g>
				<path clip-path="url(#SVGID_12_)" fill="#EC2127" stroke="#091724" stroke-width="0.4252" d="M57.8,86.857
					c4.431,0.91,8.902,1.764,13.366,2.541c4.462,0.762,8.955,1.502,13.393,1.886l-0.15,2.83c-4.66-0.161-9.203-0.676-13.757-1.21
					c-4.55-0.552-9.07-1.173-13.61-1.863L57.8,86.857z"/>
				<path clip-path="url(#SVGID_12_)" fill="#EC2127" stroke="#091724" stroke-width="0.4252" d="M86.142,99.375
					c0,0.782-0.635,1.417-1.417,1.417h-3.082c-0.782,0-1.417-0.635-1.417-1.417v-1.083l-1.416-1.166l1.416-1.184v-9.441
					c0-0.782,0.635-1.417,1.417-1.417h3.082c0.782,0,1.417,0.635,1.417,1.417V99.375z"/>
			</g>
			<g>
				<defs>
					<path id="SVGID_13_" inkscape:connector-curvature="0" d="M82.29,123.918H59.593V81.491H82.29V123.918z"/>
				</defs>
				<clipPath id="SVGID_14_">
					<use xlink:href="#SVGID_13_"  overflow="visible"/>
				</clipPath>
			</g>
		</g>
	</g>
	<g id="belt">
		<defs>
			<path id="path3037_1_" inkscape:connector-curvature="0" d="M82.358,80.167h-51.33v-7.064h51.33V80.167L82.358,80.167z"/>
		</defs>
		<clipPath id="path3037_2_">
			<use xlink:href="#path3037_1_"  overflow="visible"/>
		</clipPath>
		<g clip-path="url(#path3037_2_)">
			<path fill="none" stroke="#231F20" stroke-width="0.4252" d="M48.488,75.422l2.875,5 M43.551,80.422l-2.875-5 M35.738,80.422
				l-2.406-4.186 M52.504,76.56c0,0-5.875-1.688-9.125-2.717c-0.907,0.119-1.75,1.592-3.063,1.717
				c-5.063,0.625-10.482,1.059-10.482,1.059"/>
			<path fill="none" stroke="#231F20" stroke-width="0.4252" d="M62.022,80.422l2.875-5 M72.71,75.422l-2.875,5 M80.054,76.236
				l-2.406,4.186 M83.552,76.618c0,0-5.42-0.434-10.482-1.059c-1.313-0.125-2.155-1.598-3.063-1.717
				c-3.25,1.029-9.125,2.717-9.125,2.717"/>
		</g>
		<g id="belt_buckle" clip-path="url(#path3037_2_)">
			<g>
				<path fill="#606062" d="M61.255,77.969c0,0.779-0.638,1.417-1.417,1.417h-6.29c-0.78,0-1.417-0.638-1.417-1.417V75.3
					c0-0.779,0.638-1.417,1.417-1.417h6.29c0.779,0,1.417,0.638,1.417,1.417V77.969z"/>
				<path fill="none" stroke="#231F20" stroke-width="0.4252" d="M61.255,77.969c0,0.779-0.638,1.417-1.417,1.417h-6.29
					c-0.78,0-1.417-0.638-1.417-1.417V75.3c0-0.779,0.638-1.417,1.417-1.417h6.29c0.779,0,1.417,0.638,1.417,1.417V77.969z"/>
			</g>
			<ellipse fill="#F0F0ED" stroke="#231F20" stroke-width="0.4252" cx="56.693" cy="76.635" rx="2.932" ry="1.75"/>
		</g>
	</g>
</g>
</svg>
