<?xml version="1.0" encoding="utf-8"?>
<!-- Generator: Adobe Illustrator 15.1.0, SVG Export Plug-In . SVG Version: 6.00 Build 0)  -->
<!DOCTYPE svg PUBLIC "-//W3C//DTD SVG 1.1//EN" "http://www.w3.org/Graphics/SVG/1.1/DTD/svg11.dtd">
<svg version="1.1" xmlns="http://www.w3.org/2000/svg" xmlns:xlink="http://www.w3.org/1999/xlink" x="0px" y="0px"
	 width="53.858px" height="70.866px" viewBox="0 0 53.858 70.866" enable-background="new 0 0 53.858 70.866" xml:space="preserve">
<g id="base">
	<path id="torso" inkscape:connector-curvature="0" fill="#003A57" stroke="#231F20" stroke-width="0.3125" d="M0.943,69.842
		C9.675,22.548,6.286,27.163,15.21,26.985h23.44c8.926,0.177,5.535-4.438,14.265,42.856H0.943z"/>
</g>
<g id="design">
	<defs>
		<path id="SVGID_1_" d="M1.352,69.502c1.942-10.538,3.294-18.564,4.285-24.444c2.77-16.441,2.996-17.785,6.343-17.785
			c0.332,0,0.691,0.012,1.084,0.025c0.48,0.016,1.01,0.033,1.597,0.033c0.181,0,0.365-0.002,0.557-0.005h23.434
			c0.184,0.003,0.37,0.005,0.55,0.005c0.587,0,1.116-0.018,1.597-0.033c0.394-0.013,0.753-0.025,1.085-0.025
			c3.348,0,3.574,1.342,6.34,17.771c0.99,5.883,2.342,13.913,4.285,24.458H1.352z"/>
	</defs>
	<clipPath id="SVGID_2_">
		<use xlink:href="#SVGID_1_"  overflow="visible"/>
	</clipPath>
	<path opacity="0.5" clip-path="url(#SVGID_2_)" d="M38.209,55.839c-0.088-0.06-0.207-0.039-0.271,0.045
		c-0.244,0.328-0.716,0.495-1.158,0.639c-0.452,0.14-0.923,0.24-1.396,0.323c-0.949,0.163-1.914,0.259-2.879,0.313
		c-0.965,0.058-1.936,0.054-2.893-0.019c-0.479-0.014-0.954-0.128-1.411-0.276c-0.174-0.056-0.57-0.255-0.599-0.317
		c-0.205-0.319-0.286-0.638-0.257-0.957c-0.02-3.101-0.289-2.892,1.952-4.247c0.771-0.466,1.643-0.479,2.494-0.448
		c0.876,0,1.787,0.001,2.675,0.315c0.891,0.329,1.764,0.743,2.642,1.164c0.056,0.027,0.126,0.014,0.166-0.036
		c0.048-0.06,0.039-0.146-0.02-0.192c-0.767-0.62-1.794-1.357-2.487-1.621c-0.694-0.265-1.86-0.379-2.938-0.476
		c-1.108-0.064-3.049,0.416-3.049,0.416s-1.104,0.341-1.867,0.355c-0.762-0.015-1.867-0.355-1.867-0.355s-1.94-0.48-3.049-0.416
		c-1.077,0.097-2.242,0.211-2.938,0.476c-0.694,0.264-1.721,1.001-2.487,1.621c-0.059,0.047-0.067,0.133-0.02,0.192
		c0.04,0.05,0.11,0.063,0.166,0.036c0.878-0.421,1.751-0.835,2.642-1.164c0.888-0.314,1.799-0.315,2.675-0.315
		c0.852-0.031,1.723-0.018,2.494,0.448c2.242,1.355,1.971,1.146,1.952,4.247c0.03,0.319-0.051,0.638-0.256,0.957
		c-0.028,0.063-0.424,0.262-0.599,0.317c-0.457,0.148-0.933,0.263-1.411,0.276c-0.957,0.072-1.927,0.076-2.892,0.019
		c-0.965-0.054-1.93-0.149-2.879-0.313c-0.474-0.083-0.944-0.184-1.397-0.323c-0.442-0.144-0.914-0.311-1.158-0.639
		c-0.063-0.084-0.183-0.104-0.27-0.045c-0.089,0.063-0.112,0.185-0.05,0.274l0.003,0.005c0.334,0.485,0.853,0.672,1.305,0.877
		c0.47,0.191,0.949,0.339,1.431,0.468c0.965,0.255,1.942,0.442,2.926,0.587c0.984,0.142,1.972,0.257,2.974,0.346
		c0.501,0.022,1.177,0.043,1.526,0.204c0.249,0.114,0.672,0.552,0.727,0.817c0.051,0.319,0.083,0.638,0.125,0.957
		c0.068,0.638,0.061,1.276-0.052,1.914c-0.034,0.319-0.209,0.823-0.436,0.957c-0.875,0.516-4.059,0.368-4.059,0.368
		c-1.409-0.001-2.815-0.225-4.224-0.245c-0.001,0-0.004,0-0.006,0c-0.115,0.002-0.207,0.096-0.205,0.211
		c0.001,0.115,0.14,0.186,0.211,0.205c1.021,0.275,2.811,0.329,4.212,0.414c1.245,0.075,2.705,0.016,3.717,0.355
		c0.316,0.106,0.657,0.356,0.675,0.605c0.05,0.319,0.12,0.638,0.138,0.957c0.051,0.638,0.053,1.276-0.138,1.914
		c-0.028,0.095-0.03,0.197,0,0.299c0.066,0.224,0.275,0.358,0.496,0.362l0,0c0.001,0-0.001,0,0,0s-0.001,0,0,0l0,0
		c0.221-0.004,0.429-0.139,0.496-0.362c0.03-0.102,0.028-0.204,0-0.299c-0.191-0.638-0.189-1.276-0.139-1.914
		c0.018-0.319,0.088-0.638,0.139-0.957c0.018-0.249,0.359-0.499,0.675-0.605c1.013-0.34,2.473-0.28,3.717-0.355
		c1.402-0.085,3.19-0.139,4.212-0.414c0.071-0.02,0.21-0.09,0.211-0.205c0.002-0.115-0.09-0.209-0.205-0.211
		c-0.001,0-0.004,0-0.006,0c-1.407,0.021-2.814,0.244-4.224,0.245c0,0-3.183,0.147-4.059-0.368
		c-0.227-0.134-0.401-0.638-0.437-0.957c-0.113-0.638-0.12-1.276-0.052-1.914c0.041-0.319,0.073-0.638,0.124-0.957
		c0.055-0.266,0.479-0.703,0.727-0.817c0.35-0.161,1.025-0.182,1.527-0.204c1.001-0.089,1.989-0.204,2.974-0.346
		c0.984-0.145,1.961-0.332,2.926-0.587c0.481-0.129,0.961-0.276,1.431-0.468c0.452-0.205,0.971-0.392,1.305-0.877l0.003-0.005
		C38.322,56.023,38.298,55.901,38.209,55.839z"/>
	<g clip-path="url(#SVGID_2_)">
		<g>
			<path fill="#ED1C24" stroke="#000000" stroke-width="0.4252" stroke-linejoin="round" d="M31.641,72.551l-0.667-6.333
				c0,0,1.976-0.92,3.667-1.667c1-0.441,1.583-2.095,3.133-2.508c1.149-0.307,3.641-0.956,4.393-1.825
				c2.666-3.084,1.975-6.416,1.975-6.416l-7.691-3.476l0.666-1.525l13.192,2.417l0.712,2.654l-3.161,0.531
				c0,0-2.608,10.689-2.742,17.511C42.713,74.075,31.641,72.551,31.641,72.551z"/>
			<g>
				
					<rect x="45.442" y="67.618" transform="matrix(0.9954 0.0956 -0.0956 0.9954 6.7705 -4.5595)" fill="#ED1C24" stroke="#000000" stroke-width="0.4252" stroke-linejoin="round" width="11.041" height="1.5"/>
				
					<rect x="45.957" y="63.805" transform="matrix(0.9927 0.121 -0.121 0.9927 8.1872 -5.7524)" fill="#ED1C24" stroke="#000000" stroke-width="0.4252" stroke-linejoin="round" width="11.027" height="1.498"/>
				
					<rect x="46.608" y="59.991" transform="matrix(0.9872 0.1592 -0.1592 0.9872 10.3373 -7.5247)" fill="#ED1C24" stroke="#000000" stroke-width="0.4252" stroke-linejoin="round" width="11.026" height="1.497"/>
				
					<rect x="47.392" y="56.318" transform="matrix(0.9835 0.1808 -0.1808 0.9835 11.1887 -8.6255)" fill="#ED1C24" stroke="#000000" stroke-width="0.4252" stroke-linejoin="round" width="11.041" height="1.499"/>
			</g>
			<circle cx="37.762" cy="49.89" r="0.328"/>
		</g>
		<g>
			<path fill="#ED1C24" stroke="#000000" stroke-width="0.4252" stroke-linejoin="round" d="M22.22,72.55l0.667-6.332
				c0,0-1.976-0.92-3.668-1.668c-1-0.441-1.583-2.094-3.134-2.508c-1.15-0.307-3.642-0.955-4.394-1.824
				c-2.667-3.084-1.976-6.416-1.976-6.416l7.694-3.477l-0.667-1.524L3.547,51.218l-0.712,2.654l3.162,0.531
				c0,0,2.609,10.689,2.743,17.51C11.144,74.075,22.22,72.55,22.22,72.55z"/>
			<g>
				
					<rect x="-2.628" y="67.617" transform="matrix(-0.9954 0.0955 -0.0955 -0.9954 12.3039 136.1454)" fill="#ED1C24" stroke="#000000" stroke-width="0.4252" stroke-linejoin="round" width="11.042" height="1.501"/>
				
					<rect x="-3.129" y="63.805" transform="matrix(-0.9927 0.121 -0.121 -0.9927 12.5615 128.3449)" fill="#ED1C24" stroke="#000000" stroke-width="0.4252" stroke-linejoin="round" width="11.028" height="1.497"/>
				
					<rect x="-3.779" y="59.99" transform="matrix(-0.9872 0.1592 -0.1592 -0.9872 13.1189 120.4274)" fill="#ED1C24" stroke="#000000" stroke-width="0.4252" stroke-linejoin="round" width="11.027" height="1.498"/>
				
					<rect x="-4.578" y="56.317" transform="matrix(-0.9835 0.1808 -0.1808 -0.9835 12.1869 113.0221)" fill="#ED1C24" stroke="#000000" stroke-width="0.4252" stroke-linejoin="round" width="11.042" height="1.499"/>
			</g>
			<circle cx="16.107" cy="49.89" r="0.328"/>
		</g>
	</g>
	<g clip-path="url(#SVGID_2_)">
		<ellipse fill="#EFF0ED" cx="26.929" cy="65.56" rx="4.407" ry="3.658"/>
		<path fill="#605F61" stroke="#000000" stroke-width="0.2835" d="M26.929,69.718c-2.706,0-4.908-1.865-4.908-4.158
			s2.202-4.158,4.908-4.158s4.907,1.865,4.907,4.158S29.635,69.718,26.929,69.718z M26.929,62.401c-2.155,0-3.908,1.417-3.908,3.158
			s1.753,3.158,3.908,3.158c2.154,0,3.907-1.417,3.907-3.158S29.083,62.401,26.929,62.401z"/>
		<g>
			<path fill="#A2A1A3" d="M23.448,65.613c-0.07-0.255,0.003-0.483,0.055-0.723c0.087-0.217,0.204-0.418,0.33-0.612
				c0.256-0.389,0.616-0.663,0.981-0.897c0.38-0.213,0.772-0.39,1.201-0.456c0.214-0.032,0.426-0.062,0.639-0.079
				c0.227,0.021,0.439,0.009,0.673,0.072l0.032,0.096c-0.754,0.264-1.494,0.574-2.173,0.989c-0.343,0.199-0.67,0.428-0.962,0.693
				c-0.285,0.266-0.561,0.578-0.678,0.938L23.448,65.613z"/>
		</g>
	</g>
	<path clip-path="url(#SVGID_2_)" fill="#605F61" stroke="#231F20" stroke-width="0.3125" d="M43.76,25.71H10.097
		c0,0-0.251,5.505,0.833,5.478c13.917-0.332,15.998,4.417,15.998,4.417s2.082-4.75,15.999-4.417
		C44.011,31.215,43.76,25.71,43.76,25.71z"/>
	<path opacity="0.5" clip-path="url(#SVGID_2_)" d="M47.066,44.864c-0.146-0.119-0.548,0.708-1.86,1.012
		c-0.76,0.175-1.218,0.275-1.316-0.039c-0.229-0.752,1.632-1.445,2.656-2.114c0.373-0.729,0.114-2.632,0.042-2.815
		c-1.14,1.977-3.621,2.955-3.734,3.05c-0.023,0.019-3.136,1.021-6.553,1.124c-2.217,0.067-4.095,0.156-5.211,0.025
		c-1.437-0.169-1.926-0.293-2.317-0.762c-0.222-0.266-0.238-0.446-0.083-0.866c0.022-0.059,0.092-0.117,0.077-0.193
		c-0.015-0.099-0.134-0.148-0.203-0.22c-0.336-0.348-0.693-0.661-0.773-0.964c-0.125-0.479-0.232-0.999-0.324-1.542
		c-0.08-0.474-0.17-2.706-0.215-3.323c-0.045-0.627,0.283-2.683,0.211-3.139c-0.063-0.394,0.701-1.56,1.202-2.054
		c1.124-1.108,6.056-2.548,9.27-2.957c5.845-0.744,6.471,0.593,6.66,0.124c0.147-0.359-1.45-1.177-6.072-1.034
		c-0.301,0.01-1.495,0.36-1.658,0.305c-0.351-0.118-0.887-0.665-1.026-0.557c-0.229,0.18,0.028,0.494-0.083,0.766
		c-0.085,0.21-0.334,0.293-0.574,0.231c-0.364-0.094-1.048-0.897-1.243-0.855c-0.232,0.051-0.441,0.907-0.689,1.124
		c-0.35,0.306-1.292,0.35-1.854,0.133c-0.233-0.089-0.298,0.047-0.157-0.489c0.142-0.536,0.583-1.119,0.311-1.273
		c-0.078-0.043-1.748,0.066-1.767,0.388c-0.015,0.247,0.475,0.124,0.558,0.348c0.143,0.38-0.24,1.044-0.485,1.289
		c-0.381,0.377-1.741,1.168-1.789,1.177c-0.524,0.106-1.133,0.137-1.133,0.137s-0.609-0.03-1.131-0.137
		c-0.049-0.009-1.409-0.8-1.79-1.177c-0.247-0.244-0.628-0.908-0.487-1.289c0.083-0.224,0.573-0.101,0.559-0.348
		c-0.019-0.321-1.689-0.431-1.767-0.388c-0.272,0.154,0.167,0.737,0.309,1.273c0.142,0.536,0.076,0.4-0.157,0.489
		c-0.563,0.217-1.505,0.173-1.854-0.133c-0.25-0.217-0.458-1.073-0.692-1.124c-0.192-0.042-0.876,0.761-1.24,0.855
		c-0.241,0.062-0.49-0.021-0.575-0.231c-0.11-0.272,0.147-0.586-0.083-0.766c-0.138-0.107-0.675,0.439-1.026,0.557
		c-0.164,0.055-1.358-0.295-1.659-0.305c-4.621-0.144-6.219,0.674-6.071,1.034c0.191,0.469,0.815-0.868,6.659-0.124
		c3.214,0.409,8.147,1.849,9.271,2.957c0.502,0.494,1.266,1.661,1.203,2.054c-0.074,0.457,0.256,2.512,0.21,3.139
		c-0.046,0.617-0.135,2.85-0.215,3.323c-0.092,0.543-0.199,1.063-0.324,1.542c-0.08,0.304-0.438,0.617-0.773,0.964
		c-0.069,0.071-0.188,0.121-0.204,0.22c-0.013,0.076,0.055,0.135,0.077,0.193c0.157,0.42,0.139,0.601-0.083,0.866
		c-0.39,0.467-0.88,0.593-2.317,0.762c-1.116,0.131-2.995,0.042-5.21-0.025c-3.417-0.104-6.529-1.105-6.553-1.124
		c-0.113-0.095-2.596-1.073-3.735-3.05c-0.072,0.184-0.331,2.087,0.042,2.815c1.024,0.669,2.887,1.362,2.655,2.114
		c-0.097,0.314-0.556,0.214-1.315,0.039c-1.313-0.304-1.716-1.132-1.859-1.012c-0.199,0.162,0.056,1.344,1.314,1.727
		c0.797,0.241,2.788,0.107,2.788,0.107c0.002-0.068,0.974,0.74,1.971,1.235c1.05,0.519,2.079,0.808,2.132,0.654
		c0.091-0.272-0.955-0.477-1.94-1.085c-1.049-0.647-1.367-1.115-1.363-1.167c0.009-0.181,2.889,0.019,6.099,0.105
		c2.196,0.06,3.917-0.009,5.218-0.343c1.475-0.378,2.407-1.05,2.876-1.401c0.032-0.025,0.31-0.198,0.566-0.044
		c0.239,0.145,0.475,0.616,0.475,0.616s0.236-0.472,0.475-0.616c0.258-0.154,0.535,0.02,0.57,0.045
		c0.467,0.351,1.399,1.022,2.873,1.4c1.3,0.334,3.021,0.403,5.218,0.343c3.209-0.087,6.088-0.286,6.099-0.105
		c0.004,0.053-0.313,0.519-1.362,1.167c-0.985,0.608-2.031,0.813-1.94,1.085c0.053,0.154,1.081-0.135,2.132-0.654
		c0.996-0.495,1.969-1.303,1.972-1.236c0,0,1.99,0.135,2.787-0.106C47.008,46.208,47.265,45.026,47.066,44.864z"/>
	<g clip-path="url(#SVGID_2_)">
		<ellipse fill="#EFF0ED" cx="26.929" cy="33.764" rx="3.573" ry="2.804"/>
		<path fill="#605F61" stroke="#000000" stroke-width="0.2835" d="M26.929,37.067c-2.246,0-4.074-1.482-4.074-3.304
			s1.828-3.304,4.074-3.304s4.073,1.482,4.073,3.304S29.175,37.067,26.929,37.067z M26.929,31.46c-1.695,0-3.074,1.033-3.074,2.304
			s1.379,2.304,3.074,2.304c1.694,0,3.073-1.033,3.073-2.304S28.624,31.46,26.929,31.46z"/>
		<g>
			<path fill="#A2A1A3" d="M24.287,33.717c0.011-0.222,0.108-0.387,0.186-0.576c0.103-0.162,0.224-0.305,0.348-0.451
				c0.252-0.289,0.579-0.467,0.907-0.62c0.34-0.128,0.69-0.221,1.058-0.209c0.184,0.008,0.366,0.024,0.545,0.043
				c0.188,0.066,0.366,0.095,0.551,0.201l0.016,0.099c-0.65,0.108-1.288,0.282-1.892,0.537c-0.602,0.245-1.197,0.568-1.64,1.04
				L24.287,33.717z"/>
		</g>
	</g>
	<g clip-path="url(#SVGID_2_)">
		<g id="shoulder_1_">
			<path fill="#ED1C24" stroke="#000000" stroke-width="0.4252" stroke-linejoin="round" stroke-miterlimit="10" d="M-0.107,30.56
				c0,0,9.774,2.616,15.693,1.7c0.167-3.083,2.752-7.809,2.752-7.809l-16.39,0.025L-0.107,30.56z"/>
			<path id="shadow_1_" opacity="0.5" stroke="#000000" stroke-width="0.6641" stroke-linejoin="round" d="M17.606,32.951
				c0,0-2.094-2.39-5.158-2.046c-0.033-2.525-2.308-4.345-2.308-4.345 M18.811,36.791l0.406,2.927l1.874-0.092"/>
			<path fill="#ED1C24" stroke="#000000" stroke-width="0.4252" stroke-linejoin="round" stroke-miterlimit="10" d="M19.154,24.134
				c-1.652,2.668,1.609,8.75,1.609,8.75l0.367,6.358l-1.735,0.013c0,0-0.573-2.538-1.666-5.958
				c-1.652-2.853-5.106-2.769-5.106-2.769s-0.135-2.369-2.154-4.029C11.498,24.87,19.154,24.134,19.154,24.134z"/>
			<circle cx="20.186" cy="38.436" r="0.328"/>
		</g>
		<g id="shoulder">
			<path fill="#ED1C24" stroke="#000000" stroke-width="0.4252" stroke-linejoin="round" stroke-miterlimit="10" d="M53.962,30.56
				c0,0-9.771,2.616-15.688,1.7c-0.167-3.083-2.751-7.809-2.751-7.809l16.384,0.025L53.962,30.56z"/>
			<path id="shadow" opacity="0.5" stroke="#000000" stroke-width="0.6641" stroke-linejoin="round" d="M43.719,26.56
				c0,0-2.274,1.82-2.308,4.345c-3.063-0.344-5.156,2.046-5.156,2.046 M32.772,39.626l1.873,0.092l0.406-2.927"/>
			<path fill="#ED1C24" stroke="#000000" stroke-width="0.4252" stroke-linejoin="round" stroke-miterlimit="10" d="M34.708,24.134
				c1.651,2.668-1.608,8.75-1.608,8.75l-0.366,6.358l1.734,0.013c0,0,0.573-2.538,1.665-5.958c1.651-2.853,5.104-2.769,5.104-2.769
				s0.135-2.369,2.153-4.029C42.362,24.87,34.708,24.134,34.708,24.134z"/>
			<circle cx="33.654" cy="38.436" r="0.328"/>
		</g>
	</g>
	<path id="path7" inkscape:connector-curvature="0" opacity="0.25" clip-path="url(#SVGID_2_)" d="M45.231,62.018
		c-0.354-0.321-1.011,0.564-1.563,2.917c-0.641,2.721-1.515,4.367-1.41,5.066c0.86,0.054,0.98,0.066,1.947,0.033
		C44.369,67.441,45.444,62.212,45.231,62.018z"/>
	<path id="path7_1_" inkscape:connector-curvature="0" opacity="0.25" clip-path="url(#SVGID_2_)" d="M9.654,70.034
		c0.966,0.033,1.086,0.021,1.947-0.033c0.104-0.699-0.77-2.346-1.41-5.066c-0.553-2.353-1.21-3.238-1.563-2.917
		C8.414,62.212,9.489,67.441,9.654,70.034z"/>
</g>
<g id="head">
	<path id="path3081" inkscape:connector-curvature="0" fill="#A2A1A3" d="M53.33,22.194H0.528V0.804H53.33V22.194L53.33,22.194z"/>
	<g>
		<defs>
			<path id="path3081_1_" inkscape:connector-curvature="0" d="M82.201,21.98H-28.343V1.018H82.201V21.98L82.201,21.98z"/>
		</defs>
		<clipPath id="path3081_2_">
			<use xlink:href="#path3081_1_"  overflow="visible"/>
		</clipPath>
		<g clip-path="url(#path3081_2_)">
			<g>
				<g>
					<path opacity="0.7" fill="#E3E2DB" d="M18.907,9.342c0.075-0.952,0.551-1.471,0.866-1.814c0.121-0.132,0.226-0.246,0.267-0.34
						c0.181-0.411-0.034-1.763-0.132-2.249c-0.015-0.07,0.025-0.14,0.094-0.162c0.066-0.021,0.142,0.009,0.173,0.073
						c0.184,0.383,0.746,1.417,1.135,1.591c0.107,0.048,0.28,0.091,0.499,0.144c1.16,0.283,3.433,0.73,4.517,4.49
						c0.012,0.042-2.459,1.128-4.293,1.128c-0.95,0-1.662-0.18-2.116-0.534C18.835,10.827,18.87,9.68,18.907,9.342z"/>
					<g>
						<path fill="#ED1C24" stroke="#000000" stroke-width="0.4252" d="M19.513,8.992c-0.433,1.331,0.355,2.82,2.457,3.502
							c2.102,0.681,4.445-0.327,4.445-0.327s-0.796-3.407-2.882-4.351C21.52,6.906,19.945,7.661,19.513,8.992z"/>
						<circle fill="#EFF0ED" cx="21.969" cy="9.301" r="0.521"/>
					</g>
					<g>
						<path fill="#605F61" d="M22.505,19.665l-1.004-4.6l-0.01-0.044l-0.025-0.034L18.493,10.9c-0.034-0.046-0.1-0.057-0.146-0.023
							c-0.045,0.032-0.054,0.096-0.026,0.142l2.596,4.348l-0.066-0.149l1.349,4.519l0.002,0.006
							c0.024,0.083,0.112,0.131,0.196,0.106C22.476,19.826,22.523,19.745,22.505,19.665z"/>
					</g>
					<g>
						<path opacity="0.3" fill="#003A57" d="M12.577,7.893l0.692-0.153c-0.01-0.043-0.936-4.398,1.517-6.964L14.24,0.424
							C11.523,3.266,12.534,7.7,12.577,7.893z"/>
						<path fill="#E3E2DB" stroke="#000000" stroke-width="0.4252" stroke-linejoin="round" d="M19.731,18.066l-2.147-2.477
							l-2.216-3.814c-0.304-0.503-0.957-0.665-1.46-0.361c-0.502,0.303-0.664,0.957-0.36,1.459c0.007,0.012,0.016,0.026,0.023,0.038
							l2.501,3.778l3.419,1.681c0.099,0.048,0.217,0.007,0.265-0.09C19.791,18.208,19.779,18.124,19.731,18.066z"/>
						<path fill="#A2A1A3" stroke="#000000" stroke-width="0.2835" d="M12.485,8.134l0.635-0.316
							c-0.021-0.04-1.975-4.04-0.218-7.125l-0.615-0.209C10.34,3.901,12.397,7.958,12.485,8.134z"/>
						<circle fill="#605F61" stroke="#000000" stroke-width="0.4252" cx="13.068" cy="10.313" r="2.542"/>
						<circle fill="#605F61" stroke="#000000" stroke-width="0.4252" cx="13.069" cy="10.313" r="1.541"/>
					</g>
					<g>
						<path fill="#A2A1A3" stroke="#231F20" stroke-width="0.3125" d="M26.929,16.557c-1.887,0-3.416,1.045-3.416,2.333
							s1.529,2.333,3.416,2.333"/>
						
							<line fill="none" stroke="#605F61" stroke-width="0.3125" stroke-linecap="round" x1="26.414" y1="20.285" x2="26.272" y2="17.51"/>
						
							<line fill="none" stroke="#605F61" stroke-width="0.3125" stroke-linecap="round" x1="25.623" y1="20.001" x2="25.339" y2="17.81"/>
						
							<line fill="none" stroke="#605F61" stroke-width="0.3125" stroke-linecap="round" x1="24.789" y1="19.785" x2="24.505" y2="18.368"/>
					</g>
				</g>
			</g>
			<g>
				<g>
					<path opacity="0.7" fill="#E3E2DB" d="M34.952,9.342c-0.075-0.952-0.551-1.471-0.866-1.814
						c-0.121-0.132-0.226-0.246-0.267-0.34c-0.181-0.411,0.034-1.763,0.132-2.249c0.015-0.07-0.025-0.14-0.094-0.162
						c-0.066-0.021-0.142,0.009-0.173,0.073c-0.184,0.383-0.746,1.417-1.135,1.591c-0.107,0.048-0.28,0.091-0.499,0.144
						c-1.16,0.283-3.433,0.73-4.517,4.49c-0.012,0.042,2.459,1.128,4.293,1.128c0.95,0,1.662-0.18,2.116-0.534
						C35.023,10.827,34.989,9.68,34.952,9.342z"/>
					<g>
						<path fill="#ED1C24" stroke="#000000" stroke-width="0.4252" d="M34.345,8.992c0.433,1.331-0.355,2.82-2.457,3.502
							c-2.102,0.681-4.445-0.327-4.445-0.327s0.796-3.407,2.882-4.351C32.338,6.906,33.914,7.661,34.345,8.992z"/>
						<circle fill="#EFF0ED" cx="31.889" cy="9.301" r="0.521"/>
					</g>
					<g>
						<path fill="#605F61" d="M31.353,19.665l1.004-4.6l0.01-0.044l0.025-0.034l2.974-4.087c0.034-0.046,0.1-0.057,0.146-0.023
							c0.045,0.032,0.054,0.096,0.026,0.142l-2.596,4.348l0.066-0.149l-1.349,4.519l-0.002,0.006
							c-0.024,0.083-0.112,0.131-0.196,0.106C31.382,19.826,31.335,19.745,31.353,19.665z"/>
					</g>
					<g>
						<path opacity="0.3" fill="#003A57" d="M41.282,7.893L40.589,7.74c0.01-0.043,0.936-4.398-1.517-6.964l0.546-0.352
							C42.335,3.266,41.325,7.7,41.282,7.893z"/>
						<path fill="#E3E2DB" stroke="#000000" stroke-width="0.4252" stroke-linejoin="round" d="M34.127,18.066l2.147-2.477
							l2.216-3.814c0.304-0.503,0.957-0.665,1.46-0.361c0.502,0.303,0.664,0.957,0.36,1.459c-0.007,0.012-0.016,0.026-0.023,0.038
							l-2.501,3.778l-3.419,1.681c-0.099,0.048-0.217,0.007-0.265-0.09C34.068,18.208,34.08,18.124,34.127,18.066z"/>
						<path fill="#A2A1A3" stroke="#000000" stroke-width="0.2835" d="M41.374,8.134l-0.635-0.316
							c0.021-0.04,1.975-4.04,0.218-7.125l0.615-0.209C43.518,3.901,41.461,7.958,41.374,8.134z"/>
						<circle fill="#605F61" stroke="#000000" stroke-width="0.4252" cx="40.79" cy="10.313" r="2.542"/>
						<circle fill="#605F61" stroke="#000000" stroke-width="0.4252" cx="40.79" cy="10.313" r="1.541"/>
					</g>
					<g>
						<path fill="#A2A1A3" stroke="#231F20" stroke-width="0.3125" d="M26.929,16.557c1.887,0,3.416,1.045,3.416,2.333
							s-1.529,2.333-3.416,2.333"/>
						
							<line fill="none" stroke="#605F61" stroke-width="0.3125" stroke-linecap="round" x1="27.444" y1="20.285" x2="27.586" y2="17.51"/>
						
							<line fill="none" stroke="#605F61" stroke-width="0.3125" stroke-linecap="round" x1="28.236" y1="20.001" x2="28.519" y2="17.81"/>
						
							<line fill="none" stroke="#605F61" stroke-width="0.3125" stroke-linecap="round" x1="29.07" y1="19.785" x2="29.353" y2="18.368"/>
					</g>
				</g>
			</g>
		</g>
		<path clip-path="url(#path3081_2_)" fill="none" stroke="#67879D" stroke-width="0.1984" stroke-linejoin="round" d="
			M41.543,0.708"/>
	</g>
</g>
</svg>
