<?xml version="1.0" encoding="UTF-8" standalone="no"?>
<!-- Created with Inkscape (http://www.inkscape.org/) -->

<svg
   xmlns:dc="http://purl.org/dc/elements/1.1/"
   xmlns:cc="http://creativecommons.org/ns#"
   xmlns:rdf="http://www.w3.org/1999/02/22-rdf-syntax-ns#"
   xmlns:svg="http://www.w3.org/2000/svg"
   xmlns="http://www.w3.org/2000/svg"
   xmlns:xlink="http://www.w3.org/1999/xlink"
   xmlns:sodipodi="http://sodipodi.sourceforge.net/DTD/sodipodi-0.dtd"
   xmlns:inkscape="http://www.inkscape.org/namespaces/inkscape"
   width="113.09375"
   height="74.68811"
   id="svg2"
   version="1.1"
   inkscape:version="0.48.2 r9819"
   sodipodi:docname="minifig_template.svg">
  <defs
     id="defs4">
    <linearGradient
       inkscape:collect="always"
       id="linearGradient3879">
      <stop
         style="stop-color:#e29b3f;stop-opacity:1;"
         offset="0"
         id="stop3881" />
      <stop
         style="stop-color:#e29b3f;stop-opacity:0;"
         offset="1"
         id="stop3883" />
    </linearGradient>
    <linearGradient
       inkscape:collect="always"
       id="linearGradient4011">
      <stop
         style="stop-color:#ffffff;stop-opacity:1;"
         offset="0"
         id="stop4013" />
      <stop
         style="stop-color:#ffffff;stop-opacity:0;"
         offset="1"
         id="stop4015" />
    </linearGradient>
    <linearGradient
       inkscape:collect="always"
       id="linearGradient3997">
      <stop
         style="stop-color:#ffffff;stop-opacity:1;"
         offset="0"
         id="stop3999" />
      <stop
         style="stop-color:#ffffff;stop-opacity:0;"
         offset="1"
         id="stop4001" />
    </linearGradient>
    <inkscape:path-effect
       effect="skeletal"
       id="path-effect4237"
       is_visible="true"
       pattern="M 0,5 C 0,2.24 2.24,0 5,0 7.76,0 10,2.24 10,5 10,7.76 7.76,10 5,10 2.24,10 0,7.76 0,5 z"
       copytype="single_stretched"
       prop_scale="1"
       scale_y_rel="false"
       spacing="0"
       normal_offset="0"
       tang_offset="0"
       prop_units="false"
       vertical_pattern="false"
       fuse_tolerance="0" />
    <clipPath
       id="clipPath2999"
       clipPathUnits="userSpaceOnUse">
      <path
         id="path3001"
         d="M 0,792 612,792 612,0 0,0 0,792 z"
         inkscape:connector-curvature="0" />
    </clipPath>
    <radialGradient
       gradientUnits="userSpaceOnUse"
       gradientTransform="matrix(0.75988491,-0.03632001,0.13155835,2.7524547,16.986326,-78.268899)"
       r="12.650181"
       fy="46.658409"
       fx="96.306435"
       cy="46.658409"
       cx="96.306435"
       id="radialGradient3972"
       xlink:href="#linearGradient3966"
       inkscape:collect="always" />
    <clipPath
       clipPathUnits="userSpaceOnUse"
       id="clipPath2999-4">
      <path
         inkscape:connector-curvature="0"
         d="M 0,792 612,792 612,0 0,0 0,792 z"
         id="path3001-0" />
    </clipPath>
    <linearGradient
       id="linearGradient3966">
      <stop
         id="stop3968"
         offset="0"
         style="stop-color:#c0ac02;stop-opacity:1;" />
      <stop
         id="stop3970"
         offset="1"
         style="stop-color:#fdea41;stop-opacity:0;" />
    </linearGradient>
    <radialGradient
       inkscape:collect="always"
       xlink:href="#linearGradient3997"
       id="radialGradient4003"
       cx="165.81134"
       cy="47.693741"
       fx="165.81134"
       fy="47.693741"
       r="3.8123069"
       gradientTransform="matrix(0.64374811,-0.18781617,0.31213841,1.069868,43.640483,27.15595)"
       gradientUnits="userSpaceOnUse" />
    <radialGradient
       inkscape:collect="always"
       xlink:href="#linearGradient3997"
       id="radialGradient4007"
       gradientUnits="userSpaceOnUse"
       gradientTransform="matrix(-0.64374811,-0.18781617,-0.31213841,1.069868,293.73143,27.15595)"
       cx="165.81134"
       cy="47.693741"
       fx="165.81134"
       fy="47.693741"
       r="3.8123069" />
    <radialGradient
       inkscape:collect="always"
       xlink:href="#linearGradient4011"
       id="radialGradient4017"
       cx="169.32254"
       cy="41.784931"
       fx="169.32254"
       fy="41.784931"
       r="6.982676"
       gradientTransform="matrix(0.31036379,-0.01814613,0.03701409,0.63307367,114.75293,21.468668)"
       gradientUnits="userSpaceOnUse" />
    <linearGradient
       id="linearGradient3966-2">
      <stop
         style="stop-color:#c0ac02;stop-opacity:1;"
         offset="0"
         id="stop3968-4" />
      <stop
         style="stop-color:#fdea41;stop-opacity:0;"
         offset="1"
         id="stop3970-5" />
    </linearGradient>
    <clipPath
       id="clipPath2999-4-8"
       clipPathUnits="userSpaceOnUse">
      <path
         id="path3001-0-8"
         d="M 0,792 612,792 612,0 0,0 0,792 z"
         inkscape:connector-curvature="0" />
    </clipPath>
    <radialGradient
       inkscape:collect="always"
       xlink:href="#linearGradient3966-2"
       id="radialGradient3972-4"
       cx="96.306435"
       cy="46.658409"
       fx="96.306435"
       fy="46.658409"
       r="12.650181"
       gradientTransform="matrix(0.75988491,-0.03632001,0.13155835,2.7524547,16.986326,-78.268899)"
       gradientUnits="userSpaceOnUse" />
    <clipPath
       clipPathUnits="userSpaceOnUse"
       id="clipPath2999-0">
      <path
         inkscape:connector-curvature="0"
         d="M 0,792 612,792 612,0 0,0 0,792 z"
         id="path3001-9" />
    </clipPath>
    <inkscape:path-effect
       fuse_tolerance="0"
       vertical_pattern="false"
       prop_units="false"
       tang_offset="0"
       normal_offset="0"
       spacing="0"
       scale_y_rel="false"
       prop_scale="1"
       copytype="single_stretched"
       pattern="M 0,5 C 0,2.24 2.24,0 5,0 7.76,0 10,2.24 10,5 10,7.76 7.76,10 5,10 2.24,10 0,7.76 0,5 z"
       is_visible="true"
       id="path-effect4237-4"
       effect="skeletal" />
    <radialGradient
       inkscape:collect="always"
       xlink:href="#linearGradient3879"
       id="radialGradient3885"
       cx="169.24033"
       cy="68.368683"
       fx="169.24033"
       fy="68.368683"
       r="7.4043865"
       gradientTransform="matrix(0.63011457,0,0,0.3389474,62.599531,45.195295)"
       gradientUnits="userSpaceOnUse" />
    <mask
       maskUnits="userSpaceOnUse"
       id="mask3993">
      <path
         id="path3995"
         style="fill:#ffffff;fill-opacity:1;stroke:#231f20;stroke-width:0.3088592;stroke-linecap:butt;stroke-linejoin:miter;stroke-miterlimit:4;stroke-opacity:1;stroke-dasharray:none;display:inline"
         d="m 197.33622,74.54469 c 8.53021,-47.29375 5.21874,-42.67875 13.93699,-42.85625 l 22.89701,0 c 8.71947,0.1775 5.40678,-4.4375 13.93454,42.85625 l -50.76854,0 z"
         inkscape:connector-curvature="0" />
    </mask>
  </defs>
  <sodipodi:namedview
     id="base"
     pagecolor="#ffffff"
     bordercolor="#666666"
     borderopacity="1.0"
     inkscape:pageopacity="0.0"
     inkscape:pageshadow="2"
     inkscape:zoom="3.0696785"
     inkscape:cx="75.978174"
     inkscape:cy="5.2585177"
     inkscape:document-units="px"
     inkscape:current-layer="layer4"
     showgrid="false"
     fit-margin-top="0"
     fit-margin-left="0"
     fit-margin-right="0"
     fit-margin-bottom="0"
     inkscape:window-width="1600"
     inkscape:window-height="848"
     inkscape:window-x="-8"
     inkscape:window-y="-8"
     inkscape:window-maximized="1"
     showguides="true"
     inkscape:guide-bbox="true"
     inkscape:snap-global="false">
    <sodipodi:guide
       orientation="0,1"
       position="12.31258,21.518409"
       id="guide3274" />
    <sodipodi:guide
       orientation="1,0"
       position="27.16284,26.635111"
       id="guide3960" />
  </sodipodi:namedview>
  <metadata
     id="metadata7">
    <rdf:RDF>
      <cc:Work
         rdf:about="">
        <dc:format>image/svg+xml</dc:format>
        <dc:type
           rdf:resource="http://purl.org/dc/dcmitype/StillImage" />
        <dc:title></dc:title>
      </cc:Work>
    </rdf:RDF>
  </metadata>
  <g
     inkscape:groupmode="layer"
     id="layer3"
     inkscape:label="batgirl"
     transform="translate(-141.73687,6.1e-4)">
    <g
       inkscape:groupmode="layer"
       id="layer7"
       inkscape:label="torso"
       sodipodi:insensitive="true">
      <path
         transform="translate(-218.16938,-378.37561)"
         id="path4124"
         style="fill:#a3a2a4;stroke:#231f20;stroke-width:0.3125;stroke-linecap:butt;stroke-linejoin:miter;stroke-miterlimit:4;stroke-opacity:1;stroke-dasharray:none;display:inline"
         d="m 361.13813,452.9203 c 8.7325,-47.29375 5.3425,-42.67875 14.2675,-42.85625 l 23.44,0 c 8.92625,0.1775 5.535,-4.4375 14.265,42.85625 l -51.9725,0 z"
         inkscape:connector-curvature="0" />
      <path
         inkscape:connector-curvature="0"
         d="m 196.73312,74.54469 c 8.7325,-47.29375 5.3425,-42.67875 14.2675,-42.85625 l 23.44,0 c 8.92625,0.1775 5.535,-4.4375 14.265,42.85625 l -51.9725,0 z"
         style="fill:#a3a2a4;stroke:#231f20;stroke-width:0.3125;stroke-linecap:butt;stroke-linejoin:miter;stroke-miterlimit:4;stroke-opacity:1;stroke-dasharray:none;display:inline"
         id="path3927" />
      <path
         transform="translate(-218.16938,-378.37561)"
         inkscape:connector-curvature="0"
         d="m 472.85294,399.93655 -112.8,0 0,-21.39125 112.8,0 0,21.39125 z"
         style="fill:#fdc97d;stroke:#231f20;stroke-width:0.3125;stroke-linecap:butt;stroke-linejoin:miter;stroke-miterlimit:4;stroke-opacity:1;stroke-dasharray:none;display:inline"
         id="path3081" />
    </g>
    <g
       inkscape:groupmode="layer"
       id="layer6"
       inkscape:label="suitlines"
       sodipodi:insensitive="true">
      <g
         id="g3903"
         transform="translate(-0.632575,0)"
         style="fill:#6d6e6c">
        <path
           sodipodi:nodetypes="ccccc"
           inkscape:connector-curvature="0"
           id="path3895"
           d="m 168.45739,45.872168 c -4.40535,2.992759 -8.22041,4.09152 -14.88693,2.091519 -1.06991,-0.406369 -1.34315,0.272962 -0.47237,0.617542 6.71116,2.015724 12.23762,0.924388 16.49337,-1.586187 z"
           style="font-size:medium;font-style:normal;font-variant:normal;font-weight:normal;font-stretch:normal;text-indent:0;text-align:start;text-decoration:none;line-height:normal;letter-spacing:normal;word-spacing:normal;text-transform:none;direction:ltr;block-progression:tb;writing-mode:lr-tb;text-anchor:start;baseline-shift:baseline;color:#000000;fill:#635f61;fill-opacity:1;stroke:none;stroke-width:1px;marker:none;visibility:visible;display:inline;overflow:visible;enable-background:accumulate;font-family:Sans;-inkscape-font-specification:Sans" />
        <use
           height="147.96875"
           width="289.36462"
           transform="matrix(-1,0,0,1,339.17515,0)"
           id="use3901"
           xlink:href="#path3895"
           y="0"
           x="0"
           style="fill:#6d6e6c" />
      </g>
      <g
         id="g3917"
         transform="translate(-0.02731,0)">
        <path
           sodipodi:nodetypes="csscc"
           inkscape:connector-curvature="0"
           id="path3911"
           d="m 158.13252,31.738852 c -0.33625,4.230542 -3.24975,5.320495 -3.75623,9.703336 -0.7769,6.722953 1.48008,6.295812 1.15447,13.348104 -0.32,6.930777 -2.8604,6.688276 -4.61394,10.394592 -1.21098,3.450695 -1.87181,9.23088 -1.87181,9.23088"
           style="fill:none;stroke:#635f61;stroke-width:1px;stroke-linecap:butt;stroke-linejoin:miter;stroke-opacity:1" />
        <use
           height="147.96875"
           width="289.36462"
           transform="matrix(-1,0,0,1,337.96462,0)"
           id="use3915"
           xlink:href="#path3911"
           y="0"
           x="0" />
      </g>
      <g
         transform="translate(53.737064,0)"
         id="g3935">
        <path
           style="fill:none;stroke:#635f61;stroke-width:1px;stroke-linecap:butt;stroke-linejoin:miter;stroke-opacity:1"
           d="m 158.13252,31.738852 c -5.68484,9.7194 -2.37284,16.418583 -2.60176,23.05144 -0.32,6.930777 -2.8604,6.688276 -4.61394,10.394592 -1.21098,3.450695 -1.87181,9.23088 -1.87181,9.23088"
           id="path3937"
           inkscape:connector-curvature="0"
           sodipodi:nodetypes="cccc" />
        <path
           style="fill:none;stroke:#635f61;stroke-width:1px;stroke-linecap:butt;stroke-linejoin:miter;stroke-opacity:1"
           d="m 179.8321,31.738852 c 5.68484,9.7194 2.37284,16.418583 2.60176,23.05144 0.32,6.930777 2.8604,6.688276 4.61394,10.394592 1.21098,3.450695 1.87181,9.23088 1.87181,9.23088"
           id="use3939"
           inkscape:connector-curvature="0"
           sodipodi:nodetypes="cccc" />
      </g>
    </g>
    <g
       inkscape:groupmode="layer"
       id="layer4"
       inkscape:label="belt"
       style="display:inline">
      <g
         id="g3866">
        <path
           sodipodi:nodetypes="cc"
           inkscape:connector-curvature="0"
           id="path3827"
           d="m 144.29014,67.406751 c 6.4661,1.112584 19.30021,2.390007 24.89006,1.683384"
           style="fill:none;stroke:#1b2a34;stroke-width:6.5;stroke-linecap:butt;stroke-linejoin:miter;stroke-miterlimit:4;stroke-opacity:1;stroke-dasharray:none" />
        <path
           style="fill:none;stroke:#e8ab2d;stroke-width:4.9000001;stroke-linecap:butt;stroke-linejoin:miter;stroke-miterlimit:4;stroke-opacity:1;stroke-dasharray:none"
           d="m 144.29014,67.406751 c 6.4661,1.112584 19.30021,2.390007 24.89006,1.683384"
           id="path3825"
           inkscape:connector-curvature="0"
           sodipodi:nodetypes="cc" />
        <path
           sodipodi:nodetypes="cc"
           inkscape:connector-curvature="0"
           id="path3055"
           d="m 144.29014,67.406751 c 6.4661,1.112584 19.30021,2.390007 24.89006,1.683384"
           style="fill:none;stroke:#f5cd2f;stroke-width:2.5999999;stroke-linecap:butt;stroke-linejoin:miter;stroke-miterlimit:4;stroke-opacity:1;stroke-dasharray:none" />
        <rect
           transform="matrix(0.99648595,0.08376006,-0.08376006,0.99648595,0,0)"
           ry="1.2024179"
           y="50.214333"
           x="161.86697"
           height="9.859827"
           width="2.4048357"
           id="rect3829"
           style="fill:#f5cd2f;stroke:#1b2a34;stroke-width:0.5;stroke-miterlimit:4;stroke-dasharray:none" />
        <rect
           style="fill:#f5cd2f;stroke:#1b2a34;stroke-width:0.5;stroke-miterlimit:4;stroke-dasharray:none"
           id="rect3831"
           width="2.4048357"
           height="9.859827"
           x="156.41544"
           y="35.869057"
           ry="1.2024179"
           transform="matrix(0.985114,0.17190231,-0.17190231,0.985114,0,0)" />
      </g>
      <use
         x="0"
         y="0"
         xlink:href="#g3866"
         id="use3873"
         transform="matrix(-1,0,0,1,337.87942,0)"
         width="289.36462"
         height="147.96875" />
      <path
         sodipodi:type="arc"
         style="fill:#f5cd2f;fill-opacity:1;stroke:#1b2a34;stroke-width:0.5;stroke-linecap:round;stroke-linejoin:round;stroke-miterlimit:4;stroke-opacity:1;stroke-dasharray:none;stroke-dashoffset:0"
         id="path3875"
         sodipodi:cx="169.24033"
         sodipodi:cy="68.368683"
         sodipodi:rx="7.1543865"
         sodipodi:ry="4.6894298"
         d="m 176.39471,68.368683 c 0,2.5899 -3.20313,4.68943 -7.15438,4.68943 -3.95126,0 -7.15439,-2.09953 -7.15439,-4.68943 0,-2.589901 3.20313,-4.68943 7.15439,-4.68943 3.95125,0 7.15438,2.099529 7.15438,4.68943 z"
         transform="matrix(0.87806996,0,0,0.89077811,20.515237,8.2489281)" />
      <path
         transform="matrix(0.87806996,0,0,0.89077811,20.515237,8.2489281)"
         d="m 176.39471,68.368683 c 0,2.5899 -3.20313,4.68943 -7.15438,4.68943 -3.95126,0 -7.15439,-2.09953 -7.15439,-4.68943 0,-2.589901 3.20313,-4.68943 7.15439,-4.68943 3.95125,0 7.15438,2.099529 7.15438,4.68943 z"
         sodipodi:ry="4.6894298"
         sodipodi:rx="7.1543865"
         sodipodi:cy="68.368683"
         sodipodi:cx="169.24033"
         id="path3877"
         style="fill:url(#radialGradient3885);fill-opacity:1;stroke:#1b2a34;stroke-width:0.5;stroke-linecap:round;stroke-linejoin:round;stroke-miterlimit:4;stroke-opacity:1;stroke-dasharray:none;stroke-dashoffset:0"
         sodipodi:type="arc" />
      <g
         id="g3976"
         transform="matrix(1.0237147,0,0,1,-5.2828739,0)"
         mask="url(#mask3993)">
        <path
           style="fill:none;stroke:#1b2a34;stroke-width:6.5;stroke-linecap:butt;stroke-linejoin:miter;stroke-miterlimit:4;stroke-opacity:1;stroke-dasharray:none"
           d="m 198.05451,67.406751 c 6.4661,2.513578 43.83626,2.666143 49.42611,0.357111"
           id="path3974"
           inkscape:connector-curvature="0"
           sodipodi:nodetypes="cc" />
        <path
           sodipodi:nodetypes="cc"
           inkscape:connector-curvature="0"
           id="path3972"
           d="m 198.05451,67.406751 c 6.4661,2.513578 43.83626,2.666143 49.42611,0.357111"
           style="fill:none;stroke:#e8ab2d;stroke-width:4.9000001;stroke-linecap:butt;stroke-linejoin:miter;stroke-miterlimit:4;stroke-opacity:1;stroke-dasharray:none" />
        <path
           style="fill:none;stroke:#f5cd2f;stroke-width:2.5999999;stroke-linecap:butt;stroke-linejoin:miter;stroke-miterlimit:4;stroke-opacity:1;stroke-dasharray:none"
           d="m 198.05451,67.406751 c 6.4661,2.513578 43.83626,2.666143 49.42611,0.357111"
           id="path3947"
           inkscape:connector-curvature="0"
           sodipodi:nodetypes="cc" />
      </g>
      <rect
         style="fill:#f5cd2f;stroke:#1b2a34;stroke-width:0.5;stroke-miterlimit:4;stroke-dasharray:none"
         id="rect4078"
         width="2.4048357"
         height="9.859827"
         x="-228.14586"
         y="82.997032"
         ry="1.2024179"
         transform="matrix(-0.99648595,0.08376006,0.08376006,0.99648595,0,0)" />
      <rect
         transform="matrix(-0.985114,0.17190231,0.17190231,0.985114,0,0)"
         ry="1.2024179"
         y="103.651"
         x="-229.32806"
         height="9.859827"
         width="2.4048357"
         id="rect4080"
         style="fill:#f5cd2f;stroke:#1b2a34;stroke-width:0.5;stroke-miterlimit:4;stroke-dasharray:none" />
      <rect
         transform="matrix(-0.99999317,-0.00369485,-0.00369485,0.99999317,0,0)"
         ry="1.2024179"
         y="63.1213"
         x="-224.12581"
         height="9.859827"
         width="2.4048357"
         id="rect4082"
         style="fill:#f5cd2f;stroke:#1b2a34;stroke-width:0.5;stroke-miterlimit:4;stroke-dasharray:none" />
      <rect
         transform="matrix(0.99648595,0.08376006,-0.08376006,0.99648595,0,0)"
         ry="1.2024179"
         y="45.688828"
         x="215.70648"
         height="9.859827"
         width="2.4048357"
         id="rect3949"
         style="fill:#f5cd2f;stroke:#1b2a34;stroke-width:0.5;stroke-miterlimit:4;stroke-dasharray:none" />
      <rect
         style="fill:#f5cd2f;stroke:#1b2a34;stroke-width:0.5;stroke-miterlimit:4;stroke-dasharray:none"
         id="rect3951"
         width="2.4048357"
         height="9.859827"
         x="209.45901"
         y="27.082701"
         ry="1.2024179"
         transform="matrix(0.985114,0.17190231,-0.17190231,0.985114,0,0)" />
    </g>
    <g
       inkscape:groupmode="layer"
       id="layer5"
       inkscape:label="logo"
       sodipodi:insensitive="true">
      <path
         style="fill:#f5cd2f;fill-opacity:1;stroke:#f5cd2f;stroke-width:0.125;stroke-linecap:round;stroke-linejoin:round;stroke-miterlimit:4;stroke-opacity:1;stroke-dasharray:none;display:inline"
         d="m 177.65812,44.546261 c 1.60319,-4.158635 4.64389,-4.702988 8.40625,-3.34375 -2.654,-2.713038 -7.43211,-6.17206 -12.4375,-6.125 2.94106,2.764618 1.19139,4.108137 -2.6875,3.75 -0.0297,-0.186421 -0.0898,-0.353542 -0.125,-0.53125 l -0.40625,-2.90625 -0.6875,1.0625 c -0.19839,-0.06483 -0.44207,-0.07257 -0.71875,-0.03125 -0.0342,-0.0069 -0.0607,0.0049 -0.0937,0 -0.27668,-0.04132 -0.52036,-0.03358 -0.71875,0.03125 l -0.6875,-1.0625 -0.4063,2.90625 c -0.0352,0.177708 -0.0953,0.344829 -0.125,0.53125 -3.87889,0.358137 -5.62856,-0.985382 -2.6875,-3.75 -5.00539,-0.04706 -9.7835,3.411962 -12.4375,6.125 3.76236,-1.359238 6.80306,-0.814885 8.40625,3.34375 4.03081,-1.107224 7.37363,0.04651 8.70312,5.466745 1.16048,-5.402916 4.70769,-6.564254 8.70313,-5.466745 z"
         id="path3058"
         inkscape:connector-curvature="0"
         sodipodi:nodetypes="ccccccccsccccccccc"
         inkscape:transform-center-x="17.171873" />
    </g>
    <g
       inkscape:groupmode="layer"
       id="layer8"
       inkscape:label="face"
       style="display:inline"
       sodipodi:insensitive="true">
      <g
         id="g4021" />
      <g
         style="display:inline"
         id="g4008"
         transform="translate(13.870895,0.85227273)">
        <path
           style="fill:#f2f3f2;stroke:none"
           d="m 192.23293,10.358105 c -0.51242,0.740334 -1.66129,1.927988 -3.14137,1.641013 0.32245,-0.159139 -1.51212,-0.530633 -1.45347,-2.0629875 l 2.90694,-1.5472406 c 1.38942,-0.087707 1.51378,0.9631522 1.6879,1.9692151 z"
           id="path4006"
           inkscape:connector-curvature="0"
           sodipodi:nodetypes="ccccc" />
        <path
           sodipodi:type="arc"
           style="fill:#0d69ab;fill-opacity:1;stroke:none"
           id="path3998"
           sodipodi:cx="190.07617"
           sodipodi:cy="10.991067"
           sodipodi:rx="1.3596963"
           sodipodi:ry="1.2893672"
           d="m 191.43587,10.991067 c 0,0.712098 -0.60876,1.289367 -1.3597,1.289367 -0.75094,0 -1.35969,-0.577269 -1.35969,-1.289367 0,-0.712098 0.60875,-1.2893673 1.35969,-1.2893673 0.75094,0 1.3597,0.5772693 1.3597,1.2893673 z"
           transform="matrix(1.1724138,0,0,1.1724138,-33.615704,-2.3638724)" />
        <path
           transform="matrix(0.93103448,0,0,0.93103448,12.405411,0.00782737)"
           d="m 191.43587,10.991067 c 0,0.712098 -0.60876,1.289367 -1.3597,1.289367 -0.75094,0 -1.35969,-0.577269 -1.35969,-1.289367 0,-0.712098 0.60875,-1.2893673 1.35969,-1.2893673 0.75094,0 1.3597,0.5772693 1.3597,1.2893673 z"
           sodipodi:ry="1.2893672"
           sodipodi:rx="1.3596963"
           sodipodi:cy="10.991067"
           sodipodi:cx="190.07617"
           id="path4000"
           style="fill:#203a56;fill-opacity:1;stroke:none"
           sodipodi:type="arc" />
        <path
           sodipodi:type="arc"
           style="fill:#f2f3f2;fill-opacity:1;stroke:none"
           id="path4002"
           sodipodi:cx="190.07617"
           sodipodi:cy="10.991067"
           sodipodi:rx="1.3596963"
           sodipodi:ry="1.2893672"
           d="m 191.43587,10.991067 c 0,0.712098 -0.60876,1.289367 -1.3597,1.289367 -0.75094,0 -1.35969,-0.577269 -1.35969,-1.289367 0,-0.712098 0.60875,-1.2893673 1.35969,-1.2893673 0.75094,0 1.3597,0.5772693 1.3597,1.2893673 z"
           transform="matrix(0.3103448,0,0,0.3103448,129.96176,6.3141223)" />
        <path
           style="fill:#1b2a34;stroke:#1b2a34;stroke-width:0.125;stroke-linecap:round;stroke-linejoin:round;stroke-miterlimit:4;stroke-dasharray:none"
           d="m 186.84103,10.639422 c 1.88348,-1.2803868 5.39506,-3.4283748 5.3919,-0.281317 l 0.6564,-1.5003543 c -0.51891,-0.3808603 -1.41316,-0.7373355 -1.89048,-0.7393142 -0.87605,-0.00363 -2.80829,0.8712073 -4.15782,2.5209855 z"
           id="path4004"
           inkscape:connector-curvature="0"
           sodipodi:nodetypes="cccsc" />
      </g>
      <use
         style="display:inline"
         height="147.96875"
         width="289.36462"
         transform="matrix(-1,0,0,1,396.56712,0)"
         id="use4015"
         xlink:href="#g4008"
         y="0"
         x="0" />
      <g
         id="g4030"
         transform="translate(14.771445,0.85227273)">
        <path
           sodipodi:nodetypes="cczc"
           inkscape:connector-curvature="0"
           id="path4017"
           d="m 180.37075,17.250359 c 1.58841,1.997609 4.45789,2.056328 6.37651,-0.04689 -2.15676,-0.797063 -2.71158,-0.03819 -3.23514,-0.09377 -0.52356,-0.05558 -0.9221,-0.66838 -3.14137,0.14066 z"
           style="fill:#c4281b;stroke:none" />
        <path
           sodipodi:nodetypes="cc"
           inkscape:connector-curvature="0"
           id="path4019"
           d="m 180.37075,17.250359 c 2.09424,0.540598 4.18849,0.506005 6.28273,0.04689"
           style="fill:none;stroke:#1b2a34;stroke-width:0.25;stroke-linecap:round;stroke-linejoin:round;stroke-miterlimit:4;stroke-opacity:1;stroke-dasharray:none" />
      </g>
      <path
         sodipodi:nodetypes="ssccssccccccssccssccccccs"
         inkscape:connector-curvature="0"
         id="rect4876"
         d="m 185.11119,0.9532711 c -1.87441,0 -3.37913,1.2677045 -3.37913,2.846876 l 0,0.05272 0,0.3426796 0,3.0353282 c 0,0.220668 0.20741,0.3953996 0.46932,0.3953996 l 2.90981,0 11.10734,0 1.22025,0 1.68956,0 1.22025,0 11.10734,0 2.90981,0 c 0.26192,0 0.46932,-0.1747316 0.46932,-0.3953996 l 0,-3.0353282 0,-0.3426796 0,-0.05272 c 0,-1.5791715 -1.50472,-2.846876 -3.37913,-2.846876 l -1.22025,0 -9.88709,0 -1.22025,0 -1.68956,0 -1.22025,0 -9.88709,0 z"
         style="fill:#b7d7d5;fill-opacity:1;stroke:#1b2a34;stroke-width:0.45949766;stroke-miterlimit:4;stroke-dasharray:none" />
    </g>
  </g>
  <g
     inkscape:label="template"
     inkscape:groupmode="layer"
     id="layer1"
     transform="translate(-359.90625,-378.375)"
     style="display:inline"
     sodipodi:insensitive="true">
    <path
       inkscape:connector-curvature="0"
       d="m 361.13813,452.9203 c 8.7325,-47.29375 5.3425,-42.67875 14.2675,-42.85625 l 23.44,0 c 8.92625,0.1775 5.535,-4.4375 14.265,42.85625 l -51.9725,0 z"
       style="fill:none;stroke:#231f20;stroke-width:0.3125;stroke-linecap:butt;stroke-linejoin:miter;stroke-miterlimit:4;stroke-opacity:1;stroke-dasharray:none"
       id="path3093" />
  </g>
</svg>
