<?xml version="1.0" encoding="UTF-8" standalone="no"?>
<!-- Created with Inkscape (http://www.inkscape.org/) -->

<svg
   xmlns:dc="http://purl.org/dc/elements/1.1/"
   xmlns:cc="http://creativecommons.org/ns#"
   xmlns:rdf="http://www.w3.org/1999/02/22-rdf-syntax-ns#"
   xmlns:svg="http://www.w3.org/2000/svg"
   xmlns="http://www.w3.org/2000/svg"
   xmlns:xlink="http://www.w3.org/1999/xlink"
   xmlns:sodipodi="http://sodipodi.sourceforge.net/DTD/sodipodi-0.dtd"
   xmlns:inkscape="http://www.inkscape.org/namespaces/inkscape"
   width="104.54937"
   height="116.49553"
   id="svg2"
   version="1.1"
   inkscape:version="0.48.2 r9819"
   sodipodi:docname="Batgirl.tlg.Batman2Videogame.svg"
   inkscape:export-filename="F:\GitHub\minifig-svg-decals\figures\super heroes\Batgirl.tlg.Batman2Videogame.png"
   inkscape:export-xdpi="1715"
   inkscape:export-ydpi="1715">
  <defs
     id="defs4">
    <linearGradient
       inkscape:collect="always"
       id="linearGradient4011">
      <stop
         style="stop-color:#ffffff;stop-opacity:1;"
         offset="0"
         id="stop4013" />
      <stop
         style="stop-color:#ffffff;stop-opacity:0;"
         offset="1"
         id="stop4015" />
    </linearGradient>
    <linearGradient
       inkscape:collect="always"
       id="linearGradient3997">
      <stop
         style="stop-color:#ffffff;stop-opacity:1;"
         offset="0"
         id="stop3999" />
      <stop
         style="stop-color:#ffffff;stop-opacity:0;"
         offset="1"
         id="stop4001" />
    </linearGradient>
    <inkscape:path-effect
       effect="skeletal"
       id="path-effect4237"
       is_visible="true"
       pattern="M 0,5 C 0,2.24 2.24,0 5,0 7.76,0 10,2.24 10,5 10,7.76 7.76,10 5,10 2.24,10 0,7.76 0,5 z"
       copytype="single_stretched"
       prop_scale="1"
       scale_y_rel="false"
       spacing="0"
       normal_offset="0"
       tang_offset="0"
       prop_units="false"
       vertical_pattern="false"
       fuse_tolerance="0" />
    <clipPath
       id="clipPath2999"
       clipPathUnits="userSpaceOnUse">
      <path
         id="path3001"
         d="M 0,792 612,792 612,0 0,0 0,792 z"
         inkscape:connector-curvature="0" />
    </clipPath>
    <radialGradient
       gradientUnits="userSpaceOnUse"
       gradientTransform="matrix(0.75988491,-0.03632001,0.13155835,2.7524547,16.986326,-78.268899)"
       r="12.650181"
       fy="46.658409"
       fx="96.306435"
       cy="46.658409"
       cx="96.306435"
       id="radialGradient3972"
       xlink:href="#linearGradient3966"
       inkscape:collect="always" />
    <clipPath
       clipPathUnits="userSpaceOnUse"
       id="clipPath2999-4">
      <path
         inkscape:connector-curvature="0"
         d="M 0,792 612,792 612,0 0,0 0,792 z"
         id="path3001-0" />
    </clipPath>
    <linearGradient
       id="linearGradient3966">
      <stop
         id="stop3968"
         offset="0"
         style="stop-color:#c0ac02;stop-opacity:1;" />
      <stop
         id="stop3970"
         offset="1"
         style="stop-color:#fdea41;stop-opacity:0;" />
    </linearGradient>
    <radialGradient
       inkscape:collect="always"
       xlink:href="#linearGradient3997"
       id="radialGradient4003"
       cx="165.81134"
       cy="47.693741"
       fx="165.81134"
       fy="47.693741"
       r="3.8123069"
       gradientTransform="matrix(0.64374811,-0.18781617,0.31213841,1.069868,43.640483,27.15595)"
       gradientUnits="userSpaceOnUse" />
    <radialGradient
       inkscape:collect="always"
       xlink:href="#linearGradient3997"
       id="radialGradient4007"
       gradientUnits="userSpaceOnUse"
       gradientTransform="matrix(-0.64374811,-0.18781617,-0.31213841,1.069868,293.73143,27.15595)"
       cx="165.81134"
       cy="47.693741"
       fx="165.81134"
       fy="47.693741"
       r="3.8123069" />
    <radialGradient
       inkscape:collect="always"
       xlink:href="#linearGradient4011"
       id="radialGradient4017"
       cx="169.32254"
       cy="41.784931"
       fx="169.32254"
       fy="41.784931"
       r="6.982676"
       gradientTransform="matrix(0.31036379,-0.01814613,0.03701409,0.63307367,114.75293,21.468668)"
       gradientUnits="userSpaceOnUse" />
    <linearGradient
       id="linearGradient3966-2">
      <stop
         style="stop-color:#c0ac02;stop-opacity:1;"
         offset="0"
         id="stop3968-4" />
      <stop
         style="stop-color:#fdea41;stop-opacity:0;"
         offset="1"
         id="stop3970-5" />
    </linearGradient>
    <clipPath
       id="clipPath2999-4-8"
       clipPathUnits="userSpaceOnUse">
      <path
         id="path3001-0-8"
         d="M 0,792 612,792 612,0 0,0 0,792 z"
         inkscape:connector-curvature="0" />
    </clipPath>
    <radialGradient
       inkscape:collect="always"
       xlink:href="#linearGradient3966-2"
       id="radialGradient3972-4"
       cx="96.306435"
       cy="46.658409"
       fx="96.306435"
       fy="46.658409"
       r="12.650181"
       gradientTransform="matrix(0.75988491,-0.03632001,0.13155835,2.7524547,16.986326,-78.268899)"
       gradientUnits="userSpaceOnUse" />
    <clipPath
       clipPathUnits="userSpaceOnUse"
       id="clipPath2999-0">
      <path
         inkscape:connector-curvature="0"
         d="M 0,792 612,792 612,0 0,0 0,792 z"
         id="path3001-9" />
    </clipPath>
    <inkscape:path-effect
       fuse_tolerance="0"
       vertical_pattern="false"
       prop_units="false"
       tang_offset="0"
       normal_offset="0"
       spacing="0"
       scale_y_rel="false"
       prop_scale="1"
       copytype="single_stretched"
       pattern="M 0,5 C 0,2.24 2.24,0 5,0 7.76,0 10,2.24 10,5 10,7.76 7.76,10 5,10 2.24,10 0,7.76 0,5 z"
       is_visible="true"
       id="path-effect4237-4"
       effect="skeletal" />
    <mask
       id="mask4064"
       maskUnits="userSpaceOnUse">
      <path
         inkscape:connector-curvature="0"
         d="m 195.68193,74.54469 c 8.7325,-47.29375 5.3425,-42.67875 14.2675,-42.85625 l 23.44,0 c 8.92625,0.1775 5.535,-4.4375 14.265,42.85625 l -51.9725,0 z"
         style="fill:#ffffff;fill-opacity:1;stroke:none;display:inline"
         id="path4066" />
    </mask>
    <inkscape:path-effect
       effect="skeletal"
       id="path-effect4237-4-5"
       is_visible="true"
       pattern="M 0,5 C 0,2.24 2.24,0 5,0 7.76,0 10,2.24 10,5 10,7.76 7.76,10 5,10 2.24,10 0,7.76 0,5 z"
       copytype="single_stretched"
       prop_scale="1"
       scale_y_rel="false"
       spacing="0"
       normal_offset="0"
       tang_offset="0"
       prop_units="false"
       vertical_pattern="false"
       fuse_tolerance="0" />
    <clipPath
       id="clipPath2999-0-6"
       clipPathUnits="userSpaceOnUse">
      <path
         id="path3001-9-8"
         d="M 0,792 612,792 612,0 0,0 0,792 z"
         inkscape:connector-curvature="0" />
    </clipPath>
    <radialGradient
       gradientUnits="userSpaceOnUse"
       gradientTransform="matrix(0.75988491,-0.03632001,0.13155835,2.7524547,16.986326,-78.268899)"
       r="12.650181"
       fy="46.658409"
       fx="96.306435"
       cy="46.658409"
       cx="96.306435"
       id="radialGradient3972-4-1"
       xlink:href="#linearGradient3966-2-4"
       inkscape:collect="always" />
    <clipPath
       clipPathUnits="userSpaceOnUse"
       id="clipPath2999-4-8-2">
      <path
         inkscape:connector-curvature="0"
         d="M 0,792 612,792 612,0 0,0 0,792 z"
         id="path3001-0-8-2" />
    </clipPath>
    <linearGradient
       id="linearGradient3966-2-4">
      <stop
         id="stop3968-4-2"
         offset="0"
         style="stop-color:#c0ac02;stop-opacity:1;" />
      <stop
         id="stop3970-5-3"
         offset="1"
         style="stop-color:#fdea41;stop-opacity:0;" />
    </linearGradient>
    <radialGradient
       gradientUnits="userSpaceOnUse"
       gradientTransform="matrix(0.31036379,-0.01814613,0.03701409,0.63307367,114.75293,21.468668)"
       r="6.982676"
       fy="41.784931"
       fx="169.32254"
       cy="41.784931"
       cx="169.32254"
       id="radialGradient4017-1"
       xlink:href="#linearGradient4011-4"
       inkscape:collect="always" />
    <radialGradient
       r="3.8123069"
       fy="47.693741"
       fx="165.81134"
       cy="47.693741"
       cx="165.81134"
       gradientTransform="matrix(-0.64374811,-0.18781617,-0.31213841,1.069868,293.73143,27.15595)"
       gradientUnits="userSpaceOnUse"
       id="radialGradient4007-6"
       xlink:href="#linearGradient3997-4"
       inkscape:collect="always" />
    <radialGradient
       gradientUnits="userSpaceOnUse"
       gradientTransform="matrix(0.64374811,-0.18781617,0.31213841,1.069868,43.640483,27.15595)"
       r="3.8123069"
       fy="47.693741"
       fx="165.81134"
       cy="47.693741"
       cx="165.81134"
       id="radialGradient4003-7"
       xlink:href="#linearGradient3997-4"
       inkscape:collect="always" />
    <linearGradient
       id="linearGradient3966-1">
      <stop
         style="stop-color:#c0ac02;stop-opacity:1;"
         offset="0"
         id="stop3968-5" />
      <stop
         style="stop-color:#fdea41;stop-opacity:0;"
         offset="1"
         id="stop3970-2" />
    </linearGradient>
    <clipPath
       id="clipPath2999-4-7"
       clipPathUnits="userSpaceOnUse">
      <path
         id="path3001-0-1"
         d="M 0,792 612,792 612,0 0,0 0,792 z"
         inkscape:connector-curvature="0" />
    </clipPath>
    <radialGradient
       inkscape:collect="always"
       xlink:href="#linearGradient3966-1"
       id="radialGradient3972-1"
       cx="96.306435"
       cy="46.658409"
       fx="96.306435"
       fy="46.658409"
       r="12.650181"
       gradientTransform="matrix(0.75988491,-0.03632001,0.13155835,2.7524547,16.986326,-78.268899)"
       gradientUnits="userSpaceOnUse" />
    <clipPath
       clipPathUnits="userSpaceOnUse"
       id="clipPath2999-45">
      <path
         inkscape:connector-curvature="0"
         d="M 0,792 612,792 612,0 0,0 0,792 z"
         id="path3001-5" />
    </clipPath>
    <inkscape:path-effect
       fuse_tolerance="0"
       vertical_pattern="false"
       prop_units="false"
       tang_offset="0"
       normal_offset="0"
       spacing="0"
       scale_y_rel="false"
       prop_scale="1"
       copytype="single_stretched"
       pattern="M 0,5 C 0,2.24 2.24,0 5,0 7.76,0 10,2.24 10,5 10,7.76 7.76,10 5,10 2.24,10 0,7.76 0,5 z"
       is_visible="true"
       id="path-effect4237-2"
       effect="skeletal" />
    <linearGradient
       id="linearGradient3997-4"
       inkscape:collect="always">
      <stop
         id="stop3999-8"
         offset="0"
         style="stop-color:#ffffff;stop-opacity:1;" />
      <stop
         id="stop4001-8"
         offset="1"
         style="stop-color:#ffffff;stop-opacity:0;" />
    </linearGradient>
    <linearGradient
       id="linearGradient4011-4"
       inkscape:collect="always">
      <stop
         id="stop4013-0"
         offset="0"
         style="stop-color:#ffffff;stop-opacity:1;" />
      <stop
         id="stop4015-9"
         offset="1"
         style="stop-color:#ffffff;stop-opacity:0;" />
    </linearGradient>
    <inkscape:path-effect
       effect="skeletal"
       id="path-effect4237-4-4"
       is_visible="true"
       pattern="M 0,5 C 0,2.24 2.24,0 5,0 7.76,0 10,2.24 10,5 10,7.76 7.76,10 5,10 2.24,10 0,7.76 0,5 z"
       copytype="single_stretched"
       prop_scale="1"
       scale_y_rel="false"
       spacing="0"
       normal_offset="0"
       tang_offset="0"
       prop_units="false"
       vertical_pattern="false"
       fuse_tolerance="0" />
    <clipPath
       id="clipPath2999-0-0"
       clipPathUnits="userSpaceOnUse">
      <path
         id="path3001-9-2"
         d="M 0,792 612,792 612,0 0,0 0,792 z"
         inkscape:connector-curvature="0" />
    </clipPath>
    <radialGradient
       gradientUnits="userSpaceOnUse"
       gradientTransform="matrix(0.75988491,-0.03632001,0.13155835,2.7524547,16.986326,-78.268899)"
       r="12.650181"
       fy="46.658409"
       fx="96.306435"
       cy="46.658409"
       cx="96.306435"
       id="radialGradient3972-4-6"
       xlink:href="#linearGradient3966-2-8"
       inkscape:collect="always" />
    <clipPath
       clipPathUnits="userSpaceOnUse"
       id="clipPath2999-4-8-0">
      <path
         inkscape:connector-curvature="0"
         d="M 0,792 612,792 612,0 0,0 0,792 z"
         id="path3001-0-8-28" />
    </clipPath>
    <linearGradient
       id="linearGradient3966-2-8">
      <stop
         id="stop3968-4-6"
         offset="0"
         style="stop-color:#c0ac02;stop-opacity:1;" />
      <stop
         id="stop3970-5-5"
         offset="1"
         style="stop-color:#fdea41;stop-opacity:0;" />
    </linearGradient>
    <radialGradient
       gradientUnits="userSpaceOnUse"
       gradientTransform="matrix(0.31036379,-0.01814613,0.03701409,0.63307367,114.75293,21.468668)"
       r="6.982676"
       fy="41.784931"
       fx="169.32254"
       cy="41.784931"
       cx="169.32254"
       id="radialGradient4017-19"
       xlink:href="#linearGradient4011-7"
       inkscape:collect="always" />
    <radialGradient
       r="3.8123069"
       fy="47.693741"
       fx="165.81134"
       cy="47.693741"
       cx="165.81134"
       gradientTransform="matrix(-0.64374811,-0.18781617,-0.31213841,1.069868,293.73143,27.15595)"
       gradientUnits="userSpaceOnUse"
       id="radialGradient4007-3"
       xlink:href="#linearGradient3997-43"
       inkscape:collect="always" />
    <radialGradient
       gradientUnits="userSpaceOnUse"
       gradientTransform="matrix(0.64374811,-0.18781617,0.31213841,1.069868,43.640483,27.15595)"
       r="3.8123069"
       fy="47.693741"
       fx="165.81134"
       cy="47.693741"
       cx="165.81134"
       id="radialGradient4003-79"
       xlink:href="#linearGradient3997-43"
       inkscape:collect="always" />
    <linearGradient
       id="linearGradient3966-4">
      <stop
         style="stop-color:#c0ac02;stop-opacity:1;"
         offset="0"
         id="stop3968-2" />
      <stop
         style="stop-color:#fdea41;stop-opacity:0;"
         offset="1"
         id="stop3970-7" />
    </linearGradient>
    <clipPath
       id="clipPath2999-4-3"
       clipPathUnits="userSpaceOnUse">
      <path
         id="path3001-0-87"
         d="M 0,792 612,792 612,0 0,0 0,792 z"
         inkscape:connector-curvature="0" />
    </clipPath>
    <radialGradient
       inkscape:collect="always"
       xlink:href="#linearGradient3966-4"
       id="radialGradient3972-11"
       cx="96.306435"
       cy="46.658409"
       fx="96.306435"
       fy="46.658409"
       r="12.650181"
       gradientTransform="matrix(0.75988491,-0.03632001,0.13155835,2.7524547,16.986326,-78.268899)"
       gradientUnits="userSpaceOnUse" />
    <clipPath
       clipPathUnits="userSpaceOnUse"
       id="clipPath2999-3">
      <path
         inkscape:connector-curvature="0"
         d="M 0,792 612,792 612,0 0,0 0,792 z"
         id="path3001-4" />
    </clipPath>
    <inkscape:path-effect
       fuse_tolerance="0"
       vertical_pattern="false"
       prop_units="false"
       tang_offset="0"
       normal_offset="0"
       spacing="0"
       scale_y_rel="false"
       prop_scale="1"
       copytype="single_stretched"
       pattern="M 0,5 C 0,2.24 2.24,0 5,0 7.76,0 10,2.24 10,5 10,7.76 7.76,10 5,10 2.24,10 0,7.76 0,5 z"
       is_visible="true"
       id="path-effect4237-3"
       effect="skeletal" />
    <linearGradient
       id="linearGradient3997-43"
       inkscape:collect="always">
      <stop
         id="stop3999-1"
         offset="0"
         style="stop-color:#ffffff;stop-opacity:1;" />
      <stop
         id="stop4001-2"
         offset="1"
         style="stop-color:#ffffff;stop-opacity:0;" />
    </linearGradient>
    <linearGradient
       id="linearGradient4011-7"
       inkscape:collect="always">
      <stop
         id="stop4013-9"
         offset="0"
         style="stop-color:#ffffff;stop-opacity:1;" />
      <stop
         id="stop4015-5"
         offset="1"
         style="stop-color:#ffffff;stop-opacity:0;" />
    </linearGradient>
    <mask
       maskUnits="userSpaceOnUse"
       id="mask5561">
      <path
         inkscape:connector-curvature="0"
         id="path5563"
         d="m 154.17375,31.661936 c -0.27345,-0.0021 -0.51296,0.01438 -0.75,0.03125 -0.2517,0.01598 -0.50065,0.04528 -0.71875,0.09375 -0.19414,0.04649 -0.36055,0.103301 -0.53125,0.1875 -1.79689,0.886304 -2.41272,4.126231 -4.4375,15.343749 -0.79249,4.39047 3.12451,9.636 2.34375,17.375 -0.42679,4.23039 -5.79223,6.78828 -7.125,9.875 l 52,0 c -1.33277,-3.08672 -6.69821,-5.64461 -7.125,-9.875 -0.78076,-7.739 3.13624,-12.98453 2.34375,-17.375 -2.02478,-11.217518 -2.64061,-14.457445 -4.4375,-15.343749 -0.1707,-0.0842 -0.33711,-0.141007 -0.53125,-0.1875 -0.01,-0.0021 -0.0215,0.0021 -0.0312,0 -0.18742,-0.04293 -0.41185,-0.07634 -0.625,-0.09375 -0.3229,-0.02336 -0.6732,-0.03967 -1.0625,-0.03125 -0.21166,0.0041 -0.42118,0.02383 -0.65625,0.03125 -0.63668,0.02078 -1.3262,0.04776 -2.15625,0.03125 l -23.4375,0 c -0.83005,0.01651 -1.51957,-0.01047 -2.15625,-0.03125 -0.0104,-3.4e-4 -0.0209,3.37e-4 -0.0312,0 -0.31503,-0.0099 -0.60155,-0.0291 -0.875,-0.03125 z"
         style="fill:#ffffff;fill-opacity:1;stroke:none;display:inline" />
    </mask>
  </defs>
  <sodipodi:namedview
     id="base"
     pagecolor="#ffffff"
     bordercolor="#666666"
     borderopacity="1.0"
     inkscape:pageopacity="0.0"
     inkscape:pageshadow="2"
     inkscape:zoom="2.9161125"
     inkscape:cx="58.480595"
     inkscape:cy="77.310988"
     inkscape:document-units="px"
     inkscape:current-layer="layer1"
     showgrid="false"
     fit-margin-top="0"
     fit-margin-left="0"
     fit-margin-right="0"
     fit-margin-bottom="0"
     inkscape:window-width="1600"
     inkscape:window-height="848"
     inkscape:window-x="-8"
     inkscape:window-y="-8"
     inkscape:window-maximized="1"
     showguides="true"
     inkscape:guide-bbox="true"
     inkscape:snap-global="false">
    <sodipodi:guide
       orientation="0,1"
       position="63.4557,94.799659"
       id="guide3274" />
    <sodipodi:guide
       orientation="1,0"
       position="78.30596,99.916361"
       id="guide3960" />
  </sodipodi:namedview>
  <metadata
     id="metadata7">
    <rdf:RDF>
      <cc:Work
         rdf:about="">
        <dc:format>image/svg+xml</dc:format>
        <dc:type
           rdf:resource="http://purl.org/dc/dcmitype/StillImage" />
        <dc:title></dc:title>
      </cc:Work>
    </rdf:RDF>
  </metadata>
  <g
     inkscape:groupmode="layer"
     id="layer3"
     inkscape:label="Batgirl"
     transform="translate(-90.59375,-31.473222)">
    <g
       inkscape:groupmode="layer"
       id="layer6"
       inkscape:label="Torso">
      <path
         transform="translate(-218.16938,-378.37561)"
         inkscape:connector-curvature="0"
         d="m 361.13813,452.9203 c 8.7325,-47.29375 5.3425,-42.67875 14.2675,-42.85625 l 23.44,0 c 8.92625,0.1775 5.535,-4.4375 14.265,42.85625 l -51.9725,0 z"
         style="fill:#1b2a34;stroke:#231f20;stroke-width:0.3125;stroke-linecap:butt;stroke-linejoin:miter;stroke-miterlimit:4;stroke-opacity:1;stroke-dasharray:none;display:inline"
         id="path5565" />
      <path
         style="fill:#8e4285;fill-opacity:1;stroke:none;display:inline"
         d="m 149.7675,47.224435 c -0.73311,1.041476 -1.1875,2.253697 -1.1875,3.5625 0,3.798322 3.54978,6.875 7.9375,6.875 3.68403,0 6.78844,-2.180491 7.6875,-5.125 -1.06045,2.702051 -3.98753,4.625 -7.4375,4.625 -4.34406,0 -7.875,-3.076678 -7.875,-6.875 0,-1.114575 0.33674,-2.131405 0.875,-3.0625 z"
         id="path3165"
         inkscape:connector-curvature="0" />
      <path
         id="path3172"
         d="m 187.49181,47.224435 c 0.73311,1.041476 1.1875,2.253697 1.1875,3.5625 0,3.798322 -3.54978,6.875 -7.9375,6.875 -3.68403,0 -6.78844,-2.180491 -7.6875,-5.125 1.06045,2.702051 3.98753,4.625 7.4375,4.625 4.34406,0 7.875,-3.076678 7.875,-6.875 0,-1.114575 -0.33674,-2.131405 -0.875,-3.0625 z"
         style="fill:#8e4285;fill-opacity:1;stroke:none;display:inline"
         inkscape:connector-curvature="0" />
      <path
         id="path5575"
         style="fill:#1b2a34;stroke:#231f20;stroke-width:0.3125;stroke-linecap:butt;stroke-linejoin:miter;stroke-miterlimit:4;stroke-opacity:1;stroke-dasharray:none;display:inline"
         d="m 90.769337,74.54469 c 8.7325,-47.29375 5.3425,-42.67875 14.267503,-42.85625 l 23.44,0 c 8.92625,0.1775 5.535,-4.4375 14.265,42.85625 l -51.972503,0 z"
         inkscape:connector-curvature="0" />
      <path
         sodipodi:type="arc"
         style="fill:#8e4285;fill-opacity:1;stroke:none"
         id="path3103"
         sodipodi:cx="118.51441"
         sodipodi:cy="55.552647"
         sodipodi:rx="0.36966431"
         sodipodi:ry="13.30792"
         d="m 118.88408,55.552647 c 0,7.349761 -0.16551,13.30792 -0.36967,13.30792 -0.20416,0 -0.36966,-5.958159 -0.36966,-13.30792 0,-7.349762 0.1655,-13.307921 0.36966,-13.307921 0.20416,0 0.36967,5.958159 0.36967,13.307921 z"
         transform="translate(-1.7588234,0)" />
      <path
         transform="translate(-218.16938,-378.37561)"
         inkscape:connector-curvature="0"
         d="m 361.62563,526.17905 22.695,0 0,-11.205 -22.695,0 0,11.205 z"
         style="fill:#f5cd2f;stroke:#231f20;stroke-width:0.3125;stroke-linecap:butt;stroke-linejoin:miter;stroke-miterlimit:4;stroke-opacity:1;stroke-dasharray:none;display:inline"
         id="path3029" />
      <path
         transform="translate(-218.16938,-378.37561)"
         inkscape:connector-curvature="0"
         d="m 384.32188,512.3378 -22.6975,0 0,-42.43375 22.6975,0 0,42.43375 z"
         style="fill:#1b2a34;stroke:#231f20;stroke-width:0.3125;stroke-linecap:butt;stroke-linejoin:miter;stroke-miterlimit:4;stroke-opacity:1;stroke-dasharray:none;display:inline"
         id="path3033" />
      <g
         id="g3154"
         transform="translate(0.118215,0)"
         style="fill:#f5cd2f">
        <path
           sodipodi:nodetypes="ccccccccsc"
           inkscape:connector-curvature="0"
           id="path3145"
           d="m 147.15625,117.375 c -2.8986,0.0558 -3.78125,1.875 -3.78125,1.875 l 0.21875,14.78125 11.125,0 0,-10.53125 c -0.61518,0.009 -1.19457,-0.0146 -1.65625,0.0937 l -1.96967,-2.09375 c 0,0 -0.78085,3.38865 0.71578,4.69007 -5.02959,0.074 -1.75376,-8.87087 -4.65236,-8.81507 z"
           style="fill:#f5cd2f;stroke:none" />
        <use
           height="147.96875"
           width="289.36462"
           transform="matrix(-1,0,0,1,309.37107,0)"
           id="use3152"
           xlink:href="#path3145"
           y="0"
           x="0"
           style="fill:#f5cd2f" />
      </g>
      <path
         id="path3168"
         style="fill:#f5cd2f;stroke:#231f20;stroke-width:0.3125;stroke-linecap:butt;stroke-linejoin:miter;stroke-miterlimit:4;stroke-opacity:1;stroke-dasharray:none;display:inline"
         d="m 171.64851,147.80344 22.695,0 0,-11.205 -22.695,0 0,11.205 z"
         inkscape:connector-curvature="0" />
      <path
         id="path3170"
         style="fill:#1b2a34;stroke:#231f20;stroke-width:0.3125;stroke-linecap:butt;stroke-linejoin:miter;stroke-miterlimit:4;stroke-opacity:1;stroke-dasharray:none;display:inline"
         d="m 194.34476,133.96219 -22.6975,0 0,-42.43375 22.6975,0 0,42.43375 z"
         inkscape:connector-curvature="0" />
      <g
         style="fill:#f5cd2f"
         transform="translate(28.310471,0)"
         id="g3172">
        <path
           style="fill:#f5cd2f;stroke:none"
           d="m 147.15625,117.375 c -2.8986,0.0558 -3.78125,1.875 -3.78125,1.875 l 0.21875,14.78125 11.125,0 0,-10.53125 c -0.61518,0.009 -1.19457,-0.0146 -1.65625,0.0937 l -1.96967,-2.09375 c 0,0 -0.78085,3.38865 0.71578,4.69007 -5.02959,0.074 -1.75376,-8.87087 -4.65236,-8.81507 z"
           id="path3174"
           inkscape:connector-curvature="0"
           sodipodi:nodetypes="ccccccccsc" />
        <use
           style="fill:#f5cd2f"
           x="0"
           y="0"
           xlink:href="#path3145"
           id="use3176"
           transform="matrix(-1,0,0,1,309.37107,0)"
           width="289.36462"
           height="147.96875" />
      </g>
    </g>
    <g
       inkscape:groupmode="layer"
       id="layer4"
       inkscape:label="Logo">
      <path
         style="fill:#f5cd2f;stroke:#f5cd2f;stroke-width:0.0947654;stroke-linecap:round;stroke-linejoin:round;stroke-miterlimit:4;stroke-dasharray:none"
         d="m 166.72831,41.577131 0,2.615652 c -0.0194,0.01534 -0.0264,0.0324 -0.0474,0.04738 -2.84008,-0.01205 -6.79537,0.701215 -5.0238,-2.543311 -3.48748,0.929783 -6.36393,2.869301 -9.06282,4.320162 4.37418,-0.482666 7.27561,0.869683 9.47654,3.103567 4.72564,-2.875914 5.38758,0.836265 6.94157,3.103567 l 0.0237,-9.162354 c -0.73911,0.0108 -0.58748,0.01489 -0.94216,0.135802 z"
         id="path3056"
         inkscape:connector-curvature="0"
         sodipodi:nodetypes="cccccccccc" />
      <use
         x="0"
         y="0"
         xlink:href="#path3056"
         id="use3064"
         transform="matrix(-1,0,0,1,337.91,0)"
         width="289.36462"
         height="147.96875" />
    </g>
    <g
       inkscape:groupmode="layer"
       id="layer5"
       inkscape:label="Belt">
      <g
         id="g5553"
         mask="url(#mask5561)">
        <path
           inkscape:connector-curvature="0"
           id="path3998"
           d="m 144.9375,66.21875 4.875,5.84375 c 1.15442,0.182342 2.31323,0.346693 3.46875,0.5 l -4.75,-5.65625 c -1.19938,-0.208061 -2.39286,-0.448881 -3.59375,-0.6875 z m -1.125,0.21875 -0.875,4.375 c 1.78728,0.367681 3.58468,0.698077 5.375,1 l -4.5,-5.375 z m 6.21875,0.71875 4.6875,5.59375 c 1.1046,0.134692 2.207,0.236848 3.3125,0.34375 L 153.5,67.65625 c -1.15461,-0.158028 -2.313,-0.312019 -3.46875,-0.5 z m 4.90625,0.71875 4.5,5.34375 c 1.06494,0.09132 2.12183,0.185591 3.1875,0.25 L 158.28125,68.25 c -1.11195,-0.11083 -2.23099,-0.234942 -3.34375,-0.375 z m 4.75,0.5 4.3125,5.15625 c 1.03661,0.05113 2.0878,0.100378 3.125,0.125 L 162.90625,68.625 c -1.07474,-0.06643 -2.14347,-0.154965 -3.21875,-0.25 z m 4.59375,0.34375 4.15625,4.96875 c 0.18817,0.0024 0.37496,-0.0015 0.5625,0 l 0,-2.9375 -1.625,-1.9375 c -1.02805,-0.02423 -2.0654,-0.0422 -3.09375,-0.09375 z m 4.40625,0.125 0.3125,0.375 0,-0.375 c -0.10432,-9.52e-4 -0.20817,0.0012 -0.3125,0 z"
           style="font-size:medium;font-style:normal;font-variant:normal;font-weight:normal;font-stretch:normal;text-indent:0;text-align:start;text-decoration:none;line-height:normal;letter-spacing:normal;word-spacing:normal;text-transform:none;direction:ltr;block-progression:tb;writing-mode:lr-tb;text-anchor:start;baseline-shift:baseline;color:#000000;fill:#f5cd2f;fill-opacity:1;stroke:none;stroke-width:4.875;marker:none;visibility:visible;display:inline;overflow:visible;enable-background:accumulate;font-family:Sans;-inkscape-font-specification:Sans" />
        <use
           height="147.96875"
           width="289.36462"
           transform="matrix(-1,0,0,1,337.875,0)"
           id="use5532"
           xlink:href="#path3998"
           y="0"
           x="0" />
        <path
           sodipodi:nodetypes="ccccc"
           inkscape:connector-curvature="0"
           id="path5546"
           d="m 163.28721,68.018407 4.76432,5.987584 1.94435,0.02575 4.7324,-6.025012 z"
           style="fill:#1b2a34;stroke:none" />
        <g
           style="fill:#f5cd2f;stroke:#f5cd2f;stroke-width:0.1875;stroke-linecap:round;stroke-linejoin:round;stroke-miterlimit:4;stroke-dasharray:none"
           transform="translate(0.09013567,0)"
           id="g5542">
          <path
             style="fill:#f5cd2f;stroke:#f5cd2f;stroke-width:0.1875;stroke-linecap:round;stroke-linejoin:round;stroke-miterlimit:4;stroke-dasharray:none"
             d="m 164.25,68.71875 2.75,3.25 c 1.23081,-0.255951 1.50771,0.743935 1.85528,1.724514 l 0.0198,-3.662014 c -0.1404,-0.0048 -0.28545,-0.0083 -0.40625,0.0625 l -0.1875,-0.40625 0,0.78125 c -2.91229,0.04206 -2.0625,-1.704307 -2.0625,-1.704307 0,0 -1.42958,0.0059 -1.96875,-0.04569 z"
             id="path5534"
             inkscape:connector-curvature="0"
             sodipodi:nodetypes="cccccccccc" />
          <use
             style="fill:#f5cd2f;stroke:#f5cd2f;stroke-width:0.1875;stroke-linecap:round;stroke-linejoin:round;stroke-miterlimit:4;stroke-dasharray:none"
             x="0"
             y="0"
             xlink:href="#path5534"
             id="use5540"
             transform="matrix(-1,0,0,1,337.69763,0)"
             width="289.36462"
             height="147.96875" />
        </g>
      </g>
      <g
         mask="url(#mask5561)"
         id="g5585"
         transform="translate(-52.199413,0)">
        <path
           style="font-size:medium;font-style:normal;font-variant:normal;font-weight:normal;font-stretch:normal;text-indent:0;text-align:start;text-decoration:none;line-height:normal;letter-spacing:normal;word-spacing:normal;text-transform:none;direction:ltr;block-progression:tb;writing-mode:lr-tb;text-anchor:start;baseline-shift:baseline;color:#000000;fill:#f5cd2f;fill-opacity:1;stroke:none;stroke-width:4.875;marker:none;visibility:visible;display:inline;overflow:visible;enable-background:accumulate;font-family:Sans;-inkscape-font-specification:Sans"
           d="m 144.9375,66.21875 4.875,5.84375 c 1.15442,0.182342 2.31323,0.346693 3.46875,0.5 l -4.75,-5.65625 c -1.19938,-0.208061 -2.39286,-0.448881 -3.59375,-0.6875 z m -1.125,0.21875 -0.875,4.375 c 1.78728,0.367681 3.58468,0.698077 5.375,1 l -4.5,-5.375 z m 6.21875,0.71875 4.6875,5.59375 c 1.1046,0.134692 2.207,0.236848 3.3125,0.34375 L 153.5,67.65625 c -1.15461,-0.158028 -2.313,-0.312019 -3.46875,-0.5 z m 4.90625,0.71875 4.5,5.34375 c 1.06494,0.09132 2.12183,0.185591 3.1875,0.25 L 158.28125,68.25 c -1.11195,-0.11083 -2.23099,-0.234942 -3.34375,-0.375 z m 4.75,0.5 4.3125,5.15625 c 1.03661,0.05113 2.0878,0.100378 3.125,0.125 L 162.90625,68.625 c -1.07474,-0.06643 -2.14347,-0.154965 -3.21875,-0.25 z m 4.59375,0.34375 4.15625,4.96875 c 0.18817,0.0024 0.37496,-0.0015 0.5625,0 l 0,-2.9375 -1.625,-1.9375 c -1.02805,-0.02423 -2.0654,-0.0422 -3.09375,-0.09375 z m 4.40625,0.125 0.3125,0.375 0,-0.375 c -0.10432,-9.52e-4 -0.20817,0.0012 -0.3125,0 z"
           id="path5587"
           inkscape:connector-curvature="0" />
        <use
           x="0"
           y="0"
           xlink:href="#path3998"
           id="use5589"
           transform="matrix(-1,0,0,1,337.875,0)"
           width="289.36462"
           height="147.96875" />
        <g
           id="g5593"
           transform="translate(0.09013567,0)"
           style="fill:#f5cd2f;stroke:#f5cd2f;stroke-width:0.1875;stroke-linecap:round;stroke-linejoin:round;stroke-miterlimit:4;stroke-dasharray:none" />
      </g>
    </g>
  </g>
  <g
     inkscape:label="template"
     inkscape:groupmode="layer"
     id="layer1"
     transform="translate(-308.76313,-409.84883)"
     style="display:inline">
    <path
       inkscape:connector-curvature="0"
       d="m 362.25313,493.9003 21.44125,0"
       style="fill:#ffffff;fill-opacity:1;fill-rule:nonzero;stroke:none"
       id="path3039" />
    <path
       inkscape:connector-curvature="0"
       d="m 390.48313,493.90155 21.44,0"
       style="fill:#ffffff;fill-opacity:1;fill-rule:nonzero;stroke:none"
       id="path3051" />
    <path
       inkscape:connector-curvature="0"
       d="m 361.13813,452.9203 c 8.7325,-47.29375 5.3425,-42.67875 14.2675,-42.85625 l 23.44,0 c 8.92625,0.1775 5.535,-4.4375 14.265,42.85625 l -51.9725,0 z"
       style="fill:none;stroke:#231f20;stroke-width:0.3125;stroke-linecap:butt;stroke-linejoin:miter;stroke-miterlimit:4;stroke-opacity:1;stroke-dasharray:none"
       id="path3093" />
    <path
       id="path4124"
       style="fill:none;stroke:#231f20;stroke-width:0.3125;stroke-linecap:butt;stroke-linejoin:miter;stroke-miterlimit:4;stroke-opacity:1;stroke-dasharray:none"
       d="m 361.13813,452.9203 c 8.7325,-47.29375 5.3425,-42.67875 14.2675,-42.85625 l 23.44,0 c 8.92625,0.1775 5.535,-4.4375 14.265,42.85625 l -51.9725,0 z"
       inkscape:connector-curvature="0" />
    <path
       id="path3121"
       style="fill:none;stroke:#231f20;stroke-width:0.3125;stroke-linecap:butt;stroke-linejoin:miter;stroke-miterlimit:4;stroke-opacity:1;stroke-dasharray:none;display:inline"
       d="m 361.62563,526.17905 22.695,0 0,-11.205 -22.695,0 0,11.205 z"
       inkscape:connector-curvature="0" />
    <path
       id="path3123"
       style="fill:none;stroke:#231f20;stroke-width:0.3125;stroke-linecap:butt;stroke-linejoin:miter;stroke-miterlimit:4;stroke-opacity:1;stroke-dasharray:none;display:inline"
       d="m 384.32188,512.3378 -22.6975,0 0,-42.43375 22.6975,0 0,42.43375 z"
       inkscape:connector-curvature="0" />
    <path
       id="path3125"
       style="fill:none;stroke:#231f20;stroke-width:0.3125;stroke-linecap:butt;stroke-linejoin:miter;stroke-miterlimit:4;stroke-opacity:1;stroke-dasharray:none;display:inline"
       d="m 389.85563,526.17905 22.695,0 0,-11.205 -22.695,0 0,11.205 z"
       inkscape:connector-curvature="0" />
    <path
       inkscape:connector-curvature="0"
       d="m 412.60471,512.3378 -22.6975,0 0,-42.43375 22.6975,0 0,42.43375 z"
       style="fill:none;stroke:#231f20;stroke-width:0.3125;stroke-linecap:butt;stroke-linejoin:miter;stroke-miterlimit:4;stroke-opacity:1;stroke-dasharray:none;display:inline"
       id="path3127" />
  </g>
</svg>
