<?xml version="1.0" encoding="UTF-8" standalone="no"?>
<!-- Created with Inkscape (http://www.inkscape.org/) -->

<svg
   xmlns:dc="http://purl.org/dc/elements/1.1/"
   xmlns:cc="http://creativecommons.org/ns#"
   xmlns:rdf="http://www.w3.org/1999/02/22-rdf-syntax-ns#"
   xmlns:svg="http://www.w3.org/2000/svg"
   xmlns="http://www.w3.org/2000/svg"
   xmlns:xlink="http://www.w3.org/1999/xlink"
   xmlns:sodipodi="http://sodipodi.sourceforge.net/DTD/sodipodi-0.dtd"
   xmlns:inkscape="http://www.inkscape.org/namespaces/inkscape"
   width="52.375"
   height="116.49492"
   id="svg2"
   version="1.1"
   inkscape:version="0.48.2 r9819"
   sodipodi:docname="Batman.Electro_Suit.tlg.VisualDictiornary.svg"
   inkscape:export-filename="F:\GitHub\minifig-svg-decals\figures\super heroes\Batman.Electro_Suit.tlg.VisualDictiornary.png"
   inkscape:export-xdpi="1715"
   inkscape:export-ydpi="1715">
  <defs
     id="defs4">
    <linearGradient
       id="linearGradient3834">
      <stop
         style="stop-color:#55a5af;stop-opacity:1;"
         offset="0"
         id="stop3836" />
      <stop
         style="stop-color:#ffffff;stop-opacity:1;"
         offset="1"
         id="stop3838" />
    </linearGradient>
    <linearGradient
       inkscape:collect="always"
       id="linearGradient4011">
      <stop
         style="stop-color:#ffffff;stop-opacity:1;"
         offset="0"
         id="stop4013" />
      <stop
         style="stop-color:#ffffff;stop-opacity:0;"
         offset="1"
         id="stop4015" />
    </linearGradient>
    <linearGradient
       inkscape:collect="always"
       id="linearGradient3997">
      <stop
         style="stop-color:#ffffff;stop-opacity:1;"
         offset="0"
         id="stop3999" />
      <stop
         style="stop-color:#ffffff;stop-opacity:0;"
         offset="1"
         id="stop4001" />
    </linearGradient>
    <inkscape:path-effect
       effect="skeletal"
       id="path-effect4237"
       is_visible="true"
       pattern="M 0,5 C 0,2.24 2.24,0 5,0 7.76,0 10,2.24 10,5 10,7.76 7.76,10 5,10 2.24,10 0,7.76 0,5 z"
       copytype="single_stretched"
       prop_scale="1"
       scale_y_rel="false"
       spacing="0"
       normal_offset="0"
       tang_offset="0"
       prop_units="false"
       vertical_pattern="false"
       fuse_tolerance="0" />
    <clipPath
       id="clipPath2999"
       clipPathUnits="userSpaceOnUse">
      <path
         id="path3001"
         d="M 0,792 612,792 612,0 0,0 0,792 z"
         inkscape:connector-curvature="0" />
    </clipPath>
    <radialGradient
       gradientUnits="userSpaceOnUse"
       gradientTransform="matrix(0.75988491,-0.03632001,0.13155835,2.7524547,16.986326,-78.268899)"
       r="12.650181"
       fy="46.658409"
       fx="96.306435"
       cy="46.658409"
       cx="96.306435"
       id="radialGradient3972"
       xlink:href="#linearGradient3966"
       inkscape:collect="always" />
    <clipPath
       clipPathUnits="userSpaceOnUse"
       id="clipPath2999-4">
      <path
         inkscape:connector-curvature="0"
         d="M 0,792 612,792 612,0 0,0 0,792 z"
         id="path3001-0" />
    </clipPath>
    <linearGradient
       id="linearGradient3966">
      <stop
         id="stop3968"
         offset="0"
         style="stop-color:#c0ac02;stop-opacity:1;" />
      <stop
         id="stop3970"
         offset="1"
         style="stop-color:#fdea41;stop-opacity:0;" />
    </linearGradient>
    <radialGradient
       inkscape:collect="always"
       xlink:href="#linearGradient3997"
       id="radialGradient4003"
       cx="165.81134"
       cy="47.693741"
       fx="165.81134"
       fy="47.693741"
       r="3.8123069"
       gradientTransform="matrix(0.64374811,-0.18781617,0.31213841,1.069868,43.640483,27.15595)"
       gradientUnits="userSpaceOnUse" />
    <radialGradient
       inkscape:collect="always"
       xlink:href="#linearGradient3997"
       id="radialGradient4007"
       gradientUnits="userSpaceOnUse"
       gradientTransform="matrix(-0.64374811,-0.18781617,-0.31213841,1.069868,293.73143,27.15595)"
       cx="165.81134"
       cy="47.693741"
       fx="165.81134"
       fy="47.693741"
       r="3.8123069" />
    <radialGradient
       inkscape:collect="always"
       xlink:href="#linearGradient4011"
       id="radialGradient4017"
       cx="169.32254"
       cy="41.784931"
       fx="169.32254"
       fy="41.784931"
       r="6.982676"
       gradientTransform="matrix(0.31036379,-0.01814613,0.03701409,0.63307367,114.75293,21.468668)"
       gradientUnits="userSpaceOnUse" />
    <linearGradient
       id="linearGradient3966-2">
      <stop
         style="stop-color:#c0ac02;stop-opacity:1;"
         offset="0"
         id="stop3968-4" />
      <stop
         style="stop-color:#fdea41;stop-opacity:0;"
         offset="1"
         id="stop3970-5" />
    </linearGradient>
    <clipPath
       id="clipPath2999-4-8"
       clipPathUnits="userSpaceOnUse">
      <path
         id="path3001-0-8"
         d="M 0,792 612,792 612,0 0,0 0,792 z"
         inkscape:connector-curvature="0" />
    </clipPath>
    <radialGradient
       inkscape:collect="always"
       xlink:href="#linearGradient3966-2"
       id="radialGradient3972-4"
       cx="96.306435"
       cy="46.658409"
       fx="96.306435"
       fy="46.658409"
       r="12.650181"
       gradientTransform="matrix(0.75988491,-0.03632001,0.13155835,2.7524547,16.986326,-78.268899)"
       gradientUnits="userSpaceOnUse" />
    <clipPath
       clipPathUnits="userSpaceOnUse"
       id="clipPath2999-0">
      <path
         inkscape:connector-curvature="0"
         d="M 0,792 612,792 612,0 0,0 0,792 z"
         id="path3001-9" />
    </clipPath>
    <inkscape:path-effect
       fuse_tolerance="0"
       vertical_pattern="false"
       prop_units="false"
       tang_offset="0"
       normal_offset="0"
       spacing="0"
       scale_y_rel="false"
       prop_scale="1"
       copytype="single_stretched"
       pattern="M 0,5 C 0,2.24 2.24,0 5,0 7.76,0 10,2.24 10,5 10,7.76 7.76,10 5,10 2.24,10 0,7.76 0,5 z"
       is_visible="true"
       id="path-effect4237-4"
       effect="skeletal" />
    <mask
       maskUnits="userSpaceOnUse"
       id="mask3967">
      <path
         inkscape:connector-curvature="0"
         d="m 142.7087,74.54469 c 8.7325,-47.29375 5.3425,-42.67875 14.2675,-42.85625 l 23.44,0 c 8.92625,0.1775 5.535,-4.4375 14.265,42.85625 l -51.9725,0 z"
         style="fill:#f2f3f2;stroke:none;display:inline"
         id="path3969" />
    </mask>
    <mask
       maskUnits="userSpaceOnUse"
       id="mask4037">
      <rect
         style="fill:#ffffff;fill-opacity:1;stroke:none"
         id="rect4039"
         width="20.100925"
         height="4.962153"
         x="145.16399"
         y="140.65167" />
    </mask>
    <inkscape:path-effect
       effect="skeletal"
       id="path-effect4237-4-5"
       is_visible="true"
       pattern="M 0,5 C 0,2.24 2.24,0 5,0 7.76,0 10,2.24 10,5 10,7.76 7.76,10 5,10 2.24,10 0,7.76 0,5 z"
       copytype="single_stretched"
       prop_scale="1"
       scale_y_rel="false"
       spacing="0"
       normal_offset="0"
       tang_offset="0"
       prop_units="false"
       vertical_pattern="false"
       fuse_tolerance="0" />
    <clipPath
       id="clipPath2999-0-6"
       clipPathUnits="userSpaceOnUse">
      <path
         id="path3001-9-8"
         d="M 0,792 612,792 612,0 0,0 0,792 z"
         inkscape:connector-curvature="0" />
    </clipPath>
    <radialGradient
       gradientUnits="userSpaceOnUse"
       gradientTransform="matrix(0.75988491,-0.03632001,0.13155835,2.7524547,16.986326,-78.268899)"
       r="12.650181"
       fy="46.658409"
       fx="96.306435"
       cy="46.658409"
       cx="96.306435"
       id="radialGradient3972-4-1"
       xlink:href="#linearGradient3966-2-4"
       inkscape:collect="always" />
    <clipPath
       clipPathUnits="userSpaceOnUse"
       id="clipPath2999-4-8-2">
      <path
         inkscape:connector-curvature="0"
         d="M 0,792 612,792 612,0 0,0 0,792 z"
         id="path3001-0-8-2" />
    </clipPath>
    <linearGradient
       id="linearGradient3966-2-4">
      <stop
         id="stop3968-4-2"
         offset="0"
         style="stop-color:#c0ac02;stop-opacity:1;" />
      <stop
         id="stop3970-5-3"
         offset="1"
         style="stop-color:#fdea41;stop-opacity:0;" />
    </linearGradient>
    <radialGradient
       gradientUnits="userSpaceOnUse"
       gradientTransform="matrix(0.31036379,-0.01814613,0.03701409,0.63307367,114.75293,21.468668)"
       r="6.982676"
       fy="41.784931"
       fx="169.32254"
       cy="41.784931"
       cx="169.32254"
       id="radialGradient4017-1"
       xlink:href="#linearGradient4011-4"
       inkscape:collect="always" />
    <radialGradient
       r="3.8123069"
       fy="47.693741"
       fx="165.81134"
       cy="47.693741"
       cx="165.81134"
       gradientTransform="matrix(-0.64374811,-0.18781617,-0.31213841,1.069868,293.73143,27.15595)"
       gradientUnits="userSpaceOnUse"
       id="radialGradient4007-6"
       xlink:href="#linearGradient3997-4"
       inkscape:collect="always" />
    <radialGradient
       gradientUnits="userSpaceOnUse"
       gradientTransform="matrix(0.64374811,-0.18781617,0.31213841,1.069868,43.640483,27.15595)"
       r="3.8123069"
       fy="47.693741"
       fx="165.81134"
       cy="47.693741"
       cx="165.81134"
       id="radialGradient4003-7"
       xlink:href="#linearGradient3997-4"
       inkscape:collect="always" />
    <linearGradient
       id="linearGradient3966-1">
      <stop
         style="stop-color:#c0ac02;stop-opacity:1;"
         offset="0"
         id="stop3968-5" />
      <stop
         style="stop-color:#fdea41;stop-opacity:0;"
         offset="1"
         id="stop3970-2" />
    </linearGradient>
    <clipPath
       id="clipPath2999-4-7"
       clipPathUnits="userSpaceOnUse">
      <path
         id="path3001-0-1"
         d="M 0,792 612,792 612,0 0,0 0,792 z"
         inkscape:connector-curvature="0" />
    </clipPath>
    <radialGradient
       inkscape:collect="always"
       xlink:href="#linearGradient3966-1"
       id="radialGradient3972-1"
       cx="96.306435"
       cy="46.658409"
       fx="96.306435"
       fy="46.658409"
       r="12.650181"
       gradientTransform="matrix(0.75988491,-0.03632001,0.13155835,2.7524547,16.986326,-78.268899)"
       gradientUnits="userSpaceOnUse" />
    <clipPath
       clipPathUnits="userSpaceOnUse"
       id="clipPath2999-45">
      <path
         inkscape:connector-curvature="0"
         d="M 0,792 612,792 612,0 0,0 0,792 z"
         id="path3001-5" />
    </clipPath>
    <inkscape:path-effect
       fuse_tolerance="0"
       vertical_pattern="false"
       prop_units="false"
       tang_offset="0"
       normal_offset="0"
       spacing="0"
       scale_y_rel="false"
       prop_scale="1"
       copytype="single_stretched"
       pattern="M 0,5 C 0,2.24 2.24,0 5,0 7.76,0 10,2.24 10,5 10,7.76 7.76,10 5,10 2.24,10 0,7.76 0,5 z"
       is_visible="true"
       id="path-effect4237-2"
       effect="skeletal" />
    <linearGradient
       id="linearGradient3997-4"
       inkscape:collect="always">
      <stop
         id="stop3999-8"
         offset="0"
         style="stop-color:#ffffff;stop-opacity:1;" />
      <stop
         id="stop4001-8"
         offset="1"
         style="stop-color:#ffffff;stop-opacity:0;" />
    </linearGradient>
    <linearGradient
       id="linearGradient4011-4"
       inkscape:collect="always">
      <stop
         id="stop4013-0"
         offset="0"
         style="stop-color:#ffffff;stop-opacity:1;" />
      <stop
         id="stop4015-9"
         offset="1"
         style="stop-color:#ffffff;stop-opacity:0;" />
    </linearGradient>
  </defs>
  <sodipodi:namedview
     id="base"
     pagecolor="#ffffff"
     bordercolor="#666666"
     borderopacity="1.0"
     inkscape:pageopacity="0.0"
     inkscape:pageshadow="2"
     inkscape:zoom="8.6"
     inkscape:cx="29.479512"
     inkscape:cy="89.248517"
     inkscape:document-units="px"
     inkscape:current-layer="layer6"
     showgrid="false"
     fit-margin-top="0"
     fit-margin-left="0"
     fit-margin-right="0"
     fit-margin-bottom="0"
     inkscape:window-width="1600"
     inkscape:window-height="848"
     inkscape:window-x="-8"
     inkscape:window-y="-8"
     inkscape:window-maximized="1"
     showguides="true"
     inkscape:guide-bbox="true"
     inkscape:snap-global="false">
    <sodipodi:guide
       orientation="0,1"
       position="11.28133,94.799049"
       id="guide3274" />
    <sodipodi:guide
       orientation="1,0"
       position="26.13159,99.915751"
       id="guide3960" />
  </sodipodi:namedview>
  <metadata
     id="metadata7">
    <rdf:RDF>
      <cc:Work
         rdf:about="">
        <dc:format>image/svg+xml</dc:format>
        <dc:type
           rdf:resource="http://purl.org/dc/dcmitype/StillImage" />
        <dc:title></dc:title>
      </cc:Work>
    </rdf:RDF>
  </metadata>
  <g
     inkscape:groupmode="layer"
     id="layer3"
     inkscape:label="electro_bats"
     style="display:inline"
     transform="translate(-142.76812,-31.473222)">
    <g
       inkscape:groupmode="layer"
       id="layer7"
       inkscape:label="torso">
      <path
         inkscape:connector-curvature="0"
         d="m 142.96875,74.54469 c 8.73249,-47.29375 5.3425,-42.67875 14.26749,-42.85625 l 23.44001,0 c 8.92625,0.1775 5.535,-4.4375 14.265,42.85625 l -51.9725,0 z"
         style="fill:#1b2a34;stroke:#231f20;stroke-width:0.3125;stroke-linecap:butt;stroke-linejoin:miter;stroke-miterlimit:4;stroke-opacity:1;stroke-dasharray:none;display:inline"
         id="path4150" />
      <rect
         style="fill:#1b2a34;fill-opacity:1;stroke:#1b2a34;stroke-width:0.875;stroke-linecap:round;stroke-linejoin:round;stroke-miterlimit:4;stroke-opacity:1;stroke-dasharray:none;stroke-dashoffset:0"
         id="rect4196"
         width="45.807037"
         height="8.8368139"
         x="146.07755"
         y="62.847019" />
      <path
         transform="translate(-218.16938,-378.37561)"
         id="path4208"
         style="fill:#1b2a34;stroke:#c4281b;stroke-width:0.3125;stroke-linecap:butt;stroke-linejoin:miter;stroke-miterlimit:4;stroke-opacity:1;stroke-dasharray:none;display:inline"
         d="m 361.62563,526.17905 22.695,0 0,-11.205 -22.695,0 0,11.205 z"
         inkscape:connector-curvature="0" />
      <path
         transform="translate(-218.16938,-378.37561)"
         id="path4210"
         style="fill:#1b2a34;stroke:#c4281b;stroke-width:0.3125;stroke-linecap:butt;stroke-linejoin:miter;stroke-miterlimit:4;stroke-opacity:1;stroke-dasharray:none;display:inline"
         d="m 384.32188,512.3378 -22.6975,0 0,-42.43375 22.6975,0 0,42.43375 z"
         inkscape:connector-curvature="0" />
      <path
         transform="translate(-218.16938,-378.37561)"
         id="path4212"
         style="fill:#1b2a34;stroke:#c4281b;stroke-width:0.3125;stroke-linecap:butt;stroke-linejoin:miter;stroke-miterlimit:4;stroke-opacity:1;stroke-dasharray:none;display:inline"
         d="m 389.85563,526.17905 22.695,0 0,-11.205 -22.695,0 0,11.205 z"
         inkscape:connector-curvature="0" />
      <path
         transform="translate(-218.16938,-378.37561)"
         inkscape:connector-curvature="0"
         d="m 412.60471,512.3378 -22.6975,0 0,-42.43375 22.6975,0 0,42.43375 z"
         style="fill:#1b2a34;stroke:#c4281b;stroke-width:0.3125;stroke-linecap:butt;stroke-linejoin:miter;stroke-miterlimit:4;stroke-opacity:1;stroke-dasharray:none;display:inline"
         id="path4214" />
    </g>
    <g
       inkscape:groupmode="layer"
       id="layer8"
       inkscape:label="greebles">
      <g
         style="display:inline"
         id="g4007"
         transform="translate(0.30387,0)">
        <g
           id="g3983">
          <path
             sodipodi:nodetypes="cc"
             style="fill:#b7d7d5;stroke:#b7d7d5;stroke-width:2.5;stroke-linecap:butt;stroke-linejoin:miter;stroke-miterlimit:4;stroke-opacity:1;stroke-dasharray:none"
             d="m 173.32131,56.621296 -16.67417,0"
             id="path3971"
             inkscape:connector-curvature="0" />
          <g
             id="g3979">
            <path
               transform="matrix(0.93333333,0,0,0.93333333,10.253868,4.0090921)"
               d="m 157.18792,56.080513 a 4.055881,4.055881 0 1 1 -8.11177,0 4.055881,4.055881 0 1 1 8.11177,0 z"
               sodipodi:ry="4.055881"
               sodipodi:rx="4.055881"
               sodipodi:cy="56.080513"
               sodipodi:cx="153.13203"
               id="path3977"
               style="fill:#b7d7d5;fill-opacity:1;stroke:none"
               sodipodi:type="arc" />
            <path
               transform="matrix(1.1962621,0,0,1.1962621,-29.928087,-10.92477)"
               d="m 155.34024,56.238239 a 2.2758,2.2758 0 1 1 -4.5516,0 2.2758,2.2758 0 1 1 4.5516,0 z"
               sodipodi:ry="2.2758"
               sodipodi:rx="2.2758"
               sodipodi:cy="56.238239"
               sodipodi:cx="153.06444"
               id="path3975"
               style="fill:#b7d7d5;fill-opacity:1;stroke:#1b2a34;stroke-width:0.4179686;stroke-miterlimit:4;stroke-dasharray:none"
               sodipodi:type="arc" />
          </g>
        </g>
        <g
           transform="matrix(-1,0,0,1,337.30227,0)"
           id="g3989">
          <path
             inkscape:connector-curvature="0"
             id="path3991"
             d="m 168.31906,56.621296 -11.67192,0"
             style="fill:#b7d7d5;stroke:#b7d7d5;stroke-width:2.5;stroke-linecap:butt;stroke-linejoin:miter;stroke-miterlimit:4;stroke-opacity:1;stroke-dasharray:none" />
          <g
             id="g3993">
            <path
               sodipodi:type="arc"
               style="fill:#b7d7d5;fill-opacity:1;stroke:none"
               id="path3995"
               sodipodi:cx="153.13203"
               sodipodi:cy="56.080513"
               sodipodi:rx="4.055881"
               sodipodi:ry="4.055881"
               d="m 157.18792,56.080513 a 4.055881,4.055881 0 1 1 -8.11177,0 4.055881,4.055881 0 1 1 8.11177,0 z"
               transform="matrix(0.93333333,0,0,0.93333333,10.253868,4.0090921)" />
            <path
               sodipodi:type="arc"
               style="fill:#b7d7d5;fill-opacity:1;stroke:#1b2a34;stroke-width:0.4179686;stroke-miterlimit:4;stroke-dasharray:none"
               id="path3997"
               sodipodi:cx="153.06444"
               sodipodi:cy="56.238239"
               sodipodi:rx="2.2758"
               sodipodi:ry="2.2758"
               d="m 155.34024,56.238239 a 2.2758,2.2758 0 1 1 -4.5516,0 2.2758,2.2758 0 1 1 4.5516,0 z"
               transform="matrix(1.1962621,0,0,1.1962621,-29.928087,-10.92477)" />
          </g>
        </g>
      </g>
      <g
         style="display:inline"
         id="g4003"
         transform="translate(0.47821,0)">
        <path
           sodipodi:nodetypes="cc"
           inkscape:connector-curvature="0"
           id="path3999"
           d="m 159.12573,49.996691 c 0.24211,2.118971 0.32825,4.601876 0.90131,5.948625"
           style="fill:none;stroke:#b7d7d5;stroke-width:1.5;stroke-linecap:butt;stroke-linejoin:miter;stroke-miterlimit:4;stroke-opacity:1;stroke-dasharray:none" />
        <path
           style="fill:none;stroke:#b7d7d5;stroke-width:1.5;stroke-linecap:butt;stroke-linejoin:miter;stroke-miterlimit:4;stroke-opacity:1;stroke-dasharray:none"
           d="m 177.82785,49.996691 c -0.24211,2.118971 -0.32825,4.601876 -0.90131,5.948625"
           id="path4001"
           inkscape:connector-curvature="0"
           sodipodi:nodetypes="cc" />
      </g>
      <path
         style="fill:none;stroke:#b7d7d5;stroke-width:1.5;stroke-linecap:butt;stroke-linejoin:miter;stroke-miterlimit:4;stroke-opacity:1;stroke-dasharray:none;display:inline"
         d="m 168.955,62.164334 0,-5.452907"
         id="path4019"
         inkscape:connector-curvature="0" />
    </g>
    <g
       inkscape:groupmode="layer"
       id="layer9"
       inkscape:label="muscle">
      <path
         style="display:inline;font-size:medium;font-style:normal;font-variant:normal;font-weight:normal;font-stretch:normal;text-indent:0;text-align:start;text-decoration:none;line-height:normal;letter-spacing:normal;word-spacing:normal;text-transform:none;direction:ltr;block-progression:tb;writing-mode:lr-tb;text-anchor:start;baseline-shift:baseline;color:#000000;fill:#0d69ab;fill-opacity:1;stroke:#0d69ab;stroke-width:0.12500000000000000;stroke-linecap:round;stroke-linejoin:round;stroke-miterlimit:4;stroke-dasharray:none;marker:none;visibility:visible;overflow:visible;enable-background:accumulate;font-family:Sans;-inkscape-font-specification:Sans"
         d="m 156.1875,32.78125 c -0.7963,0.02502 -1.56674,0.08604 -2.25,0.1875 -1.36652,0.202912 -2.46436,0.555534 -2.78125,1.5 0.58861,-0.552233 1.12571,-0.845938 2.78125,-1.0625 1.30098,-0.17018 3.04029,10e-4 4.71875,0.0625 3.35693,0.122897 6.92564,0.63104 8.75,0.90625 0.59396,0.0896 0.96981,0.360624 1.15625,0.59375 0.15222,0.223397 0.28013,0.853736 0.375,0.875 0.12696,0.02845 0.22542,-0.629005 0.40625,-0.875 0.18482,-0.234105 0.55721,-0.503384 1.15625,-0.59375 1.82436,-0.27521 5.42432,-0.783353 8.78125,-0.90625 1.67846,-0.06146 3.38652,-0.232683 4.6875,-0.0625 1.65554,0.216562 2.19264,0.510267 2.78125,1.0625 -0.31689,-0.944466 -1.41473,-1.297088 -2.78125,-1.5 -0.68326,-0.101456 -1.4537,-0.162483 -2.25,-0.1875 -0.39814,-0.0125 -0.8036,-0.0032 -1.21875,0 -0.41515,0.0032 -0.8244,0.01567 -1.25,0.03125 -3.40483,0.124651 -7.00814,0.598096 -8.84375,0.875 -0.62788,0.09472 -1.11742,0.340656 -1.4375,0.65625 -0.32002,-0.316854 -0.80788,-0.561272 -1.4375,-0.65625 -1.8356,-0.276903 -5.47017,-0.750349 -8.875,-0.875 -0.4256,-0.01558 -0.83485,-0.0281 -1.25,-0.03125 -0.20758,-0.0015 -0.42069,-0.0028 -0.625,0 -0.2043,0.0028 -0.39468,-0.0063 -0.59375,0 z M 149.75,43.712409 c -0.43043,1.003323 -0.42577,1.929038 -0.25,2.71875 0.17576,0.789703 0.56097,1.459318 1.21875,1.78125 1.82611,1.251823 3.50019,1.180722 7.09375,1.84375 2.99917,0.550514 6.19532,1.009273 8.375,1.21875 0.812,0.07808 1.52593,-0.289955 2,-0.8125 0.36849,-0.406181 0.62403,-0.904269 0.78125,-1.40625 0.15723,0.50188 0.41284,1.000152 0.78125,1.40625 0.47407,0.522545 1.15675,0.890545 1.96875,0.8125 2.17967,-0.209476 5.37582,-0.668237 8.375,-1.21875 5.17894,-1.01111 5.12752,-1.133609 7.09375,-1.84375 0.65778,-0.321932 1.043,-0.991547 1.21875,-1.78125 0.17577,-0.789712 0.18043,-1.715427 -0.25,-2.71875 -0.24262,1.027367 -0.25579,1.917743 -0.40625,2.59375 -0.15044,0.676 -0.41726,1.103754 -0.84375,1.3125 -1.16256,0.568989 -3.92741,1.234469 -6.90625,1.78125 -2.97883,0.546781 -6.19216,0.980723 -8.34375,1.1875 -0.58786,0.05652 -1.06729,-0.185681 -1.4375,-0.59375 -0.37021,-0.408068 -1.14282,-1.654691 -1.25,-2.1875 l 0,0.1875 -0.0312,-0.1875 c -0.10719,0.532809 -0.87979,1.779432 -1.25,2.1875 -0.37021,0.408069 -0.84964,0.65025 -1.4375,0.59375 -2.15158,-0.206777 -5.36491,-0.640719 -8.34375,-1.1875 -2.97888,-0.546781 -5.74375,-1.212261 -6.9063,-1.78125 -0.42651,-0.208746 -0.69329,-0.6365 -0.84375,-1.3125 -0.15045,-0.676007 -0.16363,-1.566383 -0.40625,-2.59375 z m -2.62613,15.254998 c -0.74459,-0.820185 -1.04624,-0.699048 -0.40512,0.06576 1.02746,1.408691 2.01671,2.135714 2.34375,3.625 0.41651,1.896666 0.20193,6.679567 0.5,6.71875 0.29808,0.03917 0.60246,-4.843018 0.15625,-6.875 -0.37833,-1.72284 -1.54803,-2.36166 -2.59488,-3.534509 z m 43.72854,-0.222798 c -0.96276,1.319996 -2.28658,2.034467 -2.66491,3.757307 -0.44621,2.031982 -0.14183,6.914181 0.15625,6.875 0.29807,-0.03917 0.0835,-4.822084 0.5,-6.71875 0.32704,-1.489286 1.31629,-2.216309 2.34375,-3.625 0.72666,-1.473568 -0.079,-0.58635 -0.33509,-0.288557 z"
         id="path4113"
         inkscape:connector-curvature="0"
         sodipodi:nodetypes="cscssscccssscsccsscsscsccsccccccsccccccscscccssssccccscsccscscc" />
    </g>
    <g
       inkscape:groupmode="layer"
       id="layer6"
       inkscape:label="Belt"
       style="display:inline">
      <rect
         style="fill:#1b2a34;fill-opacity:1;stroke:#1b2a34;stroke-width:0.12736185;stroke-linecap:round;stroke-linejoin:round;stroke-miterlimit:4;stroke-opacity:1;stroke-dasharray:none;stroke-dashoffset:0;display:inline"
         id="rect4280"
         width="44.881359"
         height="9.4162426"
         x="145.90883"
         y="62.271648" />
      <g
         id="g4029"
         transform="translate(-0.41070107,-0.93180205)"
         mask="url(#mask4037)">
        <rect
           y="141.57681"
           x="149.62152"
           height="3.1118586"
           width="5.0462575"
           id="rect4021"
           style="fill:#b7d7d5;stroke:none" />
        <rect
           style="fill:#b7d7d5;stroke:none"
           id="rect4023"
           width="5.0462575"
           height="3.1118586"
           x="143.4819"
           y="141.57681" />
        <rect
           y="141.57681"
           x="155.76112"
           height="3.1118586"
           width="5.0462575"
           id="rect4025"
           style="fill:#b7d7d5;stroke:none" />
        <rect
           style="fill:#b7d7d5;stroke:none"
           id="rect4027"
           width="5.0462575"
           height="3.1118586"
           x="161.90074"
           y="141.57681" />
      </g>
      <g
         id="g3936"
         transform="translate(0.26004704,0)"
         mask="url(#mask3967)">
        <rect
           y="63.074448"
           x="163.77354"
           height="8.8858767"
           width="9.8428173"
           id="rect3843"
           style="fill:#b7d7d5;fill-opacity:1;stroke:#b7d7d5;stroke-width:0.125;stroke-linecap:round;stroke-linejoin:round;stroke-miterlimit:4;stroke-opacity:1;stroke-dasharray:none;stroke-dashoffset:0" />
        <g
           transform="translate(-0.12384704,0)"
           id="g3912">
          <g
             id="g3878">
            <g
               transform="translate(-0.17088056,0)"
               id="g3857">
              <rect
                 style="fill:#b7d7d5;fill-opacity:1;stroke:#b7d7d5;stroke-width:0.125;stroke-linecap:round;stroke-linejoin:round;stroke-miterlimit:4;stroke-opacity:1;stroke-dasharray:none;stroke-dashoffset:0"
                 id="rect3845"
                 width="1.2303522"
                 height="8.7491713"
                 x="154.27249"
                 y="62.869389"
                 ry="0.4784703" />
              <rect
                 ry="0.4784703"
                 y="62.869389"
                 x="147.98402"
                 height="8.7491713"
                 width="1.2303522"
                 id="rect3847"
                 style="fill:#b7d7d5;fill-opacity:1;stroke:#b7d7d5;stroke-width:0.125;stroke-linecap:round;stroke-linejoin:round;stroke-miterlimit:4;stroke-opacity:1;stroke-dasharray:none;stroke-dashoffset:0" />
            </g>
            <g
               id="g3853">
              <rect
                 style="fill:#b7d7d5;fill-opacity:1;stroke:#b7d7d5;stroke-width:0.125;stroke-linecap:round;stroke-linejoin:round;stroke-miterlimit:4;stroke-opacity:1;stroke-dasharray:none;stroke-dashoffset:0"
                 id="rect3849"
                 width="3.2125862"
                 height="3.7594094"
                 x="149.96626"
                 y="64.168098"
                 ry="0" />
              <rect
                 ry="0"
                 y="68.595276"
                 x="149.9505"
                 height="2.0821064"
                 width="3.2441056"
                 id="rect3851"
                 style="fill:#b7d7d5;fill-opacity:1;stroke:#b7d7d5;stroke-width:0.09348065;stroke-linecap:round;stroke-linejoin:round;stroke-miterlimit:4;stroke-opacity:1;stroke-dasharray:none;stroke-dashoffset:0" />
            </g>
            <g
               transform="translate(-6.2884667,0)"
               id="g3861">
              <rect
                 ry="0"
                 y="64.168098"
                 x="149.96626"
                 height="3.7594094"
                 width="3.2125862"
                 id="rect3863"
                 style="fill:#b7d7d5;fill-opacity:1;stroke:#b7d7d5;stroke-width:0.125;stroke-linecap:round;stroke-linejoin:round;stroke-miterlimit:4;stroke-opacity:1;stroke-dasharray:none;stroke-dashoffset:0" />
              <rect
                 style="fill:#b7d7d5;fill-opacity:1;stroke:#b7d7d5;stroke-width:0.09348065;stroke-linecap:round;stroke-linejoin:round;stroke-miterlimit:4;stroke-opacity:1;stroke-dasharray:none;stroke-dashoffset:0"
                 id="rect3865"
                 width="3.2441056"
                 height="2.0821064"
                 x="149.9505"
                 y="68.595276"
                 ry="0" />
            </g>
            <path
               inkscape:connector-curvature="0"
               id="rect3867"
               d="m 156.3125,63.96875 0,3.59375 1.40625,0 0,-1.46875 0,-0.5 0.5,0 4.65625,0 0,-1.625 -6.5625,0 z m 2.40625,2.625 0,1.46875 0,0.5 -0.5,0 -1.90625,0 0,2.25 6.5625,0 0,-4.21875 -4.15625,0 z"
               style="fill:#b7d7d5;fill-opacity:1;stroke:#b7d7d5;stroke-width:0.125;stroke-linecap:round;stroke-linejoin:round;stroke-miterlimit:4;stroke-opacity:1;stroke-dasharray:none;stroke-dashoffset:0" />
          </g>
          <g
             id="g3890"
             transform="matrix(-1,0,0,1,337.6376,0)">
            <g
               id="g3892"
               transform="translate(-0.17088056,0)">
              <rect
                 ry="0.4784703"
                 y="62.869389"
                 x="154.27249"
                 height="8.7491713"
                 width="1.2303522"
                 id="rect3894"
                 style="fill:#b7d7d5;fill-opacity:1;stroke:#b7d7d5;stroke-width:0.125;stroke-linecap:round;stroke-linejoin:round;stroke-miterlimit:4;stroke-opacity:1;stroke-dasharray:none;stroke-dashoffset:0" />
              <rect
                 style="fill:#b7d7d5;fill-opacity:1;stroke:#b7d7d5;stroke-width:0.125;stroke-linecap:round;stroke-linejoin:round;stroke-miterlimit:4;stroke-opacity:1;stroke-dasharray:none;stroke-dashoffset:0"
                 id="rect3896"
                 width="1.2303522"
                 height="8.7491713"
                 x="147.98402"
                 y="62.869389"
                 ry="0.4784703" />
            </g>
            <g
               id="g3898">
              <rect
                 ry="0"
                 y="64.168098"
                 x="149.96626"
                 height="3.7594094"
                 width="3.2125862"
                 id="rect3900"
                 style="fill:#b7d7d5;fill-opacity:1;stroke:#b7d7d5;stroke-width:0.125;stroke-linecap:round;stroke-linejoin:round;stroke-miterlimit:4;stroke-opacity:1;stroke-dasharray:none;stroke-dashoffset:0" />
              <rect
                 style="fill:#b7d7d5;fill-opacity:1;stroke:#b7d7d5;stroke-width:0.09348065;stroke-linecap:round;stroke-linejoin:round;stroke-miterlimit:4;stroke-opacity:1;stroke-dasharray:none;stroke-dashoffset:0"
                 id="rect3902"
                 width="3.2441056"
                 height="2.0821064"
                 x="149.9505"
                 y="68.595276"
                 ry="0" />
            </g>
            <g
               id="g3904"
               transform="translate(-6.2884667,0)">
              <rect
                 style="fill:#b7d7d5;fill-opacity:1;stroke:#b7d7d5;stroke-width:0.125;stroke-linecap:round;stroke-linejoin:round;stroke-miterlimit:4;stroke-opacity:1;stroke-dasharray:none;stroke-dashoffset:0"
                 id="rect3906"
                 width="3.2125862"
                 height="3.7594094"
                 x="149.96626"
                 y="64.168098"
                 ry="0" />
              <rect
                 ry="0"
                 y="68.595276"
                 x="149.9505"
                 height="2.0821064"
                 width="3.2441056"
                 id="rect3908"
                 style="fill:#b7d7d5;fill-opacity:1;stroke:#b7d7d5;stroke-width:0.09348065;stroke-linecap:round;stroke-linejoin:round;stroke-miterlimit:4;stroke-opacity:1;stroke-dasharray:none;stroke-dashoffset:0" />
            </g>
            <path
               style="fill:#b7d7d5;fill-opacity:1;stroke:#b7d7d5;stroke-width:0.125;stroke-linecap:round;stroke-linejoin:round;stroke-miterlimit:4;stroke-opacity:1;stroke-dasharray:none;stroke-dashoffset:0"
               d="m 156.3125,63.96875 0,3.59375 1.40625,0 0,-1.46875 0,-0.5 0.5,0 4.65625,0 0,-1.625 -6.5625,0 z m 2.40625,2.625 0,1.46875 0,0.5 -0.5,0 -1.90625,0 0,2.25 6.5625,0 0,-4.21875 -4.15625,0 z"
               id="path3910"
               inkscape:connector-curvature="0" />
          </g>
        </g>
      </g>
      <g
         id="g4081"
         transform="translate(0.51442577,14.10628)">
        <path
           inkscape:connector-curvature="0"
           id="path4079"
           d="M 154.35239,106.97248 154.22625,88.513651"
           style="fill:none;stroke:#b7d7d5;stroke-width:1.5;stroke-linecap:butt;stroke-linejoin:miter;stroke-miterlimit:4;stroke-opacity:1;stroke-dasharray:none" />
        <g
           id="g4061">
          <path
             transform="translate(0.50462574,-0.50462574)"
             d="m 157.77965,107.05201 a 3.9949536,3.9949536 0 1 1 -7.98991,0 3.9949536,3.9949536 0 1 1 7.98991,0 z"
             sodipodi:ry="3.9949536"
             sodipodi:rx="3.9949536"
             sodipodi:cy="107.05201"
             sodipodi:cx="153.7847"
             id="path4059"
             style="fill:#b7d7d5;fill-opacity:1;stroke:#b7d7d5;stroke-width:1.5;stroke-miterlimit:4;stroke-dasharray:none"
             sodipodi:type="arc" />
          <path
             sodipodi:type="arc"
             style="fill:#b7d7d5;fill-opacity:1;stroke:#1b2a34;stroke-width:0.625;stroke-miterlimit:4;stroke-dasharray:none"
             id="path4041"
             sodipodi:cx="153.7847"
             sodipodi:cy="107.05201"
             sodipodi:rx="3.9949536"
             sodipodi:ry="3.9949536"
             d="m 157.77965,107.05201 a 3.9949536,3.9949536 0 1 1 -7.98991,0 3.9949536,3.9949536 0 1 1 7.98991,0 z"
             transform="translate(0.50462574,-0.50462574)" />
        </g>
        <g
           id="g4075">
          <path
             sodipodi:type="arc"
             style="fill:#b7d7d5;fill-opacity:1;stroke:#b7d7d5;stroke-width:1.94579589;stroke-miterlimit:4;stroke-dasharray:none"
             id="path4073"
             sodipodi:cx="153.7847"
             sodipodi:cy="107.05201"
             sodipodi:rx="3.9949536"
             sodipodi:ry="3.9949536"
             d="m 157.77965,107.05201 a 3.9949536,3.9949536 0 1 1 -7.98991,0 3.9949536,3.9949536 0 1 1 7.98991,0 z"
             transform="matrix(0.66810707,0,0,0.66810707,51.54468,17.491391)" />
          <path
             transform="matrix(0.66810707,0,0,0.66810707,51.54468,17.491391)"
             d="m 157.77965,107.05201 a 3.9949536,3.9949536 0 1 1 -7.98991,0 3.9949536,3.9949536 0 1 1 7.98991,0 z"
             sodipodi:ry="3.9949536"
             sodipodi:rx="3.9949536"
             sodipodi:cy="107.05201"
             sodipodi:cx="153.7847"
             id="path4069"
             style="fill:#b7d7d5;fill-opacity:1;stroke:#1b2a34;stroke-width:0.74838305;stroke-miterlimit:4;stroke-dasharray:none"
             sodipodi:type="arc" />
        </g>
      </g>
      <g
         transform="translate(28.797256,14.10628)"
         id="g4106">
        <path
           style="fill:none;stroke:#b7d7d5;stroke-width:1.5;stroke-linecap:butt;stroke-linejoin:miter;stroke-miterlimit:4;stroke-opacity:1;stroke-dasharray:none"
           d="M 154.35239,106.97248 154.22625,88.513651"
           id="path4108"
           inkscape:connector-curvature="0" />
        <g
           id="g4110">
          <path
             sodipodi:type="arc"
             style="fill:#b7d7d5;fill-opacity:1;stroke:#b7d7d5;stroke-width:1.5;stroke-miterlimit:4;stroke-dasharray:none"
             id="path4112"
             sodipodi:cx="153.7847"
             sodipodi:cy="107.05201"
             sodipodi:rx="3.9949536"
             sodipodi:ry="3.9949536"
             d="m 157.77965,107.05201 a 3.9949536,3.9949536 0 1 1 -7.98991,0 3.9949536,3.9949536 0 1 1 7.98991,0 z"
             transform="translate(0.50462574,-0.50462574)" />
          <path
             transform="translate(0.50462574,-0.50462574)"
             d="m 157.77965,107.05201 a 3.9949536,3.9949536 0 1 1 -7.98991,0 3.9949536,3.9949536 0 1 1 7.98991,0 z"
             sodipodi:ry="3.9949536"
             sodipodi:rx="3.9949536"
             sodipodi:cy="107.05201"
             sodipodi:cx="153.7847"
             id="path4114"
             style="fill:#b7d7d5;fill-opacity:1;stroke:#1b2a34;stroke-width:0.625;stroke-miterlimit:4;stroke-dasharray:none"
             sodipodi:type="arc" />
        </g>
        <g
           id="g4116">
          <path
             transform="matrix(0.66810707,0,0,0.66810707,51.54468,17.491391)"
             d="m 157.77965,107.05201 a 3.9949536,3.9949536 0 1 1 -7.98991,0 3.9949536,3.9949536 0 1 1 7.98991,0 z"
             sodipodi:ry="3.9949536"
             sodipodi:rx="3.9949536"
             sodipodi:cy="107.05201"
             sodipodi:cx="153.7847"
             id="path4118"
             style="fill:#b7d7d5;fill-opacity:1;stroke:#b7d7d5;stroke-width:1.94579589;stroke-miterlimit:4;stroke-dasharray:none"
             sodipodi:type="arc" />
          <path
             sodipodi:type="arc"
             style="fill:#b7d7d5;fill-opacity:1;stroke:#1b2a34;stroke-width:0.74838305;stroke-miterlimit:4;stroke-dasharray:none"
             id="path4120"
             sodipodi:cx="153.7847"
             sodipodi:cy="107.05201"
             sodipodi:rx="3.9949536"
             sodipodi:ry="3.9949536"
             d="m 157.77965,107.05201 a 3.9949536,3.9949536 0 1 1 -7.98991,0 3.9949536,3.9949536 0 1 1 7.98991,0 z"
             transform="matrix(0.66810707,0,0,0.66810707,51.54468,17.491391)" />
        </g>
      </g>
      <g
         mask="url(#mask4037)"
         transform="translate(27.819299,-0.93180205)"
         id="g4198">
        <rect
           style="fill:#b7d7d5;stroke:none"
           id="rect4200"
           width="5.0462575"
           height="3.1118586"
           x="149.62152"
           y="141.57681" />
        <rect
           y="141.57681"
           x="143.4819"
           height="3.1118586"
           width="5.0462575"
           id="rect4202"
           style="fill:#b7d7d5;stroke:none" />
        <rect
           style="fill:#b7d7d5;stroke:none"
           id="rect4204"
           width="5.0462575"
           height="3.1118586"
           x="155.76112"
           y="141.57681" />
        <rect
           y="141.57681"
           x="161.90074"
           height="3.1118586"
           width="5.0462575"
           id="rect4206"
           style="fill:#b7d7d5;stroke:none" />
      </g>
    </g>
    <g
       inkscape:groupmode="layer"
       id="layer5"
       inkscape:label="logo">
      <path
         sodipodi:nodetypes="ccccccccsccccccccc"
         inkscape:connector-curvature="0"
         id="path4194"
         d="m 177.5625,45.1875 c 1.60319,-4.158635 4.64389,-4.702988 8.40625,-3.34375 -2.654,-2.713038 -7.43211,-6.17206 -12.4375,-6.125 2.94106,2.764618 1.19139,4.108137 -2.6875,3.75 -0.0297,-0.186421 -0.0898,-0.353542 -0.125,-0.53125 l -0.40625,-2.90625 -0.6875,1.0625 c -0.19839,-0.06483 -0.44207,-0.07257 -0.71875,-0.03125 -0.0342,-0.0069 -0.0607,0.0049 -0.0937,0 -0.27668,-0.04132 -0.52036,-0.03358 -0.71875,0.03125 L 167.4063,36.03125 167,38.9375 c -0.0352,0.177708 -0.0953,0.344829 -0.125,0.53125 -3.87889,0.358137 -5.62856,-0.985382 -2.6875,-3.75 -5.00539,-0.04706 -9.7835,3.411962 -12.4375,6.125 3.76236,-1.359238 6.80306,-0.814885 8.40625,3.34375 4.03081,-1.107224 7.37363,0.04651 8.70312,5.466745 1.16048,-5.402916 4.70769,-6.564254 8.70313,-5.466745 z"
         style="fill:#b7d7d5;fill-opacity:1;stroke:#1b2a34;stroke-width:0.875;stroke-linecap:round;stroke-linejoin:round;stroke-miterlimit:4;stroke-opacity:1;stroke-dasharray:none" />
      <path
         style="fill:#b7d7d5;fill-opacity:1;stroke:#b7d7d5;stroke-width:0.125;stroke-linecap:round;stroke-linejoin:round;stroke-miterlimit:4;stroke-opacity:1;stroke-dasharray:none"
         d="m 177.5625,45.1875 c 1.60319,-4.158635 4.64389,-4.702988 8.40625,-3.34375 -2.654,-2.713038 -7.43211,-6.17206 -12.4375,-6.125 2.94106,2.764618 1.19139,4.108137 -2.6875,3.75 -0.0297,-0.186421 -0.0898,-0.353542 -0.125,-0.53125 l -0.40625,-2.90625 -0.6875,1.0625 c -0.19839,-0.06483 -0.44207,-0.07257 -0.71875,-0.03125 -0.0342,-0.0069 -0.0607,0.0049 -0.0937,0 -0.27668,-0.04132 -0.52036,-0.03358 -0.71875,0.03125 L 167.4063,36.03125 167,38.9375 c -0.0352,0.177708 -0.0953,0.344829 -0.125,0.53125 -3.87889,0.358137 -5.62856,-0.985382 -2.6875,-3.75 -5.00539,-0.04706 -9.7835,3.411962 -12.4375,6.125 3.76236,-1.359238 6.80306,-0.814885 8.40625,3.34375 4.03081,-1.107224 7.37363,0.04651 8.70312,5.466745 1.16048,-5.402916 4.70769,-6.564254 8.70313,-5.466745 z"
         id="path3058"
         inkscape:connector-curvature="0"
         sodipodi:nodetypes="ccccccccsccccccccc" />
    </g>
  </g>
  <g
     inkscape:label="template"
     inkscape:groupmode="layer"
     id="layer1"
     transform="translate(-360.9375,-409.84883)"
     style="display:inline">
    <path
       inkscape:connector-curvature="0"
       d="m 361.62563,526.17905 22.695,0 0,-11.205 -22.695,0 0,11.205 z"
       style="fill:none;stroke:#1b2a34;stroke-width:0.3125;stroke-linecap:butt;stroke-linejoin:miter;stroke-miterlimit:4;stroke-opacity:1;stroke-dasharray:none"
       id="path3029" />
    <path
       inkscape:connector-curvature="0"
       d="m 384.32188,512.3378 -22.6975,0 0,-42.43375 22.6975,0 0,42.43375 z"
       style="fill:none;stroke:#1b2a34;stroke-width:0.3125;stroke-linecap:butt;stroke-linejoin:miter;stroke-miterlimit:4;stroke-opacity:1;stroke-dasharray:none"
       id="path3033" />
    <path
       inkscape:connector-curvature="0"
       d="m 389.85563,526.17905 22.695,0 0,-11.205 -22.695,0 0,11.205 z"
       style="fill:none;stroke:#1b2a34;stroke-width:0.3125;stroke-linecap:butt;stroke-linejoin:miter;stroke-miterlimit:4;stroke-opacity:1;stroke-dasharray:none"
       id="path3045" />
    <path
       inkscape:connector-curvature="0"
       d="m 361.13813,452.9203 c 8.7325,-47.29375 5.3425,-42.67875 14.2675,-42.85625 l 23.44,0 c 8.92625,0.1775 5.535,-4.4375 14.265,42.85625 l -51.9725,0 z"
       style="fill:none;stroke:#1b2a34;stroke-width:0.3125;stroke-linecap:butt;stroke-linejoin:miter;stroke-miterlimit:4;stroke-opacity:1;stroke-dasharray:none"
       id="path3093" />
    <path
       id="path4124"
       style="fill:none;stroke:#1b2a34;stroke-width:0.3125;stroke-linecap:butt;stroke-linejoin:miter;stroke-miterlimit:4;stroke-opacity:1;stroke-dasharray:none"
       d="m 361.13813,452.9203 c 8.7325,-47.29375 5.3425,-42.67875 14.2675,-42.85625 l 23.44,0 c 8.92625,0.1775 5.535,-4.4375 14.265,42.85625 l -51.9725,0 z"
       inkscape:connector-curvature="0" />
    <path
       id="path4076"
       style="fill:none;stroke:#1b2a34;stroke-width:0.3125;stroke-linecap:butt;stroke-linejoin:miter;stroke-miterlimit:4;stroke-opacity:1;stroke-dasharray:none"
       d="m 412.60471,512.3378 -22.6975,0 0,-42.43375 22.6975,0 0,42.43375 z"
       inkscape:connector-curvature="0" />
  </g>
</svg>
