<?xml version="1.0" encoding="UTF-8" standalone="no"?>
<!-- Created with Inkscape (http://www.inkscape.org/) -->

<svg
   xmlns:dc="http://purl.org/dc/elements/1.1/"
   xmlns:cc="http://creativecommons.org/ns#"
   xmlns:rdf="http://www.w3.org/1999/02/22-rdf-syntax-ns#"
   xmlns:svg="http://www.w3.org/2000/svg"
   xmlns="http://www.w3.org/2000/svg"
   xmlns:xlink="http://www.w3.org/1999/xlink"
   xmlns:sodipodi="http://sodipodi.sourceforge.net/DTD/sodipodi-0.dtd"
   xmlns:inkscape="http://www.inkscape.org/namespaces/inkscape"
   width="113.125"
   height="147.96875"
   id="svg2"
   version="1.1"
   inkscape:version="0.48.2 r9819"
   sodipodi:docname="Black_Canary.tlg.Batman2Videogame.svg"
   inkscape:export-filename="G:\GitHub\minifig-svg-decals\figures\super heroes\Black_Canary.tlg.Batman2Videogame.png"
   inkscape:export-xdpi="1715"
   inkscape:export-ydpi="1715">
  <defs
     id="defs4">
    <linearGradient
       inkscape:collect="always"
       id="linearGradient4011">
      <stop
         style="stop-color:#ffffff;stop-opacity:1;"
         offset="0"
         id="stop4013" />
      <stop
         style="stop-color:#ffffff;stop-opacity:0;"
         offset="1"
         id="stop4015" />
    </linearGradient>
    <linearGradient
       inkscape:collect="always"
       id="linearGradient3997">
      <stop
         style="stop-color:#ffffff;stop-opacity:1;"
         offset="0"
         id="stop3999" />
      <stop
         style="stop-color:#ffffff;stop-opacity:0;"
         offset="1"
         id="stop4001" />
    </linearGradient>
    <inkscape:path-effect
       effect="skeletal"
       id="path-effect4237"
       is_visible="true"
       pattern="M 0,5 C 0,2.24 2.24,0 5,0 7.76,0 10,2.24 10,5 10,7.76 7.76,10 5,10 2.24,10 0,7.76 0,5 z"
       copytype="single_stretched"
       prop_scale="1"
       scale_y_rel="false"
       spacing="0"
       normal_offset="0"
       tang_offset="0"
       prop_units="false"
       vertical_pattern="false"
       fuse_tolerance="0" />
    <clipPath
       id="clipPath2999"
       clipPathUnits="userSpaceOnUse">
      <path
         id="path3001"
         d="M 0,792 612,792 612,0 0,0 0,792 z"
         inkscape:connector-curvature="0" />
    </clipPath>
    <radialGradient
       gradientUnits="userSpaceOnUse"
       gradientTransform="matrix(0.75988491,-0.03632001,0.13155835,2.7524547,16.986326,-78.268899)"
       r="12.650181"
       fy="46.658409"
       fx="96.306435"
       cy="46.658409"
       cx="96.306435"
       id="radialGradient3972"
       xlink:href="#linearGradient3966"
       inkscape:collect="always" />
    <clipPath
       clipPathUnits="userSpaceOnUse"
       id="clipPath2999-4">
      <path
         inkscape:connector-curvature="0"
         d="M 0,792 612,792 612,0 0,0 0,792 z"
         id="path3001-0" />
    </clipPath>
    <linearGradient
       id="linearGradient3966">
      <stop
         id="stop3968"
         offset="0"
         style="stop-color:#c0ac02;stop-opacity:1;" />
      <stop
         id="stop3970"
         offset="1"
         style="stop-color:#fdea41;stop-opacity:0;" />
    </linearGradient>
    <radialGradient
       inkscape:collect="always"
       xlink:href="#linearGradient3997"
       id="radialGradient4003"
       cx="165.81134"
       cy="47.693741"
       fx="165.81134"
       fy="47.693741"
       r="3.8123069"
       gradientTransform="matrix(0.64374811,-0.18781617,0.31213841,1.069868,43.640483,27.15595)"
       gradientUnits="userSpaceOnUse" />
    <radialGradient
       inkscape:collect="always"
       xlink:href="#linearGradient3997"
       id="radialGradient4007"
       gradientUnits="userSpaceOnUse"
       gradientTransform="matrix(-0.64374811,-0.18781617,-0.31213841,1.069868,293.73143,27.15595)"
       cx="165.81134"
       cy="47.693741"
       fx="165.81134"
       fy="47.693741"
       r="3.8123069" />
    <radialGradient
       inkscape:collect="always"
       xlink:href="#linearGradient4011"
       id="radialGradient4017"
       cx="169.32254"
       cy="41.784931"
       fx="169.32254"
       fy="41.784931"
       r="6.982676"
       gradientTransform="matrix(0.31036379,-0.01814613,0.03701409,0.63307367,114.75293,21.468668)"
       gradientUnits="userSpaceOnUse" />
    <linearGradient
       id="linearGradient3966-2">
      <stop
         style="stop-color:#c0ac02;stop-opacity:1;"
         offset="0"
         id="stop3968-4" />
      <stop
         style="stop-color:#fdea41;stop-opacity:0;"
         offset="1"
         id="stop3970-5" />
    </linearGradient>
    <clipPath
       id="clipPath2999-4-8"
       clipPathUnits="userSpaceOnUse">
      <path
         id="path3001-0-8"
         d="M 0,792 612,792 612,0 0,0 0,792 z"
         inkscape:connector-curvature="0" />
    </clipPath>
    <radialGradient
       inkscape:collect="always"
       xlink:href="#linearGradient3966-2"
       id="radialGradient3972-4"
       cx="96.306435"
       cy="46.658409"
       fx="96.306435"
       fy="46.658409"
       r="12.650181"
       gradientTransform="matrix(0.75988491,-0.03632001,0.13155835,2.7524547,16.986326,-78.268899)"
       gradientUnits="userSpaceOnUse" />
    <clipPath
       clipPathUnits="userSpaceOnUse"
       id="clipPath2999-0">
      <path
         inkscape:connector-curvature="0"
         d="M 0,792 612,792 612,0 0,0 0,792 z"
         id="path3001-9" />
    </clipPath>
    <inkscape:path-effect
       fuse_tolerance="0"
       vertical_pattern="false"
       prop_units="false"
       tang_offset="0"
       normal_offset="0"
       spacing="0"
       scale_y_rel="false"
       prop_scale="1"
       copytype="single_stretched"
       pattern="M 0,5 C 0,2.24 2.24,0 5,0 7.76,0 10,2.24 10,5 10,7.76 7.76,10 5,10 2.24,10 0,7.76 0,5 z"
       is_visible="true"
       id="path-effect4237-4"
       effect="skeletal" />
    <inkscape:path-effect
       effect="skeletal"
       id="path-effect4237-4-5"
       is_visible="true"
       pattern="M 0,5 C 0,2.24 2.24,0 5,0 7.76,0 10,2.24 10,5 10,7.76 7.76,10 5,10 2.24,10 0,7.76 0,5 z"
       copytype="single_stretched"
       prop_scale="1"
       scale_y_rel="false"
       spacing="0"
       normal_offset="0"
       tang_offset="0"
       prop_units="false"
       vertical_pattern="false"
       fuse_tolerance="0" />
    <clipPath
       id="clipPath2999-0-6"
       clipPathUnits="userSpaceOnUse">
      <path
         id="path3001-9-8"
         d="M 0,792 612,792 612,0 0,0 0,792 z"
         inkscape:connector-curvature="0" />
    </clipPath>
    <radialGradient
       gradientUnits="userSpaceOnUse"
       gradientTransform="matrix(0.75988491,-0.03632001,0.13155835,2.7524547,16.986326,-78.268899)"
       r="12.650181"
       fy="46.658409"
       fx="96.306435"
       cy="46.658409"
       cx="96.306435"
       id="radialGradient3972-4-1"
       xlink:href="#linearGradient3966-2-4"
       inkscape:collect="always" />
    <clipPath
       clipPathUnits="userSpaceOnUse"
       id="clipPath2999-4-8-2">
      <path
         inkscape:connector-curvature="0"
         d="M 0,792 612,792 612,0 0,0 0,792 z"
         id="path3001-0-8-2" />
    </clipPath>
    <linearGradient
       id="linearGradient3966-2-4">
      <stop
         id="stop3968-4-2"
         offset="0"
         style="stop-color:#c0ac02;stop-opacity:1;" />
      <stop
         id="stop3970-5-3"
         offset="1"
         style="stop-color:#fdea41;stop-opacity:0;" />
    </linearGradient>
    <radialGradient
       gradientUnits="userSpaceOnUse"
       gradientTransform="matrix(0.31036379,-0.01814613,0.03701409,0.63307367,114.75293,21.468668)"
       r="6.982676"
       fy="41.784931"
       fx="169.32254"
       cy="41.784931"
       cx="169.32254"
       id="radialGradient4017-1"
       xlink:href="#linearGradient4011-4"
       inkscape:collect="always" />
    <radialGradient
       r="3.8123069"
       fy="47.693741"
       fx="165.81134"
       cy="47.693741"
       cx="165.81134"
       gradientTransform="matrix(-0.64374811,-0.18781617,-0.31213841,1.069868,293.73143,27.15595)"
       gradientUnits="userSpaceOnUse"
       id="radialGradient4007-6"
       xlink:href="#linearGradient3997-4"
       inkscape:collect="always" />
    <radialGradient
       gradientUnits="userSpaceOnUse"
       gradientTransform="matrix(0.64374811,-0.18781617,0.31213841,1.069868,43.640483,27.15595)"
       r="3.8123069"
       fy="47.693741"
       fx="165.81134"
       cy="47.693741"
       cx="165.81134"
       id="radialGradient4003-7"
       xlink:href="#linearGradient3997-4"
       inkscape:collect="always" />
    <linearGradient
       id="linearGradient3966-1">
      <stop
         style="stop-color:#c0ac02;stop-opacity:1;"
         offset="0"
         id="stop3968-5" />
      <stop
         style="stop-color:#fdea41;stop-opacity:0;"
         offset="1"
         id="stop3970-2" />
    </linearGradient>
    <clipPath
       id="clipPath2999-4-7"
       clipPathUnits="userSpaceOnUse">
      <path
         id="path3001-0-1"
         d="M 0,792 612,792 612,0 0,0 0,792 z"
         inkscape:connector-curvature="0" />
    </clipPath>
    <radialGradient
       inkscape:collect="always"
       xlink:href="#linearGradient3966-1"
       id="radialGradient3972-1"
       cx="96.306435"
       cy="46.658409"
       fx="96.306435"
       fy="46.658409"
       r="12.650181"
       gradientTransform="matrix(0.75988491,-0.03632001,0.13155835,2.7524547,16.986326,-78.268899)"
       gradientUnits="userSpaceOnUse" />
    <clipPath
       clipPathUnits="userSpaceOnUse"
       id="clipPath2999-45">
      <path
         inkscape:connector-curvature="0"
         d="M 0,792 612,792 612,0 0,0 0,792 z"
         id="path3001-5" />
    </clipPath>
    <inkscape:path-effect
       fuse_tolerance="0"
       vertical_pattern="false"
       prop_units="false"
       tang_offset="0"
       normal_offset="0"
       spacing="0"
       scale_y_rel="false"
       prop_scale="1"
       copytype="single_stretched"
       pattern="M 0,5 C 0,2.24 2.24,0 5,0 7.76,0 10,2.24 10,5 10,7.76 7.76,10 5,10 2.24,10 0,7.76 0,5 z"
       is_visible="true"
       id="path-effect4237-2"
       effect="skeletal" />
    <linearGradient
       id="linearGradient3997-4"
       inkscape:collect="always">
      <stop
         id="stop3999-8"
         offset="0"
         style="stop-color:#ffffff;stop-opacity:1;" />
      <stop
         id="stop4001-8"
         offset="1"
         style="stop-color:#ffffff;stop-opacity:0;" />
    </linearGradient>
    <linearGradient
       id="linearGradient4011-4"
       inkscape:collect="always">
      <stop
         id="stop4013-0"
         offset="0"
         style="stop-color:#ffffff;stop-opacity:1;" />
      <stop
         id="stop4015-9"
         offset="1"
         style="stop-color:#ffffff;stop-opacity:0;" />
    </linearGradient>
    <mask
       maskUnits="userSpaceOnUse"
       id="mask4069">
      <path
         id="path4071"
         style="fill:#ffffff;fill-opacity:1;stroke:#231f20;stroke-width:0.3125;stroke-linecap:butt;stroke-linejoin:miter;stroke-miterlimit:4;stroke-opacity:1;stroke-dasharray:none;display:inline"
         d="m 82.79221,133.9628 -22.6975,0 0,-42.43375 22.6975,0 0,42.43375 z"
         inkscape:connector-curvature="0" />
    </mask>
  </defs>
  <sodipodi:namedview
     id="base"
     pagecolor="#ffffff"
     bordercolor="#666666"
     borderopacity="1.0"
     inkscape:pageopacity="0.0"
     inkscape:pageshadow="2"
     inkscape:zoom="3.19"
     inkscape:cx="72.954786"
     inkscape:cy="135.91129"
     inkscape:document-units="px"
     inkscape:current-layer="layer5"
     showgrid="false"
     fit-margin-top="0"
     fit-margin-left="0"
     fit-margin-right="0"
     fit-margin-bottom="0"
     inkscape:window-width="1400"
     inkscape:window-height="1024"
     inkscape:window-x="1276"
     inkscape:window-y="-4"
     inkscape:window-maximized="1"
     showguides="true"
     inkscape:guide-bbox="true"
     inkscape:snap-global="false">
    <sodipodi:guide
       orientation="0,1"
       position="42.40633,94.799049"
       id="guide3274" />
    <sodipodi:guide
       orientation="1,0"
       position="57.25659,99.915751"
       id="guide3960" />
  </sodipodi:namedview>
  <metadata
     id="metadata7">
    <rdf:RDF>
      <cc:Work
         rdf:about="">
        <dc:format>image/svg+xml</dc:format>
        <dc:type
           rdf:resource="http://purl.org/dc/dcmitype/StillImage" />
        <dc:title></dc:title>
      </cc:Work>
    </rdf:RDF>
  </metadata>
  <g
     inkscape:groupmode="layer"
     id="layer3"
     inkscape:label="canary"
     style="display:inline">
    <g
       inkscape:groupmode="layer"
       id="layer5"
       inkscape:label="torso"
       style="display:inline"
       sodipodi:insensitive="true">
      <path
         transform="translate(-329.8125,-378.375)"
         inkscape:connector-curvature="0"
         d="m 361.13813,452.9203 c 8.7325,-47.29375 5.3425,-42.67875 14.2675,-42.85625 l 23.44,0 c 8.92625,0.1775 5.535,-4.4375 14.265,42.85625 l -51.9725,0 z"
         style="fill:#635f61;stroke:#231f20;stroke-width:0.3125;stroke-linecap:butt;stroke-linejoin:miter;stroke-miterlimit:4;stroke-opacity:1;stroke-dasharray:none;display:inline"
         id="path3970" />
      <path
         inkscape:connector-curvature="0"
         id="path3969"
         d="m 42.50907,31.419975 c -0.27345,-0.0021 -0.51296,0.01438 -0.75,0.03125 -0.2517,0.01598 -0.50065,0.04528 -0.71875,0.09375 -0.19414,0.04649 -0.36055,0.103301 -0.53125,0.1875 -1.79689,0.886304 -2.41272,4.126231 -4.4375,15.343749 -0.79249,4.39047 3.12451,9.636 2.34375,17.375 -0.42679,4.23039 -5.79223,6.78828 -7.125,9.875 l 52,0 c -1.33277,-3.08672 -6.69821,-5.64461 -7.125,-9.875 -0.78076,-7.739 3.13624,-12.98453 2.34375,-17.375 -2.02478,-11.217518 -2.64061,-14.457445 -4.4375,-15.343749 -0.1707,-0.0842 -0.33711,-0.141007 -0.53125,-0.1875 -0.01,-0.0021 -0.0215,0.0021 -0.0312,0 -0.18742,-0.04293 -0.41185,-0.07634 -0.625,-0.09375 -0.3229,-0.02336 -0.6732,-0.03967 -1.0625,-0.03125 -0.21166,0.0041 -0.42118,0.02383 -0.65625,0.03125 -0.63668,0.02078 -1.3262,0.04776 -2.15625,0.03125 l -23.4375,0 c -0.83005,0.01651 -1.51957,-0.01047 -2.15625,-0.03125 -0.0104,-3.4e-4 -0.0209,3.37e-4 -0.0312,0 -0.31503,-0.0099 -0.60155,-0.0291 -0.875,-0.03125 z"
         style="fill:#fdc97d;stroke:#231f20;stroke-width:0.3125;stroke-linecap:butt;stroke-linejoin:miter;stroke-miterlimit:4;stroke-opacity:1;stroke-dasharray:none;display:inline" />
      <path
         style="fill:#cc8e68;fill-opacity:1;stroke:none;display:inline"
         d="m 38.10282,46.982474 c -0.73311,1.041476 -1.1875,2.253697 -1.1875,3.5625 0,3.798322 3.54978,6.875 7.9375,6.875 3.68403,0 6.78844,-2.180491 7.6875,-5.125 -1.06045,2.702051 -3.98753,4.625 -7.4375,4.625 -4.34406,0 -7.875,-3.076678 -7.875,-6.875 0,-1.114575 0.33674,-2.131405 0.875,-3.0625 z"
         id="path3165"
         inkscape:connector-curvature="0" />
      <path
         id="path3172"
         d="m 75.82713,46.982474 c 0.73311,1.041476 1.1875,2.253697 1.1875,3.5625 0,3.798322 -3.54978,6.875 -7.9375,6.875 -3.68403,0 -6.78844,-2.180491 -7.6875,-5.125 1.06045,2.702051 3.98753,4.625 7.4375,4.625 4.34406,0 7.875,-3.076678 7.875,-6.875 0,-1.114575 -0.33674,-2.131405 -0.875,-3.0625 z"
         style="fill:#cc8e68;fill-opacity:1;stroke:none;display:inline"
         inkscape:connector-curvature="0" />
      <path
         style="font-size:medium;font-style:normal;font-variant:normal;font-weight:normal;font-stretch:normal;text-indent:0;text-align:start;text-decoration:none;line-height:normal;letter-spacing:normal;word-spacing:normal;text-transform:none;direction:ltr;block-progression:tb;writing-mode:lr-tb;text-anchor:start;baseline-shift:baseline;color:#000000;fill:#cc8e68;fill-opacity:1;stroke:none;stroke-width:1px;marker:none;visibility:visible;display:inline;overflow:visible;enable-background:accumulate;font-family:Sans;-inkscape-font-specification:Sans"
         d="m 60.405447,32.888725 c -1.1334,0.189853 -1.788,0.676502 -2.21875,1.03125 -0.21538,0.177374 -0.37051,0.300681 -0.5,0.375 -0.11136,0.06392 -0.20538,0.09285 -0.34375,0.09375 -0.0257,0.0014 -0.04,1.46e-4 -0.0625,0 -0.13837,-8.98e-4 -0.23239,-0.02983 -0.34375,-0.09375 -0.12949,-0.07432 -0.28462,-0.197626 -0.5,-0.375 -0.43075,-0.354748 -1.08535,-0.841397 -2.21875,-1.03125 -2.16944,-0.36339 -5.30878,-0.435516 -5.32813,-0.234375 -0.0193,0.201141 2.68994,0.183485 4.85938,0.546875 1.1334,0.189853 2.3505,1.145252 2.78125,1.5 0.21538,0.177374 0.37051,0.30068 0.5,0.375 0.055,0.03159 0.10464,0.04668 0.15625,0.0625 -0.002,0.01364 0.002,0.01671 0,0.03125 0.0533,0.003 0.0839,-0.02739 0.125,-0.03125 0.0411,0.0039 0.0717,0.03421 0.125,0.03125 -0.002,-0.01454 0.002,-0.01761 0,-0.03125 0.0516,-0.01582 0.10122,-0.03091 0.15625,-0.0625 0.12949,-0.07432 0.28462,-0.197626 0.5,-0.375 0.43075,-0.354748 1.64785,-1.310147 2.78125,-1.5 2.16944,-0.36339 4.90141,-0.368424 4.85937,-0.546875 -0.042,-0.178451 -3.15868,-0.129015 -5.32812,0.234375 z"
         id="path3174"
         inkscape:connector-curvature="0"
         sodipodi:nodetypes="ssscsssszsscccccccsszs" />
      <path
         transform="translate(-329.8125,-378.375)"
         id="path3977"
         style="fill:none;stroke:#231f20;stroke-width:0.3125;stroke-linecap:butt;stroke-linejoin:miter;stroke-miterlimit:4;stroke-opacity:1;stroke-dasharray:none;display:inline"
         d="m 361.62563,526.17905 22.695,0 0,-11.205 -22.695,0 0,11.205 z"
         inkscape:connector-curvature="0" />
      <path
         transform="translate(-329.8125,-378.375)"
         id="path3979"
         style="fill:none;stroke:#231f20;stroke-width:0.3125;stroke-linecap:butt;stroke-linejoin:miter;stroke-miterlimit:4;stroke-opacity:1;stroke-dasharray:none;display:inline"
         d="m 384.32188,512.3378 -22.6975,0 0,-42.43375 22.6975,0 0,42.43375 z"
         inkscape:connector-curvature="0" />
      <path
         transform="translate(-329.8125,-378.375)"
         id="path3981"
         style="fill:#ffffff;fill-opacity:1;fill-rule:nonzero;stroke:none;display:inline"
         d="m 362.25313,493.9003 21.44125,0"
         inkscape:connector-curvature="0" />
      <path
         transform="translate(-329.8125,-378.375)"
         id="path3983"
         style="fill:#1b2a34;stroke:#231f20;stroke-width:0.3125;stroke-linecap:butt;stroke-linejoin:miter;stroke-miterlimit:4;stroke-opacity:1;stroke-dasharray:none;display:inline"
         d="m 389.85563,526.17905 22.695,0 0,-11.205 -22.695,0 0,11.205 z"
         inkscape:connector-curvature="0" />
      <path
         id="path3985"
         style="fill:#ffffff;fill-opacity:1;fill-rule:nonzero;stroke:none;display:inline"
         d="m 60.809152,134.70692 21.44,0"
         inkscape:connector-curvature="0" />
      <path
         transform="translate(-329.8125,-378.375)"
         inkscape:connector-curvature="0"
         d="m 412.60471,512.3378 -22.6975,0 0,-42.43375 22.6975,0 0,42.43375 z"
         style="fill:#fdc97d;stroke:#231f20;stroke-width:0.3125;stroke-linecap:butt;stroke-linejoin:miter;stroke-miterlimit:4;stroke-opacity:1;stroke-dasharray:none;display:inline"
         id="path3987" />
      <use
         x="0"
         y="0"
         xlink:href="#path3983"
         id="use4073"
         width="113.125"
         height="147.96875" />
      <use
         x="0"
         y="0"
         xlink:href="#path3985"
         id="use4075"
         width="113.125"
         height="147.96875" />
      <use
         x="0"
         y="0"
         xlink:href="#path3987"
         id="use4077"
         width="113.125"
         height="147.96875" />
      <use
         x="0"
         y="0"
         xlink:href="#path3983"
         id="use4079"
         transform="translate(-28.541667,0)"
         width="113.125"
         height="147.96875" />
      <use
         x="0"
         y="0"
         xlink:href="#path3985"
         id="use4081"
         transform="translate(-28.541667,0)"
         width="113.125"
         height="147.96875" />
      <use
         x="0"
         y="0"
         xlink:href="#path3987"
         id="use4083"
         transform="translate(-28.541667,0)"
         width="113.125"
         height="147.96875" />
      <use
         x="0"
         y="0"
         xlink:href="#use4073"
         id="use4085"
         transform="translate(-28.541667,0)"
         width="113.125"
         height="147.96875" />
      <use
         x="0"
         y="0"
         xlink:href="#use4075"
         id="use4087"
         transform="translate(-28.541667,0)"
         width="113.125"
         height="147.96875" />
      <use
         x="0"
         y="0"
         xlink:href="#use4077"
         id="use4089"
         transform="translate(-28.541667,0)"
         width="113.125"
         height="147.96875" />
      <path
         transform="translate(-329.8125,-378.375)"
         id="path4093"
         style="fill:#fdc97d;stroke:#231f20;stroke-width:0.3125;stroke-linecap:butt;stroke-linejoin:miter;stroke-miterlimit:4;stroke-opacity:1;stroke-dasharray:none;display:inline"
         d="m 442.76625,399.93655 -112.8,0 0,-21.39125 112.8,0 0,21.39125 z"
         inkscape:connector-curvature="0" />
    </g>
    <g
       inkscape:groupmode="layer"
       id="layer9"
       inkscape:label="legs"
       style="display:inline"
       sodipodi:insensitive="true">
      <g
         id="g4057"
         mask="url(#mask4069)">
        <g
           style="stroke-width:0.875;stroke-miterlimit:4;stroke-dasharray:none;display:inline"
           transform="translate(0,15.027108)"
           id="g4025">
          <rect
             style="fill:none;stroke:#1b2a34;stroke-width:0.88052821;stroke-miterlimit:4;stroke-dasharray:none"
             id="rect4019"
             width="9.3801966"
             height="9.3801966"
             x="114.34002"
             y="13.417827"
             ry="0"
             transform="matrix(0.64895063,0.76083052,-0.64895063,0.76083052,0,0)" />
          <rect
             transform="matrix(0.64895063,0.76083052,-0.64895063,0.76083052,0,0)"
             ry="0"
             y="4.1172204"
             x="123.64062"
             height="9.3801966"
             width="9.3801966"
             id="rect4023"
             style="fill:none;stroke:#1b2a34;stroke-width:0.88052821;stroke-miterlimit:4;stroke-dasharray:none" />
        </g>
        <g
           style="stroke-width:0.875;stroke-miterlimit:4;stroke-dasharray:none;display:inline"
           transform="translate(0,0.68832953)"
           id="g4029">
          <rect
             transform="matrix(0.64895063,0.76083052,-0.64895063,0.76083052,0,0)"
             ry="0"
             y="13.417827"
             x="114.34002"
             height="9.3801966"
             width="9.3801966"
             id="rect4031"
             style="fill:none;stroke:#1b2a34;stroke-width:0.88052821;stroke-miterlimit:4;stroke-dasharray:none" />
          <rect
             style="fill:none;stroke:#1b2a34;stroke-width:0.88052821;stroke-miterlimit:4;stroke-dasharray:none"
             id="rect4033"
             width="9.3801966"
             height="9.3801966"
             x="123.64062"
             y="4.1172204"
             ry="0"
             transform="matrix(0.64895063,0.76083052,-0.64895063,0.76083052,0,0)" />
        </g>
        <g
           transform="translate(0,-13.650448)"
           style="stroke-width:0.875;stroke-miterlimit:4;stroke-dasharray:none;display:inline"
           id="g4035">
          <rect
             style="fill:none;stroke:#1b2a34;stroke-width:0.88052821;stroke-miterlimit:4;stroke-dasharray:none"
             id="rect4037"
             width="9.3801966"
             height="9.3801966"
             x="114.34002"
             y="13.417827"
             ry="0"
             transform="matrix(0.64895063,0.76083052,-0.64895063,0.76083052,0,0)" />
          <rect
             transform="matrix(0.64895063,0.76083052,-0.64895063,0.76083052,0,0)"
             ry="0"
             y="4.1172204"
             x="123.64062"
             height="9.3801966"
             width="9.3801966"
             id="rect4039"
             style="fill:none;stroke:#1b2a34;stroke-width:0.88052821;stroke-miterlimit:4;stroke-dasharray:none" />
        </g>
        <rect
           y="126.07152"
           x="58.735176"
           height="8.695652"
           width="25.375494"
           id="rect4041"
           style="fill:#1b2a34;stroke:#1b2a34;stroke-width:0.875;stroke-linecap:round;stroke-linejoin:round;stroke-miterlimit:4;stroke-opacity:1;stroke-dasharray:none;stroke-dashoffset:0;display:inline" />
      </g>
      <use
         x="0"
         y="0"
         xlink:href="#g4057"
         id="use4091"
         transform="translate(-28.541667,0)"
         width="113.125"
         height="147.96875" />
    </g>
    <g
       inkscape:groupmode="layer"
       id="layer6"
       inkscape:label="dress"
       style="display:inline"
       sodipodi:insensitive="true">
      <path
         style="fill:#1b2a34;stroke:none;display:inline"
         d="m 37.84375,38.25 c -0.463922,2.189309 -0.968933,5.004685 -1.65625,8.8125 -0.79249,4.39047 3.12451,9.636 2.34375,17.375 -0.42679,4.23039 -5.79223,6.78828 -7.125,9.875 l 24.125,0 3.625,0 24.125,0 c -1.33277,-3.08672 -6.69821,-5.64461 -7.125,-9.875 -0.78076,-7.739 3.13624,-12.98453 2.34375,-17.375 -0.687317,-3.807815 -1.192328,-6.623191 -1.65625,-8.8125 -0.70704,0.01491 -1.596164,0.02341 -1.75,0.03125 -10.039512,0.511773 -13.969497,4.237933 -16.875,7.28125 -0.268933,0.281689 -0.557711,0.405127 -0.875,0.46875 -0.31959,-0.06312 -0.604415,-0.18533 -0.875,-0.46875 -2.905503,-3.043317 -6.835488,-6.769477 -16.875,-7.28125 -0.153836,-0.0078 -1.04296,-0.01634 -1.75,-0.03125 z"
         id="path3140"
         inkscape:connector-curvature="0" />
      <path
         inkscape:connector-curvature="0"
         id="path3147"
         d="m 38.10282,46.982474 c -0.73311,1.041476 -1.1875,2.253697 -1.1875,3.5625 0,3.798322 3.54978,6.875 7.9375,6.875 3.68403,0 6.78844,-2.180491 7.6875,-5.125 -1.06045,2.702051 -3.98753,4.625 -7.4375,4.625 -4.34406,0 -7.875,-3.076678 -7.875,-6.875 0,-1.114575 0.33674,-2.131405 0.875,-3.0625 z"
         style="fill:#635f61;fill-opacity:1;stroke:none;display:inline" />
      <path
         inkscape:connector-curvature="0"
         style="fill:#635f61;fill-opacity:1;stroke:none;display:inline"
         d="m 75.82713,46.982474 c 0.73311,1.041476 1.1875,2.253697 1.1875,3.5625 0,3.798322 -3.54978,6.875 -7.9375,6.875 -3.68403,0 -6.78844,-2.180491 -7.6875,-5.125 1.06045,2.702051 3.98753,4.625 7.4375,4.625 4.34406,0 7.875,-3.076678 7.875,-6.875 0,-1.114575 -0.33674,-2.131405 -0.875,-3.0625 z"
         id="path3149" />
    </g>
    <g
       inkscape:groupmode="layer"
       id="layer7"
       inkscape:label="belt"
       style="display:inline"
       sodipodi:insensitive="true">
      <path
         style="fill:#f2f3f2;stroke:#231f20;stroke-width:0.3125;stroke-linecap:butt;stroke-linejoin:miter;stroke-miterlimit:4;stroke-opacity:1;stroke-dasharray:none;display:inline"
         d="m 38.5,61.9375 c 0.0174,0.807957 -0.0061,1.631561 -0.09375,2.5 -0.07061,0.699934 -0.293379,1.350415 -0.59375,1.96875 12.987136,1.621036 25.968755,1.700094 38.96875,0.0625 -0.3153,-0.634803 -0.552252,-1.310161 -0.625,-2.03125 C 76.070854,63.591047 76.047807,62.788939 76.0625,62 63.549403,63.561663 51.025842,63.489374 38.5,61.9375 z"
         id="path3928"
         inkscape:connector-curvature="0" />
      <path
         sodipodi:type="arc"
         style="fill:#f2f3f2;fill-opacity:1;stroke:#000000;stroke-width:0.375;stroke-linecap:round;stroke-linejoin:round;stroke-miterlimit:4;stroke-opacity:1;stroke-dasharray:none;stroke-dashoffset:0"
         id="path3933"
         sodipodi:cx="57.753273"
         sodipodi:cy="64.577988"
         sodipodi:rx="4.5485873"
         sodipodi:ry="4.5485873"
         d="m 62.30186,64.577988 a 4.5485873,4.5485873 0 1 1 -9.097174,0 4.5485873,4.5485873 0 1 1 9.097174,0 z"
         transform="translate(0,0.62026189)" />
      <path
         transform="matrix(0.48296293,0,0,0.48296293,29.860584,34.009476)"
         d="m 62.30186,64.577988 a 4.5485873,4.5485873 0 1 1 -9.097174,0 4.5485873,4.5485873 0 1 1 9.097174,0 z"
         sodipodi:ry="4.5485873"
         sodipodi:rx="4.5485873"
         sodipodi:cy="64.577988"
         sodipodi:cx="57.753273"
         id="path3935"
         style="fill:#b4d2e3;fill-opacity:1;stroke:#000000;stroke-width:0.77645713;stroke-linecap:round;stroke-linejoin:round;stroke-miterlimit:4;stroke-opacity:1;stroke-dasharray:none;stroke-dashoffset:0"
         sodipodi:type="arc" />
    </g>
    <g
       inkscape:groupmode="layer"
       id="layer8"
       inkscape:label="Jacket"
       sodipodi:insensitive="true"
       style="display:inline">
      <g
         id="g3963">
        <path
           sodipodi:nodetypes="sccsscs"
           inkscape:connector-curvature="0"
           id="path3958"
           d="m 71.84375,31.65625 c -0.778591,0.01683 -1.696719,0.05344 -2.8125,0.03125 l -4.1875,0 c 0.832648,2.035304 1.963784,4.522936 1.96875,6.625 0.01473,6.235385 -2.784262,12.418004 -0.03125,19.125 3.386601,8.250572 5.267276,9.169745 15,8.71875 -5.912571,-33.202127 -4.88354,-34.609269 -9.9375,-34.5 z"
           style="fill:#0d69ab;stroke:none" />
        <path
           sodipodi:nodetypes="ccsssssccsssssc"
           inkscape:connector-curvature="0"
           id="path3938"
           d="m 65.983614,31.679101 -1.327364,0.03965 c 1.796577,5.783612 1.365535,10.369662 0.875,14.46875 -0.311243,2.600861 -1.050876,5.025156 -0.830316,7.389359 0.127054,1.361899 0.832972,2.703858 1.455316,4.048141 1.502776,3.246041 2.026193,3.916568 4.71875,7 0.982842,1.12552 1.974887,1.677685 3.53125,1.84375 1.556363,0.166065 3.708034,0.01256 7.34375,-0.09375 l -0.03125,-1 c -3.6493,0.106711 -5.794145,0.242422 -7.1875,0.09375 -1.393355,-0.148672 -2.017076,-0.481745 -2.90625,-1.5 -2.688495,-3.078782 -3.073038,-3.563969 -4.5625,-6.78125 -0.589158,-1.272599 -1.266504,-2.40123 -1.309465,-3.716602 -0.07084,-2.169119 0.830061,-4.594931 1.136829,-7.158398 0.492795,-4.117976 0.948697,-8.661881 -0.90625,-14.6334 z"
           style="font-size:medium;font-style:normal;font-variant:normal;font-weight:normal;font-stretch:normal;text-indent:0;text-align:start;text-decoration:none;line-height:normal;letter-spacing:normal;word-spacing:normal;text-transform:none;direction:ltr;block-progression:tb;writing-mode:lr-tb;text-anchor:start;baseline-shift:baseline;color:#000000;fill:#052b6a;fill-opacity:1;stroke:none;stroke-width:1px;marker:none;visibility:visible;display:inline;overflow:visible;enable-background:accumulate;font-family:Sans;-inkscape-font-specification:Sans" />
        <path
           sodipodi:nodetypes="cccccccssccssccccssscc"
           inkscape:connector-curvature="0"
           id="path3944"
           d="m 70.78125,31.549355 c -0.311805,0.04544 -1.536512,-0.109868 -1.395408,0.171871 1.578149,2.036796 2.857284,3.998138 3.457908,6.466274 0.04134,0.228217 0.01329,0.39922 0.03125,0.34375 -3.012874,1.407007 -4.5261,3.296907 -5.5625,5.21875 -0.237497,0.29636 0.02666,0.824682 0.40625,0.8125 l 3.99351,-0.09375 c -0.700323,1.287029 -1.493814,2.163286 -2.215036,2.875 -0.870253,0.85878 -1.328982,1.671835 -2.113558,3.1875 -1.38104,2.667931 -0.477566,5.631187 0.616334,7.75 0.656035,0.997144 0.773275,0.417706 0.364796,-0.288678 C 67.367272,56.060431 67.319936,53.279681 68.5,51 c 0.707261,-1.366306 1.48123,-2.055513 2.375,-2.9375 0.89377,-0.881987 1.883329,-1.936642 2.78125,-3.90625 0.15063,-0.309077 -0.125176,-0.73198 -0.46875,-0.71875 l -4.25,0.09375 c 0.972706,-2.306136 2.826068,-3.576727 4.90625,-4.6875 0.09689,-0.299222 0.05321,-0.550007 0,-0.84375 -0.05321,-0.293743 -0.135684,-0.632188 -0.25,-1 -0.228631,-0.735624 -0.568866,-1.602956 -0.90625,-2.4375 -0.674769,-1.669088 -1.375,-2.944073 -1.375,-2.944073 -0.08109,-0.205973 -0.311823,-0.09827 -0.53125,-0.06907 z"
           style="font-size:medium;font-style:normal;font-variant:normal;font-weight:normal;font-stretch:normal;text-indent:0;text-align:start;text-decoration:none;line-height:normal;letter-spacing:normal;word-spacing:normal;text-transform:none;direction:ltr;block-progression:tb;writing-mode:lr-tb;text-anchor:start;baseline-shift:baseline;color:#000000;fill:#052b6a;fill-opacity:1;stroke:none;stroke-width:1px;marker:none;visibility:visible;display:inline;overflow:visible;enable-background:accumulate;font-family:Sans;-inkscape-font-specification:Sans" />
      </g>
      <use
         x="0"
         y="0"
         xlink:href="#g3963"
         id="use3968"
         transform="matrix(-1,0,0,1,114.62065,0)"
         width="113.125"
         height="147.96875" />
    </g>
    <g
       inkscape:groupmode="layer"
       id="layer10"
       inkscape:label="face">
      <g
         id="g4183"
         transform="translate(3.32384,0)">
        <g
           style="display:inline"
           id="g4149"
           transform="translate(-249.90302,-161.03295)">
          <path
             style="fill:#c4281b;stroke:none"
             d="m 270.43338,177.72062 c 2.56295,2.57269 7.2502,2.50061 9.17056,0.0523 l -0.26127,-0.83607 c -0.58231,0.21618 -1.87369,-0.0244 -3.17271,0.0978 -0.67166,0.0632 -0.94054,0.60596 -1.16436,0.60766 -0.22382,0.002 -0.54845,-0.49344 -1.14287,-0.60927 -0.93692,-0.18258 -2.22117,0.14741 -3.0897,-0.0178 z"
             id="path4151"
             inkscape:connector-curvature="0"
             sodipodi:nodetypes="cccszscc" />
          <path
             sodipodi:nodetypes="cc"
             inkscape:connector-curvature="0"
             id="path4153"
             d="m 270.66571,177.37473 c 2.17213,1.24043 7.07568,1.16425 8.77617,0"
             style="fill:none;stroke:#000000;stroke-width:0.88582677;stroke-linecap:round;stroke-linejoin:miter;stroke-miterlimit:4;stroke-opacity:1;stroke-dasharray:none;display:inline" />
        </g>
        <g
           transform="translate(-298.57019,-141.80882)"
           id="g4132"
           style="display:inline">
          <path
             sodipodi:type="arc"
             style="fill:#1b2a34;fill-opacity:1;stroke:none;display:inline"
             id="path3334"
             sodipodi:cx="206.08511"
             sodipodi:cy="14.904921"
             sodipodi:rx="1.7446809"
             sodipodi:ry="1.7446809"
             d="m 207.82979,14.904921 c 0,0.96356 -0.78112,1.74468 -1.74468,1.74468 -0.96356,0 -1.74468,-0.78112 -1.74468,-1.74468 0,-0.963561 0.78112,-1.744681 1.74468,-1.744681 0.96356,0 1.74468,0.78112 1.74468,1.744681 z"
             transform="matrix(1,0,0,0.94921406,113.53227,139.17094)" />
          <path
             transform="translate(113.36206,138.41748)"
             sodipodi:type="arc"
             style="fill:#f2f3f2;fill-opacity:1;stroke:none;display:inline"
             id="path3336"
             sodipodi:cx="206.38298"
             sodipodi:cy="14.351728"
             sodipodi:rx="0.59574467"
             sodipodi:ry="0.68085104"
             d="m 206.97873,14.351728 c 0,0.376024 -0.26673,0.680851 -0.59575,0.680851 -0.32902,0 -0.59574,-0.304827 -0.59574,-0.680851 0,-0.376023 0.26672,-0.680851 0.59574,-0.680851 0.32902,0 0.59575,0.304828 0.59575,0.680851 z" />
          <g
             id="g3338"
             transform="matrix(-1,0,0,0.86653988,371.63865,224.78295)"
             style="fill:#1b2a34;display:inline">
            <path
               sodipodi:type="arc"
               style="fill:#1b2a34;fill-opacity:1;stroke:none"
               id="path3340"
               sodipodi:cx="206.08511"
               sodipodi:cy="14.904921"
               sodipodi:rx="1.7446809"
               sodipodi:ry="1.7446809"
               d="m 207.82979,14.904921 c 0,0.96356 -0.78112,1.74468 -1.74468,1.74468 -0.96356,0 -1.74468,-0.78112 -1.74468,-1.74468 0,-0.963561 0.78112,-1.744681 1.74468,-1.744681 0.96356,0 1.74468,0.78112 1.74468,1.744681 z"
               transform="matrix(1,0,0,1.0718248,-161.85399,-98.487195)" />
            <path
               transform="translate(-162.0242,-97.627069)"
               sodipodi:type="arc"
               style="fill:#f2f3f2;fill-opacity:1;stroke:none"
               id="path3342"
               sodipodi:cx="206.38298"
               sodipodi:cy="14.351728"
               sodipodi:rx="0.59574467"
               sodipodi:ry="0.68085104"
               d="m 206.97873,14.351728 c 0,0.376024 -0.26673,0.680851 -0.59575,0.680851 -0.32902,0 -0.59574,-0.304827 -0.59574,-0.680851 0,-0.376023 0.26672,-0.680851 0.59574,-0.680851 0.32902,0 0.59575,0.304828 0.59575,0.680851 z" />
          </g>
          <path
             style="fill:#1b2a34;stroke:none;display:inline"
             d="m 325.6665,152.0661 c 2.03252,-0.89169 4.85072,2.17379 5.78531,-0.94179 -0.60255,0.54838 -1.00545,0.75796 -0.69967,-0.23508 -0.51477,0.30556 -1.10727,0.76634 -0.90532,-0.35914 -0.38527,1.70631 -3.16046,-0.63984 -4.18032,1.53601 z"
             id="path3344"
             inkscape:connector-curvature="0"
             sodipodi:nodetypes="ccccc" />
          <path
             sodipodi:nodetypes="ccccc"
             inkscape:connector-curvature="0"
             id="path3346"
             d="m 321.26561,152.04632 c -2.03854,-0.87784 -4.83582,2.20675 -5.79158,-0.90239 0.60626,0.54426 1.01058,0.7511 0.69805,-0.23984 0.51683,0.30205 1.11246,0.75878 0.90285,-0.36529 0.70752,1.73286 3.16001,-0.65915 4.19068,1.50752 z"
             style="fill:#1b2a34;stroke:none;display:inline" />
          <path
             sodipodi:nodetypes="cccccscc"
             inkscape:connector-curvature="0"
             id="path3350"
             d="m 317.76823,148.6775 c 0.50125,0.0104 1.27995,0.0976 2,0.1875 0.58742,0.10091 1.14848,0.13146 1.71875,0.15625 0.47579,0.0215 0.45623,-0.49799 -0.0625,-0.5 -0.53864,1.6e-4 -1.08819,-0.0909 -1.59375,-0.15625 -0.7189,-0.0898 -1.50811,-0.17598 -2.0625,-0.1875 -1.44792,-0.0301 -2.21417,0.34117 -2.85938,1.26563 1.69039,-1.00065 2.1664,-0.7941 2.85938,-0.76563 z"
             style="font-size:medium;font-style:normal;font-variant:normal;font-weight:normal;font-stretch:normal;text-indent:0;text-align:start;text-decoration:none;line-height:normal;letter-spacing:normal;word-spacing:normal;text-transform:none;direction:ltr;block-progression:tb;writing-mode:lr-tb;text-anchor:start;color:#000000;fill:#1b2a34;fill-opacity:1;stroke:#1b2a34;stroke-width:0.25;stroke-linecap:round;stroke-linejoin:round;stroke-miterlimit:4;stroke-dasharray:none;marker:none;visibility:visible;display:inline;overflow:visible;enable-background:accumulate;font-family:Sans;-inkscape-font-specification:Sans" />
          <path
             style="font-size:medium;font-style:normal;font-variant:normal;font-weight:normal;font-stretch:normal;text-indent:0;text-align:start;text-decoration:none;line-height:normal;letter-spacing:normal;word-spacing:normal;text-transform:none;direction:ltr;block-progression:tb;writing-mode:lr-tb;text-anchor:start;color:#000000;fill:#1b2a34;fill-opacity:1;stroke:#1b2a34;stroke-width:0.25;stroke-linecap:round;stroke-linejoin:round;stroke-miterlimit:4;stroke-dasharray:none;marker:none;visibility:visible;display:inline;overflow:visible;enable-background:accumulate;font-family:Sans;-inkscape-font-specification:Sans"
             d="m 329.27572,148.6775 c -0.50125,0.0104 -1.27995,0.0976 -2,0.1875 -0.58742,0.10091 -1.14848,0.13146 -1.71875,0.15625 -0.47579,0.0215 -0.45623,-0.49799 0.0625,-0.5 0.53864,1.6e-4 1.08819,-0.0909 1.59375,-0.15625 0.7189,-0.0898 1.50811,-0.17598 2.0625,-0.1875 1.44792,-0.0301 2.21417,0.34117 2.85938,1.26563 -1.69039,-1.00065 -2.1664,-0.7941 -2.85938,-0.76563 z"
             id="path3352"
             inkscape:connector-curvature="0"
             sodipodi:nodetypes="cccccscc" />
        </g>
      </g>
      <g
         transform="translate(-236.63746,-160.6965)"
         style="display:inline"
         id="g4253">
        <path
           style="fill:#c4281b;stroke:#000000;stroke-width:0.625;stroke-linecap:butt;stroke-linejoin:miter;stroke-miterlimit:4;stroke-opacity:1;stroke-dasharray:none"
           d="m 316.79232,176.76634 c -0.0563,-0.5549 0.7604,-1.87613 4.6681,-1.87613 3.518,0 4.71723,1.08125 4.65689,1.62153 0.11372,2.33937 -1.88256,3.81239 -4.46755,3.81239 -2.58499,0 -4.75996,-1.25091 -4.85744,-3.55779 z"
           id="path4251"
           inkscape:connector-curvature="0"
           sodipodi:nodetypes="csczc" />
        <path
           inkscape:connector-curvature="0"
           id="rect4245"
           transform="translate(307.97095,161.68408)"
           d="m 13.5,13.21875 c -2.400548,0 -3.6369659,0.486746 -4.21875,1 l 0,0.21875 c 0,0.562946 0.4370542,1.03125 1,1.03125 l 6.375,0 c 0.562946,0 1.03125,-0.468304 1.03125,-1.03125 l 0,-0.3125 C 17.070734,13.655909 15.791073,13.21875 13.5,13.21875 z"
           style="fill:#f2f3f2;fill-opacity:1;stroke:#1b2a34;stroke-width:0.375;stroke-miterlimit:4;stroke-dasharray:none" />
        <path
           style="font-size:medium;font-style:normal;font-variant:normal;font-weight:normal;font-stretch:normal;text-indent:0;text-align:start;text-decoration:none;line-height:normal;letter-spacing:normal;word-spacing:normal;text-transform:none;direction:ltr;block-progression:tb;writing-mode:lr-tb;text-anchor:start;color:#000000;fill:#1b2a34;fill-opacity:1;stroke:#1b2a34;stroke-width:0.25;stroke-linecap:round;stroke-linejoin:round;stroke-miterlimit:4;stroke-dasharray:none;marker:none;visibility:visible;display:inline;overflow:visible;enable-background:accumulate;font-family:Sans;-inkscape-font-specification:Sans"
           d="m 319.55528,171.55739 c 0.36307,0.93793 0.89585,0.0119 -0.93711,-1.68492 -0.56782,-0.44995 -1.19762,-0.93331 -1.66547,-1.23095 -1.2219,-0.77739 -2.06956,-0.85785 -3.10093,-0.40266 1.96424,0.0223 2.42631,0.41343 3.00382,0.79751 1.0826,0.74074 1.87583,1.3352 2.69969,2.52102 z"
           id="path3350-9"
           inkscape:connector-curvature="0"
           sodipodi:nodetypes="ccsccc" />
        <path
           sodipodi:nodetypes="ccc"
           inkscape:connector-curvature="0"
           id="path4235"
           d="m 319.29095,172.95301 c -0.58551,-1.33723 -2.16269,-2.64563 -4.08,-2.68 0.0549,1.23168 1.62102,0.33977 4.08,2.68 z"
           style="fill:#1b2a34;stroke:#1b2a34;stroke-width:0.25;stroke-linecap:round;stroke-linejoin:round;stroke-miterlimit:4;stroke-opacity:1;stroke-dasharray:none" />
        <path
           sodipodi:nodetypes="ccccsccc"
           inkscape:connector-curvature="0"
           id="path4237"
           d="m 325.99608,169.06887 c -0.42301,0.26911 -1.0433,0.74788 -1.61205,1.19851 -0.44969,0.3912 -0.58024,0.28354 -1.25006,1.29001 -0.36307,0.93793 -0.89585,0.0119 0.93711,-1.68492 0.56782,-0.44995 1.19762,-0.93331 1.66547,-1.23095 1.2219,-0.77739 2.06956,-0.85785 3.10093,-0.40266 -1.96424,0.0223 -2.26385,0.44592 -2.84136,0.83 z"
           style="font-size:medium;font-style:normal;font-variant:normal;font-weight:normal;font-stretch:normal;text-indent:0;text-align:start;text-decoration:none;line-height:normal;letter-spacing:normal;word-spacing:normal;text-transform:none;direction:ltr;block-progression:tb;writing-mode:lr-tb;text-anchor:start;color:#000000;fill:#1b2a34;fill-opacity:1;stroke:#1b2a34;stroke-width:0.25;stroke-linecap:round;stroke-linejoin:round;stroke-miterlimit:4;stroke-dasharray:none;marker:none;visibility:visible;display:inline;overflow:visible;enable-background:accumulate;font-family:Sans;-inkscape-font-specification:Sans" />
        <path
           style="fill:#1b2a34;stroke:#1b2a34;stroke-width:0.25;stroke-linecap:round;stroke-linejoin:round;stroke-miterlimit:4;stroke-opacity:1;stroke-dasharray:none"
           d="m 323.3983,172.95301 c 0.58551,-1.33723 2.16269,-2.64563 4.08,-2.68 -0.0549,1.23168 -1.62102,0.33977 -4.08,2.68 z"
           id="path4239"
           inkscape:connector-curvature="0"
           sodipodi:nodetypes="ccc" />
        <path
           sodipodi:nodetypes="csczc"
           inkscape:connector-curvature="0"
           id="path4243"
           d="m 316.79232,176.76634 c -0.0563,-0.5549 0.7604,-1.87613 4.6681,-1.87613 3.518,0 4.71723,1.08125 4.65689,1.62153 0.11372,2.33937 -1.88256,3.81239 -4.46755,3.81239 -2.58499,0 -4.75996,-1.25091 -4.85744,-3.55779 z"
           style="fill:none;stroke:#000000;stroke-width:0.625;stroke-linecap:butt;stroke-linejoin:miter;stroke-miterlimit:4;stroke-opacity:1;stroke-dasharray:none" />
      </g>
    </g>
  </g>
  <g
     inkscape:label="template"
     inkscape:groupmode="layer"
     id="layer1"
     transform="translate(-329.8125,-378.375)"
     style="display:inline">
    <path
       inkscape:connector-curvature="0"
       d="m 361.62563,526.17905 22.695,0 0,-11.205 -22.695,0 0,11.205 z"
       style="fill:none;stroke:#231f20;stroke-width:0.3125;stroke-linecap:butt;stroke-linejoin:miter;stroke-miterlimit:4;stroke-opacity:1;stroke-dasharray:none"
       id="path3029" />
    <path
       inkscape:connector-curvature="0"
       d="m 384.32188,512.3378 -22.6975,0 0,-42.43375 22.6975,0 0,42.43375 z"
       style="fill:none;stroke:#231f20;stroke-width:0.3125;stroke-linecap:butt;stroke-linejoin:miter;stroke-miterlimit:4;stroke-opacity:1;stroke-dasharray:none"
       id="path3033" />
    <path
       inkscape:connector-curvature="0"
       d="m 362.25313,493.9003 21.44125,0"
       style="fill:#ffffff;fill-opacity:1;fill-rule:nonzero;stroke:none"
       id="path3039" />
    <path
       inkscape:connector-curvature="0"
       d="m 389.85563,526.17905 22.695,0 0,-11.205 -22.695,0 0,11.205 z"
       style="fill:none;stroke:#231f20;stroke-width:0.3125;stroke-linecap:butt;stroke-linejoin:miter;stroke-miterlimit:4;stroke-opacity:1;stroke-dasharray:none"
       id="path3045" />
    <path
       inkscape:connector-curvature="0"
       d="m 390.48313,493.90155 21.44,0"
       style="fill:#ffffff;fill-opacity:1;fill-rule:nonzero;stroke:none"
       id="path3051" />
    <path
       inkscape:connector-curvature="0"
       d="m 442.76625,399.93655 -112.8,0 0,-21.39125 112.8,0 0,21.39125 z"
       style="fill:none;stroke:#231f20;stroke-width:0.3125;stroke-linecap:butt;stroke-linejoin:miter;stroke-miterlimit:4;stroke-opacity:1;stroke-dasharray:none"
       id="path3081" />
    <path
       inkscape:connector-curvature="0"
       d="m 361.13813,452.9203 c 8.7325,-47.29375 5.3425,-42.67875 14.2675,-42.85625 l 23.44,0 c 8.92625,0.1775 5.535,-4.4375 14.265,42.85625 l -51.9725,0 z"
       style="fill:none;stroke:#231f20;stroke-width:0.3125;stroke-linecap:butt;stroke-linejoin:miter;stroke-miterlimit:4;stroke-opacity:1;stroke-dasharray:none"
       id="path3093" />
    <path
       id="path4124"
       style="fill:none;stroke:#231f20;stroke-width:0.3125;stroke-linecap:butt;stroke-linejoin:miter;stroke-miterlimit:4;stroke-opacity:1;stroke-dasharray:none"
       d="m 361.13813,452.9203 c 8.7325,-47.29375 5.3425,-42.67875 14.2675,-42.85625 l 23.44,0 c 8.92625,0.1775 5.535,-4.4375 14.265,42.85625 l -51.9725,0 z"
       inkscape:connector-curvature="0" />
    <path
       id="path4076"
       style="fill:none;stroke:#231f20;stroke-width:0.3125;stroke-linecap:butt;stroke-linejoin:miter;stroke-miterlimit:4;stroke-opacity:1;stroke-dasharray:none"
       d="m 412.60471,512.3378 -22.6975,0 0,-42.43375 22.6975,0 0,42.43375 z"
       inkscape:connector-curvature="0" />
  </g>
</svg>
