<?xml version="1.0" encoding="UTF-8" standalone="no"?>
<!-- Created with Inkscape (http://www.inkscape.org/) -->

<svg
   xmlns:dc="http://purl.org/dc/elements/1.1/"
   xmlns:cc="http://creativecommons.org/ns#"
   xmlns:rdf="http://www.w3.org/1999/02/22-rdf-syntax-ns#"
   xmlns:svg="http://www.w3.org/2000/svg"
   xmlns="http://www.w3.org/2000/svg"
   xmlns:xlink="http://www.w3.org/1999/xlink"
   xmlns:sodipodi="http://sodipodi.sourceforge.net/DTD/sodipodi-0.dtd"
   xmlns:inkscape="http://www.inkscape.org/namespaces/inkscape"
   width="52.38813"
   height="43.401779"
   id="svg2"
   version="1.1"
   inkscape:version="0.48.1 "
   sodipodi:docname="enchantres-inkscape.svg">
  <title
     id="title3923">Enchantress</title>
  <defs
     id="defs4">
    <linearGradient
       inkscape:collect="always"
       id="linearGradient4011">
      <stop
         style="stop-color:#ffffff;stop-opacity:1;"
         offset="0"
         id="stop4013" />
      <stop
         style="stop-color:#ffffff;stop-opacity:0;"
         offset="1"
         id="stop4015" />
    </linearGradient>
    <linearGradient
       inkscape:collect="always"
       id="linearGradient3997">
      <stop
         style="stop-color:#ffffff;stop-opacity:1;"
         offset="0"
         id="stop3999" />
      <stop
         style="stop-color:#ffffff;stop-opacity:0;"
         offset="1"
         id="stop4001" />
    </linearGradient>
    <inkscape:path-effect
       effect="skeletal"
       id="path-effect4237"
       is_visible="true"
       pattern="M 0,5 C 0,2.24 2.24,0 5,0 7.76,0 10,2.24 10,5 10,7.76 7.76,10 5,10 2.24,10 0,7.76 0,5 z"
       copytype="single_stretched"
       prop_scale="1"
       scale_y_rel="false"
       spacing="0"
       normal_offset="0"
       tang_offset="0"
       prop_units="false"
       vertical_pattern="false"
       fuse_tolerance="0" />
    <clipPath
       id="clipPath2999"
       clipPathUnits="userSpaceOnUse">
      <path
         id="path3001"
         d="M 0,792 612,792 612,0 0,0 0,792 z"
         inkscape:connector-curvature="0" />
    </clipPath>
    <radialGradient
       gradientUnits="userSpaceOnUse"
       gradientTransform="matrix(0.75988491,-0.03632001,0.13155835,2.7524547,16.986326,-78.268899)"
       r="12.650181"
       fy="46.658409"
       fx="96.306435"
       cy="46.658409"
       cx="96.306435"
       id="radialGradient3972"
       xlink:href="#linearGradient3966"
       inkscape:collect="always" />
    <clipPath
       clipPathUnits="userSpaceOnUse"
       id="clipPath2999-4">
      <path
         inkscape:connector-curvature="0"
         d="M 0,792 612,792 612,0 0,0 0,792 z"
         id="path3001-0" />
    </clipPath>
    <linearGradient
       id="linearGradient3966">
      <stop
         id="stop3968"
         offset="0"
         style="stop-color:#c0ac02;stop-opacity:1;" />
      <stop
         id="stop3970"
         offset="1"
         style="stop-color:#fdea41;stop-opacity:0;" />
    </linearGradient>
    <radialGradient
       inkscape:collect="always"
       xlink:href="#linearGradient3997"
       id="radialGradient4003"
       cx="165.81134"
       cy="47.693741"
       fx="165.81134"
       fy="47.693741"
       r="3.8123069"
       gradientTransform="matrix(0.64374811,-0.18781617,0.31213841,1.069868,43.640483,27.15595)"
       gradientUnits="userSpaceOnUse" />
    <radialGradient
       inkscape:collect="always"
       xlink:href="#linearGradient3997"
       id="radialGradient4007"
       gradientUnits="userSpaceOnUse"
       gradientTransform="matrix(-0.64374811,-0.18781617,-0.31213841,1.069868,293.73143,27.15595)"
       cx="165.81134"
       cy="47.693741"
       fx="165.81134"
       fy="47.693741"
       r="3.8123069" />
    <radialGradient
       inkscape:collect="always"
       xlink:href="#linearGradient4011"
       id="radialGradient4017"
       cx="169.32254"
       cy="41.784931"
       fx="169.32254"
       fy="41.784931"
       r="6.982676"
       gradientTransform="matrix(0.31036379,-0.01814613,0.03701409,0.63307367,114.75293,21.468668)"
       gradientUnits="userSpaceOnUse" />
    <linearGradient
       id="linearGradient3966-2">
      <stop
         style="stop-color:#c0ac02;stop-opacity:1;"
         offset="0"
         id="stop3968-4" />
      <stop
         style="stop-color:#fdea41;stop-opacity:0;"
         offset="1"
         id="stop3970-5" />
    </linearGradient>
    <clipPath
       id="clipPath2999-4-8"
       clipPathUnits="userSpaceOnUse">
      <path
         id="path3001-0-8"
         d="M 0,792 612,792 612,0 0,0 0,792 z"
         inkscape:connector-curvature="0" />
    </clipPath>
    <radialGradient
       inkscape:collect="always"
       xlink:href="#linearGradient3966-2"
       id="radialGradient3972-4"
       cx="96.306435"
       cy="46.658409"
       fx="96.306435"
       fy="46.658409"
       r="12.650181"
       gradientTransform="matrix(0.75988491,-0.03632001,0.13155835,2.7524547,16.986326,-78.268899)"
       gradientUnits="userSpaceOnUse" />
    <clipPath
       clipPathUnits="userSpaceOnUse"
       id="clipPath2999-0">
      <path
         inkscape:connector-curvature="0"
         d="M 0,792 612,792 612,0 0,0 0,792 z"
         id="path3001-9" />
    </clipPath>
    <inkscape:path-effect
       fuse_tolerance="0"
       vertical_pattern="false"
       prop_units="false"
       tang_offset="0"
       normal_offset="0"
       spacing="0"
       scale_y_rel="false"
       prop_scale="1"
       copytype="single_stretched"
       pattern="M 0,5 C 0,2.24 2.24,0 5,0 7.76,0 10,2.24 10,5 10,7.76 7.76,10 5,10 2.24,10 0,7.76 0,5 z"
       is_visible="true"
       id="path-effect4237-4"
       effect="skeletal" />
    <clipPath
       id="SVGID_2_">
      <use
         height="1052.3622"
         width="744.09448"
         y="0"
         x="0"
         style="overflow:visible"
         xlink:href="#SVGID_1_"
         overflow="visible"
         id="use11" />
    </clipPath>
    <clipPath
       id="clipPath3062">
      <use
         height="1052.3622"
         width="744.09448"
         y="0"
         x="0"
         style="overflow:visible"
         xlink:href="#SVGID_1_"
         overflow="visible"
         id="use3064" />
    </clipPath>
    <clipPath
       id="clipPath3066">
      <use
         height="1052.3622"
         width="744.09448"
         y="0"
         x="0"
         style="overflow:visible"
         xlink:href="#SVGID_1_"
         overflow="visible"
         id="use3068" />
    </clipPath>
    <clipPath
       id="clipPath3070">
      <use
         height="1052.3622"
         width="744.09448"
         y="0"
         x="0"
         style="overflow:visible"
         xlink:href="#SVGID_1_"
         overflow="visible"
         id="use3072" />
    </clipPath>
    <clipPath
       id="clipPath3074">
      <use
         height="1052.3622"
         width="744.09448"
         y="0"
         x="0"
         style="overflow:visible"
         xlink:href="#SVGID_1_"
         overflow="visible"
         id="use3076" />
    </clipPath>
    <clipPath
       id="clipPath3078">
      <use
         height="1052.3622"
         width="744.09448"
         y="0"
         x="0"
         style="overflow:visible"
         xlink:href="#SVGID_1_"
         overflow="visible"
         id="use3080" />
    </clipPath>
    <clipPath
       id="clipPath3082">
      <use
         height="1052.3622"
         width="744.09448"
         y="0"
         x="0"
         style="overflow:visible"
         xlink:href="#SVGID_1_"
         overflow="visible"
         id="use3084" />
    </clipPath>
    <clipPath
       id="clipPath3086">
      <use
         height="1052.3622"
         width="744.09448"
         y="0"
         x="0"
         style="overflow:visible"
         xlink:href="#SVGID_1_"
         overflow="visible"
         id="use3088" />
    </clipPath>
  </defs>
  <sodipodi:namedview
     id="base"
     pagecolor="#ffffff"
     bordercolor="#666666"
     borderopacity="1.0"
     inkscape:pageopacity="0.0"
     inkscape:pageshadow="2"
     inkscape:zoom="12.608519"
     inkscape:cx="26.781451"
     inkscape:cy="21.375"
     inkscape:document-units="px"
     inkscape:current-layer="layer36"
     showgrid="false"
     fit-margin-top="0"
     fit-margin-left="0"
     fit-margin-right="0"
     fit-margin-bottom="0"
     inkscape:window-width="1280"
     inkscape:window-height="1002"
     inkscape:window-x="1358"
     inkscape:window-y="-8"
     inkscape:window-maximized="1"
     showguides="true"
     inkscape:guide-bbox="true"
     inkscape:snap-global="false">
    <sodipodi:guide
       orientation="0,1"
       position="11.28133,21.705909"
       id="guide3274" />
    <sodipodi:guide
       orientation="1,0"
       position="26.13159,26.822611"
       id="guide3960" />
  </sodipodi:namedview>
  <metadata
     id="metadata7">
    <rdf:RDF>
      <cc:Work
         rdf:about="">
        <dc:format>image/svg+xml</dc:format>
        <dc:type
           rdf:resource="http://purl.org/dc/dcmitype/StillImage" />
        <dc:title>Enchantress</dc:title>
        <dc:creator>
          <cc:Agent>
            <dc:title>Nick Abalov</dc:title>
          </cc:Agent>
        </dc:creator>
      </cc:Work>
    </rdf:RDF>
  </metadata>
  <g
     inkscape:groupmode="layer"
     id="layer36"
     inkscape:label="torso"
     transform="translate(-142.76812,-31.473222)"
     style="display:inline">
    <path
       inkscape:connector-curvature="0"
       d="m 142.96875,74.54469 c 8.73249,-47.29375 5.3425,-42.67875 14.26749,-42.85625 l 23.44001,0 c 8.92625,0.1775 5.535,-4.4375 14.265,42.85625 l -51.9725,0 z"
       style="fill:#ffcd03;fill-opacity:1;stroke:#00954d;stroke-width:0.3125;stroke-linecap:butt;stroke-linejoin:miter;stroke-miterlimit:4;stroke-opacity:1;stroke-dasharray:none;display:inline"
       id="path4150" />
    <g
       transform="matrix(1.1870062,0,0,1.1736592,142.04326,29.770475)"
       id="torso_masked">
      <defs
         id="defs7">
        <path
           inkscape:connector-curvature="0"
           id="SVGID_1_"
           d="M 0.948,38.018 6.434,4.971 C 6.446,4.783 6.556,3.751 7.452,2.707 8.245,1.781 9.625,1.669 9.639,1.668 l 26.088,0 c 0.253,0.027 1.455,0.198 2.178,1.039 0.973,1.134 1.017,2.239 1.017,2.25 l 5.486,33.062 H 0.948 z" />
      </defs>
      <clipPath
         id="clipPath3095">
        <use
           height="1052.3622"
           width="744.09448"
           y="0"
           x="0"
           style="overflow:visible"
           xlink:href="#SVGID_1_"
           overflow="visible"
           id="use3097" />
      </clipPath>
      <g
         clip-path="url(#SVGID_2_)"
         id="g13">
        <g
           id="g15">
          <path
             inkscape:connector-curvature="0"
             d="m 22.576,14.537 c -0.188,-0.121 -0.218,-0.247 -0.235,-0.379 -0.023,-0.131 -0.052,-0.26 -0.064,-0.392 -0.036,-0.262 -0.061,-0.527 -0.115,-0.787 -0.097,-0.512 -0.303,-1.011 -0.589,-1.47 l 0.032,-0.027 c 0.387,0.39 0.699,0.87 0.881,1.408 0.093,0.263 0.177,0.53 0.233,0.802 0.032,0.135 0.043,0.274 0.053,0.413 0.016,0.137 0.014,0.28 -0.154,0.43 l -0.042,0.002 z"
             id="path17" />
        </g>
        <g
           id="g19">
          <path
             inkscape:connector-curvature="0"
             d="m 22.734,14.534 c -0.168,-0.15 -0.17,-0.293 -0.153,-0.43 0.01,-0.139 0.021,-0.277 0.053,-0.413 0.056,-0.272 0.14,-0.539 0.232,-0.803 0.183,-0.539 0.496,-1.018 0.882,-1.407 l 0.033,0.027 c -0.287,0.458 -0.495,0.958 -0.591,1.47 -0.053,0.259 -0.078,0.525 -0.114,0.787 -0.012,0.132 -0.041,0.262 -0.064,0.392 -0.017,0.132 -0.048,0.259 -0.236,0.379 l -0.042,-0.002 z"
             id="path21" />
        </g>
      </g>
      <path
         style="fill:#00954d;stroke:#004a2d;stroke-width:0.28349999;stroke-linejoin:round;stroke-miterlimit:10"
         inkscape:connector-curvature="0"
         clip-path="url(#SVGID_2_)"
         stroke-miterlimit="10"
         d="m 40.679,14.278 c 0,0 -3.354,-1.925 -4.312,-2.658 -0.985,-0.752 -3.723,-3.273 -3.723,-3.273 0,0 -2.493,2.203 -4.738,4.103 -1.86,1.574 -5.033,2.022 -5.033,2.022 h -0.462 c 0,0 -3.173,-0.448 -5.033,-2.022 -2.246,-1.9 -4.739,-4.103 -4.739,-4.103 0,0 -2.737,2.521 -3.722,3.273 -0.958,0.732 -4.312,2.658 -4.312,2.658 L -0.638,39.684 H 45.92 L 40.679,14.278 z"
         id="path23" />
      <g
         clip-path="url(#SVGID_2_)"
         id="g25">
        <g
           id="g27">
          <path
             style="fill:#004a2d"
             inkscape:connector-curvature="0"
             d="m 29.114,36.347 c 0.148,-1.11 0.32,-2.217 0.406,-3.315 0.015,-0.273 0.021,-0.551 -0.011,-0.803 0.011,0.012 -0.017,-0.057 -0.024,-0.075 l -0.037,-0.055 -0.121,-0.16 c -0.074,-0.123 -0.21,-0.197 -0.221,-0.454 0.048,-0.35 0.241,-0.558 0.353,-0.806 0.102,-0.23 0.179,-0.52 0.258,-0.779 0.326,-1.064 0.448,-2.202 0.36,-3.294 -0.074,-0.531 -0.085,-1.128 -0.626,-1.333 -0.479,-0.253 -1.02,-0.416 -1.557,-0.566 L 27.9,24.68 c 0.558,0.068 1.113,0.175 1.644,0.412 0.132,0.061 0.26,0.137 0.378,0.243 0.138,0.124 0.172,0.266 0.24,0.401 0.099,0.279 0.146,0.568 0.157,0.855 0.014,1.147 -0.273,2.237 -0.464,3.343 -0.062,0.28 -0.105,0.541 -0.206,0.831 -0.107,0.261 -0.265,0.523 -0.282,0.735 -0.015,0.033 0.091,0.169 0.174,0.265 l 0.138,0.17 c 0.023,0.03 0.053,0.08 0.076,0.121 0.017,0.047 0.025,0.042 0.041,0.124 0.055,0.302 0.036,0.586 0.018,0.871 -0.089,1.132 -0.35,2.227 -0.672,3.302 l -0.028,-0.006 z"
             id="path29" />
        </g>
        <g
           id="g31">
          <path
             style="fill:#004a2d"
             inkscape:connector-curvature="0"
             d="m 16.212,36.353 c -0.323,-1.075 -0.583,-2.17 -0.672,-3.303 -0.019,-0.284 -0.037,-0.569 0.018,-0.87 0.016,-0.083 0.025,-0.078 0.041,-0.124 0.023,-0.041 0.053,-0.091 0.077,-0.122 l 0.137,-0.169 c 0.083,-0.096 0.189,-0.231 0.173,-0.265 -0.017,-0.212 -0.174,-0.475 -0.282,-0.736 -0.101,-0.29 -0.145,-0.55 -0.207,-0.83 -0.19,-1.105 -0.478,-2.195 -0.464,-3.344 0.011,-0.286 0.059,-0.575 0.158,-0.854 0.068,-0.136 0.103,-0.278 0.241,-0.401 0.117,-0.106 0.245,-0.183 0.378,-0.244 0.53,-0.236 1.085,-0.344 1.644,-0.411 l 0.005,0.027 c -0.536,0.149 -1.078,0.313 -1.556,0.566 -0.541,0.205 -0.552,0.802 -0.626,1.333 -0.088,1.091 0.034,2.229 0.36,3.293 0.079,0.261 0.156,0.549 0.257,0.78 0.112,0.248 0.305,0.456 0.353,0.806 -0.011,0.257 -0.146,0.331 -0.221,0.454 l -0.122,0.16 -0.037,0.055 c -0.007,0.019 -0.035,0.087 -0.025,0.074 -0.032,0.252 -0.024,0.53 -0.01,0.804 0.086,1.099 0.258,2.205 0.406,3.315 l -0.026,0.006 z"
             id="path33" />
        </g>
      </g>
      <polygon
         style="fill:#c4d82e;stroke:#004a2d;stroke-width:0.28349999;stroke-linejoin:round;stroke-miterlimit:10"
         clip-path="url(#SVGID_2_)"
         stroke-miterlimit="10"
         points="25.365,34.701 26.784,31.834 23.966,32.612 22.677,28.858 21.388,32.612 18.571,31.834 19.989,34.701 0,30.875 0,35.009 22.756,37.843 45.354,35.009 45.354,30.875 "
         id="polygon35" />
      <g
         clip-path="url(#SVGID_2_)"
         id="g37">
        <g
           id="g39">
          <path
             inkscape:connector-curvature="0"
             d="m 6.199,18.839 c 0.663,0.965 1.481,1.787 2.379,2.467 0.907,0.669 1.924,1.167 3.008,1.411 1.09,0.262 2.228,0.33 3.36,0.258 1.131,-0.088 2.272,-0.286 3.378,-0.67 -1.993,1.252 -4.546,1.641 -6.899,1.102 C 9.03,22.853 7.044,21.024 6.199,18.839 z"
             id="path41" />
        </g>
        <g
           id="g43">
          <path
             inkscape:connector-curvature="0"
             d="m 39.155,18.839 c -0.845,2.186 -2.83,4.013 -5.225,4.567 -2.354,0.539 -4.906,0.15 -6.899,-1.102 1.106,0.384 2.247,0.582 3.378,0.67 1.132,0.072 2.27,0.004 3.359,-0.258 1.084,-0.244 2.101,-0.743 3.008,-1.411 0.897,-0.679 1.717,-1.501 2.379,-2.466 z"
             id="path45" />
        </g>
      </g>
      <g
         clip-path="url(#SVGID_2_)"
         id="g47">
        <path
           inkscape:connector-curvature="0"
           d="m 44.824,38.214 -1.857,0.055 c 0,0 -2.868,-4.271 -3.095,-7.339 -0.331,-4.489 2.021,-11.232 2.021,-11.232 l 2.931,18.516 z"
           id="path49" />
        <path
           inkscape:connector-curvature="0"
           d="m 0.531,38.214 1.856,0.055 c 0,0 2.869,-4.271 3.096,-7.339 C 5.814,26.441 3.462,19.698 3.462,19.698 L 0.531,38.214 z"
           id="path51" />
      </g>
      <g
         clip-path="url(#SVGID_2_)"
         id="g53">
        <g
           id="g55">
          <path
             inkscape:connector-curvature="0"
             d="m 15.326,2.39 c 1.129,0.027 2.258,0.064 3.387,0.119 0.565,0.023 1.129,0.053 1.693,0.109 0.55,0.062 1.178,0.194 1.542,0.658 0.002,0.003 0.001,0.008 -0.001,0.01 C 21.944,3.288 21.939,3.287 21.937,3.285 21.522,2.893 20.948,2.781 20.394,2.759 L 18.708,2.622 15.327,2.405 C 15.323,2.405 15.32,2.401 15.321,2.397 15.319,2.393 15.322,2.39 15.326,2.39 z"
             id="path57" />
        </g>
        <g
           id="g59">
          <path
             inkscape:connector-curvature="0"
             d="M 30.028,2.405 26.649,2.622 24.963,2.759 C 24.408,2.781 23.834,2.893 23.42,3.285 23.417,3.288 23.413,3.289 23.41,3.286 23.407,3.284 23.407,3.279 23.408,3.276 23.772,2.812 24.4,2.68 24.95,2.618 25.513,2.562 26.078,2.532 26.642,2.509 27.77,2.455 28.899,2.418 30.028,2.39 c 0.004,0 0.007,0.003 0.007,0.007 0,0.004 -0.003,0.007 -0.007,0.008 z"
             id="path61" />
        </g>
      </g>
      <g
         clip-path="url(#SVGID_2_)"
         id="g63">
        <path
           style="fill:#004a2d"
           inkscape:connector-curvature="0"
           d="m 22.726,27.117 c -0.086,-0.637 -0.125,-1.274 -0.131,-1.91 -0.026,-0.639 0.062,-1.28 0.069,-1.904 0.01,-0.64 -0.097,-1.269 -0.179,-1.907 -0.041,-0.659 0.085,-1.285 0.24,-1.91 l 0.028,0.003 c 0.035,0.642 -0.033,1.282 -0.034,1.899 -0.035,0.633 -0.021,1.273 0.098,1.902 0.081,0.649 0.071,1.281 0.069,1.916 -0.002,0.638 -0.044,1.274 -0.133,1.911 h -0.027 z"
           id="path65" />
      </g>
    </g>
  </g>
</svg>
