<?xml version="1.0" encoding="UTF-8" standalone="no"?>
<!-- Generator: Adobe Illustrator 15.1.0, SVG Export Plug-In . SVG Version: 6.00 Build 0)  -->

<svg
   xmlns:dc="http://purl.org/dc/elements/1.1/"
   xmlns:cc="http://creativecommons.org/ns#"
   xmlns:rdf="http://www.w3.org/1999/02/22-rdf-syntax-ns#"
   xmlns:svg="http://www.w3.org/2000/svg"
   xmlns="http://www.w3.org/2000/svg"
   xmlns:xlink="http://www.w3.org/1999/xlink"
   xmlns:sodipodi="http://sodipodi.sourceforge.net/DTD/sodipodi-0.dtd"
   xmlns:inkscape="http://www.inkscape.org/namespaces/inkscape"
   version="1.1"
   x="0px"
   y="0px"
   width="119.055px"
   height="76.535px"
   viewBox="-3.266 -30.052 119.055 76.535"
   enable-background="new -3.266 -30.052 119.055 76.535"
   xml:space="preserve"
   id="svg2"
   inkscape:version="0.48.1 "
   sodipodi:docname="firestar.svg"
   inkscape:export-filename="D:\Bricks\Decals\designs\superheroes\firestar\firestar.png"
   inkscape:export-xdpi="600"
   inkscape:export-ydpi="600"><metadata
   id="metadata161"><rdf:RDF><cc:Work
       rdf:about=""><dc:format>image/svg+xml</dc:format><dc:type
         rdf:resource="http://purl.org/dc/dcmitype/StillImage" /><dc:title></dc:title></cc:Work></rdf:RDF></metadata><defs
   id="defs159" /><sodipodi:namedview
   pagecolor="#ffffff"
   bordercolor="#666666"
   borderopacity="1"
   objecttolerance="10"
   gridtolerance="10"
   guidetolerance="10"
   inkscape:pageopacity="0"
   inkscape:pageshadow="2"
   inkscape:window-width="640"
   inkscape:window-height="480"
   id="namedview157"
   showgrid="false"
   inkscape:zoom="3.802"
   inkscape:cx="59.53"
   inkscape:cy="38.27"
   inkscape:window-x="0"
   inkscape:window-y="0"
   inkscape:window-maximized="0"
   inkscape:current-layer="svg2" />
<g
   id="base">
	<path
   id="torso_1_"
   connector-curvature="0"
   fill="#001423"
   stroke="#231F20"
   stroke-width="0.3125"
   d="M0.942,44.551   C9.675-2.741,6.284,1.873,15.21,1.696h23.439c8.927,0.177,5.535-4.438,14.266,42.855H0.942z" />
</g>
<g
   id="design">
	<defs
   id="defs7">
		<path
   id="clipping_mask_1_"
   d="M1.35,44.025C3.293,33.487,4.645,25.46,5.635,19.58C8.405,3.139,8.631,1.795,11.978,1.795    c0.332,0,0.691,0.013,1.085,0.025c0.48,0.016,1.01,0.033,1.597,0.033c0.181,0,0.365-0.002,0.557-0.006H38.65    c0.184,0.004,0.37,0.006,0.55,0.006c0.587,0,1.116-0.018,1.597-0.033c0.394-0.013,0.753-0.025,1.085-0.025    c3.348,0,3.574,1.343,6.34,17.771c0.99,5.884,2.342,13.913,4.285,24.458H1.35z" />
	</defs>
	<clipPath
   id="clipping_mask_2_">
		<use
   xlink:href="#clipping_mask_1_"
   overflow="visible"
   id="use11" />
	</clipPath>
	
		<path
   id="path3969"
   connector-curvature="0"
   clip-path="url(#clipping_mask_2_)"
   fill="#FFCD03"
   stroke="#231F20"
   stroke-width="0.3125"
   enable-background="new    "
   d="   M12.147,1.458c-0.273-0.002-0.514,0.015-0.75,0.031c-0.252,0.017-0.501,0.046-0.719,0.094c-0.194,0.047-0.361,0.104-0.531,0.188   C8.35,2.657,7.734,5.897,5.71,17.114c-0.793,4.391,3.124,9.637,2.344,17.375c-0.427,4.23-5.793,6.789-7.125,9.875h52   c-1.333-3.086-6.698-5.645-7.125-9.875c-0.781-7.738,3.136-12.985,2.344-17.375C46.122,5.897,45.507,2.657,43.71,1.77   c-0.171-0.084-0.338-0.141-0.531-0.188c-0.011-0.002-0.021,0.003-0.031,0c-0.188-0.043-0.412-0.076-0.625-0.094   c-0.323-0.023-0.674-0.039-1.063-0.031c-0.212,0.005-0.422,0.024-0.656,0.031c-0.637,0.021-1.326,0.048-2.156,0.031H15.21   c-0.83,0.017-1.52-0.01-2.156-0.031c-0.011,0-0.021,0.001-0.031,0C12.707,1.479,12.421,1.461,12.147,1.458L12.147,1.458z" />
	<g
   id="abs-2"
   clip-path="url(#clipping_mask_2_)">
		<g
   id="g15">
			<path
   fill="#F8992D"
   d="M20.967,42.349c-0.84-2.693-1.229-5.496-1.206-8.316c0.011-0.704-0.008-1.404-0.021-2.109     c0.004-0.705-0.089-1.419,0.239-2.17c0.98-1.263,2.493-1.719,3.907-1.638c0.016,0.001,0.028,0.015,0.027,0.03     c-0.001,0.013-0.014,0.024-0.026,0.026c-0.684,0.134-1.347,0.34-1.946,0.648c-0.595,0.273-1.183,0.727-1.521,1.173     c-0.279,0.522-0.406,1.257-0.465,1.936c-0.047,0.694-0.013,1.395,0.086,2.086c0.409,2.766,0.849,5.508,0.982,8.324     c0.001,0.016-0.011,0.029-0.027,0.03C20.983,42.37,20.971,42.362,20.967,42.349z"
   id="path17" />
		</g>
		<g
   id="g19">
			<path
   fill="#F8992D"
   d="M32.786,42.339c0.134-2.816,0.574-5.559,0.982-8.324c0.1-0.691,0.134-1.392,0.086-2.086     c-0.059-0.679-0.186-1.413-0.465-1.936c-0.338-0.446-0.927-0.899-1.521-1.173c-0.6-0.309-1.263-0.515-1.946-0.648     c-0.016-0.001-0.027-0.016-0.026-0.031c0.001-0.013,0.015-0.023,0.026-0.025c1.414-0.081,2.927,0.375,3.907,1.638     c0.328,0.751,0.235,1.465,0.239,2.17c-0.013,0.705-0.032,1.405-0.021,2.109c0.022,2.82-0.367,5.623-1.206,8.316     c-0.005,0.016-0.021,0.023-0.036,0.02C32.794,42.364,32.786,42.352,32.786,42.339z"
   id="path21" />
		</g>
	</g>
	<g
   id="abs-1"
   display="none"
   clip-path="url(#clipping_mask_2_)">
		<path
   display="inline"
   fill="#F8992D"
   d="M21.344,42.345c-0.373-0.337-0.4-0.774-0.495-1.179c-0.07-0.412-0.092-0.83-0.125-1.237    c-0.021-0.413-0.092-0.819,0.01-1.275c0.039-0.231,0.271-0.48,0.53-0.51l0.177-0.018l0.081-0.001    c-0.007,0.001,0.033-0.003-0.015,0.003c-0.029,0.014,0.005-0.015-0.071,0.038c-0.129,0.109,0.051,0.3,0.019,0.242l0.003,0.002    c0.004,0.003,0.015,0.008,0.008,0.005L21.429,38.4c-0.11-0.049-0.209-0.113-0.297-0.187c-0.694-0.625-0.876-1.53-0.996-2.348    c-0.049-0.413-0.089-0.834-0.064-1.272c0.016-0.219,0.043-0.448,0.16-0.682c0.104-0.239,0.385-0.437,0.647-0.457l-0.069,0.4    l-0.004-0.002C20.087,33.498,19.7,32.711,19.599,32c-0.063-0.362-0.081-0.725-0.08-1.084c-0.015-0.359,0.049-0.764,0.253-1.088    c0.398-0.653,1.054-1.04,1.698-1.337c0.656-0.293,1.34-0.498,2.042-0.634c0.039-0.008,0.076,0.018,0.083,0.056    c0.007,0.038-0.02,0.075-0.057,0.083c-0.682,0.152-1.356,0.375-1.984,0.677c-0.619,0.303-1.229,0.702-1.557,1.283    c-0.167,0.286-0.212,0.609-0.187,0.954c0.014,0.348,0.046,0.693,0.118,1.025c0.133,0.668,0.475,1.272,1.07,1.538l0.003,0.002    l0.012,0.006c0.102,0.055,0.141,0.182,0.086,0.284c-0.035,0.064-0.099,0.104-0.167,0.11c-0.291,0.025-0.397,0.357-0.427,0.748    c-0.025,0.385,0.007,0.788,0.052,1.192c0.081,0.782,0.243,1.628,0.785,2.146c0.067,0.061,0.14,0.112,0.217,0.15l0.034,0.017    l0.025,0.014l0.008,0.005c-0.031-0.058,0.149,0.135,0.021,0.245c-0.077,0.055-0.048,0.026-0.079,0.04    c-0.062,0.008-0.034,0.002-0.054,0.004l-0.073-0.002l-0.13,0.007c-0.162,0.024-0.26,0.113-0.313,0.288    c-0.097,0.35-0.056,0.78-0.047,1.185c0.016,0.414,0.024,0.82,0.077,1.224c0.059,0.381,0.135,0.845,0.376,1.079l0.028,0.028    c0.027,0.025,0.027,0.068,0.001,0.096C21.412,42.367,21.37,42.368,21.344,42.345z"
   id="path24" />
		<path
   display="inline"
   fill="#F8992D"
   d="M30.345,27.858c0.7,0.141,1.384,0.35,2.037,0.647c0.641,0.3,1.291,0.691,1.679,1.34    c0.198,0.314,0.257,0.724,0.24,1.073c-0.002,0.356-0.022,0.721-0.087,1.077c-0.107,0.706-0.491,1.467-1.194,1.807l-0.05-0.289    c0.246,0.019,0.506,0.196,0.608,0.423c0.114,0.219,0.148,0.444,0.17,0.66c0.035,0.434,0.007,0.854-0.031,1.27    c-0.104,0.819-0.262,1.729-0.961,2.385c-0.09,0.077-0.191,0.146-0.306,0.199l-0.037,0.017c-0.007,0.004,0.008-0.003,0.015-0.008    l0.006-0.004c-0.044,0.078,0.2-0.18,0.026-0.328c-0.104-0.072-0.06-0.035-0.099-0.053c-0.068-0.009-0.016-0.003-0.027-0.005h0.082    c0.088,0.003,0.112,0.012,0.172,0.017c0.306,0.035,0.542,0.312,0.584,0.554c0.102,0.476,0.023,0.878-0.001,1.292    c-0.035,0.407-0.065,0.824-0.143,1.238c-0.104,0.405-0.134,0.841-0.52,1.177c-0.027,0.024-0.068,0.021-0.093-0.006    c-0.022-0.026-0.021-0.064,0.003-0.089l0.033-0.034c0.229-0.236,0.301-0.701,0.352-1.082c0.046-0.4,0.046-0.808,0.06-1.222    c0.005-0.403,0.04-0.839-0.058-1.168c-0.049-0.164-0.145-0.226-0.258-0.244l-0.136-0.008l-0.072,0.001    c-0.025-0.002,0.015,0.005-0.066-0.005c-0.042-0.02-0.002,0.02-0.106-0.055c-0.174-0.15,0.07-0.411,0.028-0.333l0.01-0.006    l0.032-0.017l0.033-0.016c0.072-0.033,0.144-0.08,0.209-0.138c0.537-0.486,0.723-1.33,0.82-2.109    c0.056-0.401,0.1-0.806,0.085-1.195c-0.014-0.388-0.119-0.767-0.456-0.804c-0.083-0.007-0.146-0.08-0.138-0.164    c0.004-0.056,0.042-0.103,0.088-0.126c0.613-0.277,0.961-0.906,1.089-1.58c0.07-0.338,0.101-0.683,0.112-1.032    c0.024-0.354-0.023-0.675-0.196-0.971c-0.337-0.588-0.953-0.983-1.575-1.284c-0.631-0.299-1.308-0.517-1.991-0.664    c-0.038-0.007-0.063-0.044-0.057-0.082S30.307,27.851,30.345,27.858z"
   id="path26" />
	</g>
	<g
   id="g63"
   clip-path="url(#clipping_mask_2_)">
		<path
   id="path65"
   connector-curvature="0"
   fill="#F8992D"
   d="M27.002,38.496C26.9,37.748,26.853,37,26.846,36.254    c-0.03-0.75,0.073-1.502,0.082-2.234c0.012-0.751-0.115-1.489-0.213-2.238c-0.048-0.773,0.102-1.508,0.285-2.242l0.033,0.004    c0.042,0.754-0.039,1.505-0.04,2.229c-0.042,0.743-0.025,1.494,0.116,2.232c0.096,0.762,0.084,1.504,0.082,2.249    c-0.003,0.749-0.053,1.495-0.158,2.243H27.002z" />
	</g>
	<path
   clip-path="url(#clipping_mask_2_)"
   fill="#F8992D"
   d="M26.635,40.724c-0.201-0.034-0.301-0.271-0.311-0.457   c-0.013-0.198,0.047-0.385,0.172-0.57c0.075-0.081,0.192-0.172,0.356-0.178c0.164,0.002,0.292,0.091,0.342,0.185   c0.113,0.18,0.136,0.355,0.109,0.539c-0.135-0.122-0.297-0.315-0.489-0.315C26.443,39.927,26.566,40.556,26.635,40.724z"
   id="path30" />
	<g
   clip-path="url(#clipping_mask_2_)"
   id="g32">
		<g
   id="g34">
			<path
   fill="#F8992D"
   d="M14.779,30.843c0.778,2.174,0.931,4.516,0.843,6.8c-0.105,2.295-0.444,4.562-1.018,6.805     c-0.048,0.189-0.242,0.304-0.431,0.255s-0.304-0.241-0.255-0.431c0-0.004,0.001-0.007,0.002-0.01l0.004-0.016     c0.621-2.144,1.031-4.389,1.202-6.632c0.156-2.241,0.078-4.534-0.616-6.682c-0.024-0.074,0.017-0.154,0.091-0.179     C14.674,30.731,14.753,30.772,14.779,30.843z"
   id="path36" />
			<path
   fill="#F8992D"
   d="M39.347,30.916c-0.694,2.147-0.773,4.44-0.617,6.682c0.171,2.243,0.581,4.487,1.202,6.632l0.004,0.015     c0.055,0.188-0.054,0.384-0.242,0.438c-0.188,0.055-0.384-0.054-0.438-0.242c-0.001-0.003-0.002-0.007-0.003-0.01     c-0.574-2.243-0.913-4.51-1.018-6.805c-0.088-2.284,0.064-4.626,0.843-6.8c0.025-0.074,0.106-0.113,0.181-0.088     C39.331,30.763,39.37,30.843,39.347,30.916z"
   id="path38" />
		</g>
	</g>
	<g
   clip-path="url(#clipping_mask_2_)"
   id="g40">
		<linearGradient
   id="SVGID_1_"
   gradientUnits="userSpaceOnUse"
   x1="39.7449"
   y1="29.3469"
   x2="40.7267"
   y2="22.7199">
			<stop
   offset="0"
   style="stop-color:#FFCD03"
   id="stop43" />
			<stop
   offset="0.0776"
   style="stop-color:#FEC508"
   id="stop45" />
			<stop
   offset="0.4736"
   style="stop-color:#F9A11F"
   id="stop47" />
			<stop
   offset="0.7952"
   style="stop-color:#F68A2E"
   id="stop49" />
			<stop
   offset="1"
   style="stop-color:#F58233"
   id="stop51" />
		</linearGradient>
		<path
   fill="url(#SVGID_1_)"
   d="M46.663,20.993c-0.178,1.065-0.45,1.933-0.985,2.85c-0.547,0.913-1.295,1.705-2.191,2.267    c-0.898,0.561-1.914,0.902-2.957,1.1c-1.051,0.182-4.756-0.201-6.184-0.999c2.584,1.923,6.26,2.616,10.51,5.95    c-0.021-1.401,1.439-8.224,1.725-9.51C46.855,21.414,46.663,20.993,46.663,20.993z"
   id="path53" />
		
			<linearGradient
   id="SVGID_2_"
   gradientUnits="userSpaceOnUse"
   x1="43.1072"
   y1="29.3469"
   x2="44.089"
   y2="22.7197"
   gradientTransform="matrix(-1 0 0 1 57.2202 0)">
			<stop
   offset="0"
   style="stop-color:#FFCD03"
   id="stop56" />
			<stop
   offset="0.0776"
   style="stop-color:#FEC508"
   id="stop58" />
			<stop
   offset="0.4736"
   style="stop-color:#F9A11F"
   id="stop60" />
			<stop
   offset="0.7952"
   style="stop-color:#F68A2E"
   id="stop62" />
			<stop
   offset="1"
   style="stop-color:#F58233"
   id="stop64" />
		</linearGradient>
		<path
   fill="url(#SVGID_2_)"
   d="M7.277,22.651c0.285,1.286,1.746,8.108,1.725,9.51c4.25-3.334,7.926-4.027,10.51-5.95    c-1.428,0.798-5.133,1.181-6.184,0.999c-1.043-0.197-2.059-0.539-2.957-1.1c-0.896-0.562-1.645-1.354-2.191-2.267    c-0.535-0.917-0.808-1.784-0.985-2.85C7.194,20.993,7.002,21.414,7.277,22.651z"
   id="path66" />
	</g>
	<g
   clip-path="url(#clipping_mask_2_)"
   id="g68">
		<path
   id="path3165"
   connector-curvature="0"
   fill="#001423"
   d="M8.279,17.02c-0.733,1.042-1.188,2.254-1.188,3.563    c0,3.799,3.55,6.875,7.938,6.875c3.684,0,6.788-2.18,7.688-5.125c-1.061,2.703-3.988,4.625-7.438,4.625    c-4.345,0-7.875-3.076-7.875-6.875C7.404,18.969,7.74,17.952,8.279,17.02z" />
		<path
   id="path3172"
   connector-curvature="0"
   fill="#001423"
   d="M45.577,17.02c0.733,1.042,1.188,2.254,1.188,3.563    c0,3.799-3.55,6.875-7.938,6.875c-3.684,0-6.788-2.18-7.688-5.125c1.061,2.703,3.987,4.625,7.438,4.625    c4.345,0,7.875-3.076,7.875-6.875C46.452,18.969,46.115,17.952,45.577,17.02z" />
	</g>
	<path
   clip-path="url(#clipping_mask_2_)"
   fill="#FDC97D"
   d="M32.445,1.74H21.27c0,0,3.783,3.5,5.67,6.524   C28.428,5.302,32.445,1.74,32.445,1.74z"
   id="path72" />
	<g
   clip-path="url(#clipping_mask_2_)"
   id="g74">
		<g
   id="g76">
			<path
   fill="#001423"
   d="M27.452,7.127l-0.035,0.061c-0.013,0.013,0.041-0.031-0.052-0.037l0.01-0.012l0.021-0.028l0.085-0.116     l0.171-0.233l0.347-0.463c0.23-0.31,0.47-0.613,0.714-0.911c0.485-0.6,0.979-1.195,1.503-1.762     c1.036-1.145,2.125-2.254,3.356-3.202c0.61-0.48,1.248-0.925,1.911-1.33c0.657-0.408,1.374-0.755,2.132-0.937     c0.752-0.185,1.508-0.374,2.312-0.37c0.386,0.025,0.861,0.043,1.187,0.469c0.291,0.475,0.063,0.995-0.234,1.315l-0.031,0.032     l-0.056,0.022c-1.256,0.48-2.459,1.12-3.63,1.81c-1.166,0.699-2.33,1.41-3.461,2.174c-1.136,0.756-2.271,1.517-3.387,2.307     l-3.355,2.37l-0.036-0.044c2.034-1.846,4.205-3.531,6.458-5.107c1.14-0.769,2.284-1.536,3.492-2.203     c1.207-0.666,2.438-1.307,3.769-1.74l-0.086,0.054c0.222-0.208,0.356-0.563,0.229-0.781c-0.13-0.236-0.521-0.343-0.875-0.376     C39.17-1.968,38.4-1.838,37.661-1.66c-1.503,0.323-2.711,1.377-3.836,2.383c-1.115,1.045-2.209,2.114-3.28,3.211l-1.594,1.663     l-0.794,0.837l-0.398,0.418l-0.201,0.208l-0.103,0.103l-0.027,0.026l-0.015,0.014c-0.11,0.008-0.046-0.053-0.054-0.05     l0.046-0.058L27.452,7.127z"
   id="path78" />
			<path
   fill="#001423"
   d="M26.53,7.157l0.046,0.058c-0.007-0.002,0.056,0.058-0.054,0.05l-0.015-0.014L26.48,7.226l-0.103-0.103     l-0.201-0.208l-0.398-0.418l-0.794-0.837l-1.593-1.663c-1.071-1.098-2.165-2.167-3.28-3.211c-1.125-1.006-2.333-2.06-3.837-2.383     c-0.739-0.178-1.509-0.308-2.247-0.251c-0.354,0.033-0.746,0.14-0.875,0.376c-0.127,0.218,0.008,0.573,0.23,0.781l-0.086-0.054     c1.33,0.433,2.562,1.074,3.769,1.74c1.208,0.667,2.353,1.434,3.492,2.203c2.252,1.576,4.424,3.261,6.458,5.107l-0.036,0.044     l-3.354-2.37c-1.117-0.79-2.251-1.551-3.388-2.307c-1.131-0.764-2.294-1.475-3.46-2.174c-1.17-0.689-2.375-1.33-3.63-1.81     l-0.056-0.022l-0.03-0.032c-0.298-0.32-0.526-0.84-0.235-1.315c0.325-0.426,0.801-0.444,1.187-0.469     c0.804-0.004,1.56,0.185,2.312,0.37c0.758,0.182,1.475,0.529,2.131,0.937c0.663,0.405,1.302,0.85,1.912,1.33     c1.231,0.948,2.321,2.057,3.356,3.202c0.525,0.567,1.018,1.162,1.503,1.762c0.244,0.298,0.483,0.601,0.713,0.911l0.347,0.463     l0.171,0.233l0.085,0.116l0.021,0.028l0.01,0.012c-0.093,0.006-0.04,0.05-0.052,0.037L26.483,7.19L26.53,7.157z"
   id="path80" />
		</g>
	</g>
</g>
<g
   id="head">
	<g
   id="layer3"
   label="torso"
   groupmode="layer">
		<path
   id="path8344"
   connector-curvature="0"
   fill="#FDC97D"
   stroke="#231F20"
   stroke-width="0.3125"
   d="M112.616-5.283    H-0.185v-21.392h112.801V-5.283z" />
	</g>
	<g
   id="layer5"
   label="face"
   groupmode="layer">
		<g
   id="g8346"
   transform="translate(120.39978,32.84478)"
   enable-background="new    ">
			<g
   id="g8348"
   transform="translate(44.320069,93.250126)">
				
					<path
   id="path8350"
   cx="206.08511"
   rx="1.7446809"
   cy="14.904921"
   ry="1.7446809"
   type="arc"
   fill="#001423"
   d="      M-82.879-142.194c0,1.033-0.781,1.87-1.744,1.87c-0.965,0-1.746-0.837-1.746-1.87c0-1.032,0.781-1.87,1.746-1.87      C-83.661-144.064-82.879-143.227-82.879-142.194z" />
				
					<path
   id="path8352"
   cx="206.38298"
   rx="0.59574467"
   cy="14.351728"
   ry="0.68085104"
   type="arc"
   fill="#EFF0ED"
   d="      M-83.901-142.958c0,0.376-0.267,0.681-0.596,0.681s-0.596-0.305-0.596-0.681s0.267-0.681,0.596-0.681      S-83.901-143.334-83.901-142.958z" />
				<g
   id="g8354"
   transform="matrix(-1,0,0,1,96.25241,0)">
					
						<path
   id="path8356"
   cx="206.08511"
   rx="1.7446809"
   cy="14.904921"
   ry="1.7446809"
   type="arc"
   fill="#001423"
   d="       M174.831-142.194c0,1.033-0.781,1.87-1.744,1.87c-0.964,0-1.745-0.837-1.745-1.87c0-1.032,0.781-1.87,1.745-1.87       C174.05-144.064,174.831-143.227,174.831-142.194z" />
					
						<path
   id="path8358"
   cx="206.38298"
   rx="0.59574467"
   cy="14.351728"
   ry="0.68085104"
   type="arc"
   fill="#EFF0ED"
   d="       M173.809-142.958c0,0.376-0.267,0.681-0.596,0.681c-0.328,0-0.596-0.305-0.596-0.681s0.268-0.681,0.596-0.681       C173.543-143.639,173.809-143.334,173.809-142.958z" />
				</g>
				<path
   id="path8360"
   connector-curvature="0"
   nodetypes="ccccc"
   fill="#001423"
   d="M-78.766-143.611      c1.955-1.05,5.007,1.783,5.692-1.396c-0.558,0.594-0.942,0.835-0.716-0.179c-0.489,0.345-1.043,0.851-0.932-0.286      C-74.969-143.742-77.922-145.861-78.766-143.611z" />
				<path
   id="path8362"
   connector-curvature="0"
   nodetypes="ccccc"
   fill="#001423"
   d="M-83.074-143.611      c-1.956-1.05-5.008,1.783-5.692-1.396c0.557,0.594,0.941,0.835,0.716-0.179c0.489,0.345,1.043,0.851,0.931-0.286      C-86.563-143.685-83.914-145.858-83.074-143.611z" />
			</g>
			<g
   id="g8368">
				<path
   id="path8370"
   connector-curvature="0"
   nodetypes="scscccs"
   fill="#C4281B"
   d="M-37.467-44.025      c-0.911-0.055-1.963,0.359-3.636,0.446c0.263,0.491,2.261,1.601,4.401,1.628c0.032,0,0.062,0,0.094,0      c2.143-0.025,4.023-1.137,4.286-1.628c-2.171-0.112-3.254-0.977-4.396-0.134C-36.971-43.894-37.204-44.009-37.467-44.025      L-37.467-44.025z" />
			</g>
		</g>
		<g
   id="g8568"
   transform="translate(107.29174,126.09491)">
			
				<path
   id="path8570"
   cx="206.08511"
   rx="1.7446809"
   cy="14.904921"
   ry="1.7446809"
   type="arc"
   fill="#001423"
   d="     M-82.879-142.194c0,1.033-0.781,1.87-1.745,1.87s-1.745-0.837-1.745-1.87c0-1.032,0.781-1.87,1.745-1.87     S-82.879-143.227-82.879-142.194z" />
			
				<path
   id="path8572"
   cx="206.38298"
   rx="0.59574467"
   cy="14.351728"
   ry="0.68085104"
   type="arc"
   fill="#EFF0ED"
   d="     M-83.9-142.958c0,0.376-0.268,0.681-0.596,0.681c-0.33,0-0.596-0.305-0.596-0.681s0.266-0.681,0.596-0.681     C-84.168-143.639-83.9-143.334-83.9-142.958z" />
			<g
   id="g8574"
   transform="matrix(-1,0,0,1,96.25241,0)">
				
					<path
   id="path8576"
   cx="206.08511"
   rx="1.7446809"
   cy="14.904921"
   ry="1.7446809"
   type="arc"
   fill="#001423"
   d="      M174.831-142.194c0,1.033-0.781,1.87-1.744,1.87s-1.744-0.837-1.744-1.87c0-1.032,0.781-1.87,1.744-1.87      S174.831-143.227,174.831-142.194z" />
				
					<path
   id="path8578"
   cx="206.38298"
   rx="0.59574467"
   cy="14.351728"
   ry="0.68085104"
   type="arc"
   fill="#EFF0ED"
   d="      M173.809-142.958c0,0.376-0.266,0.681-0.596,0.681c-0.328,0-0.596-0.305-0.596-0.681s0.268-0.681,0.596-0.681      C173.543-143.639,173.809-143.334,173.809-142.958z" />
			</g>
			<path
   id="path8580"
   connector-curvature="0"
   nodetypes="ccccc"
   fill="#001423"
   d="M-78.625-143.611     c1.956-1.05,5.008,1.783,5.692-1.396c-0.557,0.594-0.941,0.835-0.716-0.179c-0.489,0.345-1.043,0.851-0.931-0.286     C-74.828-143.742-77.78-145.861-78.625-143.611z" />
			<path
   id="path8582"
   connector-curvature="0"
   nodetypes="ccccc"
   fill="#001423"
   d="M-83.216-143.611     c-1.955-1.05-5.007,1.783-5.692-1.396c0.558,0.594,0.942,0.835,0.716-0.179c0.489,0.345,1.043,0.851,0.932-0.286     C-86.705-143.685-84.056-145.858-83.216-143.611z" />
		</g>
		<g
   id="g8594"
   transform="matrix(0.87413245,0,0,0.87413245,125.31577,75.049834)">
			<path
   id="path8596"
   connector-curvature="0"
   nodetypes="ccc"
   fill="#C4281B"
   d="M-116.762-96.403l9.072-2.278     C-112.19-93.637-115.669-95.542-116.762-96.403z" />
			<path
   id="path8598"
   connector-curvature="0"
   nodetypes="cccc"
   fill="#C4281B"
   d="M-116.976-97.241     c1.003-0.751,1.872-1.746,4.046-1.017c0.509-1.262,3.305,0.019,5.083-0.713C-107.315-97.733-113.06-96.444-116.976-97.241z" />
			<path
   id="path8600"
   connector-curvature="0"
   nodetypes="cccscccccccccccc"
   fill="#001423"
   d="M-107.86-99.015     c-0.011,0.009-0.021,0.02-0.031,0.031c-0.021,0.007-0.042,0.018-0.061,0.031c-1.451,0.858-3.641,1.624-5.855,1.774     c-1.954,0.132-4.053-0.361-3.886,0.388c-0.001,0.044,0.009-0.038,0.031,0.125c-0.022-0.059,0.121,0.347,0.254,0.276     c0.038,0.02,0.082,0.031,0.125,0.031c3.516-0.006,6.849-0.284,9.611-2.187c0.025-0.018,0.047-0.039,0.063-0.063     c0.013-0.02,0.025-0.04,0.031-0.063c0.011-0.041,0.011-0.085,0-0.125c-0.003-0.034-0.015-0.065-0.031-0.094     c-0.009-0.011-0.02-0.022-0.031-0.031c-0.009-0.011-0.02-0.022-0.031-0.031C-107.721-98.998-107.792-99.021-107.86-99.015     L-107.86-99.015z" />
			<path
   id="path8602"
   connector-curvature="0"
   nodetypes="cczc"
   fill="#001423"
   d="M-109.354-99.198     c1.348,0.073,1.891,0.431,1.853,1.8c0,0,0.989-0.91,0.143-1.889C-108.203-100.266-109.354-99.198-109.354-99.198L-109.354-99.198     z" />
		</g>
	</g>
	<g
   id="g110">
		<path
   fill="#ED1C24"
   stroke="#001423"
   stroke-width="0.4252"
   stroke-linejoin="round"
   d="M26.725-17.538    c-7.2-5.849-16.607-7.815-16.607-7.815s4.056,11.326,10.329,12.896c0.246,0.062,6.278-1.585,6.278-1.585s6.033,1.646,6.279,1.585    c6.273-1.569,10.329-12.896,10.329-12.896S33.926-23.386,26.725-17.538z M25.835-14.994c-0.74,0.36-5.272,1.354-5.429,1.282    c-4.371-2.006-4.737-5.393-5.386-7.77c2.73,0.88,6.29,1.097,10.732,4.487C25.948-16.844,25.991-15.959,25.835-14.994z     M33.046-13.712c-0.156,0.072-4.688-0.922-5.429-1.282c-0.156-0.965-0.113-1.851,0.082-2c4.442-3.391,8.002-3.607,10.732-4.487    C37.783-19.104,37.417-15.718,33.046-13.712z"
   id="path112" />
		<path
   fill="#F58233"
   d="M20.345-12.715c-0.669-0.124-1.264-0.482-1.828-0.846c-0.563-0.375-1.092-0.8-1.596-1.251    c-1.007-0.904-1.907-1.922-2.723-3.002c-1.611-2.177-2.855-4.752-3.771-7.293l0.639,0.193c0.778,2.527,1.886,4.692,3.378,6.916    c0.764,1.097,1.616,2.138,2.58,3.072c0.482,0.466,0.989,0.907,1.534,1.301C19.107-13.242,19.683-12.864,20.345-12.715z     M33.071-12.715c0.669-0.124,1.264-0.482,1.828-0.846c0.563-0.375,1.092-0.8,1.596-1.251c1.007-0.904,1.907-1.922,2.723-3.002    c1.611-2.177,2.855-4.752,3.771-7.293l-0.639,0.193c-0.778,2.527-1.886,4.692-3.378,6.916c-0.764,1.097-1.616,2.138-2.58,3.072    c-0.482,0.466-0.989,0.907-1.534,1.301C34.309-13.242,33.733-12.864,33.071-12.715z"
   id="path114" />
	</g>
	<g
   id="g116">
		<path
   fill="#001423"
   d="M78.77-10.85c0.819,0.133,1.638,0.222,2.457,0.281c0.819,0.055,1.638,0.104,2.458,0.081    c1.642,0.02,3.271-0.158,4.919-0.362c-1.573,0.551-3.251,0.759-4.918,0.787C82.022-10.089,80.334-10.26,78.77-10.85z"
   id="path118" />
	</g>
	<g
   id="g120">
		<path
   fill="#ED1C24"
   stroke="#001423"
   stroke-width="0.4252"
   stroke-linejoin="round"
   d="M83.967-17.538    c-7.2-5.849-16.607-7.815-16.607-7.815s4.056,11.326,10.329,12.896c0.246,0.062,6.278-1.585,6.278-1.585s6.033,1.646,6.279,1.585    c6.273-1.569,10.329-12.896,10.329-12.896S91.169-23.386,83.967-17.538z M83.077-14.994c-0.74,0.36-5.272,1.354-5.429,1.282    c-4.371-2.006-4.737-5.393-5.386-7.77c2.73,0.88,6.29,1.097,10.732,4.487C83.19-16.844,83.233-15.959,83.077-14.994z     M90.288-13.712c-0.156,0.072-4.688-0.922-5.429-1.282c-0.156-0.965-0.113-1.851,0.082-2c4.442-3.391,8.002-3.607,10.732-4.487    C95.025-19.104,94.659-15.718,90.288-13.712z"
   id="path122" />
		<path
   fill="#F58233"
   d="M77.588-12.715c-0.669-0.124-1.264-0.482-1.828-0.846c-0.563-0.375-1.092-0.8-1.596-1.251    c-1.007-0.904-1.907-1.922-2.723-3.002c-1.611-2.177-2.855-4.752-3.771-7.293l0.639,0.193c0.778,2.527,1.886,4.692,3.378,6.916    c0.764,1.097,1.616,2.138,2.58,3.072c0.482,0.466,0.989,0.907,1.534,1.301C76.349-13.242,76.926-12.864,77.588-12.715z     M90.313-12.715c0.669-0.124,1.264-0.482,1.828-0.846c0.563-0.375,1.092-0.8,1.596-1.251c1.007-0.904,1.907-1.922,2.723-3.002    c1.611-2.177,2.855-4.752,3.771-7.293l-0.639,0.193c-0.778,2.527-1.886,4.692-3.378,6.916c-0.764,1.097-1.616,2.138-2.58,3.072    c-0.482,0.466-0.989,0.907-1.534,1.301C91.551-13.242,90.975-12.864,90.313-12.715z"
   id="path124" />
	</g>
</g>
<g
   id="arms">
	<g
   id="g127">
		<path
   id="path3065"
   connector-curvature="0"
   fill="#FFCD03"
   stroke="#231F20"
   stroke-width="0.3125"
   d="M72.415,42.599    c1.463-1.131,3.679-3.146,6.063-6.383c0.618-0.84,1.247-1.76,1.877-2.766l-5.685-5.686c0,0-1.88-1.736-1.794-4.533    c0,0,1.354-14.479-0.677-17.774c-2.927-4.75-7.1-3.994-7.1-3.994c-10.11,0.864-10.317,9.086-10.317,9.086s-0.07,9.776-0.026,14.57    c0.046,4.795,3.344,7.492,3.344,7.492l12.537,11.191C70.636,43.804,71.313,43.45,72.415,42.599L72.415,42.599z" />
		<g
   id="g130">
			<defs
   id="defs132">
				<path
   id="path3065_1_"
   connector-curvature="0"
   d="M72.366,42.399c1.448-1.119,3.642-3.114,6.002-6.318      c0.612-0.832,1.234-1.601,1.858-2.597l-5.628-5.629c0,0-2.003-1.86-1.918-4.629c0,0,1.483-14.334-0.528-17.597      c-2.897-4.702-7.028-3.954-7.028-3.954C55.115,2.531,54.91,10.671,54.91,10.671s-0.07,9.678-0.026,14.424      c0.046,4.747,3.311,7.418,3.311,7.418l12.411,11.079C70.605,43.592,71.275,43.242,72.366,42.399L72.366,42.399z" />
			</defs>
			<clipPath
   id="path3065_4_">
				<use
   xlink:href="#path3065_1_"
   overflow="visible"
   id="use136" />
			</clipPath>
			<path
   clip-path="url(#path3065_4_)"
   fill="#F58233"
   stroke="#231F20"
   stroke-width="0.4252"
   stroke-linejoin="round"
   d="     M61.575,37.115c0,0-2.423-7.639-1.521-7.188c2.75,1.375,3.438,0.813,6.25,1.283c-0.188-1.471-0.5-2.908-0.5-2.908     s2.938,0.625,5.25,2.125c-0.375-3-1.438-5-1.438-5l6.813,1.042c0,0,12.813,4.458,12.938,4.771S67.678,51.427,67.678,51.427     L61.575,37.115z"
   id="path138" />
			<path
   clip-path="url(#path3065_4_)"
   fill="#ED1C24"
   stroke="#231F20"
   stroke-width="0.4252"
   stroke-linejoin="round"
   d="     M62.639,36.72c-0.55-1.738-1.114-3.733-1.421-5.072c1.078,0.356,1.877,0.405,2.76,0.458c0.619,0.037,1.261,0.076,2.138,0.223     l1.505,0.252l-0.192-1.514c-0.052-0.402-0.111-0.801-0.172-1.17c0.946,0.321,2.142,0.808,3.18,1.481l2.045,1.326l-0.303-2.418     c-0.171-1.365-0.475-2.538-0.771-3.438l4.746,0.727c4.314,1.501,9.023,3.185,11.279,4.055     c-3.077,2.984-12.375,11.531-19.339,17.884L62.639,36.72z"
   id="path140" />
		</g>
	</g>
	<g
   id="g142">
		<path
   id="path3065_3_"
   connector-curvature="0"
   fill="#FFCD03"
   stroke="#231F20"
   stroke-width="0.3125"
   d="    M89.494,42.599c1.101,0.852,1.777,1.205,1.777,1.205l12.537-11.191c0,0,3.298-2.697,3.344-7.492    c0.044-4.794-0.026-14.57-0.026-14.57s-0.207-8.223-10.317-9.086c0,0-4.173-0.756-7.1,3.994    c-2.031,3.295-0.677,17.774-0.677,17.774c0.086,2.797-1.794,4.533-1.794,4.533l-5.685,5.686c0.63,1.006,1.259,1.926,1.877,2.766    C85.814,39.452,88.03,41.468,89.494,42.599L89.494,42.599z" />
		<g
   id="g145">
			<defs
   id="defs147">
				<path
   id="path3065_2_"
   connector-curvature="0"
   d="M89.543,42.399c1.09,0.844,1.76,1.193,1.76,1.193l12.411-11.079      c0,0,3.265-2.671,3.311-7.418c0.044-4.746-0.026-14.424-0.026-14.424s-0.205-8.141-10.214-8.996c0,0-4.131-0.749-7.028,3.954      c-2.012,3.262-0.528,17.597-0.528,17.597c0.085,2.769-1.918,4.629-1.918,4.629l-5.628,5.629      c0.624,0.996,1.246,1.765,1.858,2.597C85.9,39.284,88.093,41.28,89.543,42.399L89.543,42.399z" />
			</defs>
			<clipPath
   id="path3065_5_">
				<use
   xlink:href="#path3065_2_"
   overflow="visible"
   id="use151" />
			</clipPath>
			<path
   clip-path="url(#path3065_5_)"
   fill="#F58233"
   stroke="#231F20"
   stroke-width="0.4252"
   stroke-linejoin="round"
   d="     M100.333,37.115c0,0,2.423-7.639,1.521-7.188c-2.75,1.375-3.438,0.813-6.25,1.283c0.188-1.471,0.5-2.908,0.5-2.908     s-2.938,0.625-5.25,2.125c0.375-3,1.438-5,1.438-5l-6.813,1.042c0,0-12.813,4.458-12.938,4.771s21.688,20.188,21.688,20.188     L100.333,37.115z"
   id="path153" />
			<path
   clip-path="url(#path3065_5_)"
   fill="#ED1C24"
   stroke="#231F20"
   stroke-width="0.4252"
   stroke-linejoin="round"
   d="     M99.268,36.72c0.55-1.738,1.114-3.733,1.421-5.072c-1.078,0.356-1.877,0.405-2.76,0.458c-0.619,0.037-1.261,0.076-2.138,0.223     l-1.505,0.252l0.192-1.514c0.052-0.402,0.111-0.801,0.172-1.17c-0.946,0.321-2.142,0.808-3.18,1.481l-2.045,1.326l0.303-2.418     c0.171-1.365,0.475-2.538,0.771-3.438l-4.746,0.727c-4.314,1.501-9.023,3.185-11.279,4.055     c3.077,2.984,12.375,11.531,19.339,17.884L99.268,36.72z"
   id="path155" />
		</g>
	</g>
</g>
</svg>