<?xml version="1.0" encoding="UTF-8" standalone="no"?>
<!-- Created with Inkscape (http://www.inkscape.org/) -->

<svg
   xmlns:dc="http://purl.org/dc/elements/1.1/"
   xmlns:cc="http://creativecommons.org/ns#"
   xmlns:rdf="http://www.w3.org/1999/02/22-rdf-syntax-ns#"
   xmlns:svg="http://www.w3.org/2000/svg"
   xmlns="http://www.w3.org/2000/svg"
   xmlns:xlink="http://www.w3.org/1999/xlink"
   xmlns:sodipodi="http://sodipodi.sourceforge.net/DTD/sodipodi-0.dtd"
   xmlns:inkscape="http://www.inkscape.org/namespaces/inkscape"
   width="52.5"
   height="43.307419"
   id="svg2"
   version="1.1"
   inkscape:version="0.48.2 r9819"
   sodipodi:docname="phoenix_exclusive.svg">
  <defs
     id="defs4">
    <linearGradient
       inkscape:collect="always"
       id="linearGradient4011">
      <stop
         style="stop-color:#ffffff;stop-opacity:1;"
         offset="0"
         id="stop4013" />
      <stop
         style="stop-color:#ffffff;stop-opacity:0;"
         offset="1"
         id="stop4015" />
    </linearGradient>
    <linearGradient
       inkscape:collect="always"
       id="linearGradient3997">
      <stop
         style="stop-color:#ffffff;stop-opacity:1;"
         offset="0"
         id="stop3999" />
      <stop
         style="stop-color:#ffffff;stop-opacity:0;"
         offset="1"
         id="stop4001" />
    </linearGradient>
    <inkscape:path-effect
       effect="skeletal"
       id="path-effect4237"
       is_visible="true"
       pattern="M 0,5 C 0,2.24 2.24,0 5,0 7.76,0 10,2.24 10,5 10,7.76 7.76,10 5,10 2.24,10 0,7.76 0,5 z"
       copytype="single_stretched"
       prop_scale="1"
       scale_y_rel="false"
       spacing="0"
       normal_offset="0"
       tang_offset="0"
       prop_units="false"
       vertical_pattern="false"
       fuse_tolerance="0" />
    <clipPath
       id="clipPath2999"
       clipPathUnits="userSpaceOnUse">
      <path
         id="path3001"
         d="M 0,792 612,792 612,0 0,0 0,792 z"
         inkscape:connector-curvature="0" />
    </clipPath>
    <radialGradient
       gradientUnits="userSpaceOnUse"
       gradientTransform="matrix(0.75988491,-0.03632001,0.13155835,2.7524547,16.986326,-78.268899)"
       r="12.650181"
       fy="46.658409"
       fx="96.306435"
       cy="46.658409"
       cx="96.306435"
       id="radialGradient3972"
       xlink:href="#linearGradient3966"
       inkscape:collect="always" />
    <clipPath
       clipPathUnits="userSpaceOnUse"
       id="clipPath2999-4">
      <path
         inkscape:connector-curvature="0"
         d="M 0,792 612,792 612,0 0,0 0,792 z"
         id="path3001-0" />
    </clipPath>
    <linearGradient
       id="linearGradient3966">
      <stop
         id="stop3968"
         offset="0"
         style="stop-color:#c0ac02;stop-opacity:1;" />
      <stop
         id="stop3970"
         offset="1"
         style="stop-color:#fdea41;stop-opacity:0;" />
    </linearGradient>
    <radialGradient
       inkscape:collect="always"
       xlink:href="#linearGradient3997"
       id="radialGradient4003"
       cx="165.81134"
       cy="47.693741"
       fx="165.81134"
       fy="47.693741"
       r="3.8123069"
       gradientTransform="matrix(0.64374811,-0.18781617,0.31213841,1.069868,43.640483,27.15595)"
       gradientUnits="userSpaceOnUse" />
    <radialGradient
       inkscape:collect="always"
       xlink:href="#linearGradient3997"
       id="radialGradient4007"
       gradientUnits="userSpaceOnUse"
       gradientTransform="matrix(-0.64374811,-0.18781617,-0.31213841,1.069868,293.73143,27.15595)"
       cx="165.81134"
       cy="47.693741"
       fx="165.81134"
       fy="47.693741"
       r="3.8123069" />
    <radialGradient
       inkscape:collect="always"
       xlink:href="#linearGradient4011"
       id="radialGradient4017"
       cx="169.32254"
       cy="41.784931"
       fx="169.32254"
       fy="41.784931"
       r="6.982676"
       gradientTransform="matrix(0.31036379,-0.01814613,0.03701409,0.63307367,114.75293,21.468668)"
       gradientUnits="userSpaceOnUse" />
    <linearGradient
       id="linearGradient3966-2">
      <stop
         style="stop-color:#c0ac02;stop-opacity:1;"
         offset="0"
         id="stop3968-4" />
      <stop
         style="stop-color:#fdea41;stop-opacity:0;"
         offset="1"
         id="stop3970-5" />
    </linearGradient>
    <clipPath
       id="clipPath2999-4-8"
       clipPathUnits="userSpaceOnUse">
      <path
         id="path3001-0-8"
         d="M 0,792 612,792 612,0 0,0 0,792 z"
         inkscape:connector-curvature="0" />
    </clipPath>
    <radialGradient
       inkscape:collect="always"
       xlink:href="#linearGradient3966-2"
       id="radialGradient3972-4"
       cx="96.306435"
       cy="46.658409"
       fx="96.306435"
       fy="46.658409"
       r="12.650181"
       gradientTransform="matrix(0.75988491,-0.03632001,0.13155835,2.7524547,16.986326,-78.268899)"
       gradientUnits="userSpaceOnUse" />
    <clipPath
       clipPathUnits="userSpaceOnUse"
       id="clipPath2999-0">
      <path
         inkscape:connector-curvature="0"
         d="M 0,792 612,792 612,0 0,0 0,792 z"
         id="path3001-9" />
    </clipPath>
    <inkscape:path-effect
       fuse_tolerance="0"
       vertical_pattern="false"
       prop_units="false"
       tang_offset="0"
       normal_offset="0"
       spacing="0"
       scale_y_rel="false"
       prop_scale="1"
       copytype="single_stretched"
       pattern="M 0,5 C 0,2.24 2.24,0 5,0 7.76,0 10,2.24 10,5 10,7.76 7.76,10 5,10 2.24,10 0,7.76 0,5 z"
       is_visible="true"
       id="path-effect4237-4"
       effect="skeletal" />
    <linearGradient
       inkscape:collect="always"
       id="linearGradient4011-4">
      <stop
         style="stop-color:#ffffff;stop-opacity:1;"
         offset="0"
         id="stop4013-0" />
      <stop
         style="stop-color:#ffffff;stop-opacity:0;"
         offset="1"
         id="stop4015-9" />
    </linearGradient>
    <linearGradient
       inkscape:collect="always"
       id="linearGradient3997-4">
      <stop
         style="stop-color:#ffffff;stop-opacity:1;"
         offset="0"
         id="stop3999-8" />
      <stop
         style="stop-color:#ffffff;stop-opacity:0;"
         offset="1"
         id="stop4001-8" />
    </linearGradient>
    <inkscape:path-effect
       effect="skeletal"
       id="path-effect4237-2"
       is_visible="true"
       pattern="M 0,5 C 0,2.24 2.24,0 5,0 7.76,0 10,2.24 10,5 10,7.76 7.76,10 5,10 2.24,10 0,7.76 0,5 z"
       copytype="single_stretched"
       prop_scale="1"
       scale_y_rel="false"
       spacing="0"
       normal_offset="0"
       tang_offset="0"
       prop_units="false"
       vertical_pattern="false"
       fuse_tolerance="0" />
    <clipPath
       id="clipPath2999-45"
       clipPathUnits="userSpaceOnUse">
      <path
         id="path3001-5"
         d="M 0,792 612,792 612,0 0,0 0,792 z"
         inkscape:connector-curvature="0" />
    </clipPath>
    <radialGradient
       gradientUnits="userSpaceOnUse"
       gradientTransform="matrix(0.75988491,-0.03632001,0.13155835,2.7524547,16.986326,-78.268899)"
       r="12.650181"
       fy="46.658409"
       fx="96.306435"
       cy="46.658409"
       cx="96.306435"
       id="radialGradient3972-1"
       xlink:href="#linearGradient3966-1"
       inkscape:collect="always" />
    <clipPath
       clipPathUnits="userSpaceOnUse"
       id="clipPath2999-4-7">
      <path
         inkscape:connector-curvature="0"
         d="M 0,792 612,792 612,0 0,0 0,792 z"
         id="path3001-0-1" />
    </clipPath>
    <linearGradient
       id="linearGradient3966-1">
      <stop
         id="stop3968-5"
         offset="0"
         style="stop-color:#c0ac02;stop-opacity:1;" />
      <stop
         id="stop3970-2"
         offset="1"
         style="stop-color:#fdea41;stop-opacity:0;" />
    </linearGradient>
    <radialGradient
       inkscape:collect="always"
       xlink:href="#linearGradient3997-4"
       id="radialGradient4003-7"
       cx="165.81134"
       cy="47.693741"
       fx="165.81134"
       fy="47.693741"
       r="3.8123069"
       gradientTransform="matrix(0.64374811,-0.18781617,0.31213841,1.069868,43.640483,27.15595)"
       gradientUnits="userSpaceOnUse" />
    <radialGradient
       inkscape:collect="always"
       xlink:href="#linearGradient3997-4"
       id="radialGradient4007-6"
       gradientUnits="userSpaceOnUse"
       gradientTransform="matrix(-0.64374811,-0.18781617,-0.31213841,1.069868,293.73143,27.15595)"
       cx="165.81134"
       cy="47.693741"
       fx="165.81134"
       fy="47.693741"
       r="3.8123069" />
    <radialGradient
       inkscape:collect="always"
       xlink:href="#linearGradient4011-4"
       id="radialGradient4017-1"
       cx="169.32254"
       cy="41.784931"
       fx="169.32254"
       fy="41.784931"
       r="6.982676"
       gradientTransform="matrix(0.31036379,-0.01814613,0.03701409,0.63307367,114.75293,21.468668)"
       gradientUnits="userSpaceOnUse" />
    <linearGradient
       id="linearGradient3966-2-4">
      <stop
         style="stop-color:#c0ac02;stop-opacity:1;"
         offset="0"
         id="stop3968-4-2" />
      <stop
         style="stop-color:#fdea41;stop-opacity:0;"
         offset="1"
         id="stop3970-5-3" />
    </linearGradient>
    <clipPath
       id="clipPath2999-4-8-2"
       clipPathUnits="userSpaceOnUse">
      <path
         id="path3001-0-8-2"
         d="M 0,792 612,792 612,0 0,0 0,792 z"
         inkscape:connector-curvature="0" />
    </clipPath>
    <radialGradient
       inkscape:collect="always"
       xlink:href="#linearGradient3966-2-4"
       id="radialGradient3972-4-1"
       cx="96.306435"
       cy="46.658409"
       fx="96.306435"
       fy="46.658409"
       r="12.650181"
       gradientTransform="matrix(0.75988491,-0.03632001,0.13155835,2.7524547,16.986326,-78.268899)"
       gradientUnits="userSpaceOnUse" />
    <clipPath
       clipPathUnits="userSpaceOnUse"
       id="clipPath2999-0-6">
      <path
         inkscape:connector-curvature="0"
         d="M 0,792 612,792 612,0 0,0 0,792 z"
         id="path3001-9-8" />
    </clipPath>
    <inkscape:path-effect
       fuse_tolerance="0"
       vertical_pattern="false"
       prop_units="false"
       tang_offset="0"
       normal_offset="0"
       spacing="0"
       scale_y_rel="false"
       prop_scale="1"
       copytype="single_stretched"
       pattern="M 0,5 C 0,2.24 2.24,0 5,0 7.76,0 10,2.24 10,5 10,7.76 7.76,10 5,10 2.24,10 0,7.76 0,5 z"
       is_visible="true"
       id="path-effect4237-4-5"
       effect="skeletal" />
    <inkscape:path-effect
       effect="skeletal"
       id="path-effect4237-4-2"
       is_visible="true"
       pattern="M 0,5 C 0,2.24 2.24,0 5,0 7.76,0 10,2.24 10,5 10,7.76 7.76,10 5,10 2.24,10 0,7.76 0,5 z"
       copytype="single_stretched"
       prop_scale="1"
       scale_y_rel="false"
       spacing="0"
       normal_offset="0"
       tang_offset="0"
       prop_units="false"
       vertical_pattern="false"
       fuse_tolerance="0" />
    <clipPath
       id="clipPath2999-0-61"
       clipPathUnits="userSpaceOnUse">
      <path
         id="path3001-9-89"
         d="M 0,792 612,792 612,0 0,0 0,792 z"
         inkscape:connector-curvature="0" />
    </clipPath>
    <radialGradient
       gradientUnits="userSpaceOnUse"
       gradientTransform="matrix(0.75988491,-0.03632001,0.13155835,2.7524547,16.986326,-78.268899)"
       r="12.650181"
       fy="46.658409"
       fx="96.306435"
       cy="46.658409"
       cx="96.306435"
       id="radialGradient3972-4-7"
       xlink:href="#linearGradient3966-2-2"
       inkscape:collect="always" />
    <clipPath
       clipPathUnits="userSpaceOnUse"
       id="clipPath2999-4-8-8">
      <path
         inkscape:connector-curvature="0"
         d="M 0,792 612,792 612,0 0,0 0,792 z"
         id="path3001-0-8-5" />
    </clipPath>
    <linearGradient
       id="linearGradient3966-2-2">
      <stop
         id="stop3968-4-21"
         offset="0"
         style="stop-color:#c0ac02;stop-opacity:1;" />
      <stop
         id="stop3970-5-6"
         offset="1"
         style="stop-color:#fdea41;stop-opacity:0;" />
    </linearGradient>
    <radialGradient
       gradientUnits="userSpaceOnUse"
       gradientTransform="matrix(0.31036379,-0.01814613,0.03701409,0.63307367,114.75293,21.468668)"
       r="6.982676"
       fy="41.784931"
       fx="169.32254"
       cy="41.784931"
       cx="169.32254"
       id="radialGradient4017-3"
       xlink:href="#linearGradient4011-40"
       inkscape:collect="always" />
    <radialGradient
       r="3.8123069"
       fy="47.693741"
       fx="165.81134"
       cy="47.693741"
       cx="165.81134"
       gradientTransform="matrix(-0.64374811,-0.18781617,-0.31213841,1.069868,293.73143,27.15595)"
       gradientUnits="userSpaceOnUse"
       id="radialGradient4007-2"
       xlink:href="#linearGradient3997-8"
       inkscape:collect="always" />
    <radialGradient
       gradientUnits="userSpaceOnUse"
       gradientTransform="matrix(0.64374811,-0.18781617,0.31213841,1.069868,43.640483,27.15595)"
       r="3.8123069"
       fy="47.693741"
       fx="165.81134"
       cy="47.693741"
       cx="165.81134"
       id="radialGradient4003-4"
       xlink:href="#linearGradient3997-8"
       inkscape:collect="always" />
    <linearGradient
       id="linearGradient3966-27">
      <stop
         style="stop-color:#c0ac02;stop-opacity:1;"
         offset="0"
         id="stop3968-6" />
      <stop
         style="stop-color:#fdea41;stop-opacity:0;"
         offset="1"
         id="stop3970-1" />
    </linearGradient>
    <clipPath
       id="clipPath2999-4-1"
       clipPathUnits="userSpaceOnUse">
      <path
         id="path3001-0-15"
         d="M 0,792 612,792 612,0 0,0 0,792 z"
         inkscape:connector-curvature="0" />
    </clipPath>
    <radialGradient
       inkscape:collect="always"
       xlink:href="#linearGradient3966-27"
       id="radialGradient3972-7"
       cx="96.306435"
       cy="46.658409"
       fx="96.306435"
       fy="46.658409"
       r="12.650181"
       gradientTransform="matrix(0.75988491,-0.03632001,0.13155835,2.7524547,16.986326,-78.268899)"
       gradientUnits="userSpaceOnUse" />
    <clipPath
       clipPathUnits="userSpaceOnUse"
       id="clipPath2999-5">
      <path
         inkscape:connector-curvature="0"
         d="M 0,792 612,792 612,0 0,0 0,792 z"
         id="path3001-1" />
    </clipPath>
    <inkscape:path-effect
       fuse_tolerance="0"
       vertical_pattern="false"
       prop_units="false"
       tang_offset="0"
       normal_offset="0"
       spacing="0"
       scale_y_rel="false"
       prop_scale="1"
       copytype="single_stretched"
       pattern="M 0,5 C 0,2.24 2.24,0 5,0 7.76,0 10,2.24 10,5 10,7.76 7.76,10 5,10 2.24,10 0,7.76 0,5 z"
       is_visible="true"
       id="path-effect4237-5"
       effect="skeletal" />
    <linearGradient
       id="linearGradient3997-8"
       inkscape:collect="always">
      <stop
         id="stop3999-82"
         offset="0"
         style="stop-color:#ffffff;stop-opacity:1;" />
      <stop
         id="stop4001-4"
         offset="1"
         style="stop-color:#ffffff;stop-opacity:0;" />
    </linearGradient>
    <linearGradient
       id="linearGradient4011-40"
       inkscape:collect="always">
      <stop
         id="stop4013-9"
         offset="0"
         style="stop-color:#ffffff;stop-opacity:1;" />
      <stop
         id="stop4015-4"
         offset="1"
         style="stop-color:#ffffff;stop-opacity:0;" />
    </linearGradient>
    <inkscape:path-effect
       effect="skeletal"
       id="path-effect4237-4-7"
       is_visible="true"
       pattern="M 0,5 C 0,2.24 2.24,0 5,0 7.76,0 10,2.24 10,5 10,7.76 7.76,10 5,10 2.24,10 0,7.76 0,5 z"
       copytype="single_stretched"
       prop_scale="1"
       scale_y_rel="false"
       spacing="0"
       normal_offset="0"
       tang_offset="0"
       prop_units="false"
       vertical_pattern="false"
       fuse_tolerance="0" />
    <clipPath
       id="clipPath2999-0-1"
       clipPathUnits="userSpaceOnUse">
      <path
         id="path3001-9-892"
         d="M 0,792 612,792 612,0 0,0 0,792 z"
         inkscape:connector-curvature="0" />
    </clipPath>
    <radialGradient
       gradientUnits="userSpaceOnUse"
       gradientTransform="matrix(0.75988491,-0.03632001,0.13155835,2.7524547,16.986326,-78.268899)"
       r="12.650181"
       fy="46.658409"
       fx="96.306435"
       cy="46.658409"
       cx="96.306435"
       id="radialGradient3972-4-6"
       xlink:href="#linearGradient3966-2-21"
       inkscape:collect="always" />
    <clipPath
       clipPathUnits="userSpaceOnUse"
       id="clipPath2999-4-8-5">
      <path
         inkscape:connector-curvature="0"
         d="M 0,792 612,792 612,0 0,0 0,792 z"
         id="path3001-0-8-7" />
    </clipPath>
    <linearGradient
       id="linearGradient3966-2-21">
      <stop
         id="stop3968-4-6"
         offset="0"
         style="stop-color:#c0ac02;stop-opacity:1;" />
      <stop
         id="stop3970-5-8"
         offset="1"
         style="stop-color:#fdea41;stop-opacity:0;" />
    </linearGradient>
    <radialGradient
       gradientUnits="userSpaceOnUse"
       gradientTransform="matrix(0.31036379,-0.01814613,0.03701409,0.63307367,114.75293,21.468668)"
       r="6.982676"
       fy="41.784931"
       fx="169.32254"
       cy="41.784931"
       cx="169.32254"
       id="radialGradient4017-2"
       xlink:href="#linearGradient4011-409"
       inkscape:collect="always" />
    <radialGradient
       r="3.8123069"
       fy="47.693741"
       fx="165.81134"
       cy="47.693741"
       cx="165.81134"
       gradientTransform="matrix(-0.64374811,-0.18781617,-0.31213841,1.069868,293.73143,27.15595)"
       gradientUnits="userSpaceOnUse"
       id="radialGradient4007-3"
       xlink:href="#linearGradient3997-82"
       inkscape:collect="always" />
    <radialGradient
       gradientUnits="userSpaceOnUse"
       gradientTransform="matrix(0.64374811,-0.18781617,0.31213841,1.069868,43.640483,27.15595)"
       r="3.8123069"
       fy="47.693741"
       fx="165.81134"
       cy="47.693741"
       cx="165.81134"
       id="radialGradient4003-2"
       xlink:href="#linearGradient3997-82"
       inkscape:collect="always" />
    <linearGradient
       id="linearGradient3966-6">
      <stop
         style="stop-color:#c0ac02;stop-opacity:1;"
         offset="0"
         id="stop3968-1" />
      <stop
         style="stop-color:#fdea41;stop-opacity:0;"
         offset="1"
         id="stop3970-4" />
    </linearGradient>
    <clipPath
       id="clipPath2999-4-2"
       clipPathUnits="userSpaceOnUse">
      <path
         id="path3001-0-7"
         d="M 0,792 612,792 612,0 0,0 0,792 z"
         inkscape:connector-curvature="0" />
    </clipPath>
    <radialGradient
       inkscape:collect="always"
       xlink:href="#linearGradient3966-6"
       id="radialGradient3972-5"
       cx="96.306435"
       cy="46.658409"
       fx="96.306435"
       fy="46.658409"
       r="12.650181"
       gradientTransform="matrix(0.75988491,-0.03632001,0.13155835,2.7524547,16.986326,-78.268899)"
       gradientUnits="userSpaceOnUse" />
    <clipPath
       clipPathUnits="userSpaceOnUse"
       id="clipPath2999-7">
      <path
         inkscape:connector-curvature="0"
         d="M 0,792 612,792 612,0 0,0 0,792 z"
         id="path3001-11" />
    </clipPath>
    <inkscape:path-effect
       fuse_tolerance="0"
       vertical_pattern="false"
       prop_units="false"
       tang_offset="0"
       normal_offset="0"
       spacing="0"
       scale_y_rel="false"
       prop_scale="1"
       copytype="single_stretched"
       pattern="M 0,5 C 0,2.24 2.24,0 5,0 7.76,0 10,2.24 10,5 10,7.76 7.76,10 5,10 2.24,10 0,7.76 0,5 z"
       is_visible="true"
       id="path-effect4237-51"
       effect="skeletal" />
    <linearGradient
       id="linearGradient3997-82"
       inkscape:collect="always">
      <stop
         id="stop3999-4"
         offset="0"
         style="stop-color:#ffffff;stop-opacity:1;" />
      <stop
         id="stop4001-5"
         offset="1"
         style="stop-color:#ffffff;stop-opacity:0;" />
    </linearGradient>
    <linearGradient
       id="linearGradient4011-409"
       inkscape:collect="always">
      <stop
         id="stop4013-4"
         offset="0"
         style="stop-color:#ffffff;stop-opacity:1;" />
      <stop
         id="stop4015-8"
         offset="1"
         style="stop-color:#ffffff;stop-opacity:0;" />
    </linearGradient>
  </defs>
  <sodipodi:namedview
     id="base"
     pagecolor="#ffffff"
     bordercolor="#666666"
     borderopacity="1.0"
     inkscape:pageopacity="0.0"
     inkscape:pageshadow="2"
     inkscape:zoom="4.8"
     inkscape:cx="-66.41184"
     inkscape:cy="38.636977"
     inkscape:document-units="px"
     inkscape:current-layer="layer1"
     showgrid="false"
     fit-margin-top="0"
     fit-margin-left="0"
     fit-margin-right="0"
     fit-margin-bottom="0"
     inkscape:window-width="1600"
     inkscape:window-height="848"
     inkscape:window-x="-8"
     inkscape:window-y="-8"
     inkscape:window-maximized="1"
     showguides="true"
     inkscape:guide-bbox="true"
     inkscape:snap-global="false">
    <sodipodi:guide
       orientation="0,1"
       position="11.31258,21.611549"
       id="guide3274" />
    <sodipodi:guide
       orientation="1,0"
       position="26.16284,26.728251"
       id="guide3960" />
  </sodipodi:namedview>
  <metadata
     id="metadata7">
    <rdf:RDF>
      <cc:Work
         rdf:about="">
        <dc:format>image/svg+xml</dc:format>
        <dc:type
           rdf:resource="http://purl.org/dc/dcmitype/StillImage" />
        <dc:title />
      </cc:Work>
    </rdf:RDF>
  </metadata>
  <g
     inkscape:label="template"
     inkscape:groupmode="layer"
     id="layer1"
     transform="translate(-360.90625,-409.84883)"
     style="display:inline">
    <path
       inkscape:connector-curvature="0"
       d="m 361.13813,452.9203 c 8.7325,-47.29375 5.3425,-42.67875 14.2675,-42.85625 l 23.44,0 c 8.92625,0.1775 5.535,-4.4375 14.265,42.85625 l -51.9725,0 z"
       style="fill:#1b2a34;stroke:#1b2a34;stroke-width:0.3125;stroke-linecap:butt;stroke-linejoin:miter;stroke-miterlimit:4;stroke-opacity:1;stroke-dasharray:none"
       id="path3093" />
    <path
       inkscape:connector-curvature="0"
       id="path3969"
       d="m 372.37209,410.10626 c -0.27345,-0.002 -0.51296,0.0144 -0.75,0.0312 -0.2517,0.016 -0.50065,0.0453 -0.71875,0.0937 -0.19414,0.0465 -0.36055,0.1033 -0.53125,0.1875 -1.79689,0.88631 -2.41272,4.12623 -4.4375,15.34375 -0.79249,4.39047 3.12451,9.636 2.34375,17.375 -0.42679,4.23039 -5.79223,6.78828 -7.125,9.875 l 52,0 c -1.33277,-3.08672 -6.69821,-5.64461 -7.125,-9.875 -0.78076,-7.739 3.13624,-12.98453 2.34375,-17.375 -2.02478,-11.21752 -2.64061,-14.45744 -4.4375,-15.34375 -0.1707,-0.0842 -0.33711,-0.14101 -0.53125,-0.1875 -0.01,-0.002 -0.0215,0.002 -0.0312,0 -0.18742,-0.0429 -0.41185,-0.0763 -0.625,-0.0937 -0.3229,-0.0234 -0.6732,-0.0397 -1.0625,-0.0312 -0.21166,0.004 -0.42118,0.0238 -0.65625,0.0312 -0.63668,0.0208 -1.3262,0.0478 -2.15625,0.0312 l -23.4375,0 c -0.83005,0.0165 -1.51957,-0.0105 -2.15625,-0.0312 -0.0104,-3.4e-4 -0.0209,3.4e-4 -0.0312,0 -0.31503,-0.01 -0.60155,-0.0291 -0.875,-0.0312 z"
       style="fill:#287f46;stroke:#231f20;stroke-width:0.3125;stroke-linecap:butt;stroke-linejoin:miter;stroke-miterlimit:4;stroke-opacity:1;stroke-dasharray:none;display:inline" />
    <path
       style="fill:#1b2a34;stroke:none"
       d="m 368.57799,421.04511 c 0.47706,8.21044 6.39318,13.89959 16.14714,9.10224 -3.26564,5.04068 -18.29411,4.88118 -16.14714,-9.10224 z"
       id="path3926"
       inkscape:connector-curvature="0"
       sodipodi:nodetypes="ccc" />
    <path
       style="fill:#f5cd2f;stroke:none"
       d="m 154.81647,67.522935 -1.93604,-0.36718 -3.6718,0.90126 -0.0334,6.275441 6.94304,0.06676 z"
       id="path4038"
       inkscape:connector-curvature="0"
       transform="translate(218.16938,378.37561)" />
    <path
       id="path4017"
       transform="translate(218.16938,378.37561)"
       d="m 186.59375,62.53125 c -0.0212,0.0096 -0.0421,0.02003 -0.0625,0.03125 -1.76131,0.248714 -10.63136,1.170285 -15.52439,1.152736 -7.01062,-0.02514 -13.46306,-0.645137 -19.44436,-0.871486 -0.49091,-0.102278 -1.02624,0.28825 -1.07873,0.786943 -0.0525,0.498692 0.38979,0.992127 0.89123,0.994307 -0.50049,0.578898 -0.24314,1.625478 0.46875,1.90625 0.14109,0.256418 0.40008,0.444775 0.6875,0.5 5.18567,0.98092 10.86535,1.588275 17.89661,2.018161 5.43005,0.331988 11.66619,0.588966 19.10339,0.638089 0.52391,-0.0077 0.9935,-0.491707 0.98532,-1.015614 -0.008,-0.523908 -0.49262,-0.993043 -1.01652,-0.984386 -7.70435,0.226944 -14.04512,0.08854 -19.5625,-0.28125 5.81668,0.241627 11.61339,0.344185 17.46875,-0.09375 0.67657,0.02928 1.30158,-0.618351 1.24828,-1.29345 -0.0533,-0.675099 -0.77219,-1.216631 -1.43578,-1.08155 -6.41517,0.479803 -12.83403,0.310867 -19.34375,0 6.30704,0.0224 12.54694,-0.125136 18.8125,-0.59375 0.47451,0 0.90625,-0.431739 0.90625,-0.90625 0,-0.474511 -0.43174,-0.90625 -0.90625,-0.90625 -0.0312,-0.0016 -0.0625,-0.0016 -0.0937,0 z"
       style="font-size:medium;font-style:normal;font-variant:normal;font-weight:normal;font-stretch:normal;text-indent:0;text-align:start;text-decoration:none;line-height:normal;letter-spacing:normal;word-spacing:normal;text-transform:none;direction:ltr;block-progression:tb;writing-mode:lr-tb;text-anchor:start;baseline-shift:baseline;color:#000000;fill:#f5cd2f;fill-opacity:1;stroke:#1b2a34;stroke-width:0.89999998;stroke-miterlimit:4;stroke-dasharray:none;marker:none;visibility:visible;display:inline;overflow:visible;enable-background:accumulate;font-family:Sans;-inkscape-font-specification:Sans"
       inkscape:connector-curvature="0"
       sodipodi:nodetypes="ccscscccscscccscccsccc" />
    <path
       sodipodi:type="star"
       style="fill:#1b2a34;fill-opacity:1;stroke:#1b2a34;stroke-width:0.5;stroke-linecap:round;stroke-linejoin:round;stroke-miterlimit:4;stroke-opacity:1;stroke-dasharray:none;stroke-dashoffset:0"
       id="path3995"
       sodipodi:sides="3"
       sodipodi:cx="133.22368"
       sodipodi:cy="38.429276"
       sodipodi:r1="7.0742807"
       sodipodi:r2="3.5371404"
       sodipodi:arg1="1.5475447"
       sodipodi:arg2="2.5947423"
       inkscape:flatsided="false"
       inkscape:rounded="0"
       inkscape:randomized="0"
       d="m 133.38815,45.501644 -3.18578,-5.233057 -3.18578,-5.233057 6.12485,-0.142439 6.12485,-0.142438 -2.93907,5.375496 z"
       transform="matrix(2.084915,0.04950763,-0.0589019,1.7523914,111.5442,342.9069)"
       inkscape:transform-center-x="-0.37726621"
       inkscape:transform-center-y="1.2053906" />
    <path
       sodipodi:type="arc"
       style="fill:#1b2a34;fill-opacity:1;stroke:none"
       id="path3924"
       sodipodi:cx="168.88246"
       sodipodi:cy="62.965538"
       sodipodi:rx="0.7385999"
       sodipodi:ry="3.1791906"
       d="m 169.62106,62.965538 c 0,1.755819 -0.33068,3.179191 -0.7386,3.179191 -0.40792,0 -0.7386,-1.423372 -0.7386,-3.179191 0,-1.755818 0.33068,-3.179191 0.7386,-3.179191 0.40792,0 0.7386,1.423373 0.7386,3.179191 z"
       transform="matrix(0.73913044,0,0,1,262.29821,378.37561)" />
    <path
       style="fill:none;stroke:#1b2a34;stroke-width:1px;stroke-linecap:round;stroke-linejoin:miter;stroke-opacity:1"
       d="m 161.26442,57.618366 c -1.37075,1.25956 -2.48664,2.739993 -2.11552,5.50917"
       id="path3218"
       inkscape:connector-curvature="0"
       transform="translate(218.16938,378.37561)"
       sodipodi:nodetypes="cc" />
    <path
       sodipodi:nodetypes="ccc"
       inkscape:connector-curvature="0"
       id="path4040"
       d="m 406.22457,421.04511 c -0.47706,8.21044 -6.39318,13.89959 -16.14714,9.10224 3.26564,5.04068 18.29411,4.88118 16.14714,-9.10224 z"
       style="fill:#1b2a34;stroke:none" />
    <path
       style="fill:#fdea41;fill-opacity:1;display:inline"
       d="m 388.17123,426.20586 0.95714,-1.27199 -0.60286,-1.30235 c -0.36796,-0.79491 -0.52682,-1.35775 -0.40771,-1.44452 0.11912,-0.0868 0.65987,0.0412 1.38788,0.32848 l 1.19273,0.47066 0.38647,-0.46301 c 0.35002,-0.41933 0.3589,-0.52974 0.0942,-1.17062 -0.16077,-0.38921 -0.2923,-0.76599 -0.2923,-0.83731 0,-0.2186 0.77854,-0.14385 1.05812,0.10159 0.37808,0.33191 0.49151,0.29502 0.93413,-0.30377 l 0.39548,-0.53504 -0.55898,-0.53394 c -0.8092,-0.77294 -0.73698,-0.9176 0.41102,-0.82333 0.90969,0.0747 0.99519,0.0495 1.37477,-0.40394 0.52742,-0.63018 0.51916,-0.66446 -0.22853,-0.94615 -0.98506,-0.37112 -0.80787,-0.65589 0.48112,-0.77322 1.01738,-0.0926 1.15498,-0.15341 1.55687,-0.68797 l 0.44088,-0.58639 -1.02782,-0.0993 c -0.68546,-0.0662 -1.02781,-0.17262 -1.02781,-0.31936 0,-0.19974 0.39245,-0.31366 2.13024,-0.6184 0.40728,-0.0714 0.71406,-0.34791 1.22717,-1.10599 0.37627,-0.55592 0.64782,-1.03721 0.60346,-1.06952 -0.0444,-0.0323 -1.31083,0.12838 -2.81436,0.35713 l -2.7337,0.41591 -1.98147,1.35703 c -1.08981,0.74637 -2.10174,1.35703 -2.24873,1.35703 -0.16784,0 -0.40345,-0.5109 -0.63343,-1.37355 l -0.36619,-1.37354 -0.73981,-0.10113 c -0.90935,-0.12428 -0.99026,-0.0728 -0.67577,0.43009 0.21139,0.33801 0.16069,0.54706 -0.34127,1.40756 -0.32424,0.55581 -0.71448,1.01057 -0.8672,1.01057 -0.15273,0 -1.16218,-0.61109 -2.24322,-1.35798 l -1.96555,-1.35797 -2.73369,-0.41496 c -1.50353,-0.22824 -2.77,-0.38852 -2.81436,-0.35619 -0.0444,0.0323 0.22719,0.5136 0.60346,1.06952 0.51309,0.75808 0.81987,1.03457 1.22717,1.10599 1.73779,0.30474 2.13023,0.41866 2.13023,0.6184 0,0.14674 -0.34234,0.25311 -1.02781,0.31936 l -1.02782,0.0993 0.44087,0.58639 c 0.40191,0.53456 0.5395,0.59537 1.55688,0.68797 1.28898,0.11733 1.46618,0.4021 0.48113,0.77322 -0.74768,0.28169 -0.75597,0.31597 -0.22853,0.94615 0.37957,0.45352 0.46508,0.47864 1.37476,0.40394 1.14801,-0.0943 1.22024,0.0504 0.41104,0.82333 l -0.559,0.53394 0.39264,0.53117 c 0.37189,0.50311 0.41777,0.51916 0.86897,0.30376 0.50694,-0.24199 1.12764,-0.30372 1.12383,-0.11176 -9e-4,0.0636 -0.14283,0.45314 -0.31459,0.86565 -0.29306,0.70374 -0.28639,0.77653 0.10804,1.18009 l 0.42035,0.43009 1.18115,-0.46607 c 0.72092,-0.28449 1.25717,-0.4107 1.37628,-0.32391 0.11911,0.0868 -0.0409,0.65089 -0.41061,1.44779 l -0.60576,1.30563 0.94182,1.26872 c 0.51799,0.6978 1.0115,1.26871 1.09665,1.26871 0.0851,0 0.58554,-0.57239 1.11197,-1.27199 z"
       id="path3066"
       inkscape:connector-curvature="0"
       sodipodi:nodetypes="scssscssssscsssssscsssscscssscssssscscsssscsssssscsscsscssscsss" />
    <path
       sodipodi:nodetypes="cc"
       inkscape:connector-curvature="0"
       id="path4042"
       d="m 395.33421,435.99398 c 1.37075,1.25956 2.48664,2.73999 2.11552,5.50917"
       style="fill:none;stroke:#1b2a34;stroke-width:1px;stroke-linecap:round;stroke-linejoin:miter;stroke-opacity:1" />
    <path
       style="font-size:medium;font-style:normal;font-variant:normal;font-weight:normal;font-stretch:normal;text-indent:0;text-align:start;text-decoration:none;line-height:normal;letter-spacing:normal;word-spacing:normal;text-transform:none;direction:ltr;block-progression:tb;writing-mode:lr-tb;text-anchor:start;baseline-shift:baseline;color:#000000;fill:#f5cd2f;fill-opacity:1;stroke:none;stroke-width:1.79999995;marker:none;visibility:visible;display:inline;overflow:visible;enable-background:accumulate;font-family:Sans;-inkscape-font-specification:Sans"
       d="m 186.59375,62.53125 c -0.0212,0.0096 -0.0421,0.02003 -0.0625,0.03125 -5.39226,0.471435 -10.70716,1.023636 -16.21052,1.033164 -6.10691,0.01057 -12.41937,-0.558707 -18.75823,-0.751914 -0.49091,-0.102278 -1.02624,0.28825 -1.07873,0.786943 -0.0525,0.498692 0.38979,0.992127 0.89123,0.994307 -0.50049,0.578898 -0.24314,1.625478 0.46875,1.90625 0.14109,0.256418 0.40008,0.444775 0.6875,0.5 5.14016,1.124273 10.7657,1.635341 17.7118,2.082492 5.47328,0.35234 10.84975,0.795322 19.2882,0.573758 0.52391,-0.0077 0.9935,-0.491707 0.98532,-1.015614 -0.008,-0.523908 -0.49262,-0.802058 -1.01652,-0.793401 -10.11077,1.067281 -14.04512,-0.102445 -19.5625,-0.472235 5.81668,0.241627 11.61339,0.344185 17.46875,-0.09375 0.67657,0.02928 1.30158,-0.618351 1.24828,-1.29345 -0.0533,-0.675099 -0.77219,-1.140237 -1.43578,-1.005156 -6.41517,0.479803 -12.83403,0.960218 -19.34375,-0.07639 6.30704,0.0224 12.54694,0.295032 18.73611,-0.784735 0.47451,0 0.86805,-0.431739 0.86805,-0.90625 0,-0.474511 -0.31715,-0.715265 -0.79166,-0.715265 -0.0312,-0.0016 -0.0625,-0.0016 -0.0937,0 z"
       transform="translate(218.16938,378.37561)"
       id="path3997"
       inkscape:connector-curvature="0"
       sodipodi:nodetypes="ccscscccscscccscccsccc" />
    <path
       style="font-size:medium;font-style:normal;font-variant:normal;font-weight:normal;font-stretch:normal;text-indent:0;text-align:start;text-decoration:none;line-height:normal;letter-spacing:normal;word-spacing:normal;text-transform:none;direction:ltr;block-progression:tb;writing-mode:lr-tb;text-anchor:start;baseline-shift:baseline;color:#000000;fill:#1b2a34;fill-opacity:1;stroke:none;stroke-width:0.60000002;marker:none;visibility:visible;display:inline;overflow:visible;enable-background:accumulate;font-family:Sans;-inkscape-font-specification:Sans"
       d="m 373.54438,443.37561 c -0.28216,0.0412 -0.28216,0.5525 0,0.59375 6.1657,1.24202 12.59954,1.19942 19.03125,1.0625 0.51417,-0.0369 0.7508,-0.11834 0.0402,-0.30783 -6.42633,-0.19761 -12.86328,-0.32535 -18.94648,-1.31717 -0.0388,-0.0192 -0.0817,-0.03 -0.125,-0.0312 z"
       id="path4019"
       inkscape:connector-curvature="0"
       sodipodi:nodetypes="ccccccc" />
    <path
       style="fill:none;stroke:#1b2a34;stroke-width:0.69999999;stroke-linecap:butt;stroke-linejoin:miter;stroke-miterlimit:4;stroke-opacity:1;stroke-dasharray:none"
       d="m 151.67875,67.356035 0.70098,7.043181"
       id="path4034"
       inkscape:connector-curvature="0"
       transform="translate(218.16938,378.37561)"
       sodipodi:nodetypes="cc" />
    <path
       style="fill:none;stroke:#1b2a34;stroke-width:0.69999999;stroke-linecap:butt;stroke-linejoin:miter;stroke-miterlimit:4;stroke-opacity:1;stroke-dasharray:none"
       d="m 149.50905,66.388015 -0.23366,8.077961"
       id="path4032"
       inkscape:connector-curvature="0"
       transform="translate(218.16938,378.37561)"
       sodipodi:nodetypes="cc" />
    <g
       id="g3917"
       transform="translate(228.05645,380.35302)">
      <path
         style="fill:#f5cd2f;stroke:#1b2a34;stroke-width:1.25;stroke-miterlimit:4;stroke-dasharray:none"
         d="m 139.03293,57.334932 0.0106,5.691352 1.18069,1.101097 c -0.72185,0.02619 -0.94824,0.171004 -0.93643,0.416992 0.009,0.186327 -0.0898,0.767033 0.0781,1.03727 0.21923,0.352841 0.67004,0.560236 0.95504,0.730204 0.008,0.0046 0.0201,0.01039 0.0275,0.01488 0.29753,0.14695 0.71822,0.408039 1.13356,0.400423 0.31812,-0.0058 0.74994,-0.408012 0.91122,-0.501709 0.21295,-0.123716 0.20775,-0.391549 -0.16284,-1.012059 l 1.56748,0.386571 4.77119,-3.102809 -3.70982,-1.155393 -1.48811,1.042257 c 0.14229,-0.664047 1.09353,-1.516823 0.16093,-1.938377 -0.0117,-0.0053 -0.0152,-0.0098 -0.0275,-0.01488 -0.30836,-0.198509 -0.51692,-0.171549 -0.6984,-0.02272 -0.008,0.0069 -0.007,0.02008 -0.0149,0.02748 l -0.51637,-0.03078 0.10663,0.590747 c -0.13024,0.234993 -0.25414,0.471952 -0.412,0.629809 l 0.0591,-1.815845 -2.99573,-2.474518 z"
         id="path3915"
         inkscape:connector-curvature="0" />
      <path
         inkscape:connector-curvature="0"
         id="path3139"
         d="m 139.03293,57.334932 0.0106,5.691352 1.18069,1.101097 c -0.72185,0.02619 -0.94824,0.171004 -0.93643,0.416992 0.009,0.186327 -0.0898,0.767033 0.0781,1.03727 0.21923,0.352841 0.67004,0.560236 0.95504,0.730204 0.008,0.0046 0.0201,0.01039 0.0275,0.01488 0.29753,0.14695 0.71822,0.408039 1.13356,0.400423 0.31812,-0.0058 0.74994,-0.408012 0.91122,-0.501709 0.21295,-0.123716 0.20775,-0.391549 -0.16284,-1.012059 l 1.56748,0.386571 4.77119,-3.102809 -3.70982,-1.155393 -1.48811,1.042257 c 0.14229,-0.664047 1.09353,-1.516823 0.16093,-1.938377 -0.0117,-0.0053 -0.0152,-0.0098 -0.0275,-0.01488 -0.30836,-0.198509 -0.51692,-0.171549 -0.6984,-0.02272 -0.008,0.0069 -0.007,0.02008 -0.0149,0.02748 l -0.51637,-0.03078 0.10663,0.590747 c -0.13024,0.234993 -0.25414,0.471952 -0.412,0.629809 l 0.0591,-1.815845 -2.99573,-2.474518 z"
         style="fill:#f5cd2f;stroke:none" />
    </g>
    <path
       style="fill:none;stroke:#1b2a34;stroke-width:0.69999999;stroke-linecap:butt;stroke-linejoin:miter;stroke-miterlimit:4;stroke-opacity:1;stroke-dasharray:none"
       d="m 154.91661,67.723215 1.10154,6.709381"
       id="path4036"
       inkscape:connector-curvature="0"
       transform="translate(218.16938,378.37561)" />
  </g>
</svg>
