<?xml version="1.0" encoding="UTF-8" standalone="no"?>
<!-- Created with Inkscape (http://www.inkscape.org/) -->

<svg
   xmlns:dc="http://purl.org/dc/elements/1.1/"
   xmlns:cc="http://creativecommons.org/ns#"
   xmlns:rdf="http://www.w3.org/1999/02/22-rdf-syntax-ns#"
   xmlns:svg="http://www.w3.org/2000/svg"
   xmlns="http://www.w3.org/2000/svg"
   xmlns:xlink="http://www.w3.org/1999/xlink"
   xmlns:sodipodi="http://sodipodi.sourceforge.net/DTD/sodipodi-0.dtd"
   xmlns:inkscape="http://www.inkscape.org/namespaces/inkscape"
   width="113.125"
   height="70.78125"
   id="svg2"
   version="1.1"
   inkscape:version="0.48.2 r9819"
   sodipodi:docname="Spiderman.black.tlg.ComicCon.svg"
   inkscape:export-filename="G:\GitHub\minifig-svg-decals\figures\super heroes\Spiderman.black.tlg.ComicCon.png"
   inkscape:export-xdpi="1718"
   inkscape:export-ydpi="1718">
  <defs
     id="defs4">
    <linearGradient
       inkscape:collect="always"
       id="linearGradient4011">
      <stop
         style="stop-color:#ffffff;stop-opacity:1;"
         offset="0"
         id="stop4013" />
      <stop
         style="stop-color:#ffffff;stop-opacity:0;"
         offset="1"
         id="stop4015" />
    </linearGradient>
    <linearGradient
       inkscape:collect="always"
       id="linearGradient3997">
      <stop
         style="stop-color:#ffffff;stop-opacity:1;"
         offset="0"
         id="stop3999" />
      <stop
         style="stop-color:#ffffff;stop-opacity:0;"
         offset="1"
         id="stop4001" />
    </linearGradient>
    <inkscape:path-effect
       effect="skeletal"
       id="path-effect4237"
       is_visible="true"
       pattern="M 0,5 C 0,2.24 2.24,0 5,0 7.76,0 10,2.24 10,5 10,7.76 7.76,10 5,10 2.24,10 0,7.76 0,5 z"
       copytype="single_stretched"
       prop_scale="1"
       scale_y_rel="false"
       spacing="0"
       normal_offset="0"
       tang_offset="0"
       prop_units="false"
       vertical_pattern="false"
       fuse_tolerance="0" />
    <clipPath
       id="clipPath2999"
       clipPathUnits="userSpaceOnUse">
      <path
         id="path3001"
         d="M 0,792 612,792 612,0 0,0 0,792 z"
         inkscape:connector-curvature="0" />
    </clipPath>
    <radialGradient
       gradientUnits="userSpaceOnUse"
       gradientTransform="matrix(0.75988491,-0.03632001,0.13155835,2.7524547,16.986326,-78.268899)"
       r="12.650181"
       fy="46.658409"
       fx="96.306435"
       cy="46.658409"
       cx="96.306435"
       id="radialGradient3972"
       xlink:href="#linearGradient3966"
       inkscape:collect="always" />
    <clipPath
       clipPathUnits="userSpaceOnUse"
       id="clipPath2999-4">
      <path
         inkscape:connector-curvature="0"
         d="M 0,792 612,792 612,0 0,0 0,792 z"
         id="path3001-0" />
    </clipPath>
    <linearGradient
       id="linearGradient3966">
      <stop
         id="stop3968"
         offset="0"
         style="stop-color:#c0ac02;stop-opacity:1;" />
      <stop
         id="stop3970"
         offset="1"
         style="stop-color:#fdea41;stop-opacity:0;" />
    </linearGradient>
    <radialGradient
       inkscape:collect="always"
       xlink:href="#linearGradient3997"
       id="radialGradient4003"
       cx="165.81134"
       cy="47.693741"
       fx="165.81134"
       fy="47.693741"
       r="3.8123069"
       gradientTransform="matrix(0.64374811,-0.18781617,0.31213841,1.069868,43.640483,27.15595)"
       gradientUnits="userSpaceOnUse" />
    <radialGradient
       inkscape:collect="always"
       xlink:href="#linearGradient3997"
       id="radialGradient4007"
       gradientUnits="userSpaceOnUse"
       gradientTransform="matrix(-0.64374811,-0.18781617,-0.31213841,1.069868,293.73143,27.15595)"
       cx="165.81134"
       cy="47.693741"
       fx="165.81134"
       fy="47.693741"
       r="3.8123069" />
    <radialGradient
       inkscape:collect="always"
       xlink:href="#linearGradient4011"
       id="radialGradient4017"
       cx="169.32254"
       cy="41.784931"
       fx="169.32254"
       fy="41.784931"
       r="6.982676"
       gradientTransform="matrix(0.31036379,-0.01814613,0.03701409,0.63307367,114.75293,21.468668)"
       gradientUnits="userSpaceOnUse" />
    <linearGradient
       id="linearGradient3966-2">
      <stop
         style="stop-color:#c0ac02;stop-opacity:1;"
         offset="0"
         id="stop3968-4" />
      <stop
         style="stop-color:#fdea41;stop-opacity:0;"
         offset="1"
         id="stop3970-5" />
    </linearGradient>
    <clipPath
       id="clipPath2999-4-8"
       clipPathUnits="userSpaceOnUse">
      <path
         id="path3001-0-8"
         d="M 0,792 612,792 612,0 0,0 0,792 z"
         inkscape:connector-curvature="0" />
    </clipPath>
    <radialGradient
       inkscape:collect="always"
       xlink:href="#linearGradient3966-2"
       id="radialGradient3972-4"
       cx="96.306435"
       cy="46.658409"
       fx="96.306435"
       fy="46.658409"
       r="12.650181"
       gradientTransform="matrix(0.75988491,-0.03632001,0.13155835,2.7524547,16.986326,-78.268899)"
       gradientUnits="userSpaceOnUse" />
    <clipPath
       clipPathUnits="userSpaceOnUse"
       id="clipPath2999-0">
      <path
         inkscape:connector-curvature="0"
         d="M 0,792 612,792 612,0 0,0 0,792 z"
         id="path3001-9" />
    </clipPath>
    <inkscape:path-effect
       fuse_tolerance="0"
       vertical_pattern="false"
       prop_units="false"
       tang_offset="0"
       normal_offset="0"
       spacing="0"
       scale_y_rel="false"
       prop_scale="1"
       copytype="single_stretched"
       pattern="M 0,5 C 0,2.24 2.24,0 5,0 7.76,0 10,2.24 10,5 10,7.76 7.76,10 5,10 2.24,10 0,7.76 0,5 z"
       is_visible="true"
       id="path-effect4237-4"
       effect="skeletal" />
    <inkscape:path-effect
       effect="skeletal"
       id="path-effect4237-4-5"
       is_visible="true"
       pattern="M 0,5 C 0,2.24 2.24,0 5,0 7.76,0 10,2.24 10,5 10,7.76 7.76,10 5,10 2.24,10 0,7.76 0,5 z"
       copytype="single_stretched"
       prop_scale="1"
       scale_y_rel="false"
       spacing="0"
       normal_offset="0"
       tang_offset="0"
       prop_units="false"
       vertical_pattern="false"
       fuse_tolerance="0" />
    <clipPath
       id="clipPath2999-0-6"
       clipPathUnits="userSpaceOnUse">
      <path
         id="path3001-9-8"
         d="M 0,792 612,792 612,0 0,0 0,792 z"
         inkscape:connector-curvature="0" />
    </clipPath>
    <radialGradient
       gradientUnits="userSpaceOnUse"
       gradientTransform="matrix(0.75988491,-0.03632001,0.13155835,2.7524547,16.986326,-78.268899)"
       r="12.650181"
       fy="46.658409"
       fx="96.306435"
       cy="46.658409"
       cx="96.306435"
       id="radialGradient3972-4-1"
       xlink:href="#linearGradient3966-2-4"
       inkscape:collect="always" />
    <clipPath
       clipPathUnits="userSpaceOnUse"
       id="clipPath2999-4-8-2">
      <path
         inkscape:connector-curvature="0"
         d="M 0,792 612,792 612,0 0,0 0,792 z"
         id="path3001-0-8-2" />
    </clipPath>
    <linearGradient
       id="linearGradient3966-2-4">
      <stop
         id="stop3968-4-2"
         offset="0"
         style="stop-color:#c0ac02;stop-opacity:1;" />
      <stop
         id="stop3970-5-3"
         offset="1"
         style="stop-color:#fdea41;stop-opacity:0;" />
    </linearGradient>
    <radialGradient
       gradientUnits="userSpaceOnUse"
       gradientTransform="matrix(0.31036379,-0.01814613,0.03701409,0.63307367,114.75293,21.468668)"
       r="6.982676"
       fy="41.784931"
       fx="169.32254"
       cy="41.784931"
       cx="169.32254"
       id="radialGradient4017-1"
       xlink:href="#linearGradient4011-4"
       inkscape:collect="always" />
    <radialGradient
       r="3.8123069"
       fy="47.693741"
       fx="165.81134"
       cy="47.693741"
       cx="165.81134"
       gradientTransform="matrix(-0.64374811,-0.18781617,-0.31213841,1.069868,293.73143,27.15595)"
       gradientUnits="userSpaceOnUse"
       id="radialGradient4007-6"
       xlink:href="#linearGradient3997-4"
       inkscape:collect="always" />
    <radialGradient
       gradientUnits="userSpaceOnUse"
       gradientTransform="matrix(0.64374811,-0.18781617,0.31213841,1.069868,43.640483,27.15595)"
       r="3.8123069"
       fy="47.693741"
       fx="165.81134"
       cy="47.693741"
       cx="165.81134"
       id="radialGradient4003-7"
       xlink:href="#linearGradient3997-4"
       inkscape:collect="always" />
    <linearGradient
       id="linearGradient3966-1">
      <stop
         style="stop-color:#c0ac02;stop-opacity:1;"
         offset="0"
         id="stop3968-5" />
      <stop
         style="stop-color:#fdea41;stop-opacity:0;"
         offset="1"
         id="stop3970-2" />
    </linearGradient>
    <clipPath
       id="clipPath2999-4-7"
       clipPathUnits="userSpaceOnUse">
      <path
         id="path3001-0-1"
         d="M 0,792 612,792 612,0 0,0 0,792 z"
         inkscape:connector-curvature="0" />
    </clipPath>
    <radialGradient
       inkscape:collect="always"
       xlink:href="#linearGradient3966-1"
       id="radialGradient3972-1"
       cx="96.306435"
       cy="46.658409"
       fx="96.306435"
       fy="46.658409"
       r="12.650181"
       gradientTransform="matrix(0.75988491,-0.03632001,0.13155835,2.7524547,16.986326,-78.268899)"
       gradientUnits="userSpaceOnUse" />
    <clipPath
       clipPathUnits="userSpaceOnUse"
       id="clipPath2999-45">
      <path
         inkscape:connector-curvature="0"
         d="M 0,792 612,792 612,0 0,0 0,792 z"
         id="path3001-5" />
    </clipPath>
    <inkscape:path-effect
       fuse_tolerance="0"
       vertical_pattern="false"
       prop_units="false"
       tang_offset="0"
       normal_offset="0"
       spacing="0"
       scale_y_rel="false"
       prop_scale="1"
       copytype="single_stretched"
       pattern="M 0,5 C 0,2.24 2.24,0 5,0 7.76,0 10,2.24 10,5 10,7.76 7.76,10 5,10 2.24,10 0,7.76 0,5 z"
       is_visible="true"
       id="path-effect4237-2"
       effect="skeletal" />
    <linearGradient
       id="linearGradient3997-4"
       inkscape:collect="always">
      <stop
         id="stop3999-8"
         offset="0"
         style="stop-color:#ffffff;stop-opacity:1;" />
      <stop
         id="stop4001-8"
         offset="1"
         style="stop-color:#ffffff;stop-opacity:0;" />
    </linearGradient>
    <linearGradient
       id="linearGradient4011-4"
       inkscape:collect="always">
      <stop
         id="stop4013-0"
         offset="0"
         style="stop-color:#ffffff;stop-opacity:1;" />
      <stop
         id="stop4015-9"
         offset="1"
         style="stop-color:#ffffff;stop-opacity:0;" />
    </linearGradient>
    <mask
       id="mask4064"
       maskUnits="userSpaceOnUse">
      <path
         inkscape:connector-curvature="0"
         d="m 195.68193,74.54469 c 8.7325,-47.29375 5.3425,-42.67875 14.2675,-42.85625 l 23.44,0 c 8.92625,0.1775 5.535,-4.4375 14.265,42.85625 l -51.9725,0 z"
         style="fill:#ffffff;fill-opacity:1;stroke:none;display:inline"
         id="path4066" />
    </mask>
    <inkscape:path-effect
       effect="skeletal"
       id="path-effect4237-4-4"
       is_visible="true"
       pattern="M 0,5 C 0,2.24 2.24,0 5,0 7.76,0 10,2.24 10,5 10,7.76 7.76,10 5,10 2.24,10 0,7.76 0,5 z"
       copytype="single_stretched"
       prop_scale="1"
       scale_y_rel="false"
       spacing="0"
       normal_offset="0"
       tang_offset="0"
       prop_units="false"
       vertical_pattern="false"
       fuse_tolerance="0" />
    <clipPath
       id="clipPath2999-0-0"
       clipPathUnits="userSpaceOnUse">
      <path
         id="path3001-9-2"
         d="M 0,792 612,792 612,0 0,0 0,792 z"
         inkscape:connector-curvature="0" />
    </clipPath>
    <radialGradient
       gradientUnits="userSpaceOnUse"
       gradientTransform="matrix(0.75988491,-0.03632001,0.13155835,2.7524547,16.986326,-78.268899)"
       r="12.650181"
       fy="46.658409"
       fx="96.306435"
       cy="46.658409"
       cx="96.306435"
       id="radialGradient3972-4-6"
       xlink:href="#linearGradient3966-2-8"
       inkscape:collect="always" />
    <clipPath
       clipPathUnits="userSpaceOnUse"
       id="clipPath2999-4-8-0">
      <path
         inkscape:connector-curvature="0"
         d="M 0,792 612,792 612,0 0,0 0,792 z"
         id="path3001-0-8-28" />
    </clipPath>
    <linearGradient
       id="linearGradient3966-2-8">
      <stop
         id="stop3968-4-6"
         offset="0"
         style="stop-color:#c0ac02;stop-opacity:1;" />
      <stop
         id="stop3970-5-5"
         offset="1"
         style="stop-color:#fdea41;stop-opacity:0;" />
    </linearGradient>
    <radialGradient
       gradientUnits="userSpaceOnUse"
       gradientTransform="matrix(0.31036379,-0.01814613,0.03701409,0.63307367,114.75293,21.468668)"
       r="6.982676"
       fy="41.784931"
       fx="169.32254"
       cy="41.784931"
       cx="169.32254"
       id="radialGradient4017-19"
       xlink:href="#linearGradient4011-7"
       inkscape:collect="always" />
    <radialGradient
       r="3.8123069"
       fy="47.693741"
       fx="165.81134"
       cy="47.693741"
       cx="165.81134"
       gradientTransform="matrix(-0.64374811,-0.18781617,-0.31213841,1.069868,293.73143,27.15595)"
       gradientUnits="userSpaceOnUse"
       id="radialGradient4007-3"
       xlink:href="#linearGradient3997-43"
       inkscape:collect="always" />
    <radialGradient
       gradientUnits="userSpaceOnUse"
       gradientTransform="matrix(0.64374811,-0.18781617,0.31213841,1.069868,43.640483,27.15595)"
       r="3.8123069"
       fy="47.693741"
       fx="165.81134"
       cy="47.693741"
       cx="165.81134"
       id="radialGradient4003-79"
       xlink:href="#linearGradient3997-43"
       inkscape:collect="always" />
    <linearGradient
       id="linearGradient3966-4">
      <stop
         style="stop-color:#c0ac02;stop-opacity:1;"
         offset="0"
         id="stop3968-2" />
      <stop
         style="stop-color:#fdea41;stop-opacity:0;"
         offset="1"
         id="stop3970-7" />
    </linearGradient>
    <clipPath
       id="clipPath2999-4-3"
       clipPathUnits="userSpaceOnUse">
      <path
         id="path3001-0-87"
         d="M 0,792 612,792 612,0 0,0 0,792 z"
         inkscape:connector-curvature="0" />
    </clipPath>
    <radialGradient
       inkscape:collect="always"
       xlink:href="#linearGradient3966-4"
       id="radialGradient3972-11"
       cx="96.306435"
       cy="46.658409"
       fx="96.306435"
       fy="46.658409"
       r="12.650181"
       gradientTransform="matrix(0.75988491,-0.03632001,0.13155835,2.7524547,16.986326,-78.268899)"
       gradientUnits="userSpaceOnUse" />
    <clipPath
       clipPathUnits="userSpaceOnUse"
       id="clipPath2999-3">
      <path
         inkscape:connector-curvature="0"
         d="M 0,792 612,792 612,0 0,0 0,792 z"
         id="path3001-4" />
    </clipPath>
    <inkscape:path-effect
       fuse_tolerance="0"
       vertical_pattern="false"
       prop_units="false"
       tang_offset="0"
       normal_offset="0"
       spacing="0"
       scale_y_rel="false"
       prop_scale="1"
       copytype="single_stretched"
       pattern="M 0,5 C 0,2.24 2.24,0 5,0 7.76,0 10,2.24 10,5 10,7.76 7.76,10 5,10 2.24,10 0,7.76 0,5 z"
       is_visible="true"
       id="path-effect4237-3"
       effect="skeletal" />
    <linearGradient
       id="linearGradient3997-43"
       inkscape:collect="always">
      <stop
         id="stop3999-1"
         offset="0"
         style="stop-color:#ffffff;stop-opacity:1;" />
      <stop
         id="stop4001-2"
         offset="1"
         style="stop-color:#ffffff;stop-opacity:0;" />
    </linearGradient>
    <linearGradient
       id="linearGradient4011-7"
       inkscape:collect="always">
      <stop
         id="stop4013-9"
         offset="0"
         style="stop-color:#ffffff;stop-opacity:1;" />
      <stop
         id="stop4015-5"
         offset="1"
         style="stop-color:#ffffff;stop-opacity:0;" />
    </linearGradient>
  </defs>
  <sodipodi:namedview
     id="base"
     pagecolor="#ffffff"
     bordercolor="#666666"
     borderopacity="1.0"
     inkscape:pageopacity="0.0"
     inkscape:pageshadow="2"
     inkscape:zoom="2.3156645"
     inkscape:cx="58.60322"
     inkscape:cy="11.426057"
     inkscape:document-units="px"
     inkscape:current-layer="layer6"
     showgrid="false"
     fit-margin-top="0"
     fit-margin-left="0"
     fit-margin-right="0"
     fit-margin-bottom="0"
     inkscape:window-width="1280"
     inkscape:window-height="968"
     inkscape:window-x="-4"
     inkscape:window-y="-4"
     inkscape:window-maximized="1"
     showguides="true"
     inkscape:guide-bbox="true"
     inkscape:snap-global="false">
    <sodipodi:guide
       orientation="0,1"
       position="71.3932,21.518409"
       id="guide3274" />
    <sodipodi:guide
       orientation="1,0"
       position="86.22367,39.75012"
       id="guide3960" />
  </sodipodi:namedview>
  <metadata
     id="metadata7">
    <rdf:RDF>
      <cc:Work
         rdf:about="">
        <dc:format>image/svg+xml</dc:format>
        <dc:type
           rdf:resource="http://purl.org/dc/dcmitype/StillImage" />
        <dc:title></dc:title>
      </cc:Work>
    </rdf:RDF>
  </metadata>
  <g
     inkscape:groupmode="layer"
     id="layer3"
     inkscape:label="spidey"
     style="display:inline"
     transform="translate(-82.65625,-3.90625)">
    <g
       inkscape:groupmode="layer"
       id="layer6"
       inkscape:label="bg"
       style="display:inline">
      <path
         transform="translate(-218.16938,-378.37561)"
         id="path4068"
         style="fill:#1b2a34;stroke:#1b2a34;stroke-width:0.3125;stroke-linecap:butt;stroke-linejoin:miter;stroke-miterlimit:4;stroke-opacity:1;stroke-dasharray:none;display:inline"
         d="m 361.13813,452.9203 c 8.7325,-47.29375 5.3425,-42.67875 14.2675,-42.85625 l 23.44,0 c 8.92625,0.1775 5.535,-4.4375 14.265,42.85625 l -51.9725,0 z"
         inkscape:connector-curvature="0" />
      <path
         id="path4092"
         style="fill:#1b2a34;stroke:#1b2a34;stroke-width:0.3125;stroke-linecap:butt;stroke-linejoin:miter;stroke-miterlimit:4;stroke-opacity:1;stroke-dasharray:none;display:inline"
         d="m 195.61006,25.447513 -112.800005,0 0,-21.3912496 112.800005,0 0,21.3912496 z"
         inkscape:connector-curvature="0" />
      <path
         inkscape:connector-curvature="0"
         d="m 87.147215,74.54469 c 8.7325,-47.29375 5.3425,-42.67875 14.267505,-42.85625 l 23.44,0 c 8.92625,0.1775 5.535,-4.4375 14.265,42.85625 l -51.972505,0 z"
         style="fill:#1b2a34;stroke:#1b2a34;stroke-width:0.3125;stroke-linecap:butt;stroke-linejoin:miter;stroke-miterlimit:4;stroke-opacity:1;stroke-dasharray:none;display:inline"
         id="path4099" />
    </g>
    <g
       inkscape:groupmode="layer"
       id="layer5"
       inkscape:label="spider"
       sodipodi:insensitive="true"
       style="display:inline">
      <g
         id="g4075"
         transform="translate(0.013415,0)">
        <g
           style="fill:#f2f3f2"
           transform="matrix(-1,0,0,1,338.12874,0)"
           id="g4058">
          <path
             sodipodi:nodetypes="cccccccccccscccccccccccccccc"
             inkscape:connector-curvature="0"
             style="fill:#f2f3f2;stroke:none"
             d="m 170.0625,35.65625 c -0.0243,0.01691 -0.0456,0.03818 -0.0625,0.0625 -0.0113,0.0095 -0.0217,0.01994 -0.0312,0.03125 -0.0165,0.02877 -0.0272,0.06085 -0.0312,0.09375 -0.0105,0.04078 -0.0105,0.08422 0,0.125 0.007,0.02215 0.018,0.04326 0.0312,0.0625 L 170,36.0625 l 1.6875,2.71875 -0.65625,0.84375 c -0.61391,-0.321208 -1.34137,-0.459503 -2.1875,-0.375 l 0.34818,32.0625 c 0.88671,0.04382 1.65545,-0.01133 2.05807,0.25 0.37676,0.244539 0.63528,0.814032 1,0.84375 1.79932,-4.413987 6.51379,-16.195571 -0.78125,-21.28125 0.5389,-0.513479 2.19578,-2.920048 2.21875,-5.9375 0.009,-1.122344 -0.22462,-2.359401 -0.71875,-3.40625 l 0.96875,-1.09375 -0.0312,0 0,-0.03125 c 0.19116,-0.189406 0.28658,-0.451626 0.28125,-0.71875 -0.005,-0.263873 -0.0997,-0.546591 -0.3125,-0.75 l -0.0312,-0.03125 -3.46875,-3.40625 -0.0312,-0.03125 c -0.0169,-0.02432 -0.0382,-0.04559 -0.0625,-0.0625 -0.0309,-0.0059 -0.0628,-0.0059 -0.0937,0 -0.0408,-0.01053 -0.0842,-0.01053 -0.125,0 z"
             id="path3270" />
          <path
             style="fill:#f2f3f2;stroke:#f2f3f2;stroke-width:0.375;stroke-linecap:round;stroke-linejoin:round;stroke-miterlimit:4;stroke-opacity:1;stroke-dasharray:none"
             d="m 172.92833,53.130746 c 4.3263,0.625875 7.40955,0.698703 9.67449,0.669724 4.42627,-0.05663 3.71366,-1.386118 7.07319,2.031513 -0.12126,-2.080265 0.17522,-5.935075 -3.08875,-5.228142 -2.80858,0.608302 -7.94771,0.892683 -15.23056,0.758822 z"
             id="path4050"
             inkscape:connector-curvature="0"
             sodipodi:nodetypes="cscscc" />
          <path
             style="fill:#f2f3f2;stroke:#f2f3f2;stroke-width:0.375;stroke-linecap:round;stroke-linejoin:round;stroke-miterlimit:4;stroke-opacity:1;stroke-dasharray:none"
             d="m 172.68277,48.219404 c 12.31822,0.467023 10.03186,-3.107128 12.72336,-2.941584 2.63998,0.162375 3.73742,1.465581 3.14027,4.022079 -1.3128,-0.532325 -1.62442,-0.861698 -2.30835,-0.862256 -1.93362,-0.0016 -3.70269,1.839951 -9.70911,1.709605 -1.43702,-0.03119 -2.92289,-0.127218 -4.38642,-0.503555 z"
             id="path4052"
             inkscape:connector-curvature="0"
             sodipodi:nodetypes="cscsscc" />
          <path
             sodipodi:nodetypes="cscsscc"
             inkscape:connector-curvature="0"
             id="path4054"
             d="m 172.12683,45.669756 c 12.23423,-1.509982 9.40545,-4.672252 12.08876,-4.939497 2.63195,-0.262129 3.92377,0.848689 3.74336,3.467797 -1.38106,-0.315411 -1.74136,-0.590679 -2.41657,-0.481797 -1.90896,0.307811 -3.36058,2.408697 -9.31047,3.241093 -1.4235,0.199143 -2.90559,0.3421 -4.41048,0.204786 z"
             style="fill:#f2f3f2;stroke:#f2f3f2;stroke-width:0.375;stroke-linecap:round;stroke-linejoin:round;stroke-miterlimit:4;stroke-opacity:1;stroke-dasharray:none" />
          <path
             style="fill:#f2f3f2;stroke:#f2f3f2;stroke-width:0.375;stroke-linecap:round;stroke-linejoin:round;stroke-miterlimit:4;stroke-opacity:1;stroke-dasharray:none"
             d="m 171.56243,43.345341 c 11.66552,-3.983966 8.24898,-6.499751 10.82065,-7.310966 2.52245,-0.795687 4.01441,0.02697 4.37431,2.627496 -1.41638,-0.02583 -1.82542,-0.221463 -2.46401,0.02342 -1.80544,0.692307 -2.79594,3.045989 -8.44917,5.079482 -1.35253,0.486504 -2.77391,0.930014 -4.27502,1.103865 z"
             id="path4056"
             inkscape:connector-curvature="0"
             sodipodi:nodetypes="cscsscc" />
        </g>
        <use
           height="147.96875"
           width="289.36462"
           transform="matrix(-1,0,0,1,337.88317,0)"
           id="use4065"
           xlink:href="#g4058"
           y="0"
           x="0" />
      </g>
    </g>
    <g
       inkscape:groupmode="layer"
       id="layer4"
       inkscape:label="torso"
       style="display:inline">
      <path
         style="font-size:medium;font-style:normal;font-variant:normal;font-weight:normal;font-stretch:normal;text-indent:0;text-align:start;text-decoration:none;line-height:normal;letter-spacing:normal;word-spacing:normal;text-transform:none;direction:ltr;block-progression:tb;writing-mode:lr-tb;text-anchor:start;baseline-shift:baseline;color:#000000;fill:#635f61;fill-opacity:1;stroke:none;stroke-width:4;marker:none;visibility:visible;display:inline;overflow:visible;enable-background:accumulate;font-family:Sans;-inkscape-font-specification:Sans"
         d="m 156.78312,32.5625 c -0.2043,0.0028 -0.39468,0.02497 -0.59375,0.03125 -0.7963,0.02502 -1.56674,0.08604 -2.25,0.1875 -1.36652,0.202912 -2.46436,0.524284 -2.78125,1.46875 0.58861,-0.552233 1.12571,-0.845938 2.78125,-1.0625 1.30098,-0.17018 3.04029,10e-4 4.71875,0.0625 3.35693,0.122897 6.92564,0.63104 8.75,0.90625 0.59396,0.0896 0.96981,0.391874 1.15625,0.625 0.15222,0.223397 0.28013,0.853736 0.375,0.875 0.12696,0.02845 0.22542,-0.629005 0.40625,-0.875 0.18482,-0.234105 0.55721,-0.534634 1.15625,-0.625 1.82436,-0.27521 5.42432,-0.783353 8.78125,-0.90625 1.67846,-0.06146 3.38652,-0.232683 4.6875,-0.0625 1.65554,0.216562 2.19264,0.510267 2.78125,1.0625 -0.31689,-0.944466 -1.41473,-1.265838 -2.78125,-1.46875 -0.68326,-0.101456 -1.4537,-0.162483 -2.25,-0.1875 -0.39814,-0.0125 -0.8036,-0.03441 -1.21875,-0.03125 -0.41515,0.0032 -0.8244,0.01567 -1.25,0.03125 -3.40483,0.124651 -7.00814,0.629346 -8.84375,0.90625 -0.62788,0.09472 -1.11742,0.340656 -1.4375,0.65625 -0.32002,-0.316854 -0.80788,-0.561272 -1.4375,-0.65625 -1.8356,-0.276903 -5.47017,-0.781599 -8.875,-0.90625 -0.4256,-0.01558 -0.83485,-0.0281 -1.25,-0.03125 -0.20758,-0.0015 -0.42069,-0.0028 -0.625,0 z m -6.96875,15.59375 c -0.32491,1.624773 1.10662,2.757035 2.9375,2.90625 l 14.15625,0.15625 c 1.09493,0.0048 1.86021,-0.07303 2.125,-0.90625 0.26448,0.834152 1.06088,0.911101 2.15625,0.90625 l 14.15625,-0.15625 c 1.83089,-0.149215 3.26241,-1.281477 2.9375,-2.90625 -0.70734,0.694207 -1.64665,1.646188 -3.3125,1.75 l -14.03125,0.4375 c -0.9608,0.07938 -1.58365,-0.401473 -1.875,-2.09375 -0.29135,1.692277 -0.94545,2.17313 -1.90625,2.09375 l -14.03125,-0.4375 c -1.66586,-0.103812 -2.60516,-1.055793 -3.3125,-1.75 z m 10.11711,11.744433 c -0.0216,5.386551 -0.45375,11.328113 -1.05815,14.318573 l 1.90625,0.249494 c 0.0216,-7.425146 -0.11557,-10.91377 -0.8481,-14.568067 z m 18.0653,-0.195707 c -0.73253,3.654297 -0.63304,7.338628 -0.61094,14.763774 l 1.90625,-0.1875 c -0.60439,-2.99046 -1.2732,-9.189723 -1.29483,-14.576274 z m -9.02616,0.138774 c -0.006,0.01265 -0.025,0.0186 -0.0312,0.03125 -0.45238,0.91316 -0.46175,1.813534 -0.375,2.3125 0.006,0.03566 -0.008,0.05862 0,0.09375 -0.1515,0.49516 -0.47884,0.947558 -0.78125,1.1875 -0.10764,0.0854 -0.2255,0.124833 -0.3125,0.15625 0.0152,-0.0055 -0.1659,0.03851 -0.375,0.0625 -0.20078,0.02303 -0.4458,0.0403 -0.75,0.0625 -0.0126,9.19e-4 -0.0185,-9.47e-4 -0.0312,0 -1.14186,0.0046 -2.21595,0.141592 -2.90625,0.5625 0.9589,0.666311 2.30013,0.245622 3.5,0.21875 0.20004,-7.83e-4 0.3382,-0.0062 0.4375,0 0.0131,-4.6e-5 0.0183,5.2e-5 0.0312,0 0.20134,0.02036 0.38941,0.07389 0.53125,0.125 0.008,0.0028 0.0233,-0.0029 0.0312,0 0.13521,0.05205 0.22801,0.115676 0.3125,0.1875 0.18169,0.15447 0.29155,0.370866 0.34375,0.65625 -0.004,0.346878 0.0654,0.707736 0.0937,1.09375 0.0104,0.190268 0.0124,0.362736 0,0.5625 -6.9e-4,0.01033 8.1e-4,0.02092 0,0.03125 -0.001,0.02105 -0.0294,0.04135 -0.0312,0.0625 -0.018,0.174478 -0.0315,0.357833 -0.0937,0.53125 0.006,0.03566 -0.007,0.08994 0,0.125 -0.15177,0.494709 -0.47895,0.947425 -0.78125,1.1875 -0.1076,0.08545 -0.22556,0.124855 -0.3125,0.15625 -0.003,0.001 -0.13607,0.03877 -0.3125,0.0625 -0.16847,0.02275 -0.40325,0.04049 -0.65625,0.0625 -0.97929,-0.170526 -1.86549,0.299719 -2.375,0.5 0.74849,0.690852 2.16408,0.233601 3.21875,0.21875 0.003,-0.0072 0.0279,0.0069 0.0312,0 0.20134,0.02037 0.38941,0.07389 0.53125,0.125 0.008,0.0028 0.0233,-0.0029 0.0312,0 0.13521,0.05204 0.22802,0.115672 0.3125,0.1875 0.1817,0.15447 0.29155,0.370866 0.34375,0.65625 0.0243,0.350848 0.0613,0.724711 0.0625,1.09375 3e-5,0.01051 0,0.02072 0,0.03125 1.4e-4,0.380092 -0.037,0.756209 -0.0937,1.15625 0.004,0.01945 -0.004,0.04321 0,0.0625 -0.05,0.119063 -0.116,0.235363 -0.1875,0.34375 l 0.0312,0 0.25,0 0.0625,0 0.4375,0 0.0625,0 0.25,0 0.0312,0 c -0.0715,-0.108387 -0.13749,-0.224687 -0.1875,-0.34375 0.004,-0.01929 -0.004,-0.04305 0,-0.0625 -0.11341,-0.800082 -0.0813,-1.55957 -0.0312,-2.28125 0.0522,-0.285384 0.16205,-0.50178 0.34375,-0.65625 0.18279,-0.147007 0.45681,-0.274964 0.875,-0.3125 0.009,5.8e-5 0.0219,-1.31e-4 0.0312,0 1.05477,0.01457 2.50126,0.472329 3.25,-0.21875 -0.50424,-0.198209 -1.40746,-0.655738 -2.375,-0.5 -0.012,-0.0011 -0.0194,0.001 -0.0312,0 -0.253,-0.02201 -0.48778,-0.03975 -0.65625,-0.0625 -0.017,-0.0023 -0.0153,0.0025 -0.0312,0 -0.15945,-0.02153 -0.25665,-0.05574 -0.28125,-0.0625 -0.007,-0.0025 -0.024,0.0029 -0.0312,0 -0.0758,-0.02738 -0.15496,-0.08731 -0.25,-0.15625 -0.005,-0.004 -0.0262,0.0041 -0.0312,0 -0.0997,-0.07518 -0.17918,-0.201551 -0.28125,-0.3125 -0.20631,-0.237139 -0.39711,-0.539604 -0.5,-0.875 0.007,-0.03506 -0.006,-0.08934 0,-0.125 -0.0623,-0.173417 -0.0759,-0.356772 -0.0937,-0.53125 -0.003,-0.03221 -0.0291,-0.06157 -0.0312,-0.09375 -0.0124,-0.199764 -0.0104,-0.372232 0,-0.5625 0.0284,-0.386014 0.0983,-0.746872 0.0937,-1.09375 0.0522,-0.285384 0.16206,-0.50178 0.34375,-0.65625 0.18277,-0.147 0.45681,-0.274964 0.875,-0.3125 0.0131,5.4e-5 0.018,-4.8e-5 0.0312,0 0.0993,-0.0062 0.23746,-7.83e-4 0.4375,0 1.19987,0.02687 2.57235,0.447561 3.53125,-0.21875 -0.69053,-0.421048 -1.79523,-0.557939 -2.9375,-0.5625 -0.0128,-9.47e-4 -0.0188,9.19e-4 -0.0312,0 -0.29788,-0.022 -0.54692,-0.04156 -0.75,-0.0625 -0.0339,-0.0039 -0.0308,0.0046 -0.0625,0 -0.1907,-0.02195 -0.30062,-0.06025 -0.3125,-0.0625 -0.007,-0.0025 -0.024,0.0029 -0.0312,0 -0.0758,-0.02738 -0.15496,-0.08731 -0.25,-0.15625 -0.005,-0.004 -0.0262,0.0041 -0.0312,0 -0.0997,-0.07518 -0.17918,-0.20155 -0.28125,-0.3125 -0.20633,-0.237052 -0.39729,-0.539299 -0.5,-0.875 0.008,-0.03513 -0.006,-0.05809 0,-0.09375 0.0219,-0.125968 0.0245,-0.266207 0.0312,-0.4375 0.0205,-0.51388 -0.0253,-1.214551 -0.375,-1.90625 z m -21.71875,0.625 -0.53125,0.40625 c 1.02746,1.408691 2.01671,2.104464 2.34375,3.59375 0.41651,1.896666 0.20193,6.710817 0.5,6.75 0.29808,0.03917 0.60246,-4.874268 0.15625,-6.90625 -0.37833,-1.72284 -1.50599,-2.523754 -2.46875,-3.84375 z m 43.40625,0 c -0.96276,1.319996 -2.09042,2.12091 -2.46875,3.84375 -0.44621,2.031982 -0.14183,6.945431 0.15625,6.90625 0.29807,-0.03917 0.0835,-4.853334 0.5,-6.75 0.32704,-1.489286 1.31629,-2.185059 2.34375,-3.59375 z"
         id="path4113"
         inkscape:connector-curvature="0"
         sodipodi:nodetypes="scscscscccssscsccsscsscsccccccccccccccccccccccccccccccccccccccccccccscccccccccccccccccccccccccccccccccccccccccccccccccccccccccccccccccscsccccsccc" />
      <path
         inkscape:connector-curvature="0"
         id="path4101"
         d="m 91.430335,60.46875 -0.53125,0.40625 c 1.02746,1.408691 2.01671,2.104464 2.34375,3.59375 0.41651,1.896666 0.20193,6.710817 0.5,6.75 0.29808,0.03917 0.60246,-4.874268 0.15625,-6.90625 -0.37833,-1.72284 -1.50599,-2.523754 -2.46875,-3.84375 z m 43.406255,0 c -0.96276,1.319996 -2.09042,2.12091 -2.46875,3.84375 -0.44621,2.031982 -0.14183,6.945431 0.15625,6.90625 0.29807,-0.03917 0.0835,-4.853334 0.5,-6.75 0.32704,-1.489286 1.31629,-2.185059 2.34375,-3.59375 z"
         style="font-size:medium;font-style:normal;font-variant:normal;font-weight:normal;font-stretch:normal;text-indent:0;text-align:start;text-decoration:none;line-height:normal;letter-spacing:normal;word-spacing:normal;text-transform:none;direction:ltr;block-progression:tb;writing-mode:lr-tb;text-anchor:start;baseline-shift:baseline;color:#000000;fill:#635f61;fill-opacity:1;stroke:none;stroke-width:4;marker:none;visibility:visible;display:inline;overflow:visible;enable-background:accumulate;font-family:Sans;-inkscape-font-specification:Sans"
         sodipodi:nodetypes="ccscsccscscc" />
      <path
         style="fill:#635f61;fill-opacity:1;stroke:none"
         d="m 162.27701,55.78125 c -0.93043,0 -1.74465,0.754403 -2.15625,1.875 0.45439,-0.534739 1.04019,-0.875 1.6875,-0.875 l 14.5,0 c 0.65833,0 1.26137,0.355076 1.71875,0.90625 -0.40849,-1.135545 -1.21829,-1.90625 -2.15625,-1.90625 l -13.59375,0 z"
         id="rect4105"
         inkscape:connector-curvature="0" />
      <g
         id="g3046"
         style="fill:#ff00ff;fill-opacity:1;display:inline"
         transform="translate(-110.37865,0.19241966)">
        <path
           id="path3255"
           d="m 213.52938,33.016687 c -1.20383,0.02769 -2.24845,-0.01955 -3.21875,0.34375 -1.24904,0.467657 -2.36125,1.097646 -3.4375,1.6875 -0.27039,0.148195 -0.54349,0.30088 -0.8125,0.4375 -0.80509,0.450894 -0.5752,0.868212 0.15625,0.46875 1.43338,-0.72796 2.93805,-1.420105 4.46875,-1.96875 0.87113,-0.312237 1.79339,-0.507091 2.84375,-0.53125 0.72463,-0.02946 0.84443,-0.455958 0,-0.4375 z"
           style="font-size:medium;font-style:normal;font-variant:normal;font-weight:normal;font-stretch:normal;text-indent:0;text-align:start;text-decoration:none;line-height:normal;letter-spacing:normal;word-spacing:normal;text-transform:none;direction:ltr;block-progression:tb;writing-mode:lr-tb;text-anchor:start;baseline-shift:baseline;color:#000000;fill:#635f61;fill-opacity:1;stroke:none;stroke-width:1px;marker:none;visibility:visible;display:inline;overflow:visible;enable-background:accumulate;font-family:Sans;-inkscape-font-specification:Sans"
           inkscape:connector-curvature="0"
           sodipodi:nodetypes="cssccscc" />
        <use
           height="68.90625"
           width="113.125"
           transform="matrix(-1,0,0,1,447.50854,0)"
           id="use4043"
           xlink:href="#path3255"
           y="0"
           x="0"
           style="fill:#ff00ff;fill-opacity:1" />
      </g>
    </g>
    <g
       inkscape:groupmode="layer"
       id="layer7"
       inkscape:label="face">
      <g
         id="g4088"
         transform="translate(-28.62345,3.8865734)">
        <path
           sodipodi:nodetypes="cscsccc"
           inkscape:connector-curvature="0"
           id="path4084"
           d="m 171.18154,10.176684 c 0.68879,-0.8157646 2.49935,-2.5518086 4.2648,-4.5865408 1.27643,-1.4711303 3.07641,-4.60785064 4.08257,-4.2447326 1.85331,2.7784701 2.21288,7.1145787 1.01514,11.5056644 -0.77588,2.844486 -2.73992,6.593472 -5.00736,6.398836 -1.90507,0.01304 -4.41481,-2.555045 -5.32296,-5.564912 -0.55129,-1.922352 0.2815,-2.702583 0.96781,-3.508315 z"
           style="fill:#e5e4de;stroke:none" />
        <path
           style="fill:#e5e4de;stroke:none"
           d="m 164.48547,10.176684 c -0.68879,-0.8157646 -2.49935,-2.5518086 -4.2648,-4.5865408 -1.27643,-1.4711303 -3.07641,-4.60785064 -4.08257,-4.2447326 -1.85331,2.7784701 -2.21288,7.1145787 -1.01514,11.5056644 0.77588,2.844486 2.73992,6.593472 5.00736,6.398836 1.90507,0.01304 4.41481,-2.555045 5.32296,-5.564912 0.55129,-1.922352 -0.2815,-2.702583 -0.96781,-3.508315 z"
           id="path4086"
           inkscape:connector-curvature="0"
           sodipodi:nodetypes="cscsccc" />
      </g>
    </g>
  </g>
</svg>
