<?xml version="1.0" encoding="UTF-8" standalone="no"?>
<!-- Created with Inkscape (http://www.inkscape.org/) -->

<svg
   xmlns:dc="http://purl.org/dc/elements/1.1/"
   xmlns:cc="http://creativecommons.org/ns#"
   xmlns:rdf="http://www.w3.org/1999/02/22-rdf-syntax-ns#"
   xmlns:svg="http://www.w3.org/2000/svg"
   xmlns="http://www.w3.org/2000/svg"
   xmlns:xlink="http://www.w3.org/1999/xlink"
   xmlns:sodipodi="http://sodipodi.sourceforge.net/DTD/sodipodi-0.dtd"
   xmlns:inkscape="http://www.inkscape.org/namespaces/inkscape"
   width="52.46875"
   height="43.221066"
   id="svg2"
   version="1.1"
   inkscape:version="0.48.2 r9819"
   sodipodi:docname="vampirela.svg"
   inkscape:export-filename="C:\Dokumente und Einstellungen\John\Desktop\minifigs\done\vampirela.png"
   inkscape:export-xdpi="1715.3101"
   inkscape:export-ydpi="1715.3101">
  <defs
     id="defs4">
    <linearGradient
       inkscape:collect="always"
       id="linearGradient4133">
      <stop
         style="stop-color:#958a73;stop-opacity:1;"
         offset="0"
         id="stop4135" />
      <stop
         style="stop-color:#958a73;stop-opacity:0;"
         offset="1"
         id="stop4137" />
    </linearGradient>
    <linearGradient
       inkscape:collect="always"
       id="linearGradient4011">
      <stop
         style="stop-color:#ffffff;stop-opacity:1;"
         offset="0"
         id="stop4013" />
      <stop
         style="stop-color:#ffffff;stop-opacity:0;"
         offset="1"
         id="stop4015" />
    </linearGradient>
    <linearGradient
       inkscape:collect="always"
       id="linearGradient3997">
      <stop
         style="stop-color:#ffffff;stop-opacity:1;"
         offset="0"
         id="stop3999" />
      <stop
         style="stop-color:#ffffff;stop-opacity:0;"
         offset="1"
         id="stop4001" />
    </linearGradient>
    <inkscape:path-effect
       effect="skeletal"
       id="path-effect4237"
       is_visible="true"
       pattern="M 0,5 C 0,2.24 2.24,0 5,0 7.76,0 10,2.24 10,5 10,7.76 7.76,10 5,10 2.24,10 0,7.76 0,5 z"
       copytype="single_stretched"
       prop_scale="1"
       scale_y_rel="false"
       spacing="0"
       normal_offset="0"
       tang_offset="0"
       prop_units="false"
       vertical_pattern="false"
       fuse_tolerance="0" />
    <clipPath
       id="clipPath2999"
       clipPathUnits="userSpaceOnUse">
      <path
         id="path3001"
         d="M 0,792 612,792 612,0 0,0 0,792 z"
         inkscape:connector-curvature="0" />
    </clipPath>
    <radialGradient
       gradientUnits="userSpaceOnUse"
       gradientTransform="matrix(0.75988491,-0.03632001,0.13155835,2.7524547,16.986326,-78.268899)"
       r="12.650181"
       fy="46.658409"
       fx="96.306435"
       cy="46.658409"
       cx="96.306435"
       id="radialGradient3972"
       xlink:href="#linearGradient3966"
       inkscape:collect="always" />
    <clipPath
       clipPathUnits="userSpaceOnUse"
       id="clipPath2999-4">
      <path
         inkscape:connector-curvature="0"
         d="M 0,792 612,792 612,0 0,0 0,792 z"
         id="path3001-0" />
    </clipPath>
    <linearGradient
       id="linearGradient3966">
      <stop
         id="stop3968"
         offset="0"
         style="stop-color:#c0ac02;stop-opacity:1;" />
      <stop
         id="stop3970"
         offset="1"
         style="stop-color:#fdea41;stop-opacity:0;" />
    </linearGradient>
    <radialGradient
       inkscape:collect="always"
       xlink:href="#linearGradient3997"
       id="radialGradient4003"
       cx="165.81134"
       cy="47.693741"
       fx="165.81134"
       fy="47.693741"
       r="3.8123069"
       gradientTransform="matrix(0.64374811,-0.18781617,0.31213841,1.069868,43.640483,27.15595)"
       gradientUnits="userSpaceOnUse" />
    <radialGradient
       inkscape:collect="always"
       xlink:href="#linearGradient3997"
       id="radialGradient4007"
       gradientUnits="userSpaceOnUse"
       gradientTransform="matrix(-0.64374811,-0.18781617,-0.31213841,1.069868,293.73143,27.15595)"
       cx="165.81134"
       cy="47.693741"
       fx="165.81134"
       fy="47.693741"
       r="3.8123069" />
    <radialGradient
       inkscape:collect="always"
       xlink:href="#linearGradient4011"
       id="radialGradient4017"
       cx="169.32254"
       cy="41.784931"
       fx="169.32254"
       fy="41.784931"
       r="6.982676"
       gradientTransform="matrix(0.31036379,-0.01814613,0.03701409,0.63307367,114.75293,21.468668)"
       gradientUnits="userSpaceOnUse" />
    <linearGradient
       id="linearGradient3966-2">
      <stop
         style="stop-color:#c0ac02;stop-opacity:1;"
         offset="0"
         id="stop3968-4" />
      <stop
         style="stop-color:#fdea41;stop-opacity:0;"
         offset="1"
         id="stop3970-5" />
    </linearGradient>
    <clipPath
       id="clipPath2999-4-8"
       clipPathUnits="userSpaceOnUse">
      <path
         id="path3001-0-8"
         d="M 0,792 612,792 612,0 0,0 0,792 z"
         inkscape:connector-curvature="0" />
    </clipPath>
    <radialGradient
       inkscape:collect="always"
       xlink:href="#linearGradient3966-2"
       id="radialGradient3972-4"
       cx="96.306435"
       cy="46.658409"
       fx="96.306435"
       fy="46.658409"
       r="12.650181"
       gradientTransform="matrix(0.75988491,-0.03632001,0.13155835,2.7524547,16.986326,-78.268899)"
       gradientUnits="userSpaceOnUse" />
    <clipPath
       clipPathUnits="userSpaceOnUse"
       id="clipPath2999-0">
      <path
         inkscape:connector-curvature="0"
         d="M 0,792 612,792 612,0 0,0 0,792 z"
         id="path3001-9" />
    </clipPath>
    <inkscape:path-effect
       fuse_tolerance="0"
       vertical_pattern="false"
       prop_units="false"
       tang_offset="0"
       normal_offset="0"
       spacing="0"
       scale_y_rel="false"
       prop_scale="1"
       copytype="single_stretched"
       pattern="M 0,5 C 0,2.24 2.24,0 5,0 7.76,0 10,2.24 10,5 10,7.76 7.76,10 5,10 2.24,10 0,7.76 0,5 z"
       is_visible="true"
       id="path-effect4237-4"
       effect="skeletal" />
    <linearGradient
       inkscape:collect="always"
       xlink:href="#linearGradient4133"
       id="linearGradient4139"
       x1="158.4846"
       y1="58.209473"
       x2="159.43173"
       y2="52.645149"
       gradientUnits="userSpaceOnUse" />
    <linearGradient
       inkscape:collect="always"
       xlink:href="#linearGradient4133"
       id="linearGradient4143"
       gradientUnits="userSpaceOnUse"
       x1="158.4846"
       y1="58.209473"
       x2="159.43173"
       y2="52.645149" />
  </defs>
  <sodipodi:namedview
     id="base"
     pagecolor="#ffffff"
     bordercolor="#666666"
     borderopacity="1.0"
     inkscape:pageopacity="0.0"
     inkscape:pageshadow="2"
     inkscape:zoom="4.49"
     inkscape:cx="16.685769"
     inkscape:cy="18.981338"
     inkscape:document-units="px"
     inkscape:current-layer="layer7"
     showgrid="false"
     fit-margin-top="0"
     fit-margin-left="0"
     fit-margin-right="0"
     fit-margin-bottom="0"
     inkscape:window-width="1400"
     inkscape:window-height="1024"
     inkscape:window-x="1276"
     inkscape:window-y="-4"
     inkscape:window-maximized="1"
     showguides="false"
     inkscape:guide-bbox="true"
     inkscape:snap-global="false">
    <sodipodi:guide
       orientation="0,1"
       position="11.3307,21.518409"
       id="guide3274" />
    <sodipodi:guide
       orientation="1,0"
       position="26.18096,26.635111"
       id="guide3960" />
    <sodipodi:guide
       orientation="1,0"
       position="-73.564521,154.67895"
       id="guide3170" />
    <sodipodi:guide
       orientation="0,1"
       position="-64.509795,147.41527"
       id="guide3172" />
    <sodipodi:guide
       orientation="0,1"
       position="-64.907805,141.64412"
       id="guide3174" />
    <sodipodi:guide
       orientation="1,0"
       position="-61.624223,150.40034"
       id="guide3176" />
  </sodipodi:namedview>
  <metadata
     id="metadata7">
    <rdf:RDF>
      <cc:Work
         rdf:about="">
        <dc:format>image/svg+xml</dc:format>
        <dc:type
           rdf:resource="http://purl.org/dc/dcmitype/StillImage" />
        <dc:title></dc:title>
      </cc:Work>
    </rdf:RDF>
  </metadata>
  <g
     inkscape:groupmode="layer"
     id="layer3"
     inkscape:label="vampirel"
     style="display:inline"
     transform="translate(-142.71875,-31.466436)">
    <g
       inkscape:groupmode="layer"
       id="layer5"
       inkscape:label="bg"
       style="display:inline">
      <path
         transform="translate(-218.16938,-378.37561)"
         inkscape:connector-curvature="0"
         d="m 361.13813,452.9203 c 8.7325,-47.29375 5.3425,-42.67875 14.2675,-42.85625 l 23.44,0 c 8.92625,0.1775 5.535,-4.4375 14.265,42.85625 l -51.9725,0 z"
         style="fill:#1b2a34;stroke:#231f20;stroke-width:0.3125;stroke-linecap:butt;stroke-linejoin:miter;stroke-miterlimit:4;stroke-opacity:1;stroke-dasharray:none;display:inline"
         id="path3093" />
      <path
         inkscape:connector-curvature="0"
         id="path3969"
         d="m 154.17375,31.638385 c -0.27345,-0.0021 -0.51296,0.01438 -0.75,0.03125 -0.2517,0.01598 -0.50065,0.04528 -0.71875,0.09375 -0.19414,0.04649 -0.36055,0.103301 -0.53125,0.1875 -1.79689,0.886304 -2.41272,4.126231 -4.4375,15.343749 -0.79249,4.39047 3.12451,9.636 2.34375,17.375 -0.42679,4.23039 -5.79223,6.78828 -7.125,9.875 l 52,0 c -1.33277,-3.08672 -6.69821,-5.64461 -7.125,-9.875 -0.78076,-7.739 3.13624,-12.98453 2.34375,-17.375 -2.02478,-11.217518 -2.64061,-14.457445 -4.4375,-15.343749 -0.1707,-0.0842 -0.33711,-0.141007 -0.53125,-0.1875 -0.01,-0.0021 -0.0215,0.0021 -0.0312,0 -0.18742,-0.04293 -0.41185,-0.07634 -0.625,-0.09375 -0.3229,-0.02336 -0.6732,-0.03967 -1.0625,-0.03125 -0.21166,0.0041 -0.42118,0.02383 -0.65625,0.03125 -0.63668,0.02078 -1.3262,0.04776 -2.15625,0.03125 l -23.4375,0 c -0.83005,0.01651 -1.51957,-0.01047 -2.15625,-0.03125 -0.0104,-3.4e-4 -0.0209,3.37e-4 -0.0312,0 -0.31503,-0.0099 -0.60155,-0.0291 -0.875,-0.03125 z"
         style="fill:#fdc97d;stroke:#231f20;stroke-width:0.3125;stroke-linecap:butt;stroke-linejoin:miter;stroke-miterlimit:4;stroke-opacity:1;stroke-dasharray:none;display:inline" />
    </g>
    <g
       inkscape:groupmode="layer"
       id="layer6"
       inkscape:label="shade"
       style="display:inline"
       sodipodi:insensitive="true">
      <path
         style="fill:#958a73;stroke:none"
         d="m 149.80564,48.940567 c -0.20917,4.076793 2.52333,7.502964 6.18884,8.589106 0.78375,0.232235 2.04928,4.321791 3.07777,4.189154 0.39551,-0.05101 0.0805,-1.501963 0.58809,-2.686945 0.4164,-0.97199 1.5929,-1.700469 2.41592,-1.878459 2.38713,-0.516249 4.72982,-2.319135 6.7284,-4.811495 0.50402,0.008 0.46419,-3.69932 0.16786,-3.221912 -2.57976,4.156179 -1.80271,6.839529 -9.06015,7.326172 -4.42291,0.296576 -7.99321,-2.38832 -10.10673,-7.505621 z"
         id="path4127"
         inkscape:connector-curvature="0"
         sodipodi:nodetypes="csssscssc" />
      <path
         sodipodi:type="arc"
         style="fill:url(#linearGradient4139);fill-opacity:1;stroke:none"
         id="path4131"
         sodipodi:cx="158.99763"
         sodipodi:cy="49.685402"
         sodipodi:rx="9.1160221"
         sodipodi:ry="8.7805843"
         d="m 168.11366,49.685402 c 0,4.849383 -4.08139,8.780584 -9.11603,8.780584 -5.03464,0 -9.11602,-3.931201 -9.11602,-8.780584 0,-4.849383 4.08138,-8.780584 9.11602,-8.780584 5.03464,0 9.11603,3.931201 9.11603,8.780584 z"
         transform="translate(0.39463299,-1.8942384)" />
      <path
         transform="matrix(-1,0,0,1,337.64799,-1.8942384)"
         d="m 168.11366,49.685402 c 0,4.849383 -4.08139,8.780584 -9.11603,8.780584 -5.03464,0 -9.11602,-3.931201 -9.11602,-8.780584 0,-4.849383 4.08138,-8.780584 9.11602,-8.780584 5.03464,0 9.11603,3.931201 9.11603,8.780584 z"
         sodipodi:ry="8.7805843"
         sodipodi:rx="9.1160221"
         sodipodi:cy="49.685402"
         sodipodi:cx="158.99763"
         id="path4141"
         style="fill:url(#linearGradient4143);fill-opacity:1;stroke:none"
         sodipodi:type="arc" />
      <path
         style="fill:#1b2a34;stroke:none"
         d="m 169.10024,57.913501 c 0.20857,1.657459 0.2755,3.314917 -0.0395,4.972376 -0.16798,-1.657459 -0.10664,-3.314917 0.0395,-4.972376 z"
         id="path4145"
         inkscape:connector-curvature="0"
         sodipodi:nodetypes="ccc" />
      <path
         sodipodi:nodetypes="csssscssc"
         inkscape:connector-curvature="0"
         id="path4147"
         d="m 188.04287,48.940567 c 0.20917,4.076793 -2.52333,7.502964 -6.18884,8.589106 -0.78375,0.232235 -2.04928,4.321791 -3.07777,4.189154 -0.39551,-0.05101 -0.0805,-1.501963 -0.58809,-2.686945 -0.4164,-0.97199 -1.5929,-1.700469 -2.41592,-1.878459 -2.38713,-0.516249 -4.72982,-2.319135 -6.7284,-4.811495 -0.50402,0.008 -0.46419,-3.69932 -0.16786,-3.221912 2.57976,4.156179 1.80271,6.839529 9.06015,7.326172 4.42291,0.296576 7.99321,-2.38832 10.10673,-7.505621 z"
         style="fill:#958a73;stroke:none" />
    </g>
    <g
       inkscape:groupmode="layer"
       id="layer4"
       inkscape:label="body"
       style="display:inline"
       sodipodi:insensitive="true">
      <path
         id="path3240"
         style="fill:none;stroke:#231f20;stroke-width:0.3125;stroke-linecap:butt;stroke-linejoin:miter;stroke-miterlimit:4;stroke-opacity:1;stroke-dasharray:none;display:inline"
         d="m 361.13813,452.9203 c 8.7325,-47.29375 5.3425,-42.67875 14.2675,-42.85625 l 23.44,0 c 8.92625,0.1775 5.535,-4.4375 14.265,42.85625 l -51.9725,0 z"
         inkscape:connector-curvature="0"
         transform="translate(-218.16938,-378.37561)" />
      <path
         sodipodi:nodetypes="ssscsssszsscccccccsszs"
         inkscape:connector-curvature="0"
         id="path3244"
         d="m 171.85728,32.830314 c -1.1334,0.189853 -1.788,0.676502 -2.21875,1.03125 -0.21538,0.177374 -0.37051,0.300681 -0.5,0.375 -0.11136,0.06392 -0.20538,0.09285 -0.34375,0.09375 -0.0257,0.0014 -0.04,1.46e-4 -0.0625,0 -0.13837,-8.98e-4 -0.23239,-0.02983 -0.34375,-0.09375 -0.12949,-0.07432 -0.28462,-0.197626 -0.5,-0.375 -0.43075,-0.354748 -1.08535,-0.841397 -2.21875,-1.03125 -2.16944,-0.36339 -5.30878,-0.435516 -5.32813,-0.234375 -0.0193,0.201141 2.68994,0.183485 4.85938,0.546875 1.1334,0.189853 2.3505,1.145252 2.78125,1.5 0.21538,0.177374 0.37051,0.30068 0.5,0.375 0.055,0.03159 0.10464,0.04668 0.15625,0.0625 -0.002,0.01364 0.002,0.01671 0,0.03125 0.0533,0.003 0.0839,-0.02739 0.125,-0.03125 0.0411,0.0039 0.0717,0.03421 0.125,0.03125 -0.002,-0.01454 0.002,-0.01761 0,-0.03125 0.0516,-0.01582 0.10122,-0.03091 0.15625,-0.0625 0.12949,-0.07432 0.28462,-0.197626 0.5,-0.375 0.43075,-0.354748 1.64785,-1.310147 2.78125,-1.5 2.16944,-0.36339 4.90141,-0.368424 4.85937,-0.546875 -0.042,-0.178451 -3.15868,-0.129015 -5.32812,0.234375 z"
         style="font-size:medium;font-style:normal;font-variant:normal;font-weight:normal;font-stretch:normal;text-indent:0;text-align:start;text-decoration:none;line-height:normal;letter-spacing:normal;word-spacing:normal;text-transform:none;direction:ltr;block-progression:tb;writing-mode:lr-tb;text-anchor:start;baseline-shift:baseline;color:#000000;fill:#000000;fill-opacity:1;stroke:none;stroke-width:1px;marker:none;visibility:visible;display:inline;overflow:visible;enable-background:accumulate;font-family:Sans;-inkscape-font-specification:Sans" />
      <path
         sodipodi:nodetypes="cscc"
         inkscape:connector-curvature="0"
         id="path3250"
         d="m 168.54149,69.928109 c 0.14498,-0.372744 0.50729,-0.636927 0.9313,-0.636927 0.3723,0 0.69703,0.203676 0.86885,0.505681 -0.93393,0.219057 -1.42701,0.207446 -1.80015,0.131246 z"
         style="fill:#1b2a34;stroke:none;display:inline" />
      <path
         style="opacity:0.63194442;fill:none;stroke:#231f20;stroke-width:0.3125;stroke-linecap:butt;stroke-linejoin:miter;stroke-miterlimit:4;stroke-opacity:1;stroke-dasharray:none;display:inline"
         d="m 154.17375,31.638385 c -0.27345,-0.0021 -0.51296,0.01438 -0.75,0.03125 -0.2517,0.01598 -0.50065,0.04528 -0.71875,0.09375 -0.19414,0.04649 -0.36055,0.103301 -0.53125,0.1875 -1.79689,0.886304 -2.41272,4.126231 -4.4375,15.343749 -0.79249,4.39047 3.12451,9.636 2.34375,17.375 -0.42679,4.23039 -5.79223,6.78828 -7.125,9.875 l 52,0 c -1.33277,-3.08672 -6.69821,-5.64461 -7.125,-9.875 -0.78076,-7.739 3.13624,-12.98453 2.34375,-17.375 -2.02478,-11.217518 -2.64061,-14.457445 -4.4375,-15.343749 -0.1707,-0.0842 -0.33711,-0.141007 -0.53125,-0.1875 -0.01,-0.0021 -0.0215,0.0021 -0.0312,0 -0.18742,-0.04293 -0.41185,-0.07634 -0.625,-0.09375 -0.3229,-0.02336 -0.6732,-0.03967 -1.0625,-0.03125 -0.21166,0.0041 -0.42118,0.02383 -0.65625,0.03125 -0.63668,0.02078 -1.3262,0.04776 -2.15625,0.03125 l -23.4375,0 c -0.83005,0.01651 -1.51957,-0.01047 -2.15625,-0.03125 -0.0104,-3.4e-4 -0.0209,3.37e-4 -0.0312,0 -0.31503,-0.0099 -0.60155,-0.0291 -0.875,-0.03125 z"
         id="path3252"
         inkscape:connector-curvature="0" />
      <g
         transform="matrix(1.0588333,0,0,1,-8.51222,-2.72032)"
         id="g3254"
         style="display:inline">
        <path
           style="font-size:medium;font-style:normal;font-variant:normal;font-weight:normal;font-stretch:normal;text-indent:0;text-align:start;text-decoration:none;line-height:normal;letter-spacing:normal;word-spacing:normal;text-transform:none;direction:ltr;block-progression:tb;writing-mode:lr-tb;text-anchor:start;baseline-shift:baseline;color:#000000;fill:#000000;fill-opacity:1;stroke:none;stroke-width:0.60000002;marker:none;visibility:visible;display:inline;overflow:visible;enable-background:accumulate;font-family:Sans;-inkscape-font-specification:Sans"
           d="m 151.26566,56.0625 c 2.99693,3.939515 8.713,4.764133 12.75,1.84375 4.037,-2.920383 4.87193,-8.497985 1.64062,-12.265625 2.56485,3.8515 1.79189,9.033863 -1.98437,11.765625 -3.77626,2.731762 -9.10703,1.960875 -11.90625,-1.71875 -2.04958,-2.694211 -2.23755,-6.311271 -0.73438,-9.34375 -2.16216,2.927686 -1.96216,6.831361 0.23438,9.71875 z"
           id="path3256"
           inkscape:connector-curvature="0"
           sodipodi:nodetypes="sscsscs" />
        <path
           sodipodi:nodetypes="sscsscs"
           inkscape:connector-curvature="0"
           id="path3258"
           d="m 183.94711,56.0625 c -2.99693,3.939515 -8.713,4.764133 -12.75,1.84375 -4.037,-2.920383 -4.87193,-8.497985 -1.64062,-12.265625 -2.56485,3.8515 -1.79189,9.033863 1.98437,11.765625 3.77626,2.731762 9.10703,1.960875 11.90625,-1.71875 2.04958,-2.694211 2.23755,-6.311271 0.73438,-9.34375 2.16216,2.927686 1.96216,6.831361 -0.23438,9.71875 z"
           style="font-size:medium;font-style:normal;font-variant:normal;font-weight:normal;font-stretch:normal;text-indent:0;text-align:start;text-decoration:none;line-height:normal;letter-spacing:normal;word-spacing:normal;text-transform:none;direction:ltr;block-progression:tb;writing-mode:lr-tb;text-anchor:start;baseline-shift:baseline;color:#000000;fill:#000000;fill-opacity:1;stroke:none;stroke-width:0.60000002;marker:none;visibility:visible;display:inline;overflow:visible;enable-background:accumulate;font-family:Sans;-inkscape-font-specification:Sans" />
      </g>
    </g>
    <g
       inkscape:groupmode="layer"
       id="layer8"
       inkscape:label="costume"
       style="display:inline"
       sodipodi:insensitive="true">
      <path
         sodipodi:nodetypes="ccccccc"
         inkscape:connector-curvature="0"
         id="path4063"
         d="m 181.93277,38.034776 c -1.62065,-1.12446 -3.24129,-2.42814 -4.86194,-2.40096 l 0.57022,3.541417 c -2.29392,-0.427649 -5.04201,0.280112 -7.56302,0.420168 l 6.66266,-6.032413 3.33134,1.05042 z"
         style="fill:#635f61;stroke:none;display:inline" />
      <path
         style="fill:#635f61;stroke:none;display:inline"
         d="m 156.57263,38.034776 c 1.62065,-1.12446 3.24129,-2.42814 4.86194,-2.40096 l -0.57022,3.541417 c 2.29392,-0.427649 5.04201,0.280112 7.56302,0.420168 l -6.66266,-6.032413 -3.33134,1.05042 z"
         id="path4061"
         inkscape:connector-curvature="0"
         sodipodi:nodetypes="ccccccc" />
      <path
         style="fill:#c4281b;stroke:#7b2e2f;stroke-width:0.5;stroke-linecap:butt;stroke-linejoin:miter;stroke-miterlimit:4;stroke-opacity:1;stroke-dasharray:none;display:inline"
         d="m 168.25706,41.931749 c -0.4326,0.466452 -1.17171,0.78038 -1.23354,1.370689 -0.71373,6.814134 -7.0447,10.13106 -7.98246,13.162537 -1.64067,5.303774 3.40854,13.354666 10.18971,13.812998 l 0,4.273055 -8.02528,-0.09737 c -1.89783,-1.828064 -4.08337,-6.072675 -9.96656,-7.371468 -0.95371,-0.210545 -1.75191,-0.06428 -1.75191,-0.06428 0.55558,-0.49928 0.65228,-1.770092 0.7441,-2.102144 4.78041,-3.510428 -0.13651,-8.660386 0.83655,-13.05216 2.39545,-8.276576 10.58419,-10.610533 17.1407,-12.268761"
         id="path4067"
         inkscape:connector-curvature="0"
         inkscape:transform-center-x="5.04552"
         sodipodi:nodetypes="csscccssccc" />
      <use
         style="display:inline"
         x="0"
         y="0"
         xlink:href="#path4067"
         inkscape:transform-center-x="-5.04552"
         id="use4071"
         transform="matrix(-1,0,0,1,337.79309,0)"
         width="289.36462"
         height="147.96875" />
      <path
         style="fill:#f2f3f2;stroke:#1b2a34;stroke-width:0.5;stroke-linecap:butt;stroke-linejoin:miter;stroke-miterlimit:4;stroke-opacity:1;stroke-dasharray:none;display:inline"
         d="m 162.13521,31.677653 c 2.1571,2.671865 5.26728,5.248422 6.46472,8.016254 -2.30738,-0.856468 -4.3942,-1.868623 -8.31179,-1.588474 l 1.55153,-3.250832 c -2.11438,-0.624163 -3.76116,1.183227 -5.39342,3.066125 0.19952,-2.3248 -0.30009,-5.348729 1.44071,-6.132249"
         id="path3289"
         inkscape:connector-curvature="0"
         sodipodi:nodetypes="cccccc" />
      <use
         style="display:inline"
         x="0"
         y="0"
         xlink:href="#path3289"
         id="use3291"
         transform="matrix(-1,0,0,1,338.0495,0)"
         width="289.36462"
         height="147.96875" />
      <path
         sodipodi:type="arc"
         style="fill:none;stroke:#1b2a34;stroke-width:0.5;stroke-miterlimit:4;stroke-dasharray:none;display:inline"
         id="path4065"
         sodipodi:cx="169.44904"
         sodipodi:cy="41.130135"
         sodipodi:rx="1.1284723"
         sodipodi:ry="1.1383712"
         d="m 170.57751,41.130135 c 0,0.628705 -0.50524,1.138371 -1.12847,1.138371 -0.62324,0 -1.12848,-0.509666 -1.12848,-1.138371 0,-0.628705 0.50524,-1.138372 1.12848,-1.138372 0.62323,0 1.12847,0.509667 1.12847,1.138372 z"
         transform="translate(-0.49494402,-0.27716865)" />
      <path
         style="fill:#c4281b;stroke:none;display:inline"
         d="m 165.4907,70.034177 3.46376,0.513149 4.93906,-0.962155 -0.51315,4.682489 -8.98011,-0.128288 z"
         id="path4094"
         inkscape:connector-curvature="0" />
      <path
         style="fill:#e8ab2d;stroke:none;display:inline"
         d="m 170.15625,73.40625 -0.26638,-0.5625 0.73513,0.03125 0.53125,-0.65625 -0.75,-0.03125 1.21875,-0.5 0.25,-0.28125 -1.09375,-0.0625 1.625,-0.5625 0.96875,-1.15625 c -0.8502,0.269247 -1.71929,0.606195 -2.5625,0.8125 -0.18669,0.04568 -0.37756,0.8138 -0.5625,0.84375 -0.10636,0.01722 -0.3125,-0.6875 -0.3125,-0.6875 0,0 -0.18744,-0.04478 -0.40625,0.375 -0.21637,-0.412592 -0.375,-0.375 -0.375,-0.375 0,0 -0.20614,0.704725 -0.3125,0.6875 -0.18494,-0.02995 -0.37581,-0.798075 -0.5625,-0.84375 -0.84321,-0.206305 -1.7123,-0.543253 -2.5625,-0.8125 l 0.96875,1.15625 1.625,0.5625 -1.09375,0.0625 0.25,0.28125 1.21875,0.5 -0.75,0.03125 0.53125,0.65625 0.66601,-0.03125 -0.19729,0.5625 0.61925,0.810988 z"
         id="path4073"
         inkscape:connector-curvature="0"
         sodipodi:nodetypes="ccccccccccsscccsscccccccccccc" />
    </g>
    <g
       inkscape:groupmode="layer"
       id="layer7"
       inkscape:label="light"
       style="display:inline">
      <g
         id="g4175">
        <path
           sodipodi:nodetypes="cccccccccc"
           inkscape:connector-curvature="0"
           id="path4151"
           d="m 166.01109,41.041841 c -0.0326,0.0042 -1.16604,0.234899 -1.19854,0.239409 -4.21548,0.3178 -9.37867,5.938872 -10.4375,7.375 0.0222,-0.0074 0.0433,-0.01798 0.0625,-0.03125 0.0243,-0.01691 0.0456,-0.03818 0.0625,-0.0625 2.93725,-3.189878 5.9833,-5.561747 9.15625,-6.4375 -2.6516,1.695393 -5.20097,3.760879 -7.40625,7 -0.0165,0.02877 -0.0271,0.06085 -0.0312,0.09375 1.91071,-2.338619 6.71501,-6.243868 8.84365,-7.5 z"
           style="font-size:medium;font-style:normal;font-variant:normal;font-weight:normal;font-stretch:normal;text-indent:0;text-align:start;text-decoration:none;line-height:normal;letter-spacing:normal;word-spacing:normal;text-transform:none;direction:ltr;block-progression:tb;writing-mode:lr-tb;text-anchor:start;baseline-shift:baseline;color:#000000;fill:#7b2e2f;fill-opacity:1;stroke:none;stroke-width:0.5;marker:none;visibility:visible;display:inline;overflow:visible;enable-background:accumulate;font-family:Sans;-inkscape-font-specification:Sans" />
        <path
           sodipodi:nodetypes="ccccc"
           inkscape:connector-curvature="0"
           id="path4153"
           d="m 163.34385,43.6875 c -0.0113,0.0095 -0.0217,0.01994 -0.0312,0.03125 -0.67317,1.153298 -1.24679,1.412888 -1.9375,2 -0.0113,0.0095 -0.0217,0.01994 -0.0312,0.03125 1.54365,-0.514716 1.73783,-1.262076 1.9999,-2.0625 z"
           style="font-size:medium;font-style:normal;font-variant:normal;font-weight:normal;font-stretch:normal;text-indent:0;text-align:start;text-decoration:none;line-height:normal;letter-spacing:normal;word-spacing:normal;text-transform:none;direction:ltr;block-progression:tb;writing-mode:lr-tb;text-anchor:start;baseline-shift:baseline;color:#000000;fill:#7b2e2f;fill-opacity:1;stroke:none;stroke-width:0.5;marker:none;visibility:visible;display:inline;overflow:visible;enable-background:accumulate;font-family:Sans;-inkscape-font-specification:Sans" />
        <path
           sodipodi:nodetypes="cccccccccc"
           inkscape:connector-curvature="0"
           id="path4155"
           d="m 165.34375,42.96875 c -0.0549,0.02478 -0.10022,0.07011 -0.125,0.125 -0.0113,0.0095 -0.0217,0.01994 -0.0312,0.03125 -1.25831,4.223904 -4.27813,7.125723 -7.59375,9.84375 4.90706,-2.641355 7.37238,-7.412684 8.0936,-9.6875 0.003,-0.02072 0.003,-0.04178 0,-0.0625 7.8e-4,-0.08801 -0.0488,-0.174741 -0.125,-0.21875 -0.0288,-0.01649 -0.0608,-0.02718 -0.0937,-0.03125 -0.0408,-0.01053 -0.0842,-0.01053 -0.125,0 z"
           style="font-size:medium;font-style:normal;font-variant:normal;font-weight:normal;font-stretch:normal;text-indent:0;text-align:start;text-decoration:none;line-height:normal;letter-spacing:normal;word-spacing:normal;text-transform:none;direction:ltr;block-progression:tb;writing-mode:lr-tb;text-anchor:start;baseline-shift:baseline;color:#000000;fill:#7b2e2f;fill-opacity:1;stroke:none;stroke-width:0.5;marker:none;visibility:visible;display:inline;overflow:visible;enable-background:accumulate;font-family:Sans;-inkscape-font-specification:Sans" />
        <path
           sodipodi:nodetypes="ccccccc"
           inkscape:connector-curvature="0"
           id="path4157"
           d="m 157.23786,46.566372 c -0.0389,0.02211 -0.0716,0.05487 -0.0937,0.09375 -1.30927,0.844853 -2.61537,3.748217 -2.67541,4.152378 0.0389,-0.02212 0.0716,-0.05487 0.0937,-0.09375 6.5e-4,-0.0104 6.5e-4,-0.02085 0,-0.03125 0.56568,-1.817386 2.58671,-3.898175 2.67536,-4.121128 z"
           style="font-size:medium;font-style:normal;font-variant:normal;font-weight:normal;font-stretch:normal;text-indent:0;text-align:start;text-decoration:none;line-height:normal;letter-spacing:normal;word-spacing:normal;text-transform:none;direction:ltr;block-progression:tb;writing-mode:lr-tb;text-anchor:start;baseline-shift:baseline;color:#000000;fill:#7b2e2f;fill-opacity:1;stroke:none;stroke-width:0.5;marker:none;visibility:visible;display:inline;overflow:visible;enable-background:accumulate;font-family:Sans;-inkscape-font-specification:Sans" />
      </g>
      <g
         id="g4181"
         transform="matrix(-1,0,0,1,337.20151,0)">
        <path
           style="font-size:medium;font-style:normal;font-variant:normal;font-weight:normal;font-stretch:normal;text-indent:0;text-align:start;text-decoration:none;line-height:normal;letter-spacing:normal;word-spacing:normal;text-transform:none;direction:ltr;block-progression:tb;writing-mode:lr-tb;text-anchor:start;baseline-shift:baseline;color:#000000;fill:#7b2e2f;fill-opacity:1;stroke:none;stroke-width:0.5;marker:none;visibility:visible;display:inline;overflow:visible;enable-background:accumulate;font-family:Sans;-inkscape-font-specification:Sans"
           d="m 166.01109,41.041841 c -0.0326,0.0042 -1.16604,0.234899 -1.19854,0.239409 -4.21548,0.3178 -9.37867,5.938872 -10.4375,7.375 0.0222,-0.0074 0.0433,-0.01798 0.0625,-0.03125 0.0243,-0.01691 0.0456,-0.03818 0.0625,-0.0625 2.93725,-3.189878 5.9833,-5.561747 9.15625,-6.4375 -2.6516,1.695393 -5.20097,3.760879 -7.40625,7 -0.0165,0.02877 -0.0271,0.06085 -0.0312,0.09375 1.91071,-2.338619 6.71501,-6.243868 8.84365,-7.5 z"
           id="path4183"
           inkscape:connector-curvature="0"
           sodipodi:nodetypes="cccccccccc" />
        <path
           style="font-size:medium;font-style:normal;font-variant:normal;font-weight:normal;font-stretch:normal;text-indent:0;text-align:start;text-decoration:none;line-height:normal;letter-spacing:normal;word-spacing:normal;text-transform:none;direction:ltr;block-progression:tb;writing-mode:lr-tb;text-anchor:start;baseline-shift:baseline;color:#000000;fill:#7b2e2f;fill-opacity:1;stroke:none;stroke-width:0.5;marker:none;visibility:visible;display:inline;overflow:visible;enable-background:accumulate;font-family:Sans;-inkscape-font-specification:Sans"
           d="m 163.34385,43.6875 c -0.0113,0.0095 -0.0217,0.01994 -0.0312,0.03125 -0.67317,1.153298 -1.24679,1.412888 -1.9375,2 -0.0113,0.0095 -0.0217,0.01994 -0.0312,0.03125 1.54365,-0.514716 1.73783,-1.262076 1.9999,-2.0625 z"
           id="path4185"
           inkscape:connector-curvature="0"
           sodipodi:nodetypes="ccccc" />
        <path
           style="font-size:medium;font-style:normal;font-variant:normal;font-weight:normal;font-stretch:normal;text-indent:0;text-align:start;text-decoration:none;line-height:normal;letter-spacing:normal;word-spacing:normal;text-transform:none;direction:ltr;block-progression:tb;writing-mode:lr-tb;text-anchor:start;baseline-shift:baseline;color:#000000;fill:#7b2e2f;fill-opacity:1;stroke:none;stroke-width:0.5;marker:none;visibility:visible;display:inline;overflow:visible;enable-background:accumulate;font-family:Sans;-inkscape-font-specification:Sans"
           d="m 165.34375,42.96875 c -0.0549,0.02478 -0.10022,0.07011 -0.125,0.125 -0.0113,0.0095 -0.0217,0.01994 -0.0312,0.03125 -1.25831,4.223904 -4.27813,7.125723 -7.59375,9.84375 4.90706,-2.641355 7.37238,-7.412684 8.0936,-9.6875 0.003,-0.02072 0.003,-0.04178 0,-0.0625 7.8e-4,-0.08801 -0.0488,-0.174741 -0.125,-0.21875 -0.0288,-0.01649 -0.0608,-0.02718 -0.0937,-0.03125 -0.0408,-0.01053 -0.0842,-0.01053 -0.125,0 z"
           id="path4187"
           inkscape:connector-curvature="0"
           sodipodi:nodetypes="cccccccccc" />
        <path
           style="font-size:medium;font-style:normal;font-variant:normal;font-weight:normal;font-stretch:normal;text-indent:0;text-align:start;text-decoration:none;line-height:normal;letter-spacing:normal;word-spacing:normal;text-transform:none;direction:ltr;block-progression:tb;writing-mode:lr-tb;text-anchor:start;baseline-shift:baseline;color:#000000;fill:#7b2e2f;fill-opacity:1;stroke:none;stroke-width:0.5;marker:none;visibility:visible;display:inline;overflow:visible;enable-background:accumulate;font-family:Sans;-inkscape-font-specification:Sans"
           d="m 157.23786,46.566372 c -0.0389,0.02211 -0.0716,0.05487 -0.0937,0.09375 -1.30927,0.844853 -2.61537,3.748217 -2.67541,4.152378 0.0389,-0.02212 0.0716,-0.05487 0.0937,-0.09375 6.5e-4,-0.0104 6.5e-4,-0.02085 0,-0.03125 0.56568,-1.817386 2.58671,-3.898175 2.67536,-4.121128 z"
           id="path4189"
           inkscape:connector-curvature="0"
           sodipodi:nodetypes="ccccccc" />
      </g>
    </g>
  </g>
</svg>
