<?xml version="1.0" encoding="UTF-8" standalone="no"?>
<!-- Created with Inkscape (http://www.inkscape.org/) -->

<svg
   xmlns:dc="http://purl.org/dc/elements/1.1/"
   xmlns:cc="http://creativecommons.org/ns#"
   xmlns:rdf="http://www.w3.org/1999/02/22-rdf-syntax-ns#"
   xmlns:svg="http://www.w3.org/2000/svg"
   xmlns="http://www.w3.org/2000/svg"
   xmlns:xlink="http://www.w3.org/1999/xlink"
   xmlns:sodipodi="http://sodipodi.sourceforge.net/DTD/sodipodi-0.dtd"
   xmlns:inkscape="http://www.inkscape.org/namespaces/inkscape"
   version="1.1"
   width="56.693001"
   height="107.716"
   viewBox="0 0 56.693 107.716"
   id="svg2"
   xml:space="preserve"
   inkscape:version="0.48.2 r9819"
   sodipodi:docname="tlg-war-machine.svg"
   inkscape:export-filename="/Users/nickabalov/Documents/Bricks/Decals/designs/_requests/8-war-machine/tlg-war-machine.png"
   inkscape:export-xdpi="600"
   inkscape:export-ydpi="600"><sodipodi:namedview
   pagecolor="#ffffff"
   bordercolor="#666666"
   borderopacity="1"
   objecttolerance="10"
   gridtolerance="10"
   guidetolerance="10"
   inkscape:pageopacity="0"
   inkscape:pageshadow="2"
   inkscape:window-width="640"
   inkscape:window-height="480"
   id="namedview173"
   showgrid="false"
   inkscape:zoom="2.1909465"
   inkscape:cx="28.3465"
   inkscape:cy="53.858002"
   inkscape:window-x="352"
   inkscape:window-y="61"
   inkscape:window-maximized="0"
   inkscape:current-layer="svg2" /><metadata
   id="metadata326"><rdf:RDF><cc:Work
       rdf:about=""><dc:format>image/svg+xml</dc:format><dc:type
         rdf:resource="http://purl.org/dc/dcmitype/StillImage" /><dc:title></dc:title></cc:Work></rdf:RDF></metadata><defs
   id="defs324" />
<g
   id="base">
	<g
   id="g5">
		<rect
   width="22.693001"
   height="11.206"
   x="2.881"
   y="94.388"
   id="rect7"
   style="fill:#606062;stroke:#606062;stroke-width:0.56690001" />
		<rect
   width="22.702999"
   height="11.206"
   x="31.110001"
   y="94.388"
   id="rect9"
   style="fill:#606062;stroke:#606062;stroke-width:0.56690001" />
		<path
   d="M 2.879,51.973 H 25.576 V 94.408 H 2.879 V 51.973 z m 0,-7.084 v 7.068 H 53.813 V 44.889 H 2.879 z M 31.11,94.409 H 53.813 V 51.973 H 31.11 v 42.436 z"
   id="path11"
   style="fill:#606062;stroke:#606062;stroke-width:0.56690001" />
	</g>
	<path
   d="M 2.356,44.908 C 11.089,-2.386 7.699,2.229 16.624,2.052 h 23.443 c 8.929,0.177 5.536,-4.438 14.271,42.855 H 2.356 z"
   id="path13"
   style="fill:#606062;stroke:#606062;stroke-width:0.56690001" />
</g>
<g
   id="legs_1_">
	<g
   id="g16">
		<g
   id="g18">
			<g
   id="g20">
				<defs
   id="defs22">
					<path
   d="m 25.583,94.388 v 0.021 11.186 H 2.879 V 94.409 94.388 46.592 h 25.452 l 0.015,5.364 h -2.764 v 42.432 z"
   id="SVGID_1_" />
				</defs>
				<clipPath
   id="SVGID_2_">
					<use
   id="use26"
   style="overflow:visible"
   x="0"
   y="0"
   width="56.693001"
   height="107.716"
   xlink:href="#SVGID_1_" />
				</clipPath>
			</g>
			<g
   id="g28">
				<defs
   id="defs30">
					<path
   d="m 25.583,94.388 v 0.021 11.186 H 2.879 V 94.409 94.388 46.592 h 25.452 l 0.015,5.364 h -2.764 v 42.432 z"
   id="SVGID_3_" />
				</defs>
				<clipPath
   id="SVGID_4_">
					<use
   id="use34"
   style="overflow:visible"
   x="0"
   y="0"
   width="56.693001"
   height="107.716"
   xlink:href="#SVGID_3_" />
				</clipPath>
				<g
   clip-path="url(#SVGID_4_)"
   id="g36">
					<rect
   width="25.134001"
   height="5.474"
   x="3.2119999"
   y="46.099998"
   id="rect38"
   style="fill:#82837d" />
					<g
   id="g40">
						<polyline
   fill="none"
   stroke="#091724"
   stroke-width="0.8504"
   stroke-linejoin="round"
   points="28.346,50.241 22.261,50.241         18.636,47.491 17.074,48.553 17.074,50.653       "
   id="polyline42"
   style="fill:none;stroke:#091724;stroke-width:0.85039997;stroke-linejoin:round" />
						
							<line
   fill="none"
   stroke="#091724"
   stroke-width="0.8504"
   stroke-linejoin="round"
   x1="4.6989999"
   y1="44.908001"
   x2="9.8240004"
   y2="49.928001"
   id="line44"
   style="fill:none;stroke:#091724;stroke-width:0.85039997;stroke-linejoin:round" />
						<g
   id="g46">
							<path
   d="m 16.532,63.928 c 0.468,0 0.906,-0.379 0.975,-0.842 l 1.627,-11.033 c 0.068,-0.463 -0.256,-0.892 -0.72,-0.951 L 9.539,49.946 c -0.464,-0.06 -0.773,0.267 -0.688,0.727 l 2.314,12.42 c 0.085,0.46 0.538,0.836 1.006,0.836 h 4.361 z"
   id="path48"
   style="fill:#9fa6a7" />
							<path
   d="m 16.532,63.928 c 0.468,0 0.906,-0.379 0.975,-0.842 l 1.627,-11.033 c 0.068,-0.463 -0.256,-0.892 -0.72,-0.951 L 9.539,49.946 c -0.464,-0.06 -0.773,0.267 -0.688,0.727 l 2.314,12.42 c 0.085,0.46 0.538,0.836 1.006,0.836 h 4.361 z"
   id="path50"
   style="fill:none;stroke:#091724" />
						</g>
						<path
   d="m 5.831,61.616 c 0.062,-0.991 3.467,-1.312 3.467,-1.312 0,0 0.218,3.647 1.096,4.5 0.629,0.609 7.047,0.609 7.676,0 0.878,-0.853 1.096,-4.5 1.096,-4.5 0,0 3.405,0.321 3.467,1.312 0.625,10.062 -3.188,17.25 -3.188,17.25 H 9.018 c 0,0 -3.812,-7.188 -3.187,-17.25 z"
   id="path52"
   style="fill:#9fa6a7;stroke:#091724;stroke-width:0.7087;stroke-linejoin:round" />
						<line
   fill="none"
   stroke="#091724"
   stroke-width="0.7087"
   x1="20.950001"
   y1="74.803001"
   x2="7.5120001"
   y2="74.803001"
   id="line54"
   style="fill:none;stroke:#091724;stroke-width:0.7087" />
						<polyline
   fill="none"
   stroke="#091724"
   stroke-width="0.7087"
   points="17.293,74.741 17.293,73.584 11.168,73.584         11.168,74.741       "
   id="polyline56"
   style="fill:none;stroke:#091724;stroke-width:0.7087" />
						<g
   id="g58">
							<polyline
   fill="none"
   stroke="#091724"
   stroke-width="0.7087"
   points="15.351,65.178 15.476,69.241 21.976,71.116        "
   id="polyline60"
   style="fill:none;stroke:#091724;stroke-width:0.7087" />
							<polyline
   fill="none"
   stroke="#091724"
   stroke-width="0.7087"
   points="13.109,65.178 12.984,69.241 6.484,71.116        "
   id="polyline62"
   style="fill:none;stroke:#091724;stroke-width:0.7087" />
						</g>
					</g>
					<g
   id="g64">
						<polygon
   points="17.873,76.866 20.392,79.385 20.392,83.575 17.873,86.094 10.552,86.094 8.033,83.575 8.033,79.385 10.552,76.866 "
   id="polygon66"
   style="fill:#606062" />
						<path
   d="M 20.392,82.358 H 8.033 v 1.217 l 0.184,0.184 h 11.992 l 0.184,-0.184 v -1.217 z m -1.583,2.8 H 9.616 L 8.217,83.759 h 11.992 l -1.4,1.399 z m 1.583,-5.6 v 1.399 H 8.033 v -1.399 h 12.359 z m -2.519,6.536 h -7.32 L 9.616,85.157 h 9.193 l -0.936,0.937 z m -9.84,-6.709 1.228,-1.228 h 9.904 l 1.228,1.228 v 0.173 H 8.033 v -0.173 z m 12.359,2.973 H 8.033 v -1.4 h 12.359 v 1.4 z m -9.84,-5.492 h 7.32 l 1.292,1.292 H 9.26 l 1.292,-1.292 z"
   id="path68"
   style="fill:none;stroke:#091724;stroke-width:0.7087;stroke-linejoin:round" />
					</g>
					<g
   id="g70">
						<polygon
   points="8.695,102.116 19.767,102.116 22.501,99.948 26.201,103.54 26.201,106.803 2.261,106.803 2.261,103.54 5.96,99.948 "
   id="polygon72"
   style="fill:#9fa6a7;stroke:#091724;stroke-linejoin:round" />
						<polygon
   points="18.666,97.928 19.767,102.116 8.695,102.116 9.796,97.928 "
   id="polygon74"
   style="fill:#9fa6a7;stroke:#091724;stroke-linejoin:round" />
						<polygon
   points="17.293,99.053 17.577,100.991 10.885,100.991 11.168,99.053 "
   id="polygon76"
   style="fill:#091724" />
					</g>
				</g>
			</g>
			<g
   id="g78">
				<defs
   id="defs80">
					<path
   d="m 25.583,94.388 v 0.021 11.186 H 2.879 V 94.409 94.388 46.592 h 25.452 l 0.015,5.364 h -2.764 v 42.432 z"
   id="SVGID_5_" />
				</defs>
				<clipPath
   id="SVGID_6_">
					<use
   id="use84"
   style="overflow:visible"
   x="0"
   y="0"
   width="56.693001"
   height="107.716"
   xlink:href="#SVGID_5_" />
				</clipPath>
			</g>
		</g>
		<g
   id="g86">
			<g
   id="g88">
				<defs
   id="defs90">
					<path
   d="m 31.11,94.388 v 0.021 11.186 H 53.813 V 94.409 94.388 46.592 H 28.361 l -0.015,5.364 h 2.764 v 42.432 z"
   id="SVGID_7_" />
				</defs>
				<clipPath
   id="SVGID_8_">
					<use
   id="use94"
   style="overflow:visible"
   x="0"
   y="0"
   width="56.693001"
   height="107.716"
   xlink:href="#SVGID_7_" />
				</clipPath>
			</g>
			<g
   id="g96">
				<defs
   id="defs98">
					<path
   d="m 31.11,94.388 v 0.021 11.186 H 53.813 V 94.409 94.388 46.592 H 28.361 l -0.015,5.364 h 2.764 v 42.432 z"
   id="SVGID_9_" />
				</defs>
				<clipPath
   id="SVGID_10_">
					<use
   id="use102"
   style="overflow:visible"
   x="0"
   y="0"
   width="56.693001"
   height="107.716"
   xlink:href="#SVGID_9_" />
				</clipPath>
				<g
   clip-path="url(#SVGID_10_)"
   id="g104">
					<rect
   width="25.134001"
   height="5.474"
   x="28.346001"
   y="46.099998"
   id="rect106"
   style="fill:#82837d" />
					<g
   id="g108">
						<polyline
   fill="none"
   stroke="#091724"
   stroke-width="0.8504"
   stroke-linejoin="round"
   points="28.346,50.241 34.431,50.241         38.056,47.491 39.619,48.553 39.619,50.653       "
   id="polyline110"
   style="fill:none;stroke:#091724;stroke-width:0.85039997;stroke-linejoin:round" />
						
							<line
   fill="none"
   stroke="#091724"
   stroke-width="0.8504"
   stroke-linejoin="round"
   x1="51.993999"
   y1="44.908001"
   x2="46.868999"
   y2="49.928001"
   id="line112"
   style="fill:none;stroke:#091724;stroke-width:0.85039997;stroke-linejoin:round" />
						<g
   id="g114">
							<path
   d="m 40.161,63.928 c -0.468,0 -0.906,-0.379 -0.975,-0.842 L 37.559,52.053 c -0.068,-0.463 0.256,-0.892 0.72,-0.951 l 8.875,-1.156 c 0.464,-0.06 0.773,0.267 0.688,0.727 l -2.314,12.42 c -0.085,0.46 -0.538,0.836 -1.006,0.836 h -4.361 z"
   id="path116"
   style="fill:#9fa6a7" />
							<path
   d="m 40.161,63.928 c -0.468,0 -0.906,-0.379 -0.975,-0.842 L 37.559,52.053 c -0.068,-0.463 0.256,-0.892 0.72,-0.951 l 8.875,-1.156 c 0.464,-0.06 0.773,0.267 0.688,0.727 l -2.314,12.42 c -0.085,0.46 -0.538,0.836 -1.006,0.836 h -4.361 z"
   id="path118"
   style="fill:none;stroke:#091724" />
						</g>
						<path
   d="m 50.862,61.616 c -0.062,-0.991 -3.467,-1.312 -3.467,-1.312 0,0 -0.218,3.647 -1.096,4.5 -0.629,0.609 -7.047,0.609 -7.676,0 -0.878,-0.853 -1.096,-4.5 -1.096,-4.5 0,0 -3.405,0.321 -3.467,1.312 -0.625,10.062 3.188,17.25 3.188,17.25 h 10.426 c 0,0 3.813,-7.188 3.188,-17.25 z"
   id="path120"
   style="fill:#9fa6a7;stroke:#091724;stroke-width:0.7087;stroke-linejoin:round" />
						<line
   fill="none"
   stroke="#091724"
   stroke-width="0.7087"
   x1="35.743"
   y1="74.803001"
   x2="49.18"
   y2="74.803001"
   id="line122"
   style="fill:none;stroke:#091724;stroke-width:0.7087" />
						<polyline
   fill="none"
   stroke="#091724"
   stroke-width="0.7087"
   points="39.399,74.741 39.399,73.584 45.524,73.584         45.524,74.741       "
   id="polyline124"
   style="fill:none;stroke:#091724;stroke-width:0.7087" />
						<g
   id="g126">
							<polyline
   fill="none"
   stroke="#091724"
   stroke-width="0.7087"
   points="41.341,65.178 41.216,69.241 34.716,71.116        "
   id="polyline128"
   style="fill:none;stroke:#091724;stroke-width:0.7087" />
							<polyline
   fill="none"
   stroke="#091724"
   stroke-width="0.7087"
   points="43.583,65.178 43.708,69.241 50.208,71.116        "
   id="polyline130"
   style="fill:none;stroke:#091724;stroke-width:0.7087" />
						</g>
					</g>
					<g
   id="g132">
						<polygon
   points="38.82,76.866 36.3,79.385 36.3,83.575 38.82,86.094 46.14,86.094 48.66,83.575 48.66,79.385 46.14,76.866 "
   id="polygon134"
   style="fill:#606062" />
						<path
   d="m 36.3,82.358 h 12.36 v 1.217 l -0.184,0.184 H 36.484 L 36.3,83.575 v -1.217 z m 1.583,2.8 h 9.193 l 1.399,-1.399 H 36.484 l 1.399,1.399 z m -1.583,-5.6 v 1.399 H 48.66 V 79.558 H 36.3 z m 2.52,6.536 h 7.32 l 0.937,-0.937 h -9.193 l 0.936,0.937 z m 9.84,-6.709 -1.228,-1.228 H 37.528 L 36.3,79.385 v 0.173 H 48.66 V 79.385 z M 36.3,82.358 h 12.36 v -1.4 H 36.3 v 1.4 z m 9.84,-5.492 h -7.32 l -1.292,1.292 h 9.904 L 46.14,76.866 z"
   id="path136"
   style="fill:none;stroke:#091724;stroke-width:0.7087;stroke-linejoin:round" />
					</g>
					<g
   id="g138">
						<polygon
   points="47.998,102.116 36.925,102.116 34.191,99.948 30.492,103.54 30.492,106.803 54.431,106.803 54.431,103.54 50.732,99.948 "
   id="polygon140"
   style="fill:#9fa6a7;stroke:#091724;stroke-linejoin:round" />
						<polygon
   points="38.027,97.928 36.925,102.116 47.998,102.116 46.896,97.928 "
   id="polygon142"
   style="fill:#9fa6a7;stroke:#091724;stroke-linejoin:round" />
						<polygon
   points="39.399,99.053 39.116,100.991 45.807,100.991 45.524,99.053 "
   id="polygon144"
   style="fill:#091724" />
					</g>
				</g>
			</g>
			<g
   id="g146">
				<defs
   id="defs148">
					<path
   d="m 31.11,94.388 v 0.021 11.186 H 53.813 V 94.409 94.388 46.592 H 28.361 l -0.015,5.364 h 2.764 v 42.432 z"
   id="SVGID_11_" />
				</defs>
				<clipPath
   id="SVGID_12_">
					<use
   id="use152"
   style="overflow:visible"
   x="0"
   y="0"
   width="56.693001"
   height="107.716"
   xlink:href="#SVGID_11_" />
				</clipPath>
			</g>
		</g>
	</g>
	<polygon
   points="14.916,59.315 16.193,59.5 15.269,60.401 15.487,61.672 14.345,61.072 13.203,61.672 13.421,60.401 12.497,59.5 13.773,59.315 14.345,58.158 "
   id="polygon154"
   style="fill:none;stroke:#f0f0ed;stroke-width:0.42519999" />
</g>
<g
   id="torso">
	<defs
   id="defs157">
		<path
   d="M 2.782,44.553 C 4.723,34.021 6.075,25.997 7.065,20.118 9.832,3.695 10.057,2.354 13.393,2.354 c 0.331,0 0.69,0.012 1.084,0.025 0.48,0.016 1.011,0.033 1.599,0.033 l 0.556,-0.005 23.437,0 0.549,0.005 c 0.588,0 1.118,-0.017 1.599,-0.033 0.394,-0.013 0.753,-0.025 1.085,-0.025 3.337,0 3.562,1.341 6.326,17.751 0.99,5.881 2.342,13.907 4.284,24.448 H 2.782 z"
   id="SVGID_13_" />
	</defs>
	<clipPath
   id="SVGID_14_">
		<use
   id="use161"
   style="overflow:visible"
   x="0"
   y="0"
   width="56.693001"
   height="107.716"
   xlink:href="#SVGID_13_" />
	</clipPath>
	<g
   clip-path="url(#SVGID_14_)"
   id="armor-base">
		<g
   id="g164">
			<g
   id="g166">
				<path
   d="M 56.346,45.741 28.355,45.803 V 29.397 h 3.366 l 15.344,6.281 6.612,-3.344 2.669,13.407 z M 51.815,13.053 41.278,15.397 40.003,14.865 40.565,10.396 42.034,8.99 43.455,0.597 H 13.238 l 1.421,8.393 1.469,1.406 0.562,4.469 -1.275,0.532 -10.538,-2.344 -1.015,14.749 4.422,3.282 12.594,-6.656 1.229,0.75 h 12.48 l 1.229,-0.75 12.594,6.656 4.422,-3.282 -1.017,-14.749 z M 9.627,35.678 3.015,32.334 0.346,45.741 28.337,45.803 V 29.397 H 24.971 L 9.627,35.678 z"
   id="path168"
   style="fill:#96a3a7" />
				<path
   d="m 53.41,33.113 0,0 -0.541,-0.285 -0.032,-0.858 -0.764,0.44 -2.402,-1.263 3.484,-2.964 c 0.114,-0.099 0.187,-0.252 0.175,-0.416 L 52.268,13.021 C 52.266,13 52.263,12.973 52.258,12.951 52.202,12.707 51.96,12.554 51.716,12.609 L 41.317,14.952 40.466,14.597 40.987,10.61 42.348,9.318 C 42.415,9.254 42.466,9.164 42.483,9.065 L 43.944,0.679 29.002,0.678 29.003,9.116 c 0,0.172 0.14,0.312 0.312,0.312 h 4.434 l 1.161,1.161 v 2.683 c 0,0.121 0.069,0.23 0.178,0.282 l 1.67,0.792 c -0.018,1.005 10e-4,1.954 0.099,2.522 0.68,3.959 4.766,8.169 12.662,12.748 l -0.802,1.03 -12.669,-6.66 C 35.924,23.921 35.77,23.91 35.631,23.969 l -0.076,0.032 -1.095,0.468 H 22.233 l -1.095,-0.468 -0.076,-0.032 c -0.139,-0.06 -0.293,-0.048 -0.417,0.017 l -12.669,6.66 -0.802,-1.03 c 7.896,-4.579 11.982,-8.788 12.662,-12.748 0.098,-0.568 0.116,-1.517 0.099,-2.522 l 1.67,-0.792 c 0.108,-0.052 0.178,-0.161 0.178,-0.282 v -2.683 l 1.161,-1.161 h 4.434 c 0.172,0 0.312,-0.14 0.312,-0.312 V 0.678 L 12.749,0.681 14.21,9.067 c 0.017,0.099 0.067,0.188 0.135,0.253 l 1.361,1.292 0.521,3.987 -0.851,0.355 -10.4,-2.344 C 4.732,12.555 4.49,12.708 4.434,12.952 4.429,12.974 4.426,13 4.424,13.022 L 3.363,27.768 c -0.012,0.163 0.061,0.316 0.175,0.416 L 7.022,31.148 4.62,32.41 3.856,31.97 3.824,32.828 3.283,33.113 v 0 c -0.244,0.128 -0.339,0.431 -0.21,0.675 0.129,0.245 0.431,0.338 0.675,0.21 L 3.781,33.98 3.773,34.199 9.044,37.011 9.669,36.24 25.253,29.636 h 6.188 l 15.584,6.604 0.625,0.771 5.271,-2.812 -0.008,-0.219 0.033,0.018 c 0.244,0.128 0.546,0.035 0.675,-0.21 0.128,-0.244 0.033,-0.546 -0.211,-0.675 z M 36.963,10.216 c -0.01,0.117 -0.137,1.761 -0.189,3.447 l -1.241,-0.589 v -2.615 c 0,-0.083 -0.032,-0.162 -0.091,-0.221 L 34.098,8.894 C 34.039,8.836 33.96,8.803 33.877,8.803 h -4.251 v -7.31 l 10.2,-0.024 -0.233,6.968 -2.483,1.539 c -0.085,0.052 -0.139,0.141 -0.147,0.24 z m 0.508,6.547 c -0.241,-1.404 0.039,-5.487 0.102,-6.34 l 2.49,-1.542 C 40.152,8.826 40.208,8.731 40.21,8.626 L 40.46,1.168 C 40.461,1.153 40.445,1.142 40.444,1.127 L 42.87,1.1 41.608,8.769 40.256,10.075 c -0.069,0.068 -0.121,0.163 -0.134,0.267 l -0.542,4.471 c -0.022,0.184 0.078,0.371 0.259,0.446 l 1.274,0.532 c 0.078,0.032 0.168,0.042 0.257,0.022 l 10.025,-2.202 0.919,13.974 -2.024,1.722 C 42.548,24.845 38.114,20.509 37.471,16.763 z M 27.066,1.494 v 7.31 h -4.251 c -0.083,0 -0.162,0.033 -0.221,0.091 l -1.344,1.344 c -0.059,0.059 -0.091,0.138 -0.091,0.221 v 2.615 l -1.241,0.589 c -0.053,-1.687 -0.18,-3.33 -0.189,-3.447 -0.008,-0.099 -0.062,-0.188 -0.146,-0.241 L 17.1,8.439 16.866,1.47 27.066,1.494 z M 6.402,29.306 4.378,27.584 5.296,13.61 15.321,15.812 c 0.089,0.02 0.179,0.01 0.257,-0.022 l 1.274,-0.532 c 0.181,-0.075 0.281,-0.262 0.259,-0.446 L 16.569,10.341 C 16.556,10.237 16.505,10.142 16.435,10.074 L 15.083,8.768 13.823,1.1 16.248,1.127 c -0.001,0.015 -0.017,0.026 -0.016,0.041 l 0.25,7.458 c 0.003,0.104 0.059,0.2 0.147,0.255 l 2.49,1.542 c 0.062,0.854 0.343,4.936 0.102,6.34 -0.642,3.746 -5.077,8.082 -12.819,12.543 z M 47.232,35.199 31.963,29.07 H 24.729 L 9.46,35.199 5.645,33 20.82,25.022 l 0.917,0.76 c 0.08,0.066 0.176,0.1 0.272,0.102 l 0.097,0.002 h 12.48 l 0.097,-0.002 c 0.097,-0.002 0.192,-0.036 0.272,-0.102 l 0.917,-0.76 15.175,7.978 -3.815,2.199 z"
   id="path170"
   style="fill:#96a3a7" />
			</g>
			<g
   id="g172">
				<path
   d="M 41.815,33.366 37.732,44.991 H 18.96 L 14.877,33.366 12.752,31.116 12.544,28.616 8.533,30.725 7.621,30.278 7.299,29.287 9.419,27.449 9.46,25.491 6.877,21.158 7.169,16.815 h 3.041 l 3.5,1.343 3.875,7.833 -1.458,0.969 1.458,1.24 1.75,-0.75 1.125,1.125 h 15.771 l 1.125,-1.125 1.75,0.75 1.458,-1.24 -1.458,-0.969 3.875,-7.833 3.5,-1.343 h 3.041 l 0.292,4.343 -2.583,4.333 0.041,1.958 2.12,1.838 -0.322,0.991 -0.912,0.447 -4.011,-2.109 -0.208,2.5 -2.124,2.25 z m 12.312,9 -10.979,-1.458 -1.875,4.083 13.479,0.062 -0.625,-2.687 z m -51.562,0 -0.625,2.687 13.479,-0.062 -1.875,-4.083 -10.979,1.458 z"
   id="path174"
   style="fill:#96a3a7" />
				<g
   id="g176">
					<path
   d="m 13.414,40.463 c 0.232,-0.031 0.502,0.117 0.602,0.329 l 2.284,4.875 c 0.1,0.212 0,0.446 -0.222,0.522 l -0.174,0.059 c -0.221,0.076 -0.48,-0.037 -0.576,-0.251 L 13.445,41.774 C 13.35,41.561 13.083,41.417 12.852,41.454 L 2.36,43.152 C 2.129,43.189 1.983,43.033 2.035,42.805 l 0.102,-0.441 c 0.052,-0.228 0.284,-0.44 0.516,-0.471 l 10.761,-1.43 z M 10.636,25.678 c 0.083,-0.007 0.316,-0.108 0.519,-0.225 0,0 0.348,-0.199 0.278,-1.072 C 11.392,23.874 10.16,21.142 9.721,21.017 9.133,20.848 8.953,20.875 8.953,20.875 8.722,20.91 8.484,20.983 8.425,21.038 c -0.059,0.055 0.041,0.413 0.142,0.624 l 1.67,3.504 c 0.1,0.211 0.316,0.519 0.399,0.512 z m 30.198,11.19 c -0.496,1.37 -0.739,2.813 -1.027,4.297 -0.074,0.371 -0.158,0.746 -0.264,1.122 -0.095,0.386 -0.287,0.787 -0.454,1.113 -0.352,0.683 -0.902,1.613 -0.902,1.613 -0.119,0.201 -0.38,0.267 -0.58,0.145 l 0,0 c -0.2,-0.122 -0.266,-0.386 -0.146,-0.587 0,0 0.539,-0.91 0.871,-1.557 0.055,-0.109 0.055,-0.109 0.055,-0.109 0.051,-0.109 -0.074,-0.293 -0.276,-0.411 L 33.92,40.067 c -0.203,-0.116 -0.527,-0.103 -0.722,0.028 l -0.828,0.569 c -0.19,0.136 -0.211,0.383 -0.047,0.549 l 2.726,2.754 c 0.164,0.166 0.141,0.194 -0.052,0.062 l -3.599,-2.467 c -0.192,-0.132 -0.542,-0.24 -0.775,-0.24 h -4.55 c -0.234,0 -0.583,0.108 -0.776,0.24 l -3.599,2.467 c -0.193,0.132 -0.216,0.104 -0.052,-0.062 l 2.726,-2.754 c 0.164,-0.166 0.143,-0.414 -0.047,-0.549 l -0.828,-0.569 c -0.194,-0.131 -0.519,-0.144 -0.722,-0.028 l -4.191,2.427 c -0.203,0.118 -0.327,0.302 -0.276,0.411 0,0 0,0 0.055,0.109 0.332,0.646 0.871,1.557 0.871,1.557 0.119,0.201 0.054,0.465 -0.146,0.587 h -0.001 c -0.2,0.122 -0.46,0.057 -0.58,-0.145 0,0 -0.551,-0.931 -0.902,-1.613 -0.167,-0.326 -0.359,-0.727 -0.454,-1.113 -0.105,-0.376 -0.189,-0.751 -0.264,-1.122 -0.288,-1.484 -0.531,-2.928 -1.027,-4.297 -0.245,-0.684 -0.538,-1.348 -0.888,-1.982 -0.353,-0.669 -0.985,-1.331 -0.985,-1.331 -0.162,-0.169 -0.423,-0.417 -0.581,-0.55 -0.158,-0.133 -0.677,-0.715 -0.811,-0.908 0,0 -0.288,-0.416 -0.349,-0.817 -0.127,-0.702 -0.075,-1.605 -0.075,-1.605 0.014,-0.233 -0.144,-0.335 -0.351,-0.226 l -2.812,1.488 c -0.207,0.109 -0.41,0.216 -0.451,0.238 -0.041,0.022 -0.108,0.026 -0.148,0.01 -0.04,-0.016 -0.074,-0.029 -0.074,-0.03 0,-0.001 -0.078,-0.034 -0.173,-0.076 C 8.067,31.037 7.743,30.863 7.651,30.809 7.559,30.755 7.234,30.316 7.142,30.101 c 0,0 -0.194,-0.454 -0.121,-0.735 0.111,-0.427 0.772,-0.881 1.113,-1.161 0.328,-0.278 0.587,-0.562 0.587,-0.562 0.157,-0.173 0.315,-0.503 0.35,-0.735 0,0 0.044,-0.292 -0.018,-0.689 C 8.994,25.798 8.886,25.372 8.753,24.955 8.484,24.122 8.109,23.312 7.644,22.575 7.181,21.857 6.223,21.125 6.223,21.125 6.037,20.983 5.939,20.717 6.005,20.533 c 0.066,-0.184 0.272,-0.217 0.458,-0.076 0,0 1.26,0.961 1.778,1.737 0.504,0.798 0.897,1.651 1.187,2.545 0.143,0.448 0.245,0.967 0.245,0.967 0.045,0.229 0.109,0.606 0.142,0.838 l -0.13,0.734 c -0.04,0.23 -0.087,0.439 -0.105,0.463 -0.018,0.025 0.1,-0.004 0.303,-0.12 l 2.532,-1.592 c 0.195,-0.129 0.271,-0.408 0.168,-0.618 0,0 -1.139,-2.346 -1.7,-3.624 C 10.304,20.47 9.758,19.225 9.445,18.893 9.175,18.607 7.674,18.477 7.674,18.477 7.441,18.457 7.253,18.313 7.256,18.157 7.259,18.001 7.453,17.88 7.687,17.888 c 0,0 1.644,0.056 2.171,0.616 0.381,0.404 0.895,1.573 1.545,3.054 0.588,1.337 1.253,2.852 1.977,4.17 0.065,0.119 0.038,0.267 -0.066,0.354 -1.632,1.36 -5.008,3.035 -5.008,3.035 -0.209,0.104 -0.42,0.208 -0.467,0.23 -0.047,0.023 -0.149,0.179 -0.129,0.277 0,0 0,0 0.023,0.083 0.041,0.144 0.041,0.144 0.041,0.144 0.059,0.119 0.182,0.285 0.274,0.369 0,0 0,0 0.127,0.071 C 8.26,30.34 8.26,30.34 8.26,30.34 8.364,30.386 8.617,30.329 8.821,30.214 L 16.3,25.985 c 0.204,-0.115 0.297,-0.386 0.207,-0.602 0,0 -0.701,-1.687 -1.15,-2.717 -0.511,-1.16 -1.026,-2.33 -1.604,-3.431 -0.14,-0.26 -0.205,-0.358 -0.205,-0.358 -0.129,-0.195 -0.273,-0.381 -0.319,-0.413 -0.046,-0.032 -0.29,-0.166 -0.401,-0.224 -0.111,-0.058 -0.376,-0.188 -0.588,-0.287 0,0 -0.751,-0.353 -1.328,-0.59 C 10.617,17.252 10.529,17.226 10.529,17.226 10.305,17.159 9.983,17.093 9.813,17.08 9.643,17.067 9,17.03 8.766,17.019 L 7.713,16.974 C 7.48,16.964 7.294,16.764 7.301,16.531 7.308,16.298 7.505,16.113 7.739,16.121 l 1.07,0.037 c 0.233,0.008 0.616,0.024 0.85,0.035 0,0 0.214,0.01 0.553,0.042 0.434,0.04 0.642,0.134 0.642,0.134 0.213,0.096 0.564,0.248 0.78,0.338 l 1.003,0.44 c 0.213,0.097 0.487,0.228 0.609,0.29 0.122,0.062 0.284,0.143 0.36,0.178 0.076,0.035 0.483,0.442 0.615,0.635 0,0 0.173,0.252 0.344,0.547 0.618,1.152 1.142,2.314 1.67,3.482 0.522,1.169 1.358,3.13 1.358,3.13 0.092,0.215 0.041,0.535 -0.114,0.71 l -0.375,0.426 c -0.155,0.176 -0.168,0.474 -0.029,0.662 l 0.312,0.425 c 0.139,0.188 0.424,0.259 0.635,0.158 l 4.699,-2.272 c 0.21,-0.102 0.222,-0.082 0.024,0.044 l -2.632,1.68 c -0.197,0.126 -0.211,0.323 -0.03,0.437 0.181,0.114 0.848,0.416 1.082,0.416 h 14.378 c 0.233,0 0.572,-0.094 0.752,-0.209 0.18,-0.115 0.496,-0.517 0.299,-0.643 l -2.632,-1.68 c -0.197,-0.126 -0.187,-0.146 0.024,-0.044 l 4.699,2.272 c 0.211,0.102 0.496,0.031 0.635,-0.158 l 0.312,-0.425 c 0.139,-0.188 0.126,-0.486 -0.029,-0.662 L 39.228,26.12 c -0.155,-0.176 -0.206,-0.495 -0.114,-0.71 0,0 0.836,-1.961 1.358,-3.13 0.528,-1.168 1.052,-2.33 1.67,-3.482 0.171,-0.295 0.344,-0.547 0.344,-0.547 0.132,-0.193 0.319,-0.407 0.417,-0.477 0.097,-0.069 0.436,-0.274 0.559,-0.337 0.122,-0.062 0.396,-0.192 0.608,-0.29 l 1.003,-0.44 c 0.216,-0.09 0.567,-0.242 0.78,-0.338 0,0 0.208,-0.094 0.642,-0.134 0.339,-0.032 0.553,-0.042 0.553,-0.042 0.233,-0.011 0.616,-0.027 0.85,-0.035 l 1.07,-0.037 c 0.233,-0.008 0.431,0.176 0.438,0.41 0.007,0.234 -0.179,0.433 -0.412,0.443 l -1.053,0.045 c -0.233,0.01 -0.567,0.026 -0.742,0.037 -0.175,0.01 -0.797,0.103 -1.021,0.17 0,0 -0.088,0.026 -0.383,0.137 -0.577,0.237 -1.328,0.59 -1.328,0.59 -0.212,0.099 -0.477,0.229 -0.588,0.287 -0.111,0.058 -0.268,0.145 -0.347,0.193 -0.08,0.048 -0.244,0.249 -0.374,0.444 0,0 -0.065,0.099 -0.205,0.358 -0.578,1.101 -1.094,2.271 -1.604,3.431 -0.449,1.03 -1.15,2.717 -1.15,2.717 -0.09,0.216 0.004,0.487 0.207,0.602 l 7.479,4.229 c 0.203,0.115 0.456,0.172 0.561,0.126 0,0 0,0 0.085,-0.049 0.127,-0.071 0.127,-0.071 0.127,-0.071 0.093,-0.084 0.216,-0.25 0.274,-0.369 0,0 0,0 0.041,-0.144 0.023,-0.083 0.023,-0.083 0.023,-0.083 0.02,-0.098 -0.021,-0.21 -0.09,-0.249 -0.069,-0.039 -0.298,-0.155 -0.507,-0.259 0,0 -3.376,-1.674 -5.008,-3.035 -0.104,-0.087 -0.132,-0.235 -0.066,-0.354 0.724,-1.319 1.389,-2.833 1.977,-4.17 0.65,-1.481 1.164,-2.65 1.545,-3.054 0.527,-0.56 2.171,-0.616 2.171,-0.616 0.233,-0.008 0.428,0.113 0.431,0.269 0.003,0.156 -0.185,0.3 -0.418,0.32 0,0 -1.502,0.13 -1.771,0.416 -0.313,0.333 -0.859,1.577 -1.438,2.894 -0.562,1.277 -1.7,3.624 -1.7,3.624 -0.102,0.21 -0.026,0.488 0.169,0.618 l 2.532,1.592 c 0.203,0.116 0.354,0.191 0.335,0.168 -0.019,-0.023 -0.098,-0.281 -0.137,-0.511 L 46.89,26.543 c 0.033,-0.231 0.097,-0.608 0.142,-0.838 0,0 0.103,-0.519 0.245,-0.967 0.289,-0.894 0.683,-1.747 1.187,-2.545 0.519,-0.775 1.778,-1.737 1.778,-1.737 0.186,-0.142 0.392,-0.108 0.458,0.076 0.066,0.184 -0.032,0.45 -0.218,0.592 0,0 -0.958,0.732 -1.421,1.45 -0.466,0.737 -0.841,1.547 -1.109,2.38 -0.133,0.417 -0.241,0.842 -0.3,1.264 -0.062,0.397 -0.018,0.689 -0.018,0.689 0.035,0.231 0.192,0.562 0.35,0.735 0,0 0.259,0.284 0.587,0.562 0.341,0.28 1.002,0.734 1.113,1.161 0.073,0.281 -0.121,0.735 -0.121,0.735 -0.092,0.215 -0.244,0.461 -0.338,0.547 -0.094,0.086 -0.413,0.298 -0.505,0.346 -0.092,0.048 -0.351,0.161 -0.352,0.161 0,0 -0.033,0.014 -0.074,0.03 -0.04,0.016 -0.106,0.012 -0.148,-0.01 -0.041,-0.021 -0.243,-0.128 -0.45,-0.238 l -2.812,-1.488 c -0.207,-0.109 -0.365,-0.008 -0.352,0.226 0,0 0.053,0.903 -0.074,1.605 -0.061,0.402 -0.349,0.817 -0.349,0.817 -0.133,0.192 -0.373,0.475 -0.533,0.628 -0.16,0.153 -0.696,0.661 -0.858,0.83 0,0 -0.633,0.662 -0.985,1.331 -0.36,0.635 -0.653,1.299 -0.899,1.983 z m -2.892,-8.235 c -0.233,-0.018 -0.294,0.107 -0.134,0.278 l 3.722,4 c 0.16,0.171 0.423,0.173 0.584,0.004 0,0 0.116,-0.121 0.325,-0.306 0.285,-0.252 0.566,-0.484 0.782,-0.729 0.224,-0.248 0.34,-0.468 0.411,-0.802 0.123,-0.575 0.106,-1.434 0.106,-1.434 -0.004,-0.234 -0.175,-0.52 -0.378,-0.634 l -2.348,-1.327 c -0.203,-0.115 -0.509,-0.077 -0.678,0.084 l -0.713,0.679 c -0.169,0.162 -0.498,0.278 -0.731,0.26 l -0.948,-0.073 z m -19.057,0.278 c 0.159,-0.171 0.099,-0.296 -0.134,-0.278 l -0.949,0.074 c -0.233,0.018 -0.562,-0.099 -0.731,-0.26 L 16.358,27.768 C 16.189,27.606 15.884,27.569 15.68,27.684 l -2.348,1.327 c -0.204,0.115 -0.374,0.4 -0.378,0.634 0,0 -0.016,0.858 0.107,1.434 0.071,0.334 0.188,0.554 0.411,0.802 0.216,0.245 0.497,0.476 0.782,0.729 0.209,0.185 0.325,0.306 0.325,0.306 0.162,0.169 0.425,0.167 0.584,-0.004 l 3.722,-4.001 z m -3.075,5.736 c 0.091,0.194 0.303,0.219 0.47,0.056 l 5.521,-5.385 c 0.167,-0.163 0.113,-0.297 -0.121,-0.297 h -0.402 c -0.234,0 -0.563,0.133 -0.731,0.295 l -4.704,4.551 c -0.168,0.163 -0.253,0.388 -0.188,0.5 0,0 0,0 0.062,0.109 0.093,0.171 0.093,0.171 0.093,0.171 z m 23.974,2.814 c 0.057,-0.227 -0.066,-0.503 -0.272,-0.613 L 33.934,33.857 C 33.728,33.747 33.403,33.766 33.21,33.9 l -0.845,0.593 c -0.192,0.134 -0.219,0.385 -0.061,0.557 l 2.754,2.997 c 0.158,0.172 0.135,0.198 -0.052,0.058 L 31.392,35.391 C 31.205,35.25 30.861,35.136 30.627,35.136 h -4.562 c -0.234,0 -0.578,0.115 -0.765,0.255 l -3.614,2.714 c -0.187,0.141 -0.21,0.115 -0.052,-0.058 l 2.755,-2.997 c 0.158,-0.172 0.131,-0.423 -0.061,-0.557 L 23.482,33.9 c -0.191,-0.134 -0.517,-0.154 -0.723,-0.043 l -5.578,2.991 c -0.207,0.11 -0.329,0.386 -0.272,0.613 0,0 0.559,2.243 0.81,3.535 0.062,0.308 0.108,0.491 0.108,0.491 0.057,0.227 0.271,0.32 0.476,0.208 l 4.309,-2.366 c 0.204,-0.114 0.374,-0.209 0.376,-0.21 0.002,-10e-4 0.119,-0.029 0.257,-0.061 0,0 0,0 0.111,0.078 0.691,0.482 1.772,1.13 1.772,1.13 0.201,0.12 0.556,0.219 0.79,0.219 h 4.855 c 0.233,0 0.589,-0.099 0.789,-0.219 0,0 1.081,-0.647 1.772,-1.13 0.111,-0.078 0.111,-0.078 0.111,-0.078 0.139,0.032 0.254,0.06 0.258,0.061 0.003,10e-4 0.172,0.096 0.376,0.21 l 4.309,2.366 c 0.205,0.113 0.42,0.02 0.477,-0.208 0,0 0.046,-0.183 0.108,-0.491 0.252,-1.292 0.811,-3.535 0.811,-3.535 z m 0.656,-1.87 c 0.079,-0.177 0.007,-0.456 -0.16,-0.62 L 34.494,29.319 C 34.327,29.155 33.999,29.022 33.765,29.022 H 32.72 c -0.233,0 -0.295,0.141 -0.137,0.313 l 2.787,3.03 c 0.158,0.172 0.137,0.195 -0.047,0.052 l -4.021,-3.134 c -0.184,-0.144 -0.526,-0.261 -0.76,-0.261 h -4.394 c -0.234,0 -0.576,0.118 -0.761,0.261 l -4.02,3.134 c -0.185,0.144 -0.206,0.121 -0.047,-0.052 l 2.787,-3.03 c 0.159,-0.172 0.097,-0.313 -0.137,-0.313 h -1.044 c -0.234,0 -0.562,0.134 -0.729,0.297 l -5.785,5.652 c -0.167,0.164 -0.24,0.442 -0.161,0.62 0.079,0.178 0.44,0.564 0.648,0.458 l 5.715,-2.928 c 0.208,-0.106 0.433,-0.206 0.5,-0.221 0.067,-0.015 0.234,0.043 0.236,0.044 10e-4,0 0.165,0.103 0.363,0.227 l 1.423,0.889 c 0.199,0.124 0.552,0.225 0.786,0.225 h 4.845 c 0.233,0 0.587,-0.102 0.785,-0.225 l 1.424,-0.889 c 0.198,-0.124 0.361,-0.226 0.363,-0.227 0.001,-0.001 0.058,-0.018 0.125,-0.037 0.067,-0.019 0.402,0.107 0.611,0.214 l 5.715,2.928 c 0.21,0.106 0.571,-0.281 0.65,-0.458 z m -0.028,-0.887 c 0.168,0.163 0.379,0.138 0.471,-0.056 0,0 0,0 0.094,-0.171 0.062,-0.109 0.062,-0.109 0.062,-0.109 0.064,-0.112 -0.021,-0.337 -0.188,-0.5 l -4.704,-4.551 c -0.168,-0.163 -0.497,-0.295 -0.73,-0.295 h -0.403 c -0.233,0 -0.288,0.134 -0.12,0.297 l 5.518,5.385 z m 14.144,7.66 c -0.052,-0.228 -0.284,-0.44 -0.517,-0.471 l -10.761,-1.43 c -0.232,-0.031 -0.503,0.117 -0.603,0.329 l -2.284,4.875 c -0.1,0.212 0,0.446 0.222,0.522 l 0.174,0.059 c 0.222,0.076 0.48,-0.037 0.575,-0.251 l 1.884,-4.223 c 0.095,-0.213 0.361,-0.357 0.593,-0.32 l 10.493,1.697 c 0.231,0.037 0.377,-0.119 0.325,-0.347 l -0.101,-0.44 z M 46.971,21.017 c -0.438,0.125 -1.671,2.857 -1.712,3.364 -0.069,0.873 0.278,1.072 0.278,1.072 0.203,0.116 0.437,0.217 0.519,0.225 0.083,0.007 0.299,-0.301 0.399,-0.512 l 1.671,-3.504 c 0.101,-0.211 0.183,-0.45 0.182,-0.531 0,-0.081 -0.338,-0.221 -0.568,-0.256 0,0 -0.181,-0.027 -0.769,0.142 z"
   id="path178"
   style="fill:#96a3a7" />
					<path
   d="m 13.414,40.463 c 0.232,-0.031 0.502,0.117 0.602,0.329 l 2.284,4.875 c 0.1,0.212 0,0.446 -0.222,0.522 l -0.174,0.059 c -0.221,0.076 -0.48,-0.037 -0.576,-0.251 L 13.445,41.774 C 13.35,41.561 13.083,41.417 12.852,41.454 L 2.36,43.152 C 2.129,43.189 1.983,43.033 2.035,42.805 l 0.102,-0.441 c 0.052,-0.228 0.284,-0.44 0.516,-0.471 l 10.761,-1.43 z M 10.636,25.678 c 0.083,-0.007 0.316,-0.108 0.519,-0.225 0,0 0.348,-0.199 0.278,-1.072 C 11.392,23.874 10.16,21.142 9.721,21.017 9.133,20.848 8.953,20.875 8.953,20.875 8.722,20.91 8.484,20.983 8.425,21.038 c -0.059,0.055 0.041,0.413 0.142,0.624 l 1.67,3.504 c 0.1,0.211 0.316,0.519 0.399,0.512 z m 30.198,11.19 c -0.496,1.37 -0.739,2.813 -1.027,4.297 -0.074,0.371 -0.158,0.746 -0.264,1.122 -0.095,0.386 -0.287,0.787 -0.454,1.113 -0.352,0.683 -0.902,1.613 -0.902,1.613 -0.119,0.201 -0.38,0.267 -0.58,0.145 l 0,0 c -0.2,-0.122 -0.266,-0.386 -0.146,-0.587 0,0 0.539,-0.91 0.871,-1.557 0.055,-0.109 0.055,-0.109 0.055,-0.109 0.051,-0.109 -0.074,-0.293 -0.276,-0.411 L 33.92,40.067 c -0.203,-0.116 -0.527,-0.103 -0.722,0.028 l -0.828,0.569 c -0.19,0.136 -0.211,0.383 -0.047,0.549 l 2.726,2.754 c 0.164,0.166 0.141,0.194 -0.052,0.062 l -3.599,-2.467 c -0.192,-0.132 -0.542,-0.24 -0.775,-0.24 h -4.55 c -0.234,0 -0.583,0.108 -0.776,0.24 l -3.599,2.467 c -0.193,0.132 -0.216,0.104 -0.052,-0.062 l 2.726,-2.754 c 0.164,-0.166 0.143,-0.414 -0.047,-0.549 l -0.828,-0.569 c -0.194,-0.131 -0.519,-0.144 -0.722,-0.028 l -4.191,2.427 c -0.203,0.118 -0.327,0.302 -0.276,0.411 0,0 0,0 0.055,0.109 0.332,0.646 0.871,1.557 0.871,1.557 0.119,0.201 0.054,0.465 -0.146,0.587 h -0.001 c -0.2,0.122 -0.46,0.057 -0.58,-0.145 0,0 -0.551,-0.931 -0.902,-1.613 -0.167,-0.326 -0.359,-0.727 -0.454,-1.113 -0.105,-0.376 -0.189,-0.751 -0.264,-1.122 -0.288,-1.484 -0.531,-2.928 -1.027,-4.297 -0.245,-0.684 -0.538,-1.348 -0.888,-1.982 -0.353,-0.669 -0.985,-1.331 -0.985,-1.331 -0.162,-0.169 -0.423,-0.417 -0.581,-0.55 -0.158,-0.133 -0.677,-0.715 -0.811,-0.908 0,0 -0.288,-0.416 -0.349,-0.817 -0.127,-0.702 -0.075,-1.605 -0.075,-1.605 0.014,-0.233 -0.144,-0.335 -0.351,-0.226 l -2.812,1.488 c -0.207,0.109 -0.41,0.216 -0.451,0.238 -0.041,0.022 -0.108,0.026 -0.148,0.01 -0.04,-0.016 -0.074,-0.029 -0.074,-0.03 0,-0.001 -0.078,-0.034 -0.173,-0.076 C 8.067,31.037 7.743,30.863 7.651,30.809 7.559,30.755 7.234,30.316 7.142,30.101 c 0,0 -0.194,-0.454 -0.121,-0.735 0.111,-0.427 0.772,-0.881 1.113,-1.161 0.328,-0.278 0.587,-0.562 0.587,-0.562 0.157,-0.173 0.315,-0.503 0.35,-0.735 0,0 0.044,-0.292 -0.018,-0.689 C 8.994,25.798 8.886,25.372 8.753,24.955 8.484,24.122 8.109,23.312 7.644,22.575 7.181,21.857 6.223,21.125 6.223,21.125 6.037,20.983 5.939,20.717 6.005,20.533 c 0.066,-0.184 0.272,-0.217 0.458,-0.076 0,0 1.26,0.961 1.778,1.737 0.504,0.798 0.897,1.651 1.187,2.545 0.143,0.448 0.245,0.967 0.245,0.967 0.045,0.229 0.109,0.606 0.142,0.838 l -0.13,0.734 c -0.04,0.23 -0.087,0.439 -0.105,0.463 -0.018,0.025 0.1,-0.004 0.303,-0.12 l 2.532,-1.592 c 0.195,-0.129 0.271,-0.408 0.168,-0.618 0,0 -1.139,-2.346 -1.7,-3.624 C 10.304,20.47 9.758,19.225 9.445,18.893 9.175,18.607 7.674,18.477 7.674,18.477 7.441,18.457 7.253,18.313 7.256,18.157 7.259,18.001 7.453,17.88 7.687,17.888 c 0,0 1.644,0.056 2.171,0.616 0.381,0.404 0.895,1.573 1.545,3.054 0.588,1.337 1.253,2.852 1.977,4.17 0.065,0.119 0.038,0.267 -0.066,0.354 -1.632,1.36 -5.008,3.035 -5.008,3.035 -0.209,0.104 -0.42,0.208 -0.467,0.23 -0.047,0.023 -0.149,0.179 -0.129,0.277 0,0 0,0 0.023,0.083 0.041,0.144 0.041,0.144 0.041,0.144 0.059,0.119 0.182,0.285 0.274,0.369 0,0 0,0 0.127,0.071 C 8.26,30.34 8.26,30.34 8.26,30.34 8.364,30.386 8.617,30.329 8.821,30.214 L 16.3,25.985 c 0.204,-0.115 0.297,-0.386 0.207,-0.602 0,0 -0.701,-1.687 -1.15,-2.717 -0.511,-1.16 -1.026,-2.33 -1.604,-3.431 -0.14,-0.26 -0.205,-0.358 -0.205,-0.358 -0.129,-0.195 -0.273,-0.381 -0.319,-0.413 -0.046,-0.032 -0.29,-0.166 -0.401,-0.224 -0.111,-0.058 -0.376,-0.188 -0.588,-0.287 0,0 -0.751,-0.353 -1.328,-0.59 C 10.617,17.252 10.529,17.226 10.529,17.226 10.305,17.159 9.983,17.093 9.813,17.08 9.643,17.067 9,17.03 8.766,17.019 L 7.713,16.974 C 7.48,16.964 7.294,16.764 7.301,16.531 7.308,16.298 7.505,16.113 7.739,16.121 l 1.07,0.037 c 0.233,0.008 0.616,0.024 0.85,0.035 0,0 0.214,0.01 0.553,0.042 0.434,0.04 0.642,0.134 0.642,0.134 0.213,0.096 0.564,0.248 0.78,0.338 l 1.003,0.44 c 0.213,0.097 0.487,0.228 0.609,0.29 0.122,0.062 0.284,0.143 0.36,0.178 0.076,0.035 0.483,0.442 0.615,0.635 0,0 0.173,0.252 0.344,0.547 0.618,1.152 1.142,2.314 1.67,3.482 0.522,1.169 1.358,3.13 1.358,3.13 0.092,0.215 0.041,0.535 -0.114,0.71 l -0.375,0.426 c -0.155,0.176 -0.168,0.474 -0.029,0.662 l 0.312,0.425 c 0.139,0.188 0.424,0.259 0.635,0.158 l 4.699,-2.272 c 0.21,-0.102 0.222,-0.082 0.024,0.044 l -2.632,1.68 c -0.197,0.126 -0.211,0.323 -0.03,0.437 0.181,0.114 0.848,0.416 1.082,0.416 h 14.378 c 0.233,0 0.572,-0.094 0.752,-0.209 0.18,-0.115 0.496,-0.517 0.299,-0.643 l -2.632,-1.68 c -0.197,-0.126 -0.187,-0.146 0.024,-0.044 l 4.699,2.272 c 0.211,0.102 0.496,0.031 0.635,-0.158 l 0.312,-0.425 c 0.139,-0.188 0.126,-0.486 -0.029,-0.662 L 39.228,26.12 c -0.155,-0.176 -0.206,-0.495 -0.114,-0.71 0,0 0.836,-1.961 1.358,-3.13 0.528,-1.168 1.052,-2.33 1.67,-3.482 0.171,-0.295 0.344,-0.547 0.344,-0.547 0.132,-0.193 0.319,-0.407 0.417,-0.477 0.097,-0.069 0.436,-0.274 0.559,-0.337 0.122,-0.062 0.396,-0.192 0.608,-0.29 l 1.003,-0.44 c 0.216,-0.09 0.567,-0.242 0.78,-0.338 0,0 0.208,-0.094 0.642,-0.134 0.339,-0.032 0.553,-0.042 0.553,-0.042 0.233,-0.011 0.616,-0.027 0.85,-0.035 l 1.07,-0.037 c 0.233,-0.008 0.431,0.176 0.438,0.41 0.007,0.234 -0.179,0.433 -0.412,0.443 l -1.053,0.045 c -0.233,0.01 -0.567,0.026 -0.742,0.037 -0.175,0.01 -0.797,0.103 -1.021,0.17 0,0 -0.088,0.026 -0.383,0.137 -0.577,0.237 -1.328,0.59 -1.328,0.59 -0.212,0.099 -0.477,0.229 -0.588,0.287 -0.111,0.058 -0.268,0.145 -0.347,0.193 -0.08,0.048 -0.244,0.249 -0.374,0.444 0,0 -0.065,0.099 -0.205,0.358 -0.578,1.101 -1.094,2.271 -1.604,3.431 -0.449,1.03 -1.15,2.717 -1.15,2.717 -0.09,0.216 0.004,0.487 0.207,0.602 l 7.479,4.229 c 0.203,0.115 0.456,0.172 0.561,0.126 0,0 0,0 0.085,-0.049 0.127,-0.071 0.127,-0.071 0.127,-0.071 0.093,-0.084 0.216,-0.25 0.274,-0.369 0,0 0,0 0.041,-0.144 0.023,-0.083 0.023,-0.083 0.023,-0.083 0.02,-0.098 -0.021,-0.21 -0.09,-0.249 -0.069,-0.039 -0.298,-0.155 -0.507,-0.259 0,0 -3.376,-1.674 -5.008,-3.035 -0.104,-0.087 -0.132,-0.235 -0.066,-0.354 0.724,-1.319 1.389,-2.833 1.977,-4.17 0.65,-1.481 1.164,-2.65 1.545,-3.054 0.527,-0.56 2.171,-0.616 2.171,-0.616 0.233,-0.008 0.428,0.113 0.431,0.269 0.003,0.156 -0.185,0.3 -0.418,0.32 0,0 -1.502,0.13 -1.771,0.416 -0.313,0.333 -0.859,1.577 -1.438,2.894 -0.562,1.277 -1.7,3.624 -1.7,3.624 -0.102,0.21 -0.026,0.488 0.169,0.618 l 2.532,1.592 c 0.203,0.116 0.354,0.191 0.335,0.168 -0.019,-0.023 -0.098,-0.281 -0.137,-0.511 L 46.89,26.543 c 0.033,-0.231 0.097,-0.608 0.142,-0.838 0,0 0.103,-0.519 0.245,-0.967 0.289,-0.894 0.683,-1.747 1.187,-2.545 0.519,-0.775 1.778,-1.737 1.778,-1.737 0.186,-0.142 0.392,-0.108 0.458,0.076 0.066,0.184 -0.032,0.45 -0.218,0.592 0,0 -0.958,0.732 -1.421,1.45 -0.466,0.737 -0.841,1.547 -1.109,2.38 -0.133,0.417 -0.241,0.842 -0.3,1.264 -0.062,0.397 -0.018,0.689 -0.018,0.689 0.035,0.231 0.192,0.562 0.35,0.735 0,0 0.259,0.284 0.587,0.562 0.341,0.28 1.002,0.734 1.113,1.161 0.073,0.281 -0.121,0.735 -0.121,0.735 -0.092,0.215 -0.244,0.461 -0.338,0.547 -0.094,0.086 -0.413,0.298 -0.505,0.346 -0.092,0.048 -0.351,0.161 -0.352,0.161 0,0 -0.033,0.014 -0.074,0.03 -0.04,0.016 -0.106,0.012 -0.148,-0.01 -0.041,-0.021 -0.243,-0.128 -0.45,-0.238 l -2.812,-1.488 c -0.207,-0.109 -0.365,-0.008 -0.352,0.226 0,0 0.053,0.903 -0.074,1.605 -0.061,0.402 -0.349,0.817 -0.349,0.817 -0.133,0.192 -0.373,0.475 -0.533,0.628 -0.16,0.153 -0.696,0.661 -0.858,0.83 0,0 -0.633,0.662 -0.985,1.331 -0.36,0.635 -0.653,1.299 -0.899,1.983 z m -2.892,-8.235 c -0.233,-0.018 -0.294,0.107 -0.134,0.278 l 3.722,4 c 0.16,0.171 0.423,0.173 0.584,0.004 0,0 0.116,-0.121 0.325,-0.306 0.285,-0.252 0.566,-0.484 0.782,-0.729 0.224,-0.248 0.34,-0.468 0.411,-0.802 0.123,-0.575 0.106,-1.434 0.106,-1.434 -0.004,-0.234 -0.175,-0.52 -0.378,-0.634 l -2.348,-1.327 c -0.203,-0.115 -0.509,-0.077 -0.678,0.084 l -0.713,0.679 c -0.169,0.162 -0.498,0.278 -0.731,0.26 l -0.948,-0.073 z m -19.057,0.278 c 0.159,-0.171 0.099,-0.296 -0.134,-0.278 l -0.949,0.074 c -0.233,0.018 -0.562,-0.099 -0.731,-0.26 L 16.358,27.768 C 16.189,27.606 15.884,27.569 15.68,27.684 l -2.348,1.327 c -0.204,0.115 -0.374,0.4 -0.378,0.634 0,0 -0.016,0.858 0.107,1.434 0.071,0.334 0.188,0.554 0.411,0.802 0.216,0.245 0.497,0.476 0.782,0.729 0.209,0.185 0.325,0.306 0.325,0.306 0.162,0.169 0.425,0.167 0.584,-0.004 l 3.722,-4.001 z m -3.075,5.736 c 0.091,0.194 0.303,0.219 0.47,0.056 l 5.521,-5.385 c 0.167,-0.163 0.113,-0.297 -0.121,-0.297 h -0.402 c -0.234,0 -0.563,0.133 -0.731,0.295 l -4.704,4.551 c -0.168,0.163 -0.253,0.388 -0.188,0.5 0,0 0,0 0.062,0.109 0.093,0.171 0.093,0.171 0.093,0.171 z m 23.974,2.814 c 0.057,-0.227 -0.066,-0.503 -0.272,-0.613 L 33.934,33.857 C 33.728,33.747 33.403,33.766 33.21,33.9 l -0.845,0.593 c -0.192,0.134 -0.219,0.385 -0.061,0.557 l 2.754,2.997 c 0.158,0.172 0.135,0.198 -0.052,0.058 L 31.392,35.391 C 31.205,35.25 30.861,35.136 30.627,35.136 h -4.562 c -0.234,0 -0.578,0.115 -0.765,0.255 l -3.614,2.714 c -0.187,0.141 -0.21,0.115 -0.052,-0.058 l 2.755,-2.997 c 0.158,-0.172 0.131,-0.423 -0.061,-0.557 L 23.482,33.9 c -0.191,-0.134 -0.517,-0.154 -0.723,-0.043 l -5.578,2.991 c -0.207,0.11 -0.329,0.386 -0.272,0.613 0,0 0.559,2.243 0.81,3.535 0.062,0.308 0.108,0.491 0.108,0.491 0.057,0.227 0.271,0.32 0.476,0.208 l 4.309,-2.366 c 0.204,-0.114 0.374,-0.209 0.376,-0.21 0.002,-10e-4 0.119,-0.029 0.257,-0.061 0,0 0,0 0.111,0.078 0.691,0.482 1.772,1.13 1.772,1.13 0.201,0.12 0.556,0.219 0.79,0.219 h 4.855 c 0.233,0 0.589,-0.099 0.789,-0.219 0,0 1.081,-0.647 1.772,-1.13 0.111,-0.078 0.111,-0.078 0.111,-0.078 0.139,0.032 0.254,0.06 0.258,0.061 0.003,10e-4 0.172,0.096 0.376,0.21 l 4.309,2.366 c 0.205,0.113 0.42,0.02 0.477,-0.208 0,0 0.046,-0.183 0.108,-0.491 0.252,-1.292 0.811,-3.535 0.811,-3.535 z m 0.656,-1.87 c 0.079,-0.177 0.007,-0.456 -0.16,-0.62 L 34.494,29.319 C 34.327,29.155 33.999,29.022 33.765,29.022 H 32.72 c -0.233,0 -0.295,0.141 -0.137,0.313 l 2.787,3.03 c 0.158,0.172 0.137,0.195 -0.047,0.052 l -4.021,-3.134 c -0.184,-0.144 -0.526,-0.261 -0.76,-0.261 h -4.394 c -0.234,0 -0.576,0.118 -0.761,0.261 l -4.02,3.134 c -0.185,0.144 -0.206,0.121 -0.047,-0.052 l 2.787,-3.03 c 0.159,-0.172 0.097,-0.313 -0.137,-0.313 h -1.044 c -0.234,0 -0.562,0.134 -0.729,0.297 l -5.785,5.652 c -0.167,0.164 -0.24,0.442 -0.161,0.62 0.079,0.178 0.44,0.564 0.648,0.458 l 5.715,-2.928 c 0.208,-0.106 0.433,-0.206 0.5,-0.221 0.067,-0.015 0.234,0.043 0.236,0.044 10e-4,0 0.165,0.103 0.363,0.227 l 1.423,0.889 c 0.199,0.124 0.552,0.225 0.786,0.225 h 4.845 c 0.233,0 0.587,-0.102 0.785,-0.225 l 1.424,-0.889 c 0.198,-0.124 0.361,-0.226 0.363,-0.227 0.001,-0.001 0.058,-0.018 0.125,-0.037 0.067,-0.019 0.402,0.107 0.611,0.214 l 5.715,2.928 c 0.21,0.106 0.571,-0.281 0.65,-0.458 z m -0.028,-0.887 c 0.168,0.163 0.379,0.138 0.471,-0.056 0,0 0,0 0.094,-0.171 0.062,-0.109 0.062,-0.109 0.062,-0.109 0.064,-0.112 -0.021,-0.337 -0.188,-0.5 l -4.704,-4.551 c -0.168,-0.163 -0.497,-0.295 -0.73,-0.295 h -0.403 c -0.233,0 -0.288,0.134 -0.12,0.297 l 5.518,5.385 z m 14.144,7.66 c -0.052,-0.228 -0.284,-0.44 -0.517,-0.471 l -10.761,-1.43 c -0.232,-0.031 -0.503,0.117 -0.603,0.329 l -2.284,4.875 c -0.1,0.212 0,0.446 0.222,0.522 l 0.174,0.059 c 0.222,0.076 0.48,-0.037 0.575,-0.251 l 1.884,-4.223 c 0.095,-0.213 0.361,-0.357 0.593,-0.32 l 10.493,1.697 c 0.231,0.037 0.377,-0.119 0.325,-0.347 l -0.101,-0.44 z M 46.971,21.017 c -0.438,0.125 -1.671,2.857 -1.712,3.364 -0.069,0.873 0.278,1.072 0.278,1.072 0.203,0.116 0.437,0.217 0.519,0.225 0.083,0.007 0.299,-0.301 0.399,-0.512 l 1.671,-3.504 c 0.101,-0.211 0.183,-0.45 0.182,-0.531 0,-0.081 -0.338,-0.221 -0.568,-0.256 0,0 -0.181,-0.027 -0.769,0.142 z"
   id="path180"
   style="fill:#96a3a7" />
				</g>
			</g>
			<g
   id="g182">
				<polygon
   points="24.26,10.378 22.716,11.99 22.716,16.184 24.26,17.796 32.433,17.796 33.977,16.184 33.977,11.99 32.433,10.378 "
   id="polygon184"
   style="fill:#96a3a7" />
				<polygon
   points="32.311,13.664 33.146,13.664 33.146,12.35 32.09,11.247 24.604,11.247 23.547,12.35 23.547,13.664 24.381,13.664 24.381,14.51 23.547,14.51 23.547,15.824 24.604,16.927 32.09,16.927 33.146,15.824 33.146,14.51 32.311,14.51 "
   id="polygon186"
   style="fill:#96a3a7" />
			</g>
			<g
   id="g188">
				<path
   d="m 41.497,38.661 -0.419,0.651 5.156,0.204 -2.9,-3.71 -0.425,0.661 1.821,2.292 -3.233,-0.098 z m 0.393,-0.16 c -0.026,0 -0.053,-0.007 -0.077,-0.022 -0.065,-0.042 -0.084,-0.13 -0.042,-0.196 l 0.967,-1.5 c 0.043,-0.065 0.128,-0.084 0.196,-0.042 0.065,0.042 0.084,0.13 0.042,0.196 l -0.967,1.5 c -0.027,0.042 -0.072,0.064 -0.119,0.064 z m -26.694,0.16 0.419,0.651 -5.156,0.204 2.9,-3.71 0.425,0.661 -1.821,2.292 3.233,-0.098 z m -0.394,-0.16 c 0.026,0 0.053,-0.007 0.077,-0.022 0.065,-0.042 0.084,-0.13 0.042,-0.196 l -0.967,-1.5 c -0.043,-0.065 -0.128,-0.084 -0.196,-0.042 -0.065,0.042 -0.084,0.13 -0.042,0.196 l 0.967,1.5 c 0.027,0.042 0.072,0.064 0.119,0.064 z"
   id="path190"
   style="fill:#96a3a7" />
				<g
   id="g192">
					<g
   id="g194">
						<path
   d="m 11.166,18.756 0.201,0.392 c 0.051,0.099 0.084,0.177 0.098,0.233 0.014,0.056 0.017,0.113 0.009,0.171 -0.007,0.058 -0.028,0.109 -0.062,0.158 -0.034,0.048 -0.086,0.09 -0.154,0.125 -0.062,0.031 -0.124,0.047 -0.183,0.046 -0.059,-0.002 -0.111,-0.016 -0.158,-0.041 -0.047,-0.024 -0.092,-0.062 -0.134,-0.109 -0.041,-0.048 -0.085,-0.115 -0.13,-0.202 l -0.207,-0.402 0.72,-0.371 z m -0.012,0.276 -0.477,0.244 0.083,0.162 c 0.036,0.068 0.065,0.117 0.089,0.144 0.022,0.027 0.047,0.048 0.071,0.06 0.025,0.013 0.057,0.017 0.094,0.014 0.038,-0.003 0.083,-0.018 0.135,-0.045 0.053,-0.027 0.092,-0.055 0.115,-0.084 0.024,-0.029 0.037,-0.062 0.041,-0.1 0.003,-0.037 -0.002,-0.077 -0.018,-0.119 -0.012,-0.033 -0.039,-0.092 -0.083,-0.178 l -0.05,-0.098 z"
   id="path196"
   style="fill:#96a3a7" />
						<path
   d="m 11.491,21.157 -0.119,-0.232 0.115,-0.177 -0.219,-0.426 -0.209,-0.004 -0.117,-0.228 0.933,0.044 0.117,0.228 -0.501,0.795 z m 0.082,-0.541 0.192,-0.283 -0.342,-0.008 0.15,0.291 z"
   id="path198"
   style="fill:#96a3a7" />
						<path
   d="m 11.55,21.272 0.72,-0.369 0.107,0.208 -0.257,0.683 0.48,-0.247 0.103,0.2 -0.72,0.369 -0.11,-0.215 0.249,-0.67 -0.47,0.242 -0.102,-0.201 z"
   id="path200"
   style="fill:#96a3a7" />
						<path
   d="m 12.619,22.702 0.122,-0.063 0.238,0.463 -0.287,0.147 c -0.055,-0.031 -0.114,-0.084 -0.181,-0.158 -0.065,-0.074 -0.121,-0.154 -0.165,-0.24 -0.054,-0.104 -0.087,-0.205 -0.1,-0.3 -0.013,-0.095 -0.003,-0.181 0.03,-0.257 0.033,-0.076 0.088,-0.134 0.165,-0.174 0.079,-0.041 0.159,-0.052 0.24,-0.033 0.081,0.019 0.154,0.059 0.222,0.12 0.066,0.062 0.127,0.145 0.182,0.251 0.065,0.126 0.099,0.237 0.103,0.332 0.003,0.095 -0.024,0.17 -0.082,0.229 L 12.97,22.82 c 0.028,-0.034 0.042,-0.078 0.039,-0.131 -0.002,-0.053 -0.019,-0.107 -0.049,-0.167 -0.047,-0.092 -0.104,-0.155 -0.173,-0.191 -0.068,-0.037 -0.144,-0.034 -0.224,0.008 -0.087,0.044 -0.138,0.109 -0.151,0.193 -0.012,0.072 0.006,0.153 0.052,0.243 0.021,0.041 0.049,0.082 0.084,0.122 0.033,0.039 0.069,0.072 0.106,0.098 l 0.091,-0.047 -0.126,-0.246 z"
   id="path202"
   style="fill:#96a3a7" />
						<path
   d="m 12.695,23.499 0.72,-0.37 0.405,0.789 -0.121,0.062 -0.296,-0.575 -0.159,0.082 0.274,0.533 -0.121,0.063 -0.274,-0.534 -0.196,0.101 0.306,0.595 -0.121,0.062 -0.417,-0.808 z"
   id="path204"
   style="fill:#96a3a7" />
						<path
   d="m 13.205,24.489 0.72,-0.37 0.232,0.452 c 0.059,0.115 0.096,0.201 0.107,0.257 0.013,0.058 0.012,0.108 -0.004,0.157 -0.016,0.049 -0.046,0.084 -0.09,0.107 -0.057,0.028 -0.114,0.027 -0.174,-0.004 -0.06,-0.031 -0.117,-0.088 -0.171,-0.173 0.006,0.056 0.005,0.104 -10e-4,0.145 -0.007,0.042 -0.024,0.103 -0.054,0.184 l -0.074,0.201 -0.132,-0.256 0.077,-0.236 c 0.027,-0.085 0.043,-0.141 0.047,-0.168 0.004,-0.027 0.003,-0.054 -0.003,-0.079 -0.006,-0.025 -0.021,-0.062 -0.047,-0.112 l -0.023,-0.044 -0.301,0.154 -0.109,-0.215 z m 0.525,0 0.082,0.16 c 0.05,0.098 0.084,0.158 0.103,0.182 0.019,0.024 0.039,0.041 0.062,0.05 0.023,0.009 0.046,0.007 0.07,-0.005 0.022,-0.012 0.037,-0.029 0.042,-0.053 0.006,-0.023 0.005,-0.052 -0.005,-0.082 -0.008,-0.022 -0.035,-0.081 -0.085,-0.178 l -0.086,-0.168 -0.183,0.094 z"
   id="path206"
   style="fill:#96a3a7" />
					</g>
					<g
   id="g208">
						<path
   d="m 42.363,25.019 0.195,-0.395 c 0.051,-0.1 0.094,-0.172 0.131,-0.216 0.037,-0.044 0.082,-0.081 0.133,-0.109 0.051,-0.028 0.105,-0.043 0.164,-0.044 0.059,-10e-4 0.123,0.016 0.191,0.05 0.062,0.031 0.111,0.071 0.145,0.12 0.035,0.048 0.055,0.099 0.062,0.151 0.007,0.052 0.004,0.111 -0.01,0.172 -0.014,0.062 -0.041,0.137 -0.086,0.225 l -0.201,0.406 -0.724,-0.36 z m 0.23,-0.155 0.479,0.238 0.082,-0.162 c 0.033,-0.069 0.055,-0.122 0.062,-0.156 0.008,-0.035 0.01,-0.066 0.006,-0.093 -0.006,-0.027 -0.02,-0.055 -0.045,-0.084 -0.025,-0.028 -0.064,-0.056 -0.115,-0.081 -0.055,-0.027 -0.1,-0.042 -0.137,-0.043 -0.037,-0.002 -0.072,0.007 -0.104,0.025 -0.033,0.02 -0.062,0.048 -0.086,0.085 -0.02,0.029 -0.051,0.086 -0.096,0.173 l -0.046,0.098 z"
   id="path210"
   style="fill:#96a3a7" />
						<path
   d="m 44.105,23.332 -0.117,0.234 -0.211,0.012 -0.213,0.429 0.121,0.17 -0.115,0.23 -0.518,-0.777 0.113,-0.229 0.94,-0.069 z m -0.484,0.255 -0.344,0.014 0.197,0.279 0.147,-0.293 z"
   id="path212"
   style="fill:#96a3a7" />
						<path
   d="m 44.162,23.215 -0.725,-0.36 0.104,-0.21 0.701,-0.198 -0.482,-0.24 0.1,-0.201 0.725,0.359 -0.107,0.218 -0.688,0.196 0.473,0.235 -0.101,0.201 z"
   id="path214"
   style="fill:#96a3a7" />
						<path
   d="m 44.677,21.508 -0.123,-0.061 0.232,-0.465 0.289,0.144 c 0.008,0.062 0,0.141 -0.02,0.238 -0.021,0.097 -0.053,0.189 -0.096,0.275 -0.053,0.105 -0.113,0.192 -0.184,0.258 -0.068,0.067 -0.143,0.109 -0.225,0.128 -0.08,0.018 -0.16,0.009 -0.238,-0.03 -0.078,-0.04 -0.135,-0.098 -0.168,-0.174 -0.033,-0.076 -0.045,-0.159 -0.035,-0.25 0.01,-0.091 0.041,-0.188 0.094,-0.294 0.062,-0.128 0.133,-0.221 0.207,-0.279 0.074,-0.06 0.152,-0.082 0.232,-0.07 l -0.078,0.228 c -0.047,-0.002 -0.09,0.013 -0.131,0.046 -0.041,0.033 -0.076,0.079 -0.105,0.139 -0.045,0.092 -0.062,0.176 -0.051,0.253 0.012,0.077 0.057,0.136 0.139,0.176 0.088,0.043 0.17,0.045 0.246,0.006 0.064,-0.034 0.119,-0.095 0.164,-0.186 0.021,-0.042 0.039,-0.088 0.049,-0.14 0.012,-0.051 0.018,-0.099 0.016,-0.144 L 44.8,21.26 44.677,21.508 z"
   id="path216"
   style="fill:#96a3a7" />
						<path
   d="m 45.275,20.973 -0.725,-0.36 0.395,-0.794 0.121,0.061 -0.287,0.579 0.16,0.08 0.268,-0.538 0.123,0.061 -0.268,0.538 0.197,0.098 0.297,-0.599 0.123,0.061 -0.404,0.813 z"
   id="path218"
   style="fill:#96a3a7" />
						<path
   d="m 45.771,19.976 -0.727,-0.359 0.227,-0.455 c 0.059,-0.116 0.105,-0.196 0.143,-0.24 0.039,-0.044 0.082,-0.073 0.129,-0.089 0.049,-0.017 0.096,-0.013 0.141,0.009 0.057,0.028 0.09,0.075 0.1,0.143 0.01,0.065 -0.002,0.146 -0.037,0.241 0.041,-0.037 0.08,-0.065 0.117,-0.085 0.037,-0.02 0.096,-0.041 0.18,-0.064 l 0.205,-0.06 -0.129,0.258 -0.234,0.078 c -0.086,0.028 -0.141,0.049 -0.164,0.062 -0.025,0.013 -0.045,0.029 -0.061,0.049 -0.018,0.02 -0.039,0.055 -0.062,0.104 l -0.023,0.045 0.303,0.15 -0.108,0.213 z m -0.313,-0.423 0.08,-0.161 c 0.049,-0.098 0.076,-0.162 0.086,-0.19 0.008,-0.029 0.01,-0.056 0.002,-0.08 -0.006,-0.024 -0.021,-0.042 -0.045,-0.053 -0.024,-0.011 -0.045,-0.013 -0.068,-0.003 -0.021,0.01 -0.043,0.027 -0.062,0.053 -0.014,0.019 -0.045,0.076 -0.092,0.173 l -0.084,0.169 0.183,0.092 z"
   id="path220"
   style="fill:#96a3a7" />
					</g>
				</g>
				<g
   id="g222">
					<path
   d="m 43.145,11.981 c 0.033,-0.119 0.157,-0.207 0.373,-0.262 0.202,-0.05 0.451,-0.064 0.745,-0.043 0.342,0.025 0.677,0.101 1.003,0.226 0.468,0.181 0.692,0.411 0.675,0.69 -0.003,0.044 -0.018,0.099 -0.041,0.161 -0.043,0.101 -0.066,0.156 -0.068,0.167 -0.03,0.064 -0.074,0.171 -0.134,0.321 -0.047,0.122 -0.215,0.21 -0.504,0.269 -0.271,0.055 -0.577,0.071 -0.92,0.045 -0.34,-0.025 -0.626,-0.085 -0.861,-0.179 -0.264,-0.104 -0.417,-0.238 -0.46,-0.402 -0.001,-0.011 -0.002,-0.021 -0.002,-0.03 0.002,-0.017 0.01,-0.038 0.025,-0.062 0.015,-0.024 0.021,-0.042 0.018,-0.055 -0.019,-0.073 -0.026,-0.148 -0.021,-0.225 0.005,-0.087 0.03,-0.191 0.071,-0.315 0.062,-0.182 0.095,-0.284 0.101,-0.306 z m 0.189,0.483 c -0.007,0.119 0.11,0.222 0.354,0.306 0.195,0.067 0.427,0.11 0.688,0.129 0.211,0.015 0.438,0.005 0.683,-0.029 0.244,-0.034 0.368,-0.077 0.372,-0.126 0.005,-0.096 -0.129,-0.186 -0.403,-0.268 -0.243,-0.069 -0.525,-0.117 -0.849,-0.14 -0.237,-0.018 -0.433,-0.017 -0.585,0.002 -0.169,0.023 -0.256,0.065 -0.26,0.126 z"
   id="path224"
   style="fill:#96a3a7" />
					<path
   d="m 43.272,9.941 c 0.033,-0.119 0.157,-0.207 0.373,-0.263 0.202,-0.049 0.451,-0.063 0.745,-0.042 0.341,0.025 0.676,0.101 1.002,0.227 0.469,0.18 0.693,0.41 0.675,0.69 -0.002,0.044 -0.016,0.099 -0.04,0.161 -0.043,0.101 -0.066,0.156 -0.068,0.167 -0.03,0.064 -0.075,0.171 -0.134,0.321 -0.046,0.121 -0.215,0.211 -0.504,0.269 -0.272,0.055 -0.578,0.07 -0.92,0.045 -0.341,-0.024 -0.627,-0.084 -0.862,-0.178 -0.264,-0.104 -0.417,-0.238 -0.46,-0.403 -10e-4,-0.01 -10e-4,-0.02 -10e-4,-0.03 10e-4,-0.016 0.01,-0.037 0.025,-0.061 0.016,-0.024 0.021,-0.042 0.017,-0.055 -0.019,-0.074 -0.025,-0.148 -0.021,-0.224 0.005,-0.087 0.03,-0.191 0.07,-0.315 0.063,-0.185 0.097,-0.287 0.103,-0.309 z m 0.189,0.484 c -0.007,0.119 0.11,0.221 0.353,0.305 0.197,0.067 0.427,0.109 0.688,0.128 0.21,0.016 0.438,0.006 0.683,-0.028 0.244,-0.034 0.368,-0.076 0.371,-0.125 0.006,-0.097 -0.128,-0.186 -0.402,-0.268 -0.243,-0.069 -0.526,-0.117 -0.85,-0.14 -0.237,-0.017 -0.432,-0.016 -0.584,0.002 -0.169,0.022 -0.255,0.064 -0.259,0.126 z"
   id="path226"
   style="fill:#96a3a7" />
					<path
   d="m 45.765,7.618 c 0.066,-0.003 0.11,0.046 0.132,0.148 -0.006,0.032 -0.009,0.079 -0.005,0.141 -0.003,0.045 0.021,0.188 0.072,0.429 0.052,0.27 0.104,0.471 0.155,0.604 0.015,0.036 0.032,0.069 0.058,0.099 0.023,0.03 0.036,0.049 0.035,0.057 0.003,0.037 -0.063,0.14 -0.198,0.309 C 45.984,9.452 45.952,9.5 45.916,9.547 45.88,9.594 45.842,9.617 45.799,9.617 45.782,9.616 45.641,9.497 45.371,9.261 45.041,8.971 44.764,8.745 44.541,8.583 44.187,8.331 43.903,8.188 43.69,8.155 c 0.062,0.199 0.214,0.404 0.457,0.616 0.011,0.015 0.031,0.026 0.062,0.032 0.031,0.006 0.052,0.015 0.062,0.025 0.029,0.027 0.041,0.064 0.038,0.111 C 44.304,9.02 44.261,9.116 44.181,9.227 44.153,9.274 44.125,9.323 44.097,9.37 44.065,9.427 44.036,9.456 44.013,9.457 43.959,9.458 43.863,9.39 43.72,9.249 43.569,9.099 43.443,8.936 43.342,8.76 43.217,8.549 43.159,8.365 43.169,8.211 43.173,8.151 43.194,8.097 43.232,8.045 43.271,7.994 43.311,7.944 43.35,7.898 43.49,7.706 43.619,7.586 43.736,7.54 43.76,7.532 43.79,7.529 43.826,7.532 c 0.16,0.012 0.414,0.123 0.763,0.333 0.329,0.199 0.612,0.407 0.851,0.624 C 45.422,8.409 45.394,8.3 45.357,8.16 45.351,8.144 45.337,8.118 45.315,8.078 45.3,8.052 45.294,8.028 45.298,8.006 45.309,7.947 45.379,7.868 45.507,7.768 45.636,7.669 45.722,7.62 45.765,7.618 z"
   id="path228"
   style="fill:#96a3a7" />
				</g>
				<g
   id="g230">
					<path
   d="M 29.688,21.539 V 18.87 h 1.913 v 0.452 h -1.068 v 0.631 h 0.888 v 0.452 h -0.888 v 1.134 h -0.845 z"
   id="path232"
   style="fill:#96a3a7" />
					<path
   d="M 32.07,21.539 V 18.87 h 1.913 v 0.452 h -1.068 v 0.631 h 0.888 v 0.452 h -0.888 v 1.134 H 32.07 z"
   id="path234"
   style="fill:#96a3a7" />
					<path
   d="m 29.635,22.571 v -0.6 h 0.612 l -0.612,0.6 z m 0,1.16 v -0.599 l 0.612,0.599 h -0.612 z"
   id="path236"
   style="fill:#96a3a7" />
					<path
   d="M 30.95,23.731 V 23.4 h -0.705 v -0.276 l 0.747,-1.044 h 0.277 v 1.043 h 0.214 V 23.4 h -0.214 v 0.331 H 30.95 z m 0,-0.608 v -0.562 l -0.396,0.562 h 0.396 z"
   id="path238"
   style="fill:#96a3a7" />
					<path
   d="M 32.288,23.731 V 23.4 H 31.583 V 23.124 L 32.33,22.08 h 0.277 v 1.043 h 0.214 V 23.4 h -0.214 v 0.331 h -0.319 z m 0,-0.608 v -0.562 l -0.396,0.562 h 0.396 z"
   id="path240"
   style="fill:#96a3a7" />
					<path
   d="m 34.097,22.488 -0.319,0.034 C 33.762,22.4 33.7,22.339 33.59,22.339 c -0.072,0 -0.132,0.031 -0.179,0.092 -0.048,0.061 -0.078,0.185 -0.09,0.372 0.041,-0.046 0.087,-0.081 0.138,-0.104 0.051,-0.023 0.106,-0.035 0.168,-0.035 0.135,0 0.252,0.049 0.353,0.147 0.101,0.098 0.15,0.229 0.15,0.392 0,0.173 -0.053,0.31 -0.159,0.408 -0.105,0.099 -0.237,0.148 -0.394,0.148 -0.173,0 -0.315,-0.064 -0.429,-0.193 -0.113,-0.128 -0.17,-0.341 -0.17,-0.638 0,-0.302 0.059,-0.519 0.177,-0.651 0.117,-0.133 0.269,-0.199 0.453,-0.199 0.127,0 0.234,0.034 0.322,0.101 0.087,0.07 0.143,0.172 0.167,0.309 z m -0.748,0.689 c 0,0.104 0.024,0.183 0.074,0.238 0.049,0.055 0.105,0.083 0.169,0.083 0.061,0 0.112,-0.023 0.152,-0.068 0.041,-0.046 0.062,-0.121 0.062,-0.225 0,-0.107 -0.022,-0.186 -0.066,-0.235 -0.044,-0.049 -0.099,-0.074 -0.164,-0.074 -0.062,0 -0.116,0.023 -0.16,0.07 -0.044,0.048 -0.067,0.118 -0.067,0.211 z"
   id="path242"
   style="fill:#96a3a7" />
				</g>
			</g>
		</g>
		<g
   id="g244">
			<g
   id="g246">
				<path
   d="M 56.346,45.741 28.355,45.803 V 29.397 h 3.366 l 15.344,6.281 6.612,-3.344 2.669,13.407 z M 51.815,13.053 41.278,15.397 40.003,14.865 40.565,10.396 42.034,8.99 43.455,0.597 H 13.238 l 1.421,8.393 1.469,1.406 0.562,4.469 -1.275,0.532 -10.538,-2.344 -1.015,14.749 4.422,3.282 12.594,-6.656 1.229,0.75 h 12.48 l 1.229,-0.75 12.594,6.656 4.422,-3.282 -1.017,-14.749 z M 9.627,35.678 3.015,32.334 0.346,45.741 28.337,45.803 V 29.397 H 24.971 L 9.627,35.678 z"
   id="path248"
   style="fill:#82837d" />
				<path
   d="m 53.41,33.113 0,0 -0.541,-0.285 -0.032,-0.858 -0.764,0.44 -2.402,-1.263 3.484,-2.964 c 0.114,-0.099 0.187,-0.252 0.175,-0.416 L 52.268,13.021 C 52.266,13 52.263,12.973 52.258,12.951 52.202,12.707 51.96,12.554 51.716,12.609 L 41.317,14.952 40.466,14.597 40.987,10.61 42.348,9.318 C 42.415,9.254 42.466,9.164 42.483,9.065 L 43.944,0.679 29.002,0.678 29.003,9.116 c 0,0.172 0.14,0.312 0.312,0.312 h 4.434 l 1.161,1.161 v 2.683 c 0,0.121 0.069,0.23 0.178,0.282 l 1.67,0.792 c -0.018,1.005 10e-4,1.954 0.099,2.522 0.68,3.959 4.766,8.169 12.662,12.748 l -0.802,1.03 -12.669,-6.66 C 35.924,23.921 35.77,23.91 35.631,23.969 l -0.076,0.032 -1.095,0.468 H 22.233 l -1.095,-0.468 -0.076,-0.032 c -0.139,-0.06 -0.293,-0.048 -0.417,0.017 l -12.669,6.66 -0.802,-1.03 c 7.896,-4.579 11.982,-8.788 12.662,-12.748 0.098,-0.568 0.116,-1.517 0.099,-2.522 l 1.67,-0.792 c 0.108,-0.052 0.178,-0.161 0.178,-0.282 v -2.683 l 1.161,-1.161 h 4.434 c 0.172,0 0.312,-0.14 0.312,-0.312 V 0.678 L 12.749,0.681 14.21,9.067 c 0.017,0.099 0.067,0.188 0.135,0.253 l 1.361,1.292 0.521,3.987 -0.851,0.355 -10.4,-2.344 C 4.732,12.555 4.49,12.708 4.434,12.952 4.429,12.974 4.426,13 4.424,13.022 L 3.363,27.768 c -0.012,0.163 0.061,0.316 0.175,0.416 L 7.022,31.148 4.62,32.41 3.856,31.97 3.824,32.828 3.283,33.113 v 0 c -0.244,0.128 -0.339,0.431 -0.21,0.675 0.129,0.245 0.431,0.338 0.675,0.21 L 3.781,33.98 3.773,34.199 9.044,37.011 9.669,36.24 25.253,29.636 h 6.188 l 15.584,6.604 0.625,0.771 5.271,-2.812 -0.008,-0.219 0.033,0.018 c 0.244,0.128 0.546,0.035 0.675,-0.21 0.128,-0.244 0.033,-0.546 -0.211,-0.675 z M 36.963,10.216 c -0.01,0.117 -0.137,1.761 -0.189,3.447 l -1.241,-0.589 v -2.615 c 0,-0.083 -0.032,-0.162 -0.091,-0.221 L 34.098,8.894 C 34.039,8.836 33.96,8.803 33.877,8.803 h -4.251 v -7.31 l 10.2,-0.024 -0.233,6.968 -2.483,1.539 c -0.085,0.052 -0.139,0.141 -0.147,0.24 z m 0.508,6.547 c -0.241,-1.404 0.039,-5.487 0.102,-6.34 l 2.49,-1.542 C 40.152,8.826 40.208,8.731 40.21,8.626 L 40.46,1.168 C 40.461,1.153 40.445,1.142 40.444,1.127 L 42.87,1.1 41.608,8.769 40.256,10.075 c -0.069,0.068 -0.121,0.163 -0.134,0.267 l -0.542,4.471 c -0.022,0.184 0.078,0.371 0.259,0.446 l 1.274,0.532 c 0.078,0.032 0.168,0.042 0.257,0.022 l 10.025,-2.202 0.919,13.974 -2.024,1.722 C 42.548,24.845 38.114,20.509 37.471,16.763 z M 27.066,1.494 v 7.31 h -4.251 c -0.083,0 -0.162,0.033 -0.221,0.091 l -1.344,1.344 c -0.059,0.059 -0.091,0.138 -0.091,0.221 v 2.615 l -1.241,0.589 c -0.053,-1.687 -0.18,-3.33 -0.189,-3.447 -0.008,-0.099 -0.062,-0.188 -0.146,-0.241 L 17.1,8.439 16.866,1.47 27.066,1.494 z M 6.402,29.306 4.378,27.584 5.296,13.61 15.321,15.812 c 0.089,0.02 0.179,0.01 0.257,-0.022 l 1.274,-0.532 c 0.181,-0.075 0.281,-0.262 0.259,-0.446 L 16.569,10.341 C 16.556,10.237 16.505,10.142 16.435,10.074 L 15.083,8.768 13.823,1.1 16.248,1.127 c -0.001,0.015 -0.017,0.026 -0.016,0.041 l 0.25,7.458 c 0.003,0.104 0.059,0.2 0.147,0.255 l 2.49,1.542 c 0.062,0.854 0.343,4.936 0.102,6.34 -0.642,3.746 -5.077,8.082 -12.819,12.543 z M 47.232,35.199 31.963,29.07 H 24.729 L 9.46,35.199 5.645,33 20.82,25.022 l 0.917,0.76 c 0.08,0.066 0.176,0.1 0.272,0.102 l 0.097,0.002 h 12.48 l 0.097,-0.002 c 0.097,-0.002 0.192,-0.036 0.272,-0.102 l 0.917,-0.76 15.175,7.978 -3.815,2.199 z"
   id="path250"
   style="fill:#091724" />
			</g>
			<g
   id="g252">
				<path
   d="M 41.815,33.366 37.732,44.991 H 18.96 L 14.877,33.366 12.752,31.116 12.544,28.616 8.533,30.725 7.621,30.278 7.299,29.287 9.419,27.449 9.46,25.491 6.877,21.158 7.169,16.815 h 3.041 l 3.5,1.343 3.875,7.833 -1.458,0.969 1.458,1.24 1.75,-0.75 1.125,1.125 h 15.771 l 1.125,-1.125 1.75,0.75 1.458,-1.24 -1.458,-0.969 3.875,-7.833 3.5,-1.343 h 3.041 l 0.292,4.343 -2.583,4.333 0.041,1.958 2.12,1.838 -0.322,0.991 -0.912,0.447 -4.011,-2.109 -0.208,2.5 -2.124,2.25 z m 12.312,9 -10.979,-1.458 -1.875,4.083 13.479,0.062 -0.625,-2.687 z m -51.562,0 -0.625,2.687 13.479,-0.062 -1.875,-4.083 -10.979,1.458 z"
   id="path254"
   style="fill:#9fa6a7" />
				<g
   id="g256">
					<path
   d="m 13.414,40.463 c 0.232,-0.031 0.502,0.117 0.602,0.329 l 2.284,4.875 c 0.1,0.212 0,0.446 -0.222,0.522 l -0.174,0.059 c -0.221,0.076 -0.48,-0.037 -0.576,-0.251 L 13.445,41.774 C 13.35,41.561 13.083,41.417 12.852,41.454 L 2.36,43.152 C 2.129,43.189 1.983,43.033 2.035,42.805 l 0.102,-0.441 c 0.052,-0.228 0.284,-0.44 0.516,-0.471 l 10.761,-1.43 z M 10.636,25.678 c 0.083,-0.007 0.316,-0.108 0.519,-0.225 0,0 0.348,-0.199 0.278,-1.072 C 11.392,23.874 10.16,21.142 9.721,21.017 9.133,20.848 8.953,20.875 8.953,20.875 8.722,20.91 8.484,20.983 8.425,21.038 c -0.059,0.055 0.041,0.413 0.142,0.624 l 1.67,3.504 c 0.1,0.211 0.316,0.519 0.399,0.512 z m 30.198,11.19 c -0.496,1.37 -0.739,2.813 -1.027,4.297 -0.074,0.371 -0.158,0.746 -0.264,1.122 -0.095,0.386 -0.287,0.787 -0.454,1.113 -0.352,0.683 -0.902,1.613 -0.902,1.613 -0.119,0.201 -0.38,0.267 -0.58,0.145 l 0,0 c -0.2,-0.122 -0.266,-0.386 -0.146,-0.587 0,0 0.539,-0.91 0.871,-1.557 0.055,-0.109 0.055,-0.109 0.055,-0.109 0.051,-0.109 -0.074,-0.293 -0.276,-0.411 L 33.92,40.067 c -0.203,-0.116 -0.527,-0.103 -0.722,0.028 l -0.828,0.569 c -0.19,0.136 -0.211,0.383 -0.047,0.549 l 2.726,2.754 c 0.164,0.166 0.141,0.194 -0.052,0.062 l -3.599,-2.467 c -0.192,-0.132 -0.542,-0.24 -0.775,-0.24 h -4.55 c -0.234,0 -0.583,0.108 -0.776,0.24 l -3.599,2.467 c -0.193,0.132 -0.216,0.104 -0.052,-0.062 l 2.726,-2.754 c 0.164,-0.166 0.143,-0.414 -0.047,-0.549 l -0.828,-0.569 c -0.194,-0.131 -0.519,-0.144 -0.722,-0.028 l -4.191,2.427 c -0.203,0.118 -0.327,0.302 -0.276,0.411 0,0 0,0 0.055,0.109 0.332,0.646 0.871,1.557 0.871,1.557 0.119,0.201 0.054,0.465 -0.146,0.587 h -0.001 c -0.2,0.122 -0.46,0.057 -0.58,-0.145 0,0 -0.551,-0.931 -0.902,-1.613 -0.167,-0.326 -0.359,-0.727 -0.454,-1.113 -0.105,-0.376 -0.189,-0.751 -0.264,-1.122 -0.288,-1.484 -0.531,-2.928 -1.027,-4.297 -0.245,-0.684 -0.538,-1.348 -0.888,-1.982 -0.353,-0.669 -0.985,-1.331 -0.985,-1.331 -0.162,-0.169 -0.423,-0.417 -0.581,-0.55 -0.158,-0.133 -0.677,-0.715 -0.811,-0.908 0,0 -0.288,-0.416 -0.349,-0.817 -0.127,-0.702 -0.075,-1.605 -0.075,-1.605 0.014,-0.233 -0.144,-0.335 -0.351,-0.226 l -2.812,1.488 c -0.207,0.109 -0.41,0.216 -0.451,0.238 -0.041,0.022 -0.108,0.026 -0.148,0.01 -0.04,-0.016 -0.074,-0.029 -0.074,-0.03 0,-0.001 -0.078,-0.034 -0.173,-0.076 C 8.067,31.037 7.743,30.863 7.651,30.809 7.559,30.755 7.234,30.316 7.142,30.101 c 0,0 -0.194,-0.454 -0.121,-0.735 0.111,-0.427 0.772,-0.881 1.113,-1.161 0.328,-0.278 0.587,-0.562 0.587,-0.562 0.157,-0.173 0.315,-0.503 0.35,-0.735 0,0 0.044,-0.292 -0.018,-0.689 C 8.994,25.798 8.886,25.372 8.753,24.955 8.484,24.122 8.109,23.312 7.644,22.575 7.181,21.857 6.223,21.125 6.223,21.125 6.037,20.983 5.939,20.717 6.005,20.533 c 0.066,-0.184 0.272,-0.217 0.458,-0.076 0,0 1.26,0.961 1.778,1.737 0.504,0.798 0.897,1.651 1.187,2.545 0.143,0.448 0.245,0.967 0.245,0.967 0.045,0.229 0.109,0.606 0.142,0.838 l -0.13,0.734 c -0.04,0.23 -0.087,0.439 -0.105,0.463 -0.018,0.025 0.1,-0.004 0.303,-0.12 l 2.532,-1.592 c 0.195,-0.129 0.271,-0.408 0.168,-0.618 0,0 -1.139,-2.346 -1.7,-3.624 C 10.304,20.47 9.758,19.225 9.445,18.893 9.175,18.607 7.674,18.477 7.674,18.477 7.441,18.457 7.253,18.313 7.256,18.157 7.259,18.001 7.453,17.88 7.687,17.888 c 0,0 1.644,0.056 2.171,0.616 0.381,0.404 0.895,1.573 1.545,3.054 0.588,1.337 1.253,2.852 1.977,4.17 0.065,0.119 0.038,0.267 -0.066,0.354 -1.632,1.36 -5.008,3.035 -5.008,3.035 -0.209,0.104 -0.42,0.208 -0.467,0.23 -0.047,0.023 -0.149,0.179 -0.129,0.277 0,0 0,0 0.023,0.083 0.041,0.144 0.041,0.144 0.041,0.144 0.059,0.119 0.182,0.285 0.274,0.369 0,0 0,0 0.127,0.071 C 8.26,30.34 8.26,30.34 8.26,30.34 8.364,30.386 8.617,30.329 8.821,30.214 L 16.3,25.985 c 0.204,-0.115 0.297,-0.386 0.207,-0.602 0,0 -0.701,-1.687 -1.15,-2.717 -0.511,-1.16 -1.026,-2.33 -1.604,-3.431 -0.14,-0.26 -0.205,-0.358 -0.205,-0.358 -0.129,-0.195 -0.273,-0.381 -0.319,-0.413 -0.046,-0.032 -0.29,-0.166 -0.401,-0.224 -0.111,-0.058 -0.376,-0.188 -0.588,-0.287 0,0 -0.751,-0.353 -1.328,-0.59 C 10.617,17.252 10.529,17.226 10.529,17.226 10.305,17.159 9.983,17.093 9.813,17.08 9.643,17.067 9,17.03 8.766,17.019 L 7.713,16.974 C 7.48,16.964 7.294,16.764 7.301,16.531 7.308,16.298 7.505,16.113 7.739,16.121 l 1.07,0.037 c 0.233,0.008 0.616,0.024 0.85,0.035 0,0 0.214,0.01 0.553,0.042 0.434,0.04 0.642,0.134 0.642,0.134 0.213,0.096 0.564,0.248 0.78,0.338 l 1.003,0.44 c 0.213,0.097 0.487,0.228 0.609,0.29 0.122,0.062 0.284,0.143 0.36,0.178 0.076,0.035 0.483,0.442 0.615,0.635 0,0 0.173,0.252 0.344,0.547 0.618,1.152 1.142,2.314 1.67,3.482 0.522,1.169 1.358,3.13 1.358,3.13 0.092,0.215 0.041,0.535 -0.114,0.71 l -0.375,0.426 c -0.155,0.176 -0.168,0.474 -0.029,0.662 l 0.312,0.425 c 0.139,0.188 0.424,0.259 0.635,0.158 l 4.699,-2.272 c 0.21,-0.102 0.222,-0.082 0.024,0.044 l -2.632,1.68 c -0.197,0.126 -0.211,0.323 -0.03,0.437 0.181,0.114 0.848,0.416 1.082,0.416 h 14.378 c 0.233,0 0.572,-0.094 0.752,-0.209 0.18,-0.115 0.496,-0.517 0.299,-0.643 l -2.632,-1.68 c -0.197,-0.126 -0.187,-0.146 0.024,-0.044 l 4.699,2.272 c 0.211,0.102 0.496,0.031 0.635,-0.158 l 0.312,-0.425 c 0.139,-0.188 0.126,-0.486 -0.029,-0.662 L 39.228,26.12 c -0.155,-0.176 -0.206,-0.495 -0.114,-0.71 0,0 0.836,-1.961 1.358,-3.13 0.528,-1.168 1.052,-2.33 1.67,-3.482 0.171,-0.295 0.344,-0.547 0.344,-0.547 0.132,-0.193 0.319,-0.407 0.417,-0.477 0.097,-0.069 0.436,-0.274 0.559,-0.337 0.122,-0.062 0.396,-0.192 0.608,-0.29 l 1.003,-0.44 c 0.216,-0.09 0.567,-0.242 0.78,-0.338 0,0 0.208,-0.094 0.642,-0.134 0.339,-0.032 0.553,-0.042 0.553,-0.042 0.233,-0.011 0.616,-0.027 0.85,-0.035 l 1.07,-0.037 c 0.233,-0.008 0.431,0.176 0.438,0.41 0.007,0.234 -0.179,0.433 -0.412,0.443 l -1.053,0.045 c -0.233,0.01 -0.567,0.026 -0.742,0.037 -0.175,0.01 -0.797,0.103 -1.021,0.17 0,0 -0.088,0.026 -0.383,0.137 -0.577,0.237 -1.328,0.59 -1.328,0.59 -0.212,0.099 -0.477,0.229 -0.588,0.287 -0.111,0.058 -0.268,0.145 -0.347,0.193 -0.08,0.048 -0.244,0.249 -0.374,0.444 0,0 -0.065,0.099 -0.205,0.358 -0.578,1.101 -1.094,2.271 -1.604,3.431 -0.449,1.03 -1.15,2.717 -1.15,2.717 -0.09,0.216 0.004,0.487 0.207,0.602 l 7.479,4.229 c 0.203,0.115 0.456,0.172 0.561,0.126 0,0 0,0 0.085,-0.049 0.127,-0.071 0.127,-0.071 0.127,-0.071 0.093,-0.084 0.216,-0.25 0.274,-0.369 0,0 0,0 0.041,-0.144 0.023,-0.083 0.023,-0.083 0.023,-0.083 0.02,-0.098 -0.021,-0.21 -0.09,-0.249 -0.069,-0.039 -0.298,-0.155 -0.507,-0.259 0,0 -3.376,-1.674 -5.008,-3.035 -0.104,-0.087 -0.132,-0.235 -0.066,-0.354 0.724,-1.319 1.389,-2.833 1.977,-4.17 0.65,-1.481 1.164,-2.65 1.545,-3.054 0.527,-0.56 2.171,-0.616 2.171,-0.616 0.233,-0.008 0.428,0.113 0.431,0.269 0.003,0.156 -0.185,0.3 -0.418,0.32 0,0 -1.502,0.13 -1.771,0.416 -0.313,0.333 -0.859,1.577 -1.438,2.894 -0.562,1.277 -1.7,3.624 -1.7,3.624 -0.102,0.21 -0.026,0.488 0.169,0.618 l 2.532,1.592 c 0.203,0.116 0.354,0.191 0.335,0.168 -0.019,-0.023 -0.098,-0.281 -0.137,-0.511 L 46.89,26.543 c 0.033,-0.231 0.097,-0.608 0.142,-0.838 0,0 0.103,-0.519 0.245,-0.967 0.289,-0.894 0.683,-1.747 1.187,-2.545 0.519,-0.775 1.778,-1.737 1.778,-1.737 0.186,-0.142 0.392,-0.108 0.458,0.076 0.066,0.184 -0.032,0.45 -0.218,0.592 0,0 -0.958,0.732 -1.421,1.45 -0.466,0.737 -0.841,1.547 -1.109,2.38 -0.133,0.417 -0.241,0.842 -0.3,1.264 -0.062,0.397 -0.018,0.689 -0.018,0.689 0.035,0.231 0.192,0.562 0.35,0.735 0,0 0.259,0.284 0.587,0.562 0.341,0.28 1.002,0.734 1.113,1.161 0.073,0.281 -0.121,0.735 -0.121,0.735 -0.092,0.215 -0.244,0.461 -0.338,0.547 -0.094,0.086 -0.413,0.298 -0.505,0.346 -0.092,0.048 -0.351,0.161 -0.352,0.161 0,0 -0.033,0.014 -0.074,0.03 -0.04,0.016 -0.106,0.012 -0.148,-0.01 -0.041,-0.021 -0.243,-0.128 -0.45,-0.238 l -2.812,-1.488 c -0.207,-0.109 -0.365,-0.008 -0.352,0.226 0,0 0.053,0.903 -0.074,1.605 -0.061,0.402 -0.349,0.817 -0.349,0.817 -0.133,0.192 -0.373,0.475 -0.533,0.628 -0.16,0.153 -0.696,0.661 -0.858,0.83 0,0 -0.633,0.662 -0.985,1.331 -0.36,0.635 -0.653,1.299 -0.899,1.983 z m -2.892,-8.235 c -0.233,-0.018 -0.294,0.107 -0.134,0.278 l 3.722,4 c 0.16,0.171 0.423,0.173 0.584,0.004 0,0 0.116,-0.121 0.325,-0.306 0.285,-0.252 0.566,-0.484 0.782,-0.729 0.224,-0.248 0.34,-0.468 0.411,-0.802 0.123,-0.575 0.106,-1.434 0.106,-1.434 -0.004,-0.234 -0.175,-0.52 -0.378,-0.634 l -2.348,-1.327 c -0.203,-0.115 -0.509,-0.077 -0.678,0.084 l -0.713,0.679 c -0.169,0.162 -0.498,0.278 -0.731,0.26 l -0.948,-0.073 z m -19.057,0.278 c 0.159,-0.171 0.099,-0.296 -0.134,-0.278 l -0.949,0.074 c -0.233,0.018 -0.562,-0.099 -0.731,-0.26 L 16.358,27.768 C 16.189,27.606 15.884,27.569 15.68,27.684 l -2.348,1.327 c -0.204,0.115 -0.374,0.4 -0.378,0.634 0,0 -0.016,0.858 0.107,1.434 0.071,0.334 0.188,0.554 0.411,0.802 0.216,0.245 0.497,0.476 0.782,0.729 0.209,0.185 0.325,0.306 0.325,0.306 0.162,0.169 0.425,0.167 0.584,-0.004 l 3.722,-4.001 z m -3.075,5.736 c 0.091,0.194 0.303,0.219 0.47,0.056 l 5.521,-5.385 c 0.167,-0.163 0.113,-0.297 -0.121,-0.297 h -0.402 c -0.234,0 -0.563,0.133 -0.731,0.295 l -4.704,4.551 c -0.168,0.163 -0.253,0.388 -0.188,0.5 0,0 0,0 0.062,0.109 0.093,0.171 0.093,0.171 0.093,0.171 z m 23.974,2.814 c 0.057,-0.227 -0.066,-0.503 -0.272,-0.613 L 33.934,33.857 C 33.728,33.747 33.403,33.766 33.21,33.9 l -0.845,0.593 c -0.192,0.134 -0.219,0.385 -0.061,0.557 l 2.754,2.997 c 0.158,0.172 0.135,0.198 -0.052,0.058 L 31.392,35.391 C 31.205,35.25 30.861,35.136 30.627,35.136 h -4.562 c -0.234,0 -0.578,0.115 -0.765,0.255 l -3.614,2.714 c -0.187,0.141 -0.21,0.115 -0.052,-0.058 l 2.755,-2.997 c 0.158,-0.172 0.131,-0.423 -0.061,-0.557 L 23.482,33.9 c -0.191,-0.134 -0.517,-0.154 -0.723,-0.043 l -5.578,2.991 c -0.207,0.11 -0.329,0.386 -0.272,0.613 0,0 0.559,2.243 0.81,3.535 0.062,0.308 0.108,0.491 0.108,0.491 0.057,0.227 0.271,0.32 0.476,0.208 l 4.309,-2.366 c 0.204,-0.114 0.374,-0.209 0.376,-0.21 0.002,-10e-4 0.119,-0.029 0.257,-0.061 0,0 0,0 0.111,0.078 0.691,0.482 1.772,1.13 1.772,1.13 0.201,0.12 0.556,0.219 0.79,0.219 h 4.855 c 0.233,0 0.589,-0.099 0.789,-0.219 0,0 1.081,-0.647 1.772,-1.13 0.111,-0.078 0.111,-0.078 0.111,-0.078 0.139,0.032 0.254,0.06 0.258,0.061 0.003,10e-4 0.172,0.096 0.376,0.21 l 4.309,2.366 c 0.205,0.113 0.42,0.02 0.477,-0.208 0,0 0.046,-0.183 0.108,-0.491 0.252,-1.292 0.811,-3.535 0.811,-3.535 z m 0.656,-1.87 c 0.079,-0.177 0.007,-0.456 -0.16,-0.62 L 34.494,29.319 C 34.327,29.155 33.999,29.022 33.765,29.022 H 32.72 c -0.233,0 -0.295,0.141 -0.137,0.313 l 2.787,3.03 c 0.158,0.172 0.137,0.195 -0.047,0.052 l -4.021,-3.134 c -0.184,-0.144 -0.526,-0.261 -0.76,-0.261 h -4.394 c -0.234,0 -0.576,0.118 -0.761,0.261 l -4.02,3.134 c -0.185,0.144 -0.206,0.121 -0.047,-0.052 l 2.787,-3.03 c 0.159,-0.172 0.097,-0.313 -0.137,-0.313 h -1.044 c -0.234,0 -0.562,0.134 -0.729,0.297 l -5.785,5.652 c -0.167,0.164 -0.24,0.442 -0.161,0.62 0.079,0.178 0.44,0.564 0.648,0.458 l 5.715,-2.928 c 0.208,-0.106 0.433,-0.206 0.5,-0.221 0.067,-0.015 0.234,0.043 0.236,0.044 10e-4,0 0.165,0.103 0.363,0.227 l 1.423,0.889 c 0.199,0.124 0.552,0.225 0.786,0.225 h 4.845 c 0.233,0 0.587,-0.102 0.785,-0.225 l 1.424,-0.889 c 0.198,-0.124 0.361,-0.226 0.363,-0.227 0.001,-0.001 0.058,-0.018 0.125,-0.037 0.067,-0.019 0.402,0.107 0.611,0.214 l 5.715,2.928 c 0.21,0.106 0.571,-0.281 0.65,-0.458 z m -0.028,-0.887 c 0.168,0.163 0.379,0.138 0.471,-0.056 0,0 0,0 0.094,-0.171 0.062,-0.109 0.062,-0.109 0.062,-0.109 0.064,-0.112 -0.021,-0.337 -0.188,-0.5 l -4.704,-4.551 c -0.168,-0.163 -0.497,-0.295 -0.73,-0.295 h -0.403 c -0.233,0 -0.288,0.134 -0.12,0.297 l 5.518,5.385 z m 14.144,7.66 c -0.052,-0.228 -0.284,-0.44 -0.517,-0.471 l -10.761,-1.43 c -0.232,-0.031 -0.503,0.117 -0.603,0.329 l -2.284,4.875 c -0.1,0.212 0,0.446 0.222,0.522 l 0.174,0.059 c 0.222,0.076 0.48,-0.037 0.575,-0.251 l 1.884,-4.223 c 0.095,-0.213 0.361,-0.357 0.593,-0.32 l 10.493,1.697 c 0.231,0.037 0.377,-0.119 0.325,-0.347 l -0.101,-0.44 z M 46.971,21.017 c -0.438,0.125 -1.671,2.857 -1.712,3.364 -0.069,0.873 0.278,1.072 0.278,1.072 0.203,0.116 0.437,0.217 0.519,0.225 0.083,0.007 0.299,-0.301 0.399,-0.512 l 1.671,-3.504 c 0.101,-0.211 0.183,-0.45 0.182,-0.531 0,-0.081 -0.338,-0.221 -0.568,-0.256 0,0 -0.181,-0.027 -0.769,0.142 z"
   id="path258"
   style="fill:#091724" />
				</g>
			</g>
			<g
   id="g260">
				<polygon
   points="24.26,10.378 22.716,11.99 22.716,16.184 24.26,17.796 32.433,17.796 33.977,16.184 33.977,11.99 32.433,10.378 "
   id="polygon262"
   style="fill:#ec2127;stroke:#091724;stroke-width:0.56690001" />
				<polygon
   points="32.311,13.664 33.146,13.664 33.146,12.35 32.09,11.247 24.604,11.247 23.547,12.35 23.547,13.664 24.381,13.664 24.381,14.51 23.547,14.51 23.547,15.824 24.604,16.927 32.09,16.927 33.146,15.824 33.146,14.51 32.311,14.51 "
   id="polygon264"
   style="fill:#e3e2db" />
			</g>
			<g
   id="g266">
				<path
   d="m 41.497,38.661 -0.419,0.651 5.156,0.204 -2.9,-3.71 -0.425,0.661 1.821,2.292 -3.233,-0.098 z m 0.393,-0.16 c -0.026,0 -0.053,-0.007 -0.077,-0.022 -0.065,-0.042 -0.084,-0.13 -0.042,-0.196 l 0.967,-1.5 c 0.043,-0.065 0.128,-0.084 0.196,-0.042 0.065,0.042 0.084,0.13 0.042,0.196 l -0.967,1.5 c -0.027,0.042 -0.072,0.064 -0.119,0.064 z m -26.694,0.16 0.419,0.651 -5.156,0.204 2.9,-3.71 0.425,0.661 -1.821,2.292 3.233,-0.098 z m -0.394,-0.16 c 0.026,0 0.053,-0.007 0.077,-0.022 0.065,-0.042 0.084,-0.13 0.042,-0.196 l -0.967,-1.5 c -0.043,-0.065 -0.128,-0.084 -0.196,-0.042 -0.065,0.042 -0.084,0.13 -0.042,0.196 l 0.967,1.5 c 0.027,0.042 0.072,0.064 0.119,0.064 z"
   id="path268"
   style="fill:#9fa6a7" />
				<g
   id="g270">
					<g
   id="g272">
						<path
   d="m 11.166,18.756 0.201,0.392 c 0.051,0.099 0.084,0.177 0.098,0.233 0.014,0.056 0.017,0.113 0.009,0.171 -0.007,0.058 -0.028,0.109 -0.062,0.158 -0.034,0.048 -0.086,0.09 -0.154,0.125 -0.062,0.031 -0.124,0.047 -0.183,0.046 -0.059,-0.002 -0.111,-0.016 -0.158,-0.041 -0.047,-0.024 -0.092,-0.062 -0.134,-0.109 -0.041,-0.048 -0.085,-0.115 -0.13,-0.202 l -0.207,-0.402 0.72,-0.371 z m -0.012,0.276 -0.477,0.244 0.083,0.162 c 0.036,0.068 0.065,0.117 0.089,0.144 0.022,0.027 0.047,0.048 0.071,0.06 0.025,0.013 0.057,0.017 0.094,0.014 0.038,-0.003 0.083,-0.018 0.135,-0.045 0.053,-0.027 0.092,-0.055 0.115,-0.084 0.024,-0.029 0.037,-0.062 0.041,-0.1 0.003,-0.037 -0.002,-0.077 -0.018,-0.119 -0.012,-0.033 -0.039,-0.092 -0.083,-0.178 l -0.05,-0.098 z"
   id="path274"
   style="fill:#606062" />
						<path
   d="m 11.491,21.157 -0.119,-0.232 0.115,-0.177 -0.219,-0.426 -0.209,-0.004 -0.117,-0.228 0.933,0.044 0.117,0.228 -0.501,0.795 z m 0.082,-0.541 0.192,-0.283 -0.342,-0.008 0.15,0.291 z"
   id="path276"
   style="fill:#606062" />
						<path
   d="m 11.55,21.272 0.72,-0.369 0.107,0.208 -0.257,0.683 0.48,-0.247 0.103,0.2 -0.72,0.369 -0.11,-0.215 0.249,-0.67 -0.47,0.242 -0.102,-0.201 z"
   id="path278"
   style="fill:#606062" />
						<path
   d="m 12.619,22.702 0.122,-0.063 0.238,0.463 -0.287,0.147 c -0.055,-0.031 -0.114,-0.084 -0.181,-0.158 -0.065,-0.074 -0.121,-0.154 -0.165,-0.24 -0.054,-0.104 -0.087,-0.205 -0.1,-0.3 -0.013,-0.095 -0.003,-0.181 0.03,-0.257 0.033,-0.076 0.088,-0.134 0.165,-0.174 0.079,-0.041 0.159,-0.052 0.24,-0.033 0.081,0.019 0.154,0.059 0.222,0.12 0.066,0.062 0.127,0.145 0.182,0.251 0.065,0.126 0.099,0.237 0.103,0.332 0.003,0.095 -0.024,0.17 -0.082,0.229 L 12.97,22.82 c 0.028,-0.034 0.042,-0.078 0.039,-0.131 -0.002,-0.053 -0.019,-0.107 -0.049,-0.167 -0.047,-0.092 -0.104,-0.155 -0.173,-0.191 -0.068,-0.037 -0.144,-0.034 -0.224,0.008 -0.087,0.044 -0.138,0.109 -0.151,0.193 -0.012,0.072 0.006,0.153 0.052,0.243 0.021,0.041 0.049,0.082 0.084,0.122 0.033,0.039 0.069,0.072 0.106,0.098 l 0.091,-0.047 -0.126,-0.246 z"
   id="path280"
   style="fill:#606062" />
						<path
   d="m 12.695,23.499 0.72,-0.37 0.405,0.789 -0.121,0.062 -0.296,-0.575 -0.159,0.082 0.274,0.533 -0.121,0.063 -0.274,-0.534 -0.196,0.101 0.306,0.595 -0.121,0.062 -0.417,-0.808 z"
   id="path282"
   style="fill:#606062" />
						<path
   d="m 13.205,24.489 0.72,-0.37 0.232,0.452 c 0.059,0.115 0.096,0.201 0.107,0.257 0.013,0.058 0.012,0.108 -0.004,0.157 -0.016,0.049 -0.046,0.084 -0.09,0.107 -0.057,0.028 -0.114,0.027 -0.174,-0.004 -0.06,-0.031 -0.117,-0.088 -0.171,-0.173 0.006,0.056 0.005,0.104 -10e-4,0.145 -0.007,0.042 -0.024,0.103 -0.054,0.184 l -0.074,0.201 -0.132,-0.256 0.077,-0.236 c 0.027,-0.085 0.043,-0.141 0.047,-0.168 0.004,-0.027 0.003,-0.054 -0.003,-0.079 -0.006,-0.025 -0.021,-0.062 -0.047,-0.112 l -0.023,-0.044 -0.301,0.154 -0.109,-0.215 z m 0.525,0 0.082,0.16 c 0.05,0.098 0.084,0.158 0.103,0.182 0.019,0.024 0.039,0.041 0.062,0.05 0.023,0.009 0.046,0.007 0.07,-0.005 0.022,-0.012 0.037,-0.029 0.042,-0.053 0.006,-0.023 0.005,-0.052 -0.005,-0.082 -0.008,-0.022 -0.035,-0.081 -0.085,-0.178 l -0.086,-0.168 -0.183,0.094 z"
   id="path284"
   style="fill:#606062" />
					</g>
					<g
   id="g286">
						<path
   d="m 42.363,25.019 0.195,-0.395 c 0.051,-0.1 0.094,-0.172 0.131,-0.216 0.037,-0.044 0.082,-0.081 0.133,-0.109 0.051,-0.028 0.105,-0.043 0.164,-0.044 0.059,-10e-4 0.123,0.016 0.191,0.05 0.062,0.031 0.111,0.071 0.145,0.12 0.035,0.048 0.055,0.099 0.062,0.151 0.007,0.052 0.004,0.111 -0.01,0.172 -0.014,0.062 -0.041,0.137 -0.086,0.225 l -0.201,0.406 -0.724,-0.36 z m 0.23,-0.155 0.479,0.238 0.082,-0.162 c 0.033,-0.069 0.055,-0.122 0.062,-0.156 0.008,-0.035 0.01,-0.066 0.006,-0.093 -0.006,-0.027 -0.02,-0.055 -0.045,-0.084 -0.025,-0.028 -0.064,-0.056 -0.115,-0.081 -0.055,-0.027 -0.1,-0.042 -0.137,-0.043 -0.037,-0.002 -0.072,0.007 -0.104,0.025 -0.033,0.02 -0.062,0.048 -0.086,0.085 -0.02,0.029 -0.051,0.086 -0.096,0.173 l -0.046,0.098 z"
   id="path288"
   style="fill:#606062" />
						<path
   d="m 44.105,23.332 -0.117,0.234 -0.211,0.012 -0.213,0.429 0.121,0.17 -0.115,0.23 -0.518,-0.777 0.113,-0.229 0.94,-0.069 z m -0.484,0.255 -0.344,0.014 0.197,0.279 0.147,-0.293 z"
   id="path290"
   style="fill:#606062" />
						<path
   d="m 44.162,23.215 -0.725,-0.36 0.104,-0.21 0.701,-0.198 -0.482,-0.24 0.1,-0.201 0.725,0.359 -0.107,0.218 -0.688,0.196 0.473,0.235 -0.101,0.201 z"
   id="path292"
   style="fill:#606062" />
						<path
   d="m 44.677,21.508 -0.123,-0.061 0.232,-0.465 0.289,0.144 c 0.008,0.062 0,0.141 -0.02,0.238 -0.021,0.097 -0.053,0.189 -0.096,0.275 -0.053,0.105 -0.113,0.192 -0.184,0.258 -0.068,0.067 -0.143,0.109 -0.225,0.128 -0.08,0.018 -0.16,0.009 -0.238,-0.03 -0.078,-0.04 -0.135,-0.098 -0.168,-0.174 -0.033,-0.076 -0.045,-0.159 -0.035,-0.25 0.01,-0.091 0.041,-0.188 0.094,-0.294 0.062,-0.128 0.133,-0.221 0.207,-0.279 0.074,-0.06 0.152,-0.082 0.232,-0.07 l -0.078,0.228 c -0.047,-0.002 -0.09,0.013 -0.131,0.046 -0.041,0.033 -0.076,0.079 -0.105,0.139 -0.045,0.092 -0.062,0.176 -0.051,0.253 0.012,0.077 0.057,0.136 0.139,0.176 0.088,0.043 0.17,0.045 0.246,0.006 0.064,-0.034 0.119,-0.095 0.164,-0.186 0.021,-0.042 0.039,-0.088 0.049,-0.14 0.012,-0.051 0.018,-0.099 0.016,-0.144 L 44.8,21.26 44.677,21.508 z"
   id="path294"
   style="fill:#606062" />
						<path
   d="m 45.275,20.973 -0.725,-0.36 0.395,-0.794 0.121,0.061 -0.287,0.579 0.16,0.08 0.268,-0.538 0.123,0.061 -0.268,0.538 0.197,0.098 0.297,-0.599 0.123,0.061 -0.404,0.813 z"
   id="path296"
   style="fill:#606062" />
						<path
   d="m 45.771,19.976 -0.727,-0.359 0.227,-0.455 c 0.059,-0.116 0.105,-0.196 0.143,-0.24 0.039,-0.044 0.082,-0.073 0.129,-0.089 0.049,-0.017 0.096,-0.013 0.141,0.009 0.057,0.028 0.09,0.075 0.1,0.143 0.01,0.065 -0.002,0.146 -0.037,0.241 0.041,-0.037 0.08,-0.065 0.117,-0.085 0.037,-0.02 0.096,-0.041 0.18,-0.064 l 0.205,-0.06 -0.129,0.258 -0.234,0.078 c -0.086,0.028 -0.141,0.049 -0.164,0.062 -0.025,0.013 -0.045,0.029 -0.061,0.049 -0.018,0.02 -0.039,0.055 -0.062,0.104 l -0.023,0.045 0.303,0.15 -0.108,0.213 z m -0.313,-0.423 0.08,-0.161 c 0.049,-0.098 0.076,-0.162 0.086,-0.19 0.008,-0.029 0.01,-0.056 0.002,-0.08 -0.006,-0.024 -0.021,-0.042 -0.045,-0.053 -0.024,-0.011 -0.045,-0.013 -0.068,-0.003 -0.021,0.01 -0.043,0.027 -0.062,0.053 -0.014,0.019 -0.045,0.076 -0.092,0.173 l -0.084,0.169 0.183,0.092 z"
   id="path298"
   style="fill:#606062" />
					</g>
				</g>
				<g
   id="g300">
					<path
   d="m 43.145,11.981 c 0.033,-0.119 0.157,-0.207 0.373,-0.262 0.202,-0.05 0.451,-0.064 0.745,-0.043 0.342,0.025 0.677,0.101 1.003,0.226 0.468,0.181 0.692,0.411 0.675,0.69 -0.003,0.044 -0.018,0.099 -0.041,0.161 -0.043,0.101 -0.066,0.156 -0.068,0.167 -0.03,0.064 -0.074,0.171 -0.134,0.321 -0.047,0.122 -0.215,0.21 -0.504,0.269 -0.271,0.055 -0.577,0.071 -0.92,0.045 -0.34,-0.025 -0.626,-0.085 -0.861,-0.179 -0.264,-0.104 -0.417,-0.238 -0.46,-0.402 -0.001,-0.011 -0.002,-0.021 -0.002,-0.03 0.002,-0.017 0.01,-0.038 0.025,-0.062 0.015,-0.024 0.021,-0.042 0.018,-0.055 -0.019,-0.073 -0.026,-0.148 -0.021,-0.225 0.005,-0.087 0.03,-0.191 0.071,-0.315 0.062,-0.182 0.095,-0.284 0.101,-0.306 z m 0.189,0.483 c -0.007,0.119 0.11,0.222 0.354,0.306 0.195,0.067 0.427,0.11 0.688,0.129 0.211,0.015 0.438,0.005 0.683,-0.029 0.244,-0.034 0.368,-0.077 0.372,-0.126 0.005,-0.096 -0.129,-0.186 -0.403,-0.268 -0.243,-0.069 -0.525,-0.117 -0.849,-0.14 -0.237,-0.018 -0.433,-0.017 -0.585,0.002 -0.169,0.023 -0.256,0.065 -0.26,0.126 z"
   id="path302"
   style="fill:#9fa6a7" />
					<path
   d="m 43.272,9.941 c 0.033,-0.119 0.157,-0.207 0.373,-0.263 0.202,-0.049 0.451,-0.063 0.745,-0.042 0.341,0.025 0.676,0.101 1.002,0.227 0.469,0.18 0.693,0.41 0.675,0.69 -0.002,0.044 -0.016,0.099 -0.04,0.161 -0.043,0.101 -0.066,0.156 -0.068,0.167 -0.03,0.064 -0.075,0.171 -0.134,0.321 -0.046,0.121 -0.215,0.211 -0.504,0.269 -0.272,0.055 -0.578,0.07 -0.92,0.045 -0.341,-0.024 -0.627,-0.084 -0.862,-0.178 -0.264,-0.104 -0.417,-0.238 -0.46,-0.403 -10e-4,-0.01 -10e-4,-0.02 -10e-4,-0.03 10e-4,-0.016 0.01,-0.037 0.025,-0.061 0.016,-0.024 0.021,-0.042 0.017,-0.055 -0.019,-0.074 -0.025,-0.148 -0.021,-0.224 0.005,-0.087 0.03,-0.191 0.07,-0.315 0.063,-0.185 0.097,-0.287 0.103,-0.309 z m 0.189,0.484 c -0.007,0.119 0.11,0.221 0.353,0.305 0.197,0.067 0.427,0.109 0.688,0.128 0.21,0.016 0.438,0.006 0.683,-0.028 0.244,-0.034 0.368,-0.076 0.371,-0.125 0.006,-0.097 -0.128,-0.186 -0.402,-0.268 -0.243,-0.069 -0.526,-0.117 -0.85,-0.14 -0.237,-0.017 -0.432,-0.016 -0.584,0.002 -0.169,0.022 -0.255,0.064 -0.259,0.126 z"
   id="path304"
   style="fill:#9fa6a7" />
					<path
   d="m 45.765,7.618 c 0.066,-0.003 0.11,0.046 0.132,0.148 -0.006,0.032 -0.009,0.079 -0.005,0.141 -0.003,0.045 0.021,0.188 0.072,0.429 0.052,0.27 0.104,0.471 0.155,0.604 0.015,0.036 0.032,0.069 0.058,0.099 0.023,0.03 0.036,0.049 0.035,0.057 0.003,0.037 -0.063,0.14 -0.198,0.309 C 45.984,9.452 45.952,9.5 45.916,9.547 45.88,9.594 45.842,9.617 45.799,9.617 45.782,9.616 45.641,9.497 45.371,9.261 45.041,8.971 44.764,8.745 44.541,8.583 44.187,8.331 43.903,8.188 43.69,8.155 c 0.062,0.199 0.214,0.404 0.457,0.616 0.011,0.015 0.031,0.026 0.062,0.032 0.031,0.006 0.052,0.015 0.062,0.025 0.029,0.027 0.041,0.064 0.038,0.111 C 44.304,9.02 44.261,9.116 44.181,9.227 44.153,9.274 44.125,9.323 44.097,9.37 44.065,9.427 44.036,9.456 44.013,9.457 43.959,9.458 43.863,9.39 43.72,9.249 43.569,9.099 43.443,8.936 43.342,8.76 43.217,8.549 43.159,8.365 43.169,8.211 43.173,8.151 43.194,8.097 43.232,8.045 43.271,7.994 43.311,7.944 43.35,7.898 43.49,7.706 43.619,7.586 43.736,7.54 43.76,7.532 43.79,7.529 43.826,7.532 c 0.16,0.012 0.414,0.123 0.763,0.333 0.329,0.199 0.612,0.407 0.851,0.624 C 45.422,8.409 45.394,8.3 45.357,8.16 45.351,8.144 45.337,8.118 45.315,8.078 45.3,8.052 45.294,8.028 45.298,8.006 45.309,7.947 45.379,7.868 45.507,7.768 45.636,7.669 45.722,7.62 45.765,7.618 z"
   id="path306"
   style="fill:#9fa6a7" />
				</g>
				<g
   id="g308">
					<path
   d="M 29.688,21.539 V 18.87 h 1.913 v 0.452 h -1.068 v 0.631 h 0.888 v 0.452 h -0.888 v 1.134 h -0.845 z"
   id="path310"
   style="fill:#9fa6a7" />
					<path
   d="M 32.07,21.539 V 18.87 h 1.913 v 0.452 h -1.068 v 0.631 h 0.888 v 0.452 h -0.888 v 1.134 H 32.07 z"
   id="path312"
   style="fill:#9fa6a7" />
					<path
   d="m 29.635,22.571 v -0.6 h 0.612 l -0.612,0.6 z m 0,1.16 v -0.599 l 0.612,0.599 h -0.612 z"
   id="path314"
   style="fill:#9fa6a7" />
					<path
   d="M 30.95,23.731 V 23.4 h -0.705 v -0.276 l 0.747,-1.044 h 0.277 v 1.043 h 0.214 V 23.4 h -0.214 v 0.331 H 30.95 z m 0,-0.608 v -0.562 l -0.396,0.562 h 0.396 z"
   id="path316"
   style="fill:#9fa6a7" />
					<path
   d="M 32.288,23.731 V 23.4 H 31.583 V 23.124 L 32.33,22.08 h 0.277 v 1.043 h 0.214 V 23.4 h -0.214 v 0.331 h -0.319 z m 0,-0.608 v -0.562 l -0.396,0.562 h 0.396 z"
   id="path318"
   style="fill:#9fa6a7" />
					<path
   d="m 34.097,22.488 -0.319,0.034 C 33.762,22.4 33.7,22.339 33.59,22.339 c -0.072,0 -0.132,0.031 -0.179,0.092 -0.048,0.061 -0.078,0.185 -0.09,0.372 0.041,-0.046 0.087,-0.081 0.138,-0.104 0.051,-0.023 0.106,-0.035 0.168,-0.035 0.135,0 0.252,0.049 0.353,0.147 0.101,0.098 0.15,0.229 0.15,0.392 0,0.173 -0.053,0.31 -0.159,0.408 -0.105,0.099 -0.237,0.148 -0.394,0.148 -0.173,0 -0.315,-0.064 -0.429,-0.193 -0.113,-0.128 -0.17,-0.341 -0.17,-0.638 0,-0.302 0.059,-0.519 0.177,-0.651 0.117,-0.133 0.269,-0.199 0.453,-0.199 0.127,0 0.234,0.034 0.322,0.101 0.087,0.07 0.143,0.172 0.167,0.309 z m -0.748,0.689 c 0,0.104 0.024,0.183 0.074,0.238 0.049,0.055 0.105,0.083 0.169,0.083 0.061,0 0.112,-0.023 0.152,-0.068 0.041,-0.046 0.062,-0.121 0.062,-0.225 0,-0.107 -0.022,-0.186 -0.066,-0.235 -0.044,-0.049 -0.099,-0.074 -0.164,-0.074 -0.062,0 -0.116,0.023 -0.16,0.07 -0.044,0.048 -0.067,0.118 -0.067,0.211 z"
   id="path320"
   style="fill:#9fa6a7" />
				</g>
			</g>
		</g>
	</g>
</g>
</svg>