<?xml version="1.0" encoding="UTF-8" standalone="no"?>
<!-- Created with Inkscape (http://www.inkscape.org/) -->

<svg
   xmlns:dc="http://purl.org/dc/elements/1.1/"
   xmlns:cc="http://creativecommons.org/ns#"
   xmlns:rdf="http://www.w3.org/1999/02/22-rdf-syntax-ns#"
   xmlns:svg="http://www.w3.org/2000/svg"
   xmlns="http://www.w3.org/2000/svg"
   xmlns:xlink="http://www.w3.org/1999/xlink"
   xmlns:sodipodi="http://sodipodi.sourceforge.net/DTD/sodipodi-0.dtd"
   xmlns:inkscape="http://www.inkscape.org/namespaces/inkscape"
   width="52.375"
   height="43.213669"
   id="svg2"
   version="1.1"
   inkscape:version="0.48.2 r9819"
   sodipodi:docname="wasp.svg"
   inkscape:export-filename="C:\Dokumente und Einstellungen\John\Desktop\minifigs\wasp.png"
   inkscape:export-xdpi="1718.2063"
   inkscape:export-ydpi="1718.2063">
  <defs
     id="defs4">
    <inkscape:path-effect
       effect="skeletal"
       id="path-effect4237"
       is_visible="true"
       pattern="M 0,5 C 0,2.24 2.24,0 5,0 7.76,0 10,2.24 10,5 10,7.76 7.76,10 5,10 2.24,10 0,7.76 0,5 z"
       copytype="single_stretched"
       prop_scale="1"
       scale_y_rel="false"
       spacing="0"
       normal_offset="0"
       tang_offset="0"
       prop_units="false"
       vertical_pattern="false"
       fuse_tolerance="0" />
    <clipPath
       id="clipPath2999"
       clipPathUnits="userSpaceOnUse">
      <path
         id="path3001"
         d="M 0,792 612,792 612,0 0,0 0,792 z"
         inkscape:connector-curvature="0" />
    </clipPath>
    <radialGradient
       gradientUnits="userSpaceOnUse"
       gradientTransform="matrix(0.75988491,-0.03632001,0.13155835,2.7524547,16.986326,-78.268899)"
       r="12.650181"
       fy="46.658409"
       fx="96.306435"
       cy="46.658409"
       cx="96.306435"
       id="radialGradient3972"
       xlink:href="#linearGradient3966"
       inkscape:collect="always" />
    <clipPath
       clipPathUnits="userSpaceOnUse"
       id="clipPath2999-4">
      <path
         inkscape:connector-curvature="0"
         d="M 0,792 612,792 612,0 0,0 0,792 z"
         id="path3001-0" />
    </clipPath>
    <linearGradient
       id="linearGradient3966">
      <stop
         id="stop3968"
         offset="0"
         style="stop-color:#c0ac02;stop-opacity:1;" />
      <stop
         id="stop3970"
         offset="1"
         style="stop-color:#fdea41;stop-opacity:0;" />
    </linearGradient>
  </defs>
  <sodipodi:namedview
     id="base"
     pagecolor="#ffffff"
     bordercolor="#666666"
     borderopacity="1.0"
     inkscape:pageopacity="0.0"
     inkscape:pageshadow="2"
     inkscape:zoom="6.21"
     inkscape:cx="26.630114"
     inkscape:cy="18.536421"
     inkscape:document-units="px"
     inkscape:current-layer="layer5"
     showgrid="false"
     fit-margin-top="0"
     fit-margin-left="0"
     fit-margin-right="0"
     fit-margin-bottom="0"
     inkscape:window-width="1280"
     inkscape:window-height="968"
     inkscape:window-x="-4"
     inkscape:window-y="-4"
     inkscape:window-maximized="1"
     showguides="true"
     inkscape:guide-bbox="true">
    <sodipodi:guide
       orientation="0,1"
       position="11.28133,21.517799"
       id="guide3274" />
    <sodipodi:guide
       orientation="0,1"
       position="35.714286,-16.63113"
       id="guide3336" />
  </sodipodi:namedview>
  <metadata
     id="metadata7">
    <rdf:RDF>
      <cc:Work
         rdf:about="">
        <dc:format>image/svg+xml</dc:format>
        <dc:type
           rdf:resource="http://purl.org/dc/dcmitype/StillImage" />
        <dc:title></dc:title>
      </cc:Work>
    </rdf:RDF>
  </metadata>
  <g
     inkscape:groupmode="layer"
     id="layer2"
     inkscape:label="wasp_1"
     style="display:inline">
    <g
       inkscape:groupmode="layer"
       id="layer3"
       inkscape:label="background"
       sodipodi:insensitive="true">
      <path
         transform="translate(-360.9375,-409.84883)"
         id="path3106"
         style="fill:#4d4d4d;stroke:#231f20;stroke-width:0.3125;stroke-linecap:butt;stroke-linejoin:miter;stroke-miterlimit:4;stroke-opacity:1;stroke-dasharray:none;display:inline"
         d="m 361.13813,452.9203 c 8.7325,-47.29375 5.3425,-42.67875 14.2675,-42.85625 l 23.44,0 c 8.92625,0.1775 5.535,-4.4375 14.265,42.85625 l -51.9725,0 z"
         inkscape:connector-curvature="0" />
      <path
         transform="translate(-142.76812,-31.47322)"
         style="opacity:0.63194442;fill:#000000;stroke:#231f20;stroke-width:0.3125;stroke-linecap:butt;stroke-linejoin:miter;stroke-miterlimit:4;stroke-opacity:1;stroke-dasharray:none;display:inline"
         d="m 153.96875,31.78125 c -0.27345,-0.0021 -0.51296,0.01438 -0.75,0.03125 -0.2517,0.01598 -0.50065,0.04528 -0.71875,0.09375 -0.19414,0.04649 -0.36055,0.103301 -0.53125,0.1875 -1.79689,0.886304 -2.41272,4.126231 -4.4375,15.34375 -0.79249,4.39047 3.12451,9.636 2.34375,17.375 -0.42679,4.23039 -5.79223,6.78828 -7.125,9.875 l 52,0 c -1.33277,-3.08672 -6.69821,-5.64461 -7.125,-9.875 -0.78076,-7.739 3.13624,-12.98453 2.34375,-17.375 -2.02478,-11.217519 -2.64061,-14.457446 -4.4375,-15.34375 -0.1707,-0.0842 -0.33711,-0.141007 -0.53125,-0.1875 -0.01,-0.0021 -0.0215,0.0021 -0.0312,0 -0.18742,-0.04293 -0.41185,-0.07634 -0.625,-0.09375 -0.3229,-0.02336 -0.6732,-0.03967 -1.0625,-0.03125 -0.21166,0.0041 -0.42118,0.02383 -0.65625,0.03125 -0.63668,0.02078 -1.3262,0.04776 -2.15625,0.03125 l -23.4375,0 c -0.83005,0.01651 -1.51957,-0.01047 -2.15625,-0.03125 -0.0104,-3.4e-4 -0.0209,3.37e-4 -0.0312,0 -0.31503,-0.0099 -0.60155,-0.0291 -0.875,-0.03125 z"
         id="path3111"
         inkscape:connector-curvature="0" />
    </g>
    <g
       inkscape:groupmode="layer"
       id="layer5"
       inkscape:label="plates">
      <path
         style="fill:#ffff00;stroke:none"
         d="m 10.441486,10.347516 c -3.695121,3.113893 -4.9543584,7.265098 -4.299155,10.147189 0.4759259,2.09349 2.6391183,5.123136 8.854165,5.830386 0,0 0.321265,3.44388 1.541696,3.433778 1.22043,-0.0101 2.679708,-4.27821 6.091925,-5.23255 0.743804,-0.20803 1.019788,0.816015 3.018096,0.747616 l -0.07008,-3.578065 c -1.21781,-1.748787 -3.16275,-1.604851 -4.555011,-1.958025 -1.056007,-5.505454 -4.293563,-7.738585 -9.460406,-7.077785 -1.144424,-0.268657 -1.053525,-1.864434 -1.12123,-2.312544 z"
         id="path3100"
         inkscape:connector-curvature="0"
         sodipodi:nodetypes="csczsccccc" />
      <use
         x="0"
         y="0"
         xlink:href="#path3100"
         id="use3104"
         transform="matrix(-1,0,0,1,51.246474,0)"
         width="52.375"
         height="43.213669" />
      <path
         style="fill:#ffff00;fill-opacity:1;stroke:none"
         d="m 21.205723,25.757446 c 0,0 -0.59588,4.651836 0,5.75 0.587055,1.081901 1.800057,-0.499203 4.71372,1.90625 l 0,0.09375 c 0.01998,-0.01702 0.04262,-0.0146 0.06244,-0.03125 0.0195,0.01639 0.04278,0.01451 0.06244,0.03125 l 0,-0.09375 c 2.911814,-2.402419 4.126835,-0.824664 4.71372,-1.90625 0.59588,-1.098164 0,-5.75 0,-5.75 -1.381471,1.158627 -2.200375,1.81107 -4.71372,2 -0.04466,-0.003 -0.08125,0.0033 -0.124868,0 -2.513345,-0.18893 -3.332248,-0.841373 -4.71372,-2 z"
         id="rect3117"
         inkscape:connector-curvature="0" />
      <path
         inkscape:connector-curvature="0"
         id="path3123"
         d="m 22.328585,32.668447 c 0,0 -0.45579,3.558202 0,4.398191 0.44904,0.827549 1.376868,-0.381842 3.605536,1.458095 l 0,0.07171 c 0.01528,-0.01302 0.0326,-0.01117 0.04776,-0.0239 0.01492,0.01254 0.03272,0.0111 0.04777,0.0239 l 0,-0.07171 c 2.227253,-1.837616 3.156627,-0.630787 3.605536,-1.458095 0.455791,-0.839989 0,-4.398191 0,-4.398191 -1.056691,0.886237 -1.683072,1.385292 -3.605536,1.529805 -0.03416,-0.0023 -0.06215,0.0025 -0.09552,0 -1.922464,-0.144513 -2.548846,-0.643568 -3.605537,-1.529805 z"
         style="fill:#ffff00;fill-opacity:1;stroke:none" />
      <path
         style="fill:#ffff00;fill-opacity:1;stroke:none"
         d="m 23.105952,38.318062 c 0,0 -0.358805,2.80107 0,3.462323 0.353491,0.651459 1.083892,-0.300592 2.838333,1.147834 l 0,0.05645 c 0.012,-0.01025 0.02566,-0.0088 0.0376,-0.01881 0.01175,0.0099 0.02576,0.0087 0.0376,0.01881 l 0,-0.05645 c 1.753328,-1.446599 2.484945,-0.496565 2.838333,-1.147834 0.358806,-0.661253 0,-3.462323 0,-3.462323 -0.831842,0.697659 -1.32494,1.090523 -2.838333,1.204285 -0.02688,-0.0018 -0.04893,0.002 -0.07519,0 -1.513391,-0.113762 -2.006489,-0.506626 -2.838331,-1.204285 z"
         id="path3125"
         inkscape:connector-curvature="0" />
      <path
         style="fill:#ffff00;stroke:#ffff00;stroke-width:1px;stroke-linecap:butt;stroke-linejoin:miter;stroke-opacity:1"
         d="m 25.925926,40.95924 0,-11.594202"
         id="path3147"
         inkscape:connector-curvature="0" />
    </g>
  </g>
  <g
     sodipodi:insensitive="true"
     inkscape:label="wasp_2"
     id="g3127"
     inkscape:groupmode="layer"
     style="display:none">
    <g
       sodipodi:insensitive="true"
       inkscape:label="background"
       id="g3129"
       inkscape:groupmode="layer">
      <path
         inkscape:connector-curvature="0"
         d="m 361.13813,452.9203 c 8.7325,-47.29375 5.3425,-42.67875 14.2675,-42.85625 l 23.44,0 c 8.92625,0.1775 5.535,-4.4375 14.265,42.85625 l -51.9725,0 z"
         style="fill:#4d4d4d;stroke:#231f20;stroke-width:0.3125;stroke-linecap:butt;stroke-linejoin:miter;stroke-miterlimit:4;stroke-opacity:1;stroke-dasharray:none;display:inline"
         id="path3131"
         transform="translate(-360.9375,-409.84883)" />
      <path
         inkscape:connector-curvature="0"
         id="path3133"
         d="m 153.96875,31.78125 c -0.27345,-0.0021 -0.51296,0.01438 -0.75,0.03125 -0.2517,0.01598 -0.50065,0.04528 -0.71875,0.09375 -0.19414,0.04649 -0.36055,0.103301 -0.53125,0.1875 -1.79689,0.886304 -2.41272,4.126231 -4.4375,15.34375 -0.79249,4.39047 3.12451,9.636 2.34375,17.375 -0.42679,4.23039 -5.79223,6.78828 -7.125,9.875 l 52,0 c -1.33277,-3.08672 -6.69821,-5.64461 -7.125,-9.875 -0.78076,-7.739 3.13624,-12.98453 2.34375,-17.375 -2.02478,-11.217519 -2.64061,-14.457446 -4.4375,-15.34375 -0.1707,-0.0842 -0.33711,-0.141007 -0.53125,-0.1875 -0.01,-0.0021 -0.0215,0.0021 -0.0312,0 -0.18742,-0.04293 -0.41185,-0.07634 -0.625,-0.09375 -0.3229,-0.02336 -0.6732,-0.03967 -1.0625,-0.03125 -0.21166,0.0041 -0.42118,0.02383 -0.65625,0.03125 -0.63668,0.02078 -1.3262,0.04776 -2.15625,0.03125 l -23.4375,0 c -0.83005,0.01651 -1.51957,-0.01047 -2.15625,-0.03125 -0.0104,-3.4e-4 -0.0209,3.37e-4 -0.0312,0 -0.31503,-0.0099 -0.60155,-0.0291 -0.875,-0.03125 z"
         style="opacity:0.63194442;fill:#000000;stroke:#231f20;stroke-width:0.3125;stroke-linecap:butt;stroke-linejoin:miter;stroke-miterlimit:4;stroke-opacity:1;stroke-dasharray:none;display:inline"
         transform="translate(-142.76812,-31.47322)" />
    </g>
    <g
       sodipodi:insensitive="true"
       inkscape:label="plates"
       id="g3135"
       inkscape:groupmode="layer">
      <path
         sodipodi:nodetypes="csczsccccc"
         inkscape:connector-curvature="0"
         id="path3137"
         d="m 10.441486,10.347516 c -3.695121,3.113893 -4.9543584,7.265098 -4.299155,10.147189 0.4759259,2.09349 2.6391183,5.123136 8.854165,5.830386 0,0 0.321265,3.44388 1.541696,3.433778 1.22043,-0.0101 2.679708,-4.27821 6.091925,-5.23255 0.743804,-0.20803 1.019788,0.816015 3.018096,0.747616 l -0.07008,-3.578065 c -1.21781,-1.748787 -3.16275,-1.604851 -4.555011,-1.958025 -1.056007,-5.505454 -4.293563,-7.738585 -9.460406,-7.077785 -1.144424,-0.268657 -1.053525,-1.864434 -1.12123,-2.312544 z"
         style="fill:#ffff00;stroke:none" />
      <use
         height="43.213669"
         width="52.375"
         transform="matrix(-1,0,0,1,51.246474,0)"
         id="use3139"
         xlink:href="#path3100"
         y="0"
         x="0" />
      <path
         inkscape:connector-curvature="0"
         id="path3141"
         d="m 22.121147,25.757446 c 0,0 -0.481671,4.651836 0,5.75 0.474537,1.081901 1.455048,-0.499203 3.810263,1.90625 l 0,0.09375 c 0.01615,-0.01702 0.03445,-0.0146 0.05047,-0.03125 0.01576,0.01639 0.03458,0.01451 0.05047,0.03125 l 0,-0.09375 c 2.35372,-2.402419 3.335864,-0.824664 3.810263,-1.90625 0.481671,-1.098164 0,-5.75 0,-5.75 -1.116691,1.158627 -1.778639,1.81107 -3.810263,2 -0.0361,-0.003 -0.06568,0.0033 -0.100935,0 -2.031624,-0.18893 -2.693572,-0.841373 -3.810263,-2 z"
         style="fill:#ffff00;fill-opacity:1;stroke:none" />
      <path
         style="fill:#ffff00;fill-opacity:1;stroke:none"
         d="m 23.028795,32.668447 c 0,0 -0.368431,3.558202 0,4.398191 0.362975,0.827549 1.11297,-0.381842 2.91448,1.458095 l 0,0.07171 c 0.01235,-0.01302 0.02635,-0.01117 0.03861,-0.0239 0.01206,0.01254 0.02645,0.0111 0.03861,0.0239 l 0,-0.07171 c 1.800366,-1.837616 2.551611,-0.630787 2.91448,-1.458095 0.368431,-0.839989 0,-4.398191 0,-4.398191 -0.85416,0.886237 -1.360486,1.385292 -2.91448,1.529805 -0.02761,-0.0023 -0.05024,0.0025 -0.07721,0 -1.553994,-0.144513 -2.06032,-0.643568 -2.91448,-1.529805 z"
         id="path3143"
         inkscape:connector-curvature="0" />
      <path
         inkscape:connector-curvature="0"
         id="path3145"
         d="m 23.657168,38.318062 c 0,0 -0.290035,2.80107 0,3.462323 0.285739,0.651459 0.876147,-0.300592 2.294323,1.147834 l 0,0.05645 c 0.0097,-0.01025 0.02074,-0.0088 0.03039,-0.01881 0.0095,0.0099 0.02082,0.0087 0.03039,0.01881 l 0,-0.05645 c 1.417276,-1.446599 2.008667,-0.496565 2.294323,-1.147834 0.290035,-0.661253 0,-3.462323 0,-3.462323 -0.672407,0.697659 -1.070995,1.090523 -2.294323,1.204285 -0.02173,-0.0018 -0.03955,0.002 -0.06078,0 -1.223327,-0.113762 -1.621915,-0.506626 -2.294322,-1.204285 z"
         style="fill:#ffff00;fill-opacity:1;stroke:none" />
    </g>
  </g>
  <g
     inkscape:label="Ebene 1"
     inkscape:groupmode="layer"
     id="layer1"
     transform="translate(-360.9375,-409.84883)"
     style="display:inline"
     sodipodi:insensitive="true">
    <path
       inkscape:connector-curvature="0"
       d="m 361.13813,452.9203 c 8.7325,-47.29375 5.3425,-42.67875 14.2675,-42.85625 l 23.44,0 c 8.92625,0.1775 5.535,-4.4375 14.265,42.85625 l -51.9725,0 z"
       style="fill:none;stroke:#231f20;stroke-width:0.3125;stroke-linecap:butt;stroke-linejoin:miter;stroke-miterlimit:4;stroke-opacity:1;stroke-dasharray:none"
       id="path3093" />
  </g>
  <g
     inkscape:groupmode="layer"
     id="layer8"
     inkscape:label="female wonderwoman"
     style="display:inline"
     transform="translate(-142.76812,-31.473222)">
    <path
       style="fill:#000000;fill-opacity:1;stroke:none;display:inline"
       d="m 149.5625,47.34375 c -0.73311,1.041476 -1.1875,2.253697 -1.1875,3.5625 0,3.798322 3.54978,6.875 7.9375,6.875 3.68403,0 6.78844,-2.180491 7.6875,-5.125 -1.06045,2.702051 -3.98753,4.625 -7.4375,4.625 -4.34406,0 -7.875,-3.076678 -7.875,-6.875 0,-1.114575 0.33674,-2.131405 0.875,-3.0625 z"
       id="path3165"
       inkscape:connector-curvature="0" />
    <path
       id="path3172"
       d="m 187.28681,47.34375 c 0.73311,1.041476 1.1875,2.253697 1.1875,3.5625 0,3.798322 -3.54978,6.875 -7.9375,6.875 -3.68403,0 -6.78844,-2.180491 -7.6875,-5.125 1.06045,2.702051 3.98753,4.625 7.4375,4.625 4.34406,0 7.875,-3.076678 7.875,-6.875 0,-1.114575 -0.33674,-2.131405 -0.875,-3.0625 z"
       style="fill:#000000;fill-opacity:1;stroke:none;display:inline"
       inkscape:connector-curvature="0" />
    <path
       style="font-size:medium;font-style:normal;font-variant:normal;font-weight:normal;font-stretch:normal;text-indent:0;text-align:start;text-decoration:none;line-height:normal;letter-spacing:normal;word-spacing:normal;text-transform:none;direction:ltr;block-progression:tb;writing-mode:lr-tb;text-anchor:start;baseline-shift:baseline;color:#000000;fill:#ffffff;fill-opacity:1;stroke:none;stroke-width:1px;marker:none;visibility:visible;display:inline;overflow:visible;enable-background:accumulate;font-family:Sans;-inkscape-font-specification:Sans"
       d="m 171.0625,33.25 c -1.1334,0.189853 -1.788,0.676502 -2.21875,1.03125 -0.21538,0.177374 -0.37051,0.300681 -0.5,0.375 -0.11136,0.06392 -0.20538,0.09285 -0.34375,0.09375 -0.0257,0.0014 -0.04,1.46e-4 -0.0625,0 -0.13837,-8.98e-4 -0.23239,-0.02983 -0.34375,-0.09375 -0.12949,-0.07432 -0.28462,-0.197626 -0.5,-0.375 C 166.663,33.926502 166.0084,33.439853 164.875,33.25 c -2.16944,-0.36339 -5.30878,-0.435516 -5.32813,-0.234375 -0.0193,0.201141 2.68994,0.183485 4.85938,0.546875 1.1334,0.189853 2.3505,1.145252 2.78125,1.5 0.21538,0.177374 0.37051,0.30068 0.5,0.375 0.055,0.03159 0.10464,0.04668 0.15625,0.0625 -0.002,0.01364 0.002,0.01671 0,0.03125 0.0533,0.003 0.0839,-0.02739 0.125,-0.03125 0.0411,0.0039 0.0717,0.03421 0.125,0.03125 -0.002,-0.01454 0.002,-0.01761 0,-0.03125 0.0516,-0.01582 0.10122,-0.03091 0.15625,-0.0625 0.12949,-0.07432 0.28462,-0.197626 0.5,-0.375 0.43075,-0.354748 1.64785,-1.310147 2.78125,-1.5 2.16944,-0.36339 4.90141,-0.368424 4.85937,-0.546875 -0.042,-0.178451 -3.15868,-0.129015 -5.32812,0.234375 z"
       id="path3174"
       inkscape:connector-curvature="0"
       sodipodi:nodetypes="ssscsssszsscccccccsszs" />
    <path
       inkscape:connector-curvature="0"
       id="path3969"
       d="m 153.96875,31.78125 c -0.27345,-0.0021 -0.51296,0.01438 -0.75,0.03125 -0.2517,0.01598 -0.50065,0.04528 -0.71875,0.09375 -0.19414,0.04649 -0.36055,0.103301 -0.53125,0.1875 -1.79689,0.886304 -2.41272,4.126231 -4.4375,15.34375 -0.79249,4.39047 3.12451,9.636 2.34375,17.375 -0.42679,4.23039 -5.79223,6.78828 -7.125,9.875 l 52,0 c -1.33277,-3.08672 -6.69821,-5.64461 -7.125,-9.875 -0.78076,-7.739 3.13624,-12.98453 2.34375,-17.375 -2.02478,-11.217519 -2.64061,-14.457446 -4.4375,-15.34375 -0.1707,-0.0842 -0.33711,-0.141007 -0.53125,-0.1875 -0.01,-0.0021 -0.0215,0.0021 -0.0312,0 -0.18742,-0.04293 -0.41185,-0.07634 -0.625,-0.09375 -0.3229,-0.02336 -0.6732,-0.03967 -1.0625,-0.03125 -0.21166,0.0041 -0.42118,0.02383 -0.65625,0.03125 -0.63668,0.02078 -1.3262,0.04776 -2.15625,0.03125 l -23.4375,0 c -0.83005,0.01651 -1.51957,-0.01047 -2.15625,-0.03125 -0.0104,-3.4e-4 -0.0209,3.37e-4 -0.0312,0 -0.31503,-0.0099 -0.60155,-0.0291 -0.875,-0.03125 z"
       style="opacity:0.63194442;fill:none;stroke:#231f20;stroke-width:0.3125;stroke-linecap:butt;stroke-linejoin:miter;stroke-miterlimit:4;stroke-opacity:1;stroke-dasharray:none;display:inline" />
  </g>
</svg>
