<?xml version="1.0" encoding="utf-8"?>
<svg version="1.1" id="Layer_1" xmlns="http://www.w3.org/2000/svg" xmlns:xlink="http://www.w3.org/1999/xlink" x="0px" y="0px"
	 width="53.858px" height="43.937px" viewBox="0 0 53.858 43.937" enable-background="new 0 0 53.858 43.937" xml:space="preserve">
<path id="torso" inkscape:connector-curvature="0" fill="#EFF0EF" stroke="#A2A1A3" stroke-width="0.3125" d="M0.943,43.423
	C9.676-3.871,6.286,0.744,15.211,0.566h23.44c8.926,0.177,5.535-4.438,14.264,42.857H0.943z"/>
<path fill="#FFCD03" d="M28.382,8.64l-1.608,5.21l-0.976-5.181c0,0-3.099-3.235-4.298-4.491c-0.794-0.832-2.125-3.201-2.125-3.201
	h15.108c0,0-1.5,2.297-2.109,3.063C31.458,5.191,28.382,8.64,28.382,8.64z"/>
<g>
	<g>
		<path d="M32.451,16.317c0.998-0.001,1.992,0.039,2.985,0.079c0.991,0.035,1.987,0.12,2.965,0.11
			c1.977-0.008,3.969-0.089,5.959-0.054c0.02-0.002,0.038,0.013,0.04,0.033l-0.001,0.004l-0.037,1.199l-0.037-1.199l0.039,0.038
			c-1.98,0.239-3.962,0.359-5.962,0.404c-1.012-0.025-1.999-0.106-2.99-0.209C34.422,16.614,33.434,16.492,32.451,16.317z"/>
	</g>
	<g>
		<path d="M32.594,18.276l0.49,8.778l-0.115-0.136c1.724,0.367,3.504,0.573,5.268,0.796l-0.006-0.001
			c0.952,0.007,1.912,0.003,2.861-0.105c0.944-0.116,1.904-0.253,2.774-0.605l-0.069,0.085c0.114-1.061,0.13-2.15,0.174-3.23
			c0.027-1.083,0.032-2.166,0.074-3.251c0.001-0.008,0.008-0.014,0.016-0.014c0.007,0,0.013,0.006,0.014,0.014
			c0.071,1.083,0.091,2.168,0.096,3.254c0.004,1.086,0.017,2.172-0.154,3.263c-0.005,0.039-0.035,0.071-0.069,0.085
			c-0.93,0.314-1.89,0.422-2.845,0.503c-0.956,0.071-1.911,0.149-2.873,0.155l-0.006-0.001c-0.891-0.068-1.778-0.146-2.667-0.243
			c-0.886-0.11-1.772-0.216-2.655-0.412c-0.065-0.015-0.111-0.071-0.115-0.136c-0.085-1.467-0.149-2.931-0.179-4.397
			c-0.033-1.466-0.072-2.933-0.042-4.4c0.001-0.008,0.007-0.014,0.015-0.014S32.593,18.269,32.594,18.276z"/>
	</g>
	
		<path fill="none" stroke="#000000" stroke-width="0.4252" stroke-linecap="round" stroke-linejoin="round" stroke-miterlimit="10" d="
		M25.681,8.71c0,0,0.569,2.917,1.016,6.119c0.286,2.048,0.357,4.768,0.362,5.477c0.026,3.273-0.243,9.818-0.291,13.092
		c-0.037,2.475,0.194,9.733,0.194,9.733"/>
	
		<path fill="none" stroke="#000000" stroke-width="0.5669" stroke-linecap="round" stroke-linejoin="round" stroke-miterlimit="10" d="
		M28.077,8.862c0,0-0.657,2.221-0.824,2.973c-0.148,0.685-0.447,2.769-0.447,2.769"/>
</g>
<g>
	<g>
		<path fill="#FFFFFF" stroke="#000000" stroke-width="0.4252" stroke-miterlimit="10" d="M42.308,25.724
			c0,0.512-0.379,0.928-0.849,0.928h-6.044c-0.47,0-0.85-0.416-0.85-0.928v-8.636c0-0.512-0.938-1.091-0.471-1.091h8.685
			c0.468,0-0.472,0.579-0.472,1.091V25.724z"/>
		<rect x="34.827" y="18.13" fill="#ED1C24" width="7.218" height="2.291"/>
		<g id="Nerd_Herd">
			<circle fill="#FFFFFF" cx="38.474" cy="19.261" r="0.773"/>
			<g id="Nerd_Herd_Text">
				<g>
					<path d="M35.361,19.036H35.5l0.127,0.262l0.055-0.262h0.138l-0.097,0.474h-0.139l-0.128-0.261l-0.052,0.261h-0.141
						L35.361,19.036z"/>
					<path d="M35.918,19.036h0.397l-0.021,0.101h-0.25l-0.016,0.075h0.231l-0.019,0.097h-0.231l-0.021,0.093h0.257l-0.022,0.108
						h-0.405L35.918,19.036z"/>
					<path d="M36.307,19.51l0.098-0.474h0.245c0.046,0,0.082,0.004,0.105,0.011c0.02,0.008,0.038,0.022,0.049,0.043
						c0.01,0.021,0.012,0.046,0.007,0.077c-0.007,0.026-0.018,0.049-0.031,0.067c-0.017,0.02-0.034,0.036-0.057,0.047
						c-0.014,0.007-0.032,0.013-0.058,0.019c0.019,0.006,0.03,0.011,0.037,0.017c0.005,0.003,0.012,0.013,0.019,0.025
						c0.009,0.013,0.011,0.022,0.014,0.03l0.045,0.137h-0.168l-0.05-0.145c-0.005-0.019-0.015-0.032-0.019-0.037
						c-0.01-0.007-0.021-0.011-0.034-0.011h-0.014l-0.038,0.193H36.307z M36.513,19.228h0.063c0.009,0,0.021-0.002,0.041-0.006
						c0.01-0.003,0.02-0.008,0.026-0.016c0.009-0.008,0.014-0.017,0.016-0.028c0.003-0.015,0-0.026-0.009-0.035
						c-0.007-0.008-0.024-0.012-0.052-0.012h-0.064L36.513,19.228z"/>
					<path d="M36.927,19.036h0.219c0.042,0,0.077,0.005,0.102,0.017c0.023,0.011,0.042,0.029,0.057,0.05
						c0.012,0.021,0.019,0.046,0.021,0.075c0.002,0.029,0,0.06-0.007,0.093c-0.009,0.05-0.024,0.09-0.04,0.118
						c-0.019,0.027-0.039,0.051-0.064,0.07s-0.048,0.031-0.072,0.038c-0.034,0.009-0.068,0.013-0.092,0.013h-0.22L36.927,19.036z
						 M37.049,19.143l-0.051,0.259h0.035c0.032,0,0.055-0.003,0.068-0.01c0.017-0.008,0.028-0.019,0.039-0.036
						c0.01-0.016,0.021-0.044,0.029-0.082c0.009-0.05,0.007-0.085-0.005-0.104c-0.015-0.018-0.038-0.027-0.077-0.027H37.049z"/>
				</g>
				<g>
					<path d="M39.638,19.034h0.15l-0.034,0.167h0.164l0.034-0.167H40.1l-0.096,0.476h-0.148l0.039-0.193H39.73l-0.035,0.193h-0.15
						L39.638,19.034z"/>
					<path d="M40.199,19.034h0.396l-0.019,0.103h-0.249l-0.017,0.075h0.231l-0.018,0.097h-0.232l-0.018,0.094h0.256l-0.021,0.108
						h-0.404L40.199,19.034z"/>
					<path d="M40.59,19.51l0.096-0.476h0.247c0.046,0,0.08,0.004,0.104,0.011c0.022,0.009,0.038,0.023,0.047,0.044
						c0.012,0.02,0.014,0.047,0.009,0.078c-0.004,0.026-0.016,0.048-0.028,0.068c-0.016,0.019-0.034,0.034-0.058,0.046
						c-0.014,0.007-0.031,0.014-0.057,0.02c0.019,0.005,0.029,0.011,0.036,0.017c0.003,0.004,0.012,0.013,0.019,0.024
						c0.009,0.014,0.014,0.023,0.014,0.03l0.046,0.138h-0.166l-0.053-0.146c-0.007-0.019-0.012-0.032-0.019-0.037
						c-0.012-0.007-0.022-0.011-0.035-0.011h-0.012L40.74,19.51H40.59z M40.797,19.227h0.062c0.007,0,0.021-0.003,0.039-0.006
						c0.012-0.002,0.021-0.008,0.029-0.016c0.009-0.009,0.011-0.018,0.016-0.027c0.002-0.015,0-0.026-0.01-0.035
						c-0.008-0.009-0.026-0.013-0.054-0.013h-0.064L40.797,19.227z"/>
					<path d="M41.206,19.034h0.223c0.043,0,0.075,0.006,0.1,0.017c0.025,0.013,0.046,0.029,0.058,0.052
						c0.014,0.021,0.022,0.046,0.022,0.075c0.002,0.029,0,0.061-0.005,0.093c-0.011,0.05-0.024,0.09-0.04,0.117
						c-0.019,0.029-0.039,0.053-0.064,0.072s-0.047,0.031-0.074,0.038c-0.034,0.009-0.064,0.013-0.091,0.013h-0.221L41.206,19.034z
						 M41.335,19.142l-0.052,0.259h0.037c0.028,0,0.052-0.003,0.067-0.01c0.014-0.006,0.025-0.018,0.037-0.035
						c0.014-0.018,0.021-0.045,0.027-0.083c0.012-0.05,0.012-0.085-0.003-0.103c-0.014-0.018-0.041-0.028-0.077-0.028H41.335z"/>
				</g>
			</g>
			<path id="Red_Circle" fill="#EF3E2A" d="M38.475,18.288c-0.538,0-0.975,0.435-0.975,0.974c0,0.538,0.437,0.974,0.975,0.974
				c0.536,0,0.973-0.436,0.973-0.974C39.447,18.723,39.011,18.288,38.475,18.288z M38.479,20.048c-0.437,0-0.789-0.353-0.789-0.787
				c0-0.435,0.353-0.787,0.789-0.787c0.432,0,0.786,0.353,0.786,0.787C39.266,19.695,38.911,20.048,38.479,20.048z"/>
			<g id="Running_Nerd">
				<path fill-rule="evenodd" clip-rule="evenodd" d="M38.147,19.06c0.075-0.013,0.091-0.128,0.021-0.175
					c-0.021-0.014-0.032-0.023-0.068-0.018c0-0.032-0.014-0.084-0.014-0.084l-0.207,0.05l0.06,0.34l0.22-0.041
					C38.158,19.131,38.158,19.123,38.147,19.06z M38.112,18.908c0.073-0.02,0.099,0.105,0.021,0.111
					C38.112,18.908,38.134,19.02,38.112,18.908z"/>
				<path fill-rule="evenodd" clip-rule="evenodd" d="M38.897,19.332c-0.112,0.061-0.195-0.041-0.23-0.125
					c0.049-0.063,0.049-0.063,0.049-0.063s0.007-0.021,0.007-0.028c0-0.008-0.01-0.03-0.01-0.03s-0.108-0.087-0.147-0.13
					c-0.044,0.027,0,0-0.044,0.027c-0.044-0.07-0.143-0.116-0.264-0.09c0,0.11,0,0,0,0.11c0.069-0.011,0.148-0.001,0.183,0.042
					c-0.012,0.021-0.009,0.053-0.009,0.084c-0.075,0.076-0.075,0.229-0.089,0.367c-0.111,0.001-0.168-0.055-0.166-0.167
					c-0.071,0-0.141,0-0.209,0c0.004,0.172,0.111,0.296,0.276,0.319c0.15,0.021,0.458-0.134,0.43,0.119c0.066,0,0.13,0,0.194,0
					c-0.003-0.197-0.114-0.289-0.275-0.326c0-0.039,0.005-0.069,0.027-0.083c0.065,0.06,0.146,0.111,0.284,0.104
					C38.907,19.415,38.893,19.383,38.897,19.332z"/>
				<circle fill-rule="evenodd" clip-rule="evenodd" cx="38.743" cy="18.901" r="0.129"/>
			</g>
		</g>
		<rect x="36.831" y="20.933" fill="#605F61" width="3.212" height="3.709"/>
		<text transform="matrix(1 0 0 1 35.1592 25.6587)" display="none" font-family="'ArialMT'" font-size="0.6672">CHUCK BARTOWSKI</text>
		<g>
			<path fill="#FFFFFF" d="M38.824,24.002H38.05l-0.228,0.151c0,0-0.298,0.107-0.382,0.17c-0.062,0.045-0.204,0.228-0.204,0.228
				h2.401c0,0-0.102-0.175-0.154-0.216c-0.079-0.059-0.368-0.138-0.368-0.138L38.824,24.002z"/>
			<path fill="#FFFFFF" d="M39.19,23.778c0,0.125-0.094,0.225-0.207,0.225h-1.093c-0.113,0-0.207-0.1-0.207-0.225l-0.045-1.125
				c0-0.124,0.09-0.225,0.204-0.225h1.188c0.114,0,0.207,0.101,0.207,0.225L39.19,23.778z"/>
			<path fill="#FFFFFF" d="M39.386,22.866c0,0.098,0.019,0.773-0.175,0.737c-0.082-0.344,0.129-0.701-0.168-0.982
				c-0.214-0.205-0.239,0.036-0.632,0.049c-0.07,0.003-0.361-0.105-0.443-0.125c-0.268-0.064-0.239,0.486-0.284,1.033
				c-0.147,0.027-0.156-0.464-0.156-0.711c0-0.525,0.141-0.97,0.92-0.97C39.132,21.896,39.386,22.341,39.386,22.866z"/>
		</g>
	</g>
	<path fill="#00954D" stroke="#000000" stroke-width="0.4252" stroke-miterlimit="10" d="M42.908,14.176
		c0-0.182-0.14-0.33-0.314-0.33H34.28c-0.175,0-0.314,0.147-0.314,0.33v1.653h4.508h4.435V14.176z"/>
	<g>
		<rect x="35.593" y="25.148" fill="#414042" width="2.264" height="0.51"/>
		<rect x="38.162" y="25.148" fill="#414042" width="3.013" height="0.51"/>
	</g>
</g>
<g>
	
		<polygon fill="#A2A1A3" stroke="#000000" stroke-width="0.4252" stroke-linecap="round" stroke-linejoin="round" stroke-miterlimit="10" points="
		24.896,27.81 23.968,28.292 23.267,27.401 24.965,12.669 26.798,12.999 	"/>
	
		<polygon fill="#A2A1A3" stroke="#000000" stroke-width="0.4252" stroke-linecap="round" stroke-linejoin="round" stroke-miterlimit="10" points="
		33.326,8.938 28.234,11.75 27.749,10.102 31.822,6.95 	"/>
	
		<polygon fill="#A2A1A3" stroke="#000000" stroke-width="0.4252" stroke-linecap="round" stroke-linejoin="round" stroke-miterlimit="10" points="
		24.985,12.167 20.816,8.677 21.93,6.98 25.034,10.034 	"/>
	<g>
		<path fill="#A2A1A3" d="M30.387,38.393l-2.823,3.627L24.5,38.393c0,0,0.592-12.47,0.708-16.631
			c0.06-2.155,0.116-8.625,0.116-8.625h2.426c0,0,0.752,5.617,0.948,7.49C29.16,25.069,30.387,38.393,30.387,38.393z"/>
		<path d="M30.555,38.524l-2.823,3.627c-0.072,0.093-0.206,0.109-0.299,0.037l-0.032-0.031l-3.064-3.626
			c-0.036-0.042-0.053-0.097-0.05-0.147c0.263-4.204,0.453-8.412,0.647-12.619c0.098-2.104,0.187-4.206,0.184-6.312
			c0.015-2.105,0.031-4.211-0.006-6.318c-0.002-0.114,0.089-0.208,0.203-0.21h0.003h0.006h2.426c0.107-0.001,0.197,0.08,0.211,0.184
			l0.811,6.3c0.249,2.109,0.435,4.214,0.643,6.322l1.185,12.644C30.604,38.429,30.586,38.483,30.555,38.524z M30.167,38.329
			L28.99,25.771c-0.207-2.105-0.394-4.217-0.641-6.312l-0.811-6.294l0.211,0.184h-2.426l0.212-0.21
			c-0.128,4.21-0.171,8.426-0.346,12.636l-0.478,12.628l-0.05-0.146l3.064,3.626l-0.33,0.007L30.167,38.329z"/>
	</g>
	
		<path fill="#A2A1A3" stroke="#000000" stroke-width="0.4252" stroke-linecap="round" stroke-linejoin="round" stroke-miterlimit="10" d="
		M28.101,13.362c0,0-0.921-0.199-1.626-0.176c-0.704,0.021-1.746,0.341-1.746,0.341s-0.996-1.953-0.478-3.058
		c0.52-0.41,3.613-1.184,4.653-0.783C29.141,10.932,28.101,13.362,28.101,13.362z"/>
</g>
<g>
	<g>
		<path fill="#EFF0EF" d="M17.112,1.007c0,0,0.315,2.311,1.083,4.694c0.613,1.909,2.726,5.564,2.726,5.564s0.956-1.751,1.32-2.308
			c0.278-0.425,1.213-1.629,1.213-1.629l2.209,1.31c-2.778-3.11-3.111-2.968-4.259-4.306c-1.446-1.688-2.132-3.325-2.132-3.325"/>
		<path d="M17.141,1.003c0.159,0.904,0.365,1.799,0.603,2.684c0.245,0.881,0.501,1.766,0.858,2.595
			c0.746,1.658,1.656,3.258,2.561,4.844l0,0l-0.484,0.006c0.389-0.682,0.775-1.36,1.19-2.033c0.206-0.346,0.464-0.662,0.699-0.97
			l0.729-0.923L23.301,7.2c0.062-0.078,0.173-0.095,0.255-0.043l2.172,1.373l-0.159,0.192l0,0c-0.564-0.614-1.143-1.214-1.727-1.805
			c-0.584-0.595-1.21-1.127-1.827-1.708c-1.204-1.193-2.17-2.618-2.769-4.191c-0.005-0.015,0.002-0.031,0.017-0.036
			c0.014-0.005,0.029,0.002,0.036,0.015c0.391,0.735,0.849,1.431,1.328,2.105c0.492,0.664,1.01,1.314,1.607,1.878
			c0.608,0.554,1.25,1.112,1.831,1.716c0.591,0.597,1.144,1.227,1.693,1.857h0c0.048,0.05,0.046,0.129-0.003,0.177
			c-0.041,0.039-0.101,0.045-0.147,0.02l-0.008-0.004L23.353,7.5l0.259-0.049c-0.456,0.626-0.951,1.253-1.328,1.898
			c-0.386,0.669-0.754,1.361-1.119,2.049c-0.071,0.135-0.238,0.186-0.373,0.115c-0.046-0.024-0.082-0.06-0.107-0.102l-0.004-0.007
			l0,0c-0.9-1.613-1.757-3.247-2.417-4.987c-0.321-0.879-0.527-1.781-0.725-2.681c-0.189-0.902-0.345-1.811-0.455-2.725
			c-0.001-0.016,0.009-0.03,0.025-0.032C17.124,0.978,17.138,0.988,17.141,1.003z"/>
	</g>
	<g>
		<path fill="#EFF0EF" d="M36.746,1.007c0,0-0.241,1.754-1.228,4.519c-0.547,1.533-2.746,5.904-2.746,5.904
			s-0.438-1.251-1.019-2.051c-0.905-1.248-1.678-1.721-1.678-1.721l-2.047,1.145c0,0,2.522-2.793,3.873-4.327
			c0.713-0.809,2.352-3.469,2.352-3.469"/>
		<path d="M36.774,1.011c-0.108,0.932-0.295,1.854-0.536,2.76c-0.246,0.905-0.497,1.809-0.854,2.69
			c-0.344,0.875-0.721,1.732-1.126,2.576c-0.398,0.847-0.797,1.692-1.242,2.516l0,0c-0.068,0.135-0.233,0.188-0.368,0.12
			c-0.064-0.033-0.111-0.09-0.135-0.152c-0.253-0.713-0.562-1.442-0.985-2.046c-0.228-0.32-0.461-0.611-0.723-0.894
			c-0.258-0.274-0.547-0.548-0.836-0.748l0.206,0.004l-2.083,1.079h0c-0.061,0.036-0.14,0.015-0.176-0.046
			C27.888,8.82,27.895,8.761,27.93,8.72l0.003-0.004c1.091-1.261,2.194-2.51,3.313-3.744c0.579-0.608,1.063-1.25,1.54-1.94
			l1.442-2.041c0.01-0.013,0.027-0.016,0.04-0.007c0.012,0.008,0.015,0.024,0.009,0.036c-0.389,0.741-0.806,1.464-1.263,2.165
			c-0.434,0.706-0.964,1.393-1.526,2.001c-1.097,1.257-2.222,2.487-3.364,3.702L27.966,8.69h0l2.01-1.211
			c0.064-0.04,0.146-0.035,0.207,0.004c0.702,0.473,1.232,1.071,1.726,1.706c0.498,0.67,0.825,1.396,1.121,2.151l-0.502-0.033l0,0
			l2.444-5.023c0.395-0.829,0.7-1.712,0.996-2.592c0.281-0.885,0.561-1.776,0.749-2.688c0.003-0.016,0.018-0.026,0.033-0.023
			C36.766,0.982,36.775,0.996,36.774,1.011z"/>
	</g>
</g>
</svg>
