<?xml version="1.0" encoding="utf-8"?>
<!-- Generator: Adobe Illustrator 15.1.0, SVG Export Plug-In . SVG Version: 6.00 Build 0)  -->
<!DOCTYPE svg PUBLIC "-//W3C//DTD SVG 1.1//EN" "http://www.w3.org/Graphics/SVG/1.1/DTD/svg11.dtd">
<svg version="1.1" xmlns="http://www.w3.org/2000/svg" xmlns:xlink="http://www.w3.org/1999/xlink" x="0px" y="0px"
	 width="53.858px" height="45.354px" viewBox="0 0 53.858 45.354" enable-background="new 0 0 53.858 45.354" xml:space="preserve">
<g id="torso">
	<path id="base" inkscape:connector-curvature="0" fill="#ED1C24" stroke="#231F20" stroke-width="0.3125" d="M0.943,44.131
		C9.675-3.163,6.286,1.452,15.21,1.275h23.44c8.926,0.177,5.535-4.438,14.265,42.856H0.943z"/>
</g>
<g id="design">
	<defs>
		<path id="SVGID_1_" d="M1.351,43.792c1.942-10.538,3.294-18.564,4.285-24.444C8.405,2.906,8.631,1.563,11.979,1.563
			c0.332,0,0.691,0.012,1.084,0.025c0.48,0.016,1.01,0.033,1.597,0.033c0.181,0,0.365-0.002,0.557-0.005H38.65
			c0.184,0.003,0.371,0.005,0.551,0.005c0.586,0,1.115-0.018,1.596-0.033c0.395-0.013,0.754-0.025,1.086-0.025
			c3.348,0,3.574,1.342,6.34,17.771c0.99,5.883,2.342,13.913,4.285,24.458H1.351z"/>
	</defs>
	<clipPath id="SVGID_2_">
		<use xlink:href="#SVGID_1_"  overflow="visible"/>
	</clipPath>
	<path id="collar" clip-path="url(#SVGID_2_)" d="M35.862,1.986c0,0-4.893,1.443-8.891,1.443c-3.672,0-8.977-1.443-8.977-1.443
		l-1.77,1.478l0.412,1.664c0,0,0.556,1.274,4.58,1.942c2.941,0.487,5.308,0.478,5.308,0.478l0.574-0.002c0,0,2.479,0.032,5.54-0.475
		c4.024-0.667,4.579-1.942,4.579-1.942l0.413-1.657L35.862,1.986z"/>
	<g id="symbols" clip-path="url(#SVGID_2_)">
		<path fill="#E5A739" d="M24.471,6.352c0,0,0.162-0.149,0.217-0.355c0.007-0.027-0.117-0.07-0.11-0.099
			c0.026-0.121,0.18-0.237,0.183-0.359c0-0.023-0.131-0.061-0.134-0.086c-0.007-0.099,0.101-0.197,0.07-0.31
			c-0.007-0.025-0.145-0.065-0.151-0.091c-0.027-0.094-0.029-0.149-0.06-0.23c-0.006-0.015-0.141-0.042-0.146-0.056
			c-0.059-0.149-0.223-0.082-0.287-0.108c-0.022-0.01-0.056-0.017-0.097-0.021c0.059-0.085,0.151-0.236,0.124-0.294
			c-0.013-0.028-0.054-0.054-0.11-0.077c0.036-0.098,0.086-0.251,0.059-0.321c-0.05-0.125-0.277-0.091-0.441-0.064l0.022-0.218
			l-0.019-0.002l-0.046-0.004l-0.02-0.002L23.502,3.87c-0.155-0.059-0.372-0.14-0.446-0.028c-0.041,0.063-0.025,0.223-0.008,0.326
			c-0.06,0.011-0.107,0.027-0.125,0.052c-0.039,0.051,0.021,0.217,0.061,0.313c-0.041-0.004-0.075-0.004-0.101,0
			c-0.066,0.013-0.213-0.088-0.301,0.046c-0.007,0.012-0.147,0.011-0.154,0.025c-0.047,0.073-0.061,0.126-0.108,0.212
			c-0.011,0.024-0.155,0.033-0.167,0.057c-0.052,0.104,0.032,0.222,0.005,0.318c-0.007,0.024-0.144,0.034-0.146,0.056
			c-0.025,0.12,0.1,0.266,0.102,0.389c0,0.031-0.129,0.046-0.128,0.074c0.011,0.213,0.139,0.393,0.139,0.393
			s-0.161,0.027-0.189,0.069c-0.043,0.065,0.012,0.311,0.012,0.311c0.054-0.097,0.21-0.156,0.388-0.138
			c0.181,0.019-0.019,0.108,0.059,0.188c0.323,0.33,0.162-0.049,0.868,0.042c0.71,0.059,0.473,0.396,0.856,0.14
			c0.095-0.062-0.081-0.19,0.097-0.172c0.179,0.019,0.318,0.11,0.352,0.216c0,0,0.104-0.229,0.075-0.301
			C24.623,6.413,24.471,6.352,24.471,6.352z M22.481,5.314c0.045-0.434,0.255-0.507,0.465-0.533
			c-0.145,0.142-0.217,0.335-0.242,0.556c-0.036,0.35,0.141,0.672,0.375,0.844C23.079,6.181,22.39,6.171,22.481,5.314z
			 M23.447,4.147c-0.093-0.004-0.175-0.001-0.301,0.009c-0.018-0.123-0.022-0.236-0.007-0.26c0.02-0.029,0.131-0.009,0.332,0.067
			L23.447,4.147z M23.599,3.977c0.211-0.033,0.325-0.029,0.337,0.003c0.012,0.027-0.017,0.137-0.061,0.253
			c-0.12-0.037-0.2-0.056-0.291-0.071L23.599,3.977z M23.519,6.228c0.268-0.119,0.505-0.397,0.541-0.748
			c0.024-0.22-0.007-0.425-0.118-0.594c0.2,0.069,0.391,0.184,0.344,0.619C24.196,6.361,23.519,6.228,23.519,6.228z"/>
		<path fill="#E5A739" d="M29.216,6.459c-0.029,0.072,0.077,0.301,0.077,0.301c0.031-0.106,0.173-0.197,0.35-0.216
			c0.18-0.019,0.004,0.11,0.097,0.172c0.386,0.255,0.147-0.082,0.858-0.14c0.706-0.091,0.544,0.289,0.866-0.042
			c0.079-0.08-0.12-0.169,0.059-0.188c0.179-0.019,0.334,0.041,0.39,0.138c0,0,0.054-0.246,0.01-0.311
			c-0.026-0.042-0.188-0.069-0.188-0.069s0.129-0.18,0.139-0.393c0.002-0.028-0.128-0.043-0.128-0.074
			c0.002-0.124,0.126-0.27,0.103-0.389c-0.004-0.022-0.142-0.032-0.147-0.056c-0.027-0.096,0.057-0.214,0.004-0.318
			c-0.011-0.024-0.154-0.033-0.167-0.057c-0.047-0.086-0.061-0.14-0.107-0.212c-0.008-0.014-0.146-0.013-0.154-0.025
			c-0.087-0.134-0.233-0.033-0.3-0.046c-0.025-0.005-0.062-0.004-0.101,0c0.039-0.096,0.1-0.262,0.061-0.313
			c-0.019-0.025-0.065-0.041-0.125-0.052c0.016-0.103,0.031-0.263-0.009-0.326C30.726,3.73,30.51,3.811,30.355,3.87l-0.022-0.218
			l-0.021,0.002l-0.045,0.004l-0.02,0.002l0.023,0.218c-0.164-0.026-0.394-0.06-0.442,0.064c-0.026,0.07,0.022,0.223,0.06,0.321
			c-0.057,0.023-0.099,0.048-0.112,0.077C29.75,4.4,29.843,4.55,29.901,4.636c-0.04,0.004-0.075,0.011-0.098,0.021
			c-0.063,0.027-0.228-0.041-0.285,0.108c-0.006,0.014-0.142,0.042-0.146,0.056c-0.03,0.081-0.033,0.136-0.06,0.23
			c-0.009,0.026-0.146,0.065-0.152,0.091c-0.03,0.112,0.076,0.21,0.069,0.31c-0.001,0.025-0.132,0.063-0.132,0.086
			C29.1,5.66,29.252,5.777,29.28,5.897c0.007,0.029-0.117,0.072-0.109,0.099c0.054,0.207,0.217,0.355,0.217,0.355
			S29.235,6.413,29.216,6.459z M30.779,6.181c0.235-0.172,0.41-0.494,0.374-0.844c-0.023-0.221-0.097-0.415-0.241-0.556
			c0.21,0.026,0.42,0.099,0.465,0.533C31.466,6.171,30.779,6.181,30.779,6.181z M30.385,3.963c0.201-0.076,0.314-0.097,0.333-0.067
			c0.015,0.024,0.011,0.137-0.008,0.26c-0.124-0.011-0.207-0.014-0.299-0.009L30.385,3.963z M30.273,4.162
			c-0.091,0.015-0.171,0.034-0.291,0.071c-0.043-0.116-0.071-0.226-0.062-0.253c0.014-0.033,0.127-0.036,0.339-0.003L30.273,4.162z
			 M29.571,5.505c-0.045-0.435,0.146-0.55,0.346-0.619c-0.113,0.169-0.143,0.374-0.12,0.594c0.036,0.35,0.275,0.628,0.542,0.748
			C30.338,6.228,29.662,6.361,29.571,5.505z"/>
	</g>
	<g id="buttons" clip-path="url(#SVGID_2_)">
		<g>
			<g>
				<circle fill="#E5A739" cx="28.727" cy="10.085" r="0.934"/>
				<path d="M28.727,9.364c0.397,0,0.722,0.324,0.722,0.722s-0.324,0.721-0.722,0.721s-0.722-0.323-0.722-0.721
					S28.33,9.364,28.727,9.364 M28.727,8.938c-0.635,0-1.146,0.514-1.146,1.147c0,0.633,0.512,1.146,1.146,1.146
					c0.632,0,1.146-0.514,1.146-1.146C29.874,9.452,29.359,8.938,28.727,8.938L28.727,8.938z"/>
			</g>
			<g>
				<circle fill="#E5A739" cx="28.727" cy="17.993" r="0.934"/>
				<path d="M28.727,17.271c0.397,0,0.722,0.323,0.722,0.721s-0.324,0.721-0.722,0.721s-0.722-0.323-0.722-0.721
					S28.33,17.271,28.727,17.271 M28.727,16.846c-0.635,0-1.146,0.514-1.146,1.146c0,0.634,0.512,1.146,1.146,1.146
					c0.632,0,1.146-0.513,1.146-1.146C29.874,17.36,29.359,16.846,28.727,16.846L28.727,16.846z"/>
			</g>
			<g>
				<circle fill="#E5A739" cx="28.727" cy="25.9" r="0.934"/>
				<path d="M28.727,25.178c0.397,0,0.722,0.324,0.722,0.722s-0.324,0.722-0.722,0.722s-0.722-0.324-0.722-0.722
					S28.33,25.178,28.727,25.178 M28.727,24.753c-0.635,0-1.146,0.515-1.146,1.146c0,0.635,0.512,1.146,1.146,1.146
					c0.632,0,1.146-0.512,1.146-1.146C29.874,25.268,29.359,24.753,28.727,24.753L28.727,24.753z"/>
			</g>
			<g>
				<circle fill="#E5A739" cx="28.727" cy="33.808" r="0.934"/>
				<path d="M28.727,33.086c0.397,0,0.722,0.324,0.722,0.722s-0.324,0.722-0.722,0.722s-0.722-0.324-0.722-0.722
					S28.33,33.086,28.727,33.086 M28.727,32.662c-0.635,0-1.146,0.514-1.146,1.146c0,0.634,0.512,1.146,1.146,1.146
					c0.632,0,1.146-0.513,1.146-1.146C29.874,33.175,29.359,32.662,28.727,32.662L28.727,32.662z"/>
			</g>
			<g>
				<circle fill="#E5A739" cx="28.727" cy="41.715" r="0.934"/>
				<path d="M28.727,40.994c0.397,0,0.722,0.324,0.722,0.722s-0.324,0.722-0.722,0.722s-0.722-0.324-0.722-0.722
					S28.33,40.994,28.727,40.994 M28.727,40.569c-0.635,0-1.146,0.515-1.146,1.146c0,0.635,0.512,1.146,1.146,1.146
					c0.632,0,1.146-0.512,1.146-1.146C29.874,41.083,29.359,40.569,28.727,40.569L28.727,40.569z"/>
			</g>
		</g>
		
			<line fill="none" stroke="#000000" stroke-width="0.5669" stroke-miterlimit="10" x1="26.765" y1="7.585" x2="26.765" y2="44.13"/>
	</g>
	<g id="top_pockets" clip-path="url(#SVGID_2_)">
		<g>
			<g>
				<path fill="none" stroke="#000000" stroke-width="0.5669" stroke-linejoin="round" stroke-miterlimit="10" d="M45.179,13.572
					l-0.011,4.719c0,0-1.941-1.763-3.021-1.763c-0.892-0.002-3.479,1.408-3.479,1.408s-2.503-1.41-3.367-1.41
					c-1.078,0.002-3.021,1.766-3.021,1.766l-0.011-4.718h6.505L45.179,13.572z"/>
				<path fill="none" stroke="#000000" stroke-width="0.5669" stroke-linejoin="round" stroke-miterlimit="10" d="M44.86,17.866
					l-0.164,7.163c0,0.363-0.293,0.657-0.656,0.657H33.412c-0.364,0-0.657-0.294-0.657-0.657l-0.164-7.163"/>
				<g>
					<circle fill="#E5A739" cx="38.725" cy="15.797" r="0.934"/>
					<path d="M38.725,15.076c0.397,0,0.722,0.323,0.722,0.721s-0.324,0.721-0.722,0.721s-0.722-0.323-0.722-0.721
						S38.328,15.076,38.725,15.076 M38.725,14.65c-0.633,0-1.146,0.514-1.146,1.146c0,0.633,0.514,1.146,1.146,1.146
						s1.146-0.513,1.146-1.146C39.872,15.164,39.358,14.65,38.725,14.65L38.725,14.65z"/>
				</g>
				<g>
					
						<line fill="none" stroke="#000000" stroke-width="0.4252" stroke-linejoin="round" stroke-miterlimit="10" x1="36.837" y1="25.686" x2="36.837" y2="17.248"/>
					
						<line fill="none" stroke="#000000" stroke-width="0.4252" stroke-linejoin="round" stroke-miterlimit="10" x1="40.613" y1="25.686" x2="40.613" y2="17.248"/>
				</g>
			</g>
		</g>
		<g>
			<g>
				<path fill="none" stroke="#000000" stroke-width="0.5669" stroke-linejoin="round" stroke-miterlimit="10" d="M21.585,13.572
					l-0.01,4.719c0,0-1.942-1.763-3.021-1.763c-0.892-0.002-3.478,1.408-3.478,1.408s-2.503-1.41-3.367-1.41
					c-1.079,0.002-3.021,1.766-3.021,1.766l-0.01-4.718h6.505L21.585,13.572z"/>
				<path fill="none" stroke="#000000" stroke-width="0.5669" stroke-linejoin="round" stroke-miterlimit="10" d="M21.266,17.866
					l-0.163,7.163c0,0.363-0.294,0.657-0.657,0.657H9.818c-0.363,0-0.656-0.294-0.656-0.657l-0.164-7.163"/>
				<g>
					<circle fill="#E5A739" cx="15.132" cy="15.797" r="0.934"/>
					<path d="M15.132,15.076c0.398,0,0.721,0.323,0.721,0.721s-0.323,0.721-0.721,0.721s-0.721-0.323-0.721-0.721
						S14.734,15.076,15.132,15.076 M15.132,14.65c-0.634,0-1.146,0.514-1.146,1.146c0,0.633,0.513,1.146,1.146,1.146
						c0.633,0,1.146-0.513,1.146-1.146C16.279,15.164,15.765,14.65,15.132,14.65L15.132,14.65z"/>
				</g>
				<g>
					
						<line fill="none" stroke="#000000" stroke-width="0.4252" stroke-linejoin="round" stroke-miterlimit="10" x1="13.244" y1="25.686" x2="13.244" y2="17.248"/>
					
						<line fill="none" stroke="#000000" stroke-width="0.4252" stroke-linejoin="round" stroke-miterlimit="10" x1="17.02" y1="25.686" x2="17.02" y2="17.248"/>
				</g>
			</g>
		</g>
	</g>
	<g id="lower_pockets" clip-path="url(#SVGID_2_)">
		<path fill="none" stroke="#000000" stroke-width="0.4252" stroke-linejoin="round" stroke-miterlimit="10" d="M46.475,38.497
			l-0.011,4.564c0,0-2.304-1.768-3.583-1.768c-1.057-0.003-4.123,1.412-4.123,1.412s-2.969-1.415-3.994-1.415
			c-1.278,0.003-3.582,1.771-3.582,1.771l-0.012-4.563h7.713L46.475,38.497z"/>
		<path fill="none" stroke="#000000" stroke-width="0.4252" stroke-linejoin="round" stroke-miterlimit="10" d="M22.689,38.497
			l-0.012,4.564c0,0-2.303-1.768-3.582-1.768c-1.057-0.003-4.124,1.412-4.124,1.412s-2.968-1.415-3.993-1.415
			c-1.279,0.003-3.582,1.771-3.582,1.771l-0.012-4.563h7.713L22.689,38.497z"/>
	</g>
	<g id="belt-2" clip-path="url(#SVGID_2_)">
		<path fill="#692E14" stroke="#000000" stroke-width="0.4252" stroke-miterlimit="10" d="M7.586,31.605l-1.004-1.814
			c0.079-0.05,9.097-4.443,18.808-12.236c6.494-5.211,17.872-16.362,17.872-16.362l1.896,1.566c0,0-11.554,11.354-18.231,16.711
			C17.099,27.357,7.667,31.554,7.586,31.605z"/>
		<g>
			<path fill="#A2A1A3" stroke="#000000" stroke-width="0.2835" stroke-miterlimit="10" d="M26.103,19.744l-1.089-1.442
				c-0.284-0.374-0.867-0.414-1.298-0.087l-1.309,0.995c-0.432,0.327-0.516,0.515-0.233,0.89c0,0,0.444-0.311,0.588-0.421
				l1.309-0.994c0.144-0.11,0.431,0.028,0.525,0.154L25.477,20c0.095,0.123,0.148,0.438,0.004,0.548l-1.308,0.994
				c-0.145,0.109-0.589,0.471-0.589,0.471c0.284,0.374,0.511,0.325,0.942-0.003l1.309-0.993
				C26.267,20.689,26.388,20.119,26.103,19.744z"/>
			<path fill="#A2A1A3" stroke="#000000" stroke-width="0.2835" stroke-miterlimit="10" d="M25.28,19.268
				c0.116,0.152,0.108,0.355-0.02,0.453l-0.708,0.538c-0.126,0.098-0.325,0.051-0.441-0.102l0,0
				c-0.117-0.155-0.108-0.358,0.019-0.454l0.709-0.54C24.965,19.067,25.163,19.113,25.28,19.268L25.28,19.268z"/>
		</g>
	</g>
	<g id="belt-1" clip-path="url(#SVGID_2_)">
		<polygon fill="#692E14" stroke="#000000" stroke-width="0.5669" stroke-linejoin="round" stroke-miterlimit="10" points="
			52.75,36.9 1.106,36.9 1.925,31.819 51.932,31.819 		"/>
		<g>
			
				<path fill="#A2A1A3" stroke="#000000" stroke-width="0.2835" stroke-linecap="round" stroke-linejoin="round" stroke-miterlimit="10" d="
				M28.132,30.887h-3.276c-0.575,0-1.044,0.467-1.044,1.042v4.859c0,0.576,0.469,1.043,1.044,1.043h3.276
				c0.575,0,1.044-0.467,1.044-1.043v-4.859C29.176,31.354,28.708,30.887,28.132,30.887z M28.194,36.789h-3.338v-4.891h3.338V36.789
				z"/>
			
				<path fill="#A2A1A3" stroke="#000000" stroke-width="0.2835" stroke-linecap="round" stroke-linejoin="round" stroke-miterlimit="10" d="
				M25.833,33.661h-1.93c-0.164,0-0.298-0.175-0.298-0.386c0-0.212,0.134-0.384,0.298-0.384h1.93c0.164,0,0.298,0.172,0.298,0.384
				C26.131,33.486,25.998,33.661,25.833,33.661z"/>
			
				<path fill="#A2A1A3" stroke="#000000" stroke-width="0.2835" stroke-linecap="round" stroke-linejoin="round" stroke-miterlimit="10" d="
				M26.131,35.442c0-0.213-0.134-0.384-0.298-0.384h-1.93c-0.164,0-0.298,0.171-0.298,0.384c0,0.211,0.134,0.386,0.298,0.386h1.93
				C25.998,35.828,26.131,35.653,26.131,35.442z"/>
		</g>
		<g>
			<g>
				<circle cx="20.939" cy="33.405" r="0.475"/>
				<circle cx="17.092" cy="33.404" r="0.475"/>
				<circle cx="13.244" cy="33.403" r="0.475"/>
				<circle cx="9.396" cy="33.402" r="0.475"/>
				<circle cx="5.549" cy="33.401" r="0.475"/>
			</g>
			<g>
				<circle cx="20.939" cy="35.319" r="0.475"/>
				<circle cx="17.092" cy="35.318" r="0.475"/>
				<circle cx="13.244" cy="35.317" r="0.475"/>
				<circle cx="9.396" cy="35.316" r="0.475"/>
				<circle cx="5.549" cy="35.315" r="0.475"/>
			</g>
		</g>
		<g>
			<circle cx="31.267" cy="34.359" r="0.475"/>
			<circle cx="35.492" cy="34.359" r="0.475"/>
			<circle cx="39.717" cy="34.359" r="0.475"/>
			<circle cx="43.942" cy="34.359" r="0.476"/>
			<circle cx="48.167" cy="34.359" r="0.475"/>
		</g>
	</g>
	<g id="pouch" clip-path="url(#SVGID_2_)">
		<path fill="#692E14" stroke="#000000" stroke-width="0.5669" stroke-miterlimit="10" d="M21.789,39.347
			c0,0.362-0.293,0.655-0.655,0.655h-5.97c-0.361,0-0.655-0.293-0.655-0.655l-0.163-8.212c0-0.362,0.293-0.655,0.654-0.655h6.298
			c0.361,0,0.655,0.293,0.655,0.655L21.789,39.347z"/>
		<path fill="none" stroke="#000000" stroke-width="0.4252" stroke-linejoin="round" stroke-miterlimit="10" d="M14.547,33.35
			c0,0,1.512-0.08,2.003,0.164c0.392,0.194,0.85,0.982,1.608,0.982c0.686,0,1.216-0.79,1.607-0.982
			c0.524-0.258,1.984-0.164,1.984-0.164"/>
		<circle fill="#E5A739" stroke="#000000" stroke-width="0.2835" stroke-miterlimit="10" cx="18.148" cy="32.948" r="0.696"/>
	</g>
	<g id="holster" clip-path="url(#SVGID_2_)">
		<path fill="#692E14" stroke="#000000" stroke-width="0.5669" stroke-linejoin="round" stroke-miterlimit="10" d="M8.818,42.484
			c0,0.532,0.432,0.963,0.963,0.963h2.452c0.531,0,0.963-0.431,0.963-0.963V30.577c0-0.531-0.432-0.963-0.963-0.963H5.299
			c-0.531,0-0.961,0.432-0.961,0.963c0,0-0.188,1.412,0.019,1.887c0.581,1.328,2.661,3.458,3.298,4.759
			C8.242,38.42,8.818,42.484,8.818,42.484z"/>
		<path fill="none" stroke="#000000" stroke-width="0.4252" stroke-linecap="round" stroke-miterlimit="10" d="M4.468,32.446
			c0,0,1.666,1.637,4.219,1.637c2.455,0,4.284-1.637,4.284-1.637"/>
		<circle fill="#E5A739" stroke="#000000" stroke-width="0.2835" stroke-miterlimit="10" cx="8.604" cy="32.573" r="0.696"/>
	</g>
	<g clip-path="url(#SVGID_2_)">
		<path fill="#EFF0ED" stroke="#000000" stroke-width="0.2835" stroke-miterlimit="10" d="M28.608,9.914
			c-0.239,0-0.458-0.005-0.651-0.014c-0.585-0.026-1.28,0.738-1.338,0.729c-0.041,0.002-0.113-0.808-0.739-0.829
			c-1.746-0.059-5.25-0.343-7.633-1.586c-4.288-2.204-4.021-6.434-4.009-6.613c0.018-0.225,0.222-0.396,0.439-0.377
			c0.226,0.017,0.395,0.213,0.377,0.439c-0.011,0.157-0.244,3.865,3.569,5.825c2.264,1.181,5.748,1.445,7.418,1.5
			c0.583,0.019,0.781,0.667,0.795,0.664c0.03,0.003,0.532-0.604,1.084-0.581c1.761,0.075,5.698-0.099,8.708-2.747
			c1.855-1.632,2.48-4.665,2.486-4.695c0.045-0.221,0.254-0.365,0.481-0.321c0.223,0.044,0.365,0.26,0.321,0.482
			c-0.026,0.135-0.687,3.337-2.747,5.149C34.269,9.491,30.672,9.914,28.608,9.914z"/>
		<path fill="#EFF0ED" stroke="#000000" stroke-width="0.2835" stroke-miterlimit="10" d="M18.727,29.281
			c-0.924,0-2.877-0.195-4.62-0.368c-1.013-0.102-1.886-0.188-2.282-0.208c-2.394-0.118-8.07,0.397-8.07,0.397l0.103-0.652
			c0,0,5.562-0.513,7.999-0.399c0.414,0.02,1.295,0.108,2.315,0.21c1.815,0.181,4.07,0.406,4.777,0.359
			c1.528-0.102,3.813-0.898,4.646-1.876c2.788-3.273,2.787-16.471,2.787-16.613c0-0.181,0.146-0.328,0.327-0.328h0.001
			c0.18,0,0.327,0.146,0.327,0.327c0.001,0.586,0,13.584-2.943,17.038c-1.04,1.221-3.632,2.009-5.102,2.106
			C18.917,29.279,18.829,29.281,18.727,29.281z"/>
		
			<path fill="#EFF0ED" stroke="#000000" stroke-width="0.2835" stroke-linecap="round" stroke-linejoin="round" stroke-miterlimit="10" d="
			M27.165,10.379c0.196-0.053,0.341-0.161,0.354-0.306c0.021-0.222-0.259-0.429-0.623-0.463c-0.366-0.035-0.679,0.116-0.699,0.338
			c-0.014,0.145,0.107,0.277,0.29,0.367c-0.196,0.052-0.341,0.161-0.354,0.305c-0.021,0.222,0.257,0.429,0.622,0.464
			c0.364,0.035,0.679-0.116,0.699-0.338C27.468,10.602,27.347,10.468,27.165,10.379z"/>
	</g>
</g>
</svg>
