<?xml version="1.0" encoding="UTF-8" standalone="no"?>
<!-- Generator: Adobe Illustrator 15.1.0, SVG Export Plug-In . SVG Version: 6.00 Build 0)  -->

<svg
   xmlns:dc="http://purl.org/dc/elements/1.1/"
   xmlns:cc="http://creativecommons.org/ns#"
   xmlns:rdf="http://www.w3.org/1999/02/22-rdf-syntax-ns#"
   xmlns:svg="http://www.w3.org/2000/svg"
   xmlns="http://www.w3.org/2000/svg"
   xmlns:xlink="http://www.w3.org/1999/xlink"
   xmlns:sodipodi="http://sodipodi.sourceforge.net/DTD/sodipodi-0.dtd"
   xmlns:inkscape="http://www.inkscape.org/namespaces/inkscape"
   version="1.1"
   id="Layer_3"
   x="0px"
   y="0px"
   width="113.386px"
   height="56.693px"
   viewBox="0 0 113.386 56.693"
   enable-background="new 0 0 113.386 56.693"
   xml:space="preserve"
   inkscape:version="0.48.1 "
   sodipodi:docname="mw-soldier-template.svg"
   inkscape:export-filename="D:\Bricks\Decals\designs\military\ModernWarfare\mw-soldier-template.png"
   inkscape:export-xdpi="600"
   inkscape:export-ydpi="600"><metadata
   id="metadata196"><rdf:RDF><cc:Work
       rdf:about=""><dc:format>image/svg+xml</dc:format><dc:type
         rdf:resource="http://purl.org/dc/dcmitype/StillImage" /><dc:title></dc:title></cc:Work></rdf:RDF></metadata><defs
   id="defs194" /><sodipodi:namedview
   pagecolor="#ffffff"
   bordercolor="#666666"
   borderopacity="1"
   objecttolerance="10"
   gridtolerance="10"
   guidetolerance="10"
   inkscape:pageopacity="0"
   inkscape:pageshadow="2"
   inkscape:window-width="1366"
   inkscape:window-height="716"
   id="namedview192"
   showgrid="false"
   inkscape:zoom="4.233"
   inkscape:cx="56.69"
   inkscape:cy="26.34"
   inkscape:window-x="-8"
   inkscape:window-y="-8"
   inkscape:window-maximized="1"
   inkscape:current-layer="Layer_3" />
<g
   id="torso">
	<g
   id="torso_base">
		<path
   id="path4124"
   connector-curvature="0"
   fill="#DCC392"
   stroke="#000000"
   stroke-width="0.3125"
   d="M2.625,49.802    C11.358,2.507,7.968,7.122,16.893,6.944h23.44c8.926,0.177,5.535-4.438,14.265,42.857H2.625z" />
		<path
   fill="#605F61"
   stroke="#000000"
   stroke-width="0.3125"
   d="M35.293,6.944H21.951c1.55,2.776,4.544,7.578,6.725,7.568    C30.841,14.504,33.775,9.716,35.293,6.944z"
   id="path6" />
	</g>
	<g
   id="vest">
		<defs
   id="defs9">
			<path
   id="clipping_mask_2_"
   d="M3.311,49.233c1.916-10.408,3.254-18.348,4.236-24.179c2.853-16.938,3.082-17.595,6.12-17.595     c0.329,0,0.687,0.012,1.077,0.024c0.483,0.016,1.016,0.033,1.604,0.033c0.182,0,0.368-0.002,0.561-0.006h23.425     c0.181,0.004,0.368,0.006,0.55,0.006c0.589,0,1.121-0.018,1.604-0.033c0.391-0.013,0.747-0.024,1.076-0.024     c3.037,0,3.266,0.657,6.114,17.582c0.981,5.832,2.318,13.778,4.235,24.192H3.311z" />
		</defs>
		<clipPath
   id="clipping_mask_1_">
			<use
   xlink:href="#clipping_mask_2_"
   overflow="visible"
   id="use13" />
		</clipPath>
		<g
   clip-path="url(#clipping_mask_1_)"
   id="g15">
			<path
   fill="#96866D"
   stroke="#000000"
   stroke-width="0.5669"
   d="M22.148,14.208l-8.11,2.547L9.91,5.028l8.785-2.76L22.148,14.208     z M35.075,14.208l8.106,2.547l4.128-11.727l-8.782-2.76L35.075,14.208z"
   id="path17" />
			<path
   fill="#96866D"
   stroke="#000000"
   stroke-width="0.5669"
   d="M53.595,35.011c0,0-7.664,0.332-9.262-15.125     c-0.317-4.375,0.723-3.563-0.186-4.494c-0.702-0.718-7.08-2.87-9.036-2.697c-3.58,1.537-9.419,1.537-13,0     c-1.957-0.173-8.337,1.979-9.039,2.697c-0.91,0.931,0.132,0.119-0.186,4.494c-1.599,15.458-9.266,15.125-9.266,15.125     L0.954,47.901c0,0,20.75,0.426,27.668,0.426c6.911,0,27.639-0.426,27.639-0.426L53.595,35.011z"
   id="path19" />
			<g
   id="g21">
				<defs
   id="defs23">
					<path
   id="SVGID_1_"
   d="M28.622,47.808c-6.126,0-23.331-0.338-26.975-0.41l2.442-11.805c1.913-0.227,7.957-2.023,9.361-15.602       c0.173-2.388-0.04-3.297-0.155-3.785c-0.018-0.077-0.035-0.134-0.039-0.184c0.001,0.007,0.003,0.01,0.008,0.01       c0.024,0,0.099-0.081,0.212-0.197c0.556-0.54,6.226-2.537,8.39-2.537c0.039,0,0.076,0.001,0.111,0.003       c1.79,0.749,4.141,1.16,6.634,1.16c2.493,0,4.842-0.411,6.632-1.16c0.036-0.002,0.073-0.003,0.111-0.003       c2.163,0,7.831,1.997,8.388,2.537c0.138,0.142,0.218,0.231,0.238,0.268c-0.004-0.007-0.009-0.009-0.013-0.009       c-0.016,0-0.03,0.049-0.045,0.112c-0.114,0.488-0.328,1.397-0.156,3.768c1.416,13.709,7.549,15.422,9.36,15.627l2.44,11.797       C51.927,47.47,34.742,47.808,28.622,47.808z" />
				</defs>
				<clipPath
   id="SVGID_2_">
					<use
   xlink:href="#SVGID_1_"
   overflow="visible"
   id="use27" />
				</clipPath>
				<g
   clip-path="url(#SVGID_2_)"
   id="g29">
					<rect
   x="8.603"
   y="9.051"
   fill="#897B64"
   width="40.994"
   height="2.438"
   id="rect31" />
					<rect
   x="7.478"
   y="14.895"
   fill="#897B64"
   width="43.108"
   height="2.438"
   id="rect33" />
					<rect
   x="6.353"
   y="20.739"
   fill="#897B64"
   width="45.222"
   height="2.438"
   id="rect35" />
					<rect
   x="5.228"
   y="26.583"
   fill="#897B64"
   width="47.336"
   height="2.438"
   id="rect37" />
					<rect
   x="4.103"
   y="32.427"
   fill="#897B64"
   width="49.451"
   height="2.438"
   id="rect39" />
					<rect
   x="2.978"
   y="38.271"
   fill="#897B64"
   width="51.565"
   height="2.438"
   id="rect41" />
					<rect
   x="1.853"
   y="44.114"
   fill="#897B64"
   width="53.679"
   height="2.438"
   id="rect43" />
				</g>
			</g>
			<path
   fill="none"
   stroke="#000000"
   stroke-width="0.4252"
   stroke-linejoin="round"
   d="M17.755,3.505l1.559,5.206l-0.279,2.317     l-3.732,1.196l-1.517-1.121L11.79,5.078 M39.466,3.505l-1.559,5.207l0.279,2.317l3.731,1.196l1.516-1.121l1.996-6.027"
   id="path45" />
			<g
   id="g47">
				<g
   id="g49">
					<path
   fill="#3A3B3C"
   stroke="#000000"
   stroke-width="0.4252"
   stroke-linejoin="round"
   d="M19.497,14.75       c0.071,0.188,0.346,0.567,0.346,0.567s0.139,0.497,0.07,0.638c-0.114,0.233-1.958,0.869-2.191,0.756       c-0.14-0.068-0.338-0.546-0.338-0.546s-0.018-0.468-0.078-0.659c-0.087-0.28-0.695-1.146-0.695-1.146l2.727-0.939       C19.338,13.42,19.394,14.475,19.497,14.75z M18.971,12.228c-0.046-0.136-0.196-0.209-0.332-0.162l-2.311,0.797       c-0.138,0.048-0.21,0.197-0.163,0.334l0.231,0.669c0.047,0.137,0.196,0.21,0.333,0.163l2.31-0.798       c0.137-0.047,0.209-0.196,0.162-0.333L18.971,12.228z"
   id="path51" />
					
						<rect
   x="14.268"
   y="-0.4"
   transform="matrix(0.9453 -0.3263 0.3263 0.9453 -1.1922 5.3439)"
   fill="#96866D"
   stroke="#000000"
   stroke-width="0.4252"
   stroke-linejoin="round"
   width="2.125"
   height="13.25"
   id="rect53" />
				</g>
				<g
   id="g55">
					<path
   fill="#3A3B3C"
   stroke="#000000"
   stroke-width="0.4252"
   stroke-linejoin="round"
   d="M37.883,13.42l2.726,0.939       c0,0-0.606,0.865-0.693,1.146c-0.06,0.191-0.078,0.659-0.078,0.659s-0.198,0.478-0.338,0.546       c-0.233,0.113-2.077-0.522-2.189-0.756c-0.068-0.141,0.069-0.638,0.069-0.638s0.273-0.38,0.346-0.567       C37.829,14.475,37.883,13.42,37.883,13.42z M38.019,12.898c-0.048,0.137,0.025,0.286,0.162,0.333l2.309,0.798       c0.139,0.047,0.287-0.026,0.334-0.163l0.231-0.669c0.047-0.137-0.025-0.286-0.163-0.334l-2.31-0.797       c-0.137-0.047-0.285,0.026-0.332,0.162L38.019,12.898z"
   id="path57" />
					
						<rect
   x="40.828"
   y="-0.4"
   transform="matrix(-0.9452 -0.3264 0.3264 -0.9452 79.4529 25.7827)"
   fill="#96866D"
   stroke="#000000"
   stroke-width="0.4252"
   stroke-linejoin="round"
   width="2.124"
   height="13.249"
   id="rect59" />
				</g>
			</g>
			<path
   id="belt_2_"
   fill="#605F61"
   stroke="#000000"
   stroke-width="0.4252"
   d="M28.72,43.456c-6.582,0-25.505-0.527-26.31-0.568     l0.143-2.832c0.196,0.012,19.621,0.566,26.167,0.566c6.582,0.002,26.109-0.555,26.306-0.566l0.143,2.832     C54.36,42.929,35.337,43.458,28.72,43.456z" />
		</g>
	</g>
</g>
<g
   id="radio">
	<g
   id="g63">
		<path
   fill="none"
   stroke="#000000"
   stroke-width="0.3402"
   stroke-linejoin="round"
   d="M77.939,20.351    c-0.221,0.067-0.832-1.203-1.047-1.143c-0.222,0.063-0.08,1.467-0.297,1.521c-0.224,0.058-0.772-1.243-0.99-1.193    c-0.225,0.052-0.156,1.46-0.375,1.503c-0.227,0.045-0.698-1.283-0.919-1.247c-0.229,0.038-0.248,1.449-0.469,1.479    c-0.229,0.03-0.616-1.327-0.838-1.306c-0.231,0.023-0.352,1.429-0.575,1.441c-0.232,0.014-0.514-1.369-0.737-1.364    c-0.232,0.004-0.463,1.396-0.687,1.391c-0.231-0.006-0.393-1.407-0.615-1.424c-0.23-0.016-0.588,1.348-0.81,1.321    c-0.229-0.027-0.251-1.438-0.47-1.476c-0.229-0.04-0.727,1.279-0.943,1.229c-0.225-0.052-0.092-1.456-0.305-1.52    c-0.223-0.064-0.87,1.188-1.08,1.112c-0.218-0.078,0.084-1.456-0.12-1.545c-0.213-0.092-1.013,1.069-1.211,0.968    c-0.205-0.105,0.271-1.433,0.081-1.547c-0.198-0.118-1.143,0.929-1.325,0.803c-0.19-0.132,0.455-1.385,0.28-1.523    c-0.181-0.143-1.252,0.772-1.416,0.624c-0.172-0.155,0.631-1.314,0.477-1.473c-0.162-0.166-1.342,0.605-1.486,0.437    c-0.151-0.176,0.789-1.228,0.655-1.404c-0.141-0.186-1.406,0.437-1.528,0.254c-0.13-0.195,0.929-1.127,0.819-1.314    c-0.122-0.207-1.45,0.264-1.548,0.073c-0.112-0.218,1.047-1.024,0.963-1.214c-0.104-0.236-1.478,0.074-1.544-0.105    c-0.145-0.395,1.206-0.716,1.126-1.04"
   id="path65" />
	</g>
	
		<rect
   x="56.157"
   y="6.063"
   transform="matrix(0.9107 -0.4132 0.4132 0.9107 2.1309 23.9801)"
   fill="#605F61"
   stroke="#000000"
   stroke-width="0.3402"
   stroke-linejoin="round"
   width="0.707"
   height="1.999"
   id="rect67" />
	
		<rect
   x="58.062"
   y="6.358"
   transform="matrix(0.9104 -0.4137 0.4137 0.9104 2.435 24.8354)"
   fill="#605F61"
   stroke="#000000"
   stroke-width="0.3402"
   stroke-linejoin="round"
   width="1"
   height="0.875"
   id="rect69" />
	<path
   fill="#605F61"
   stroke="#000000"
   stroke-width="0.4252"
   stroke-linejoin="round"
   d="M62.204,11.352   c0.194,0.428,0.005,0.932-0.422,1.126l-2.702,1.226c-0.427,0.194-0.931,0.004-1.125-0.423l-1.862-4.104   c-0.194-0.428-0.005-0.932,0.422-1.125l2.702-1.226c0.427-0.194,0.931-0.004,1.125,0.423L62.204,11.352z"
   id="path71" />
	<g
   id="g73">
		
			<line
   fill="none"
   stroke="#000000"
   stroke-width="0.4252"
   stroke-linejoin="round"
   x1="56.978"
   y1="8.708"
   x2="57.805"
   y2="10.53"
   id="line75" />
		
			<line
   fill="none"
   stroke="#000000"
   stroke-width="0.4252"
   stroke-linejoin="round"
   x1="57.788"
   y1="8.341"
   x2="58.615"
   y2="10.163"
   id="line77" />
		
			<line
   fill="none"
   stroke="#000000"
   stroke-width="0.4252"
   stroke-linejoin="round"
   x1="58.597"
   y1="7.974"
   x2="59.423"
   y2="9.795"
   id="line79" />
		
			<line
   fill="none"
   stroke="#000000"
   stroke-width="0.4252"
   stroke-linejoin="round"
   x1="59.407"
   y1="7.607"
   x2="60.233"
   y2="9.428"
   id="line81" />
	</g>
</g>
<g
   id="ammo">
	<path
   stroke="#000000"
   stroke-width="0.2835"
   stroke-linecap="round"
   stroke-linejoin="round"
   d="M87.073,29.205l-5.66-0.32   l2.83,0.16l-2.83-0.151c0-0.02,0.09-1.933-0.408-4.417l5.559-1.112C87.211,26.598,87.079,29.101,87.073,29.205z"
   id="path84" />
	<g
   id="g86">
		<path
   fill="none"
   stroke="#605F61"
   stroke-width="0.2835"
   stroke-linecap="round"
   stroke-linejoin="round"
   d="M82.534,28.27    c0,0,0.042-1.667-0.333-3.25"
   id="path88" />
		<path
   fill="none"
   stroke="#605F61"
   stroke-width="0.2835"
   stroke-linecap="round"
   stroke-linejoin="round"
   d="M83.701,28.259    c0,0,0.125-1.764-0.333-3.439"
   id="path90" />
		<path
   fill="none"
   stroke="#605F61"
   stroke-width="0.2835"
   stroke-linecap="round"
   stroke-linejoin="round"
   d="M84.868,28.247    c0,0,0.208-1.86-0.334-3.627"
   id="path92" />
		<path
   fill="none"
   stroke="#605F61"
   stroke-width="0.2835"
   stroke-linecap="round"
   stroke-linejoin="round"
   d="M86.034,28.236    c0,0,0.292-1.958-0.333-3.816"
   id="path94" />
	</g>
	<g
   id="pocket_3_">
		<path
   fill="#96866D"
   stroke="#000000"
   stroke-width="0.3125"
   d="M87.936,35.623c0,0.469-0.381,0.85-0.852,0.85h-5.679    c-0.469,0-0.85-0.381-0.85-0.85v-6.714c0-0.47,0.381-0.851,0.85-0.851c0,0,1.915,0.139,2.556,0.142    c0.781,0.004,3.123-0.142,3.123-0.142c0.471,0,0.852,0.381,0.852,0.851V35.623z"
   id="path97" />
	</g>
	<path
   fill="none"
   stroke="#000000"
   stroke-width="0.3125"
   stroke-linecap="round"
   stroke-linejoin="round"
   d="M87.809,28.561   l-0.566,2.907c0,0-0.381,0.85-0.851,0.85h-4.341c-0.47,0-0.851-0.85-0.851-0.85l-0.566-2.907"
   id="path99" />
</g>
<g
   id="flash_grenade_2_">
	<g
   id="grenade_2_">
		
			<ellipse
   stroke="#605F61"
   stroke-width="0.4252"
   stroke-linejoin="round"
   stroke-miterlimit="10"
   cx="63.752"
   cy="42.492"
   rx="2.125"
   ry="0.23"
   id="ellipse103" />
		<polygon
   stroke="#605F61"
   stroke-width="0.4252"
   stroke-linejoin="round"
   stroke-miterlimit="10"
   points="64.803,42.734     62.844,42.734 62.844,41.5 62.42,41.092 62.903,40.525 64.803,40.525   "
   id="polygon105" />
		
			<circle
   fill="none"
   stroke="#605F61"
   stroke-width="0.4252"
   stroke-linejoin="round"
   stroke-miterlimit="10"
   cx="65.76"
   cy="40.792"
   r="0.979"
   id="circle107" />
		<path
   stroke="#605F61"
   stroke-width="0.4252"
   stroke-linejoin="round"
   stroke-miterlimit="10"
   d="M63.752,42.723    c-0.879,0-1.635-0.059-1.957-0.141c-0.098-0.009-0.168-0.015-0.168-0.015s0,8.702,0,8.728c0,0.118,0.951,0.214,2.125,0.214    s2.125-0.096,2.125-0.214c0-0.025,0-8.728,0-8.728s-0.07,0.006-0.167,0.015C65.387,42.664,64.633,42.723,63.752,42.723z"
   id="path109" />
	</g>
	<path
   id="strap_2_"
   fill="#605F61"
   stroke="#000000"
   stroke-width="0.4252"
   stroke-linejoin="round"
   stroke-miterlimit="10"
   d="   M66.127,44.672c0,0.167-1.063,0.303-2.375,0.303c-1.311,0-2.375-0.136-2.375-0.303h-0.291v3.125h0.381   c0.272,0.129,1.188,0.225,2.285,0.225s2.014-0.096,2.285-0.225h0.383v-3.125H66.127z" />
</g>
<g
   id="pouch_wide">
	<path
   fill="#96866D"
   stroke="#000000"
   stroke-width="0.4252"
   d="M105.878,34.369c0.001,0.469-0.381,0.85-0.851,0.849l-13.17,0.004   c-0.47,0-0.849-0.381-0.851-0.85l-0.285-7.861c-0.001-0.47,0.381-0.851,0.851-0.851l13.736-0.004c0.47,0,0.851,0.381,0.851,0.851   L105.878,34.369z"
   id="path113" />
	<path
   fill="none"
   stroke="#000000"
   stroke-width="0.4252"
   d="M106.02,28.826c-0.001,0.47-0.383,0.852-0.852,0.851   c0,0-5.163,0.428-6.885,0.428c-1.668-0.001-6.665-0.422-6.665-0.422c-0.47-0.001-0.849-0.383-0.85-0.853"
   id="path115" />
	<g
   id="g117">
		<path
   d="M101.019,33.962c0.35-0.123,0.699-0.175,1.049-0.233c0.349-0.056,0.707-0.013,1.059-0.052    c0.334-0.053,0.738-0.098,0.973-0.257c0.233-0.172,0.415-0.297,0.586-0.659c0.005-0.013,0.019-0.02,0.031-0.015    c0.004,0.001,0.009,0.006,0.012,0.009c0.242,0.356-0.029,0.94-0.459,1.036c-0.422,0.125-0.748,0.089-1.11,0.148    c-0.354,0.048-0.701,0.162-1.061,0.165c-0.358-0.001-0.717-0.004-1.077-0.1c-0.012-0.003-0.02-0.016-0.016-0.027    C101.007,33.97,101.012,33.965,101.019,33.962z"
   id="path119" />
	</g>
	<g
   id="g121">
		<path
   d="M91.928,32.41c0.077,0.151,0.159,0.289,0.235,0.426c0.079,0.135,0.15,0.271,0.246,0.391    c0.157,0.267,0.369,0.477,0.581,0.746C92.321,33.812,91.838,33.088,91.928,32.41z"
   id="path123" />
	</g>
</g>
<g
   id="pouch_narrow">
	<g
   id="g126">
		<path
   fill="#605F61"
   stroke="#000000"
   stroke-width="0.4252"
   stroke-linejoin="round"
   stroke-miterlimit="10"
   d="M77.484,35.776    c0,0.47-0.381,0.851-0.851,0.851h-5.445c-0.47,0-0.851-0.381-0.851-0.851V26.75c0-0.47,0.381-0.851,0.851-0.851h5.445    c0.47,0,0.851,0.381,0.851,0.851V35.776z"
   id="path128" />
		<path
   fill="#605F61"
   stroke="#000000"
   stroke-width="0.4252"
   stroke-linejoin="round"
   stroke-miterlimit="10"
   d="M77.484,31.195    c0,0.47-0.381,0.85-0.851,0.85h-5.445c-0.47,0-0.851-0.38-0.851-0.85"
   id="path130" />
	</g>
	
		<rect
   x="73.359"
   y="25.9"
   fill="#3A3B3C"
   stroke="#000000"
   stroke-width="0.3118"
   stroke-linejoin="round"
   stroke-miterlimit="10"
   width="1.104"
   height="10.727"
   id="rect132" />
	<path
   fill="#3A3B3C"
   stroke="#000000"
   stroke-width="0.3118"
   stroke-linejoin="round"
   stroke-miterlimit="10"
   d="M74.446,32.799   c0,0.142,0.086,0.264,0.209,0.315c0,0-0.063,0.373-0.142,0.468c-0.123,0.148-1.082,0.148-1.205,0   c-0.079-0.095-0.142-0.468-0.142-0.468c0.123-0.052,0.209-0.174,0.209-0.315s-0.086-0.264-0.209-0.316v-0.629h1.488v0.629   C74.532,32.535,74.446,32.657,74.446,32.799z M74.655,30.962h-1.488v0.75h1.488V30.962z"
   id="path134" />
</g>
<g
   id="pocket_2_">
	<path
   fill="#96866D"
   stroke="#000000"
   stroke-width="0.3125"
   d="M68.302,36.11c0,0.469-0.381,0.85-0.851,0.85h-5.68   c-0.469,0-0.85-0.381-0.85-0.85v-9.548c0-0.47,0.381-0.851,0.85-0.851c0,0,1.916,0.139,2.556,0.142   c0.781,0.004,3.124-0.142,3.124-0.142c0.47,0,0.851,0.381,0.851,0.851V36.11z"
   id="path137" />
	<path
   fill="none"
   stroke="#000000"
   stroke-width="0.3125"
   d="M68.302,28.262v2.463c0,0.47-0.381,0.851-0.851,0.851h-5.68   c-0.469,0-0.85-0.381-0.85-0.851v-2.463"
   id="path139" />
	<g
   id="g141">
		
			<rect
   x="63.93"
   y="25.836"
   fill="#605F61"
   stroke="#000000"
   stroke-width="0.4252"
   stroke-linejoin="round"
   width="1.337"
   height="11.104"
   id="rect143" />
		<path
   fill="#605F61"
   stroke="#000000"
   stroke-width="0.4252"
   stroke-linejoin="round"
   d="M65.351,32.194    c0.004,0.127,0.091,0.408,0.091,0.408s-0.02,0.323-0.088,0.394c-0.114,0.115-1.342,0.119-1.459,0.005    c-0.068-0.067-0.09-0.394-0.09-0.394s0.084-0.281,0.088-0.407c0.004-0.185-0.182-0.823-0.182-0.823l1.816-0.006    C65.528,31.372,65.343,32.011,65.351,32.194z M65.55,30.588c0-0.091-0.073-0.164-0.165-0.164l-1.537,0.004    c-0.094,0-0.166,0.076-0.166,0.166l0.002,0.445c0,0.091,0.074,0.164,0.166,0.164l1.537-0.004c0.092,0,0.166-0.075,0.166-0.166    L65.55,30.588z"
   id="path145" />
	</g>
</g>
<g
   id="gun_in_holster_2_">
	<g
   id="gun_2_">
		<path
   id="gun_base_2_"
   stroke="#605F61"
   stroke-width="0.4252"
   stroke-linejoin="round"
   d="M77.734,9.041    c0,0,5.046-1.375,7.842-2.127c0.642-0.498,1.142-1.217,0.767-2.45c1.375-0.156,3.094-0.142,3.094-0.142s0.618-0.81,0.906-0.75    c-0.125,0.875,0.813,1.594,0.813,1.594l0.813-0.469l0.75,1.281v1.219l0.781,1.156v0.531l2.313,4.531l-3.313,2.875l-1.406-3.5    c0,0-0.781-0.625-1.563,0.563c-0.336-0.328,0.594-1.781,0.594-1.781s-0.821-0.453-1.719,0.156    c-0.875,0.594,0.721,2.531,0.721,2.531l-0.987,0.031c0,0-0.421-1.75-1.671-2.248c-1.814,0-7.552,1.733-7.552,1.733L77.734,9.041z" />
		<path
   id="details_2_"
   fill="none"
   stroke="#605F61"
   stroke-width="0.3118"
   stroke-linejoin="round"
   d="M88.765,4.384l4.438,8.469     M93.311,8.353l-0.688,0.344c0,0-0.139,0.229-0.142,0.313c-0.003,0.101,0.142,0.374,0.142,0.374l1.719,3.156 M79.834,8.568    l-0.156,1.346l2.32,1.408l1.719-1.781c0,0,4.742-0.179,5.156-0.438c0.25-0.156,0.475-1.46,0.421-2.015    c-0.024-0.251-0.579-1.048-0.579-1.048l-2.373-0.531" />
	</g>
	<g
   id="holster_2_">
		<path
   id="holster_base_2_"
   fill="#605F61"
   stroke="#3A3B3C"
   stroke-width="0.3118"
   stroke-linejoin="round"
   d="M87.124,13.041    l3.193-0.494l0.477,0.109l4.235-0.697l0.376-0.199l4.625,8.625l-3.156,1.719c0,0-1.861-0.643-2.406-1    c-1.105-0.726-2.869-2.765-3.969-3.5c-0.384-0.257-1.656-0.813-1.656-0.813L87.124,13.041z" />
		
			<path
   id="holster_details_2_"
   fill="none"
   stroke="#3A3B3C"
   stroke-width="0.3118"
   stroke-linecap="round"
   stroke-linejoin="round"
   d="    M97.256,21.841c0,0-0.516-1.095-0.806-1.364c-0.625-0.585-2.33-1.173-2.915-1.799c-1.163-1.245-3.46-6.032-3.46-6.032     M98.063,21.593 M93.042,12.305" />
	</g>
</g>
<g
   id="belt_strap_2_">
	<polygon
   fill="#96866D"
   points="84.439,41.569 84.439,42.157 84.439,42.948 71.029,42.948 71.029,42.282 71.029,41.569  "
   id="polygon155" />
	
		<line
   fill="#96866D"
   stroke="#000000"
   stroke-width="0.3118"
   stroke-linejoin="round"
   stroke-miterlimit="10"
   x1="84.439"
   y1="42.948"
   x2="71.029"
   y2="42.948"
   id="line157" />
	
		<line
   fill="#96866D"
   stroke="#000000"
   stroke-width="0.3118"
   stroke-linejoin="round"
   stroke-miterlimit="10"
   x1="71.029"
   y1="41.569"
   x2="84.439"
   y2="41.569"
   id="line159" />
	<path
   fill="#3A3B3C"
   stroke="#000000"
   stroke-width="0.3118"
   stroke-linejoin="round"
   stroke-miterlimit="10"
   d="M78.38,41.523   c0.194,0,0.362-0.118,0.435-0.288c0,0,0.512,0.086,0.644,0.195c0.204,0.169,0.204,1.488,0,1.656   c-0.132,0.11-0.644,0.196-0.644,0.196c-0.072-0.17-0.24-0.288-0.435-0.288s-0.361,0.118-0.435,0.288h-0.865v-2.048h0.865   C78.019,41.405,78.186,41.523,78.38,41.523z M75.855,41.235v2.048h1.031v-2.048H75.855z"
   id="path161" />
</g>
<g
   id="kneepad_armor_2_">
	<path
   stroke="#605F61"
   stroke-width="0.3125"
   d="M109.79,44.475H87.092v-1.416h22.697V44.475z M109.79,49.601H87.092v1.416h22.697   V49.601z"
   id="path164" />
	<path
   stroke="#605F61"
   stroke-width="0.3125"
   d="M105.381,41.204c0,0-3.045-0.283-6.94-0.283s-6.94,0.283-6.94,0.283   c-0.47,0-0.851,0.381-0.851,0.851v9.966c0,0.47,0.381,0.851,0.851,0.851c0,0,2.9,0.283,6.94,0.283s6.94-0.283,6.94-0.283   c0.47,0,0.851-0.381,0.851-0.851v-9.966C106.232,41.585,105.851,41.204,105.381,41.204z"
   id="path166" />
	<ellipse
   fill="#605F61"
   stroke="#3A3B3C"
   stroke-width="0.3125"
   cx="98.441"
   cy="47.038"
   rx="7.396"
   ry="6.438"
   id="ellipse168" />
	<g
   id="g170">
		<g
   id="g172">
			<circle
   fill="none"
   stroke="#231F20"
   stroke-width="0.3125"
   cx="94.129"
   cy="43.455"
   r="0.444"
   id="circle174" />
			<circle
   fill="none"
   stroke="#231F20"
   stroke-width="0.3125"
   cx="92.922"
   cy="45.102"
   r="0.444"
   id="circle176" />
			<circle
   fill="none"
   stroke="#231F20"
   stroke-width="0.3125"
   cx="92.497"
   cy="47.093"
   r="0.444"
   id="circle178" />
			<circle
   fill="none"
   stroke="#231F20"
   stroke-width="0.3125"
   cx="92.968"
   cy="49.073"
   r="0.444"
   id="circle180" />
		</g>
		<g
   id="g182">
			<circle
   fill="none"
   stroke="#231F20"
   stroke-width="0.3125"
   cx="102.751"
   cy="43.455"
   r="0.444"
   id="circle184" />
			<circle
   fill="none"
   stroke="#231F20"
   stroke-width="0.3125"
   cx="103.958"
   cy="45.102"
   r="0.444"
   id="circle186" />
			<circle
   fill="none"
   stroke="#231F20"
   stroke-width="0.3125"
   cx="104.384"
   cy="47.093"
   r="0.444"
   id="circle188" />
			<circle
   fill="none"
   stroke="#231F20"
   stroke-width="0.3125"
   cx="103.913"
   cy="49.073"
   r="0.444"
   id="circle190" />
		</g>
	</g>
</g>
</svg>