<?xml version="1.0" encoding="UTF-8" standalone="no"?>
<!-- Created with Inkscape (http://www.inkscape.org/) -->

<svg
   xmlns:dc="http://purl.org/dc/elements/1.1/"
   xmlns:cc="http://creativecommons.org/ns#"
   xmlns:rdf="http://www.w3.org/1999/02/22-rdf-syntax-ns#"
   xmlns:svg="http://www.w3.org/2000/svg"
   xmlns="http://www.w3.org/2000/svg"
   xmlns:xlink="http://www.w3.org/1999/xlink"
   xmlns:sodipodi="http://sodipodi.sourceforge.net/DTD/sodipodi-0.dtd"
   xmlns:inkscape="http://www.inkscape.org/namespaces/inkscape"
   width="52.375"
   height="43.213669"
   id="svg2"
   version="1.1"
   inkscape:version="0.48.2 r9819"
   sodipodi:docname="Ares.svg"
   inkscape:export-filename="C:\Dokumente und Einstellungen\John\Desktop\minifigs\done\Ares.png"
   inkscape:export-xdpi="1718.2063"
   inkscape:export-ydpi="1718.2063">
  <defs
     id="defs4">
    <linearGradient
       inkscape:collect="always"
       id="linearGradient4066">
      <stop
         style="stop-color:#a3a2a4;stop-opacity:1;"
         offset="0"
         id="stop4068" />
      <stop
         style="stop-color:#a3a2a4;stop-opacity:0;"
         offset="1"
         id="stop4070" />
    </linearGradient>
    <linearGradient
       inkscape:collect="always"
       id="linearGradient4006">
      <stop
         style="stop-color:#f5cd2f;stop-opacity:1;"
         offset="0"
         id="stop4008" />
      <stop
         style="stop-color:#f5cd2f;stop-opacity:0;"
         offset="1"
         id="stop4010" />
    </linearGradient>
    <linearGradient
       inkscape:collect="always"
       id="linearGradient4011">
      <stop
         style="stop-color:#ffffff;stop-opacity:1;"
         offset="0"
         id="stop4013" />
      <stop
         style="stop-color:#ffffff;stop-opacity:0;"
         offset="1"
         id="stop4015" />
    </linearGradient>
    <linearGradient
       inkscape:collect="always"
       id="linearGradient3997">
      <stop
         style="stop-color:#ffffff;stop-opacity:1;"
         offset="0"
         id="stop3999" />
      <stop
         style="stop-color:#ffffff;stop-opacity:0;"
         offset="1"
         id="stop4001" />
    </linearGradient>
    <inkscape:path-effect
       effect="skeletal"
       id="path-effect4237"
       is_visible="true"
       pattern="M 0,5 C 0,2.24 2.24,0 5,0 7.76,0 10,2.24 10,5 10,7.76 7.76,10 5,10 2.24,10 0,7.76 0,5 z"
       copytype="single_stretched"
       prop_scale="1"
       scale_y_rel="false"
       spacing="0"
       normal_offset="0"
       tang_offset="0"
       prop_units="false"
       vertical_pattern="false"
       fuse_tolerance="0" />
    <clipPath
       id="clipPath2999"
       clipPathUnits="userSpaceOnUse">
      <path
         id="path3001"
         d="M 0,792 612,792 612,0 0,0 0,792 z"
         inkscape:connector-curvature="0" />
    </clipPath>
    <radialGradient
       gradientUnits="userSpaceOnUse"
       gradientTransform="matrix(0.75988491,-0.03632001,0.13155835,2.7524547,16.986326,-78.268899)"
       r="12.650181"
       fy="46.658409"
       fx="96.306435"
       cy="46.658409"
       cx="96.306435"
       id="radialGradient3972"
       xlink:href="#linearGradient3966"
       inkscape:collect="always" />
    <clipPath
       clipPathUnits="userSpaceOnUse"
       id="clipPath2999-4">
      <path
         inkscape:connector-curvature="0"
         d="M 0,792 612,792 612,0 0,0 0,792 z"
         id="path3001-0" />
    </clipPath>
    <linearGradient
       id="linearGradient3966">
      <stop
         id="stop3968"
         offset="0"
         style="stop-color:#c0ac02;stop-opacity:1;" />
      <stop
         id="stop3970"
         offset="1"
         style="stop-color:#fdea41;stop-opacity:0;" />
    </linearGradient>
    <radialGradient
       inkscape:collect="always"
       xlink:href="#linearGradient3997"
       id="radialGradient4003"
       cx="165.81134"
       cy="47.693741"
       fx="165.81134"
       fy="47.693741"
       r="3.8123069"
       gradientTransform="matrix(0.64374811,-0.18781617,0.31213841,1.069868,43.640483,27.15595)"
       gradientUnits="userSpaceOnUse" />
    <radialGradient
       inkscape:collect="always"
       xlink:href="#linearGradient3997"
       id="radialGradient4007"
       gradientUnits="userSpaceOnUse"
       gradientTransform="matrix(-0.64374811,-0.18781617,-0.31213841,1.069868,293.73143,27.15595)"
       cx="165.81134"
       cy="47.693741"
       fx="165.81134"
       fy="47.693741"
       r="3.8123069" />
    <radialGradient
       inkscape:collect="always"
       xlink:href="#linearGradient4011"
       id="radialGradient4017"
       cx="169.32254"
       cy="41.784931"
       fx="169.32254"
       fy="41.784931"
       r="6.982676"
       gradientTransform="matrix(0.31036379,-0.01814613,0.03701409,0.63307367,114.75293,21.468668)"
       gradientUnits="userSpaceOnUse" />
    <linearGradient
       id="linearGradient3966-2">
      <stop
         style="stop-color:#c0ac02;stop-opacity:1;"
         offset="0"
         id="stop3968-4" />
      <stop
         style="stop-color:#fdea41;stop-opacity:0;"
         offset="1"
         id="stop3970-5" />
    </linearGradient>
    <clipPath
       id="clipPath2999-4-8"
       clipPathUnits="userSpaceOnUse">
      <path
         id="path3001-0-8"
         d="M 0,792 612,792 612,0 0,0 0,792 z"
         inkscape:connector-curvature="0" />
    </clipPath>
    <radialGradient
       inkscape:collect="always"
       xlink:href="#linearGradient3966-2"
       id="radialGradient3972-4"
       cx="96.306435"
       cy="46.658409"
       fx="96.306435"
       fy="46.658409"
       r="12.650181"
       gradientTransform="matrix(0.75988491,-0.03632001,0.13155835,2.7524547,16.986326,-78.268899)"
       gradientUnits="userSpaceOnUse" />
    <clipPath
       clipPathUnits="userSpaceOnUse"
       id="clipPath2999-0">
      <path
         inkscape:connector-curvature="0"
         d="M 0,792 612,792 612,0 0,0 0,792 z"
         id="path3001-9" />
    </clipPath>
    <inkscape:path-effect
       fuse_tolerance="0"
       vertical_pattern="false"
       prop_units="false"
       tang_offset="0"
       normal_offset="0"
       spacing="0"
       scale_y_rel="false"
       prop_scale="1"
       copytype="single_stretched"
       pattern="M 0,5 C 0,2.24 2.24,0 5,0 7.76,0 10,2.24 10,5 10,7.76 7.76,10 5,10 2.24,10 0,7.76 0,5 z"
       is_visible="true"
       id="path-effect4237-4"
       effect="skeletal" />
    <radialGradient
       inkscape:collect="always"
       xlink:href="#linearGradient4006"
       id="radialGradient4018"
       gradientUnits="userSpaceOnUse"
       gradientTransform="matrix(1,0,0,0.4,0,23.682678)"
       cx="157.57988"
       cy="38.621368"
       fx="157.57988"
       fy="38.621368"
       r="2.0394289" />
    <radialGradient
       inkscape:collect="always"
       xlink:href="#linearGradient4006"
       id="radialGradient4027"
       gradientUnits="userSpaceOnUse"
       gradientTransform="matrix(1,0,0,0.4,0,23.682678)"
       cx="157.57988"
       cy="38.621368"
       fx="157.57988"
       fy="38.621368"
       r="2.0394289" />
    <radialGradient
       inkscape:collect="always"
       xlink:href="#linearGradient4006"
       id="radialGradient4035"
       gradientUnits="userSpaceOnUse"
       gradientTransform="matrix(1,0,0,0.4,0,23.682678)"
       cx="157.57988"
       cy="38.621368"
       fx="157.57988"
       fy="38.621368"
       r="2.0394289" />
    <radialGradient
       inkscape:collect="always"
       xlink:href="#linearGradient4006"
       id="radialGradient4043"
       gradientUnits="userSpaceOnUse"
       gradientTransform="matrix(1,0,0,0.4,0,23.682678)"
       cx="157.57988"
       cy="38.621368"
       fx="157.57988"
       fy="38.621368"
       r="2.0394289" />
    <radialGradient
       inkscape:collect="always"
       xlink:href="#linearGradient4066"
       id="radialGradient4074"
       cx="164.6499"
       cy="49.165802"
       fx="164.6499"
       fy="49.165802"
       r="8.36166"
       gradientTransform="matrix(0.35843443,-1.6276669,1.4862183,0.32728551,32.562594,300.65448)"
       gradientUnits="userSpaceOnUse" />
    <radialGradient
       inkscape:collect="always"
       xlink:href="#linearGradient4066"
       id="radialGradient4078"
       gradientUnits="userSpaceOnUse"
       gradientTransform="matrix(-0.35843443,-1.6276669,-1.4862183,0.32728551,305.30281,300.65448)"
       cx="164.6499"
       cy="49.165802"
       fx="164.6499"
       fy="49.165802"
       r="8.36166" />
  </defs>
  <sodipodi:namedview
     id="base"
     pagecolor="#ffffff"
     bordercolor="#666666"
     borderopacity="1.0"
     inkscape:pageopacity="0.0"
     inkscape:pageshadow="2"
     inkscape:zoom="2.47"
     inkscape:cx="-19.781652"
     inkscape:cy="50.088856"
     inkscape:document-units="px"
     inkscape:current-layer="layer1"
     showgrid="false"
     fit-margin-top="0"
     fit-margin-left="0"
     fit-margin-right="0"
     fit-margin-bottom="0"
     inkscape:window-width="1280"
     inkscape:window-height="968"
     inkscape:window-x="-4"
     inkscape:window-y="-4"
     inkscape:window-maximized="1"
     showguides="true"
     inkscape:guide-bbox="true"
     inkscape:snap-global="false">
    <sodipodi:guide
       orientation="0,1"
       position="11.28133,21.517801"
       id="guide3274" />
    <sodipodi:guide
       orientation="1,0"
       position="26.13159,26.634503"
       id="guide3960" />
  </sodipodi:namedview>
  <metadata
     id="metadata7">
    <rdf:RDF>
      <cc:Work
         rdf:about="">
        <dc:format>image/svg+xml</dc:format>
        <dc:type
           rdf:resource="http://purl.org/dc/dcmitype/StillImage" />
        <dc:title></dc:title>
      </cc:Work>
    </rdf:RDF>
  </metadata>
  <g
     inkscape:groupmode="layer"
     id="layer12"
     inkscape:label="Ares"
     style="display:inline"
     transform="translate(-142.76812,-31.473222)">
    <g
       inkscape:groupmode="layer"
       id="layer26"
       inkscape:label="bg"
       sodipodi:insensitive="true">
      <path
         transform="translate(-218.16938,-378.37561)"
         inkscape:connector-curvature="0"
         d="m 361.13813,452.9203 c 8.7325,-47.29375 5.3425,-42.67875 14.2675,-42.85625 l 23.44,0 c 8.92625,0.1775 5.535,-4.4375 14.265,42.85625 l -51.9725,0 z"
         style="fill:#fdc97d;stroke:#231f20;stroke-width:0.3125;stroke-linecap:butt;stroke-linejoin:miter;stroke-miterlimit:4;stroke-opacity:1;stroke-dasharray:none;display:inline"
         id="path3175" />
    </g>
    <g
       inkscape:groupmode="layer"
       id="layer34"
       inkscape:label="sdhading"
       style="opacity:0.33333333">
      <path
         style="fill:#a05f34;stroke:none"
         d="m 175.76687,64.99329 c -3.08653,-0.311833 -6.06964,-1.634027 -6.5184,-5.59816 l -0.30675,10.736197 5.52147,0.690184 c -3.06875,-0.657517 -5.31838,-2.116091 -5.13803,-4.601228 l 1e-5,-1.380367 z"
         id="path4172"
         inkscape:connector-curvature="0"
         sodipodi:nodetypes="ccccccc" />
      <path
         sodipodi:nodetypes="ccsccccc"
         inkscape:connector-curvature="0"
         id="path4174"
         d="m 166.33435,64.99329 c -3.08653,-0.311833 -8.52363,-1.02053 -8.43558,-5.138037 -0.40865,3.808461 1.72207,4.693602 1.69859,5.672807 -0.0346,1.443226 -0.147,3.732064 0.98546,5.140077 l 4.44785,0.153374 c -3.06875,-0.657517 -5.31838,-2.116091 -5.13803,-4.601228 l 1e-5,-1.380367 c 2.14723,1.152961 4.29447,0.102249 6.4417,0.153374 z"
         style="fill:#a05f34;stroke:none" />
      <path
         style="fill:#a8693b;fill-opacity:1;stroke:#a8693b;stroke-opacity:1;display:inline"
         d="m 152.375,32.03125 0.78125,4.21875 c -1.03303,0.226269 -1.78125,0.584606 -1.78125,1.15625 l -0.0937,7.75 c -1.00749,8.074031 -3.1767,9.876099 -5.1875,12.53125 l -1,4.75 c 3.72311,0.668987 4.08153,-1.67531 6.96875,-2.8125 2.7837,-1.096417 6.98383,-0.974234 8.625,-2.875 0.0489,0.02111 0.0754,0.04115 0.125,0.0625 0.51376,-1.196624 1.97977,-2.509022 6.875,-2.5625 0.39244,-0.0043 0.74928,-0.01284 1.1875,0 l 0.53125,0 1.21875,0 c 4.24764,0.04833 5.92385,1.016993 6.625,2.0625 l 0,0.03125 -0.28125,0.34375 c 1.59984,1.970177 5.8718,1.828481 8.6875,2.9375 2.88722,1.13719 3.24564,3.481487 6.96875,2.8125 l -1,-4.75 c -1.6575,-2.188634 -3.42849,-3.793623 -4.5625,-8.8125 L 186.9063,37.40625 c 0,-0.673679 -1.01076,-1.065839 -2.34375,-1.28125 l 0.78125,-4.09375 -5.9375,0.09375 -0.5,3.75 c -0.1007,9.76e-4 -0.29201,-5.1e-4 -0.375,0 l -1.4375,0 c -0.76951,-0.02772 -1.09107,2.0785 -1.71875,2.09375 l -5.75,0 -0.96875,0 -5.71875,0 c -0.62768,-0.01525 -0.98049,-2.121466 -1.75,-2.09375 l -1.4375,0 c -0.20747,-0.0013 -0.62796,0.0011 -0.9375,0 l -0.5,-3.75 -5.9375,-0.09375 z"
         id="path4178"
         inkscape:connector-curvature="0" />
      <path
         style="fill:#a8693b;fill-opacity:1;stroke:none"
         d="m 159.20245,58.014762 -1.61043,3.450921 -3.14417,-0.920246 c -3.00497,2.079759 0.78669,10.53194 -2.99079,10.736196 l -1.76381,0 c -0.10304,-3.134487 0.32811,-6.335747 -1.30368,-9.279141 l 2.91411,-2.070552 3.06749,-0.920245 z"
         id="path4189"
         inkscape:connector-curvature="0"
         sodipodi:nodetypes="ccccccccc" />
    </g>
    <g
       inkscape:groupmode="layer"
       id="layer25"
       inkscape:label="muscleoutline"
       sodipodi:insensitive="true">
      <path
         sodipodi:nodetypes="scscssscscssscsccsscsssscsscscccccsccccsssscsscssscssccccscsssccccccccccccssscsccccsscssscsscssssccccscccccscsscssssscccsssssccsssccsssssccsssssssssscssssssssssccsssssccssscsssccsccsssssccccssssssssssssssccccsssssccsccsssccsssccsssccscscccccssssssccsssssssssccsssssscccccscs"
         inkscape:connector-curvature="0"
         id="path3151"
         d="m 156.79211,32.770219 c -0.2043,0.0028 -0.40763,0.0094 -0.6067,0.01568 -0.7963,0.02502 -1.55005,0.0816 -2.23331,0.183058 -1.36652,0.202912 -2.47605,0.551378 -2.79294,1.495844 0.58861,-0.552233 1.11648,-0.855634 2.77202,-1.072196 1.30098,-0.17018 3.03397,0.01177 4.71243,0.07322 3.35693,0.122897 6.95196,0.619158 8.77632,0.894368 0.59396,0.0896 0.96421,0.378811 1.15065,0.611937 0.15222,0.223397 0.25707,0.85831 0.35194,0.879574 0.12696,0.02845 0.23607,-0.628349 0.4169,-0.874344 0.18482,-0.234105 0.55162,-0.526801 1.15066,-0.617167 1.82436,-0.27521 5.41938,-0.771471 8.77631,-0.894368 1.67846,-0.06146 3.41145,-0.243403 4.71243,-0.07322 1.65554,0.216562 2.18341,0.519963 2.77202,1.072196 -0.31689,-0.944466 -1.42642,-1.292932 -2.79294,-1.495844 -0.68326,-0.101456 -1.43701,-0.158041 -2.23331,-0.183058 -0.39814,-0.0125 -0.80872,-0.01884 -1.22387,-0.01568 -0.41515,0.0032 -0.83488,0.0158 -1.26048,0.03138 -3.40483,0.124651 -7.01393,0.617464 -8.84954,0.894368 -0.62788,0.09472 -1.113,0.343414 -1.43308,0.659008 -0.32002,-0.316854 -0.80869,-0.56403 -1.43831,-0.659008 -1.8356,-0.276903 -5.44471,-0.769717 -8.84954,-0.894368 -0.4256,-0.01558 -0.84533,-0.02823 -1.26048,-0.03138 -0.20758,-0.0015 -0.41286,-0.0028 -0.61717,0 z m -7.03464,13.253384 c -0.43043,1.003323 -0.42682,1.950927 -0.25105,2.740639 0.17576,0.789703 0.5504,1.45111 1.20818,1.773042 0.45705,0.223701 1.08398,0.443291 1.82011,0.659008 -0.1876,0.09869 -0.38023,0.229521 -0.55963,0.402727 -0.27581,0.266287 -0.39439,0.654865 -0.52825,1.161115 -0.009,0.03337 -0.0175,0.07028 -0.0262,0.104604 -0.79099,-0.209813 -1.71806,-0.808204 -2.67787,-1.58999 l -0.41842,0.517789 c 0.99818,0.813034 1.97598,1.490191 2.95507,1.73121 -0.0594,0.318551 -0.11235,0.656534 -0.1569,1.004196 -0.0357,0.27905 -0.0686,0.560358 -0.0941,0.842068 -0.79441,-0.205922 -1.72733,-0.808212 -2.69356,-1.595215 l -0.41842,0.517789 c 1.03355,0.841841 2.0459,1.5403 3.05968,1.757359 -0.0452,0.771639 -0.0384,1.487751 0.0314,2.0084 0.0748,0.557741 0.50201,1.004992 1.05127,1.422621 0.54926,0.417637 1.25205,0.802325 1.98749,1.134958 0.73543,0.33264 1.48911,0.681056 2.181,0.805453 0.60436,0.108672 1.01056,0.463142 1.32848,0.753154 0.11922,0.633649 0.32576,1.256545 0.58578,1.720744 0.21918,0.39128 0.39478,0.77366 0.67993,1.098351 0.2044,0.232742 0.47908,0.42069 0.82637,0.523022 -0.31024,0.282305 -0.49199,0.685946 -0.57532,1.16634 -0.1533,0.883749 -0.27502,1.909062 0.24059,2.829552 0.21918,0.391279 0.39478,0.773652 0.67993,1.098342 0.13086,0.149002 0.29176,0.280402 0.48118,0.381811 -0.0361,0.027 -0.0709,0.05334 -0.10461,0.0837 -0.31365,0.282531 -0.49672,0.688302 -0.58055,1.171572 -0.13304,0.766993 -0.23729,1.634833 0.0732,2.452975 l 0.727,0 c -0.35821,-0.682482 -0.28504,-1.507039 -0.14121,-2.337913 l 0,-0.0051 c 0.0667,-0.384646 0.19592,-0.626512 0.37134,-0.78453 0.17544,-0.158017 0.41342,-0.251392 0.78454,-0.261515 0.45363,-0.01241 1.65686,-0.09588 2.88185,-0.167369 1.22498,-0.07145 2.49495,-0.125 2.89754,-0.08891 0.43261,0.03883 0.71267,0.154109 0.89438,0.308588 0.18169,0.15447 0.28773,0.357934 0.33995,0.643318 3.4e-4,0.0017 -3.2e-4,0.0033 0,0.0051 -0.11546,0.666607 -0.186,1.401413 -0.0314,2.29084 0.004,0.01946 0.0114,0.03824 0.0157,0.05753 -0.05,0.119063 -0.11158,0.231575 -0.18304,0.339962 l 0.28765,0 0.49687,0 0.28766,0 c -0.0715,-0.108387 -0.13305,-0.220899 -0.18306,-0.339962 0.004,-0.01929 0.0119,-0.03808 0.0157,-0.05753 0.15463,-0.889427 0.0841,-1.624233 -0.0314,-2.29084 -3.3e-4,-0.0017 3.4e-4,-0.0033 0,-0.0051 0.0522,-0.285384 0.15827,-0.488848 0.33997,-0.643318 0.1817,-0.154479 0.46176,-0.269802 0.89437,-0.308588 0.40259,-0.03606 1.67257,0.01744 2.89754,0.08891 1.22499,0.07145 2.42822,0.155 2.88185,0.167369 0.37112,0.01006 0.60911,0.103498 0.78454,0.261515 0.17542,0.158018 0.30462,0.399884 0.37134,0.78453 l 0,0.0051 c 0.14383,0.830874 0.217,1.655431 -0.14121,2.337913 l 0.727,0 c 0.31051,-0.818142 0.20626,-1.685982 0.0732,-2.452975 -0.0838,-0.48327 -0.2669,-0.889041 -0.58056,-1.171572 -0.0336,-0.03037 -0.0685,-0.0567 -0.1046,-0.0837 0.18942,-0.101409 0.35033,-0.232809 0.48118,-0.381811 0.28515,-0.32469 0.46075,-0.707063 0.67993,-1.098342 0.51561,-0.92049 0.39388,-1.945803 0.24059,-2.829552 -0.0833,-0.480394 -0.26508,-0.884035 -0.57533,-1.16634 0.3473,-0.102332 0.62198,-0.29028 0.82638,-0.523022 0.28515,-0.324691 0.46075,-0.707071 0.67993,-1.098351 0.26002,-0.464199 0.46656,-1.087095 0.58578,-1.720744 0.31792,-0.290012 0.72413,-0.644482 1.32848,-0.753154 0.69189,-0.124397 1.44558,-0.472813 2.18101,-0.805453 0.73544,-0.332633 1.43823,-0.717321 1.98749,-1.134958 0.54925,-0.417629 0.97649,-0.86488 1.05126,-1.422621 0.0698,-0.520649 0.0766,-1.236761 0.0314,-2.0084 1.01378,-0.217059 2.02612,-0.915518 3.05967,-1.757359 l -0.41841,-0.517789 c -0.96623,0.787003 -1.89914,1.389293 -2.69356,1.595215 -0.0255,-0.28171 -0.0584,-0.563018 -0.0941,-0.842068 -0.0445,-0.347662 -0.0975,-0.685645 -0.1569,-1.004196 0.9791,-0.241019 1.95689,-0.918176 2.95508,-1.73121 l -0.41843,-0.517789 c -0.95981,0.781786 -1.88687,1.380177 -2.67786,1.58999 -0.009,-0.0343 -0.0173,-0.0712 -0.0262,-0.104604 -0.13385,-0.50625 -0.25245,-0.894828 -0.52825,-1.161115 -0.1794,-0.173206 -0.37203,-0.304035 -0.55964,-0.402727 0.73615,-0.215717 1.36306,-0.435307 1.82013,-0.659008 0.65778,-0.321932 1.03242,-0.983339 1.20817,-1.773042 0.17577,-0.789712 0.17939,-1.737316 -0.25104,-2.740639 -0.24262,1.027367 -0.25228,1.918187 -0.40274,2.594194 -0.15044,0.676 -0.42079,1.109271 -0.84728,1.318017 -1.16256,0.568989 -3.93552,1.236719 -6.91436,1.7835 -2.97883,0.546781 -6.19061,0.990945 -8.3422,1.197722 -0.58786,0.05652 -1.04195,-0.182942 -1.41216,-0.591011 -0.37021,-0.408068 -1.14284,-1.653425 -1.25002,-2.186234 l -0.0261,0.162135 -0.0314,-0.162135 c -0.10719,0.532809 -0.87982,1.778166 -1.25003,2.186234 -0.37021,0.408069 -0.8243,0.647511 -1.41216,0.591011 -2.15158,-0.206777 -5.36336,-0.650941 -8.3422,-1.197722 -2.97883,-0.546781 -5.7518,-1.214511 -6.91435,-1.7835 -0.42651,-0.208746 -0.69684,-0.642017 -0.8473,-1.318017 -0.15045,-0.676007 -0.1601,-1.566827 -0.40272,-2.594194 z m 19.20014,5.345291 c 0.15723,0.50188 0.41089,1.000832 0.7793,1.40693 0.47407,0.522545 1.1598,0.888723 1.9718,0.810678 2.17967,-0.209476 5.40056,-0.657666 8.39974,-1.208179 1.48122,-0.271889 2.89735,-0.563075 4.11618,-0.868217 l 0,0.05233 c 0,0 0.70303,-0.0051 1.24479,0.517788 0.0475,0.04588 0.22271,0.3893 0.3452,0.852527 0.12249,0.463226 0.22868,1.055353 0.30858,1.678903 0.1598,1.247077 0.21203,2.634668 0.11507,3.357799 -0.0311,0.231786 -0.30836,0.608027 -0.79499,0.978055 -0.48665,0.37002 -1.15265,0.738052 -1.85674,1.056502 -1.44081,0.646698 -2.1074,0.939914 -3.23226,0.104605 -0.049,-0.257843 -0.10397,-0.470037 -0.21967,-0.679925 -0.16415,-0.297728 -0.41843,-0.538553 -0.85253,-0.904832 -0.1732,-0.146127 -0.38558,-0.239853 -0.66947,-0.345195 -0.2839,-0.105343 -0.6288,-0.21004 -1.0199,-0.313814 -0.78217,-0.20754 -1.74394,-0.408999 -2.70925,-0.580554 -0.9653,-0.171553 -1.93631,-0.312135 -2.73017,-0.392268 -0.39695,-0.04008 -0.74862,-0.06189 -1.04082,-0.06801 -0.0731,-0.0017 -0.13923,-0.0051 -0.20397,-0.0051 -0.19426,1.51e-4 -0.35724,0.01367 -0.50734,0.05753 -0.49372,0.144188 -0.88081,0.287404 -1.18726,0.517789 -0.0984,0.07397 -0.18119,0.162127 -0.25628,0.256282 -0.0753,-0.09459 -0.16275,-0.182037 -0.26151,-0.256282 -0.30646,-0.230385 -0.69355,-0.373601 -1.18727,-0.517789 -0.1501,-0.04386 -0.31308,-0.05737 -0.50732,-0.05753 -0.0647,-5.1e-5 -0.13094,0.0033 -0.20398,0.0051 -0.29221,0.0058 -0.64388,0.02793 -1.04081,0.06801 -0.79388,0.08018 -1.76487,0.220715 -2.73018,0.392268 -0.96531,0.171555 -1.92708,0.373014 -2.70926,0.580554 -0.39109,0.103774 -0.73599,0.208471 -1.01989,0.313814 -0.2839,0.105342 -0.49628,0.199068 -0.66947,0.345195 -0.43411,0.366279 -0.68838,0.607104 -0.85252,0.904832 -0.11572,0.209888 -0.17062,0.422082 -0.21967,0.679925 -1.12487,0.83531 -1.79147,0.542095 -3.23228,-0.104603 -0.70408,-0.318451 -1.37009,-0.686482 -1.85673,-1.056502 -0.48664,-0.370028 -0.76393,-0.74627 -0.795,-0.978055 -0.097,-0.723131 -0.0447,-2.110723 0.11507,-3.357799 0.0799,-0.623542 0.18609,-1.215677 0.30858,-1.678903 0.12249,-0.463227 0.29767,-0.806637 0.3452,-0.852527 0.54177,-0.523072 1.24479,-0.517788 1.24479,-0.517788 l 0,-0.05233 c 1.21884,0.305142 2.63496,0.596327 4.11618,0.868216 2.99917,0.550514 6.22006,0.998703 8.39974,1.20818 0.812,0.07808 1.49773,-0.288133 1.9718,-0.810678 0.36849,-0.406181 0.62731,-0.904949 0.78453,-1.40693 z m -2.14439,6.124588 c 0.26462,-0.0058 0.46732,0.01442 0.50733,0.02617 0.46684,0.136339 0.78528,0.266966 0.97282,0.40796 0.18755,0.140993 0.27305,0.274547 0.32428,0.554404 8.4e-4,0.0042 -8.4e-4,0.01627 0,0.02097 -0.13931,0.961433 -0.20452,3.627617 -0.0314,4.62351 0.006,0.03573 0.0187,0.06944 0.0262,0.104604 -0.20543,0.671403 -0.77736,1.240174 -1.10881,1.359857 0.0152,-0.0058 -0.15179,0.02826 -0.36089,0.05233 -0.20909,0.02399 -0.48813,0.04939 -0.81068,0.07321 -0.6451,0.04772 -1.46734,0.09396 -2.30653,0.130754 -1.67838,0.07355 -3.46001,0.108646 -3.88605,0.07841 -0.42816,-0.03036 -0.62152,-0.155233 -0.81592,-0.376578 -0.19364,-0.220488 -0.36491,-0.564727 -0.59624,-0.978046 l 0,-0.0051 c -0.39514,-0.70542 -0.70122,-2.265948 -0.57533,-2.991688 l 0,-0.0051 c 0.0746,-0.429723 0.11447,-0.644064 0.20921,-0.81592 0.0953,-0.172887 0.27704,-0.363368 0.69562,-0.71654 0.04,-0.03371 0.22324,-0.136356 0.47595,-0.230124 0.25271,-0.09377 0.57963,-0.192729 0.95713,-0.292898 0.75501,-0.200327 1.7058,-0.401057 2.65695,-0.570095 0.95115,-0.169038 1.9076,-0.304051 2.67788,-0.381802 0.38514,-0.03891 0.72389,-0.06248 0.98851,-0.06801 z m 4.28355,0 c 0.26463,0.0058 0.60338,0.0291 0.98851,0.06801 0.77028,0.07774 1.72673,0.212764 2.67788,0.381802 0.95115,0.169038 1.90194,0.369759 2.65695,0.570095 0.37751,0.100168 0.70442,0.19912 0.95713,0.292889 0.25271,0.09377 0.43597,0.196394 0.47595,0.230133 0.41858,0.353171 0.60031,0.543653 0.69562,0.71654 0.0947,0.171855 0.13464,0.386197 0.20921,0.815911 l 0,0.0051 c 0.12589,0.725749 -0.18019,2.286277 -0.57532,2.991688 l 0,0.0051 c -0.23133,0.413328 -0.40261,0.757567 -0.59625,0.978055 -0.19439,0.221345 -0.38776,0.346236 -0.81591,0.376578 -0.42604,0.03019 -2.20768,-0.0051 -3.88606,-0.07841 -0.83919,-0.03682 -1.66143,-0.08303 -2.30653,-0.130754 -0.32254,-0.02382 -0.60159,-0.04923 -0.81068,-0.07321 -0.2091,-0.02399 -0.37612,-0.05779 -0.36089,-0.05233 -0.33144,-0.119684 -0.90338,-0.688455 -1.1088,-1.359858 0.008,-0.03513 0.0199,-0.06894 0.0262,-0.104604 0.17313,-0.995893 0.10792,-3.662086 -0.0314,-4.623519 8.3e-4,-0.0051 -8.4e-4,-0.0166 0,-0.02097 0.0512,-0.279849 0.13672,-0.413412 0.32427,-0.554396 0.18754,-0.140994 0.50598,-0.271621 0.97282,-0.40796 0.04,-0.01166 0.24271,-0.0317 0.50733,-0.02617 z m -23.83935,2.772021 -0.53872,0.392268 c 1.02746,1.408691 2.03179,2.119562 2.35883,3.608848 0.41651,1.896666 0.18311,6.697348 0.48118,6.736531 0.29808,0.03917 0.61882,-4.850994 0.17261,-6.882976 -0.37833,-1.72284 -1.51114,-2.534675 -2.4739,-3.854671 z m 43.39515,0 c -0.96276,1.319996 -2.09556,2.131831 -2.47389,3.854671 -0.44621,2.031982 -0.12548,6.922157 0.1726,6.882976 0.29807,-0.03917 0.0647,-4.839865 0.48118,-6.736531 0.32704,-1.489286 1.33137,-2.200157 2.35883,-3.608848 z m -23.74521,5.214529 c 0.21433,-8.39e-4 0.37714,0.0017 0.47595,0.01048 0.43261,0.03883 0.71269,0.159342 0.89438,0.313813 0.18169,0.154479 0.28773,0.352709 0.33997,0.638093 3.2e-4,0.0017 -3.4e-4,0.0033 0,0.0051 -0.11547,0.667152 -0.18602,1.406637 -0.0314,2.296064 0.006,0.03589 0.0187,0.06927 0.0262,0.104604 -0.20543,0.671413 -0.77735,1.240174 -1.10881,1.359866 -0.003,8.38e-4 -0.13739,0.03371 -0.3138,0.05753 -0.17644,0.02382 -0.41283,0.0442 -0.67994,0.06801 -0.53424,0.04755 -1.21185,0.09401 -1.90379,0.130754 -1.38392,0.07347 -2.85455,0.109301 -3.28981,0.07841 -0.42816,-0.03036 -0.62676,-0.155226 -0.82115,-0.376578 -0.19439,-0.221344 -0.36352,-0.567814 -0.59624,-0.98328 -0.3882,-0.693007 -0.31517,-1.532895 -0.16738,-2.384977 l 0,-0.0051 c 0.067,-0.381366 0.1968,-0.627299 0.37135,-0.784537 0.17543,-0.158018 0.41865,-0.251385 0.78977,-0.261507 0.45109,-0.01224 1.82835,-0.09585 3.23228,-0.167369 1.05294,-0.05368 2.13951,-0.09611 2.78246,-0.09937 z m 3.81807,0 c 0.0798,-0.0017 0.17004,-4.19e-4 0.2772,0 0.64297,0.0033 1.72953,0.0457 2.78248,0.09938 1.40392,0.07154 2.78119,0.155058 3.23227,0.167361 0.37112,0.01015 0.61435,0.103497 0.78977,0.261515 0.17455,0.157229 0.30434,0.403162 0.37134,0.784529 l 0,0.0051 c 0.14781,0.852082 0.22083,1.69197 -0.16736,2.384985 -0.23273,0.415466 -0.40185,0.761928 -0.59625,0.98328 -0.19439,0.221345 -0.39299,0.346236 -0.82114,0.376578 -0.43528,0.03086 -1.90591,-0.0051 -3.28981,-0.07841 -0.69196,-0.03673 -1.36957,-0.08319 -1.9038,-0.130753 -0.26712,-0.02382 -0.50351,-0.04419 -0.67993,-0.06801 -0.17643,-0.02373 -0.3108,-0.05652 -0.31382,-0.05753 -0.33121,-0.119599 -0.89778,-0.689065 -1.10357,-1.359857 0.007,-0.03506 0.0147,-0.06894 0.0209,-0.104604 0.15463,-0.889427 0.0841,-1.628921 -0.0314,-2.296073 -3.4e-4,-0.0017 3.2e-4,-0.0033 0,-0.0051 0.0522,-0.285384 0.15826,-0.483614 0.33995,-0.638084 0.18171,-0.154471 0.46177,-0.275035 0.89438,-0.313814 0.0494,-0.0042 0.1189,-0.0088 0.19874,-0.01048 z"
         style="font-size:medium;font-style:normal;font-variant:normal;font-weight:normal;font-stretch:normal;text-indent:0;text-align:start;text-decoration:none;line-height:normal;letter-spacing:normal;word-spacing:normal;text-transform:none;direction:ltr;block-progression:tb;writing-mode:lr-tb;text-anchor:start;baseline-shift:baseline;color:#000000;fill:#da8540;fill-opacity:1;stroke:none;stroke-width:4;marker:none;visibility:visible;display:inline;overflow:visible;enable-background:accumulate;font-family:Sans;-inkscape-font-specification:Sans" />
    </g>
    <g
       inkscape:groupmode="layer"
       id="layer28"
       inkscape:label="armor">
      <g
         inkscape:groupmode="layer"
         id="layer30"
         inkscape:label="straps"
         sodipodi:insensitive="true">
        <path
           id="path3982"
           d="m 152.375,31.5 1.1875,6.3125 5.5625,-0.28125 -0.8125,-5.9375 L 152.375,31.5 z m 32.96875,0 -5.9375,0.09375 -0.8125,5.9375 5.5625,0.28125 1.1875,-6.3125 z m -33.9375,12.0625 c -0.94444,8.989424 -3.216,10.825442 -5.3125,13.59375 l -1,4.75 c 3.72311,0.668987 4.08153,-1.67531 6.96875,-2.8125 2.8157,-1.109019 7.08766,-0.967323 8.6875,-2.9375 L 151.40625,43.5625 z m 34.90625,0 -9.34375,12.59375 c 1.59984,1.970177 5.8718,1.828481 8.6875,2.9375 2.88722,1.13719 3.24564,3.481487 6.96875,2.8125 l -1,-4.75 c -2.0965,-2.768308 -4.36806,-4.604326 -5.3125,-13.59375 z"
           style="fill:#1b2a34;stroke:#e5e4de;stroke-width:1px;stroke-linecap:butt;stroke-linejoin:miter;stroke-opacity:1;display:inline"
           inkscape:connector-curvature="0" />
        <path
           style="fill:#1b2a34;stroke:none;display:inline"
           d="m 152.375,31.5 1.1875,6.3125 5.5625,-0.28125 -0.8125,-5.9375 L 152.375,31.5 z m 32.96875,0 -5.9375,0.09375 -0.8125,5.9375 5.5625,0.28125 1.1875,-6.3125 z m -33.9375,12.0625 c -0.94444,8.989424 -3.216,10.825442 -5.3125,13.59375 l -1,4.75 c 3.72311,0.668987 4.08153,-1.67531 6.96875,-2.8125 2.8157,-1.109019 7.08766,-0.967323 8.6875,-2.9375 L 151.40625,43.5625 z m 34.90625,0 -9.34375,12.59375 c 1.59984,1.970177 5.8718,1.828481 8.6875,2.9375 2.88722,1.13719 3.24564,3.481487 6.96875,2.8125 l -1,-4.75 c -2.0965,-2.768308 -4.36806,-4.604326 -5.3125,-13.59375 z"
           id="path3971"
           inkscape:connector-curvature="0" />
        <g
           id="g4147">
          <path
             sodipodi:nodetypes="cc"
             inkscape:connector-curvature="0"
             id="path4143"
             d="m 148.81044,52.957238 c 0.45775,2.415596 2.33094,4.286789 5.44896,5.679202"
             style="fill:none;stroke:#f2f3f2;stroke-width:0.53149605;stroke-linecap:butt;stroke-linejoin:miter;stroke-miterlimit:4;stroke-opacity:1;stroke-dasharray:none" />
          <path
             style="fill:none;stroke:#f2f3f2;stroke-width:0.53149605;stroke-linecap:butt;stroke-linejoin:miter;stroke-miterlimit:4;stroke-opacity:1;stroke-dasharray:none"
             d="m 146.7383,55.950331 c 0.45775,2.415596 0.48904,2.751869 3.60706,4.144282"
             id="path4145"
             inkscape:connector-curvature="0"
             sodipodi:nodetypes="cc" />
        </g>
        <g
           id="g4151"
           transform="matrix(-1,0,0,1,337.52878,0)">
          <path
             style="fill:none;stroke:#f2f3f2;stroke-width:0.53149605;stroke-linecap:butt;stroke-linejoin:miter;stroke-miterlimit:4;stroke-opacity:1;stroke-dasharray:none"
             d="m 148.81044,52.957238 c 0.45775,2.415596 2.33094,4.286789 5.44896,5.679202"
             id="path4153"
             inkscape:connector-curvature="0"
             sodipodi:nodetypes="cc" />
          <path
             sodipodi:nodetypes="cc"
             inkscape:connector-curvature="0"
             id="path4155"
             d="m 146.7383,55.950331 c 0.45775,2.415596 0.48904,2.751869 3.60706,4.144282"
             style="fill:none;stroke:#f2f3f2;stroke-width:0.53149605;stroke-linecap:butt;stroke-linejoin:miter;stroke-miterlimit:4;stroke-opacity:1;stroke-dasharray:none" />
        </g>
      </g>
      <g
         inkscape:groupmode="layer"
         id="layer33"
         inkscape:label="belt"
         sodipodi:insensitive="true">
        <path
           style="fill:#694020;stroke:#1b2a34;stroke-width:0.53149605;stroke-linecap:round;stroke-linejoin:round;stroke-miterlimit:4;stroke-opacity:1;stroke-dasharray:none"
           d="m 143.5,71.59375 c -0.18256,1.001514 -0.33695,1.885214 -0.53125,2.9375 l 51.96875,0 c -0.19424,-1.052286 -0.34874,-1.935986 -0.53125,-2.9375 l -50.90625,0 z"
           id="rect4158"
           inkscape:connector-curvature="0" />
        <path
           style="fill:none;stroke:#e5e4de;stroke-width:0.70866144;stroke-linecap:round;stroke-linejoin:round;stroke-miterlimit:4;stroke-opacity:1"
           d="m 166.29115,71.128258 4.99439,0 c 0.061,0 0.11016,0.135849 0.11016,0.304594 l 0,2.534983 c 0,0.168745 -0.0491,0.304595 -0.11016,0.304595 l -4.99439,0 c -0.061,0 -0.11017,-0.13585 -0.11017,-0.304595 l 0,-2.534983 c 0,-0.168745 0.0491,-0.304594 0.11017,-0.304594 z"
           id="rect4166"
           inkscape:connector-curvature="0" />
        <path
           style="fill:#e5e4de;stroke:#e5e4de;stroke-width:0.70866144;stroke-linecap:butt;stroke-linejoin:miter;stroke-miterlimit:4;stroke-opacity:1;stroke-dasharray:none"
           d="m 171.24233,72.662002 -3.22086,-0.07669"
           id="path4169"
           inkscape:connector-curvature="0" />
      </g>
      <g
         inkscape:groupmode="layer"
         id="layer29"
         inkscape:label="plateoutline"
         sodipodi:insensitive="true">
        <path
           inkscape:connector-curvature="0"
           id="path3976"
           d="m 157.65625,35.25 c -2.61493,0.02962 -6.28125,0.244104 -6.28125,1.53125 l -0.15625,13.4375 c 3.64254,3.086714 5.10105,4.036502 9.59375,5.96875 0.51376,-1.196624 1.97977,-2.509022 6.875,-2.5625 0.39244,-0.0043 0.74928,-0.01284 1.1875,0 l 0.53125,0 1.21875,0 c 4.88527,0.05558 6.36167,1.366886 6.875,2.5625 4.4927,-1.932248 5.95121,-2.882036 9.59375,-5.96875 l -0.1875,-13.4375 c 0,-1.716194 -6.52161,-1.54264 -8.375,-1.53125 l -1.4375,0 c -0.76951,-0.02772 -1.09107,2.0785 -1.71875,2.09375 l -5.75,0 -0.96875,0 -5.71875,0 c -0.62768,-0.01525 -0.98049,-2.121466 -1.75,-2.09375 l -1.4375,0 c -0.46335,-0.0028 -1.22211,-0.0099 -2.09375,0 z"
           style="fill:#1b2a34;stroke:#f2f3f2" />
        <path
           style="fill:#1b2a34;stroke:none"
           d="m 157.65625,35.25 c -2.61493,0.02962 -6.28125,0.244104 -6.28125,1.53125 l -0.15625,13.4375 c 3.64254,3.086714 5.10105,4.036502 9.59375,5.96875 0.51376,-1.196624 1.97977,-2.509022 6.875,-2.5625 0.39244,-0.0043 0.74928,-0.01284 1.1875,0 l 0.53125,0 1.21875,0 c 4.88527,0.05558 6.36167,1.366886 6.875,2.5625 4.4927,-1.932248 5.95121,-2.882036 9.59375,-5.96875 l -0.1875,-13.4375 c 0,-1.716194 -6.52161,-1.54264 -8.375,-1.53125 l -1.4375,0 c -0.76951,-0.02772 -1.09107,2.0785 -1.71875,2.09375 l -5.75,0 -0.96875,0 -5.71875,0 c -0.62768,-0.01525 -0.98049,-2.121466 -1.75,-2.09375 l -1.4375,0 c -0.46335,-0.0028 -1.22211,-0.0099 -2.09375,0 z"
           id="path3197"
           inkscape:connector-curvature="0" />
        <g
           id="g4014"
           transform="translate(-1.0876954,-2.7872196)">
          <path
             d="m 159.2794,39.47113 c 0,0.450539 -0.91308,0.815772 -2.03943,0.815772 -1.12634,0 -2.03942,-0.365233 -2.03942,-0.815772 0,-0.450538 0.91308,-0.815771 2.03942,-0.815771 1.12635,0 2.03943,0.365233 2.03943,0.815771 z"
             sodipodi:ry="0.81577158"
             sodipodi:rx="2.0394289"
             sodipodi:cy="39.47113"
             sodipodi:cx="157.23997"
             id="path3984"
             style="fill:#e29b3f;fill-opacity:1;stroke:none;display:inline"
             sodipodi:type="arc" />
          <path
             sodipodi:type="arc"
             style="fill:url(#radialGradient4018);fill-opacity:1;stroke:none;display:inline"
             id="path3987"
             sodipodi:cx="157.23997"
             sodipodi:cy="39.47113"
             sodipodi:rx="2.0394289"
             sodipodi:ry="0.81577158"
             d="m 159.2794,39.47113 c 0,0.450539 -0.91308,0.815772 -2.03943,0.815772 -1.12634,0 -2.03942,-0.365233 -2.03942,-0.815772 0,-0.450538 0.91308,-0.815771 2.03942,-0.815771 1.12635,0 2.03943,0.365233 2.03943,0.815771 z" />
        </g>
        <g
           transform="translate(-1.6315431,-6.5261727)"
           id="g4020">
          <path
             sodipodi:type="arc"
             style="fill:#e29b3f;fill-opacity:1;stroke:none;display:inline"
             id="path4023"
             sodipodi:cx="157.23997"
             sodipodi:cy="39.47113"
             sodipodi:rx="2.0394289"
             sodipodi:ry="0.81577158"
             d="m 159.2794,39.47113 c 0,0.450539 -0.91308,0.815772 -2.03943,0.815772 -1.12634,0 -2.03942,-0.365233 -2.03942,-0.815772 0,-0.450538 0.91308,-0.815771 2.03942,-0.815771 1.12635,0 2.03943,0.365233 2.03943,0.815771 z" />
          <path
             d="m 159.2794,39.47113 c 0,0.450539 -0.91308,0.815772 -2.03943,0.815772 -1.12634,0 -2.03942,-0.365233 -2.03942,-0.815772 0,-0.450538 0.91308,-0.815771 2.03942,-0.815771 1.12635,0 2.03943,0.365233 2.03943,0.815771 z"
             sodipodi:ry="0.81577158"
             sodipodi:rx="2.0394289"
             sodipodi:cy="39.47113"
             sodipodi:cx="157.23997"
             id="path4025"
             style="fill:url(#radialGradient4027);fill-opacity:1;stroke:none;display:inline"
             sodipodi:type="arc" />
        </g>
        <g
           id="g4029"
           transform="translate(24.881033,-6.2542488)">
          <path
             d="m 159.2794,39.47113 c 0,0.450539 -0.91308,0.815772 -2.03943,0.815772 -1.12634,0 -2.03942,-0.365233 -2.03942,-0.815772 0,-0.450538 0.91308,-0.815771 2.03942,-0.815771 1.12635,0 2.03943,0.365233 2.03943,0.815771 z"
             sodipodi:ry="0.81577158"
             sodipodi:rx="2.0394289"
             sodipodi:cy="39.47113"
             sodipodi:cx="157.23997"
             id="path4031"
             style="fill:#e29b3f;fill-opacity:1;stroke:none;display:inline"
             sodipodi:type="arc" />
          <path
             sodipodi:type="arc"
             style="fill:url(#radialGradient4035);fill-opacity:1;stroke:none;display:inline"
             id="path4033"
             sodipodi:cx="157.23997"
             sodipodi:cy="39.47113"
             sodipodi:rx="2.0394289"
             sodipodi:ry="0.81577158"
             d="m 159.2794,39.47113 c 0,0.450539 -0.91308,0.815772 -2.03943,0.815772 -1.12634,0 -2.03942,-0.365233 -2.03942,-0.815772 0,-0.450538 0.91308,-0.815771 2.03942,-0.815771 1.12635,0 2.03943,0.365233 2.03943,0.815771 z" />
        </g>
        <g
           transform="translate(24.541128,-2.4473147)"
           id="g4037">
          <path
             sodipodi:type="arc"
             style="fill:#e29b3f;fill-opacity:1;stroke:none;display:inline"
             id="path4039"
             sodipodi:cx="157.23997"
             sodipodi:cy="39.47113"
             sodipodi:rx="2.0394289"
             sodipodi:ry="0.81577158"
             d="m 159.2794,39.47113 c 0,0.450539 -0.91308,0.815772 -2.03943,0.815772 -1.12634,0 -2.03942,-0.365233 -2.03942,-0.815772 0,-0.450538 0.91308,-0.815771 2.03942,-0.815771 1.12635,0 2.03943,0.365233 2.03943,0.815771 z" />
          <path
             d="m 159.2794,39.47113 c 0,0.450539 -0.91308,0.815772 -2.03943,0.815772 -1.12634,0 -2.03942,-0.365233 -2.03942,-0.815772 0,-0.450538 0.91308,-0.815771 2.03942,-0.815771 1.12635,0 2.03943,0.365233 2.03943,0.815771 z"
             sodipodi:ry="0.81577158"
             sodipodi:rx="2.0394289"
             sodipodi:cy="39.47113"
             sodipodi:cx="157.23997"
             id="path4041"
             style="fill:url(#radialGradient4043);fill-opacity:1;stroke:none;display:inline"
             sodipodi:type="arc" />
        </g>
      </g>
      <g
         inkscape:groupmode="layer"
         id="layer32"
         inkscape:label="logo"
         sodipodi:insensitive="true">
        <path
           inkscape:connector-curvature="0"
           id="path4141"
           d="m 161.9476,51.981303 c 0.0619,0.06188 0.19003,0.03093 0.30935,-0.08839 l 2.36439,-2.364388 c 0.0597,-0.05966 0.11384,-0.117659 0.13259,-0.176777 l 1.03856,1.038563 c 0.0432,0.04316 0.16794,-0.03536 0.28726,-0.15468 l 0.50823,-0.508233 c 0.11932,-0.11932 0.19784,-0.244107 0.15468,-0.287262 l -0.92807,-0.928077 4.88345,-5.457981 5.03814,-5.568466 -5.56847,5.038136 -5.43588,4.905553 -0.92808,-0.928077 c -0.0431,-0.04315 -0.19004,0.01326 -0.30936,0.132582 l -0.50823,0.508233 c -0.11932,0.119321 -0.17574,0.266205 -0.13258,0.309359 l 1.03856,1.038563 c -0.0591,0.01874 -0.13921,0.05082 -0.19887,0.110486 l -2.36439,2.364388 c -0.11932,0.119321 -0.15027,0.247481 -0.0884,0.309359 l 0.70711,0.707107 z"
           style="fill:#f2f3f2;fill-opacity:1;stroke:none;display:inline" />
        <path
           style="fill:#f2f3f2;fill-opacity:1;stroke:none;display:inline"
           d="m 174.99796,51.981303 c -0.0619,0.06188 -0.19003,0.03093 -0.30935,-0.08839 l -2.36439,-2.364388 c -0.0597,-0.05966 -0.11384,-0.117659 -0.13259,-0.176777 l -1.03856,1.038563 c -0.0432,0.04316 -0.16794,-0.03536 -0.28726,-0.15468 l -0.50823,-0.508233 c -0.11932,-0.11932 -0.19784,-0.244107 -0.15468,-0.287262 l 0.92807,-0.928077 -4.88345,-5.457981 -5.03814,-5.568466 5.56847,5.038136 5.43588,4.905553 0.92808,-0.928077 c 0.0431,-0.04315 0.19004,0.01326 0.30936,0.132582 l 0.50823,0.508233 c 0.11932,0.119321 0.17574,0.266205 0.13258,0.309359 l -1.03856,1.038563 c 0.0591,0.01874 0.13921,0.05082 0.19887,0.110486 l 2.36439,2.364388 c 0.11932,0.119321 0.15027,0.247481 0.0884,0.309359 l -0.70711,0.707107 z"
           id="path4133"
           inkscape:connector-curvature="0" />
        <g
           id="g4125"
           transform="translate(-0.16474465,-3.4596376)">
          <path
             id="path4094"
             d="m 169.6875,42.125 c -0.26933,6.53e-4 -0.56072,0.0233 -0.84375,0.03125 -1.02936,0.0289 -1.9967,-0.03663 -2.03125,0.5625 l 0,1.0625 c -1.34376,0.08876 -2.40625,1.111307 -2.40625,2.375 l 0,3.125 c 0,1.054127 0.72695,1.932179 1.75,2.25 l -0.0312,0.21875 0,0.78125 5.8125,0 -0.0625,-0.90625 0,-0.125 c 0.96155,-0.34739 1.625,-1.205212 1.625,-2.21875 l 0,-3.125 c 0,-1.244512 -1.02924,-2.259661 -2.34375,-2.375 l 0,-1.0625 c 0.005,-0.495463 -0.66077,-0.595708 -1.46875,-0.59375 z"
             style="fill:#f2f3f2;stroke:#1b2a34;stroke-width:0.35433072;stroke-miterlimit:4;stroke-dasharray:none"
             inkscape:connector-curvature="0" />
          <path
             id="path4099"
             d="m 167.6875,45.90625 c -0.56865,0 -1.28125,0.539511 -1.28125,1.1875 0,0.64799 0.4626,1.15625 1.03125,1.15625 0.56864,0 0.90625,-0.25826 0.90625,-0.90625 0,-0.647989 -0.0876,-1.4375 -0.65625,-1.4375 z m 2.5625,0 c -0.56864,0 -0.625,0.789511 -0.625,1.4375 0,0.64799 0.30636,0.90625 0.875,0.90625 0.56865,0 1.03125,-0.50826 1.03125,-1.15625 0,-0.647989 -0.7126,-1.1875 -1.28125,-1.1875 z M 168.9375,47.5 c -0.24239,-7.84e-4 -0.50313,0.384226 -0.625,0.59375 -0.12187,0.209524 -0.33927,0.633442 -0.21875,0.84375 0.12052,0.210308 0.57011,0.217966 0.8125,0.21875 0.24239,7.84e-4 0.72188,-0.0092 0.84375,-0.21875 0.12187,-0.209524 -0.0982,-0.633442 -0.21875,-0.84375 -0.12052,-0.210308 -0.35136,-0.592966 -0.59375,-0.59375 z m -2.78125,0.84375 c -0.14251,0.01542 -0.1,0.6207 -0.0312,0.625 l 0.5312,0.03125 0.6875,1.3125 c 0.008,0.05657 0.0113,0.08978 0.0312,0.15625 0.031,0.161674 0.0713,0.275081 0.125,0.25 l 0.0625,0 0.0312,0.0625 0,-0.09375 0.0312,0 c 0.0538,-0.0251 0.0623,-0.182076 0.0312,-0.34375 -0.003,-0.01356 0.003,-0.01842 0,-0.03125 l 0,-0.03125 0.21875,0 0.0312,0.40625 c 0.0197,0.167597 0.10058,0.291442 0.1875,0.28125 l 0.1875,-0.03125 c 0.0869,-0.01019 0.14465,-0.144903 0.125,-0.3125 l -0.0312,-0.3125 0.28125,0.03125 0,0.34375 c 0,0.08437 0.0344,0.169531 0.0625,0.21875 0.0281,0.04922 0.05,0.0625 0.0937,0.0625 0.008,0.0022 0.0225,0 0.0312,0 l 0.15625,0 c 0.0438,0 0.0969,-0.01328 0.125,-0.0625 0.0387,-0.0486 0.0625,-0.117503 0.0625,-0.21875 l 0,-0.34375 0.28125,-0.03125 -0.0312,0.3125 c -0.0197,0.167597 0.0381,0.30231 0.125,0.3125 l 0.1875,0.03125 c 0.0869,0.01019 0.1678,-0.113653 0.1875,-0.28125 l 0.0312,-0.40625 0.21875,0 0,0.03125 c -0.003,0.01283 0.003,0.01769 0,0.03125 -0.0311,0.161674 -0.0225,0.31865 0.0312,0.34375 l 0.0312,0 0,0.09375 0.0312,-0.0625 0.0625,0 c 0.0537,0.02508 0.094,-0.08833 0.125,-0.25 0.0199,-0.06647 0.0232,-0.09968 0.0312,-0.15625 l 0.688,-1.3125 0.53125,-0.03125 c 0.0687,-0.0043 0.11126,-0.60958 -0.0312,-0.625 -0.26756,-0.02896 -0.33871,0.3065 -0.5625,0.3125 l -0.5,0.03125 c -0.1768,-0.0043 -0.1915,0.0504 -0.1875,0.21875 l 0.0312,0.71875 c 0.003,0.17032 -0.0875,0.1788 -0.21875,0.1875 l -0.21875,0 0,-0.09375 c 0.0197,-0.167597 -0.0381,-0.30231 -0.125,-0.3125 L 169.75,49.375 c -0.0869,-0.01019 -0.1679,0.113653 -0.1875,0.28125 L 169.5,50.03125 169.1875,50 l 0,-0.28125 c 0,-0.09787 -0.026,-0.160864 -0.0625,-0.21875 -0.0236,-0.04791 -0.0584,-0.08441 -0.0937,-0.09375 l -0.0312,0 -0.1875,0 c -0.0354,0.0093 -0.0701,0.04584 -0.0937,0.09375 -0.0281,0.05703 -0.0625,0.134377 -0.0625,0.21875 l 0,0.28125 -0.3125,0.03125 -0.0625,-0.375 c -0.0197,-0.167597 -0.10058,-0.291442 -0.1875,-0.28125 l -0.15625,0.03125 c -0.0869,0.01019 -0.14465,0.144903 -0.125,0.3125 l 0,0.09375 -0.21875,0 c -0.13126,-0.0087 -0.22175,-0.01718 -0.21875,-0.1875 l 0.0312,-0.71875 c 0.004,-0.168346 -0.0107,-0.22305 -0.1875,-0.21875 l -0.5,-0.03125 c -0.22379,-0.006 -0.29494,-0.34146 -0.5625,-0.3125 z"
             style="fill:#1b2a34;fill-opacity:1;stroke:none"
             inkscape:connector-curvature="0" />
        </g>
      </g>
      <g
         inkscape:groupmode="layer"
         id="layer31"
         inkscape:label="plate_deco"
         sodipodi:insensitive="true">
        <path
           style="opacity:0.44444442;fill:url(#radialGradient4074);fill-opacity:1;stroke:none;display:inline"
           d="m 151.32563,49.804236 c 3.09957,2.483392 10.51439,2.220712 15.77158,3.331068 l 1.35963,-1.767506 0.3399,-11.760707 -0.068,-2.515296 -6.0503,0.339905 c -3.37639,-2.549522 -10.28778,-1.247329 -11.28484,0.06798 z"
           id="path4064"
           inkscape:connector-curvature="0"
           sodipodi:nodetypes="cccccccc" />
        <path
           sodipodi:nodetypes="cccccccc"
           inkscape:connector-curvature="0"
           id="path4076"
           d="m 186.53977,49.804236 c -3.09957,2.483392 -10.51439,2.220712 -15.77158,3.331068 l -1.35963,-1.767506 -0.3399,-11.760707 0.068,-2.515296 6.0503,0.339905 c 3.37639,-2.549522 10.28778,-1.247329 11.28484,0.06798 z"
           style="opacity:0.44444442;fill:url(#radialGradient4078);fill-opacity:1;stroke:none;display:inline" />
        <path
           style="font-size:medium;font-style:normal;font-variant:normal;font-weight:normal;font-stretch:normal;text-indent:0;text-align:start;text-decoration:none;line-height:normal;letter-spacing:normal;word-spacing:normal;text-transform:none;direction:ltr;block-progression:tb;writing-mode:lr-tb;text-anchor:start;baseline-shift:baseline;color:#000000;fill:#635f61;fill-opacity:1;stroke:none;stroke-width:4;marker:none;visibility:visible;display:inline;overflow:visible;enable-background:accumulate;font-family:Sans;-inkscape-font-specification:Sans"
           d="m 187.09375,49.8125 c -0.0624,0.04709 -0.11642,0.09021 -0.1875,0.125 -1.16256,0.568989 -3.92741,1.234469 -6.90625,1.78125 -2.97883,0.546781 -6.19216,0.980723 -8.34375,1.1875 -0.58786,0.05652 -1.06729,-0.185681 -1.4375,-0.59375 -0.37021,-0.408068 -1.14282,-1.654691 -1.25,-2.1875 l 0,0.1875 -0.0312,-0.1875 c -0.10719,0.532809 -0.87979,1.779432 -1.25,2.1875 -0.37021,0.408069 -0.84964,0.65025 -1.4375,0.59375 -2.15158,-0.206777 -5.36491,-0.640719 -8.34375,-1.1875 -2.8356,-0.52049 -5.43722,-1.13751 -6.6875,-1.6875 l 0,0.1875 c 0.41603,0.352549 0.72692,0.604806 1.09375,0.90625 0.0771,0.02345 0.13885,0.03909 0.21875,0.0625 -0.018,0.0095 -0.0159,0.04596 -0.0312,0.0625 l 1.0625,0.34375 c 0.031,-0.0018 0.125,-0.03125 0.125,-0.03125 l 0,-0.0625 c 1.21884,0.305142 2.64378,0.603111 4.125,0.875 2.99917,0.550514 6.19532,1.009273 8.375,1.21875 0.812,0.07808 1.52593,-0.289955 2,-0.8125 0.36849,-0.406181 0.62403,-0.904269 0.78125,-1.40625 0.15723,0.50188 0.41284,1.000152 0.78125,1.40625 0.47407,0.522545 1.15675,0.890545 1.96875,0.8125 2.17967,-0.209476 5.37582,-0.668237 8.375,-1.21875 1.48122,-0.271889 2.90617,-0.569858 4.125,-0.875 l 1.15625,-0.3125 c 0.12509,-0.03666 0.22526,-0.05687 0.34375,-0.09375 L 186.25,50.9375 c 0.29359,-0.243325 0.51917,-0.443696 0.84375,-0.71875 l 0,-0.40625 z"
           id="path4047"
           inkscape:connector-curvature="0" />
        <path
           style="font-size:medium;font-style:normal;font-variant:normal;font-weight:normal;font-stretch:normal;text-indent:0;text-align:start;text-decoration:none;line-height:normal;letter-spacing:normal;word-spacing:normal;text-transform:none;direction:ltr;block-progression:tb;writing-mode:lr-tb;text-anchor:start;baseline-shift:baseline;opacity:0.52962964;color:#000000;fill:#635f61;fill-opacity:1;stroke:none;stroke-width:1px;marker:none;visibility:visible;display:inline;overflow:visible;enable-background:accumulate;font-family:Sans;-inkscape-font-specification:Sans"
           d="m 168.4375,51.3125 1,0 -0.5,-11.71875 z"
           id="path4055"
           inkscape:connector-curvature="0"
           sodipodi:nodetypes="cccc" />
      </g>
    </g>
  </g>
  <g
     inkscape:label="template"
     inkscape:groupmode="layer"
     id="layer1"
     transform="translate(-360.9375,-409.84883)"
     style="display:inline">
    <path
       inkscape:connector-curvature="0"
       d="m 361.13813,452.9203 c 8.7325,-47.29375 5.3425,-42.67875 14.2675,-42.85625 l 23.44,0 c 8.92625,0.1775 5.535,-4.4375 14.265,42.85625 l -51.9725,0 z"
       style="fill:none;stroke:#231f20;stroke-width:0.3125;stroke-linecap:butt;stroke-linejoin:miter;stroke-miterlimit:4;stroke-opacity:1;stroke-dasharray:none"
       id="path3093" />
    <path
       id="path3148"
       style="fill:none;stroke:#231f20;stroke-width:0.3125;stroke-linecap:butt;stroke-linejoin:miter;stroke-miterlimit:4;stroke-opacity:1;stroke-dasharray:none"
       d="m 361.13813,452.9203 c 8.7325,-47.29375 5.3425,-42.67875 14.2675,-42.85625 l 23.44,0 c 8.92625,0.1775 5.535,-4.4375 14.265,42.85625 l -51.9725,0 z"
       inkscape:connector-curvature="0" />
  </g>
</svg>
