<?xml version="1.0" encoding="UTF-8" standalone="no"?>
<!-- Created with Inkscape (http://www.inkscape.org/) -->

<svg
   xmlns:dc="http://purl.org/dc/elements/1.1/"
   xmlns:cc="http://creativecommons.org/ns#"
   xmlns:rdf="http://www.w3.org/1999/02/22-rdf-syntax-ns#"
   xmlns:svg="http://www.w3.org/2000/svg"
   xmlns="http://www.w3.org/2000/svg"
   xmlns:xlink="http://www.w3.org/1999/xlink"
   xmlns:sodipodi="http://sodipodi.sourceforge.net/DTD/sodipodi-0.dtd"
   xmlns:inkscape="http://www.inkscape.org/namespaces/inkscape"
   width="116.59592"
   height="67.255562"
   id="svg2"
   version="1.1"
   inkscape:version="0.48.2 r9819"
   sodipodi:docname="Batman.tlg.ComicCon.svg"
   inkscape:export-filename="F:\GitHub\Batman_ComicCon.png"
   inkscape:export-xdpi="1718.3771"
   inkscape:export-ydpi="1718.3771">
  <defs
     id="defs4">
    <linearGradient
       inkscape:collect="always"
       id="linearGradient4011">
      <stop
         style="stop-color:#ffffff;stop-opacity:1;"
         offset="0"
         id="stop4013" />
      <stop
         style="stop-color:#ffffff;stop-opacity:0;"
         offset="1"
         id="stop4015" />
    </linearGradient>
    <linearGradient
       inkscape:collect="always"
       id="linearGradient3997">
      <stop
         style="stop-color:#ffffff;stop-opacity:1;"
         offset="0"
         id="stop3999" />
      <stop
         style="stop-color:#ffffff;stop-opacity:0;"
         offset="1"
         id="stop4001" />
    </linearGradient>
    <inkscape:path-effect
       effect="skeletal"
       id="path-effect4237"
       is_visible="true"
       pattern="M 0,5 C 0,2.24 2.24,0 5,0 7.76,0 10,2.24 10,5 10,7.76 7.76,10 5,10 2.24,10 0,7.76 0,5 z"
       copytype="single_stretched"
       prop_scale="1"
       scale_y_rel="false"
       spacing="0"
       normal_offset="0"
       tang_offset="0"
       prop_units="false"
       vertical_pattern="false"
       fuse_tolerance="0" />
    <clipPath
       id="clipPath2999"
       clipPathUnits="userSpaceOnUse">
      <path
         id="path3001"
         d="M 0,792 612,792 612,0 0,0 0,792 z"
         inkscape:connector-curvature="0" />
    </clipPath>
    <radialGradient
       gradientUnits="userSpaceOnUse"
       gradientTransform="matrix(0.75988491,-0.03632001,0.13155835,2.7524547,16.986326,-78.268899)"
       r="12.650181"
       fy="46.658409"
       fx="96.306435"
       cy="46.658409"
       cx="96.306435"
       id="radialGradient3972"
       xlink:href="#linearGradient3966"
       inkscape:collect="always" />
    <clipPath
       clipPathUnits="userSpaceOnUse"
       id="clipPath2999-4">
      <path
         inkscape:connector-curvature="0"
         d="M 0,792 612,792 612,0 0,0 0,792 z"
         id="path3001-0" />
    </clipPath>
    <linearGradient
       id="linearGradient3966">
      <stop
         id="stop3968"
         offset="0"
         style="stop-color:#c0ac02;stop-opacity:1;" />
      <stop
         id="stop3970"
         offset="1"
         style="stop-color:#fdea41;stop-opacity:0;" />
    </linearGradient>
    <radialGradient
       inkscape:collect="always"
       xlink:href="#linearGradient3997"
       id="radialGradient4003"
       cx="165.81134"
       cy="47.693741"
       fx="165.81134"
       fy="47.693741"
       r="3.8123069"
       gradientTransform="matrix(0.64374811,-0.18781617,0.31213841,1.069868,43.640483,27.15595)"
       gradientUnits="userSpaceOnUse" />
    <radialGradient
       inkscape:collect="always"
       xlink:href="#linearGradient3997"
       id="radialGradient4007"
       gradientUnits="userSpaceOnUse"
       gradientTransform="matrix(-0.64374811,-0.18781617,-0.31213841,1.069868,293.73143,27.15595)"
       cx="165.81134"
       cy="47.693741"
       fx="165.81134"
       fy="47.693741"
       r="3.8123069" />
    <radialGradient
       inkscape:collect="always"
       xlink:href="#linearGradient4011"
       id="radialGradient4017"
       cx="169.32254"
       cy="41.784931"
       fx="169.32254"
       fy="41.784931"
       r="6.982676"
       gradientTransform="matrix(0.31036379,-0.01814613,0.03701409,0.63307367,114.75293,21.468668)"
       gradientUnits="userSpaceOnUse" />
    <linearGradient
       id="linearGradient3966-2">
      <stop
         style="stop-color:#c0ac02;stop-opacity:1;"
         offset="0"
         id="stop3968-4" />
      <stop
         style="stop-color:#fdea41;stop-opacity:0;"
         offset="1"
         id="stop3970-5" />
    </linearGradient>
    <clipPath
       id="clipPath2999-4-8"
       clipPathUnits="userSpaceOnUse">
      <path
         id="path3001-0-8"
         d="M 0,792 612,792 612,0 0,0 0,792 z"
         inkscape:connector-curvature="0" />
    </clipPath>
    <radialGradient
       inkscape:collect="always"
       xlink:href="#linearGradient3966-2"
       id="radialGradient3972-4"
       cx="96.306435"
       cy="46.658409"
       fx="96.306435"
       fy="46.658409"
       r="12.650181"
       gradientTransform="matrix(0.75988491,-0.03632001,0.13155835,2.7524547,16.986326,-78.268899)"
       gradientUnits="userSpaceOnUse" />
    <clipPath
       clipPathUnits="userSpaceOnUse"
       id="clipPath2999-0">
      <path
         inkscape:connector-curvature="0"
         d="M 0,792 612,792 612,0 0,0 0,792 z"
         id="path3001-9" />
    </clipPath>
    <inkscape:path-effect
       fuse_tolerance="0"
       vertical_pattern="false"
       prop_units="false"
       tang_offset="0"
       normal_offset="0"
       spacing="0"
       scale_y_rel="false"
       prop_scale="1"
       copytype="single_stretched"
       pattern="M 0,5 C 0,2.24 2.24,0 5,0 7.76,0 10,2.24 10,5 10,7.76 7.76,10 5,10 2.24,10 0,7.76 0,5 z"
       is_visible="true"
       id="path-effect4237-4"
       effect="skeletal" />
    <clipPath
       clipPathUnits="userSpaceOnUse"
       id="clipPath3816">
      <path
         id="path3818"
         style="fill:#ffffff;fill-opacity:1;stroke:#231f20;stroke-width:0.3125;stroke-linecap:butt;stroke-linejoin:miter;stroke-miterlimit:4;stroke-opacity:1;stroke-dasharray:none;display:inline"
         d="m 195.41236,74.54469 c 8.7325,-47.29375 5.3425,-42.67875 14.2675,-42.85625 l 23.44,0 c 8.92625,0.1775 5.535,-4.4375 14.265,42.85625 l -51.9725,0 z"
         inkscape:connector-curvature="0" />
    </clipPath>
    <mask
       maskUnits="userSpaceOnUse"
       id="mask4804">
      <path
         inkscape:connector-curvature="0"
         d="m 202.11006,74.785544 c 8.7325,-47.29375 5.3425,-42.67875 14.2675,-42.85625 l 23.44,0 c 8.92625,0.1775 5.535,-4.4375 14.265,42.85625 l -51.9725,0 z"
         style="fill:#ffffff;fill-opacity:1;stroke:#231f20;stroke-width:0.3125;stroke-linecap:butt;stroke-linejoin:miter;stroke-miterlimit:4;stroke-opacity:1;stroke-dasharray:none;display:inline"
         id="path4806" />
    </mask>
  </defs>
  <sodipodi:namedview
     id="base"
     pagecolor="#ffffff"
     bordercolor="#666666"
     borderopacity="1.0"
     inkscape:pageopacity="0.0"
     inkscape:pageshadow="2"
     inkscape:zoom="3.87395"
     inkscape:cx="70.816213"
     inkscape:cy="71.265746"
     inkscape:document-units="px"
     inkscape:current-layer="layer2"
     showgrid="false"
     fit-margin-top="0"
     fit-margin-left="0"
     fit-margin-right="0"
     fit-margin-bottom="0"
     inkscape:window-width="1600"
     inkscape:window-height="848"
     inkscape:window-x="-8"
     inkscape:window-y="-8"
     inkscape:window-maximized="1"
     showguides="true"
     inkscape:guide-bbox="true"
     inkscape:snap-global="false">
    <sodipodi:guide
       orientation="0,1"
       position="16.364118,22.263731"
       id="guide3274" />
    <sodipodi:guide
       orientation="1,0"
       position="31.214378,27.380433"
       id="guide3960" />
  </sodipodi:namedview>
  <metadata
     id="metadata7">
    <rdf:RDF>
      <cc:Work
         rdf:about="">
        <dc:format>image/svg+xml</dc:format>
        <dc:type
           rdf:resource="http://purl.org/dc/dcmitype/StillImage" />
        <dc:title></dc:title>
      </cc:Work>
    </rdf:RDF>
  </metadata>
  <g
     inkscape:groupmode="layer"
     id="layer30"
     inkscape:label="bats"
     transform="translate(-137.68533,-8.177263)">
    <g
       inkscape:groupmode="layer"
       id="layer38"
       inkscape:label="baseg"
       style="display:inline">
      <path
         transform="translate(-218.16938,-378.37561)"
         inkscape:connector-curvature="0"
         d="m 361.13813,452.9203 c 8.7325,-47.29375 5.3425,-42.67875 14.2675,-42.85625 l 23.44,0 c 8.92625,0.1775 5.535,-4.4375 14.265,42.85625 l -51.9725,0 z"
         style="fill:#1b2a34;stroke:#231f20;stroke-width:0.3125;stroke-linecap:butt;stroke-linejoin:miter;stroke-miterlimit:4;stroke-opacity:1;stroke-dasharray:none;display:inline"
         id="path4246" />
      <path
         id="path4107"
         style="fill:#1b2a34;stroke:#231f20;stroke-width:0.3125;stroke-linecap:butt;stroke-linejoin:miter;stroke-miterlimit:4;stroke-opacity:1;stroke-dasharray:none;display:inline"
         d="m 202.11006,74.785542 c 8.7325,-47.29375 5.3425,-42.67875 14.2675,-42.85625 l 23.44,0 c 8.92625,0.1775 5.535,-4.4375 14.265,42.85625 l -51.9725,0 z"
         inkscape:connector-curvature="0" />
      <path
         inkscape:connector-curvature="0"
         d="m 202.11006,74.785542 c 8.7325,-47.29375 5.3425,-42.67875 14.2675,-42.85625 l 23.44,0 c 8.92625,0.1775 5.535,-4.4375 14.265,42.85625 l -51.9725,0 z"
         style="fill:none;stroke:#231f20;stroke-width:0.3125;stroke-linecap:butt;stroke-linejoin:miter;stroke-miterlimit:4;stroke-opacity:1;stroke-dasharray:none;display:inline"
         id="path4132-6" />
    </g>
    <g
       inkscape:groupmode="layer"
       id="layer36"
       inkscape:label="west"
       style="display:inline">
      <path
         style="fill:#a1a5a2;fill-opacity:1;stroke:#231f20;stroke-width:0.3125;stroke-linecap:butt;stroke-linejoin:miter;stroke-miterlimit:4;stroke-opacity:1;stroke-dasharray:none;display:inline"
         d="m 153.34375,31.65625 c -2.29171,0.165785 -3.05599,1.554815 -4.4375,8.96875 l 40.09375,0 c -1.96455,-10.547549 -2.67903,-8.825477 -8.3125,-8.9375 l -23.4375,0 c -1.67344,0.03328 -2.93762,-0.101322 -3.90625,-0.03125 z"
         id="path4292"
         inkscape:connector-curvature="0" />
      <rect
         style="fill:#6d6e6c;fill-opacity:1;stroke:none"
         id="rect4171"
         width="4.4387007"
         height="19.648882"
         x="166.94951"
         y="46.65683"
         ry="0.57417578" />
      <g
         id="g4196">
        <g
           style="stroke:none"
           id="g4159"
           transform="matrix(-1,0,0,1,339.05548,-1.2682002)">
          <path
             sodipodi:nodetypes="sssssssss"
             inkscape:connector-curvature="0"
             id="path4162"
             d="m 184.60462,54.665453 4.23043,-1.947593 c 0.29173,-0.134306 0.54185,0.260788 0.57971,0.57971 l 0.36234,3.052816 c 0.0379,0.31892 -0.27519,0.477681 -0.57971,0.57971 l -5.27216,1.766422 c -0.30453,0.102029 -0.65366,-0.267179 -0.57971,-0.57971 l 0.67939,-2.871645 c 0.0739,-0.312532 0.28798,-0.445405 0.57971,-0.57971 z"
             style="fill:#86949f;fill-opacity:1;stroke:none" />
          <path
             inkscape:connector-curvature="0"
             id="path4168"
             d="m 185.3384,54.348401 0.45293,1.539957 3.8046,-1.449371"
             style="fill:none;stroke:none" />
        </g>
        <path
           sodipodi:nodetypes="cccccc"
           inkscape:connector-curvature="0"
           id="path4148"
           d="m 148.28884,58.877687 c 1.52727,-0.653521 2.59688,-0.743967 6.20512,1.222907 1.30931,-1.336071 3.51418,2.365002 3.94048,4.166944 l -1.04174,0.31705 -7.33744,-4.212236 z"
           style="fill:#86949f;fill-opacity:1;stroke:none" />
        <path
           sodipodi:nodetypes="ccccc"
           inkscape:connector-curvature="0"
           id="path4146"
           d="m 151.86697,48.596208 2.08348,1.539957 c -1.33354,3.846305 -1.94138,7.627978 -1.58526,11.594973 l -2.71756,-0.362343 c -0.27137,-2.980505 0.62138,-9.594412 2.21934,-12.772587 z"
           style="fill:#c7c1b7;fill-opacity:1;stroke:#000000;stroke-width:0.375;stroke-linecap:butt;stroke-linejoin:miter;stroke-miterlimit:4;stroke-opacity:1;stroke-dasharray:none" />
        <path
           sodipodi:nodetypes="cc"
           inkscape:connector-curvature="0"
           id="path4134"
           d="m 153.72398,60.417645 c 2.75596,-0.87506 3.23608,3.42223 4.80104,5.253972 l -2.62698,3.351672 -4.30283,-2.128765 -1.53995,-3.940479 z"
           style="fill:#86949f;fill-opacity:1;stroke:#1b2a34;stroke-width:0.625;stroke-linecap:butt;stroke-linejoin:miter;stroke-miterlimit:4;stroke-opacity:1;stroke-dasharray:none" />
        <path
           sodipodi:nodetypes="cccccc"
           inkscape:connector-curvature="0"
           id="path4132"
           d="m 146.34124,64.675174 0.11273,-4.255743 c 0.0448,-0.945691 1.21903,-2.028929 2.17223,-1.824518 l 5.05249,1.822732 0.99644,7.337443 z"
           style="fill:#86949f;fill-opacity:1;stroke:#1b2a34;stroke-width:0.625;stroke-linecap:butt;stroke-linejoin:round;stroke-miterlimit:4;stroke-opacity:1;stroke-dasharray:none" />
        <path
           sodipodi:nodetypes="ccccc"
           inkscape:connector-curvature="0"
           id="path4136"
           d="m 161.69552,50.272043 c 0.36506,4.890497 1.17368,9.293714 2.07795,13.623071 -0.69933,1.209323 0.0334,1.773401 -2.3497,1.09711 -1.42625,-4.015503 -1.94791,-8.993461 -2.5364,-14.086081 z"
           style="fill:#c7c1b7;stroke:#1b2a34;stroke-width:0.5;stroke-linecap:butt;stroke-linejoin:miter;stroke-miterlimit:4;stroke-opacity:1;stroke-dasharray:none" />
        <path
           sodipodi:nodetypes="ccccc"
           inkscape:connector-curvature="0"
           id="path4130"
           d="m 167.59926,60.821915 0,-4.184005 c 0.0461,-0.468862 -0.57191,-0.482657 -0.9692,-0.254172 l -8.11606,4.378405 z"
           style="fill:#86949f;fill-opacity:1;stroke:#1b2a34;stroke-width:0.625;stroke-linecap:butt;stroke-linejoin:round;stroke-miterlimit:4;stroke-opacity:1;stroke-dasharray:none" />
        <path
           sodipodi:nodetypes="szsssszssss"
           inkscape:connector-curvature="0"
           id="rect4138"
           d="m 159.2406,53.804887 c 0,0 4.57241,-3.119078 5.71601,-3.079915 1.1436,0.03916 2.54549,0 2.54549,0 0.32116,0 0.57971,0.25855 0.57971,0.57971 l 0,2.192252 c 0,0.321159 -0.25855,0.57971 -0.57971,0.57971 0,0 -1.44119,-0.02533 -2.31903,0 -0.87784,0.02532 -5.89718,3.351672 -5.89718,3.351672 -0.27921,0.158692 -0.5738,-0.258605 -0.57971,-0.57971 l -0.0453,-2.464009 c -0.006,-0.321106 0.29698,-0.427369 0.57972,-0.57971 z"
           style="fill:#86949f;fill-opacity:1;stroke:#1b2a34;stroke-width:0.5;stroke-linecap:round;stroke-linejoin:round;stroke-miterlimit:4;stroke-opacity:1" />
        <path
           sodipodi:nodetypes="ccc"
           inkscape:connector-curvature="0"
           id="path4142"
           d="m 158.88736,55.661894 3.8499,-2.491108 -0.0453,-1.358786"
           style="fill:none;stroke:#1b2a34;stroke-width:0.375;stroke-linecap:butt;stroke-linejoin:round;stroke-miterlimit:4;stroke-opacity:1;stroke-dasharray:none" />
        <g
           transform="matrix(-1,0,0,1,338.69314,-0.81527155)"
           id="g4155">
          <path
             style="fill:#86949f;fill-opacity:1;stroke:#1b2a34;stroke-width:0.5;stroke-miterlimit:4"
             d="m 184.60462,54.665453 4.23043,-1.947593 c 0.29173,-0.134306 0.54185,0.260788 0.57971,0.57971 l 0.36234,3.052816 c 0.0379,0.31892 -0.27519,0.477681 -0.57971,0.57971 l -5.27216,1.766422 c -0.30453,0.102029 -0.65366,-0.267179 -0.57971,-0.57971 l 0.67939,-2.871645 c 0.0739,-0.312532 0.28798,-0.445405 0.57971,-0.57971 z"
             id="rect4150"
             inkscape:connector-curvature="0"
             sodipodi:nodetypes="sssssssss" />
          <path
             style="fill:none;stroke:#1b2a34;stroke-width:0.375;stroke-linecap:butt;stroke-linejoin:miter;stroke-miterlimit:4;stroke-opacity:1;stroke-dasharray:none"
             d="m 185.3384,54.348401 0.45293,1.539957 3.8046,-1.449371"
             id="path4153"
             inkscape:connector-curvature="0" />
        </g>
        <path
           sodipodi:nodetypes="sssssssss"
           inkscape:connector-curvature="0"
           id="rect4144"
           d="m 160.82586,63.135216 5.90624,0 c 0.32116,0 0.57971,0.25855 0.57971,0.57971 l 0,2.509284 c 0,0.32116 -0.2586,0.585425 -0.57971,0.579711 l -5.09097,-0.09059 c -0.3211,-0.0057 -0.47713,-0.275375 -0.57971,-0.579711 l -0.81527,-2.418698 c -0.10258,-0.304336 0.25856,-0.57971 0.57971,-0.57971 z"
           style="fill:#86949f;fill-opacity:1;stroke:#1b2a34;stroke-width:0.5;stroke-linecap:round;stroke-linejoin:round;stroke-miterlimit:4;stroke-opacity:1" />
      </g>
      <path
         style="fill:#1b2a34;fill-opacity:1;stroke:none"
         d="m 157.0625,32.762492 c -1.51518,0.08483 -6.59375,1.9375 -6.59375,1.9375 l -2.4375,11.25 c 0.7143,1.592286 1.81391,3.077898 2.34375,3.5625 0.71888,0.657495 4.01426,2.087711 5.75,3.59375 2.97441,-1.588322 6.46186,-3.590471 10.6875,-3.65625 1.01999,-0.01588 1.32335,-0.945434 2.15625,-1.40625 0.8329,0.460816 1.13626,1.390371 2.15625,1.40625 4.22564,0.06578 7.71309,2.067928 10.6875,3.65625 1.73574,-1.506039 5.03112,-2.936255 5.75,-3.59375 0.52984,-0.484602 1.62945,-1.970214 2.34375,-3.5625 l -2.4375,-11.25 c 0,0 -5.10982,-1.85267 -6.625,-1.9375 -1.51518,-0.08483 -9.26043,2.049722 -10.125,2.625 -0.71178,0.473613 -1.45747,1.384754 -1.75,1.75 -0.29253,-0.365246 -1.03822,-1.276387 -1.75,-1.75 -0.86457,-0.575278 -8.64107,-2.709829 -10.15625,-2.625 z"
         id="path4184"
         inkscape:connector-curvature="0" />
      <g
         id="g4213"
         transform="matrix(-1,0,0,1,338.60391,0)">
        <g
           transform="matrix(-1,0,0,1,339.05548,-1.2682002)"
           id="g4215"
           style="stroke:none">
          <path
             style="fill:#86949f;fill-opacity:1;stroke:none"
             d="m 184.60462,54.665453 4.23043,-1.947593 c 0.29173,-0.134306 0.54185,0.260788 0.57971,0.57971 l 0.36234,3.052816 c 0.0379,0.31892 -0.27519,0.477681 -0.57971,0.57971 l -5.27216,1.766422 c -0.30453,0.102029 -0.65366,-0.267179 -0.57971,-0.57971 l 0.67939,-2.871645 c 0.0739,-0.312532 0.28798,-0.445405 0.57971,-0.57971 z"
             id="path4217"
             inkscape:connector-curvature="0"
             sodipodi:nodetypes="sssssssss" />
          <path
             style="fill:none;stroke:none"
             d="m 185.3384,54.348401 0.45293,1.539957 3.8046,-1.449371"
             id="path4219"
             inkscape:connector-curvature="0" />
        </g>
        <path
           style="fill:#86949f;fill-opacity:1;stroke:none"
           d="m 148.28884,58.877687 c 1.52727,-0.653521 2.59688,-0.743967 6.20512,1.222907 1.30931,-1.336071 3.51418,2.365002 3.94048,4.166944 l -1.04174,0.31705 -7.33744,-4.212236 z"
           id="path4221"
           inkscape:connector-curvature="0"
           sodipodi:nodetypes="cccccc" />
        <path
           style="fill:#c7c1b7;fill-opacity:1;stroke:#000000;stroke-width:0.375;stroke-linecap:butt;stroke-linejoin:miter;stroke-miterlimit:4;stroke-opacity:1;stroke-dasharray:none"
           d="m 151.86697,48.596208 2.08348,1.539957 c -1.33354,3.846305 -1.94138,7.627978 -1.58526,11.594973 l -2.71756,-0.362343 c -0.27137,-2.980505 0.62138,-9.594412 2.21934,-12.772587 z"
           id="path4223"
           inkscape:connector-curvature="0"
           sodipodi:nodetypes="ccccc" />
        <path
           style="fill:#86949f;fill-opacity:1;stroke:#1b2a34;stroke-width:0.625;stroke-linecap:butt;stroke-linejoin:miter;stroke-miterlimit:4;stroke-opacity:1;stroke-dasharray:none"
           d="m 153.72398,60.417645 c 2.75596,-0.87506 3.23608,3.42223 4.80104,5.253972 l -2.62698,3.351672 -4.30283,-2.128765 -1.53995,-3.940479 z"
           id="path4225"
           inkscape:connector-curvature="0"
           sodipodi:nodetypes="cc" />
        <path
           style="fill:#86949f;fill-opacity:1;stroke:#1b2a34;stroke-width:0.625;stroke-linecap:butt;stroke-linejoin:round;stroke-miterlimit:4;stroke-opacity:1;stroke-dasharray:none"
           d="m 146.34124,64.675174 0.11273,-4.255743 c 0.0448,-0.945691 1.21903,-2.028929 2.17223,-1.824518 l 5.05249,1.822732 0.99644,7.337443 z"
           id="path4227"
           inkscape:connector-curvature="0"
           sodipodi:nodetypes="cccccc" />
        <path
           style="fill:#c7c1b7;stroke:#1b2a34;stroke-width:0.5;stroke-linecap:butt;stroke-linejoin:miter;stroke-miterlimit:4;stroke-opacity:1;stroke-dasharray:none"
           d="m 161.69552,50.272043 c 0.36506,4.890497 1.17368,9.293714 2.07795,13.623071 -0.69933,1.209323 0.0334,1.773401 -2.3497,1.09711 -1.42625,-4.015503 -1.94791,-8.993461 -2.5364,-14.086081 z"
           id="path4229"
           inkscape:connector-curvature="0"
           sodipodi:nodetypes="ccccc" />
        <path
           style="fill:#86949f;fill-opacity:1;stroke:#1b2a34;stroke-width:0.625;stroke-linecap:butt;stroke-linejoin:round;stroke-miterlimit:4;stroke-opacity:1;stroke-dasharray:none"
           d="m 167.59926,60.821915 0,-4.184005 c 0.0461,-0.468862 -0.57191,-0.482657 -0.9692,-0.254172 l -8.11606,4.378405 z"
           id="path4231"
           inkscape:connector-curvature="0"
           sodipodi:nodetypes="ccccc" />
        <path
           style="fill:#86949f;fill-opacity:1;stroke:#1b2a34;stroke-width:0.5;stroke-linecap:round;stroke-linejoin:round;stroke-miterlimit:4;stroke-opacity:1"
           d="m 159.2406,53.804887 c 0,0 4.57241,-3.119078 5.71601,-3.079915 1.1436,0.03916 2.54549,0 2.54549,0 0.32116,0 0.57971,0.25855 0.57971,0.57971 l 0,2.192252 c 0,0.321159 -0.25855,0.57971 -0.57971,0.57971 0,0 -1.44119,-0.02533 -2.31903,0 -0.87784,0.02532 -5.89718,3.351672 -5.89718,3.351672 -0.27921,0.158692 -0.5738,-0.258605 -0.57971,-0.57971 l -0.0453,-2.464009 c -0.006,-0.321106 0.29698,-0.427369 0.57972,-0.57971 z"
           id="path4233"
           inkscape:connector-curvature="0"
           sodipodi:nodetypes="szsssszssss" />
        <path
           style="fill:none;stroke:#1b2a34;stroke-width:0.375;stroke-linecap:butt;stroke-linejoin:round;stroke-miterlimit:4;stroke-opacity:1;stroke-dasharray:none"
           d="m 158.88736,55.661894 3.8499,-2.491108 -0.0453,-1.358786"
           id="path4235"
           inkscape:connector-curvature="0"
           sodipodi:nodetypes="ccc" />
        <g
           id="g4237"
           transform="matrix(-1,0,0,1,338.69314,-0.81527155)">
          <path
             sodipodi:nodetypes="sssssssss"
             inkscape:connector-curvature="0"
             id="path4239"
             d="m 184.60462,54.665453 4.23043,-1.947593 c 0.29173,-0.134306 0.54185,0.260788 0.57971,0.57971 l 0.36234,3.052816 c 0.0379,0.31892 -0.27519,0.477681 -0.57971,0.57971 l -5.27216,1.766422 c -0.30453,0.102029 -0.65366,-0.267179 -0.57971,-0.57971 l 0.67939,-2.871645 c 0.0739,-0.312532 0.28798,-0.445405 0.57971,-0.57971 z"
             style="fill:#86949f;fill-opacity:1;stroke:#1b2a34;stroke-width:0.5;stroke-miterlimit:4" />
          <path
             inkscape:connector-curvature="0"
             id="path4241"
             d="m 185.3384,54.348401 0.45293,1.539957 3.8046,-1.449371"
             style="fill:none;stroke:#1b2a34;stroke-width:0.375;stroke-linecap:butt;stroke-linejoin:miter;stroke-miterlimit:4;stroke-opacity:1;stroke-dasharray:none" />
        </g>
        <path
           style="fill:#86949f;fill-opacity:1;stroke:#1b2a34;stroke-width:0.5;stroke-linecap:round;stroke-linejoin:round;stroke-miterlimit:4;stroke-opacity:1"
           d="m 160.82586,63.135216 5.90624,0 c 0.32116,0 0.57971,0.25855 0.57971,0.57971 l 0,2.509284 c 0,0.32116 -0.2586,0.585425 -0.57971,0.579711 l -5.09097,-0.09059 c -0.3211,-0.0057 -0.47713,-0.275375 -0.57971,-0.579711 l -0.81527,-2.418698 c -0.10258,-0.304336 0.25856,-0.57971 0.57971,-0.57971 z"
           id="path4243"
           inkscape:connector-curvature="0"
           sodipodi:nodetypes="sssssssss" />
      </g>
      <path
         id="path4182"
         d="m 157.0625,32.25 c -1.51518,0.08483 -6.59375,1.9375 -6.59375,1.9375 l -2.4375,11.25 c 0.7143,1.592286 1.81391,3.077898 2.34375,3.5625 0.71888,0.657495 4.01426,2.087711 5.75,3.59375 2.97441,-1.588322 6.46186,-3.590471 10.6875,-3.65625 1.01999,-0.01588 1.32335,-0.945434 2.15625,-1.40625 0.8329,0.460816 1.13626,1.390371 2.15625,1.40625 4.22564,0.06578 7.71309,2.067928 10.6875,3.65625 1.73574,-1.506039 5.03112,-2.936255 5.75,-3.59375 0.52984,-0.484602 1.62945,-1.970214 2.34375,-3.5625 l -2.4375,-11.25 c 0,0 -5.10982,-1.85267 -6.625,-1.9375 -1.51518,-0.08483 -9.26043,2.049722 -10.125,2.625 -0.71178,0.473613 -1.45747,1.384754 -1.75,1.75 -0.29253,-0.365246 -1.03822,-1.276387 -1.75,-1.75 -0.86457,-0.575278 -8.64107,-2.709829 -10.15625,-2.625 z"
         style="fill:#86949f;fill-opacity:1;stroke:none"
         inkscape:connector-curvature="0" />
      <path
         style="fill:none;stroke:#1b2a34;stroke-width:0.5;stroke-linecap:butt;stroke-linejoin:miter;stroke-miterlimit:4;stroke-opacity:1;stroke-dasharray:none"
         d="m 187.46875,34.1875 c 0,0 -5.10982,-1.85267 -6.625,-1.9375 -1.51518,-0.08483 -9.26043,2.049722 -10.125,2.625 -0.71178,0.473613 -1.45747,1.384754 -1.75,1.75 -0.29253,-0.365246 -1.03822,-1.276387 -1.75,-1.75 -0.86457,-0.575278 -8.64107,-2.709829 -10.15625,-2.625 -1.51518,0.08483 -6.59375,1.9375 -6.59375,1.9375 m -2.4375,11.25 c 0.7143,1.592286 1.81391,3.077898 2.34375,3.5625 0.71888,0.657495 4.01426,2.087711 5.75,3.59375 2.97441,-1.588322 6.46186,-3.590471 10.6875,-3.65625 1.01999,-0.01588 1.32335,-0.945434 2.15625,-1.40625 0.8329,0.460816 1.13626,1.390371 2.15625,1.40625 4.22564,0.06578 7.71309,2.067928 10.6875,3.65625 1.73574,-1.506039 5.03112,-2.936255 5.75,-3.59375 0.52984,-0.484602 1.62945,-1.970214 2.34375,-3.5625"
         id="path4173"
         inkscape:connector-curvature="0"
         sodipodi:nodetypes="csscssccscscscsc" />
      <path
         style="fill:none;stroke:#000000;stroke-width:0.375;stroke-linecap:butt;stroke-linejoin:miter;stroke-miterlimit:4;stroke-opacity:1;stroke-dasharray:none"
         d="m 150.92233,39.861954 -0.43689,5.097087 c 0,0 4.34227,4.185171 4.95145,4.223301 0.60918,0.03813 2.12436,-0.466862 3.87543,-0.817055 3.19771,-0.639505 6.84227,-0.957393 7.87215,-2.289741 -2.0712,-1.466211 -4.1424,-1.983448 -6.2136,-2.572815 0,0 -2.91608,0.01615 -3.88349,-0.145631 -0.96741,-0.161784 -4.75728,-1.165049 -6.16505,-3.495146 z"
         id="path4187"
         inkscape:connector-curvature="0"
         sodipodi:nodetypes="cczscczc" />
      <path
         style="fill:none;stroke:#000000;stroke-width:0.375;stroke-linecap:butt;stroke-linejoin:miter;stroke-miterlimit:4;stroke-opacity:1;stroke-dasharray:none"
         d="m 167.13592,46.075546 4.41748,0.04854"
         id="path4189"
         inkscape:connector-curvature="0" />
      <path
         sodipodi:nodetypes="cczscczc"
         inkscape:connector-curvature="0"
         id="path4191"
         d="m 187.33984,39.861954 0.43689,5.097087 c 0,0 -4.34227,4.185171 -4.95145,4.223301 -0.60918,0.03813 -2.12436,-0.466862 -3.87543,-0.817055 -3.19771,-0.639505 -6.84227,-0.957393 -7.87215,-2.289741 2.0712,-1.466211 4.1424,-1.983448 6.2136,-2.572815 0,0 2.91608,0.01615 3.88349,-0.145631 0.96741,-0.161784 4.75728,-1.165049 6.16505,-3.495146 z"
         style="fill:none;stroke:#000000;stroke-width:0.375;stroke-linecap:butt;stroke-linejoin:miter;stroke-miterlimit:4;stroke-opacity:1;stroke-dasharray:none" />
      <path
         style="fill:none;stroke:#000000;stroke-width:0.375;stroke-linecap:butt;stroke-linejoin:miter;stroke-miterlimit:4;stroke-opacity:1;stroke-dasharray:none"
         d="m 166.00275,34.163805 0.3434,-2.335165"
         id="path4298"
         inkscape:connector-curvature="0"
         sodipodi:nodetypes="cc" />
      <path
         sodipodi:nodetypes="cc"
         inkscape:connector-curvature="0"
         id="path4300"
         d="m 172.18406,34.163805 -0.3434,-2.335165"
         style="fill:none;stroke:#000000;stroke-width:0.375;stroke-linecap:butt;stroke-linejoin:miter;stroke-miterlimit:4;stroke-opacity:1;stroke-dasharray:none" />
      <g
         id="g3991"
         mask="url(#mask4804)">
        <path
           style="fill:#86949f;fill-opacity:1;stroke:none"
           d="m 204.77167,59.129732 c 2.47996,0.813101 9.13985,1.794094 8.53756,4.085831 l -1.15867,1.585546 -8.63718,1.784192 1.25829,-7.455569 z"
           id="path4214"
           sodipodi:nodetypes="ccccc"
           inkscape:connector-curvature="0" />
        <path
           id="path4308"
           d="m 217.18457,31.932823 10.34375,7.53125 7.75,-2.40625 3.5625,-5.125 -21.65625,0 z"
           style="fill:#6d6e6c;fill-opacity:1;stroke:none;display:inline"
           inkscape:connector-curvature="0" />
        <g
           transform="matrix(-1,0,0,1,449.31016,0.240851)"
           id="g4298"
           style="fill:#86949f;fill-opacity:1;display:inline">
          <path
             sodipodi:nodetypes="cczcczc"
             id="path4300-5"
             d="m 202.90165,33.590348 c -0.99345,1.907069 -3.23835,15.373094 -3.02548,15.759871 0,0 6.61614,3.488438 9.16947,3.458657 2.47072,-0.02882 12.62812,-5.630372 12.62812,-5.630372 l -0.56304,-10.939007 c 0,0 -6.64601,-4.55055 -10.05424,-4.745599 -3.40822,-0.195049 -8.15483,2.09645 -8.15483,2.09645 z"
             style="fill:#86949f;fill-opacity:1;stroke:#000000;stroke-width:0.5;stroke-linecap:butt;stroke-linejoin:miter;stroke-miterlimit:4;stroke-opacity:1;stroke-dasharray:none;display:inline"
             inkscape:connector-curvature="0" />
          <path
             style="fill:#86949f;fill-opacity:1;stroke:#000000;stroke-width:0.5;stroke-linecap:butt;stroke-linejoin:miter;stroke-miterlimit:4;stroke-opacity:1;stroke-dasharray:none;display:inline"
             d="m 200.28152,46.738501 c 1.58041,0.787902 7.19448,3.595233 8.76412,3.576925 1.56964,-0.01831 3.4053,-0.02237 5.33244,-0.621547 0.76655,-0.238333 7.29568,-4.526222 7.29568,-4.526222 l -0.56304,-7.239049 c 0,0 -6.64601,-4.550549 -10.05424,-4.745599 -3.40822,-0.195049 -8.60642,2.171715 -8.60642,2.171715"
             id="path4302"
             sodipodi:nodetypes="czscczc"
             inkscape:connector-curvature="0" />
          <path
             sodipodi:nodetypes="cszczc"
             id="path4304"
             d="m 209.04564,50.315426 c 1.3091,0.111919 2.42346,-0.427968 3.57494,-0.659697 0.93093,-0.187343 4.91345,-4.364442 5.35322,-5.211977 0.43976,-0.847535 0.40216,-7.802086 0.40216,-7.802086 0,0 -3.91125,-3.263607 -7.31948,-3.458657 -3.40822,-0.195049 -8.60642,2.171715 -8.60642,2.171715"
             style="fill:#86949f;fill-opacity:1;stroke:#000000;stroke-width:0.5;stroke-linecap:butt;stroke-linejoin:miter;stroke-miterlimit:4;stroke-opacity:1;stroke-dasharray:none;display:inline"
             inkscape:connector-curvature="0" />
          <path
             sodipodi:nodetypes="cc"
             id="path4306"
             d="m 216.04338,46.535033 c -2.09943,-1.61252 -7.02388,-4.474926 -15.28243,-3.297789"
             style="fill:#86949f;fill-opacity:1;stroke:#000000;stroke-width:0.5;stroke-linecap:butt;stroke-linejoin:miter;stroke-miterlimit:4;stroke-opacity:1;stroke-dasharray:none"
             inkscape:connector-curvature="0" />
        </g>
        <g
           id="g4292"
           style="fill:#86949f;fill-opacity:1;display:inline"
           transform="translate(6.6977,0.240851)">
          <path
             style="fill:#86949f;fill-opacity:1;stroke:#000000;stroke-width:0.5;stroke-linecap:butt;stroke-linejoin:miter;stroke-miterlimit:4;stroke-opacity:1;stroke-dasharray:none;display:inline"
             d="m 203.23101,33.333206 c -0.32376,0.132099 -0.42996,1.033582 -0.75321,2.144129 -1.2537,4.307173 -2.60163,13.872884 -2.60163,13.872884 0,0 6.61614,3.488438 9.16947,3.458657 2.47072,-0.02882 12.62812,-5.630372 12.62812,-5.630372 l -0.56304,-10.939007 c 0,0 -7.04935,-4.573633 -10.05424,-4.745599 -3.00489,-0.171966 -6.24603,1.194875 -7.82547,1.839308 z"
             id="path4162-2"
             sodipodi:nodetypes="csczcczs"
             inkscape:connector-curvature="0" />
          <path
             sodipodi:nodetypes="czscczc"
             id="path4166"
             d="m 200.32392,46.759626 c 1.63792,0.815627 7.15842,3.574034 8.72172,3.5558 1.5633,-0.01823 3.4053,-0.02237 5.33244,-0.621547 0.76655,-0.238333 7.29568,-4.526222 7.29568,-4.526222 l -0.56304,-7.239049 c 0,0 -6.64601,-4.550549 -10.05424,-4.745599 -3.40822,-0.195049 -8.60642,2.171715 -8.60642,2.171715"
             style="fill:#86949f;fill-opacity:1;stroke:#000000;stroke-width:0.5;stroke-linecap:butt;stroke-linejoin:miter;stroke-miterlimit:4;stroke-opacity:1;stroke-dasharray:none;display:inline"
             inkscape:connector-curvature="0" />
          <path
             style="fill:#86949f;fill-opacity:1;stroke:#000000;stroke-width:0.5;stroke-linecap:butt;stroke-linejoin:miter;stroke-miterlimit:4;stroke-opacity:1;stroke-dasharray:none;display:inline"
             d="m 200.21851,46.707059 c 1.48445,0.741392 7.35592,3.625526 8.82713,3.608367 1.3091,0.111919 2.42346,-0.427968 3.57494,-0.659697 0.93093,-0.187343 4.91345,-4.364442 5.35322,-5.211977 0.43976,-0.847535 0.40216,-7.802086 0.40216,-7.802086 0,0 -3.91125,-3.263607 -7.31948,-3.458657 -3.40822,-0.195049 -8.60642,2.171715 -8.60642,2.171715"
             id="path4168-7"
             sodipodi:nodetypes="ccszczc"
             inkscape:connector-curvature="0" />
          <path
             style="fill:#86949f;fill-opacity:1;stroke:#000000;stroke-width:0.5;stroke-linecap:butt;stroke-linejoin:miter;stroke-miterlimit:4;stroke-opacity:1;stroke-dasharray:none"
             d="m 216.04338,46.535033 c -2.09943,-1.61252 -7.02388,-4.474926 -15.28243,-3.297789"
             id="path4170"
             sodipodi:nodetypes="cc"
             inkscape:connector-curvature="0" />
        </g>
        <path
           style="fill:#635f61;stroke:none"
           d="m 226.29851,55.104884 -14.02599,3.536987 -0.54884,-2.988144 10.8549,-2.62225 c 1.10552,-0.249223 3.20247,-1.537549 3.78091,-2.439302"
           id="path4216"
           sodipodi:nodetypes="ccccc"
           inkscape:connector-curvature="0" />
        <g
           transform="translate(6.69238,-0.43348685)"
           id="g4218"
           style="fill:#86949f;fill-opacity:1;stroke:none">
          <rect
             ry="1.4025986"
             transform="matrix(0.94319366,0.33224347,0,1,0,0)"
             y="-17.073469"
             x="212.20743"
             height="3.9028831"
             width="6.0776062"
             id="rect4220"
             style="fill:#86949f;fill-opacity:1;stroke:none" />
          <path
             id="path4222"
             transform="translate(142.76812,31.473222)"
             d="M 58.1875,22.34375 C 57.712364,22.38874 57.375,22.79222 57.375,23.375 l 0,0.6875 3.9375,1.4375 c 0.07948,0.02859 0.15625,-0.0093 0.15625,-0.09375 l 0,-2 -2.75,-0.96875 C 58.535525,22.37296 58.345879,22.328752 58.1875,22.34375 z"
             style="fill:#86949f;fill-opacity:1;stroke:none"
             inkscape:connector-curvature="0" />
        </g>
        <path
           sodipodi:nodetypes="ccccc"
           id="path4224"
           d="m 226.17655,62.849668 -14.02599,3.536987 -0.54884,-2.988144 10.85489,-2.62225 c 1.10552,-0.249223 3.20247,-1.537549 3.78092,-2.439302"
           style="fill:#635f61;stroke:none"
           inkscape:connector-curvature="0" />
        <path
           sodipodi:nodetypes="ccccc"
           id="path4205"
           d="m 204.77167,59.80407 c 2.47996,0.813101 9.13985,1.794094 8.53756,4.085831 l -1.15867,1.585546 -8.63718,1.784192 1.25829,-7.455569 z"
           style="fill:#86949f;fill-opacity:1;stroke:#000000;stroke-width:0.5;stroke-linecap:butt;stroke-linejoin:miter;stroke-miterlimit:4;stroke-opacity:1;stroke-dasharray:none"
           inkscape:connector-curvature="0" />
        <path
           style="fill:#86949f;fill-opacity:1;stroke:none"
           d="m 251.42925,59.381016 c -2.80833,0.782088 -8.46453,1.781961 -7.90625,3.90625 l 1.1875,1.5625 7.96875,1.65625 c -0.45577,-2.551657 -0.86961,-4.928423 -1.25,-7.125 z"
           id="path4200"
           inkscape:connector-curvature="0" />
        <path
           sodipodi:nodetypes="ccccc"
           id="path4202"
           d="m 230.54918,55.164915 14.02598,3.536987 0.54885,-2.988144 -10.8549,-2.62225 c -1.10552,-0.249223 -3.20247,-1.537549 -3.78091,-2.439302"
           style="fill:#635f61;stroke:none"
           inkscape:connector-curvature="0" />
        <g
           style="fill:#86949f;fill-opacity:1;stroke:none"
           id="g4204"
           transform="matrix(-1,0,0,1,450.15531,-0.37345644)">
          <rect
             style="fill:#86949f;fill-opacity:1;stroke:none"
             id="rect4206"
             width="6.0776062"
             height="3.9028831"
             x="212.20743"
             y="-17.073469"
             transform="matrix(0.94319366,0.33224347,0,1,0,0)"
             ry="1.4025986" />
          <path
             style="fill:#86949f;fill-opacity:1;stroke:none"
             d="M 58.1875,22.34375 C 57.712364,22.38874 57.375,22.79222 57.375,23.375 l 0,0.6875 3.9375,1.4375 c 0.07948,0.02859 0.15625,-0.0093 0.15625,-0.09375 l 0,-2 -2.75,-0.96875 C 58.535525,22.37296 58.345879,22.328752 58.1875,22.34375 z"
             transform="translate(142.76812,31.473222)"
             id="path4208"
             inkscape:connector-curvature="0" />
        </g>
        <path
           style="fill:#635f61;stroke:none"
           d="m 230.67114,62.909699 14.02599,3.536987 0.54884,-2.988144 -10.85489,-2.62225 c -1.10552,-0.249223 -3.20247,-1.537549 -3.78092,-2.439302"
           id="path4210"
           sodipodi:nodetypes="ccccc"
           inkscape:connector-curvature="0" />
        <path
           id="path4131"
           d="m 251.42925,59.995323 c -2.80833,0.782088 -8.46453,1.781961 -7.90625,3.90625 l 1.1875,1.5625 7.96875,1.65625 c -0.45577,-2.551657 -0.86961,-4.928423 -1.25,-7.125 z"
           style="fill:#86949f;fill-opacity:1;stroke:#000000;stroke-width:0.5;stroke-linecap:butt;stroke-linejoin:miter;stroke-miterlimit:4;stroke-opacity:1;stroke-dasharray:none"
           inkscape:connector-curvature="0" />
        <path
           style="fill:#6d6e6c;fill-opacity:1;stroke:#000000;stroke-width:0.5;stroke-linecap:butt;stroke-linejoin:miter;stroke-miterlimit:4;stroke-opacity:1;stroke-dasharray:none"
           d="m 230.54918,55.779222 14.02598,3.536987 0.54885,-2.988144 -10.8549,-2.62225 c -1.10552,-0.249223 -3.20247,-1.537549 -3.78091,-2.439302"
           id="path4133"
           sodipodi:nodetypes="ccccc"
           inkscape:connector-curvature="0" />
        <rect
           style="fill:#86949f;fill-opacity:1;stroke:#000000;stroke-width:0.51483679;stroke-miterlimit:4;stroke-opacity:1;stroke-dasharray:none"
           id="rect4137"
           width="6.0776062"
           height="3.9028831"
           x="-265.05969"
           y="141.73627"
           transform="matrix(-0.94319366,0.33224347,0,1,0,0)"
           ry="1.4025986" />
        <path
           inkscape:connector-curvature="0"
           style="fill:#86949f;fill-opacity:1;stroke:#000000;stroke-width:0.5;stroke-miterlimit:4;stroke-opacity:1;stroke-dasharray:none"
           d="m 249.19969,54.057823 c 0.47514,0.04499 0.8125,0.44847 0.8125,1.03125 l 0,0.6875 -3.9375,1.4375 c -0.0795,0.02859 -0.15625,-0.0093 -0.15625,-0.09375 l 0,-2 2.75,-0.96875 c 0.18322,-0.06454 0.37287,-0.108748 0.53125,-0.09375 z"
           id="path4139" />
        <path
           sodipodi:nodetypes="ccccc"
           id="path4141"
           d="m 230.67114,63.524006 14.02599,3.536987 0.54884,-2.988144 -10.85489,-2.62225 c -1.10552,-0.249223 -3.20247,-1.537549 -3.78092,-2.439302"
           style="fill:#6d6e6c;fill-opacity:1;stroke:#000000;stroke-width:0.5;stroke-linecap:butt;stroke-linejoin:miter;stroke-miterlimit:4;stroke-opacity:1;stroke-dasharray:none"
           inkscape:connector-curvature="0" />
        <path
           sodipodi:nodetypes="ccccc"
           id="path4209"
           d="m 226.29851,55.779222 -14.02599,3.536987 -0.54884,-2.988144 10.8549,-2.62225 c 1.10552,-0.249223 3.20247,-1.537549 3.78091,-2.439302"
           style="fill:#6d6e6c;fill-opacity:1;stroke:#000000;stroke-width:0.5;stroke-linecap:butt;stroke-linejoin:miter;stroke-miterlimit:4;stroke-opacity:1;stroke-dasharray:none"
           inkscape:connector-curvature="0" />
        <g
           transform="translate(6.69238,0.240851)"
           style="fill:#86949f;fill-opacity:1"
           id="g4116">
          <rect
             style="fill:#86949f;fill-opacity:1;stroke:#000000;stroke-width:0.51483679;stroke-miterlimit:4;stroke-opacity:1;stroke-dasharray:none"
             id="rect4198"
             width="6.0776062"
             height="3.9028831"
             x="212.20743"
             y="-17.073469"
             transform="matrix(0.94319366,0.33224347,0,1,0,0)"
             ry="1.4025986" />
          <path
             style="fill:#86949f;fill-opacity:1;stroke:#000000;stroke-width:0.5;stroke-miterlimit:4;stroke-opacity:1;stroke-dasharray:none"
             d="M 58.1875,22.34375 C 57.712364,22.38874 57.375,22.79222 57.375,23.375 l 0,0.6875 3.9375,1.4375 c 0.07948,0.02859 0.15625,-0.0093 0.15625,-0.09375 l 0,-2 -2.75,-0.96875 C 58.535525,22.37296 58.345879,22.328752 58.1875,22.34375 z"
             transform="translate(142.76812,31.473222)"
             id="rect4200"
             inkscape:connector-curvature="0" />
        </g>
        <path
           style="fill:#6d6e6c;fill-opacity:1;stroke:#000000;stroke-width:0.5;stroke-linecap:butt;stroke-linejoin:miter;stroke-miterlimit:4;stroke-opacity:1;stroke-dasharray:none"
           d="m 226.17655,63.524006 -14.02599,3.536987 -0.54884,-2.988144 10.85489,-2.62225 c 1.10552,-0.249223 3.20247,-1.537549 3.78092,-2.439302"
           id="path4211"
           sodipodi:nodetypes="ccccc"
           inkscape:connector-curvature="0" />
        <rect
           style="fill:#6d6e6c;fill-opacity:1;stroke:#000000;stroke-width:0.5;stroke-miterlimit:4;stroke-opacity:1;stroke-dasharray:none"
           id="rect4185"
           width="4.8033791"
           height="20.501022"
           x="225.69463"
           y="46.850258"
           ry="0.71446443" />
        <g
           style="fill:#86949f;fill-opacity:1"
           transform="translate(6.1219592,0.240851)"
           id="g4188">
          <rect
             style="fill:#86949f;fill-opacity:1;stroke:#000000;stroke-width:0.5;stroke-miterlimit:4;stroke-opacity:1;stroke-dasharray:none"
             id="rect4181"
             width="4.8033791"
             height="5.1500149"
             x="76.804543"
             y="27.119873"
             transform="translate(142.76812,31.473222)"
             ry="0.71446443" />
          <rect
             style="fill:#86949f;fill-opacity:1;stroke:#000000;stroke-width:0.5;stroke-miterlimit:4;stroke-opacity:1;stroke-dasharray:none"
             id="rect4183"
             width="2.3769298"
             height="1.6341393"
             x="78.042534"
             y="30.586229"
             transform="translate(142.76812,31.473222)"
             ry="0" />
        </g>
        <g
           style="fill:#86949f;fill-opacity:1"
           transform="translate(6.1219592,-7.4346517)"
           id="g4192">
          <rect
             ry="0.71446443"
             transform="translate(142.76812,31.473222)"
             y="27.119873"
             x="76.804543"
             height="5.1500149"
             width="4.8033791"
             id="rect4194"
             style="fill:#86949f;fill-opacity:1;stroke:#000000;stroke-width:0.5;stroke-miterlimit:4;stroke-opacity:1;stroke-dasharray:none" />
          <rect
             ry="0"
             transform="translate(142.76812,31.473222)"
             y="30.586229"
             x="78.042534"
             height="1.6341393"
             width="2.3769298"
             id="rect4196"
             style="fill:#86949f;fill-opacity:1;stroke:#000000;stroke-width:0.5;stroke-miterlimit:4;stroke-opacity:1;stroke-dasharray:none" />
        </g>
        <path
           inkscape:connector-curvature="0"
           id="path4172"
           d="m 228.08069,35.682823 c -0.15826,0 -0.31983,0.02478 -0.46875,0.0625 -0.13969,0.03745 -0.27693,0.08909 -0.40625,0.15625 -0.12899,0.0677 -0.25959,0.155244 -0.375,0.25 -0.37353,0.306666 -0.66811,0.729716 -0.84375,1.25 -0.11496,0.340523 -0.1875,0.730751 -0.1875,1.125 0,0.273244 0.0351,0.530963 0.0937,0.78125 0.004,0.01978 -0.005,0.0429 0,0.0625 0.0604,0.238737 0.14381,0.480017 0.25,0.6875 0.075,0.146487 0.18674,0.279214 0.28125,0.40625 0.0682,0.09045 0.14168,0.17122 0.21875,0.25 0.13443,0.138276 0.28043,0.276657 0.4375,0.375 l 0,6.5 c -0.83528,0.829858 -0.77329,2.825936 1,1.4375 1.79388,1.420949 1.86981,-0.604384 1.03125,-1.4375 l 0,-6.5 c 0.1589,-0.09737 0.30199,-0.236482 0.4375,-0.375 0.18757,-0.192931 0.36898,-0.400261 0.5,-0.65625 0.10619,-0.207483 0.18961,-0.448763 0.25,-0.6875 0.005,-0.01879 -0.004,-0.04355 0,-0.0625 0.0587,-0.250287 0.0937,-0.508006 0.0937,-0.78125 0,-0.394249 -0.0725,-0.784477 -0.1875,-1.125 -0.17565,-0.520284 -0.47023,-0.943334 -0.84375,-1.25 -0.23847,-0.197431 -0.49244,-0.32882 -0.78125,-0.40625 -0.01,-0.0025 -0.0215,0.0023 -0.0312,0 -0.14978,-0.03772 -0.3105,-0.0625 -0.46875,-0.0625 z"
           style="fill:#86949f;fill-opacity:1;stroke:#000000;stroke-width:0.5;stroke-linecap:butt;stroke-linejoin:miter;stroke-miterlimit:4;stroke-opacity:1;stroke-dasharray:none" />
        <path
           id="path4266"
           d="m 228.09631,32.156031 0,16.90545"
           style="fill:none;stroke:#000000;stroke-width:0.625;stroke-linecap:butt;stroke-linejoin:miter;stroke-miterlimit:4;stroke-opacity:1;stroke-dasharray:none;display:inline"
           inkscape:connector-curvature="0" />
      </g>
    </g>
    <g
       inkscape:groupmode="layer"
       id="layer37"
       inkscape:label="logo"
       style="display:inline">
      <path
         sodipodi:nodetypes="ccccccsccccccc"
         inkscape:connector-curvature="0"
         id="path4290"
         d="m 178.9375,42.586265 c -1.3492,-2.67996 0.74201,-4.914228 3.4375,-5.9375 l -8.625,0 c -0.0582,2.24229 -0.97521,3.434652 -3.25,2.90625 l 0,-1.65625 c -0.2848,0.583549 -0.54301,0.714155 -1.21875,0.75 -0.0123,-5.81e-4 -0.0192,6.42e-4 -0.0312,0 -0.67401,-0.03603 -0.93428,-0.167118 -1.21875,-0.75 l 0,1.65625 c -2.27479,0.528402 -3.16055,-0.66396 -3.21875,-2.90625 l -8.625,0 c 2.69549,1.023272 4.7867,3.25754 3.4375,5.9375 7.03311,-0.189758 9.25457,3.262526 9.65625,3.9375 0.40168,-0.674974 2.62314,-4.127258 9.65625,-3.9375 z"
         style="fill:#000000;fill-opacity:1;stroke:none" />
      <path
         style="fill:#1b2a34;stroke:none"
         d="m 178.9375,41.75 c -1.3492,-2.67996 0.74201,-4.914228 3.4375,-5.9375 l -8.625,0 c -0.0582,2.24229 -0.97521,3.434652 -3.25,2.90625 l 0,-1.65625 c -0.2848,0.583549 -0.54301,0.714155 -1.21875,0.75 -0.0123,-5.81e-4 -0.0192,6.42e-4 -0.0312,0 -0.67401,-0.03603 -0.93428,-0.167118 -1.21875,-0.75 l 0,1.65625 c -2.27479,0.528402 -3.16055,-0.66396 -3.21875,-2.90625 l -8.625,0 c 2.69549,1.023272 4.7867,3.25754 3.4375,5.9375 7.03311,-0.189758 9.25457,3.262526 9.65625,3.9375 0.40168,-0.674974 2.62314,-4.127258 9.65625,-3.9375 z"
         id="path4284"
         inkscape:connector-curvature="0"
         sodipodi:nodetypes="ccccccsccccccc" />
    </g>
    <g
       inkscape:groupmode="layer"
       id="layer33"
       inkscape:label="belt#1"
       style="display:inline">
      <g
         inkscape:groupmode="layer"
         id="layer35"
         inkscape:label="colors"
         style="display:inline">
        <path
           style="font-size:medium;font-style:normal;font-variant:normal;font-weight:normal;font-stretch:normal;text-indent:0;text-align:start;text-decoration:none;line-height:normal;letter-spacing:normal;word-spacing:normal;text-transform:none;direction:ltr;block-progression:tb;writing-mode:lr-tb;text-anchor:start;baseline-shift:baseline;color:#000000;fill:#e8ab2d;fill-opacity:1;stroke:none;stroke-width:0.5;marker:none;visibility:visible;display:inline;overflow:visible;enable-background:accumulate;font-family:Sans;-inkscape-font-specification:Sans"
           d="m 148.25,61.71875 c -0.24179,-0.02607 -0.44506,0.06259 -0.59375,0.21875 -0.14869,0.156157 -0.24373,0.370182 -0.25,0.59375 L 147.375,64.0625 146.21875,64 c -0.0104,-8.69e-4 -0.0209,-8.69e-4 -0.0312,0 -0.0104,-8.69e-4 -0.0209,-8.69e-4 -0.0312,0 -0.0116,0.0091 -0.0221,0.01965 -0.0312,0.03125 -0.0116,0.0091 -0.0221,0.01965 -0.0312,0.03125 -0.0116,0.0091 -0.0221,0.01965 -0.0312,0.03125 -8.7e-4,0.01039 -8.7e-4,0.02086 0,0.03125 -0.009,-0.0031 -0.0223,0.0031 -0.0312,0 -0.15605,-0.05206 -0.31135,-0.10536 -0.46875,-0.15625 l -0.3125,-0.125 0,0.34375 -0.3125,8.6875 0,0.21875 0.21875,0.03125 c 0.21305,0.02144 0.41751,0.04805 0.625,0.0625 l 0,0.25 c -8.7e-4,0.01039 -8.7e-4,0.02086 0,0.03125 -8.7e-4,0.01039 -8.7e-4,0.02086 0,0.03125 -8.7e-4,0.01039 -8.7e-4,0.02086 0,0.03125 0.009,0.0116 0.0197,0.02211 0.0312,0.03125 0.009,0.0116 0.0197,0.02211 0.0312,0.03125 0.009,0.0116 0.0197,0.02211 0.0312,0.03125 0.0104,8.69e-4 0.0209,8.69e-4 0.0312,0 0.0104,8.69e-4 0.0209,8.69e-4 0.0312,0 0.0104,8.69e-4 0.0209,8.69e-4 0.0312,0 L 147.5,73.6875 c 0.12002,0.07823 0.25805,0.144264 0.40625,0.15625 l 2.71875,0.21875 c 0.23864,0.0193 0.44404,-0.06666 0.59375,-0.21875 L 155.5625,74 c 0.0104,8.69e-4 0.0209,8.69e-4 0.0312,0 0.0104,8.69e-4 0.0209,8.69e-4 0.0312,0 0.0116,-0.0091 0.0221,-0.01965 0.0312,-0.03125 0.0104,8.69e-4 0.0209,8.69e-4 0.0312,0 0.0116,-0.0091 0.0221,-0.01965 0.0312,-0.03125 0.0116,-0.0091 0.0221,-0.01965 0.0312,-0.03125 8.7e-4,-0.01039 8.7e-4,-0.02086 0,-0.03125 0.0116,-0.0091 0.0221,-0.01965 0.0312,-0.03125 8.7e-4,-0.01039 8.7e-4,-0.02086 0,-0.03125 l 0,-0.875 c 0.63432,-0.05199 1.2507,-0.12061 1.84375,-0.15625 l 0.0937,1.1875 0.0312,0.21875 0.1875,-0.0625 c 1.14587,-0.27648 2.31592,-0.35259 3.46875,-0.3125 1.63619,0.0569 3.21545,0.791323 5.0625,0.6875 l 0.1875,0 0,-0.1875 0,-0.78125 0,-0.0625 4.5625,0 0,0.0625 0,0.78125 0,0.1875 0.1875,0 c 1.84705,0.103823 3.42631,-0.630601 5.0625,-0.6875 1.15283,-0.04009 2.32288,0.03602 3.46875,0.3125 l 0.1875,0.0625 0.0312,-0.21875 c -0.12858,-1.586821 0.83355,-1.132262 1.9375,-1.03125 l 0,0.875 c -8.7e-4,0.01039 -8.7e-4,0.02086 0,0.03125 0.009,0.0116 0.0197,0.02211 0.0312,0.03125 -8.7e-4,0.01039 -8.7e-4,0.02086 0,0.03125 0.009,0.0116 0.0197,0.02211 0.0312,0.03125 0.009,0.0116 0.0197,0.02211 0.0312,0.03125 0.0104,8.69e-4 0.0209,8.69e-4 0.0312,0 0.0186,0.0142 0.04,0.02486 0.0625,0.03125 0.0104,8.69e-4 0.0209,8.69e-4 0.0312,0 l 9.59375,-0.375 c 0.0104,8.69e-4 0.0209,8.69e-4 0.0312,0 0.0104,8.69e-4 0.0209,8.69e-4 0.0312,0 0.0104,8.69e-4 0.0209,8.69e-4 0.0312,0 0.0116,-0.0091 0.0221,-0.01965 0.0312,-0.03125 0.0116,-0.0091 0.0221,-0.01965 0.0312,-0.03125 0.0142,-0.01864 0.0249,-0.03996 0.0312,-0.0625 8.7e-4,-0.01039 8.7e-4,-0.02086 0,-0.03125 8.7e-4,-0.01039 8.7e-4,-0.02086 0,-0.03125 l 0,-0.25 c 0.20749,-0.01445 0.41195,-0.04106 0.625,-0.0625 l 0.21875,-0.03125 0,-0.21875 -0.3125,-8.6875 0,-0.34375 -0.3125,0.125 c -0.1574,0.05089 -0.3127,0.104187 -0.46875,0.15625 -0.009,0.0031 -0.0219,-0.0031 -0.0312,0 8.7e-4,-0.01039 8.7e-4,-0.02086 0,-0.03125 -0.009,-0.0116 -0.0197,-0.02211 -0.0312,-0.03125 -0.009,-0.0116 -0.0197,-0.02211 -0.0312,-0.03125 -0.0186,-0.0142 -0.04,-0.02486 -0.0625,-0.03125 -0.0104,-8.69e-4 -0.0209,-8.69e-4 -0.0312,0 l -8.875,0.4375 c -0.0104,-8.69e-4 -0.0209,-8.69e-4 -0.0312,0 -0.19102,0.01901 -0.34099,0.02852 -0.5,0.09375 -0.15901,0.06523 -0.28986,0.184608 -0.375,0.375 -0.10367,0.231829 -0.16717,0.627311 -0.21875,1.125 -0.49822,0.04525 -0.99943,0.09301 -1.5,0.125 L 180.25,65 l 0.0312,-0.25 -0.25,0.03125 c -3.17236,0.520542 -3.95213,-0.360517 -5.75,-1.03125 l -0.15625,-0.0625 -0.0625,0.15625 -0.75,1.71875 c -1.28432,-0.202615 -2.63912,-0.3242 -4.03125,-0.34375 -1.566,-0.02199 -3.15686,0.09055 -4.71875,0.34375 l -0.75,-1.71875 -0.0625,-0.15625 -0.15625,0.0625 c -1.79787,0.670733 -2.57764,1.551792 -5.75,1.03125 l -0.25,-0.03125 0.0312,0.25 0.0937,1.15625 c -0.50057,-0.03199 -1.00178,-0.07975 -1.5,-0.125 -0.0516,-0.497689 -0.11508,-0.893171 -0.21875,-1.125 -0.0851,-0.190392 -0.21599,-0.30977 -0.375,-0.375 -0.15901,-0.06523 -0.30898,-0.07474 -0.5,-0.09375 -0.0104,-8.69e-4 -0.0209,-8.69e-4 -0.0312,0 l -3.375,-0.1875 0.0312,-1.40625 C 151.76285,62.379761 151.38804,62.045227 150.9686,62 z"
           id="path4111"
           inkscape:connector-curvature="0"
           sodipodi:nodetypes="csccccccccccccccccccccccccccccccccccccccccccccccsccccccccccsccccccccccccccccccccccccccccccccccccccsscccccccccscccccccccsscccccc" />
      </g>
      <g
         inkscape:groupmode="layer"
         id="layer34"
         inkscape:label="lines"
         style="display:inline">
        <path
           style="font-size:medium;font-style:normal;font-variant:normal;font-weight:normal;font-stretch:normal;text-indent:0;text-align:start;text-decoration:none;line-height:normal;letter-spacing:normal;word-spacing:normal;text-transform:none;direction:ltr;block-progression:tb;writing-mode:lr-tb;text-anchor:start;baseline-shift:baseline;color:#000000;fill:#1b2a34;fill-opacity:1;stroke:none;stroke-width:0.5;marker:none;visibility:visible;display:inline;overflow:visible;enable-background:accumulate;font-family:Sans;-inkscape-font-specification:Sans"
           d="m 174.125,63.6875 -0.0625,0.15625 -0.78125,1.78125 -0.0937,0.1875 0.21875,0.0625 c 0.65984,0.182732 1.23849,0.271695 1.65625,0.375 0.20888,0.05165 0.35821,0.117455 0.46875,0.1875 0.11054,0.07004 0.18774,0.137933 0.21875,0.25 0.17559,0.634555 0.20892,1.67046 0.125,2.625 -0.0839,0.95454 -0.32409,1.839744 -0.59375,2.15625 -0.37148,0.436008 -0.61842,0.698868 -1,0.9375 -0.307,9.15e-4 -0.6006,-6.22e-4 -0.90625,0 l -0.28125,0.53125 c -0.43581,0.131544 -0.99536,0.253396 -1.71875,0.40625 l -0.15625,0.03125 0,0.15625 0,0.78125 0,0.1875 0.1875,0 c 1.84705,0.103823 3.42631,-0.630601 5.0625,-0.6875 1.15283,-0.04009 2.32288,0.03602 3.46875,0.3125 l 0.1875,0.0625 0.0312,-0.21875 0.0937,-1.1875 c 0.59305,0.03564 1.20943,0.104256 1.84375,0.15625 l 0,0.875 a 0.18751875,0.18751875 0 0 0 0,0.03125 0.18751875,0.18751875 0 0 0 0.0312,0.03125 0.18751875,0.18751875 0 0 0 0,0.03125 0.18751875,0.18751875 0 0 0 0.0312,0.03125 0.18751875,0.18751875 0 0 0 0.0312,0.03125 0.18751875,0.18751875 0 0 0 0.0312,0 0.18751875,0.18751875 0 0 0 0.0625,0.03125 0.18751875,0.18751875 0 0 0 0.0312,0 l 9.59375,-0.375 a 0.18751875,0.18751875 0 0 0 0.0312,0 0.18751875,0.18751875 0 0 0 0.0312,0 0.18751875,0.18751875 0 0 0 0.0312,0 0.18751875,0.18751875 0 0 0 0.0312,-0.03125 0.18751875,0.18751875 0 0 0 0.0312,-0.03125 0.18751875,0.18751875 0 0 0 0.0312,-0.0625 0.18751875,0.18751875 0 0 0 0,-0.03125 0.18751875,0.18751875 0 0 0 0,-0.03125 l 0,-0.25 c 0.20749,-0.01445 0.41195,-0.04106 0.625,-0.0625 l 0.21875,-0.03125 0,-0.21875 -0.3125,-8.6875 0,-0.34375 -0.3125,0.125 c -0.1574,0.05089 -0.3127,0.104187 -0.46875,0.15625 -0.009,0.0031 -0.0219,-0.0031 -0.0312,0 a 0.18751875,0.18751875 0 0 0 0,-0.03125 0.18751875,0.18751875 0 0 0 -0.0312,-0.03125 A 0.18751875,0.18751875 0 0 0 191.75,64.03125 0.18751875,0.18751875 0 0 0 191.6875,64 a 0.18751875,0.18751875 0 0 0 -0.0312,0 l -8.875,0.4375 a 0.18751875,0.18751875 0 0 0 -0.0312,0 c -0.19102,0.01901 -0.34099,0.02852 -0.5,0.09375 -0.15901,0.06523 -0.28986,0.184608 -0.375,0.375 -0.10367,0.231829 -0.16717,0.627311 -0.21875,1.125 -0.49822,0.04525 -0.99943,0.09301 -1.5,0.125 L 180.25,65 l 0.0312,-0.25 -0.25,0.03125 c -3.17236,0.520542 -3.95213,-0.360517 -5.75,-1.03125 l -0.1562,-0.0625 z m 0.21875,0.46875 c 1.55945,0.619188 2.63371,1.413286 5.53125,1 l -0.0937,1 c -0.91691,0.09359 -1.49538,0.640806 -1.75,1.3125 -0.27532,0.7263 -0.28291,1.537041 -0.25,2 0.043,0.60426 0.0906,1.429243 0.375,2.125 0.26284,0.643096 0.81179,1.121842 1.71875,1.21875 l -0.0937,0.90625 c -1.11151,-0.244568 -2.20727,-0.319686 -3.3125,-0.28125 -1.68139,0.05847 -3.20526,0.702271 -4.875,0.65625 l 0,-0.40625 c 1.31437,-0.284366 2.1537,-0.529909 2.6875,-0.8125 0.56397,-0.298563 0.85102,-0.651278 1.28125,-1.15625 0.40138,-0.471109 0.60052,-1.385689 0.6875,-2.375 0.087,-0.989311 0.0417,-2.034771 -0.15625,-2.75 -0.0563,-0.203289 -0.17535,-0.362043 -0.34375,-0.46875 -0.1684,-0.106707 -0.36685,-0.193892 -0.59375,-0.25 -0.39463,-0.09759 -0.9046,-0.181902 -1.4375,-0.3125 l 0.625,-1.40625 z m 17.125,0.21875 0,2.25 -4.875,0.1875 0,-2.1875 4.875,-0.25 z m 0.65625,0.15625 0.3125,8.09375 c -0.11066,0.01104 -0.22482,-0.01341 -0.34375,-0.0625 l 0,-1.40625 a 0.18751875,0.18751875 0 0 0 0,-0.03125 0.18751875,0.18751875 0 0 0 0,-0.03125 0.18751875,0.18751875 0 0 0 -0.0312,-0.03125 0.18751875,0.18751875 0 0 0 -0.0312,-0.03125 A 0.18751875,0.18751875 0 0 0 192,71 a 0.18751875,0.18751875 0 0 0 -0.0625,-0.03125 0.18751875,0.18751875 0 0 0 -0.0312,0 l -1.625,0.0625 0.0625,-4 L 191.65625,67 a 0.18751875,0.18751875 0 0 0 0.0312,0 0.18751875,0.18751875 0 0 0 0.0312,-0.03125 0.18751875,0.18751875 0 0 0 0.0312,0 0.18751875,0.18751875 0 0 0 0.0312,-0.03125 0.18751875,0.18751875 0 0 0 0.0312,-0.03125 0.18751875,0.18751875 0 0 0 0.0312,-0.0625 0.18751875,0.18751875 0 0 0 0,-0.03125 l 0,-2.21875 c 0.093,-0.02308 0.18921,-0.0336 0.28125,-0.0625 z m -5.84375,0.09375 0,2.1875 -4.3125,0.15625 c 0.0762,-0.99715 0.14721,-1.676393 0.25,-1.90625 0.0573,-0.128137 0.10676,-0.154375 0.1875,-0.1875 0.0747,-0.03064 0.20518,-0.04502 0.375,-0.0625 l 0.0312,0 3.46875,-0.1875 z M 181.625,66.5 c -0.0182,0.223891 -0.0429,0.372735 -0.0625,0.65625 a 0.18751875,0.18751875 0 0 0 0,0.03125 0.18751875,0.18751875 0 0 0 0,0.03125 0.18751875,0.18751875 0 0 0 0,0.03125 0.18751875,0.18751875 0 0 0 0.0312,0.03125 0.18751875,0.18751875 0 0 0 0.0312,0.03125 0.18751875,0.18751875 0 0 0 0.0625,0.03125 0.18751875,0.18751875 0 0 0 0.0312,0 0.18751875,0.18751875 0 0 0 0.0312,0 l 0.9375,-0.03125 0,4.0625 -0.4375,0.03125 a 0.18751875,0.18751875 0 0 0 -0.0312,0 0.18751875,0.18751875 0 0 0 -0.0312,0 0.18751875,0.18751875 0 0 0 -0.0312,0.03125 0.18751875,0.18751875 0 0 0 -0.0312,0.03125 0.18751875,0.18751875 0 0 0 -0.0312,0.03125 0.18751875,0.18751875 0 0 0 0,0.03125 0.18751875,0.18751875 0 0 0 -0.0312,0.0625 l 0,0.71875 c -0.86504,0.186265 -1.88239,0.01831 -2.78125,0 -0.38116,-0.183918 -0.62215,-0.485731 -0.78125,-0.875 -0.24749,-0.60553 -0.30001,-1.38482 -0.34375,-2 -0.0305,-0.429743 -0.0229,-1.206349 0.21875,-1.84375 0.14528,-0.383255 0.37081,-0.705242 0.71875,-0.90625 0.84588,-0.04826 1.68954,-0.114263 2.53125,-0.1875 z m 8.34375,0.5625 -0.0625,4 -2.1875,0.09375 0.0625,-4.03125 2.1875,-0.0625 z m -2.5625,0.09375 -0.0625,4.03125 -2.03125,0.09375 0.0937,-4.0625 2,-0.0625 z m -2.375,0.0625 -0.0937,4.0625 -1.875,0.09375 0,-4.0625 1.96875,-0.09375 z m -4.8125,1.125 c -0.52607,0 -0.96875,0.458654 -0.96875,1 0,0.541345 0.44268,0.96875 0.96875,0.96875 0.52606,0 0.9375,-0.427402 0.9375,-0.96875 0,-0.541349 -0.41144,-1 -0.9375,-1 z m 0,0.375 c 0.30942,0 0.5625,0.273243 0.5625,0.625 0,0.351756 -0.25308,0.59375 -0.5625,0.59375 -0.30943,0 -0.59375,-0.241991 -0.59375,-0.59375 0,-0.35176 0.28432,-0.625 0.59375,-0.625 z m 11.5,2.625 0,1.90625 -4.65625,0.1875 0,-1.875 4.65625,-0.21875 z m -4.96875,0.21875 0,1.875 -4.28125,0.1875 -0.0312,-1.84375 4.3125,-0.21875 z"
           id="path3280"
           inkscape:connector-curvature="0" />
        <path
           style="fill:none;stroke:#1b2a34;stroke-width:0.5;stroke-linecap:round;stroke-linejoin:miter;stroke-miterlimit:4;stroke-opacity:1;stroke-dasharray:none"
           d="m 169.28125,65.21875 c -1.566,-0.02199 -3.15686,0.09055 -4.71875,0.34375 l 0.0312,0.0625 0.0937,0.1875 -0.21875,0.0625 c -0.65984,0.182732 -1.23849,0.271695 -1.65625,0.375 -0.20888,0.05165 -0.35821,0.117455 -0.46875,0.1875 -0.11054,0.07004 -0.18774,0.137933 -0.21875,0.25 -0.0836,0.302203 -0.13446,0.692879 -0.15625,1.125 l 2.90625,5.15625 c 0.42466,0.123312 0.94192,0.230664 1.625,0.375 l 0.15625,0.03125 0,0.09375 5,0 c 0.5084,-0.111038 0.95999,-0.213168 1.3125,-0.3125 L 176.0625,67.625 c -0.0298,-0.36878 -0.0487,-0.724096 -0.125,-1 -0.17453,-0.630713 -1.21007,-0.549023 -2.5,-0.90625 l 0.0625,-0.125 c -1.3383,-0.220233 -2.75995,-0.354514 -4.21875,-0.375 z"
           id="rect4121"
           inkscape:connector-curvature="0"
           sodipodi:nodetypes="sccccccsccccccccsccs" />
        <path
           style="font-size:medium;font-style:normal;font-variant:normal;font-weight:normal;font-stretch:normal;text-indent:0;text-align:start;text-decoration:none;line-height:normal;letter-spacing:normal;word-spacing:normal;text-transform:none;direction:ltr;block-progression:tb;writing-mode:lr-tb;text-anchor:start;baseline-shift:baseline;color:#000000;fill:#1b2a34;fill-opacity:1;stroke:none;stroke-width:0.5;marker:none;visibility:visible;display:inline;overflow:visible;enable-background:accumulate;font-family:Sans;-inkscape-font-specification:Sans"
           d="m 148.25,61.71875 c -0.24179,-0.02607 -0.44506,0.06259 -0.59375,0.21875 -0.14869,0.156157 -0.24373,0.370182 -0.25,0.59375 L 147.375,64.0625 146.21875,64 a 0.18751875,0.18751875 0 0 0 -0.0312,0 0.18751875,0.18751875 0 0 0 -0.0312,0 0.18751875,0.18751875 0 0 0 -0.0312,0.03125 0.18751875,0.18751875 0 0 0 -0.0312,0.03125 0.18751875,0.18751875 0 0 0 -0.0312,0.03125 0.18751875,0.18751875 0 0 0 0,0.03125 c -0.009,-0.0031 -0.0223,0.0031 -0.0312,0 -0.15605,-0.05206 -0.31135,-0.10536 -0.46875,-0.15625 l -0.3125,-0.125 0,0.34375 -0.3125,8.6875 0,0.21875 0.21875,0.03125 c 0.21305,0.02144 0.41751,0.04805 0.625,0.0625 l 0,0.25 a 0.18751875,0.18751875 0 0 0 0,0.03125 0.18751875,0.18751875 0 0 0 0,0.03125 0.18751875,0.18751875 0 0 0 0,0.03125 0.18751875,0.18751875 0 0 0 0.0312,0.03125 0.18751875,0.18751875 0 0 0 0.0312,0.03125 0.18751875,0.18751875 0 0 0 0.0312,0.03125 0.18751875,0.18751875 0 0 0 0.0312,0 0.18751875,0.18751875 0 0 0 0.0312,0 0.18751875,0.18751875 0 0 0 0.0312,0 L 147.5,73.6875 c 0.12002,0.07823 0.25805,0.144264 0.40625,0.15625 l 2.71875,0.21875 c 0.23864,0.0193 0.44404,-0.06666 0.59375,-0.21875 L 155.5625,74 a 0.18751875,0.18751875 0 0 0 0.0312,0 0.18751875,0.18751875 0 0 0 0.0312,0 0.18751875,0.18751875 0 0 0 0.0312,-0.03125 0.18751875,0.18751875 0 0 0 0.0312,0 0.18751875,0.18751875 0 0 0 0.0312,-0.03125 0.18751875,0.18751875 0 0 0 0.0312,-0.03125 0.18751875,0.18751875 0 0 0 0,-0.03125 0.18751875,0.18751875 0 0 0 0.0312,-0.03125 0.18751875,0.18751875 0 0 0 0,-0.03125 l 0,-0.875 c 0.63432,-0.05199 1.2507,-0.12061 1.84375,-0.15625 l 0.0937,1.1875 0.0312,0.21875 0.1875,-0.0625 c 1.14587,-0.27648 2.31592,-0.35259 3.46875,-0.3125 1.63619,0.0569 3.21545,0.791323 5.0625,0.6875 l 0.1875,0 0,-0.1875 0,-0.78125 0,-0.15625 -0.1558,-0.03125 c -0.72339,-0.152854 -1.28294,-0.274706 -1.71875,-0.40625 L 164.5,72.40625 c -0.30565,-6.22e-4 -0.59925,9.15e-4 -0.90625,0 -0.38158,-0.238632 -0.62852,-0.501492 -1,-0.9375 C 162.32409,71.152244 162.0839,70.26704 162,69.3125 c -0.0839,-0.95454 -0.0506,-1.990445 0.125,-2.625 0.031,-0.112067 0.10821,-0.17996 0.21875,-0.25 0.11054,-0.07004 0.25987,-0.13585 0.46875,-0.1875 0.41776,-0.103305 0.99641,-0.192268 1.65625,-0.375 l 0.21875,-0.0625 -0.0937,-0.1875 -0.78125,-1.78125 -0.0625,-0.15625 -0.15625,0.0625 c -1.79787,0.670733 -2.57764,1.551792 -5.75,1.03125 l -0.25,-0.03125 0.0312,0.25 0.0937,1.15625 c -0.50057,-0.03199 -1.00178,-0.07975 -1.5,-0.125 -0.0516,-0.497689 -0.11508,-0.893171 -0.21875,-1.125 -0.0851,-0.190392 -0.21599,-0.30977 -0.375,-0.375 -0.15901,-0.06523 -0.30898,-0.07474 -0.5,-0.09375 a 0.18751875,0.18751875 0 0 0 -0.0312,0 l -3.375,-0.1875 0.0312,-1.40625 C 151.76301,62.379761 151.38819,62.045227 150.96875,62 L 148.25,61.71875 z m -0.15625,0.5 c 0.0376,-0.0089 0.0862,-0.0042 0.125,0 l 2.6875,0.28125 c 0.21918,0.02363 0.34874,0.134423 0.34375,0.3125 l -0.28125,10.40625 c -0.005,0.195226 -0.14956,0.356929 -0.3125,0.34375 l -2.6875,-0.21875 c -0.21129,-0.01709 -0.37996,-0.134068 -0.375,-0.3125 l 0.3125,-10.5 c 0.003,-0.09747 0.0348,-0.187952 0.0937,-0.25 0.0296,-0.03102 0.0561,-0.05359 0.0937,-0.0625 z M 149.5,63.8125 c -0.5814,0 -1.03125,0.521828 -1.03125,1.125 0,0.603172 0.44985,1.125 1.03125,1.125 0.5814,0 1.03125,-0.521831 1.03125,-1.125 0,-0.603169 -0.44985,-1.125 -1.03125,-1.125 z m 14.03125,0.34375 0.625,1.40625 c -0.5329,0.130598 -1.04287,0.21491 -1.4375,0.3125 -0.2269,0.05611 -0.42535,0.143293 -0.59375,0.25 -0.1684,0.106707 -0.28745,0.265461 -0.34375,0.46875 -0.19795,0.715229 -0.24325,1.760689 -0.15625,2.75 0.087,0.989311 0.28612,1.903891 0.6875,2.375 0.43023,0.504972 0.71728,0.857687 1.28125,1.15625 0.5338,0.282591 1.37313,0.528134 2.6875,0.8125 l 0,0.40625 c -1.66974,0.04602 -3.19361,-0.59778 -4.875,-0.65625 -1.10523,-0.03844 -2.20099,0.03668 -3.3125,0.28125 L 158,72.8125 c 0.90696,-0.09691 1.45591,-0.575654 1.71875,-1.21875 0.2844,-0.695757 0.332,-1.52074 0.375,-2.125 0.0329,-0.462959 0.0253,-1.2737 -0.25,-2 -0.25462,-0.671694 -0.83309,-1.21891 -1.75,-1.3125 l -0.0937,-1 c 2.89754,0.413286 3.9718,-0.380812 5.53125,-1 z M 149.5,64.3125 c 0.2774,0 0.53125,0.262023 0.53125,0.625 0,0.362977 -0.25385,0.625 -0.53125,0.625 -0.2774,0 -0.53125,-0.262026 -0.53125,-0.625 0,-0.362974 0.25385,-0.625 0.53125,-0.625 z m -3.09375,0.0625 0.9375,0.0625 -0.0625,2.21875 -0.875,-0.03125 0,-2.25 z M 145.75,64.53125 c 0.092,0.0289 0.18825,0.03942 0.28125,0.0625 l 0,2.21875 a 0.18751875,0.18751875 0 0 0 0,0.03125 0.18751875,0.18751875 0 0 0 0,0.03125 0.18751875,0.18751875 0 0 0 0.0312,0.03125 0.18751875,0.18751875 0 0 0 0.0312,0.03125 0.18751875,0.18751875 0 0 0 0.0312,0.03125 0.18751875,0.18751875 0 0 0 0.0312,0 0.18751875,0.18751875 0 0 0 0.0312,0.03125 0.18751875,0.18751875 0 0 0 0.0312,0 l 1.0625,0.03125 -0.0937,4 -1.21875,-0.0625 a 0.18751875,0.18751875 0 0 0 -0.0312,0 0.18751875,0.18751875 0 0 0 -0.0312,0 A 0.18751875,0.18751875 0 0 0 145.875,71 a 0.18751875,0.18751875 0 0 0 -0.0312,0.03125 0.18751875,0.18751875 0 0 0 -0.0312,0.03125 0.18751875,0.18751875 0 0 0 -0.0312,0.03125 0.18751875,0.18751875 0 0 0 0,0.03125 0.18751875,0.18751875 0 0 0 0,0.03125 l 0,1.40625 c -0.11893,0.04909 -0.23309,0.07354 -0.34375,0.0625 l 0.3125,-8.09375 z m 5.9375,0.09375 3.375,0.1875 0.0312,0 c 0.16982,0.01748 0.3003,0.03186 0.375,0.0625 0.0807,0.03312 0.1302,0.05936 0.1875,0.1875 0.10279,0.229857 0.1738,0.9091 0.25,1.90625 l -4.25,-0.15625 0.0312,-2.1875 z M 156.25,66.5 c 0.84171,0.07324 1.68537,0.13924 2.53125,0.1875 0.34794,0.201008 0.57347,0.522995 0.71875,0.90625 0.24165,0.637401 0.24925,1.414007 0.21875,1.84375 -0.0437,0.61518 -0.0963,1.39447 -0.34375,2 -0.1591,0.389269 -0.40009,0.691082 -0.78125,0.875 -0.89886,0.01831 -1.91621,0.186265 -2.78125,0 l 0,-0.71875 a 0.18751875,0.18751875 0 0 0 0,-0.03125 0.18751875,0.18751875 0 0 0 -0.0312,-0.03125 0.18751875,0.18751875 0 0 0 0,-0.03125 0.18751875,0.18751875 0 0 0 -0.0312,-0.03125 0.18751875,0.18751875 0 0 0 -0.0312,-0.03125 0.18751875,0.18751875 0 0 0 -0.0312,-0.03125 0.18751875,0.18751875 0 0 0 -0.0312,0 0.18751875,0.18751875 0 0 0 -0.0312,0 l -0.4375,-0.03125 0,-4.0625 0.9375,0.03125 a 0.18751875,0.18751875 0 0 0 0.0312,0 0.18751875,0.18751875 0 0 0 0.0312,0 0.18751875,0.18751875 0 0 0 0.0312,0 0.18751875,0.18751875 0 0 0 0.0312,-0.03125 0.18751875,0.18751875 0 0 0 0.0312,-0.03125 0.18751875,0.18751875 0 0 0 0.0312,-0.03125 0.18751875,0.18751875 0 0 0 0,-0.03125 0.18751875,0.18751875 0 0 0 0,-0.03125 0.18751875,0.18751875 0 0 0 0,-0.03125 C 156.2929,66.872735 156.2682,66.723891 156.25,66.5 z m -4.625,0.6875 0.84375,0.03125 0.0937,4.0625 -1.03125,-0.0625 0.0937,-4.03125 z m 1.21875,0.03125 1.96875,0.09375 0,4.0625 -1.875,-0.09375 -0.0937,-4.0625 z m 4.8125,1.125 c -0.52606,0 -0.9375,0.458651 -0.9375,1 0,0.541348 0.41144,0.96875 0.9375,0.96875 0.52607,0 0.96875,-0.427405 0.96875,-0.96875 0,-0.541346 -0.44268,-1 -0.96875,-1 z m 0,0.375 c 0.30943,0 0.59375,0.27324 0.59375,0.625 0,0.351759 -0.28432,0.59375 -0.59375,0.59375 -0.30942,0 -0.5625,-0.241994 -0.5625,-0.59375 0,-0.351757 0.25308,-0.625 0.5625,-0.625 z m -11.5,2.625 1,0.0625 L 147.125,73 c -0.003,0.11591 0.0234,0.214376 0.0625,0.3125 l -1.03125,-0.0625 0,-1.90625 z m 5.34375,0.21875 3.9375,0.21875 -0.0312,1.84375 -3.96875,-0.1875 c 0.0163,-0.06338 0.0294,-0.120903 0.0312,-0.1875 L 151.5,71.5625 z"
           id="path3295"
           inkscape:connector-curvature="0" />
        <path
           sodipodi:type="arc"
           style="fill:none;stroke:#1b2a34;stroke-width:0.5;stroke-linecap:round;stroke-linejoin:round;stroke-miterlimit:4;stroke-opacity:1;stroke-dasharray:none"
           id="path4095"
           sodipodi:cx="168.96016"
           sodipodi:cy="69.281799"
           sodipodi:rx="2.6233032"
           sodipodi:ry="2.7811873"
           d="m 171.58346,69.281799 c 0,1.536008 -1.17449,2.781188 -2.6233,2.781188 -1.44881,0 -2.6233,-1.24518 -2.6233,-2.781188 0,-1.536007 1.17449,-2.781187 2.6233,-2.781187 1.44881,0 2.6233,1.24518 2.6233,2.781187 z"
           transform="translate(-0.14573907,0)" />
        <path
           style="fill:#1b2a34;stroke:#1b2a34;stroke-width:0.32670057;stroke-linecap:round;stroke-linejoin:round;stroke-miterlimit:4;stroke-opacity:1;stroke-dasharray:none"
           d="m 167.8125,67.8125 c -0.43567,0.329501 -0.71875,0.858135 -0.71875,1.46875 0,0.610615 0.28172,1.140621 0.71875,1.46875 0.0765,-0.520946 0.48717,-0.9375 1,-0.9375 0.51283,0 0.9235,0.416554 1,0.9375 0.43703,-0.328129 0.71875,-0.858135 0.71875,-1.46875 0,-0.610615 -0.28308,-1.139249 -0.71875,-1.46875 0.003,0.03224 0.0312,0.06076 0.0312,0.09375 0,0.601099 -0.46427,1.09375 -1.03125,1.09375 -0.56698,0 -1.03125,-0.492651 -1.03125,-1.09375 0,-0.03299 0.0285,-0.06151 0.0312,-0.09375 z"
           id="path4097"
           inkscape:connector-curvature="0" />
        <g
           transform="translate(6.6977,0.240851)"
           id="g2995"
           clip-path="url(#clipPath3816)"
           style="fill:#e8ab2d;fill-opacity:1;stroke:#1b2a34;display:inline">
          <g
             transform="translate(-28.881738,0)"
             id="g4309"
             style="fill:#e8ab2d;fill-opacity:1;stroke:#1b2a34">
            <rect
               style="fill:#e8ab2d;fill-opacity:1;stroke:#1b2a34;stroke-width:0.5;stroke-miterlimit:4;stroke-opacity:1;stroke-dasharray:none"
               id="rect4267"
               width="2.8962188"
               height="6.5969429"
               x="276.5686"
               y="66.883194" />
            <rect
               y="66.883194"
               x="273.77237"
               height="6.5969429"
               width="2.8962188"
               id="rect4269"
               style="fill:#e8ab2d;fill-opacity:1;stroke:#1b2a34;stroke-width:0.5;stroke-miterlimit:4;stroke-opacity:1;stroke-dasharray:none" />
            <rect
               style="fill:#e8ab2d;fill-opacity:1;stroke:#1b2a34;stroke-width:0.5;stroke-miterlimit:4;stroke-opacity:1;stroke-dasharray:none"
               id="rect4271"
               width="2.8962188"
               height="6.5969429"
               x="270.97617"
               y="66.883194" />
            <rect
               y="66.883194"
               x="268.17993"
               height="6.5969429"
               width="2.8962188"
               id="rect4273"
               style="fill:#e8ab2d;fill-opacity:1;stroke:#1b2a34;stroke-width:0.5;stroke-miterlimit:4;stroke-opacity:1;stroke-dasharray:none" />
            <rect
               style="fill:#e8ab2d;fill-opacity:1;stroke:#1b2a34;stroke-width:0.5;stroke-miterlimit:4;stroke-opacity:1;stroke-dasharray:none"
               id="rect4275"
               width="2.8962188"
               height="6.5969429"
               x="265.38373"
               y="66.883194" />
            <rect
               y="66.883194"
               x="262.58749"
               height="6.5969429"
               width="2.8962188"
               id="rect4277"
               style="fill:#e8ab2d;fill-opacity:1;stroke:#1b2a34;stroke-width:0.5;stroke-miterlimit:4;stroke-opacity:1;stroke-dasharray:none" />
            <rect
               style="fill:#e8ab2d;fill-opacity:1;stroke:#1b2a34;stroke-width:0.5;stroke-miterlimit:4;stroke-opacity:1;stroke-dasharray:none"
               id="rect4279"
               width="2.8962188"
               height="6.5969429"
               x="259.79129"
               y="66.883194" />
            <rect
               y="66.883194"
               x="256.99506"
               height="6.5969429"
               width="2.8962188"
               id="rect4281"
               style="fill:#e8ab2d;fill-opacity:1;stroke:#1b2a34;stroke-width:0.5;stroke-miterlimit:4;stroke-opacity:1;stroke-dasharray:none" />
            <rect
               style="fill:#e8ab2d;fill-opacity:1;stroke:#1b2a34;stroke-width:0.5;stroke-miterlimit:4;stroke-opacity:1;stroke-dasharray:none"
               id="rect4283"
               width="2.8962188"
               height="6.5969429"
               x="254.19885"
               y="66.883194" />
            <rect
               y="66.883194"
               x="251.40263"
               height="6.5969429"
               width="2.8962188"
               id="rect4285"
               style="fill:#e8ab2d;fill-opacity:1;stroke:#1b2a34;stroke-width:0.5;stroke-miterlimit:4;stroke-opacity:1;stroke-dasharray:none" />
            <rect
               style="fill:#e8ab2d;fill-opacity:1;stroke:#1b2a34;stroke-width:0.5;stroke-miterlimit:4;stroke-opacity:1;stroke-dasharray:none"
               id="rect4287"
               width="2.8962188"
               height="6.5969429"
               x="248.60641"
               y="66.883194" />
            <rect
               y="66.883194"
               x="245.8102"
               height="6.5969429"
               width="2.8962188"
               id="rect4289"
               style="fill:#e8ab2d;fill-opacity:1;stroke:#1b2a34;stroke-width:0.5;stroke-miterlimit:4;stroke-opacity:1;stroke-dasharray:none" />
            <rect
               style="fill:#e8ab2d;fill-opacity:1;stroke:#1b2a34;stroke-width:0.5;stroke-miterlimit:4;stroke-opacity:1;stroke-dasharray:none"
               id="rect4291"
               width="2.8962188"
               height="6.5969429"
               x="243.01398"
               y="66.883194" />
            <rect
               y="66.883194"
               x="240.21776"
               height="6.5969429"
               width="2.8962188"
               id="rect4293"
               style="fill:#e8ab2d;fill-opacity:1;stroke:#1b2a34;stroke-width:0.5;stroke-miterlimit:4;stroke-opacity:1;stroke-dasharray:none" />
            <rect
               style="fill:#e8ab2d;fill-opacity:1;stroke:#1b2a34;stroke-width:0.5;stroke-miterlimit:4;stroke-opacity:1;stroke-dasharray:none"
               id="rect4295"
               width="2.8962188"
               height="6.5969429"
               x="237.42154"
               y="66.883194" />
            <rect
               y="66.883194"
               x="234.62532"
               height="6.5969429"
               width="2.8962188"
               id="rect4297"
               style="fill:#e8ab2d;fill-opacity:1;stroke:#1b2a34;stroke-width:0.5;stroke-miterlimit:4;stroke-opacity:1;stroke-dasharray:none" />
            <rect
               style="fill:#e8ab2d;fill-opacity:1;stroke:#1b2a34;stroke-width:0.5;stroke-miterlimit:4;stroke-opacity:1;stroke-dasharray:none"
               id="rect4299"
               width="2.8962188"
               height="6.5969429"
               x="231.8291"
               y="66.883194" />
            <rect
               y="66.883194"
               x="229.03288"
               height="6.5969429"
               width="2.8962188"
               id="rect4301"
               style="fill:#e8ab2d;fill-opacity:1;stroke:#1b2a34;stroke-width:0.5;stroke-miterlimit:4;stroke-opacity:1;stroke-dasharray:none" />
            <rect
               style="fill:#e8ab2d;fill-opacity:1;stroke:#1b2a34;stroke-width:0.5;stroke-miterlimit:4;stroke-opacity:1;stroke-dasharray:none"
               id="rect4303"
               width="2.8962188"
               height="6.5969429"
               x="226.23666"
               y="66.883194" />
            <rect
               y="66.883194"
               x="223.44044"
               height="6.5969429"
               width="2.8962188"
               id="rect4305"
               style="fill:#e8ab2d;fill-opacity:1;stroke:#1b2a34;stroke-width:0.5;stroke-miterlimit:4;stroke-opacity:1;stroke-dasharray:none" />
            <rect
               style="fill:#e8ab2d;fill-opacity:1;stroke:#1b2a34;stroke-width:0.5;stroke-miterlimit:4;stroke-opacity:1;stroke-dasharray:none"
               id="rect4307"
               width="2.8962188"
               height="6.5969429"
               x="220.64423"
               y="66.883194" />
          </g>
          <g
             transform="translate(-15.36605,0)"
             id="g4233"
             style="fill:#e8ab2d;fill-opacity:1;stroke:#1b2a34">
            <rect
               style="fill:#e8ab2d;fill-opacity:1;stroke:#1b2a34;stroke-width:0.5;stroke-miterlimit:4;stroke-opacity:1;stroke-dasharray:none"
               id="rect4213"
               width="5.2542815"
               height="2.122942"
               x="256.00082"
               y="65.611313"
               ry="0" />
            <rect
               ry="0"
               y="65.611313"
               x="250.84656"
               height="2.122942"
               width="5.2542815"
               id="rect4215"
               style="fill:#e8ab2d;fill-opacity:1;stroke:#1b2a34;stroke-width:0.5;stroke-miterlimit:4;stroke-opacity:1;stroke-dasharray:none" />
            <rect
               style="fill:#e8ab2d;fill-opacity:1;stroke:#1b2a34;stroke-width:0.5;stroke-miterlimit:4;stroke-opacity:1;stroke-dasharray:none"
               id="rect4217"
               width="5.2542815"
               height="2.122942"
               x="245.69228"
               y="65.611313"
               ry="0" />
            <rect
               ry="0"
               y="65.611313"
               x="240.53799"
               height="2.122942"
               width="5.2542815"
               id="rect4219"
               style="fill:#e8ab2d;fill-opacity:1;stroke:#1b2a34;stroke-width:0.5;stroke-miterlimit:4;stroke-opacity:1;stroke-dasharray:none" />
            <rect
               style="fill:#e8ab2d;fill-opacity:1;stroke:#1b2a34;stroke-width:0.5;stroke-miterlimit:4;stroke-opacity:1;stroke-dasharray:none"
               id="rect4221"
               width="5.2542815"
               height="2.122942"
               x="235.38371"
               y="65.611313"
               ry="0" />
            <rect
               ry="0"
               y="65.611313"
               x="230.22943"
               height="2.122942"
               width="5.2542815"
               id="rect4223"
               style="fill:#e8ab2d;fill-opacity:1;stroke:#1b2a34;stroke-width:0.5;stroke-miterlimit:4;stroke-opacity:1;stroke-dasharray:none" />
            <rect
               style="fill:#e8ab2d;fill-opacity:1;stroke:#1b2a34;stroke-width:0.5;stroke-miterlimit:4;stroke-opacity:1;stroke-dasharray:none"
               id="rect4225"
               width="5.2542815"
               height="2.122942"
               x="209.6123"
               y="65.611313"
               ry="0" />
            <rect
               style="fill:#e8ab2d;fill-opacity:1;stroke:#1b2a34;stroke-width:0.5;stroke-miterlimit:4;stroke-opacity:1;stroke-dasharray:none"
               id="rect4227"
               width="5.2542815"
               height="2.122942"
               x="225.07515"
               y="65.611313"
               ry="0" />
            <rect
               ry="0"
               y="65.611313"
               x="219.92087"
               height="2.122942"
               width="5.2542815"
               id="rect4229"
               style="fill:#e8ab2d;fill-opacity:1;stroke:#1b2a34;stroke-width:0.5;stroke-miterlimit:4;stroke-opacity:1;stroke-dasharray:none" />
            <rect
               style="fill:#e8ab2d;fill-opacity:1;stroke:#1b2a34;stroke-width:0.5;stroke-miterlimit:4;stroke-opacity:1;stroke-dasharray:none"
               id="rect4231"
               width="5.2542815"
               height="2.122942"
               x="214.76659"
               y="65.611313"
               ry="0" />
          </g>
          <g
             id="g4245"
             transform="translate(-15.36605,6.7578439)"
             style="fill:#e8ab2d;fill-opacity:1;stroke:#1b2a34">
            <rect
               ry="0"
               y="65.611313"
               x="256.00082"
               height="2.122942"
               width="5.2542815"
               id="rect4247"
               style="fill:#e8ab2d;fill-opacity:1;stroke:#1b2a34;stroke-width:0.5;stroke-miterlimit:4;stroke-opacity:1;stroke-dasharray:none" />
            <rect
               style="fill:#e8ab2d;fill-opacity:1;stroke:#1b2a34;stroke-width:0.5;stroke-miterlimit:4;stroke-opacity:1;stroke-dasharray:none"
               id="rect4249"
               width="5.2542815"
               height="2.122942"
               x="250.84656"
               y="65.611313"
               ry="0" />
            <rect
               ry="0"
               y="65.611313"
               x="245.69228"
               height="2.122942"
               width="5.2542815"
               id="rect4251"
               style="fill:#e8ab2d;fill-opacity:1;stroke:#1b2a34;stroke-width:0.5;stroke-miterlimit:4;stroke-opacity:1;stroke-dasharray:none" />
            <rect
               style="fill:#e8ab2d;fill-opacity:1;stroke:#1b2a34;stroke-width:0.5;stroke-miterlimit:4;stroke-opacity:1;stroke-dasharray:none"
               id="rect4253"
               width="5.2542815"
               height="2.122942"
               x="240.53799"
               y="65.611313"
               ry="0" />
            <rect
               ry="0"
               y="65.611313"
               x="235.38371"
               height="2.122942"
               width="5.2542815"
               id="rect4255"
               style="fill:#e8ab2d;fill-opacity:1;stroke:#1b2a34;stroke-width:0.5;stroke-miterlimit:4;stroke-opacity:1;stroke-dasharray:none" />
            <rect
               style="fill:#e8ab2d;fill-opacity:1;stroke:#1b2a34;stroke-width:0.5;stroke-miterlimit:4;stroke-opacity:1;stroke-dasharray:none"
               id="rect4257"
               width="5.2542815"
               height="2.122942"
               x="230.22943"
               y="65.611313"
               ry="0" />
            <rect
               ry="0"
               y="65.611313"
               x="209.6123"
               height="2.122942"
               width="5.2542815"
               id="rect4259"
               style="fill:#e8ab2d;fill-opacity:1;stroke:#1b2a34;stroke-width:0.5;stroke-miterlimit:4;stroke-opacity:1;stroke-dasharray:none" />
            <rect
               ry="0"
               y="65.611313"
               x="225.07515"
               height="2.122942"
               width="5.2542815"
               id="rect4261"
               style="fill:#e8ab2d;fill-opacity:1;stroke:#1b2a34;stroke-width:0.5;stroke-miterlimit:4;stroke-opacity:1;stroke-dasharray:none" />
            <rect
               style="fill:#e8ab2d;fill-opacity:1;stroke:#1b2a34;stroke-width:0.5;stroke-miterlimit:4;stroke-opacity:1;stroke-dasharray:none"
               id="rect4263"
               width="5.2542815"
               height="2.122942"
               x="219.92087"
               y="65.611313"
               ry="0" />
            <rect
               ry="0"
               y="65.611313"
               x="214.76659"
               height="2.122942"
               width="5.2542815"
               id="rect4265"
               style="fill:#e8ab2d;fill-opacity:1;stroke:#1b2a34;stroke-width:0.5;stroke-miterlimit:4;stroke-opacity:1;stroke-dasharray:none" />
          </g>
        </g>
        <g
           id="g4349"
           transform="translate(18.00244,0.240851)"
           style="fill:#e8ab2d;fill-opacity:1;stroke:#1b2a34;display:inline">
          <path
             id="rect4332"
             transform="translate(142.76812,31.473222)"
             d="m 56.3125,32.1875 0,11.28125 8.875,0 0,-8.75 c 0,-1.078723 -0.583042,-2.009155 -1.4375,-2.53125 l -7.4375,0 z"
             style="fill:#e8ab2d;fill-opacity:1;stroke:#1b2a34;stroke-width:0.5;stroke-miterlimit:4;stroke-opacity:1;stroke-dasharray:none"
             inkscape:connector-curvature="0" />
          <path
             id="path4334"
             transform="translate(142.76812,31.473222)"
             d="m 56.3125,32.1875 0,4.15625 c 1.293835,0.366132 2.801457,0.59375 4.4375,0.59375 1.636043,0 3.143665,-0.227618 4.4375,-0.59375 l 0,-1.625 c 0,-1.078723 -0.583042,-2.009155 -1.4375,-2.53125 l -7.4375,0 z"
             style="fill:#e8ab2d;fill-opacity:1;stroke:#1b2a34;stroke-width:0.5;stroke-miterlimit:4;stroke-opacity:1;stroke-dasharray:none"
             inkscape:connector-curvature="0" />
          <path
             transform="translate(143.05178,31.473222)"
             d="m 61.311178,34.906086 c 0,0.455482 -0.378247,0.824724 -0.844839,0.824724 -0.466592,0 -0.844839,-0.369242 -0.844839,-0.824724 0,-0.455482 0.378247,-0.824724 0.844839,-0.824724 0.466592,0 0.844839,0.369242 0.844839,0.824724 z"
             sodipodi:ry="0.82472384"
             sodipodi:rx="0.84483904"
             sodipodi:cy="34.906086"
             sodipodi:cx="60.466339"
             id="path4339"
             style="fill:#e8ab2d;fill-opacity:1;stroke:#1b2a34;stroke-width:0.5;stroke-miterlimit:4;stroke-opacity:1;stroke-dasharray:none"
             sodipodi:type="arc" />
        </g>
        <g
           transform="translate(6.53678,0.240851)"
           id="g4354"
           style="fill:#e8ab2d;fill-opacity:1;stroke:#1b2a34;display:inline">
          <path
             style="fill:#e8ab2d;fill-opacity:1;stroke:#1b2a34;stroke-width:0.5;stroke-miterlimit:4;stroke-opacity:1;stroke-dasharray:none"
             d="m 56.3125,32.1875 0,11.28125 8.875,0 0,-8.75 c 0,-1.078723 -0.583042,-2.009155 -1.4375,-2.53125 l -7.4375,0 z"
             transform="translate(142.76812,31.473222)"
             id="path4356"
             inkscape:connector-curvature="0" />
          <path
             style="fill:#e8ab2d;fill-opacity:1;stroke:#1b2a34;stroke-width:0.5;stroke-miterlimit:4;stroke-opacity:1;stroke-dasharray:none"
             d="m 56.3125,32.1875 0,4.15625 c 1.293835,0.366132 2.801457,0.59375 4.4375,0.59375 1.636043,0 3.143665,-0.227618 4.4375,-0.59375 l 0,-1.625 c 0,-1.078723 -0.583042,-2.009155 -1.4375,-2.53125 l -7.4375,0 z"
             transform="translate(142.76812,31.473222)"
             id="path4358"
             inkscape:connector-curvature="0" />
          <path
             sodipodi:type="arc"
             style="fill:#e8ab2d;fill-opacity:1;stroke:#1b2a34;stroke-width:0.5;stroke-miterlimit:4;stroke-opacity:1;stroke-dasharray:none"
             id="path4360"
             sodipodi:cx="60.466339"
             sodipodi:cy="34.906086"
             sodipodi:rx="0.84483904"
             sodipodi:ry="0.82472384"
             d="m 61.311178,34.906086 c 0,0.455482 -0.378247,0.824724 -0.844839,0.824724 -0.466592,0 -0.844839,-0.369242 -0.844839,-0.824724 0,-0.455482 0.378247,-0.824724 0.844839,-0.824724 0.466592,0 0.844839,0.369242 0.844839,0.824724 z"
             transform="translate(143.05178,31.473222)" />
        </g>
      </g>
    </g>
    <g
       inkscape:groupmode="layer"
       id="layer2"
       inkscape:label="face">
      <g
         id="g4973"
         transform="translate(-8.0021683,10.583513)">
        <path
           id="path3081"
           style="fill:#fdc97d;stroke:#231f20;stroke-width:0.3125;stroke-linecap:butt;stroke-linejoin:miter;stroke-miterlimit:4;stroke-opacity:1;stroke-dasharray:none;display:inline"
           d="m 258.64176,19.13952 -112.8,0 0,-21.3912504 112.8,0 0,21.3912504 z"
           inkscape:connector-curvature="0" />
        <g
           transform="translate(32.604715,0)"
           id="g4959">
          <g
             id="g4945">
            <path
               sodipodi:nodetypes="cccsccccscc"
               id="path4833"
               d="m 165.156,13.694178 c -0.4252,0.03543 -0.64192,0.488637 -0.71279,1.126432 0.78448,-0.80836 2.13011,0.0074 4.29153,0.149158 0.14173,0.03543 0.46063,0.03543 1.06299,0.03543 0.24803,0 0.60236,-0.03543 0.67323,-0.03543 2.12599,-0.141732 3.36862,-0.992126 4.35992,-0.11455 -0.0354,-0.637795 -0.35598,-1.125607 -0.78118,-1.16104 -1.41732,0 -0.46063,0.212598 -4.2874,0.318897 -0.0709,0 -0.1063,0 -0.17717,0 -0.0354,0 -0.0709,0 -0.14173,0 -3.82677,-0.106299 -2.87008,-0.318897 -4.2874,-0.318897 z"
               style="fill:#1b2a34;fill-opacity:1;fill-rule:nonzero;stroke:none"
               inkscape:connector-curvature="0" />
            <path
               sodipodi:nodetypes="zzszsz"
               inkscape:connector-curvature="0"
               id="path4874"
               d="m 167.54748,15.850463 c -0.0773,0.07994 0.60814,1.192275 1.21128,1.24589 0.60315,0.05361 2.65235,-0.278139 3.01549,-0.489285 0.35234,-0.204871 0.29306,-0.619521 0.27228,-0.756606 -0.0208,-0.137084 -1.19244,-0.08104 -2.41946,0.03332 -0.88389,0.08238 -2.00227,-0.11326 -2.07959,-0.03332 z"
               style="fill:#cc8e68;stroke:none" />
          </g>
          <g
             id="g4949"
             transform="translate(0.049075,0)">
            <path
               sodipodi:nodetypes="ccc"
               inkscape:connector-curvature="0"
               id="path3299"
               d="m 175.26097,6.3609418 c -1.0403,-0.5003882 -2.02082,2.0559766 -4.38505,0.67287 2.01476,-0.2383568 3.21677,-2.283159 4.38505,-0.67287 z"
               style="fill:#1b2a34;stroke:#1b2a34;stroke-width:0.175;stroke-linecap:round;stroke-linejoin:round;stroke-miterlimit:4;stroke-dasharray:none" />
            <path
               style="fill:#1b2a34;stroke:#1b2a34;stroke-width:0.175;stroke-linecap:round;stroke-linejoin:round;stroke-miterlimit:4;stroke-dasharray:none"
               d="m 163.91497,6.3851357 c 1.03474,-0.5117833 2.04328,2.0336586 4.39218,0.6246701 -2.01726,-0.2162152 -3.24166,-2.2476928 -4.39218,-0.6246701 z"
               id="path4447"
               inkscape:connector-curvature="0"
               sodipodi:nodetypes="ccc" />
            <g
               transform="translate(-151.70545,-164.40819)"
               style="display:inline"
               id="g4449">
              <path
                 sodipodi:type="arc"
                 style="fill:#1b2a34;fill-opacity:1;stroke:none"
                 id="path4451"
                 sodipodi:cx="206.08511"
                 sodipodi:cy="14.904921"
                 sodipodi:rx="1.7446809"
                 sodipodi:ry="1.7446809"
                 d="m 207.82979,14.904921 c 0,0.96356 -0.78112,1.74468 -1.74468,1.74468 -0.96356,0 -1.74468,-0.78112 -1.74468,-1.74468 0,-0.963561 0.78112,-1.744681 1.74468,-1.744681 0.96356,0 1.74468,0.78112 1.74468,1.744681 z"
                 transform="translate(111.4862,157.46043)" />
              <path
                 sodipodi:type="arc"
                 style="fill:#ffffff;fill-opacity:1;stroke:none"
                 id="path4453"
                 sodipodi:cx="206.38298"
                 sodipodi:cy="14.351728"
                 sodipodi:rx="0.59574467"
                 sodipodi:ry="0.68085104"
                 d="m 206.97873,14.351728 c 0,0.376024 -0.26673,0.680851 -0.59575,0.680851 -0.32902,0 -0.59574,-0.304827 -0.59574,-0.680851 0,-0.376023 0.26672,-0.680851 0.59574,-0.680851 0.32902,0 0.59575,0.304828 0.59575,0.680851 z"
                 transform="translate(111.18833,157.37532)" />
            </g>
            <g
               style="display:inline"
               id="g4457"
               transform="translate(-144.23557,-164.40819)">
              <path
                 transform="translate(111.4862,157.46043)"
                 d="m 207.82979,14.904921 c 0,0.96356 -0.78112,1.74468 -1.74468,1.74468 -0.96356,0 -1.74468,-0.78112 -1.74468,-1.74468 0,-0.963561 0.78112,-1.744681 1.74468,-1.744681 0.96356,0 1.74468,0.78112 1.74468,1.744681 z"
                 sodipodi:ry="1.7446809"
                 sodipodi:rx="1.7446809"
                 sodipodi:cy="14.904921"
                 sodipodi:cx="206.08511"
                 id="path4459"
                 style="fill:#1b2a34;fill-opacity:1;stroke:none"
                 sodipodi:type="arc" />
              <path
                 transform="translate(111.18833,157.37532)"
                 d="m 206.97873,14.351728 c 0,0.376024 -0.26673,0.680851 -0.59575,0.680851 -0.32902,0 -0.59574,-0.304827 -0.59574,-0.680851 0,-0.376023 0.26672,-0.680851 0.59574,-0.680851 0.32902,0 0.59575,0.304828 0.59575,0.680851 z"
                 sodipodi:ry="0.68085104"
                 sodipodi:rx="0.59574467"
                 sodipodi:cy="14.351728"
                 sodipodi:cx="206.38298"
                 id="path4461"
                 style="fill:#ffffff;fill-opacity:1;stroke:none"
                 sodipodi:type="arc" />
            </g>
          </g>
        </g>
        <path
           sodipodi:nodetypes="ssccssccccccssccssccccccs"
           inkscape:connector-curvature="0"
           id="rect4876"
           d="m 189.08551,-1.4764072 c -1.87212,0 -3.375,1.50287693 -3.375,3.3749999 l 0,0.0625 0,0.40625 0,3.598411 c 0,0.261604 0.20716,0.46875 0.46875,0.46875 l 2.90625,0 11.09375,0 1.21875,0 1.6875,0 1.21875,0 11.09375,0 2.90625,0 c 0.2616,0 0.46875,-0.207146 0.46875,-0.46875 l 0,-3.598411 0,-0.40625 0,-0.0625 c 0,-1.87212297 -1.50288,-3.3749999 -3.375,-3.3749999 l -1.21875,0 -9.875,0 -1.21875,0 -1.6875,0 -1.21875,0 -9.875,0 z"
           style="fill:#f2f3f2;fill-opacity:1;stroke:#1b2a34;stroke-width:0.5;stroke-miterlimit:4;stroke-dasharray:none" />
      </g>
    </g>
  </g>
  <g
     inkscape:label="template"
     inkscape:groupmode="layer"
     id="layer1"
     transform="translate(-355.85471,-386.55287)"
     style="display:inline"
     sodipodi:insensitive="true">
    <path
       inkscape:connector-curvature="0"
       d="m 361.13813,452.9203 c 8.7325,-47.29375 5.3425,-42.67875 14.2675,-42.85625 l 23.44,0 c 8.92625,0.1775 5.535,-4.4375 14.265,42.85625 l -51.9725,0 z"
       style="fill:none;stroke:#231f20;stroke-width:0.3125;stroke-linecap:butt;stroke-linejoin:miter;stroke-miterlimit:4;stroke-opacity:1;stroke-dasharray:none"
       id="path3093" />
    <path
       id="path4124"
       style="fill:none;stroke:#231f20;stroke-width:0.3125;stroke-linecap:butt;stroke-linejoin:miter;stroke-miterlimit:4;stroke-opacity:1;stroke-dasharray:none"
       d="m 361.13813,452.9203 c 8.7325,-47.29375 5.3425,-42.67875 14.2675,-42.85625 l 23.44,0 c 8.92625,0.1775 5.535,-4.4375 14.265,42.85625 l -51.9725,0 z"
       inkscape:connector-curvature="0" />
    <path
       transform="translate(218.16938,378.37561)"
       id="path3974"
       style="fill:none;stroke:#231f20;stroke-width:0.3125;stroke-linecap:butt;stroke-linejoin:miter;stroke-miterlimit:4;stroke-opacity:1;stroke-dasharray:none;display:inline"
       d="m 202.11006,74.785542 c 8.7325,-47.29375 5.3425,-42.67875 14.2675,-42.85625 l 23.44,0 c 8.92625,0.1775 5.535,-4.4375 14.265,42.85625 l -51.9725,0 z"
       inkscape:connector-curvature="0" />
  </g>
</svg>
