<?xml version="1.0" encoding="UTF-8" standalone="no"?>
<!-- Generator: Adobe Illustrator 15.1.0, SVG Export Plug-In . SVG Version: 6.00 Build 0)  -->

<svg
   xmlns:dc="http://purl.org/dc/elements/1.1/"
   xmlns:cc="http://creativecommons.org/ns#"
   xmlns:rdf="http://www.w3.org/1999/02/22-rdf-syntax-ns#"
   xmlns:svg="http://www.w3.org/2000/svg"
   xmlns="http://www.w3.org/2000/svg"
   xmlns:xlink="http://www.w3.org/1999/xlink"
   xmlns:sodipodi="http://sodipodi.sourceforge.net/DTD/sodipodi-0.dtd"
   xmlns:inkscape="http://www.inkscape.org/namespaces/inkscape"
   version="1.1"
   x="0px"
   y="0px"
   width="53.857px"
   height="90.708px"
   viewBox="0 0.142 53.857 90.708"
   enable-background="new 0 0.142 53.857 90.708"
   xml:space="preserve"
   id="svg2"
   inkscape:version="0.48.1 "
   sodipodi:docname="green-goblin.svg"
   inkscape:export-filename="D:\Bricks\Decals\designs\superheroes\spiderman\green-goblin.png"
   inkscape:export-xdpi="600"
   inkscape:export-ydpi="600"><metadata
   id="metadata213"><rdf:RDF><cc:Work
       rdf:about=""><dc:format>image/svg+xml</dc:format><dc:type
         rdf:resource="http://purl.org/dc/dcmitype/StillImage" /><dc:title></dc:title></cc:Work></rdf:RDF></metadata><defs
   id="defs211" /><sodipodi:namedview
   pagecolor="#ffffff"
   bordercolor="#666666"
   borderopacity="1"
   objecttolerance="10"
   gridtolerance="10"
   guidetolerance="10"
   inkscape:pageopacity="0"
   inkscape:pageshadow="2"
   inkscape:window-width="1280"
   inkscape:window-height="1002"
   id="namedview209"
   showgrid="false"
   inkscape:zoom="8.322"
   inkscape:cx="24.33"
   inkscape:cy="64.02"
   inkscape:window-x="1358"
   inkscape:window-y="-8"
   inkscape:window-maximized="1"
   inkscape:current-layer="svg2" />
<g
   id="torso_1_">
	<defs
   id="defs5">
		<path
   id="torso_2_"
   d="M0.942,44.131C9.675-3.163,6.286,1.452,15.21,1.275h23.439c8.928,0.179,5.535-4.438,14.266,42.856H0.942z" />
	</defs>
	<clipPath
   id="torso_3_">
		<use
   xlink:href="#torso_2_"
   overflow="visible"
   id="use9" />
	</clipPath>
	<path
   id="torso"
   clip-path="url(#torso_3_)"
   fill="#68917C"
   d="M0.943,44.131C9.676-3.163,6.287,1.452,15.211,1.275H38.65   c8.928,0.179,5.535-4.438,14.266,42.856H0.943z" />
	<g
   id="Muscles"
   opacity="0.25"
   clip-path="url(#torso_3_)">
		<path
   fill="#001423"
   d="M37.988,5.56c0.086,0.302,1.357-0.412,3.938-0.039c2.396,0.348,3.158,1.038,3.286,0.875    c0.194-0.252,0.148-1.174-0.02-1.271c-0.217-0.127-2.51-0.512-3.357-0.472C40.848,4.698,37.878,5.179,37.988,5.56z"
   id="path13" />
		<path
   fill="#001423"
   d="M15.869,5.56c-0.086,0.302-1.358-0.412-3.938-0.039C9.535,5.869,8.773,6.559,8.645,6.396    C8.45,6.144,8.497,5.221,8.663,5.125c0.218-0.127,2.511-0.512,3.358-0.472C13.008,4.698,15.978,5.179,15.869,5.56z"
   id="path15" />
		<path
   fill="#001423"
   d="M47.897,25.109c-0.197-0.073-0.563,0.779-1.706,0.799c-0.999,0.019-1.072-0.438-1.325-0.689    c-0.219-0.223-0.198-0.872,0.035-1.008c2.325,0.081,2.761-1.14,2.634-1.408c-0.146-0.307-0.527,0.347-1.794,0.468    c-1.14,0.11-1.38-0.459-1.377-0.475c0.006-0.029-0.347-0.768-0.114-1.025c0.308-0.344,0.703-0.302,1.5-0.544    c1.258-0.383,1.515-1.563,1.315-1.727c-0.146-0.119-0.548,0.708-1.86,1.012c-0.76,0.175-1.218,0.276-1.316-0.039    c-0.229-0.751,1.632-1.444,2.656-2.112c0.373-0.729,0.114-2.631,0.042-2.815c-1.14,1.976-3.621,2.955-3.734,3.049    c-0.023,0.019-3.136,1.021-6.553,1.124c-2.217,0.067-4.095,0.156-5.211,0.025c-1.437-0.169-1.926-0.293-2.317-0.762    c-0.222-0.266-0.238-0.446-0.083-0.865c0.022-0.06,0.092-0.118,0.077-0.194c-0.015-0.099-0.134-0.148-0.203-0.22    c-0.336-0.348-0.693-0.66-0.773-0.964c-0.124-0.478-0.23-0.997-0.323-1.54c-0.08-0.474-0.17-2.706-0.215-3.322    c-0.045-0.627,0.284-2.683,0.211-3.138c-0.063-0.394,0.7-1.56,1.201-2.054c1.124-1.107,6.056-2.546,9.27-2.956    c5.845-0.744,6.471,0.592,6.66,0.125c0.147-0.36-1.45-1.177-6.072-1.033c-0.301,0.01-1.495,0.359-1.658,0.305    c-0.351-0.118-0.887-0.665-1.026-0.557c-0.229,0.18,0.028,0.494-0.083,0.766c-0.085,0.21-0.334,0.293-0.574,0.231    c-0.364-0.094-1.048-0.896-1.243-0.855c-0.232,0.051-0.441,0.907-0.689,1.124c-0.35,0.306-1.292,0.35-1.854,0.133    c-0.233-0.089-0.298,0.046-0.157-0.489c0.142-0.535,0.583-1.119,0.311-1.272c-0.078-0.044-1.748,0.066-1.767,0.387    c-0.015,0.248,0.475,0.125,0.558,0.348c0.143,0.379-0.24,1.044-0.485,1.289c-0.381,0.377-1.741,1.167-1.789,1.176    c-0.523,0.106-1.132,0.137-1.132,0.137v14.365c0,0,0.235-0.472,0.475-0.616c0.258-0.155,0.533,0.019,0.568,0.044    c0.467,0.351,1.399,1.021,2.873,1.4c1.3,0.334,3.021,0.403,5.218,0.343c3.209-0.087,6.088-0.287,6.099-0.106    c0.004,0.053-0.313,0.519-1.362,1.167c-0.985,0.608-2.031,0.812-1.94,1.084c0.053,0.154,1.081-0.135,2.132-0.654    c0.996-0.495,1.969-1.303,1.972-1.235c0.03,0.913,0,1.82-0.227,2.303c-0.275,0.589-1.392,1.184-2.029,1.395    c-0.909,0.301-1.699,0.221-1.751,0.133c-0.131-0.23-1.018-0.896-1.248-1.025c-0.528-0.297-1.22-0.494-1.801-0.668    c-0.71-0.212-2.488,0.335-2.953-0.241c-0.112-0.142-0.253-0.277-0.396-0.384c-0.236-0.176-1.413,0.792-3.379,0.74    c-1.023,0.165-1.642-0.55-1.951-0.894c-0.081-0.09-0.238-0.15-0.288-0.169v-0.007c0,0-0.008,0.003-0.01,0.004    c-0.002-0.001-0.011-0.004-0.011-0.004v0.008c-0.05,0.019-0.208,0.078-0.289,0.168c-0.311,0.344-0.927,1.059-1.951,0.894    c-1.967,0.052-3.145-0.916-3.381-0.74c-0.143,0.106-0.283,0.242-0.396,0.384c-0.463,0.576-2.241,0.029-2.953,0.241    c-0.58,0.174-1.271,0.371-1.799,0.668c-0.232,0.13-1.117,0.795-1.25,1.025c-0.051,0.088-0.84,0.168-1.75-0.133    c-0.639-0.211-1.754-0.806-2.03-1.395c-0.225-0.482-0.255-1.39-0.225-2.302c0.002-0.068,0.974,0.74,1.971,1.234    c1.05,0.519,2.079,0.808,2.132,0.654c0.091-0.272-0.955-0.477-1.94-1.084c-1.049-0.647-1.367-1.115-1.363-1.167    c0.009-0.181,2.889,0.019,6.099,0.106c2.196,0.059,3.917-0.009,5.218-0.343c1.475-0.378,2.407-1.049,2.876-1.4    c0.032-0.025,0.31-0.198,0.566-0.043c0.239,0.144,0.476,0.616,0.476,0.616V5.539c0,0-0.61-0.031-1.132-0.137    c-0.049-0.009-1.409-0.799-1.79-1.176c-0.247-0.244-0.628-0.909-0.487-1.289c0.083-0.223,0.573-0.1,0.559-0.348    c-0.019-0.321-1.689-0.431-1.767-0.387c-0.272,0.153,0.167,0.737,0.309,1.272c0.142,0.536,0.076,0.4-0.157,0.489    c-0.563,0.217-1.505,0.173-1.854-0.133c-0.25-0.216-0.458-1.073-0.692-1.124c-0.192-0.042-0.876,0.761-1.24,0.855    c-0.241,0.062-0.49-0.021-0.575-0.231c-0.11-0.271,0.147-0.585-0.083-0.766c-0.138-0.108-0.675,0.439-1.026,0.557    c-0.164,0.054-1.358-0.295-1.659-0.305c-4.621-0.144-6.219,0.673-6.071,1.033c0.191,0.468,0.815-0.868,6.659-0.125    c3.214,0.41,8.147,1.849,9.271,2.956c0.502,0.494,1.266,1.66,1.203,2.054c-0.074,0.456,0.256,2.511,0.21,3.138    c-0.045,0.616-0.135,2.848-0.215,3.322c-0.092,0.543-0.199,1.062-0.324,1.54c-0.08,0.304-0.438,0.617-0.773,0.964    c-0.069,0.071-0.188,0.121-0.204,0.22c-0.013,0.076,0.055,0.134,0.077,0.194c0.157,0.419,0.139,0.6-0.083,0.865    c-0.39,0.467-0.88,0.593-2.317,0.762c-1.116,0.13-2.995,0.042-5.21-0.025c-3.417-0.103-6.529-1.104-6.553-1.124    c-0.113-0.094-2.596-1.073-3.735-3.049c-0.072,0.184-0.331,2.086,0.042,2.815c1.024,0.668,2.887,1.36,2.655,2.112    c-0.097,0.314-0.556,0.214-1.315,0.04c-1.313-0.304-1.716-1.132-1.859-1.013c-0.199,0.163,0.056,1.344,1.314,1.727    c0.797,0.242,1.193,0.2,1.5,0.543c0.231,0.258-0.121,0.997-0.115,1.026c0.003,0.016-0.238,0.585-1.376,0.475    c-1.268-0.121-1.649-0.775-1.794-0.468c-0.127,0.268,0.309,1.489,2.634,1.408c0.234,0.136,0.254,0.785,0.034,1.008    c-0.252,0.252-0.327,0.708-1.325,0.689c-1.144-0.02-1.508-0.872-1.706-0.799c-0.2,0.073,0.053,1.47,1.323,1.652    c0.953,0.134,1.633-0.575,2.09-0.472c0.429,0.098,0.47,0.58,2.175,1.74c0.701,0.478,2.874,1.594,3.348,1.865    c0,0.146-0.002,0.284,0.004,0.447c0.017,0.39,0.625,0.966,0.611,1.354c-0.01,0.263-0.404,1.18-0.387,2.033    c0.018,0.913,1.198,2.478,1.19,3.389c-0.003,0.314-0.008,0.66,0.01,1.654c0.015,0.803,0.126,1.449,0.319,2.072    c0.125,0.404,0.47,1.181,0.679,1.549c0.49,0.865,2.305,0.847,2.341,0.667c0.042-0.208-1.416-0.237-1.761-1.151    c-0.261-0.691-0.584-2.487-0.194-3.117c0.503-0.505,3.526-0.479,4.696-0.319c0.997,0.14,3.013,0.229,3.969,0.678    c0.598,0.669,0.207,2.838,0.243,3.582c0.078,0.169,0.251,0.224,0.304,0.236v0.006c0,0,0.008-0.003,0.01-0.003    c0.003,0,0.011,0.003,0.011,0.003v-0.006c0.051-0.013,0.226-0.067,0.303-0.236c0.036-0.744-0.356-2.913,0.242-3.582    c0.954-0.448,2.972-0.538,3.969-0.678c1.168-0.16,4.191-0.186,4.695,0.319c0.39,0.63,0.066,2.426-0.194,3.117    c-0.345,0.914-1.805,0.943-1.763,1.151c0.038,0.18,1.854,0.198,2.344-0.667c0.208-0.368,0.553-1.145,0.679-1.549    c0.192-0.623,0.305-1.27,0.318-2.072c0.018-0.994,0.013-1.34,0.01-1.654c-0.007-0.911,1.172-2.476,1.19-3.389    c0.018-0.854-0.378-1.771-0.387-2.033c-0.015-0.389,0.594-0.965,0.609-1.354c0.008-0.163,0.006-0.301,0.006-0.447    c0.473-0.271,2.646-1.388,3.347-1.865c1.705-1.16,1.746-1.643,2.177-1.74c0.456-0.104,1.137,0.605,2.089,0.472    C47.845,26.578,48.097,25.182,47.897,25.109z M12.621,27.45c-0.729-0.24-2.382-1.342-2.579-1.725    c-0.174-0.335-0.006-1.424-0.006-1.424s0.479,0.078,0.767,0.268c0.761,0.502,1.433,1.039,2.045,1.379    c1.113,0.618,1.821,0.585,2.042,1.147C15.088,27.597,14.871,28.104,12.621,27.45z M16.329,28.526    c0.218-0.717,0.19-1.81,1.863-2.51c0.936-0.734,3.127-1.338,4.289-1.507c0.854-0.125,2.791,0.717,3.326,1.395    c0.508,0.644,0.812,2.08,0.755,2.899c-0.027,0.391,0.02,1.607-0.266,1.877c-0.782,0.734-3.353,0.323-4.426,0.296    c-1.366-0.036-3.847,0.019-5.396-0.872C16.095,29.886,16.202,28.945,16.329,28.526z M26.348,37.602    c-0.447,0.448-2.778,0.193-3.413,0.193c-0.897,0-4.641-0.285-5.275-0.92c-0.238-0.239-1.132-1.833-1.132-2.174    c0-0.361,0.053-2.241,0.309-2.496c0.565-0.565,4.406,0.169,5.204,0.169c0.731,0,3.501,0.447,3.819,0.741    c0.487,0.454,0.706,1.659,0.706,1.872C26.566,35.337,26.596,37.354,26.348,37.602z M36.197,36.875    c-0.635,0.635-4.378,0.92-5.275,0.92c-0.635,0-2.964,0.255-3.413-0.193c-0.248-0.248-0.218-2.265-0.218-2.614    c0-0.213,0.22-1.418,0.708-1.872c0.317-0.294,3.087-0.741,3.818-0.741c0.798,0,4.639-0.734,5.203-0.169    c0.256,0.255,0.31,2.135,0.31,2.496C37.33,35.042,36.435,36.636,36.197,36.875z M37.383,30.104    c-1.55,0.891-4.03,0.836-5.396,0.872c-1.072,0.027-3.643,0.438-4.423-0.296c-0.287-0.27-0.24-1.486-0.267-1.877    c-0.057-0.819,0.248-2.256,0.756-2.899c0.534-0.678,2.47-1.52,3.323-1.395c1.162,0.169,3.354,0.772,4.288,1.507    c1.675,0.7,1.646,1.793,1.865,2.51C37.656,28.945,37.762,29.886,37.383,30.104z M43.816,25.726    c-0.198,0.383-1.851,1.484-2.58,1.725c-2.25,0.653-2.467,0.146-2.269-0.354c0.221-0.563,0.929-0.529,2.041-1.147    c0.612-0.34,1.285-0.877,2.045-1.379c0.291-0.189,0.77-0.268,0.77-0.268S43.989,25.391,43.816,25.726z"
   id="path17" />
	</g>
	<g
   id="tunik_1"
   clip-path="url(#torso_3_)">
		<g
   id="g20">
			<path
   fill="#A72D82"
   d="M53.857,33.531H27.428c0,0,0,0-4.75-8.625c9.063,1.938,29.762-6.897,29.762-6.897L53.857,33.531z"
   id="path22" />
			<path
   fill="#001423"
   d="M54.168,33.815H27.428h-0.167l-0.081-0.146l-4.75-8.625l-0.291-0.528l0.599,0.114h0     c2.46,0.527,5.065,0.315,7.584-0.055c2.532-0.383,5.035-0.968,7.512-1.642c2.48-0.665,4.92-1.477,7.338-2.344     c2.416-0.866,4.818-1.792,7.156-2.84l0,0l0.358-0.152l0.035,0.387L54.168,33.815z M53.547,33.248l-1.389-15.213l0.394,0.235l0,0     c-4.81,1.875-9.668,3.576-14.627,4.985c-2.479,0.7-4.987,1.313-7.539,1.723c-2.546,0.377-5.156,0.684-7.766,0.206h0l0.308-0.414     l4.75,8.625l-0.248-0.146H53.547z"
   id="path24" />
		</g>
		<g
   id="g26">
			<path
   fill="#A72D82"
   d="M50.831,27.294c0,0-2.246-0.438-6.447-1.316c-0.352-0.073-1.096-0.229-1.096-0.229l-1.505,0.676     l-1.233-1.093l-1.102,0.147c0,0-1.912-0.956-2.165-1.011c-3.224-0.697-6.98-1.524-11.226-2.48     C14.033,19.278,5.302,10.072,5.302,10.072l-5.776,35.477h54.806L50.831,27.294z"
   id="path28" />
			<path
   fill="#001423"
   d="M50.526,27.588c-1.174-0.275-2.347-0.542-3.522-0.796l-3.76-0.835l0.131-0.015l-1.506,0.674l-0.124,0.056     l-0.102-0.091l-1.23-1.095l0.164,0.05l-1.102,0.144l-0.062,0.008l-0.057-0.027c-0.697-0.341-1.447-0.729-2.113-0.994l-2.322-0.51     l-4.651-1.034c-3.084-0.714-6.247-1.275-9.21-2.497c-2.966-1.174-5.787-2.691-8.447-4.441c-2.652-1.772-5.181-3.695-7.567-5.867     l-0.001-0.001l0.606-0.187l-5.776,35.476l-0.35-0.411h54.806l-0.348,0.421L50.526,27.588z M51.132,26.984l3.548,18.498     l0.081,0.421h-0.429H-0.474h-0.417l0.067-0.411l5.776-35.477l0.114-0.7l0.493,0.513L5.56,9.829     c2.099,2.329,4.585,4.36,7.213,6.112c2.634,1.757,5.446,3.257,8.405,4.379c1.478,0.563,2.989,1.037,4.525,1.401l4.648,1.035     l4.654,1.016l2.333,0.503c0.812,0.313,1.47,0.671,2.2,1.022l-0.117-0.02l1.101-0.151l0.093-0.013l0.071,0.063l1.236,1.09     l-0.226-0.035l1.503-0.678l0.062-0.027l0.07,0.013l3.778,0.733c1.26,0.245,2.522,0.474,3.788,0.674L51.132,26.984z"
   id="path30" />
		</g>
		<g
   id="tunic_wrinkles_1">
			<g
   id="g33">
				<path
   fill="#001423"
   d="M41.428,23.835c0.489-0.083,0.968-0.202,1.44-0.33c0.471-0.135,0.938-0.276,1.387-0.468      c0.913-0.347,1.755-0.841,2.548-1.439c-0.322,0.378-0.695,0.72-1.113,0.999c-0.414,0.285-0.868,0.507-1.33,0.703      C43.424,23.653,42.427,23.881,41.428,23.835z"
   id="path35" />
			</g>
			<g
   id="g37">
				<path
   fill="#001423"
   d="M43.558,23.989c0.716,0.014,1.432-0.04,2.129-0.156c0.696-0.153,1.36-0.31,2.051-0.53l0.014,0.025      c-0.56,0.492-1.314,0.687-2.034,0.729c-0.723,0.069-1.448,0.055-2.161-0.041L43.558,23.989z"
   id="path39" />
			</g>
			<g
   id="g41">
				<path
   fill="#001423"
   d="M49.303,40.24c-2.348,0.459-4.756,0.545-7.146,0.489c-2.394-0.062-4.779-0.324-7.144-0.694      c-2.36-0.402-4.7-0.919-7-1.576c-2.301-0.655-4.562-1.442-6.772-2.344c2.266,0.754,4.553,1.431,6.857,2.028      c2.308,0.588,4.633,1.105,6.983,1.473c2.345,0.402,4.713,0.657,7.089,0.788c1.188,0.067,2.378,0.092,3.567,0.068      C46.928,40.457,48.122,40.408,49.303,40.24z"
   id="path43" />
			</g>
			<g
   id="g45">
				<path
   fill="#001423"
   d="M49.212,38.661c-3.806,0.281-7.646-0.07-11.394-0.803c-3.753-0.731-7.418-1.856-10.996-3.19      c-3.566-1.37-7.047-2.955-10.425-4.73c-3.379-1.774-6.657-3.732-9.844-5.823c3.27,1.958,6.598,3.814,9.994,5.532      c3.399,1.71,6.864,3.292,10.425,4.624c3.549,1.361,7.194,2.474,10.911,3.27C41.598,38.323,45.399,38.786,49.212,38.661z"
   id="path47" />
			</g>
			<g
   id="g49">
				<path
   fill="#001423"
   d="M48.991,36.865c-3.949,0.167-7.899-0.493-11.715-1.506c-3.822-1.027-7.515-2.509-11.043-4.295      c-3.516-1.815-6.866-3.947-10.008-6.345c-3.141-2.4-6.074-5.062-8.796-7.917c2.833,2.744,5.832,5.312,8.993,7.656      c3.168,2.332,6.496,4.453,10.005,6.227c3.49,1.808,7.158,3.272,10.937,4.36c1.889,0.547,3.809,0.985,5.751,1.304      C45.053,36.67,47.018,36.9,48.991,36.865z"
   id="path51" />
			</g>
			<g
   id="g53">
				<path
   fill="#001423"
   d="M16.268,34.431c-1.039-0.195-2.016-0.602-2.977-1.019c-0.957-0.432-1.858-0.972-2.753-1.513      c-1.793-1.078-3.517-2.263-5.184-3.518l0.024-0.035c1.737,1.154,3.51,2.252,5.33,3.258c0.913,0.498,1.849,0.949,2.769,1.425      c0.918,0.482,1.85,0.937,2.803,1.36L16.268,34.431z"
   id="path55" />
			</g>
			<g
   id="g57">
				<path
   fill="#001423"
   d="M48.5,34.606c-0.673,0.034-1.349-0.082-1.976-0.31c-0.311-0.127-0.604-0.295-0.909-0.426      c-0.307-0.126-0.622-0.23-0.941-0.328c-0.321-0.096-0.639-0.204-0.939-0.349c-0.3-0.146-0.579-0.331-0.884-0.466      c-0.619-0.259-1.14-0.704-1.609-1.188l0.025-0.035c0.613,0.273,1.229,0.509,1.767,0.89c0.273,0.183,0.581,0.303,0.874,0.449      c0.293,0.146,0.573,0.318,0.859,0.483c0.287,0.164,0.583,0.313,0.896,0.414c0.314,0.101,0.645,0.15,0.966,0.216      c0.636,0.167,1.249,0.356,1.879,0.607L48.5,34.606z"
   id="path59" />
			</g>
		</g>
	</g>
	<g
   id="belt"
   clip-path="url(#torso_3_)">
		
			<rect
   x="0"
   y="36.935"
   fill="#692E14"
   stroke="#001423"
   stroke-width="0.7087"
   stroke-miterlimit="10"
   width="53.857"
   height="5.563"
   id="rect62" />
		<g
   id="g64">
			<g
   id="g66">
				<g
   id="g68">
					
						<line
   fill="none"
   stroke="#7D5237"
   stroke-width="0.2835"
   stroke-linecap="round"
   stroke-linejoin="round"
   x1="38.626"
   y1="37.934"
   x2="39.051"
   y2="37.934"
   id="line70" />
					
						<line
   fill="none"
   stroke="#7D5237"
   stroke-width="0.2835"
   stroke-linecap="round"
   stroke-linejoin="round"
   stroke-dasharray="0.8636,1.4393"
   x1="40.49"
   y1="37.934"
   x2="51.285"
   y2="37.934"
   id="line72" />
					
						<line
   fill="none"
   stroke="#7D5237"
   stroke-width="0.2835"
   stroke-linecap="round"
   stroke-linejoin="round"
   x1="52.005"
   y1="37.934"
   x2="52.429"
   y2="37.934"
   id="line74" />
				</g>
				<g
   id="g76">
					
						<line
   fill="none"
   stroke="#7D5237"
   stroke-width="0.2835"
   stroke-linecap="round"
   stroke-linejoin="round"
   x1="38.626"
   y1="41.518"
   x2="39.051"
   y2="41.518"
   id="line78" />
					
						<line
   fill="none"
   stroke="#7D5237"
   stroke-width="0.2835"
   stroke-linecap="round"
   stroke-linejoin="round"
   stroke-dasharray="0.908,1.5133"
   x1="40.564"
   y1="41.518"
   x2="51.914"
   y2="41.518"
   id="line80" />
					
						<line
   fill="none"
   stroke="#7D5237"
   stroke-width="0.2835"
   stroke-linecap="round"
   stroke-linejoin="round"
   x1="52.671"
   y1="41.518"
   x2="53.095"
   y2="41.518"
   id="line82" />
				</g>
			</g>
		</g>
		<polyline
   fill="#692E14"
   stroke="#001423"
   stroke-width="0.7087"
   stroke-linejoin="round"
   stroke-miterlimit="10"
   points="    36.263,36.935 38.842,37.573 39.136,40.512 37.504,42.973 34.991,42.497   "
   id="polyline84" />
		<g
   id="g86">
			<g
   id="g88">
				
					<line
   fill="none"
   stroke="#7D5237"
   stroke-width="0.2835"
   stroke-linecap="round"
   stroke-linejoin="round"
   x1="0.595"
   y1="41.518"
   x2="1.021"
   y2="41.518"
   id="line90" />
				
					<polyline
   fill="none"
   stroke="#7D5237"
   stroke-width="0.2835"
   stroke-linecap="round"
   stroke-linejoin="round"
   stroke-dasharray="0.8545,1.4243"
   points="      2.445,41.518 35.405,41.518 35.906,41.613     "
   id="polyline92" />
				<polyline
   fill="none"
   stroke="#7D5237"
   stroke-width="0.2835"
   stroke-linecap="round"
   stroke-linejoin="round"
   points="      36.605,41.745 37.023,41.824 37.259,41.47     "
   id="polyline94" />
				
					<polyline
   fill="none"
   stroke="#7D5237"
   stroke-width="0.2835"
   stroke-linecap="round"
   stroke-linejoin="round"
   stroke-dasharray="0.6818,1.1364"
   points="      37.886,40.523 38.075,40.239 37.984,39.334     "
   id="polyline96" />
				<polyline
   fill="none"
   stroke="#7D5237"
   stroke-width="0.2835"
   stroke-linecap="round"
   stroke-linejoin="round"
   points="      37.927,38.769 37.885,38.346 37.472,38.243     "
   id="polyline98" />
				
					<line
   fill="none"
   stroke="#7D5237"
   stroke-width="0.2835"
   stroke-linecap="round"
   stroke-linejoin="round"
   stroke-dasharray="0.8648,1.4413"
   x1="36.069"
   y1="37.934"
   x2="2.199"
   y2="37.934"
   id="line100" />
				
					<line
   fill="none"
   stroke="#7D5237"
   stroke-width="0.2835"
   stroke-linecap="round"
   stroke-linejoin="round"
   x1="1.479"
   y1="37.934"
   x2="1.053"
   y2="37.934"
   id="line102" />
			</g>
		</g>
		<g
   id="g104">
			<circle
   fill="#001423"
   stroke="#001423"
   stroke-width="0.2835"
   stroke-miterlimit="10"
   cx="21.548"
   cy="39.716"
   r="0.354"
   id="circle106" />
			<circle
   fill="#001423"
   stroke="#001423"
   stroke-width="0.2835"
   stroke-miterlimit="10"
   cx="25.009"
   cy="39.716"
   r="0.354"
   id="circle108" />
			<circle
   fill="#001423"
   stroke="#001423"
   stroke-width="0.2835"
   stroke-miterlimit="10"
   cx="32.552"
   cy="39.716"
   r="0.354"
   id="circle110" />
		</g>
		<g
   id="g112">
			<path
   fill="#96A3A7"
   stroke="#001423"
   stroke-width="0.2835"
   stroke-miterlimit="10"
   d="M30.001,42.989h-6.114     c-0.625,0-1.134-0.501-1.134-1.118v-4.309c0-0.617,0.509-1.118,1.134-1.118h6.114c0.625,0,1.134,0.501,1.134,1.118v4.309     C31.135,42.488,30.626,42.989,30.001,42.989z M23.887,37.293c-0.156,0-0.283,0.121-0.283,0.269v4.309     c0,0.147,0.127,0.269,0.283,0.269h6.114c0.156,0,0.284-0.121,0.284-0.269v-4.309c0-0.147-0.128-0.269-0.284-0.269H23.887z"
   id="path114" />
			<path
   fill="#96A3A7"
   stroke="#001423"
   stroke-width="0.2835"
   stroke-miterlimit="10"
   d="M30.57,40.071h-3.5     c-0.196,0-0.354-0.159-0.354-0.354s0.159-0.354,0.354-0.354h3.5c0.195,0,0.354,0.159,0.354,0.354S30.765,40.071,30.57,40.071z"
   id="path116" />
		</g>
	</g>
	<path
   clip-path="url(#torso_3_)"
   fill="#692E14"
   stroke="#001423"
   stroke-width="0.5669"
   stroke-miterlimit="10"
   d="M53.237,40.444   c-1.088-0.271-26.81-7.003-40.741-39.891l2.61-1.105C28.459,30.97,53.67,37.63,53.923,37.694L53.237,40.444z"
   id="path118" />
	<g
   id="shoulders"
   clip-path="url(#torso_3_)">
		<g
   id="g121">
			<polygon
   fill="#004A2D"
   points="48.293,-0.333 45.916,8.317 44.52,12.4 42.621,11.172 38.054,6.915 34.934,4.561 37.309,-0.758         "
   id="polygon123" />
			<path
   fill="none"
   stroke="#001423"
   stroke-width="0.7087"
   stroke-miterlimit="10"
   d="M36.082,0.431c0,0,2.219,2.863,3.192,2.553     c0.976-0.31,1.084-3.915,1.084-3.915 M40.358-0.93c0,0,2.171,2.878,3.146,2.568c0.974-0.31,1.13-3.929,1.13-3.929 M34.91,4.346     c0,0,2.17,2.878,3.145,2.568c0.974-0.311,1.13-3.93,1.13-3.93 M39.15,2.996c0,0,2.218,2.863,3.192,2.553     c0.974-0.31,1.083-3.915,1.083-3.915 M43.426,1.635c0,0,2.17,2.878,3.145,2.568c0.975-0.311,1.13-3.93,1.13-3.93 M38.285,7.014     c0,0,2.171,2.878,3.146,2.568c0.975-0.31,1.129-3.929,1.129-3.929 M42.525,5.664c0,0,2.219,2.863,3.193,2.553     c0.974-0.31,1.082-3.915,1.082-3.915 M41.22,9.753c0,0,2.171,2.878,3.146,2.568s1.13-3.93,1.13-3.93"
   id="path125" />
		</g>
		<g
   id="g127">
			<polygon
   fill="#004A2D"
   points="5.561,-0.333 7.939,8.317 9.335,12.401 11.235,11.172 15.803,6.915 18.925,4.561 16.549,-0.758         "
   id="polygon129" />
			<path
   fill="none"
   stroke="#001423"
   stroke-width="0.7087"
   stroke-miterlimit="10"
   d="M13.499-0.93c0,0,0.108,3.604,1.084,3.915     c0.974,0.31,3.193-2.553,3.193-2.553 M9.222-2.292c0,0,0.156,3.619,1.13,3.929c0.975,0.311,3.146-2.568,3.146-2.568      M14.673,2.985c0,0,0.156,3.619,1.13,3.93c0.975,0.31,3.146-2.568,3.146-2.568 M10.43,1.635c0,0,0.109,3.604,1.083,3.915     c0.975,0.31,3.194-2.553,3.194-2.553 M6.155,0.274c0,0,0.155,3.619,1.13,3.93c0.975,0.31,3.146-2.568,3.146-2.568 M11.297,5.653     c0,0,0.154,3.619,1.129,3.929c0.975,0.311,3.146-2.568,3.146-2.568 M7.054,4.303c0,0,0.108,3.604,1.083,3.915     c0.975,0.31,3.194-2.553,3.194-2.553 M8.359,8.391c0,0,0.155,3.62,1.13,3.929c0.975,0.311,3.146-2.568,3.146-2.568"
   id="path131" />
		</g>
	</g>
	<g
   id="tunik_2_1_"
   clip-path="url(#torso_3_)">
		<g
   id="tunik_2">
			<path
   fill="#A72D82"
   d="M42.522,6.312l-0.756-0.474l1.11-1.163l-0.674-1.087l0.637-1.107L42.397,1.05h-5.883     c-0.079,1.482-4.337,2.96-9.586,2.96c-5.248,0-9.505-1.478-9.586-2.959H11.82l0.414,1.416l-1.475,1.253l1.438,0.572l-0.716,0.779     l1.033,1.248l-0.5,0.917l1.25,1.008l-1.051,0.642l-0.25,2.842l0.726-0.527l-0.165,1.172l0.95,1.003l-0.607,1.387l1.008,3.457     l1.099-0.258l0.671,1.45l1.035,1.116l1.318,2.471l0.657-0.596l0.958,2.311l0.572,0.728l0.286-0.955l0.592-0.692l0.527,1.909     l1.172-0.075l0.777,0.744l1.024-1.053l0.574,2.5l0.941-0.042l1.059-0.708l1.472,1.125l0.874,1.897l0.519-1.104l0.496-0.574     l0.276-1.631l0.802-0.623l1.399,0.931l1.939-3.063l0.46-1.845l0.813,0.647l2.026-3.413l0.719,0.602l0.358-2.245l0.871,0.749     l0.376-2.415l0.315-1.123l0.58-0.871l0.848,0.709l-0.34-2.112L41.63,11.9l1.022-1.852l-1.041-0.436l1.113-0.917L42.522,6.312z"
   id="path135" />
			<path
   fill="#001423"
   d="M42.252,6.477l-0.636-0.398l-0.295-0.185l0.24-0.251l1.11-1.163l-0.036,0.345l-0.674-1.087l-0.089-0.144     l0.084-0.147l0.637-1.107l-0.024,0.225l-0.442-1.431l0.271,0.2h-5.883l0.283-0.269c-0.063,0.613-0.483,0.977-0.845,1.253     c-0.379,0.281-0.788,0.483-1.201,0.664c-0.829,0.355-1.689,0.593-2.556,0.783c-1.734,0.371-3.502,0.525-5.267,0.529     c-1.765-0.004-3.533-0.158-5.268-0.528c-0.866-0.189-1.726-0.428-2.555-0.783c-0.413-0.181-0.822-0.383-1.202-0.664     c-0.361-0.275-0.782-0.639-0.845-1.252l0.283,0.268H11.82l0.272-0.363l0.413,1.413l0,0.003l-0.032,0.274l-0.056,0.02     c-0.324,0.116-0.582,0.311-0.813,0.536c-0.243,0.212-0.462,0.451-0.66,0.716l-0.002,0.001l-0.079-0.479l1.438,0.572l0.382,0.152     l-0.279,0.303L11.69,5.261l-0.001,0.002l0.009-0.373l1.031,1.246l0.001,0.002l0.123,0.148L12.76,6.454l-0.5,0.917L12.19,7.014     l1.25,1.008l0.313,0.253l-0.344,0.21l-1.042,0.636l-0.01,0.004l0.134-0.215c-0.18,0.938-0.311,1.882-0.401,2.829l-0.205-0.116     c0.254-0.159,0.484-0.351,0.711-0.547l0.271-0.234l-0.027,0.38c-0.028,0.394-0.051,0.788-0.037,1.188v0.002l-0.075-0.234     l0.95,1.003l0.129,0.136l-0.075,0.172l-0.607,1.385l-0.001,0.001l0.013-0.192c0.045,0.611,0.187,1.195,0.34,1.775     c0.169,0.575,0.35,1.147,0.667,1.68l0,0.001l-0.337-0.196l1.099-0.258l0.225-0.053l0.097,0.209l0.67,1.448l0.001,0.001     l-0.049-0.074c0.365,0.353,0.689,0.745,0.989,1.159l0.032,0.044l0,0.002c0.175,0.435,0.345,0.874,0.575,1.279     c0.232,0.405,0.473,0.806,0.798,1.161l0,0.001l-0.44-0.077l0.657-0.596l0.298-0.271l0.154,0.372l0.958,2.311l-0.039-0.066     l0.571,0.728l-0.494,0.094l0.286-0.955l0.017-0.058l0.039-0.046l0.592-0.692l0.347-0.405l0.142,0.515l0.527,1.909l-0.292-0.208     l1.172-0.075l0.124-0.008l0.09,0.086l0.776,0.744l-0.399,0.007l1.024-1.052l0.363-0.373l0.117,0.507l0.574,2.5l-0.289-0.22     l0.941-0.042l-0.145,0.048l1.059-0.708l0.169-0.113l0.161,0.123l1.472,1.125l0.056,0.043l0.03,0.064l0.874,1.896l-0.515-0.001     l0.519-1.104v-0.001l0.017-0.036l0.025-0.029l0.496-0.574l-0.064,0.138l0.276-1.63l0.019-0.109l0.087-0.067l0.801-0.623h0.001     l0.161-0.125l0.17,0.112l1.398,0.931h0.001l-0.396,0.085c0.396-0.465,0.7-0.986,1.054-1.478c0.293-0.529,0.635-1.028,0.885-1.585     h0.001l-0.036,0.083l0.46-1.845l0.107-0.428l0.345,0.275l0.812,0.647l0.001,0l-0.42,0.077c0.412-0.524,0.776-1.077,1.121-1.642     c0.346-0.563,0.672-1.139,0.904-1.77v0l0.171-0.287l0.255,0.214l0.719,0.602l-0.462,0.172l0.358-2.244l0.08-0.501l0.385,0.331     l0.871,0.749v0l-0.465,0.171l0.376-2.415l0.003-0.017l0.005-0.016l0.314-1.123l0.001,0l0.012-0.043l0.024-0.038l0.58-0.871     l0.176-0.263l0.242,0.203l0.848,0.709v0l-0.462,0.262c-0.008-0.721-0.123-1.424-0.274-2.122l0.012,0.043     c-0.109-0.269-0.231-0.532-0.373-0.787v0l-0.004-0.22l0.021-0.019c0.279-0.248,0.462-0.55,0.625-0.863     c0.162-0.313,0.307-0.636,0.397-0.988l0,0l0.139,0.398l-1.041-0.436l-0.434-0.182l0.363-0.299l1.112-0.917l-0.102,0.243     L42.252,6.477z M42.804,6.288c-0.074,0.406-0.049,0.804-0.019,1.202c0.045,0.396,0.096,0.792,0.221,1.182l0.041,0.125     l-0.144,0.117l-1.112,0.917l-0.071-0.48l1.041,0.436l0.292,0.122L42.9,10.185l0,0l-1.022,1.851l0.017-0.238l0,0l0.312,0.811     l0.011,0.027l0.005,0.029l0.34,2.112l0.12,0.75l-0.582-0.488h-0.001l-0.847-0.709l0.418-0.06l-0.58,0.871l0.036-0.081v0     c-0.196,0.349-0.31,0.72-0.413,1.095l0.005-0.021c-0.092,0.811-0.235,1.613-0.275,2.431l-0.024,0.493l-0.44-0.322h-0.001     l-0.87-0.749l0.465-0.17l-0.358,2.244l-0.079,0.494l-0.383-0.321l-0.719-0.602l0.426-0.072h-0.001l-2.025,3.412l-0.166,0.28     l-0.255-0.203v0l-0.813-0.647l0.452-0.153l-0.46,1.845l-0.012,0.045l-0.024,0.038v0.001l-1.939,3.062l-0.155,0.245l-0.241-0.16     l-0.001-0.001l-1.398-0.93l0.331-0.013l-0.001,0.001c-0.305,0.158-0.597,0.333-0.869,0.534l0.064-0.106     c-0.108,0.54-0.196,1.085-0.271,1.631l-0.005,0.038l-0.035,0.049c-0.15,0.205-0.292,0.416-0.416,0.644l0.042-0.065l-0.001,0.001     l-0.518,1.104l-0.259,0.552l-0.256-0.554l-0.874-1.896l0.086,0.106l-1.472-1.125l0.33,0.01l-1.059,0.708l-0.066,0.044     l-0.079,0.004l-0.941,0.042l-0.236,0.011l-0.053-0.23l-0.574-2.5l0.479,0.135l-1.024,1.052l-0.196,0.202l-0.203-0.194     l-0.776-0.744l0.214,0.078l-1.172,0.075L21.378,26l-0.062-0.223l-0.527-1.909l0.489,0.109l-0.592,0.692l0.056-0.104l-0.286,0.955     l-0.157,0.523l-0.338-0.43l-0.571-0.728l-0.024-0.03l-0.015-0.036l-0.958-2.311l0.452,0.101l-0.657,0.596l-0.27,0.244     l-0.171-0.321l-0.001-0.001c-0.413-0.837-0.814-1.681-1.246-2.508l0.03,0.042c-0.34-0.376-0.691-0.743-1.094-1.061h0l-0.05-0.074     l-0.001-0.001l-0.671-1.448l0.322,0.157l-1.099,0.258l-0.262,0.062l-0.075-0.258l0-0.001l-1.008-3.455l-0.029-0.099l0.041-0.094     l0.001-0.002l0.606-1.385l0.054,0.309l-0.95-1.003l-0.094-0.099l0.019-0.135l0-0.002l0.165-1.17l0.447,0.269l-0.726,0.527     l-0.503,0.365l0.055-0.62l0.25-2.842l0.012-0.143l0.123-0.075l0.008-0.005l1.042-0.636l-0.03,0.462l-1.25-1.008L11.65,7.307     l0.114-0.208l0.5-0.917l0.031,0.316l-0.001-0.002c-0.093-0.273-0.26-0.485-0.421-0.701c-0.183-0.198-0.36-0.402-0.61-0.545     l-0.117-0.067l0.126-0.305l0.001-0.002L11.987,4.1l0.104,0.455l-1.438-0.572l-0.438-0.174l0.359-0.305l0.002-0.001L12.05,2.25     l-0.088,0.295L11.96,2.543L11.548,1.13l-0.106-0.363h0.378h5.523h0.267l0.017,0.269c0.017,0.283,0.292,0.596,0.616,0.827     c0.323,0.24,0.703,0.43,1.089,0.599c0.779,0.333,1.611,0.566,2.451,0.75c1.685,0.36,3.419,0.512,5.148,0.516     c1.729-0.003,3.462-0.156,5.148-0.516c0.84-0.183,1.672-0.416,2.45-0.749c0.387-0.169,0.766-0.359,1.089-0.6     c0.324-0.23,0.599-0.544,0.615-0.827l0.017-0.269h0.267h5.883h0.209l0.062,0.2l0.442,1.431l0.037,0.118l-0.062,0.107L42.449,3.73     l-0.005-0.291l0.674,1.087l0.115,0.187l-0.151,0.159l-1.11,1.163l-0.055-0.436l0.91,0.57L42.804,6.288z"
   id="path137" />
		</g>
		<g
   id="g139">
			<path
   fill="#001423"
   d="M15.263,3.865c1.834,1.195,3.735,2.281,5.742,3.106c2.001,0.827,4.107,1.417,6.257,1.562     c2.145,0.194,4.319-0.084,6.362-0.773c2.039-0.694,3.968-1.786,5.576-3.27c-1.445,1.656-3.363,2.881-5.429,3.681     c-2.074,0.797-4.337,1.084-6.554,0.927c-2.216-0.196-4.385-0.799-6.387-1.729C18.825,6.445,16.961,5.249,15.263,3.865z"
   id="path141" />
		</g>
		<g
   id="g143">
			<path
   fill="#001423"
   d="M15.468,6.561c0.287,0.5,0.681,0.926,1.102,1.308c0.416,0.391,0.872,0.736,1.355,1.036     c0.969,0.6,2.041,1.022,3.141,1.312c1.093,0.321,2.226,0.515,3.367,0.616c1.142,0.088,2.291,0.116,3.443,0.103     c-1.143,0.173-2.303,0.254-3.466,0.207c-1.163-0.043-2.323-0.223-3.458-0.518c-1.121-0.336-2.225-0.786-3.194-1.46     C16.797,8.498,15.932,7.63,15.468,6.561z"
   id="path145" />
		</g>
		<g
   id="g147">
			<path
   fill="#001423"
   d="M23.64,14.35c2.324,0.199,4.683,0.044,6.942-0.492c2.246-0.574,4.401-1.531,6.171-3.067l0.02,0.021     c-0.777,0.881-1.756,1.58-2.802,2.126c-1.057,0.531-2.188,0.9-3.338,1.142c-2.301,0.493-4.675,0.58-6.997,0.299L23.64,14.35z"
   id="path149" />
		</g>
		<g
   id="g151">
			<path
   fill="#001423"
   d="M36.321,8.45c0.348-0.209,0.696-0.368,1.061-0.504c0.377-0.102,0.75-0.246,1.044-0.509     c0.592-0.512,1.153-0.997,1.57-1.659l0.027,0.006c-0.035,0.414-0.263,0.786-0.537,1.081c-0.271,0.305-0.62,0.525-0.977,0.703     c-0.369,0.157-0.692,0.378-1.033,0.593c-0.354,0.179-0.745,0.291-1.146,0.316L36.321,8.45z"
   id="path153" />
		</g>
		<g
   id="g155">
			<path
   fill="#001423"
   d="M25.949,22.191c-1.13,0.026-2.267-0.285-3.253-0.845c-0.996-0.535-1.905-1.25-2.569-2.161l0.023-0.017     c0.721,0.851,1.656,1.498,2.647,1.975c1.013,0.449,2.063,0.748,3.155,1.02L25.949,22.191z"
   id="path157" />
		</g>
		<g
   id="g159">
			<path
   fill="#001423"
   d="M25.388,21.052c0.521,0.027,1.038,0.006,1.55-0.028c0.513-0.039,1.023-0.094,1.525-0.201     c1.011-0.175,1.978-0.523,2.925-0.959c-0.831,0.641-1.843,1.027-2.872,1.237C27.481,21.278,26.406,21.315,25.388,21.052z"
   id="path161" />
		</g>
	</g>
	<path
   id="outline_mask"
   clip-path="url(#torso_3_)"
   fill="none"
   stroke="#001423"
   stroke-width="0.3118"
   d="M0.943,44.131   C9.675-3.163,6.286,1.452,15.21,1.275h23.44c8.927,0.179,5.535-4.438,14.265,42.856H0.943z" />
</g>
<g
   id="legs">
	<path
   id="left_leg_fill"
   connector-curvature="0"
   fill="#68917C"
   stroke="#231F20"
   stroke-width="0.3125"
   d="   M24.099,88.661H1.402v-42.43h22.697V88.661z" />
	<path
   id="right_leg_fill"
   connector-curvature="0"
   fill="#68917C"
   stroke="#231F20"
   stroke-width="0.3125"
   d="   M52.455,88.661H29.758v-42.43h22.697V88.661z" />
	<g
   id="right_leg">
		<defs
   id="defs168">
			<rect
   id="SVGID_1_"
   x="29.899"
   y="46.373"
   width="22.414"
   height="42.146" />
		</defs>
		<clipPath
   id="SVGID_2_">
			<use
   xlink:href="#SVGID_1_"
   overflow="visible"
   id="use172" />
		</clipPath>
		<polygon
   clip-path="url(#SVGID_2_)"
   fill="#004A2D"
   points="53.787,62.821 50.046,69.405 46.608,64.53 41.963,56.425     53.787,48.442   "
   id="polygon174" />
		<path
   clip-path="url(#SVGID_2_)"
   fill="none"
   stroke="#001423"
   stroke-width="0.7087"
   stroke-miterlimit="10"
   d="M43.377,52.031    c0,0,1.245,3.401,2.268,3.401s2.22-3.401,2.22-3.401 M47.864,52.031c0,0,1.195,3.401,2.218,3.401s2.269-3.401,2.269-3.401     M41.071,55.406c0,0,1.195,3.401,2.218,3.401s2.269-3.401,2.269-3.401 M45.521,55.406c0,0,1.245,3.401,2.268,3.401    s2.22-3.401,2.22-3.401 M50.009,55.406c0,0,1.195,3.401,2.218,3.401s2.269-3.401,2.269-3.401 M43.478,58.972    c0,0,1.195,3.401,2.218,3.401s2.269-3.401,2.269-3.401 M47.928,58.972c0,0,1.245,3.401,2.268,3.401s2.22-3.401,2.22-3.401     M45.445,62.472c0,0,1.195,3.401,2.218,3.401s2.269-3.401,2.269-3.401 M49.895,62.472c0,0,1.245,3.401,2.268,3.401    s2.22-3.401,2.22-3.401 M47.708,65.722c0,0,1.245,3.401,2.268,3.401s2.22-3.401,2.22-3.401"
   id="path176" />
		<polygon
   clip-path="url(#SVGID_2_)"
   fill="#A72D82"
   stroke="#001423"
   stroke-width="0.5669"
   stroke-miterlimit="10"
   points="    42.553,58.752 40.965,62.181 39.73,61.791 38.414,63.664 37.397,64.171 36.135,62.226 35.183,63.442 35.592,66.059 34.625,67.667     34.421,66.03 33.713,64.004 32.858,66.546 32.143,64.74 28.373,68.363 28.04,45.077 53.787,44.961 53.645,51.517 50.141,52.18     49.266,52.025 48.559,53.986 47.264,54.047 46.396,55.768 45.644,55.245 45.145,58.296 44.187,58.264 43.268,59.279   "
   id="polygon178" />
		<g
   clip-path="url(#SVGID_2_)"
   id="g180">
			<path
   fill="#001423"
   d="M43.608,47.859c-1.069,0.539-2.2,0.941-3.347,1.286c-1.146,0.349-2.323,0.598-3.512,0.774     c-1.189,0.163-2.395,0.254-3.597,0.199c-1.201-0.049-2.403-0.209-3.545-0.572c1.188,0.132,2.368,0.179,3.546,0.137     c1.177-0.049,2.351-0.152,3.516-0.324C39.005,49.028,41.308,48.493,43.608,47.859z"
   id="path182" />
		</g>
		<g
   clip-path="url(#SVGID_2_)"
   id="g184">
			<path
   fill="#001423"
   d="M40.528,52.263c-0.637,0.371-1.324,0.639-2.021,0.866c-0.698,0.233-1.42,0.39-2.148,0.5     c-0.731,0.099-1.473,0.15-2.212,0.098c-0.737-0.047-1.475-0.17-2.163-0.434C34.901,53.459,37.671,52.879,40.528,52.263z"
   id="path186" />
		</g>
	</g>
	<g
   id="right_leg_1_">
		<defs
   id="defs189">
			<rect
   id="SVGID_3_"
   x="1.545"
   y="46.373"
   width="22.414"
   height="42.146" />
		</defs>
		<clipPath
   id="SVGID_4_">
			<use
   xlink:href="#SVGID_3_"
   overflow="visible"
   id="use193" />
		</clipPath>
		<polygon
   clip-path="url(#SVGID_4_)"
   fill="#004A2D"
   points="0.071,62.775 3.812,69.359 7.25,64.484 11.895,56.379 0.071,48.396       "
   id="polygon195" />
		<path
   clip-path="url(#SVGID_4_)"
   fill="none"
   stroke="#001423"
   stroke-width="0.7087"
   stroke-miterlimit="10"
   d="M5.994,52.031    c0,0,1.197,3.401,2.22,3.401s2.268-3.401,2.268-3.401 M1.508,52.031c0,0,1.246,3.401,2.269,3.401s2.218-3.401,2.218-3.401     M8.301,55.406c0,0,1.246,3.401,2.269,3.401s2.218-3.401,2.218-3.401 M3.849,55.406c0,0,1.197,3.401,2.22,3.401    s2.268-3.401,2.268-3.401 M-0.637,55.406c0,0,1.246,3.401,2.269,3.401s2.218-3.401,2.218-3.401 M5.893,58.972    c0,0,1.246,3.401,2.269,3.401s2.218-3.401,2.218-3.401 M1.442,58.972c0,0,1.197,3.401,2.22,3.401s2.268-3.401,2.268-3.401     M3.927,62.472c0,0,1.246,3.401,2.269,3.401s2.218-3.401,2.218-3.401 M-0.525,62.472c0,0,1.197,3.401,2.22,3.401    s2.268-3.401,2.268-3.401 M1.663,65.722c0,0,1.197,3.401,2.22,3.401s2.268-3.401,2.268-3.401"
   id="path197" />
		<polygon
   clip-path="url(#SVGID_4_)"
   fill="#A72D82"
   stroke="#001423"
   stroke-width="0.5669"
   stroke-miterlimit="10"
   points="    11.304,58.752 11.983,59.842 12.871,59.283 13.921,61.53 14.608,61.03 14.308,63.717 15.421,62.967 15.483,64.53 17.395,64.706     18.088,65.23 19.058,65.541 20.546,66.155 21.858,64.217 22.546,66.405 25.485,68.363 25.818,45.077 0.071,44.961 0.213,51.517     3.717,52.18 4.592,52.025 5.299,53.986 6.358,55.28 7.671,53.53 7.733,55.968 8.717,56.966 9.292,60.128 10.612,59.8   "
   id="polygon199" />
		<g
   clip-path="url(#SVGID_4_)"
   id="g201">
			<path
   fill="#001423"
   d="M6.746,48.317c1.166,0.345,2.294,0.722,3.413,1.149c0.553,0.23,1.103,0.485,1.675,0.668     s1.165,0.299,1.76,0.381c2.388,0.325,4.724,0.563,7.137,0.799l0.003,0.057c-2.402,0.47-4.898,0.173-7.208-0.553     c-0.58-0.18-1.155-0.364-1.742-0.506c-0.587-0.144-1.189-0.243-1.777-0.399c-1.16-0.349-2.283-0.844-3.287-1.545L6.746,48.317z"
   id="path203" />
		</g>
		<g
   clip-path="url(#SVGID_4_)"
   id="g205">
			<path
   fill="#001423"
   d="M9.437,50.631l1.413,0.454c0.46,0.147,0.9,0.355,1.368,0.501c0.936,0.279,1.916,0.441,2.912,0.495     l0.002,0.057c-0.997,0.11-2.019,0.081-3.021-0.111c-0.5-0.091-1.013-0.188-1.476-0.417c-0.452-0.244-0.903-0.511-1.231-0.932     L9.437,50.631z"
   id="path207" />
		</g>
	</g>
</g>
</svg>