<?xml version="1.0" encoding="UTF-8" standalone="no"?>
<!-- Created with Inkscape (http://www.inkscape.org/) -->

<svg
   xmlns:dc="http://purl.org/dc/elements/1.1/"
   xmlns:cc="http://creativecommons.org/ns#"
   xmlns:rdf="http://www.w3.org/1999/02/22-rdf-syntax-ns#"
   xmlns:svg="http://www.w3.org/2000/svg"
   xmlns="http://www.w3.org/2000/svg"
   xmlns:xlink="http://www.w3.org/1999/xlink"
   xmlns:sodipodi="http://sodipodi.sourceforge.net/DTD/sodipodi-0.dtd"
   xmlns:inkscape="http://www.inkscape.org/namespaces/inkscape"
   width="146.60919"
   height="87.115959"
   id="svg2"
   version="1.1"
   inkscape:version="0.48.2 r9819"
   sodipodi:docname="grim_reaper.svg"
   inkscape:export-filename="C:\Dokumente und Einstellungen\John\Desktop\minifigs\done\grim_reaper.png"
   inkscape:export-xdpi="1700"
   inkscape:export-ydpi="1700">
  <defs
     id="defs4">
    <linearGradient
       inkscape:collect="always"
       id="linearGradient4011">
      <stop
         style="stop-color:#ffffff;stop-opacity:1;"
         offset="0"
         id="stop4013" />
      <stop
         style="stop-color:#ffffff;stop-opacity:0;"
         offset="1"
         id="stop4015" />
    </linearGradient>
    <linearGradient
       inkscape:collect="always"
       id="linearGradient3997">
      <stop
         style="stop-color:#ffffff;stop-opacity:1;"
         offset="0"
         id="stop3999" />
      <stop
         style="stop-color:#ffffff;stop-opacity:0;"
         offset="1"
         id="stop4001" />
    </linearGradient>
    <inkscape:path-effect
       effect="skeletal"
       id="path-effect4237"
       is_visible="true"
       pattern="M 0,5 C 0,2.24 2.24,0 5,0 7.76,0 10,2.24 10,5 10,7.76 7.76,10 5,10 2.24,10 0,7.76 0,5 z"
       copytype="single_stretched"
       prop_scale="1"
       scale_y_rel="false"
       spacing="0"
       normal_offset="0"
       tang_offset="0"
       prop_units="false"
       vertical_pattern="false"
       fuse_tolerance="0" />
    <clipPath
       id="clipPath2999"
       clipPathUnits="userSpaceOnUse">
      <path
         id="path3001"
         d="M 0,792 612,792 612,0 0,0 0,792 z"
         inkscape:connector-curvature="0" />
    </clipPath>
    <radialGradient
       gradientUnits="userSpaceOnUse"
       gradientTransform="matrix(0.75988491,-0.03632001,0.13155835,2.7524547,16.986326,-78.268899)"
       r="12.650181"
       fy="46.658409"
       fx="96.306435"
       cy="46.658409"
       cx="96.306435"
       id="radialGradient3972"
       xlink:href="#linearGradient3966"
       inkscape:collect="always" />
    <clipPath
       clipPathUnits="userSpaceOnUse"
       id="clipPath2999-4">
      <path
         inkscape:connector-curvature="0"
         d="M 0,792 612,792 612,0 0,0 0,792 z"
         id="path3001-0" />
    </clipPath>
    <linearGradient
       id="linearGradient3966">
      <stop
         id="stop3968"
         offset="0"
         style="stop-color:#c0ac02;stop-opacity:1;" />
      <stop
         id="stop3970"
         offset="1"
         style="stop-color:#fdea41;stop-opacity:0;" />
    </linearGradient>
    <radialGradient
       inkscape:collect="always"
       xlink:href="#linearGradient3997"
       id="radialGradient4003"
       cx="165.81134"
       cy="47.693741"
       fx="165.81134"
       fy="47.693741"
       r="3.8123069"
       gradientTransform="matrix(0.64374811,-0.18781617,0.31213841,1.069868,43.640483,27.15595)"
       gradientUnits="userSpaceOnUse" />
    <radialGradient
       inkscape:collect="always"
       xlink:href="#linearGradient3997"
       id="radialGradient4007"
       gradientUnits="userSpaceOnUse"
       gradientTransform="matrix(-0.64374811,-0.18781617,-0.31213841,1.069868,293.73143,27.15595)"
       cx="165.81134"
       cy="47.693741"
       fx="165.81134"
       fy="47.693741"
       r="3.8123069" />
    <radialGradient
       inkscape:collect="always"
       xlink:href="#linearGradient4011"
       id="radialGradient4017"
       cx="169.32254"
       cy="41.784931"
       fx="169.32254"
       fy="41.784931"
       r="6.982676"
       gradientTransform="matrix(0.31036379,-0.01814613,0.03701409,0.63307367,114.75293,21.468668)"
       gradientUnits="userSpaceOnUse" />
    <linearGradient
       id="linearGradient3966-2">
      <stop
         style="stop-color:#c0ac02;stop-opacity:1;"
         offset="0"
         id="stop3968-4" />
      <stop
         style="stop-color:#fdea41;stop-opacity:0;"
         offset="1"
         id="stop3970-5" />
    </linearGradient>
    <clipPath
       id="clipPath2999-4-8"
       clipPathUnits="userSpaceOnUse">
      <path
         id="path3001-0-8"
         d="M 0,792 612,792 612,0 0,0 0,792 z"
         inkscape:connector-curvature="0" />
    </clipPath>
    <radialGradient
       inkscape:collect="always"
       xlink:href="#linearGradient3966-2"
       id="radialGradient3972-4"
       cx="96.306435"
       cy="46.658409"
       fx="96.306435"
       fy="46.658409"
       r="12.650181"
       gradientTransform="matrix(0.75988491,-0.03632001,0.13155835,2.7524547,16.986326,-78.268899)"
       gradientUnits="userSpaceOnUse" />
    <clipPath
       clipPathUnits="userSpaceOnUse"
       id="clipPath2999-0">
      <path
         inkscape:connector-curvature="0"
         d="M 0,792 612,792 612,0 0,0 0,792 z"
         id="path3001-9" />
    </clipPath>
    <inkscape:path-effect
       fuse_tolerance="0"
       vertical_pattern="false"
       prop_units="false"
       tang_offset="0"
       normal_offset="0"
       spacing="0"
       scale_y_rel="false"
       prop_scale="1"
       copytype="single_stretched"
       pattern="M 0,5 C 0,2.24 2.24,0 5,0 7.76,0 10,2.24 10,5 10,7.76 7.76,10 5,10 2.24,10 0,7.76 0,5 z"
       is_visible="true"
       id="path-effect4237-4"
       effect="skeletal" />
  </defs>
  <sodipodi:namedview
     id="base"
     pagecolor="#ffffff"
     bordercolor="#666666"
     borderopacity="1.0"
     inkscape:pageopacity="0.0"
     inkscape:pageshadow="2"
     inkscape:zoom="2.96"
     inkscape:cx="20.753803"
     inkscape:cy="48.118106"
     inkscape:document-units="px"
     inkscape:current-layer="layer1"
     showgrid="false"
     fit-margin-top="0"
     fit-margin-left="0"
     fit-margin-right="0"
     fit-margin-bottom="0"
     inkscape:window-width="1280"
     inkscape:window-height="968"
     inkscape:window-x="-4"
     inkscape:window-y="-4"
     inkscape:window-maximized="1"
     showguides="true"
     inkscape:guide-bbox="true"
     inkscape:snap-global="false">
    <sodipodi:guide
       orientation="0,1"
       position="11.28133,33.946262"
       id="guide3274" />
    <sodipodi:guide
       orientation="1,0"
       position="26.13159,39.062964"
       id="guide3960" />
  </sodipodi:namedview>
  <metadata
     id="metadata7">
    <rdf:RDF>
      <cc:Work
         rdf:about="">
        <dc:format>image/svg+xml</dc:format>
        <dc:type
           rdf:resource="http://purl.org/dc/dcmitype/StillImage" />
        <dc:title></dc:title>
      </cc:Work>
    </rdf:RDF>
  </metadata>
  <g
     inkscape:groupmode="layer"
     id="layer3"
     inkscape:label="grim reaper"
     transform="translate(-142.76812,6.1e-4)">
    <g
       inkscape:groupmode="layer"
       id="layer6"
       inkscape:label="bg"
       style="display:inline"
       sodipodi:insensitive="true">
      <path
         transform="translate(-218.16938,-378.37561)"
         id="path4096"
         style="fill:#1b2a34;stroke:#231f20;stroke-width:0.3125;stroke-linecap:butt;stroke-linejoin:miter;stroke-miterlimit:4;stroke-opacity:1;stroke-dasharray:none;display:inline"
         d="m 361.13813,452.9203 c 8.7325,-47.29375 5.3425,-42.67875 14.2675,-42.85625 l 23.44,0 c 8.92625,0.1775 5.535,-4.4375 14.265,42.85625 l -51.9725,0 z"
         inkscape:connector-curvature="0" />
    </g>
    <g
       inkscape:groupmode="layer"
       id="layer7"
       inkscape:label="muscle"
       sodipodi:insensitive="true">
      <path
         style="font-size:medium;font-style:normal;font-variant:normal;font-weight:normal;font-stretch:normal;text-indent:0;text-align:start;text-decoration:none;line-height:normal;letter-spacing:normal;word-spacing:normal;text-transform:none;direction:ltr;block-progression:tb;writing-mode:lr-tb;text-anchor:start;baseline-shift:baseline;color:#000000;fill:#635f61;fill-opacity:1;stroke:#635f61;stroke-width:0.25;stroke-miterlimit:4;stroke-dasharray:none;marker:none;visibility:visible;display:inline;overflow:visible;enable-background:accumulate;font-family:Sans;-inkscape-font-specification:Sans"
         d="m 156.79211,32.770219 c -0.2043,0.0028 -0.40763,0.0094 -0.6067,0.01568 -0.7963,0.02502 -1.55005,0.0816 -2.23331,0.183058 -1.36652,0.202912 -2.47605,0.551378 -2.79294,1.495844 0.58861,-0.552233 1.11648,-0.855634 2.77202,-1.072196 1.30098,-0.17018 3.03397,0.01177 4.71243,0.07322 3.35693,0.122897 6.95196,0.619158 8.77632,0.894368 0.59396,0.0896 0.96421,0.378811 1.15065,0.611937 0.15222,0.223397 0.25707,0.85831 0.35194,0.879574 0.12696,0.02845 0.23608,-0.628349 0.4169,-0.874344 0.18482,-0.234105 0.55163,-0.526801 1.15067,-0.617167 1.82436,-0.27521 5.41937,-0.771471 8.7763,-0.894368 1.67847,-0.06146 3.41145,-0.243403 4.71244,-0.07322 1.65553,0.216562 2.1834,0.519963 2.77202,1.072196 -0.31689,-0.944466 -1.42642,-1.292932 -2.79294,-1.495844 -0.68326,-0.101456 -1.43701,-0.158041 -2.23331,-0.183058 -0.39815,-0.0125 -0.80872,-0.01884 -1.22387,-0.01568 -0.41516,0.0032 -0.83488,0.0158 -1.26048,0.03138 -3.40484,0.124651 -7.01393,0.617464 -8.84954,0.894368 -0.62788,0.09472 -1.113,0.343414 -1.43308,0.659008 -0.32002,-0.316854 -0.80869,-0.56403 -1.43831,-0.659008 -1.8356,-0.276903 -5.44471,-0.769717 -8.84954,-0.894368 -0.4256,-0.01558 -0.84533,-0.02823 -1.26048,-0.03138 -0.20758,-0.0015 -0.41286,-0.0028 -0.61717,0 z m 30.08946,22.599792 c -0.0255,-0.28171 -0.0584,-0.563018 -0.0941,-0.842068 -0.0445,-0.347662 -0.0975,-0.685645 -0.1569,-1.004196 0.9791,-0.241019 1.95689,-0.918176 2.74587,-1.990105 -1.16903,0.522892 -2.09609,1.121283 -2.88708,1.331096 -0.009,-0.0343 -0.0173,-0.0712 -0.0262,-0.104604 -0.13385,-0.50625 -0.25245,-0.894828 -0.52825,-1.161115 -0.1794,-0.173206 -0.37203,-0.304035 -0.55964,-0.402727 0.73615,-0.215717 1.36306,-0.435307 1.82013,-0.659008 0.65778,-0.321932 1.03242,-0.983339 1.20817,-1.773042 0.17577,-0.789712 0.17939,-1.737316 -0.25104,-2.740639 -0.24262,1.027367 -0.25228,1.918187 -0.40274,2.594194 -0.15044,0.676 -0.42079,1.109271 -0.84728,1.318017 -1.16256,0.568989 -3.93552,1.236719 -6.91436,1.7835 -2.97883,0.546781 -6.19061,0.990945 -8.3422,1.197722 -0.58786,0.05652 -1.04195,-0.182942 -1.41216,-0.591011 -0.37021,-0.408068 -1.14284,-1.653425 -1.25002,-2.186234 l -0.0261,0.162135 -0.0314,-0.162135 c -0.10719,0.532809 -0.87982,1.778166 -1.25003,2.186234 -0.37021,0.408069 -0.8243,0.647511 -1.41216,0.591011 -2.15158,-0.206777 -5.36336,-0.650941 -8.3422,-1.197722 -2.97883,-0.546781 -5.7518,-1.214511 -6.91435,-1.7835 -0.42651,-0.208746 -0.69684,-0.642017 -0.8473,-1.318017 -0.15045,-0.676007 -0.1601,-1.566827 -0.40272,-2.594194 l -4e-5,0 c -0.43043,1.003323 -0.42682,1.950927 -0.25105,2.740639 0.17576,0.789703 0.5504,1.45111 1.20818,1.773042 0.45705,0.223701 1.08398,0.443291 1.82011,0.659008 -0.1876,0.09869 -0.38023,0.229521 -0.55963,0.402727 -0.27581,0.266287 -0.39439,0.654865 -0.52825,1.161115 -0.009,0.03337 -0.0175,0.07028 -0.0262,0.104604 -0.79099,-0.209813 -1.71806,-0.808204 -2.88708,-1.331096 0.78897,1.071929 1.76677,1.749086 2.74586,1.990105 -0.0594,0.318551 -0.11235,0.656534 -0.1569,1.004196 -0.0357,0.27905 -0.0686,0.560358 -0.0941,0.842068 -0.79441,-0.205922 -1.72733,-0.808212 -2.90277,-1.336321 0.82434,1.100736 1.83669,1.799195 2.85047,2.016254 -0.0452,0.771639 -0.0384,1.487751 0.0314,2.0084 0.0748,0.557741 0.50201,1.004992 1.05127,1.422621 0.54926,0.417637 1.25205,0.802325 1.98749,1.134958 0.73543,0.33264 1.48911,0.681056 2.181,0.805453 0.60436,0.108672 1.01056,0.463142 1.32848,0.753154 0.11922,0.633649 0.32576,1.256545 0.58578,1.720744 0.21918,0.39128 0.39478,0.77366 0.67993,1.098351 0.2044,0.232742 0.47908,0.42069 0.82637,0.523022 -0.31024,0.282305 -0.49199,0.685946 -0.57532,1.16634 -0.1533,0.883749 -0.27502,1.909062 0.24059,2.829552 0.21918,0.391279 0.39478,0.773652 0.67993,1.098342 0.13086,0.149002 0.29176,0.280402 0.48118,0.381811 -0.0361,0.027 -0.0709,0.05334 -0.10461,0.0837 -0.31365,0.282531 -0.49672,0.688302 -0.58055,1.171572 -0.13304,0.766993 -0.23729,1.634833 0.0732,2.452975 l 0.727,0 c -0.35821,-0.682482 -0.28504,-1.507039 -0.14121,-2.337913 l 0,-0.0051 c 0.0667,-0.384646 0.19592,-0.626512 0.37134,-0.78453 0.17544,-0.158017 0.41342,-0.251392 0.78454,-0.261515 0.45363,-0.01241 1.65686,-0.09588 2.88185,-0.167369 1.22498,-0.07145 2.49495,-0.125 2.89754,-0.08891 0.43261,0.03883 0.71267,0.154109 0.89438,0.308588 0.18169,0.15447 0.28773,0.357934 0.33995,0.643318 3.4e-4,0.0017 -3.2e-4,0.0033 0,0.0051 -0.11546,0.666607 -0.186,1.401413 -0.0314,2.29084 0.004,0.01946 0.0114,0.03824 0.0157,0.05753 -0.05,0.119063 -0.11158,0.231575 -0.18304,0.339962 l 0.28766,0 0.49687,0 0.28765,0 c -0.0715,-0.108387 -0.13304,-0.220899 -0.18306,-0.339962 0.004,-0.01929 0.0119,-0.03808 0.0157,-0.05753 0.15463,-0.889427 0.0841,-1.624233 -0.0314,-2.29084 -3.2e-4,-0.0017 3.4e-4,-0.0033 0,-0.0051 0.0522,-0.285384 0.15828,-0.488848 0.33997,-0.643318 0.18171,-0.154479 0.46177,-0.269802 0.89438,-0.308588 0.40258,-0.03606 1.67257,0.01744 2.89754,0.08891 1.22499,0.07145 2.42822,0.155 2.88185,0.167369 0.37112,0.01006 0.6091,0.103498 0.78453,0.261515 0.17543,0.158018 0.30462,0.399884 0.37135,0.78453 l 0,0.0051 c 0.14383,0.830874 0.217,1.655431 -0.14121,2.337913 l 0.727,0 c 0.31051,-0.818142 0.20625,-1.685982 0.0732,-2.452975 -0.0838,-0.48327 -0.2669,-0.889041 -0.58056,-1.171572 -0.0336,-0.03037 -0.0685,-0.0567 -0.1046,-0.0837 0.18942,-0.101409 0.35033,-0.232809 0.48118,-0.381811 0.28515,-0.32469 0.46075,-0.707063 0.67993,-1.098342 0.51561,-0.92049 0.39388,-1.945803 0.24059,-2.829552 -0.0833,-0.480394 -0.26508,-0.884035 -0.57533,-1.16634 0.3473,-0.102332 0.62198,-0.29028 0.82638,-0.523022 0.28515,-0.324691 0.46075,-0.707071 0.67993,-1.098351 0.26002,-0.464199 0.46656,-1.087095 0.58578,-1.720744 0.31792,-0.290012 0.72413,-0.644482 1.32848,-0.753154 0.69189,-0.124397 1.44558,-0.472813 2.18101,-0.805453 0.73544,-0.332633 1.43823,-0.717321 1.98749,-1.134958 0.54925,-0.417629 0.97649,-0.86488 1.05126,-1.422621 0.0698,-0.520649 0.0766,-1.236761 0.0314,-2.0084 1.01378,-0.217059 2.02612,-0.915518 2.85047,-2.016254 -1.17544,0.528109 -2.10835,1.130399 -2.90277,1.336321 z m -17.92396,-4.001117 c 0.15723,0.50188 0.41089,1.000832 0.7793,1.40693 0.47407,0.522545 1.1598,0.888723 1.9718,0.810678 2.17967,-0.209476 5.40056,-0.657666 8.39974,-1.208179 1.48122,-0.271889 2.89735,-0.563075 4.11618,-0.868217 l 0,0.05233 c 0,0 0.70303,-0.0051 1.24479,0.517788 0.0475,0.04588 0.22271,0.3893 0.3452,0.852527 0.12249,0.463226 0.22868,1.055353 0.30858,1.678903 0.1598,1.247077 0.21203,2.634668 0.11507,3.357799 -0.0311,0.231786 -0.30836,0.608027 -0.79499,0.978055 -0.48665,0.37002 -1.15265,0.738052 -1.85674,1.056502 -1.44081,0.646698 -2.1074,0.939914 -3.23226,0.104605 -0.049,-0.257843 -0.10397,-0.470037 -0.21967,-0.679925 -0.16415,-0.297728 -0.41843,-0.538553 -0.85253,-0.904832 -0.1732,-0.146127 -0.38558,-0.239853 -0.66947,-0.345195 -0.2839,-0.105343 -0.6288,-0.21004 -1.0199,-0.313814 -0.78217,-0.20754 -1.74394,-0.408999 -2.70925,-0.580554 -0.9653,-0.171553 -1.93631,-0.312135 -2.73016,-0.392268 -0.39696,-0.04008 -0.74863,-0.06189 -1.04082,-0.06801 -0.0731,-0.0017 -0.13923,-0.0051 -0.20398,-0.0051 -0.19426,1.51e-4 -0.35724,0.01367 -0.50734,0.05753 -0.49372,0.144188 -0.88081,0.287404 -1.18726,0.517789 -0.0984,0.07397 -0.18119,0.162127 -0.25628,0.256282 -0.0753,-0.09459 -0.16275,-0.182037 -0.2615,-0.256282 -0.30647,-0.230385 -0.69356,-0.373601 -1.18728,-0.517789 -0.1501,-0.04386 -0.31308,-0.05737 -0.50731,-0.05753 -0.0647,-5.1e-5 -0.13095,0.0033 -0.20398,0.0051 -0.29222,0.0058 -0.64389,0.02793 -1.04082,0.06801 -0.79388,0.08018 -1.76486,0.220715 -2.73017,0.392268 -0.96531,0.171555 -1.92708,0.373014 -2.70927,0.580554 -0.39108,0.103774 -0.73598,0.208471 -1.01988,0.313814 -0.28391,0.105342 -0.49628,0.199068 -0.66947,0.345195 -0.43412,0.366279 -0.68838,0.607104 -0.85253,0.904832 -0.11572,0.209888 -0.17061,0.422082 -0.21967,0.679925 -1.12486,0.83531 -1.79147,0.542095 -3.23228,-0.104603 -0.70407,-0.318451 -1.37009,-0.686482 -1.85672,-1.056502 -0.48665,-0.370028 -0.76394,-0.74627 -0.79501,-0.978055 -0.097,-0.723131 -0.0447,-2.110723 0.11508,-3.357799 0.0799,-0.623542 0.18609,-1.215677 0.30858,-1.678903 0.12249,-0.463227 0.29767,-0.806637 0.3452,-0.852527 0.54177,-0.523072 1.24479,-0.517788 1.24479,-0.517788 l 0,-0.05233 c 1.21884,0.305142 2.63496,0.596327 4.11617,0.868216 2.99917,0.550514 6.22006,0.998703 8.39975,1.20818 0.812,0.07808 1.49772,-0.288133 1.9718,-0.810678 0.36849,-0.406181 0.6273,-0.904949 0.78452,-1.40693 z m -2.14439,6.124588 c 0.26462,-0.0058 0.46732,0.01442 0.50733,0.02617 0.46684,0.136339 0.78528,0.266966 0.97282,0.40796 0.18755,0.140993 0.27305,0.274547 0.32428,0.554404 8.4e-4,0.0042 -8.4e-4,0.01627 0,0.02097 -0.13931,0.961433 -0.20452,3.627617 -0.0314,4.62351 0.006,0.03573 0.0187,0.06944 0.0262,0.104604 -0.20543,0.671403 -0.77736,1.240174 -1.10881,1.359857 0.0152,-0.0058 -0.15179,0.02826 -0.36089,0.05233 -0.20909,0.02399 -0.48813,0.04939 -0.81068,0.07321 -0.6451,0.04772 -1.46734,0.09396 -2.30653,0.130754 -1.67838,0.07355 -3.46001,0.108646 -3.88605,0.07841 -0.42816,-0.03036 -0.62152,-0.155233 -0.81592,-0.376578 -0.19364,-0.220488 -0.36491,-0.564727 -0.59624,-0.978046 l 0,-0.0051 c -0.39514,-0.70542 -0.70122,-2.265948 -0.57533,-2.991688 l 0,-0.0051 c 0.0746,-0.429723 0.11447,-0.644064 0.20921,-0.81592 0.0953,-0.172887 0.27704,-0.363368 0.69562,-0.71654 0.04,-0.03371 0.22324,-0.136356 0.47595,-0.230124 0.25271,-0.09377 0.57963,-0.192729 0.95713,-0.292898 0.75501,-0.200327 1.7058,-0.401057 2.65695,-0.570095 0.95115,-0.169038 1.9076,-0.304051 2.67788,-0.381802 0.38514,-0.03891 0.72389,-0.06248 0.98851,-0.06801 z m 4.28355,0 c 0.26463,0.0058 0.60338,0.0291 0.98851,0.06801 0.77028,0.07774 1.72673,0.212764 2.67788,0.381802 0.95115,0.169038 1.90194,0.369759 2.65695,0.570095 0.37751,0.100168 0.70442,0.19912 0.95713,0.292889 0.25271,0.09377 0.43597,0.196394 0.47595,0.230133 0.41858,0.353171 0.60031,0.543653 0.69562,0.71654 0.0947,0.171855 0.13464,0.386197 0.20921,0.815911 l 0,0.0051 c 0.12589,0.725749 -0.18019,2.286277 -0.57532,2.991688 l 0,0.0051 c -0.23133,0.413328 -0.40261,0.757567 -0.59625,0.978055 -0.19439,0.221345 -0.38776,0.346236 -0.81591,0.376578 -0.42604,0.03019 -2.20768,-0.0051 -3.88606,-0.07841 -0.83919,-0.03682 -1.66143,-0.08303 -2.30653,-0.130754 -0.32254,-0.02382 -0.60159,-0.04923 -0.81068,-0.07321 -0.2091,-0.02399 -0.37612,-0.05779 -0.36089,-0.05233 -0.33144,-0.119684 -0.90338,-0.688455 -1.1088,-1.359858 0.008,-0.03513 0.0199,-0.06894 0.0262,-0.104604 0.17313,-0.995893 0.10792,-3.662086 -0.0314,-4.623519 8.3e-4,-0.0051 -8.4e-4,-0.0166 0,-0.02097 0.0512,-0.279849 0.13672,-0.413412 0.32427,-0.554396 0.18754,-0.140994 0.50598,-0.271621 0.97282,-0.40796 0.04,-0.01166 0.24271,-0.0317 0.50733,-0.02617 z m -23.83935,2.772021 -0.53872,0.392268 c 1.02746,1.408691 2.03179,2.119562 2.35883,3.608848 0.41651,1.896666 0.18311,6.697348 0.48118,6.736531 0.29808,0.03917 0.61882,-4.850994 0.17261,-6.882976 -0.37833,-1.72284 -1.51114,-2.534675 -2.4739,-3.854671 z m 43.39515,0 c -0.96276,1.319996 -2.09556,2.131831 -2.47389,3.854671 -0.44621,2.031982 -0.12548,6.922157 0.1726,6.882976 0.29807,-0.03917 0.0647,-4.839865 0.48118,-6.736531 0.32704,-1.489286 1.33137,-2.200157 2.35883,-3.608848 z m -23.74521,5.214529 c 0.21433,-8.39e-4 0.37714,0.0017 0.47595,0.01048 0.43261,0.03883 0.71269,0.159342 0.89438,0.313813 0.18169,0.154479 0.28773,0.352709 0.33997,0.638093 3.2e-4,0.0017 -3.4e-4,0.0033 0,0.0051 -0.11546,0.667152 -0.18602,1.406637 -0.0314,2.296064 0.006,0.03589 0.0187,0.06927 0.0262,0.104604 -0.20543,0.671413 -0.77735,1.240174 -1.10881,1.359866 -0.003,8.38e-4 -0.13739,0.03371 -0.31379,0.05753 -0.17645,0.02382 -0.41284,0.0442 -0.67994,0.06801 -0.53424,0.04755 -1.21186,0.09401 -1.90379,0.130754 -1.38392,0.07347 -2.85455,0.109301 -3.28981,0.07841 -0.42816,-0.03036 -0.62676,-0.155226 -0.82115,-0.376578 -0.19439,-0.221344 -0.36352,-0.567814 -0.59624,-0.98328 -0.3882,-0.693007 -0.31517,-1.532895 -0.16738,-2.384977 l 0,-0.0051 c 0.067,-0.381366 0.1968,-0.627299 0.37135,-0.784537 0.17543,-0.158018 0.41865,-0.251385 0.78977,-0.261507 0.45109,-0.01224 1.82835,-0.09585 3.23228,-0.167369 1.05294,-0.05368 2.13951,-0.09611 2.78246,-0.09937 z m 3.81807,0 c 0.0798,-0.0017 0.17004,-4.19e-4 0.2772,0 0.64297,0.0033 1.72953,0.0457 2.78248,0.09938 1.40392,0.07154 2.78119,0.155058 3.23227,0.167361 0.37112,0.01015 0.61435,0.103497 0.78977,0.261515 0.17455,0.157229 0.30434,0.403162 0.37134,0.784529 l 0,0.0051 c 0.14781,0.852082 0.22083,1.69197 -0.16736,2.384985 -0.23273,0.415466 -0.40185,0.761928 -0.59625,0.98328 -0.19439,0.221345 -0.39299,0.346236 -0.82114,0.376578 -0.43528,0.03086 -1.90591,-0.0051 -3.28981,-0.07841 -0.69196,-0.03673 -1.36957,-0.08319 -1.9038,-0.130753 -0.26712,-0.02382 -0.50351,-0.04419 -0.67993,-0.06801 -0.17643,-0.02373 -0.3108,-0.05652 -0.31382,-0.05753 -0.33121,-0.119599 -0.89778,-0.689065 -1.10357,-1.359857 0.007,-0.03506 0.0147,-0.06894 0.0209,-0.104604 0.15463,-0.889427 0.0841,-1.628921 -0.0314,-2.296073 -3.4e-4,-0.0017 3.2e-4,-0.0033 0,-0.0051 0.0522,-0.285384 0.15826,-0.483614 0.33995,-0.638084 0.18171,-0.154471 0.46177,-0.275035 0.89438,-0.313814 0.0494,-0.0042 0.1189,-0.0088 0.19874,-0.01048 z"
         id="path4113"
         inkscape:connector-curvature="0"
         sodipodi:nodetypes="ccscssscscssscsccsscsssscsccccscsscssssscccsssssccsscsccccscccsssscsscssscssccccscsssccccccccccccssscsccccsscssscsscsssscccsssccsssssccsssssssssscssssssssssccsssssccssscsssscsccsssssccccssssssssssssssccccsssssccsccsssccsssccsssccscscccccssssssccsssssssssccsssssscccccscsscccccc" />
      <path
         transform="translate(-218.16938,-378.37561)"
         id="path4161"
         style="fill:#1b2a34;stroke:#231f20;stroke-width:0.3125;stroke-linecap:butt;stroke-linejoin:miter;stroke-miterlimit:4;stroke-opacity:1;stroke-dasharray:none;display:inline"
         d="m 446.17063,449.9503 c 1.46375,-1.1325 3.67875,-3.1475 6.0625,-6.38375 0.61875,-0.84 1.2475,-1.75875 1.8775,-2.76625 l -5.685,-5.68375 c 0,0 -1.88,-1.7375 -1.79375,-4.535 0,0 1.355,-14.47875 -0.67625,-17.77375 -2.9275,-4.75 -7.1,-3.99375 -7.1,-3.99375 -10.11,0.86375 -10.3175,9.08625 -10.3175,9.08625 0,0 -0.07,9.77625 -0.0263,14.57125 0.0462,4.795 3.34375,7.49125 3.34375,7.49125 l 12.5375,11.1925 c 0,0 0.67625,-0.35375 1.7775,-1.205 z"
         inkscape:connector-curvature="0" />
      <path
         inkscape:connector-curvature="0"
         d="m 284.55939,64.566737 c -1.7851,0.488376 -4.72708,1.046228 -8.74626,1.004444 -1.04324,-0.01083 -2.1554,-0.06105 -3.33923,-0.163596 l -1.12207,-7.960226 c 0,0 -0.25754,-2.546955 -2.54447,-4.16046 0,0 -12.38267,-7.624934 -13.79362,-11.22941 -2.0344,-5.195568 1.07914,-8.074373 1.07914,-8.074373 6.77024,-7.557912 13.46438,-2.778689 13.46438,-2.778689 0,0 7.85282,5.823504 11.6575,8.742127 3.80317,2.920621 3.97419,7.176717 3.97419,7.176717 l 1.40219,16.74798 c 0,0 -0.68932,0.327544 -2.03171,0.695444 z"
         style="fill:#1b2a34;stroke:#231f20;stroke-width:0.3125;stroke-linecap:butt;stroke-linejoin:miter;stroke-miterlimit:4;stroke-opacity:1;stroke-dasharray:none;display:inline"
         id="path4173" />
    </g>
    <g
       inkscape:groupmode="layer"
       id="layer5"
       inkscape:label="outlines"
       sodipodi:insensitive="true">
      <path
         style="fill:#c7c1b7;fill-opacity:1;stroke:#1b2a34;stroke-width:0.375;stroke-miterlimit:4;stroke-dasharray:none"
         d="m 143.66863,70.274258 c -0.25858,1.42679 -0.49799,2.747159 -0.78125,4.28125 l 51.96875,0 c -0.0368,-0.116852 -0.0571,-0.228474 -0.0625,-0.34375 -0.25857,-1.402876 -0.481,-2.625256 -0.71875,-3.9375 l -50.40625,0 z"
         id="rect3264"
         inkscape:connector-curvature="0" />
      <path
         style="fill:#c7c1b7;fill-opacity:1;stroke:#1b2a34;stroke-width:0.375;stroke-miterlimit:4;stroke-dasharray:none"
         d="m 144.53125,66 c -0.2379,1.336516 -0.51986,2.839179 -0.78125,4.28125 l 50.40625,0 C 193.89494,68.839179 193.61283,67.336516 193.375,66 l -48.84375,0 z"
         id="path3273"
         inkscape:connector-curvature="0" />
      <path
         style="fill:#c7c1b7;fill-opacity:1;stroke:#1b2a34;stroke-width:0.375;stroke-miterlimit:4;stroke-dasharray:none"
         d="m 169.25,51.75 c -3.04496,0 -7.0625,6.25 -7.0625,6.25 l 0,3.71875 -16.90625,0 c -0.24331,1.393308 -0.47851,2.756041 -0.75,4.28125 l 17.65625,0 14.15625,0 17.03125,0 c -0.27141,-1.525209 -0.50677,-2.887942 -0.75,-4.28125 l -16.28125,0 0,-3.71875 c 0,0 -4.04878,-6.25 -7.09375,-6.25 z"
         id="path3275"
         inkscape:connector-curvature="0" />
      <path
         style="fill:none;stroke:#c4281b;stroke-width:1px;stroke-linecap:butt;stroke-linejoin:miter;stroke-opacity:1"
         d="m 413.49916,47.190759 c 0.83339,-3.175436 -6.75358,-10.324342 -15.55713,-9.803044 -8.80356,0.521297 -16.68658,4.650425 -17.11774,8.067365 -0.43117,3.41694 8.05013,6.464202 17.0328,6.550085 8.98269,0.08588 14.80868,-1.638971 15.64207,-4.814406 z"
         id="path3301"
         inkscape:connector-curvature="0"
         sodipodi:nodetypes="zzzzz" />
      <path
         style="fill:#c7c1b7;fill-opacity:1;stroke:none"
         d="m 178.79642,51.436006 c -0.32013,-4.52537 -3.39666,-10.64647 -8.88891,-15.165175 -0.17505,-0.144023 0.02,-4.380129 -0.2055,-4.416617 -3.77912,-0.61158 -8.11056,0.253466 -12.26451,-0.166714 l -0.1875,0 c -1.67344,0.03328 -2.93762,-0.101322 -3.90625,-0.03125 -1.77865,0.12867 -2.65107,1.016547 -3.59375,4.84375 1.41867,2.031378 3.8389,4.557692 6.875,7.125 1.04084,-2.604357 2.05657,-6.445601 3.4842,-7.882358 0.42863,-0.431377 0.43069,-0.05039 1.4533,0.382358 6.42144,3.767169 12.29151,8.623405 15.92096,17.973225"
         id="path3303"
         inkscape:connector-curvature="0"
         sodipodi:nodetypes="cssccsccscc" />
      <use
         x="0"
         y="0"
         xlink:href="#path3303"
         id="use4110"
         transform="matrix(-1,0,0,1,337.99216,0)"
         width="289.36462"
         height="147.96875" />
      <path
         style="fill:#c7c1b7;fill-opacity:1;stroke:#1b2a34;stroke-width:0.375;stroke-miterlimit:4;stroke-dasharray:none"
         d="m 233.59375,60.09375 -9.875,10.4375 2.5,2.25 c 0,0 0.68,-0.3675 1.78125,-1.21875 1.46375,-1.1325 3.67875,-3.13875 6.0625,-6.375 0.61875,-0.84 1.245,-1.7425 1.875,-2.75 l -2.34375,-2.34375 z"
         id="path4130"
         inkscape:connector-curvature="0" />
      <path
         style="fill:#c7c1b7;fill-opacity:1;stroke:#1b2a34;stroke-width:0.375;stroke-miterlimit:4;stroke-dasharray:none"
         d="m 230.5625,57.0625 -10.0625,10.625 3.21875,2.84375 9.875,-10.4375 -3.03125,-3.03125 z"
         id="path4132"
         inkscape:connector-curvature="0" />
      <path
         style="fill:#c7c1b7;fill-opacity:1;stroke:#1b2a34;stroke-width:0.375;stroke-miterlimit:4;stroke-dasharray:none"
         d="m 221.375,30.40625 c -0.43691,-0.0033 -0.6875,0.03125 -0.6875,0.03125 -10.11,0.86375 -10.3125,9.09375 -10.3125,9.09375 0,0 2.4e-4,0.434001 0,0.46875 1.13646,1.233562 2.56079,2.444785 4.625,3.625 -1.01001,7.321398 -1.28485,14.073409 4.375,16.28125 l -3.53125,3.625 2.40625,2.15625 2.28125,2 L 230.5625,57.0625 230.25,56.75 c 0,0 -0.12264,-0.122783 -0.28125,-0.3125 -0.0974,-0.115083 -0.22109,-0.294677 -0.34375,-0.46875 -0.1759,-0.249626 -0.35545,-0.544473 -0.53125,-0.90625 -0.029,-0.06085 -0.0657,-0.123711 -0.0937,-0.1875 -0.0164,-0.03681 -0.0153,-0.08722 -0.0312,-0.125 -0.0713,-0.171001 -0.15875,-0.341136 -0.21875,-0.53125 -0.0382,-0.119789 -0.0618,-0.247804 -0.0937,-0.375 -0.002,-0.0096 0.002,-0.02157 0,-0.03125 -0.11978,-0.487861 -0.20562,-1.00604 -0.1875,-1.59375 0,0 0.0619,-0.884617 0.125,-1.71875 l -6.9375,7.0625 c -6.69365,-2.303795 -5.83352,-7.796423 -5.25,-13.1875 0.12456,0.06187 0.24643,0.125856 0.375,0.1875 5.30302,-1.213481 8.76894,-3.642307 11.9375,-6.28125 -0.16481,-1.677981 -0.45985,-3.068923 -0.9375,-3.84375 -2.19563,-3.5625 -5.09551,-4.021289 -6.40625,-4.03125 z"
         id="path4134"
         inkscape:connector-curvature="0" />
      <path
         id="path4175"
         d="m 272.02339,62.130228 14.27784,-1.612513 0.29414,3.35052 c 0,0 -0.70257,0.32227 -2.04496,0.690172 -1.78511,0.488377 -4.7201,1.051491 -8.73928,1.009706 -1.04323,-0.01083 -2.14091,-0.05325 -3.32473,-0.155819 l -0.46301,-3.282065 z"
         style="fill:#c7c1b7;fill-opacity:1;stroke:#1b2a34;stroke-width:0.375;stroke-miterlimit:4;stroke-dasharray:none"
         inkscape:connector-curvature="0" />
      <path
         id="path4177"
         d="m 271.42456,57.885423 14.54042,-1.649552 0.33625,4.281844 -14.27784,1.612513 -0.59883,-4.244805 z"
         style="fill:#c7c1b7;fill-opacity:1;stroke:#1b2a34;stroke-width:0.375;stroke-miterlimit:4;stroke-dasharray:none"
         inkscape:connector-curvature="0" />
      <path
         id="path4179"
         d="m 255.65295,34.514033 c 0.26011,-0.351052 0.43843,-0.530483 0.43843,-0.530483 6.77024,-7.557911 13.46737,-2.770183 13.46737,-2.770183 0,0 0.34659,0.2612 0.3745,0.281906 0.30209,1.649836 0.41321,3.516231 0.11472,5.875209 6.45684,3.596138 12.01664,7.437209 10.37676,13.286933 l 5.01988,-0.641215 0.27562,3.219238 0.22595,3.0254 -14.52162,1.624585 -0.0617,-0.437607 c 0,0 -0.0243,-0.171825 -0.0805,-0.412642 -0.0334,-0.147029 -0.10248,-0.353858 -0.16778,-0.556544 -0.0937,-0.29066 -0.22124,-0.611432 -0.40456,-0.96946 -0.0312,-0.05976 -0.0593,-0.126889 -0.0934,-0.187623 -0.0196,-0.03523 -0.0605,-0.06468 -0.0811,-0.100104 -0.0938,-0.159806 -0.17707,-0.331992 -0.29288,-0.494263 -0.0727,-0.102561 -0.16081,-0.198404 -0.24325,-0.300386 -0.007,-0.0074 -0.0184,-0.01138 -0.025,-0.0188 -0.31774,-0.389098 -0.68012,-0.769312 -1.16056,-1.108283 0,0 -0.74399,-0.482554 -1.44837,-0.933786 l 9.81478,-1.295325 c 2.18495,-6.733383 -2.72066,-9.349446 -7.37878,-12.125433 -0.0255,0.136725 -0.0476,0.272576 -0.0757,0.412368 -4.15874,3.507054 -8.18366,4.815452 -12.1976,5.759911 -1.24151,-1.140812 -2.17537,-2.213045 -2.50715,-3.060644 -1.52581,-3.89668 -0.14837,-6.489451 0.63195,-7.542655 z"
         style="fill:#c7c1b7;fill-opacity:1;stroke:#1b2a34;stroke-width:0.375;stroke-miterlimit:4;stroke-dasharray:none"
         inkscape:connector-curvature="0" />
    </g>
    <g
       inkscape:label="muscle Kopie"
       id="g4121"
       inkscape:groupmode="layer"
       sodipodi:insensitive="true">
      <path
         style="font-size:medium;font-style:normal;font-variant:normal;font-weight:normal;font-stretch:normal;text-indent:0;text-align:start;text-decoration:none;line-height:normal;letter-spacing:normal;word-spacing:normal;text-transform:none;direction:ltr;block-progression:tb;writing-mode:lr-tb;text-anchor:start;baseline-shift:baseline;color:#000000;fill:#a3a2a4;fill-opacity:1;stroke:#a3a2a4;stroke-width:0.25;stroke-miterlimit:4;stroke-dasharray:none;marker:none;visibility:visible;display:inline;overflow:visible;enable-background:accumulate;font-family:Sans;-inkscape-font-specification:Sans"
         d="m 156.1875,32.78125 c -0.7963,0.02502 -1.56674,0.08604 -2.25,0.1875 -1.36652,0.202912 -2.46436,0.555534 -2.78125,1.5 0.58861,-0.552233 1.12571,-0.845938 2.78125,-1.0625 1.30098,-0.17018 3.04029,10e-4 4.71875,0.0625 3.35693,0.122897 6.92564,0.63104 8.75,0.90625 0.59396,0.0896 0.96981,0.360624 1.15625,0.59375 0.15222,0.223397 0.28013,0.853736 0.375,0.875 0.12696,0.02845 0.22543,-0.629005 0.40625,-0.875 0.18482,-0.234105 0.55721,-0.503384 1.15625,-0.59375 1.82436,-0.27521 5.42432,-0.783353 8.78125,-0.90625 1.67847,-0.06146 3.38651,-0.232683 4.6875,-0.0625 1.65553,0.216562 2.19263,0.510267 2.78125,1.0625 -0.31689,-0.944466 -1.41473,-1.297088 -2.78125,-1.5 -0.68326,-0.101456 -1.4537,-0.162483 -2.25,-0.1875 -0.39815,-0.0125 -0.8036,-0.0032 -1.21875,0 -0.41516,0.0032 -0.8244,0.01567 -1.25,0.03125 -3.40484,0.124651 -7.00814,0.598096 -8.84375,0.875 -0.62788,0.09472 -1.11742,0.340656 -1.4375,0.65625 -0.32002,-0.316854 -0.80788,-0.561272 -1.4375,-0.65625 -1.8356,-0.276903 -5.47017,-0.750349 -8.875,-0.875 -0.4256,-0.01558 -0.83485,-0.0281 -1.25,-0.03125 -0.20758,-0.0015 -0.42069,-0.0028 -0.625,0 -0.2043,0.0028 -0.39468,-0.0063 -0.59375,0 z m 33.28125,28.90625 c -0.57071,0.68449 -1.05419,1.403522 -1.28125,2.4375 -0.44621,2.031982 -0.14183,6.914181 0.15625,6.875 0.29807,-0.03917 0.0835,-4.822084 0.5,-6.71875 0.23355,-1.063556 0.81387,-1.755263 1.5,-2.5625 l -0.875,-0.03125 z M 147.625,61.78125 c 0.66065,0.777092 1.21055,1.466524 1.4375,2.5 0.41651,1.896666 0.20193,6.679567 0.5,6.71875 0.29808,0.03917 0.60246,-4.843018 0.15625,-6.875 -0.21751,-0.990496 -0.67817,-1.685805 -1.21875,-2.34375 l -0.875,0 z"
         id="path4123"
         inkscape:connector-curvature="0" />
    </g>
    <g
       inkscape:groupmode="layer"
       id="layer8"
       inkscape:label="face">
      <g
         id="g4292"
         transform="translate(74.09827,1.5424165)">
        <g
           transform="translate(65.202912,82.102823)"
           id="g3984">
          <path
             sodipodi:nodetypes="sscccsscs"
             inkscape:connector-curvature="0"
             id="path3951"
             d="m 71.0625,-70.71875 c -0.568749,0.03461 -0.771918,0.765486 -1.125,1.4375 -0.417701,0.795004 -0.921104,1.571912 -0.53125,1.9375 2.10186,0.35149 3.585866,0.520499 5.59375,0.46875 1.852041,0.05379 3.792088,-0.15239 5.59375,-0.46875 0.389854,-0.365588 -0.113549,-1.142496 -0.53125,-1.9375 -0.353082,-0.672014 -0.525001,-1.40289 -1.09375,-1.4375 -0.51833,-0.03154 -0.04587,0.546096 -3.96875,0.65625 -3.891011,-0.112291 -3.420462,-0.687716 -3.9375,-0.65625 z"
             style="fill:#1b2a34;stroke:#000000;stroke-width:0.70866144;stroke-linecap:butt;stroke-linejoin:miter;stroke-miterlimit:4;stroke-opacity:1;stroke-dasharray:none" />
          <path
             inkscape:connector-curvature="0"
             style="fill:#f2f3f2;stroke:none"
             d="m 71.0625,-70.71875 c -0.568749,0.03461 -0.771918,0.765486 -1.125,1.4375 -0.0066,0.0125 -0.02464,0.01876 -0.03125,0.03125 0.06161,0.01978 0.118055,0.04454 0.1875,0.0625 2.321215,0.600325 7.314412,0.532656 9.96875,0.15625 0.04573,-0.0065 0.08401,-0.02223 0.125,-0.03125 -0.03989,-0.07394 -0.08581,-0.144164 -0.125,-0.21875 -0.353082,-0.672014 -0.525001,-1.40289 -1.09375,-1.4375 -0.51833,-0.03154 -0.04587,0.546096 -3.96875,0.65625 -3.891011,-0.112291 -3.420462,-0.687716 -3.9375,-0.65625 z"
             id="path3953" />
          <path
             inkscape:connector-curvature="0"
             style="fill:#f2f3f2;fill-opacity:1;stroke:none"
             d="m 71.90625,-68.53125 c -0.817943,-0.01053 -0.926533,0.338146 -1.0625,1.40625 1.410556,0.196243 2.639889,0.289081 4.15625,0.25 1.41982,0.04124 2.891237,-0.05315 4.3125,-0.25 -0.08845,-0.985585 -0.13025,-1.505602 -1.34375,-1.40625 -2.019328,0.11539 -4.043172,0.11539 -6.0625,0 z"
             id="rect3960" />
          <path
             style="fill:none;stroke:#000000;stroke-width:0.70866144;stroke-linecap:butt;stroke-linejoin:miter;stroke-miterlimit:4;stroke-opacity:1;stroke-dasharray:none"
             d="m 71.0625,-70.71875 c -0.568749,0.03461 -0.771918,0.765486 -1.125,1.4375 -0.417701,0.795004 -0.921104,1.571912 -0.53125,1.9375 2.10186,0.35149 3.585866,0.520499 5.59375,0.46875 1.852041,0.05379 3.792088,-0.15239 5.59375,-0.46875 0.389854,-0.365588 -0.113549,-1.142496 -0.53125,-1.9375 -0.353082,-0.672014 -0.525001,-1.40289 -1.09375,-1.4375 -0.51833,-0.03154 -0.04587,0.546096 -3.96875,0.65625 -3.891011,-0.112291 -3.420462,-0.687716 -3.9375,-0.65625 z"
             id="path3178"
             inkscape:connector-curvature="0"
             sodipodi:nodetypes="sscccsscs" />
          <path
             sodipodi:type="star"
             style="fill:#1b2a34;fill-opacity:1;stroke:none"
             id="path3967"
             sodipodi:sides="3"
             sodipodi:cx="73.05835"
             sodipodi:cy="-65.708084"
             sodipodi:r1="0.49281442"
             sodipodi:r2="0.17533895"
             sodipodi:arg1="-0.75837771"
             sodipodi:arg2="0.05183283"
             inkscape:flatsided="false"
             inkscape:rounded="0"
             inkscape:randomized="0"
             d="m 73.41611,-66.047015 -0.182657,0.348015 -0.06046,0.47021 -0.210061,-0.332192 -0.376984,-0.287466 0.392718,-0.01582 z"
             inkscape:transform-center-x="0.011535858"
             inkscape:transform-center-y="-0.22622105"
             transform="matrix(0.3794215,-0.92000097,0.3794215,0.92000097,72.292848,60.225202)" />
          <path
             transform="matrix(0.3794215,-0.92000097,0.3794215,0.92000097,73.99671,60.225202)"
             inkscape:transform-center-y="-0.22622105"
             inkscape:transform-center-x="0.011535858"
             d="m 73.41611,-66.047015 -0.182657,0.348015 -0.06046,0.47021 -0.210061,-0.332192 -0.376984,-0.287466 0.392718,-0.01582 z"
             inkscape:randomized="0"
             inkscape:rounded="0"
             inkscape:flatsided="false"
             sodipodi:arg2="0.05183283"
             sodipodi:arg1="-0.75837771"
             sodipodi:r2="0.17533895"
             sodipodi:r1="0.49281442"
             sodipodi:cy="-65.708084"
             sodipodi:cx="73.05835"
             sodipodi:sides="3"
             id="path3970"
             style="fill:#1b2a34;fill-opacity:1;stroke:none"
             sodipodi:type="star" />
          <path
             transform="matrix(0.3794215,-0.92000097,0.3794215,0.92000097,70.426713,60.225202)"
             inkscape:transform-center-y="-0.22622105"
             inkscape:transform-center-x="0.011535858"
             d="m 73.41611,-66.047015 -0.182657,0.348015 -0.06046,0.47021 -0.210061,-0.332192 -0.376984,-0.287466 0.392718,-0.01582 z"
             inkscape:randomized="0"
             inkscape:rounded="0"
             inkscape:flatsided="false"
             sodipodi:arg2="0.05183283"
             sodipodi:arg1="-0.75837771"
             sodipodi:r2="0.17533895"
             sodipodi:r1="0.49281442"
             sodipodi:cy="-65.708084"
             sodipodi:cx="73.05835"
             sodipodi:sides="3"
             id="path3972"
             style="fill:#1b2a34;fill-opacity:1;stroke:none"
             sodipodi:type="star" />
          <path
             sodipodi:type="star"
             style="fill:#1b2a34;fill-opacity:1;stroke:none"
             id="path3974"
             sodipodi:sides="3"
             sodipodi:cx="73.05835"
             sodipodi:cy="-65.708084"
             sodipodi:r1="0.49281442"
             sodipodi:r2="0.17533895"
             sodipodi:arg1="-0.75837771"
             sodipodi:arg2="0.05183283"
             inkscape:flatsided="false"
             inkscape:rounded="0"
             inkscape:randomized="0"
             d="m 73.41611,-66.047015 -0.182657,0.348015 -0.06046,0.47021 -0.210061,-0.332192 -0.376984,-0.287466 0.392718,-0.01582 z"
             inkscape:transform-center-x="0.011535858"
             inkscape:transform-center-y="0.22622196"
             transform="matrix(0.3794215,0.92000097,0.3794215,-0.92000097,72.258075,-197.27691)" />
          <path
             transform="matrix(0.3794215,0.92000097,0.3794215,-0.92000097,73.915574,-197.27691)"
             inkscape:transform-center-y="0.22622196"
             inkscape:transform-center-x="0.011535858"
             d="m 73.41611,-66.047015 -0.182657,0.348015 -0.06046,0.47021 -0.210061,-0.332192 -0.376984,-0.287466 0.392718,-0.01582 z"
             inkscape:randomized="0"
             inkscape:rounded="0"
             inkscape:flatsided="false"
             sodipodi:arg2="0.05183283"
             sodipodi:arg1="-0.75837771"
             sodipodi:r2="0.17533895"
             sodipodi:r1="0.49281442"
             sodipodi:cy="-65.708084"
             sodipodi:cx="73.05835"
             sodipodi:sides="3"
             id="path3976"
             style="fill:#1b2a34;fill-opacity:1;stroke:none"
             sodipodi:type="star" />
          <path
             sodipodi:type="star"
             style="fill:#1b2a34;fill-opacity:1;stroke:none"
             id="path3978"
             sodipodi:sides="3"
             sodipodi:cx="73.05835"
             sodipodi:cy="-65.708084"
             sodipodi:r1="0.49281442"
             sodipodi:r2="0.17533895"
             sodipodi:arg1="-0.75837771"
             sodipodi:arg2="0.05183283"
             inkscape:flatsided="false"
             inkscape:rounded="0"
             inkscape:randomized="0"
             d="m 73.41611,-66.047015 -0.182657,0.348015 -0.06046,0.47021 -0.210061,-0.332192 -0.376984,-0.287466 0.392718,-0.01582 z"
             inkscape:transform-center-x="0.011535858"
             inkscape:transform-center-y="0.22622196"
             transform="matrix(0.3794215,0.92000097,0.3794215,-0.92000097,75.376027,-197.52032)" />
          <path
             transform="matrix(0.3794215,0.92000097,0.3794215,-0.92000097,69.001033,-197.52032)"
             inkscape:transform-center-y="0.22622196"
             inkscape:transform-center-x="0.011535858"
             d="m 73.41611,-66.047015 -0.182657,0.348015 -0.06046,0.47021 -0.210061,-0.332192 -0.376984,-0.287466 0.392718,-0.01582 z"
             inkscape:randomized="0"
             inkscape:rounded="0"
             inkscape:flatsided="false"
             sodipodi:arg2="0.05183283"
             sodipodi:arg1="-0.75837771"
             sodipodi:r2="0.17533895"
             sodipodi:r1="0.49281442"
             sodipodi:cy="-65.708084"
             sodipodi:cx="73.05835"
             sodipodi:sides="3"
             id="path3980"
             style="fill:#1b2a34;fill-opacity:1;stroke:none"
             sodipodi:type="star" />
          <path
             transform="matrix(0.3794215,0.92000097,0.3794215,-0.92000097,70.403531,-197.27691)"
             inkscape:transform-center-y="0.22622196"
             inkscape:transform-center-x="0.011535858"
             d="m 73.41611,-66.047015 -0.182657,0.348015 -0.06046,0.47021 -0.210061,-0.332192 -0.376984,-0.287466 0.392718,-0.01582 z"
             inkscape:randomized="0"
             inkscape:rounded="0"
             inkscape:flatsided="false"
             sodipodi:arg2="0.05183283"
             sodipodi:arg1="-0.75837771"
             sodipodi:r2="0.17533895"
             sodipodi:r1="0.49281442"
             sodipodi:cy="-65.708084"
             sodipodi:cx="73.05835"
             sodipodi:sides="3"
             id="path3982"
             style="fill:#1b2a34;fill-opacity:1;stroke:none"
             sodipodi:type="star" />
        </g>
        <g
           transform="translate(-11.589098,45.614035)"
           id="g4237">
          <g
             transform="translate(122.89997,34.784756)"
             id="g4020">
            <path
               sodipodi:type="arc"
               style="fill:#000000;fill-opacity:1;stroke:none"
               id="path4002"
               sodipodi:cx="206.08511"
               sodipodi:cy="14.904921"
               sodipodi:rx="1.7446809"
               sodipodi:ry="1.7446809"
               d="m 207.82979,14.904921 c 0,0.96356 -0.78112,1.74468 -1.74468,1.74468 -0.96356,0 -1.74468,-0.78112 -1.74468,-1.74468 0,-0.963561 0.78112,-1.744681 1.74468,-1.744681 0.96356,0 1.74468,0.78112 1.74468,1.744681 z"
               transform="matrix(-1,0,0,1,238.77293,-88.455971)" />
            <path
               sodipodi:type="arc"
               style="fill:#ffffff;fill-opacity:1;stroke:none"
               id="path4004"
               sodipodi:cx="206.38298"
               sodipodi:cy="14.351728"
               sodipodi:rx="0.59574467"
               sodipodi:ry="0.68085104"
               d="m 206.97873,14.351728 c 0,0.376024 -0.26673,0.680851 -0.59575,0.680851 -0.32902,0 -0.59574,-0.304827 -0.59574,-0.680851 0,-0.376023 0.26672,-0.680851 0.59574,-0.680851 0.32902,0 0.59575,0.304828 0.59575,0.680851 z"
               transform="matrix(-1,0,0,1,238.94314,-88.541077)" />
          </g>
          <path
             sodipodi:type="arc"
             style="fill:#000000;fill-opacity:1;stroke:none"
             id="path4006"
             sodipodi:cx="206.08511"
             sodipodi:cy="14.904921"
             sodipodi:rx="1.7446809"
             sodipodi:ry="1.7446809"
             d="m 207.82979,14.904921 c 0,0.96356 -0.78112,1.74468 -1.74468,1.74468 -0.96356,0 -1.74468,-0.78112 -1.74468,-1.74468 0,-0.963561 0.78112,-1.744681 1.74468,-1.744681 0.96356,0 1.74468,0.78112 1.74468,1.744681 z"
             transform="translate(-58.035108,-53.671216)" />
          <path
             transform="translate(-58.205318,-53.756322)"
             sodipodi:type="arc"
             style="fill:#ffffff;fill-opacity:1;stroke:none"
             id="path4008"
             sodipodi:cx="206.38298"
             sodipodi:cy="14.351728"
             sodipodi:rx="0.59574467"
             sodipodi:ry="0.68085104"
             d="m 206.97873,14.351728 c 0,0.376024 -0.26673,0.680851 -0.59575,0.680851 -0.32902,0 -0.59574,-0.304827 -0.59574,-0.680851 0,-0.376023 0.26672,-0.680851 0.59574,-0.680851 0.32902,0 0.59575,0.304828 0.59575,0.680851 z" />
          <path
             sodipodi:nodetypes="zzzczccszz"
             inkscape:connector-curvature="0"
             id="path4032"
             d="m 150.79244,-39.986334 c -0.13044,-0.422186 -0.54653,0.291075 -1.23868,-0.490713 -0.69216,-0.781786 -3.083,-3.461904 -3.57276,-3.155143 -0.48977,0.306761 -0.20437,0.459659 -0.20437,0.459659 0,0 -0.91102,-0.704748 -1.04295,-0.521648 -0.13197,0.183087 0.63698,0.978596 0.63698,0.978596 -0.0395,0.455526 -0.55948,0.06032 -1.10771,1.188048 0,0 0.60076,-0.265753 1.93401,0.324968 1.33321,0.590777 3.20541,1.951873 3.66256,2.07634 0.45714,0.12446 1.06336,-0.437927 0.93292,-0.860107 z"
             style="fill:#624732;stroke:none" />
          <path
             style="fill:#624732;stroke:none"
             d="m 152.79158,-39.986334 c 0.13044,-0.422186 0.54653,0.291075 1.23868,-0.490713 0.69216,-0.781786 3.083,-3.461904 3.57276,-3.155143 0.48977,0.306761 0.20437,0.459659 0.20437,0.459659 0,0 0.91102,-0.704748 1.04295,-0.521648 0.13197,0.183087 -0.63698,0.978596 -0.63698,0.978596 0.0395,0.455526 0.55948,0.06032 1.10771,1.188048 0,0 -0.60076,-0.265753 -1.93401,0.324968 -1.33321,0.590777 -3.20541,1.951873 -3.66256,2.07634 -0.45714,0.12446 -1.06336,-0.437927 -0.93292,-0.860107 z"
             id="path4227"
             inkscape:connector-curvature="0"
             sodipodi:nodetypes="zzzczccszz" />
        </g>
        <path
           sodipodi:nodetypes="cccc"
           inkscape:connector-curvature="0"
           id="path4231"
           d="m 139.70291,17.971361 c 0.28456,-0.121927 0.53891,-0.319391 1,0 -0.16667,-0.173715 -0.33333,-0.560606 -0.5,-1.46875 -0.0491,0.607111 -0.17556,1.136941 -0.5,1.46875 z"
           style="font-size:medium;font-style:normal;font-variant:normal;font-weight:normal;font-stretch:normal;text-indent:0;text-align:start;text-decoration:none;line-height:normal;letter-spacing:normal;word-spacing:normal;text-transform:none;direction:ltr;block-progression:tb;writing-mode:lr-tb;text-anchor:start;baseline-shift:baseline;color:#000000;fill:#000000;fill-opacity:1;stroke:none;stroke-width:1;marker:none;visibility:visible;display:inline;overflow:visible;enable-background:accumulate;font-family:Sans;-inkscape-font-specification:Sans" />
      </g>
    </g>
  </g>
  <g
     inkscape:label="template"
     inkscape:groupmode="layer"
     id="layer1"
     transform="translate(-360.9375,-378.375)"
     style="display:inline">
    <path
       inkscape:connector-curvature="0"
       d="m 454.95438,449.1028 c -0.545,-1.0275 -0.275,-1.92125 -0.275,-1.92125 l -0.009,-0.0113 -2.4375,-3.60375 c -2.38375,3.23625 -4.59875,5.25125 -6.0625,6.38375 0.465,0.56 1.42375,1.62125 2.245,1.9625 0.04,0.0175 0.0787,0.0437 0.11875,0.0562 1.14625,0.38625 7.29375,-1.20875 6.42,-2.86625 z"
       style="fill:none;stroke:#231f20;stroke-width:0.3125;stroke-linecap:butt;stroke-linejoin:miter;stroke-miterlimit:4;stroke-opacity:1;stroke-dasharray:none"
       id="path3057" />
    <path
       inkscape:connector-curvature="0"
       d="m 467.66938,458.3678 c 1.68125,-1.40125 0.74125,-3.3675 0.74125,-3.3675 l -6.7025,-10.8775 c -0.82375,-1.04 -1.9275,-0.1775 -1.9275,-0.1775 l -5.11,3.225 0.009,0.0113 c 0,0 -0.27,0.89375 0.275,1.92125 0.87375,1.6575 -5.27375,3.2525 -6.42,2.86625 -0.04,-0.0125 -0.0788,-0.0387 -0.11875,-0.0562 -0.15875,1.3 0.3025,4.04625 4.44625,8.85 4.4575,5.1675 13.12375,-0.99375 14.8075,-2.395 z"
       style="fill:none;stroke:#231f20;stroke-width:0.3125;stroke-linecap:butt;stroke-linejoin:miter;stroke-miterlimit:4;stroke-opacity:1;stroke-dasharray:none"
       id="path3061" />
    <path
       inkscape:connector-curvature="0"
       d="m 446.17063,449.9503 c 1.46375,-1.1325 3.67875,-3.1475 6.0625,-6.38375 0.61875,-0.84 1.2475,-1.75875 1.8775,-2.76625 l -5.685,-5.68375 c 0,0 -1.88,-1.7375 -1.79375,-4.535 0,0 1.355,-14.47875 -0.67625,-17.77375 -2.9275,-4.75 -7.1,-3.99375 -7.1,-3.99375 -10.11,0.86375 -10.3175,9.08625 -10.3175,9.08625 0,0 -0.07,9.77625 -0.0263,14.57125 0.0462,4.795 3.34375,7.49125 3.34375,7.49125 l 12.5375,11.1925 c 0,0 0.67625,-0.35375 1.7775,-1.205 z"
       style="fill:none;stroke:#231f20;stroke-width:0.3125;stroke-linecap:butt;stroke-linejoin:miter;stroke-miterlimit:4;stroke-opacity:1;stroke-dasharray:none"
       id="path3065" />
    <path
       inkscape:connector-curvature="0"
       d="m 496.68688,449.5203 c -0.4925,-1.05375 -1.3675,-1.37625 -1.3675,-1.37625 l -0.002,-0.0138 -1.40625,-4.12 c 4.02125,0.0513 6.9625,-0.49875 8.75,-0.98375 0.16625,0.70875 0.43375,2.1125 0.2125,2.975 -0.0125,0.04 -0.015,0.0888 -0.0275,0.1275 -0.38375,1.1475 -5.365,5.09 -6.15875,3.39125 z"
       style="fill:none;stroke:#231f20;stroke-width:0.3125;stroke-linecap:butt;stroke-linejoin:miter;stroke-miterlimit:4;stroke-opacity:1;stroke-dasharray:none"
       id="path3069" />
    <path
       inkscape:connector-curvature="0"
       d="m 496.40813,465.2503 c -2.13125,0.49625 -3.135,-1.4375 -3.135,-1.4375 l -4.6325,-11.9075 c -0.33375,-1.285 1.02125,-1.645 1.02125,-1.645 l 5.655,-2.13 0.002,0.0138 c 0,0 0.875,0.3225 1.3675,1.37625 0.79375,1.69875 5.775,-2.24375 6.15875,-3.39125 0.0125,-0.0387 0.015,-0.0875 0.0275,-0.1275 1.1325,0.6575 3.04375,2.68125 4.3775,8.8825 1.4325,6.6725 -8.70875,9.86875 -10.8425,10.36625 z"
       style="fill:none;stroke:#231f20;stroke-width:0.3125;stroke-linecap:butt;stroke-linejoin:miter;stroke-miterlimit:4;stroke-opacity:1;stroke-dasharray:none"
       id="path3073" />
    <path
       inkscape:connector-curvature="0"
       d="m 502.66063,443.02655 c -1.7875,0.485 -4.72875,1.035 -8.75,0.98375 -1.0425,-0.0112 -2.15375,-0.0637 -3.3375,-0.17125 l -1.105,-7.96125 c 0,0 -0.25125,-2.5475 -2.53375,-4.165 0,0 -12.3675,-7.6525 -13.77125,-11.26125 -2.0225,-5.19875 1.0975,-8.07125 1.0975,-8.07125 6.7875,-7.5425 13.47,-2.74875 13.47,-2.74875 0,0 7.84,5.84 11.63875,8.76625 3.79625,2.9275 3.9575,7.1875 3.9575,7.1875 l 1.3675,16.75 c 0,0 -0.69125,0.32625 -2.03375,0.69125 z"
       style="fill:none;stroke:#231f20;stroke-width:0.3125;stroke-linecap:butt;stroke-linejoin:miter;stroke-miterlimit:4;stroke-opacity:1;stroke-dasharray:none"
       id="path3077" />
    <path
       inkscape:connector-curvature="0"
       d="m 488.87056,399.93655 -112.8,0 0,-21.39125 112.8,0 0,21.39125 z"
       style="fill:none;stroke:#231f20;stroke-width:0.3125;stroke-linecap:butt;stroke-linejoin:miter;stroke-miterlimit:4;stroke-opacity:1;stroke-dasharray:none"
       id="path3081" />
    <path
       inkscape:connector-curvature="0"
       d="m 361.13813,452.9203 c 8.7325,-47.29375 5.3425,-42.67875 14.2675,-42.85625 l 23.44,0 c 8.92625,0.1775 5.535,-4.4375 14.265,42.85625 l -51.9725,0 z"
       style="fill:none;stroke:#231f20;stroke-width:0.3125;stroke-linecap:butt;stroke-linejoin:miter;stroke-miterlimit:4;stroke-opacity:1;stroke-dasharray:none"
       id="path3093" />
  </g>
</svg>
