<?xml version="1.0" encoding="UTF-8" standalone="no"?>
<!-- Created with Inkscape (http://www.inkscape.org/) -->

<svg
   xmlns:dc="http://purl.org/dc/elements/1.1/"
   xmlns:cc="http://creativecommons.org/ns#"
   xmlns:rdf="http://www.w3.org/1999/02/22-rdf-syntax-ns#"
   xmlns:svg="http://www.w3.org/2000/svg"
   xmlns="http://www.w3.org/2000/svg"
   xmlns:xlink="http://www.w3.org/1999/xlink"
   xmlns:sodipodi="http://sodipodi.sourceforge.net/DTD/sodipodi-0.dtd"
   xmlns:inkscape="http://www.inkscape.org/namespaces/inkscape"
   width="113.78125"
   height="137.40625"
   id="svg2"
   version="1.1"
   inkscape:version="0.48.2 r9819"
   sodipodi:docname="martian_manhunter.tlg.Batman2Videogame.svg"
   inkscape:export-filename="F:\GitHub\minifig-svg-decals\figures\super heroes\martian_manhunter.tlg.Batman2Videogame.png"
   inkscape:export-xdpi="1718"
   inkscape:export-ydpi="1718">
  <defs
     id="defs4">
    <linearGradient
       inkscape:collect="always"
       id="linearGradient4011">
      <stop
         style="stop-color:#ffffff;stop-opacity:1;"
         offset="0"
         id="stop4013" />
      <stop
         style="stop-color:#ffffff;stop-opacity:0;"
         offset="1"
         id="stop4015" />
    </linearGradient>
    <linearGradient
       inkscape:collect="always"
       id="linearGradient3997">
      <stop
         style="stop-color:#ffffff;stop-opacity:1;"
         offset="0"
         id="stop3999" />
      <stop
         style="stop-color:#ffffff;stop-opacity:0;"
         offset="1"
         id="stop4001" />
    </linearGradient>
    <inkscape:path-effect
       effect="skeletal"
       id="path-effect4237"
       is_visible="true"
       pattern="M 0,5 C 0,2.24 2.24,0 5,0 7.76,0 10,2.24 10,5 10,7.76 7.76,10 5,10 2.24,10 0,7.76 0,5 z"
       copytype="single_stretched"
       prop_scale="1"
       scale_y_rel="false"
       spacing="0"
       normal_offset="0"
       tang_offset="0"
       prop_units="false"
       vertical_pattern="false"
       fuse_tolerance="0" />
    <clipPath
       id="clipPath2999"
       clipPathUnits="userSpaceOnUse">
      <path
         id="path3001"
         d="M 0,792 612,792 612,0 0,0 0,792 z"
         inkscape:connector-curvature="0" />
    </clipPath>
    <radialGradient
       gradientUnits="userSpaceOnUse"
       gradientTransform="matrix(0.75988491,-0.03632001,0.13155835,2.7524547,16.986326,-78.268899)"
       r="12.650181"
       fy="46.658409"
       fx="96.306435"
       cy="46.658409"
       cx="96.306435"
       id="radialGradient3972"
       xlink:href="#linearGradient3966"
       inkscape:collect="always" />
    <clipPath
       clipPathUnits="userSpaceOnUse"
       id="clipPath2999-4">
      <path
         inkscape:connector-curvature="0"
         d="M 0,792 612,792 612,0 0,0 0,792 z"
         id="path3001-0" />
    </clipPath>
    <linearGradient
       id="linearGradient3966">
      <stop
         id="stop3968"
         offset="0"
         style="stop-color:#c0ac02;stop-opacity:1;" />
      <stop
         id="stop3970"
         offset="1"
         style="stop-color:#fdea41;stop-opacity:0;" />
    </linearGradient>
    <radialGradient
       inkscape:collect="always"
       xlink:href="#linearGradient3997"
       id="radialGradient4003"
       cx="165.81134"
       cy="47.693741"
       fx="165.81134"
       fy="47.693741"
       r="3.8123069"
       gradientTransform="matrix(0.64374811,-0.18781617,0.31213841,1.069868,43.640483,27.15595)"
       gradientUnits="userSpaceOnUse" />
    <radialGradient
       inkscape:collect="always"
       xlink:href="#linearGradient3997"
       id="radialGradient4007"
       gradientUnits="userSpaceOnUse"
       gradientTransform="matrix(-0.64374811,-0.18781617,-0.31213841,1.069868,293.73143,27.15595)"
       cx="165.81134"
       cy="47.693741"
       fx="165.81134"
       fy="47.693741"
       r="3.8123069" />
    <radialGradient
       inkscape:collect="always"
       xlink:href="#linearGradient4011"
       id="radialGradient4017"
       cx="169.32254"
       cy="41.784931"
       fx="169.32254"
       fy="41.784931"
       r="6.982676"
       gradientTransform="matrix(0.31036379,-0.01814613,0.03701409,0.63307367,114.75293,21.468668)"
       gradientUnits="userSpaceOnUse" />
    <linearGradient
       id="linearGradient3966-2">
      <stop
         style="stop-color:#c0ac02;stop-opacity:1;"
         offset="0"
         id="stop3968-4" />
      <stop
         style="stop-color:#fdea41;stop-opacity:0;"
         offset="1"
         id="stop3970-5" />
    </linearGradient>
    <clipPath
       id="clipPath2999-4-8"
       clipPathUnits="userSpaceOnUse">
      <path
         id="path3001-0-8"
         d="M 0,792 612,792 612,0 0,0 0,792 z"
         inkscape:connector-curvature="0" />
    </clipPath>
    <radialGradient
       inkscape:collect="always"
       xlink:href="#linearGradient3966-2"
       id="radialGradient3972-4"
       cx="96.306435"
       cy="46.658409"
       fx="96.306435"
       fy="46.658409"
       r="12.650181"
       gradientTransform="matrix(0.75988491,-0.03632001,0.13155835,2.7524547,16.986326,-78.268899)"
       gradientUnits="userSpaceOnUse" />
    <clipPath
       clipPathUnits="userSpaceOnUse"
       id="clipPath2999-0">
      <path
         inkscape:connector-curvature="0"
         d="M 0,792 612,792 612,0 0,0 0,792 z"
         id="path3001-9" />
    </clipPath>
    <inkscape:path-effect
       fuse_tolerance="0"
       vertical_pattern="false"
       prop_units="false"
       tang_offset="0"
       normal_offset="0"
       spacing="0"
       scale_y_rel="false"
       prop_scale="1"
       copytype="single_stretched"
       pattern="M 0,5 C 0,2.24 2.24,0 5,0 7.76,0 10,2.24 10,5 10,7.76 7.76,10 5,10 2.24,10 0,7.76 0,5 z"
       is_visible="true"
       id="path-effect4237-4"
       effect="skeletal" />
    <mask
       id="mask4064"
       maskUnits="userSpaceOnUse">
      <path
         inkscape:connector-curvature="0"
         d="m 195.68193,74.54469 c 8.7325,-47.29375 5.3425,-42.67875 14.2675,-42.85625 l 23.44,0 c 8.92625,0.1775 5.535,-4.4375 14.265,42.85625 l -51.9725,0 z"
         style="fill:#ffffff;fill-opacity:1;stroke:none;display:inline"
         id="path4066" />
    </mask>
    <inkscape:path-effect
       effect="skeletal"
       id="path-effect4237-4-5"
       is_visible="true"
       pattern="M 0,5 C 0,2.24 2.24,0 5,0 7.76,0 10,2.24 10,5 10,7.76 7.76,10 5,10 2.24,10 0,7.76 0,5 z"
       copytype="single_stretched"
       prop_scale="1"
       scale_y_rel="false"
       spacing="0"
       normal_offset="0"
       tang_offset="0"
       prop_units="false"
       vertical_pattern="false"
       fuse_tolerance="0" />
    <clipPath
       id="clipPath2999-0-6"
       clipPathUnits="userSpaceOnUse">
      <path
         id="path3001-9-8"
         d="M 0,792 612,792 612,0 0,0 0,792 z"
         inkscape:connector-curvature="0" />
    </clipPath>
    <radialGradient
       gradientUnits="userSpaceOnUse"
       gradientTransform="matrix(0.75988491,-0.03632001,0.13155835,2.7524547,16.986326,-78.268899)"
       r="12.650181"
       fy="46.658409"
       fx="96.306435"
       cy="46.658409"
       cx="96.306435"
       id="radialGradient3972-4-1"
       xlink:href="#linearGradient3966-2-4"
       inkscape:collect="always" />
    <clipPath
       clipPathUnits="userSpaceOnUse"
       id="clipPath2999-4-8-2">
      <path
         inkscape:connector-curvature="0"
         d="M 0,792 612,792 612,0 0,0 0,792 z"
         id="path3001-0-8-2" />
    </clipPath>
    <linearGradient
       id="linearGradient3966-2-4">
      <stop
         id="stop3968-4-2"
         offset="0"
         style="stop-color:#c0ac02;stop-opacity:1;" />
      <stop
         id="stop3970-5-3"
         offset="1"
         style="stop-color:#fdea41;stop-opacity:0;" />
    </linearGradient>
    <radialGradient
       gradientUnits="userSpaceOnUse"
       gradientTransform="matrix(0.31036379,-0.01814613,0.03701409,0.63307367,114.75293,21.468668)"
       r="6.982676"
       fy="41.784931"
       fx="169.32254"
       cy="41.784931"
       cx="169.32254"
       id="radialGradient4017-1"
       xlink:href="#linearGradient4011-4"
       inkscape:collect="always" />
    <radialGradient
       r="3.8123069"
       fy="47.693741"
       fx="165.81134"
       cy="47.693741"
       cx="165.81134"
       gradientTransform="matrix(-0.64374811,-0.18781617,-0.31213841,1.069868,293.73143,27.15595)"
       gradientUnits="userSpaceOnUse"
       id="radialGradient4007-6"
       xlink:href="#linearGradient3997-4"
       inkscape:collect="always" />
    <radialGradient
       gradientUnits="userSpaceOnUse"
       gradientTransform="matrix(0.64374811,-0.18781617,0.31213841,1.069868,43.640483,27.15595)"
       r="3.8123069"
       fy="47.693741"
       fx="165.81134"
       cy="47.693741"
       cx="165.81134"
       id="radialGradient4003-7"
       xlink:href="#linearGradient3997-4"
       inkscape:collect="always" />
    <linearGradient
       id="linearGradient3966-1">
      <stop
         style="stop-color:#c0ac02;stop-opacity:1;"
         offset="0"
         id="stop3968-5" />
      <stop
         style="stop-color:#fdea41;stop-opacity:0;"
         offset="1"
         id="stop3970-2" />
    </linearGradient>
    <clipPath
       id="clipPath2999-4-7"
       clipPathUnits="userSpaceOnUse">
      <path
         id="path3001-0-1"
         d="M 0,792 612,792 612,0 0,0 0,792 z"
         inkscape:connector-curvature="0" />
    </clipPath>
    <radialGradient
       inkscape:collect="always"
       xlink:href="#linearGradient3966-1"
       id="radialGradient3972-1"
       cx="96.306435"
       cy="46.658409"
       fx="96.306435"
       fy="46.658409"
       r="12.650181"
       gradientTransform="matrix(0.75988491,-0.03632001,0.13155835,2.7524547,16.986326,-78.268899)"
       gradientUnits="userSpaceOnUse" />
    <clipPath
       clipPathUnits="userSpaceOnUse"
       id="clipPath2999-45">
      <path
         inkscape:connector-curvature="0"
         d="M 0,792 612,792 612,0 0,0 0,792 z"
         id="path3001-5" />
    </clipPath>
    <inkscape:path-effect
       fuse_tolerance="0"
       vertical_pattern="false"
       prop_units="false"
       tang_offset="0"
       normal_offset="0"
       spacing="0"
       scale_y_rel="false"
       prop_scale="1"
       copytype="single_stretched"
       pattern="M 0,5 C 0,2.24 2.24,0 5,0 7.76,0 10,2.24 10,5 10,7.76 7.76,10 5,10 2.24,10 0,7.76 0,5 z"
       is_visible="true"
       id="path-effect4237-2"
       effect="skeletal" />
    <linearGradient
       id="linearGradient3997-4"
       inkscape:collect="always">
      <stop
         id="stop3999-8"
         offset="0"
         style="stop-color:#ffffff;stop-opacity:1;" />
      <stop
         id="stop4001-8"
         offset="1"
         style="stop-color:#ffffff;stop-opacity:0;" />
    </linearGradient>
    <linearGradient
       id="linearGradient4011-4"
       inkscape:collect="always">
      <stop
         id="stop4013-0"
         offset="0"
         style="stop-color:#ffffff;stop-opacity:1;" />
      <stop
         id="stop4015-9"
         offset="1"
         style="stop-color:#ffffff;stop-opacity:0;" />
    </linearGradient>
    <mask
       maskUnits="userSpaceOnUse"
       id="mask3979">
      <path
         id="path3981"
         style="fill:#ffffff;fill-opacity:1;stroke:#231f20;stroke-width:0.26118809;stroke-linecap:butt;stroke-linejoin:miter;stroke-miterlimit:4;stroke-opacity:1;stroke-dasharray:none;display:inline"
         d="m 149.02584,70.891151 c 6.15375,-42.28138 3.56552,-38.123168 10.55329,-38.395124 l 18.35896,-0.298577 c 6.9939,0.04457 4.27084,-4.027264 11.79428,38.031681 l -40.70653,0.66202 z"
         inkscape:connector-curvature="0" />
    </mask>
  </defs>
  <sodipodi:namedview
     id="base"
     pagecolor="#ffffff"
     bordercolor="#666666"
     borderopacity="1.0"
     inkscape:pageopacity="0.0"
     inkscape:pageshadow="2"
     inkscape:zoom="3.88"
     inkscape:cx="-4.2806204"
     inkscape:cy="54.372771"
     inkscape:document-units="px"
     inkscape:current-layer="layer1"
     showgrid="false"
     fit-margin-top="0"
     fit-margin-left="0"
     fit-margin-right="0"
     fit-margin-bottom="0"
     inkscape:window-width="1600"
     inkscape:window-height="848"
     inkscape:window-x="-8"
     inkscape:window-y="-8"
     inkscape:window-maximized="1"
     showguides="true"
     inkscape:guide-bbox="true"
     inkscape:snap-global="false">
    <sodipodi:guide
       orientation="0,1"
       position="51.72333,82.073208"
       id="guide3274" />
    <sodipodi:guide
       orientation="1,0"
       position="32.75659,89.353251"
       id="guide3960" />
  </sodipodi:namedview>
  <metadata
     id="metadata7">
    <rdf:RDF>
      <cc:Work
         rdf:about="">
        <dc:format>image/svg+xml</dc:format>
        <dc:type
           rdf:resource="http://purl.org/dc/dcmitype/StillImage" />
        <dc:title></dc:title>
      </cc:Work>
    </rdf:RDF>
  </metadata>
  <g
     inkscape:groupmode="layer"
     id="layer2"
     inkscape:label="martian"
     style="display:inline"
     transform="translate(-136.14312,6.1e-4)">
    <g
       inkscape:groupmode="layer"
       id="layer4"
       inkscape:label="bg"
       sodipodi:insensitive="true">
      <path
         inkscape:connector-curvature="0"
         d="m 142.96875,74.33989 c 8.73249,-47.29375 5.3425,-42.67875 14.26749,-42.85625 l 23.44001,0 c 8.92625,0.1775 5.535,-4.4375 14.265,42.85625 l -51.9725,0 z"
         style="fill:#287f46;fill-opacity:1;stroke:#231f20;stroke-width:0.3125;stroke-linecap:butt;stroke-linejoin:miter;stroke-miterlimit:4;stroke-opacity:1;stroke-dasharray:none;display:inline"
         id="path4150" />
      <path
         inkscape:connector-curvature="0"
         d="m 197.76801,74.544687 c 8.7325,-47.29375 5.3425,-42.67875 14.2675,-42.85625 l 23.44,0 c 8.92625,0.1775 5.535,-4.4375 14.265,42.85625 l -51.9725,0 z"
         style="fill:#287f46;stroke:#1b2a34;stroke-width:0.3125;stroke-linecap:butt;stroke-linejoin:miter;stroke-miterlimit:4;stroke-opacity:1;stroke-dasharray:none;display:inline"
         id="path3226" />
    </g>
    <g
       inkscape:groupmode="layer"
       id="layer5"
       inkscape:label="bodypaint"
       style="display:inline"
       sodipodi:insensitive="true">
      <path
         sodipodi:type="star"
         style="fill:none;stroke:#c4281b;stroke-width:7.56294537;stroke-linecap:butt;stroke-linejoin:miter;stroke-miterlimit:4;stroke-opacity:1;stroke-dasharray:none;stroke-dashoffset:0"
         id="path3966"
         sodipodi:sides="3"
         sodipodi:cx="169.36923"
         sodipodi:cy="69.12326"
         sodipodi:r1="21.23114"
         sodipodi:r2="6.9172025"
         sodipodi:arg1="-1.5870708"
         sodipodi:arg2="-0.53987327"
         inkscape:flatsided="true"
         inkscape:rounded="2.4286129e-017"
         inkscape:randomized="0"
         d="m 169.02372,47.894932 18.90254,31.543272 -36.76854,0.598442 z"
         inkscape:transform-center-y="-2.9158788"
         transform="matrix(1.2764232,0.01823438,-0.02075879,1.1212018,-45.779681,-7.6559901)"
         inkscape:transform-center-x="0.27660575"
         mask="url(#mask3979)" />
      <path
         style="fill:#4667a4;stroke:none"
         d="m 153.34375,31.65625 c -2.60541,0.188479 -3.28732,2.254942 -5.09375,12.6875 l 10.25,0 10.15625,6.09375 0,0.09375 0.0937,-0.0625 0.0625,0.0625 0,-0.09375 10.15625,-6.09375 10.6875,0 C 187.17935,30.032629 186.86301,31.810301 180.6875,31.6875 l -23.4375,0 c -1.67344,0.03328 -2.93762,-0.101322 -3.90625,-0.03125 z"
         id="rect3932"
         inkscape:connector-curvature="0" />
    </g>
    <g
       inkscape:groupmode="layer"
       id="layer3"
       inkscape:label="muscles"
       sodipodi:insensitive="true">
      <path
         style="font-size:medium;font-style:normal;font-variant:normal;font-weight:normal;font-stretch:normal;text-indent:0;text-align:start;text-decoration:none;line-height:normal;letter-spacing:normal;word-spacing:normal;text-transform:none;direction:ltr;block-progression:tb;writing-mode:lr-tb;text-anchor:start;baseline-shift:baseline;color:#000000;fill:#27462c;fill-opacity:1;stroke:none;stroke-width:4;marker:none;visibility:visible;display:inline;overflow:visible;enable-background:accumulate;font-family:Sans;-inkscape-font-specification:Sans"
         d="m 156.78125,32.5625 c -0.2043,0.0028 -0.39468,0.02497 -0.59375,0.03125 -0.7963,0.02502 -1.56674,0.05479 -2.25,0.15625 -1.36652,0.202912 -2.46436,0.555534 -2.78125,1.5 0.58861,-0.552233 1.12571,-0.845938 2.78125,-1.0625 1.30098,-0.17018 3.04029,10e-4 4.71875,0.0625 3.35693,0.122897 6.92564,0.63104 8.75,0.90625 0.59396,0.0896 0.96981,0.391874 1.15625,0.625 0.15222,0.223397 0.28013,0.853736 0.375,0.875 0.12696,0.02845 0.22542,-0.629005 0.40625,-0.875 0.18482,-0.234105 0.55721,-0.534634 1.15625,-0.625 1.82436,-0.27521 5.42432,-0.783353 8.78125,-0.90625 1.67846,-0.06146 3.38652,-0.232683 4.6875,-0.0625 1.65554,0.216562 2.19264,0.510267 2.78125,1.0625 -0.31689,-0.944466 -1.41473,-1.297088 -2.78125,-1.5 -0.68326,-0.101456 -1.4537,-0.131233 -2.25,-0.15625 -0.39814,-0.0125 -0.8036,-0.03441 -1.21875,-0.03125 -0.41515,0.0032 -0.8244,0.01567 -1.25,0.03125 -3.40483,0.124651 -7.00814,0.629346 -8.84375,0.90625 -0.62788,0.09472 -1.11742,0.340656 -1.4375,0.65625 -0.32002,-0.316854 -0.80788,-0.561272 -1.4375,-0.65625 -1.8356,-0.276903 -5.47017,-0.781599 -8.875,-0.90625 -0.4256,-0.01558 -0.83485,-0.0281 -1.25,-0.03125 -0.20758,-0.0015 -0.42069,-0.0028 -0.625,0 z m -7.03125,11.25 c -0.26252,0 -0.42577,1.960288 -0.25,2.75 0.17576,0.789703 0.56097,1.459318 1.21875,1.78125 0.45705,0.223701 1.07637,0.440533 1.8125,0.65625 -0.1876,0.09869 -0.3831,0.233044 -0.5625,0.40625 -0.27581,0.266287 -0.39739,0.65 -0.53125,1.15625 -0.009,0.03337 -0.0225,0.05943 -0.0312,0.09375 -0.79099,-0.209813 -1.69644,-0.827589 -2.875,-1.34375 0.77943,1.078659 1.77091,1.758981 2.75,2 -0.0594,0.318551 -0.1117,0.652338 -0.15625,1 -0.0357,0.27905 -0.0684,0.56204 -0.0937,0.84375 -0.79441,-0.205922 -1.72127,-0.822372 -2.90625,-1.34375 0.8148,1.107466 1.82997,1.814191 2.84375,2.03125 -0.0405,0.692192 -0.0197,1.312074 0.0312,1.8125 -0.67043,-0.04 -1.77458,-0.857944 -2.65625,-1.25 0.79729,0.819725 1.52238,1.729205 2.84375,1.9375 0.19096,0.344408 0.49863,0.651327 0.875,0.9375 0.54926,0.417637 1.23331,0.792367 1.96875,1.125 0.73543,0.33264 1.49561,0.688103 2.1875,0.8125 0.60436,0.108672 1.02583,0.459988 1.34375,0.75 0.11922,0.633649 0.33373,1.254551 0.59375,1.71875 0.21918,0.39128 0.3711,0.769059 0.65625,1.09375 0.2044,0.232742 0.49646,0.428918 0.84375,0.53125 -0.31024,0.282305 -0.51042,0.675856 -0.59375,1.15625 -0.1533,0.883749 -0.26561,1.92326 0.25,2.84375 0.21918,0.391279 0.40235,0.76906 0.6875,1.09375 0.13086,0.149002 0.27933,0.273591 0.46875,0.375 -0.0361,0.027 -0.06,0.06339 -0.0937,0.09375 -0.31365,0.282531 -0.50992,0.67298 -0.59375,1.15625 -0.147,1.072552 -0.0813,1.889508 0.125,2.8125 0.106,0.296445 0.3161,0.620241 0.6875,0.875 0.45186,0.309934 0.88636,0.453267 1.40625,0.5 0.51989,0.04673 1.12375,0.01064 1.9375,0.03125 1.64556,0.04167 2.75994,0.08491 4.0625,-0.5 0.47045,-0.21125 0.78137,-0.584661 0.96875,-0.9375 0.18765,0.350468 0.47069,0.727884 0.9375,0.9375 1.30256,0.584907 2.41694,0.54167 4.0625,0.5 0.81375,-0.02061 1.38636,0.01548 1.90625,-0.03125 0.51989,-0.04673 0.98564,-0.190066 1.4375,-0.5 0.3714,-0.254759 0.5815,-0.578555 0.6875,-0.875 0.24639,-0.895985 0.2185,-1.879139 0.125,-2.8125 -0.0838,-0.48327 -0.28009,-0.873719 -0.59375,-1.15625 -0.0336,-0.03037 -0.0576,-0.06675 -0.0937,-0.09375 0.18942,-0.101409 0.3379,-0.225998 0.46875,-0.375 0.28515,-0.32469 0.46832,-0.702471 0.6875,-1.09375 0.51561,-0.92049 0.40329,-1.960001 0.25,-2.84375 -0.0833,-0.480394 -0.2835,-0.873945 -0.59375,-1.15625 0.3473,-0.102332 0.63935,-0.298508 0.84375,-0.53125 0.28515,-0.324691 0.46832,-0.70247 0.6875,-1.09375 0.26002,-0.464199 0.44328,-1.085101 0.5625,-1.71875 0.31792,-0.290012 0.7394,-0.641328 1.34375,-0.75 0.69189,-0.124397 1.45207,-0.47986 2.1875,-0.8125 0.73544,-0.332633 1.41949,-0.707363 1.96875,-1.125 0.36783,-0.279682 0.6825,-0.571302 0.875,-0.90625 1.38527,-0.17688 2.12056,-1.128819 2.9375,-1.96875 -0.90811,0.403811 -2.08847,1.257144 -2.75,1.25 0.0511,-0.500426 0.0718,-1.120308 0.0312,-1.8125 1.01378,-0.217059 2.0194,-0.899264 2.84375,-2 -1.17544,0.528109 -2.11183,1.106578 -2.90625,1.3125 -0.0255,-0.28171 -0.0582,-0.5647 -0.0937,-0.84375 -0.0445,-0.347662 -0.0968,-0.681449 -0.15625,-1 0.9791,-0.241019 1.96102,-0.896821 2.75,-1.96875 -1.16903,0.522892 -2.08401,1.102687 -2.875,1.3125 -0.009,-0.0343 -0.0223,-0.06035 -0.0312,-0.09375 -0.13385,-0.50625 -0.25545,-0.889963 -0.53125,-1.15625 -0.1794,-0.173206 -0.37489,-0.307558 -0.5625,-0.40625 0.73615,-0.215717 1.35543,-0.432549 1.8125,-0.65625 0.65778,-0.321932 1.043,-0.991547 1.21875,-1.78125 0.17577,-0.789712 0.18043,-1.746677 -0.25,-2.75 -0.24262,1.027367 -0.25579,1.917743 -0.40625,2.59375 -0.15044,0.676 -0.41726,1.103754 -0.84375,1.3125 -1.16256,0.568989 -3.92741,1.234469 -6.90625,1.78125 -2.97883,0.546781 -6.19216,1.011973 -8.34375,1.21875 -0.58786,0.05652 -1.06729,-0.185681 -1.4375,-0.59375 -0.37021,-0.408068 -1.14282,-1.654691 -1.25,-2.1875 l 0,0.15625 -0.0312,-0.15625 c -0.10333,-0.53357 -0.87979,1.779432 -1.25,2.1875 -0.37021,0.408069 -0.84964,0.65025 -1.4375,0.59375 -2.15158,-0.206777 -5.36491,-0.671969 -8.34375,-1.21875 -2.97883,-0.546781 -5.7437,-1.212261 -6.90625,-1.78125 -0.42651,-0.208746 -0.69329,-0.6365 -0.84375,-1.3125 -0.15045,-0.676007 -0.16363,-1.566383 -0.40625,-2.59375 z m 3.9375,5.5 c 0,-0.09499 2.64378,0.603111 4.125,0.875 2.99917,0.550514 6.19532,0.978023 8.375,1.1875 0.812,0.07808 1.52593,-0.289955 2,-0.8125 0.22109,-0.243709 0.58892,-0.648969 0.78125,-0.96875 0.20488,0.330713 0.57465,0.741018 0.78125,0.96875 0.47407,0.522545 1.15675,0.890545 1.96875,0.8125 2.17967,-0.209476 5.37582,-0.636987 8.375,-1.1875 1.48122,-0.271889 4.125,-0.875 4.125,-0.875 l 0,0.03125 c 0,0 0.70824,0.0084 1.25,0.53125 0.0475,0.04588 0.22126,0.380523 0.34375,0.84375 0.12249,0.463226 0.2326,1.06395 0.3125,1.6875 0.1598,1.247077 0.22196,2.620619 0.125,3.34375 -0.0311,0.231786 -0.32587,0.629972 -0.8125,1 -0.48665,0.37002 -1.13966,0.74405 -1.84375,1.0625 -1.44081,0.646698 -2.12514,0.929059 -3.25,0.09375 -0.049,-0.257843 -0.10305,-0.477612 -0.21875,-0.6875 -0.16415,-0.297728 -0.40965,-0.539971 -0.84375,-0.90625 -0.1732,-0.146127 -0.37236,-0.238408 -0.65625,-0.34375 -0.2839,-0.105343 -0.64015,-0.208726 -1.03125,-0.3125 -0.78217,-0.20754 -1.75344,-0.390945 -2.71875,-0.5625 -0.9653,-0.171553 -1.92489,-0.326117 -2.71875,-0.40625 -0.39695,-0.04008 -0.73905,-0.05638 -1.03125,-0.0625 -0.0731,-0.0017 -0.15401,0 -0.21875,0 -0.19426,1.51e-4 -0.3499,-0.01261 -0.5,0.03125 -0.49372,0.144188 -0.88105,0.300865 -1.1875,0.53125 -0.0984,0.07397 -0.17491,0.155845 -0.25,0.25 -0.0753,-0.09459 -0.18249,-0.175755 -0.28125,-0.25 -0.30646,-0.230385 -0.69378,-0.387062 -1.1875,-0.53125 -0.1501,-0.04386 -0.30576,-0.03109 -0.5,-0.03125 -0.0647,-5.1e-5 -0.11446,-0.0018 -0.1875,0 -0.29221,0.0058 -0.66557,0.02242 -1.0625,0.0625 -0.79388,0.08018 -1.75344,0.234697 -2.71875,0.40625 -0.96531,0.171555 -1.93657,0.35496 -2.71875,0.5625 -0.39109,0.103774 -0.7161,0.207157 -1,0.3125 -0.2839,0.105342 -0.51431,0.197623 -0.6875,0.34375 -0.43411,0.366279 -0.67961,0.608522 -0.84375,0.90625 -0.11572,0.209888 -0.1697,0.429657 -0.21875,0.6875 -1.12487,0.83531 -1.80919,0.552948 -3.25,-0.09375 -0.70408,-0.318451 -1.35711,-0.69248 -1.84375,-1.0625 -0.48664,-0.370028 -0.78143,-0.768215 -0.8125,-1 -0.097,-0.723131 -0.0348,-2.096674 0.125,-3.34375 0.0799,-0.623542 0.19001,-1.224274 0.3125,-1.6875 0.12249,-0.463227 0.29622,-0.79786 0.34375,-0.84375 0.54177,-0.523072 1.25,-0.53125 1.25,-0.53125 z m 12.96875,6 c 0.18491,0.006 0.32403,0.01966 0.65625,0 0.46684,0.136339 0.78121,0.265256 0.96875,0.40625 0.18755,0.140993 0.29252,0.282643 0.34375,0.5625 8.4e-4,0.0042 -8.4e-4,0.02655 0,0.03125 -0.13931,0.961433 -0.20442,3.597857 -0.0312,4.59375 0.006,0.03573 0.0239,0.08984 0.0312,0.125 -0.20543,0.671403 -0.79355,1.224067 -1.125,1.34375 0.0152,-0.0058 -0.13465,0.03843 -0.34375,0.0625 -0.20909,0.02399 -0.48995,0.03868 -0.8125,0.0625 -0.6451,0.04772 -1.47331,0.119456 -2.3125,0.15625 -1.67838,0.07355 -3.48021,0.09274 -3.90625,0.0625 -0.42816,-0.03036 -0.6181,-0.153655 -0.8125,-0.375 -0.19364,-0.220488 -0.36242,-0.555431 -0.59375,-0.96875 0,-0.80855 -0.5625,-2.263422 -0.5625,-3 0,-0.43615 0.12401,-0.640644 0.21875,-0.8125 0.0953,-0.172887 0.26892,-0.365578 0.6875,-0.71875 0.04,-0.03371 0.21604,-0.156232 0.46875,-0.25 0.25271,-0.09377 0.59125,-0.181081 0.96875,-0.28125 0.75501,-0.200327 1.7051,-0.393462 2.65625,-0.5625 0.95115,-0.169038 1.88597,-0.328499 2.65625,-0.40625 0.42397,-0.04644 0.65884,-0.03724 0.84375,-0.03125 z m 3.9375,0 c 0.53697,-0.01703 0.94795,0.07394 1.5,0.03125 0.77028,0.07774 1.7051,0.237212 2.65625,0.40625 0.95115,0.169038 1.90124,0.362164 2.65625,0.5625 0.37751,0.100168 0.71604,0.187481 0.96875,0.28125 0.25271,0.09377 0.42877,0.216261 0.46875,0.25 0.41858,0.353171 0.62344,0.545863 0.71875,0.71875 0.0947,0.171855 0.1875,0.376364 0.1875,0.8125 0,0.736587 -0.5625,2.191463 -0.5625,3 0,0.47366 -0.40011,0.748262 -0.59375,0.96875 -0.19439,0.221345 -0.38435,0.344658 -0.8125,0.375 -0.42604,0.03019 -2.22787,0.01081 -3.90625,-0.0625 -0.83919,-0.03682 -1.6674,-0.108526 -2.3125,-0.15625 -0.32254,-0.02382 -0.57216,-0.03852 -0.78125,-0.0625 -0.2091,-0.02399 -0.39023,-0.06796 -0.375,-0.0625 -0.33144,-0.119684 -0.88833,-0.672347 -1.09375,-1.34375 0.008,-0.03513 -0.006,-0.08934 0,-0.125 0.17313,-0.995893 0.10802,-3.632317 -0.0312,-4.59375 8.3e-4,-0.0051 -8.4e-4,-0.02688 0,-0.03125 0.0512,-0.279849 0.1562,-0.421516 0.34375,-0.5625 0.18754,-0.140994 0.50191,-0.269911 0.96875,-0.40625 z m -23.34375,2.75 -0.53125,0.375 c 1.02746,1.408691 2.01671,2.135714 2.34375,3.625 0.41651,1.896666 0.20193,10.242067 0.5,10.28125 0,0 0.60246,-8.405518 0.15625,-10.4375 -0.37833,-1.72284 -1.50599,-2.523754 -2.46875,-3.84375 z m 43.40625,0 c -0.96276,1.319996 -2.09042,2.12091 -2.46875,3.84375 -0.44621,2.031982 -0.14183,10.476681 0.15625,10.4375 0.29807,-0.03917 0.0835,-8.384584 0.5,-10.28125 0.32704,-1.489286 1.31629,-2.216309 2.34375,-3.625 z m -23.75,5.21875 c 0.21433,-8.39e-4 0.36994,-0.0088 0.46875,0 0.43261,0.03883 0.72456,0.158029 0.90625,0.3125 0.18169,0.154479 0.29151,0.370866 0.34375,0.65625 -0.11547,0.667152 -0.18592,1.391823 -0.0312,2.28125 0.006,0.03589 0.0239,0.08967 0.0312,0.125 -0.20543,0.671413 -0.79354,1.224058 -1.125,1.34375 -0.003,8.38e-4 -0.13609,0.03868 -0.3125,0.0625 -0.17644,0.02382 -0.42039,0.03869 -0.6875,0.0625 -0.53424,0.04755 -1.21431,0.08826 -1.90625,0.125 -1.38392,0.07347 -2.84599,0.124641 -3.28125,0.09375 -0.42816,-0.03036 -0.61811,-0.153648 -0.8125,-0.375 -0.19439,-0.221344 -0.36103,-0.584534 -0.59375,-1 -0.3882,-0.693007 -0.1875,-1.510196 -0.1875,-2.375 0,-0.387206 0.20045,-0.624012 0.375,-0.78125 0.17543,-0.158018 0.44138,-0.271128 0.8125,-0.28125 0.45109,-0.01224 1.81482,-0.08473 3.21875,-0.15625 1.05294,-0.05368 3.41709,0.0016 2.78125,-0.09375 z m 3.625,0 c 0.0494,-0.0042 0.12194,0.01015 0.1875,0 0.0798,-0.0017 0.17409,-4.19e-4 0.28125,0 0.64297,0.0033 1.7283,0.04007 2.78125,0.09375 1.40392,0.07154 2.79892,0.143947 3.25,0.15625 0.37112,0.01015 0.60583,0.123232 0.78125,0.28125 0.17455,0.157229 0.375,0.394043 0.375,0.78125 0,0.864808 0.20069,1.681985 -0.1875,2.375 -0.23273,0.415466 -0.39935,0.778648 -0.59375,1 -0.19439,0.221345 -0.38435,0.344658 -0.8125,0.375 -0.43528,0.03086 -1.89735,-0.02044 -3.28125,-0.09375 -0.69196,-0.03673 -1.37202,-0.07744 -1.90625,-0.125 -0.26712,-0.02382 -0.51108,-0.03868 -0.6875,-0.0625 -0.17643,-0.02373 -0.30948,-0.06149 -0.3125,-0.0625 -0.33121,-0.119599 -0.88796,-0.672958 -1.09375,-1.34375 0.007,-0.03506 -0.006,-0.08934 0,-0.125 0.15463,-0.889427 0.0841,-1.614098 -0.0312,-2.28125 0.0522,-0.285384 0.16206,-0.50178 0.34375,-0.65625 0.18171,-0.154471 0.47364,-0.273721 0.90625,-0.3125 z m -4.28125,5.5625 c 0.52094,-0.01781 0.9237,-0.01805 1.125,0 0.43261,0.03883 0.72454,0.158021 0.90625,0.3125 0.18169,0.15447 0.29153,0.370866 0.34375,0.65625 -0.1096,0.632788 -0.18801,1.326629 -0.0625,2.15625 -0.0515,0.192206 -0.25636,0.954988 -0.84375,1.21875 -1.17748,0.528737 -2.13567,0.47917 -3.78125,0.4375 -0.83182,-0.02106 -1.41741,0.0099 -1.875,-0.03125 -0.45759,-0.04113 -0.7623,-0.126227 -1.125,-0.375 -0.79451,-0.829284 -0.61055,-1.935226 -0.5,-3.0625 0,-0.390386 0.19958,-0.623232 0.375,-0.78125 0.17544,-0.158017 0.41013,-0.271127 0.78125,-0.28125 0.45363,-0.01241 1.68126,-0.08476 2.90625,-0.15625 0.61249,-0.03572 1.22906,-0.07594 1.75,-0.09375 z m 4.28125,0 c 0.40259,-0.03606 1.68128,0.02228 2.90625,0.09375 1.22499,0.07145 2.42137,0.143881 2.875,0.15625 0.37112,0.01006 0.60582,0.123233 0.78125,0.28125 0.17542,0.158018 0.30828,0.396604 0.375,0.78125 0.11329,1.480208 0.19609,2.117804 -0.5,3.0625 -0.3627,0.248773 -0.66741,0.333867 -1.125,0.375 -0.45759,0.04113 -1.07443,0.01019 -1.90625,0.03125 -1.64558,0.04167 -2.60377,0.09124 -3.78125,-0.4375 -0.33199,-0.149066 -0.54394,-0.482579 -0.6875,-0.78125 -0.0966,-0.200982 -0.12797,-0.276066 -0.15625,-0.375 0.14021,-0.860355 0.0813,-1.568441 -0.0312,-2.21875 0.0522,-0.285384 0.16205,-0.50178 0.34375,-0.65625 0.1817,-0.154479 0.47364,-0.273714 0.90625,-0.3125 z"
         id="path4113"
         inkscape:connector-curvature="0"
         sodipodi:nodetypes="scscscscccssscsccsscsscscsccscccccccccccscccsscscscccccssscssscccccccccsscccscccccccccccccsccccscscccsssscccssccccsscccssccccccsssccccccsccccsssscccscssscsccccccccccccccsccscsccccsssccsssscccccccccccccscsccscscccccccccccscccsccccccccccscscccccccccccsccccssccccccsccccccssccccccc" />
      <g
         id="g3046"
         style="fill:#27462c;fill-opacity:1"
         transform="translate(0,-0.2048)">
        <path
           style="font-size:medium;font-style:normal;font-variant:normal;font-weight:normal;font-stretch:normal;text-indent:0;text-align:start;text-decoration:none;line-height:normal;letter-spacing:normal;word-spacing:normal;text-transform:none;direction:ltr;block-progression:tb;writing-mode:lr-tb;text-anchor:start;baseline-shift:baseline;color:#000000;fill:#27462c;fill-opacity:1;stroke:none;stroke-width:4;marker:none;visibility:visible;display:inline;overflow:visible;enable-background:accumulate;font-family:Sans;-inkscape-font-specification:Sans"
           d="m 201.39843,58.566312 -0.55195,0.398227 c 1.05269,1.430088 2.08167,2.151757 2.41674,3.663665 0.42674,1.925476 0.18761,10.168513 0.493,10.208291 0.3054,0.03977 0.63401,-8.294113 0.17685,-10.35696 -0.38762,-1.74901 -1.54825,-2.573176 -2.53464,-3.913223 z m 44.46059,0 c -0.98639,1.340047 -2.14701,2.164213 -2.53463,3.913223 -0.45716,2.062847 -0.12856,10.156064 0.17684,10.116287 0.30539,-0.03976 0.0663,-8.042142 0.493,-9.967618 0.33507,-1.511908 1.36405,-2.233577 2.41674,-3.663665 z"
           id="path3251"
           inkscape:connector-curvature="0"
           sodipodi:nodetypes="ccsssccscscc" />
        <path
           id="path3255"
           d="m 213.52938,33.016687 c -1.20383,0.02769 -2.24845,-0.01955 -3.21875,0.34375 -1.24904,0.467657 -2.36125,1.097646 -3.4375,1.6875 -0.27039,0.148195 -0.54349,0.30088 -0.8125,0.4375 -0.80509,0.450894 -0.5752,0.868212 0.15625,0.46875 1.43338,-0.72796 2.93805,-1.420105 4.46875,-1.96875 0.87113,-0.312237 1.79339,-0.507091 2.84375,-0.53125 0.72463,-0.02946 0.84443,-0.455958 0,-0.4375 z m 8.53125,5.9375 c -0.1191,0.02326 -0.294,0.137971 -0.4375,0.34375 -0.91837,1.285378 -1.33811,2.565469 -1.78125,3.6875 -0.44314,1.122031 -0.90378,2.069622 -1.96875,2.875 -1.24648,0.942647 -2.85694,1.859889 -6.8125,1.96875 -1.78328,0.05411 -0.37793,0.461134 0.0312,0.53125 1.89764,-0.05222 3.33062,-0.09265 4.4375,-0.4375 1.26582,-0.394378 2.10968,-0.93725 2.8125,-1.46875 1.21161,-0.916273 1.7615,-2.060995 2.21875,-3.21875 0.45725,-1.157755 0.59651,-2.541666 1.4375,-3.71875 0.32291,-0.399261 0.261,-0.601262 0.0625,-0.5625 z m 0.625,8.75 c -0.18504,-0.100857 -0.44531,0.395207 -0.4375,1 -0.0595,3.314237 -0.86923,5.743465 -1.25,8.40625 -0.50265,3.515112 -0.91746,7.270232 -0.3125,13.375 0.0327,0.26181 0.30069,0.470226 0.5625,0.4375 0.26181,-0.03273 0.47024,-0.300693 0.4375,-0.5625 -1.04838,-10.579387 1.04641,-13.854802 1.1875,-21.71875 0.0182,-0.588666 -0.0765,-0.876986 -0.1875,-0.9375 z"
           style="font-size:medium;font-style:normal;font-variant:normal;font-weight:normal;font-stretch:normal;text-indent:0;text-align:start;text-decoration:none;line-height:normal;letter-spacing:normal;word-spacing:normal;text-transform:none;direction:ltr;block-progression:tb;writing-mode:lr-tb;text-anchor:start;baseline-shift:baseline;color:#000000;fill:#27462c;fill-opacity:1;stroke:none;stroke-width:1px;marker:none;visibility:visible;display:inline;overflow:visible;enable-background:accumulate;font-family:Sans;-inkscape-font-specification:Sans"
           inkscape:connector-curvature="0" />
        <use
           height="68.90625"
           width="113.125"
           transform="matrix(-1,0,0,1,447.50854,0)"
           id="use4043"
           xlink:href="#path3255"
           y="0"
           x="0"
           style="fill:#27462c;fill-opacity:1" />
      </g>
    </g>
    <g
       inkscape:groupmode="layer"
       id="layer6"
       inkscape:label="symbol"
       style="display:inline"
       sodipodi:insensitive="true">
      <g
         id="g3961"
         transform="translate(0,-1.1056335)">
        <path
           transform="matrix(1.0266667,0,0,1.0266667,-5.6706726,-3.0914133)"
           d="m 176.04546,53.394939 c 0,3.289149 -2.66638,5.95553 -5.95552,5.95553 -3.28915,0 -5.95553,-2.666381 -5.95553,-5.95553 0,-3.289148 2.66638,-5.955529 5.95553,-5.955529 3.28914,0 5.95552,2.666381 5.95552,5.955529 z"
           sodipodi:ry="5.9555297"
           sodipodi:rx="5.9555297"
           sodipodi:cy="53.394939"
           sodipodi:cx="170.08994"
           id="path3147"
           style="fill:#c4281b;fill-opacity:1;stroke:#1b2a34;stroke-width:0.48701298;stroke-miterlimit:4;stroke-dasharray:none;display:inline"
           sodipodi:type="arc" />
        <path
           sodipodi:type="arc"
           style="fill:#1b2a34;fill-opacity:1;stroke:#1b2a34;stroke-width:0.48701298;stroke-miterlimit:4;stroke-dasharray:none;display:inline"
           id="path3917"
           sodipodi:cx="170.08994"
           sodipodi:cy="53.394939"
           sodipodi:rx="5.9555297"
           sodipodi:ry="5.9555297"
           d="m 176.04546,53.394939 c 0,3.289149 -2.66638,5.95553 -5.95552,5.95553 -3.28915,0 -5.95553,-2.666381 -5.95553,-5.95553 0,-3.289148 2.66638,-5.955529 5.95553,-5.955529 3.28914,0 5.95552,2.666381 5.95552,5.955529 z"
           transform="matrix(0.79609422,0,0,0.79609422,33.547385,9.2199902)" />
        <path
           transform="matrix(0.99599785,0.08937718,-0.08937718,0.99599785,7.0148677,-12.163667)"
           d="m 167.38809,53.354173 c -0.41001,0.03772 -0.33721,-2.95977 -0.73044,-3.081828 -0.39323,-0.122058 -2.03053,2.389808 -2.34711,2.126558 -0.31659,-0.263249 1.85443,-2.331314 1.66268,-2.695677 -0.19174,-0.364363 -3.12565,0.254049 -3.16336,-0.155957 -0.0377,-0.410006 2.95977,-0.337207 3.08183,-0.730436 0.12205,-0.393229 -2.38981,-2.030528 -2.12656,-2.347115 0.26325,-0.316587 2.33131,1.854432 2.69568,1.662685 0.36436,-0.191747 -0.25405,-3.125649 0.15595,-3.163365 0.41001,-0.03771 0.33721,2.95977 0.73044,3.081828 0.39323,0.122058 2.03053,-2.389807 2.34711,-2.126558 0.31659,0.263249 -1.85443,2.331315 -1.66268,2.695678 0.19175,0.364363 3.12565,-0.254049 3.16336,0.155957 0.0377,0.410006 -2.95977,0.337207 -3.08182,0.730436 -0.12206,0.393229 2.3898,2.030528 2.12655,2.347115 -0.26325,0.316587 -2.33131,-1.854433 -2.69567,-1.662686 -0.36437,0.191747 0.25404,3.12565 -0.15596,3.163365 z"
           inkscape:randomized="0"
           inkscape:rounded="0.13"
           inkscape:flatsided="false"
           sodipodi:arg2="1.8717663"
           sodipodi:arg1="1.4790672"
           sodipodi:r2="1.1630177"
           sodipodi:r1="4.210268"
           sodipodi:cy="49.161606"
           sodipodi:cx="167.00243"
           sodipodi:sides="8"
           id="path3926"
           style="fill:#c4281b;fill-opacity:1;stroke:none"
           sodipodi:type="star" />
      </g>
    </g>
    <g
       inkscape:groupmode="layer"
       id="layer8"
       inkscape:label="pants"
       style="display:inline"
       sodipodi:insensitive="true">
      <path
         id="path4009"
         style="fill:#4667a4;fill-opacity:1;stroke:#231f20;stroke-width:0.3125;stroke-linecap:butt;stroke-linejoin:miter;stroke-miterlimit:4;stroke-opacity:1;stroke-dasharray:none;display:inline"
         d="m 166.1525,123.39518 -22.6975,0 0,-42.43375 22.6975,0 0,42.43375 z"
         inkscape:connector-curvature="0" />
      <path
         inkscape:connector-curvature="0"
         d="m 194.43533,123.39518 -22.6975,0 0,-42.43375 22.6975,0 0,42.43375 z"
         style="fill:#4667a4;fill-opacity:1;stroke:#231f20;stroke-width:0.3125;stroke-linecap:butt;stroke-linejoin:miter;stroke-miterlimit:4;stroke-opacity:1;stroke-dasharray:none;display:inline"
         id="path4011" />
      <path
         sodipodi:nodetypes="ccc"
         inkscape:connector-curvature="0"
         id="path4007"
         d="m 173.41615,107.65582 c 1.59391,-2.45328 4.81033,-2.15572 6.03325,0 -2.14579,-1.59938 -4.69582,-1.13471 -6.03325,0 z"
         style="fill:#1b2a34;stroke:none" />
      <path
         style="fill:none;stroke:#1b2a34;stroke-width:1px;stroke-linecap:butt;stroke-linejoin:miter;stroke-opacity:1"
         d="m 194.34416,111.40896 c -7.58123,0.43818 -15.16245,0.52295 -22.74368,0"
         id="path4001"
         inkscape:connector-curvature="0"
         sodipodi:nodetypes="cc" />
      <path
         style="fill:none;stroke:#1b2a34;stroke-width:0.625;stroke-linecap:butt;stroke-linejoin:miter;stroke-miterlimit:4;stroke-opacity:1;stroke-dasharray:none"
         d="m 171.48014,103.58706 c 7.62134,0.58431 15.24268,0.36768 22.86402,0"
         id="path3999"
         inkscape:connector-curvature="0"
         sodipodi:nodetypes="cc" />
      <path
         style="fill:#c4281b;stroke:#1b2a34;stroke-width:0.5;stroke-miterlimit:4;stroke-dasharray:none"
         d="m 171.75,80.96424 0,30.25 18.125,-30.25 -18.125,0 z"
         id="path3984"
         inkscape:connector-curvature="0" />
      <path
         style="fill:#1b2a34;stroke:none"
         d="m 171.75,80.96424 0,26.03125 15.59375,-26.03125 -15.59375,0 z"
         id="path3989"
         inkscape:connector-curvature="0" />
      <path
         style="fill:#c4281b;stroke:none"
         d="m 171.75,80.96424 0,16.5625 8.5,-16.5625 -8.5,0 z"
         id="path3991"
         inkscape:connector-curvature="0" />
      <path
         style="fill:#1b2a34;stroke:none"
         d="m 193.10358,109.33921 c -5.59658,0.5725 -3.4155,-2.14562 -7.57202,-2.6197 5.39119,-0.0904 2.12275,2.61821 7.57202,2.6197 z"
         id="path4003"
         inkscape:connector-curvature="0"
         sodipodi:nodetypes="ccc" />
      <path
         style="fill:#1b2a34;stroke:none"
         d="m 178.81431,109.10105 c 2.08677,2.45328 6.29773,2.15572 7.89879,0 -2.80929,1.59938 -6.14781,1.13471 -7.89879,0 z"
         id="path4005"
         inkscape:connector-curvature="0"
         sodipodi:nodetypes="ccc" />
      <path
         style="fill:#1b2a34;stroke:none"
         d="m 164.58617,107.65582 c -1.59391,-2.45328 -4.81033,-2.15572 -6.03325,0 2.14579,-1.59938 4.69582,-1.13471 6.03325,0 z"
         id="path4019"
         inkscape:connector-curvature="0"
         sodipodi:nodetypes="ccc" />
      <path
         sodipodi:nodetypes="cc"
         inkscape:connector-curvature="0"
         id="path4021"
         d="m 143.65816,111.40896 c 7.58123,0.43818 15.16245,0.52295 22.74368,0"
         style="fill:none;stroke:#1b2a34;stroke-width:1px;stroke-linecap:butt;stroke-linejoin:miter;stroke-opacity:1" />
      <path
         sodipodi:nodetypes="cc"
         inkscape:connector-curvature="0"
         id="path4023"
         d="m 166.52218,103.58706 c -7.62134,0.58431 -15.24268,0.36768 -22.86402,0"
         style="fill:none;stroke:#1b2a34;stroke-width:0.625;stroke-linecap:butt;stroke-linejoin:miter;stroke-miterlimit:4;stroke-opacity:1;stroke-dasharray:none" />
      <path
         inkscape:connector-curvature="0"
         id="path4025"
         d="m 166.25232,80.96424 0,30.25 -18.125,-30.25 18.125,0 z"
         style="fill:#c4281b;stroke:#1b2a34;stroke-width:0.5;stroke-miterlimit:4;stroke-dasharray:none" />
      <path
         inkscape:connector-curvature="0"
         id="path4027"
         d="m 166.25232,80.96424 0,26.03125 -15.59375,-26.03125 15.59375,0 z"
         style="fill:#1b2a34;stroke:none" />
      <path
         inkscape:connector-curvature="0"
         id="path4029"
         d="m 166.25232,80.96424 0,16.5625 -8.5,-16.5625 8.5,0 z"
         style="fill:#c4281b;stroke:none" />
      <path
         sodipodi:nodetypes="ccc"
         inkscape:connector-curvature="0"
         id="path4031"
         d="m 144.89874,109.33921 c 5.66879,0.5725 3.45958,-2.14562 7.66971,-2.6197 -5.46074,-0.0904 -2.15013,2.61821 -7.66971,2.6197 z"
         style="fill:#1b2a34;stroke:none" />
      <path
         sodipodi:nodetypes="ccc"
         inkscape:connector-curvature="0"
         id="path4033"
         d="m 159.18801,109.10105 c -2.08677,2.45328 -6.29773,2.15572 -7.89879,0 2.80929,1.59938 6.14781,1.13471 7.89879,0 z"
         style="fill:#1b2a34;stroke:none" />
      <path
         id="path4035"
         style="fill:#4667a4;fill-opacity:1;stroke:#231f20;stroke-width:0.3125;stroke-linecap:butt;stroke-linejoin:miter;stroke-miterlimit:4;stroke-opacity:1;stroke-dasharray:none;display:inline"
         d="m 143.45625,137.23643 22.695,0 0,-11.205 -22.695,0 0,11.205 z"
         inkscape:connector-curvature="0" />
      <path
         id="path4037"
         style="fill:#4667a4;fill-opacity:1;stroke:#231f20;stroke-width:0.3125;stroke-linecap:butt;stroke-linejoin:miter;stroke-miterlimit:4;stroke-opacity:1;stroke-dasharray:none;display:inline"
         d="m 171.68625,137.23643 22.695,0 0,-11.205 -22.695,0 0,11.205 z"
         inkscape:connector-curvature="0" />
    </g>
    <g
       inkscape:groupmode="layer"
       id="layer7"
       inkscape:label="face"
       sodipodi:insensitive="true">
      <path
         id="path4201"
         style="fill:#287f46;stroke:#231f20;stroke-width:0.3125;stroke-linecap:butt;stroke-linejoin:miter;stroke-miterlimit:4;stroke-opacity:1;stroke-dasharray:none;display:inline"
         d="m 249.09349,21.56094 -112.8,0 0,-21.39125 112.8,0 0,21.39125 z"
         inkscape:connector-curvature="0" />
      <g
         id="g4127"
         transform="translate(62.542472,1.4655061)">
        <g
           transform="translate(-219.5946,-163.38318)"
           style="fill:#27462c;stroke:#27462c;display:inline"
           id="g4462">
          <path
             style="fill:#27462c;stroke:#27462c;stroke-width:0.125;stroke-linecap:round;stroke-linejoin:round;stroke-miterlimit:4;stroke-dasharray:none"
             d="m 314.56747,174.76113 c -0.12789,-0.37329 -2.61407,-1.30704 -2.61407,-1.30704 l 1.87342,1.61202 c 0.11788,0.95468 0.22483,1.95824 0.34691,2.74514 0.0819,0.52797 1.32888,2.50941 1.87505,3.09295 -0.70715,-1.29697 -1.10198,-2.43465 -1.19902,-3.0045 -0.10649,-0.62535 -0.1544,-2.76528 -0.28229,-3.13857 z"
             id="path4146"
             inkscape:connector-curvature="0"
             sodipodi:nodetypes="zccscsz" />
          <path
             sodipodi:nodetypes="zccscsz"
             inkscape:connector-curvature="0"
             id="path4460"
             d="m 328.36752,174.76113 c 0.12789,-0.37329 2.61407,-1.30704 2.61407,-1.30704 l -1.87342,1.61202 c -0.11788,0.95468 -0.22483,1.95824 -0.34691,2.74514 -0.0819,0.52797 -1.32888,2.50941 -1.87505,3.09295 0.70715,-1.29697 1.10198,-2.43465 1.19902,-3.0045 0.10649,-0.62535 0.1544,-2.76528 0.28229,-3.13857 z"
             style="fill:#27462c;stroke:#27462c;stroke-width:0.125;stroke-linecap:round;stroke-linejoin:round;stroke-miterlimit:4;stroke-dasharray:none" />
        </g>
        <g
           transform="matrix(0.87024312,0,0,0.87024312,-177.94867,-139.82989)"
           style="fill:#1b2a34;display:inline"
           id="g4280">
          <path
             style="fill:#1b2a34;display:inline"
             d="m 326.12294,176.98021 c -0.17613,0.002 -0.21679,0.0887 -0.16308,0.30263 0.003,0.0139 0.005,0.0266 0.007,0.0379 1.2e-4,4.8e-4 -5e-5,0.002 0,0.002 -0.0111,0.0536 -0.0277,0.0873 -0.0544,0.11054 -0.021,0.009 -0.0485,0.0143 -0.0834,0.0217 -0.0908,0.0192 -0.26927,0.0596 -0.39684,0.0888 -0.62888,0.14437 -1.62377,0.28558 -3.04429,0.43309 -0.46245,0.0481 -0.94519,0.10189 -1.07275,0.1196 -0.66103,0.092 -2.02899,0.14832 -3.47195,0.14134 -1.29844,-0.006 -1.6093,0.007 -1.58921,0.0671 0.031,0.0928 0.32459,0.15615 1.00208,0.21745 0.28704,0.0261 1.29166,0.0391 2.23248,0.029 0.94084,-0.01 1.97156,-0.0196 2.29048,-0.0218 0.64857,-0.004 1.79556,-0.10904 3.56618,-0.32619 1.56893,-0.19241 1.82861,-0.26052 1.85194,-0.55087 4.9e-4,-0.002 0.002,-0.005 0.002,-0.007 0.002,-0.006 0.002,-0.0137 0.002,-0.0199 0,-0.003 2.3e-4,-0.007 0,-0.0109 5e-5,-0.004 0,-0.009 0,-0.0126 0,-0.27551 -0.38806,-0.52908 -0.93504,-0.61067 -0.0556,-0.009 -0.10253,-0.0112 -0.14315,-0.0109 z"
             id="path3476"
             inkscape:connector-curvature="0"
             sodipodi:nodetypes="ccccccccccccscsccscsccc" />
          <path
             sodipodi:nodetypes="cccccccccccccccccccsccccccc"
             inkscape:connector-curvature="0"
             id="path3494"
             d="m 323.74906,179.63599 c -0.13301,-6e-4 -0.3259,0.006 -0.61163,0.0166 -0.46918,0.0176 -1.21356,0.053 -1.6543,0.0789 -0.44073,0.0259 -0.9871,0.0582 -1.21415,0.0714 -0.88328,0.0511 -1.14531,0.0814 -1.25059,0.14874 -0.11965,0.0765 -0.1428,0.21081 -0.0516,0.30201 0.032,0.032 0.114,0.0581 0.18213,0.0577 0.12887,-5.8e-4 0.86798,-0.13101 1.52377,-0.26709 0.45228,-0.0939 1.82204,-0.16121 2.26744,-0.11232 0.17362,0.019 0.48784,0.0717 0.69814,0.11837 0.371,0.0824 0.38435,0.0827 0.44924,-0.006 0.0896,-0.12249 0.0841,-0.24221 -0.0151,-0.34148 -0.0458,-0.0458 -0.10157,-0.0657 -0.32328,-0.0668 z m -2.76828,0.72394 c -0.11379,0 -0.31169,0.28787 -0.3688,0.53575 -0.0262,0.11362 -0.0461,0.35378 -0.0486,0.5494 -1.4e-4,0.0105 -0.002,0.0218 -0.002,0.0318 -6e-4,0.40294 0.13058,0.76801 0.35819,0.99563 0.20106,0.20106 0.3688,0.14419 0.3688,-0.12598 0,-0.052 -0.0704,-0.23145 -0.15633,-0.39764 -0.14141,-0.27345 -0.1564,-0.34353 -0.15784,-0.73912 -6e-4,-0.24039 0.0174,-0.52998 0.041,-0.6435 0.002,-0.006 0.002,-0.009 0.003,-0.0152 0.007,-0.0267 0.0113,-0.0507 0.0122,-0.0699 0.0147,-0.0963 0.002,-0.12142 -0.0501,-0.12142 z"
             style="fill:#1b2a34;display:inline" />
        </g>
        <path
           style="fill:#1b2a34;stroke:none"
           d="m 108.87092,7.12706 c -0.10669,2.9809 -1.8512,4.32292 -3.57287,4.3491 -2.21243,0.0336 -2.16334,-2.47496 -2.04148,-4.65423"
           id="path5242"
           inkscape:connector-curvature="0"
           sodipodi:nodetypes="csc" />
        <path
           style="font-size:medium;font-style:normal;font-variant:normal;font-weight:normal;font-stretch:normal;text-indent:0;text-align:start;text-decoration:none;line-height:normal;letter-spacing:normal;word-spacing:normal;text-transform:none;direction:ltr;block-progression:tb;writing-mode:lr-tb;text-anchor:start;baseline-shift:baseline;color:#000000;fill:#27462c;fill-opacity:1;stroke:none;stroke-width:0.625;marker:none;visibility:visible;display:inline;overflow:visible;enable-background:accumulate;font-family:Sans;-inkscape-font-specification:Sans"
           d="m 103.34352,6.25598 c 0.11765,0.17383 0.43159,0.19117 0.7259,0.24464 0.58863,0.10694 1.52526,-0.0534 2.375,-0.0937 0.89275,-0.0424 1.82841,0.21905 2.46875,0.1875 0.32017,-0.0158 0.66795,0.01 0.81111,-0.14234 0.65921,-0.52062 0.24564,-1.77819 0.24564,-1.77819 0.57639,0.21751 0.35994,1.79833 0.0682,2.10804 -0.29169,0.30971 -0.68941,0.41758 -1.09375,0.4375 -0.80867,0.0399 -1.72417,-0.22288 -2.46875,-0.1875 -0.7876,0.0374 -1.74835,0.23599 -2.53125,0.0937 -0.39145,-0.0711 -0.76525,-0.2469 -1,-0.59375 -0.23475,-0.34685 -0.30454,-1.22589 0.0937,-1.39063 0.0742,0.56514 0.18735,0.94091 0.30535,1.11474 z"
           id="path5244"
           inkscape:connector-curvature="0"
           sodipodi:nodetypes="cscccsscccsccc" />
        <path
           sodipodi:nodetypes="csc"
           inkscape:connector-curvature="0"
           id="path5240"
           d="m 94.600951,7.1270606 c 0.106689,2.9809024 1.851194,4.3229214 3.572869,4.3491004 2.21243,0.03364 2.16334,-2.474956 2.04148,-4.6542279"
           style="fill:#1b2a34;stroke:none" />
        <g
           transform="translate(-105.7952,-76.270718)"
           id="g3420">
          <path
             transform="matrix(-1,0,0,1,417.37083,70.409063)"
             d="m 207.82979,14.904921 c 0,0.96356 -0.78112,1.74468 -1.74468,1.74468 -0.96356,0 -1.74468,-0.78112 -1.74468,-1.74468 0,-0.963561 0.78112,-1.744681 1.74468,-1.744681 0.96356,0 1.74468,0.78112 1.74468,1.744681 z"
             sodipodi:ry="1.7446809"
             sodipodi:rx="1.7446809"
             sodipodi:cy="14.904921"
             sodipodi:cx="206.08511"
             id="path5352-1"
             style="fill:#c4281b;fill-opacity:1;stroke:none"
             sodipodi:type="arc" />
          <path
             d="m 206.97873,14.351728 c 0,0.376024 -0.26673,0.680851 -0.59575,0.680851 -0.32902,0 -0.59574,-0.304827 -0.59574,-0.680851 0,-0.376023 0.26672,-0.680851 0.59574,-0.680851 0.32902,0 0.59575,0.304828 0.59575,0.680851 z"
             sodipodi:ry="0.68085104"
             sodipodi:rx="0.59574467"
             sodipodi:cy="14.351728"
             sodipodi:cx="206.38298"
             id="path5354-4"
             style="fill:#ffffff;fill-opacity:1;stroke:none"
             sodipodi:type="arc"
             transform="matrix(-1,0,0,1,417.54104,70.323953)" />
          <path
             sodipodi:type="arc"
             style="fill:#c4281b;fill-opacity:1;stroke:none"
             id="path5270-2"
             sodipodi:cx="206.08511"
             sodipodi:cy="14.904921"
             sodipodi:rx="1.7446809"
             sodipodi:ry="1.7446809"
             d="m 207.82979,14.904921 c 0,0.96356 -0.78112,1.74468 -1.74468,1.74468 -0.96356,0 -1.74468,-0.78112 -1.74468,-1.74468 0,-0.963561 0.78112,-1.744681 1.74468,-1.744681 0.96356,0 1.74468,0.78112 1.74468,1.744681 z"
             transform="translate(-2.3371833,70.409063)" />
          <path
             sodipodi:type="arc"
             style="fill:#ffffff;fill-opacity:1;stroke:none"
             id="path5272-2"
             sodipodi:cx="206.38298"
             sodipodi:cy="14.351728"
             sodipodi:rx="0.59574467"
             sodipodi:ry="0.68085104"
             d="m 206.97873,14.351728 c 0,0.376024 -0.26673,0.680851 -0.59575,0.680851 -0.32902,0 -0.59574,-0.304827 -0.59574,-0.680851 0,-0.376023 0.26672,-0.680851 0.59574,-0.680851 0.32902,0 0.59575,0.304828 0.59575,0.680851 z"
             transform="translate(-2.5073933,70.323953)" />
        </g>
        <path
           sodipodi:nodetypes="cscccsscccsccc"
           inkscape:connector-curvature="0"
           id="path4466"
           d="m 100.12835,6.25598 c -0.11765,0.17383 -0.43159,0.19117 -0.7259,0.24464 -0.58863,0.10694 -1.52526,-0.0534 -2.375,-0.0937 -0.89275,-0.0424 -1.82841,0.21905 -2.46875,0.1875 -0.32017,-0.0158 -0.66795,0.01 -0.81111,-0.14234 -0.65921,-0.52062 -0.24564,-1.77819 -0.24564,-1.77819 -0.57639,0.21751 -0.35994,1.79833 -0.0682,2.10804 0.29169,0.30971 0.68941,0.41758 1.09375,0.4375 0.80867,0.0399 1.72417,-0.22288 2.46875,-0.1875 0.7876,0.0374 1.74835,0.23599 2.53125,0.0937 0.39145,-0.0711 0.76525,-0.2469 1,-0.59375 0.23475,-0.34685 0.30454,-1.22589 -0.0937,-1.39063 -0.0742,0.56514 -0.18735,0.94091 -0.30535,1.11474 z"
           style="font-size:medium;font-style:normal;font-variant:normal;font-weight:normal;font-stretch:normal;text-indent:0;text-align:start;text-decoration:none;line-height:normal;letter-spacing:normal;word-spacing:normal;text-transform:none;direction:ltr;block-progression:tb;writing-mode:lr-tb;text-anchor:start;baseline-shift:baseline;color:#000000;fill:#27462c;fill-opacity:1;stroke:none;stroke-width:0.625;marker:none;visibility:visible;display:inline;overflow:visible;enable-background:accumulate;font-family:Sans;-inkscape-font-specification:Sans" />
      </g>
      <g
         id="g4177"
         transform="translate(96.529928,1.4655061)">
        <g
           transform="translate(38.39626,5.4712228)"
           id="g4121">
          <path
             inkscape:connector-curvature="0"
             id="path5252"
             d="m 81.94447,8.28284 a 0.6250625,0.6250625 0 0 0 -0.0937,1.21875 c 2.99319,1.19104 5.94706,0.92049 8.78125,0 a 0.62753393,0.62753393 0 1 0 -0.40625,-1.1875 c -2.66047,0.86407 -5.26034,1.06529 -7.9375,0 a 0.6250625,0.6250625 0 0 0 -0.34375,-0.0312 z"
             style="font-size:medium;font-style:normal;font-variant:normal;font-weight:normal;font-stretch:normal;text-indent:0;text-align:start;text-decoration:none;line-height:normal;letter-spacing:normal;word-spacing:normal;text-transform:none;direction:ltr;block-progression:tb;writing-mode:lr-tb;text-anchor:start;baseline-shift:baseline;color:#000000;fill:#1b2a34;stroke:#1b2a34;stroke-width:0.375;stroke-miterlimit:4;stroke-dasharray:none;marker:none;visibility:visible;display:inline;overflow:visible;enable-background:accumulate;font-family:Sans;-inkscape-font-specification:Sans" />
          <path
             style="fill:#f2f3f2;fill-opacity:1;stroke:none"
             d="m 83.56385,9.6759 c -0.354793,0.008 -0.707706,0.04919 -1.0625,0.0625 2.447941,0.803891 4.87578,0.663918 7.21875,0.03125 C 87.66543,9.70813 85.61852,9.629518 83.56385,9.6759 z"
             id="rect5256"
             inkscape:connector-curvature="0" />
          <path
             style="fill:#f2f3f2;fill-opacity:1;stroke:none"
             d="M 81.93885,8.26965 A 0.6250625,0.6250625 0 0 0 81.6576,9.4259 c 0.0214,0.0013 0.0411,0.03002 0.0625,0.03125 3.034719,0.174516 6.059031,0.111178 9.09375,-0.03125 A 0.63603539,0.63603539 0 0 0 90.2201,8.3009 c -2.66047,0.86407 -5.26034,1.06529 -7.9375,0 A 0.6250625,0.6250625 0 0 0 81.93885,8.26965 z"
             id="rect5254"
             inkscape:connector-curvature="0" />
          <path
             style="font-size:medium;font-style:normal;font-variant:normal;font-weight:normal;font-stretch:normal;text-indent:0;text-align:start;text-decoration:none;line-height:normal;letter-spacing:normal;word-spacing:normal;text-transform:none;direction:ltr;block-progression:tb;writing-mode:lr-tb;text-anchor:start;baseline-shift:baseline;color:#000000;fill:none;stroke:#1b2a34;stroke-width:0.375;stroke-miterlimit:4;stroke-dasharray:none;marker:none;visibility:visible;display:inline;overflow:visible;enable-background:accumulate;font-family:Sans;-inkscape-font-specification:Sans"
             d="m 81.94447,8.28284 a 0.6250625,0.6250625 0 0 0 -0.0937,1.21875 c 2.99319,1.19104 5.94706,0.92049 8.78125,0 a 0.62753393,0.62753393 0 1 0 -0.40625,-1.1875 c -2.66047,0.86407 -5.26034,1.06529 -7.9375,0 a 0.6250625,0.6250625 0 0 0 -0.34375,-0.0312 z"
             id="path5246"
             inkscape:connector-curvature="0" />
        </g>
        <g
           transform="translate(22.568794,0)"
           id="g4144">
          <g
             transform="translate(-219.5946,-163.38318)"
             style="fill:#27462c;stroke:#27462c;display:inline"
             id="g4146">
            <path
               style="fill:#27462c;stroke:#27462c;stroke-width:0.125;stroke-linecap:round;stroke-linejoin:round;stroke-miterlimit:4;stroke-dasharray:none"
               d="m 314.56747,174.76113 c -0.12789,-0.37329 -2.61407,-1.30704 -2.61407,-1.30704 l 1.87342,1.61202 c 0.11788,0.95468 0.22483,1.95824 0.34691,2.74514 0.0819,0.52797 1.32888,2.50941 1.87505,3.09295 -0.70715,-1.29697 -1.10198,-2.43465 -1.19902,-3.0045 -0.10649,-0.62535 -0.1544,-2.76528 -0.28229,-3.13857 z"
               id="path4148"
               inkscape:connector-curvature="0"
               sodipodi:nodetypes="zccscsz" />
            <path
               sodipodi:nodetypes="zccscsz"
               inkscape:connector-curvature="0"
               id="path4151"
               d="m 328.36752,174.76113 c 0.12789,-0.37329 2.61407,-1.30704 2.61407,-1.30704 l -1.87342,1.61202 c -0.11788,0.95468 -0.22483,1.95824 -0.34691,2.74514 -0.0819,0.52797 -1.32888,2.50941 -1.87505,3.09295 0.70715,-1.29697 1.10198,-2.43465 1.19902,-3.0045 0.10649,-0.62535 0.1544,-2.76528 0.28229,-3.13857 z"
               style="fill:#27462c;stroke:#27462c;stroke-width:0.125;stroke-linecap:round;stroke-linejoin:round;stroke-miterlimit:4;stroke-dasharray:none" />
          </g>
          <g
             transform="matrix(0.87024312,0,0,0.87024312,-177.94867,-139.82989)"
             style="fill:#1b2a34;display:inline"
             id="g4153">
            <path
               sodipodi:nodetypes="cccccccccccccccccccsccccccc"
               inkscape:connector-curvature="0"
               id="path4157"
               d="m 323.74906,179.63599 c -0.13301,-6e-4 -0.3259,0.006 -0.61163,0.0166 -0.46918,0.0176 -1.21356,0.053 -1.6543,0.0789 -0.44073,0.0259 -0.9871,0.0582 -1.21415,0.0714 -0.88328,0.0511 -1.14531,0.0814 -1.25059,0.14874 -0.11965,0.0765 -0.1428,0.21081 -0.0516,0.30201 0.032,0.032 0.114,0.0581 0.18213,0.0577 0.12887,-5.8e-4 0.86798,-0.13101 1.52377,-0.26709 0.45228,-0.0939 1.82204,-0.16121 2.26744,-0.11232 0.17362,0.019 0.48784,0.0717 0.69814,0.11837 0.371,0.0824 0.38435,0.0827 0.44924,-0.006 0.0896,-0.12249 0.0841,-0.24221 -0.0151,-0.34148 -0.0458,-0.0458 -0.10157,-0.0657 -0.32328,-0.0668 z m -2.76828,0.72394 c -0.11379,0 -0.31169,0.28787 -0.3688,0.53575 -0.0262,0.11362 -0.0461,0.35378 -0.0486,0.5494 -1.4e-4,0.0105 -0.002,0.0218 -0.002,0.0318 -6e-4,0.40294 0.13058,0.76801 0.35819,0.99563 0.20106,0.20106 0.3688,0.14419 0.3688,-0.12598 0,-0.052 -0.0704,-0.23145 -0.15633,-0.39764 -0.14141,-0.27345 -0.1564,-0.34353 -0.15784,-0.73912 -6e-4,-0.24039 0.0174,-0.52998 0.041,-0.6435 0.002,-0.006 0.002,-0.009 0.003,-0.0152 0.007,-0.0267 0.0113,-0.0507 0.0122,-0.0699 0.0147,-0.0963 0.002,-0.12142 -0.0501,-0.12142 z"
               style="fill:#1b2a34;display:inline" />
          </g>
          <path
             style="fill:#1b2a34;stroke:none"
             d="m 108.87092,7.12706 c -0.10669,2.9809 -1.8512,4.32292 -3.57287,4.3491 -2.21243,0.0336 -2.16334,-2.47496 -2.04148,-4.65423"
             id="path4159"
             inkscape:connector-curvature="0"
             sodipodi:nodetypes="csc" />
          <path
             style="font-size:medium;font-style:normal;font-variant:normal;font-weight:normal;font-stretch:normal;text-indent:0;text-align:start;text-decoration:none;line-height:normal;letter-spacing:normal;word-spacing:normal;text-transform:none;direction:ltr;block-progression:tb;writing-mode:lr-tb;text-anchor:start;baseline-shift:baseline;color:#000000;fill:#27462c;fill-opacity:1;stroke:none;stroke-width:0.625;marker:none;visibility:visible;display:inline;overflow:visible;enable-background:accumulate;font-family:Sans;-inkscape-font-specification:Sans"
             d="m 103.34352,6.25598 c 0.11765,0.17383 0.43159,0.19117 0.7259,0.24464 0.58863,0.10694 1.52526,-0.0534 2.375,-0.0937 0.89275,-0.0424 1.82841,0.21905 2.46875,0.1875 0.32017,-0.0158 0.66795,0.01 0.81111,-0.14234 0.65921,-0.52062 0.24564,-1.77819 0.24564,-1.77819 0.57639,0.21751 0.35994,1.79833 0.0682,2.10804 -0.29169,0.30971 -0.68941,0.41758 -1.09375,0.4375 -0.80867,0.0399 -1.72417,-0.22288 -2.46875,-0.1875 -0.7876,0.0374 -1.74835,0.23599 -2.53125,0.0937 -0.39145,-0.0711 -0.76525,-0.2469 -1,-0.59375 -0.23475,-0.34685 -0.30454,-1.22589 0.0937,-1.39063 0.0742,0.56514 0.18735,0.94091 0.30535,1.11474 z"
             id="path4161"
             inkscape:connector-curvature="0"
             sodipodi:nodetypes="cscccsscccsccc" />
          <path
             sodipodi:nodetypes="csc"
             inkscape:connector-curvature="0"
             id="path4163"
             d="m 94.600951,7.1270606 c 0.106689,2.9809024 1.851194,4.3229214 3.572869,4.3491004 2.21243,0.03364 2.16334,-2.474956 2.04148,-4.6542279"
             style="fill:#1b2a34;stroke:none" />
          <g
             transform="translate(-105.7952,-76.270718)"
             id="g4165">
            <path
               transform="matrix(-1,0,0,1,417.37083,70.409063)"
               d="m 207.82979,14.904921 c 0,0.96356 -0.78112,1.74468 -1.74468,1.74468 -0.96356,0 -1.74468,-0.78112 -1.74468,-1.74468 0,-0.963561 0.78112,-1.744681 1.74468,-1.744681 0.96356,0 1.74468,0.78112 1.74468,1.744681 z"
               sodipodi:ry="1.7446809"
               sodipodi:rx="1.7446809"
               sodipodi:cy="14.904921"
               sodipodi:cx="206.08511"
               id="path4167"
               style="fill:#c4281b;fill-opacity:1;stroke:none"
               sodipodi:type="arc" />
            <path
               d="m 206.97873,14.351728 c 0,0.376024 -0.26673,0.680851 -0.59575,0.680851 -0.32902,0 -0.59574,-0.304827 -0.59574,-0.680851 0,-0.376023 0.26672,-0.680851 0.59574,-0.680851 0.32902,0 0.59575,0.304828 0.59575,0.680851 z"
               sodipodi:ry="0.68085104"
               sodipodi:rx="0.59574467"
               sodipodi:cy="14.351728"
               sodipodi:cx="206.38298"
               id="path4169"
               style="fill:#ffffff;fill-opacity:1;stroke:none"
               sodipodi:type="arc"
               transform="matrix(-1,0,0,1,417.54104,70.323953)" />
            <path
               sodipodi:type="arc"
               style="fill:#c4281b;fill-opacity:1;stroke:none"
               id="path4171"
               sodipodi:cx="206.08511"
               sodipodi:cy="14.904921"
               sodipodi:rx="1.7446809"
               sodipodi:ry="1.7446809"
               d="m 207.82979,14.904921 c 0,0.96356 -0.78112,1.74468 -1.74468,1.74468 -0.96356,0 -1.74468,-0.78112 -1.74468,-1.74468 0,-0.963561 0.78112,-1.744681 1.74468,-1.744681 0.96356,0 1.74468,0.78112 1.74468,1.744681 z"
               transform="translate(-2.3371833,70.409063)" />
            <path
               sodipodi:type="arc"
               style="fill:#ffffff;fill-opacity:1;stroke:none"
               id="path4173"
               sodipodi:cx="206.38298"
               sodipodi:cy="14.351728"
               sodipodi:rx="0.59574467"
               sodipodi:ry="0.68085104"
               d="m 206.97873,14.351728 c 0,0.376024 -0.26673,0.680851 -0.59575,0.680851 -0.32902,0 -0.59574,-0.304827 -0.59574,-0.680851 0,-0.376023 0.26672,-0.680851 0.59574,-0.680851 0.32902,0 0.59575,0.304828 0.59575,0.680851 z"
               transform="translate(-2.5073933,70.323953)" />
          </g>
          <path
             sodipodi:nodetypes="cscccsscccsccc"
             inkscape:connector-curvature="0"
             id="path4175"
             d="m 100.12835,6.25598 c -0.11765,0.17383 -0.43159,0.19117 -0.7259,0.24464 -0.58863,0.10694 -1.52526,-0.0534 -2.375,-0.0937 -0.89275,-0.0424 -1.82841,0.21905 -2.46875,0.1875 -0.32017,-0.0158 -0.66795,0.01 -0.81111,-0.14234 -0.65921,-0.52062 -0.24564,-1.77819 -0.24564,-1.77819 -0.57639,0.21751 -0.35994,1.79833 -0.0682,2.10804 0.29169,0.30971 0.68941,0.41758 1.09375,0.4375 0.80867,0.0399 1.72417,-0.22288 2.46875,-0.1875 0.7876,0.0374 1.74835,0.23599 2.53125,0.0937 0.39145,-0.0711 0.76525,-0.2469 1,-0.59375 0.23475,-0.34685 0.30454,-1.22589 -0.0937,-1.39063 -0.0742,0.56514 -0.18735,0.94091 -0.30535,1.11474 z"
             style="font-size:medium;font-style:normal;font-variant:normal;font-weight:normal;font-stretch:normal;text-indent:0;text-align:start;text-decoration:none;line-height:normal;letter-spacing:normal;word-spacing:normal;text-transform:none;direction:ltr;block-progression:tb;writing-mode:lr-tb;text-anchor:start;baseline-shift:baseline;color:#000000;fill:#27462c;fill-opacity:1;stroke:none;stroke-width:0.625;marker:none;visibility:visible;display:inline;overflow:visible;enable-background:accumulate;font-family:Sans;-inkscape-font-specification:Sans" />
        </g>
      </g>
    </g>
  </g>
  <g
     inkscape:label="template"
     inkscape:groupmode="layer"
     id="layer1"
     transform="translate(-354.3125,-378.375)"
     style="display:inline">
    <path
       inkscape:connector-curvature="0"
       d="m 361.62563,515.61204 22.695,0 0,-11.205 -22.695,0 0,11.205 z"
       style="fill:none;stroke:#231f20;stroke-width:0.3125;stroke-linecap:butt;stroke-linejoin:miter;stroke-miterlimit:4;stroke-opacity:1;stroke-dasharray:none"
       id="path3029" />
    <path
       inkscape:connector-curvature="0"
       d="m 384.32188,501.77079 -22.6975,0 0,-42.43375 22.6975,0 0,42.43375 z"
       style="fill:none;stroke:#231f20;stroke-width:0.3125;stroke-linecap:butt;stroke-linejoin:miter;stroke-miterlimit:4;stroke-opacity:1;stroke-dasharray:none"
       id="path3033" />
    <path
       inkscape:connector-curvature="0"
       d="m 362.25313,483.33329 21.44125,0"
       style="fill:#ffffff;fill-opacity:1;fill-rule:nonzero;stroke:none"
       id="path3039" />
    <path
       inkscape:connector-curvature="0"
       d="m 389.85563,515.61204 22.695,0 0,-11.205 -22.695,0 0,11.205 z"
       style="fill:none;stroke:#231f20;stroke-width:0.3125;stroke-linecap:butt;stroke-linejoin:miter;stroke-miterlimit:4;stroke-opacity:1;stroke-dasharray:none"
       id="path3045" />
    <path
       inkscape:connector-curvature="0"
       d="m 390.48313,483.33454 21.44,0"
       style="fill:#ffffff;fill-opacity:1;fill-rule:nonzero;stroke:none"
       id="path3051" />
    <path
       inkscape:connector-curvature="0"
       d="m 467.26287,399.93655 -112.8,0 0,-21.39125 112.8,0 0,21.39125 z"
       style="fill:none;stroke:#231f20;stroke-width:0.3125;stroke-linecap:butt;stroke-linejoin:miter;stroke-miterlimit:4;stroke-opacity:1;stroke-dasharray:none"
       id="path3081" />
    <path
       inkscape:connector-curvature="0"
       d="m 361.13813,452.9203 c 8.7325,-47.29375 5.3425,-42.67875 14.2675,-42.85625 l 23.44,0 c 8.92625,0.1775 5.535,-4.4375 14.265,42.85625 l -51.9725,0 z"
       style="fill:none;stroke:#231f20;stroke-width:0.3125;stroke-linecap:butt;stroke-linejoin:miter;stroke-miterlimit:4;stroke-opacity:1;stroke-dasharray:none"
       id="path3093" />
    <path
       id="path4124"
       style="fill:none;stroke:#231f20;stroke-width:0.3125;stroke-linecap:butt;stroke-linejoin:miter;stroke-miterlimit:4;stroke-opacity:1;stroke-dasharray:none"
       d="m 415.93739,452.9203 c 8.7325,-47.29375 5.3425,-42.67875 14.2675,-42.85625 l 23.44,0 c 8.92625,0.1775 5.535,-4.4375 14.265,42.85625 l -51.9725,0 z"
       inkscape:connector-curvature="0" />
    <path
       id="path4076"
       style="fill:none;stroke:#231f20;stroke-width:0.3125;stroke-linecap:butt;stroke-linejoin:miter;stroke-miterlimit:4;stroke-opacity:1;stroke-dasharray:none"
       d="m 412.60471,501.77079 -22.6975,0 0,-42.43375 22.6975,0 0,42.43375 z"
       inkscape:connector-curvature="0" />
  </g>
</svg>
