<?xml version="1.0" encoding="utf-8"?>
<!-- Generator: Adobe Illustrator 15.1.0, SVG Export Plug-In . SVG Version: 6.00 Build 0)  -->
<!DOCTYPE svg PUBLIC "-//W3C//DTD SVG 1.1//EN" "http://www.w3.org/Graphics/SVG/1.1/DTD/svg11.dtd">
<svg version="1.1" xmlns="http://www.w3.org/2000/svg" xmlns:xlink="http://www.w3.org/1999/xlink" x="0px" y="0px"
	 width="118.735px" height="84.589px" viewBox="27.915 -32.345 118.735 84.589"
	 enable-background="new 27.915 -32.345 118.735 84.589" xml:space="preserve">
<g id="base">
	<path id="torso_front" inkscape:connector-curvature="0" fill="#001423" stroke="#231F20" stroke-width="0.3125" d="M30.275,41.35
		C39.008-5.94,35.617-1.325,44.543-1.502h23.439c8.927,0.177,5.535-4.438,14.266,42.852H30.275z"/>
	<path id="waist" inkscape:connector-curvature="0" fill="#003A57" stroke="#003A57" stroke-width="0.3118" d="M81.927,48.901
		h-51.33v-7.064h51.33V48.901L81.927,48.901z"/>
	<path id="torso_back" inkscape:connector-curvature="0" fill="#001423" stroke="#231F20" stroke-width="0.3125" d="M92.317,41.357
		c8.732-47.298,5.342-42.682,14.268-42.859h23.439c8.928,0.178,5.535-4.438,14.266,42.859H92.317z"/>
</g>
<g id="front">
	<defs>
		<path id="mask_3_" inkscape:connector-curvature="0" d="M41.48-1.553c-0.273-0.002-0.514,0.015-0.75,0.031
			c-0.252,0.017-0.501,0.046-0.719,0.094c-0.194,0.047-0.361,0.104-0.531,0.188c-1.797,0.887-2.413,4.127-4.438,15.344
			c-0.793,4.391,3.124,9.637,2.344,17.373c-0.427,4.229-5.793,6.788-7.125,9.874h52c-1.333-3.086-6.698-5.645-7.125-9.874
			c-0.781-7.736,3.136-12.982,2.344-17.373C75.455,2.886,74.84-0.354,73.043-1.241c-0.171-0.084-0.338-0.141-0.531-0.188
			c-0.011-0.002-0.021,0.003-0.031,0c-0.188-0.043-0.412-0.076-0.625-0.094c-0.323-0.023-0.674-0.039-1.063-0.031
			c-0.212,0.005-0.422,0.024-0.656,0.031C69.5-1.501,68.81-1.474,67.98-1.491H44.543c-0.83,0.017-1.52-0.01-2.156-0.031
			c-0.011,0-0.021,0.001-0.031,0C42.04-1.532,41.754-1.551,41.48-1.553L41.48-1.553z"/>
	</defs>
	<clipPath id="mask_4_">
		<use xlink:href="#mask_3_"  overflow="visible" enable-background="new    "/>
	</clipPath>
	
		<path id="base_color" inkscape:connector-curvature="0" clip-path="url(#mask_4_)" fill="#003A57" stroke="#231F20" stroke-width="0.3125" enable-background="new    " d="
		M41.48-1.553c-0.273-0.002-0.514,0.015-0.75,0.031c-0.252,0.017-0.501,0.046-0.719,0.094c-0.194,0.047-0.361,0.104-0.531,0.188
		c-1.797,0.887-2.413,4.127-4.438,15.344c-0.793,4.391,3.124,9.637,2.344,17.373c-0.427,4.229-5.793,6.788-7.125,9.874h52
		c-1.333-3.086-6.698-5.645-7.125-9.874c-0.781-7.736,3.136-12.982,2.344-17.373C75.455,2.886,74.84-0.354,73.043-1.241
		c-0.171-0.084-0.338-0.141-0.531-0.188c-0.011-0.002-0.021,0.003-0.031,0c-0.188-0.043-0.412-0.076-0.625-0.094
		c-0.323-0.023-0.674-0.039-1.063-0.031c-0.212,0.005-0.422,0.024-0.656,0.031C69.5-1.501,68.81-1.474,67.98-1.491H44.543
		c-0.83,0.017-1.52-0.01-2.156-0.031c-0.011,0-0.021,0.001-0.031,0C42.04-1.532,41.754-1.551,41.48-1.553L41.48-1.553z"/>
	<polygon id="red_top" clip-path="url(#mask_4_)" fill="#ED1C24" points="56.241,-2.323 33.303,-2.323 33.303,9.26 56.241,14.929 
		79.178,9.26 79.178,-2.323 	"/>
	<g id="body_details" clip-path="url(#mask_4_)">
		<g>
			
				<radialGradient id="SVGID_1_" cx="69.1785" cy="21.8596" r="6.7227" gradientTransform="matrix(-1 0 0 1 112.4819 0)" gradientUnits="userSpaceOnUse">
				<stop  offset="0" style="stop-color:#001423"/>
				<stop  offset="0.2661" style="stop-color:#001A2B;stop-opacity:0.7339"/>
				<stop  offset="0.6828" style="stop-color:#002A42;stop-opacity:0.3172"/>
				<stop  offset="1" style="stop-color:#003A57;stop-opacity:0"/>
			</radialGradient>
			<path fill="url(#SVGID_1_)" d="M37.674,18.455c0.505,1.279,0.985,2.85,0.985,2.85l2.475,2.126l6.232,1.134l8.846-1.908
				l0.029,2.781c0,0-8.178,8.391-16.76,4.183C38.372,29.076,35.366,24.297,37.674,18.455z"/>
			<radialGradient id="SVGID_2_" cx="69.1785" cy="21.8596" r="6.7227" gradientUnits="userSpaceOnUse">
				<stop  offset="0" style="stop-color:#001423"/>
				<stop  offset="0.2661" style="stop-color:#001A2B;stop-opacity:0.7339"/>
				<stop  offset="0.6828" style="stop-color:#002A42;stop-opacity:0.3172"/>
				<stop  offset="1" style="stop-color:#003A57;stop-opacity:0"/>
			</radialGradient>
			<path fill="url(#SVGID_2_)" d="M74.808,18.455c-0.505,1.279-0.985,2.85-0.985,2.85l-2.475,2.126l-6.232,1.134l-8.846-1.908
				l-0.029,2.781c0,0,8.178,8.391,16.76,4.183C74.11,29.076,77.116,24.297,74.808,18.455z"/>
		</g>
		<g id="abs">
			<g>
				<path fill="#001423" d="M58.436,24.615c0.787,0.214,1.544,0.545,2.258,0.951c0.719,0.401,1.379,0.905,1.991,1.449
					c0.607,0.553,1.165,1.145,1.712,1.727c0.553,0.576,1.133,1.11,1.852,1.502c-0.809-0.17-1.524-0.659-2.148-1.183
					c-0.634-0.522-1.196-1.098-1.794-1.624c-0.586-0.54-1.207-1.031-1.847-1.506C59.814,25.461,59.132,25.044,58.436,24.615z"/>
			</g>
			<g>
				<path fill="#001423" d="M65.761,40.302c-0.268-0.84-0.345-1.688-0.365-2.532c-0.026-0.847,0.167-1.681,0.301-2.514
					c0.287-1.657,0.624-3.354,1.444-4.851l0.09,0.043c-0.291,0.778-0.426,1.601-0.527,2.421c-0.112,0.818-0.178,1.645-0.218,2.472
					c-0.047,0.828,0.019,1.661-0.1,2.483c-0.111,0.823-0.247,1.646-0.525,2.478H65.761z"/>
			</g>
			<g>
				<path fill="#001423" d="M54.087,24.615c-0.695,0.43-1.378,0.847-2.023,1.316c-0.64,0.475-1.261,0.966-1.847,1.506
					c-0.598,0.526-1.16,1.102-1.794,1.624c-0.624,0.523-1.34,1.013-2.148,1.183c0.719-0.392,1.299-0.926,1.852-1.502
					c0.547-0.582,1.104-1.174,1.712-1.727c0.612-0.544,1.272-1.048,1.991-1.449C52.543,25.159,53.3,24.828,54.087,24.615z"/>
			</g>
			<g>
				<path fill="#001423" d="M46.662,40.302c-0.278-0.831-0.414-1.654-0.525-2.478c-0.118-0.822-0.053-1.655-0.1-2.483
					c-0.04-0.827-0.105-1.653-0.218-2.472c-0.102-0.82-0.236-1.643-0.527-2.421l0.09-0.043c0.82,1.496,1.157,3.193,1.444,4.851
					c0.134,0.833,0.327,1.667,0.301,2.514c-0.021,0.845-0.098,1.692-0.365,2.532H46.662z"/>
			</g>
			<g id="g63">
				<path id="path65" inkscape:connector-curvature="0" fill="#001423" d="M56.298,37.106c-0.111-0.823-0.163-1.646-0.171-2.467
					c-0.033-0.825,0.081-1.652,0.091-2.458c0.013-0.827-0.127-1.639-0.234-2.462c-0.053-0.851,0.111-1.658,0.313-2.467l0.037,0.005
					c0.046,0.829-0.043,1.654-0.044,2.451c-0.047,0.816-0.028,1.644,0.127,2.456c0.105,0.838,0.093,1.654,0.091,2.473
					c-0.003,0.825-0.059,1.646-0.174,2.469H56.298z"/>
			</g>
		</g>
		<path fill="#001423" d="M75.129,16.19c-0.121-0.977-0.284-2.097-0.896-2.853c0.917,1.715,0.604,3.887-0.011,5.606
			c-0.616,1.742-1.786,3.258-3.412,4.072c-1.595,0.854-3.462,1.151-5.316,1.102c-1.862-0.05-3.735-0.491-5.47-1.251l-0.014-0.006
			l-0.007-0.002c-0.579-0.202-1.18-0.344-1.788-0.419c-0.566-0.065-1.393-0.096-1.975-0.042c-0.582-0.054-1.408-0.022-1.975,0.042
			c-0.608,0.075-1.209,0.217-1.788,0.419l-0.007,0.002l-0.014,0.006c-1.734,0.76-3.607,1.202-5.47,1.251
			c-1.854,0.049-3.722-0.248-5.316-1.102c-1.626-0.814-2.796-2.331-3.412-4.072c-0.615-1.719-0.928-3.891-0.011-5.606
			c-0.611,0.756-0.774,1.875-0.896,2.853c-0.102,0.993,0.024,1.979,0.273,2.948c0.474,1.939,1.796,3.713,3.577,4.721
			c1.781,1.026,3.876,1.296,5.839,1.105c1.25-0.131,2.46-0.435,3.63-0.844c-0.007,0.006-0.013,0.009-0.02,0.015
			c3.338-0.733,5.588-0.68,5.588-0.68s2.25-0.054,5.588,0.68c-0.007-0.006-0.013-0.009-0.02-0.015c1.17,0.409,2.38,0.713,3.63,0.844
			c1.963,0.19,4.058-0.079,5.839-1.105c1.781-1.007,3.104-2.782,3.577-4.721C75.104,18.169,75.23,17.183,75.129,16.19z"/>
		<g>
			<path fill="#6F1723" d="M54.139,9.671c0.562,0.834,0.985,1.751,1.364,2.745c0.04-0.537-0.057-1.073-0.207-1.59
				c-0.147-0.52-0.39-1.012-0.686-1.469c-0.602-0.902-1.51-1.639-2.549-1.91c0.411,0.343,0.802,0.672,1.146,1.044
				C53.549,8.865,53.866,9.251,54.139,9.671z"/>
			<path fill="#6F1723" d="M59.315,8.491c0.345-0.372,0.735-0.702,1.146-1.044c-1.039,0.271-1.947,1.007-2.549,1.91
				c-0.296,0.458-0.538,0.949-0.686,1.469c-0.15,0.517-0.247,1.053-0.207,1.59c0.379-0.993,0.803-1.911,1.364-2.745
				C58.658,9.251,58.975,8.865,59.315,8.491z"/>
		</g>
		<g>
			<g>
				<path fill="#6F1723" d="M57.343,1.249c0.444-0.488,0.988-0.844,1.553-1.187c0.272-0.167,0.614-0.337,0.951-0.399
					c0.328-0.075,0.651-0.119,0.976-0.159c1.293-0.152,2.582-0.201,3.875-0.195c0.057,0,0.102,0.046,0.102,0.103
					c0,0.053-0.043,0.097-0.096,0.102c-1.279,0.109-2.564,0.21-3.824,0.398c-0.313,0.05-0.627,0.106-0.924,0.186
					c-0.299,0.068-0.535,0.201-0.807,0.376c-0.527,0.34-1.023,0.747-1.603,1.039c-0.082,0.043-0.185,0.011-0.229-0.071
					C57.284,1.378,57.298,1.301,57.343,1.249z"/>
			</g>
			<g>
				<path fill="#6F1723" d="M54.979,1.513c-0.579-0.292-1.076-0.698-1.604-1.038c-0.271-0.175-0.508-0.309-0.807-0.376
					c-0.297-0.08-0.61-0.135-0.924-0.186c-1.261-0.188-2.546-0.289-3.825-0.398c-0.057-0.004-0.1-0.053-0.096-0.109
					c0.004-0.053,0.05-0.094,0.102-0.096c1.293-0.006,2.583,0.043,3.876,0.195c0.324,0.041,0.647,0.085,0.976,0.16
					c0.337,0.062,0.679,0.232,0.951,0.399c0.565,0.342,1.108,0.698,1.554,1.186c0.063,0.069,0.058,0.176-0.011,0.239
					C55.118,1.536,55.04,1.543,54.979,1.513z"/>
			</g>
		</g>
	</g>
	<g id="stripes_and_star" clip-path="url(#mask_4_)">
		<path fill="#FFDC91" d="M77.061,6.541c-4.018,0.5-7.722,1.625-11.311,2.934c-1.792,0.662-3.549,1.385-5.281,2.157
			c-1.741,0.78-2.491,1.228-4.229,2.151c-1.737-0.923-2.487-1.371-4.229-2.151c-1.732-0.772-3.489-1.496-5.281-2.157
			c-3.589-1.31-7.293-2.435-11.311-2.934l-0.59,5.639c3.324,0.298,6.771,1.194,10.138,2.31c1.687,0.562,3.363,1.189,5.022,1.867
			c1.647,0.674,4.705,2.149,6.25,2.909c1.545-0.759,4.603-2.235,6.25-2.909c1.659-0.677,3.336-1.305,5.022-1.867
			c3.367-1.115,6.813-2.011,10.138-2.31L77.061,6.541z"/>
		<g>
			<defs>
				<path id="SVGID_3_" d="M77.061,6.541c-4.018,0.5-7.722,1.625-11.311,2.934c-1.792,0.662-3.549,1.385-5.281,2.157
					c-1.741,0.78-2.491,1.228-4.229,2.151c-1.737-0.923-2.487-1.371-4.229-2.151c-1.732-0.772-3.489-1.496-5.281-2.157
					c-3.589-1.31-7.293-2.435-11.311-2.934l-0.59,5.639c3.324,0.298,6.771,1.194,10.138,2.31c1.687,0.562,3.363,1.189,5.022,1.867
					c1.647,0.674,4.705,2.149,6.25,2.909c1.545-0.759,4.603-2.235,6.25-2.909c1.659-0.677,3.336-1.305,5.022-1.867
					c3.367-1.115,6.813-2.011,10.138-2.31L77.061,6.541z"/>
			</defs>
			<clipPath id="SVGID_4_">
				<use xlink:href="#SVGID_3_"  overflow="visible"/>
			</clipPath>
			<g clip-path="url(#SVGID_4_)">
				<polygon fill="#DCC392" points="48.795,7.092 44.365,7.092 41.531,19.01 45.46,19.01 				"/>
				<polygon fill="#DCC392" points="64.584,8.781 60.824,20.427 63.053,20.427 67.304,8.51 				"/>
				
					<rect x="71.737" y="5.677" transform="matrix(0.9808 0.1949 -0.1949 0.9808 3.5955 -13.9935)" fill="#DCC392" width="2.312" height="11.188"/>
				
					<rect x="35.741" y="4.989" transform="matrix(0.9727 0.232 -0.232 0.9727 3.2551 -8.3194)" fill="#DCC392" width="2.5" height="9.375"/>
			</g>
		</g>
		<path fill="none" stroke="#001423" stroke-width="0.4252" d="M76.584,6.689c-10.098,1.636-20.322,7.242-20.322,7.242
			S46.037,8.325,35.939,6.689 M34.885,12.327c10.973,1.498,21.376,6.854,21.376,6.854s10.403-5.356,21.376-6.854 M35.798,9.624
			c10.231,1.369,20.464,7.1,20.464,7.1s10.232-5.731,20.464-7.1"/>
		<g>
			<path fill="#FFDC91" stroke="#001423" stroke-width="0.5669" stroke-linecap="round" d="M56.261,7.206
				c0.538,2.002,0.988,3.625,1.429,5.075c1.245-0.346,2.56-0.738,3.999-1.173c-0.693,1.167-1.34,2.248-1.928,3.259
				c1.597,0.331,5.604,1.049,5.604,1.049s-3.966,1.323-5.537,1.908c0.701,1.311,1.5,2.744,2.357,4.308
				c-1.604-0.804-3.078-1.558-4.431-2.222c-0.462,1.452-0.932,3.079-1.494,5.086c-0.554-2.041-1.017-3.686-1.472-5.157
				c-1.351,0.554-2.809,1.182-4.405,1.863c0.846-1.427,1.636-2.74,2.337-3.949c-1.567-0.569-5.521-1.858-5.521-1.858
				s3.995-0.667,5.588-0.974c-0.589-1.001-1.237-2.069-1.933-3.222c1.441,0.426,2.755,0.808,4,1.144
				C55.29,10.877,55.731,9.237,56.261,7.206z"/>
		</g>
	</g>
</g>
<g id="front_waist_scarf">
	<defs>
		<path id="mask_2_" d="M30.596,41.836h51.33v7.064h-51.33V41.836z M75.136,31.476c-0.781-7.736,3.136-12.982,2.344-17.373
			C75.455,2.886,74.84-0.354,73.043-1.241c-0.171-0.084-0.338-0.141-0.531-0.188c-0.011-0.002-0.021,0.003-0.031,0
			c-0.188-0.043-0.412-0.076-0.625-0.094c-0.323-0.023-0.674-0.039-1.063-0.031c-0.212,0.005-0.422,0.024-0.656,0.031
			C69.5-1.501,68.81-1.474,67.98-1.491H44.543c-0.83,0.017-1.52-0.01-2.156-0.031c-0.011,0-0.021,0.001-0.031,0
			c-0.315-0.01-0.602-0.028-0.875-0.031c-0.273-0.002-0.514,0.015-0.75,0.031c-0.252,0.017-0.501,0.046-0.719,0.094
			c-0.194,0.047-0.361,0.104-0.531,0.188c-1.797,0.887-2.413,4.127-4.438,15.344c-0.793,4.391,3.124,9.637,2.344,17.373
			c-0.427,4.229-5.793,6.788-7.125,9.874h52C80.928,38.264,75.563,35.705,75.136,31.476z"/>
	</defs>
	<clipPath id="mask_5_">
		<use xlink:href="#mask_2_"  overflow="visible" enable-background="new    "/>
	</clipPath>
	<path id="scarf" clip-path="url(#mask_5_)" fill="#ED1C24" stroke="#001423" stroke-width="0.4252" d="M83.928,50.734
		c-18.938-5.194-26.375-0.807-44.642-12.061c-4.108,0.142-13.172,4.412-13.172,4.412s3.857-10.7,5.689-12.408
		c1.5,3.813,8.726,4.816,8.726,4.816s23.337,4.496,38.399-2.045C81.328,34.909,85.924,48.448,83.928,50.734z"/>
	<g id="wrinkles" clip-path="url(#mask_5_)">
		<g>
			<path fill="#6F1723" d="M68.835,37.718c0.981,0.012,1.965,0.051,2.945,0.104c0.98,0.05,1.96,0.113,2.927,0.075
				c1.936-0.069,3.813-0.604,5.669-1.191c0.224-0.072,0.464,0.05,0.536,0.273s-0.05,0.464-0.273,0.536
				c-0.01,0.003-0.022,0.007-0.032,0.009c-1.916,0.459-3.895,0.871-5.898,0.798c-0.996-0.032-1.973-0.168-2.946-0.288
				C70.788,37.91,69.813,37.801,68.835,37.718z"/>
		</g>
		<g>
			<path fill="#6F1723" d="M48.323,38.327c1.864,0.259,3.662,0.634,5.463,1.028c0.894,0.225,1.792,0.479,2.71,0.603
				c0.919,0.125,1.849,0.126,2.775,0.075c1.851-0.112,3.699-0.236,5.57-0.235c1.867,0.04,3.743,0.211,5.573,0.644
				c0.022,0.005,0.037,0.028,0.032,0.052c-0.005,0.019-0.021,0.031-0.04,0.032c-1.874,0.105-3.716,0.134-5.566,0.179
				c-1.847-0.005-3.716,0.005-5.582-0.205c-0.933-0.098-1.858-0.206-2.79-0.267c-0.931-0.063-1.874-0.072-2.81-0.18
				c-1.858-0.271-3.666-0.825-5.359-1.644c-0.021-0.011-0.031-0.036-0.021-0.058C48.287,38.334,48.305,38.325,48.323,38.327z"/>
		</g>
		<g>
			<path fill="#6F1723" d="M54.936,43.677c-0.075-0.015,0.017-0.037,0.046-0.021l0.121,0.014l0.24,0.036l0.479,0.076l0.948,0.18
				l1.886,0.383c1.251,0.283,2.498,0.524,3.772,0.75c-1.3,0.128-2.595-0.098-3.86-0.334c-0.629-0.151-1.258-0.294-1.876-0.483
				l-0.922-0.295L54.936,43.677z"/>
		</g>
		<g>
			<path fill="#6F1723" d="M79.908,41.331c0.229,0.083,0.453,0.176,0.673,0.283c0.219,0.112,0.438,0.22,0.628,0.417
				c0.045,0.052,0.092,0.112,0.11,0.205c0.021,0.101-0.042,0.204-0.059,0.241c-0.057,0.113-0.083,0.207-0.111,0.316
				c-0.056,0.2-0.013,0.443,0.068,0.52l-0.001-0.001l0.033,0.053c0.1,0.242,0.186,0.474,0.236,0.749
				c-0.001,0.141,0.094,0.286-0.112,0.551c-0.141,0.131-0.301,0.099-0.381,0.081c-0.104-0.024-0.129-0.04-0.196-0.061
				c-0.457-0.155-0.923-0.292-1.387-0.431c-0.932-0.268-1.872-0.506-2.823-0.696c-1.903-0.373-3.858-0.532-5.804-0.334
				c1.926-0.366,3.919-0.278,5.861-0.003c0.973,0.14,1.938,0.336,2.889,0.595c0.476,0.125,0.944,0.274,1.412,0.432
				c0.127,0.063,0.234,0.031,0.116,0.082c-0.035,0.077,0.009-0.059-0.017-0.148c-0.03-0.207-0.105-0.439-0.187-0.65l0.032,0.053
				l-0.003-0.003c-0.195-0.335-0.119-0.63-0.024-0.88c0.051-0.119,0.121-0.249,0.191-0.342c0.044-0.064,0.054-0.071,0.055-0.095
				c0.001-0.028-0.019-0.074-0.048-0.117c-0.126-0.174-0.331-0.319-0.527-0.452C80.334,41.564,80.124,41.443,79.908,41.331z"/>
		</g>
		<g>
			<path fill="#6F1723" d="M36.05,38.039c-1.173,0.138-2.324,0.43-3.4,0.866c-1.069,0.438-2.073,1.048-2.799,1.872l-0.602-0.602
				c0.957-0.849,2.107-1.352,3.264-1.673C33.676,38.188,34.866,38.035,36.05,38.039z"/>
		</g>
		<g>
			<path fill="#6F1723" d="M33.291,33.25c0.674,0.753,1.419,1.479,2.212,2.128c0.799,0.634,1.652,1.26,2.676,1.486
				c-1.052-0.085-2.021-0.605-2.921-1.139c-0.902-0.555-1.749-1.177-2.566-1.872L33.291,33.25z"/>
		</g>
		<g>
			<path fill="#6F1723" d="M74.053,46.615c1.552,0.037,3.093,0.354,4.614,0.576c1.521,0.229,3.049,0.261,4.488-0.118l0.17,0.834
				c-1.604,0.267-3.228,0.074-4.737-0.298C77.073,47.243,75.597,46.794,74.053,46.615z"/>
		</g>
		<g>
			<path fill="#6F1723" d="M42.347,37.622c0.189,0.435,0.412,0.879,0.658,1.298c0.25,0.419,0.515,0.834,0.892,1.163
				c-0.469-0.188-0.884-0.512-1.273-0.84c-0.393-0.335-0.756-0.688-1.114-1.074L42.347,37.622z"/>
		</g>
		<g>
			<path fill="#6F1723" d="M43.655,38.345c0.237-0.038,0.441,0.009,0.647,0.048c0.203,0.05,0.379,0.17,0.563,0.267
				c0.371,0.186,0.738,0.383,1.102,0.592l-0.016,0.039c-0.408-0.094-0.812-0.198-1.211-0.314c-0.2-0.054-0.41-0.085-0.593-0.187
				c-0.179-0.112-0.36-0.216-0.509-0.405L43.655,38.345z"/>
		</g>
		<g>
			<path fill="#6F1723" d="M42.338,36.709c0.502,0.057,0.991,0.125,1.484,0.208c0.488,0.089,0.988,0.17,1.45,0.354
				c-0.49-0.019-0.971,0.069-1.45,0.146c-0.479,0.084-0.96,0.182-1.428,0.29L42.338,36.709z"/>
		</g>
	</g>
	<g id="buckle" clip-path="url(#mask_5_)">
		<circle opacity="0.5" fill="#001423" cx="40.458" cy="37.656" r="2.682"/>
		<circle fill="#DCC392" stroke="#001423" stroke-width="0.4252" cx="40.033" cy="37.372" r="2.682"/>
		<g>
			<path fill="#FFDC91" d="M38.175,35.9c-0.501,1.181-0.317,2.793,1.032,3.702"/>
			<path fill="#FFDC91" d="M38.175,35.9c-0.028,0.37-0.046,0.695-0.027,1.026c0.027,0.326,0.062,0.642,0.148,0.944
				c0.074,0.307,0.198,0.594,0.343,0.883c0.15,0.287,0.349,0.556,0.568,0.849c-0.707-0.199-1.27-0.852-1.459-1.588
				c-0.091-0.369-0.113-0.755-0.033-1.122C37.787,36.53,37.933,36.171,38.175,35.9z"/>
		</g>
		<polygon fill="#DCC392" stroke="#001423" stroke-width="0.2835" points="40.033,35.248 40.44,36.392 41.536,35.87 41.014,36.966 
			42.158,37.373 41.014,37.78 41.536,38.875 40.44,38.354 40.033,39.497 39.627,38.354 38.531,38.875 39.051,37.78 37.909,37.373 
			39.051,36.966 38.531,35.87 39.627,36.392 		"/>
		<polygon fill="#FFDC91" points="39.293,37.564 40.308,36.612 40.027,35.83 39.746,36.627 39.082,36.363 39.325,37.08 
			38.511,37.377 		"/>
	</g>
</g>
<g id="back">
	<defs>
		<path id="mask_1_" inkscape:connector-curvature="0" d="M103.587-1.554c-0.273-0.002-0.514,0.015-0.75,0.031
			c-0.252,0.017-0.501,0.046-0.719,0.094c-0.194,0.047-0.361,0.104-0.531,0.188c-1.797,0.887-2.413,4.127-4.438,15.344
			c-0.793,4.391,3.124,9.639,2.344,17.375c-0.427,4.229-5.793,6.787-7.125,9.873h52c-1.333-3.086-6.698-5.645-7.125-9.873
			c-0.781-7.736,3.136-12.985,2.344-17.375c-2.025-11.217-2.641-14.457-4.438-15.344c-0.171-0.084-0.338-0.141-0.531-0.188
			c-0.011-0.002-0.021,0.003-0.031,0c-0.188-0.043-0.412-0.076-0.625-0.094c-0.323-0.023-0.674-0.039-1.063-0.031
			c-0.212,0.005-0.422,0.024-0.656,0.031c-0.637,0.021-1.326,0.048-2.156,0.031h-23.438c-0.83,0.017-1.52-0.01-2.156-0.031
			c-0.011,0-0.021,0.001-0.031,0C104.146-1.532,103.86-1.551,103.587-1.554L103.587-1.554z"/>
	</defs>
	<clipPath id="mask_6_">
		<use xlink:href="#mask_1_"  overflow="visible" enable-background="new    "/>
	</clipPath>
	
		<path id="base_color_1_" inkscape:connector-curvature="0" clip-path="url(#mask_6_)" fill="#003A57" stroke="#231F20" stroke-width="0.3125" enable-background="new    " d="
		M103.522-1.554c-0.273-0.002-0.514,0.015-0.75,0.031c-0.252,0.017-0.501,0.046-0.719,0.094c-0.194,0.047-0.361,0.104-0.531,0.188
		c-1.797,0.887-2.413,4.127-4.438,15.344c-0.793,4.391,3.124,9.639,2.344,17.375c-0.427,4.229-5.793,6.787-7.125,9.873h52
		c-1.333-3.086-6.698-5.645-7.125-9.873c-0.781-7.736,3.136-12.985,2.344-17.375c-2.025-11.217-2.641-14.457-4.438-15.344
		c-0.171-0.084-0.338-0.141-0.531-0.188c-0.011-0.002-0.021,0.003-0.031,0c-0.188-0.043-0.412-0.076-0.625-0.094
		c-0.323-0.023-0.674-0.039-1.063-0.031c-0.212,0.005-0.422,0.024-0.656,0.031c-0.637,0.021-1.326,0.048-2.156,0.031h-23.438
		c-0.83,0.017-1.52-0.01-2.156-0.031c-0.011,0-0.021,0.001-0.031,0C104.082-1.532,103.796-1.551,103.522-1.554L103.522-1.554z"/>
	<polygon id="red_top_1_" clip-path="url(#mask_6_)" fill="#ED1C24" points="118.303,-2.407 95.366,-2.407 95.366,9.176 
		118.303,14.845 141.241,9.176 141.241,-2.407 	"/>
	<g id="body_details_1_" clip-path="url(#mask_6_)">
		<path id="path4319" inkscape:connector-curvature="0" sodipodi:nodetypes="ccc" fill="#001423" d="M117.99,17.386
			c-0.032,4.931,0.188,9.865,0.328,14.792c0.224-4.935,0.35-9.865,0.285-14.796C118.569,14.719,118.008,14.72,117.99,17.386z"/>
		<path fill="#001423" d="M132.881,15.176c-0.539,0.323-1.143,0.648-1.65,0.875c-0.506,0.227-0.949,0.328-1.133,0.313
			c-0.211-0.018-0.592-0.163-0.998-0.406s-0.832-0.554-1.236-0.875c-0.809-0.642-1.686-1.109-1.686-1.109s0.475,0.825,1.307,1.484
			c0.416,0.33,0.867,0.643,1.307,0.906s0.871,0.466,1.271,0.5c0.426,0.036,0.869-0.132,1.41-0.375
			c0.539-0.243,1.133-0.577,1.684-0.906c1.104-0.659,1.891-1.516,1.891-1.516S133.963,14.531,132.881,15.176z M103.726,15.176
			c0.539,0.323,1.145,0.648,1.65,0.875s0.951,0.328,1.133,0.313c0.211-0.018,0.592-0.163,0.998-0.406s0.832-0.554,1.236-0.875
			c0.811-0.642,1.686-1.109,1.686-1.109s-0.475,0.825-1.307,1.484c-0.416,0.33-0.867,0.643-1.307,0.906
			c-0.438,0.264-0.871,0.466-1.271,0.5c-0.426,0.036-0.869-0.132-1.41-0.375c-0.539-0.243-1.131-0.577-1.684-0.906
			c-1.102-0.659-1.891-1.516-1.891-1.516S102.646,14.531,103.726,15.176z"/>
		<g>
			<polygon fill="#6F1723" points="118.02,14.947 118.303,6.341 118.587,14.947 			"/>
		</g>
	</g>
	<g id="stripes" clip-path="url(#mask_6_)">
		<path fill="#FFDC91" d="M139.124,6.54c-4.018,0.5-7.722,1.766-11.311,3.076c-1.792,0.662-3.549,1.385-5.281,2.157
			c-1.741,0.78-2.491,1.086-4.229,2.009c-1.737-0.923-2.487-1.229-4.229-2.009c-1.732-0.772-3.489-1.496-5.281-2.157
			c-3.589-1.31-7.293-2.576-11.311-3.076l-0.59,5.639c3.324,0.298,6.771,1.194,10.138,2.31c1.687,0.562,3.363,1.189,5.022,1.867
			c1.647,0.674,4.705,2.149,6.25,2.909c1.545-0.759,4.603-2.235,6.25-2.909c1.659-0.677,3.336-1.305,5.022-1.867
			c3.367-1.115,6.813-2.011,10.138-2.31L139.124,6.54z"/>
		<g>
			<defs>
				<path id="SVGID_5_" d="M139.124,6.598c-4.018,0.5-7.722,1.625-11.311,2.934c-1.792,0.662-3.549,1.385-5.281,2.157
					c-1.741,0.78-2.491,1.228-4.229,2.151c-1.737-0.923-2.487-1.371-4.229-2.151c-1.732-0.772-3.489-1.496-5.281-2.157
					c-3.589-1.31-7.293-2.435-11.311-2.934l-0.59,5.639c3.324,0.298,6.771,1.194,10.138,2.31c1.687,0.562,3.363,1.189,5.022,1.867
					c1.647,0.674,4.705,2.149,6.25,2.909c1.545-0.759,4.603-2.235,6.25-2.909c1.659-0.677,3.336-1.305,5.022-1.867
					c3.367-1.115,6.813-2.011,10.138-2.31L139.124,6.598z"/>
			</defs>
			<clipPath id="SVGID_6_">
				<use xlink:href="#SVGID_5_"  overflow="visible"/>
			</clipPath>
			<g clip-path="url(#SVGID_6_)">
				<polygon fill="#DCC392" points="110.857,7.008 106.427,7.008 103.594,18.926 107.522,18.926 				"/>
				<polygon fill="#DCC392" points="126.646,8.698 122.886,20.344 125.116,20.344 129.367,8.426 				"/>
				
					<rect x="133.8" y="5.593" transform="matrix(0.9808 0.1949 -0.1949 0.9808 4.7698 -26.0934)" fill="#DCC392" width="2.312" height="11.188"/>
				
					<rect x="97.804" y="4.905" transform="matrix(0.9727 0.232 -0.232 0.9727 4.9296 -22.7228)" fill="#DCC392" width="2.5" height="9.375"/>
			</g>
		</g>
		<path fill="none" stroke="#001423" stroke-width="0.4252" d="M138.626,6.682c-10.098,1.636-20.322,7.242-20.322,7.242
			s-10.225-5.606-20.322-7.242 M96.927,12.321c10.973,1.498,21.376,6.854,21.376,6.854s10.403-5.356,21.376-6.854 M97.84,9.617
			c10.231,1.369,20.464,7.1,20.464,7.1s10.232-5.731,20.464-7.1"/>
	</g>
	<g id="waist_scarf" clip-path="url(#mask_6_)">
		<path id="scarf_1_" fill="#ED1C24" stroke="#001423" stroke-width="0.4252" d="M145.942,42.138l-57.814,0.856
			c0,0,3.857-10.7,5.689-12.408c1.5,3.813,8.726,4.816,8.726,4.816s23.337,4.496,38.399-2.045
			C143.342,34.819,145.942,42.138,145.942,42.138z"/>
		<g id="wrinkles_1_">
			<g>
				<path fill="#6F1723" d="M111.556,38.368c1.563,0.737,3.176,0.953,4.845,1.104c0.832,0.1,1.685,0.2,2.537,0.179
					c0.852-0.021,1.696-0.155,2.537-0.318c1.678-0.338,3.374-0.604,5.104-0.697c1.722-0.046,3.507,0.082,5.135,0.712
					c0.022,0.009,0.033,0.034,0.024,0.056c-0.007,0.019-0.024,0.029-0.042,0.028c-1.719-0.096-3.385-0.017-5.07,0.11
					c-1.684,0.085-3.382,0.235-5.103,0.254c-0.858,0.016-1.715,0.046-2.568,0.131c-0.854,0.084-1.711,0.232-2.587,0.253
					c-1.72-0.002-3.604-0.483-4.858-1.741c-0.018-0.016-0.019-0.043-0.003-0.061C111.519,38.365,111.541,38.362,111.556,38.368z"/>
			</g>
			<g>
				<path fill="#6F1723" d="M94.549,35.397c0.824,0.869,1.985,1.349,3.211,1.631c1.227,0.291,2.515,0.409,3.759,0.705
					c-1.27-0.157-2.544-0.13-3.832-0.286c-0.644-0.078-1.293-0.201-1.927-0.424c-0.628-0.217-1.255-0.558-1.771-0.987L94.549,35.397
					z"/>
			</g>
			<g>
				<path fill="#6F1723" d="M93.436,38.089l-0.018-0.011l-0.009-0.005c0.005,0-0.028-0.01,0.058,0.021
					c0.041-0.006,0.115,0.085,0.378-0.067c0.126-0.09,0.174-0.261,0.166-0.342c-0.004-0.088-0.023-0.13-0.035-0.16
					c-0.055-0.106-0.058-0.09-0.07-0.111l-0.043-0.044c-0.039-0.031-0.065-0.044-0.05-0.035l0.014,0.01l0.063,0.044l0.132,0.091
					l0.265,0.185l0.522,0.377c0.346,0.254,0.686,0.517,1.018,0.788c0.656,0.548,1.311,1.122,1.803,1.819
					c-0.599-0.603-1.32-1.046-2.045-1.469c-0.364-0.209-0.735-0.407-1.109-0.596l-0.565-0.278l-0.284-0.134l-0.143-0.066
					l-0.074-0.035l-0.021-0.01c0.01,0.005-0.021-0.01-0.066-0.046l-0.052-0.049c-0.018-0.024-0.02-0.008-0.069-0.112
					c-0.012-0.029-0.03-0.07-0.032-0.158c-0.008-0.081,0.041-0.252,0.168-0.341c0.264-0.151,0.34-0.061,0.382-0.066l0.066,0.026
					l0.01,0.004l0.018,0.007L93.436,38.089z"/>
			</g>
			<g>
				<path fill="#6F1723" d="M135.067,38.112c1.552,0.037,3.093,0.354,4.614,0.576c1.521,0.229,3.049,0.261,4.488-0.118l0.17,0.834
					c-1.604,0.267-3.228,0.074-4.737-0.298C138.087,38.74,136.611,38.291,135.067,38.112z"/>
			</g>
		</g>
	</g>
</g>
<g id="faces">
	<path id="base-head" inkscape:connector-curvature="0" fill="#F5D7B3" stroke="#231F20" stroke-width="0.3125" d="M143.682-8.451
		H30.882v-21.392h112.801V-8.451z"/>
	<g id="face_2">
		<g id="eyes" transform="translate(89.646277,-132.14988)">
			
				<path id="path4325-9" sodipodi:rx="1.7446809" sodipodi:cy="14.904921" sodipodi:ry="1.7446809" sodipodi:cx="206.08511" sodipodi:type="arc" fill="#001423" d="
				M22.521,112.599c0,0.915-0.781,1.656-1.744,1.656c-0.964,0-1.744-0.742-1.744-1.656s0.78-1.656,1.744-1.656
				C21.74,110.943,22.521,111.684,22.521,112.599z"/>
			
				<path id="path4327-4" sodipodi:rx="0.59574467" sodipodi:cy="14.351728" sodipodi:ry="0.68085104" sodipodi:cx="206.38298" sodipodi:type="arc" fill="#EFF0ED" d="
				M21.5,112.049c0,0.376-0.266,0.681-0.596,0.681c-0.328,0-0.596-0.305-0.596-0.681s0.268-0.681,0.596-0.681
				C21.234,111.368,21.5,111.673,21.5,112.049z"/>
			
				<path id="path4331-8" sodipodi:rx="1.7446809" sodipodi:cy="14.904921" sodipodi:ry="1.7446809" sodipodi:cx="206.08511" sodipodi:type="arc" fill="#001423" d="
				M26.822,112.563c0,0.895,0.781,1.621,1.745,1.621s1.745-0.726,1.745-1.621s-0.781-1.62-1.745-1.62S26.822,111.668,26.822,112.563
				z"/>
			
				<path id="path4333-2" sodipodi:rx="0.59574467" sodipodi:cy="14.351728" sodipodi:ry="0.68085104" sodipodi:cx="206.38298" sodipodi:type="arc" fill="#EFF0ED" d="
				M27.844,111.902c0,0.326,0.268,0.59,0.596,0.59c0.329,0,0.596-0.264,0.596-0.59s-0.267-0.59-0.596-0.59
				C28.111,111.312,27.844,111.576,27.844,111.902z"/>
			<path id="path4335-4" inkscape:connector-curvature="0" sodipodi:nodetypes="ccccc" fill="#001423" d="M26.826,111.346
				c2.033-0.892,4.852,2.174,5.785-0.941c-0.602,0.548-1.006,0.758-0.699-0.235c-0.516,0.306-1.107,0.767-0.905-0.359
				C30.621,111.516,27.846,109.17,26.826,111.346L26.826,111.346z"/>
			<path id="path4337-5" inkscape:connector-curvature="0" sodipodi:nodetypes="ccccc" fill="#001423" d="M22.426,111.326
				c-2.039-0.878-4.836,2.207-5.792-0.902c0.606,0.544,1.011,0.751,0.698-0.24c0.517,0.302,1.112,0.759,0.902-0.365
				C18.942,111.552,21.395,109.16,22.426,111.326L22.426,111.326z"/>
			<g>
				<path fill="#692E14" d="M26.598,108.01l3.297-0.64c0.566-0.113,1.188-0.14,1.783,0.011c0.574,0.186,1.131,0.478,1.476,0.98
					c0.021,0.032,0.014,0.076-0.019,0.099c-0.024,0.017-0.057,0.016-0.08,0l-0.009-0.006c-0.449-0.305-0.948-0.536-1.475-0.588
					c-0.508-0.108-1.043-0.065-1.581,0.049c-0.547,0.097-1.086,0.241-1.611,0.48c-0.268,0.106-0.538,0.207-0.827,0.269
					c-0.299,0.078-0.63,0.1-0.909-0.088l-0.141-0.094c-0.119-0.081-0.15-0.242-0.07-0.361
					C26.472,108.06,26.533,108.023,26.598,108.01z"/>
			</g>
			<g>
				<path fill="#692E14" d="M22.891,108.575c-0.272,0.028-0.587-0.002-0.88-0.065l-0.835-0.207
					c-0.547-0.147-1.087-0.288-1.634-0.381c-0.539-0.102-1.07-0.163-1.58-0.057c-0.526,0.052-1.025,0.283-1.475,0.588l-0.009,0.006
					c-0.032,0.022-0.076,0.014-0.099-0.019c-0.017-0.025-0.016-0.057,0-0.08c0.345-0.502,0.901-0.794,1.476-0.98
					c0.598-0.149,1.215-0.103,1.781-0.003c0.565,0.097,1.128,0.21,1.701,0.231c0.283,0.021,0.563,0.047,0.828,0.093
					c0.256,0.032,0.484,0.085,0.77,0.308l0.096,0.075c0.12,0.094,0.141,0.267,0.048,0.386
					C23.031,108.531,22.962,108.567,22.891,108.575z"/>
			</g>
		</g>
		<g id="smile" transform="translate(44.06213,-69.058681)">
			<path id="path4463" inkscape:connector-curvature="0" sodipodi:nodetypes="cccszscc" fill="#F48473" d="M65.681,54.845
				c2.563,2.573,7.25,2.5,9.17,0.052l-0.261-0.27c-0.583,0.216-1.874-0.591-3.173-0.469c-0.672,0.063-0.94,0.606-1.164,0.607
				c-0.225,0.002-0.549-0.493-1.143-0.609c-0.938-0.182-2.222,0.572-3.09,0.407L65.681,54.845z"/>
			<g id="path4465" inkscape:connector-curvature="0" sodipodi:nodetypes="cc">
				<path d="M65.064,54.434c0.843,0.292,1.716,0.439,2.595,0.54c0.879,0.095,1.764,0.156,2.649,0.143
					c0.886,0.021,1.771-0.029,2.65-0.117c0.876-0.097,1.76-0.224,2.573-0.562c0.035-0.017,0.078-0.002,0.095,0.033
					c0.016,0.031,0.002,0.07-0.024,0.09c-0.774,0.517-1.688,0.736-2.578,0.903c-0.899,0.16-1.81,0.208-2.719,0.219
					c-0.908-0.022-1.819-0.079-2.716-0.247c-0.891-0.17-1.792-0.411-2.582-0.872c-0.035-0.019-0.048-0.063-0.028-0.097
					C64.995,54.437,65.032,54.424,65.064,54.434z"/>
			</g>
		</g>
	</g>
	<g id="face_1">
		<g id="eyes_1_" transform="translate(89.646277,-132.14988)">
			
				<path id="path4325-9_1_" sodipodi:rx="1.7446809" sodipodi:cy="14.904921" sodipodi:ry="1.7446809" sodipodi:cx="206.08511" sodipodi:type="arc" fill="#001423" d="
				M-34.139,112.599c0,0.915-0.781,1.656-1.744,1.656c-0.964,0-1.744-0.742-1.744-1.656s0.78-1.656,1.744-1.656
				C-34.92,110.943-34.139,111.684-34.139,112.599z"/>
			
				<path id="path4331-8_1_" sodipodi:rx="1.7446809" sodipodi:cy="14.904921" sodipodi:ry="1.7446809" sodipodi:cx="206.08511" sodipodi:type="arc" fill="#001423" d="
				M-29.838,112.563c0,0.895,0.781,1.621,1.745,1.621s1.745-0.726,1.745-1.621s-0.781-1.62-1.745-1.62
				S-29.838,111.668-29.838,112.563z"/>
			
				<path id="path4327-4_1_" sodipodi:rx="0.59574467" sodipodi:cy="14.351728" sodipodi:ry="0.68085104" sodipodi:cx="206.38298" sodipodi:type="arc" fill="#EFF0ED" d="
				M-35.16,112.049c0,0.376-0.266,0.681-0.596,0.681c-0.328,0-0.596-0.305-0.596-0.681s0.268-0.681,0.596-0.681
				C-35.426,111.368-35.16,111.673-35.16,112.049z"/>
			
				<path id="path4333-2_1_" sodipodi:rx="0.59574467" sodipodi:cy="14.351728" sodipodi:ry="0.68085104" sodipodi:cx="206.38298" sodipodi:type="arc" fill="#EFF0ED" d="
				M-28.816,111.902c0,0.326,0.268,0.59,0.596,0.59c0.329,0,0.596-0.264,0.596-0.59s-0.267-0.59-0.596-0.59
				C-28.549,111.312-28.816,111.576-28.816,111.902z"/>
			<path id="path4335-4_1_" inkscape:connector-curvature="0" sodipodi:nodetypes="ccccc" fill="#001423" d="M-29.834,111.346
				c2.033-0.892,4.852,2.174,5.785-0.941c-0.602,0.548-1.006,0.758-0.699-0.235c-0.516,0.306-1.107,0.767-0.905-0.359
				C-26.039,111.516-28.814,109.17-29.834,111.346L-29.834,111.346z"/>
			<path id="path4337-5_1_" inkscape:connector-curvature="0" sodipodi:nodetypes="ccccc" fill="#001423" d="M-34.234,111.326
				c-2.039-0.878-4.836,2.207-5.792-0.902c0.606,0.544,1.011,0.751,0.698-0.24c0.517,0.302,1.112,0.759,0.902-0.365
				C-37.718,111.552-35.266,109.16-34.234,111.326L-34.234,111.326z"/>
			<g display="none">
				<path display="inline" fill="#692E14" d="M-30.063,108.01l3.297-0.64c0.566-0.113,1.188-0.14,1.783,0.011
					c0.574,0.186,1.131,0.478,1.476,0.98c0.021,0.032,0.014,0.076-0.019,0.099c-0.024,0.017-0.057,0.016-0.08,0l-0.009-0.006
					c-0.449-0.305-0.948-0.536-1.475-0.588c-0.508-0.108-1.043-0.065-1.581,0.049c-0.547,0.097-1.086,0.241-1.611,0.48
					c-0.268,0.106-0.538,0.207-0.827,0.269c-0.299,0.078-0.63,0.1-0.909-0.088l-0.141-0.094c-0.119-0.081-0.15-0.242-0.07-0.361
					C-30.189,108.06-30.127,108.023-30.063,108.01z"/>
			</g>
			<g display="none">
				<path display="inline" fill="#692E14" d="M-33.77,108.575c-0.272,0.028-0.587-0.002-0.88-0.065l-0.835-0.207
					c-0.547-0.147-1.087-0.288-1.634-0.381c-0.539-0.102-1.07-0.163-1.58-0.057c-0.526,0.052-1.025,0.283-1.475,0.588l-0.009,0.006
					c-0.032,0.022-0.076,0.014-0.099-0.019c-0.017-0.025-0.016-0.057,0-0.08c0.345-0.502,0.901-0.794,1.476-0.98
					c0.598-0.149,1.215-0.103,1.781-0.003c0.565,0.097,1.128,0.21,1.701,0.231c0.283,0.021,0.563,0.047,0.828,0.093
					c0.256,0.032,0.484,0.085,0.77,0.308l0.096,0.075c0.12,0.094,0.141,0.267,0.048,0.386
					C-33.629,108.531-33.698,108.567-33.77,108.575z"/>
			</g>
		</g>
		<g id="smile_1_" transform="translate(44.06213,-69.058681)">
			<path id="path4463_1_" inkscape:connector-curvature="0" sodipodi:nodetypes="cccszscc" fill="#F48473" d="M9.021,54.845
				c2.563,2.573,7.25,2.5,9.17,0.052l-0.261-0.27c-0.583,0.216-1.874-0.591-3.173-0.469c-0.672,0.063-0.94,0.606-1.164,0.607
				c-0.225,0.002-0.549-0.493-1.143-0.609c-0.938-0.182-2.222,0.572-3.09,0.407L9.021,54.845z"/>
			<g id="path4465_1_" inkscape:connector-curvature="0" sodipodi:nodetypes="cc">
				<path d="M8.403,54.434c0.843,0.292,1.716,0.439,2.595,0.54c0.879,0.095,1.764,0.156,2.649,0.143
					c0.886,0.021,1.771-0.029,2.65-0.117c0.876-0.097,1.76-0.224,2.573-0.562c0.035-0.017,0.078-0.002,0.095,0.033
					c0.016,0.031,0.002,0.07-0.024,0.09c-0.774,0.517-1.688,0.736-2.578,0.903c-0.899,0.16-1.81,0.208-2.719,0.219
					c-0.908-0.022-1.819-0.079-2.716-0.247c-0.891-0.17-1.792-0.411-2.582-0.872c-0.035-0.019-0.048-0.063-0.028-0.097
					C8.335,54.437,8.372,54.424,8.403,54.434z"/>
			</g>
		</g>
	</g>
	<path id="mask" fill="#001423" d="M66.412-26.529c-0.563,0.625-1,1.392-1.858,1.763c-3.584,1.161-6.391,3.253-7.054,3.771
		c-0.663-0.518-3.47-2.61-7.054-3.771c-0.858-0.372-1.296-1.138-1.858-1.763c-1.125,1.642-2.938,1.454-3.767,3.954
		c0.892,3.188,1.454,4.75,6.142,7.421c1.795-1.388,5.745-2.494,6.537-2.706c0.792,0.212,4.742,1.318,6.537,2.706
		c4.688-2.671,5.25-4.233,6.142-7.421C69.349-25.074,67.537-24.887,66.412-26.529z M51.038-17.012
		c-2.467-0.938-3.708-2.986-3.779-4.5c-0.04-0.836,1.891-1.939,2.708-2.121c3.104,0.746,6.525,2.478,6.525,3.667
		C56.588-17.324,53.225-17.762,51.038-17.012z M63.962-17.012c-2.188-0.75-5.55-0.313-5.454-2.954c0-1.189,3.421-2.921,6.525-3.667
		c0.817,0.182,2.748,1.285,2.708,2.121C67.67-19.998,66.428-17.949,63.962-17.012z"/>
</g>
</svg>
