<?xml version="1.0" encoding="UTF-8" standalone="no"?>
<!-- Created with Inkscape (http://www.inkscape.org/) -->

<svg
   xmlns:dc="http://purl.org/dc/elements/1.1/"
   xmlns:cc="http://creativecommons.org/ns#"
   xmlns:rdf="http://www.w3.org/1999/02/22-rdf-syntax-ns#"
   xmlns:svg="http://www.w3.org/2000/svg"
   xmlns="http://www.w3.org/2000/svg"
   xmlns:xlink="http://www.w3.org/1999/xlink"
   xmlns:sodipodi="http://sodipodi.sourceforge.net/DTD/sodipodi-0.dtd"
   xmlns:inkscape="http://www.inkscape.org/namespaces/inkscape"
   width="124.875"
   height="43.677666"
   id="svg2"
   version="1.1"
   inkscape:version="0.48.2 r9819"
   sodipodi:docname="phoenix_jean_grey.svg"
   inkscape:export-filename="C:\Dokumente und Einstellungen\John\Desktop\minifigs\done\phoenix_jean_grey.png"
   inkscape:export-xdpi="1030.6306"
   inkscape:export-ydpi="1030.6306">
  <defs
     id="defs4">
    <linearGradient
       id="linearGradient3966">
      <stop
         style="stop-color:#c0ac02;stop-opacity:1;"
         offset="0"
         id="stop3968" />
      <stop
         style="stop-color:#fdea41;stop-opacity:0;"
         offset="1"
         id="stop3970" />
    </linearGradient>
    <clipPath
       id="clipPath2999"
       clipPathUnits="userSpaceOnUse">
      <path
         id="path3001"
         d="M 0,792 612,792 612,0 0,0 0,792 z"
         inkscape:connector-curvature="0" />
    </clipPath>
    <radialGradient
       inkscape:collect="always"
       xlink:href="#linearGradient3966"
       id="radialGradient3972"
       cx="96.306435"
       cy="46.658409"
       fx="96.306435"
       fy="46.658409"
       r="12.650181"
       gradientTransform="matrix(0.75988491,-0.03632001,0.13155835,2.7524547,16.986326,-78.268899)"
       gradientUnits="userSpaceOnUse" />
  </defs>
  <sodipodi:namedview
     id="base"
     pagecolor="#ffffff"
     bordercolor="#666666"
     borderopacity="1.0"
     inkscape:pageopacity="0.0"
     inkscape:pageshadow="2"
     inkscape:zoom="3.92"
     inkscape:cx="33.464114"
     inkscape:cy="30.29992"
     inkscape:document-units="px"
     inkscape:current-layer="layer2"
     showgrid="false"
     fit-margin-top="0"
     fit-margin-left="0"
     fit-margin-right="0"
     fit-margin-bottom="0"
     inkscape:window-width="1280"
     inkscape:window-height="968"
     inkscape:window-x="-4"
     inkscape:window-y="-4"
     inkscape:window-maximized="1"
     showguides="true"
     inkscape:guide-bbox="true" />
  <metadata
     id="metadata7">
    <rdf:RDF>
      <cc:Work
         rdf:about="">
        <dc:format>image/svg+xml</dc:format>
        <dc:type
           rdf:resource="http://purl.org/dc/dcmitype/StillImage" />
        <dc:title />
      </cc:Work>
    </rdf:RDF>
  </metadata>
  <g
     inkscape:label="Ebene 1"
     inkscape:groupmode="layer"
     id="layer1"
     transform="translate(-288.48188,-409.63544)"
     style="display:none"
     sodipodi:insensitive="true">
    <g
       id="g2995"
       transform="matrix(1.25,0,0,-1.25,-10.111871,968.33655)">
      <g
         id="g2997"
         clip-path="url(#clipPath2999)">
        <path
           inkscape:connector-curvature="0"
           d="m 238.5,411.935 0.01,0.052 0,0.053 -0.01,-0.105 z"
           style="fill:#ffffff;fill-opacity:1;fill-rule:nonzero;stroke:none"
           id="path3003" />
        <path
           inkscape:connector-curvature="0"
           d="m 238.5,411.935 0.01,0.052 0,0.053 -0.01,-0.105 z"
           style="fill:none;stroke:#231f20;stroke-width:0.25;stroke-linecap:butt;stroke-linejoin:miter;stroke-miterlimit:4;stroke-opacity:1;stroke-dasharray:none"
           id="path3005" />
        <path
           inkscape:connector-curvature="0"
           d="m 280.74,412.04 0,-0.053 0.01,-0.052 -0.01,0.105 z"
           style="fill:#ffffff;fill-opacity:1;fill-rule:nonzero;stroke:none"
           id="path3007" />
        <path
           inkscape:connector-curvature="0"
           d="m 280.74,412.04 0,-0.053 0.01,-0.052 -0.01,0.105 z"
           style="fill:none;stroke:#231f20;stroke-width:0.25;stroke-linecap:butt;stroke-linejoin:miter;stroke-miterlimit:4;stroke-opacity:1;stroke-dasharray:none"
           id="path3009" />
        <path
           inkscape:connector-curvature="0"
           d="m 274.656,444.555 c 0,0 -0.289,2.023 -1.908,2.086 l -11.203,0 -1.293,0 -1.252,0 -1.295,0 -11.201,0 c -1.621,-0.063 -1.91,-2.086 -1.91,-2.086 l -6.084,-32.568 0,-51.987 21.084,0 0.064,0 21.082,0 0,51.987 -6.084,32.568 z"
           style="fill:#ffffff;fill-opacity:1;fill-rule:nonzero;stroke:none"
           id="path3011" />
        <path
           inkscape:connector-curvature="0"
           d="m 274.656,444.555 c 0,0 -0.289,2.023 -1.908,2.086 l -11.203,0 -1.293,0 -1.252,0 -1.295,0 -11.201,0 c -1.621,-0.063 -1.91,-2.086 -1.91,-2.086 l -6.084,-32.568 0,-51.987 21.084,0 0.064,0 21.082,0 0,51.987 -6.084,32.568 z"
           style="fill:none;stroke:#231f20;stroke-width:0.25;stroke-linecap:butt;stroke-linejoin:miter;stroke-miterlimit:4;stroke-opacity:1;stroke-dasharray:none"
           id="path3013" />
        <path
           inkscape:connector-curvature="0"
           d="m 182.75,411.935 0.01,0.052 0,0.053 -0.01,-0.105 z"
           style="fill:#ffffff;fill-opacity:1;fill-rule:nonzero;stroke:none"
           id="path3015" />
        <path
           inkscape:connector-curvature="0"
           d="m 182.75,411.935 0.01,0.052 0,0.053 -0.01,-0.105 z"
           style="fill:none;stroke:#231f20;stroke-width:0.25;stroke-linecap:butt;stroke-linejoin:miter;stroke-miterlimit:4;stroke-opacity:1;stroke-dasharray:none"
           id="path3017" />
        <path
           inkscape:connector-curvature="0"
           d="m 224.99,412.04 0,-0.053 0.01,-0.052 -0.01,0.105 z"
           style="fill:#ffffff;fill-opacity:1;fill-rule:nonzero;stroke:none"
           id="path3019" />
        <path
           inkscape:connector-curvature="0"
           d="m 224.99,412.04 0,-0.053 0.01,-0.052 -0.01,0.105 z"
           style="fill:none;stroke:#231f20;stroke-width:0.25;stroke-linecap:butt;stroke-linejoin:miter;stroke-miterlimit:4;stroke-opacity:1;stroke-dasharray:none"
           id="path3021" />
        <path
           inkscape:connector-curvature="0"
           d="m 218.906,444.555 c 0,0 -0.289,2.023 -1.908,2.086 l -11.203,0 -1.293,0 -1.252,0 -1.295,0 -11.201,0 c -1.621,-0.063 -1.91,-2.086 -1.91,-2.086 l -6.084,-32.568 0,-51.987 21.084,0 0.064,0 21.082,0 0,51.987 -6.084,32.568 z"
           style="fill:#ffffff;fill-opacity:1;fill-rule:nonzero;stroke:none"
           id="path3023" />
        <path
           inkscape:connector-curvature="0"
           d="m 218.906,444.555 c 0,0 -0.289,2.023 -1.908,2.086 l -11.203,0 -1.293,0 -1.252,0 -1.295,0 -11.201,0 c -1.621,-0.063 -1.91,-2.086 -1.91,-2.086 l -6.084,-32.568 0,-51.987 21.084,0 0.064,0 21.082,0 0,51.987 -6.084,32.568 z"
           style="fill:none;stroke:#231f20;stroke-width:0.25;stroke-linecap:butt;stroke-linejoin:miter;stroke-miterlimit:4;stroke-opacity:1;stroke-dasharray:none"
           id="path3025" />
        <path
           inkscape:connector-curvature="0"
           d="m 297.39,353.726 18.156,0 0,8.965 -18.156,0 0,-8.965 z"
           style="fill:#ffffff;fill-opacity:1;fill-rule:nonzero;stroke:none"
           id="path3027" />
        <path
           inkscape:connector-curvature="0"
           d="m 297.39,353.726 18.156,0 0,8.964 -18.156,0 0,-8.964 z"
           style="fill:none;stroke:#231f20;stroke-width:0.25;stroke-linecap:butt;stroke-linejoin:miter;stroke-miterlimit:4;stroke-opacity:1;stroke-dasharray:none"
           id="path3029" />
        <path
           inkscape:connector-curvature="0"
           d="m 315.547,364.799 -18.158,0 0,33.947 18.158,0 0,-33.947 z"
           style="fill:#ffffff;fill-opacity:1;fill-rule:nonzero;stroke:none"
           id="path3031" />
        <path
           inkscape:connector-curvature="0"
           d="m 315.547,364.799 -18.158,0 0,33.947 18.158,0 0,-33.947 z"
           style="fill:none;stroke:#231f20;stroke-width:0.25;stroke-linecap:butt;stroke-linejoin:miter;stroke-miterlimit:4;stroke-opacity:1;stroke-dasharray:none"
           id="path3033" />
        <path
           inkscape:connector-curvature="0"
           d="m 338.228,402.868 -41.063,0 0,5.653 41.063,0 0,-5.653 z"
           style="fill:#ffffff;fill-opacity:1;fill-rule:nonzero;stroke:none"
           id="path3035" />
        <path
           inkscape:connector-curvature="0"
           d="m 338.228,402.868 -41.064,0 0,5.653 41.064,0 0,-5.653 z"
           style="fill:none;stroke:#231f20;stroke-width:0.25;stroke-linecap:butt;stroke-linejoin:miter;stroke-miterlimit:4;stroke-opacity:1;stroke-dasharray:none"
           id="path3037" />
        <path
           inkscape:connector-curvature="0"
           d="m 297.892,379.549 17.153,0"
           style="fill:#ffffff;fill-opacity:1;fill-rule:nonzero;stroke:none"
           id="path3039" />
        <path
           inkscape:connector-curvature="0"
           d="m 297.892,379.549 17.153,0"
           style="fill:none;stroke:#231f20;stroke-width:0.25;stroke-linecap:butt;stroke-linejoin:miter;stroke-miterlimit:4;stroke-opacity:1;stroke-dasharray:none"
           id="path3041" />
        <path
           inkscape:connector-curvature="0"
           d="m 319.974,353.726 18.156,0 0,8.965 -18.156,0 0,-8.965 z"
           style="fill:#ffffff;fill-opacity:1;fill-rule:nonzero;stroke:none"
           id="path3043" />
        <path
           inkscape:connector-curvature="0"
           d="m 319.974,353.726 18.156,0 0,8.964 -18.156,0 0,-8.964 z"
           style="fill:none;stroke:#231f20;stroke-width:0.25;stroke-linecap:butt;stroke-linejoin:miter;stroke-miterlimit:4;stroke-opacity:1;stroke-dasharray:none"
           id="path3045" />
        <path
           inkscape:connector-curvature="0"
           d="m 338.13,364.798 -18.156,0 0,33.948 18.156,0 0,-33.948 z"
           style="fill:#ffffff;fill-opacity:1;fill-rule:nonzero;stroke:none"
           id="path3047" />
        <path
           inkscape:connector-curvature="0"
           d="m 338.13,364.798 -18.156,0 0,33.948 18.156,0 0,-33.948 z"
           style="fill:none;stroke:#231f20;stroke-width:0.25;stroke-linecap:butt;stroke-linejoin:miter;stroke-miterlimit:4;stroke-opacity:1;stroke-dasharray:none"
           id="path3049" />
        <path
           inkscape:connector-curvature="0"
           d="m 320.476,379.548 17.152,0"
           style="fill:#ffffff;fill-opacity:1;fill-rule:nonzero;stroke:none"
           id="path3051" />
        <path
           inkscape:connector-curvature="0"
           d="m 320.476,379.548 17.152,0"
           style="fill:none;stroke:#231f20;stroke-width:0.25;stroke-linecap:butt;stroke-linejoin:miter;stroke-miterlimit:4;stroke-opacity:1;stroke-dasharray:none"
           id="path3053" />
        <path
           inkscape:connector-curvature="0"
           d="m 372.053,415.387 c -0.436,0.822 -0.22,1.537 -0.22,1.537 l -0.007,0.009 -1.95,2.883 c -1.907,-2.589 -3.679,-4.201 -4.85,-5.107 0.372,-0.448 1.139,-1.297 1.796,-1.57 0.032,-0.014 0.063,-0.035 0.095,-0.045 0.917,-0.309 5.835,0.967 5.136,2.293"
           style="fill:#ffffff;fill-opacity:1;fill-rule:nonzero;stroke:none"
           id="path3055" />
        <path
           inkscape:connector-curvature="0"
           d="m 372.053,415.387 c -0.436,0.822 -0.22,1.537 -0.22,1.537 l -0.007,0.009 -1.95,2.883 c -1.907,-2.589 -3.679,-4.201 -4.85,-5.107 0.372,-0.448 1.139,-1.297 1.796,-1.57 0.032,-0.014 0.063,-0.035 0.095,-0.045 0.917,-0.309 5.835,0.967 5.136,2.293 z"
           style="fill:none;stroke:#231f20;stroke-width:0.25;stroke-linecap:butt;stroke-linejoin:miter;stroke-miterlimit:4;stroke-opacity:1;stroke-dasharray:none"
           id="path3057" />
        <path
           inkscape:connector-curvature="0"
           d="m 382.225,407.975 c 1.345,1.121 0.593,2.694 0.593,2.694 l -5.362,8.702 c -0.659,0.832 -1.542,0.142 -1.542,0.142 l -4.088,-2.58 0.007,-0.009 c 0,0 -0.216,-0.715 0.22,-1.537 0.699,-1.326 -4.219,-2.602 -5.136,-2.293 -0.032,0.01 -0.063,0.031 -0.095,0.045 -0.127,-1.04 0.242,-3.237 3.557,-7.08 3.566,-4.134 10.499,0.795 11.846,1.916"
           style="fill:#ffffff;fill-opacity:1;fill-rule:nonzero;stroke:none"
           id="path3059" />
        <path
           inkscape:connector-curvature="0"
           d="m 382.225,407.975 c 1.345,1.121 0.593,2.694 0.593,2.694 l -5.362,8.702 c -0.659,0.832 -1.542,0.142 -1.542,0.142 l -4.088,-2.58 0.007,-0.009 c 0,0 -0.216,-0.715 0.22,-1.537 0.699,-1.326 -4.219,-2.602 -5.136,-2.293 -0.032,0.01 -0.063,0.031 -0.095,0.045 -0.127,-1.04 0.242,-3.237 3.557,-7.08 3.566,-4.134 10.499,0.795 11.846,1.916 z"
           style="fill:none;stroke:#231f20;stroke-width:0.25;stroke-linecap:butt;stroke-linejoin:miter;stroke-miterlimit:4;stroke-opacity:1;stroke-dasharray:none"
           id="path3061" />
        <path
           inkscape:connector-curvature="0"
           d="m 365.026,414.709 c 1.171,0.906 2.943,2.518 4.85,5.107 0.495,0.672 0.998,1.407 1.502,2.213 l -4.548,4.547 c 0,0 -1.504,1.39 -1.435,3.628 0,0 1.084,11.583 -0.541,14.219 -2.342,3.8 -5.68,3.195 -5.68,3.195 -8.088,-0.691 -8.254,-7.269 -8.254,-7.269 0,0 -0.056,-7.821 -0.021,-11.657 0.037,-3.836 2.675,-5.993 2.675,-5.993 l 10.03,-8.954 c 0,0 0.541,0.283 1.422,0.964"
           style="fill:#ffffff;fill-opacity:1;fill-rule:nonzero;stroke:none"
           id="path3063" />
        <path
           inkscape:connector-curvature="0"
           d="m 365.026,414.709 c 1.171,0.906 2.943,2.518 4.85,5.107 0.495,0.672 0.998,1.407 1.502,2.213 l -4.548,4.547 c 0,0 -1.504,1.39 -1.435,3.628 0,0 1.084,11.583 -0.541,14.219 -2.342,3.8 -5.68,3.195 -5.68,3.195 -8.088,-0.691 -8.254,-7.269 -8.254,-7.269 0,0 -0.056,-7.821 -0.021,-11.657 0.037,-3.836 2.675,-5.993 2.675,-5.993 l 10.03,-8.954 c 0,0 0.541,0.283 1.422,0.964 z"
           style="fill:none;stroke:#231f20;stroke-width:0.25;stroke-linecap:butt;stroke-linejoin:miter;stroke-miterlimit:4;stroke-opacity:1;stroke-dasharray:none"
           id="path3065" />
        <path
           inkscape:connector-curvature="0"
           d="m 405.439,415.053 c -0.394,0.843 -1.094,1.101 -1.094,1.101 l -0.002,0.011 -1.125,3.296 c 3.217,-0.041 5.57,0.399 7,0.787 0.133,-0.567 0.347,-1.69 0.17,-2.38 -0.01,-0.032 -0.012,-0.071 -0.022,-0.102 -0.307,-0.918 -4.292,-4.072 -4.927,-2.713"
           style="fill:#ffffff;fill-opacity:1;fill-rule:nonzero;stroke:none"
           id="path3067" />
        <path
           inkscape:connector-curvature="0"
           d="m 405.439,415.053 c -0.394,0.843 -1.094,1.101 -1.094,1.101 l -0.002,0.011 -1.125,3.296 c 3.217,-0.041 5.57,0.399 7,0.787 0.133,-0.567 0.347,-1.69 0.17,-2.38 -0.01,-0.032 -0.012,-0.071 -0.022,-0.102 -0.307,-0.918 -4.292,-4.072 -4.927,-2.713 z"
           style="fill:none;stroke:#231f20;stroke-width:0.25;stroke-linecap:butt;stroke-linejoin:miter;stroke-miterlimit:4;stroke-opacity:1;stroke-dasharray:none"
           id="path3069" />
        <path
           inkscape:connector-curvature="0"
           d="m 405.216,402.469 c -1.705,-0.397 -2.508,1.15 -2.508,1.15 l -3.706,9.526 c -0.267,1.028 0.817,1.316 0.817,1.316 l 4.524,1.704 0.002,-0.011 c 0,0 0.7,-0.258 1.094,-1.101 0.635,-1.359 4.62,1.795 4.927,2.713 0.01,0.031 0.012,0.07 0.022,0.102 0.906,-0.526 2.435,-2.145 3.502,-7.106 1.146,-5.338 -6.967,-7.895 -8.674,-8.293"
           style="fill:#ffffff;fill-opacity:1;fill-rule:nonzero;stroke:none"
           id="path3071" />
        <path
           inkscape:connector-curvature="0"
           d="m 405.216,402.469 c -1.705,-0.397 -2.508,1.15 -2.508,1.15 l -3.706,9.526 c -0.267,1.028 0.817,1.316 0.817,1.316 l 4.524,1.704 0.002,-0.011 c 0,0 0.7,-0.258 1.094,-1.101 0.635,-1.359 4.62,1.795 4.927,2.713 0.01,0.031 0.012,0.07 0.022,0.102 0.906,-0.526 2.435,-2.145 3.502,-7.106 1.146,-5.338 -6.967,-7.895 -8.674,-8.293 z"
           style="fill:none;stroke:#231f20;stroke-width:0.25;stroke-linecap:butt;stroke-linejoin:miter;stroke-miterlimit:4;stroke-opacity:1;stroke-dasharray:none"
           id="path3073" />
        <path
           inkscape:connector-curvature="0"
           d="m 410.218,420.248 c -1.43,-0.388 -3.783,-0.828 -7,-0.787 -0.834,0.009 -1.723,0.051 -2.67,0.137 l -0.884,6.369 c 0,0 -0.201,2.038 -2.027,3.332 0,0 -9.894,6.122 -11.017,9.009 -1.618,4.159 0.878,6.457 0.878,6.457 5.43,6.034 10.776,2.199 10.776,2.199 0,0 6.272,-4.672 9.311,-7.013 3.037,-2.342 3.166,-5.75 3.166,-5.75 l 1.094,-13.4 c 0,0 -0.553,-0.261 -1.627,-0.553"
           style="fill:#ffffff;fill-opacity:1;fill-rule:nonzero;stroke:none"
           id="path3075" />
        <path
           inkscape:connector-curvature="0"
           d="m 410.218,420.248 c -1.43,-0.388 -3.783,-0.828 -7,-0.787 -0.834,0.009 -1.723,0.051 -2.67,0.137 l -0.884,6.369 c 0,0 -0.201,2.038 -2.027,3.332 0,0 -9.894,6.122 -11.017,9.009 -1.618,4.159 0.878,6.457 0.878,6.457 5.43,6.034 10.776,2.199 10.776,2.199 0,0 6.272,-4.672 9.311,-7.013 3.037,-2.342 3.166,-5.75 3.166,-5.75 l 1.094,-13.4 c 0,0 -0.553,-0.261 -1.627,-0.553 z"
           style="fill:none;stroke:#231f20;stroke-width:0.25;stroke-linecap:butt;stroke-linejoin:miter;stroke-miterlimit:4;stroke-opacity:1;stroke-dasharray:none"
           id="path3077" />
        <path
           inkscape:connector-curvature="0"
           d="m 333.24,454.72 -90.24,0 0,17.113 90.24,0 0,-17.113 z"
           style="fill:#ffffff;fill-opacity:1;fill-rule:nonzero;stroke:none"
           id="path3079" />
        <path
           inkscape:connector-curvature="0"
           d="m 333.24,454.72 -90.24,0 0,17.113 90.24,0 0,-17.113 z"
           style="fill:none;stroke:#231f20;stroke-width:0.25;stroke-linecap:butt;stroke-linejoin:miter;stroke-miterlimit:4;stroke-opacity:1;stroke-dasharray:none"
           id="path3081" />
        <path
           inkscape:connector-curvature="0"
           d="m 357.082,380.629 0,-12.162 -6.082,0 0,-8.467 21.403,0 0,31.719 0,0.715 c 0,0 -1.669,6.558 -9.122,6.558 l -0.536,0 c 0,0 -9.301,-0.059 -9.539,-8.943 l 0,-0.299 c 0,0 -0.238,-4.172 3.935,-6.916 l -0.059,-2.205 z"
           style="fill:#ffffff;fill-opacity:1;fill-rule:nonzero;stroke:none"
           id="path3083" />
        <path
           inkscape:connector-curvature="0"
           d="m 357.082,380.629 0,-12.162 -6.082,0 0,-8.467 21.403,0 0,31.719 0,0.715 c 0,0 -1.669,6.558 -9.122,6.558 l -0.536,0 c 0,0 -9.301,-0.059 -9.539,-8.943 l 0,-0.299 c 0,0 -0.238,-4.172 3.935,-6.916 l -0.059,-2.205 z"
           style="fill:none;stroke:#231f20;stroke-width:0.25;stroke-linecap:butt;stroke-linejoin:miter;stroke-miterlimit:4;stroke-opacity:1;stroke-dasharray:none"
           id="path3085" />
        <path
           inkscape:connector-curvature="0"
           d="m 392.913,380.629 0,-12.162 6.081,0 0,-8.467 -21.403,0 0,31.719 0,0.715 c 0,0 1.669,6.558 9.121,6.558 l 0.537,0 c 0,0 9.301,-0.059 9.539,-8.943 l 0,-0.299 c 0,0 0.239,-4.172 -3.934,-6.916 l 0.059,-2.205 z"
           style="fill:#ffffff;fill-opacity:1;fill-rule:nonzero;stroke:none"
           id="path3087" />
        <path
           inkscape:connector-curvature="0"
           d="m 392.913,380.629 0,-12.162 6.081,0 0,-8.467 -21.403,0 0,31.719 0,0.715 c 0,0 1.669,6.558 9.121,6.558 l 0.537,0 c 0,0 9.301,-0.059 9.539,-8.943 l 0,-0.299 c 0,0 0.239,-4.172 -3.934,-6.916 l 0.059,-2.205 z"
           style="fill:none;stroke:#231f20;stroke-width:0.25;stroke-linecap:butt;stroke-linejoin:miter;stroke-miterlimit:4;stroke-opacity:1;stroke-dasharray:none"
           id="path3089" />
        <path
           inkscape:connector-curvature="0"
           d="m 297,412.333 c 6.986,37.835 4.274,34.143 11.414,34.285 l 18.752,0 c 7.141,-0.142 4.428,3.55 11.412,-34.285 l -41.578,0 z"
           style="fill:#ffffff;fill-opacity:1;fill-rule:nonzero;stroke:none"
           id="path3091" />
        <path
           inkscape:connector-curvature="0"
           d="m 297,412.333 c 6.986,37.835 4.274,34.143 11.414,34.285 l 18.752,0 c 7.141,-0.142 4.428,3.55 11.412,-34.285 l -41.578,0 z"
           style="fill:none;stroke:#231f20;stroke-width:0.25;stroke-linecap:butt;stroke-linejoin:miter;stroke-miterlimit:4;stroke-opacity:1;stroke-dasharray:none"
           id="path3093" />
        <path
           inkscape:connector-curvature="0"
           d="m 238.5,412.185 42.24,0.052"
           style="fill:none;stroke:#231f20;stroke-width:0.25;stroke-linecap:butt;stroke-linejoin:miter;stroke-miterlimit:4;stroke-opacity:1;stroke-dasharray:none"
           id="path3095" />
      </g>
    </g>
  </g>
  <g
     inkscape:groupmode="layer"
     id="layer2"
     inkscape:label="female"
     style="display:inline"
     transform="translate(-70.3125,-31.259833)">
    <path
       inkscape:connector-curvature="0"
       d="m 70.515575,74.339226 c 8.7325,-47.29375 5.3425,-42.67875 14.2675,-42.85625 l 23.440005,0 c 8.92625,0.1775 5.535,-4.4375 14.265,42.85625 l -51.972505,0 z"
       style="fill:#000000;stroke:#231f20;stroke-width:0.31250000000000000;stroke-linecap:butt;stroke-linejoin:miter;stroke-miterlimit:4;stroke-opacity:1;stroke-dasharray:none"
       id="path3862" />
    <path
       id="path3918"
       style="fill:#287f46;fill-opacity:1;stroke:#231f20;stroke-width:0.3125;stroke-linecap:butt;stroke-linejoin:miter;stroke-miterlimit:4;stroke-opacity:1;stroke-dasharray:none"
       d="m 74.744203,50.265601 c 3.611835,-21.4395 3.054829,-18.643727 10.038872,-18.782625 l 23.440005,0 c 6.7012,0.133254 6.46032,-2.434519 9.61757,16.28739 -0.76873,1.885933 -0.67954,4.703511 -1.61896,6.21943 -1.05476,1.70205 -3.0846,2.859667 -4.05866,3.420216 -0.75887,0.436711 0.0763,2.251924 0.16596,3.900994 0.28914,5.316875 5.71365,9.569268 5.96036,13.02822 l -44.585983,0 c 2.539144,-6.305963 4.954287,-6.662771 6.028953,-10.897501 0.512396,-2.019104 0.580629,-5.551223 0.113462,-5.895315 -3.206398,-2.361675 -5.372341,-5.674302 -5.101579,-7.280809 z"
       inkscape:connector-curvature="0"
       sodipodi:nodetypes="ccccsssccssc" />
    <path
       style="fill:#fdea41;fill-opacity:1;display:inline"
       d="m 83.65625,35.0625 c 0.43539,0.905929 0.774802,1.871799 1.375,2.6875 0.713107,0.588726 1.718919,0.605871 2.456799,1.143483 0.145128,0.09639 0.441065,0.275593 0.168201,0.419017 -0.585565,0.307798 -1.274911,0.302721 -1.90625,0.46875 0.391272,0.964958 1.340508,1.672831 2.369189,1.801438 0.541374,0.03492 1.166162,0.0189 1.568311,0.448562 -0.681297,0.354389 -1.083635,1.671106 -0.125,1.9375 0.758073,0.350164 1.625691,0.431208 2.34375,0.875 -0.06993,0.946485 -0.813049,2.177198 0.15625,2.90625 0.358308,0.324048 0.745494,-0.06757 1.0625,-0.1875 0.596229,0.119263 0.137303,0.824329 0.03758,1.173882 -0.316799,0.902894 -0.644232,1.870283 -0.350079,2.826118 0.09416,0.05238 0.08274,0.462225 0.282464,0.157137 0.759725,-0.442391 1.50957,-0.944916 2.373786,-1.157137 0.06649,1.021271 -0.360722,1.973162 -0.824245,2.854551 -0.417415,0.926041 -0.264564,2.019692 0.27626,2.861979 0.439464,0.724735 0.890641,1.481737 1.422985,2.12722 0.316881,0.05455 0.221437,-0.423721 0.474465,-0.538598 0.598852,-0.884614 1.289467,-1.767545 1.588035,-2.805152 0.01508,-1.029329 -0.416488,-2.000541 -0.720145,-2.968071 -0.161692,-0.456498 -0.318216,-0.97426 -0.09235,-1.438179 0.886693,-0.16934 1.538185,0.554538 2.34375,0.75 0.459244,-0.730938 0.315974,-1.616802 0.07886,-2.395637 C 99.917776,48.524186 99.598424,47.97056 100,47.53125 c 0.39234,0.306642 1.35105,0.573864 1.36228,-0.200272 0.15282,-0.774506 0.14681,-1.730853 -0.48728,-2.299728 0.0116,-0.851925 1.14053,-0.460563 1.625,-0.8125 0.62063,-0.214332 1.43401,-1.161268 0.78874,-1.731254 -0.25514,-0.115129 -0.84197,-0.554272 -0.34398,-0.75675 0.89979,-0.486178 1.99943,-0.388687 2.86774,-0.949496 0.40799,-0.292649 0.59149,-0.801674 1,-1.09375 -0.75212,-0.174781 -1.58877,-0.114099 -2.25,-0.5625 0.68331,-0.7161 1.75096,-0.674371 2.59375,-1.09375 0.98201,-0.456612 1.30201,-1.572005 1.75,-2.46875 0.21415,-0.433592 -0.30296,-0.633773 -0.64426,-0.487689 -1.35195,0.137083 -2.65486,0.536497 -3.98638,0.787042 -0.9415,0.177631 -1.74692,0.720879 -2.41546,1.389501 -0.85441,0.742584 -1.71408,1.480374 -2.5164,2.279896 -0.50901,0.443684 -1.471032,0.215769 -1.458779,-0.550097 -0.264082,-0.941291 -0.125759,-2.067891 -0.853721,-2.824903 -0.361805,-0.319409 -0.941623,-0.449586 -1.34375,-0.125 0.161518,0.886233 0.05537,1.827581 -0.363004,2.632258 -0.232699,0.528721 -0.610005,0.969477 -0.949496,1.430242 -1.039557,-0.575267 -1.822014,-1.495602 -2.695035,-2.282158 -0.662189,-0.648487 -1.392613,-1.273482 -2.273715,-1.592842 -1.177526,-0.477948 -2.456885,-0.593597 -3.6875,-0.875 -0.690064,-0.133786 -1.378277,-0.276271 -2.0625,-0.4375 l 0,0.15625 z"
       id="path3066-7"
       inkscape:connector-curvature="0"
       sodipodi:nodetypes="scssscssssscsssssscsssscscssscssssscscsssscsssssscsscsscssscsss" />
    <path
       transform="translate(-218.16938,-378.37561)"
       id="path3325"
       style="fill:#000000;stroke:#231f20;stroke-width:0.3125;stroke-linecap:butt;stroke-linejoin:miter;stroke-miterlimit:4;stroke-opacity:1;stroke-dasharray:none"
       d="m 360.93313,453.0725 c 8.7325,-47.29375 5.3425,-42.67875 14.2675,-42.85625 l 23.44,0 c 8.92625,0.1775 5.535,-4.4375 14.265,42.85625 l -51.9725,0 z"
       inkscape:connector-curvature="0" />
    <path
       style="fill:#287f46;fill-opacity:1;stroke:#231f20;stroke-width:0.3125;stroke-linecap:butt;stroke-linejoin:miter;stroke-miterlimit:4;stroke-opacity:1;stroke-dasharray:none"
       d="m 153.96875,31.78125 c -0.27345,-0.0021 -0.51296,0.01438 -0.75,0.03125 -0.2517,0.01598 -0.50065,0.04528 -0.71875,0.09375 -0.19414,0.04649 -0.36055,0.103301 -0.53125,0.1875 -1.79689,0.886304 -2.41272,4.126231 -4.4375,15.34375 -0.79249,4.39047 3.12451,9.636 2.34375,17.375 -0.42679,4.23039 -5.79223,6.78828 -7.125,9.875 l 52,0 c -1.33277,-3.08672 -6.69821,-5.64461 -7.125,-9.875 -0.78076,-7.739 3.13624,-12.98453 2.34375,-17.375 -2.02478,-11.217519 -2.64061,-14.457446 -4.4375,-15.34375 -0.1707,-0.0842 -0.33711,-0.141007 -0.53125,-0.1875 -0.01,-0.0021 -0.0215,0.0021 -0.0312,0 -0.18742,-0.04293 -0.41185,-0.07634 -0.625,-0.09375 -0.3229,-0.02336 -0.6732,-0.03967 -1.0625,-0.03125 -0.21166,0.0041 -0.42118,0.02383 -0.65625,0.03125 -0.63668,0.02078 -1.3262,0.04776 -2.15625,0.03125 l -23.4375,0 c -0.83005,0.01651 -1.51957,-0.01047 -2.15625,-0.03125 -0.0104,-3.4e-4 -0.0209,3.37e-4 -0.0312,0 -0.31503,-0.0099 -0.60155,-0.0291 -0.875,-0.03125 z"
       id="path3093-4"
       inkscape:connector-curvature="0" />
    <path
       style="font-size:medium;font-style:normal;font-variant:normal;font-weight:normal;font-stretch:normal;text-indent:0;text-align:start;text-decoration:none;line-height:normal;letter-spacing:normal;word-spacing:normal;text-transform:none;direction:ltr;block-progression:tb;writing-mode:lr-tb;text-anchor:start;baseline-shift:baseline;color:#000000;fill:#000000;fill-opacity:1;stroke:none;stroke-width:1px;marker:none;visibility:visible;display:inline;overflow:visible;enable-background:accumulate;font-family:Sans;-inkscape-font-specification:Sans"
       d="m 158.0625,51.90625 c -2.81526,-0.490583 -5.46923,-1.869284 -7.14063,-4.15625 0.95017,3.105013 3.92775,4.629051 6.95313,5.15625 3.02538,0.527199 6.12462,0.104993 7.73437,-1.515625 -1.79108,0.553195 -4.73161,1.006208 -7.54687,0.515625 z"
       id="path3331"
       inkscape:connector-curvature="0"
       sodipodi:nodetypes="scscs" />
    <path
       style="fill:#fdea41;fill-opacity:1"
       d="m 169.88285,56.380484 1.05567,-1.925631 -0.66492,-1.971574 c -0.40584,-1.20338 -0.58105,-2.055441 -0.44968,-2.186808 0.13138,-0.131373 0.7278,0.06242 1.53075,0.497278 l 1.3155,0.712513 0.42626,-0.700922 c 0.38605,-0.634806 0.39584,-0.801965 0.10385,-1.772178 -0.17732,-0.589193 -0.32239,-1.159594 -0.32239,-1.26757 0,-0.330916 0.85868,-0.217752 1.16704,0.153803 0.417,0.50246 0.5421,0.446625 1.03028,-0.45986 l 0.43619,-0.809979 -0.61652,-0.808314 c -0.89249,-1.17012 -0.81284,-1.389121 0.45333,-1.246404 1.00333,0.113092 1.09764,0.07505 1.51629,-0.61152 0.58171,-0.954006 0.5726,-1.005892 -0.25206,-1.432338 -1.08645,-0.561823 -0.89102,-0.992915 0.53065,-1.170541 1.12211,-0.140198 1.27387,-0.232247 1.71713,-1.041502 l 0.48626,-0.887713 -1.13362,-0.150379 c -0.75602,-0.100293 -1.13361,-0.261321 -1.13361,-0.483457 0,-0.302381 0.43285,-0.474852 2.34952,-0.936191 0.44921,-0.108125 0.78757,-0.526686 1.35349,-1.674311 0.415,-0.841581 0.71451,-1.570182 0.66558,-1.619115 -0.049,-0.04893 -1.44576,0.194363 -3.10406,0.540659 l -3.0151,0.629628 -2.18543,2.054357 c -1.202,1.129896 -2.31809,2.054358 -2.48021,2.054358 -0.18512,0 -0.44498,-0.773433 -0.69864,-2.079364 l -0.40388,-2.079363 -0.81596,-0.153077 c -1.00296,-0.188154 -1.0922,-0.110198 -0.74534,0.651075 0.23315,0.511707 0.17724,0.82819 -0.37639,2.130847 -0.35762,0.841435 -0.78803,1.529882 -0.95647,1.529882 -0.16845,0 -1.28181,-0.925108 -2.47413,-2.055794 l -2.16788,-2.055794 -3.01509,-0.628192 c -1.6583,-0.345505 -3.05513,-0.588155 -3.10406,-0.539222 -0.049,0.04893 0.25058,0.777534 0.66558,1.619115 0.56591,1.147625 0.90427,1.566186 1.35349,1.674311 1.91667,0.461339 2.34951,0.63381 2.34951,0.936191 0,0.222136 -0.37758,0.383167 -1.13361,0.483457 l -1.13362,0.150379 0.48625,0.887713 c 0.44328,0.809255 0.59504,0.901304 1.71714,1.041502 1.42167,0.177626 1.61711,0.608718 0.53066,1.170541 -0.82465,0.426446 -0.83379,0.478332 -0.25206,1.432338 0.41865,0.686573 0.51296,0.724612 1.51628,0.61152 1.26618,-0.142717 1.34584,0.07629 0.45335,1.246404 l -0.61654,0.808314 0.43305,0.804113 c 0.41017,0.761649 0.46078,0.785932 0.95842,0.459861 0.55913,-0.366347 1.24372,-0.459794 1.23952,-0.169194 -0.001,0.09629 -0.15754,0.685989 -0.34698,1.310465 -0.32322,1.065363 -0.31587,1.175568 0.11916,1.786507 l 0.46362,0.651101 1.30274,-0.705586 c 0.79513,-0.430665 1.38658,-0.621725 1.51795,-0.490352 0.13137,0.131367 -0.0451,0.985361 -0.45288,2.191769 l -0.66811,1.976539 1.03877,1.920665 c 0.57131,1.05637 1.11561,1.920666 1.20953,1.920666 0.0939,0 0.64581,-0.866531 1.22643,-1.925626 z"
       id="path3066"
       inkscape:connector-curvature="0"
       sodipodi:nodetypes="scssscssssscsssssscsssscscssscssssscscsssscsssssscsscsscssscsss" />
    <path
       sodipodi:nodetypes="scscs"
       inkscape:connector-curvature="0"
       id="path3337"
       d="m 179.15211,51.90625 c 2.81526,-0.490583 5.46923,-1.869284 7.14063,-4.15625 -0.95017,3.105013 -3.92775,4.629051 -6.95313,5.15625 -3.02538,0.527199 -6.12462,0.104993 -7.73437,-1.515625 1.79108,0.553195 4.73161,1.006208 7.54687,0.515625 z"
       style="font-size:medium;font-style:normal;font-variant:normal;font-weight:normal;font-stretch:normal;text-indent:0;text-align:start;text-decoration:none;line-height:normal;letter-spacing:normal;word-spacing:normal;text-transform:none;direction:ltr;block-progression:tb;writing-mode:lr-tb;text-anchor:start;baseline-shift:baseline;color:#000000;fill:#000000;fill-opacity:1;stroke:none;stroke-width:1px;marker:none;visibility:visible;display:inline;overflow:visible;enable-background:accumulate;font-family:Sans;-inkscape-font-specification:Sans" />
    <path
       style="fill:#000000;stroke:#000000;stroke-width:0.16397245px;stroke-linecap:butt;stroke-linejoin:miter;stroke-opacity:1"
       d="m 166.62324,39.010544 c -0.0701,0.008 -0.10942,0.04897 -0.1076,0.143476 0.0117,0.604843 0.96367,1.121513 1.53211,2.428842 0.55894,1.285466 0.69801,2.809398 0.84037,2.972001 0.009,0.01017 0.0179,0.0019 0.0256,-0.02562 0.008,0.02753 0.0168,0.03578 0.0257,0.02562 0.14234,-0.162603 0.28142,-1.686535 0.84035,-2.972001 0.56844,-1.307329 1.52559,-1.823999 1.53724,-2.428842 -0.32476,-0.43968 -1.48281,0.608395 -2.40322,0.614897 -1.24814,-0.05292 -1.46604,-0.734365 -2.29049,-0.758373 z"
       id="path3350"
       inkscape:connector-curvature="0"
       sodipodi:nodetypes="csscccsccc" />
    <path
       style="fill:#fdea41;fill-opacity:1;stroke:#231f20;stroke-width:0.60000002;stroke-linecap:butt;stroke-linejoin:miter;stroke-miterlimit:4;stroke-opacity:1;stroke-dasharray:none"
       d="M 187.53125,62.9375 148.25,68.40625 c -1.75177,2.225811 -4.40852,4.049586 -5.40625,6.0625 l 51.875,0.15625 c -0.42224,-0.936556 -1.21143,-1.825776 -2.1154,-2.729482 -0.36488,-0.364779 -0.74846,-0.731919 -1.13416,-1.105485 -0.4107,-0.39779 -0.82381,-0.802867 -1.21928,-1.22014 -1.02734,-1.083981 -1.9357,-2.250267 -2.374,-3.584923 -0.12373,-0.376761 -0.50212,-0.851499 -0.25091,-1.17247 1.20114,-1.53469 -0.0882,-1.267131 -0.0937,-1.875 z"
       id="path3838"
       inkscape:connector-curvature="0"
       sodipodi:nodetypes="ccccssssscc" />
    <path
       style="fill:none;stroke:#000000;stroke-width:1px;stroke-linecap:butt;stroke-linejoin:miter;stroke-opacity:1"
       d="m 187.63961,62.711862 c 0,0 1.08819,1.310681 -0.0745,2.159345 -4.43563,3.237623 -28.965,4.31869 -28.965,4.31869"
       id="path3841"
       inkscape:connector-curvature="0"
       sodipodi:nodetypes="csc" />
    <path
       sodipodi:nodetypes="csc"
       inkscape:connector-curvature="0"
       id="path3847"
       d="m 187.63961,65.094587 c 0,0 1.08819,1.310682 -0.0745,2.159345 -1.12543,0.821464 -3.54441,1.131796 -6.52809,1.693166"
       style="fill:none;stroke:#000000;stroke-width:1px;stroke-linecap:butt;stroke-linejoin:miter;stroke-opacity:1" />
    <path
       style="fill:none;stroke:#000000;stroke-width:0.60000002;stroke-linecap:butt;stroke-linejoin:miter;stroke-miterlimit:4;stroke-opacity:1;stroke-dasharray:none"
       d="M 73.820225,73.923806 C 75.902678,68.27055 81.329752,66.546579 79.88764,57.182233"
       id="path3864"
       inkscape:connector-curvature="0"
       sodipodi:nodetypes="cc" />
    <path
       transform="matrix(1.032092,-0.23021705,0.2351778,0.93732551,-15.275409,23.204841)"
       style="fill:none;stroke:#000000;stroke-width:0.60000002;stroke-miterlimit:4"
       d="m 91.542712,57.271482 c -1.501667,0.87077 -3.259436,1.371423 -5.138217,1.371423 -5.522847,0 -10,-4.326237 -10,-9.662921 0,-3.597626 2.034656,-6.736052 5.052703,-8.399447"
       id="path3868"
       inkscape:connector-curvature="0"
       sodipodi:nodetypes="cssc" />
    <path
       sodipodi:nodetypes="cc"
       inkscape:connector-curvature="0"
       id="path3905"
       d="m 118.41928,73.923806 c -2.08245,-5.653256 -7.50953,-7.377227 -6.06742,-16.741573"
       style="fill:none;stroke:#000000;stroke-width:0.60000002;stroke-linecap:butt;stroke-linejoin:miter;stroke-miterlimit:4;stroke-opacity:1;stroke-dasharray:none" />
    <path
       sodipodi:nodetypes="cc"
       inkscape:connector-curvature="0"
       id="path3907"
       d="m 98.544706,42.818873 c -1.149078,1.116936 -1.993223,2.509286 -2.39289,4.102198"
       style="fill:none;stroke:#000000;stroke-width:0.60642999;stroke-miterlimit:4" />
    <path
       sodipodi:nodetypes="cc"
       inkscape:connector-curvature="0"
       id="path3909"
       d="m 93.76395,42.818873 c 1.14908,1.116936 1.993225,2.509286 2.392892,4.102198"
       style="fill:none;stroke:#000000;stroke-width:0.60642999;stroke-miterlimit:4" />
    <path
       style="fill:none;stroke:#000000;stroke-width:0.60642999;stroke-miterlimit:4"
       d="m 99.565427,55.812169 c 1.345073,1.161904 3.041513,2.035847 4.980593,2.468375 5.70008,1.271453 11.33835,-1.752922 12.59342,-6.755132 0.84608,-3.372147 -0.51578,-6.782286 -3.23949,-9.036234"
       id="path3911"
       inkscape:connector-curvature="0"
       sodipodi:nodetypes="cssc" />
    <path
       style="fill:none;stroke:#000000;stroke-width:0.60000002;stroke-miterlimit:4"
       d="m 93.822396,49.701053 0.772199,0.3861 3.217503,0 0.707852,-0.45045 m 0.06435,1.930501 -0.643502,-0.45045 -3.346203,0 -0.772199,0.3861"
       id="rect3913"
       inkscape:connector-curvature="0"
       sodipodi:nodetypes="cccccccc" />
    <path
       sodipodi:nodetypes="cccccccc"
       inkscape:connector-curvature="0"
       id="path3916"
       d="m 93.886746,52.146355 0.772199,0.3861 3.217503,0 0.707852,-0.45045 m 0.06435,1.0296 -0.643502,-0.45045 -3.346203,0 -0.772199,0.3861"
       style="fill:none;stroke:#000000;stroke-width:0.60000002;stroke-miterlimit:4" />
    <path
       sodipodi:nodetypes="cccccc"
       inkscape:connector-curvature="0"
       id="path3938"
       d="m 112.2823,62.697692 -34.776025,5.46875 c -1.75177,2.225811 -2.947142,3.840818 -3.944872,5.853732 l 44.864557,0.365018 c -0.0776,-3.875569 -4.61405,-5.676262 -6.14361,-11.6875 z"
       style="fill:#fdea41;fill-opacity:1;stroke:#231f20;stroke-width:0.60000002;stroke-linecap:butt;stroke-linejoin:miter;stroke-miterlimit:4;stroke-opacity:1;stroke-dasharray:none" />
    <path
       sodipodi:nodetypes="csc"
       inkscape:connector-curvature="0"
       id="path3940"
       d="m 112.39066,62.889591 c 0,0 1.08819,1.310681 -0.0745,2.159345 -4.43563,3.237623 -28.964994,4.31869 -28.964994,4.31869"
       style="fill:none;stroke:#000000;stroke-width:1px;stroke-linecap:butt;stroke-linejoin:miter;stroke-opacity:1" />
    <path
       style="fill:none;stroke:#000000;stroke-width:1px;stroke-linecap:butt;stroke-linejoin:miter;stroke-opacity:1"
       d="m 112.39066,65.272316 c 0,0 1.08819,1.310682 -0.0745,2.159345 -1.12543,0.821464 -3.54441,1.131796 -6.52809,1.693166"
       id="path3942"
       inkscape:connector-curvature="0"
       sodipodi:nodetypes="csc" />
  </g>
</svg>
