<?xml version="1.0" encoding="UTF-8" standalone="no"?>
<!-- Created with Inkscape (http://www.inkscape.org/) -->

<svg
   xmlns:dc="http://purl.org/dc/elements/1.1/"
   xmlns:cc="http://creativecommons.org/ns#"
   xmlns:rdf="http://www.w3.org/1999/02/22-rdf-syntax-ns#"
   xmlns:svg="http://www.w3.org/2000/svg"
   xmlns="http://www.w3.org/2000/svg"
   xmlns:xlink="http://www.w3.org/1999/xlink"
   xmlns:sodipodi="http://sodipodi.sourceforge.net/DTD/sodipodi-0.dtd"
   xmlns:inkscape="http://www.inkscape.org/namespaces/inkscape"
   width="125.96875"
   height="43.213669"
   id="svg2"
   version="1.1"
   inkscape:version="0.48.2 r9819"
   sodipodi:docname="thor.tlg.svg">
  <defs
     id="defs4">
    <linearGradient
       inkscape:collect="always"
       id="linearGradient4011">
      <stop
         style="stop-color:#ffffff;stop-opacity:1;"
         offset="0"
         id="stop4013" />
      <stop
         style="stop-color:#ffffff;stop-opacity:0;"
         offset="1"
         id="stop4015" />
    </linearGradient>
    <linearGradient
       inkscape:collect="always"
       id="linearGradient3997">
      <stop
         style="stop-color:#ffffff;stop-opacity:1;"
         offset="0"
         id="stop3999" />
      <stop
         style="stop-color:#ffffff;stop-opacity:0;"
         offset="1"
         id="stop4001" />
    </linearGradient>
    <inkscape:path-effect
       effect="skeletal"
       id="path-effect4237"
       is_visible="true"
       pattern="M 0,5 C 0,2.24 2.24,0 5,0 7.76,0 10,2.24 10,5 10,7.76 7.76,10 5,10 2.24,10 0,7.76 0,5 z"
       copytype="single_stretched"
       prop_scale="1"
       scale_y_rel="false"
       spacing="0"
       normal_offset="0"
       tang_offset="0"
       prop_units="false"
       vertical_pattern="false"
       fuse_tolerance="0" />
    <clipPath
       id="clipPath2999"
       clipPathUnits="userSpaceOnUse">
      <path
         id="path3001"
         d="M 0,792 612,792 612,0 0,0 0,792 z"
         inkscape:connector-curvature="0" />
    </clipPath>
    <radialGradient
       gradientUnits="userSpaceOnUse"
       gradientTransform="matrix(0.75988491,-0.03632001,0.13155835,2.7524547,16.986326,-78.268899)"
       r="12.650181"
       fy="46.658409"
       fx="96.306435"
       cy="46.658409"
       cx="96.306435"
       id="radialGradient3972"
       xlink:href="#linearGradient3966"
       inkscape:collect="always" />
    <clipPath
       clipPathUnits="userSpaceOnUse"
       id="clipPath2999-4">
      <path
         inkscape:connector-curvature="0"
         d="M 0,792 612,792 612,0 0,0 0,792 z"
         id="path3001-0" />
    </clipPath>
    <linearGradient
       id="linearGradient3966">
      <stop
         id="stop3968"
         offset="0"
         style="stop-color:#c0ac02;stop-opacity:1;" />
      <stop
         id="stop3970"
         offset="1"
         style="stop-color:#fdea41;stop-opacity:0;" />
    </linearGradient>
    <radialGradient
       inkscape:collect="always"
       xlink:href="#linearGradient3997"
       id="radialGradient4003"
       cx="165.81134"
       cy="47.693741"
       fx="165.81134"
       fy="47.693741"
       r="3.8123069"
       gradientTransform="matrix(0.64374811,-0.18781617,0.31213841,1.069868,43.640483,27.15595)"
       gradientUnits="userSpaceOnUse" />
    <radialGradient
       inkscape:collect="always"
       xlink:href="#linearGradient3997"
       id="radialGradient4007"
       gradientUnits="userSpaceOnUse"
       gradientTransform="matrix(-0.64374811,-0.18781617,-0.31213841,1.069868,293.73143,27.15595)"
       cx="165.81134"
       cy="47.693741"
       fx="165.81134"
       fy="47.693741"
       r="3.8123069" />
    <radialGradient
       inkscape:collect="always"
       xlink:href="#linearGradient4011"
       id="radialGradient4017"
       cx="169.32254"
       cy="41.784931"
       fx="169.32254"
       fy="41.784931"
       r="6.982676"
       gradientTransform="matrix(0.31036379,-0.01814613,0.03701409,0.63307367,114.75293,21.468668)"
       gradientUnits="userSpaceOnUse" />
    <linearGradient
       id="linearGradient3966-2">
      <stop
         style="stop-color:#c0ac02;stop-opacity:1;"
         offset="0"
         id="stop3968-4" />
      <stop
         style="stop-color:#fdea41;stop-opacity:0;"
         offset="1"
         id="stop3970-5" />
    </linearGradient>
    <clipPath
       id="clipPath2999-4-8"
       clipPathUnits="userSpaceOnUse">
      <path
         id="path3001-0-8"
         d="M 0,792 612,792 612,0 0,0 0,792 z"
         inkscape:connector-curvature="0" />
    </clipPath>
    <radialGradient
       inkscape:collect="always"
       xlink:href="#linearGradient3966-2"
       id="radialGradient3972-4"
       cx="96.306435"
       cy="46.658409"
       fx="96.306435"
       fy="46.658409"
       r="12.650181"
       gradientTransform="matrix(0.75988491,-0.03632001,0.13155835,2.7524547,16.986326,-78.268899)"
       gradientUnits="userSpaceOnUse" />
    <clipPath
       clipPathUnits="userSpaceOnUse"
       id="clipPath2999-0">
      <path
         inkscape:connector-curvature="0"
         d="M 0,792 612,792 612,0 0,0 0,792 z"
         id="path3001-9" />
    </clipPath>
    <inkscape:path-effect
       fuse_tolerance="0"
       vertical_pattern="false"
       prop_units="false"
       tang_offset="0"
       normal_offset="0"
       spacing="0"
       scale_y_rel="false"
       prop_scale="1"
       copytype="single_stretched"
       pattern="M 0,5 C 0,2.24 2.24,0 5,0 7.76,0 10,2.24 10,5 10,7.76 7.76,10 5,10 2.24,10 0,7.76 0,5 z"
       is_visible="true"
       id="path-effect4237-4"
       effect="skeletal" />
    <mask
       maskUnits="userSpaceOnUse"
       id="mask4103">
      <path
         inkscape:connector-curvature="0"
         d="m 361.13813,452.9203 c 8.7325,-47.29375 5.3425,-42.67875 14.2675,-42.85625 l 23.44,0 c 8.92625,0.1775 5.535,-4.4375 14.265,42.85625 l -51.9725,0 z"
         style="fill:#ffffff;fill-opacity:1;stroke:#231f20;stroke-width:0.3125;stroke-linecap:butt;stroke-linejoin:miter;stroke-miterlimit:4;stroke-opacity:1;stroke-dasharray:none"
         id="path4105" />
    </mask>
    <mask
       maskUnits="userSpaceOnUse"
       id="mask4107">
      <path
         inkscape:connector-curvature="0"
         d="m 142.96875,74.54469 c 8.7325,-47.29375 5.3425,-42.67875 14.2675,-42.85625 l 23.44,0 c 8.92625,0.1775 5.535,-4.4375 14.265,42.85625 l -51.9725,0 z"
         style="fill:#ffffff;fill-opacity:1;stroke:#231f20;stroke-width:0.3125;stroke-linecap:butt;stroke-linejoin:miter;stroke-miterlimit:4;stroke-opacity:1;stroke-dasharray:none;display:inline"
         id="path4109" />
    </mask>
    <mask
       maskUnits="userSpaceOnUse"
       id="mask4412">
      <path
         inkscape:connector-curvature="0"
         d="m 69.76499,74.54469 c 8.7325,-47.29375 5.3425,-42.67875 14.2675,-42.85625 l 23.44,0 c 8.92625,0.1775 5.535,-4.4375 14.265,42.85625 l -51.9725,0 z"
         style="fill:#ffffff;fill-opacity:1;stroke:#231f20;stroke-width:0.3125;stroke-linecap:butt;stroke-linejoin:miter;stroke-miterlimit:4;stroke-opacity:1;stroke-dasharray:none;display:inline"
         id="path4414" />
    </mask>
    <mask
       maskUnits="userSpaceOnUse"
       id="mask4428">
      <path
         id="path4430"
         style="fill:#ffffff;fill-opacity:1;stroke:#231f20;stroke-width:0.3125;stroke-linecap:butt;stroke-linejoin:miter;stroke-miterlimit:4;stroke-opacity:1;stroke-dasharray:none;display:inline"
         d="m 70.270115,74.54469 c 8.7325,-47.29375 5.3425,-42.67875 14.2675,-42.85625 l 23.439995,0 c 8.92625,0.1775 5.535,-4.4375 14.265,42.85625 l -51.972495,0 z"
         inkscape:connector-curvature="0" />
    </mask>
  </defs>
  <sodipodi:namedview
     id="base"
     pagecolor="#ffffff"
     bordercolor="#666666"
     borderopacity="1.0"
     inkscape:pageopacity="0.0"
     inkscape:pageshadow="2"
     inkscape:zoom="1.6448111"
     inkscape:cx="39.655273"
     inkscape:cy="33.514321"
     inkscape:document-units="px"
     inkscape:current-layer="layer1"
     showgrid="false"
     fit-margin-top="0"
     fit-margin-left="0"
     fit-margin-right="0"
     fit-margin-bottom="0"
     inkscape:window-width="1600"
     inkscape:window-height="848"
     inkscape:window-x="-8"
     inkscape:window-y="-8"
     inkscape:window-maximized="1"
     showguides="true"
     inkscape:guide-bbox="true"
     inkscape:snap-global="false">
    <sodipodi:guide
       orientation="0,1"
       position="84.875075,21.517799"
       id="guide3274" />
    <sodipodi:guide
       orientation="1,0"
       position="99.72534,26.634501"
       id="guide3960" />
  </sodipodi:namedview>
  <metadata
     id="metadata7">
    <rdf:RDF>
      <cc:Work
         rdf:about="">
        <dc:format>image/svg+xml</dc:format>
        <dc:type
           rdf:resource="http://purl.org/dc/dcmitype/StillImage" />
        <dc:title></dc:title>
      </cc:Work>
    </rdf:RDF>
  </metadata>
  <g
     inkscape:groupmode="layer"
     id="layer7"
     inkscape:label="back"
     style="display:inline"
     transform="translate(-69.174375,-31.473222)"
     sodipodi:insensitive="true">
    <g
       inkscape:groupmode="layer"
       id="layer8"
       inkscape:label="belt#1">
      <path
         transform="translate(-218.16938,-378.37561)"
         id="path4432"
         style="fill:#0d69ab;fill-opacity:1;stroke:#231f20;stroke-width:0.3125;stroke-linecap:butt;stroke-linejoin:miter;stroke-miterlimit:4;stroke-opacity:1;stroke-dasharray:none;display:inline"
         d="m 287.54407,452.9203 c 8.7325,-47.29375 5.3425,-42.67875 14.2675,-42.85625 l 23.44,0 c 8.92625,0.1775 5.535,-4.4375 14.265,42.85625 l -51.9725,0 z"
         inkscape:connector-curvature="0" />
      <g
         id="g4416"
         transform="translate(-0.895425,0)"
         mask="url(#mask4428)">
        <rect
           ry="0.74133807"
           y="65.251236"
           x="79.744583"
           height="7.1700172"
           width="32.265076"
           id="rect4165"
           style="fill:#6d6e6c;fill-opacity:1;stroke:#1b2a34;stroke-width:0.625;stroke-linecap:round;stroke-linejoin:round;stroke-miterlimit:4;stroke-opacity:1;stroke-dasharray:none;stroke-dashoffset:0" />
        <rect
           style="fill:#6d6e6c;fill-opacity:1;stroke:#1b2a34;stroke-width:0.625;stroke-linecap:round;stroke-linejoin:round;stroke-miterlimit:4;stroke-opacity:1;stroke-dasharray:none;stroke-dashoffset:0"
           id="rect4167"
           width="32.265076"
           height="2.4483004"
           x="79.744583"
           y="69.972954"
           ry="0.74133807" />
        <g
           style="fill:#6d6e6c;fill-opacity:1"
           id="g4152">
          <g
             style="fill:#6d6e6c;fill-opacity:1"
             id="g4145">
            <path
               sodipodi:nodetypes="ccccccccccc"
               inkscape:connector-curvature="0"
               id="path4136"
               d="m 72.312246,61.22903 c 2.011103,1.923663 2.448299,2.448299 2.448299,2.448299 l 7.782092,0 3.915091,6.781136 0,2.837179 -11.697183,0 -1.18043,1.18043 -4.153363,0 -1.13671,-0.04372 1.13671,-13.378203 z"
               style="fill:#6d6e6c;fill-opacity:1;stroke:#1b2a34;stroke-width:0.625;stroke-linecap:butt;stroke-linejoin:miter;stroke-miterlimit:4;stroke-opacity:1;stroke-dasharray:none" />
          </g>
          <path
             inkscape:connector-curvature="0"
             style="fill:#6d6e6c;fill-opacity:1;stroke:#1b2a34;stroke-width:0.625;stroke-linecap:butt;stroke-linejoin:miter;stroke-miterlimit:4;stroke-opacity:1;stroke-dasharray:none"
             d="m 68.8125,68.125 -0.53125,6.3125 1.15625,0.03125 4.15625,0 1.15625,-1.1875 8.21875,0 L 80,68.125 l -11.1875,0 z"
             id="path4138" />
        </g>
        <g
           style="fill:#6d6e6c;fill-opacity:1"
           transform="matrix(-1,0,0,1,192.51273,0)"
           id="g4157">
          <g
             style="fill:#6d6e6c;fill-opacity:1"
             id="g4159">
            <path
               style="fill:#6d6e6c;fill-opacity:1;stroke:#1b2a34;stroke-width:0.625;stroke-linecap:butt;stroke-linejoin:miter;stroke-miterlimit:4;stroke-opacity:1;stroke-dasharray:none"
               d="m 72.312246,61.22903 c 2.011103,1.923663 2.448299,2.448299 2.448299,2.448299 l 7.782092,0 3.915091,6.781136 0,2.837179 -11.697183,0 -1.18043,1.18043 -4.153363,0 -1.13671,-0.04372 1.13671,-13.378203 z"
               id="path4161"
               inkscape:connector-curvature="0"
               sodipodi:nodetypes="ccccccccccc" />
          </g>
          <path
             inkscape:connector-curvature="0"
             id="path4163"
             d="m 68.8125,68.125 -0.53125,6.3125 1.15625,0.03125 4.15625,0 1.15625,-1.1875 8.21875,0 L 80,68.125 l -11.1875,0 z"
             style="fill:#6d6e6c;fill-opacity:1;stroke:#1b2a34;stroke-width:0.625;stroke-linecap:butt;stroke-linejoin:miter;stroke-miterlimit:4;stroke-opacity:1;stroke-dasharray:none" />
        </g>
      </g>
      <g
         id="g4380"
         transform="translate(-0.3903,0)"
         mask="url(#mask4412)">
        <g
           transform="matrix(-1,0,0,1,191.50248,0)"
           id="g4370">
          <path
             sodipodi:nodetypes="ccccc"
             inkscape:connector-curvature="0"
             id="path4372"
             d="m 99.068652,48.200584 c 5.231058,5.308198 10.537818,8.723759 16.001378,8.219288 L 114.37052,50.9112 101.69183,46.102043 z"
             style="fill:#6e99c9;fill-opacity:1;stroke:#1b2a34;stroke-width:1px;stroke-linecap:butt;stroke-linejoin:miter;stroke-opacity:1" />
          <path
             sodipodi:nodetypes="cccccccc"
             inkscape:connector-curvature="0"
             id="path4374"
             d="M 121.27822,60.879273 C 110.53178,52.795375 101.80072,48.35776 97.757064,48.550341 l 2.972936,-8.831363 4.72172,-1.224149 7.43233,5.333793 -0.26232,2.36086 9.44344,6.82026 z"
             style="fill:#6e99c9;fill-opacity:1;stroke:#1b2a34;stroke-width:1px;stroke-linecap:butt;stroke-linejoin:miter;stroke-opacity:1" />
          <path
             sodipodi:nodetypes="ccccccccc"
             inkscape:connector-curvature="0"
             id="path4376"
             d="m 115.64363,37.714566 -8.20552,23.066684 -0.0625,0.1875 0,0.1875 0,8.375 2.99939,0 0,-8.21875 7.09375,-19.9375 z"
             style="font-size:medium;font-style:normal;font-variant:normal;font-weight:normal;font-stretch:normal;text-indent:0;text-align:start;text-decoration:none;line-height:normal;letter-spacing:normal;word-spacing:normal;text-transform:none;direction:ltr;block-progression:tb;writing-mode:lr-tb;text-anchor:start;baseline-shift:baseline;color:#000000;fill:#c4281b;fill-opacity:1;stroke:#1b2a34;stroke-width:0.625;stroke-miterlimit:4;stroke-dasharray:none;marker:none;visibility:visible;display:inline;overflow:visible;enable-background:accumulate;font-family:Sans;-inkscape-font-specification:Sans" />
          <path
             inkscape:connector-curvature="0"
             id="path4378"
             d="m 112.15625,22.96875 c -6.17079,0 -11.1875,4.590171 -11.1875,10.25 0,4.890881 3.72182,8.978759 8.71875,10 l -2.84375,8.625 1.09375,4.03125 2.5,0 3.625,-10.3125 c 1.14478,-1.059919 2.12605,-2.242851 3.21875,-3.25 3.58575,-1.70596 6.03125,-5.13291 6.03125,-9.09375 0,-5.659829 -4.98546,-10.25 -11.15625,-10.25 z"
             style="fill:#6e99c9;fill-opacity:1;stroke:#1b2a34;stroke-width:0.625;stroke-linecap:butt;stroke-linejoin:miter;stroke-miterlimit:4;stroke-opacity:1;stroke-dasharray:none" />
        </g>
        <g
           id="g4364">
          <path
             style="fill:#6e99c9;fill-opacity:1;stroke:#1b2a34;stroke-width:1px;stroke-linecap:butt;stroke-linejoin:miter;stroke-opacity:1"
             d="m 99.068652,48.200584 c 5.231058,5.308198 10.537818,8.723759 16.001378,8.219288 L 114.37052,50.9112 101.69183,46.102043 z"
             id="path4341"
             inkscape:connector-curvature="0"
             sodipodi:nodetypes="ccccc" />
          <path
             style="fill:#6e99c9;fill-opacity:1;stroke:#1b2a34;stroke-width:1px;stroke-linecap:butt;stroke-linejoin:miter;stroke-opacity:1"
             d="M 121.27822,60.879273 C 110.53178,52.795375 101.80072,48.35776 97.757064,48.550341 l 2.972936,-8.831363 4.72172,-1.224149 7.43233,5.333793 -0.26232,2.36086 9.44344,6.82026 z"
             id="path4339"
             inkscape:connector-curvature="0"
             sodipodi:nodetypes="cccccccc" />
          <path
             style="font-size:medium;font-style:normal;font-variant:normal;font-weight:normal;font-stretch:normal;text-indent:0;text-align:start;text-decoration:none;line-height:normal;letter-spacing:normal;word-spacing:normal;text-transform:none;direction:ltr;block-progression:tb;writing-mode:lr-tb;text-anchor:start;baseline-shift:baseline;color:#000000;fill:#c4281b;fill-opacity:1;stroke:#1b2a34;stroke-width:0.625;stroke-miterlimit:4;stroke-dasharray:none;marker:none;visibility:visible;display:inline;overflow:visible;enable-background:accumulate;font-family:Sans;-inkscape-font-specification:Sans"
             d="m 115.64363,37.714566 -8.20552,23.066684 -0.0625,0.1875 0,0.1875 0,8.375 2.99939,0 0,-8.21875 7.09375,-19.9375 z"
             id="path4247"
             inkscape:connector-curvature="0"
             sodipodi:nodetypes="ccccccccc" />
          <path
             style="fill:#6e99c9;fill-opacity:1;stroke:#1b2a34;stroke-width:0.625;stroke-linecap:butt;stroke-linejoin:miter;stroke-miterlimit:4;stroke-opacity:1;stroke-dasharray:none"
             d="m 112.15625,22.96875 c -6.17079,0 -11.1875,4.590171 -11.1875,10.25 0,4.890881 3.72182,8.978759 8.71875,10 l -2.84375,8.625 1.09375,4.03125 2.5,0 3.625,-10.3125 c 1.14478,-1.059919 2.12605,-2.242851 3.21875,-3.25 3.58575,-1.70596 6.03125,-5.13291 6.03125,-9.09375 0,-5.659829 -4.98546,-10.25 -11.15625,-10.25 z"
             id="path4253"
             inkscape:connector-curvature="0" />
        </g>
        <path
           sodipodi:type="arc"
           style="fill:#6d6e6c;fill-opacity:1;stroke:#1b2a34;stroke-width:0.30400786;stroke-linecap:round;stroke-linejoin:round;stroke-miterlimit:4;stroke-opacity:1;stroke-dasharray:none;stroke-dashoffset:0;display:inline"
           id="path4322"
           sodipodi:cx="181.82458"
           sodipodi:cy="68.92688"
           sodipodi:rx="3.9353745"
           sodipodi:ry="3.9353745"
           d="m 185.75996,68.92688 c 0,2.173447 -1.76193,3.935374 -3.93538,3.935374 -2.17344,0 -3.93537,-1.761927 -3.93537,-3.935374 0,-2.173447 1.76193,-3.935375 3.93537,-3.935375 2.17345,0 3.93538,1.761928 3.93538,3.935375 z"
           transform="matrix(-2.1466632,0,0,1.9689129,502.45697,-102.50627)" />
        <path
           transform="matrix(2.1466632,0,0,1.9689129,-310.87757,-102.50627)"
           d="m 185.75996,68.92688 c 0,2.173447 -1.76193,3.935374 -3.93538,3.935374 -2.17344,0 -3.93537,-1.761927 -3.93537,-3.935374 0,-2.173447 1.76193,-3.935375 3.93537,-3.935375 2.17345,0 3.93538,1.761928 3.93538,3.935375 z"
           sodipodi:ry="3.9353745"
           sodipodi:rx="3.9353745"
           sodipodi:cy="68.92688"
           sodipodi:cx="181.82458"
           id="path4335"
           style="fill:#6d6e6c;fill-opacity:1;stroke:#1b2a34;stroke-width:0.30400786;stroke-linecap:round;stroke-linejoin:round;stroke-miterlimit:4;stroke-opacity:1;stroke-dasharray:none;stroke-dashoffset:0;display:inline"
           sodipodi:type="arc" />
        <g
           id="g4352">
          <path
             inkscape:connector-curvature="0"
             style="fill:#635f61;stroke:#1b2a34;stroke-width:0.625;stroke-linecap:butt;stroke-linejoin:miter;stroke-miterlimit:4;stroke-opacity:1;stroke-dasharray:none"
             d="m 82.1875,32.625 -4.78125,3.96875 14.65625,3.9375 2.375,8.8125 1.40625,0 0.15625,0 1.40625,0 2.375,-8.8125 14.6875,-3.9375 -4.8125,-3.96875 -13.71875,2.71875 -13.75,-2.71875 z m 13.75,4.6875 1.65625,2.5 L 95.9375,45.5 94.25,39.8125 l 1.6875,-2.5 z"
             id="path4343" />
          <path
             style="fill:none;stroke:#1b2a34;stroke-width:0.5;stroke-linecap:butt;stroke-linejoin:miter;stroke-miterlimit:4;stroke-opacity:1;stroke-dasharray:none"
             d="M 94.521812,39.456661 81.519431,35.972683"
             id="path4345"
             inkscape:connector-curvature="0" />
          <path
             inkscape:connector-curvature="0"
             id="path4350"
             d="M 98.132885,39.456661 111.13527,35.972683"
             style="fill:none;stroke:#1b2a34;stroke-width:0.5;stroke-linecap:butt;stroke-linejoin:miter;stroke-miterlimit:4;stroke-opacity:1;stroke-dasharray:none" />
        </g>
        <path
           sodipodi:type="arc"
           style="fill:#a3a2a4;fill-opacity:1;stroke:#1b2a34;stroke-width:0.48314968;stroke-linecap:round;stroke-linejoin:round;stroke-miterlimit:4;stroke-opacity:1;stroke-dasharray:none;stroke-dashoffset:0;display:inline"
           id="path4337"
           sodipodi:cx="181.82458"
           sodipodi:cy="68.92688"
           sodipodi:rx="3.9353745"
           sodipodi:ry="3.9353745"
           d="m 185.75996,68.92688 c 0,2.173447 -1.76193,3.935374 -3.93538,3.935374 -2.17344,0 -3.93537,-1.761927 -3.93537,-3.935374 0,-2.173447 1.76193,-3.935375 3.93537,-3.935375 2.17345,0 3.93538,1.761928 3.93538,3.935375 z"
           transform="matrix(1.293595,0,0,1.293595,-154.76324,-56.264749)" />
        <path
           transform="matrix(-1.293595,0,0,1.293595,346.34264,-56.264749)"
           d="m 185.75996,68.92688 c 0,2.173447 -1.76193,3.935374 -3.93538,3.935374 -2.17344,0 -3.93537,-1.761927 -3.93537,-3.935374 0,-2.173447 1.76193,-3.935375 3.93537,-3.935375 2.17345,0 3.93538,1.761928 3.93538,3.935375 z"
           sodipodi:ry="3.9353745"
           sodipodi:rx="3.9353745"
           sodipodi:cy="68.92688"
           sodipodi:cx="181.82458"
           id="path3900-1"
           style="fill:#a3a2a4;fill-opacity:1;stroke:#1b2a34;stroke-width:0.48314968;stroke-linecap:round;stroke-linejoin:round;stroke-miterlimit:4;stroke-opacity:1;stroke-dasharray:none;stroke-dashoffset:0;display:inline"
           sodipodi:type="arc" />
        <path
           inkscape:transform-center-y="1.0967544"
           inkscape:transform-center-x="-0.68833905"
           inkscape:connector-curvature="0"
           id="path3902-7"
           d="m 108.79292,35.379761 c 0.18704,0.110706 0.36563,0.225809 0.57563,0.305815 1.99102,0.758496 4.23522,-0.216183 4.99372,-2.207186 0.16751,-0.439681 0.25834,-0.926261 0.26265,-1.370745 0.15327,0.654086 0.13302,1.354107 -0.12418,2.029137 -0.68576,1.80009 -2.70072,2.734656 -4.50082,2.048888 -0.46793,-0.178263 -0.87247,-0.475109 -1.20704,-0.805909 z"
           style="fill:#1b2a34;fill-opacity:1;stroke:#1b2a34;stroke-width:0.16169937;stroke-linecap:round;stroke-linejoin:round;stroke-miterlimit:4;stroke-opacity:1;stroke-dasharray:none;stroke-dashoffset:0;display:inline" />
        <path
           style="fill:#1b2a34;fill-opacity:1;stroke:#1b2a34;stroke-width:0.16169937;stroke-linecap:round;stroke-linejoin:round;stroke-miterlimit:4;stroke-opacity:1;stroke-dasharray:none;stroke-dashoffset:0;display:inline"
           d="m 78.189188,35.379761 c 0.18704,0.110706 0.36563,0.225809 0.57563,0.305815 1.99102,0.758496 4.23522,-0.216183 4.99372,-2.207186 0.16751,-0.439681 0.25834,-0.926261 0.26265,-1.370745 0.15327,0.654086 0.13302,1.354107 -0.12418,2.029137 -0.68576,1.80009 -2.70072,2.734656 -4.50082,2.048888 -0.46793,-0.178263 -0.87247,-0.475109 -1.20704,-0.805909 z"
           id="path4320"
           inkscape:connector-curvature="0"
           inkscape:transform-center-x="-0.68833905"
           inkscape:transform-center-y="1.0967544" />
      </g>
    </g>
  </g>
  <g
     inkscape:groupmode="layer"
     id="layer3"
     inkscape:label="thor"
     style="display:inline"
     transform="translate(-69.174375,-31.473222)">
    <g
       inkscape:groupmode="layer"
       id="layer6"
       inkscape:label="bg"
       sodipodi:insensitive="true">
      <path
         transform="translate(-218.16938,-378.37561)"
         inkscape:connector-curvature="0"
         d="m 361.13813,452.9203 c 8.7325,-47.29375 5.3425,-42.67875 14.2675,-42.85625 l 23.44,0 c 8.92625,0.1775 5.535,-4.4375 14.265,42.85625 l -51.9725,0 z"
         style="fill:#0d69ab;stroke:#231f20;stroke-width:0.3125;stroke-linecap:butt;stroke-linejoin:miter;stroke-miterlimit:4;stroke-opacity:1;stroke-dasharray:none;display:inline"
         id="path4114" />
    </g>
    <g
       inkscape:groupmode="layer"
       id="layer5"
       inkscape:label="vest"
       style="display:inline"
       sodipodi:insensitive="true">
      <g
         id="g4008"
         mask="url(#mask4107)">
        <path
           style="fill:#c4281b;stroke:#1b2a34;stroke-width:0.5;stroke-linecap:butt;stroke-linejoin:miter;stroke-miterlimit:4;stroke-opacity:1;stroke-dasharray:none"
           d="m 156.362,71.814374 -10.05518,-28.060978 4.98862,-7.327033 10.05518,34.530592 z"
           id="path4006"
           inkscape:connector-curvature="0"
           sodipodi:nodetypes="ccccc" />
        <path
           sodipodi:nodetypes="ccccc"
           inkscape:connector-curvature="0"
           id="path4004"
           d="M 181.53894,71.814374 191.59412,43.753396 186.6055,36.426363 176.55032,70.956955 z"
           style="fill:#c4281b;stroke:#1b2a34;stroke-width:0.5;stroke-linecap:butt;stroke-linejoin:miter;stroke-miterlimit:4;stroke-opacity:1;stroke-dasharray:none" />
        <g
           transform="matrix(-1,0,0,1,337.99265,0)"
           id="g3996">
          <path
             inkscape:connector-curvature="0"
             id="path3998"
             d="m 194.63406,60.66793 -7.48293,-6.235773 2.8061,-5.300407 1.16921,0.779472 z"
             style="fill:#6e99c9;fill-opacity:1;stroke:#1b2a34;stroke-width:0.5;stroke-linecap:butt;stroke-linejoin:miter;stroke-miterlimit:4;stroke-opacity:1;stroke-dasharray:none" />
          <path
             inkscape:connector-curvature="0"
             id="path4000"
             d="m 186.5625,41.4375 -2.53125,6.59375 5.34375,4.75 c 0.82873,-1.255489 1.3125,-2.758095 1.3125,-4.375 0,-2.995686 -1.67449,-5.607862 -4.125,-6.96875 z"
             style="fill:#6e99c9;fill-opacity:1;stroke:#1b2a34;stroke-width:0.625;stroke-linecap:round;stroke-linejoin:round;stroke-miterlimit:4;stroke-opacity:1;stroke-dasharray:none;stroke-dashoffset:0" />
          <path
             inkscape:connector-curvature="0"
             id="path4002"
             d="m 182.71875,38.5 c -5.47034,0 -9.90625,4.43591 -9.90625,9.90625 0,0.170261 0.0227,0.331885 0.0312,0.5 l -0.0312,0 0.0312,0.15625 c 0.0337,0.507917 0.11106,1.016175 0.21875,1.5 0.0253,0.11352 0.0334,0.231748 0.0625,0.34375 l 0.625,4.3125 2.875,2.5 -1.78125,5.4375 -3.8125,1.8125 -0.5625,6.9375 6.5625,0.6875 6.4688,-16.21875 0,-0.03125 c 2.45333,-0.240433 4.58653,-1.610538 5.875,-3.5625 l -5.34375,-4.75 2.53125,-6.59375 0.71875,-1.8125 c -1.36822,-0.713577 -2.91257,-1.125 -4.5625,-1.125 z"
             style="fill:#6e99c9;fill-opacity:1;stroke:#1b2a34;stroke-width:0.625;stroke-linecap:round;stroke-linejoin:round;stroke-miterlimit:4;stroke-opacity:1;stroke-dasharray:none;stroke-dashoffset:0" />
        </g>
        <g
           id="g3991">
          <path
             style="fill:#6e99c9;fill-opacity:1;stroke:#1b2a34;stroke-width:0.5;stroke-linecap:butt;stroke-linejoin:miter;stroke-miterlimit:4;stroke-opacity:1;stroke-dasharray:none"
             d="m 194.63406,60.66793 -7.48293,-6.235773 2.8061,-5.300407 1.16921,0.779472 z"
             id="path3989"
             inkscape:connector-curvature="0" />
          <path
             style="fill:#6e99c9;fill-opacity:1;stroke:#1b2a34;stroke-width:0.625;stroke-linecap:round;stroke-linejoin:round;stroke-miterlimit:4;stroke-opacity:1;stroke-dasharray:none;stroke-dashoffset:0"
             d="m 186.5625,41.4375 -2.53125,6.59375 5.34375,4.75 c 0.82873,-1.255489 1.3125,-2.758095 1.3125,-4.375 0,-2.995686 -1.67449,-5.607862 -4.125,-6.96875 z"
             id="path3972"
             inkscape:connector-curvature="0" />
          <path
             style="fill:#6e99c9;fill-opacity:1;stroke:#1b2a34;stroke-width:0.625;stroke-linecap:round;stroke-linejoin:round;stroke-miterlimit:4;stroke-opacity:1;stroke-dasharray:none;stroke-dashoffset:0"
             d="m 182.71875,38.5 c -5.47034,0 -9.90625,4.43591 -9.90625,9.90625 0,0.170261 0.0227,0.331885 0.0312,0.5 l -0.0312,0 0.0312,0.15625 c 0.0337,0.507917 0.11106,1.016175 0.21875,1.5 0.0253,0.11352 0.0334,0.231748 0.0625,0.34375 l 0.625,4.3125 2.875,2.5 -1.78125,5.4375 -3.8125,1.8125 -0.5625,6.9375 6.5625,0.6875 6.4688,-16.21875 0,-0.03125 c 2.45333,-0.240433 4.58653,-1.610538 5.875,-3.5625 l -5.34375,-4.75 2.53125,-6.59375 0.71875,-1.8125 c -1.36822,-0.713577 -2.91257,-1.125 -4.5625,-1.125 z"
             id="path3958"
             inkscape:connector-curvature="0" />
        </g>
        <g
           id="g3936"
           transform="matrix(2.3572872,0,0,2.3572872,-217.05177,-130.27588)"
           style="fill:#635f61;stroke-width:0.26513529;stroke-miterlimit:4;stroke-dasharray:none">
          <path
             transform="matrix(-1,0,0,1,338.12246,-0.56750488)"
             d="m 185.75996,68.92688 c 0,2.173447 -1.76193,3.935374 -3.93538,3.935374 -2.17344,0 -3.93537,-1.761927 -3.93537,-3.935374 0,-2.173447 1.76193,-3.935375 3.93537,-3.935375 2.17345,0 3.93538,1.761928 3.93538,3.935375 z"
             sodipodi:ry="3.9353745"
             sodipodi:rx="3.9353745"
             sodipodi:cy="68.92688"
             sodipodi:cx="181.82458"
             id="path3938"
             style="fill:#635f61;fill-opacity:1;stroke:#1b2a34;stroke-width:0.26513529;stroke-linecap:round;stroke-linejoin:round;stroke-miterlimit:4;stroke-opacity:1;stroke-dasharray:none;stroke-dashoffset:0"
             sodipodi:type="arc" />
        </g>
        <g
           style="fill:#635f61;stroke-width:0.26513529;stroke-miterlimit:4;stroke-dasharray:none"
           transform="matrix(2.3572872,0,0,2.3572872,-182.91091,-130.27588)"
           id="g3930">
          <path
             sodipodi:type="arc"
             style="fill:#635f61;fill-opacity:1;stroke:#1b2a34;stroke-width:0.26513529;stroke-linecap:round;stroke-linejoin:round;stroke-miterlimit:4;stroke-opacity:1;stroke-dasharray:none;stroke-dashoffset:0"
             id="path3932"
             sodipodi:cx="181.82458"
             sodipodi:cy="68.92688"
             sodipodi:rx="3.9353745"
             sodipodi:ry="3.9353745"
             d="m 185.75996,68.92688 c 0,2.173447 -1.76193,3.935374 -3.93538,3.935374 -2.17344,0 -3.93537,-1.761927 -3.93537,-3.935374 0,-2.173447 1.76193,-3.935375 3.93537,-3.935375 2.17345,0 3.93538,1.761928 3.93538,3.935375 z"
             transform="matrix(-1,0,0,1,338.12246,-0.56750488)" />
        </g>
        <path
           sodipodi:nodetypes="ccccccccccccccccccc"
           inkscape:connector-curvature="0"
           style="fill:#1b2a34;fill-opacity:1;stroke:#1b2a34;stroke-width:1.125;stroke-miterlimit:4;stroke-dasharray:none"
           d="m 177.09375,31.53125 -4.90625,0.125 -3.5,2.125 0,4.0625 3.5625,3.8125 -3.40625,7.9375 0,4.21875 c 0.57161,1.797667 1.14714,1.911634 1.71875,2.5625 l -1.71875,7.03125 0,12.3125 3.5625,0 c -0.97909,-5.790582 -1.04238,-12.180132 5.15625,-22.6875 -6.38194,-5.829545 2.59752,-14.040159 6,-21.375 z m -0.45401,0.45437 -3.35849,6.76438 -1.5625,-2.09375 0,-2.03125 z"
           id="path3869" />
        <path
           id="path3882"
           d="m 160.11245,31.49984 4.90625,0.125 3.5,2.125 0,4.0625 -3.5625,3.8125 3.40625,7.9375 0,4.21875 c -0.57161,1.797667 -1.14714,1.911634 -1.71875,2.5625 l 1.71875,7.03125 0,12.3125 -3.5625,0 c 0.97909,-5.790582 1.04238,-12.180132 -5.15625,-22.6875 6.38194,-5.829545 -2.59752,-14.040159 -6,-21.375 z m 0.45401,0.45437 3.35849,6.76438 1.5625,-2.09375 0,-2.03125 z"
           style="fill:#1b2a34;fill-opacity:1;stroke:#1b2a34;stroke-width:1.125;stroke-miterlimit:4;stroke-dasharray:none"
           inkscape:connector-curvature="0"
           sodipodi:nodetypes="ccccccccccccccccccc" />
        <path
           style="fill:#4f5f6f;fill-opacity:1;stroke:none"
           d="m 160.11245,31.49984 4.90625,0.125 3.5,2.125 0,4.0625 -3.5625,3.8125 3.40625,7.9375 0,4.21875 c -0.57161,1.797667 -1.14714,1.911634 -1.71875,2.5625 l 1.71875,7.03125 0,12.3125 -3.5625,0 c 0.97909,-5.790582 1.04238,-12.180132 -5.15625,-22.6875 6.38194,-5.829545 -2.59752,-14.040159 -6,-21.375 z m 0.22017,0.45437 3.59233,6.76438 1.5625,-2.09375 0,-2.03125 z"
           id="path3884"
           inkscape:connector-curvature="0"
           sodipodi:nodetypes="ccccccccccccccccccc" />
        <path
           style="fill:none;stroke:#000000;stroke-width:0.5;stroke-linecap:butt;stroke-linejoin:miter;stroke-miterlimit:4;stroke-opacity:1;stroke-dasharray:none"
           d="m 155.66874,31.562229 c 7.10385,10.496758 11.16922,18.21555 6.70346,22.214941 4.55424,9.732306 6.40962,17.054911 5.14451,21.591363"
           id="path3886"
           inkscape:connector-curvature="0"
           sodipodi:nodetypes="ccc" />
        <path
           sodipodi:nodetypes="ccccccccccccccccccc"
           inkscape:connector-curvature="0"
           id="path3864"
           d="m 177.09375,31.53125 -4.90625,0.125 -3.5,2.125 0,4.0625 3.5625,3.8125 -3.40625,7.9375 0,4.21875 c 0.57161,1.797667 1.14714,1.911634 1.71875,2.5625 l -1.71875,7.03125 0,12.3125 3.5625,0 c -0.97909,-5.790582 -1.04238,-12.180132 5.15625,-22.6875 -6.38194,-5.829545 2.59752,-14.040159 6,-21.375 z m -0.22017,0.45437 -3.59233,6.76438 -1.5625,-2.09375 0,-2.03125 z"
           style="fill:#4f5f6f;fill-opacity:1;stroke:none" />
        <path
           sodipodi:nodetypes="ccc"
           inkscape:connector-curvature="0"
           id="path3871"
           d="m 181.53746,31.593639 c -7.10385,10.496758 -11.16922,18.21555 -6.70346,22.214941 -4.55424,9.732306 -6.40962,17.054911 -5.14451,21.591363"
           style="fill:none;stroke:#000000;stroke-width:0.5;stroke-linecap:butt;stroke-linejoin:miter;stroke-miterlimit:4;stroke-opacity:1;stroke-dasharray:none" />
        <g
           transform="matrix(1.293595,0,0,1.293595,-47.447213,-40.024441)"
           id="g3908">
          <path
             sodipodi:type="arc"
             style="fill:#a3a2a4;fill-opacity:1;stroke:#1b2a34;stroke-width:0.48314968;stroke-linecap:round;stroke-linejoin:round;stroke-miterlimit:4;stroke-opacity:1;stroke-dasharray:none;stroke-dashoffset:0"
             id="path3900"
             sodipodi:cx="181.82458"
             sodipodi:cy="68.92688"
             sodipodi:rx="3.9353745"
             sodipodi:ry="3.9353745"
             d="m 185.75996,68.92688 c 0,2.173447 -1.76193,3.935374 -3.93538,3.935374 -2.17344,0 -3.93537,-1.761927 -3.93537,-3.935374 0,-2.173447 1.76193,-3.935375 3.93537,-3.935375 2.17345,0 3.93538,1.761928 3.93538,3.935375 z"
             transform="matrix(-1,0,0,1,338.12246,-0.56750488)" />
          <path
             style="fill:#1b2a34;fill-opacity:1;stroke:#1b2a34;stroke-width:0.125;stroke-linecap:round;stroke-linejoin:round;stroke-miterlimit:4;stroke-opacity:1;stroke-dasharray:none;stroke-dashoffset:0"
             d="m 154.48714,70.27732 c 0.14459,0.08558 0.28265,0.174559 0.44499,0.236407 1.53913,0.586347 3.27399,-0.167118 3.86034,-1.706242 0.12949,-0.339891 0.19971,-0.716036 0.20304,-1.05964 0.11848,0.505634 0.10283,1.046778 -0.096,1.568603 -0.53012,1.391541 -2.08776,2.113997 -3.47931,1.583871 -0.36173,-0.137804 -0.67445,-0.367278 -0.93309,-0.622999 z"
             id="path3902"
             inkscape:connector-curvature="0"
             inkscape:transform-center-x="-0.68833905"
             inkscape:transform-center-y="1.0967544" />
        </g>
        <g
           id="g3912"
           transform="matrix(1.293595,0,0,1.293595,-19.464182,-40.024441)">
          <path
             transform="matrix(-1,0,0,1,338.12246,-0.56750488)"
             d="m 185.75996,68.92688 c 0,2.173447 -1.76193,3.935374 -3.93538,3.935374 -2.17344,0 -3.93537,-1.761927 -3.93537,-3.935374 0,-2.173447 1.76193,-3.935375 3.93537,-3.935375 2.17345,0 3.93538,1.761928 3.93538,3.935375 z"
             sodipodi:ry="3.9353745"
             sodipodi:rx="3.9353745"
             sodipodi:cy="68.92688"
             sodipodi:cx="181.82458"
             id="path3914"
             style="fill:#a3a2a4;fill-opacity:1;stroke:#1b2a34;stroke-width:0.48314968;stroke-linecap:round;stroke-linejoin:round;stroke-miterlimit:4;stroke-opacity:1;stroke-dasharray:none;stroke-dashoffset:0"
             sodipodi:type="arc" />
          <path
             inkscape:transform-center-y="1.0967544"
             inkscape:transform-center-x="-0.68833905"
             inkscape:connector-curvature="0"
             id="path3916"
             d="m 154.48714,70.27732 c 0.14459,0.08558 0.28265,0.174559 0.44499,0.236407 1.53913,0.586347 3.27399,-0.167118 3.86034,-1.706242 0.12949,-0.339891 0.19971,-0.716036 0.20304,-1.05964 0.11848,0.505634 0.10283,1.046778 -0.096,1.568603 -0.53012,1.391541 -2.08776,2.113997 -3.47931,1.583871 -0.36173,-0.137804 -0.67445,-0.367278 -0.93309,-0.622999 z"
             style="fill:#1b2a34;fill-opacity:1;stroke:#1b2a34;stroke-width:0.125;stroke-linecap:round;stroke-linejoin:round;stroke-miterlimit:4;stroke-opacity:1;stroke-dasharray:none;stroke-dashoffset:0" />
        </g>
        <g
           transform="matrix(1.5175302,0,0,1.5175302,-85.799535,-72.870621)"
           id="g3918">
          <path
             sodipodi:type="arc"
             style="fill:#a3a2a4;fill-opacity:1;stroke:#1b2a34;stroke-width:0.48314968;stroke-linecap:round;stroke-linejoin:round;stroke-miterlimit:4;stroke-opacity:1;stroke-dasharray:none;stroke-dashoffset:0"
             id="path3920"
             sodipodi:cx="181.82458"
             sodipodi:cy="68.92688"
             sodipodi:rx="3.9353745"
             sodipodi:ry="3.9353745"
             d="m 185.75996,68.92688 c 0,2.173447 -1.76193,3.935374 -3.93538,3.935374 -2.17344,0 -3.93537,-1.761927 -3.93537,-3.935374 0,-2.173447 1.76193,-3.935375 3.93537,-3.935375 2.17345,0 3.93538,1.761928 3.93538,3.935375 z"
             transform="matrix(-1,0,0,1,338.12246,-0.56750488)" />
          <path
             style="fill:#1b2a34;fill-opacity:1;stroke:#1b2a34;stroke-width:0.125;stroke-linecap:round;stroke-linejoin:round;stroke-miterlimit:4;stroke-opacity:1;stroke-dasharray:none;stroke-dashoffset:0"
             d="m 154.48714,70.27732 c 0.14459,0.08558 0.28265,0.174559 0.44499,0.236407 1.53913,0.586347 3.27399,-0.167118 3.86034,-1.706242 0.12949,-0.339891 0.19971,-0.716036 0.20304,-1.05964 0.11848,0.505634 0.10283,1.046778 -0.096,1.568603 -0.53012,1.391541 -2.08776,2.113997 -3.47931,1.583871 -0.36173,-0.137804 -0.67445,-0.367278 -0.93309,-0.622999 z"
             id="path3922"
             inkscape:connector-curvature="0"
             inkscape:transform-center-x="-0.68833905"
             inkscape:transform-center-y="1.0967544" />
        </g>
        <g
           id="g3924"
           transform="matrix(1.5175302,0,0,1.5175302,-51.658679,-72.870621)">
          <path
             transform="matrix(-1,0,0,1,338.12246,-0.56750488)"
             d="m 185.75996,68.92688 c 0,2.173447 -1.76193,3.935374 -3.93538,3.935374 -2.17344,0 -3.93537,-1.761927 -3.93537,-3.935374 0,-2.173447 1.76193,-3.935375 3.93537,-3.935375 2.17345,0 3.93538,1.761928 3.93538,3.935375 z"
             sodipodi:ry="3.9353745"
             sodipodi:rx="3.9353745"
             sodipodi:cy="68.92688"
             sodipodi:cx="181.82458"
             id="path3926"
             style="fill:#a3a2a4;fill-opacity:1;stroke:#1b2a34;stroke-width:0.48314968;stroke-linecap:round;stroke-linejoin:round;stroke-miterlimit:4;stroke-opacity:1;stroke-dasharray:none;stroke-dashoffset:0"
             sodipodi:type="arc" />
          <path
             inkscape:transform-center-y="1.0967544"
             inkscape:transform-center-x="-0.68833905"
             inkscape:connector-curvature="0"
             id="path3928"
             d="m 154.48714,70.27732 c 0.14459,0.08558 0.28265,0.174559 0.44499,0.236407 1.53913,0.586347 3.27399,-0.167118 3.86034,-1.706242 0.12949,-0.339891 0.19971,-0.716036 0.20304,-1.05964 0.11848,0.505634 0.10283,1.046778 -0.096,1.568603 -0.53012,1.391541 -2.08776,2.113997 -3.47931,1.583871 -0.36173,-0.137804 -0.67445,-0.367278 -0.93309,-0.622999 z"
             style="fill:#1b2a34;fill-opacity:1;stroke:#1b2a34;stroke-width:0.125;stroke-linecap:round;stroke-linejoin:round;stroke-miterlimit:4;stroke-opacity:1;stroke-dasharray:none;stroke-dashoffset:0" />
        </g>
      </g>
    </g>
    <g
       inkscape:groupmode="layer"
       id="layer4"
       inkscape:label="belt"
       sodipodi:insensitive="true">
      <g
         transform="translate(-218.16938,-378.37561)"
         style="display:inline"
         id="g4089"
         mask="url(#mask4103)">
        <rect
           ry="0.74133807"
           y="445.04547"
           x="361.12448"
           height="7.3270397"
           width="52.614334"
           id="rect3859"
           style="fill:#6d6e6c;fill-opacity:1;stroke:#1b2a34;stroke-width:0.625;stroke-linecap:round;stroke-linejoin:round;stroke-miterlimit:4;stroke-opacity:1;stroke-dasharray:none;stroke-dashoffset:0;display:inline" />
        <rect
           style="fill:#6d6e6c;fill-opacity:1;stroke:#1b2a34;stroke-width:0.625;stroke-linecap:round;stroke-linejoin:round;stroke-miterlimit:4;stroke-opacity:1;stroke-dasharray:none;stroke-dashoffset:0;display:inline"
           id="rect3861"
           width="52.614334"
           height="3.195832"
           x="361.12448"
           y="449.17667"
           ry="0.74133807" />
        <g
           transform="translate(218.16938,378.37561)"
           id="g3843"
           style="display:inline">
          <path
             inkscape:connector-curvature="0"
             style="fill:#6d6e6c;fill-opacity:1;stroke:#1b2a34;stroke-width:0.625;stroke-linecap:round;stroke-linejoin:round;stroke-miterlimit:4;stroke-opacity:1;stroke-dasharray:none;stroke-dashoffset:0"
             d="m 193.46875,61.875 -2.375,2.34375 -4.65625,0 -1.96875,-1.875 -5.125,0.09375 -3.53125,3.71875 0.0937,5.125 3.71875,3.5625 5.15625,-0.125 1.28125,-1.34375 5.46875,0 c 1.09035,1.092353 2.57353,1.261712 3.90625,1.25 l -1.96875,-12.75 z"
             id="path3058" />
          <path
             inkscape:connector-curvature="0"
             style="fill:#6d6e6c;fill-opacity:1;stroke:#1b2a34;stroke-width:0.625;stroke-linecap:round;stroke-linejoin:round;stroke-miterlimit:4;stroke-opacity:1;stroke-dasharray:none;stroke-dashoffset:0"
             d="m 179.125,68.5 4.21875,6.25 1.4375,-0.03125 1.28125,-1.34375 5.46875,0 c 1.09035,1.092353 2.57353,1.261712 3.90625,1.25 L 194.5,68.5 l -15.375,0 z"
             id="path3833" />
          <path
             sodipodi:type="arc"
             style="fill:#a3a2a4;fill-opacity:1;stroke:#1b2a34;stroke-width:0.625;stroke-linecap:round;stroke-linejoin:round;stroke-miterlimit:4;stroke-opacity:1;stroke-dasharray:none;stroke-dashoffset:0"
             id="path3836"
             sodipodi:cx="181.82458"
             sodipodi:cy="68.92688"
             sodipodi:rx="3.9353745"
             sodipodi:ry="3.9353745"
             d="m 185.75996,68.92688 c 0,2.173447 -1.76193,3.935374 -3.93538,3.935374 -2.17344,0 -3.93537,-1.761927 -3.93537,-3.935374 0,-2.173447 1.76193,-3.935375 3.93537,-3.935375 2.17345,0 3.93538,1.761928 3.93538,3.935375 z"
             transform="translate(0,-0.56750488)" />
          <path
             inkscape:connector-curvature="0"
             style="fill:#1b2a34;fill-opacity:1;stroke:#1b2a34;stroke-width:0.125;stroke-linecap:round;stroke-linejoin:round;stroke-miterlimit:4;stroke-opacity:1;stroke-dasharray:none;stroke-dashoffset:0"
             d="m 184.28125,67.28125 c 0.0285,0.165587 0.0625,0.326272 0.0625,0.5 0,1.647028 -1.32172,3 -2.96875,3 -0.36372,0 -0.74022,-0.06829 -1.0625,-0.1875 0.43033,0.290722 0.94159,0.46875 1.5,0.46875 1.4891,0 2.71875,-1.198398 2.71875,-2.6875 0,-0.387089 -0.10311,-0.761016 -0.25,-1.09375 z"
             id="path3838" />
        </g>
        <g
           transform="matrix(-1,0,0,1,556.29184,378.37561)"
           id="g3849"
           style="display:inline">
          <path
             inkscape:connector-curvature="0"
             id="path3851"
             d="m 193.46875,61.875 -2.375,2.34375 -4.65625,0 -1.96875,-1.875 -5.125,0.09375 -3.53125,3.71875 0.0937,5.125 3.71875,3.5625 5.15625,-0.125 1.28125,-1.34375 5.46875,0 c 1.09035,1.092353 2.57353,1.261712 3.90625,1.25 l -1.96875,-12.75 z"
             style="fill:#6d6e6c;fill-opacity:1;stroke:#1b2a34;stroke-width:0.625;stroke-linecap:round;stroke-linejoin:round;stroke-miterlimit:4;stroke-opacity:1;stroke-dasharray:none;stroke-dashoffset:0" />
          <path
             inkscape:connector-curvature="0"
             id="path3853"
             d="m 179.125,68.5 4.21875,6.25 1.4375,-0.03125 1.28125,-1.34375 5.46875,0 c 1.09035,1.092353 2.57353,1.261712 3.90625,1.25 L 194.5,68.5 l -15.375,0 z"
             style="fill:#6d6e6c;fill-opacity:1;stroke:#1b2a34;stroke-width:0.625;stroke-linecap:round;stroke-linejoin:round;stroke-miterlimit:4;stroke-opacity:1;stroke-dasharray:none;stroke-dashoffset:0" />
          <path
             transform="translate(0,-0.56750488)"
             d="m 185.75996,68.92688 c 0,2.173447 -1.76193,3.935374 -3.93538,3.935374 -2.17344,0 -3.93537,-1.761927 -3.93537,-3.935374 0,-2.173447 1.76193,-3.935375 3.93537,-3.935375 2.17345,0 3.93538,1.761928 3.93538,3.935375 z"
             sodipodi:ry="3.9353745"
             sodipodi:rx="3.9353745"
             sodipodi:cy="68.92688"
             sodipodi:cx="181.82458"
             id="path3855"
             style="fill:#a3a2a4;fill-opacity:1;stroke:#1b2a34;stroke-width:0.625;stroke-linecap:round;stroke-linejoin:round;stroke-miterlimit:4;stroke-opacity:1;stroke-dasharray:none;stroke-dashoffset:0"
             sodipodi:type="arc" />
          <path
             inkscape:transform-center-y="1.0967544"
             inkscape:transform-center-x="-0.68833905"
             inkscape:connector-curvature="0"
             id="path3857"
             d="m 183.63532,70.27732 c -0.14459,0.08558 -0.28265,0.174559 -0.44499,0.236407 -1.53913,0.586347 -3.27399,-0.167118 -3.86034,-1.706242 -0.12949,-0.339891 -0.19971,-0.716036 -0.20304,-1.05964 -0.11848,0.505634 -0.10283,1.046778 0.096,1.568603 0.53012,1.391541 2.08776,2.113997 3.47931,1.583871 0.36173,-0.137804 0.67445,-0.367278 0.93309,-0.622999 z"
             style="fill:#1b2a34;fill-opacity:1;stroke:#1b2a34;stroke-width:0.125;stroke-linecap:round;stroke-linejoin:round;stroke-miterlimit:4;stroke-opacity:1;stroke-dasharray:none;stroke-dashoffset:0" />
        </g>
      </g>
    </g>
  </g>
  <g
     inkscape:label="template"
     inkscape:groupmode="layer"
     id="layer1"
     transform="translate(-287.34375,-409.84883)"
     style="display:inline">
    <path
       id="path4124"
       style="fill:none;stroke:#231f20;stroke-width:0.3125;stroke-linecap:butt;stroke-linejoin:miter;stroke-miterlimit:4;stroke-opacity:1;stroke-dasharray:none;display:inline"
       d="m 361.13813,452.9203 c 8.7325,-47.29375 5.3425,-42.67875 14.2675,-42.85625 l 23.44,0 c 8.92625,0.1775 5.535,-4.4375 14.265,42.85625 l -51.9725,0 z"
       inkscape:connector-curvature="0" />
    <path
       inkscape:connector-curvature="0"
       d="m 287.54407,452.9203 c 8.7325,-47.29375 5.3425,-42.67875 14.2675,-42.85625 l 23.44,0 c 8.92625,0.1775 5.535,-4.4375 14.265,42.85625 l -51.9725,0 z"
       style="fill:none;stroke:#231f20;stroke-width:0.3125;stroke-linecap:butt;stroke-linejoin:miter;stroke-miterlimit:4;stroke-opacity:1;stroke-dasharray:none;display:inline"
       id="path4132" />
  </g>
</svg>
