<?xml version="1.0" encoding="UTF-8" standalone="no"?>
<!-- Created with Inkscape (http://www.inkscape.org/) -->

<svg
   xmlns:dc="http://purl.org/dc/elements/1.1/"
   xmlns:cc="http://creativecommons.org/ns#"
   xmlns:rdf="http://www.w3.org/1999/02/22-rdf-syntax-ns#"
   xmlns:svg="http://www.w3.org/2000/svg"
   xmlns="http://www.w3.org/2000/svg"
   xmlns:xlink="http://www.w3.org/1999/xlink"
   xmlns:sodipodi="http://sodipodi.sourceforge.net/DTD/sodipodi-0.dtd"
   xmlns:inkscape="http://www.inkscape.org/namespaces/inkscape"
   width="52.375"
   height="43.213669"
   id="svg2"
   version="1.1"
   inkscape:version="0.48.2 r9819"
   sodipodi:docname="torso_blank.svg">
  <defs
     id="defs4">
    <linearGradient
       inkscape:collect="always"
       id="linearGradient4011">
      <stop
         style="stop-color:#ffffff;stop-opacity:1;"
         offset="0"
         id="stop4013" />
      <stop
         style="stop-color:#ffffff;stop-opacity:0;"
         offset="1"
         id="stop4015" />
    </linearGradient>
    <linearGradient
       inkscape:collect="always"
       id="linearGradient3997">
      <stop
         style="stop-color:#ffffff;stop-opacity:1;"
         offset="0"
         id="stop3999" />
      <stop
         style="stop-color:#ffffff;stop-opacity:0;"
         offset="1"
         id="stop4001" />
    </linearGradient>
    <inkscape:path-effect
       effect="skeletal"
       id="path-effect4237"
       is_visible="true"
       pattern="M 0,5 C 0,2.24 2.24,0 5,0 7.76,0 10,2.24 10,5 10,7.76 7.76,10 5,10 2.24,10 0,7.76 0,5 z"
       copytype="single_stretched"
       prop_scale="1"
       scale_y_rel="false"
       spacing="0"
       normal_offset="0"
       tang_offset="0"
       prop_units="false"
       vertical_pattern="false"
       fuse_tolerance="0" />
    <clipPath
       id="clipPath2999"
       clipPathUnits="userSpaceOnUse">
      <path
         id="path3001"
         d="M 0,792 612,792 612,0 0,0 0,792 z"
         inkscape:connector-curvature="0" />
    </clipPath>
    <radialGradient
       gradientUnits="userSpaceOnUse"
       gradientTransform="matrix(0.75988491,-0.03632001,0.13155835,2.7524547,16.986326,-78.268899)"
       r="12.650181"
       fy="46.658409"
       fx="96.306435"
       cy="46.658409"
       cx="96.306435"
       id="radialGradient3972"
       xlink:href="#linearGradient3966"
       inkscape:collect="always" />
    <clipPath
       clipPathUnits="userSpaceOnUse"
       id="clipPath2999-4">
      <path
         inkscape:connector-curvature="0"
         d="M 0,792 612,792 612,0 0,0 0,792 z"
         id="path3001-0" />
    </clipPath>
    <linearGradient
       id="linearGradient3966">
      <stop
         id="stop3968"
         offset="0"
         style="stop-color:#c0ac02;stop-opacity:1;" />
      <stop
         id="stop3970"
         offset="1"
         style="stop-color:#fdea41;stop-opacity:0;" />
    </linearGradient>
    <radialGradient
       inkscape:collect="always"
       xlink:href="#linearGradient3997"
       id="radialGradient4003"
       cx="165.81134"
       cy="47.693741"
       fx="165.81134"
       fy="47.693741"
       r="3.8123069"
       gradientTransform="matrix(0.64374811,-0.18781617,0.31213841,1.069868,43.640483,27.15595)"
       gradientUnits="userSpaceOnUse" />
    <radialGradient
       inkscape:collect="always"
       xlink:href="#linearGradient3997"
       id="radialGradient4007"
       gradientUnits="userSpaceOnUse"
       gradientTransform="matrix(-0.64374811,-0.18781617,-0.31213841,1.069868,293.73143,27.15595)"
       cx="165.81134"
       cy="47.693741"
       fx="165.81134"
       fy="47.693741"
       r="3.8123069" />
    <radialGradient
       inkscape:collect="always"
       xlink:href="#linearGradient4011"
       id="radialGradient4017"
       cx="169.32254"
       cy="41.784931"
       fx="169.32254"
       fy="41.784931"
       r="6.982676"
       gradientTransform="matrix(0.31036379,-0.01814613,0.03701409,0.63307367,114.75293,21.468668)"
       gradientUnits="userSpaceOnUse" />
    <linearGradient
       id="linearGradient3966-2">
      <stop
         style="stop-color:#c0ac02;stop-opacity:1;"
         offset="0"
         id="stop3968-4" />
      <stop
         style="stop-color:#fdea41;stop-opacity:0;"
         offset="1"
         id="stop3970-5" />
    </linearGradient>
    <clipPath
       id="clipPath2999-4-8"
       clipPathUnits="userSpaceOnUse">
      <path
         id="path3001-0-8"
         d="M 0,792 612,792 612,0 0,0 0,792 z"
         inkscape:connector-curvature="0" />
    </clipPath>
    <radialGradient
       inkscape:collect="always"
       xlink:href="#linearGradient3966-2"
       id="radialGradient3972-4"
       cx="96.306435"
       cy="46.658409"
       fx="96.306435"
       fy="46.658409"
       r="12.650181"
       gradientTransform="matrix(0.75988491,-0.03632001,0.13155835,2.7524547,16.986326,-78.268899)"
       gradientUnits="userSpaceOnUse" />
    <clipPath
       clipPathUnits="userSpaceOnUse"
       id="clipPath2999-0">
      <path
         inkscape:connector-curvature="0"
         d="M 0,792 612,792 612,0 0,0 0,792 z"
         id="path3001-9" />
    </clipPath>
    <inkscape:path-effect
       fuse_tolerance="0"
       vertical_pattern="false"
       prop_units="false"
       tang_offset="0"
       normal_offset="0"
       spacing="0"
       scale_y_rel="false"
       prop_scale="1"
       copytype="single_stretched"
       pattern="M 0,5 C 0,2.24 2.24,0 5,0 7.76,0 10,2.24 10,5 10,7.76 7.76,10 5,10 2.24,10 0,7.76 0,5 z"
       is_visible="true"
       id="path-effect4237-4"
       effect="skeletal" />
    <inkscape:path-effect
       effect="skeletal"
       id="path-effect4237-4-5"
       is_visible="true"
       pattern="M 0,5 C 0,2.24 2.24,0 5,0 7.76,0 10,2.24 10,5 10,7.76 7.76,10 5,10 2.24,10 0,7.76 0,5 z"
       copytype="single_stretched"
       prop_scale="1"
       scale_y_rel="false"
       spacing="0"
       normal_offset="0"
       tang_offset="0"
       prop_units="false"
       vertical_pattern="false"
       fuse_tolerance="0" />
    <clipPath
       id="clipPath2999-0-6"
       clipPathUnits="userSpaceOnUse">
      <path
         id="path3001-9-8"
         d="M 0,792 612,792 612,0 0,0 0,792 z"
         inkscape:connector-curvature="0" />
    </clipPath>
    <radialGradient
       gradientUnits="userSpaceOnUse"
       gradientTransform="matrix(0.75988491,-0.03632001,0.13155835,2.7524547,16.986326,-78.268899)"
       r="12.650181"
       fy="46.658409"
       fx="96.306435"
       cy="46.658409"
       cx="96.306435"
       id="radialGradient3972-4-1"
       xlink:href="#linearGradient3966-2-4"
       inkscape:collect="always" />
    <clipPath
       clipPathUnits="userSpaceOnUse"
       id="clipPath2999-4-8-2">
      <path
         inkscape:connector-curvature="0"
         d="M 0,792 612,792 612,0 0,0 0,792 z"
         id="path3001-0-8-2" />
    </clipPath>
    <linearGradient
       id="linearGradient3966-2-4">
      <stop
         id="stop3968-4-2"
         offset="0"
         style="stop-color:#c0ac02;stop-opacity:1;" />
      <stop
         id="stop3970-5-3"
         offset="1"
         style="stop-color:#fdea41;stop-opacity:0;" />
    </linearGradient>
    <radialGradient
       gradientUnits="userSpaceOnUse"
       gradientTransform="matrix(0.31036379,-0.01814613,0.03701409,0.63307367,114.75293,21.468668)"
       r="6.982676"
       fy="41.784931"
       fx="169.32254"
       cy="41.784931"
       cx="169.32254"
       id="radialGradient4017-1"
       xlink:href="#linearGradient4011-4"
       inkscape:collect="always" />
    <radialGradient
       r="3.8123069"
       fy="47.693741"
       fx="165.81134"
       cy="47.693741"
       cx="165.81134"
       gradientTransform="matrix(-0.64374811,-0.18781617,-0.31213841,1.069868,293.73143,27.15595)"
       gradientUnits="userSpaceOnUse"
       id="radialGradient4007-6"
       xlink:href="#linearGradient3997-4"
       inkscape:collect="always" />
    <radialGradient
       gradientUnits="userSpaceOnUse"
       gradientTransform="matrix(0.64374811,-0.18781617,0.31213841,1.069868,43.640483,27.15595)"
       r="3.8123069"
       fy="47.693741"
       fx="165.81134"
       cy="47.693741"
       cx="165.81134"
       id="radialGradient4003-7"
       xlink:href="#linearGradient3997-4"
       inkscape:collect="always" />
    <linearGradient
       id="linearGradient3966-1">
      <stop
         style="stop-color:#c0ac02;stop-opacity:1;"
         offset="0"
         id="stop3968-5" />
      <stop
         style="stop-color:#fdea41;stop-opacity:0;"
         offset="1"
         id="stop3970-2" />
    </linearGradient>
    <clipPath
       id="clipPath2999-4-7"
       clipPathUnits="userSpaceOnUse">
      <path
         id="path3001-0-1"
         d="M 0,792 612,792 612,0 0,0 0,792 z"
         inkscape:connector-curvature="0" />
    </clipPath>
    <radialGradient
       inkscape:collect="always"
       xlink:href="#linearGradient3966-1"
       id="radialGradient3972-1"
       cx="96.306435"
       cy="46.658409"
       fx="96.306435"
       fy="46.658409"
       r="12.650181"
       gradientTransform="matrix(0.75988491,-0.03632001,0.13155835,2.7524547,16.986326,-78.268899)"
       gradientUnits="userSpaceOnUse" />
    <clipPath
       clipPathUnits="userSpaceOnUse"
       id="clipPath2999-45">
      <path
         inkscape:connector-curvature="0"
         d="M 0,792 612,792 612,0 0,0 0,792 z"
         id="path3001-5" />
    </clipPath>
    <inkscape:path-effect
       fuse_tolerance="0"
       vertical_pattern="false"
       prop_units="false"
       tang_offset="0"
       normal_offset="0"
       spacing="0"
       scale_y_rel="false"
       prop_scale="1"
       copytype="single_stretched"
       pattern="M 0,5 C 0,2.24 2.24,0 5,0 7.76,0 10,2.24 10,5 10,7.76 7.76,10 5,10 2.24,10 0,7.76 0,5 z"
       is_visible="true"
       id="path-effect4237-2"
       effect="skeletal" />
    <linearGradient
       id="linearGradient3997-4"
       inkscape:collect="always">
      <stop
         id="stop3999-8"
         offset="0"
         style="stop-color:#ffffff;stop-opacity:1;" />
      <stop
         id="stop4001-8"
         offset="1"
         style="stop-color:#ffffff;stop-opacity:0;" />
    </linearGradient>
    <linearGradient
       id="linearGradient4011-4"
       inkscape:collect="always">
      <stop
         id="stop4013-0"
         offset="0"
         style="stop-color:#ffffff;stop-opacity:1;" />
      <stop
         id="stop4015-9"
         offset="1"
         style="stop-color:#ffffff;stop-opacity:0;" />
    </linearGradient>
  </defs>
  <sodipodi:namedview
     id="base"
     pagecolor="#ffffff"
     bordercolor="#666666"
     borderopacity="1.0"
     inkscape:pageopacity="0.0"
     inkscape:pageshadow="2"
     inkscape:zoom="4.97"
     inkscape:cx="24.95888"
     inkscape:cy="40.553861"
     inkscape:document-units="px"
     inkscape:current-layer="layer1"
     showgrid="false"
     fit-margin-top="0"
     fit-margin-left="0"
     fit-margin-right="0"
     fit-margin-bottom="0"
     inkscape:window-width="1280"
     inkscape:window-height="968"
     inkscape:window-x="-4"
     inkscape:window-y="-4"
     inkscape:window-maximized="1"
     showguides="true"
     inkscape:guide-bbox="true"
     inkscape:snap-global="false">
    <sodipodi:guide
       orientation="0,1"
       position="11.28133,21.517799"
       id="guide3274" />
    <sodipodi:guide
       orientation="1,0"
       position="26.13159,26.634501"
       id="guide3960" />
  </sodipodi:namedview>
  <metadata
     id="metadata7">
    <rdf:RDF>
      <cc:Work
         rdf:about="">
        <dc:format>image/svg+xml</dc:format>
        <dc:type
           rdf:resource="http://purl.org/dc/dcmitype/StillImage" />
        <dc:title></dc:title>
      </cc:Work>
    </rdf:RDF>
  </metadata>
  <g
     inkscape:label="template"
     inkscape:groupmode="layer"
     id="layer1"
     transform="translate(-360.9375,-409.84883)"
     style="display:inline">
    <path
       inkscape:connector-curvature="0"
       d="m 361.13813,452.9203 c 8.7325,-47.29375 5.3425,-42.67875 14.2675,-42.85625 l 23.44,0 c 8.92625,0.1775 5.535,-4.4375 14.265,42.85625 l -51.9725,0 z"
       style="fill:none;stroke:#231f20;stroke-width:0.3125;stroke-linecap:butt;stroke-linejoin:miter;stroke-miterlimit:4;stroke-opacity:1;stroke-dasharray:none"
       id="path3093" />
    <path
       id="path4124"
       style="fill:none;stroke:#231f20;stroke-width:0.3125;stroke-linecap:butt;stroke-linejoin:miter;stroke-miterlimit:4;stroke-opacity:1;stroke-dasharray:none"
       d="m 361.13813,452.9203 c 8.7325,-47.29375 5.3425,-42.67875 14.2675,-42.85625 l 23.44,0 c 8.92625,0.1775 5.535,-4.4375 14.265,42.85625 l -51.9725,0 z"
       inkscape:connector-curvature="0" />
    <g
       id="g3870">
      <path
         sodipodi:nodetypes="cccccc"
         transform="translate(360.9375,409.84883)"
         inkscape:connector-curvature="0"
         id="path3866"
         d="M 24.2505,20.428859 C 17.401032,32.8397 3.1311486,21.668686 7.39507,14.166367 l 4.596935,-1.065956 0.266489,-2.06529 6.074958,-2.2142369 C 17.78672,12.685873 19.297822,20.094564 24.2505,20.428859 z"
         style="fill:#78412c;fill-opacity:1;stroke:#1b2a34" />
      <path
         id="path3089"
         transform="translate(360.9375,409.84883)"
         d="M 18.53125,1.96875 C 18.45279,1.97644 18.35261,1.9985 18.25,2.03125 c -0.41029,0.13166 -0.75358,0.43863 -0.875,0.9375 -0.12142,0.49887 0.12979,1.08616 0.65625,1.46875 l 0.03125,0.03125 0.03125,0 c 0.25853,0.14707 0.37078,0.26495 0.40625,0.3125 0.0355,0.0476 0.03295,0.00605 0.03125,0.03125 -0.002,0.0251 -0.0965,0.28812 -0.15625,0.4375 l -0.0625,0 -0.125,0.46875 c -0.33661,1.28252 -0.99398,2.33248 -1.84375,3.125 -0.80949,0.75496 -2.03204,1.30144 -4.15625,1.375 -0.0125,4.3e-4 -0.01875,-4e-4 -0.03125,0 l -0.3125,0 -0.4375,0 -0.15625,0.4375 -0.125,0.375 0,0.03125 C 10.99533,11.52308 11.00642,11.95712 11,12.40625 9.76073,12.86553 8.77379,13.07818 7.4375,12.9375 l -0.03125,0 c -0.43685,-0.0463 -1.04973,0.0238 -1.1875,0.96875 -0.65255,3.87526 -0.27252,6.56328 0.6875,8.4375 0.96032,1.87481 2.47071,2.80758 3.8125,3.125 2.34026,0.55362 4.73817,-0.69786 7.1875,-1.8125 2.45695,-1.11811 5.00799,-2.20833 7.28125,-2.125 l 0.03125,0 c 0.008,-10e-6 0.01475,10e-5 0.03125,0 l 0.625,0 0,-0.625 0,-0.46875 0,-0.03125 0.03125,-0.46875 0.03125,-0.625 -0.625,-0.03125 c -0.0554,-0.002 -0.06505,-0.001 -0.03125,0 l -0.03125,0 c -1.62915,0.01 -2.61872,-0.42077 -3.375,-1.1875 C 21.12134,17.32968 20.60996,16.15752 20.28125,14.625 19.80845,12.4207 19.80828,9.48578 19.875,6.5 c 5.5e-4,-0.0246 1.2e-4,-0.02095 0,-0.03125 -1.2e-4,-0.0104 9e-5,-0.03505 0,-0.03125 0.005,-0.0133 0.04155,-0.14175 0.09375,-0.3125 0.0929,-0.30382 0.2427,-0.69827 0.34375,-1.15625 0.173,-0.7841 0.0946,-1.8595 -0.71875,-2.6875 L 19.5625,2.25 19.5,2.1875 c 0,0 -0.33583,-0.20916 -0.78125,-0.21875 -0.05232,-10e-4 -0.109045,-0.00769 -0.1875,0 z m 0.09375,1.25 c -0.009,0.003 0.02435,-10e-4 0.09375,0 0.023,5e-4 0.01705,-0.002 0.03125,0 0.10804,0.12103 0.16086,0.24479 0.21875,0.375 C 18.89685,3.54415 18.86296,3.48567 18.78125,3.4375 18.71355,3.3883 18.74895,3.43345 18.71875,3.40625 18.62805,3.32545 18.59722,3.23576 18.59375,3.25 18.58875,3.269 18.6427,3.21305 18.625,3.21875 z M 17.96875,9.3125 C 17.087842,10.886357 15.889536,12.184771 13.25,12 l -0.5,-0.65625 5.21875,-2.03125 z m 0.34375,1.0625 0,1.21875 c -0.41765,1.08175 -0.43645,2.63082 -0.25,3.5 0.38107,1.77665 1.03612,3.39479 2.21875,4.59375 0.23527,0.23852 0.54059,0.34844 0.8125,0.53125 -0.64935,0.18856 -1.00684,0.4047 -1.5625,0.90625 -0.85882,0.7752 -0.51533,0.029 -0.84375,0.0625 -0.57944,0.0591 -1.24649,0.23681 -1.6875,0.4375 -1.63639,0.74469 -3.08824,1.32539 -4.25,1.5625 -0.74936,-0.42156 -1.28705,-0.84717 -1.5625,-1.25 -0.303,-0.44311 -0.39972,-0.85737 -0.375,-1.375 0.0344,-0.71939 0.14526,-0.8187 0.5625,-1.0625 0.40418,-0.23617 0.90829,-0.52849 1.6875,-0.59375 0.17448,-0.0137 0.93975,-0.33795 1.40625,-0.28125 1.58429,-0.27855 3.05183,-0.66296 3.375,-1.5 C 18.08286,16.50565 17.78233,15.73882 17.25,15.09375 16.83732,14.76632 16.33917,14.35487 15.65625,14.25 15.26751,14.1903 14.89448,14.0973 14.5625,14 c 0.6021,-0.3665 2.94539,-2.79572 3.75,-3.625 z m -6.96875,4.25 c 0.12422,0.3331 0.23111,0.67685 0.40625,0.96875 0.27242,0.45403 1.01084,0.56739 1.375,0.6875 0.16157,0.0533 0.78407,-0.26711 1.15625,-0.21875 0.37502,0.0487 0.50119,0.44526 0.59375,0.46875 -0.23532,0.002 -1.63079,0.0363 -1.9375,0.0625 -0.88711,0.0743 -2.20799,0.17766 -3.1875,0.75 -0.55807,0.32609 -0.85973,0.88759 -1,1.4375 -0.11432,0.4482 -0.13165,0.90944 -0.15625,1.375 -0.67837,-0.43904 -0.93895,-2.48623 -1,-3.15625 -0.0838,-0.91947 -0.16931,-0.64193 0,-1.96875 1.01125,-0.004 2.7708,-0.10918 3.75,-0.40625 z m -0.3125,8.75 c 0.30559,0.27541 0.57745,0.56478 1,0.8125 -0.32444,0.009 -0.70475,0.16365 -1,0.09375 -0.12916,-0.0306 -0.27296,-0.14153 -0.40625,-0.1875 L 11.03125,23.375 z"
         style="font-size:medium;font-style:normal;font-variant:normal;font-weight:normal;font-stretch:normal;text-indent:0;text-align:start;text-decoration:none;line-height:normal;letter-spacing:normal;word-spacing:normal;text-transform:none;direction:ltr;block-progression:tb;writing-mode:lr-tb;text-anchor:start;baseline-shift:baseline;color:#000000;fill:#1b2a34;fill-opacity:1;stroke:none;stroke-width:1.25;marker:none;visibility:visible;display:inline;overflow:visible;enable-background:accumulate;font-family:Sans;-inkscape-font-specification:Sans"
         inkscape:connector-curvature="0" />
      <path
         sodipodi:nodetypes="sccccscccccccsssscccccsssccsscscsccccccscscsscccsscccccccssccccsccscc"
         inkscape:connector-curvature="0"
         id="path3076"
         transform="translate(360.9375,409.84883)"
         d="M 18.71875,2.59375 C 18.63172,2.5918769 18.535668,2.59349 18.4375,2.625 18.04482,2.75101 17.60889,3.35804 18.40625,3.9375 19.616395,4.6259347 19.04979,5.0821033 18.8125,5.875 l -0.03125,0 c -0.36424,1.38778 -1.05942,2.56028 -2,3.4375 -0.94058,0.87722 -2.34673,1.45955 -4.59375,1.53125 l -0.34375,0 -0.125,0.375 c -0.157285,0.558689 -0.193972,1.139854 -0.15625,1.6875 -1.478049,0.588072 -2.6295104,0.82027 -4.1875,0.65625 L 6.90625,13.53125 6.84375,14 c -0.63808,3.78934 -0.25383,6.34679 0.625,8.0625 0.87883,1.71571 2.2269,2.53351 3.40625,2.8125 2.02035,0.47794 4.3201,-0.66123 6.78125,-1.78125 2.297047,-1.04534 4.73075,-2.124208 7.064045,-2.189425 0.166693,-0.0047 1.037773,-0.0041 1.203354,0.0019 0.0115,-2e-5 0.01975,7e-5 0.03125,0 l 0,-0.5 0.03125,-0.5 c -0.0103,-3.8e-4 -0.02105,3.4e-4 -0.03125,0 -0.199775,0.0012 -1.097146,-0.0043 -1.282678,-0.01622 C 23.232541,19.797384 22.210769,19.315202 21.4375,18.53125 20.564575,17.646265 19.99993,16.35231 19.65625,14.75 19.15982,12.43552 19.18315,9.49169 19.25,6.5 c 4.7e-4,-0.0209 -4.8e-4,-0.0416 0,-0.0625 0.0091,-0.1302551 0.06971,-0.3191847 0.125,-0.5 0.09763,-0.3193122 0.220485,-0.6767069 0.3125,-1.09375 0.14412,-0.6532 0.10546,-1.47679 -0.53125,-2.125 0,0 -0.176411,-0.1193806 -0.4375,-0.125 z m -1,7.15625 c -0.208896,0.401063 -0.424743,0.767294 -0.65625,1.09375 -0.759355,1.070806 -1.987446,1.778029 -4.3125,1.78125 -0.08049,-0.258445 0.154824,-0.728411 0.1875,-0.9375 1.756116,-0.120364 3.446515,-0.672891 4.5,-1.65625 C 17.53614,9.939254 17.630541,9.8488284 17.71875,9.75 z m 0.59375,0.78125 c 0.0539,1.54253 0.09,3.10885 0.375,4.4375 0.36736,1.71271 0.96831,3.20363 2.03125,4.28125 0.47953,0.48616 1.0901,0.8417 1.75,1.125 -1.81489,0.42534 -3.58726,1.07004 -5.21875,1.8125 -1.727918,0.78634 -3.321333,1.459122 -4.625,1.6875 -1.895218,-0.989998 -2.497295,-2.091423 -2.4375,-3.34375 0.041,-0.85854 0.3476,-1.25433 0.875,-1.5625 0.5274,-0.30817 1.15357,-0.43173 1.96875,-0.5 0.60968,-0.0478 1.79606,0.2442 2.5,0.15625 0.35197,-0.044 0.8315,-0.07 1.125,-0.21875 0.2935,-0.14873 0.7577,-0.78251 0.8125,-1.15625 0.0941,-0.64176 -0.20332,-1.34647 -0.59375,-1.65625 -0.39043,-0.30978 -0.87607,-0.65173 -1.3125,-0.71875 -0.43643,-0.067 -0.84913,-0.18208 -1.1875,-0.28125 -0.87757,-0.0765 -0.82575,-0.25957 -1,-0.59375 -0.116586,-0.190907 0.335785,-0.355456 0.71875,-0.5 1.790126,-0.250529 3.050271,-0.987652 3.8125,-2.0625 0.19259,-0.27159 0.26497,-0.60655 0.40625,-0.90625 z m -6.59375,3.40625 c 0.133097,0.491321 0.324134,0.94647 0.5625,1.34375 0.30177,0.50295 1.12425,0.58116 1.59375,0.71875 0.4695,0.13759 0.94867,0.15808 1.34375,0.21875 0.27178,0.0607 0.4429,0.18635 0.5625,0.28125 0.26313,0.277 -0.50205,0.61232 -0.78125,0.65625 -0.59499,0.0743 -1.12711,-0.0109 -2,0.0625 -0.87289,0.0731 -2.17808,0.21251 -2.9375,0.65625 -0.75942,0.44374 -0.82079,1.48969 -0.875,2.625 -0.056426,1.182436 0.4341498,2.299922 1.5,3.25 C 9.8650498,23.455498 8.9773406,22.861947 8.34375,21.625 7.62682,20.22536 7.27073,17.9291 7.78125,14.53125 c 1.39107,0.07587 2.599428,-0.113347 3.9375,-0.59375 z"
         style="font-size:medium;font-style:normal;font-variant:normal;font-weight:normal;font-stretch:normal;text-indent:0;text-align:start;text-decoration:none;line-height:normal;letter-spacing:normal;word-spacing:normal;text-transform:none;direction:ltr;block-progression:tb;writing-mode:lr-tb;text-anchor:start;baseline-shift:baseline;color:#000000;fill:#a05f34;fill-opacity:1;stroke:none;stroke-width:1px;marker:none;visibility:visible;display:inline;overflow:visible;enable-background:accumulate;font-family:Sans;-inkscape-font-specification:Sans" />
      <path
         sodipodi:nodetypes="cc"
         transform="translate(360.9375,409.84883)"
         inkscape:connector-curvature="0"
         id="path3868"
         d="M 18.809647,3.1733309 C 17.878476,3.3021028 16.947306,1.7332606 16.016135,0.25566283"
         style="fill:none;stroke:#000000;stroke-width:0.5;stroke-linecap:butt;stroke-linejoin:miter;stroke-miterlimit:4;stroke-opacity:1;stroke-dasharray:none" />
    </g>
    <use
       x="0"
       y="0"
       xlink:href="#g3870"
       id="use3876"
       transform="matrix(-1,0,0,1,773.26639,0)"
       width="52.375"
       height="43.213669" />
  </g>
</svg>
