<?xml version="1.0" encoding="utf-8"?>
<!-- Generator: Adobe Illustrator 15.1.0, SVG Export Plug-In . SVG Version: 6.00 Build 0)  -->
<!DOCTYPE svg PUBLIC "-//W3C//DTD SVG 1.1//EN" "http://www.w3.org/Graphics/SVG/1.1/DTD/svg11.dtd">
<svg version="1.1" xmlns="http://www.w3.org/2000/svg" xmlns:xlink="http://www.w3.org/1999/xlink" x="0px" y="0px"
	 width="53.858px" height="45.354px" viewBox="0 0 53.858 45.354" enable-background="new 0 0 53.858 45.354" xml:space="preserve">
<g id="base">
	<path id="front-base" fill="#FFFFFF" stroke="#E3E2DB" stroke-width="0.3125" d="M0.943,44.132
		C9.675-3.162,6.286,1.453,15.21,1.275H38.65c8.926,0.177,5.535-4.438,14.266,42.856H0.943z"/>
</g>
<g id="front-torso">
	<defs>
		<path id="SVGID_1_" d="M1.454,43.707C3.386,33.219,4.733,25.223,5.72,19.361C8.592,2.31,8.826,1.648,11.979,1.648
			c0.331,0,0.689,0.012,1.082,0.024c0.481,0.016,1.012,0.033,1.6,0.033c0.181,0,0.366-0.002,0.558-0.005H38.65
			c0.183,0.003,0.369,0.005,0.55,0.005c0.588,0,1.118-0.018,1.6-0.033c0.393-0.013,0.751-0.024,1.082-0.024
			c3.153,0,3.388,0.662,6.256,17.701c0.987,5.864,2.334,13.862,4.268,24.358H1.454z"/>
	</defs>
	<clipPath id="SVGID_2_">
		<use xlink:href="#SVGID_1_"  overflow="visible"/>
	</clipPath>
	<path clip-path="url(#SVGID_2_)" fill="#E3E2DB" d="M38.223,32.797c-0.088-0.06-0.207-0.039-0.271,0.045
		c-0.244,0.328-0.716,0.495-1.158,0.639c-0.452,0.14-0.923,0.24-1.396,0.323c-0.949,0.163-1.914,0.259-2.879,0.313
		c-0.965,0.058-1.936,0.054-2.893-0.019c-0.479-0.014-0.954-0.128-1.411-0.276c-0.174-0.056-0.57-0.255-0.599-0.317
		c-0.205-0.319-0.286-0.638-0.256-0.957c-0.02-3.101-0.289-2.892,1.952-4.247c0.771-0.465,1.643-0.479,2.494-0.447
		c0.876,0,1.787,0.001,2.675,0.314c0.891,0.329,1.764,0.743,2.642,1.164c0.056,0.027,0.126,0.014,0.166-0.036
		c0.048-0.06,0.039-0.146-0.02-0.192c-0.767-0.62-1.794-1.356-2.487-1.62c-0.694-0.265-1.86-0.379-2.938-0.476
		c-1.108-0.064-3.049,0.416-3.049,0.416s-1.104,0.341-1.866,0.355c-0.762-0.015-1.867-0.355-1.867-0.355s-1.94-0.48-3.049-0.416
		c-1.077,0.097-2.242,0.211-2.938,0.476c-0.694,0.264-1.721,1-2.487,1.62c-0.059,0.047-0.067,0.133-0.02,0.192
		c0.04,0.05,0.11,0.063,0.166,0.036c0.878-0.421,1.751-0.835,2.642-1.164c0.888-0.313,1.799-0.314,2.675-0.314
		c0.852-0.031,1.723-0.018,2.494,0.447c2.242,1.355,1.971,1.146,1.952,4.247c0.03,0.319-0.051,0.638-0.256,0.957
		c-0.028,0.063-0.424,0.262-0.599,0.317c-0.457,0.148-0.933,0.263-1.411,0.276c-0.957,0.072-1.927,0.076-2.892,0.019
		c-0.965-0.054-1.93-0.149-2.879-0.313c-0.474-0.083-0.944-0.184-1.397-0.323c-0.442-0.144-0.914-0.311-1.158-0.639
		c-0.063-0.084-0.183-0.104-0.27-0.045c-0.089,0.063-0.112,0.185-0.05,0.274l0.003,0.005c0.334,0.485,0.853,0.672,1.305,0.877
		c0.47,0.191,0.949,0.339,1.431,0.468c0.965,0.255,1.942,0.442,2.926,0.587c0.984,0.142,1.972,0.257,2.974,0.346
		c0.501,0.022,1.177,0.043,1.526,0.204c0.249,0.114,0.672,0.552,0.727,0.817c0.051,0.319,0.083,0.638,0.125,0.957
		c0.068,0.638,0.061,1.276-0.052,1.914c-0.034,0.319-0.209,0.823-0.436,0.957c-0.875,0.516-4.059,0.368-4.059,0.368
		c-1.409-0.001-2.815-0.225-4.224-0.245c-0.001,0-0.004,0-0.006,0c-0.115,0.002-0.207,0.096-0.205,0.211
		c0.001,0.115,0.14,0.186,0.211,0.205c1.021,0.275,2.811,0.329,4.212,0.414c1.245,0.075,2.705,0.016,3.717,0.355
		c0.316,0.106,0.657,0.356,0.675,0.605c0.05,0.319,0.12,0.638,0.138,0.957c0.051,0.638,0.053,1.276-0.138,1.914
		c-0.028,0.095-0.03,0.197,0,0.299c0.066,0.224,0.275,0.358,0.496,0.362l0,0c0.001,0-0.001,0,0,0s-0.001,0,0,0l0,0
		c0.221-0.004,0.429-0.139,0.496-0.362c0.03-0.102,0.028-0.204,0-0.299c-0.191-0.638-0.189-1.276-0.139-1.914
		c0.018-0.319,0.088-0.638,0.139-0.957c0.018-0.249,0.359-0.499,0.674-0.605c1.013-0.34,2.473-0.28,3.717-0.355
		c1.402-0.085,3.19-0.139,4.212-0.414c0.071-0.02,0.21-0.09,0.211-0.205c0.002-0.115-0.09-0.209-0.205-0.211
		c-0.001,0-0.004,0-0.006,0c-1.407,0.021-2.814,0.244-4.224,0.245c0,0-3.183,0.147-4.059-0.368
		c-0.226-0.134-0.401-0.638-0.436-0.957c-0.113-0.638-0.12-1.276-0.052-1.914c0.041-0.319,0.073-0.638,0.124-0.957
		c0.055-0.266,0.478-0.703,0.726-0.817c0.35-0.161,1.025-0.182,1.527-0.204c1.001-0.089,1.989-0.204,2.974-0.346
		c0.984-0.145,1.961-0.332,2.926-0.587c0.481-0.129,0.961-0.276,1.431-0.468c0.452-0.205,0.971-0.392,1.305-0.877l0.003-0.005
		C38.335,32.981,38.312,32.859,38.223,32.797z"/>
	
		<path clip-path="url(#SVGID_2_)" fill="#0B75BC" stroke="#091724" stroke-width="0.4252" stroke-linecap="round" stroke-linejoin="round" stroke-miterlimit="10" d="
		M53.916,7.088c0,0-16.81-2.836-26.986-2.835C16.775,4.255,0,7.088,0,7.088s-2.917,20.68,9.781,20.68
		c12.384,0,11.308-6.009,17.17-6.042c5.878,0.021,4.79,6.041,17.184,6.041C56.833,27.768,53.916,7.088,53.916,7.088z"/>
	<path clip-path="url(#SVGID_2_)" fill="#0A629E" d="M37.762,5.206c-0.76-0.078-1.521-0.15-2.279-0.218
		c-0.112,0.059-0.251,0.077-0.391,0.042c-0.057-0.015-0.122-0.05-0.191-0.093c-0.488-0.042-0.974-0.08-1.457-0.117
		c-0.091,0.2-0.185,0.391-0.284,0.478c-0.35,0.306-1.292,0.35-1.854,0.133c-0.233-0.089-0.298,0.047-0.157-0.489
		c0.023-0.089,0.057-0.178,0.092-0.268c-0.329-0.019-0.655-0.035-0.978-0.05c-0.013,0.379-0.294,0.866-0.498,1.069
		c-0.381,0.377-1.741,1.168-1.789,1.177c-0.524,0.106-1.133,0.137-1.133,0.137s-0.609-0.03-1.131-0.137
		c-0.049-0.009-1.409-0.8-1.79-1.177c-0.204-0.202-0.482-0.682-0.5-1.06c-0.321,0.016-0.646,0.033-0.973,0.052
		c0.034,0.086,0.065,0.172,0.087,0.257c0.142,0.536,0.076,0.4-0.157,0.489c-0.563,0.217-1.505,0.173-1.854-0.133
		c-0.098-0.085-0.189-0.269-0.279-0.464c-0.495,0.038-0.993,0.08-1.493,0.123c-0.058,0.034-0.112,0.06-0.161,0.072
		c-0.129,0.033-0.258,0.021-0.365-0.026c-0.739,0.067-1.48,0.138-2.219,0.214c3.215,0.436,7.996,1.844,9.1,2.933
		c0.502,0.494,1.266,1.661,1.203,2.054c-0.074,0.456,0.256,2.512,0.21,3.14c-0.046,0.618-0.135,2.851-0.215,3.324
		c-0.092,0.543-0.199,1.064-0.324,1.542c-0.08,0.304-0.438,0.616-0.773,0.964c-0.069,0.072-0.188,0.121-0.204,0.221
		c-0.013,0.076,0.055,0.135,0.077,0.193c0.157,0.42,0.139,0.601-0.083,0.865c-0.39,0.467-0.88,0.593-2.317,0.762
		c-1.116,0.131-2.995,0.042-5.21-0.025c-3.417-0.104-6.529-1.106-6.553-1.124c-0.113-0.096-2.596-1.075-3.735-3.052
		c-0.072,0.184-0.331,2.089,0.042,2.817c1.024,0.669,2.887,1.362,2.655,2.114c-0.097,0.314-0.556,0.215-1.315,0.039
		c-1.313-0.303-1.716-1.132-1.859-1.012c-0.199,0.162,0.056,1.344,1.314,1.727c0.797,0.242,2.788,0.107,2.788,0.107
		c0.002-0.068,0.974,0.741,1.971,1.236c1.05,0.519,2.079,0.808,2.132,0.653c0.091-0.271-0.955-0.477-1.94-1.085
		c-1.049-0.648-1.367-1.115-1.363-1.167c0.009-0.18,2.889,0.02,6.099,0.105c2.196,0.061,3.917-0.008,5.218-0.342
		c1.475-0.379,2.407-1.051,2.876-1.402c0.032-0.025,0.31-0.198,0.566-0.044c0.239,0.145,0.475,0.616,0.475,0.616
		s0.236-0.472,0.475-0.616c0.258-0.154,0.535,0.02,0.57,0.045c0.467,0.351,1.399,1.021,2.873,1.401
		c1.3,0.334,3.021,0.402,5.218,0.342c3.209-0.086,6.088-0.285,6.099-0.105c0.004,0.053-0.313,0.52-1.362,1.167
		c-0.985,0.608-2.031,0.813-1.94,1.085c0.053,0.154,1.081-0.135,2.132-0.653c0.996-0.495,1.969-1.304,1.972-1.236
		c0,0,1.99,0.135,2.787-0.107c1.258-0.383,1.515-1.565,1.315-1.727c-0.146-0.119-0.548,0.709-1.86,1.012
		c-0.76,0.176-1.218,0.275-1.316-0.039c-0.229-0.752,1.632-1.445,2.656-2.114c0.373-0.729,0.114-2.634,0.042-2.817
		c-1.14,1.977-3.621,2.956-3.734,3.052c-0.023,0.018-3.136,1.021-6.553,1.124c-2.217,0.067-4.095,0.156-5.211,0.025
		c-1.437-0.169-1.926-0.293-2.317-0.762c-0.222-0.266-0.238-0.445-0.083-0.865c0.022-0.059,0.092-0.117,0.077-0.193
		c-0.015-0.1-0.134-0.148-0.203-0.221c-0.336-0.348-0.693-0.661-0.773-0.964c-0.125-0.479-0.232-1-0.324-1.542
		c-0.08-0.473-0.17-2.706-0.215-3.324c-0.045-0.628,0.283-2.684,0.211-3.14c-0.063-0.394,0.701-1.56,1.202-2.054
		C29.691,7.052,34.546,5.628,37.762,5.206z"/>
	
		<path id="muscles" sodipodi:nodetypes="scscssscscssscsccsscsssscsscscccccsccccsssscsscssscssccccscsssccccccccccccssscsccccsscssscsscssssccccscccccscsscssssscccsssssccsssccsssssccsssssssssscssssssssssccsssssccssscsssccsccsssssccccssssssssssssssccccsssssccsccsssccsssccsssccscscccccssssssccsssssssssccsssssscccccscs" inkscape:connector-curvature="0" display="none" opacity="0.2" clip-path="url(#SVGID_2_)" fill="#0A1825" d="
		M14.919,2.02c-0.204,0.003-0.408,0.01-0.606,0.016c-0.797,0.025-1.551,0.082-2.233,0.184C10.712,2.422,9.603,2.77,9.287,3.715
		c0.588-0.553,1.116-0.856,2.771-1.072c1.301-0.171,3.034,0.012,4.713,0.073c3.356,0.122,6.952,0.619,8.776,0.894
		c0.594,0.09,0.964,0.379,1.15,0.612c0.152,0.224,0.257,0.858,0.352,0.88c0.127,0.028,0.236-0.629,0.417-0.875
		c0.186-0.233,0.552-0.526,1.151-0.617c1.824-0.274,5.419-0.771,8.776-0.894c1.678-0.062,3.411-0.244,4.712-0.073
		c1.655,0.216,2.184,0.52,2.772,1.072c-0.317-0.945-1.427-1.293-2.793-1.496c-0.684-0.102-1.438-0.158-2.233-0.184
		c-0.398-0.012-0.809-0.019-1.225-0.016c-0.415,0.004-0.834,0.017-1.26,0.031c-3.405,0.125-7.015,0.618-8.85,0.895
		c-0.628,0.095-1.113,0.344-1.434,0.659c-0.319-0.316-0.809-0.563-1.438-0.659c-1.836-0.276-5.445-0.77-8.85-0.895
		c-0.426-0.015-0.846-0.027-1.261-0.031C15.329,2.019,15.124,2.017,14.919,2.02L14.919,2.02z M7.884,14.142
		c-0.43,1.002-0.427,1.952-0.251,2.741s0.551,1.452,1.208,1.774c0.457,0.223,1.084,0.444,1.82,0.659
		c-0.188,0.1-0.38,0.23-0.56,0.402c-0.275,0.268-0.395,0.656-0.528,1.163c-0.009,0.033-0.018,0.07-0.026,0.104
		c-0.791-0.209-1.718-0.807-2.678-1.59l-0.418,0.518c0.998,0.815,1.976,1.491,2.955,1.732c-0.06,0.319-0.112,0.657-0.157,1.004
		c-0.035,0.279-0.068,0.561-0.094,0.843c-0.795-0.206-1.728-0.809-2.693-1.596l-0.419,0.518c1.033,0.842,2.046,1.541,3.06,1.758
		c-0.045,0.771-0.038,1.487,0.031,2.008c0.075,0.558,0.502,1.005,1.052,1.423c0.549,0.418,1.252,0.803,1.987,1.135
		c0.735,0.333,1.489,0.682,2.181,0.806c0.604,0.108,1.011,0.463,1.329,0.753c0.119,0.634,0.325,1.257,0.586,1.721
		c0.219,0.392,0.395,0.774,0.68,1.099c0.204,0.232,0.479,0.421,0.826,0.523c-0.311,0.282-0.492,0.686-0.575,1.166
		c-0.153,0.884-0.275,1.909,0.24,2.829c0.22,0.392,0.396,0.774,0.681,1.099c0.131,0.149,0.291,0.28,0.48,0.382
		c-0.036,0.027-0.07,0.054-0.104,0.084c-0.313,0.282-0.496,0.688-0.58,1.172c-0.134,0.767-0.237,1.635,0.073,2.452h0.727
		c-0.358-0.682-0.285-1.507-0.142-2.338v-0.005c0.067-0.385,0.196-0.626,0.372-0.784c0.175-0.158,0.413-0.252,0.784-0.262
		c0.454-0.013,1.657-0.096,2.882-0.167c1.226-0.072,2.495-0.125,2.897-0.089c0.433,0.038,0.713,0.153,0.895,0.309
		c0.182,0.154,0.288,0.357,0.34,0.643c0.001,0.002,0,0.004,0,0.006c-0.115,0.666-0.186,1.401-0.031,2.29
		c0.004,0.02,0.012,0.039,0.016,0.058c-0.05,0.119-0.111,0.231-0.183,0.34h0.287h0.497h0.288c-0.072-0.108-0.134-0.221-0.184-0.34
		c0.004-0.019,0.012-0.038,0.016-0.058c0.155-0.889,0.084-1.624-0.031-2.29c0-0.002,0-0.004,0-0.006
		c0.052-0.285,0.158-0.488,0.34-0.643c0.182-0.155,0.462-0.271,0.895-0.309c0.402-0.036,1.673,0.017,2.897,0.089
		c1.225,0.071,2.429,0.154,2.882,0.167c0.371,0.01,0.609,0.104,0.784,0.262c0.176,0.158,0.305,0.399,0.372,0.784v0.005
		c0.144,0.831,0.217,1.656-0.142,2.338h0.728c0.311-0.817,0.206-1.686,0.073-2.452c-0.084-0.483-0.268-0.89-0.581-1.172
		c-0.033-0.03-0.068-0.057-0.104-0.084c0.189-0.102,0.351-0.232,0.481-0.382c0.285-0.324,0.46-0.707,0.68-1.099
		c0.516-0.92,0.394-1.945,0.24-2.829c-0.083-0.48-0.265-0.884-0.575-1.166c0.348-0.103,0.622-0.291,0.826-0.523
		c0.285-0.324,0.461-0.707,0.681-1.099c0.26-0.464,0.466-1.087,0.585-1.721c0.318-0.29,0.725-0.645,1.329-0.753
		c0.691-0.124,1.445-0.473,2.181-0.806c0.735-0.332,1.438-0.717,1.987-1.135c0.55-0.418,0.977-0.865,1.052-1.423
		c0.069-0.521,0.076-1.236,0.031-2.008c1.014-0.218,2.026-0.916,3.06-1.758l-0.418-0.518c-0.967,0.788-1.899,1.39-2.694,1.596
		c-0.025-0.282-0.058-0.563-0.094-0.843c-0.045-0.348-0.098-0.686-0.157-1.004c0.979-0.241,1.957-0.917,2.955-1.732l-0.418-0.518
		c-0.96,0.783-1.887,1.381-2.678,1.59c-0.009-0.033-0.018-0.07-0.026-0.104c-0.134-0.506-0.253-0.895-0.528-1.163
		c-0.18-0.172-0.372-0.303-0.56-0.402c0.736-0.215,1.363-0.436,1.82-0.659c0.657-0.322,1.032-0.984,1.208-1.774
		s0.18-1.739-0.251-2.741c-0.243,1.028-0.252,1.918-0.403,2.595c-0.15,0.676-0.42,1.11-0.847,1.319
		c-1.163,0.568-3.936,1.237-6.914,1.784c-2.979,0.547-6.191,0.991-8.343,1.198c-0.588,0.057-1.042-0.184-1.412-0.592
		c-0.37-0.406-1.143-1.653-1.25-2.186l-0.026,0.162l-0.031-0.162c-0.107,0.533-0.88,1.78-1.25,2.186
		c-0.37,0.409-0.824,0.649-1.412,0.592c-2.151-0.207-5.363-0.651-8.342-1.198c-2.979-0.547-5.752-1.215-6.915-1.784
		c-0.426-0.209-0.696-0.643-0.847-1.319C8.137,16.06,8.127,15.169,7.884,14.142L7.884,14.142z M27.084,19.487
		c0.157,0.502,0.411,1.002,0.779,1.409c0.475,0.522,1.16,0.888,1.972,0.81c2.18-0.208,5.401-0.657,8.4-1.208
		c1.481-0.271,2.897-0.563,4.116-0.867v0.053c0,0,0.703-0.006,1.244,0.518c0.048,0.045,0.223,0.389,0.346,0.852
		c0.122,0.464,0.229,1.055,0.309,1.679c0.16,1.247,0.212,2.635,0.115,3.357c-0.031,0.232-0.309,0.608-0.795,0.979
		c-0.487,0.37-1.153,0.738-1.857,1.057c-1.44,0.646-2.107,0.939-3.231,0.104c-0.05-0.258-0.104-0.47-0.22-0.68
		c-0.165-0.298-0.419-0.539-0.853-0.905c-0.174-0.146-0.386-0.24-0.67-0.345c-0.284-0.105-0.629-0.21-1.02-0.314
		c-0.782-0.207-1.744-0.409-2.71-0.58c-0.965-0.172-1.936-0.313-2.729-0.393c-0.397-0.04-0.749-0.062-1.041-0.068
		c-0.073-0.001-0.14-0.005-0.204-0.005c-0.194,0-0.357,0.014-0.507,0.058c-0.494,0.145-0.881,0.287-1.188,0.518
		c-0.099,0.074-0.182,0.162-0.257,0.257c-0.075-0.095-0.162-0.183-0.261-0.257c-0.307-0.23-0.694-0.373-1.188-0.518
		c-0.15-0.044-0.313-0.058-0.508-0.058c-0.064,0-0.131,0.004-0.204,0.005c-0.292,0.006-0.644,0.028-1.04,0.068
		c-0.794,0.08-1.766,0.221-2.73,0.393c-0.966,0.171-1.927,0.373-2.709,0.58c-0.392,0.104-0.736,0.209-1.021,0.314
		c-0.283,0.104-0.496,0.198-0.669,0.345c-0.435,0.366-0.688,0.607-0.853,0.905c-0.116,0.21-0.171,0.422-0.22,0.68
		c-1.125,0.835-1.792,0.542-3.232-0.104c-0.704-0.318-1.37-0.687-1.856-1.057c-0.487-0.37-0.765-0.746-0.795-0.979
		c-0.098-0.723-0.045-2.11,0.114-3.357c0.08-0.624,0.187-1.215,0.309-1.679c0.123-0.463,0.298-0.807,0.346-0.852
		c0.542-0.523,1.245-0.518,1.245-0.518V19.63c1.219,0.305,2.635,0.596,4.116,0.867c2.999,0.551,6.22,1,8.399,1.208
		c0.812,0.078,1.498-0.287,1.972-0.81C26.668,20.489,26.927,19.989,27.084,19.487L27.084,19.487z M24.94,25.613
		c0.265-0.006,0.468,0.015,0.508,0.026c0.467,0.136,0.785,0.267,0.973,0.408c0.188,0.141,0.273,0.274,0.324,0.554
		c0.001,0.005-0.001,0.017,0,0.021c-0.139,0.961-0.204,3.627-0.031,4.623c0.006,0.036,0.019,0.069,0.026,0.104
		c-0.206,0.672-0.777,1.24-1.109,1.36c0.016-0.006-0.151,0.028-0.36,0.052c-0.209,0.024-0.488,0.05-0.811,0.073
		c-0.646,0.048-1.468,0.095-2.307,0.131c-1.679,0.074-3.46,0.108-3.886,0.079c-0.429-0.031-0.622-0.155-0.816-0.377
		c-0.193-0.221-0.365-0.564-0.597-0.979v-0.005c-0.395-0.705-0.701-2.266-0.575-2.991v-0.006c0.075-0.43,0.115-0.644,0.21-0.815
		c0.095-0.173,0.276-0.363,0.695-0.717c0.04-0.033,0.223-0.136,0.476-0.229s0.58-0.193,0.957-0.293
		c0.755-0.201,1.706-0.401,2.657-0.57s1.907-0.305,2.678-0.382C24.337,25.643,24.676,25.619,24.94,25.613L24.94,25.613z
		 M29.224,25.613c0.265,0.006,0.604,0.029,0.988,0.068c0.771,0.077,1.727,0.212,2.678,0.382c0.951,0.169,1.902,0.369,2.657,0.569
		c0.377,0.101,0.704,0.199,0.957,0.293s0.436,0.196,0.476,0.23c0.419,0.354,0.601,0.544,0.696,0.717
		c0.095,0.172,0.135,0.386,0.209,0.815v0.005c0.126,0.727-0.181,2.287-0.575,2.992v0.005c-0.231,0.413-0.402,0.758-0.597,0.979
		s-0.388,0.346-0.815,0.376c-0.427,0.03-2.208-0.005-3.887-0.078c-0.839-0.037-1.661-0.083-2.306-0.131
		c-0.323-0.023-0.602-0.049-0.812-0.073c-0.209-0.023-0.376-0.058-0.36-0.053c-0.332-0.119-0.903-0.688-1.109-1.359
		c0.009-0.035,0.021-0.069,0.026-0.104c0.174-0.996,0.108-3.662-0.031-4.624c0.001-0.005-0.001-0.017,0-0.021
		c0.052-0.28,0.137-0.413,0.324-0.555c0.188-0.141,0.506-0.271,0.973-0.408C28.756,25.628,28.959,25.607,29.224,25.613
		L29.224,25.613z M5.384,28.386l-0.538,0.392c1.027,1.409,2.031,2.12,2.358,3.609c0.417,1.896,0.184,6.697,0.481,6.736
		s0.618-4.852,0.173-6.883C7.48,30.518,6.347,29.705,5.384,28.386L5.384,28.386z M48.78,28.386
		c-0.963,1.319-2.096,2.132-2.474,3.854c-0.446,2.031-0.126,6.922,0.172,6.883c0.299-0.039,0.065-4.84,0.481-6.736
		c0.327-1.489,1.331-2.2,2.359-3.609L48.78,28.386z M25.035,33.6c0.214-0.001,0.377,0.002,0.476,0.011
		c0.433,0.039,0.713,0.159,0.895,0.313s0.288,0.353,0.34,0.639c0.001,0.001,0,0.003,0,0.005c-0.115,0.667-0.186,1.406-0.031,2.296
		c0.006,0.036,0.019,0.069,0.026,0.104c-0.206,0.672-0.777,1.24-1.109,1.36c-0.003,0.001-0.137,0.033-0.313,0.058
		c-0.177,0.023-0.413,0.044-0.68,0.067c-0.534,0.048-1.212,0.095-1.904,0.131c-1.384,0.073-2.854,0.109-3.289,0.078
		c-0.429-0.03-0.627-0.155-0.821-0.376c-0.194-0.222-0.364-0.568-0.597-0.983c-0.388-0.693-0.315-1.533-0.167-2.385v-0.006
		c0.066-0.381,0.196-0.627,0.371-0.784c0.176-0.158,0.419-0.251,0.79-0.262c0.451-0.012,1.828-0.096,3.232-0.167
		C23.305,33.646,24.391,33.604,25.035,33.6L25.035,33.6z M28.853,33.6c0.079-0.002,0.17,0,0.276,0
		c0.644,0.004,1.729,0.046,2.783,0.1c1.403,0.071,2.781,0.155,3.232,0.167c0.371,0.011,0.614,0.104,0.789,0.262
		c0.175,0.157,0.305,0.403,0.371,0.784v0.006c0.148,0.852,0.222,1.691-0.167,2.385c-0.232,0.415-0.401,0.762-0.596,0.983
		c-0.195,0.221-0.394,0.346-0.821,0.376c-0.436,0.031-1.906-0.005-3.29-0.078c-0.692-0.036-1.37-0.083-1.904-0.131
		c-0.267-0.023-0.503-0.044-0.68-0.067c-0.176-0.024-0.311-0.057-0.313-0.058c-0.331-0.12-0.897-0.689-1.104-1.36
		c0.007-0.035,0.015-0.068,0.021-0.104c0.155-0.89,0.084-1.629-0.031-2.296c0-0.002,0-0.003,0-0.005
		c0.052-0.286,0.158-0.484,0.34-0.639s0.462-0.274,0.895-0.313C28.704,33.606,28.773,33.602,28.853,33.6L28.853,33.6z"/>
	
		<ellipse clip-path="url(#SVGID_2_)" fill="#091724" stroke="#091724" stroke-width="0.4252" stroke-linecap="round" stroke-linejoin="round" stroke-miterlimit="10" cx="26.929" cy="1.955" rx="9.341" ry="4.213"/>
	<g clip-path="url(#SVGID_2_)">
		<g>
			<path fill="#091724" stroke="#606062" stroke-width="0.4252" stroke-miterlimit="10" d="M54.276,32.221
				C43.427,27.738,40.912,11.599,40.138,4.375c-0.31-2.891-4.444-4.105-4.449-4.32L43.625,0c0.001,0.052-1.241,1.865-1.081,3.629
				c0.613,6.763,2.943,22.505,12.598,26.496L54.276,32.221z"/>
			
				<path fill="#E3E2DB" stroke="#A2A0A2" stroke-width="0.4252" stroke-linecap="round" stroke-linejoin="round" stroke-miterlimit="10" d="
				M43.59,9.987c0.02,0.119-0.091,0.236-0.243,0.261l-2.186,0.363c-0.153,0.025-0.295-0.05-0.315-0.169l-0.148-0.893
				c-0.02-0.119,0.091-0.236,0.243-0.261l2.186-0.363c0.153-0.025,0.295,0.05,0.315,0.169L43.59,9.987z"/>
			
				<path fill="#E3E2DB" stroke="#A2A0A2" stroke-width="0.4252" stroke-linecap="round" stroke-linejoin="round" stroke-miterlimit="10" d="
				M44.976,16.098c0.031,0.117-0.067,0.244-0.217,0.284l-2.139,0.575c-0.15,0.041-0.299-0.021-0.331-0.137l-0.235-0.874
				c-0.031-0.117,0.067-0.244,0.217-0.284l2.139-0.575c0.15-0.041,0.299,0.021,0.331,0.137L44.976,16.098z"/>
		</g>
		<g>
			<path fill="#091724" stroke="#606062" stroke-width="0.4252" stroke-miterlimit="10" d="M-0.417,32.221
				C10.431,27.738,12.947,11.598,13.72,4.375c0.31-2.891,4.444-4.105,4.449-4.32L10.234,0c-0.001,0.052,1.241,1.865,1.081,3.629
				c-0.613,6.763-2.943,22.507-12.598,26.496L-0.417,32.221z"/>
			
				<path fill="#E3E2DB" stroke="#A2A0A2" stroke-width="0.4252" stroke-linecap="round" stroke-linejoin="round" stroke-miterlimit="10" d="
				M10.268,9.987c-0.02,0.119,0.091,0.236,0.243,0.261l2.186,0.363c0.153,0.025,0.295-0.05,0.315-0.169l0.148-0.893
				c0.02-0.119-0.091-0.236-0.243-0.261l-2.186-0.363c-0.153-0.025-0.295,0.05-0.315,0.169L10.268,9.987z"/>
			
				<path fill="#E3E2DB" stroke="#A2A0A2" stroke-width="0.4252" stroke-linecap="round" stroke-linejoin="round" stroke-miterlimit="10" d="
				M8.882,16.098c-0.031,0.117,0.067,0.244,0.217,0.284l2.139,0.575c0.15,0.041,0.299-0.021,0.331-0.137l0.235-0.874
				c0.031-0.117-0.067-0.244-0.217-0.284l-2.139-0.575c-0.15-0.041-0.299,0.021-0.331,0.137L8.882,16.098z"/>
		</g>
		<g id="gun_in_holster_2_">
			<g id="gun_2_">
				<path id="gun_base_2_" stroke="#605F61" stroke-width="0.4252" stroke-linejoin="round" d="M34.792,15.465
					c0,0,5.147,0.927,7.994,1.449c0.794-0.174,1.555-0.608,1.746-1.883c1.309,0.45,2.854,1.203,2.854,1.203s0.905-0.465,1.141-0.288
					c-0.489,0.736,0.048,1.788,0.048,1.788l0.935-0.074l0.127,1.479l-0.523,1.101l0.209,1.38L49.093,22.1l0.141,5.085l-4.226,1.172
					l0.234-3.765c0,0-0.438-0.9-1.652-0.163c-0.163-0.44,1.3-1.353,1.3-1.353s-0.546-0.764-1.618-0.599
					c-1.046,0.16-0.437,2.595-0.437,2.595l-0.906-0.396c0,0,0.372-1.761-0.542-2.748c-1.639-0.78-7.564-1.68-7.564-1.68
					L34.792,15.465z"/>
				<path id="details_2_" fill="none" stroke="#605F61" stroke-width="0.3118" stroke-linejoin="round" d="M46.753,16.002
					l0.367,9.552 M49.153,21.54l-0.769,0.014c0,0-0.224,0.147-0.263,0.223c-0.047,0.09-0.034,0.399-0.034,0.399l0.196,3.588
					 M36.891,15.941l-0.719,1.147l1.489,2.269l2.317-0.869c0,0,4.358,1.877,4.845,1.82c0.293-0.034,1.056-1.114,1.244-1.639
					c0.087-0.237-0.071-1.194-0.071-1.194l-1.914-1.5"/>
			</g>
			<g id="holster_2_">
				<path id="holster_base_2_" fill="#091724" stroke="#3A3B3C" stroke-width="0.3118" stroke-linejoin="round" d="M41.417,22.51
					l2.94-0.205l0.383,0.305l4.124,1.189l0.426-0.018l0.469,9.774l-3.589,0.196c0,0-1.403-1.38-1.742-1.938
					c-0.688-1.129-1.402-3.729-2.079-4.866c-0.237-0.396-1.146-1.445-1.146-1.445L41.417,22.51z"/>
				
					<path id="holster_details_2_" fill="none" stroke="#3A3B3C" stroke-width="0.3118" stroke-linecap="round" stroke-linejoin="round" d="
					M46.629,33.68c0,0,0.005-1.209-0.143-1.578c-0.312-0.797-1.599-2.061-1.858-2.877c-0.515-1.624-0.53-6.934-0.53-6.934
					 M47.464,33.803 M46.921,23.259"/>
			</g>
		</g>
	</g>
	<g id="ammo_belt" clip-path="url(#SVGID_2_)">
		<g>
			
				<path fill="#091724" stroke="#606062" stroke-width="0.4252" stroke-linecap="round" stroke-linejoin="round" stroke-miterlimit="10" d="
				M26.023,37.149c-8.969-0.014-17.938-0.228-26.898-0.65c-0.063,1.332-0.125,2.664-0.188,3.995
				c9.024,0.426,18.055,0.641,27.087,0.654V37.149z"/>
			
				<path fill="#091724" stroke="#606062" stroke-width="0.4252" stroke-linecap="round" stroke-linejoin="round" stroke-miterlimit="10" d="
				M30.398,41.134c8.177-0.048,16.354-0.254,24.523-0.64c-0.063-1.331-0.126-2.663-0.188-3.995
				c-8.107,0.383-16.221,0.587-24.335,0.635V41.134z"/>
		</g>
		<path fill="#091724" stroke="#606062" stroke-width="0.3118" stroke-linejoin="round" stroke-miterlimit="10" d="M28.381,37.533
			c0.436,0,0.813-0.266,0.976-0.646c0,0,1.147,0.193,1.442,0.438c0.459,0.379,0.459,3.34,0,3.717
			c-0.295,0.248-1.442,0.44-1.442,0.44c-0.163-0.381-0.54-0.646-0.976-0.646c-0.437,0-0.811,0.266-0.976,0.646h-1.941v-4.595h1.941
			C27.571,37.268,27.945,37.533,28.381,37.533z M22.714,36.887v4.595h2.314v-4.595H22.714z"/>
		<g id="pouch_wide">
			<path fill="#091724" stroke="#606062" stroke-width="0.4252" d="M16.854,42.134c-0.014,0.416-0.364,0.742-0.782,0.727
				L4.374,42.446c-0.417-0.015-0.741-0.365-0.729-0.781l-0.004-5.01c0.014-0.416,0.365-0.742,0.782-0.729l12.202,0.432
				c0.417,0.016,0.743,0.366,0.728,0.782L16.854,42.134z"/>
			<path fill="none" stroke="#606062" stroke-width="0.4252" d="M17.156,39.196c-0.016,0.417-0.367,0.744-0.784,0.729
				c0,0-4.599,0.217-6.128,0.162C8.762,40.031,4.337,39.5,4.337,39.5c-0.417-0.016-0.742-0.365-0.728-0.785"/>
			<circle fill="none" stroke="#606062" stroke-width="0.2835" stroke-miterlimit="10" cx="10.483" cy="38.455" r="0.602"/>
		</g>
		<g>
			<path fill="#091724" stroke="#606062" stroke-width="0.5669" stroke-miterlimit="10" d="M48.575,42.392
				c0.009,0.313-0.238,0.573-0.55,0.583l-5.164,0.157c-0.313,0.009-0.574-0.237-0.583-0.552l-0.317-5.541
				c-0.01-0.313,0.236-0.575,0.551-0.584l5.447-0.164c0.313-0.008,0.573,0.238,0.583,0.551L48.575,42.392z"/>
			<path fill="none" stroke="#606062" stroke-width="0.4252" stroke-linejoin="round" stroke-miterlimit="10" d="M42.194,38.95
				c0,0,1.307-0.108,1.736,0.09c0.344,0.158,0.761,0.829,1.417,0.808c0.593-0.018,1.032-0.714,1.366-0.892
				c0.446-0.235,1.71-0.193,1.71-0.193"/>
			<circle fill="none" stroke="#606062" stroke-width="0.2835" stroke-miterlimit="10" cx="45.294" cy="38.367" r="0.602"/>
		</g>
	</g>
</g>
</svg>
