<?xml version="1.0" encoding="utf-8"?>
<!-- Generator: Adobe Illustrator 15.1.0, SVG Export Plug-In . SVG Version: 6.00 Build 0)  -->
<!DOCTYPE svg PUBLIC "-//W3C//DTD SVG 1.1//EN" "http://www.w3.org/Graphics/SVG/1.1/DTD/svg11.dtd">
<svg version="1.1" xmlns="http://www.w3.org/2000/svg" xmlns:xlink="http://www.w3.org/1999/xlink" x="0px" y="0px"
	 width="53.858px" height="62.915px" viewBox="0 0 53.858 62.915" enable-background="new 0 0 53.858 62.915" xml:space="preserve">
<g id="base">
	<path id="front-base" fill="#033A57" stroke="#033A57" stroke-width="0.3125" d="M0.943,44.132
		C9.675-3.162,6.286,1.453,15.21,1.275H38.65c8.926,0.177,5.535-4.438,14.266,42.856H0.943z"/>
</g>
<g id="front-torso">
	<defs>
		<path id="SVGID_1_" d="M1.454,43.707C3.386,33.219,4.733,25.223,5.72,19.361C8.592,2.31,8.826,1.648,11.979,1.648
			c0.331,0,0.689,0.012,1.082,0.024c0.481,0.016,1.012,0.033,1.6,0.033c0.181,0,0.366-0.002,0.558-0.005H38.65
			c0.183,0.003,0.369,0.005,0.55,0.005c0.588,0,1.118-0.018,1.6-0.033c0.393-0.013,0.751-0.024,1.082-0.024
			c3.153,0,3.388,0.662,6.256,17.701c0.987,5.864,2.334,13.862,4.268,24.358H1.454z"/>
	</defs>
	<clipPath id="SVGID_2_">
		<use xlink:href="#SVGID_1_"  overflow="visible"/>
	</clipPath>
	<path clip-path="url(#SVGID_2_)" fill="#F4D7B3" d="M48.488,18.881c-2.974-1.855-6.991-6.42-8.382-17.622
		C45.458,1.124,45.354,0.271,48.488,18.881z M19.996,9.24c0.208,0.208,0.732,0.486,0.861,0.535c4.74,1.768,5.89,4.121,6.046,4.493
		c0.155-0.372,1.305-2.725,6.044-4.493c0.13-0.048,0.654-0.326,0.862-0.535c2.808-2.027,3.419-5.835,3.531-7.973H16.462
		C16.575,3.404,17.186,7.213,19.996,9.24z M5.371,18.845c2.968-1.877,6.943-6.457,8.326-17.587
		C8.397,1.119,8.489,0.329,5.371,18.845z"/>
	<g clip-path="url(#SVGID_2_)">
		<path fill="#091724" d="M51.838,20.296c-2.353-0.313-4.37-1.707-5.932-3.381c-1.602-1.732-2.757-3.82-3.63-5.987
			c-0.873-2.174-1.465-4.448-1.891-6.743c-0.211-1.148-0.38-2.304-0.514-3.463l-0.049-0.435c-0.015-0.124-0.032-0.355-0.053-0.319
			c-0.092-0.112-0.411-0.171-0.673-0.182c-0.554-0.026-1.134,0.037-1.692,0.124l0.163-0.209c0.085,1.793-0.113,3.58-0.637,5.297
			c-0.526,1.7-1.479,3.349-2.969,4.422l0.026-0.022c-0.329,0.287-0.627,0.448-1.003,0.61c-0.342,0.132-0.67,0.262-0.998,0.41
			c-0.657,0.288-1.296,0.618-1.904,0.994c-0.607,0.375-1.183,0.803-1.698,1.29c-0.506,0.486-0.982,1.043-1.26,1.654l-0.194,0.427
			l-0.193-0.427c-0.277-0.613-0.752-1.17-1.258-1.658c-0.516-0.488-1.089-0.917-1.697-1.294c-0.607-0.377-1.246-0.708-1.903-0.998
			c-0.327-0.147-0.662-0.28-0.998-0.409c-0.376-0.162-0.674-0.324-1-0.608l0.025,0.021c-1.488-1.071-2.441-2.716-2.968-4.415
			c-0.524-1.715-0.724-3.502-0.64-5.294l0.158,0.202c-0.559-0.087-1.14-0.149-1.694-0.123c-0.262,0.012-0.582,0.069-0.677,0.184
			c-0.032,0.003-0.034,0.177-0.054,0.322l-0.048,0.434c-0.133,1.16-0.301,2.316-0.512,3.464c-0.424,2.295-1.015,4.569-1.887,6.744
			c-0.872,2.167-2.021,4.259-3.62,5.997c-1.592,1.711-3.646,3.141-6.075,3.425l0.177-0.159l-3.58,25.67l-0.212-0.244l57.309-0.01
			l-0.223,0.256L51.838,20.296z M52.11,20.027l3.696,25.773l0.037,0.256h-0.26l-57.309-0.01h-0.247l0.035-0.245L1.7,20.14
			l0.02-0.141l0.157-0.018c2.238-0.257,4.285-1.633,5.823-3.299c1.561-1.691,2.7-3.743,3.557-5.884
			c0.856-2.148,1.438-4.401,1.854-6.679c0.207-1.14,0.371-2.288,0.501-3.439l0.047-0.434l0.023-0.217
			c-0.001-0.05,0.035-0.226,0.11-0.299c0.321-0.314,0.648-0.287,0.947-0.326c0.609-0.029,1.191,0.035,1.781,0.125l0.166,0.025
			l-0.008,0.177c-0.078,1.724,0.122,3.494,0.634,5.147c0.515,1.646,1.431,3.204,2.83,4.207l0.006,0.004l0.019,0.017
			c0.219,0.195,0.566,0.396,0.857,0.513c0.343,0.131,0.684,0.266,1.02,0.416c0.673,0.295,1.329,0.633,1.957,1.021
			c0.627,0.388,1.224,0.832,1.766,1.342c0.535,0.519,1.031,1.082,1.359,1.796l-0.388,0c0.326-0.716,0.821-1.28,1.355-1.8
			c0.541-0.512,1.138-0.957,1.765-1.346c0.627-0.39,1.282-0.729,1.955-1.025c0.679-0.31,1.401-0.492,1.874-0.925l0.019-0.016
			l0.008-0.006c1.396-1,2.313-2.556,2.827-4.2c0.512-1.651,0.712-3.42,0.636-5.144l-0.008-0.183l0.171-0.026
			c0.59-0.09,1.172-0.153,1.781-0.124c0.301,0.041,0.628,0.011,0.951,0.329c0.17,0.271,0.093,0.364,0.135,0.519l0.046,0.432
			c0.13,1.152,0.294,2.3,0.5,3.439c0.414,2.278,0.995,4.531,1.85,6.68c0.854,2.141,1.986,4.197,3.546,5.894
			c1.537,1.671,3.578,3.056,5.833,3.32L52.11,20.027z"/>
	</g>
	<path id="abs" clip-path="url(#SVGID_2_)" fill="#1B528B" d="M18.93,41.834c-0.473-1.338-0.779-2.713-0.997-4.102
		c-0.177-1.393-0.293-2.8-0.237-4.213c0.022-0.706,0.011-1.406-0.009-2.112c-0.01-0.708-0.125-1.419,0.208-2.199
		c0.049-0.096,0.119-0.196,0.203-0.284c0.062-0.063,0.118-0.125,0.194-0.192c0.145-0.131,0.29-0.242,0.444-0.35
		c0.305-0.216,0.643-0.378,0.984-0.511c0.693-0.241,1.42-0.362,2.136-0.276c0.02,0.002,0.034,0.02,0.031,0.039
		c-0.002,0.016-0.016,0.028-0.03,0.031c-0.68,0.158-1.336,0.373-1.925,0.689c-0.576,0.287-1.168,0.734-1.487,1.154
		c-0.274,0.493-0.424,1.229-0.497,1.905c-0.055,0.693-0.013,1.394,0.097,2.083c0.238,1.379,0.441,2.754,0.64,4.134
		c0.161,1.384,0.29,2.774,0.314,4.189c0,0.021-0.015,0.037-0.035,0.037C18.948,41.858,18.935,41.848,18.93,41.834z M34.882,41.855
		c0.019,0.007,0.039-0.003,0.046-0.021c0.473-1.338,0.778-2.713,0.997-4.102c0.176-1.393,0.293-2.8,0.236-4.213
		c-0.021-0.706-0.011-1.406,0.01-2.112c0.01-0.708,0.125-1.419-0.208-2.199c-0.049-0.096-0.119-0.196-0.203-0.284
		c-0.062-0.063-0.117-0.125-0.193-0.192c-0.146-0.131-0.29-0.241-0.444-0.35c-0.306-0.216-0.643-0.378-0.984-0.511
		c-0.693-0.241-1.42-0.362-2.136-0.276c-0.015,0.003-0.029,0.015-0.031,0.03c-0.003,0.02,0.01,0.037,0.029,0.04
		c0.681,0.158,1.337,0.373,1.926,0.689c0.575,0.287,1.168,0.734,1.487,1.154c0.274,0.493,0.424,1.229,0.496,1.905
		c0.056,0.693,0.013,1.394-0.097,2.083c-0.238,1.379-0.441,2.754-0.64,4.134c-0.161,1.384-0.29,2.774-0.315,4.189
		C34.858,41.836,34.868,41.851,34.882,41.855z M27.228,33.462c-0.124-0.646-0.161-1.364-0.114-2.205c0-0.28,0.013-0.565,0.026-0.853
		c0.02-0.451,0.04-0.917,0.014-1.384l-0.04-0.123l-0.242-0.028l-0.03,0.121c-0.207,0.828-0.335,1.534-0.288,2.295l0.055,0.402
		c0.085,0.621,0.167,1.209,0.157,1.814c-0.004,0.299-0.023,0.602-0.043,0.905c-0.028,0.437-0.057,0.887-0.039,1.331
		c0.007,0.799,0.059,1.538,0.156,2.261l0.017,0.122h0.279l0.017-0.122c0.103-0.729,0.157-1.49,0.16-2.263l0.001-0.186
		C27.316,34.875,27.318,34.177,27.228,33.462z"/>
	<path clip-path="url(#SVGID_2_)" fill="#7B3694" d="M7.219,48.749c-0.561,2.187-6.937,0.666-6.937,0.666L4.816,22.35
		c0,0,3.428,4.066,7.203,4.515c-0.025,2.884,0.317,3.884,0.317,3.884S10.169,37.249,7.219,48.749z M46.636,48.749
		c0.562,2.187,6.937,0.666,6.937,0.666L49.04,22.35c0,0-3.429,4.066-7.202,4.515c0.024,2.884-0.317,3.884-0.317,3.884
		S43.686,37.249,46.636,48.749z"/>
	<path clip-path="url(#SVGID_2_)" fill="#001930" d="M2.567,44.19c-0.073,0.05-0.146,0.074-0.217,0.074
		c-0.065,0-0.586-0.021-0.672-0.124c-0.535-0.642,0.074-4.494,1.178-10.569c0.261-1.436,0.548-3.637,0.969-5.508
		c0.712-3.169,0.889-3.594,1.044-3.594c0.207,0,0.502,1.14,0.511,1.331c0.064,1.489,0.431,2.647,0.819,4.323
		C7.29,34.827,8.525,40.158,2.567,44.19z M51.291,44.19c0.072,0.05,0.146,0.074,0.217,0.074c0.066,0,0.587-0.021,0.673-0.124
		c0.535-0.642-0.074-4.494-1.178-10.569c-0.262-1.436-0.548-3.637-0.97-5.508c-0.711-3.169-0.889-3.594-1.043-3.594
		c-0.207,0-0.502,1.14-0.512,1.331c-0.063,1.489-0.43,2.647-0.818,4.323C46.568,34.827,45.333,40.158,51.291,44.19z"/>
	<g id="belt" clip-path="url(#SVGID_2_)">
		<g>
			<path fill="#FFCE08" d="M49.929,42.439C34.083,43.665,20,43.499,4.071,42.298c0.357-0.962,1.822-2.229,2.57-6.236
				c13.363,1.288,27.076,1.283,40.439-0.013C47.27,38.538,48.862,40.555,49.929,42.439z"/>
			<path fill="#091724" d="M49.939,42.574c-7.628,0.615-15.285,0.941-22.942,0.892c-7.657-0.035-15.305-0.452-22.938-1.005
				L4.053,42.46c-0.088-0.006-0.154-0.082-0.147-0.17c0.001-0.017,0.006-0.034,0.012-0.049c0.236-0.57,0.584-1.006,0.861-1.496
				c0.286-0.481,0.54-0.979,0.758-1.494c0.435-1.03,0.728-2.118,0.933-3.222c0.017-0.089,0.1-0.149,0.188-0.142
				c3.357,0.321,6.723,0.541,10.089,0.742l5.053,0.274c1.686,0.104,3.375-0.021,5.061-0.053c3.372-0.096,6.743-0.049,10.119-0.121
				l2.53-0.09c0.842-0.057,1.681-0.153,2.518-0.271c1.673-0.251,3.356-0.342,5.034-0.511c0.104-0.01,0.198,0.066,0.208,0.171
				l0.001,0.005c0.085,1.145,0.495,2.246,1.033,3.274c0.545,1.027,1.169,2.025,1.743,3.064c0.036,0.065,0.013,0.147-0.053,0.185
				C49.977,42.567,49.958,42.572,49.939,42.574z M49.697,42.314c-0.558-0.944-1.178-1.861-1.697-2.848
				c-0.557-1.047-0.996-2.193-1.094-3.404l0.191,0.161c-3.365,0.258-6.715,0.845-10.104,0.797c-3.381,0.01-6.753,0.15-10.132,0.252
				c-1.689,0.035-3.382,0.117-5.069-0.025c-1.688-0.104-3.372-0.276-5.06-0.32c-3.374-0.147-6.753-0.262-10.121-0.565l0.325-0.244
				c-0.084,0.569-0.249,1.124-0.432,1.67c-0.188,0.547-0.453,1.061-0.659,1.596c-0.229,0.526-0.496,1.036-0.793,1.525
				c-0.289,0.488-0.647,0.955-0.841,1.442l-0.13-0.203c1.905,0.176,3.824,0.146,5.735,0.188c1.909,0.08,3.814,0.241,5.722,0.356
				c0.954,0.056,1.912,0.023,2.867,0.046c0.954,0.058,1.907,0.153,2.861,0.223c1.909,0.104,3.821,0.099,5.732,0.123
				c3.824,0.057,7.645-0.125,11.462-0.276C42.208,42.7,45.949,42.485,49.697,42.314z"/>
		</g>
		<g id="wrinkles_1_">
			<defs>
				<path id="SVGID_3_" d="M49.708,42.382c-15.77,1.769-29.762,1.581-45.531-0.188c1.375-1.813,2.973-3.998,3.125-5.906
					c15.467,1.734,23.858,1.578,39.325-0.156C46.779,38.04,48.364,40.507,49.708,42.382z"/>
			</defs>
			<clipPath id="SVGID_4_">
				<use xlink:href="#SVGID_3_"  overflow="visible"/>
			</clipPath>
			<g id="wrinkles" clip-path="url(#SVGID_4_)">
				<g>
					<path fill="#FAAB1A" d="M40.74,40.68c0.982,0,1.968,0.027,2.949,0.068c0.981,0.05,1.959,0.113,2.921,0.074
						c0.965-0.038,1.902-0.229,2.858-0.365c0.958-0.134,1.92-0.302,2.916-0.38l0.02,0.068c-0.894,0.45-1.833,0.772-2.803,1.008
						c-0.971,0.234-1.99,0.275-2.989,0.236c-2.003-0.086-3.915-0.469-5.876-0.64L40.74,40.68z"/>
				</g>
				<g>
					<path fill="#FAAB1A" d="M36.719,38.923c-1.693,0.818-3.501,1.372-5.359,1.644c-0.936,0.107-1.879,0.117-2.81,0.18
						c-0.931,0.061-1.858,0.169-2.79,0.267c-1.867,0.21-3.735,0.2-5.582,0.205c-1.85-0.045-3.693-0.073-5.566-0.179
						c-0.024-0.001-0.042-0.021-0.041-0.045c0.001-0.02,0.015-0.035,0.033-0.039c1.83-0.433,3.706-0.604,5.574-0.644
						c1.87-0.001,3.72,0.123,5.57,0.235c0.926,0.051,1.856,0.05,2.774-0.075c0.92-0.124,1.817-0.378,2.711-0.603
						c1.801-0.394,3.599-0.77,5.463-1.028c0.023-0.003,0.045,0.014,0.048,0.037C36.747,38.896,36.736,38.915,36.719,38.923z"/>
				</g>
				<g>
					<path fill="#FAAB1A" d="M31.583,41.882c0.626,0.047,1.225-0.024,1.823-0.121l1.798-0.35c0.605-0.111,1.215-0.237,1.848-0.277
						c0.316-0.017,0.638-0.025,0.962,0.017c0.308,0.056,0.688,0.172,0.819,0.481c-0.235-0.217-0.54-0.232-0.833-0.204
						c-0.294,0.016-0.591,0.07-0.887,0.139c-0.592,0.137-1.191,0.276-1.8,0.401c-0.611,0.111-1.231,0.219-1.867,0.226
						C32.818,42.204,32.157,42.159,31.583,41.882z"/>
				</g>
				<g>
					<path fill="#FAAB1A" d="M42.808,38.913c1.076-0.511,2.23-0.864,3.431-1.037c0.598-0.09,1.218-0.174,1.829-0.065
						c0.606,0.109,1.21,0.323,1.697,0.718l-0.025,0.066c-0.617-0.028-1.175-0.07-1.743-0.079c-0.563-0.011-1.13-0.085-1.709-0.074
						c-1.15,0.041-2.318,0.223-3.454,0.538L42.808,38.913z"/>
				</g>
				<g>
					<path fill="#FAAB1A" d="M4.587,35.323c0.505,0.224,0.937,0.507,1.359,0.8c0.421,0.293,0.773,0.668,1.168,0.994
						c0.397,0.322,0.809,0.625,1.246,0.889c0.432,0.268,0.89,0.508,1.394,0.62l-0.008,0.07c-1.073-0.057-2.059-0.573-2.958-1.115
						c-0.454-0.274-0.922-0.539-1.297-0.916c-0.372-0.377-0.716-0.787-0.954-1.291L4.587,35.323z"/>
				</g>
				<g>
					<path fill="#FAAB1A" d="M11.607,39.888c-1.538,0.211-3.003,0.671-4.525,1.028c-0.758,0.184-1.541,0.377-2.344,0.356
						c-0.799-0.021-1.605-0.165-2.328-0.51l0.014-0.07c0.794-0.036,1.542-0.055,2.291-0.129c0.744-0.07,1.5-0.099,2.262-0.204
						c1.516-0.229,3.066-0.536,4.625-0.542L11.607,39.888z"/>
				</g>
				<g>
					<path fill="#FAAB1A" d="M11.464,37.979c0.933,0.015,1.834,0.104,2.731,0.272c0.446,0.101,0.89,0.236,1.343,0.303
						c0.453,0.067,0.912,0.07,1.371,0.051c1.838-0.078,3.633-0.099,5.483,0.123l0.004,0.057c-1.808,0.479-3.687,0.455-5.507,0.13
						c-0.456-0.079-0.91-0.152-1.369-0.178s-0.925,0.004-1.388-0.018c-0.918-0.082-1.829-0.288-2.682-0.686L11.464,37.979z"/>
				</g>
			</g>
		</g>
	</g>
	<g clip-path="url(#SVGID_2_)">
		<g>
			<path fill="#1B528B" d="M20.79,22.486c-1.093,0.45-2.271,0.731-3.477,0.819c-1.206,0.091-2.445-0.059-3.606-0.464
				c-1.158-0.412-2.225-1.084-3.079-1.955c-0.854-0.869-1.543-1.882-1.933-3.034c-0.025-0.074,0.015-0.154,0.088-0.18
				c0.065-0.022,0.135,0.006,0.168,0.063l0.006,0.011c0.573,0.983,1.316,1.879,2.162,2.614c0.854,0.729,1.819,1.316,2.871,1.679
				c2.108,0.763,4.444,0.631,6.722,0.174c0.077-0.016,0.152,0.034,0.167,0.111C20.893,22.393,20.851,22.46,20.79,22.486z"/>
			<path fill="#1B528B" d="M33.151,22.213c2.277,0.457,4.612,0.589,6.72-0.175c1.052-0.363,2.016-0.95,2.87-1.679
				c0.846-0.735,1.588-1.631,2.16-2.614l0.007-0.011c0.039-0.067,0.126-0.09,0.193-0.051c0.06,0.034,0.084,0.105,0.063,0.167
				c-0.391,1.151-1.079,2.165-1.933,3.034c-0.853,0.87-1.92,1.542-3.077,1.955c-1.161,0.406-2.4,0.556-3.605,0.465
				c-1.206-0.088-2.384-0.369-3.477-0.819c-0.073-0.027-0.11-0.109-0.083-0.183C33.014,22.238,33.084,22.202,33.151,22.213z"/>
		</g>
	</g>
	<path clip-path="url(#SVGID_2_)" fill="#DD8B5E" d="M23.635,9.178c-0.404-0.307-0.846-0.563-1.311-0.83
		c1.07,0.086,2.093,0.654,2.842,1.438c0.371,0.399,0.695,0.841,0.93,1.328c0.238,0.483,0.426,0.994,0.48,1.53
		c-0.545-0.912-1.122-1.742-1.82-2.466C24.414,9.811,24.034,9.486,23.635,9.178z M30.224,9.178c0.403-0.307,0.845-0.563,1.311-0.83
		c-1.07,0.086-2.093,0.654-2.842,1.438c-0.372,0.399-0.695,0.841-0.931,1.328c-0.237,0.483-0.427,0.994-0.479,1.53
		c0.546-0.913,1.122-1.742,1.819-2.466C29.444,9.811,29.825,9.486,30.224,9.178z"/>
	<g clip-path="url(#SVGID_2_)">
		<g>
			<path fill="#DD8B5E" d="M28,4.332c0.438-0.499,0.983-0.852,1.55-1.194c0.272-0.167,0.62-0.339,0.959-0.4
				c0.33-0.075,0.654-0.118,0.979-0.158c1.295-0.15,2.584-0.196,3.877-0.184c0.063,0,0.113,0.052,0.112,0.115
				c0,0.059-0.048,0.106-0.104,0.112c-1.279,0.115-2.564,0.22-3.822,0.409c-0.313,0.051-0.626,0.107-0.922,0.187
				c-0.295,0.068-0.526,0.199-0.798,0.375c-0.525,0.339-1.019,0.75-1.605,1.031c-0.093,0.046-0.205,0.009-0.252-0.084
				C27.938,4.47,27.953,4.387,28,4.332z"/>
		</g>
		<g>
			<path fill="#DD8B5E" d="M25.636,4.624c-0.586-0.281-1.08-0.69-1.606-1.03c-0.271-0.176-0.502-0.307-0.798-0.375
				c-0.295-0.08-0.609-0.136-0.921-0.187c-1.259-0.189-2.544-0.294-3.823-0.409c-0.063-0.004-0.11-0.059-0.105-0.122
				c0.004-0.059,0.055-0.104,0.112-0.105c1.294-0.012,2.583,0.034,3.878,0.184c0.325,0.04,0.648,0.084,0.978,0.158
				c0.339,0.062,0.687,0.234,0.959,0.4c0.567,0.342,1.113,0.695,1.551,1.194c0.068,0.078,0.061,0.197-0.018,0.265
				C25.786,4.648,25.702,4.655,25.636,4.624z"/>
		</g>
	</g>
</g>
<g id="leggs-upper-part">
	<g id="legs-base_1_">
		<path id="path3033_1_" inkscape:connector-curvature="0" fill="#033A57" stroke="#033A57" stroke-width="0.3125" d="
			M24.136,61.855H1.439V45.354h22.697V61.855z"/>
		<path id="path4076_1_" inkscape:connector-curvature="0" fill="#033A57" stroke="#033A57" stroke-width="0.3125" d="
			M52.419,61.855H29.722V45.354h22.697V61.855z"/>
	</g>
	<g>
		<polygon fill="#7B3694" points="7.542,56.731 1.559,59.282 1.559,45.638 8.391,45.638 		"/>
		<polygon fill="#7B3694" points="46.318,56.731 52.3,59.282 52.3,45.638 45.468,45.638 		"/>
	</g>
</g>
</svg>
