<?xml version="1.0" encoding="UTF-8" standalone="no"?>
<!-- Created with Inkscape (http://www.inkscape.org/) -->

<svg
   xmlns:dc="http://purl.org/dc/elements/1.1/"
   xmlns:cc="http://creativecommons.org/ns#"
   xmlns:rdf="http://www.w3.org/1999/02/22-rdf-syntax-ns#"
   xmlns:svg="http://www.w3.org/2000/svg"
   xmlns="http://www.w3.org/2000/svg"
   xmlns:xlink="http://www.w3.org/1999/xlink"
   xmlns:sodipodi="http://sodipodi.sourceforge.net/DTD/sodipodi-0.dtd"
   xmlns:inkscape="http://www.inkscape.org/namespaces/inkscape"
   width="52.375"
   height="43.213669"
   id="svg2"
   version="1.1"
   inkscape:version="0.48.2 r9819"
   sodipodi:docname="frodo.svg">
  <defs
     id="defs4">
    <marker
       inkscape:stockid="DiamondL"
       orient="auto"
       refY="0"
       refX="0"
       id="DiamondL"
       style="overflow:visible">
      <path
         id="path3957"
         d="M 0,-7.0710768 -7.0710894,0 0,7.0710589 7.0710462,0 0,-7.0710768 z"
         style="fill-rule:evenodd;stroke:#000000;stroke-width:1pt;marker-start:none"
         transform="scale(0.8,0.8)"
         inkscape:connector-curvature="0" />
    </marker>
    <inkscape:path-effect
       effect="skeletal"
       id="path-effect4237"
       is_visible="true"
       pattern="M 0,5 C 0,2.24 2.24,0 5,0 7.76,0 10,2.24 10,5 10,7.76 7.76,10 5,10 2.24,10 0,7.76 0,5 z"
       copytype="single_stretched"
       prop_scale="1"
       scale_y_rel="false"
       spacing="0"
       normal_offset="0"
       tang_offset="0"
       prop_units="false"
       vertical_pattern="false"
       fuse_tolerance="0" />
    <clipPath
       id="clipPath2999"
       clipPathUnits="userSpaceOnUse">
      <path
         id="path3001"
         d="M 0,792 612,792 612,0 0,0 0,792 z"
         inkscape:connector-curvature="0" />
    </clipPath>
    <radialGradient
       gradientUnits="userSpaceOnUse"
       gradientTransform="matrix(0.75988491,-0.03632001,0.13155835,2.7524547,16.986326,-78.268899)"
       r="12.650181"
       fy="46.658409"
       fx="96.306435"
       cy="46.658409"
       cx="96.306435"
       id="radialGradient3972"
       xlink:href="#linearGradient3966"
       inkscape:collect="always" />
    <clipPath
       clipPathUnits="userSpaceOnUse"
       id="clipPath2999-4">
      <path
         inkscape:connector-curvature="0"
         d="M 0,792 612,792 612,0 0,0 0,792 z"
         id="path3001-0" />
    </clipPath>
    <linearGradient
       id="linearGradient3966">
      <stop
         id="stop3968"
         offset="0"
         style="stop-color:#c0ac02;stop-opacity:1;" />
      <stop
         id="stop3970"
         offset="1"
         style="stop-color:#fdea41;stop-opacity:0;" />
    </linearGradient>
  </defs>
  <sodipodi:namedview
     id="base"
     pagecolor="#ffffff"
     bordercolor="#666666"
     borderopacity="1.0"
     inkscape:pageopacity="0.0"
     inkscape:pageshadow="2"
     inkscape:zoom="3.42"
     inkscape:cx="-7.2809771"
     inkscape:cy="29.534182"
     inkscape:document-units="px"
     inkscape:current-layer="layer1"
     showgrid="false"
     fit-margin-top="0"
     fit-margin-left="0"
     fit-margin-right="0"
     fit-margin-bottom="0"
     inkscape:window-width="1280"
     inkscape:window-height="968"
     inkscape:window-x="-4"
     inkscape:window-y="-4"
     inkscape:window-maximized="1"
     showguides="false"
     inkscape:guide-bbox="true">
    <sodipodi:guide
       orientation="0,1"
       position="11.28133,21.517799"
       id="guide3274" />
  </sodipodi:namedview>
  <metadata
     id="metadata7">
    <rdf:RDF>
      <cc:Work
         rdf:about="">
        <dc:format>image/svg+xml</dc:format>
        <dc:type
           rdf:resource="http://purl.org/dc/dcmitype/StillImage" />
        <dc:title></dc:title>
      </cc:Work>
    </rdf:RDF>
  </metadata>
  <g
     inkscape:label="Ebene 1"
     inkscape:groupmode="layer"
     id="layer1"
     transform="translate(-360.9375,-409.84883)"
     style="display:inline">
    <path
       inkscape:connector-curvature="0"
       d="m 406.43813,399.93655 -112.8,0 0,-21.39125 112.8,0 0,21.39125 z"
       style="fill:#ffffff;fill-opacity:1;fill-rule:nonzero;stroke:none"
       id="path3079" />
    <path
       inkscape:connector-curvature="0"
       d="m 361.13813,452.9203 c 8.7325,-47.29375 5.3425,-42.67875 14.2675,-42.85625 l 23.44,0 c 8.92625,0.1775 5.535,-4.4375 14.265,42.85625 l -51.9725,0 z"
       style="fill:none;stroke:#231f20;stroke-width:0.3125;stroke-linecap:butt;stroke-linejoin:miter;stroke-miterlimit:4;stroke-opacity:1;stroke-dasharray:none"
       id="path3093" />
  </g>
  <g
     inkscape:groupmode="layer"
     id="layer2"
     inkscape:label="frodo"
     style="display:inline"
     sodipodi:insensitive="true"
     transform="translate(-142.76812,-31.473222)">
    <path
       style="fill:#90927a;fill-opacity:0.96078431;stroke:none"
       d="m 155.95971,42.26086 c 0.95138,6.97631 1.00721,13.952621 0.16788,20.928931 l 27.02854,0 -0.67152,-6.267488 c -2.25749,-6.537847 1.26552,-8.057471 -0.78343,-15.948517 z"
       id="path3094"
       inkscape:connector-curvature="0"
       sodipodi:nodetypes="cccccc" />
    <path
       style="fill:#463734;fill-opacity:0.96078431;stroke:none"
       d="m 151.76273,74.717491 c 0.22384,-0.167879 3.02183,-6.603246 3.02183,-6.603246 l 29.54672,-0.05596 2.90991,6.827084 z"
       id="path3092"
       inkscape:connector-curvature="0" />
    <path
       style="fill:#55503a;fill-opacity:0.96078431;stroke:none"
       d="m 156.40739,31.628515 -4.42082,0.447678 -1.62283,2.294348 -0.2798,2.294348 3.1897,2.350308 0.8394,2.294348 4.98041,2.630106 0,19.977616 6.37941,-1.175154 3.69334,1.007275 0.2798,-8.617795 6.6592,1.622831 -1.34303,-10.520425 2.68607,-1.063234 0.11192,-1.175154 3.80526,-2.126469 1.23111,-2.01455 3.35758,-2.630106 -0.61555,-2.742026 -1.23112,-1.622831 -2.40626,-0.11192 -0.78344,-1.343033 z"
       id="path3090"
       inkscape:connector-curvature="0"
       sodipodi:nodetypes="ccccccccccccccccccccccc" />
    <path
       style="fill:#382b25;fill-opacity:1;stroke:#1a1411;stroke-width:1;stroke-miterlimit:4;stroke-opacity:1"
       d="m 183.87111,68.536963 -29.2483,-0.137964 1.10371,-5.104655 28.14459,0.137964"
       id="rect3350"
       inkscape:connector-curvature="0"
       sodipodi:nodetypes="cccc" />
    <path
       style="fill:#382b25;fill-opacity:0.96078431;stroke:#1a1411;stroke-width:1px;stroke-linecap:butt;stroke-linejoin:miter;stroke-opacity:0.96078431"
       d="m 174.15029,62.591476 c 2.58253,0.456164 5.13602,-1.881451 7.23747,0.219999 0.37519,0.375191 -0.22636,1.625409 -0.34491,1.862509 -0.94907,1.898136 -5.01372,3.115939 -6.89818,3.587055"
       id="path3348"
       inkscape:connector-curvature="0"
       sodipodi:nodetypes="cssc" />
    <path
       style="fill:none;stroke:#000000;stroke-width:1px;stroke-linecap:butt;stroke-linejoin:miter;stroke-opacity:1"
       d="m 172.21318,36.667366 c 1.39321,-0.215584 4.09251,-0.668443 4.48381,0.896763 0.0254,0.101717 0.17226,0.58654 0.069,0.689818 -1.28749,1.287489 -2.26748,1.777947 -4.06993,2.138437 -0.61673,0.123345 -2.86557,-0.232108 -2.41437,-0.344909"
       id="path3178"
       inkscape:connector-curvature="0" />
    <path
       style="fill:none;stroke:#000000;stroke-width:1px;stroke-linecap:butt;stroke-linejoin:miter;stroke-opacity:1"
       d="m 169.93678,46.048893 c 2.24111,0.442382 5.54659,0.66177 7.10512,-0.896764 0.68402,-0.684012 -0.18595,-6.952184 -0.41389,-7.863927"
       id="path3180"
       inkscape:connector-curvature="0" />
    <path
       style="fill:none;stroke:#000000;stroke-width:1px;stroke-linecap:butt;stroke-linejoin:miter;stroke-opacity:1"
       d="m 174.62754,46.738711 c 0.25685,3.508414 0.83069,7.116752 1.65556,10.416255"
       id="path3188"
       inkscape:connector-curvature="0" />
    <path
       style="fill:none;stroke:#000000;stroke-width:1px;stroke-linecap:butt;stroke-linejoin:miter;stroke-opacity:1"
       d="m 169.52288,55.499402 c 2.05102,0.2622 4.66963,1.172692 6.76023,1.172692"
       id="path3190"
       inkscape:connector-curvature="0"
       sodipodi:nodetypes="cc" />
    <path
       style="fill:#000000;stroke:#000000;stroke-width:1px;stroke-linecap:butt;stroke-linejoin:miter;stroke-opacity:1"
       d="m 162.14183,61.293875 c 2.44239,0.917614 5.62428,1.708429 7.45004,2.621309"
       id="path3200"
       inkscape:connector-curvature="0" />
    <path
       style="fill:none;stroke:#000000;stroke-width:1px;stroke-linecap:butt;stroke-linejoin:miter;stroke-opacity:1"
       d="m 181.38776,32.459474 c 1.00685,0.132647 0.84689,5.841024 0.23631,5.464097 -2.55715,-1.578576 -9.33293,-3.481585 -10.58359,-0.980278 -0.86775,1.735492 -2.01344,8.583815 -1.31065,10.692182 0.22577,0.677323 0.24497,2.331256 0.069,3.0352 -0.61285,2.4514 -0.50759,11.327385 -0.069,13.520436"
       id="path3208"
       inkscape:connector-curvature="0"
       sodipodi:nodetypes="cssscc" />
    <path
       style="fill:none;stroke:#000000;stroke-width:1px;stroke-linecap:butt;stroke-linejoin:miter;stroke-opacity:1"
       d="m 166.48768,37.21922 c 0.0821,-0.483206 0.61318,-1.272333 1.10371,-1.5176 0.30307,-0.151535 0.61941,-0.551141 1.03473,-0.7588 1.27006,-0.635029 4.22714,-0.645704 5.51855,0 0.58362,0.291813 0.86699,0.544412 1.44861,0.689818"
       id="path3210"
       inkscape:connector-curvature="0" />
    <path
       style="fill:#000000;fill-opacity:1;stroke:#000000;stroke-width:1;stroke-miterlimit:4;stroke-opacity:1;stroke-dasharray:none"
       id="path3270"
       d="m 170.13276,56.361675 c -0.002,0.172922 -0.0173,0.198396 0.0288,0.350518 0.0415,0.136895 0.0362,0.01367 0.0565,0.162771 0.008,0.06058 3.6e-4,0.09529 -0.007,0.154202 -0.002,0.01439 -0.0164,0.111505 -0.0126,0.127462 0.004,0.01552 0.0197,0.0252 0.0278,0.03892 0.0465,0.07871 0.0601,0.144764 0.0638,0.234965 -0.024,0.136604 -0.0197,0.274329 -0.0151,0.41213 0.0144,0.06651 -0.0154,0.144055 0.003,0.209625 0.004,0.01558 0.0207,0.02506 0.0289,0.03904 0.0394,0.06737 0.0355,0.07402 0.0566,0.151117 0.0267,0.07541 -0.0251,0.157033 -0.0153,0.231446 0.001,0.008 0.007,-0.02108 0.0152,-0.01891 0.0142,0.004 0.0232,0.01911 0.0308,0.03172 0.0144,0.0238 0.023,0.05069 0.0345,0.07603 0.12452,0.06106 0.0488,0.220854 0.0601,0.320158 0.002,0.01697 0.016,0.03016 0.024,0.04524 0.0291,0.04357 0.0231,0.100758 0.047,0.145967 0.003,0.0058 0.0139,-0.0011 0.0195,0.0023 0.0152,0.0091 0.0272,0.02257 0.0407,0.03385 0,0 -0.10672,0.08944 -0.10672,0.08944 l 0,0 c -0.0608,-0.134995 0.0762,0.161027 -0.0684,-0.09431 -0.0235,-0.04146 -0.002,-0.102084 -0.0546,-0.132116 -0.0105,-0.03522 -0.0268,-0.0692 -0.0315,-0.105654 -0.003,-0.02472 0.006,-0.04947 0.009,-0.07427 0.009,-0.08823 0.006,-0.119346 -0.0649,-0.183293 -0.01,-0.0625 -0.0706,-0.08042 -0.0875,-0.152602 -0.0133,-0.05676 0.034,-0.124132 0.0185,-0.182462 -0.0172,-0.08018 -0.0679,-0.143499 -0.0851,-0.22365 -0.0138,-0.06403 0.0179,-0.1396 0.002,-0.204468 -0.005,-0.139174 -0.008,-0.27727 0.0218,-0.41444 0.004,-0.156323 -0.13525,-0.257563 -0.0784,-0.418887 0.005,-0.03391 0.0136,-0.07838 0.0104,-0.113103 -0.007,-0.076 -0.0252,-0.08451 -0.047,-0.164893 -0.053,-0.195259 -0.0379,-0.156788 -0.0402,-0.373791 0,0 0.11605,0 0.11605,0 z"
       inkscape:connector-curvature="0" />
    <path
       style="fill:#000000;fill-opacity:1;stroke:#000000;stroke-width:1;stroke-miterlimit:4;stroke-opacity:1;stroke-dasharray:none"
       id="path3272"
       d="m 171.37748,56.499639 c 0.0112,0.126322 -0.0306,0.320759 2.4e-4,0.448382 0.005,0.01953 0.0201,0.0348 0.0293,0.05267 0.0402,0.07832 0.0293,0.05635 0.0528,0.14334 0.0269,0.07398 0.1014,0.11125 0.13366,0.182688 0.0129,0.02864 0.0131,0.06153 0.022,0.09166 0.0134,0.04519 0.0327,0.08841 0.048,0.132974 0.003,0.0269 8.2e-4,0.05494 0.009,0.08071 0.002,0.0051 0.0105,-0.009 0.0149,-0.006 0.0132,0.009 0.0236,0.02256 0.0306,0.03696 0.0396,0.08195 0.0253,0.162272 0.0162,0.248745 0.0824,0.133578 0.0777,0.273037 0.0604,0.422101 -0.009,0.135663 -0.002,0.271823 -0.002,0.407689 0.0986,0.126136 0.0902,0.272313 0.0718,0.421927 0.005,0.07058 -0.0205,0.200774 5.2e-4,0.265832 0.002,0.0064 0.0103,-0.01438 0.0164,-0.0116 0.0151,0.0069 0.0235,0.02345 0.0353,0.03518 0.0113,0.02609 0.0281,0.05043 0.034,0.07825 0.006,0.02949 -0.003,0.06065 0.002,0.09042 0.007,0.04669 0.0354,0.08796 0.0473,0.133708 0.0204,0.07825 0.0159,0.08395 0.0174,0.163129 -0.0288,0.134403 -0.0218,0.271955 -0.0187,0.40828 0.009,0.01433 0.0188,0.02866 0.0282,0.04299 0,0 -0.10862,0.05538 -0.10862,0.05538 l 0,0 c -0.0142,-0.03184 -0.0283,-0.06367 -0.0424,-0.09551 -0.003,-0.137323 -0.003,-0.273968 0.007,-0.41088 0.003,-0.130817 -0.0702,-0.241373 -0.0611,-0.3709 -0.0345,-0.03456 -0.07,-0.06598 -0.0884,-0.11439 -0.0205,-0.05395 0.004,-0.22312 4.7e-4,-0.285979 0.0244,-0.19822 0.0355,-0.213003 -0.0642,-0.405617 -2.2e-4,-0.140918 -0.0127,-0.281843 -0.002,-0.422538 0.006,-0.05612 0.0223,-0.12164 0.0145,-0.17845 -0.0119,-0.08631 -0.0764,-0.153609 -0.0817,-0.242438 0.002,-0.02579 0.0232,-0.118707 0.0102,-0.147766 -0.0175,-0.03917 -0.0761,-0.05327 -0.0731,-0.105917 -0.007,-0.01782 -0.003,-0.03817 -0.004,-0.05725 -0.0119,-0.05752 -0.0464,-0.212291 -0.0795,-0.257955 -0.0204,-0.02813 -0.0494,-0.04945 -0.0694,-0.07787 -0.0166,-0.02364 -0.0265,-0.05139 -0.0398,-0.07708 -0.0207,-0.07931 -0.0752,-0.145517 -0.0904,-0.2265 -0.005,-0.02828 0.003,-0.05746 0.004,-0.08623 0.006,-0.189117 0.003,-0.150312 -0.004,-0.362154 0,0 0.12213,0 0.12213,0 z"
       inkscape:connector-curvature="0" />
    <path
       style="fill:#000000;fill-opacity:1;stroke:#000000;stroke-width:1;stroke-miterlimit:4;stroke-opacity:1;stroke-dasharray:none"
       id="path3274"
       d="m 172.38166,56.52882 c 0.0504,0.212537 0.032,0.203019 0.12626,0.378265 0.005,0.0087 0.0734,0.100862 0.0769,0.128547 0.0121,0.09741 -0.0344,0.05457 0.005,0.08539 0.073,0.08697 0.0918,0.200563 0.15759,0.292009 0.0742,0.103123 0.0937,0.08466 0.11611,0.221418 0.0364,0.06095 0.0283,0.135021 0.0463,0.199885 0.005,0.01862 0.0189,0.03374 0.027,0.05128 0.0378,0.08175 0.0289,0.06546 0.0471,0.155609 -0.0255,0.123001 0.073,0.153021 0.11933,0.251311 0.0226,0.04801 0.0327,0.101085 0.0529,0.150191 0.007,0.02519 0.0145,0.05039 0.0218,0.07558 0.003,0.02693 10e-4,0.05455 0.008,0.0808 0.004,0.01773 0.0173,0.03222 0.0247,0.04892 0.0353,0.07973 0.0445,0.146111 0.0442,0.232615 0.009,0.047 -0.0234,0.09586 -0.0147,0.142976 0.005,0.02467 0.0758,0.08208 0.0819,0.08878 0.0722,0.07922 0.0558,0.06434 0.0899,0.164477 -0.002,0.03086 -0.008,0.06174 -0.006,0.09257 3.1e-4,0.0042 0.01,-0.0041 0.0127,-0.0013 0.009,0.0078 0.0142,0.01879 0.0183,0.02966 0.0265,0.07029 0.0221,0.138499 0.0531,0.207238 0.0365,0.07827 0.0521,0.158951 0.0483,0.244977 -0.001,0.0248 -0.0112,0.04946 -0.008,0.07407 0.002,0.01323 0.0148,0.02218 0.0223,0.03327 0,0 -0.12698,0.05166 -0.12698,0.05166 l 0,0 c -0.0107,-0.03346 -0.0267,-0.06567 -0.0321,-0.100383 -0.003,-0.01977 0.006,-0.03964 0.007,-0.05959 0.006,-0.06958 -0.006,-0.131413 -0.0374,-0.194782 -0.0119,-0.03342 -0.0289,-0.06545 -0.0357,-0.100261 -0.0119,-0.061 0.0189,-0.04123 -5.9e-4,-0.08915 -0.0208,-0.05117 -0.0646,-0.09507 -0.0357,-0.154955 -0.015,-0.09804 -0.0868,-0.117124 -0.13828,-0.19777 -0.0513,-0.0804 -0.0331,-0.148319 -0.0224,-0.233817 0.006,-0.141469 -0.0743,-0.250859 -0.0876,-0.38991 -0.0102,-0.02559 -0.0226,-0.05042 -0.0307,-0.07678 -0.005,-0.01598 -4.2e-4,-0.03453 -0.008,-0.04951 -0.0509,-0.102876 -0.18209,-0.160713 -0.14966,-0.297343 -0.0124,-0.08034 -0.053,-0.138737 -0.076,-0.216034 -0.0192,-0.06463 -0.0112,-0.141028 -0.048,-0.202149 0.009,-0.0709 -0.0632,-0.114742 -0.0994,-0.167683 -0.0673,-0.09812 -0.0954,-0.214834 -0.15715,-0.315893 -7.7e-4,-0.0032 -0.0171,-0.103885 -0.0218,-0.113835 -0.0153,-0.03252 -0.0362,-0.06216 -0.0514,-0.09474 -0.12188,-0.262266 0.008,-0.06386 -0.21865,-0.346044 0,0 0.199,-0.0796 0.199,-0.0796 z"
       inkscape:connector-curvature="0" />
    <path
       style="fill:#000000;fill-opacity:1;stroke:#000000;stroke-width:1;stroke-miterlimit:4;stroke-opacity:1;stroke-dasharray:none"
       id="path3276"
       d="m 174.19835,56.799321 c -0.044,0.08075 -0.11394,0.152084 -0.13211,0.242249 -0.0141,0.06992 0.0704,0.227431 0.089,0.302534 0.0218,0.08763 0.0104,0.167436 -0.008,0.253139 0.0804,0.04752 0.0653,0.164437 0.0813,0.241287 0.009,0.0431 0.0345,0.08103 0.05,0.122246 0.005,0.02694 0.01,0.05389 0.0146,0.08084 -3.2e-4,0.02689 -0.006,0.05418 -9.6e-4,0.08068 0.007,0.04018 0.0383,0.07257 0.0503,0.111564 0.0231,0.07542 0.0179,0.08445 0.0194,0.162389 0.007,0.07868 -0.0422,0.200771 -0.0177,0.276418 0.002,0.0068 0.0102,-0.01607 0.0169,-0.01343 0.0155,0.0061 0.0242,0.02298 0.0362,0.03447 0.0115,0.02594 0.0285,0.05011 0.0346,0.07783 0.0209,0.09416 -0.0202,0.277473 -0.0195,0.388224 0.005,0.136677 0.0126,0.273899 -0.003,0.410045 -5.5e-4,0.137784 1.2e-4,0.275568 1.1e-4,0.413352 0,0 -0.11575,0 -0.11575,0 l 0,0 c -1e-5,-0.138098 -7e-4,-0.276197 -4e-5,-0.414294 -0.013,-0.135852 -0.002,-0.27285 -0.0118,-0.409109 6.8e-4,-0.124391 0.0219,-0.246541 0.0241,-0.37041 -0.037,-0.03517 -0.0731,-0.06454 -0.0918,-0.116771 -0.0221,-0.06175 0.0201,-0.206602 0.0172,-0.275942 0.003,-0.137353 -0.0808,-0.251101 -0.0793,-0.388674 -0.009,-0.02527 -0.0551,-0.146873 -0.0588,-0.163382 -0.004,-0.01853 0.002,-0.03813 -8.2e-4,-0.05694 -0.0109,-0.08092 -0.0753,-0.137265 -0.0795,-0.221288 0.006,-0.02235 0.0212,-0.08138 0.0221,-0.10354 0.004,-0.08952 -0.0474,-0.343892 -0.088,-0.401382 -0.0508,-0.07199 -0.13405,-0.114428 -0.20108,-0.171642 0,0 0.45227,-0.09045 0.45227,-0.09045 z"
       inkscape:connector-curvature="0" />
    <path
       style="fill:#000000;fill-opacity:1;stroke:#000000;stroke-width:1;stroke-miterlimit:4;stroke-opacity:1;stroke-dasharray:none"
       id="path3278"
       d="m 175.95995,56.672093 c -0.0614,0.125531 0.0421,0.284891 -0.007,0.413891 -0.0103,0.02723 -0.0857,0.06962 -0.0767,0.04195 0.0134,-0.04081 0.0647,-0.12268 0.0924,-0.08983 0.0775,0.09198 -0.0419,0.240524 -0.0831,0.306562 -0.0386,0.15376 0.0786,0.208075 0.12516,0.331154 0.0106,0.02815 0.0125,0.05889 0.0187,0.08834 0.0398,0.07954 0.0515,0.159182 0.0532,0.247992 7.4e-4,0.03682 -0.009,0.07384 -0.004,0.1104 0.002,0.01494 0.0476,0.115452 0.0537,0.129326 0.006,0.02315 0.008,0.0473 0.017,0.06945 0.0534,0.134524 0.005,-0.07175 0.0592,0.116077 0.0223,0.07685 -2.9e-4,0.142734 0.0343,0.214132 0.009,0.0228 0.0152,0.04693 0.027,0.06839 0.0112,0.02036 0.0293,0.03628 0.0416,0.05602 0.0673,0.108029 0.0581,0.201139 0.0408,0.321611 -0.003,0.02199 -0.0122,0.04415 -0.008,0.06598 0.002,0.01405 0.0186,0.02178 0.026,0.03398 0.027,0.04458 0.0506,0.09497 0.06,0.146665 0.016,0.08712 -0.0243,0.09325 0.0193,0.08115 0.0718,0.08024 0.0543,0.181156 0.0459,0.279155 -0.002,0.02578 -0.0107,0.05187 -0.006,0.07737 0.001,0.0068 0.0118,-0.0073 0.0178,-0.01089 0.0833,0.0261 0.0356,0.175474 0.0805,0.203341 0,0 -0.10639,0.06739 -0.10639,0.06739 l 0,0 c -0.0125,-0.02474 -0.0295,-0.04767 -0.0374,-0.07421 -0.0186,-0.06244 0.0222,-0.05906 -0.0456,-0.108303 -0.0151,-0.0295 -0.0376,-0.05624 -0.0451,-0.08849 -0.0195,-0.08387 0.054,-0.192056 -0.009,-0.264322 -0.0129,-0.0243 -0.0307,-0.04657 -0.0387,-0.0729 -0.0601,-0.197758 0.0736,0.105157 -0.0147,-0.110156 -0.0336,-0.08196 -0.0991,-0.153472 -0.066,-0.24852 0.0473,-0.215561 -0.0134,-0.184914 -0.0984,-0.381181 -0.01,-0.03183 -0.0237,-0.06264 -0.0287,-0.09549 -0.019,-0.123622 0.0302,0.0028 -7.3e-4,-0.113128 -0.0151,-0.05643 -0.042,-0.07837 -0.0662,-0.133646 -0.007,-0.01606 -0.009,-0.03391 -0.0134,-0.05086 -0.0235,-0.05807 -0.0512,-0.118422 -0.06,-0.181093 -0.005,-0.03223 0.002,-0.0651 0.001,-0.09762 -0.003,-0.08617 -0.0249,-0.157935 -0.0599,-0.236498 -0.005,-0.08457 -0.052,-0.112318 -0.0953,-0.183829 -0.0457,-0.07553 -0.0721,-0.169638 -0.054,-0.256795 -0.0246,-0.01235 -0.0472,-0.04397 -0.0738,-0.03704 -0.026,0.0068 -0.038,0.0939 -0.0438,0.06767 -0.0117,-0.05221 0.0442,-0.10952 0.0234,-0.158811 -0.0254,-0.06005 -0.11666,-0.07212 -0.14564,-0.130506 -0.0613,-0.123595 0.0719,-0.295924 -0.007,-0.413891 0,0 0.4574,0 0.4574,0 z"
       inkscape:connector-curvature="0" />
    <path
       style="fill:#000000;fill-opacity:1;stroke:#000000;stroke-width:1;stroke-miterlimit:4;stroke-opacity:1;stroke-dasharray:none"
       id="path3280"
       d="m 163.43718,61.787484 c -0.12438,0.07292 0.028,0.255369 -0.0475,0.342528 -0.0382,0.04411 -0.11382,0.03117 -0.16418,0.06063 -0.009,0.0053 0.007,0.01965 0.01,0.02961 0.0128,0.04245 0.009,0.03395 0.0138,0.0892 0.0163,0.09605 -0.029,0.204521 -0.007,0.299277 0.004,0.01563 0.0193,0.02576 0.0274,0.03962 0.0125,0.02141 0.023,0.04399 0.0345,0.06599 0.0512,0.102738 0.003,0.223851 0.0146,0.326712 0.002,0.01528 0.0155,0.02656 0.0227,0.04013 0.0365,0.06858 0.0249,0.04514 0.0495,0.126352 0.03,0.09809 -0.0347,0.199902 -0.0187,0.297397 0.0106,0.06444 0.043,0.12331 0.0645,0.184957 0.007,0.03069 0.0174,0.06085 0.022,0.09206 0.004,0.02659 -0.002,0.05425 0.004,0.08055 0.003,0.01384 0.0166,0.02338 0.0212,0.03677 0.0115,0.03382 0.0144,0.07017 0.0265,0.10379 0.022,0.06154 0.0556,0.11827 0.0826,0.177794 0.0221,0.03306 0.0641,0.09118 0.076,0.129403 0.008,0.02663 0.006,0.05549 0.0116,0.08288 0.0188,0.09708 0.0446,0.189891 0.0575,0.288314 -0.01,0.223541 -0.0159,0.446573 -0.0138,0.670352 0.008,0.192181 -7.6e-4,0.384403 4.1e-4,0.576647 4.8e-4,0.02636 -0.005,0.05354 0.001,0.07907 0.003,0.01303 0.019,0.01927 0.0267,0.03026 0.0124,0.01762 0.0268,0.03481 0.0336,0.05526 0.0464,0.139321 0.0101,0.09251 0.025,0.230769 0.004,0.03696 0.0153,0.07274 0.023,0.109104 0.0705,0.206047 0.0308,0.420781 0.0235,0.633022 1.9e-4,0.197475 0.005,0.394875 0.008,0.59231 0,0 -0.13571,-9.55e-4 -0.13571,-9.55e-4 l 0,0 c 0.006,-0.198197 3.9e-4,-0.396154 8.9e-4,-0.59438 0.003,-0.201961 0.0381,-0.406711 -0.0217,-0.6036 -0.01,-0.04517 -0.023,-0.08969 -0.0287,-0.135508 -0.008,-0.06777 0.0128,-0.09722 -0.01,-0.161457 -0.0488,-0.14019 -0.0328,0.03704 -0.078,-0.154795 -0.006,-0.02574 9.3e-4,-0.05287 0.001,-0.07931 0.002,-0.19148 -0.002,-0.382942 -0.002,-0.57442 -0.005,-0.219467 0.008,-0.437907 0.0147,-0.657176 -0.0101,-0.101762 -0.0413,-0.191904 -0.0612,-0.291465 -0.003,-0.01306 0.003,-0.0269 5.5e-4,-0.03993 -0.0109,-0.05223 -0.0436,-0.09362 -0.0707,-0.138037 -0.0396,-0.117572 -0.10978,-0.242616 -0.13509,-0.362808 -0.004,-0.01839 0.003,-0.03769 0.001,-0.05638 -0.003,-0.02685 -0.0108,-0.05292 -0.0162,-0.07938 -0.0143,-0.04099 -0.0694,-0.195118 -0.0756,-0.231106 -0.0141,-0.08174 0.0274,-0.171152 0.0135,-0.253953 -0.0188,-0.0742 -0.0652,-0.137794 -0.0737,-0.215474 -0.009,-0.0812 0.0344,-0.171101 -0.004,-0.252088 -0.0229,-0.04433 -0.0669,-0.124446 -0.0771,-0.169242 -0.0207,-0.09019 0.0219,-0.193375 0.004,-0.284914 -0.002,-0.02149 -0.008,-0.119873 -0.0195,-0.13124 -0.0472,-0.04639 -0.13415,-0.05281 -0.16418,-0.111828 -0.0583,-0.11464 0.12957,-0.271786 0.056,-0.381781 0,0 0.45227,0.09045 0.45227,0.09045 z"
       inkscape:connector-curvature="0" />
    <path
       style="fill:#000000;fill-opacity:1;stroke:#000000;stroke-width:1;stroke-miterlimit:4;stroke-opacity:1;stroke-dasharray:none"
       id="path3282"
       d="m 165.13193,62.501057 c -0.21758,0.43411 -0.083,0.540123 0.10451,0.895673 0.0159,0.122852 0.0673,0.232098 0.0845,0.354731 0.005,0.03602 5.2e-4,0.07321 0.008,0.108839 0.004,0.02004 0.0194,0.03624 0.026,0.05562 0.0112,0.033 0.018,0.06731 0.027,0.100961 0.10406,0.221705 0.17158,0.461711 0.21633,0.702992 0.0745,0.301872 0.15527,0.601847 0.20549,0.909275 0.0321,0.128948 0.0778,0.259229 0.0802,0.393754 6.3e-4,0.03494 -0.0104,0.06985 -0.007,0.104626 4.3e-4,0.0043 0.0492,0.120031 0.0495,0.120918 0.043,0.08293 0.007,0.168745 0.0144,0.254239 0.002,0.02281 0.0482,0.145071 0.0531,0.166128 0.009,0.03823 0.0125,0.07753 0.0188,0.116295 9.9e-4,0.03491 0.004,0.06981 0.003,0.104727 -8.9e-4,0.03908 -0.0115,0.07807 -0.008,0.117005 0.006,0.07052 0.056,0.148368 0.076,0.216665 0,0 -0.13071,0.03538 -0.13071,0.03538 l 0,0 c -0.0211,-0.08699 -0.063,-0.169899 -0.072,-0.259844 -0.004,-0.0356 0.005,-0.07141 0.006,-0.107174 8.5e-4,-0.02885 -3e-5,-0.05773 -5e-5,-0.0866 -0.0169,-0.106757 -0.0651,-0.203327 -0.0781,-0.310555 -0.004,-0.03124 0.002,-0.06289 0.004,-0.09434 1.3e-4,-0.01593 0.002,-0.03196 3.9e-4,-0.04778 -0.002,-0.01822 -0.008,-0.03578 -0.0121,-0.05367 -0.0238,-0.06146 -0.0476,-0.11298 -0.054,-0.180855 -0.003,-0.02857 0.006,-0.05712 0.007,-0.08581 0.003,-0.131545 -0.0371,-0.258022 -0.0712,-0.383513 -0.0489,-0.306514 -0.13474,-0.605268 -0.2083,-0.906263 -0.0426,-0.238349 -0.11706,-0.471901 -0.21911,-0.690792 -0.0174,-0.06146 -0.0445,-0.120304 -0.057,-0.18294 -0.006,-0.03 -9.8e-4,-0.06132 -0.005,-0.09164 -0.0148,-0.109629 -0.0636,-0.207859 -0.075,-0.317841 -0.0508,-0.09668 -0.11514,-0.201791 -0.15343,-0.302844 -0.0222,-0.0586 -0.0317,-0.121335 -0.0507,-0.181032 -0.0906,-0.283796 -0.0612,-0.194471 -0.24318,-0.474338 0,0 0.46165,0 0.46165,0 z"
       inkscape:connector-curvature="0" />
    <path
       style="fill:#000000;fill-opacity:1;stroke:#000000;stroke-width:1;stroke-miterlimit:4;stroke-opacity:1;stroke-dasharray:none"
       id="path3284"
       d="m 166.78749,62.570039 c 0.011,0.183161 0.0666,0.358423 0.0865,0.540215 0.004,0.03534 0.0219,0.07492 0.006,0.106489 -0.01,0.01858 -0.11719,0.09933 -0.15496,0.128152 0.0809,0.268194 0.17416,0.535715 0.19426,0.817172 0.0781,0.184049 0.058,0.368755 0.0463,0.562437 0.0262,0.128996 0.0722,0.255984 0.0858,0.387493 0.0118,0.114626 -0.006,0.232017 -0.014,0.346262 -0.002,0.03554 -0.009,0.07128 -0.005,0.106607 0.004,0.03741 0.0211,0.07232 0.0306,0.108778 0.0363,0.139569 0.0609,0.265031 0.0471,0.409072 -0.003,0.03077 -0.0124,0.06142 -0.0103,0.09231 0.004,0.06464 0.0415,0.123088 0.0546,0.186534 0.0267,0.129253 0.0254,0.254426 0.0204,0.385177 -0.0137,0.166738 -0.0353,0.337421 0.0225,0.497108 0.0116,0.03292 0.0252,0.06521 0.0349,0.09877 0.0238,0.08288 0.0273,0.160281 0.0124,0.244792 -0.0112,0.06395 -0.0308,0.07659 0.002,0.04574 0,0 -0.0773,0.07663 -0.0773,0.07663 l 0,0 c -0.0148,-0.02541 -0.036,-0.04804 -0.0444,-0.07624 -0.0156,-0.0528 0.0272,-0.158703 0.001,-0.25338 -0.009,-0.03295 -0.0229,-0.06441 -0.0344,-0.09662 -0.0145,-0.03754 -0.0342,-0.07346 -0.0435,-0.112613 -0.005,-0.02071 0.001,-0.04256 0.002,-0.06385 6.9e-4,-0.122519 -0.005,-0.245885 0.013,-0.367558 0.011,-0.118787 0.0177,-0.230105 -0.008,-0.348222 -0.0171,-0.07789 -0.0618,-0.148833 -0.0731,-0.227766 -0.005,-0.03153 0.005,-0.06348 0.008,-0.09522 0.0122,-0.08217 0.0204,-0.171633 -0.003,-0.253181 -0.0351,-0.124257 -0.11536,-0.224742 -0.0807,-0.368197 0.0102,-0.10331 0.0245,-0.209638 0.0164,-0.313663 -0.011,-0.141673 -0.0628,-0.27541 -0.0851,-0.415094 0.007,-0.189509 0.0233,-0.368571 -0.0454,-0.550838 -0.002,-0.270655 -0.11618,-0.522676 -0.19591,-0.776955 -0.0327,-0.03707 -0.0616,-0.07783 -0.0981,-0.111223 -0.0272,-0.02492 -0.0688,-0.03322 -0.0914,-0.06242 -0.01,-0.01294 0.006,-0.03238 0.006,-0.04872 -0.002,-0.04209 -0.006,-0.08406 -0.012,-0.125782 -0.0218,-0.157822 -0.0584,-0.313398 -0.0739,-0.472203 0,0 0.46165,0 0.46165,0 z"
       inkscape:connector-curvature="0" />
    <path
       style="fill:#000000;fill-opacity:1;stroke:#000000;stroke-width:1;stroke-miterlimit:4;stroke-opacity:1;stroke-dasharray:none"
       id="path3286"
       d="m 168.70171,63.690188 c -0.17518,0.585573 0.0874,-0.130264 -0.25818,0.356414 -0.04,0.05626 0.0334,0.205746 0.0418,0.267765 0.005,0.03881 0.006,0.07815 0.008,0.117226 -0.007,0.263355 -0.019,0.525338 -0.0176,0.788958 -0.001,0.04762 -0.0105,0.0956 -0.004,0.142856 0.009,0.06759 0.0536,0.126083 0.0688,0.192519 0.0272,0.118883 0.0308,0.235235 0.021,0.355588 0.001,0.141184 -0.0364,0.295237 -0.008,0.436008 0.006,0.02987 0.0231,0.05647 0.0319,0.08564 0.0132,0.0438 0.0226,0.08865 0.0339,0.132983 0.04,0.132851 0.0103,0.262683 -0.001,0.395951 -0.003,0.03549 -0.004,0.07117 -0.005,0.106748 -0.005,0.04426 -0.009,0.08852 -0.0135,0.132779 0.009,0.288667 -0.005,-0.06387 0.0155,0.229137 0.002,0.03111 -0.005,0.06313 0.002,0.09351 0.009,0.03753 0.0505,0.06043 0.063,0.09688 0.0123,0.03611 0.0151,0.0748 0.0226,0.112196 0.0423,0.0971 0.0626,0.190218 0.0688,0.295652 0.002,0.0351 -0.004,0.07095 0.003,0.105427 0.001,0.0068 0.0211,0.01399 0.0195,0.0072 -0.005,-0.02255 -0.0217,-0.041 -0.0325,-0.06151 0,0 0.0711,0.114639 0.0711,0.114639 l 0,0 c -0.0525,0.0053 -0.10768,0.03334 -0.15753,0.01601 -0.0575,-0.01999 -0.0215,-0.145778 -0.021,-0.172127 6.7e-4,-0.03139 -0.002,-0.06298 -0.007,-0.09389 -0.005,-0.0286 -0.0153,-0.05608 -0.0242,-0.08373 -0.0115,-0.03573 -0.0248,-0.07089 -0.0372,-0.106342 -0.004,-0.02378 -0.003,-0.04854 -0.0108,-0.07134 -0.0385,-0.11457 -0.0426,-0.0089 -0.0738,-0.157755 -0.022,-0.105038 0.0299,-0.218224 0.007,-0.323903 -0.0152,-0.151523 -0.0171,-0.111222 -0.0105,-0.251756 0.004,-0.08088 0.0233,-0.166549 0.0174,-0.24749 -0.003,-0.03457 -0.0106,-0.06852 -0.016,-0.102774 -0.0251,-0.08334 -0.0622,-0.16354 -0.0787,-0.249012 -0.0245,-0.126904 0.0179,-0.318758 0.0128,-0.449337 0.005,-0.06719 0.0214,-0.133723 0.0205,-0.201094 -0.002,-0.165913 -0.12021,-0.308691 -0.0923,-0.478823 -0.002,-0.259885 -3.3e-4,-0.519583 0.002,-0.7793 -0.008,-0.08909 -0.0365,-0.179482 -0.0405,-0.26826 -0.002,-0.04953 0.0189,-0.101269 0.004,-0.148663 -0.13424,-0.437409 -0.17985,-0.03754 -0.0512,-0.505859 0,0 0.42711,0.170844 0.42711,0.170844 z"
       inkscape:connector-curvature="0" />
    <path
       style="fill:#000000;fill-opacity:1;stroke:#000000;stroke-width:1;stroke-miterlimit:4;stroke-opacity:1;stroke-dasharray:none"
       id="path3288"
       d="m 169.65067,64.260093 c -3.8e-4,0.02906 -0.008,0.353785 0.001,0.413891 0.0227,0.156533 0.0292,0.05242 0.0696,0.159443 0.0245,0.0648 0.0344,0.134212 0.0535,0.200787 0.0124,0.115489 0.0771,0.217782 0.0986,0.330591 0.008,0.04053 0.005,0.08251 0.0108,0.123321 0.006,0.04267 0.0402,0.18194 0.0508,0.227185 0.0358,0.107204 -0.009,0.22271 0.002,0.329927 0.003,0.02494 0.0189,0.0465 0.0264,0.07045 0.0378,0.121699 0.0308,0.116846 0.0487,0.252479 0.0522,0.101016 0.0535,0.213374 0.0738,0.321385 0.0172,0.0917 0.0523,0.177193 0.0673,0.269986 0.0148,0.06694 -0.0208,0.135034 -0.0157,0.20123 0.003,0.03959 0.0349,0.07146 0.0491,0.108553 0.01,0.02615 0.0154,0.05384 0.0231,0.08076 0.0265,0.09767 -0.0385,0.199129 -0.004,0.29495 0.005,0.01371 0.0192,0.02212 0.0269,0.03455 0.0133,0.02167 0.0238,0.04494 0.0356,0.06741 0,0 -0.11667,0.06179 -0.11667,0.06179 l 0,0 c -0.0214,-0.04036 -0.0736,-0.1327 -0.0787,-0.173036 -0.004,-0.03318 0.06,-0.208827 0.0362,-0.258735 -0.0213,-0.08631 -0.0786,-0.149488 -0.10005,-0.229184 -0.0143,-0.053 0.0273,-0.116388 0.0166,-0.170584 -0.0108,-0.09618 -0.0448,-0.181086 -0.0645,-0.275368 -0.0221,-0.105684 -0.0235,-0.216973 -0.0719,-0.317168 -0.006,-0.04083 -0.008,-0.08225 -0.017,-0.122499 -0.0161,-0.07305 -0.0564,-0.15049 -0.0648,-0.225531 -0.0108,-0.09603 0.0315,-0.197645 10e-4,-0.293605 -0.0167,-0.08182 -0.0395,-0.16244 -0.0526,-0.244909 -0.005,-0.03186 -8.5e-4,-0.06479 -0.006,-0.09656 -0.0152,-0.08639 -0.0487,-0.139889 -0.0753,-0.225129 -0.0106,-0.03397 -0.0163,-0.06928 -0.0244,-0.103918 -0.0192,-0.05877 -0.0307,-0.119859 -0.0499,-0.178614 -0.0376,-0.114809 -0.0544,-0.0696 -0.0684,-0.219957 -0.0128,-0.137369 0.0316,-0.276686 0.001,-0.413891 0,0 0.1176,0 0.1176,0 z"
       inkscape:connector-curvature="0" />
    <path
       style="fill:#000000;fill-opacity:1;stroke:#000000;stroke-width:1;stroke-miterlimit:4;stroke-opacity:1;stroke-dasharray:none"
       id="path3290"
       d="m 159.71145,64.567433 c -0.0343,0.08789 -0.0934,0.169815 -0.10279,0.263679 -0.007,0.07137 0.0346,0.139302 0.0554,0.207931 0.0651,0.214167 0.16674,0.414239 0.25236,0.620274 0.12111,0.316443 0.25352,0.623954 0.41564,0.921526 0.0602,0.113132 0.0913,0.148431 0.10967,0.279464 0.007,0.05114 -0.001,0.103373 0.002,0.154899 0.009,0.13898 0.0346,0.276349 0.0434,0.415739 5e-5,0.04711 -0.005,0.0945 1.3e-4,0.141316 0.0113,0.10081 0.0454,0.19807 0.0582,0.298708 0.0711,0.562879 -0.0381,-0.23298 0.0155,0.372567 0.004,0.04295 0.0192,0.08408 0.0288,0.126114 0.0219,0.06807 0.0265,0.08862 0.0864,0.06976 0.02,-0.0063 0.0444,-0.0024 0.0611,-0.01514 0.0213,-0.01626 0.0308,-0.04393 0.0457,-0.06625 0.0234,-0.035 0.046,-0.07046 0.069,-0.105694 0,0 0.1064,0.06913 0.1064,0.06913 l 0,0 c -0.055,0.08507 -0.10202,0.177543 -0.19272,0.233402 -0.0283,0.01744 -0.0646,0.01977 -0.0979,0.01944 -0.12523,-0.0012 -0.17777,-0.06619 -0.20141,-0.180561 -0.008,-0.05006 -0.0212,-0.09958 -0.0251,-0.150184 -0.0244,-0.321166 0.0266,-0.04989 -0.0147,-0.351709 -0.0147,-0.107558 -0.0509,-0.211692 -0.0625,-0.319636 -0.005,-0.0443 1.8e-4,-0.08911 2.6e-4,-0.133667 -0.008,-0.14176 -0.0345,-0.281708 -0.0429,-0.423092 -0.002,-0.04153 0.006,-0.08345 0.002,-0.1248 -0.0132,-0.118576 -0.0412,-0.145243 -0.0978,-0.251912 -0.16278,-0.301063 -0.29254,-0.614889 -0.41969,-0.93236 -0.0691,-0.158898 -0.14861,-0.314515 -0.20627,-0.47811 -0.0186,-0.05287 -0.0356,-0.106384 -0.0501,-0.160534 -0.0182,-0.0681 -0.008,-0.147645 -0.048,-0.20596 -0.061,-0.08978 -0.16051,-0.146129 -0.24076,-0.219194 0,0 0.45084,-0.07514 0.45084,-0.07514 z"
       inkscape:connector-curvature="0" />
    <path
       style="fill:#000000;fill-opacity:1;stroke:#000000;stroke-width:1;stroke-miterlimit:4;stroke-opacity:1;stroke-dasharray:none"
       id="path3292"
       d="m 161.18886,64.937904 c -0.0221,-0.07052 -0.0196,-0.154338 -0.0664,-0.211556 -0.0508,-0.06212 -0.14619,-0.0705 -0.20701,-0.122829 -0.0174,-0.015 -0.0372,-0.06925 -0.0142,-0.0675 0.15783,0.01206 0.34501,-0.0028 0.46382,0.101847 0.0581,0.05116 -0.10441,0.120092 -0.12796,0.193848 -0.0183,0.05719 0.006,0.119927 0.009,0.17989 0.0113,0.0498 0.0173,0.101131 0.034,0.14941 0.0153,0.04438 0.0429,0.08363 0.0614,0.126784 0.0367,0.08555 0.0736,0.171505 0.0995,0.260919 0.0264,0.09103 0.0397,0.185367 0.0629,0.277262 0.008,0.04863 0.0189,0.09685 0.0238,0.145879 0.005,0.04922 4e-5,0.09915 0.006,0.148287 0.0213,0.184856 0.0873,0.359861 0.12837,0.540161 0.0771,0.185011 0.13866,0.373795 0.20876,0.562019 0.004,0.02625 0.004,0.05324 0.0115,0.07876 0.004,0.01475 0.0148,0.02683 0.0223,0.04024 0.009,0.02207 0.0197,0.04335 0.0259,0.06622 0.0203,0.07461 0.002,0.13938 0.0356,0.208406 0.0534,0.06978 0.0331,0.154469 0.0499,0.231562 0.001,0.0053 0.009,-0.01129 0.0139,-0.0084 0.0125,0.0078 0.0213,0.02113 0.0276,0.0344 0.0117,0.0244 0.0172,0.05132 0.0257,0.07697 3.7e-4,0.02876 7.5e-4,0.05752 0.001,0.08627 0,0 -0.13254,-2.16e-4 -0.13254,-2.16e-4 l 0,0 c 4.5e-4,-0.01727 9.1e-4,-0.03455 0.001,-0.05183 -0.003,-0.05288 -0.0536,-0.08295 -0.0699,-0.136318 -0.0159,-0.05204 0.0119,-0.137524 -0.0371,-0.186108 -0.0107,-0.03199 -0.0258,-0.06284 -0.0322,-0.09597 -0.0338,-0.174986 0.0387,0.05134 -0.004,-0.111706 -0.0124,-0.04701 -0.0436,-0.09308 -0.0565,-0.139164 -0.005,-0.01624 -0.002,-0.03367 -0.003,-0.05051 -0.0648,-0.194049 -0.13691,-0.383728 -0.2057,-0.576198 -0.0485,-0.187863 -0.11438,-0.370227 -0.13759,-0.564221 -0.005,-0.04387 2e-4,-0.08851 -0.004,-0.132492 -0.004,-0.04515 -0.0143,-0.08957 -0.0214,-0.134359 -0.023,-0.08683 -0.0351,-0.176435 -0.06,-0.262737 -0.0401,-0.138636 -0.11927,-0.272269 -0.16243,-0.407743 -0.0175,-0.05501 -0.0233,-0.113087 -0.035,-0.169631 -0.003,-0.05788 0.0184,-0.12237 -0.009,-0.173642 -0.0345,-0.06542 -0.21089,-0.09519 -0.16245,-0.151061 0.0998,-0.115129 0.29077,-0.09347 0.42933,-0.156834 0.0109,-0.005 -0.006,-0.04154 -0.0142,-0.03301 -0.0545,0.05531 -0.12499,0.11106 -0.13803,0.187589 -0.012,0.07052 0.0477,0.134889 0.0716,0.202334 0,0 -0.11241,0.04497 -0.11241,0.04497 z"
       inkscape:connector-curvature="0" />
    <path
       style="fill:#000000;fill-opacity:1;stroke:#000000;stroke-width:1;stroke-miterlimit:4;stroke-opacity:1;stroke-dasharray:none"
       id="path3294"
       d="m 162.78842,64.237651 c -0.0163,0.167899 -0.1009,0.457189 -0.0359,0.627159 0.007,0.01953 0.0229,0.03497 0.0344,0.05245 0.0139,0.0394 0.0279,0.0788 0.0418,0.118199 0.0395,0.264482 -0.005,0.531436 -0.008,0.79749 0.0197,0.112176 -0.0103,0.231583 0.007,0.343269 0.005,0.02992 0.0225,0.05624 0.0321,0.08494 0.044,0.131557 0.0327,0.103486 0.052,0.250429 -0.0237,0.136559 0.0269,0.260692 0.052,0.391113 0.007,0.03727 0.005,0.07612 0.0147,0.112918 0.006,0.02438 0.023,0.04491 0.0311,0.06871 0.0121,0.03556 0.0196,0.07254 0.0294,0.108809 0.032,0.06146 0.002,0.127434 0.0115,0.190151 0.002,0.0142 0.0168,0.02378 0.0216,0.03732 0.0118,0.03325 0.0206,0.06758 0.0279,0.102105 0.0195,0.09246 0.0161,0.108597 0.0184,0.199024 -0.008,0.08679 -0.0153,0.173077 -0.0157,0.260278 0,0 -0.13389,-4.2e-4 -0.13389,-4.2e-4 l 0,0 c 1.6e-4,-0.08677 0.006,-0.172644 0.0187,-0.258587 9.3e-4,-0.09143 -0.0118,-0.165515 -0.0395,-0.252942 -0.01,-0.03089 -0.025,-0.06043 -0.0301,-0.09242 -0.008,-0.04941 0.0251,-0.101083 -0.003,-0.150085 -0.0188,-0.0662 -0.0482,-0.129242 -0.0646,-0.196072 -0.008,-0.03232 -0.006,-0.06637 -0.0114,-0.09918 -0.0227,-0.13424 -0.0693,-0.265924 -0.0513,-0.404469 -0.005,-0.03907 -0.007,-0.0787 -0.0152,-0.11721 -0.011,-0.05101 -0.0629,-0.18517 -0.0704,-0.23333 -0.0174,-0.111999 0.007,-0.231253 -0.006,-0.343855 -0.005,-0.257005 0.0431,-0.50068 0.01,-0.753523 -0.0119,-0.03246 -0.0219,-0.06569 -0.0358,-0.09737 -0.0154,-0.03514 -0.0408,-0.06603 -0.0518,-0.102757 -0.008,-0.0272 -0.005,-0.05669 -0.005,-0.0851 -3.7e-4,-0.195269 0.0341,-0.387585 0.0551,-0.581149 0,0 0.12049,0.0241 0.12049,0.0241 z"
       inkscape:connector-curvature="0" />
    <path
       style="fill:none;stroke:#000000;stroke-width:1px;stroke-linecap:butt;stroke-linejoin:miter;stroke-opacity:1"
       d="m 178.07663,41.841002 c 1.31553,-0.359827 6.93253,-3.586772 7.45004,-4.621782 0.84896,-1.697918 -0.8961,-3.517627 -1.93149,-4.207891"
       id="path3298"
       inkscape:connector-curvature="0" />
    <path
       style="fill:none;stroke:#000000;stroke-width:1px;stroke-linecap:butt;stroke-linejoin:miter;stroke-opacity:1"
       d="m 181.24979,33.080311 c 3.17542,2.758306 -2.0986,6.733016 -4.13891,7.243091"
       id="path3300"
       inkscape:connector-curvature="0" />
    <path
       style="fill:none;stroke:#000000;stroke-width:1px;stroke-linecap:butt;stroke-linejoin:miter;stroke-opacity:1"
       d="m 177.66274,44.255366 c 2.06516,-1.152885 4.31501,-2.428957 4.89771,-4.759746"
       id="path3302"
       inkscape:connector-curvature="0" />
    <path
       style="fill:none;stroke:#000000;stroke-width:1px;stroke-linecap:butt;stroke-linejoin:miter;stroke-opacity:1"
       d="m 181.80165,41.978966 c 0.12878,0.275466 0.0326,0.479003 0.13796,0.689818 0.35277,0.705544 0.87704,5.301798 0.55186,6.277345 -0.35325,1.059736 -1.1524,4.386442 -0.55186,5.587528 0.19365,0.387292 0.009,0.984622 0.20695,1.379636 1.24289,2.485777 0.35075,5.812005 1.24167,8.484764 0.19941,0.598237 -0.27939,1.684855 0.069,2.207418 0.40856,0.612837 0.34601,1.932586 0.82778,2.414364 0.76008,0.760079 2.30286,5.005338 2.68981,5.585764"
       id="path3304"
       inkscape:connector-curvature="0"
       sodipodi:nodetypes="ccsscscsc" />
    <path
       style="font-size:medium;font-style:normal;font-variant:normal;font-weight:normal;font-stretch:normal;text-indent:0;text-align:start;text-decoration:none;line-height:normal;letter-spacing:normal;word-spacing:normal;text-transform:none;direction:ltr;block-progression:tb;writing-mode:lr-tb;text-anchor:start;baseline-shift:baseline;color:#000000;fill:#000000;fill-opacity:1;stroke:none;stroke-width:1px;marker:none;visibility:visible;display:inline;overflow:visible;enable-background:accumulate;font-family:Sans;-inkscape-font-specification:Sans"
       d="m 178.78145,49.46875 c 0.24464,-0.04046 0.35423,-0.190117 0.40625,-0.28125 0.307,-1.800808 0.92794,-3.048271 2.25,-4.28125 0.19858,-0.317839 0.3709,-0.5876 0.375,-0.59375 -2.08458,0.883109 -3.84219,3.743019 -3.03125,5.15625 z"
       id="path3306"
       inkscape:connector-curvature="0"
       sodipodi:nodetypes="ccccc" />
    <path
       style="font-size:medium;font-style:normal;font-variant:normal;font-weight:normal;font-stretch:normal;text-indent:0;text-align:start;text-decoration:none;line-height:normal;letter-spacing:normal;word-spacing:normal;text-transform:none;direction:ltr;block-progression:tb;writing-mode:lr-tb;text-anchor:start;baseline-shift:baseline;color:#000000;fill:#000000;fill-opacity:1;stroke:none;stroke-width:1px;marker:none;visibility:visible;display:inline;overflow:visible;enable-background:accumulate;font-family:Sans;-inkscape-font-specification:Sans"
       d="m 179.8125,58.59375 c -0.85366,0.87039 2.69889,3.775833 3.4375,4.28125 l 0.5625,-0.8125 c -1.51552,-1.010345 -2.99695,-2.013394 -4,-3.46875 z"
       id="path3308"
       inkscape:connector-curvature="0"
       sodipodi:nodetypes="cccc" />
    <path
       style="fill:#7b7c5a;fill-opacity:0.96078431;stroke:#000000;stroke-width:1px;stroke-linecap:butt;stroke-linejoin:miter;stroke-opacity:1"
       d="m 156.69227,32.114565 c -0.51235,0.288959 -0.84862,0.662508 -1.10371,1.172691 -0.2255,0.450992 -0.55206,5.311601 -0.27593,5.311601 0.56287,0 3.26164,-2.527583 4.00095,-2.897237 1.45181,-0.725905 1.8674,-0.484096 3.24214,-0.827782 0.21942,0.02302 8.23181,-0.11036 13.61773,0.770911 2.63204,0.430669 4.54106,2.308933 4.79274,2.236983 0.26869,-0.07681 2.40994,0.393118 0.0147,-6.606208"
       id="path3310"
       inkscape:connector-curvature="0"
       sodipodi:nodetypes="cssscssc" />
    <path
       style="fill:none;stroke:#000000;stroke-width:1px;stroke-linecap:butt;stroke-linejoin:miter;stroke-opacity:1"
       d="m 150.89779,32.804384 c -0.49193,1.283965 0.17743,1.5176 1.44862,1.5176"
       id="path3312"
       inkscape:connector-curvature="0" />
    <path
       style="fill:none;stroke:#000000;stroke-width:1px;stroke-linecap:butt;stroke-linejoin:miter;stroke-opacity:1"
       d="m 150.69085,34.253002 c 0.39745,0.848355 0.40915,1.863692 1.5176,1.586582"
       id="path3314"
       inkscape:connector-curvature="0" />
    <path
       style="fill:none;stroke:#000000;stroke-width:1px;stroke-linecap:butt;stroke-linejoin:miter;stroke-opacity:1"
       d="m 151.03576,34.735875 c 0.17949,0.337934 -0.45653,1.491305 -0.48287,1.862508 -0.0845,1.190533 7.27708,4.225915 8.82967,4.483819"
       id="path3316"
       inkscape:connector-curvature="0"
       sodipodi:nodetypes="csc" />
    <path
       style="fill:none;stroke:#000000;stroke-width:1px;stroke-linecap:butt;stroke-linejoin:miter;stroke-opacity:1"
       d="m 153.45012,39.012747 c 0.46462,2.636726 3.15187,4.254304 5.72549,4.89771"
       id="path3318"
       inkscape:connector-curvature="0" />
    <path
       style="fill:#c1beb9;fill-opacity:0.96078431;stroke:#000000;stroke-width:1px;stroke-linecap:butt;stroke-linejoin:miter;stroke-opacity:1"
       d="m 171.95909,62.280636 c -0.79276,0.03482 -1.63587,0.118657 -1.96875,0.0625 l 0.23588,1.153459 c 3.43588,0.230012 2.5862,3.859687 0.54537,3.440291 0.0347,0.01284 0.0598,0.02142 0.0937,0.03125 l 0.25,1.375 c 0.64491,0.128985 1.86825,0.206502 2.46875,-0.09375 0.72469,-0.400035 1.18303,-5.452615 0.0625,-5.84375 -0.2031,-0.07089 -0.89474,-0.159821 -1.6875,-0.125 z"
       id="path3320"
       inkscape:connector-curvature="0"
       sodipodi:nodetypes="sccccccss" />
    <path
       sodipodi:type="arc"
       style="fill:none;stroke:#000000;stroke-width:1;stroke-miterlimit:4;stroke-opacity:1;stroke-dasharray:none"
       id="path3324"
       sodipodi:cx="153.04269"
       sodipodi:cy="52.143684"
       sodipodi:rx="1.0067598"
       sodipodi:ry="1.0254079"
       d="m 154.04945,52.143684 c 0,0.566318 -0.45074,1.025408 -1.00676,1.025408 -0.55601,0 -1.00676,-0.45909 -1.00676,-1.025408 0,-0.566317 0.45075,-1.025408 1.00676,-1.025408 0.55602,0 1.00676,0.459091 1.00676,1.025408 z"
       transform="translate(-0.10341262,-1.0645655)" />
    <path
       d="m 154.04945,52.143684 c 0,0.566318 -0.45074,1.025408 -1.00676,1.025408 -0.55601,0 -1.00676,-0.45909 -1.00676,-1.025408 0,-0.566317 0.45075,-1.025408 1.00676,-1.025408 0.55602,0 1.00676,0.459091 1.00676,1.025408 z"
       sodipodi:ry="1.0254079"
       sodipodi:rx="1.0067598"
       sodipodi:cy="52.143684"
       sodipodi:cx="153.04269"
       id="path3326"
       style="fill:none;stroke:#000000;stroke-width:1;stroke-miterlimit:4;stroke-opacity:1;stroke-dasharray:none"
       sodipodi:type="arc"
       transform="translate(-0.0344308,6.1785256)" />
    <path
       transform="translate(-1.5520308,11.835035)"
       sodipodi:type="arc"
       style="fill:none;stroke:#000000;stroke-width:1;stroke-miterlimit:4;stroke-opacity:1;stroke-dasharray:none"
       id="path3328"
       sodipodi:cx="153.04269"
       sodipodi:cy="52.143684"
       sodipodi:rx="1.0067598"
       sodipodi:ry="1.0254079"
       d="m 154.04945,52.143684 c 0,0.566318 -0.45074,1.025408 -1.00676,1.025408 -0.55601,0 -1.00676,-0.45909 -1.00676,-1.025408 0,-0.566317 0.45075,-1.025408 1.00676,-1.025408 0.55602,0 1.00676,0.459091 1.00676,1.025408 z" />
    <path
       style="fill:none;stroke:#000000;stroke-width:1px;stroke-linecap:butt;stroke-linejoin:miter;stroke-opacity:1"
       d="m 151.38067,42.392857 -1.10371,9.43187"
       id="path3330"
       inkscape:connector-curvature="0" />
    <path
       style="fill:none;stroke:#000000;stroke-width:1px;stroke-linecap:butt;stroke-linejoin:miter;stroke-opacity:1"
       d="m 149.93205,41.01322 c 2.4826,2.930332 5.53493,5.10104 5.93243,10.811507"
       id="path3332"
       inkscape:connector-curvature="0"
       sodipodi:nodetypes="cc" />
    <path
       style="fill:none;stroke:#000000;stroke-width:1px;stroke-linecap:butt;stroke-linejoin:miter;stroke-opacity:1"
       d="m 183.25027,45.841948 c 0.64449,-2.114946 2.60845,-3.016101 3.58705,-5.104655"
       id="path3334"
       inkscape:connector-curvature="0"
       sodipodi:nodetypes="cc" />
    <path
       style="fill:none;stroke:#000000;stroke-width:1px;stroke-linecap:butt;stroke-linejoin:miter;stroke-opacity:1"
       d="m 183.38823,50.652036 2.89724,0"
       id="path3336"
       inkscape:connector-curvature="0" />
    <path
       inkscape:connector-curvature="0"
       id="path3338"
       d="m 184.49194,56.377527 2.89724,0"
       style="fill:none;stroke:#000000;stroke-width:1px;stroke-linecap:butt;stroke-linejoin:miter;stroke-opacity:1" />
    <path
       style="fill:none;stroke:#000000;stroke-width:1px;stroke-linecap:butt;stroke-linejoin:miter;stroke-opacity:1"
       d="m 185.66463,62.654873 2.89724,0"
       id="path3340"
       inkscape:connector-curvature="0" />
    <path
       style="fill:none;stroke:#000000;stroke-width:1px;stroke-linecap:butt;stroke-linejoin:miter;stroke-opacity:1"
       d="m 192.2179,65.294821 c 0.0273,2.67165 0.19417,5.482773 -1.37963,6.553273"
       id="path3342"
       inkscape:connector-curvature="0"
       sodipodi:nodetypes="cc" />
    <path
       sodipodi:nodetypes="cc"
       inkscape:connector-curvature="0"
       id="path3344"
       d="m 145.39753,65.225839 c -0.0273,2.67165 -0.19417,5.482773 1.37963,6.553273"
       style="fill:none;stroke:#000000;stroke-width:1px;stroke-linecap:butt;stroke-linejoin:miter;stroke-opacity:1" />
    <path
       style="fill:none;stroke:#000000;stroke-width:1px;stroke-linecap:butt;stroke-linejoin:miter;stroke-opacity:1"
       d="m 156.00245,42.737766 c 0.51944,10.770967 1.58702,22.948054 -3.93192,31.765427"
       id="path3346"
       inkscape:connector-curvature="0"
       sodipodi:nodetypes="cc" />
    <path
       style="fill:#ffffff;stroke:#000000;stroke-width:1px;stroke-linecap:butt;stroke-linejoin:miter;stroke-opacity:1"
       d="m 164.13752,32.106376 -2.20264,1.249862 6.69124,1.034728 6.27735,-0.896764 -2.75928,-1.310655"
       id="path4122"
       inkscape:connector-curvature="0"
       sodipodi:nodetypes="ccccc" />
    <rect
       style="fill:#2b2310;fill-opacity:0.96078431;stroke:none"
       id="rect4318"
       width="2.4696944"
       height="2.2117653"
       x="124.54904"
       y="-61.624619"
       ry="0"
       transform="matrix(0.86445299,0.50271366,-0.91382906,0.40609906,0,0)" />
    <rect
       transform="matrix(0.86445299,0.50271366,-0.91382906,0.40609906,0,0)"
       ry="0"
       y="-58.196365"
       x="127.00854"
       height="2.2117653"
       width="2.4696944"
       id="rect4320"
       style="fill:#2b2310;fill-opacity:0.96078431;stroke:none" />
    <rect
       style="fill:#2b2310;fill-opacity:0.96078431;stroke:none"
       id="rect4322"
       width="2.4696944"
       height="2.2117653"
       x="129.72731"
       y="-54.400455"
       ry="0"
       transform="matrix(0.86445299,0.50271366,-0.91382906,0.40609906,0,0)" />
    <rect
       transform="matrix(0.86445299,0.50271366,-0.91382906,0.40609906,0,0)"
       ry="0"
       y="-51.110973"
       x="132.2989"
       height="2.2117653"
       width="2.4696944"
       id="rect4324"
       style="fill:#2b2310;fill-opacity:0.96078431;stroke:none" />
    <rect
       style="fill:#2b2310;fill-opacity:0.96078431;stroke:none"
       id="rect4326"
       width="2.4696944"
       height="2.2117653"
       x="136.25084"
       y="-47.188961"
       ry="0"
       transform="matrix(0.86445299,0.50271366,-0.91382906,0.40609906,0,0)" />
    <rect
       transform="matrix(0.86445299,0.50271366,-0.91382906,0.40609906,0,0)"
       ry="0"
       y="-43.709499"
       x="139.67026"
       height="2.2117653"
       width="2.4696944"
       id="rect4328"
       style="fill:#2b2310;fill-opacity:0.96078431;stroke:none" />
    <rect
       style="fill:#2b2310;fill-opacity:0.96078431;stroke:none"
       id="rect4330"
       width="2.4696944"
       height="2.2117653"
       x="143.43301"
       y="-39.966454"
       ry="0"
       transform="matrix(0.86445299,0.50271366,-0.91382906,0.40609906,0,0)" />
    <rect
       transform="matrix(0.86445299,0.50271366,-0.91382906,0.40609906,0,0)"
       ry="0"
       y="-35.944588"
       x="147.7493"
       height="2.2117653"
       width="2.4696944"
       id="rect4332"
       style="fill:#2b2310;fill-opacity:0.96078431;stroke:none" />
    <path
       style="fill:none;stroke:#000000;stroke-width:1px;stroke-linecap:butt;stroke-linejoin:miter;stroke-opacity:1"
       d="m 169.24695,34.459948 c -1.67424,-0.33594 -3.57329,-1.026741 -5.24261,0.344908 -7.37508,8.435412 -4.9925,22.415184 -4.89773,27.454765 0,0.264355 -0.24294,1.412619 -0.069,1.586581 0.99157,0.991575 2.25981,0.06898 3.51807,0.06898"
       id="path3214"
       inkscape:connector-curvature="0"
       sodipodi:nodetypes="ccccc" />
    <path
       style="fill:none;stroke:#000000;stroke-width:1px;stroke-linecap:butt;stroke-linejoin:miter;stroke-opacity:1"
       d="m 163.59045,48.808166 c -1.71782,2.192593 -0.54908,5.717154 -1.44862,8.415782 -0.18472,0.554165 0.12325,1.202111 -0.13796,1.724545 -0.35706,0.714107 0.12509,2.120938 -0.069,2.897237"
       id="path3198"
       inkscape:connector-curvature="0" />
    <rect
       transform="matrix(0.90549422,0.42435859,-0.87436875,0.48526208,0,0)"
       ry="0"
       y="-44.747589"
       x="142.09465"
       height="2.2117653"
       width="2.4696944"
       id="rect4334"
       style="fill:#2b2310;fill-opacity:0.96078431;stroke:none" />
    <rect
       style="fill:#2b2310;fill-opacity:0.96078431;stroke:none"
       id="rect4336"
       width="2.4696944"
       height="2.2117653"
       x="144.55414"
       y="-41.319336"
       ry="0"
       transform="matrix(0.90549422,0.42435859,-0.87436875,0.48526208,0,0)" />
    <rect
       transform="matrix(0.90549422,0.42435859,-0.87436875,0.48526208,0,0)"
       ry="0"
       y="-37.523426"
       x="147.27292"
       height="2.2117653"
       width="2.4696944"
       id="rect4338"
       style="fill:#2b2310;fill-opacity:0.96078431;stroke:none" />
    <rect
       style="fill:#2b2310;fill-opacity:0.96078431;stroke:none"
       id="rect4340"
       width="2.4696944"
       height="2.2117653"
       x="149.84451"
       y="-34.233944"
       ry="0"
       transform="matrix(0.90549422,0.42435859,-0.87436875,0.48526208,0,0)" />
    <rect
       transform="matrix(0.90549422,0.42435859,-0.87436875,0.48526208,0,0)"
       ry="0"
       y="-30.31193"
       x="153.79645"
       height="2.2117653"
       width="2.4696944"
       id="rect4342"
       style="fill:#2b2310;fill-opacity:0.96078431;stroke:none" />
    <rect
       style="fill:#2b2310;fill-opacity:0.96078431;stroke:none"
       id="rect4344"
       width="2.4696944"
       height="2.2117653"
       x="157.21587"
       y="-26.832468"
       ry="0"
       transform="matrix(0.90549422,0.42435859,-0.87436875,0.48526208,0,0)" />
    <rect
       transform="matrix(0.90549422,0.42435859,-0.87436875,0.48526208,0,0)"
       ry="0"
       y="-23.089422"
       x="160.97862"
       height="2.2117653"
       width="2.4696944"
       id="rect4346"
       style="fill:#2b2310;fill-opacity:0.96078431;stroke:none" />
    <rect
       style="fill:#2b2310;fill-opacity:0.96078431;stroke:none"
       id="rect4348"
       width="2.4696944"
       height="2.2117653"
       x="152.96175"
       y="-38.092422"
       ry="0"
       transform="matrix(0.90549422,0.42435859,-0.87436875,0.48526208,0,0)" />
    <rect
       transform="matrix(0.90549422,0.42435859,-0.87436875,0.48526208,0,0)"
       ry="0"
       y="-34.612961"
       x="156.38116"
       height="2.2117653"
       width="2.4696944"
       id="rect4350"
       style="fill:#2b2310;fill-opacity:0.96078431;stroke:none" />
    <rect
       style="fill:#2b2310;fill-opacity:0.96078431;stroke:none"
       id="rect4352"
       width="2.4696944"
       height="2.2117653"
       x="160.14392"
       y="-30.869915"
       ry="0"
       transform="matrix(0.90549422,0.42435859,-0.87436875,0.48526208,0,0)" />
    <rect
       transform="matrix(0.42435859,-0.90549422,0.48526208,0.87436875,0,0)"
       ry="0"
       y="212.28809"
       x="157.02354"
       height="2.2117653"
       width="2.4696944"
       id="rect4354"
       style="fill:#2b2310;fill-opacity:0.96078431;stroke:none" />
    <rect
       style="fill:#2b2310;fill-opacity:0.96078431;stroke:none"
       id="rect4356"
       width="2.4696944"
       height="2.2117653"
       x="159.69081"
       y="214.92984"
       ry="0"
       transform="matrix(0.42435859,-0.90549422,0.48526208,0.87436875,0,0)" />
    <rect
       transform="matrix(0.42435859,-0.90549422,0.48526208,0.87436875,0,0)"
       ry="0"
       y="217.61678"
       x="162.66966"
       height="2.2117653"
       width="2.4696944"
       id="rect4358"
       style="fill:#2b2310;fill-opacity:0.96078431;stroke:none" />
    <rect
       transform="matrix(0.71613112,-0.69796577,0.1461476,0.9892628,0,0)"
       ry="0"
       y="162.59914"
       x="179.91913"
       height="2.2117653"
       width="2.4696944"
       id="rect4360"
       style="fill:#2b2310;fill-opacity:0.96078431;stroke:none" />
    <rect
       style="fill:#2b2310;fill-opacity:0.96078431;stroke:none"
       id="rect4362"
       width="2.4696944"
       height="2.2117653"
       x="185.71501"
       y="169.52115"
       ry="0"
       transform="matrix(0.71613112,-0.69796577,0.1461476,0.9892628,0,0)"
       inkscape:transform-center-x="4.4247788"
       inkscape:transform-center-y="-2.5811209" />
    <rect
       inkscape:transform-center-y="-2.5811209"
       inkscape:transform-center-x="4.4247788"
       transform="matrix(0.71613112,-0.69796577,0.1461476,0.9892628,0,0)"
       ry="0"
       y="189.23341"
       x="216.19003"
       height="2.2117653"
       width="2.4696944"
       id="rect4364"
       style="fill:#2b2310;fill-opacity:0.96078431;stroke:none" />
    <path
       sodipodi:nodetypes="ccccc"
       inkscape:connector-curvature="0"
       id="path4366"
       d="m 190.43396,58.445584 c 0.24464,-0.04046 1.60905,-6.174673 0.40625,-0.28125 -1.89764,-3.050304 -3.21961,-10.268596 -2.93533,-14.31986 0.19858,-0.317839 0.3709,-0.5876 0.375,-0.59375 -1.67496,5.5009 -0.0155,15.29122 2.15408,15.19486 z"
       style="font-size:medium;font-style:normal;font-variant:normal;font-weight:normal;font-stretch:normal;text-indent:0;text-align:start;text-decoration:none;line-height:normal;letter-spacing:normal;word-spacing:normal;text-transform:none;direction:ltr;block-progression:tb;writing-mode:lr-tb;text-anchor:start;baseline-shift:baseline;color:#000000;fill:#000000;fill-opacity:1;stroke:none;stroke-width:1px;marker:none;visibility:visible;display:inline;overflow:visible;enable-background:accumulate;font-family:Sans;-inkscape-font-specification:Sans" />
  </g>
</svg>
