<?xml version="1.0" encoding="UTF-8" standalone="no"?>
<!-- Created with Inkscape (http://www.inkscape.org/) -->

<svg
   xmlns:dc="http://purl.org/dc/elements/1.1/"
   xmlns:cc="http://creativecommons.org/ns#"
   xmlns:rdf="http://www.w3.org/1999/02/22-rdf-syntax-ns#"
   xmlns:svg="http://www.w3.org/2000/svg"
   xmlns="http://www.w3.org/2000/svg"
   xmlns:xlink="http://www.w3.org/1999/xlink"
   xmlns:sodipodi="http://sodipodi.sourceforge.net/DTD/sodipodi-0.dtd"
   xmlns:inkscape="http://www.inkscape.org/namespaces/inkscape"
   width="52.34375"
   height="43.244919"
   id="svg2"
   version="1.1"
   inkscape:version="0.48.2 r9819"
   sodipodi:docname="ithilien_ranger.svg"
   inkscape:export-filename="G:\GitHub\ithilien_ranger.png"
   inkscape:export-xdpi="1715"
   inkscape:export-ydpi="1715">
  <defs
     id="defs4">
    <linearGradient
       inkscape:collect="always"
       id="linearGradient4011">
      <stop
         style="stop-color:#ffffff;stop-opacity:1;"
         offset="0"
         id="stop4013" />
      <stop
         style="stop-color:#ffffff;stop-opacity:0;"
         offset="1"
         id="stop4015" />
    </linearGradient>
    <linearGradient
       inkscape:collect="always"
       id="linearGradient3997">
      <stop
         style="stop-color:#ffffff;stop-opacity:1;"
         offset="0"
         id="stop3999" />
      <stop
         style="stop-color:#ffffff;stop-opacity:0;"
         offset="1"
         id="stop4001" />
    </linearGradient>
    <inkscape:path-effect
       effect="skeletal"
       id="path-effect4237"
       is_visible="true"
       pattern="M 0,5 C 0,2.24 2.24,0 5,0 7.76,0 10,2.24 10,5 10,7.76 7.76,10 5,10 2.24,10 0,7.76 0,5 z"
       copytype="single_stretched"
       prop_scale="1"
       scale_y_rel="false"
       spacing="0"
       normal_offset="0"
       tang_offset="0"
       prop_units="false"
       vertical_pattern="false"
       fuse_tolerance="0" />
    <clipPath
       id="clipPath2999"
       clipPathUnits="userSpaceOnUse">
      <path
         id="path3001"
         d="M 0,792 612,792 612,0 0,0 0,792 z"
         inkscape:connector-curvature="0" />
    </clipPath>
    <radialGradient
       gradientUnits="userSpaceOnUse"
       gradientTransform="matrix(0.75988491,-0.03632001,0.13155835,2.7524547,16.986326,-78.268899)"
       r="12.650181"
       fy="46.658409"
       fx="96.306435"
       cy="46.658409"
       cx="96.306435"
       id="radialGradient3972"
       xlink:href="#linearGradient3966"
       inkscape:collect="always" />
    <clipPath
       clipPathUnits="userSpaceOnUse"
       id="clipPath2999-4">
      <path
         inkscape:connector-curvature="0"
         d="M 0,792 612,792 612,0 0,0 0,792 z"
         id="path3001-0" />
    </clipPath>
    <linearGradient
       id="linearGradient3966">
      <stop
         id="stop3968"
         offset="0"
         style="stop-color:#c0ac02;stop-opacity:1;" />
      <stop
         id="stop3970"
         offset="1"
         style="stop-color:#fdea41;stop-opacity:0;" />
    </linearGradient>
    <radialGradient
       inkscape:collect="always"
       xlink:href="#linearGradient3997"
       id="radialGradient4003"
       cx="165.81134"
       cy="47.693741"
       fx="165.81134"
       fy="47.693741"
       r="3.8123069"
       gradientTransform="matrix(0.64374811,-0.18781617,0.31213841,1.069868,43.640483,27.15595)"
       gradientUnits="userSpaceOnUse" />
    <radialGradient
       inkscape:collect="always"
       xlink:href="#linearGradient3997"
       id="radialGradient4007"
       gradientUnits="userSpaceOnUse"
       gradientTransform="matrix(-0.64374811,-0.18781617,-0.31213841,1.069868,293.73143,27.15595)"
       cx="165.81134"
       cy="47.693741"
       fx="165.81134"
       fy="47.693741"
       r="3.8123069" />
    <radialGradient
       inkscape:collect="always"
       xlink:href="#linearGradient4011"
       id="radialGradient4017"
       cx="169.32254"
       cy="41.784931"
       fx="169.32254"
       fy="41.784931"
       r="6.982676"
       gradientTransform="matrix(0.31036379,-0.01814613,0.03701409,0.63307367,114.75293,21.468668)"
       gradientUnits="userSpaceOnUse" />
    <linearGradient
       id="linearGradient3966-2">
      <stop
         style="stop-color:#c0ac02;stop-opacity:1;"
         offset="0"
         id="stop3968-4" />
      <stop
         style="stop-color:#fdea41;stop-opacity:0;"
         offset="1"
         id="stop3970-5" />
    </linearGradient>
    <clipPath
       id="clipPath2999-4-8"
       clipPathUnits="userSpaceOnUse">
      <path
         id="path3001-0-8"
         d="M 0,792 612,792 612,0 0,0 0,792 z"
         inkscape:connector-curvature="0" />
    </clipPath>
    <radialGradient
       inkscape:collect="always"
       xlink:href="#linearGradient3966-2"
       id="radialGradient3972-4"
       cx="96.306435"
       cy="46.658409"
       fx="96.306435"
       fy="46.658409"
       r="12.650181"
       gradientTransform="matrix(0.75988491,-0.03632001,0.13155835,2.7524547,16.986326,-78.268899)"
       gradientUnits="userSpaceOnUse" />
    <clipPath
       clipPathUnits="userSpaceOnUse"
       id="clipPath2999-0">
      <path
         inkscape:connector-curvature="0"
         d="M 0,792 612,792 612,0 0,0 0,792 z"
         id="path3001-9" />
    </clipPath>
    <inkscape:path-effect
       fuse_tolerance="0"
       vertical_pattern="false"
       prop_units="false"
       tang_offset="0"
       normal_offset="0"
       spacing="0"
       scale_y_rel="false"
       prop_scale="1"
       copytype="single_stretched"
       pattern="M 0,5 C 0,2.24 2.24,0 5,0 7.76,0 10,2.24 10,5 10,7.76 7.76,10 5,10 2.24,10 0,7.76 0,5 z"
       is_visible="true"
       id="path-effect4237-4"
       effect="skeletal" />
    <mask
       maskUnits="userSpaceOnUse"
       id="mask5251">
      <path
         inkscape:connector-curvature="0"
         d="m 16.635283,59.820752 c 8.7325,-47.29375 5.3425,-42.67875 14.2675,-42.85625 l 23.44,0 c 8.92625,0.1775 5.535,-4.4375 14.265,42.85625 l -51.9725,0 z"
         style="fill:#e5e4de;stroke:#c4281b;stroke-width:0.3125;stroke-linecap:butt;stroke-linejoin:miter;stroke-miterlimit:4;stroke-opacity:1;stroke-dasharray:none;display:inline"
         id="path5253" />
    </mask>
    <mask
       maskUnits="userSpaceOnUse"
       id="mask6644">
      <path
         inkscape:connector-curvature="0"
         d="M 0.19486,43.07867 C 8.92736,-4.21508 5.53736,0.39992 14.46236,0.22242 l 23.44,0 c 8.92625,0.1775 5.535,-4.4375 14.265,42.85625 l -51.9725,0 z"
         style="fill:#f2f3f2;stroke:#c4281b;stroke-width:0.3125;stroke-linecap:butt;stroke-linejoin:miter;stroke-miterlimit:4;stroke-opacity:1;stroke-dasharray:none;display:inline"
         id="path6646" />
    </mask>
  </defs>
  <sodipodi:namedview
     id="base"
     pagecolor="#ffffff"
     bordercolor="#666666"
     borderopacity="1.0"
     inkscape:pageopacity="0.0"
     inkscape:pageshadow="2"
     inkscape:zoom="6.18"
     inkscape:cx="15.488021"
     inkscape:cy="29.095123"
     inkscape:document-units="px"
     inkscape:current-layer="layer6"
     showgrid="false"
     fit-margin-top="0"
     fit-margin-left="0"
     fit-margin-right="0"
     fit-margin-bottom="0"
     inkscape:window-width="1280"
     inkscape:window-height="968"
     inkscape:window-x="-4"
     inkscape:window-y="-4"
     inkscape:window-maximized="1"
     showguides="true"
     inkscape:guide-bbox="true"
     inkscape:snap-global="false">
    <sodipodi:guide
       orientation="0,1"
       position="90.96883,56.361549"
       id="guide3274" />
    <sodipodi:guide
       orientation="1,0"
       position="105.81909,61.478251"
       id="guide3960" />
  </sodipodi:namedview>
  <metadata
     id="metadata7">
    <rdf:RDF>
      <cc:Work
         rdf:about="">
        <dc:format>image/svg+xml</dc:format>
        <dc:type
           rdf:resource="http://purl.org/dc/dcmitype/StillImage" />
        <dc:title />
      </cc:Work>
    </rdf:RDF>
  </metadata>
  <g
     inkscape:groupmode="layer"
     id="layer6"
     inkscape:label="Layer#1">
    <path
       transform="translate(-281.25,-444.66133)"
       inkscape:connector-curvature="0"
       d="m 281.44486,487.74 c 8.7325,-47.29375 5.3425,-42.67875 14.2675,-42.85625 l 23.44,0 c 8.92625,0.1775 5.535,-4.4375 14.265,42.85625 l -51.9725,0 z"
       style="fill:#624732;fill-opacity:1;stroke:#c4281b;stroke-width:0.3125;stroke-linecap:butt;stroke-linejoin:miter;stroke-miterlimit:4;stroke-opacity:1;stroke-dasharray:none;display:inline"
       id="path4499" />
    <path
       style="fill:#d7c599;stroke:#958a73;stroke-width:0.3125;stroke-linecap:butt;stroke-linejoin:miter;stroke-miterlimit:4;stroke-opacity:1;stroke-dasharray:none;display:inline"
       d="M 11.15625,0.1875 C 8.4642323,0.28215659 7.7103233,1.4205133 6.1875,9.71875 c 1.563043,10.193988 1.006597,20.335051 0.625,33.375 l 38.875,0 c -0.381597,-13.039949 -0.938043,-23.181012 0.625,-33.375 -2.013788,-10.9736245 -2.695045,-9.4154531 -8.28125,-9.5 l -0.125,0 -23.3125,0 c -0.04684,9.3147e-4 -0.07883,-6.9873e-4 -0.125,0 -1.361926,0.0206127 -2.444582,-0.0617677 -3.3125,-0.03125 z"
       id="path3712"
       inkscape:connector-curvature="0" />
    <path
       style="fill:#7c5c45;stroke:#958a73;stroke-width:0.3125;stroke-linecap:butt;stroke-linejoin:miter;stroke-miterlimit:4;stroke-opacity:1;stroke-dasharray:none;display:inline"
       d="M 10.59375,0.1875 C 10.49026,0.19498664 10.410005,0.23734938 10.3125,0.25 10.166363,0.26789678 10.008752,0.28145031 9.875,0.3125 9.6588677,0.36672231 9.4383887,0.42921794 9.25,0.53125 9.24188,0.535424 9.226825,0.52698 9.21875,0.53125 9.198682,0.54244539 9.1760379,0.55066627 9.15625,0.5625 9.0987607,0.59514489 9.0552078,0.64949793 9,0.6875 8.9693884,0.70964192 8.9362106,0.72603149 8.90625,0.75 8.8528889,0.79063407 8.8013892,0.82856996 8.75,0.875 8.7226268,0.9007802 8.7143586,0.94117305 8.6875,0.96875 8.2203692,1.4483737 7.8166786,2.2257367 7.4375,3.40625 12.298283,13.230764 10.80368,29.204071 10.875,43 l -0.15625,0.09375 30.84375,0 L 41.40625,43 C 41.477513,29.215916 39.998037,13.264124 44.84375,3.4375 44.460825,2.2354916 44.065801,1.4534255 43.59375,0.96875 43.507802,0.88050375 43.403991,0.78923486 43.3125,0.71875 43.221009,0.64826514 43.129081,0.58582754 43.03125,0.53125 42.835587,0.42209491 42.63206,0.36915017 42.40625,0.3125 42.269521,0.27819806 42.118409,0.26941723 41.96875,0.25 41.873761,0.23836709 41.788175,0.19458633 41.6875,0.1875 c -0.01934,-0.001399 -0.04295,0.001239 -0.0625,0 -0.466401,-0.0284163 -1.017152,-0.0167046 -1.625,0 -0.618592,0.0169998 -1.292951,0.047174 -2.09375,0.03125 -0.03545,-5.6257e-4 -0.0579,7.1302e-4 -0.09375,0 l -23.34375,0 c -0.03585,7.1302e-4 -0.0583,-5.6257e-4 -0.09375,0 -0.800799,0.015924 -1.475158,-0.0142502 -2.09375,-0.03125 -0.607848,-0.0167046 -1.158599,-0.0284163 -1.625,0 -0.01955,0.001239 -0.04316,-0.001399 -0.0625,0 z"
       id="path3682"
       inkscape:connector-curvature="0" />
    <g
       id="g4546">
      <g
         transform="translate(-0.12200081,0.04066694)"
         id="g4502">
        <path
           inkscape:connector-curvature="0"
           style="fill:#1b2a34;fill-opacity:1;stroke:none;display:inline"
           d="m 46.125,18.25 a 0.50005,0.50005 0 0 0 -0.28125,0.84375 L 47.5625,21.125 a 0.50005,0.50005 0 0 0 0.75,0.15625 C 48.25939,20.966703 48.207676,20.617591 48.15625,20.3125 l -1.5625,-1.875 a 0.50005,0.50005 0 0 0 -0.375,-0.1875 0.50005,0.50005 0 0 0 -0.09375,0 z"
           id="path4495" />
        <path
           inkscape:connector-curvature="0"
           style="fill:#1b2a34;fill-opacity:1;stroke:none;display:inline"
           d="m 47.78125,18.75 a 0.50005,0.50005 0 0 0 -0.21875,0.1875 l -1.71875,2.03125 a 0.50005,0.50005 0 1 0 0.75,0.65625 L 48.0625,19.84375 C 48.00551,19.505469 47.96123,19.076582 47.90625,18.75 c -2.61e-4,-0.0016 -0.03099,0.0016 -0.03125,0 a 0.50005,0.50005 0 0 0 -0.03125,0 0.50005,0.50005 0 0 0 -0.0625,0 z"
           id="path3705" />
      </g>
      <g
         transform="translate(0.59208267,4.6390433)"
         id="g4506">
        <path
           inkscape:connector-curvature="0"
           id="path4508"
           d="m 46.125,18.25 a 0.50005,0.50005 0 0 0 -0.28125,0.84375 L 47.5625,21.125 a 0.50005,0.50005 0 0 0 0.75,0.15625 C 48.25939,20.966703 48.207676,20.617591 48.15625,20.3125 l -1.5625,-1.875 a 0.50005,0.50005 0 0 0 -0.375,-0.1875 0.50005,0.50005 0 0 0 -0.09375,0 z"
           style="fill:#1b2a34;fill-opacity:1;stroke:none;display:inline" />
        <path
           inkscape:connector-curvature="0"
           id="path4510"
           d="m 47.78125,18.75 a 0.50005,0.50005 0 0 0 -0.21875,0.1875 l -1.71875,2.03125 a 0.50005,0.50005 0 1 0 0.75,0.65625 L 48.0625,19.84375 C 48.00551,19.505469 47.96123,19.076582 47.90625,18.75 c -2.61e-4,-0.0016 -0.03099,0.0016 -0.03125,0 a 0.50005,0.50005 0 0 0 -0.03125,0 0.50005,0.50005 0 0 0 -0.0625,0 z"
           style="fill:#1b2a34;fill-opacity:1;stroke:none;display:inline" />
      </g>
      <g
         id="g4512"
         transform="translate(1.0198604,7.1390231)">
        <g
           transform="translate(0.28466856,1.3420089)"
           id="g4518">
          <path
             inkscape:connector-curvature="0"
             id="path4514"
             d="m 46.125,18.25 a 0.50005,0.50005 0 0 0 -0.28125,0.84375 L 47.5625,21.125 a 0.50005,0.50005 0 0 0 0.75,0.15625 C 48.25939,20.966703 48.207676,20.617591 48.15625,20.3125 l -1.5625,-1.875 a 0.50005,0.50005 0 0 0 -0.375,-0.1875 0.50005,0.50005 0 0 0 -0.09375,0 z"
             style="fill:#1b2a34;fill-opacity:1;stroke:none;display:inline" />
          <path
             inkscape:connector-curvature="0"
             id="path4516"
             d="m 47.78125,18.75 a 0.50005,0.50005 0 0 0 -0.21875,0.1875 l -1.71875,2.03125 a 0.50005,0.50005 0 1 0 0.75,0.65625 L 48.0625,19.84375 C 48.00551,19.505469 47.96123,19.076582 47.90625,18.75 c -2.61e-4,-0.0016 -0.03099,0.0016 -0.03125,0 a 0.50005,0.50005 0 0 0 -0.03125,0 0.50005,0.50005 0 0 0 -0.0625,0 z"
             style="fill:#1b2a34;fill-opacity:1;stroke:none;display:inline" />
        </g>
      </g>
      <g
         transform="translate(1.6298645,11.043049)"
         id="g4522">
        <g
           id="g4524"
           transform="translate(0.28466856,1.3420089)">
          <path
             style="fill:#1b2a34;fill-opacity:1;stroke:none;display:inline"
             d="m 46.125,18.25 a 0.50005,0.50005 0 0 0 -0.28125,0.84375 L 47.5625,21.125 a 0.50005,0.50005 0 0 0 0.75,0.15625 C 48.25939,20.966703 48.207676,20.617591 48.15625,20.3125 l -1.5625,-1.875 a 0.50005,0.50005 0 0 0 -0.375,-0.1875 0.50005,0.50005 0 0 0 -0.09375,0 z"
             id="path4526"
             inkscape:connector-curvature="0" />
          <path
             style="fill:#1b2a34;fill-opacity:1;stroke:none;display:inline"
             d="m 47.78125,18.75 a 0.50005,0.50005 0 0 0 -0.21875,0.1875 l -1.71875,2.03125 a 0.50005,0.50005 0 1 0 0.75,0.65625 L 48.0625,19.84375 C 48.00551,19.505469 47.96123,19.076582 47.90625,18.75 c -2.61e-4,-0.0016 -0.03099,0.0016 -0.03125,0 a 0.50005,0.50005 0 0 0 -0.03125,0 0.50005,0.50005 0 0 0 -0.0625,0 z"
             id="path4528"
             inkscape:connector-curvature="0" />
        </g>
      </g>
      <g
         id="g4530"
         transform="translate(2.3618694,14.906408)">
        <g
           transform="translate(0.28466856,1.3420089)"
           id="g4532">
          <path
             inkscape:connector-curvature="0"
             id="path4534"
             d="m 46.125,18.25 a 0.50005,0.50005 0 0 0 -0.28125,0.84375 L 47.5625,21.125 a 0.50005,0.50005 0 0 0 0.75,0.15625 C 48.25939,20.966703 48.207676,20.617591 48.15625,20.3125 l -1.5625,-1.875 a 0.50005,0.50005 0 0 0 -0.375,-0.1875 0.50005,0.50005 0 0 0 -0.09375,0 z"
             style="fill:#1b2a34;fill-opacity:1;stroke:none;display:inline" />
          <path
             inkscape:connector-curvature="0"
             id="path4536"
             d="m 47.78125,18.75 a 0.50005,0.50005 0 0 0 -0.21875,0.1875 l -1.71875,2.03125 a 0.50005,0.50005 0 1 0 0.75,0.65625 L 48.0625,19.84375 C 48.00551,19.505469 47.96123,19.076582 47.90625,18.75 c -2.61e-4,-0.0016 -0.03099,0.0016 -0.03125,0 a 0.50005,0.50005 0 0 0 -0.03125,0 0.50005,0.50005 0 0 0 -0.0625,0 z"
             style="fill:#1b2a34;fill-opacity:1;stroke:none;display:inline" />
        </g>
      </g>
      <g
         transform="translate(3.0938743,18.769767)"
         id="g4538">
        <g
           id="g4540"
           transform="translate(0.28466856,1.3420089)">
          <path
             style="fill:#1b2a34;fill-opacity:1;stroke:none;display:inline"
             d="m 46.125,18.25 a 0.50005,0.50005 0 0 0 -0.28125,0.84375 L 47.5625,21.125 a 0.50005,0.50005 0 0 0 0.75,0.15625 C 48.25939,20.966703 48.207676,20.617591 48.15625,20.3125 l -1.5625,-1.875 a 0.50005,0.50005 0 0 0 -0.375,-0.1875 0.50005,0.50005 0 0 0 -0.09375,0 z"
             id="path4542"
             inkscape:connector-curvature="0" />
          <path
             style="fill:#1b2a34;fill-opacity:1;stroke:none;display:inline"
             d="m 47.78125,18.75 a 0.50005,0.50005 0 0 0 -0.21875,0.1875 l -1.71875,2.03125 a 0.50005,0.50005 0 1 0 0.75,0.65625 L 48.0625,19.84375 C 48.00551,19.505469 47.96123,19.076582 47.90625,18.75 c -2.61e-4,-0.0016 -0.03099,0.0016 -0.03125,0 a 0.50005,0.50005 0 0 0 -0.03125,0 0.50005,0.50005 0 0 0 -0.0625,0 z"
             id="path4544"
             inkscape:connector-curvature="0" />
        </g>
      </g>
    </g>
    <g
       id="g4570"
       transform="matrix(-1,0,0,1,52.380953,0)">
      <g
         id="g4572"
         transform="translate(-0.12200081,0.04066694)">
        <path
           id="path4574"
           d="m 46.125,18.25 a 0.50005,0.50005 0 0 0 -0.28125,0.84375 L 47.5625,21.125 a 0.50005,0.50005 0 0 0 0.75,0.15625 C 48.25939,20.966703 48.207676,20.617591 48.15625,20.3125 l -1.5625,-1.875 a 0.50005,0.50005 0 0 0 -0.375,-0.1875 0.50005,0.50005 0 0 0 -0.09375,0 z"
           style="fill:#1b2a34;fill-opacity:1;stroke:none;display:inline"
           inkscape:connector-curvature="0" />
        <path
           id="path4576"
           d="m 47.78125,18.75 a 0.50005,0.50005 0 0 0 -0.21875,0.1875 l -1.71875,2.03125 a 0.50005,0.50005 0 1 0 0.75,0.65625 L 48.0625,19.84375 C 48.00551,19.505469 47.96123,19.076582 47.90625,18.75 c -2.61e-4,-0.0016 -0.03099,0.0016 -0.03125,0 a 0.50005,0.50005 0 0 0 -0.03125,0 0.50005,0.50005 0 0 0 -0.0625,0 z"
           style="fill:#1b2a34;fill-opacity:1;stroke:none;display:inline"
           inkscape:connector-curvature="0" />
      </g>
      <g
         id="g4578"
         transform="translate(0.59208267,4.6390433)">
        <path
           style="fill:#1b2a34;fill-opacity:1;stroke:none;display:inline"
           d="m 46.125,18.25 a 0.50005,0.50005 0 0 0 -0.28125,0.84375 L 47.5625,21.125 a 0.50005,0.50005 0 0 0 0.75,0.15625 C 48.25939,20.966703 48.207676,20.617591 48.15625,20.3125 l -1.5625,-1.875 a 0.50005,0.50005 0 0 0 -0.375,-0.1875 0.50005,0.50005 0 0 0 -0.09375,0 z"
           id="path4580"
           inkscape:connector-curvature="0" />
        <path
           style="fill:#1b2a34;fill-opacity:1;stroke:none;display:inline"
           d="m 47.78125,18.75 a 0.50005,0.50005 0 0 0 -0.21875,0.1875 l -1.71875,2.03125 a 0.50005,0.50005 0 1 0 0.75,0.65625 L 48.0625,19.84375 C 48.00551,19.505469 47.96123,19.076582 47.90625,18.75 c -2.61e-4,-0.0016 -0.03099,0.0016 -0.03125,0 a 0.50005,0.50005 0 0 0 -0.03125,0 0.50005,0.50005 0 0 0 -0.0625,0 z"
           id="path4582"
           inkscape:connector-curvature="0" />
      </g>
      <g
         transform="translate(1.0198604,7.1390231)"
         id="g4584">
        <g
           id="g4586"
           transform="translate(0.28466856,1.3420089)">
          <path
             style="fill:#1b2a34;fill-opacity:1;stroke:none;display:inline"
             d="m 46.125,18.25 a 0.50005,0.50005 0 0 0 -0.28125,0.84375 L 47.5625,21.125 a 0.50005,0.50005 0 0 0 0.75,0.15625 C 48.25939,20.966703 48.207676,20.617591 48.15625,20.3125 l -1.5625,-1.875 a 0.50005,0.50005 0 0 0 -0.375,-0.1875 0.50005,0.50005 0 0 0 -0.09375,0 z"
             id="path4588"
             inkscape:connector-curvature="0" />
          <path
             style="fill:#1b2a34;fill-opacity:1;stroke:none;display:inline"
             d="m 47.78125,18.75 a 0.50005,0.50005 0 0 0 -0.21875,0.1875 l -1.71875,2.03125 a 0.50005,0.50005 0 1 0 0.75,0.65625 L 48.0625,19.84375 C 48.00551,19.505469 47.96123,19.076582 47.90625,18.75 c -2.61e-4,-0.0016 -0.03099,0.0016 -0.03125,0 a 0.50005,0.50005 0 0 0 -0.03125,0 0.50005,0.50005 0 0 0 -0.0625,0 z"
             id="path4590"
             inkscape:connector-curvature="0" />
        </g>
      </g>
      <g
         id="g4592"
         transform="translate(1.6298645,11.043049)">
        <g
           transform="translate(0.28466856,1.3420089)"
           id="g4594">
          <path
             inkscape:connector-curvature="0"
             id="path4596"
             d="m 46.125,18.25 a 0.50005,0.50005 0 0 0 -0.28125,0.84375 L 47.5625,21.125 a 0.50005,0.50005 0 0 0 0.75,0.15625 C 48.25939,20.966703 48.207676,20.617591 48.15625,20.3125 l -1.5625,-1.875 a 0.50005,0.50005 0 0 0 -0.375,-0.1875 0.50005,0.50005 0 0 0 -0.09375,0 z"
             style="fill:#1b2a34;fill-opacity:1;stroke:none;display:inline" />
          <path
             inkscape:connector-curvature="0"
             id="path4598"
             d="m 47.78125,18.75 a 0.50005,0.50005 0 0 0 -0.21875,0.1875 l -1.71875,2.03125 a 0.50005,0.50005 0 1 0 0.75,0.65625 L 48.0625,19.84375 C 48.00551,19.505469 47.96123,19.076582 47.90625,18.75 c -2.61e-4,-0.0016 -0.03099,0.0016 -0.03125,0 a 0.50005,0.50005 0 0 0 -0.03125,0 0.50005,0.50005 0 0 0 -0.0625,0 z"
             style="fill:#1b2a34;fill-opacity:1;stroke:none;display:inline" />
        </g>
      </g>
      <g
         transform="translate(2.3618694,14.906408)"
         id="g4600">
        <g
           id="g4602"
           transform="translate(0.28466856,1.3420089)">
          <path
             style="fill:#1b2a34;fill-opacity:1;stroke:none;display:inline"
             d="m 46.125,18.25 a 0.50005,0.50005 0 0 0 -0.28125,0.84375 L 47.5625,21.125 a 0.50005,0.50005 0 0 0 0.75,0.15625 C 48.25939,20.966703 48.207676,20.617591 48.15625,20.3125 l -1.5625,-1.875 a 0.50005,0.50005 0 0 0 -0.375,-0.1875 0.50005,0.50005 0 0 0 -0.09375,0 z"
             id="path4604"
             inkscape:connector-curvature="0" />
          <path
             style="fill:#1b2a34;fill-opacity:1;stroke:none;display:inline"
             d="m 47.78125,18.75 a 0.50005,0.50005 0 0 0 -0.21875,0.1875 l -1.71875,2.03125 a 0.50005,0.50005 0 1 0 0.75,0.65625 L 48.0625,19.84375 C 48.00551,19.505469 47.96123,19.076582 47.90625,18.75 c -2.61e-4,-0.0016 -0.03099,0.0016 -0.03125,0 a 0.50005,0.50005 0 0 0 -0.03125,0 0.50005,0.50005 0 0 0 -0.0625,0 z"
             id="path4606"
             inkscape:connector-curvature="0" />
        </g>
      </g>
      <g
         id="g4608"
         transform="translate(3.0938743,18.769767)">
        <g
           transform="translate(0.28466856,1.3420089)"
           id="g4610">
          <path
             inkscape:connector-curvature="0"
             id="path4612"
             d="m 46.125,18.25 a 0.50005,0.50005 0 0 0 -0.28125,0.84375 L 47.5625,21.125 a 0.50005,0.50005 0 0 0 0.75,0.15625 C 48.25939,20.966703 48.207676,20.617591 48.15625,20.3125 l -1.5625,-1.875 a 0.50005,0.50005 0 0 0 -0.375,-0.1875 0.50005,0.50005 0 0 0 -0.09375,0 z"
             style="fill:#1b2a34;fill-opacity:1;stroke:none;display:inline" />
          <path
             inkscape:connector-curvature="0"
             id="path4614"
             d="m 47.78125,18.75 a 0.50005,0.50005 0 0 0 -0.21875,0.1875 l -1.71875,2.03125 a 0.50005,0.50005 0 1 0 0.75,0.65625 L 48.0625,19.84375 C 48.00551,19.505469 47.96123,19.076582 47.90625,18.75 c -2.61e-4,-0.0016 -0.03099,0.0016 -0.03125,0 a 0.50005,0.50005 0 0 0 -0.03125,0 0.50005,0.50005 0 0 0 -0.0625,0 z"
             style="fill:#1b2a34;fill-opacity:1;stroke:none;display:inline" />
        </g>
      </g>
    </g>
    <g
       id="g5044"
       transform="matrix(0.87870097,0,0,0.87870097,2.493892,9.7900814)">
      <path
         sodipodi:nodetypes="cccc"
         inkscape:connector-curvature="0"
         id="path6770"
         d="m 36.270083,-0.46367133 -20.093017,0 c 0,0 -5.61497,29.51113333 10.046509,38.52212933 15.316899,-9.412404 10.046508,-38.52212933 10.046508,-38.52212933 z"
         style="fill:#694020;stroke:#1b2a34;stroke-width:0.5;stroke-linecap:butt;stroke-linejoin:miter;stroke-miterlimit:4;stroke-opacity:1;stroke-dasharray:none" />
      <path
         d="m 26.170088,6.3976358 c -0.03912,0 -0.07313,0.059521 -0.132646,0.2397833 -0.401341,0.2839998 -1.018656,0.5339867 -0.738058,0.8707041 0.346921,-0.2618911 0.622418,0.035716 0.738058,0.3350178 l 0,0.4302493 c -0.06462,0.037411 -0.180263,0 -0.362227,-0.1972684 -0.656429,-0.4149449 -1.816233,0.198969 -0.998249,0.8673029 0.65643,0.3656276 -0.05612,-0.9897459 0.845196,-0.5271843 0.817985,0.3248132 0.365628,2.5695965 -0.659831,1.5900545 -0.738057,-0.5782008 -2.141047,-0.6445241 -2.306004,-1.7975265 0.147952,-0.4200466 1.419995,-0.4965735 0.670033,0 0.824788,0.571399 0.493173,-1.3519723 -0.392837,-0.7329566 -1.164906,-0.030613 -0.45916,1.5543425 -1.127493,2.1580537 -0.149653,1.0509674 0.892812,0.5203814 1.253337,0.042515 -0.379232,0.2057714 -1.447205,0 -0.525483,-0.2397842 0.896213,0.073128 1.635971,0.5799026 2.285598,1.1002846 -0.04252,0.481268 1.569648,1.028858 0.387734,0.914918 -0.586704,0.438754 0.802682,0.673437 0.472767,1.380884 0.306106,0.782273 -0.522083,1.413193 -0.860501,0.452358 0.130945,-0.637723 -1.399589,-1.222727 -0.97274,-0.45746 1.272044,0.511879 -0.913219,0.265292 -1.025458,-0.387735 -0.481268,-0.65473 0.09524,-1.644475 0.340118,-0.744861 0.74146,-0.954033 -0.812883,-1.045865 -0.83499,0.02721 -0.02551,1.244835 1.178511,1.343469 1.833239,1.91827 0.499975,0.437052 2.161455,1.391085 0.920022,1.865551 -0.585005,0.01701 -1.583253,-1.073075 -1.317961,-1.375781 0.909818,0.102036 -0.171759,-0.423447 -0.447256,-0.494872 -0.704046,-0.442155 0.31461,0.66153 -0.105437,0.940428 0.950632,-0.01701 -0.14455,1.328163 0.8554,0.962536 0.579902,0.326514 1.156402,1.027159 1.460809,1.583253 -0.392837,1.03226 -1.617264,-0.528884 -2.050916,-1.025458 C 22.940661,15.405684 22.59374,14.696536 22.248519,14.055413 21.621,12.892207 21.518964,12.771464 20.956068,11.477312 20.530919,10.594705 19.517366,9.6797856 18.78271,10.371927 c -0.171761,0.161557 0,1.064571 0.605411,1.042464 0.418346,-0.01701 -0.530586,-0.2857 -0.460861,-0.695544 0.04591,-0.273794 0.440454,-0.579902 1.056068,0.06802 0.346921,0.363927 1.115589,1.294152 0.102036,1.142799 -0.627519,0.04591 -0.814585,0.09863 -1.998197,0.472765 -1.183613,0.37243 -1.319661,2.295802 -0.02721,2.545789 0.91832,0.110538 2.110437,-0.671735 1.823036,-1.705695 -0.22788,-0.816285 -1.977791,0.03231 -0.557795,-0.08503 0.695543,0.690441 -0.569699,2.093431 -1.382582,1.333266 -0.964236,-0.403041 -0.39964,-1.505026 0.340118,-1.790726 0.783974,-0.232981 2.069623,-0.595208 2.503274,0.34522 0.01701,0.632622 0.894513,2.006701 -0.323112,1.637672 -0.982944,0.05782 -1.897864,0.465963 -2.610412,0.823088 -0.646225,0.377531 -0.952332,-1.044165 -1.215925,-0.142851 0.07313,0.335018 0.82819,1.039064 0.870705,0.54249 1.236331,0.100335 -0.959135,1.171709 -1.243135,0.270395 -0.243184,-0.780572 -0.299304,1.246535 0.477867,0.865601 0.430251,0.02721 0.840094,-0.566297 0.605412,0.227881 -0.192167,0.323112 -1.613864,0 -0.812883,0.527183 0.248286,1.360475 1.263541,-1.1462 1.440402,0.204072 0.25849,1.309457 2.350221,1.037362 2.402939,-0.204072 0.503376,-0.357124 -0.481268,-2.547489 -0.409843,-0.940428 0.77547,1.042464 -1.059471,2.351921 -1.690391,1.195518 -0.537388,-0.877508 -0.306106,-2.275396 0.792477,-2.540689 0.664932,-0.556093 1.756713,-0.394537 2.433549,0 0.539088,0.07653 0.901315,0.777172 1.270343,0.977842 -0.408142,-0.248287 -1.535636,-0.324814 -0.647926,0.192167 1.101985,0 1.357075,1.234631 2.073024,1.693791 0.619016,1.020357 -1.275445,0.03401 -1.275445,-0.595208 -1.103685,-0.221077 -0.573101,0.578202 0.07993,0.748262 -0.741459,0.765267 -1.370678,-0.850297 -1.027158,-1.353673 -0.498274,-1.00505 -1.4336,-0.06462 -0.94553,0.537388 1.178512,-0.119042 0.670034,1.564546 0.367329,1.700593 0.360525,0.510178 1.721,0.01701 0.573099,-0.03401 -0.433651,-0.680237 1.787325,-0.578201 0.962537,0.221078 -0.658131,1.428498 2.215874,1.105385 1.238032,0.187065 -0.08674,0.969338 -1.586654,0.255088 -0.722752,-0.391137 1.193816,-0.493172 1.913167,0.884309 1.945479,1.819636 0.03401,2.261789 0.09013,4.540585 -0.06462,6.802373 -0.433651,0.833291 -1.860449,0.79928 -1.865552,1.97269 -0.331615,0.408142 -0.43195,1.530534 -1.263541,1.054368 0.161557,-0.272095 1.093482,-0.425149 0.265293,-0.391137 -1.31626,0.697243 1.132595,1.156404 1.105386,0.03401 -0.08333,-0.527183 1.212524,-1.326462 1.312858,-0.833291 -0.843494,0.323114 -0.602009,1.564546 -1.323062,1.819636 -0.210873,-0.25509 0.493173,-0.527184 -0.149651,-0.272096 -0.739759,0.765268 1.351972,0.816285 1.047565,-0.170059 0.06292,-1.258439 1.812833,-1.020355 1.210823,0.221077 -0.241484,0.71425 -0.719351,0.06802 -0.292502,-0.119041 -0.911519,-0.03401 -0.132647,1.071374 0.362226,1.190415 0.181963,0.493172 -0.249987,0.595208 0.185364,1.08838 0.06632,0.340119 0.173461,0.374131 0.244886,0.374131 0.06802,0 0.187065,-0.03401 0.255089,-0.374131 0.425149,-0.493172 0,-0.595208 0.17006,-1.08838 0.510178,-0.119041 1.275445,-1.224427 0.37413,-1.190415 0.425149,0.187065 -0.05102,0.833291 -0.289101,0.119041 -0.612213,-1.241432 1.139398,-1.479516 1.207422,-0.221077 -0.306107,0.986344 1.785623,0.935327 1.037362,0.170059 -0.62922,-0.255088 0.06802,0.01701 -0.136047,0.272096 -0.731256,-0.25509 -0.493173,-1.496522 -1.326464,-1.819636 0.102036,-0.493171 1.394487,0.306108 1.309458,0.833291 -0.03401,1.122392 2.414842,0.663231 1.105386,-0.03401 -0.833291,-0.03401 0.102035,0.119042 0.255089,0.391137 -0.816285,0.476166 -0.918321,-0.646226 -1.25844,-1.054368 0,-1.17341 -1.428498,-1.139399 -1.853647,-1.97269 -0.170059,-2.261788 -0.102036,-4.540584 -0.06802,-6.802373 0.03401,-0.935327 0.748262,-2.312808 1.938677,-1.819636 0.867303,0.646225 -0.629219,1.360475 -0.714249,0.391137 -0.986345,0.91832 1.887659,1.241433 1.224427,-0.187065 -0.816285,-0.799279 1.394487,-0.901315 0.969339,-0.221078 -1.139398,0.05102 0.204071,0.54419 0.578202,0.03401 -0.306107,-0.136047 -0.816285,-1.819635 0.357124,-1.700593 0.493172,-0.602011 -0.442154,-1.542438 -0.935326,-0.537388 0.340119,0.503376 -0.289101,2.11894 -1.037362,1.353673 0.663231,-0.17006 1.190415,-0.969339 0.08503,-0.748262 0,0.62922 -1.887659,1.615565 -1.275445,0.595208 0.714249,-0.45916 0.969339,-1.693791 2.074724,-1.693791 0.884308,-0.516981 -0.238083,-0.440454 -0.646225,-0.192167 0.374131,-0.20067 0.731255,-0.901315 1.258439,-0.977842 0.680238,-0.394537 1.785623,-0.556093 2.448856,0 1.088379,0.265293 1.326462,1.663181 0.782273,2.540688 -0.62922,1.156403 -2.465861,-0.153054 -1.683588,-1.195518 0.06802,-1.607061 -0.918321,0.583304 -0.408144,0.940428 0.05102,1.241434 2.14275,1.513529 2.397838,0.204072 0.17006,-1.350272 1.190416,1.156403 1.445505,-0.204072 0.799279,-0.527183 -0.62922,-0.204071 -0.816285,-0.527183 -0.238083,-0.794178 0.170059,-0.200671 0.612214,-0.227881 0.765267,0.380934 0.714249,-1.646173 0.476166,-0.865601 -0.289101,0.901314 -2.482867,-0.17006 -1.241433,-0.270395 0.03401,0.496574 0.782273,-0.207472 0.867302,-0.54249 -0.272095,-0.901314 -0.578202,0.520382 -1.224427,0.142851 -0.71425,-0.357125 -1.615565,-0.765267 -2.601909,-0.823088 -1.224427,0.369029 -0.340118,-1.00505 -0.323112,-1.637672 0.425147,-0.940428 1.7176,-0.578201 2.499873,-0.34522 0.731255,0.2857 1.309457,1.387685 0.340118,1.790726 -0.816285,0.760165 -2.074724,-0.642825 -1.377481,-1.333266 1.411493,0.117341 -0.340119,-0.731255 -0.561196,0.08503 -0.289101,1.03396 0.901316,1.816233 1.819635,1.705695 1.292452,-0.249987 1.156404,-2.173359 -0.03401,-2.545789 -1.173409,-0.374131 -1.360475,-0.426849 -1.989694,-0.472765 -1.020357,0.151353 -0.25509,-0.778872 0.102036,-1.142799 0.612213,-0.647926 1.003351,-0.341818 1.054368,-0.06802 0.06802,0.409844 -0.884309,0.678538 -0.459161,0.695544 0.595208,0.02211 0.782274,-0.880907 0.595208,-1.042464 -0.731256,-0.6921415 -1.734606,0.222778 -2.159754,1.105385 -0.561196,1.294152 -0.663231,1.414895 -1.292451,2.578101 -0.357125,0.641123 -0.697244,1.350271 -1.122392,2.040712 -0.442155,0.496574 -1.666582,2.057718 -2.057719,1.025458 0.306107,-0.556094 0.884309,-1.256739 1.462511,-1.583253 1.00335,0.365627 -0.102035,-0.979541 0.850297,-0.962536 -0.425148,-0.278898 0.595208,-1.382583 -0.102036,-0.940428 -0.272095,0.07142 -1.360475,0.596908 -0.442154,0.494872 0.255089,0.302706 -0.731255,1.392787 -1.326463,1.375781 -1.241434,-0.474466 0.425148,-1.428499 0.918321,-1.865551 0.663231,-0.574801 1.853647,-0.673435 1.836641,-1.91827 -0.01701,-1.073075 -1.581553,-0.981243 -0.833291,-0.02721 0.238083,-0.899614 0.816285,0.09013 0.340119,0.744861 -0.119042,0.653027 -2.295802,0.899614 -1.020357,0.387735 0.425149,-0.765267 -1.105386,-0.180263 -0.986344,0.45746 -0.340119,0.960835 -1.156404,0.329915 -0.850297,-0.452358 -0.340119,-0.707447 1.054368,-0.94213 0.476166,-1.380883 -1.188715,0.11394 0.425149,-0.43365 0.374131,-0.914918 0.663232,-0.520382 1.394487,-1.0271591 2.295802,-1.1002848 0.91832,0.2397843 -0.153054,0.4455556 -0.527185,0.2397843 0.357125,0.4778665 1.394488,1.0084515 1.25844,-0.042515 -0.680238,-0.6037112 0.03401,-2.1886644 -1.139398,-2.1580537 -0.884309,-0.6190156 -1.207422,1.3043556 -0.391136,0.7329567 -0.748262,-0.4965736 0.527184,-0.4200467 0.680237,0 C 29.622306,9.3617739 28.210813,9.4280972 27.479557,10.006298 26.459201,10.98584 26.001741,8.7410566 26.816326,8.4162434 27.717641,7.9536818 27.003391,9.3090553 27.666623,8.9434278 28.482908,8.2750938 27.326504,7.66118 26.663272,8.0761249 26.476207,8.2733932 26.374171,8.3108064 26.306148,8.2733932 l 0,-0.4302493 C 26.42517,7.5438348 26.697265,7.2462312 27.037384,7.5081223 27.326485,7.1714049 26.697265,6.921418 26.306129,6.6374181 26.238105,6.4571557 26.204093,6.3976348 26.170081,6.3976348 z m -4.826285,6.9078112 c 0.641124,0.134347 0.221078,1.610462 0,0.489771 -0.03061,-0.141149 -0.161556,-0.386035 0,-0.489771 z m 9.655971,0 c 0.153054,0.103736 0.03401,0.348622 0,0.489771 -0.221077,1.120691 -0.646225,-0.355424 0,-0.489771 z"
         id="white_tree"
         inkscape:connector-curvature="0"
         style="fill:#f2f3f2" />
      <path
         style="fill:none;stroke:#1b2a34;stroke-width:0.47379547;stroke-linecap:butt;stroke-linejoin:miter;stroke-miterlimit:4;stroke-opacity:1;stroke-dasharray:0.94759095, 0.47379547;stroke-dashoffset:0"
         d="M 35.541905,0.32298787 16.833511,0.25667423 c 0,0 -5.453321,28.27614777 9.387354,36.81488577 14.514155,-8.919109 9.32104,-36.74857213 9.32104,-36.74857213 z"
         id="path6775"
         inkscape:connector-curvature="0"
         sodipodi:nodetypes="cccc" />
      <path
         transform="translate(2.5982908,1.297097)"
         inkscape:transform-center-y="-0.15080402"
         inkscape:transform-center-x="0.020793288"
         d="m 24.698795,3.9878907 -1.071042,-0.5196012 -1.028918,0.5987036 0.1632,-1.1791876 -0.887354,-0.7935493 1.171905,-0.2091768 0.480503,-1.08914408 0.561078,1.04990928 1.184321,0.1204212 -0.825141,0.8580564 z"
         inkscape:randomized="0"
         inkscape:rounded="0"
         inkscape:flatsided="false"
         sodipodi:arg2="1.5331456"
         sodipodi:arg1="0.90482709"
         sodipodi:r2="0.88664961"
         sodipodi:r1="1.7875998"
         sodipodi:cy="2.5822682"
         sodipodi:cx="23.594378"
         sodipodi:sides="5"
         id="path3637"
         style="fill:#e5e4de;fill-opacity:1;stroke:none;display:inline"
         sodipodi:type="star" />
      <use
         height="43.244919"
         width="52.34375"
         transform="translate(-4.138357,1.1735639)"
         id="use3639"
         inkscape:transform-center-y="-0.15080402"
         inkscape:transform-center-x="0.020793288"
         xlink:href="#path3637"
         y="0"
         x="0"
         style="display:inline" />
      <use
         height="43.244919"
         width="52.34375"
         transform="translate(-7.6590488,3.3353922)"
         id="use3641"
         inkscape:transform-center-y="-0.15080402"
         inkscape:transform-center-x="0.020793288"
         xlink:href="#path3637"
         y="0"
         x="0"
         style="display:inline" />
      <use
         x="0"
         y="0"
         xlink:href="#path3637"
         inkscape:transform-center-x="-0.020793029"
         inkscape:transform-center-y="-0.15080402"
         id="use3645"
         transform="matrix(-1,0,0,1,56.482107,1.1735639)"
         width="52.34375"
         height="43.244919"
         style="display:inline" />
      <use
         x="0"
         y="0"
         xlink:href="#path3637"
         inkscape:transform-center-x="-0.020793229"
         inkscape:transform-center-y="-0.15080402"
         id="use3647"
         transform="matrix(-1,0,0,1,60.002799,3.3353922)"
         width="52.34375"
         height="43.244919"
         style="display:inline" />
    </g>
    <path
       style="font-size:medium;font-style:normal;font-variant:normal;font-weight:normal;font-stretch:normal;text-indent:0;text-align:start;text-decoration:none;line-height:normal;letter-spacing:normal;word-spacing:normal;text-transform:none;direction:ltr;block-progression:tb;writing-mode:lr-tb;text-anchor:start;baseline-shift:baseline;color:#000000;fill:#27462c;fill-opacity:1;stroke:#1b2a34;stroke-width:0.375;stroke-miterlimit:4;stroke-dasharray:none;marker:none;visibility:visible;display:inline;overflow:visible;enable-background:accumulate;font-family:Sans;-inkscape-font-specification:Sans"
       d="M 49.46875,29.96875 C 36.075294,33.497934 19.023751,33.047078 1.90625,32.625 l -0.09375,3.75 c 17.106951,0.421818 34.378152,0.96457 48.59375,-2.78125 l -0.9375,-3.625 z"
       id="path6722"
       inkscape:connector-curvature="0" />
    <path
       id="path6746"
       d="m 31.671122,31.095211 c -0.270534,0.02368 -0.447046,0.268434 -0.423367,0.538969 l 0.08992,1.027322 c -0.870365,0.68353 -0.965765,1.864573 0.250686,2.86405 l 0.144417,1.649942 c 0.02368,0.270533 0.237303,0.449771 0.507838,0.426091 l 6.039409,-0.528621 c 0.270535,-0.02368 0.480902,-0.240029 0.457223,-0.510562 L 38.71,36.251092 33.978092,36.66527 c -0.270535,0.02368 -0.484158,-0.155558 -0.507838,-0.426092 l -0.348781,-3.984765 c -0.02368,-0.270535 0.152833,-0.515289 0.423367,-0.538969 l 4.731909,-0.414177 -0.02452,-0.280179 C 38.228546,30.750553 37.981067,30.54291 37.710532,30.56659 l -6.03941,0.528621 z"
       style="fill:#a3a2a4;fill-opacity:1;stroke:#1b2a34;stroke-width:0.375;stroke-linecap:round;stroke-linejoin:round;stroke-miterlimit:4;stroke-opacity:1;stroke-dashoffset:0"
       inkscape:connector-curvature="0" />
    <g
       id="g3671"
       transform="translate(0,-0.07082153)">
      <path
         style="fill:#1b2a34;stroke:none"
         d="m 42.292102,32.087607 c 0,0 2.768054,0.166757 4.036356,1.773129 1.2683,1.606371 -0.02244,2.143105 -0.02244,2.143105 z"
         id="path3659"
         inkscape:connector-curvature="0"
         sodipodi:nodetypes="czcc" />
      <path
         style="font-size:medium;font-style:normal;font-variant:normal;font-weight:normal;font-stretch:normal;text-indent:0;text-align:start;text-decoration:none;line-height:normal;letter-spacing:normal;word-spacing:normal;text-transform:none;direction:ltr;block-progression:tb;writing-mode:lr-tb;text-anchor:start;baseline-shift:baseline;color:#000000;fill:#27462c;fill-opacity:1;stroke:#1b2a34;stroke-width:0.375;stroke-miterlimit:4;stroke-dasharray:none;marker:none;visibility:visible;display:inline;overflow:visible;enable-background:accumulate;font-family:Sans;-inkscape-font-specification:Sans"
         d="m 35.141609,36.125567 c 2.180686,-0.20219 4.206761,-0.332223 5.761664,-0.292315 1.554903,0.03991 2.652823,0.388205 2.719886,0.434895 0.788139,0.100146 2.122294,0.129651 2.526171,-0.450079 0.373109,-0.535565 -0.133995,-1.660262 -0.579608,-2.110206 -1.391683,-0.968902 -2.756543,-1.583286 -4.58835,-1.630301 -1.831807,-0.04702 -3.934269,0.104211 -6.178115,0.312257"
         id="path3661"
         inkscape:connector-curvature="0"
         sodipodi:nodetypes="cscscsc" />
      <path
         transform="matrix(0.96252078,-0.27120795,0.27120795,0.96252078,10.468521,1.5032173)"
         sodipodi:type="arc"
         style="fill:#1b2a34;fill-opacity:1;stroke:none"
         id="path3663"
         sodipodi:cx="18.101765"
         sodipodi:cy="38.652729"
         sodipodi:rx="0.5873729"
         sodipodi:ry="0.53397536"
         d="m 18.689138,38.652729 c 0,0.294906 -0.262976,0.533975 -0.587373,0.533975 -0.324397,0 -0.587373,-0.239069 -0.587373,-0.533975 0,-0.294906 0.262976,-0.533975 0.587373,-0.533975 0.324397,0 0.587373,0.239069 0.587373,0.533975 z" />
      <path
         d="m 18.689138,38.652729 c 0,0.294906 -0.262976,0.533975 -0.587373,0.533975 -0.324397,0 -0.587373,-0.239069 -0.587373,-0.533975 0,-0.294906 0.262976,-0.533975 0.587373,-0.533975 0.324397,0 0.587373,0.239069 0.587373,0.533975 z"
         sodipodi:ry="0.53397536"
         sodipodi:rx="0.5873729"
         sodipodi:cy="38.652729"
         sodipodi:cx="18.101765"
         id="path3665"
         style="fill:#1b2a34;fill-opacity:1;stroke:none"
         sodipodi:type="arc"
         transform="matrix(0.96252078,-0.27120795,0.27120795,0.96252078,14.086631,1.8919643)" />
    </g>
    <rect
       ry="0.49019608"
       y="36.197754"
       x="28.626511"
       height="1.1035491"
       width="3.8090243"
       id="rect6748"
       style="fill:#a3a2a4;fill-opacity:1;stroke:#1b2a34;stroke-width:0.375;stroke-linecap:round;stroke-linejoin:round;stroke-miterlimit:4;stroke-opacity:1;stroke-dasharray:none;stroke-dashoffset:0"
       transform="matrix(0.99619124,-0.08719527,0.08719527,0.99619124,0,0)" />
    <path
       style="font-size:medium;font-style:normal;font-variant:normal;font-weight:normal;font-stretch:normal;text-indent:0;text-align:start;text-decoration:none;line-height:normal;letter-spacing:normal;word-spacing:normal;text-transform:none;direction:ltr;block-progression:tb;writing-mode:lr-tb;text-anchor:start;baseline-shift:baseline;color:#000000;fill:#27462c;fill-opacity:1;stroke:#1b2a34;stroke-width:0.375;stroke-miterlimit:4;stroke-dasharray:none;marker:none;visibility:visible;display:inline;overflow:visible;enable-background:accumulate;font-family:Sans;-inkscape-font-specification:Sans"
       d="m 1.5625,35.375 -0.46875,3.71875 c 18.730544,2.340577 36.322063,3.390481 50.21875,-0.0625 l -0.90625,-3.625 C 37.417725,38.633575 20.139835,37.696431 1.5625,35.375 z"
       id="path6716"
       inkscape:connector-curvature="0" />
    <g
       id="g3651">
      <path
         sodipodi:nodetypes="czcc"
         inkscape:connector-curvature="0"
         id="path3649"
         d="m 22.446375,37.67765 c 0,0 2.619084,0.911225 3.40419,2.801365 0.785105,1.890139 -0.602826,2.056697 -0.602826,2.056697 z"
         style="fill:#1b2a34;stroke:none" />
      <path
         sodipodi:nodetypes="ccsscscssc"
         inkscape:connector-curvature="0"
         id="path6710"
         d="M 2.15625,33.53125 1.25,37.15625 c 3.8892396,0.976206 8.911166,1.675137 13.21875,2.46875 2.153792,0.396807 4.139197,0.821135 5.625,1.28125 1.485803,0.460115 2.448113,1.093122 2.5,1.15625 0.73144,0.310142 2.007589,0.700375 2.553557,0.251907 0.504374,-0.414302 0.321303,-1.634377 0.01442,-2.188311 -1.07675,-1.310024 -2.223831,-2.271542 -3.974232,-2.813596 -1.750401,-0.542054 -3.815078,-0.9667 -6.03125,-1.375 -4.432345,-0.816599 -9.4571061,-1.516978 -13,-2.40625 z"
         style="font-size:medium;font-style:normal;font-variant:normal;font-weight:normal;font-stretch:normal;text-indent:0;text-align:start;text-decoration:none;line-height:normal;letter-spacing:normal;word-spacing:normal;text-transform:none;direction:ltr;block-progression:tb;writing-mode:lr-tb;text-anchor:start;baseline-shift:baseline;color:#000000;fill:#27462c;fill-opacity:1;stroke:#1b2a34;stroke-width:0.5;stroke-miterlimit:4;stroke-dasharray:none;marker:none;visibility:visible;display:inline;overflow:visible;enable-background:accumulate;font-family:Sans;-inkscape-font-specification:Sans" />
      <path
         d="m 18.689138,38.652729 a 0.5873729,0.53397536 0 1 1 -1.174746,0 0.5873729,0.53397536 0 1 1 1.174746,0 z"
         sodipodi:ry="0.53397536"
         sodipodi:rx="0.5873729"
         sodipodi:cy="38.652729"
         sodipodi:cx="18.101765"
         id="path6754"
         style="fill:#1b2a34;fill-opacity:1;stroke:none"
         sodipodi:type="arc" />
      <path
         transform="translate(3.168254,0.74756554)"
         sodipodi:type="arc"
         style="fill:#1b2a34;fill-opacity:1;stroke:none"
         id="path6756"
         sodipodi:cx="18.101765"
         sodipodi:cy="38.652729"
         sodipodi:rx="0.5873729"
         sodipodi:ry="0.53397536"
         d="m 18.689138,38.652729 a 0.5873729,0.53397536 0 1 1 -1.174746,0 0.5873729,0.53397536 0 1 1 1.174746,0 z" />
    </g>
    <path
       inkscape:connector-curvature="0"
       style="fill:#a3a2a4;fill-opacity:1;stroke:#1b2a34;stroke-width:0.375;stroke-linecap:round;stroke-linejoin:round;stroke-miterlimit:4;stroke-opacity:1;stroke-dashoffset:0"
       d="m 10.611526,33.754481 c -0.26813,-0.04308 -0.499052,0.151177 -0.542133,0.419308 L 9.9057982,35.19198 c -1.010897,0.450372 -1.3917315,1.572391 -0.4560823,2.838593 L 9.1869728,39.66585 c -0.043081,0.268129 0.1203228,0.494095 0.3884529,0.537176 l 5.9857303,0.961738 c 0.26813,0.04308 0.524949,-0.115366 0.56803,-0.383495 l 0.04957,-0.308543 -4.689851,-0.753527 c -0.26813,-0.04308 -0.431534,-0.269046 -0.388453,-0.537176 l 0.63455,-3.949347 c 0.04308,-0.26813 0.274002,-0.462389 0.542133,-0.419308 l 4.68985,0.753528 0.04462,-0.277689 c 0.04308,-0.26813 -0.14622,-0.529906 -0.41435,-0.572987 l -5.98573,-0.961739 z"
       id="rect6728" />
    <rect
       style="fill:#a3a2a4;fill-opacity:1;stroke:#1b2a34;stroke-width:0.375;stroke-linecap:round;stroke-linejoin:round;stroke-miterlimit:4;stroke-opacity:1;stroke-dasharray:none;stroke-dashoffset:0"
       id="rect6738"
       width="3.8090243"
       height="1.1035491"
       x="15.775147"
       y="34.124039"
       ry="0.49019608"
       transform="matrix(0.98733692,0.15863733,-0.15863733,0.98733692,0,0)" />
    <path
       transform="translate(-281.25,-444.66133)"
       id="path4124"
       style="fill:none;stroke:#1b2a34;stroke-width:0.3125;stroke-linecap:butt;stroke-linejoin:miter;stroke-miterlimit:4;stroke-opacity:1;stroke-dasharray:none;display:inline"
       d="m 281.44486,487.74 c 8.7325,-47.29375 5.3425,-42.67875 14.2675,-42.85625 l 23.44,0 c 8.92625,0.1775 5.535,-4.4375 14.265,42.85625 l -51.9725,0 z"
       inkscape:connector-curvature="0" />
    <path
       style="fill:#1b2a34;fill-opacity:1;stroke:#1b2a34;stroke-width:0.625;stroke-linecap:round;stroke-linejoin:round;stroke-miterlimit:4;stroke-opacity:1;stroke-dasharray:none;stroke-dashoffset:0"
       d="M 11.34375 1.40625 C 11.067647 1.40381 10.803606 1.421141 10.5625 1.4375 C 12.538643 7.2349756 18.590149 11.46875 25.75 11.46875 C 32.909643 11.46875 38.961177 7.2347147 40.9375 1.4375 C 40.098294 1.44362 39.107208 1.493874 37.84375 1.46875 L 34.375 1.46875 C 31.884752 3.1701049 28.630474 3.7002313 25.9375 3.6875 C 23.319337 3.6751222 20.51238 3.1584486 18.09375 1.46875 L 14.40625 1.46875 C 13.163477 1.493466 12.17206 1.413561 11.34375 1.40625 z "
       id="path7155" />
    <path
       inkscape:connector-curvature="0"
       id="path7157"
       d="m 40.670561,1.4536153 c -0.778591,0.016833 -1.696719,0.053438 -2.8125,0.03125 l -0.5,0 c -0.219794,0.6371932 -0.34375,1.3316451 -0.34375,2.03125 0,3.8541543 3.578076,6.9687497 8,6.9687497 0.393788,0 0.777682,-0.04589 1.15625,-0.09375 -1.572211,-8.4336303 -2.350778,-9.0055873 -5.5,-8.9374997 z"
       style="fill:#1b2a34;fill-opacity:1;stroke:#1b2a34;stroke-width:0.92020863;stroke-linecap:round;stroke-linejoin:round;stroke-miterlimit:4;stroke-opacity:1;stroke-dasharray:none;stroke-dashoffset:0" />
    <path
       inkscape:connector-curvature="0"
       style="fill:#1b2a34;fill-opacity:1;stroke:#1b2a34;stroke-width:0.92020863;stroke-linecap:round;stroke-linejoin:round;stroke-miterlimit:4;stroke-opacity:1;stroke-dasharray:none;stroke-dashoffset:0"
       d="m 11.67319,1.4536153 c 0.778591,0.016833 1.696719,0.053438 2.8125,0.03125 l 0.5,0 c 0.219794,0.6371932 0.34375,1.3316451 0.34375,2.03125 0,3.8541543 -3.578076,6.9687497 -8.0000006,6.9687497 -0.393788,0 -0.777682,-0.04589 -1.15625,-0.09375 C 7.7454004,1.9574847 8.5239675,1.3855277 11.67319,1.4536153 z"
       id="path7159" />
    <path
       style="fill:#c7c1b7;fill-opacity:1;stroke:#1b2a34;stroke-width:0.625;stroke-linecap:round;stroke-linejoin:round;stroke-miterlimit:4;stroke-opacity:1;stroke-dasharray:none;stroke-dashoffset:0;display:inline"
       d="M 11.34375 0.4375 C 11.067647 0.43506234 10.803606 0.4523925 10.5625 0.46875 C 12.538643 6.266226 18.590149 10.5 25.75 10.5 C 32.909643 10.5 38.961177 6.2659651 40.9375 0.46875 C 40.098294 0.47485 39.107208 0.52512 37.84375 0.5 L 16.59375 0.5 L 35.5625 0.625 C 33.00967 3.159218 29.021686 3.89002 25.84375 3.875 C 22.69675 3.860122 19.287026 3.136242 16.59375 0.5 L 14.40625 0.5 C 13.163477 0.52472 12.17206 0.44481297 11.34375 0.4375 z "
       id="path7143" />
    <path
       inkscape:connector-curvature="0"
       style="fill:#a1a5a2;fill-opacity:1;stroke:#1b2a34;stroke-width:0.92020862999999997;stroke-linecap:round;stroke-linejoin:round;stroke-miterlimit:4;stroke-opacity:1;stroke-dasharray:none;stroke-dashoffset:0;display:inline"
       d="m 40.670561,0.46476312 c -0.778591,0.01683 -1.696719,0.05344 -2.8125,0.03125 l -0.5,0 c -0.219794,0.63719398 -0.34375,1.33164498 -0.34375,2.03124998 0,3.8541547 3.578076,6.9687504 8,6.9687504 0.393788,0 0.777682,-0.045885 1.15625,-0.09375 -1.572211,-8.43363038 -2.350778,-9.00558738 -5.5,-8.93750038 z"
       id="path7136" />
    <path
       id="path7141"
       d="m 11.67319,0.46476312 c 0.778591,0.01683 1.696719,0.05344 2.8125,0.03125 l 0.5,0 c 0.219794,0.63719398 0.34375,1.33164498 0.34375,2.03124998 0,3.8541547 -3.578076,6.9687504 -8.000001,6.9687504 -0.393788,0 -0.777682,-0.045885 -1.15625,-0.09375 C 7.7454,0.96863312 8.523967,0.39667612 11.67319,0.46476312 z"
       style="fill:#a1a5a2;fill-opacity:1;stroke:#1b2a34;stroke-width:0.92020862999999997;stroke-linecap:round;stroke-linejoin:round;stroke-miterlimit:4;stroke-opacity:1;stroke-dasharray:none;stroke-dashoffset:0;display:inline"
       inkscape:connector-curvature="0" />
    <path
       style="fill:#fdea8c;stroke:#000000;stroke-width:0.625;stroke-linecap:butt;stroke-linejoin:miter;stroke-miterlimit:4;stroke-opacity:1;stroke-dasharray:none;display:inline"
       d="M 16.59375 2.5 C 19.287026 5.136242 22.69675 5.860122 25.84375 5.875 C 29.021686 5.89002 33.00967 5.159218 35.5625 2.625 L 32.5625 2.59375 C 30.395132 3.5503399 27.953977 3.8849736 25.84375 3.875 C 23.749995 3.8651014 21.538767 3.5269217 19.5 2.53125 L 16.59375 2.5 z "
       id="path7133" />
    <path
       style="fill:#635f61;stroke:#000000;stroke-width:0.50000000000000000;stroke-linecap:butt;stroke-linejoin:miter;stroke-miterlimit:4;stroke-opacity:1;stroke-dasharray:none;display:inline"
       d="m 10.545561,0.46476312 c -1.72012,0.124436 -2.592436,0.95643198 -3.5,4.46874998 3.28363,-2.938298 6.385383,-3.019886 8.18358,-1.780746 1.000605,0.689519 2.345246,1.974898 1.59767,3.030746 1.775521,-0.07018 1.718954,-1.057579 2.375,-1.6875 0,0 3.255276,0.92714 3.5625,-0.21875 0.245461,-0.915527 -2.481365,-0.903172 -3.5625,-1.59375 -1.165533,-0.744487 -2.01375,-1.589553 -2.5625,-2.18749998 l -2.21875,0 c -1.673438,0.03328 -2.906374,-0.101321 -3.875,-0.03125 z"
       id="path7124"
       inkscape:connector-curvature="0"
       sodipodi:nodetypes="scsccssccs" />
    <path
       sodipodi:nodetypes="scsccssccs"
       inkscape:connector-curvature="0"
       id="path7129"
       d="m 41.756492,0.46476312 c 1.720119,0.124436 2.592436,0.95643198 3.5,4.46874998 -3.28363,-2.938298 -6.385383,-3.019886 -8.18358,-1.780746 -1.000605,0.689519 -2.345246,1.974898 -1.59767,3.030746 -1.775521,-0.07018 -1.718954,-1.057579 -2.375,-1.6875 0,0 -3.255276,0.92714 -3.5625,-0.21875 -0.245461,-0.915527 2.481365,-0.903172 3.5625,-1.59375 1.165533,-0.744487 2.01375,-1.589553 2.5625,-2.18749998 l 2.21875,0 c 1.673438,0.03328 2.906374,-0.101321 3.875,-0.03125 z"
       style="fill:#6d6e6c;stroke:#000000;stroke-width:0.50000000000000000;stroke-linecap:butt;stroke-linejoin:miter;stroke-miterlimit:4;stroke-opacity:1;stroke-dasharray:none;display:inline" />
  </g>
</svg>
