<?xml version="1.0" encoding="utf-8"?>
<!-- Generator: Adobe Illustrator 15.1.0, SVG Export Plug-In . SVG Version: 6.00 Build 0)  -->
<!DOCTYPE svg PUBLIC "-//W3C//DTD SVG 1.1//EN" "http://www.w3.org/Graphics/SVG/1.1/DTD/svg11.dtd">
<svg version="1.1" xmlns="http://www.w3.org/2000/svg" xmlns:xlink="http://www.w3.org/1999/xlink" x="0px" y="0px"
	 width="53.858px" height="113.386px" viewBox="0 0 53.858 113.386" enable-background="new 0 0 53.858 113.386"
	 xml:space="preserve">
<g id="torso_1_">
	<path id="torso" inkscape:connector-curvature="0" stroke="#000000" stroke-width="0.3125" d="M0.943,45.159
		C9.675-2.136,6.286,2.479,15.21,2.302h23.44c8.926,0.178,5.534-4.438,14.265,42.857H0.943z"/>
	<g id="torso_masked">
		<defs>
			<path id="SVGID_1_" d="M1.351,44.819c1.942-10.538,3.294-18.564,4.284-24.444C8.405,3.933,8.631,2.59,11.979,2.59
				c0.331,0,0.691,0.012,1.084,0.025c0.48,0.016,1.011,0.033,1.597,0.033c0.181,0,0.365-0.002,0.557-0.005H38.65
				c0.184,0.003,0.371,0.005,0.551,0.005c0.586,0,1.115-0.018,1.596-0.033c0.395-0.013,0.754-0.025,1.086-0.025
				c3.348,0,3.574,1.342,6.34,17.771c0.99,5.883,2.342,13.913,4.285,24.458H1.351z"/>
		</defs>
		<clipPath id="SVGID_2_">
			<use xlink:href="#SVGID_1_"  overflow="visible"/>
		</clipPath>
		<path clip-path="url(#SVGID_2_)" fill="#F5D7B3" stroke="#A2A1A3" stroke-width="0.5669" d="M19.064,1.594
			c0,0,0.2,3.273,2.266,4.749c2.201,1.572,8.997,1.572,11.198,0c2.065-1.476,2.266-4.749,2.266-4.749H19.064z"/>
		<g clip-path="url(#SVGID_2_)">
			<g id="dress_outline">
				<g>
					<g>
						<path fill="#605F61" d="M34.548-0.294c1.028,2.023,1.592,4.229,1.808,6.472c0.102,1.122,0.093,2.252-0.019,3.377
							c-0.122,1.142-0.469,2.239-0.92,3.273c-0.914,2.07-2.178,3.935-3.497,5.735c-1.329,1.796-2.753,3.515-4.21,5.201l0.014-0.017
							c-0.099,0.133-0.181,0.275-0.242,0.42c-0.03,0.073-0.054,0.146-0.071,0.219c-0.016,0.064-0.024,0.16-0.023,0.184l0.001,0.021
							v0.002l0.137,9.513l0.066,4.756c0.021,0.767,0.129,1.548,0.406,2.246c0.264,0.699,0.801,1.27,1.507,1.438
							c0.172,0.04,0.355,0.067,0.516,0.048l0.592-0.056l1.185-0.111l2.368-0.223l4.736-0.445l9.477-0.849
							c0.052-0.005,0.098,0.033,0.103,0.085c0.004,0.052-0.033,0.098-0.085,0.103l-9.46,1.017l-4.731,0.486l-2.366,0.243
							l-1.184,0.122l-0.591,0.061c-0.234,0.026-0.45-0.007-0.663-0.055c-0.864-0.193-1.532-0.917-1.823-1.692
							c-0.313-0.778-0.427-1.593-0.456-2.407l-0.099-4.757l-0.201-9.513l0.001,0.023c-0.008-0.162,0.013-0.251,0.036-0.367
							c0.025-0.108,0.06-0.21,0.101-0.309c0.083-0.196,0.189-0.376,0.312-0.54l0.014-0.017c1.457-1.673,2.879-3.378,4.203-5.152
							c1.313-1.776,2.566-3.617,3.459-5.62c0.439-1,0.772-2.048,0.892-3.121c0.114-1.088,0.119-2.191,0.035-3.284
							c-0.173-2.181-0.7-4.372-1.658-6.332L34.21-0.125c-0.046-0.094-0.007-0.207,0.087-0.253
							C34.39-0.423,34.501-0.386,34.548-0.294z"/>
					</g>
					<g>
						<path fill="#605F61" d="M40.591,0.967l2.347,5.614c0.055,0.13-0.007,0.28-0.137,0.334c-0.048,0.02-0.098,0.024-0.145,0.016
							L42.649,6.93l0,0l-6.532-1.448l0.033-0.168h0.001l3.142,0.55c0.019,0.003,0.035,0.01,0.05,0.019l0.01,0.006l3.172,2.048
							c0.127,0.082,0.173,0.243,0.115,0.377l-0.01,0.024l-0.001,0.001c-0.847,1.681-1.833,3.25-2.903,4.773
							c-1.072,1.518-2.243,2.967-3.516,4.323c-2.54,2.705-5.521,5.055-8.928,6.575c-0.082,0.036-0.178,0-0.214-0.082
							c-0.036-0.081,0-0.176,0.081-0.214c3.339-1.534,6.254-3.882,8.734-6.582c1.242-1.353,2.384-2.798,3.428-4.31
							c1.038-1.511,2.004-3.091,2.806-4.726l0.001-0.001l0.078,0.302l-3.007-2.28l0.05,0.021l-3.12-0.659l-0.001,0
							c-0.047-0.008-0.078-0.052-0.069-0.099c0.008-0.046,0.056-0.077,0.103-0.069l6.595,1.125h0.001l-0.272,0.329l-2.183-5.68
							c-0.032-0.083,0.01-0.177,0.093-0.209C40.465,0.846,40.558,0.887,40.591,0.967z"/>
					</g>
				</g>
			</g>
			<g id="dress_outline_1_">
				<g>
					<g>
						<path fill="#605F61" d="M19.644-0.113c-0.958,1.959-1.486,4.151-1.658,6.332c-0.084,1.094-0.079,2.197,0.035,3.285
							c0.12,1.072,0.452,2.121,0.893,3.121c0.893,2.002,2.146,3.843,3.46,5.62c1.324,1.774,2.746,3.479,4.204,5.152l0.013,0.017
							c0.123,0.164,0.229,0.343,0.313,0.539c0.041,0.099,0.076,0.201,0.101,0.309c0.023,0.116,0.043,0.205,0.036,0.366l0.001-0.022
							l-0.201,9.514l-0.099,4.759c-0.03,0.813-0.145,1.629-0.458,2.407c-0.291,0.775-0.961,1.498-1.826,1.69
							c-0.212,0.048-0.429,0.081-0.663,0.054l-0.591-0.062l-1.184-0.121l-2.366-0.243l-4.733-0.486l-9.462-1.017
							c-0.052-0.005-0.089-0.052-0.084-0.104c0.006-0.052,0.051-0.089,0.103-0.084l9.478,0.848l4.737,0.446l2.368,0.223l1.185,0.111
							l0.592,0.056c0.162,0.02,0.344-0.007,0.517-0.048c0.707-0.168,1.245-0.736,1.508-1.437c0.278-0.697,0.387-1.479,0.408-2.246
							l0.066-4.756l0.137-9.515V24.59l0.001-0.021c0.001-0.022-0.007-0.119-0.023-0.184c-0.017-0.073-0.041-0.146-0.071-0.219
							c-0.061-0.145-0.143-0.287-0.242-0.42l0.013,0.017c-1.458-1.686-2.881-3.404-4.211-5.2c-1.319-1.8-2.583-3.665-3.499-5.735
							c-0.451-1.034-0.797-2.131-0.92-3.273c-0.111-1.125-0.12-2.255-0.018-3.377c0.216-2.242,0.779-4.449,1.808-6.472
							c0.047-0.093,0.161-0.13,0.254-0.083c0.092,0.047,0.129,0.159,0.084,0.251L19.644-0.113z"/>
					</g>
					<g>
						<path fill="#605F61" d="M13.568,1.087l-2.169,5.685L11.11,6.424l0,0l6.6-1.11c0.046-0.01,0.092,0.019,0.103,0.065
							s-0.023,0.093-0.069,0.103l0,0l-3.118,0.681l0.059-0.025l-2.975,2.327l0.105-0.401l0,0c0.792,1.63,1.752,3.214,2.784,4.726
							c1.037,1.513,2.172,2.961,3.408,4.317c2.469,2.706,5.374,5.063,8.708,6.608c0.082,0.038,0.118,0.134,0.08,0.215
							c-0.037,0.081-0.133,0.116-0.214,0.081c-3.401-1.532-6.372-3.891-8.9-6.602c-1.266-1.359-2.431-2.811-3.497-4.331
							c-1.063-1.524-2.044-3.097-2.881-4.773l0-0.001l-0.005-0.012c-0.046-0.106-0.008-0.228,0.084-0.29l3.14-2.095l0.005-0.003
							c0.014-0.01,0.03-0.016,0.045-0.019l3.139-0.572h0l0.033,0.168l-6.537,1.434h0l-0.006,0.001
							c-0.131,0.024-0.257-0.063-0.28-0.194c-0.009-0.048-0.003-0.094,0.014-0.136l2.334-5.619c0.034-0.083,0.129-0.122,0.212-0.088
							C13.56,0.913,13.599,1.006,13.568,1.087z"/>
					</g>
				</g>
			</g>
			<g id="buttons">
				
					<circle fill="none" stroke="#605F61" stroke-width="0.4252" stroke-linecap="round" stroke-linejoin="round" stroke-miterlimit="10" cx="28.835" cy="25.234" r="0.594"/>
				
					<circle fill="none" stroke="#605F61" stroke-width="0.4252" stroke-linecap="round" stroke-linejoin="round" stroke-miterlimit="10" cx="28.915" cy="27.859" r="0.594"/>
				
					<circle fill="none" stroke="#605F61" stroke-width="0.4252" stroke-linecap="round" stroke-linejoin="round" stroke-miterlimit="10" cx="25.022" cy="25.234" r="0.594"/>
				
					<circle fill="none" stroke="#605F61" stroke-width="0.4252" stroke-linecap="round" stroke-linejoin="round" stroke-miterlimit="10" cx="24.943" cy="27.859" r="0.594"/>
			</g>
			<g id="pockets_1_">
				<g>
					<path fill="#605F61" d="M12.762,33.109c0.367-0.08,0.729-0.114,1.093-0.169l1.062,0.116l2.125,0.229l2.125,0.229l1.063,0.114
						c0.344,0.133,0.69,0.244,1.032,0.396c-0.367,0.076-0.729,0.11-1.093,0.167l-1.063-0.114l-2.125-0.229l-2.125-0.229
						l-1.063-0.112C13.45,33.376,13.104,33.265,12.762,33.109z"/>
				</g>
				<g>
					<path fill="#605F61" d="M41.095,33.109c-0.342,0.156-0.688,0.268-1.032,0.398L39,33.62l-2.125,0.229l-2.125,0.229l-1.063,0.114
						c-0.364-0.057-0.727-0.091-1.093-0.167c0.342-0.152,0.688-0.264,1.032-0.396l1.063-0.114l2.125-0.229l2.125-0.229l1.063-0.116
						C40.367,32.995,40.728,33.029,41.095,33.109z"/>
				</g>
			</g>
		</g>
		<g clip-path="url(#SVGID_2_)">
			<defs>
				<path id="SVGID_3_" d="M19.526,1.768c0,0,0.189,3.081,2.132,4.47c2.072,1.48,8.468,1.48,10.54,0
					c1.943-1.389,2.132-4.47,2.132-4.47H19.526z"/>
			</defs>
			<clipPath id="SVGID_4_">
				<use xlink:href="#SVGID_3_"  overflow="visible"/>
			</clipPath>
			
				<path id="path4350" inkscape:connector-curvature="0" sodipodi:nodetypes="ssscsssszsscccccccsszs" opacity="0.25" clip-path="url(#SVGID_4_)" fill="#DE8B5F" d="
				M30.023,3.214c-1.133,0.189-1.788,0.677-2.219,1.031c-0.215,0.178-0.372,0.301-0.5,0.375c-0.111,0.063-0.205,0.093-0.344,0.094
				c-0.025,0.001-0.04,0-0.063,0c-0.139-0.001-0.232-0.03-0.344-0.094c-0.129-0.074-0.285-0.197-0.5-0.375
				c-0.431-0.354-1.085-0.842-2.219-1.031c-2.169-0.363-5.309-0.436-5.328-0.234c-0.019,0.201,2.69,0.184,4.859,0.547
				c1.133,0.189,2.351,1.146,2.781,1.5c0.215,0.178,0.371,0.301,0.5,0.375c0.055,0.031,0.104,0.047,0.156,0.063
				c-0.002,0.014,0.002,0.017,0,0.031c0.053,0.003,0.084-0.027,0.125-0.031c0.041,0.004,0.072,0.034,0.125,0.031
				c-0.002-0.015,0.002-0.018,0-0.031c0.052-0.016,0.102-0.031,0.156-0.063c0.129-0.074,0.285-0.197,0.5-0.375
				c0.431-0.354,1.648-1.311,2.781-1.5c2.17-0.363,4.901-0.368,4.859-0.547S32.193,2.851,30.023,3.214z"/>
		</g>
		<path clip-path="url(#SVGID_2_)" fill="#444446" d="M8.209,34.481c-0.25,5.188-5.375,6.688-8.021,12.042
			c-6.485-2.36,0-27.604,0-27.604s3.726-4.571,5.154-4.252C4.771,20.918,8.521,25.918,8.209,34.481z M45.65,34.481
			c0.25,5.188,5.375,6.688,8.021,12.042c6.485-2.36,0-27.604,0-27.604s-3.726-4.571-5.153-4.252
			C49.087,20.918,45.337,25.918,45.65,34.481z M41.363,21.504c-0.982,0.616-2.069,1.033-3.206,1.227
			c-1.134,0.211-2.31,0.214-3.483,0.106c-1.175-0.118-2.351-0.341-3.525-0.662c1.039,0.648,2.215,1.07,3.427,1.318
			c1.214,0.25,2.486,0.291,3.733,0.074c1.241-0.228,2.45-0.736,3.438-1.524c0.994-0.777,1.759-1.802,2.246-2.919
			C43.205,20.056,42.347,20.885,41.363,21.504z M12.113,22.043c0.987,0.788,2.196,1.296,3.437,1.524
			c1.247,0.217,2.52,0.176,3.733-0.074c1.212-0.249,2.388-0.67,3.427-1.318c-1.175,0.321-2.351,0.544-3.525,0.662
			c-1.173,0.108-2.35,0.105-3.484-0.106c-1.137-0.194-2.224-0.611-3.205-1.227c-0.984-0.619-1.843-1.448-2.629-2.38
			C10.354,20.241,11.119,21.266,12.113,22.043z"/>
	</g>
</g>
<g id="long_skirt">
	<rect id="skirt_base" x="0.943" y="46.381" stroke="#000000" stroke-width="0.3125" width="51.973" height="65.05"/>
	<g id="wrinkles">
		<g>
			<path fill="#444446" d="M7.958,51.984c1.604,0.455,3.224,0.84,4.849,1.193c1.618,0.38,3.241,0.729,4.873,1.03
				c3.26,0.609,6.533,1.149,9.831,1.391c3.29,0.317,6.603,0.355,9.879,0.022c1.64-0.159,3.266-0.451,4.853-0.897
				c1.593-0.423,3.148-1.026,4.591-1.864c-1.237,1.163-2.76,1.99-4.319,2.719c-1.587,0.663-3.252,1.151-4.943,1.454
				c-3.385,0.642-6.832,0.652-10.216,0.389c-3.384-0.317-6.722-0.919-9.971-1.827C14.131,54.712,10.96,53.524,7.958,51.984z"/>
		</g>
		<g>
			<path fill="#444446" d="M12.753,93.447c1.977,1.538,3.97,2.948,5.974,4.38c0.983,0.741,1.969,1.509,3.049,2.121
				c1.079,0.613,2.241,1.068,3.423,1.438c2.372,0.723,4.748,1.329,7.159,1.772c2.403,0.491,4.835,0.833,7.325,1.16
				c0.031,0.004,0.054,0.032,0.05,0.064c-0.004,0.025-0.023,0.045-0.048,0.049c-2.491,0.39-5.049,0.328-7.546-0.084
				c-2.488-0.462-4.922-1.248-7.172-2.387l-3.361-1.688c-1.127-0.542-2.295-1.033-3.396-1.657c-1.091-0.636-2.097-1.412-3.036-2.256
				c-0.936-0.847-1.806-1.776-2.506-2.839c-0.018-0.026-0.01-0.062,0.016-0.079C12.706,93.428,12.735,93.432,12.753,93.447z"/>
		</g>
		<g>
			<path fill="#444446" d="M10.362,81.776c2.045,1.313,4.184,2.479,6.369,3.525c2.18,1.058,4.424,1.983,6.726,2.694
				c2.305,0.7,4.673,1.138,7.032,1.291c2.362,0.179,4.752-0.14,6.96-1.179c0.025-0.012,0.055-0.001,0.066,0.023
				c0.01,0.021,0.004,0.047-0.014,0.061c-1.948,1.56-4.571,2.105-7.049,2.086c-2.512-0.03-4.934-0.713-7.245-1.529
				c-4.635-1.655-8.936-4.062-12.902-6.891c-0.022-0.017-0.028-0.047-0.012-0.069C10.309,81.767,10.34,81.762,10.362,81.776z"/>
		</g>
		<g>
			<path fill="#444446" d="M43.568,69.934c-2.388,1.633-5.124,2.717-7.956,3.362c-2.821,0.604-5.879,0.747-8.62-0.248
				c2.876,0.206,5.657-0.124,8.406-0.729c1.376-0.29,2.736-0.669,4.095-1.069C40.847,70.833,42.206,70.408,43.568,69.934z"/>
		</g>
		<g>
			<path fill="#444446" d="M7.833,59.392c1.038-0.874,2.242-1.545,3.499-2.066c1.257-0.529,2.579-0.901,3.924-1.142
				c2.688-0.461,5.496-0.366,8.078,0.458c-2.702-0.038-5.321,0.062-7.907,0.526c-1.293,0.212-2.568,0.526-3.834,0.89
				C10.333,58.442,9.069,58.85,7.833,59.392z"/>
		</g>
		<g>
			<path fill="#444446" d="M34.578,95.157c0.326-0.353,0.691-0.46,1.065-0.543c0.372-0.09,0.739-0.194,1.114-0.27
				c0.745-0.17,1.494-0.326,2.227-0.536c0.733-0.207,1.461-0.443,2.145-0.767c0.343-0.156,0.677-0.336,0.969-0.567
				c0.286-0.229,0.549-0.529,0.576-0.907c0.001-0.02,0.018-0.034,0.037-0.033c0.018,0.001,0.032,0.016,0.033,0.033
				c0.022,0.413-0.229,0.785-0.503,1.064c-0.282,0.285-0.609,0.516-0.945,0.723c-0.681,0.402-1.403,0.712-2.134,0.992
				c-0.732,0.272-1.472,0.527-2.226,0.726c-0.375,0.108-0.759,0.178-1.142,0.249c-0.381,0.078-0.772,0.123-1.205-0.094
				c-0.021-0.011-0.03-0.038-0.02-0.06C34.572,95.164,34.575,95.16,34.578,95.157z"/>
		</g>
	</g>
	<g id="shape">
		<g>
			<path fill="#605F61" d="M3.983,109.733L2.708,89.756c-0.509-6.654-1.171-13.329-1.117-20.021c0-0.027,0.023-0.05,0.05-0.05
				c0.026,0,0.048,0.021,0.049,0.048c0.232,6.68,1.122,13.3,1.808,19.951c0.357,3.324,0.735,6.655,0.839,10.006
				c0.08,3.349,0.081,6.707-0.255,10.045c-0.002,0.027-0.027,0.047-0.054,0.045C4.004,109.778,3.985,109.757,3.983,109.733z"/>
		</g>
		<g>
			<path fill="#605F61" d="M49.775,109.735c-0.336-3.338-0.335-6.696-0.255-10.045c0.104-3.351,0.482-6.682,0.839-10.006
				c0.686-6.651,1.575-13.271,1.808-19.951c0.001-0.027,0.024-0.049,0.052-0.048c0.026,0.001,0.047,0.023,0.048,0.05
				c0.055,6.692-0.607,13.367-1.117,20.021l-1.274,19.977c-0.002,0.028-0.025,0.049-0.053,0.047
				C49.796,109.778,49.778,109.758,49.775,109.735z"/>
		</g>
	</g>
</g>
</svg>
