<?xml version="1.0" encoding="UTF-8" standalone="no"?>
<!-- Created with Inkscape (http://www.inkscape.org/) -->

<svg
   xmlns:dc="http://purl.org/dc/elements/1.1/"
   xmlns:cc="http://creativecommons.org/ns#"
   xmlns:rdf="http://www.w3.org/1999/02/22-rdf-syntax-ns#"
   xmlns:svg="http://www.w3.org/2000/svg"
   xmlns="http://www.w3.org/2000/svg"
   xmlns:xlink="http://www.w3.org/1999/xlink"
   xmlns:sodipodi="http://sodipodi.sourceforge.net/DTD/sodipodi-0.dtd"
   xmlns:inkscape="http://www.inkscape.org/namespaces/inkscape"
   width="52.375"
   height="43.213669"
   id="svg2"
   version="1.1"
   inkscape:version="0.48.2 r9819"
   sodipodi:docname="toga.[CMF6 Lady Liberty].svg">
  <defs
     id="defs4">
    <linearGradient
       inkscape:collect="always"
       id="linearGradient4011">
      <stop
         style="stop-color:#ffffff;stop-opacity:1;"
         offset="0"
         id="stop4013" />
      <stop
         style="stop-color:#ffffff;stop-opacity:0;"
         offset="1"
         id="stop4015" />
    </linearGradient>
    <linearGradient
       inkscape:collect="always"
       id="linearGradient3997">
      <stop
         style="stop-color:#ffffff;stop-opacity:1;"
         offset="0"
         id="stop3999" />
      <stop
         style="stop-color:#ffffff;stop-opacity:0;"
         offset="1"
         id="stop4001" />
    </linearGradient>
    <inkscape:path-effect
       effect="skeletal"
       id="path-effect4237"
       is_visible="true"
       pattern="M 0,5 C 0,2.24 2.24,0 5,0 7.76,0 10,2.24 10,5 10,7.76 7.76,10 5,10 2.24,10 0,7.76 0,5 z"
       copytype="single_stretched"
       prop_scale="1"
       scale_y_rel="false"
       spacing="0"
       normal_offset="0"
       tang_offset="0"
       prop_units="false"
       vertical_pattern="false"
       fuse_tolerance="0" />
    <clipPath
       id="clipPath2999"
       clipPathUnits="userSpaceOnUse">
      <path
         id="path3001"
         d="M 0,792 612,792 612,0 0,0 0,792 z"
         inkscape:connector-curvature="0" />
    </clipPath>
    <radialGradient
       gradientUnits="userSpaceOnUse"
       gradientTransform="matrix(0.75988491,-0.03632001,0.13155835,2.7524547,16.986326,-78.268899)"
       r="12.650181"
       fy="46.658409"
       fx="96.306435"
       cy="46.658409"
       cx="96.306435"
       id="radialGradient3972"
       xlink:href="#linearGradient3966"
       inkscape:collect="always" />
    <clipPath
       clipPathUnits="userSpaceOnUse"
       id="clipPath2999-4">
      <path
         inkscape:connector-curvature="0"
         d="M 0,792 612,792 612,0 0,0 0,792 z"
         id="path3001-0" />
    </clipPath>
    <linearGradient
       id="linearGradient3966">
      <stop
         id="stop3968"
         offset="0"
         style="stop-color:#c0ac02;stop-opacity:1;" />
      <stop
         id="stop3970"
         offset="1"
         style="stop-color:#fdea41;stop-opacity:0;" />
    </linearGradient>
    <radialGradient
       inkscape:collect="always"
       xlink:href="#linearGradient3997"
       id="radialGradient4003"
       cx="165.81134"
       cy="47.693741"
       fx="165.81134"
       fy="47.693741"
       r="3.8123069"
       gradientTransform="matrix(0.64374811,-0.18781617,0.31213841,1.069868,43.640483,27.15595)"
       gradientUnits="userSpaceOnUse" />
    <radialGradient
       inkscape:collect="always"
       xlink:href="#linearGradient3997"
       id="radialGradient4007"
       gradientUnits="userSpaceOnUse"
       gradientTransform="matrix(-0.64374811,-0.18781617,-0.31213841,1.069868,293.73143,27.15595)"
       cx="165.81134"
       cy="47.693741"
       fx="165.81134"
       fy="47.693741"
       r="3.8123069" />
    <radialGradient
       inkscape:collect="always"
       xlink:href="#linearGradient4011"
       id="radialGradient4017"
       cx="169.32254"
       cy="41.784931"
       fx="169.32254"
       fy="41.784931"
       r="6.982676"
       gradientTransform="matrix(0.31036379,-0.01814613,0.03701409,0.63307367,114.75293,21.468668)"
       gradientUnits="userSpaceOnUse" />
    <linearGradient
       id="linearGradient3966-2">
      <stop
         style="stop-color:#c0ac02;stop-opacity:1;"
         offset="0"
         id="stop3968-4" />
      <stop
         style="stop-color:#fdea41;stop-opacity:0;"
         offset="1"
         id="stop3970-5" />
    </linearGradient>
    <clipPath
       id="clipPath2999-4-8"
       clipPathUnits="userSpaceOnUse">
      <path
         id="path3001-0-8"
         d="M 0,792 612,792 612,0 0,0 0,792 z"
         inkscape:connector-curvature="0" />
    </clipPath>
    <radialGradient
       inkscape:collect="always"
       xlink:href="#linearGradient3966-2"
       id="radialGradient3972-4"
       cx="96.306435"
       cy="46.658409"
       fx="96.306435"
       fy="46.658409"
       r="12.650181"
       gradientTransform="matrix(0.75988491,-0.03632001,0.13155835,2.7524547,16.986326,-78.268899)"
       gradientUnits="userSpaceOnUse" />
    <clipPath
       clipPathUnits="userSpaceOnUse"
       id="clipPath2999-0">
      <path
         inkscape:connector-curvature="0"
         d="M 0,792 612,792 612,0 0,0 0,792 z"
         id="path3001-9" />
    </clipPath>
    <inkscape:path-effect
       fuse_tolerance="0"
       vertical_pattern="false"
       prop_units="false"
       tang_offset="0"
       normal_offset="0"
       spacing="0"
       scale_y_rel="false"
       prop_scale="1"
       copytype="single_stretched"
       pattern="M 0,5 C 0,2.24 2.24,0 5,0 7.76,0 10,2.24 10,5 10,7.76 7.76,10 5,10 2.24,10 0,7.76 0,5 z"
       is_visible="true"
       id="path-effect4237-4"
       effect="skeletal" />
  </defs>
  <sodipodi:namedview
     id="base"
     pagecolor="#ffffff"
     bordercolor="#666666"
     borderopacity="1.0"
     inkscape:pageopacity="0.0"
     inkscape:pageshadow="2"
     inkscape:zoom="3.11"
     inkscape:cx="-59.097555"
     inkscape:cy="5.8578583"
     inkscape:document-units="px"
     inkscape:current-layer="layer1"
     showgrid="false"
     fit-margin-top="0"
     fit-margin-left="0"
     fit-margin-right="0"
     fit-margin-bottom="0"
     inkscape:window-width="1280"
     inkscape:window-height="968"
     inkscape:window-x="-4"
     inkscape:window-y="-4"
     inkscape:window-maximized="1"
     showguides="true"
     inkscape:guide-bbox="true"
     inkscape:snap-global="false">
    <sodipodi:guide
       orientation="0,1"
       position="11.28133,21.517799"
       id="guide3274" />
    <sodipodi:guide
       orientation="1,0"
       position="26.13159,26.634501"
       id="guide3960" />
  </sodipodi:namedview>
  <metadata
     id="metadata7">
    <rdf:RDF>
      <cc:Work
         rdf:about="">
        <dc:format>image/svg+xml</dc:format>
        <dc:type
           rdf:resource="http://purl.org/dc/dcmitype/StillImage" />
        <dc:title></dc:title>
      </cc:Work>
    </rdf:RDF>
  </metadata>
  <g
     inkscape:label="template"
     inkscape:groupmode="layer"
     id="layer1"
     transform="translate(-360.9375,-409.84883)"
     style="display:inline">
    <path
       inkscape:connector-curvature="0"
       d="m 361.13813,452.9203 c 8.7325,-47.29375 5.3425,-42.67875 14.2675,-42.85625 l 23.44,0 c 8.92625,0.1775 5.535,-4.4375 14.265,42.85625 l -51.9725,0 z"
       style="fill:none;stroke:#231f20;stroke-width:0.3125;stroke-linecap:butt;stroke-linejoin:miter;stroke-miterlimit:4;stroke-opacity:1;stroke-dasharray:none"
       id="path3093" />
    <path
       style="fill:#c7c1b7;stroke:none"
       d="m 186.51617,47.419635 3.11165,2.196461 c -1.42363,0.133179 -2.84727,1.012019 -4.2709,3.416717"
       id="path4064"
       inkscape:connector-curvature="0"
       transform="translate(218.16938,378.37561)"
       sodipodi:nodetypes="ccc" />
    <path
       style="fill:none;stroke:#1b2a34;stroke-width:1px;stroke-linecap:butt;stroke-linejoin:miter;stroke-opacity:1"
       d="m 164.00911,31.340048 c 3.38026,1.912579 10.43655,3.067002 19.1344,1.708429 -0.26576,1.488305 -0.87319,3.461475 -1.48064,6.150341 l 6.60592,-0.113895 c -3.94615,11.70602 -3.76368,23.641409 -2.2779,35.649203"
       id="path3254"
       inkscape:connector-curvature="0"
       transform="translate(218.16938,378.37561)"
       sodipodi:nodetypes="ccccc" />
    <path
       style="font-size:medium;font-style:normal;font-variant:normal;font-weight:normal;font-stretch:normal;text-indent:0;text-align:start;text-decoration:none;line-height:normal;letter-spacing:normal;word-spacing:normal;text-transform:none;direction:ltr;block-progression:tb;writing-mode:lr-tb;text-anchor:start;baseline-shift:baseline;color:#000000;fill:#1b2a34;fill-opacity:1;stroke:none;stroke-width:0.625;marker:none;visibility:visible;display:inline;overflow:visible;enable-background:accumulate;font-family:Sans;-inkscape-font-specification:Sans"
       d="m 371.32568,410.71936 -5e-5,0 -0.40625,0.5 c 7.05031,5.7022 15.15278,6.24521 23.32815,5.5625 -8.16061,0.0556 -16.03784,-0.4948 -22.92185,-6.0625 z"
       id="path3256"
       inkscape:connector-curvature="0"
       sodipodi:nodetypes="ccccc" />
    <path
       style="font-size:medium;font-style:normal;font-variant:normal;font-weight:normal;font-stretch:normal;text-indent:0;text-align:start;text-decoration:none;line-height:normal;letter-spacing:normal;word-spacing:normal;text-transform:none;direction:ltr;block-progression:tb;writing-mode:lr-tb;text-anchor:start;baseline-shift:baseline;color:#000000;fill:#1b2a34;fill-opacity:1;stroke:none;stroke-width:1px;marker:none;visibility:visible;display:inline;overflow:visible;enable-background:accumulate;font-family:Sans;-inkscape-font-specification:Sans"
       d="m 367.1813,439.16689 c 2.65352,-3.4774 5.03876,-4.75496 7.08183,-6.04128 1.63983,-1.16116 4.85728,-2.78708 4.96875,-6 -1.65193,2.87252 -3.43235,3.85445 -5.5,5.15625 -2.06765,1.3018 -4.38567,2.8933 -6.6875,6.78125"
       id="path4030"
       inkscape:connector-curvature="0"
       sodipodi:nodetypes="cccsc" />
    <path
       style="font-size:medium;font-style:normal;font-variant:normal;font-weight:normal;font-stretch:normal;text-indent:0;text-align:start;text-decoration:none;line-height:normal;letter-spacing:normal;word-spacing:normal;text-transform:none;direction:ltr;block-progression:tb;writing-mode:lr-tb;text-anchor:start;baseline-shift:baseline;color:#000000;fill:#1b2a34;fill-opacity:1;stroke:none;stroke-width:0.5;marker:none;visibility:visible;display:inline;overflow:visible;enable-background:accumulate;font-family:Sans;-inkscape-font-specification:Sans"
       d="m 377.10688,417.85998 c -3.28913,0.44824 -5.94388,3.04088 -8.23438,6.29688 2.67267,-2.91355 5.26805,-5.42173 8.23438,-6.29688 z"
       id="path4036"
       inkscape:connector-curvature="0"
       sodipodi:nodetypes="ccc" />
    <path
       style="font-size:medium;font-style:normal;font-variant:normal;font-weight:normal;font-stretch:normal;text-indent:0;text-align:start;text-decoration:none;line-height:normal;letter-spacing:normal;word-spacing:normal;text-transform:none;direction:ltr;block-progression:tb;writing-mode:lr-tb;text-anchor:start;baseline-shift:baseline;color:#000000;fill:#000000;fill-opacity:1;stroke:none;stroke-width:0.625;marker:none;visibility:visible;display:inline;overflow:visible;enable-background:accumulate;font-family:Sans;-inkscape-font-specification:Sans"
       d="m 397.66938,421.65686 c 0.009,-0.55454 -0.22619,-1.01208 -0.5625,-1.34375 -0.33631,-0.33167 -0.77012,-0.5686 -1.1875,-0.6875 l -0.15625,0.625 c 0.33322,0.0949 0.66599,0.26305 0.90625,0.5 0.24026,0.23695 0.38118,0.52941 0.375,0.90625 -0.0498,3.03869 -0.49954,10.66182 0.1875,15.125 -0.0537,-4.42611 0.387,-12.04376 0.4375,-15.125 z"
       id="path4042"
       inkscape:connector-curvature="0"
       sodipodi:nodetypes="csccsccc" />
    <path
       sodipodi:type="arc"
       style="fill:#1b2a34;fill-opacity:1;stroke:none"
       id="path4048"
       sodipodi:cx="178.21843"
       sodipodi:cy="36.34581"
       sodipodi:rx="1.2202562"
       sodipodi:ry="1.1897498"
       d="m 179.43869,36.34581 c 0,0.657081 -0.54633,1.18975 -1.22026,1.18975 -0.67393,0 -1.22026,-0.532669 -1.22026,-1.18975 0,-0.657081 0.54633,-1.18975 1.22026,-1.18975 0.67393,0 1.22026,0.532669 1.22026,1.18975 z"
       transform="translate(218.16938,378.37561)" />
    <path
       transform="translate(223.35547,384.5379)"
       d="m 179.43869,36.34581 c 0,0.657081 -0.54633,1.18975 -1.22026,1.18975 -0.67393,0 -1.22026,-0.532669 -1.22026,-1.18975 0,-0.657081 0.54633,-1.18975 1.22026,-1.18975 0.67393,0 1.22026,0.532669 1.22026,1.18975 z"
       sodipodi:ry="1.1897498"
       sodipodi:rx="1.2202562"
       sodipodi:cy="36.34581"
       sodipodi:cx="178.21843"
       id="path4050"
       style="fill:#1b2a34;fill-opacity:1;stroke:none"
       sodipodi:type="arc" />
    <path
       sodipodi:type="arc"
       style="fill:#1b2a34;fill-opacity:1;stroke:none"
       id="path4052"
       sodipodi:cx="178.21843"
       sodipodi:cy="36.34581"
       sodipodi:rx="1.2202562"
       sodipodi:ry="1.1897498"
       d="m 179.43869,36.34581 c 0,0.657081 -0.54633,1.18975 -1.22026,1.18975 -0.67393,0 -1.22026,-0.532669 -1.22026,-1.18975 0,-0.657081 0.54633,-1.18975 1.22026,-1.18975 0.67393,0 1.22026,0.532669 1.22026,1.18975 z"
       transform="translate(222.37926,391.00526)" />
    <path
       transform="translate(221.89116,397.71667)"
       d="m 179.43869,36.34581 c 0,0.657081 -0.54633,1.18975 -1.22026,1.18975 -0.67393,0 -1.22026,-0.532669 -1.22026,-1.18975 0,-0.657081 0.54633,-1.18975 1.22026,-1.18975 0.67393,0 1.22026,0.532669 1.22026,1.18975 z"
       sodipodi:ry="1.1897498"
       sodipodi:rx="1.2202562"
       sodipodi:cy="36.34581"
       sodipodi:cx="178.21843"
       id="path4054"
       style="fill:#1b2a34;fill-opacity:1;stroke:none"
       sodipodi:type="arc" />
    <path
       sodipodi:type="arc"
       style="fill:#1b2a34;fill-opacity:1;stroke:none"
       id="path4056"
       sodipodi:cx="178.21843"
       sodipodi:cy="36.34581"
       sodipodi:rx="1.2202562"
       sodipodi:ry="1.1897498"
       d="m 179.43869,36.34581 c 0,0.657081 -0.54633,1.18975 -1.22026,1.18975 -0.67393,0 -1.22026,-0.532669 -1.22026,-1.18975 0,-0.657081 0.54633,-1.18975 1.22026,-1.18975 0.67393,0 1.22026,0.532669 1.22026,1.18975 z"
       transform="translate(221.64711,405.16023)" />
    <path
       transform="translate(222.0742,412.48177)"
       d="m 179.43869,36.34581 c 0,0.657081 -0.54633,1.18975 -1.22026,1.18975 -0.67393,0 -1.22026,-0.532669 -1.22026,-1.18975 0,-0.657081 0.54633,-1.18975 1.22026,-1.18975 0.67393,0 1.22026,0.532669 1.22026,1.18975 z"
       sodipodi:ry="1.1897498"
       sodipodi:rx="1.2202562"
       sodipodi:cy="36.34581"
       sodipodi:cx="178.21843"
       id="path4058"
       style="fill:#1b2a34;fill-opacity:1;stroke:none"
       sodipodi:type="arc" />
    <path
       style="font-size:medium;font-style:normal;font-variant:normal;font-weight:normal;font-stretch:normal;text-indent:0;text-align:start;text-decoration:none;line-height:normal;letter-spacing:normal;word-spacing:normal;text-transform:none;direction:ltr;block-progression:tb;writing-mode:lr-tb;text-anchor:start;baseline-shift:baseline;color:#000000;fill:#000000;fill-opacity:1;stroke:none;stroke-width:0.5;marker:none;visibility:visible;display:inline;overflow:visible;enable-background:accumulate;font-family:Sans;-inkscape-font-specification:Sans"
       d="m 406.82558,440.75061 c 0.54885,-0.50424 0.84136,-1.1105 0.96875,-1.75 0.25477,-1.27901 -0.0436,-2.67987 -0.12498,-3.875 -0.43711,1.2607 -0.14942,2.64893 -0.37497,3.78125 -0.11278,0.56616 -0.34914,1.0743 -0.8125,1.5 -0.46336,0.4257 -1.17156,0.76727 -2.2344,1.25 1.21536,0.005 2.02925,-0.40202 2.5781,-0.90625 z"
       id="path4066"
       inkscape:connector-curvature="0"
       sodipodi:nodetypes="sscsscs" />
  </g>
</svg>
