<?xml version="1.0" encoding="utf-8"?>
<!-- Generator: Adobe Illustrator 15.0.0, SVG Export Plug-In . SVG Version: 6.00 Build 0)  -->
<!DOCTYPE svg PUBLIC "-//W3C//DTD SVG 1.1//EN" "http://www.w3.org/Graphics/SVG/1.1/DTD/svg11.dtd">
<svg version="1.1" id="Layer_1" xmlns="http://www.w3.org/2000/svg" xmlns:xlink="http://www.w3.org/1999/xlink" x="0px" y="0px"
	 width="17.01px" height="22.677px" viewBox="0 0 17.01 22.677" enable-background="new 0 0 17.01 22.677" xml:space="preserve">
<g>
	<path fill="#CCCCCC" d="M15.008,0c1.104,0,2,1.023,2,2.286v18.105c0,1.263-0.896,2.285-2,2.285H2c-1.104,0-2-1.022-2-2.285V2.286
		C0,1.023,0.896,0,2,0H15.008 M15.008-0.5H2c-1.378,0-2.5,1.25-2.5,2.786v18.105c0,1.536,1.122,2.785,2.5,2.785h13.008
		c1.379,0,2.5-1.249,2.5-2.785V2.286C17.508,0.75,16.387-0.5,15.008-0.5L15.008-0.5z"/>
</g>
</svg>
