<?xml version="1.0" encoding="utf-8"?>
<!-- Generator: Adobe Illustrator 15.0.0, SVG Export Plug-In . SVG Version: 6.00 Build 0)  -->
<!DOCTYPE svg PUBLIC "-//W3C//DTD SVG 1.1//EN" "http://www.w3.org/Graphics/SVG/1.1/DTD/svg11.dtd">
<svg version="1.1" id="Layer_1" xmlns="http://www.w3.org/2000/svg" xmlns:xlink="http://www.w3.org/1999/xlink" x="0px" y="0px"
	 width="17.01px" height="19.84px" viewBox="0 0 17.01 19.84" enable-background="new 0 0 17.01 19.84" xml:space="preserve">
<g>
	<path fill="#CCCCCC" d="M15.008-0.003c1.104,0,2,0.896,2,2V17.84c0,1.104-0.896,2-2,2H2c-1.104,0-2-0.896-2-2V1.997
		c0-1.104,0.896-2,2-2H15.008 M15.008-0.503H2c-1.378,0-2.5,1.122-2.5,2.5V17.84c0,1.379,1.122,2.5,2.5,2.5h13.008
		c1.379,0,2.5-1.121,2.5-2.5V1.997C17.508,0.619,16.387-0.503,15.008-0.503L15.008-0.503z"/>
</g>
</svg>
