<?xml version="1.0" encoding="utf-8"?>
<!-- Generator: Adobe Illustrator 15.0.0, SVG Export Plug-In . SVG Version: 6.00 Build 0)  -->
<!DOCTYPE svg PUBLIC "-//W3C//DTD SVG 1.1//EN" "http://www.w3.org/Graphics/SVG/1.1/DTD/svg11.dtd">
<svg version="1.1" id="Layer_1" xmlns="http://www.w3.org/2000/svg" xmlns:xlink="http://www.w3.org/1999/xlink" x="0px" y="0px"
	 width="85.039px" height="19.843px" viewBox="0 0 85.039 19.843" enable-background="new 0 0 85.039 19.843" xml:space="preserve">
<g>
	<path fill="#CCCCCC" d="M83.042,0c1.104,0,1.997,0.884,1.997,1.972v15.899c0,1.089-0.893,1.972-1.997,1.972H1.997
		C0.894,19.843,0,18.96,0,17.871V1.972C0,0.884,0.894,0,1.997,0H83.042 M83.042-0.5H1.997C0.62-0.5-0.5,0.609-0.5,1.972v15.899
		c0,1.363,1.12,2.472,2.497,2.472h81.045c1.377,0,2.497-1.108,2.497-2.472V1.972C85.539,0.609,84.419-0.5,83.042-0.5L83.042-0.5z"/>
</g>
</svg>
