<?xml version="1.0" encoding="utf-8"?>
<!-- Generator: Adobe Illustrator 15.0.0, SVG Export Plug-In . SVG Version: 6.00 Build 0)  -->
<!DOCTYPE svg PUBLIC "-//W3C//DTD SVG 1.1//EN" "http://www.w3.org/Graphics/SVG/1.1/DTD/svg11.dtd">
<svg version="1.1" id="Layer_1" xmlns="http://www.w3.org/2000/svg" xmlns:xlink="http://www.w3.org/1999/xlink" x="0px" y="0px"
	 width="62.362px" height="22.677px" viewBox="0 0 62.362 22.677" enable-background="new 0 0 62.362 22.677" xml:space="preserve">
<g>
	<path fill="#CCCCCC" d="M60.372,0c1.099,0,1.99,1.009,1.99,2.253v18.17c0,1.243-0.892,2.254-1.99,2.254H1.991
		c-1.1,0-1.991-1.011-1.991-2.254V2.253C0,1.009,0.892,0,1.991,0H60.372 M60.372-0.5H1.991C0.618-0.5-0.5,0.735-0.5,2.253v18.17
		c0,1.519,1.118,2.754,2.491,2.754h58.38c1.373,0,2.49-1.235,2.49-2.754V2.253C62.862,0.735,61.745-0.5,60.372-0.5L60.372-0.5z"/>
</g>
</svg>
