<?xml version="1.0" encoding="utf-8"?>
<!-- Generator: Adobe Illustrator 15.0.0, SVG Export Plug-In . SVG Version: 6.00 Build 0)  -->
<!DOCTYPE svg PUBLIC "-//W3C//DTD SVG 1.1//EN" "http://www.w3.org/Graphics/SVG/1.1/DTD/svg11.dtd">
<svg version="1.1" id="Layer_1" xmlns="http://www.w3.org/2000/svg" xmlns:xlink="http://www.w3.org/1999/xlink" x="0px" y="0px"
	 width="62.362px" height="19.843px" viewBox="0 0 62.362 19.843" enable-background="new 0 0 62.362 19.843" xml:space="preserve">
<g>
	<path fill="#CCCCCC" d="M60.372,0c1.099,0,1.99,0.883,1.99,1.972V17.87c0,1.088-0.892,1.973-1.99,1.973H1.991
		C0.892,19.843,0,18.958,0,17.87V1.972C0,0.883,0.892,0,1.991,0H60.372 M60.372-0.5H1.991C0.618-0.5-0.5,0.609-0.5,1.972V17.87
		c0,1.363,1.118,2.473,2.491,2.473h58.38c1.373,0,2.49-1.109,2.49-2.473V1.972C62.862,0.609,61.745-0.5,60.372-0.5L60.372-0.5z"/>
</g>
</svg>
