<?xml version="1.0" encoding="utf-8"?>
<!-- Generator: Adobe Illustrator 15.0.0, SVG Export Plug-In . SVG Version: 6.00 Build 0)  -->
<!DOCTYPE svg PUBLIC "-//W3C//DTD SVG 1.1//EN" "http://www.w3.org/Graphics/SVG/1.1/DTD/svg11.dtd">
<svg version="1.1" id="Layer_1" xmlns="http://www.w3.org/2000/svg" xmlns:xlink="http://www.w3.org/1999/xlink" x="0px" y="0px"
	 width="39.685px" height="19.843px" viewBox="0 0 39.685 19.843" enable-background="new 0 0 39.685 19.843" xml:space="preserve">
<g>
	<path fill="#CCCCCC" d="M37.686,0c1.103,0,1.999,0.883,1.999,1.972V17.87c0,1.088-0.896,1.973-1.999,1.973H2
		c-1.104,0-2-0.885-2-1.973V1.972C0,0.883,0.895,0,2,0H37.686 M37.686-0.5H2c-1.378,0-2.5,1.109-2.5,2.472V17.87
		c0,1.363,1.121,2.473,2.5,2.473h35.686c1.378,0,2.499-1.109,2.499-2.473V1.972C40.185,0.609,39.063-0.5,37.686-0.5L37.686-0.5z"/>
</g>
</svg>
