<?xml version="1.0" encoding="utf-8"?>
<!-- Generator: Adobe Illustrator 15.0.0, SVG Export Plug-In . SVG Version: 6.00 Build 0)  -->
<!DOCTYPE svg PUBLIC "-//W3C//DTD SVG 1.1//EN" "http://www.w3.org/Graphics/SVG/1.1/DTD/svg11.dtd">
<svg version="1.1" id="Layer_1" xmlns="http://www.w3.org/2000/svg" xmlns:xlink="http://www.w3.org/1999/xlink" x="0px" y="0px"
	 width="85.039px" height="22.677px" viewBox="0 0 85.039 22.677" enable-background="new 0 0 85.039 22.677" xml:space="preserve">
<g>
	<path fill="#CCCCCC" d="M83.042,0c1.104,0,1.997,1.01,1.997,2.253v18.171c0,1.244-0.893,2.253-1.997,2.253H1.997
		C0.894,22.677,0,21.668,0,20.424V2.253C0,1.01,0.894,0,1.997,0H83.042 M83.042-0.5H1.997C0.62-0.5-0.5,0.735-0.5,2.253v18.171
		c0,1.518,1.12,2.753,2.497,2.753h81.045c1.377,0,2.497-1.235,2.497-2.753V2.253C85.539,0.735,84.419-0.5,83.042-0.5L83.042-0.5z"/>
</g>
</svg>
