<?xml version="1.0" encoding="utf-8"?>
<!-- Generator: Adobe Illustrator 15.0.0, SVG Export Plug-In . SVG Version: 6.00 Build 0)  -->
<!DOCTYPE svg PUBLIC "-//W3C//DTD SVG 1.1//EN" "http://www.w3.org/Graphics/SVG/1.1/DTD/svg11.dtd">
<svg version="1.1" id="Layer_1" xmlns="http://www.w3.org/2000/svg" xmlns:xlink="http://www.w3.org/1999/xlink" x="0px" y="0px"
	 width="85.038px" height="17.008px" viewBox="0 0 85.038 17.008" enable-background="new 0 0 85.038 17.008" xml:space="preserve">
<g>
	<path fill="#CCCCCC" d="M83.038,0c1.104,0,2,0.896,2,2v13.008c0,1.104-0.896,2-2,2H1.999c-1.104,0-2-0.896-2-2V2
		c0-1.104,0.896-2,2-2H83.038 M83.038-0.5H1.999c-1.378,0-2.5,1.122-2.5,2.5v13.008c0,1.379,1.122,2.5,2.5,2.5h81.039
		c1.379,0,2.5-1.121,2.5-2.5V2C85.538,0.622,84.417-0.5,83.038-0.5L83.038-0.5z"/>
</g>
</svg>
