<?xml version="1.0" encoding="utf-8"?>
<!-- Generator: Adobe Illustrator 15.0.0, SVG Export Plug-In . SVG Version: 6.00 Build 0)  -->
<!DOCTYPE svg PUBLIC "-//W3C//DTD SVG 1.1//EN" "http://www.w3.org/Graphics/SVG/1.1/DTD/svg11.dtd">
<svg version="1.1" id="Layer_1" xmlns="http://www.w3.org/2000/svg" xmlns:xlink="http://www.w3.org/1999/xlink" x="0px" y="0px"
	 width="17.008px" height="17.29px" viewBox="0 0 17.008 17.29" enable-background="new 0 0 17.008 17.29" xml:space="preserve">
<g>
	<path fill="#CCCCCC" d="M15.008,0c1.104,0,2,0.896,2,2v13.29c0,1.104-0.896,2-2,2H2c-1.104,0-2-0.896-2-2V2c0-1.104,0.896-2,2-2
		H15.008 M15.008-0.5H2C0.622-0.5-0.5,0.622-0.5,2v13.29c0,1.379,1.122,2.5,2.5,2.5h13.008c1.379,0,2.5-1.121,2.5-2.5V2
		C17.508,0.622,16.387-0.5,15.008-0.5L15.008-0.5z"/>
</g>
</svg>
