<?xml version="1.0" encoding="utf-8"?>
<!-- Generator: Adobe Illustrator 15.0.0, SVG Export Plug-In . SVG Version: 6.00 Build 0)  -->
<!DOCTYPE svg PUBLIC "-//W3C//DTD SVG 1.1//EN" "http://www.w3.org/Graphics/SVG/1.1/DTD/svg11.dtd">
<svg version="1.1" id="Layer_1" xmlns="http://www.w3.org/2000/svg" xmlns:xlink="http://www.w3.org/1999/xlink" x="0px" y="0px"
	 width="85.039px" height="39.685px" viewBox="0 0 85.039 39.685" enable-background="new 0 0 85.039 39.685" xml:space="preserve">
<g>
	<path fill="#CCCCCC" d="M83.039,0c1.105,0,2,0.896,2,2v35.685c0,1.105-0.895,2-2,2H2c-1.104,0-2-0.895-2-2V2c0-1.104,0.896-2,2-2
		H83.039 M83.039-0.5H2C0.622-0.5-0.5,0.622-0.5,2v35.685c0,1.379,1.122,2.5,2.5,2.5h81.039c1.379,0,2.5-1.121,2.5-2.5V2
		C85.539,0.622,84.418-0.5,83.039-0.5L83.039-0.5z"/>
</g>
</svg>
