<?xml version="1.0" encoding="UTF-8" standalone="no"?>
<!-- Created with Inkscape (http://www.inkscape.org/) -->

<svg
   xmlns:dc="http://purl.org/dc/elements/1.1/"
   xmlns:cc="http://creativecommons.org/ns#"
   xmlns:rdf="http://www.w3.org/1999/02/22-rdf-syntax-ns#"
   xmlns:svg="http://www.w3.org/2000/svg"
   xmlns="http://www.w3.org/2000/svg"
   xmlns:xlink="http://www.w3.org/1999/xlink"
   xmlns:sodipodi="http://sodipodi.sourceforge.net/DTD/sodipodi-0.dtd"
   xmlns:inkscape="http://www.inkscape.org/namespaces/inkscape"
   width="52.375"
   height="43.213669"
   id="svg2"
   version="1.1"
   inkscape:version="0.48.2 r9819"
   sodipodi:docname="forestman.svg">
  <defs
     id="defs4">
    <linearGradient
       inkscape:collect="always"
       id="linearGradient4011">
      <stop
         style="stop-color:#ffffff;stop-opacity:1;"
         offset="0"
         id="stop4013" />
      <stop
         style="stop-color:#ffffff;stop-opacity:0;"
         offset="1"
         id="stop4015" />
    </linearGradient>
    <linearGradient
       inkscape:collect="always"
       id="linearGradient3997">
      <stop
         style="stop-color:#ffffff;stop-opacity:1;"
         offset="0"
         id="stop3999" />
      <stop
         style="stop-color:#ffffff;stop-opacity:0;"
         offset="1"
         id="stop4001" />
    </linearGradient>
    <inkscape:path-effect
       effect="skeletal"
       id="path-effect4237"
       is_visible="true"
       pattern="M 0,5 C 0,2.24 2.24,0 5,0 7.76,0 10,2.24 10,5 10,7.76 7.76,10 5,10 2.24,10 0,7.76 0,5 z"
       copytype="single_stretched"
       prop_scale="1"
       scale_y_rel="false"
       spacing="0"
       normal_offset="0"
       tang_offset="0"
       prop_units="false"
       vertical_pattern="false"
       fuse_tolerance="0" />
    <clipPath
       id="clipPath2999"
       clipPathUnits="userSpaceOnUse">
      <path
         id="path3001"
         d="M 0,792 612,792 612,0 0,0 0,792 z"
         inkscape:connector-curvature="0" />
    </clipPath>
    <radialGradient
       gradientUnits="userSpaceOnUse"
       gradientTransform="matrix(0.75988491,-0.03632001,0.13155835,2.7524547,16.986326,-78.268899)"
       r="12.650181"
       fy="46.658409"
       fx="96.306435"
       cy="46.658409"
       cx="96.306435"
       id="radialGradient3972"
       xlink:href="#linearGradient3966"
       inkscape:collect="always" />
    <clipPath
       clipPathUnits="userSpaceOnUse"
       id="clipPath2999-4">
      <path
         inkscape:connector-curvature="0"
         d="M 0,792 612,792 612,0 0,0 0,792 z"
         id="path3001-0" />
    </clipPath>
    <linearGradient
       id="linearGradient3966">
      <stop
         id="stop3968"
         offset="0"
         style="stop-color:#c0ac02;stop-opacity:1;" />
      <stop
         id="stop3970"
         offset="1"
         style="stop-color:#fdea41;stop-opacity:0;" />
    </linearGradient>
    <radialGradient
       inkscape:collect="always"
       xlink:href="#linearGradient3997"
       id="radialGradient4003"
       cx="165.81134"
       cy="47.693741"
       fx="165.81134"
       fy="47.693741"
       r="3.8123069"
       gradientTransform="matrix(0.64374811,-0.18781617,0.31213841,1.069868,43.640483,27.15595)"
       gradientUnits="userSpaceOnUse" />
    <radialGradient
       inkscape:collect="always"
       xlink:href="#linearGradient3997"
       id="radialGradient4007"
       gradientUnits="userSpaceOnUse"
       gradientTransform="matrix(-0.64374811,-0.18781617,-0.31213841,1.069868,293.73143,27.15595)"
       cx="165.81134"
       cy="47.693741"
       fx="165.81134"
       fy="47.693741"
       r="3.8123069" />
    <radialGradient
       inkscape:collect="always"
       xlink:href="#linearGradient4011"
       id="radialGradient4017"
       cx="169.32254"
       cy="41.784931"
       fx="169.32254"
       fy="41.784931"
       r="6.982676"
       gradientTransform="matrix(0.31036379,-0.01814613,0.03701409,0.63307367,114.75293,21.468668)"
       gradientUnits="userSpaceOnUse" />
    <linearGradient
       id="linearGradient3966-2">
      <stop
         style="stop-color:#c0ac02;stop-opacity:1;"
         offset="0"
         id="stop3968-4" />
      <stop
         style="stop-color:#fdea41;stop-opacity:0;"
         offset="1"
         id="stop3970-5" />
    </linearGradient>
    <clipPath
       id="clipPath2999-4-8"
       clipPathUnits="userSpaceOnUse">
      <path
         id="path3001-0-8"
         d="M 0,792 612,792 612,0 0,0 0,792 z"
         inkscape:connector-curvature="0" />
    </clipPath>
    <radialGradient
       inkscape:collect="always"
       xlink:href="#linearGradient3966-2"
       id="radialGradient3972-4"
       cx="96.306435"
       cy="46.658409"
       fx="96.306435"
       fy="46.658409"
       r="12.650181"
       gradientTransform="matrix(0.75988491,-0.03632001,0.13155835,2.7524547,16.986326,-78.268899)"
       gradientUnits="userSpaceOnUse" />
    <clipPath
       clipPathUnits="userSpaceOnUse"
       id="clipPath2999-0">
      <path
         inkscape:connector-curvature="0"
         d="M 0,792 612,792 612,0 0,0 0,792 z"
         id="path3001-9" />
    </clipPath>
    <inkscape:path-effect
       fuse_tolerance="0"
       vertical_pattern="false"
       prop_units="false"
       tang_offset="0"
       normal_offset="0"
       spacing="0"
       scale_y_rel="false"
       prop_scale="1"
       copytype="single_stretched"
       pattern="M 0,5 C 0,2.24 2.24,0 5,0 7.76,0 10,2.24 10,5 10,7.76 7.76,10 5,10 2.24,10 0,7.76 0,5 z"
       is_visible="true"
       id="path-effect4237-4"
       effect="skeletal" />
  </defs>
  <sodipodi:namedview
     id="base"
     pagecolor="#ffffff"
     bordercolor="#666666"
     borderopacity="1.0"
     inkscape:pageopacity="0.0"
     inkscape:pageshadow="2"
     inkscape:zoom="5.13"
     inkscape:cx="-3.5718403"
     inkscape:cy="12.041142"
     inkscape:document-units="px"
     inkscape:current-layer="layer3"
     showgrid="false"
     fit-margin-top="0"
     fit-margin-left="0"
     fit-margin-right="0"
     fit-margin-bottom="0"
     inkscape:window-width="1600"
     inkscape:window-height="848"
     inkscape:window-x="-8"
     inkscape:window-y="-8"
     inkscape:window-maximized="1"
     showguides="true"
     inkscape:guide-bbox="true"
     inkscape:snap-global="false">
    <sodipodi:guide
       orientation="0,1"
       position="11.28133,21.517799"
       id="guide3274" />
    <sodipodi:guide
       orientation="1,0"
       position="26.13159,26.634501"
       id="guide3960" />
    <sodipodi:guide
       orientation="0,1"
       position="-11.33955,24.654648"
       id="guide3058" />
    <sodipodi:guide
       orientation="1,0"
       position="8.50172,32.2737"
       id="guide3060" />
  </sodipodi:namedview>
  <metadata
     id="metadata7">
    <rdf:RDF>
      <cc:Work
         rdf:about="">
        <dc:format>image/svg+xml</dc:format>
        <dc:type
           rdf:resource="http://purl.org/dc/dcmitype/StillImage" />
        <dc:title />
      </cc:Work>
    </rdf:RDF>
  </metadata>
  <g
     inkscape:groupmode="layer"
     id="layer3"
     inkscape:label="forestman"
     style="display:inline"
     transform="translate(-142.76812,-31.473222)">
    <path
       transform="translate(-218.16938,-378.37561)"
       id="path3914"
       style="fill:#4b974a;stroke:#231f20;stroke-width:0.31250000000000000;stroke-linecap:butt;stroke-linejoin:miter;stroke-miterlimit:4;stroke-opacity:1;stroke-dasharray:none;display:inline"
       d="m 361.13813,452.9203 c 8.7325,-47.29375 5.3425,-42.67875 14.2675,-42.85625 l 23.44,0 c 8.92625,0.1775 5.535,-4.4375 14.265,42.85625 l -51.9725,0 z"
       inkscape:connector-curvature="0" />
    <path
       style="fill:#1b2a34;stroke:none"
       d="m 144.25,67.46875 c -0.40154,2.241747 -0.81406,4.532284 -1.28125,7.0625 l 51.96875,0 c -0.46705,-2.530216 -0.87984,-4.820753 -1.28125,-7.0625 l -49.40625,0 z"
       id="rect3891"
       inkscape:connector-curvature="0" />
    <path
       style="fill:#a05f34;stroke:none"
       d="m 154.96875,31.65625 -4.53125,4.0625 6.03125,1.84375 -2.40625,5.8125 6.21875,-0.96875 0.34375,6.3125 5.21875,-3.5625 3.03125,5.5 3.15625,-5.46875 5.125,3.65625 0.46875,-6.28125 6.21875,1.0625 -2.3125,-5.875 6.0625,-1.75 -4.65625,-4.25 0.0937,-0.09375 c -0.6808,0.02145 -1.43195,0.04938 -2.34375,0.03125 l -23.4375,0 c -0.87088,0.01732 -1.62218,-0.01 -2.28125,-0.03125 z"
       id="path3064"
       inkscape:connector-curvature="0" />
    <path
       style="font-size:medium;font-style:normal;font-variant:normal;font-weight:normal;font-stretch:normal;text-indent:0;text-align:start;text-decoration:none;line-height:normal;letter-spacing:normal;word-spacing:normal;text-transform:none;direction:ltr;block-progression:tb;writing-mode:lr-tb;text-anchor:start;baseline-shift:baseline;color:#000000;fill:#1b2a34;fill-opacity:1;stroke:none;stroke-width:3.79999995000000010;marker:none;visibility:visible;display:inline;overflow:visible;enable-background:accumulate;font-family:Sans;-inkscape-font-specification:Sans"
       d="m 153.34375,31.65625 c -1.16668,0.0844 -1.9344,0.479391 -2.59375,1.8125 10.30227,16.466308 24.46877,32.443463 43.78125,38.875 -0.27036,-1.478751 -0.53471,-2.907821 -0.78125,-4.28125 -17.00598,-6.405475 -29.98338,-21.003831 -39.65625,-36.40625 -0.26011,-0.0014 -0.52209,-0.01649 -0.75,0 z"
       id="path3067"
       inkscape:connector-curvature="0" />
    <path
       style="fill:#c7c1b7;stroke:none"
       d="m 159.59624,38.021057 -4.77938,3.780386 6.10677,7.720538 4.77938,-3.780386 -6.10677,-7.720538 z m 0.69309,2.639303 3.00492,3.798995 -3.06371,2.423323 -3.00492,-3.798995 1.0294,-0.814236 1.43462,1.813714 a 0.65006498,0.65006498 0 1 0 1.00489,-0.794851 l -1.43461,-1.813713 1.02941,-0.814237 z"
       id="rect3844"
       inkscape:connector-curvature="0" />
    <path
       sodipodi:type="arc"
       style="fill:#c7c1b7;stroke:none"
       id="path3856"
       sodipodi:cx="154.18689"
       sodipodi:cy="68.80645"
       sodipodi:rx="0.72751111"
       sodipodi:ry="0.72751111"
       d="m 154.9144,68.80645 c 0,0.401793 -0.32572,0.727511 -0.72751,0.727511 -0.40179,0 -0.72751,-0.325718 -0.72751,-0.727511 0,-0.401793 0.32572,-0.727511 0.72751,-0.727511 0.40179,0 0.72751,0.325718 0.72751,0.727511 z"
       transform="translate(0.27281666,0.31828611)" />
    <path
       transform="translate(0.27281666,3.3647389)"
       d="m 154.9144,68.80645 c 0,0.401793 -0.32572,0.727511 -0.72751,0.727511 -0.40179,0 -0.72751,-0.325718 -0.72751,-0.727511 0,-0.401793 0.32572,-0.727511 0.72751,-0.727511 0.40179,0 0.72751,0.325718 0.72751,0.727511 z"
       sodipodi:ry="0.72751111"
       sodipodi:rx="0.72751111"
       sodipodi:cy="68.80645"
       sodipodi:cx="154.18689"
       id="path3858"
       style="fill:#c7c1b7;stroke:none"
       sodipodi:type="arc" />
    <path
       transform="translate(3.7739639,0.31828611)"
       d="m 154.9144,68.80645 c 0,0.401793 -0.32572,0.727511 -0.72751,0.727511 -0.40179,0 -0.72751,-0.325718 -0.72751,-0.727511 0,-0.401793 0.32572,-0.727511 0.72751,-0.727511 0.40179,0 0.72751,0.325718 0.72751,0.727511 z"
       sodipodi:ry="0.72751111"
       sodipodi:rx="0.72751111"
       sodipodi:cy="68.80645"
       sodipodi:cx="154.18689"
       id="path3860"
       style="fill:#c7c1b7;stroke:none"
       sodipodi:type="arc" />
    <path
       sodipodi:type="arc"
       style="fill:#c7c1b7;stroke:none"
       id="path3862"
       sodipodi:cx="154.18689"
       sodipodi:cy="68.80645"
       sodipodi:rx="0.72751111"
       sodipodi:ry="0.72751111"
       d="m 154.9144,68.80645 c 0,0.401793 -0.32572,0.727511 -0.72751,0.727511 -0.40179,0 -0.72751,-0.325718 -0.72751,-0.727511 0,-0.401793 0.32572,-0.727511 0.72751,-0.727511 0.40179,0 0.72751,0.325718 0.72751,0.727511 z"
       transform="translate(3.7739639,3.3647389)" />
    <path
       sodipodi:type="arc"
       style="fill:#c7c1b7;stroke:none"
       id="path3864"
       sodipodi:cx="154.18689"
       sodipodi:cy="68.80645"
       sodipodi:rx="0.72751111"
       sodipodi:ry="0.72751111"
       d="m 154.9144,68.80645 c 0,0.401793 -0.32572,0.727511 -0.72751,0.727511 -0.40179,0 -0.72751,-0.325718 -0.72751,-0.727511 0,-0.401793 0.32572,-0.727511 0.72751,-0.727511 0.40179,0 0.72751,0.325718 0.72751,0.727511 z"
       transform="translate(7.36605,0.31828611)" />
    <path
       transform="translate(7.36605,3.3647389)"
       d="m 154.9144,68.80645 c 0,0.401793 -0.32572,0.727511 -0.72751,0.727511 -0.40179,0 -0.72751,-0.325718 -0.72751,-0.727511 0,-0.401793 0.32572,-0.727511 0.72751,-0.727511 0.40179,0 0.72751,0.325718 0.72751,0.727511 z"
       sodipodi:ry="0.72751111"
       sodipodi:rx="0.72751111"
       sodipodi:cy="68.80645"
       sodipodi:cx="154.18689"
       id="path3866"
       style="fill:#c7c1b7;stroke:none"
       sodipodi:type="arc" />
    <path
       style="fill:#c7c1b7;stroke:none"
       d="m 164.1875,65.130786 0,9.5 7.90625,0 0,-9.5 -7.90625,0 z m 1.375,1.4375 5.1875,0 0,1.53125 -2.6875,0 a 0.50005,0.50005 0 0 0 -0.0937,0 0.50219246,0.50219246 0 1 0 0.0937,1 l 2.6875,0 0,1.59375 -2.6875,0 a 0.50005,0.50005 0 0 0 -0.15625,0 0.50606671,0.50606671 0 1 0 0.15625,1 l 2.6875,0 0,1.46875 -5.1875,0 0,-6.59375 z"
       id="rect3868"
       inkscape:connector-curvature="0" />
    <g
       id="g3901"
       transform="translate(0,-0.448888)" />
    <path
       style="font-size:medium;font-style:normal;font-variant:normal;font-weight:normal;font-stretch:normal;text-indent:0;text-align:start;text-decoration:none;line-height:normal;letter-spacing:normal;word-spacing:normal;text-transform:none;direction:ltr;block-progression:tb;writing-mode:lr-tb;text-anchor:start;baseline-shift:baseline;color:#000000;fill:#c7c1b7;fill-opacity:1;stroke:none;stroke-width:0.69999999000000002;marker:none;visibility:visible;display:inline;overflow:visible;enable-background:accumulate;font-family:Sans;-inkscape-font-specification:Sans"
       d="m 174.6875,66.03125 c -0.92483,0 -1.65625,0.781464 -1.65625,1.71875 l 0,6.78125 0.6875,0 0,-6.78125 c 0,-0.574118 0.43256,-1 0.96875,-1 0.53619,0 0.96875,0.425882 0.96875,1 l 0,6.78125 0.71875,0 0,-6.78125 c 0,-0.937286 -0.76267,-1.71875 -1.6875,-1.71875 z"
       id="rect3876"
       inkscape:connector-curvature="0" />
    <path
       style="font-size:medium;font-style:normal;font-variant:normal;font-weight:normal;font-stretch:normal;text-indent:0;text-align:start;text-decoration:none;line-height:normal;letter-spacing:normal;word-spacing:normal;text-transform:none;direction:ltr;block-progression:tb;writing-mode:lr-tb;text-anchor:start;baseline-shift:baseline;color:#000000;fill:#c7c1b7;fill-opacity:1;stroke:none;stroke-width:1.20000005000000010;marker:none;visibility:visible;display:inline;overflow:visible;enable-background:accumulate;font-family:Sans;-inkscape-font-specification:Sans"
       d="m 180.03125,67.46875 c 1.20405,1.251238 1.72623,3.576705 1,5.53125 -0.22438,0.6039 -0.5508,1.125144 -0.9375,1.53125 l 0.97718,0 c 2.22397,-2.203302 2.12317,-4.927386 -0.12219,-7.0625 z"
       id="path3878"
       inkscape:connector-curvature="0"
       sodipodi:nodetypes="cscccc" />
  </g>
</svg>
