<?xml version="1.0" encoding="utf-8"?>
<!-- Generator: Adobe Illustrator 15.0.0, SVG Export Plug-In . SVG Version: 6.00 Build 0)  -->
<!DOCTYPE svg PUBLIC "-//W3C//DTD SVG 1.1//EN" "http://www.w3.org/Graphics/SVG/1.1/DTD/svg11.dtd">
<svg version="1.1" id="Layer_1" xmlns="http://www.w3.org/2000/svg" xmlns:xlink="http://www.w3.org/1999/xlink" x="0px" y="0px"
	 width="130.394px" height="22.677px" viewBox="0 0 130.394 22.677" enable-background="new 0 0 130.394 22.677"
	 xml:space="preserve">
<g>
	<path fill="#CCCCCC" d="M128.394,0c1.104,0,2,1.023,2,2.286v18.106c0,1.261-0.896,2.285-2,2.285H2c-1.105,0-2-1.024-2-2.285V2.286
		C0,1.023,0.896,0,2,0H128.394 M128.394-0.5H2c-1.379,0-2.5,1.25-2.5,2.786v18.106c0,1.536,1.122,2.785,2.5,2.785h126.394
		c1.379,0,2.5-1.249,2.5-2.785V2.286C130.894,0.75,129.773-0.5,128.394-0.5L128.394-0.5z"/>
</g>
</svg>
