<?xml version="1.0" encoding="utf-8"?>
<!-- Generator: Adobe Illustrator 15.0.0, SVG Export Plug-In . SVG Version: 6.00 Build 0)  -->
<!DOCTYPE svg PUBLIC "-//W3C//DTD SVG 1.1//EN" "http://www.w3.org/Graphics/SVG/1.1/DTD/svg11.dtd">
<svg version="1.1" id="Layer_1" xmlns="http://www.w3.org/2000/svg" xmlns:xlink="http://www.w3.org/1999/xlink" x="0px" y="0px"
	 width="39.69px" height="39.69px" viewBox="0 0 39.69 39.69" enable-background="new 0 0 39.69 39.69" xml:space="preserve">
<g>
	<path fill="#CCCCCC" d="M37.69,0.006c1.105,0,2,0.896,2,2V37.69c0,1.105-0.895,2-2,2H2.006c-1.104,0-2-0.895-2-2V2.006
		c0-1.104,0.896-2,2-2H37.69 M37.69-0.494H2.006c-1.378,0-2.5,1.122-2.5,2.5V37.69c0,1.379,1.122,2.5,2.5,2.5H37.69
		c1.379,0,2.5-1.121,2.5-2.5V2.006C40.19,0.627,39.069-0.494,37.69-0.494L37.69-0.494z"/>
</g>
</svg>
