<?xml version="1.0" encoding="utf-8"?>
<!-- Generator: Adobe Illustrator 15.0.0, SVG Export Plug-In . SVG Version: 6.00 Build 0)  -->
<!DOCTYPE svg PUBLIC "-//W3C//DTD SVG 1.1//EN" "http://www.w3.org/Graphics/SVG/1.1/DTD/svg11.dtd">
<svg version="1.1" id="Layer_1" xmlns="http://www.w3.org/2000/svg" xmlns:xlink="http://www.w3.org/1999/xlink" x="0px" y="0px"
	 width="104.882px" height="59.53px" viewBox="0 0 104.882 59.53" enable-background="new 0 0 104.882 59.53" xml:space="preserve">
<g>
	<path fill="#CCCCCC" d="M102.83,0c1.104,0,2,0.896,2,2c0,0,0.683,11.133-2.852,29.812c-3.5,18.5-7.053,27.715-8.157,27.715
		L11.062,59.53c-1.104,0-4.657-9.215-8.157-27.715C-0.629,13.136,0.053,2.003,0.053,2.003c0-1.104,0.896-2,2-2L102.83,0 M102.83-1
		L102.83-1L2.053-0.997c-1.643,0-2.982,1.328-3,2.967c-0.044,0.771-0.594,11.729,2.869,30.031
		c1.986,10.498,3.818,17.166,5.006,20.912c2.415,7.617,3.491,7.617,4.133,7.617l82.759-0.003c0.643,0,1.718,0,4.134-7.617
		c1.188-3.746,3.02-10.414,5.006-20.912c3.463-18.302,2.914-29.259,2.869-30.031C105.812,0.328,104.473-1,102.83-1L102.83-1z"/>
</g>
</svg>
