<?xml version="1.0" encoding="utf-8"?>
<!-- Generator: Adobe Illustrator 15.1.0, SVG Export Plug-In . SVG Version: 6.00 Build 0)  -->
<!DOCTYPE svg PUBLIC "-//W3C//DTD SVG 1.1//EN" "http://www.w3.org/Graphics/SVG/1.1/DTD/svg11.dtd">
<svg version="1.1" xmlns="http://www.w3.org/2000/svg" xmlns:xlink="http://www.w3.org/1999/xlink" x="0px" y="0px"
	 width="53.858px" height="45.354px" viewBox="0 0 53.858 45.354" enable-background="new 0 0 53.858 45.354" xml:space="preserve">
<g id="base_1_">
	<path id="torso" inkscape:connector-curvature="0" stroke="#000000" stroke-width="0.3125" d="M0.943,44.131
		C9.675-3.163,6.286,1.452,15.21,1.274h23.44c8.926,0.178,5.534-4.438,14.265,42.857H0.943z"/>
</g>
<g id="torso_masked">
	<defs>
		<path id="SVGID_1_" d="M1.351,43.792c1.942-10.538,3.294-18.564,4.284-24.444C8.405,2.906,8.631,1.563,11.979,1.563
			c0.331,0,0.691,0.012,1.084,0.025c0.48,0.016,1.011,0.033,1.597,0.033c0.181,0,0.365-0.002,0.557-0.005H38.65
			c0.184,0.003,0.371,0.005,0.551,0.005c0.586,0,1.115-0.018,1.596-0.033c0.395-0.013,0.754-0.025,1.086-0.025
			c3.348,0,3.574,1.342,6.34,17.771c0.99,5.883,2.342,13.913,4.285,24.458H1.351z"/>
	</defs>
	<clipPath id="SVGID_2_">
		<use xlink:href="#SVGID_1_"  overflow="visible"/>
	</clipPath>
	<path clip-path="url(#SVGID_2_)" fill="#F5D7B3" stroke="#A2A1A3" stroke-width="0.4252" d="M19.064,0.566
		c0,0,0.2,3.273,2.266,4.749c2.201,1.572,8.997,1.572,11.198,0c2.065-1.476,2.266-4.749,2.266-4.749H19.064z"/>
	<g clip-path="url(#SVGID_2_)">
		<g id="dress_outline">
			<g>
				<g>
					<path fill="#605F61" d="M34.506-1.299c1.021,2.016,1.579,4.22,1.789,6.455c0.1,1.119,0.091,2.246-0.02,3.366
						c-0.123,1.133-0.468,2.224-0.917,3.254c-0.911,2.062-2.175,3.923-3.492,5.72c-1.329,1.793-2.752,3.51-4.209,5.195l0.01-0.013
						c-0.102,0.137-0.187,0.283-0.25,0.435c-0.031,0.076-0.057,0.153-0.074,0.23c-0.017,0.07-0.027,0.166-0.025,0.206l0.001,0.018
						l0.138,9.514l0.066,4.755c0.022,0.773,0.13,1.561,0.413,2.271c0.267,0.711,0.822,1.305,1.554,1.479
						c0.179,0.041,0.367,0.069,0.539,0.049l0.592-0.056l1.185-0.111l2.368-0.223l4.735-0.446l9.473-0.893
						c0.039-0.004,0.073,0.024,0.077,0.063s-0.024,0.073-0.063,0.077l-9.464,0.973l-4.732,0.485l-2.366,0.243L30.65,41.87
						l-0.592,0.062c-0.223,0.025-0.434-0.007-0.64-0.053c-0.84-0.189-1.488-0.889-1.775-1.652c-0.308-0.766-0.422-1.575-0.451-2.383
						l-0.098-4.757l-0.2-9.512l0.001,0.017c-0.007-0.145,0.012-0.233,0.034-0.343c0.023-0.104,0.057-0.202,0.096-0.298
						c0.08-0.189,0.184-0.364,0.303-0.524l0.01-0.013c1.458-1.674,2.879-3.381,4.204-5.158c1.313-1.779,2.568-3.623,3.464-5.634
						c0.441-1.004,0.775-2.058,0.896-3.139c0.113-1.093,0.119-2.199,0.032-3.296c-0.178-2.188-0.709-4.381-1.676-6.349l-0.005-0.009
						c-0.034-0.07-0.006-0.155,0.064-0.189C34.387-1.396,34.472-1.368,34.506-1.299z"/>
				</g>
				<g>
					<path fill="#605F61" d="M40.573-0.053l2.335,5.619c0.048,0.114-0.007,0.245-0.12,0.292c-0.042,0.018-0.085,0.021-0.126,0.014
						l-0.006-0.001l0,0l-6.537-1.427l0.029-0.147v0l3.141,0.558c0.017,0.003,0.031,0.009,0.045,0.018l0.007,0.005l3.16,2.065
						c0.111,0.073,0.151,0.214,0.1,0.333l-0.008,0.019v0.001c-0.844,1.678-1.828,3.248-2.896,4.77
						c-1.07,1.518-2.239,2.967-3.509,4.323c-2.536,2.705-5.512,5.055-8.914,6.576c-0.071,0.032-0.155,0-0.188-0.071
						c-0.032-0.071,0-0.154,0.07-0.187c3.343-1.534,6.261-3.883,8.745-6.583c1.244-1.354,2.387-2.799,3.433-4.311
						c1.039-1.512,2.007-3.091,2.811-4.729v0l0.069,0.264l-3.016-2.268l0.043,0.019L36.12,4.444h-0.001
						c-0.04-0.007-0.067-0.046-0.061-0.087s0.049-0.067,0.09-0.061l6.591,1.145h0.001l-0.238,0.287l-2.192-5.675
						c-0.028-0.073,0.009-0.155,0.081-0.184C40.462-0.158,40.543-0.123,40.573-0.053z"/>
				</g>
			</g>
		</g>
		<g id="dress_outline_1_">
			<g>
				<g>
					<path fill="#605F61" d="M19.603-1.163c-0.967,1.967-1.5,4.161-1.677,6.349c-0.086,1.097-0.081,2.204,0.033,3.296
						c0.12,1.081,0.455,2.135,0.896,3.139c0.896,2.011,2.151,3.854,3.465,5.634c1.325,1.777,2.747,3.483,4.205,5.158l0.01,0.013
						c0.119,0.16,0.223,0.334,0.303,0.524c0.04,0.095,0.073,0.194,0.097,0.297c0.022,0.109,0.041,0.199,0.034,0.343l0.001-0.017
						l-0.2,9.514l-0.098,4.758c-0.03,0.807-0.144,1.617-0.453,2.383c-0.288,0.764-0.938,1.462-1.778,1.649
						c-0.207,0.047-0.417,0.078-0.64,0.052l-0.592-0.061l-1.183-0.121l-2.367-0.243l-4.733-0.486l-9.466-0.972
						c-0.039-0.004-0.067-0.039-0.063-0.077c0.004-0.039,0.039-0.067,0.077-0.063l9.474,0.893l4.737,0.445l2.369,0.224l1.184,0.111
						l0.592,0.056c0.173,0.021,0.36-0.007,0.54-0.049c0.731-0.173,1.289-0.766,1.556-1.478c0.282-0.71,0.391-1.497,0.414-2.271
						l0.066-4.757l0.138-9.515l0.001-0.017c0.002-0.041-0.008-0.136-0.025-0.207c-0.018-0.077-0.043-0.154-0.074-0.23
						c-0.063-0.152-0.149-0.298-0.251-0.435l0.01,0.013c-1.458-1.684-2.881-3.401-4.21-5.194c-1.318-1.797-2.582-3.659-3.494-5.721
						c-0.45-1.03-0.794-2.121-0.917-3.254c-0.111-1.12-0.12-2.247-0.02-3.366c0.21-2.234,0.769-4.439,1.789-6.455
						c0.036-0.07,0.121-0.098,0.19-0.063c0.069,0.035,0.097,0.119,0.063,0.189L19.603-1.163z"/>
				</g>
				<g>
					<path fill="#605F61" d="M13.549,0.053l-2.181,5.68l-0.252-0.305l0,0l6.596-1.132c0.041-0.009,0.081,0.017,0.089,0.058
						s-0.02,0.081-0.061,0.09h0l-3.119,0.673l0.051-0.022l-2.987,2.309l0.092-0.351l0,0c0.795,1.634,1.757,3.216,2.792,4.729
						c1.04,1.514,2.177,2.961,3.415,4.317c2.474,2.705,5.383,5.062,8.722,6.606c0.071,0.032,0.103,0.116,0.07,0.188
						c-0.032,0.071-0.117,0.102-0.188,0.07c-3.397-1.532-6.364-3.89-8.89-6.6c-1.265-1.359-2.428-2.81-3.493-4.33
						c-1.062-1.523-2.042-3.097-2.876-4.771l0,0l-0.004-0.009c-0.042-0.093-0.008-0.2,0.073-0.255l3.131-2.106
						c0.012-0.009,0.03-0.016,0.044-0.019l3.138-0.578l0,0l0.029,0.147L11.2,5.858h0c-0.114,0.024-0.226-0.05-0.25-0.164
						c-0.009-0.042-0.002-0.087,0.012-0.124l2.324-5.623c0.03-0.072,0.113-0.106,0.186-0.077C13.542-0.1,13.577-0.019,13.549,0.053z
						"/>
				</g>
			</g>
		</g>
		<g id="buttons">
			
				<circle fill="none" stroke="#605F61" stroke-width="0.4252" stroke-linecap="round" stroke-linejoin="round" stroke-miterlimit="10" cx="28.835" cy="24.207" r="0.594"/>
			
				<circle fill="none" stroke="#605F61" stroke-width="0.4252" stroke-linecap="round" stroke-linejoin="round" stroke-miterlimit="10" cx="28.915" cy="26.832" r="0.594"/>
			
				<circle fill="none" stroke="#605F61" stroke-width="0.4252" stroke-linecap="round" stroke-linejoin="round" stroke-miterlimit="10" cx="25.022" cy="24.207" r="0.594"/>
			
				<circle fill="none" stroke="#605F61" stroke-width="0.4252" stroke-linecap="round" stroke-linejoin="round" stroke-miterlimit="10" cx="24.943" cy="26.832" r="0.594"/>
		</g>
		<g id="pockets_1_">
			<g>
				<path fill="#605F61" d="M12.762,32.082c1.436-0.021,2.854,0.119,4.273,0.247c1.414,0.178,2.83,0.341,4.227,0.67
					c-1.436,0.023-2.854-0.119-4.273-0.247C15.576,32.574,14.16,32.409,12.762,32.082z"/>
			</g>
			<g>
				<path fill="#605F61" d="M41.095,32.082c-1.397,0.327-2.813,0.492-4.228,0.67c-1.419,0.128-2.837,0.271-4.272,0.247
					c1.397-0.329,2.813-0.492,4.228-0.67C38.242,32.201,39.66,32.06,41.095,32.082z"/>
			</g>
		</g>
	</g>
	<g clip-path="url(#SVGID_2_)">
		<defs>
			<path id="SVGID_3_" d="M19.526,0.741c0,0,0.189,3.081,2.132,4.47c2.072,1.48,8.468,1.48,10.54,0
				c1.943-1.389,2.132-4.47,2.132-4.47H19.526z"/>
		</defs>
		<clipPath id="SVGID_4_">
			<use xlink:href="#SVGID_3_"  overflow="visible"/>
		</clipPath>
		
			<path id="path4350" inkscape:connector-curvature="0" sodipodi:nodetypes="ssscsssszsscccccccsszs" opacity="0.25" clip-path="url(#SVGID_4_)" fill="#DE8B5F" d="
			M30.023,2.187c-1.133,0.189-1.788,0.677-2.219,1.031c-0.215,0.178-0.372,0.301-0.5,0.375c-0.111,0.063-0.205,0.093-0.344,0.094
			c-0.025,0.001-0.04,0-0.063,0c-0.139-0.001-0.232-0.03-0.344-0.094c-0.129-0.074-0.285-0.197-0.5-0.375
			c-0.431-0.354-1.085-0.842-2.219-1.031c-2.169-0.363-5.309-0.436-5.328-0.234c-0.019,0.201,2.69,0.184,4.859,0.547
			C24.5,2.689,25.717,3.645,26.147,4c0.215,0.178,0.371,0.301,0.5,0.375c0.055,0.031,0.104,0.047,0.156,0.063
			c-0.002,0.014,0.002,0.017,0,0.031c0.053,0.003,0.084-0.027,0.125-0.031c0.041,0.004,0.072,0.034,0.125,0.031
			c-0.002-0.015,0.002-0.018,0-0.031c0.052-0.016,0.102-0.031,0.156-0.063C27.339,4.3,27.495,4.177,27.71,4
			c0.431-0.354,1.648-1.311,2.781-1.5c2.17-0.363,4.901-0.368,4.859-0.547S32.193,1.824,30.023,2.187z"/>
	</g>
	<path clip-path="url(#SVGID_2_)" fill="#444446" d="M8.209,33.454c-0.25,5.188-5.375,6.688-8.021,12.042
		c-6.485-2.36,0-27.604,0-27.604s3.726-4.571,5.154-4.252C4.771,19.891,8.521,24.891,8.209,33.454z M45.65,33.454
		c0.25,5.188,5.375,6.688,8.021,12.042c6.485-2.36,0-27.604,0-27.604s-3.726-4.571-5.153-4.252
		C49.087,19.891,45.337,24.891,45.65,33.454z M41.363,20.477c-0.982,0.616-2.069,1.033-3.206,1.227
		c-1.134,0.211-2.31,0.214-3.483,0.106c-1.175-0.118-2.351-0.341-3.525-0.662c1.039,0.648,2.215,1.07,3.427,1.318
		c1.214,0.25,2.486,0.291,3.733,0.074c1.241-0.228,2.45-0.736,3.438-1.524c0.994-0.777,1.759-1.802,2.246-2.919
		C43.205,19.028,42.347,19.858,41.363,20.477z M12.113,21.016c0.987,0.788,2.196,1.296,3.437,1.524
		c1.247,0.217,2.52,0.176,3.733-0.074c1.212-0.249,2.388-0.67,3.427-1.318c-1.175,0.321-2.351,0.544-3.525,0.662
		c-1.173,0.108-2.35,0.105-3.484-0.106c-1.137-0.194-2.224-0.611-3.205-1.227c-0.984-0.619-1.843-1.448-2.629-2.38
		C10.354,19.214,11.119,20.238,12.113,21.016z"/>
</g>
</svg>
