<?xml version="1.0" encoding="utf-8"?>
<!-- Generator: Adobe Illustrator 15.1.0, SVG Export Plug-In . SVG Version: 6.00 Build 0)  -->
<!DOCTYPE svg PUBLIC "-//W3C//DTD SVG 1.1//EN" "http://www.w3.org/Graphics/SVG/1.1/DTD/svg11.dtd">
<svg version="1.1" xmlns="http://www.w3.org/2000/svg" xmlns:xlink="http://www.w3.org/1999/xlink" x="0px" y="0px"
	 width="130.394px" height="113.386px" viewBox="0 0 130.394 113.386" enable-background="new 0 0 130.394 113.386"
	 xml:space="preserve">
<g id="toroso">
	<path id="torso" inkscape:connector-curvature="0" fill="#EFF0ED" stroke="#A2A1A3" stroke-width="0.3125" d="M7.984,63.537
		c8.732-47.294,5.343-42.679,14.268-42.856h23.44c8.926,0.177,5.535-4.438,14.264,42.856H7.984z"/>
	<g id="design_1_">
		<defs>
			<path id="clipping_mask_1_" inkscape:connector-curvature="0" d="M8.503,63.108c8.628-46.727,5.167-41.825,13.982-42h22.972
				c8.817,0.175,5.354-4.728,13.979,42H8.503z"/>
		</defs>
		<clipPath id="clipping_mask_3_">
			<use xlink:href="#clipping_mask_1_"  overflow="visible"/>
		</clipPath>
		<g id="chest_armor" clip-path="url(#clipping_mask_3_)">
			<linearGradient id="gradient_shading_1_" gradientUnits="userSpaceOnUse" x1="33.9707" y1="54.2954" x2="33.9707" y2="49.5121">
				<stop  offset="0" style="stop-color:#EFF0ED;stop-opacity:0"/>
				<stop  offset="1" style="stop-color:#605F61"/>
			</linearGradient>
			<path id="gradient_shading" fill="url(#gradient_shading_1_)" d="M49.317,52.76l-7.049-2.701l-4.266-0.76H29.94l-4.266,0.76
				l-7.05,2.701c0,0,11.469,1.535,15.347,1.535C37.848,54.295,49.317,52.76,49.317,52.76z"/>
			<g id="waist">
				<polyline fill="none" stroke="#A2A1A3" stroke-width="0.5669" stroke-linejoin="round" points="58.077,59.993 56.961,60.717 
					44.102,57.43 33.97,57.372 23.837,57.43 10.979,60.717 9.864,59.993 				"/>
				<polyline fill="none" stroke="#605F61" stroke-width="0.4252" stroke-linejoin="round" points="58.077,59.568 56.961,60.292 
					44.102,57.005 33.97,56.947 23.837,57.005 10.979,60.292 9.864,59.568 				"/>
				<polygon fill="none" stroke="#605F61" stroke-width="0.4252" stroke-linejoin="round" points="9.561,61.955 5.838,61.085 
					6.6,56.211 10.41,56.52 				"/>
				<polygon fill="none" stroke="#605F61" stroke-width="0.4252" stroke-linejoin="round" points="58.379,61.955 62.102,61.085 
					61.34,56.211 57.53,56.52 				"/>
			</g>
			<g id="chest_shading">
				<path id="collar_1_" fill="#A2A1A3" d="M45.712,21.597c-0.027-0.027-0.071-0.028-0.099-0.001
					c-0.676,0.65-1.489,1.23-2.558,1.825c-0.893,0.49-1.864,0.904-2.886,1.232c-1.019,0.321-2.046,0.551-3.055,0.683
					c-0.787,0.105-1.827,0.225-2.884,0.225c-0.087,0-0.173-0.001-0.263-0.002c-1.143,0.017-2.292-0.109-3.144-0.223
					c-1.008-0.132-2.036-0.361-3.055-0.683c-1.021-0.328-1.993-0.742-2.886-1.232c-1.069-0.595-1.882-1.175-2.558-1.825
					c-0.028-0.026-0.072-0.025-0.099,0.001c-0.027,0.027-0.028,0.071-0.001,0.099c0.649,0.682,1.472,1.327,2.516,1.97
					c0.89,0.541,1.862,1.008,2.89,1.389c1.029,0.376,2.074,0.659,3.104,0.841c1.035,0.187,2.166,0.305,3.188,0.332
					c0.007,0.002,0.014,0.003,0.022,0.003c0.002,0,0.028-0.001,0.03-0.001c0.002,0,0.016,0.001,0.018,0.001
					c0.007,0,0.015-0.001,0.021-0.003c1.022-0.027,2.153-0.146,3.189-0.332c1.03-0.182,2.075-0.465,3.104-0.841
					c1.026-0.38,1.999-0.848,2.892-1.389c1.043-0.644,1.866-1.288,2.515-1.97C45.741,21.668,45.74,21.624,45.712,21.597z"/>
				<path fill="#A2A1A3" d="M57.862,49.29c0,0-3.074,1.265-4.635,1.726c-0.779,0.23-1.564,0.449-2.334,0.606
					c-0.361,0.076-0.82,0.14-1.018,0.123c-0.334-0.048-0.666-0.175-1.043-0.315c-1.475-0.584-3.123-1.503-4.514-1.951
					c-1.566-0.505-3.64-0.755-4.079-1.294c-0.389-0.476,1.406-6.347,1.406-6.347s1.451-5.006,1.918-5.275
					c0.451-0.261,3.976,0.826,5.3,1.303c1.043,0.375,3.043,1.618,4.15,1.568c0.678-0.031,1.877-0.39,2.803-2.215
					c0.414-0.814-0.758,0.425-0.758,0.425l-1.947,1.018l-3.715-1.679l-5.013-1.902c0,0-0.45-0.429-0.272-1.028l0.523-1.559
					l1.102-3.102c0.76-2.06,1.561-4.105,2.402-6.136c-0.271,0.514-2.035,4.349-2.035,4.349l-2.816,7.182
					c0,0.001-3.748,12.864-4.592,13.372c-0.951,0.571-4.27,0.541-4.702,0.535v-0.001c0,0-0.015,0-0.024,0c-0.009,0-0.024,0-0.024,0
					v0.001c-0.432,0.006-3.752,0.036-4.702-0.535c-0.844-0.508-4.593-13.372-4.593-13.372l-2.816-7.182c0,0-1.763-3.835-2.035-4.349
					c0.842,2.031,1.644,4.077,2.402,6.136l1.102,3.102l0.524,1.559c0.178,0.6-0.272,1.028-0.272,1.028l-5.014,1.902l-3.714,1.679
					l-1.947-1.018c0,0-1.172-1.522-0.759-0.708c0.925,1.825,2.125,2.467,2.803,2.498c1.108,0.05,3.106-1.192,4.15-1.568
					c1.325-0.477,4.848-1.563,5.3-1.303c0.467,0.269,1.917,5.275,1.917,5.275s1.794,5.871,1.407,6.347
					c-0.439,0.539-2.512,0.789-4.079,1.294c-1.392,0.448-3.04,1.367-4.514,1.951c-0.378,0.141-0.709,0.268-1.043,0.315
					c-0.197,0.017-0.656-0.047-1.017-0.123c-0.771-0.157-1.556-0.376-2.334-0.606c-1.561-0.461-4.636-1.726-4.636-1.726
					l-0.275,0.842l8.359,2.386l9.112-3.105h13.392l9.112,3.105l8.359-2.386L57.862,49.29z"/>
			</g>
			<g id="color">
				<defs>
					<path id="SVGID_1_" d="M27.252,43.818c-5.063-4.563-14.25-1.375-15.85-8.278C9.15,31.624,14.44,19.443,14.44,19.443
						l27.083-0.063C41.523,19.38,30.44,34.443,27.252,43.818z"/>
				</defs>
				<clipPath id="SVGID_2_">
					<use xlink:href="#SVGID_1_"  overflow="visible"/>
				</clipPath>
				<g clip-path="url(#SVGID_2_)">
					<rect x="6.158" y="14.614" fill="#F58233" width="55.5" height="55.5"/>
					<g id="chest_shading_2_">
						<path id="collar_3_" fill="#D14E23" d="M45.712,21.597c-0.027-0.027-0.071-0.028-0.099-0.001
							c-0.676,0.65-1.489,1.23-2.558,1.825c-0.893,0.49-1.864,0.904-2.886,1.232c-1.019,0.321-2.046,0.551-3.055,0.683
							c-0.787,0.105-1.827,0.225-2.884,0.225c-0.087,0-0.173-0.001-0.263-0.002c-1.143,0.017-2.292-0.109-3.144-0.223
							c-1.008-0.132-2.036-0.361-3.055-0.683c-1.021-0.328-1.993-0.742-2.886-1.232c-1.069-0.595-1.882-1.175-2.558-1.825
							c-0.028-0.026-0.072-0.025-0.099,0.001c-0.027,0.027-0.028,0.071-0.001,0.099c0.649,0.682,1.472,1.327,2.516,1.97
							c0.89,0.541,1.862,1.008,2.89,1.389c1.029,0.376,2.074,0.659,3.104,0.841c1.035,0.187,2.166,0.305,3.188,0.332
							c0.007,0.002,0.014,0.003,0.022,0.003c0.002,0,0.028-0.001,0.03-0.001c0.002,0,0.016,0.001,0.018,0.001
							c0.007,0,0.015-0.001,0.021-0.003c1.022-0.027,2.153-0.146,3.189-0.332c1.03-0.182,2.075-0.465,3.104-0.841
							c1.026-0.38,1.999-0.848,2.892-1.389c1.043-0.644,1.866-1.288,2.515-1.97C45.741,21.668,45.74,21.624,45.712,21.597z"/>
						<path fill="#D14E23" d="M57.862,49.29c0,0-3.074,1.265-4.635,1.726c-0.779,0.23-1.564,0.449-2.334,0.606
							c-0.361,0.076-0.82,0.14-1.018,0.123c-0.334-0.048-0.666-0.175-1.043-0.315c-1.475-0.584-3.123-1.503-4.514-1.951
							c-1.566-0.505-3.64-0.755-4.079-1.294c-0.389-0.476,1.406-6.347,1.406-6.347s1.451-5.006,1.918-5.275
							c0.451-0.261,3.976,0.826,5.3,1.303c1.043,0.375,3.043,1.618,4.15,1.568c0.678-0.031,1.877-0.39,2.803-2.215
							c0.414-0.814-0.758,0.425-0.758,0.425l-1.947,1.018l-3.715-1.679l-5.013-1.902c0,0-0.45-0.429-0.272-1.028l0.523-1.559
							l1.102-3.102c0.76-2.06,1.561-4.105,2.402-6.136c-0.271,0.514-2.035,4.349-2.035,4.349l-2.816,7.182
							c0,0.001-3.748,12.864-4.592,13.372c-0.951,0.571-4.27,0.541-4.702,0.535v-0.001c0,0-0.015,0-0.024,0
							c-0.009,0-0.024,0-0.024,0v0.001c-0.432,0.006-3.752,0.036-4.702-0.535c-0.844-0.508-4.593-13.372-4.593-13.372l-2.816-7.182
							c0,0-1.763-3.835-2.035-4.349c0.842,2.031,1.644,4.077,2.402,6.136l1.102,3.102l0.524,1.559
							c0.178,0.6-0.272,1.028-0.272,1.028l-5.014,1.902l-3.714,1.679l-1.947-1.018c0,0-1.172-1.522-0.759-0.708
							c0.925,1.825,2.125,2.467,2.803,2.498c1.108,0.05,3.106-1.192,4.15-1.568c1.325-0.477,4.848-1.563,5.3-1.303
							c0.467,0.269,1.917,5.275,1.917,5.275s1.794,5.871,1.407,6.347c-0.439,0.539-2.512,0.789-4.079,1.294
							c-1.392,0.448-3.04,1.367-4.514,1.951c-0.378,0.141-0.709,0.268-1.043,0.315c-0.197,0.017-0.656-0.047-1.017-0.123
							c-0.771-0.157-1.556-0.376-2.334-0.606c-1.561-0.461-4.636-1.726-4.636-1.726l-0.275,0.842l8.359,2.386l9.112-3.105h13.392
							l9.112,3.105l8.359-2.386L57.862,49.29z"/>
					</g>
				</g>
			</g>
			<path id="chest_outline_1_" d="M49.833,52.831c-0.732-0.047-2.17-0.573-3.834-1.183l-0.868-0.321
				c-1.956-0.729-3.979-1.483-5.862-1.608c-0.263-0.004-0.53-0.006-0.797-0.006c-0.918,0-1.838,0.021-2.67,0.038
				c-0.688,0.015-1.315,0.028-1.832,0.028s-1.145-0.014-1.832-0.028c-0.832-0.018-1.751-0.038-2.67-0.038
				c-0.267,0-0.534,0.002-0.798,0.006c-1.883,0.125-3.907,0.879-5.864,1.609l-0.865,0.32c-1.664,0.609-3.101,1.136-3.834,1.183
				L18,52.833c-1.788,0-7.986-2.431-8.249-2.534l0.191-0.564c0.687,0.239,6.432,2.477,8.021,2.477l0.103-0.004
				c0.643-0.041,2.106-0.576,3.655-1.144c2.127-0.778,4.769-1.745,6.618-1.92c-0.353-1.876-0.817-3.939-1.487-6.46
				c-0.579-2.157-1.256-4.392-2.013-6.641l-0.288-0.816c-3.988,0.924-5.693,1.869-7.341,2.782c-0.269,0.149-0.536,0.297-0.812,0.444
				c-0.399,0.213-1.013,0.468-1.665,0.468c-0.094,0-0.189-0.005-0.284-0.017c-1.024-0.122-1.924-1.438-1.962-1.495l0.477-0.357
				c0.253,0.324,0.944,1.16,1.559,1.232c0.068,0.008,0.137,0.012,0.205,0.012c0.556,0,1.102-0.246,1.377-0.393
				c0.239-0.127,0.802-0.439,0.802-0.439c1.679-0.93,3.415-1.892,7.474-2.813c-1.396-3.89-2.973-7.771-4.706-11.498l0.13-0.092
				c2.083,4.237,3.893,8.556,5.417,12.851c0.796,2.248,1.511,4.48,2.126,6.635c0.73,2.583,1.218,4.606,1.583,6.556
				c0.002-0.002,0.059-0.004,0.16-0.004c0.732,0,3.773,0.062,4.879,0.062c1.267,0,5.065-0.08,5.065-0.08
				c0.336-1.919,0.824-3.941,1.556-6.534c0.613-2.149,1.329-4.382,2.127-6.635c1.521-4.293,3.331-8.612,5.379-12.837l0.152,0.042
				c-1.719,3.764-3.295,7.645-4.671,11.572c4.041,0.884,5.775,1.846,7.453,2.776c0,0,0.568,0.315,0.803,0.439
				c0.275,0.147,0.821,0.393,1.377,0.393c0.068,0,0.137-0.003,0.205-0.012c0.612-0.072,1.304-0.908,1.519-1.225l0.509,0.311
				c-0.088,0.18-0.96,1.416-1.955,1.534c-0.095,0.011-0.189,0.017-0.283,0.017c-0.65,0-1.265-0.254-1.665-0.468
				c-0.275-0.146-0.542-0.294-0.811-0.444c-1.649-0.913-3.354-1.857-7.375-2.763l-0.095,0.341l-0.159,0.456
				c-0.757,2.247-1.434,4.481-2.014,6.641c-0.672,2.53-1.137,4.594-1.462,6.493c1.824,0.142,4.466,1.108,6.588,1.886
				c1.559,0.57,3.019,1.104,3.659,1.145l0.104,0.004c1.59,0,7.335-2.237,7.984-2.492l0.244,0.543
				c-0.279,0.141-6.489,2.571-8.266,2.571L49.833,52.831z"/>
			<g id="under_armor">
				<path id="left_shoulder" d="M6.159,37.068c0,0,6.781,1.188,7.375-0.709c2.094-8.884,4.34-9.572,4.396-16.938
					c-2.357-2.742-11.771-2.978-11.771-2.978V37.068z"/>
				<ellipse id="collar" cx="33.97" cy="19.318" rx="11.78" ry="5.313"/>
				<path id="right_shoulder" d="M50.011,19.421c0.056,7.366,2.302,8.053,4.396,16.938c0.594,1.897,7.375,0.709,7.375,0.709V16.443
					C61.782,16.443,52.368,16.679,50.011,19.421z"/>
			</g>
			<g id="rank">
				<circle fill="#F58233" cx="46.14" cy="33.693" r="0.667"/>
				<circle fill="#F58233" cx="48.298" cy="34.579" r="0.667"/>
				<circle fill="#F58233" cx="50.456" cy="35.465" r="0.667"/>
				<circle fill="#F58233" cx="52.614" cy="36.351" r="0.667"/>
			</g>
		</g>
		<g id="battle_scars" clip-path="url(#clipping_mask_3_)">
			<path fill="#E3E2DB" d="M35.413,27.219c-2.772,0.476-4.559-0.112-5.111-0.285c-0.555-0.159-1.068-0.436-1.614-0.611
				c-1.077-0.401-2.12-0.894-3.132-1.442c-1.026-0.524-2.029-1.104-2.982-1.76c-0.013-0.008-0.031-0.007-0.041,0.005
				c-0.011,0.014-0.01,0.033,0.003,0.043c0.877,0.771,1.875,1.378,2.869,1.982c0.37,0.2,0.914,0.735,0.914,0.735
				s0.142,0.403,0.144,0.523c0.007,0.241,0.031,0.475,0.069,0.705c0.065-0.223,0.144-0.44,0.235-0.646
				c0.047-0.102,0.096-0.201,0.151-0.292c0.059-0.098,0.1-0.143,0.174-0.235c0.499,0.213,1,0.421,1.492,0.652
				c0.471,0.244,0.966,0.433,1.473,0.59c-0.043,0.464,0.101,1.058,0.101,1.058l0.295-0.944l0.23,0.058l0.075,0.559l0.279-0.469
				c0.3,0.065,0.602,0.121,0.905,0.167c0.489,0.051,0.982,0.061,1.474,0.044l0.007,0.962c0,0,0.549-0.842,0.552-0.843l0.047,0.517
				l0.398-0.701l0.871-0.223l0.126-0.152L35.413,27.219z"/>
			<path fill="#E3E2DB" d="M26.752,37.302l-0.457-1.364l-0.31-0.723c0,0,0.287-1.584,0.283-1.597l-0.381-1.665l0.061,1.661
				l-0.42,1.44l1.402,3.734l0.346-0.673l-0.185-2.849L26.752,37.302z"/>
			<path fill="#E3E2DB" d="M17.122,28.704l-0.016-0.95l-0.519,0.906c-0.273,1.029-0.568,2.052-0.801,3.091
				c0.321-0.769,0.679-1.525,1.034-2.281l0.328,0.893L17.122,28.704z"/>
			<g>
				<polygon fill="#EFF0ED" points="21.563,37.899 20.658,38.395 20.751,38.282 20.698,38.766 20.652,39.183 20.374,38.822 
					20.208,38.606 20.505,38.686 19.464,39.237 19.427,39.257 19.408,39.257 18.166,39.281 19.367,38.963 19.311,38.983 
					20.284,38.319 20.497,38.173 20.582,38.397 20.678,38.652 20.354,38.708 20.463,38.233 20.485,38.137 20.556,38.121 				"/>
			</g>
		</g>
		<g id="dirt" clip-path="url(#clipping_mask_3_)">
			<path fill="#692E14" d="M47.753,42.733c0.001,0.092-0.327,0.479-0.625,0.488c-0.292-0.025-0.595-0.272-0.546-0.462
				c-0.061-0.501,0.262-0.653,0.529-0.563C47.364,42.223,47.679,42.367,47.753,42.733z"/>
			<path fill="#692E14" d="M47.962,44.482c-0.027,0.257-0.309,0.608-0.54,0.553c-0.288-0.036-0.453-0.205-0.519-0.432
				c0.019-0.391,0.213-0.424,0.507-0.431C47.691,44.279,47.968,44.292,47.962,44.482z"/>
			<path fill="#692E14" d="M48.859,41.46c-0.04,0.196-0.303,0.433-0.552,0.436c-0.26,0.128-0.443-0.261-0.39-0.598
				c-0.011-0.077,0.102-0.539,0.41-0.396C48.603,40.726,48.844,41.098,48.859,41.46z"/>
			<path fill="#692E14" d="M47.204,39.353c-0.018,0.204-0.151,0.284-0.34,0.213c-0.136,0.087-0.278-0.025-0.244-0.246
				c0-0.156,0.125-0.234,0.256-0.269C47.049,39.152,47.171,39.234,47.204,39.353z"/>
			<path fill="#692E14" d="M47.046,40.93c0.014,0.048-0.096,0.277-0.255,0.295c-0.198,0.066-0.32-0.187-0.296-0.328
				c-0.053-0.168,0.072-0.375,0.266-0.389C46.965,40.544,47.073,40.654,47.046,40.93z"/>
			<path fill="#692E14" d="M50.522,47.815c0.104-0.086-0.207-0.463-0.42-0.573c-0.22,0.063-0.577,0.361-0.562,0.628
				c-0.082,0.161,0.295,0.526,0.586,0.427C50.324,48.366,50.581,48.083,50.522,47.815z"/>
			<path fill="#692E14" d="M51.7,46.724c0.007-0.125-0.169-0.359-0.295-0.319c-0.18-0.105-0.36,0.156-0.382,0.348
				c0.016,0.116,0.201,0.209,0.342,0.156C51.566,46.955,51.718,46.868,51.7,46.724z"/>
			<path fill="#692E14" d="M50.92,46.512c0.011-0.174-0.119-0.368-0.254-0.382c-0.151,0-0.249,0.188-0.251,0.307
				c0.012,0.154,0.079,0.337,0.246,0.267C50.783,46.772,50.946,46.625,50.92,46.512z"/>
			<path fill="#692E14" d="M52.26,45.241c0.017-0.251-0.166-0.3-0.286-0.315c-0.138-0.053-0.283,0.1-0.253,0.187
				c0.005,0.207,0.085,0.388,0.221,0.362C52.092,45.566,52.259,45.313,52.26,45.241z"/>
			<path fill="#692E14" d="M51.189,44.151c0.008-0.074,0.05-0.209,0.117-0.236c0.104,0.028,0.148,0.127,0.163,0.218
				c-0.024,0.102-0.058,0.119-0.148,0.134C51.255,44.231,51.179,44.213,51.189,44.151z"/>
			<path fill="#692E14" d="M49.859,44.888c0.004-0.195,0.162-0.268,0.284-0.31c0.132,0.046,0.193,0.153,0.208,0.321
				c0,0.054-0.081,0.135-0.208,0.105C50.035,45.043,49.885,44.981,49.859,44.888z"/>
			<path fill="#692E14" d="M14.562,48.77c0.086,0.162-0.133,0.206-0.395,0.141c-0.136,0.053-0.436-0.011-0.473-0.227
				c-0.013-0.122,0.298-0.396,0.553-0.329C14.412,48.275,14.609,48.486,14.562,48.77z"/>
			<path fill="#692E14" d="M15.754,47.385c-0.042,0.04-0.255,0.247-0.396,0.26c-0.205-0.085-0.316-0.133-0.298-0.262
				c-0.021-0.259,0.071-0.433,0.279-0.409C15.54,46.917,15.717,47.167,15.754,47.385z"/>
			<path fill="#692E14" d="M15.925,46.518c0.017,0.193-0.046,0.302-0.172,0.26c-0.155-0.008-0.257-0.104-0.284-0.212
				c0.026-0.125,0.156-0.226,0.293-0.208C15.861,46.386,15.947,46.42,15.925,46.518z"/>
			<path fill="#692E14" d="M14.733,47.01c0.041,0.195-0.059,0.319-0.26,0.316c-0.11,0.065-0.217-0.106-0.19-0.27
				c-0.022-0.144,0.047-0.394,0.251-0.468C14.7,46.75,14.768,46.875,14.733,47.01z"/>
			<path fill="#692E14" d="M14.711,46.354c-0.052-0.19-0.019-0.329,0.083-0.432c0.064-0.043,0.155-0.066,0.209-0.113
				c0.053-0.049,0.079-0.117,0.113-0.196c0.063-0.173,0.247-0.277,0.392-0.306c0.155-0.012,0.298,0.021,0.449,0.139l0.005,0.043
				c-0.118,0.15-0.245,0.215-0.355,0.262c-0.12,0.026-0.198,0.021-0.336,0.036c-0.067,0.01-0.129,0.046-0.158,0.105
				c-0.027,0.063-0.012,0.151-0.021,0.222c-0.045,0.127-0.151,0.221-0.345,0.262L14.711,46.354z"/>
			<path fill="#692E14" d="M48.411,43.012c0.24,0.181,0.344,0.379,0.359,0.602c-0.01,0.116-0.059,0.246-0.044,0.359
				c0.013,0.112,0.085,0.207,0.169,0.294c0.345,0.34,0.538,0.779,0.341,1.318l-0.055,0.018c-0.47-0.322-0.601-0.725-0.577-1.229
				c0.007-0.125,0.002-0.243-0.053-0.346c-0.055-0.102-0.166-0.188-0.236-0.29c-0.104-0.212-0.102-0.454,0.041-0.714L48.411,43.012z
				"/>
			<path fill="#692E14" d="M46.575,59.617c-0.033-0.357-0.229-0.644-0.411-0.585c-0.177,0.053-0.442,0.153-0.432,0.42
				c0.026,0.447,0.2,0.859,0.431,0.811C46.303,60.423,46.593,59.875,46.575,59.617z"/>
			<path fill="#692E14" d="M47.142,55.517c0.021,0.272-0.147,0.302-0.279,0.256c-0.184-0.031-0.332-0.04-0.319-0.216
				c-0.001-0.279,0.176-0.377,0.301-0.457C47.014,55.213,47.13,55.319,47.142,55.517z"/>
			<path fill="#692E14" d="M42.2,52.925c0,0.144-0.126,0.361-0.28,0.337c-0.144,0.084-0.178-0.133-0.171-0.225
				c-0.023-0.136,0.04-0.305,0.183-0.353C42.077,52.783,42.178,52.844,42.2,52.925z"/>
			<path fill="#692E14" d="M48.706,56.975c-0.086,0.349-0.406,0.45-0.768,0.463c-0.247-0.045-0.525-0.104-0.485-0.284
				c-0.04-0.475,0.294-0.528,0.543-0.43C48.35,56.564,48.65,56.782,48.706,56.975z"/>
			<path fill="#692E14" d="M47.023,60.986c0.035,0.236-0.042,0.43-0.254,0.408c-0.135,0.002-0.37-0.2-0.34-0.436
				c-0.031-0.135,0.181-0.274,0.397-0.222C46.942,60.727,47.063,60.823,47.023,60.986z"/>
			<path fill="#692E14" d="M40.056,54.99c-0.107-0.062-0.196-0.089-0.36-0.32c-0.138-0.215-0.209-0.287-0.114-0.357
				c0.119-0.146,0.234-0.01,0.4,0.213C40.158,54.706,40.171,54.84,40.056,54.99z"/>
			<path fill="#692E14" d="M39.083,52.948c0.046,0.185-0.121,0.251-0.354,0.328c-0.096-0.112-0.317-0.191-0.339-0.361
				c0.026-0.203,0.2-0.34,0.42-0.271C39.009,52.582,39.128,52.713,39.083,52.948z"/>
			<path fill="#692E14" d="M43.265,53.957c-0.093,0.202-0.36,0.289-0.569,0.373c-0.324-0.09-0.569-0.162-0.551-0.414
				c-0.057-0.171,0.285-0.382,0.588-0.314C42.978,53.516,43.196,53.693,43.265,53.957z"/>
			<path fill="#692E14" d="M47.822,62.226c0.021,0.164-0.193,0.316-0.336,0.25c-0.179,0.126-0.291-0.084-0.278-0.225
				c0.006-0.219,0.128-0.255,0.26-0.212C47.64,62.03,47.813,62.098,47.822,62.226z"/>
			<path fill="#692E14" d="M40.835,53.355c0.013,0.293-0.318,0.467-0.646,0.442c-0.275,0.015-0.465-0.25-0.529-0.473
				c0.07-0.197,0.304-0.299,0.557-0.25C40.493,52.987,40.776,53.083,40.835,53.355z"/>
			<path fill="#692E14" d="M44.788,53.303c-0.058,0.438-0.217,0.536-0.451,0.414c-0.387,0.165-0.682-0.059-0.629-0.272
				c-0.116-0.33,0.311-0.607,0.654-0.707C44.54,52.751,44.716,53.161,44.788,53.303z"/>
			<path fill="#692E14" d="M45.642,54.708c-0.023,0.248-0.175,0.439-0.42,0.503c-0.358,0.05-0.396-0.329-0.444-0.502
				c0.056-0.334,0.137-0.442,0.445-0.408C45.47,54.258,45.606,54.421,45.642,54.708z"/>
			<path fill="#692E14" d="M43.744,54.776c0.206,0.131,0.374,0.096,0.541,0.266c0.072,0.087,0.135,0.211,0.228,0.279
				c0.092,0.068,0.21,0.085,0.334,0.09c0.252,0.003,0.481,0.07,0.697,0.208c0.104,0.078,0.191,0.188,0.264,0.323
				c0.068,0.129,0.093,0.348-0.026,0.46l-0.057-0.01c-0.168-0.189-0.329-0.154-0.511-0.267c-0.165-0.109-0.346-0.24-0.502-0.435
				c-0.08-0.094-0.168-0.175-0.28-0.205c-0.111-0.031-0.251-0.01-0.377-0.033c-0.122-0.03-0.224-0.112-0.31-0.225
				c-0.08-0.094-0.169-0.317-0.058-0.448L43.744,54.776z"/>
			<path fill="#692E14" d="M48.197,62.009c-0.263-0.165-0.439-0.424-0.502-0.711c-0.019-0.305,0.044-0.6-0.185-0.844
				c-0.074-0.126-0.024-0.254-0.024-0.39c0.011-0.146-0.122-0.235-0.271-0.239c-0.246-0.066-0.429-0.257-0.64-0.497l0.016-0.039
				c0.305-0.033,0.643-0.002,0.833,0.282c0.068,0.17,0.116,0.303,0.242,0.411c0.115,0.118,0.216,0.268,0.188,0.416
				c-0.145,0.307,0.012,0.564,0.177,0.786c0.113,0.243,0.187,0.486,0.204,0.803L48.197,62.009z"/>
		</g>
	</g>
</g>
<g id="helmet">
	<polygon id="coloring" fill="#F58233" points="89.204,3.311 89.204,32.028 92.038,46.782 93.455,55.627 99.73,55.627 
		101.147,46.782 103.981,32.028 103.981,3.311 	"/>
	<g id="lines">
		<line fill="none" stroke="#A2A1A3" stroke-width="0.4252" x1="84.856" y1="29.322" x2="84.856" y2="3.311"/>
		<line fill="none" stroke="#A2A1A3" stroke-width="0.4252" x1="108.33" y1="29.322" x2="108.33" y2="3.311"/>
	</g>
	<path fill="#246EB7" d="M98.974,44.223c0.084-0.162,0.147-0.339,0.181-0.523l1.599-10.036l22.654-0.261
		c0.779,0,1.417-0.638,1.417-1.418c0,0,0.597-1.867,0.283-2.376c-0.208-0.337-0.779-0.283-1.559-0.283c0,0-22.449,0-23.229,0
		c0,0-3.633,0-3.666,0c-0.034,0-27.02,0-27.02,0c-0.779,0-1.352-0.054-1.559,0.283c-0.313,0.51,0.283,2.376,0.283,2.376
		c0,0.78,0.638,1.418,1.417,1.418l22.654,0.261L94.03,43.7c0.033,0.186,0.097,0.361,0.181,0.523"/>
	<path d="M94.21,44.223l-10.745,7.783c-0.145,0.105-0.203,0.299-0.13,0.471c0.085,0.197,0.314,0.289,0.513,0.205l12.744-5.458
		l12.745,5.458c0.164,0.07,0.36,0.02,0.47-0.131c0.127-0.174,0.088-0.418-0.087-0.545l-10.746-7.783c0,0-1.636-0.142-2.382-0.142
		S94.21,44.223,94.21,44.223z"/>
	<g id="speaker">
		<circle cx="86.28" cy="53.696" r="0.875"/>
		<circle cx="106.905" cy="53.697" r="0.875"/>
		<polygon points="98.469,55.008 94.715,55.008 94.999,52.383 98.186,52.383 		"/>
	</g>
</g>
<g id="legs">
	<g id="base">
		<rect x="36.771" y="66.391" fill="#EFF0ED" stroke="#A2A1A3" stroke-width="0.3118" width="22.697" height="42.435"/>
		<rect x="8.489" y="66.391" fill="#EFF0ED" stroke="#A2A1A3" stroke-width="0.3118" width="22.697" height="42.435"/>
	</g>
	<g id="right_leg_details">
		<defs>
			<path id="clipping_mask" inkscape:connector-curvature="0" d="M59.355,108.719H36.884V66.498h22.471V108.719z"/>
		</defs>
		<clipPath id="clipping_mask_4_">
			<use xlink:href="#clipping_mask"  overflow="visible"/>
		</clipPath>
		<g id="details" clip-path="url(#clipping_mask_4_)">
			<g>
				<path fill="#A2A1A3" d="M36.771,90.103c1.161-1.291,2.424-2.476,3.561-3.758c0.282-0.313,0.581-0.638,0.77-0.976
					c0.175-0.342,0.245-0.773,0.328-1.186c0.14-0.84,0.2-1.703,0.27-2.568c0.107,0.863,0.13,1.734,0.055,2.611
					c-0.038,0.44-0.109,0.876-0.308,1.318c-0.224,0.425-0.514,0.747-0.798,1.083C39.451,87.902,38.17,89.07,36.771,90.103z"/>
			</g>
			<g id="shading">
				<g>
					<path fill="#A2A1A3" d="M54.851,66.995c0.118,0.941,0.189,1.883,0.282,2.825l-0.008,2.824c-0.03,1.881,0.052,3.768-0.094,5.662
						c-0.109,1.883-0.216,3.762-0.402,5.648c-0.066,0.952-0.342,1.918-0.63,2.806c-0.383,0.873-0.771,1.735-1.216,2.574
						c0.229-0.92,0.479-1.829,0.676-2.748c0.289-0.901,0.539-1.76,0.606-2.691c0.184-1.861,0.291-3.744,0.4-5.62
						c0.144-1.864,0.063-3.748,0.093-5.632l0.003-2.824C54.657,68.877,54.731,67.936,54.851,66.995z"/>
					<path fill="#A2A1A3" d="M41.388,66.995c0.12,0.941,0.194,1.883,0.289,2.824l0.003,2.824c0.03,1.884-0.051,3.768,0.093,5.632
						c0.109,1.876,0.217,3.759,0.4,5.62c0.067,0.932,0.317,1.79,0.606,2.691c0.197,0.919,0.446,1.828,0.676,2.748
						c-0.444-0.839-0.833-1.701-1.216-2.574c-0.288-0.888-0.563-1.854-0.63-2.806c-0.187-1.887-0.293-3.766-0.402-5.648
						c-0.146-1.895-0.063-3.781-0.094-5.662l-0.008-2.824C41.199,68.877,41.27,67.936,41.388,66.995z"/>
				</g>
			</g>
		</g>
		<g id="under_armor_1_" clip-path="url(#clipping_mask_4_)">
			<path d="M35.159,89.538c-1.185,0.907-1.35,5.373,0,5.401c5.306,0.112,6.544-1.417,6.544-1.417l-0.991-3.134
				C40.711,90.388,38.547,90.967,35.159,89.538z"/>
			<path d="M34.273,65.217l-0.151,23.248c0,0-0.467-0.74,2.256-3.962c2.862-3.386,3.544-9.119,5.173-14.982
				c0.617-2.221,6.514-2.399,8.805-2.399c7.418,0,9.946,2.864,9.946,2.864s0.188-4.607,0.188-4.769H34.273z"/>
			<path d="M61.032,89.538c1.185,0.907,1.35,5.373,0,5.401c-5.306,0.112-6.544-1.417-6.544-1.417l0.991-3.134
				C55.479,90.388,57.643,90.967,61.032,89.538z"/>
		</g>
		<g id="knee_pad" clip-path="url(#clipping_mask_4_)">
			<path fill="none" stroke="#000000" stroke-width="0.5669" d="M53.64,96.447c-0.195,1.295-1.63,2.354-3.189,2.354h-4.379
				c-1.56,0-3.059-1.06-3.331-2.354c-0.272-1.294-0.975-3.413-1.559-4.708s0.213-2.354,1.772-2.354h10.33
				c1.56,0,2.356,1.06,1.772,2.354S53.835,95.153,53.64,96.447z"/>
		</g>
	</g>
	<g id="Left_leg_details">
		<defs>
			<path id="clipping_mask_2_" inkscape:connector-curvature="0" d="M8.602,66.498h22.471v42.222H8.602V66.498z"/>
		</defs>
		<clipPath id="clipping_mask_5_">
			<use xlink:href="#clipping_mask_2_"  overflow="visible"/>
		</clipPath>
		<g id="details_1_" clip-path="url(#clipping_mask_5_)">
			<g id="shading_1_">
				<g>
					<path fill="#A2A1A3" d="M15.173,89.334c-0.448-0.837-0.836-1.7-1.217-2.573c-0.285-0.893-0.562-1.849-0.629-2.807
						c-0.186-1.887-0.292-3.766-0.402-5.648c-0.146-1.889-0.063-3.784-0.094-5.662l-0.005-2.824c0.094-0.942,0.166-1.884,0.28-2.825
						c0.116,0.941,0.19,1.883,0.287,2.824l0.005,2.824c0.03,1.887-0.052,3.763,0.093,5.632c0.109,1.876,0.217,3.759,0.4,5.62
						c0.067,0.927,0.315,1.794,0.608,2.69C14.698,87.503,14.948,88.414,15.173,89.334z"/>
					<path fill="#A2A1A3" d="M24.501,89.334c0.226-0.921,0.475-1.831,0.674-2.749c0.293-0.896,0.541-1.764,0.608-2.69
						c0.183-1.861,0.291-3.744,0.4-5.62c0.145-1.869,0.063-3.745,0.093-5.632l0.005-2.824c0.097-0.941,0.171-1.883,0.287-2.824
						c0.114,0.941,0.186,1.883,0.28,2.825l-0.005,2.824c-0.03,1.878,0.052,3.773-0.094,5.662c-0.109,1.883-0.216,3.762-0.402,5.648
						c-0.067,0.958-0.344,1.914-0.629,2.807C25.338,87.634,24.95,88.498,24.501,89.334z"/>
				</g>
			</g>
			<g>
				<path fill="#A2A1A3" d="M31.145,90.103c-1.399-1.033-2.68-2.201-3.877-3.475c-0.285-0.336-0.574-0.658-0.798-1.083
					c-0.198-0.442-0.269-0.878-0.307-1.318c-0.075-0.877-0.053-1.748,0.055-2.611c0.069,0.865,0.129,1.729,0.27,2.568
					c0.083,0.412,0.153,0.844,0.328,1.186c0.189,0.338,0.487,0.662,0.77,0.976C28.721,87.627,29.984,88.812,31.145,90.103z"/>
			</g>
		</g>
		<g id="under_armor_2_" clip-path="url(#clipping_mask_5_)">
			<path d="M32.798,89.538c1.185,0.907,1.35,5.373,0,5.401c-5.306,0.112-6.544-1.417-6.544-1.417l0.991-3.134
				C27.246,90.388,29.41,90.967,32.798,89.538z"/>
			<path d="M33.683,65.217l0.151,23.248c0,0,0.468-0.74-2.256-3.962c-2.862-3.386-3.544-9.119-5.173-14.982
				c-0.617-2.221-6.514-2.399-8.805-2.399c-7.418,0-9.946,2.864-9.946,2.864s-0.188-4.607-0.188-4.769H33.683z"/>
			<path d="M6.921,89.538c-1.185,0.907-1.35,5.373,0,5.401c5.306,0.112,6.544-1.417,6.544-1.417l-0.991-3.134
				C12.474,90.388,10.31,90.967,6.921,89.538z"/>
		</g>
		<g id="knee_pad_1_" clip-path="url(#clipping_mask_5_)">
			<path fill="none" stroke="#000000" stroke-width="0.5669" d="M14.317,96.447c0.195,1.295,1.63,2.354,3.189,2.354h4.38
				c1.559,0,3.058-1.06,3.331-2.354c0.273-1.294,0.974-3.413,1.559-4.708s-0.213-2.354-1.772-2.354H14.672
				c-1.559,0-2.356,1.06-1.772,2.354S14.122,95.153,14.317,96.447z"/>
		</g>
	</g>
	<g id="dirt_1_">
		<g>
			<path fill="#692E14" d="M15.458,71.85c-0.072,0.337-0.281,0.695-0.557,0.659c-0.352-0.034-0.529-0.275-0.6-0.664
				c-0.004-0.257,0.322-0.521,0.569-0.434C15.28,71.356,15.382,71.631,15.458,71.85z"/>
		</g>
		<g>
			<path fill="#692E14" d="M15.199,73.629c0.022,0.195-0.169,0.474-0.439,0.497c-0.256-0.015-0.521-0.282-0.483-0.488
				c-0.001-0.355,0.211-0.56,0.54-0.502C15.017,73.122,15.127,73.32,15.199,73.629z"/>
		</g>
		<g>
			<path fill="#692E14" d="M57.204,78.644c-0.063,0.293-0.282,0.399-0.663,0.429c-0.229,0.03-0.486-0.156-0.499-0.434
				c-0.002-0.231,0.27-0.516,0.494-0.493C56.917,78.204,57.113,78.375,57.204,78.644z"/>
		</g>
		<g>
			<path fill="#692E14" d="M29.179,97.124c0.063,0.169-0.098,0.298-0.266,0.284c-0.184-0.008-0.265-0.105-0.228-0.292
				c-0.036-0.133,0.064-0.208,0.227-0.225C29.036,96.875,29.166,96.978,29.179,97.124z"/>
		</g>
		<g>
			<path fill="#692E14" d="M47.939,92.64c-0.099-0.253-0.369-0.49-0.542-0.492c-0.332,0.017-0.502,0.256-0.42,0.495
				c-0.058,0.265,0.192,0.404,0.33,0.434C47.583,93.107,47.757,92.886,47.939,92.64z"/>
		</g>
		<g>
			<path fill="#692E14" d="M17.173,73.249c0.103-0.069,0.139-0.041,0.23,0.006c0.068,0.066,0.06,0.176,0.002,0.228
				c-0.056,0.063-0.201,0.042-0.284-0.018C17.109,73.386,17.135,73.312,17.173,73.249z"/>
		</g>
		<g>
			<path fill="#692E14" d="M15.845,72.751c0.064-0.069,0.258-0.1,0.325,0.028c0.076,0.067,0.085,0.237-0.08,0.346
				c-0.035,0.056-0.16,0.019-0.267-0.084C15.685,72.956,15.713,72.842,15.845,72.751z"/>
		</g>
		<g>
			<path fill="#692E14" d="M22.963,75.419c0.258,0.154,0.384,0.347,0.419,0.574c0,0.12-0.039,0.255-0.019,0.369
				c0.019,0.114,0.092,0.209,0.177,0.301c0.346,0.371,0.493,0.829,0.267,1.354l-0.055,0.014c-0.456-0.355-0.544-0.778-0.505-1.265
				c0.009-0.123,0.003-0.241-0.057-0.341c-0.059-0.1-0.176-0.179-0.253-0.273c-0.119-0.201-0.141-0.438-0.028-0.716L22.963,75.419z"
				/>
		</g>
		<g>
			<path fill="#692E14" d="M52.288,78.941c-0.074,0.278,0.052,0.646,0.324,0.612c0.169,0.03,0.377-0.344,0.358-0.596
				c-0.006-0.427-0.108-0.69-0.432-0.611C52.414,78.281,52.281,78.584,52.288,78.941z"/>
		</g>
		<g>
			<path fill="#692E14" d="M55.773,82.541c-0.139-0.327,0.26-0.498,0.451-0.516c0.378,0.009,0.568,0.188,0.471,0.453
				c0.012,0.314-0.08,0.587-0.467,0.557C56.064,82.992,55.687,82.792,55.773,82.541z"/>
		</g>
		<g>
			<path fill="#692E14" d="M51.495,77.426c0.097-0.155,0.177-0.373,0.405-0.354c0.167-0.002,0.354,0.185,0.361,0.377
				c-0.074,0.146-0.199,0.381-0.34,0.361C51.68,77.829,51.556,77.624,51.495,77.426z"/>
		</g>
		<g>
			<path fill="#692E14" d="M57.051,84.167c0.07-0.098,0.452,0.057,0.577,0.229c0.141,0.191,0.162,0.464,0.057,0.521
				c-0.025,0.109-0.297-0.102-0.388-0.257C57.129,84.441,56.991,84.259,57.051,84.167z"/>
		</g>
		<g>
			<path fill="#692E14" d="M52.756,81.235c0.043-0.188,0.125-0.386,0.374-0.354c0.192-0.021,0.28,0.158,0.329,0.361
				c-0.078,0.15-0.126,0.326-0.374,0.314C52.939,81.563,52.774,81.375,52.756,81.235z"/>
		</g>
		<g>
			<path fill="#692E14" d="M54.097,77.213c-0.169-0.234,0.179-0.401,0.385-0.454c0.347,0.069,0.612,0.208,0.521,0.432
				c0.145,0.271-0.259,0.454-0.455,0.477C54.253,77.666,54.097,77.431,54.097,77.213z"/>
		</g>
		<g>
			<path fill="#692E14" d="M50.831,76.185c0.083-0.127,0.147-0.274,0.388-0.288c0.082-0.021,0.202,0.171,0.175,0.308
				c-0.02,0.133-0.017,0.252-0.196,0.239C51.026,76.444,50.835,76.35,50.831,76.185z"/>
		</g>
		<g>
			<path fill="#692E14" d="M54.119,79.173c-0.045-0.263,0.47-0.382,0.582-0.384c0.468-0.016,0.615,0.103,0.581,0.382
				c0.086,0.229-0.271,0.327-0.451,0.36C54.539,79.51,54.292,79.372,54.119,79.173z"/>
		</g>
		<g>
			<path fill="#692E14" d="M55.728,81.579c-0.188-0.175-0.361-0.142-0.526-0.328c-0.071-0.093-0.134-0.223-0.229-0.297
				c-0.094-0.075-0.216-0.1-0.345-0.112c-0.263-0.019-0.501-0.1-0.725-0.267c-0.104-0.093-0.197-0.222-0.254-0.392
				c-0.061-0.174,0.02-0.409,0.171-0.461l0.049,0.027c0.029,0.154,0.103,0.189,0.169,0.22l0.234,0.126
				c0.157,0.122,0.343,0.266,0.501,0.473c0.081,0.099,0.171,0.186,0.287,0.224c0.115,0.039,0.262,0.025,0.392,0.06
				c0.126,0.041,0.229,0.133,0.314,0.259c0.082,0.103,0.146,0.357,0.018,0.471L55.728,81.579z"/>
		</g>
		<g>
			<path fill="#692E14" d="M46.248,91.407c-0.064,0.271-0.073,0.618-0.48,0.753c-0.3,0.042-0.395-0.108-0.63-0.374
				c0.062-0.283,0.032-0.585,0.266-0.605C45.738,91.089,45.997,91.167,46.248,91.407z"/>
		</g>
		<g>
			<path fill="#692E14" d="M46.372,93.552c0.171,0.161-0.066,0.33-0.285,0.414c-0.179,0.108-0.389,0.015-0.322-0.197
				c-0.202-0.18-0.02-0.467,0.19-0.52C46.039,93.18,46.372,93.326,46.372,93.552z"/>
		</g>
		<g>
			<path fill="#692E14" d="M48.492,91.923c0.016,0.236-0.037,0.378-0.262,0.471c-0.293,0.056-0.458,0.025-0.546-0.214
				c0.065-0.186,0.047-0.339,0.235-0.429C48.238,91.709,48.44,91.778,48.492,91.923z"/>
		</g>
		<g>
			<path fill="#692E14" d="M49.031,94.177c0.202,0.233-0.015,0.443-0.245,0.546c-0.33,0.053-0.913,0.022-0.822-0.242
				c-0.317-0.235,0.134-0.554,0.29-0.599C48.545,93.755,48.975,93.938,49.031,94.177z"/>
		</g>
		<g>
			<path fill="#692E14" d="M50.729,93.286c-0.008,0.263-0.114,0.447-0.384,0.554c-0.234,0.146-0.412,0.032-0.589-0.208
				c0.03-0.32-0.067-0.655,0.183-0.73C50.238,92.857,50.537,93.067,50.729,93.286z"/>
		</g>
		<g>
			<path fill="#692E14" d="M57.238,103.7c0.148,0.377-0.039,0.808-0.369,0.958c-0.253,0.048-0.677-0.148-0.787-0.604
				c-0.167-0.278,0.305-0.665,0.585-0.711C56.835,103.226,57.234,103.464,57.238,103.7z"/>
		</g>
		<g>
			<path fill="#692E14" d="M57.292,102.413c0.01,0.147-0.013,0.321-0.263,0.428c-0.38,0.035-0.591-0.1-0.714-0.304
				c-0.021-0.206,0.082-0.277,0.425-0.323C57.014,102.131,57.075,102.169,57.292,102.413z"/>
		</g>
		<g>
			<path fill="#692E14" d="M55.112,102.995c0.034,0.24-0.159,0.388-0.378,0.458c-0.054,0.119-0.363,0.002-0.333-0.242
				c-0.117-0.21,0.077-0.449,0.231-0.496C54.813,102.701,55.008,102.75,55.112,102.995z"/>
		</g>
		<g>
			<path fill="#692E14" d="M55.738,100.488c0.172,0.238,0.071,0.508-0.177,0.507c-0.266,0.082-0.382,0.024-0.491-0.285
				c-0.022-0.219,0.036-0.457,0.23-0.491C55.541,100.118,55.662,100.266,55.738,100.488z"/>
		</g>
		<g>
			<path fill="#692E14" d="M52.566,101.431c0,0.207,0.017,0.404-0.324,0.473c-0.142,0.025-0.413-0.061-0.358-0.221
				c-0.117-0.282,0.02-0.527,0.242-0.53C52.24,101.062,52.463,101.212,52.566,101.431z"/>
		</g>
		<g>
			<path fill="#692E14" d="M53.583,102.805c0.052,0.187-0.11,0.411-0.293,0.466c-0.243,0.055-0.377-0.136-0.375-0.283
				c-0.071-0.151-0.023-0.35,0.119-0.393C53.351,102.597,53.504,102.654,53.583,102.805z"/>
		</g>
		<g>
			<path fill="#692E14" d="M53.811,100.638c0.089,0.184,0.046,0.488-0.183,0.583c-0.24,0.043-0.524-0.148-0.573-0.391
				c0.048-0.224,0.13-0.492,0.294-0.645C53.496,100.13,53.765,100.354,53.811,100.638z"/>
		</g>
		<g>
			<path fill="#692E14" d="M55.114,101.969c0.012,0.107-0.033,0.227-0.274,0.256c-0.257,0.054-0.561-0.077-0.584-0.186
				c-0.142-0.115,0.137-0.257,0.227-0.287C54.795,101.696,54.984,101.858,55.114,101.969z"/>
		</g>
		<g>
			<path fill="#692E14" d="M22.197,93.866c0.097,0.217,0.005,0.439-0.202,0.516c-0.164,0.069-0.527-0.031-0.6-0.207
				c0.003-0.258,0.205-0.392,0.401-0.51C21.945,93.549,22.091,93.64,22.197,93.866z"/>
		</g>
		<g>
			<path fill="#692E14" d="M23.657,95.41c0.09,0.171,0.284,0.484-0.01,0.656c-0.269,0.25-0.66,0.111-0.847-0.044
				c-0.271-0.277-0.081-0.597,0.115-0.815C23.198,95.057,23.365,95.079,23.657,95.41z"/>
		</g>
		<g>
			<path fill="#692E14" d="M24.018,92.286c0.207,0.274-0.158,0.637-0.382,0.774c-0.275,0.079-0.803,0.089-0.793-0.211
				c-0.272-0.353-0.111-0.761,0.361-0.892C23.498,91.826,23.86,91.973,24.018,92.286z"/>
		</g>
		<g>
			<path fill="#692E14" d="M27.004,96.258c0.084,0.179,0.006,0.376-0.19,0.47c-0.169,0.036-0.396,0.055-0.542-0.207
				c-0.037-0.19,0.047-0.395,0.233-0.489C26.725,95.973,26.882,96.027,27.004,96.258z"/>
		</g>
		<g>
			<path fill="#692E14" d="M28.132,97.149c0.039,0.255-0.138,0.369-0.338,0.541c-0.219,0.099-0.522-0.011-0.589-0.217
				c-0.12-0.183-0.088-0.623,0.16-0.651C27.606,96.671,27.971,96.863,28.132,97.149z"/>
		</g>
		<g>
			<path fill="#692E14" d="M28.681,95.612c0.078,0.285-0.181,0.526-0.321,0.652c-0.252,0.085-0.473-0.001-0.546-0.273
				c-0.183-0.295-0.154-0.507,0.232-0.67C28.173,95.218,28.523,95.292,28.681,95.612z"/>
		</g>
		<g>
			<path fill="#692E14" d="M25.083,93.383c0.038,0.153-0.046,0.324-0.304,0.418c-0.18,0.101-0.532,0.087-0.582-0.095
				c-0.143-0.172,0.011-0.482,0.256-0.627C24.691,93.048,25.051,93.149,25.083,93.383z"/>
		</g>
		<g>
			<path fill="#692E14" d="M25.776,91.403c-0.043,0.403-0.04,0.752-0.567,0.776c-0.155,0.201-0.383,0.086-0.648-0.251
				c-0.023-0.335-0.114-0.803,0.201-0.93C25.013,90.924,25.445,91.092,25.776,91.403z"/>
		</g>
		<g>
			<path fill="#692E14" d="M23.738,73.375c0.072,0.2-0.071,0.371-0.27,0.439c-0.244,0.059-0.458,0.065-0.599-0.14
				c0.023-0.255,0.085-0.443,0.358-0.511C23.381,73.051,23.626,73.199,23.738,73.375z"/>
		</g>
		<g>
			<path fill="#692E14" d="M25.081,75.022c0.205,0.312,0.047,0.578-0.191,0.734c-0.397,0.016-0.606-0.081-0.79-0.349
				c-0.042-0.313,0.119-0.446,0.342-0.59C24.858,74.703,25.009,74.761,25.081,75.022z"/>
		</g>
		<g>
			<path fill="#692E14" d="M25.407,71.827c0.265,0.339,0.026,0.76-0.181,0.856c-0.362,0.155-0.695-0.095-0.941-0.356
				c-0.036-0.319-0.001-0.819,0.442-0.921C24.864,71.232,25.479,71.583,25.407,71.827z"/>
		</g>
	</g>
</g>
<g id="arms">
	<g id="right">
		<path id="arms_base" inkscape:connector-curvature="0" fill="#EFF0ED" stroke="#A2A1A3" stroke-width="0.3125" d="M85.729,108.019
			c1.463-1.132,3.679-3.146,6.063-6.383c0.618-0.84,1.247-1.76,1.877-2.767l-5.685-5.685c0,0-1.88-1.736-1.794-4.534
			c0,0,1.354-14.479-0.677-17.774c-2.927-4.75-7.1-3.993-7.1-3.993c-10.11,0.864-10.317,9.087-10.317,9.087s-0.07,9.775-0.026,14.57
			c0.046,4.795,3.344,7.492,3.344,7.492l12.537,11.191C83.951,109.224,84.627,108.871,85.729,108.019L85.729,108.019z"/>
		<g id="right_arm">
			<defs>
				<path id="SVGID_3_" d="M71.602,97.821c-0.041-0.033-3.205-2.686-3.249-7.283C68.31,85.8,68.379,76.07,68.379,75.972
					c0.009-0.32,0.33-7.975,10.059-8.807c0.038-0.006,0.261-0.043,0.63-0.043c1.143,0,4.033,0.38,6.204,3.902
					c1.959,3.178,0.649,17.456,0.636,17.6c-0.09,2.911,1.803,4.694,1.884,4.769l5.517,5.517c-0.56,0.885-1.146,1.744-1.745,2.559
					c-2.376,3.226-4.578,5.221-6.008,6.326c-0.752,0.582-1.306,0.929-1.567,1.083L71.602,97.821z"/>
			</defs>
			<clipPath id="SVGID_4_">
				<use xlink:href="#SVGID_3_"  overflow="visible"/>
			</clipPath>
			<polygon clip-path="url(#SVGID_4_)" fill="#F58233" points="87.774,89.818 64.107,91.235 64.107,76.568 87.774,76.568 			"/>
			<path clip-path="url(#SVGID_4_)" stroke="#605F61" stroke-width="0.3125" d="M87.691,92.068l-4.862,2.539l-0.671-0.897
				c0,0-4.646,3.197-6.365,4.976c-0.869,0.115-3.102-1.034-3.102-1.034l-3.642,2.309l-3.601-9.175c0,0,9.457,0.317,12.35-0.777
				c0.54-0.204,1.823-1.419,1.823-1.419l7.702,0.338L87.691,92.068z"/>
			<polygon clip-path="url(#SVGID_4_)" fill="#F58233" stroke="#D14E23" stroke-width="0.4252" stroke-miterlimit="10" points="
				87.441,107.734 81.107,101.401 92.024,102.818 			"/>
			<g id="shadow_1_" clip-path="url(#SVGID_4_)">
				<path fill="#D14E23" d="M84.084,84.107c-0.598,1.439-2.361,2.618-3.921,2.618h-5.36c-1.56,0-3.388-1.149-4.063-2.555
					l-1.652-3.432c-0.676-1.405-1.371-3.822-1.544-5.372l-0.645-5.741c-0.173-1.55,0.96-2.817,2.52-2.817h14.996
					c1.56,0,2.756,1.273,2.658,2.829l-0.355,5.718c-0.098,1.556-0.665,4.008-1.263,5.447L84.084,84.107z"/>
			</g>
			<g clip-path="url(#SVGID_4_)">
				<path fill="#F58233" d="M84.084,82.733c-0.598,1.439-2.361,2.618-3.921,2.618h-5.36c-1.56,0-3.388-1.149-4.063-2.555
					l-1.652-3.432c-0.676-1.405-1.371-3.822-1.544-5.372l-0.645-5.741c-0.173-1.55,0.96-2.817,2.52-2.817h14.996
					c1.56,0,2.756,1.273,2.658,2.829l-0.355,5.718c-0.098,1.556-0.665,4.008-1.263,5.447L84.084,82.733z"/>
				<path fill="none" stroke="#000000" stroke-width="0.5669" d="M84.084,82.733c-0.598,1.439-2.361,2.618-3.921,2.618h-5.36
					c-1.56,0-3.388-1.149-4.063-2.555l-1.652-3.432c-0.676-1.405-1.371-3.822-1.544-5.372l-0.645-5.741
					c-0.173-1.55,0.96-2.817,2.52-2.817h14.996c1.56,0,2.756,1.273,2.658,2.829l-0.355,5.718c-0.098,1.556-0.665,4.008-1.263,5.447
					L84.084,82.733z"/>
			</g>
			
				<line clip-path="url(#SVGID_4_)" fill="none" stroke="#605F61" stroke-width="2.126" x1="77.341" y1="62.9" x2="77.341" y2="79.401"/>
			<g clip-path="url(#SVGID_4_)">
				<path fill="#A2A1A3" d="M83.382,70.512c-0.417,2.378-0.854,4.752-1.319,7.12c-0.118,0.595-0.214,1.179-0.362,1.782
					c-0.179,0.627-0.533,1.169-0.985,1.613c-0.456,0.44-1.013,0.776-1.626,0.96c-0.308,0.088-0.63,0.133-0.949,0.139l-0.905,0.004
					c-0.587-0.01-1.239,0.043-1.854-0.181c-0.606-0.196-1.156-0.542-1.605-0.985c-0.449-0.441-0.809-0.99-0.984-1.607
					c-0.159-0.6-0.28-1.179-0.415-1.771c-0.54-2.352-1.054-4.71-1.545-7.074c0.645,2.327,1.267,4.659,1.862,6.997l0.45,1.744
					c0.16,0.544,0.489,1.037,0.902,1.434c0.411,0.398,0.916,0.707,1.459,0.876c0.536,0.192,1.119,0.139,1.73,0.144
					c0.614-0.007,1.207,0.053,1.742-0.108c0.546-0.157,1.054-0.454,1.47-0.849c0.413-0.394,0.74-0.894,0.898-1.428l0.399-1.756
					C82.265,75.209,82.813,72.859,83.382,70.512z"/>
			</g>
		</g>
	</g>
	<g id="left_1_">
		<path id="arms_base_2_" inkscape:connector-curvature="0" fill="#EFF0ED" stroke="#A2A1A3" stroke-width="0.3125" d="
			M105.95,107.988c1.101,0.852,1.777,1.205,1.777,1.205l12.537-11.191c0,0,3.298-2.697,3.344-7.492
			c0.044-4.795-0.026-14.57-0.026-14.57s-0.207-8.223-10.317-9.087c0,0-4.173-0.757-7.1,3.993
			c-2.031,3.295-0.677,17.774-0.677,17.774c0.086,2.798-1.794,4.534-1.794,4.534l-5.685,5.685c0.63,1.007,1.259,1.927,1.877,2.767
			C102.27,104.841,104.486,106.856,105.95,107.988L105.95,107.988z"/>
		<g id="left_arm">
			<defs>
				<path id="SVGID_5_" d="M120.076,97.79c0.041-0.033,3.205-2.686,3.249-7.283c0.043-4.737-0.026-14.468-0.026-14.565
					c-0.009-0.32-0.33-7.975-10.059-8.807c-0.038-0.006-0.261-0.043-0.63-0.043c-1.143,0-4.033,0.38-6.204,3.902
					c-1.959,3.178-0.649,17.456-0.636,17.6c0.09,2.911-1.803,4.694-1.884,4.769l-5.517,5.517c0.56,0.885,1.146,1.744,1.745,2.559
					c2.376,3.226,4.578,5.221,6.008,6.326c0.752,0.582,1.306,0.929,1.567,1.083L120.076,97.79z"/>
			</defs>
			<clipPath id="SVGID_6_">
				<use xlink:href="#SVGID_5_"  overflow="visible"/>
			</clipPath>
			<polygon clip-path="url(#SVGID_6_)" fill="#F58233" points="103.904,89.787 127.571,91.204 127.571,76.537 103.904,76.537 			"/>
			<path clip-path="url(#SVGID_6_)" stroke="#605F61" stroke-width="0.3125" d="M103.987,92.037l4.862,2.539l0.671-0.897
				c0,0,4.646,3.197,6.365,4.976c0.869,0.115,3.102-1.034,3.102-1.034l3.642,2.309l3.601-9.175c0,0-9.457,0.317-12.35-0.777
				c-0.54-0.204-1.823-1.419-1.823-1.419l-7.702,0.338L103.987,92.037z"/>
			<polygon clip-path="url(#SVGID_6_)" fill="#F58233" stroke="#D14E23" stroke-width="0.4252" stroke-miterlimit="10" points="
				104.237,107.703 110.571,101.37 99.654,102.787 			"/>
			<g id="shadow" clip-path="url(#SVGID_6_)">
				<path fill="#D14E23" d="M107.593,84.107c0.598,1.439,2.361,2.618,3.921,2.618h5.36c1.56,0,3.388-1.149,4.063-2.555l1.652-3.432
					c0.676-1.405,1.371-3.822,1.544-5.372l0.645-5.741c0.173-1.55-0.96-2.817-2.52-2.817h-14.996c-1.56,0-2.756,1.273-2.658,2.829
					l0.355,5.718c0.098,1.556,0.665,4.008,1.263,5.447L107.593,84.107z"/>
			</g>
			<g clip-path="url(#SVGID_6_)">
				<path fill="#EFF0ED" d="M107.593,82.702c0.598,1.439,2.361,2.618,3.921,2.618h5.36c1.56,0,3.388-1.149,4.063-2.555l1.652-3.432
					c0.676-1.405,1.371-3.822,1.544-5.372l0.645-5.741c0.173-1.55-0.96-2.817-2.52-2.817h-14.996c-1.56,0-2.756,1.273-2.658,2.829
					l0.355,5.718c0.098,1.556,0.665,4.008,1.263,5.447L107.593,82.702z"/>
				<path fill="none" stroke="#000000" stroke-width="0.5669" d="M107.593,82.702c0.598,1.439,2.361,2.618,3.921,2.618h5.36
					c1.56,0,3.388-1.149,4.063-2.555l1.652-3.432c0.676-1.405,1.371-3.822,1.544-5.372l0.645-5.741
					c0.173-1.55-0.96-2.817-2.52-2.817h-14.996c-1.56,0-2.756,1.273-2.658,2.829l0.355,5.718c0.098,1.556,0.665,4.008,1.263,5.447
					L107.593,82.702z"/>
			</g>
			
				<line clip-path="url(#SVGID_6_)" fill="none" stroke="#605F61" stroke-width="2.126" x1="114.336" y1="64.286" x2="114.336" y2="79.37"/>
			<g clip-path="url(#SVGID_6_)">
				<path fill="#A2A1A3" d="M108.295,70.481c0.569,2.347,1.117,4.697,1.638,7.054l0.399,1.756c0.158,0.534,0.485,1.034,0.898,1.428
					c0.416,0.395,0.924,0.691,1.47,0.849c0.535,0.161,1.128,0.102,1.742,0.108c0.611-0.005,1.194,0.049,1.73-0.144
					c0.543-0.169,1.048-0.478,1.459-0.876c0.413-0.396,0.742-0.89,0.902-1.434l0.45-1.744c0.596-2.338,1.218-4.67,1.862-6.997
					c-0.491,2.364-1.005,4.723-1.545,7.074c-0.135,0.592-0.256,1.171-0.415,1.771c-0.176,0.617-0.535,1.166-0.984,1.607
					c-0.449,0.443-0.999,0.789-1.605,0.985c-0.615,0.224-1.268,0.171-1.854,0.181l-0.905-0.004
					c-0.319-0.006-0.642-0.051-0.949-0.139c-0.613-0.184-1.17-0.52-1.626-0.96c-0.452-0.444-0.807-0.986-0.985-1.613
					c-0.148-0.604-0.244-1.188-0.362-1.782C109.149,75.233,108.712,72.859,108.295,70.481z"/>
			</g>
		</g>
	</g>
</g>
</svg>
