<?xml version="1.0" encoding="utf-8"?>
<!-- Generator: Adobe Illustrator 15.1.0, SVG Export Plug-In . SVG Version: 6.00 Build 0)  -->
<!DOCTYPE svg PUBLIC "-//W3C//DTD SVG 1.1//EN" "http://www.w3.org/Graphics/SVG/1.1/DTD/svg11.dtd">
<svg version="1.1" xmlns="http://www.w3.org/2000/svg" xmlns:xlink="http://www.w3.org/1999/xlink" x="0px" y="0px"
	 width="130.394px" height="113.386px" viewBox="0 0 130.394 113.386" enable-background="new 0 0 130.394 113.386"
	 xml:space="preserve">
<g id="toroso">
	<path id="torso" inkscape:connector-curvature="0" fill="#EFF0ED" stroke="#605F61" stroke-width="0.3125" d="M7.984,63.537
		c8.732-47.294,5.343-42.679,14.268-42.856h23.44c8.926,0.177,5.535-4.438,14.264,42.856H7.984z"/>
	<g id="design_1_">
		<defs>
			<path id="clipping_mask_2_" inkscape:connector-curvature="0" d="M8.503,63.108c8.559-46.349,5.236-41.826,13.982-42h22.972
				c8.747,0.173,5.425-4.349,13.979,42H8.503z"/>
		</defs>
		<clipPath id="clipping_mask_3_">
			<use xlink:href="#clipping_mask_2_"  overflow="visible"/>
		</clipPath>
		<g id="chest_armor" clip-path="url(#clipping_mask_3_)">
			<polygon fill="#00954D" points="58.137,50.131 49.636,52.517 40.415,49.505 27.436,49.505 18.214,52.517 9.713,50.131 
				6.848,64.13 61.002,64.13 			"/>
			<linearGradient id="gradient_shading_1_" gradientUnits="userSpaceOnUse" x1="33.9707" y1="54.2954" x2="33.9707" y2="49.5121">
				<stop  offset="0" style="stop-color:#00954D;stop-opacity:0"/>
				<stop  offset="1" style="stop-color:#004A2D"/>
			</linearGradient>
			<path id="gradient_shading" fill="url(#gradient_shading_1_)" d="M49.317,52.76l-7.049-2.701l-4.266-0.76H29.94l-4.266,0.76
				l-7.05,2.701c0,0,11.469,1.535,15.347,1.535C37.848,54.295,49.317,52.76,49.317,52.76z"/>
			<g id="waist">
				<polyline fill="none" stroke="#68917C" stroke-width="0.5669" stroke-linejoin="round" points="58.077,59.993 56.961,60.717 
					44.102,57.43 33.97,57.372 23.837,57.43 10.979,60.717 9.864,59.993 				"/>
				<polyline fill="none" stroke="#605F61" stroke-width="0.4252" stroke-linejoin="round" points="58.077,59.568 56.961,60.292 
					44.102,57.005 33.97,56.947 23.837,57.005 10.979,60.292 9.864,59.568 				"/>
				<polygon fill="none" stroke="#605F61" stroke-width="0.4252" stroke-linejoin="round" points="9.561,61.955 5.838,61.085 
					6.6,56.211 10.41,56.52 				"/>
				<polygon fill="none" stroke="#605F61" stroke-width="0.4252" stroke-linejoin="round" points="58.379,61.955 62.102,61.085 
					61.34,56.211 57.53,56.52 				"/>
			</g>
			<g id="chest_shading">
				<path id="collar_2_" fill="#A2A1A3" d="M45.651,21.667c-0.027-0.027-0.072-0.028-0.1-0.001c-0.676,0.65-1.488,1.23-2.557,1.825
					c-0.893,0.49-1.865,0.904-2.887,1.232c-1.018,0.321-2.045,0.551-3.055,0.683c-0.787,0.105-1.826,0.225-2.884,0.225
					c-0.087,0-0.173-0.001-0.263-0.002c-1.143,0.017-2.292-0.109-3.144-0.223c-1.008-0.132-2.036-0.361-3.055-0.683
					c-1.021-0.328-1.993-0.742-2.886-1.232c-1.069-0.595-1.882-1.175-2.558-1.825c-0.028-0.026-0.072-0.025-0.099,0.001
					c-0.027,0.027-0.028,0.071-0.001,0.099c0.649,0.682,1.472,1.327,2.516,1.97c0.89,0.541,1.862,1.008,2.89,1.389
					c1.029,0.376,2.074,0.659,3.104,0.841c1.035,0.187,2.166,0.305,3.188,0.332c0.007,0.002,0.014,0.003,0.022,0.003
					c0.002,0,0.028-0.001,0.03-0.001c0.002,0,0.016,0.001,0.018,0.001c0.007,0,0.015-0.001,0.021-0.003
					c1.022-0.027,2.153-0.146,3.19-0.332c1.029-0.182,2.074-0.465,3.104-0.841c1.025-0.38,1.998-0.848,2.891-1.389
					c1.043-0.644,1.867-1.288,2.516-1.97C45.678,21.738,45.678,21.694,45.651,21.667z"/>
				<path fill="#A2A1A3" d="M57.799,49.36c0,0-3.074,1.265-4.635,1.726c-0.779,0.23-1.564,0.449-2.334,0.606
					c-0.361,0.076-0.82,0.14-1.018,0.123c-0.334-0.048-0.666-0.175-1.043-0.315c-1.475-0.584-3.123-1.503-4.514-1.951
					c-1.566-0.505-3.639-0.755-4.078-1.294c-0.389-0.476,1.406-6.347,1.406-6.347s1.451-5.006,1.918-5.275
					c0.451-0.261,3.975,0.826,5.299,1.303c1.043,0.375,3.043,1.619,4.15,1.568c0.678-0.031,1.877-0.39,2.803-2.215
					c0.414-0.814-0.758,0.425-0.758,0.425l-1.947,1.018l-3.715-1.679l-5.012-1.902c0,0-0.451-0.429-0.273-1.028l0.523-1.559
					l1.102-3.102c0.76-2.06,1.561-4.105,2.402-6.136c-0.271,0.514-2.035,4.349-2.035,4.349l-2.816,7.182
					c0,0.001-3.748,12.864-4.592,13.372c-0.951,0.571-4.269,0.541-4.701,0.535v-0.001c0,0-0.015,0-0.024,0c-0.009,0-0.024,0-0.024,0
					v0.001c-0.432,0.006-3.752,0.036-4.702-0.535c-0.844-0.508-4.593-13.372-4.593-13.372l-2.816-7.182c0,0-1.763-3.835-2.035-4.349
					c0.842,2.031,1.644,4.077,2.402,6.136l1.102,3.102l0.524,1.559c0.178,0.6-0.272,1.028-0.272,1.028l-5.014,1.902l-3.714,1.679
					l-1.947-1.018c0,0-1.172-1.522-0.759-0.708c0.925,1.825,2.125,2.467,2.803,2.498c1.108,0.051,3.106-1.192,4.15-1.568
					c1.325-0.477,4.848-1.563,5.3-1.303c0.467,0.269,1.917,5.275,1.917,5.275s1.794,5.871,1.407,6.347
					c-0.439,0.539-2.512,0.789-4.079,1.294c-1.392,0.448-3.04,1.367-4.514,1.951c-0.378,0.141-0.709,0.268-1.043,0.315
					c-0.197,0.017-0.656-0.047-1.017-0.123c-0.771-0.157-1.556-0.376-2.334-0.606c-1.561-0.461-4.636-1.726-4.636-1.726L9.74,50.202
					l8.359,2.386l9.112-3.105h13.392l9.111,3.105l8.359-2.386L57.799,49.36z"/>
			</g>
			<g id="color">
				<defs>
					<path id="SVGID_1_" d="M33.943,35.89c-2.917,0-9.203-1.128-9.203-1.128l4.251,14.74h4.917h0.07h4.917l4.251-14.74
						C43.146,34.761,36.859,35.89,33.943,35.89z"/>
				</defs>
				<use xlink:href="#SVGID_1_"  overflow="visible" fill="#68917C"/>
				<clipPath id="SVGID_2_">
					<use xlink:href="#SVGID_1_"  overflow="visible"/>
				</clipPath>
				<rect x="6.158" y="14.614" clip-path="url(#SVGID_2_)" fill="#9AC43F" width="55.5" height="55.5"/>
				<g id="chest_shading_2_" clip-path="url(#SVGID_2_)">
					<path id="collar_1_" fill="#68917C" d="M45.651,21.667c-0.027-0.027-0.072-0.028-0.1-0.001c-0.676,0.65-1.488,1.23-2.557,1.825
						c-0.893,0.49-1.865,0.904-2.887,1.232c-1.018,0.321-2.045,0.551-3.055,0.683c-0.787,0.105-1.826,0.225-2.884,0.225
						c-0.087,0-0.173-0.001-0.263-0.002c-1.143,0.017-2.292-0.109-3.144-0.223c-1.008-0.132-2.036-0.361-3.055-0.683
						c-1.021-0.328-1.993-0.742-2.886-1.232c-1.069-0.595-1.882-1.175-2.558-1.825c-0.028-0.026-0.072-0.025-0.099,0.001
						c-0.027,0.027-0.028,0.071-0.001,0.099c0.649,0.682,1.472,1.327,2.516,1.97c0.89,0.541,1.862,1.008,2.89,1.389
						c1.029,0.376,2.074,0.659,3.104,0.841c1.035,0.187,2.166,0.305,3.188,0.332c0.007,0.002,0.014,0.003,0.022,0.003
						c0.002,0,0.028-0.001,0.03-0.001c0.002,0,0.016,0.001,0.018,0.001c0.007,0,0.015-0.001,0.021-0.003
						c1.022-0.027,2.153-0.146,3.19-0.332c1.029-0.182,2.074-0.465,3.104-0.841c1.025-0.38,1.998-0.848,2.891-1.389
						c1.043-0.644,1.867-1.288,2.516-1.97C45.678,21.738,45.678,21.694,45.651,21.667z"/>
					<path fill="#68917C" d="M57.799,49.36c0,0-3.074,1.265-4.635,1.726c-0.779,0.23-1.564,0.449-2.334,0.606
						c-0.361,0.076-0.82,0.14-1.018,0.123c-0.334-0.048-0.666-0.175-1.043-0.315c-1.475-0.584-3.123-1.503-4.514-1.951
						c-1.566-0.505-3.639-0.755-4.078-1.294c-0.389-0.476,1.406-6.347,1.406-6.347s1.451-5.006,1.918-5.275
						c0.451-0.261,3.975,0.826,5.299,1.303c1.043,0.375,3.043,1.619,4.15,1.568c0.678-0.031,1.877-0.39,2.803-2.215
						c0.414-0.814-0.758,0.425-0.758,0.425l-1.947,1.018l-3.715-1.679l-5.012-1.902c0,0-0.451-0.429-0.273-1.028l0.523-1.559
						l1.102-3.102c0.76-2.06,1.561-4.105,2.402-6.136c-0.271,0.514-2.035,4.349-2.035,4.349l-2.816,7.182
						c0,0.001-3.748,12.864-4.592,13.372c-0.951,0.571-4.269,0.541-4.701,0.535v-0.001c0,0-0.015,0-0.024,0
						c-0.009,0-0.024,0-0.024,0v0.001c-0.432,0.006-3.752,0.036-4.702-0.535c-0.844-0.508-4.593-13.372-4.593-13.372l-2.816-7.182
						c0,0-1.763-3.835-2.035-4.349c0.842,2.031,1.644,4.077,2.402,6.136l1.102,3.102l0.524,1.559c0.178,0.6-0.272,1.028-0.272,1.028
						l-5.014,1.902l-3.714,1.679l-1.947-1.018c0,0-1.172-1.522-0.759-0.708c0.925,1.825,2.125,2.467,2.803,2.498
						c1.108,0.051,3.106-1.192,4.15-1.568c1.325-0.477,4.848-1.563,5.3-1.303c0.467,0.269,1.917,5.275,1.917,5.275
						s1.794,5.871,1.407,6.347c-0.439,0.539-2.512,0.789-4.079,1.294c-1.392,0.448-3.04,1.367-4.514,1.951
						c-0.378,0.141-0.709,0.268-1.043,0.315c-0.197,0.017-0.656-0.047-1.017-0.123c-0.771-0.157-1.556-0.376-2.334-0.606
						c-1.561-0.461-4.636-1.726-4.636-1.726L9.74,50.202l8.359,2.386l9.112-3.105h13.392l9.111,3.105l8.359-2.386L57.799,49.36z"/>
				</g>
			</g>
			<path id="chest_outline_1_" d="M49.833,52.831c-0.732-0.047-2.17-0.573-3.834-1.183l-0.868-0.321
				c-1.956-0.729-3.979-1.483-5.862-1.608c-0.263-0.004-0.53-0.006-0.797-0.006c-0.918,0-1.838,0.021-2.67,0.038
				c-0.688,0.015-1.315,0.028-1.832,0.028s-1.145-0.014-1.832-0.028c-0.832-0.018-1.751-0.038-2.67-0.038
				c-0.267,0-0.534,0.002-0.798,0.006c-1.883,0.125-3.907,0.879-5.864,1.609l-0.865,0.32c-1.664,0.609-3.101,1.136-3.834,1.183
				L18,52.833c-1.788,0-7.986-2.431-8.249-2.534l0.191-0.564c0.687,0.239,6.432,2.477,8.021,2.477l0.103-0.004
				c0.643-0.041,2.106-0.576,3.655-1.144c2.127-0.778,4.769-1.745,6.618-1.92c-0.353-1.876-0.817-3.939-1.487-6.46
				c-0.579-2.157-1.256-4.392-2.013-6.641l-0.288-0.816c-3.988,0.924-5.693,1.869-7.341,2.782c-0.269,0.149-0.536,0.297-0.812,0.444
				c-0.399,0.213-1.013,0.468-1.665,0.468c-0.094,0-0.189-0.005-0.284-0.017c-1.024-0.122-1.924-1.438-1.962-1.495l0.477-0.357
				c0.253,0.324,0.944,1.16,1.559,1.232c0.068,0.008,0.137,0.012,0.205,0.012c0.556,0,1.102-0.246,1.377-0.393
				c0.239-0.127,0.802-0.439,0.802-0.439c1.679-0.93,3.415-1.892,7.474-2.813c-1.396-3.89-2.973-7.771-4.706-11.498l0.13-0.092
				c2.083,4.237,3.893,8.556,5.417,12.851c0.796,2.248,1.511,4.48,2.126,6.635c0.73,2.583,1.218,4.606,1.583,6.556
				c0.002-0.002,0.059-0.004,0.16-0.004c0.732,0,3.773,0.062,4.879,0.062c1.267,0,5.065-0.08,5.065-0.08
				c0.336-1.919,0.824-3.941,1.556-6.534c0.613-2.149,1.329-4.382,2.127-6.635c1.521-4.293,3.331-8.612,5.379-12.837l0.152,0.042
				c-1.719,3.764-3.295,7.645-4.671,11.572c4.041,0.884,5.775,1.846,7.453,2.776c0,0,0.568,0.315,0.803,0.439
				c0.275,0.147,0.821,0.393,1.377,0.393c0.068,0,0.137-0.003,0.205-0.012c0.612-0.072,1.304-0.908,1.519-1.225l0.509,0.311
				c-0.088,0.18-0.96,1.416-1.955,1.534c-0.095,0.011-0.189,0.017-0.283,0.017c-0.65,0-1.265-0.254-1.665-0.468
				c-0.275-0.146-0.542-0.294-0.811-0.444c-1.649-0.913-3.354-1.857-7.375-2.763l-0.095,0.341l-0.159,0.456
				c-0.757,2.247-1.434,4.481-2.014,6.641c-0.672,2.53-1.137,4.594-1.462,6.493c1.824,0.142,4.466,1.108,6.588,1.886
				c1.559,0.57,3.019,1.104,3.659,1.145l0.104,0.004c1.59,0,7.335-2.237,7.984-2.492l0.244,0.543
				c-0.279,0.141-6.489,2.571-8.266,2.571L49.833,52.831z"/>
			<g id="under_armor">
				<path id="left_shoulder" d="M6.159,37.068c0,0,6.781,1.188,7.375-0.709c2.094-8.884,4.34-9.572,4.396-16.938
					c-2.357-2.742-11.771-2.978-11.771-2.978V37.068z"/>
				<ellipse id="collar" cx="33.97" cy="19.318" rx="11.78" ry="5.313"/>
				<path id="right_shoulder" d="M50.011,19.421c0.056,7.366,2.302,8.053,4.396,16.938c0.594,1.897,7.375,0.709,7.375,0.709V16.443
					C61.782,16.443,52.368,16.679,50.011,19.421z"/>
			</g>
			<g id="rank">
				<circle fill="#00954D" cx="47.438" cy="33.801" r="0.733"/>
				<circle fill="#00954D" cx="50.04" cy="34.541" r="0.733"/>
			</g>
		</g>
		<g id="battle_scars" clip-path="url(#clipping_mask_3_)">
			<path fill="#EFF0ED" d="M37.85,47.408l0.693,0.005l-0.657,0.385c-0.747,0.206-1.491,0.43-2.246,0.606
				c0.558-0.239,1.106-0.506,1.654-0.769l-0.652-0.232L37.85,47.408z"/>
			<g>
				<polygon fill="#E3E2DB" points="20.682,37.926 19.609,38.484 19.702,38.372 19.635,38.939 19.584,39.368 19.311,38.996 
					19.121,38.738 19.419,38.817 18.201,39.476 18.166,39.495 18.145,39.496 16.69,39.549 18.104,39.202 18.048,39.222 
					19.197,38.451 19.406,38.31 19.495,38.529 19.615,38.826 19.291,38.882 19.414,38.324 19.435,38.229 19.506,38.211 				"/>
			</g>
			<polygon fill="#EFF0ED" points="29.578,37.091 29.475,36.154 28.714,36.09 28.243,36.644 28.174,36.009 27.748,35.827 
				27.185,35.542 30.181,36.045 			"/>
			<polygon fill="#E3E2DB" points="32.901,36.091 34.261,36.374 39.446,35.798 39.026,36.21 38.805,37.254 38.385,36.265 
				38.093,36.689 37.686,36.315 35.488,36.34 35.119,36.909 35.037,38 34.499,36.669 33.957,37.235 33.649,36.723 			"/>
		</g>
		<g id="dirt" clip-path="url(#clipping_mask_3_)">
			<path fill="#692E14" d="M46.743,38.965c-0.003,0.274-0.345,0.345-0.69,0.341c-0.212,0.073-0.352-0.114-0.307-0.408
				c0.007-0.304,0.07-0.626,0.372-0.551C46.458,38.249,46.729,38.61,46.743,38.965z"/>
			<path fill="#692E14" d="M48.459,40.529c0.035,0.292-0.098,0.427-0.305,0.511c-0.34,0.127-0.543-0.028-0.555-0.379
				c-0.046-0.285,0.064-0.417,0.345-0.535C48.233,40.066,48.417,40.294,48.459,40.529z"/>
			<path fill="#692E14" d="M41.493,30.196c0.011,0.232-0.177,0.28-0.313,0.342c-0.16-0.112-0.245-0.15-0.216-0.345
				c-0.002-0.126,0.044-0.197,0.168-0.245C41.286,30.016,41.483,30.081,41.493,30.196z"/>
			<path fill="#692E14" d="M42.875,30.233c0.058,0.189-0.035,0.352-0.215,0.296c-0.178,0.115-0.442-0.062-0.42-0.165
				c-0.008-0.355,0.217-0.478,0.445-0.538C42.874,29.866,42.901,30.084,42.875,30.233z"/>
			<path fill="#692E14" d="M48.691,42.959c-0.066-0.248-0.208-0.48-0.475-0.478c-0.177,0.05-0.366,0.43-0.301,0.604
				c0.022,0.412,0.296,0.434,0.554,0.283C48.722,43.535,48.741,43.213,48.691,42.959z"/>
			<path fill="#692E14" d="M49.756,41.542c-0.082-0.105-0.259-0.156-0.428-0.136c-0.166,0.042-0.21,0.175-0.201,0.294
				c0.078,0.223,0.194,0.348,0.345,0.353C49.632,41.991,49.77,41.758,49.756,41.542z"/>
			<path fill="#692E14" d="M48.873,41.499c0.002-0.054-0.135-0.181-0.289-0.106c-0.183-0.039-0.299,0.114-0.294,0.25
				c0.037,0.124,0.25,0.226,0.429,0.236C48.859,41.779,48.921,41.687,48.873,41.499z"/>
			<path fill="#692E14" d="M49.923,40.006c-0.012-0.187-0.193-0.255-0.298-0.258c-0.178,0.114-0.25,0.209-0.202,0.312
				c-0.014,0.192,0.12,0.205,0.297,0.131C49.865,40.145,49.981,40.125,49.923,40.006z"/>
			<path fill="#692E14" d="M48.601,39.12c-0.017-0.093,0.026-0.092,0.119-0.085c0.099,0.014,0.191,0.021,0.187,0.131
				c0.004,0.062-0.106,0.128-0.188,0.127C48.625,39.293,48.585,39.227,48.601,39.12z"/>
			<path fill="#692E14" d="M47.818,39.207c-0.053-0.079-0.007-0.234,0.123-0.299c0.107,0.03,0.229,0.132,0.262,0.298
				c0.004,0.026-0.056,0.155-0.19,0.146C47.906,39.38,47.819,39.367,47.818,39.207z"/>
			<path fill="#692E14" d="M22.393,41.818c0.197,0.211,0.194,0.322,0.106,0.507c-0.05,0.149-0.188,0.246-0.372,0.089
				c-0.216-0.064-0.273-0.132-0.146-0.413C22.06,41.953,22.225,41.771,22.393,41.818z"/>
			<path fill="#692E14" d="M21.598,40.302c0.156,0.18,0.263,0.322,0.197,0.565c-0.103,0.131-0.299,0.164-0.492,0.038
				c-0.083,0.035-0.128-0.194-0.067-0.353C21.336,40.313,21.469,40.266,21.598,40.302z"/>
			<path fill="#692E14" d="M21.067,39.756c0.078-0.029,0.126,0.14,0.064,0.213c-0.037,0.11-0.14,0.155-0.257,0.101
				c-0.095-0.079-0.152-0.114-0.11-0.181C20.804,39.7,20.931,39.655,21.067,39.756z"/>
			<path fill="#692E14" d="M21.047,40.85c0.154,0.128,0.11,0.356,0.067,0.53c-0.083,0.193-0.246,0.309-0.404,0.204
				c-0.13-0.077-0.163-0.281-0.098-0.407C20.673,41.042,20.875,40.853,21.047,40.85z"/>
			<path fill="#692E14" d="M20.244,40.811c-0.199-0.01-0.323-0.087-0.389-0.242c-0.01-0.185,0-0.328-0.134-0.449
				c-0.217-0.284-0.176-0.646,0.133-0.855l0.042,0.009c0.206,0.332,0.151,0.531,0.052,0.793c-0.019,0.067-0.02,0.14,0.016,0.194
				c0.047,0.051,0.125,0.081,0.186,0.112c0.087,0.078,0.143,0.21,0.126,0.409L20.244,40.811z"/>
			<path fill="#692E14" d="M45.189,39.397c0.284,0.123,0.438,0.258,0.549,0.452c0.04,0.109,0.063,0.25,0.132,0.35
				c0.068,0.1,0.178,0.161,0.297,0.223c0.492,0.252,0.763,0.765,0.607,1.33l-0.053,0.021c-0.507-0.317-0.649-0.681-0.789-1.147
				c-0.037-0.118-0.095-0.228-0.193-0.297c-0.099-0.07-0.243-0.1-0.358-0.171c-0.203-0.165-0.308-0.435-0.242-0.734L45.189,39.397z"
				/>
			<path fill="#692E14" d="M21.973,38.083c0.358-0.313,0.526-0.525,0.699-0.389c0.068,0.191,0.027,0.484-0.223,0.819
				c-0.19,0.122-0.458,0.124-0.559-0.139C21.757,38.253,21.779,38.224,21.973,38.083z"/>
			<path fill="#692E14" d="M18.991,33.843c-0.03,0.181,0.06,0.477,0.168,0.4c0.184,0.17,0.278-0.125,0.273-0.354
				c-0.021-0.196-0.105-0.436-0.253-0.484C19.048,33.34,18.99,33.704,18.991,33.843z"/>
			<path fill="#692E14" d="M26.485,31.65c-0.036,0.155,0.037,0.281,0.187,0.257c0.143-0.015,0.214-0.108,0.221-0.296
				c0.021-0.042-0.085-0.201-0.229-0.211C26.521,31.361,26.471,31.514,26.485,31.65z"/>
			<path fill="#692E14" d="M21.658,32.346c0.059,0.181,0.174,0.55,0.48,0.652c0.2-0.129,0.355-0.337,0.388-0.753
				c-0.018-0.066-0.141-0.484-0.453-0.449C21.833,31.78,21.683,32.107,21.658,32.346z"/>
			<path fill="#692E14" d="M21.906,39.56c0.002,0.167,0.266,0.212,0.406,0.232c0.25-0.068,0.289-0.08,0.269-0.286
				c0.008-0.1-0.039-0.363-0.246-0.425C22.145,39.128,21.945,39.341,21.906,39.56z"/>
			<path fill="#692E14" d="M28.492,33.61c0.117,0.071,0.231-0.051,0.388-0.272c0.111-0.204,0.314-0.391,0.212-0.495
				c-0.098,0.036-0.363,0.087-0.478,0.268C28.452,33.25,28.39,33.553,28.492,33.61z"/>
			<path fill="#692E14" d="M29.592,31.608c-0.067,0.083,0.042,0.289,0.262,0.296c0.121-0.089,0.237-0.15,0.232-0.378
				c-0.005-0.211-0.081-0.278-0.261-0.241C29.64,31.175,29.562,31.383,29.592,31.608z"/>
			<path fill="#692E14" d="M25.557,32.563c-0.024,0.208,0.134,0.441,0.357,0.401c0.248,0.125,0.383-0.128,0.333-0.33
				c0.066-0.332-0.082-0.357-0.327-0.273C25.723,32.295,25.525,32.362,25.557,32.563z"/>
			<path fill="#692E14" d="M24.058,39.038c0.002,0.128,0.069,0.215,0.203,0.143c0.167,0.029,0.28-0.049,0.269-0.147
				c0.038-0.169-0.11-0.368-0.232-0.41C24.116,38.703,24.075,38.838,24.058,39.038z"/>
			<path fill="#692E14" d="M27.962,32.008c0.056,0.183,0.117,0.438,0.381,0.48c0.329,0.04,0.653-0.271,0.675-0.618
				c0.048-0.05-0.387-0.433-0.729-0.429C28.15,31.448,27.97,31.753,27.962,32.008z"/>
			<path fill="#692E14" d="M26.428,33.755c0.052,0.202,0.402,0.301,0.727,0.269c0.271,0.12,0.517-0.125,0.53-0.436
				c0.002-0.245-0.302-0.412-0.504-0.521C26.896,33.113,26.487,33.401,26.428,33.755z"/>
			<path fill="#692E14" d="M19.991,33.114c-0.006,0.147,0.173,0.297,0.445,0.298c0.326-0.05,0.625-0.115,0.592-0.404
				c-0.007-0.22-0.312-0.363-0.623-0.295C20.104,32.57,19.959,32.837,19.991,33.114z"/>
			<path fill="#692E14" d="M22.789,33.027c0.25,0.283-0.011,0.74-0.266,0.832c-0.143,0.053-0.301,0.049-0.426,0.093
				c-0.126,0.044-0.227,0.134-0.321,0.236c-0.185,0.212-0.393,0.359-0.576,0.488c-0.2,0.122-0.37,0.15-0.577,0.372l-0.057-0.004
				c-0.172-0.315,0.068-0.695,0.286-0.863c0.244-0.167,0.505-0.251,0.785-0.271c0.138-0.014,0.27-0.04,0.372-0.12
				c0.103-0.079,0.17-0.215,0.238-0.314c0.161-0.195,0.296-0.19,0.486-0.448L22.789,33.027z"/>
			<path fill="#692E14" d="M22.777,40.757c0.02-0.351,0.075-0.625,0.157-0.913c0.137-0.277,0.243-0.598,0.051-0.914
				c-0.052-0.161,0.026-0.335,0.11-0.49c0.099-0.151,0.105-0.309,0.123-0.509c0.106-0.372,0.478-0.532,0.811-0.58l0.023,0.035
				c-0.188,0.302-0.328,0.543-0.554,0.715c-0.147,0.07-0.25,0.213-0.209,0.374c0.029,0.156,0.097,0.3,0.044,0.455
				c-0.188,0.315-0.071,0.63-0.051,0.976c-0.026,0.335-0.195,0.66-0.467,0.869L22.777,40.757z"/>
			<path fill="#692E14" d="M41.536,29.379c0.281-0.11,0.382-0.26,0.654-0.317c0.133-0.015,0.289,0,0.42-0.034
				c0.133-0.032,0.24-0.122,0.364-0.216c0.122-0.095,0.281-0.165,0.449-0.134c0.168,0.026,0.313,0.149,0.419,0.254
				c0.231,0.19,0.42,0.368,0.692,0.542l0.017,0.011c0.129,0.082,0.167,0.253,0.084,0.382c-0.082,0.128-0.253,0.166-0.382,0.084
				c-0.08-0.052-0.125-0.14-0.127-0.229c-0.004-0.271-0.155-0.522-0.392-0.589c-0.126-0.02-0.242,0.029-0.338,0.042
				c-0.096,0.017-0.201-0.011-0.333-0.036c-0.131-0.024-0.271-0.016-0.38,0.058c-0.11,0.071-0.192,0.203-0.3,0.296
				c-0.111,0.086-0.255,0.128-0.415,0.136c-0.147,0.014-0.371-0.048-0.451-0.195c-0.011-0.017-0.006-0.04,0.011-0.051
				C41.531,29.381,41.535,29.379,41.536,29.379z"/>
			<path fill="#692E14" d="M42.003,30.977c0.23-0.093,0.383-0.058,0.476,0.065c0.037,0.081,0.064,0.205,0.134,0.251
				c0.067,0.045,0.158,0.009,0.22-0.064c0.112-0.165,0.194-0.233,0.324-0.298c0.138-0.034,0.296-0.055,0.516,0.024L43.698,31
				c-0.05,0.227-0.159,0.357-0.301,0.451c-0.148,0.061-0.357,0.112-0.553-0.033c-0.093-0.061-0.155-0.118-0.236-0.109
				c-0.079,0.004-0.195,0.072-0.296,0.086c-0.184-0.01-0.298-0.131-0.334-0.375L42.003,30.977z"/>
			<path fill="#692E14" d="M40.715,31.094c0.013-0.075,0.056-0.157,0.14-0.161c0.084,0.038,0.162,0.09,0.181,0.156
				c-0.004,0.1-0.092,0.138-0.16,0.153C40.761,31.261,40.723,31.195,40.715,31.094z"/>
			<path fill="#692E14" d="M47.433,41.901c-0.181,0.059-0.301,0.131-0.382,0.249c-0.037,0.06-0.077,0.122-0.089,0.192
				c-0.026,0.066-0.036,0.141,0.027,0.213c0.133,0.151,0.43,0.219,0.414,0.324c-0.003,0.104-0.293,0.339-0.174,0.445
				c0.071,0.12,0.266,0.173,0.285,0.313c0.046,0.128,0.021,0.303,0.037,0.459c0.04,0.31,0.256,0.515,0.589,0.623
				c0.139,0.046,0.214,0.194,0.169,0.333c-0.046,0.139-0.194,0.214-0.333,0.169c-0.112-0.037-0.184-0.146-0.182-0.258
				c0.007-0.357-0.099-0.621-0.361-0.793c-0.131-0.087-0.303-0.155-0.392-0.278c-0.114-0.11-0.047-0.313-0.083-0.456
				c0.01-0.155-0.366-0.191-0.435-0.365c-0.072-0.172,0.189-0.39,0.342-0.522c0.121-0.137,0.077-0.277,0.119-0.424
				c0.019-0.149,0.048-0.321,0.029-0.496c-0.02-0.177,0.108-0.336,0.286-0.355c0.177-0.019,0.336,0.109,0.354,0.286
				C47.673,41.713,47.575,41.854,47.433,41.901z"/>
		</g>
	</g>
</g>
<g id="helmet">
	<polygon id="coloring" fill="#9AC43F" points="92.038,3.311 92.038,4.568 94.233,6.484 92.038,6.985 92.038,13.401 95.799,16.31 
		92.038,15.735 92.038,24.602 94.166,26.651 92.038,26.893 92.038,29.334 94.872,44.082 92.038,46.782 92.555,50.012 93.361,50.147 
		93.815,50.584 94.973,50.709 92.877,51.63 93.455,55.627 99.73,55.627 100.225,52.531 99.157,51.393 100.44,51.318 101.147,46.782 
		98.313,44.127 101.147,29.334 101.147,24.068 97.906,24.118 98.662,22.854 101.147,20.677 101.147,10.534 98.106,10.318 
		101.147,8.934 101.147,3.311 	"/>
	<g id="lines">
		<line fill="none" stroke="#A2A1A3" stroke-width="0.4252" x1="84.856" y1="29.322" x2="84.856" y2="3.311"/>
		<line fill="none" stroke="#A2A1A3" stroke-width="0.4252" x1="108.33" y1="29.322" x2="108.33" y2="3.311"/>
	</g>
	<path fill="#246EB7" d="M98.974,44.223c0.084-0.162,0.147-0.339,0.181-0.523l1.599-10.036l22.654-0.261
		c0.779,0,1.417-0.638,1.417-1.418c0,0,0.597-1.867,0.283-2.376c-0.208-0.337-0.779-0.283-1.559-0.283c0,0-22.449,0-23.229,0
		c0,0-3.633,0-3.666,0c-0.034,0-27.02,0-27.02,0c-0.779,0-1.352-0.054-1.559,0.283c-0.313,0.51,0.283,2.376,0.283,2.376
		c0,0.78,0.638,1.418,1.417,1.418l22.654,0.261L94.03,43.7c0.033,0.186,0.097,0.361,0.181,0.523"/>
	<path d="M94.21,44.223l-10.745,7.783c-0.145,0.105-0.203,0.299-0.13,0.471c0.085,0.197,0.314,0.289,0.513,0.205l12.744-5.458
		l12.745,5.458c0.164,0.07,0.36,0.02,0.47-0.131c0.127-0.174,0.088-0.418-0.087-0.545l-10.746-7.783c0,0-1.636-0.142-2.382-0.142
		S94.21,44.223,94.21,44.223z"/>
	<g id="speaker">
		<circle cx="86.28" cy="53.696" r="0.875"/>
		<circle cx="106.905" cy="53.697" r="0.875"/>
		<polygon points="98.469,55.008 94.715,55.008 94.999,52.383 98.186,52.383 		"/>
	</g>
</g>
<g id="legs">
	<g id="base">
		<rect x="36.771" y="66.391" fill="#EFF0ED" stroke="#605F61" stroke-width="0.3118" width="22.697" height="42.435"/>
		<rect x="8.489" y="66.391" fill="#EFF0ED" stroke="#605F61" stroke-width="0.3118" width="22.697" height="42.435"/>
	</g>
	<g id="right_leg_details">
		<defs>
			<path id="clipping_mask_1_" inkscape:connector-curvature="0" d="M59.355,108.719H36.884V66.498h22.471V108.719z"/>
		</defs>
		<clipPath id="clipping_mask_5_">
			<use xlink:href="#clipping_mask_1_"  overflow="visible"/>
		</clipPath>
		<path id="color-2_2_" clip-path="url(#clipping_mask_5_)" fill="#9AC43F" d="M51.44,65.985l-0.615,16.597
			c1.938-2.656,4.924-5.636,9.543-8.125l0.674,1.248C50.62,81.322,48.854,89.744,48.838,89.829l-0.629-0.121l-1.02,20.611h-11
			V65.985H51.44z"/>
		<path id="color-1" clip-path="url(#clipping_mask_5_)" fill="#00954D" d="M61.513,73.84l-1.313-2.512
			c-10.924,5.71-14.511,16.549-14.919,17.89H45.21l-0.628,9.601c0,0-0.893,3.25-9.385,7.138c-0.229,1.009,0.377,4.12,0.377,4.12
			h26.652l-1.688-2.699c0,0-11.48-0.563-12.016-2.309c-0.617-2.013,0.134-3.732,0.347-4.96c0.153-3.374,0.014-8.362,0.319-10.26
			C49.477,88.068,52.093,78.764,61.513,73.84z"/>
		<path clip-path="url(#clipping_mask_5_)" fill="#68917C" d="M50.6,68.553c0.085,0.829,0.119,1.657,0.177,2.485l-0.117,2.474
			l-0.27,4.946c-0.106,1.65-0.203,3.295-0.395,4.952c-0.027,0.208-0.055,0.415-0.097,0.632c-0.018,0.099-0.053,0.239-0.093,0.34
			l-0.108,0.293l-0.457,1.161c-0.404,0.73-0.814,1.453-1.275,2.148l0.743-2.371c0.167-0.374,0.313-0.757,0.459-1.139l0.106-0.287
			c0.035-0.092,0.048-0.152,0.069-0.256c0.037-0.188,0.064-0.391,0.09-0.592c0.188-1.622,0.286-3.273,0.392-4.916l0.269-4.939
			l0.115-2.472C50.34,70.194,50.448,69.373,50.6,68.553z"/>
		<g id="battle_scars_1_" clip-path="url(#clipping_mask_5_)">
			<g>
				<polygon fill="#EFF0ED" points="49.981,95.774 47.574,96.319 49.567,94.864 				"/>
			</g>
			<g>
				<polygon fill="#EFF0ED" points="49.415,93.399 48.357,93.018 49.299,92.405 				"/>
			</g>
			<g>
				<polygon fill="#EFF0ED" points="48.507,101.75 47.274,100.985 48.707,101.219 				"/>
			</g>
			<g>
				<polygon fill="#EFF0ED" points="48.778,103.365 45.69,102.56 48.67,102.076 				"/>
			</g>
			<g>
				<polygon fill="#EFF0ED" points="49.056,104.191 47.357,103.935 48.718,103.021 				"/>
			</g>
		</g>
		<g id="under_armor_1_" clip-path="url(#clipping_mask_5_)">
			<path d="M35.159,89.538c-1.185,0.907-1.35,5.373,0,5.401c5.306,0.112,6.544-1.417,6.544-1.417l-0.991-3.134
				C40.711,90.388,38.547,90.967,35.159,89.538z"/>
			<path d="M61.056,89.538c1.185,0.907,1.35,5.373,0,5.401c-5.306,0.112-6.544-1.417-6.544-1.417l0.991-3.134
				C55.503,90.388,57.667,90.967,61.056,89.538z"/>
			<path d="M34.273,65.217l-0.151,23.248c0,0-0.467-0.74,2.256-3.962c2.862-3.386,3.544-9.119,5.173-14.982
				c0.617-2.221,6.514-2.399,8.805-2.399c7.418,0,9.946,2.864,9.946,2.864s0.188-4.607,0.188-4.769H34.273z"/>
		</g>
		<g id="knee_pad" clip-path="url(#clipping_mask_5_)">
			<path fill="none" stroke="#000000" stroke-width="0.5669" d="M53.64,96.447c-0.195,1.295-1.63,2.354-3.189,2.354h-4.379
				c-1.56,0-3.059-1.06-3.331-2.354c-0.272-1.294-0.975-3.413-1.559-4.708s0.213-2.354,1.772-2.354h10.33
				c1.56,0,2.356,1.06,1.772,2.354S53.835,95.153,53.64,96.447z"/>
		</g>
	</g>
	<g id="dirt_1_">
		<g>
			<path fill="#692E14" d="M11.806,70.967c0.024,0.15-0.083,0.351-0.317,0.343c-0.256-0.023-0.409-0.132-0.482-0.34
				c0.066-0.211,0.298-0.409,0.451-0.408C11.636,70.587,11.912,70.721,11.806,70.967z"/>
		</g>
		<g>
			<path fill="#692E14" d="M12.652,71.335c0.22,0.041,0.595,0.274,0.515,0.524c-0.066,0.251-0.435,0.323-0.728,0.268
				c-0.151-0.047-0.43-0.226-0.364-0.499C12.089,71.348,12.366,71.306,12.652,71.335z"/>
		</g>
		<g>
			<path fill="#692E14" d="M10.854,105.443c0.183-0.166,0.125-0.391,0.086-0.576c-0.158-0.264-0.319-0.261-0.544-0.141
				c-0.236,0.136-0.192,0.285-0.046,0.507C10.421,105.43,10.683,105.566,10.854,105.443z"/>
		</g>
		<g>
			<path fill="#692E14" d="M10.501,71.427c0.075-0.104,0.198-0.109,0.322-0.007c0.052,0.061,0.037,0.272-0.064,0.349
				c-0.107,0.084-0.249,0.065-0.309-0.018C10.347,71.655,10.435,71.503,10.501,71.427z"/>
		</g>
		<g>
			<path fill="#692E14" d="M11.887,70.476c0.064-0.069,0.258-0.1,0.325,0.028c0.076,0.067,0.085,0.237-0.08,0.346
				c-0.035,0.056-0.16,0.019-0.267-0.084C11.727,70.68,11.755,70.567,11.887,70.476z"/>
		</g>
		<g>
			<path fill="#692E14" d="M56.158,85.594c-0.251,0.345-0.312,0.731-0.11,0.812c0.346,0.21,0.581-0.008,0.841-0.313
				c0.182-0.264,0.116-0.664,0.101-0.78C56.8,85.159,56.278,85.28,56.158,85.594z"/>
		</g>
		<g>
			<path fill="#692E14" d="M56.572,84.046c0.059-0.125,0.301-0.192,0.408-0.034c0.196,0.069,0.297,0.271,0.128,0.468
				c-0.099,0.103-0.319,0.137-0.514-0.012C56.492,84.402,56.465,84.209,56.572,84.046z"/>
		</g>
		<g>
			<path fill="#692E14" d="M55.287,87.81c0.145-0.149,0.338-0.146,0.481-0.044c0.15,0.104,0.267,0.287,0.161,0.451
				c-0.19,0.119-0.343,0.201-0.552,0.079C55.292,88.192,55.229,87.968,55.287,87.81z"/>
		</g>
		<g>
			<path fill="#692E14" d="M56.642,82.629c0.185-0.135,0.324-0.144,0.409-0.042c0.219,0.097,0.225,0.268,0.147,0.404
				c-0.096,0.126-0.308,0.119-0.436,0.063C56.663,82.932,56.565,82.728,56.642,82.629z"/>
		</g>
		<g>
			<path fill="#692E14" d="M57.713,87.021c0.238-0.222,0.44-0.163,0.644,0.051c0.264,0.091,0.482,0.358,0.368,0.606
				c-0.265,0.184-0.585,0.154-0.708,0.048C57.72,87.495,57.686,87.16,57.713,87.021z"/>
		</g>
		<g>
			<path fill="#692E14" d="M57.723,90.076c-0.085-0.277-0.236-0.397-0.274-0.663c-0.008-0.129,0.013-0.282-0.025-0.409
				c-0.037-0.127-0.128-0.229-0.231-0.324c-0.213-0.188-0.37-0.412-0.474-0.682c-0.043-0.138-0.054-0.293-0.042-0.456
				c0.017-0.156,0.096-0.359,0.26-0.428l0.047,0.033c0.046,0.277,0.204,0.407,0.301,0.638c0.083,0.224,0.165,0.472,0.187,0.756
				c0.015,0.14,0.042,0.273,0.119,0.384c0.076,0.11,0.207,0.197,0.297,0.313c0.082,0.118,0.115,0.265,0.114,0.424
				c0.004,0.144-0.066,0.372-0.227,0.438L57.723,90.076z"/>
		</g>
		<g>
			<path fill="#692E14" d="M13.289,103.106c-0.133,0.104-0.219,0.18-0.351,0.062c-0.123-0.117-0.122-0.276-0.028-0.392
				c0.171-0.11,0.328-0.181,0.451-0.079C13.456,102.792,13.386,103.009,13.289,103.106z"/>
		</g>
		<g>
			<path fill="#692E14" d="M12.472,104.033c-0.071,0.134-0.307,0.211-0.368,0.089c-0.15-0.123-0.142-0.358-0.074-0.449
				c0.154-0.124,0.297-0.148,0.4-0.065C12.629,103.719,12.643,103.925,12.472,104.033z"/>
		</g>
		<g>
			<path fill="#692E14" d="M11.797,103.11c-0.089,0.097-0.237,0.135-0.338,0.054c-0.093-0.069-0.022-0.207,0.051-0.323
				c0.036-0.087,0.247-0.105,0.298-0.034C11.934,102.865,11.847,103.033,11.797,103.11z"/>
		</g>
		<g>
			<path fill="#692E14" d="M12.939,102.131c-0.226,0.201-0.649,0.288-0.825,0.207c-0.1-0.113-0.163-0.255,0.24-0.524
				c0.214-0.21,0.603-0.402,0.856-0.308C13.271,101.59,13.112,101.839,12.939,102.131z"/>
		</g>
		<g>
			<path fill="#692E14" d="M58.488,100.95c0.148,0.377-0.039,0.808-0.369,0.958c-0.253,0.048-0.677-0.148-0.787-0.604
				c-0.167-0.278,0.305-0.665,0.585-0.711C58.085,100.476,58.484,100.714,58.488,100.95z"/>
		</g>
		<g>
			<path fill="#692E14" d="M58.542,99.663c0.01,0.147-0.013,0.321-0.263,0.428c-0.38,0.035-0.591-0.1-0.714-0.304
				c-0.021-0.206,0.082-0.277,0.425-0.323C58.264,99.381,58.325,99.419,58.542,99.663z"/>
		</g>
		<g>
			<path fill="#692E14" d="M56.988,97.738c0.172,0.238,0.071,0.508-0.177,0.507c-0.266,0.082-0.382,0.024-0.491-0.285
				c-0.022-0.219,0.036-0.457,0.23-0.491C56.791,97.368,56.912,97.516,56.988,97.738z"/>
		</g>
		<g>
			<path fill="#692E14" d="M10.891,103.396c-0.13-0.139-0.482-0.085-0.547,0.074c-0.203,0.159-0.182,0.397-0.097,0.554
				c0.26,0.142,0.525,0.105,0.655-0.103C11.177,103.749,11.171,103.56,10.891,103.396z M10.932,103.672
				c-0.036,0.072-0.163,0.336-0.346,0.26c-0.122-0.034-0.229-0.333-0.114-0.461c0.107-0.067,0.229-0.029,0.289,0.002
				C10.908,103.53,11.059,103.619,10.932,103.672z"/>
		</g>
	</g>
	<g id="left_leg_details">
		<defs>
			<path id="clipping_mask_4_" inkscape:connector-curvature="0" d="M8.602,108.719h22.471V66.498H8.602V108.719z"/>
		</defs>
		<clipPath id="clipping_mask_6_">
			<use xlink:href="#clipping_mask_4_"  overflow="visible"/>
		</clipPath>
		<path id="color-2_1_" clip-path="url(#clipping_mask_6_)" fill="#9AC43F" d="M16.516,65.985l0.615,16.597
			c-1.936-2.656-4.924-5.636-9.542-8.125l-0.673,1.248c10.421,5.617,12.187,14.039,12.203,14.124l0.627-0.121l1.021,20.611h11
			V65.985H16.516z"/>
		<path id="color-1_1_" clip-path="url(#clipping_mask_6_)" fill="#00954D" d="M6.444,73.84l1.313-2.512
			c10.924,5.71,14.511,16.549,14.919,17.89h0.071l0.628,9.601c0,0,0.893,3.25,9.385,7.138c0.229,1.009-0.377,4.12-0.377,4.12H5.73
			l1.688-2.699c0,0,11.48-0.563,12.016-2.309c0.617-2.013-0.134-3.732-0.347-4.96c-0.153-3.374-0.014-8.362-0.319-10.26
			C18.48,88.068,15.864,78.764,6.444,73.84z"/>
		<path id="shading_2_" clip-path="url(#clipping_mask_6_)" fill="#68917C" d="M17.749,71.013l0.115,2.472l0.269,4.939
			c0.105,1.643,0.204,3.294,0.392,4.916c0.025,0.201,0.053,0.403,0.09,0.592c0.021,0.104,0.034,0.164,0.069,0.256l0.106,0.287
			c0.146,0.382,0.292,0.765,0.459,1.139l0.743,2.371c-0.461-0.695-0.871-1.418-1.275-2.148l-0.457-1.161l-0.108-0.293
			c-0.04-0.101-0.075-0.241-0.093-0.34c-0.042-0.217-0.069-0.424-0.097-0.632c-0.191-1.657-0.288-3.302-0.395-4.952l-0.27-4.946
			l-0.117-2.474c0.058-0.828,0.092-1.656,0.177-2.485C17.509,69.373,17.617,70.194,17.749,71.013z"/>
		<g id="battle_scars_2_" clip-path="url(#clipping_mask_6_)">
			<g>
				<polygon fill="#EFF0ED" points="18.39,99.781 20.383,101.236 17.976,100.691 				"/>
			</g>
			<g>
				<path fill="none" d="M19.247,103.101"/>
			</g>
			<g>
				<path fill="none" d="M18.94,104.319"/>
			</g>
			<g>
				<polygon fill="#EFF0ED" points="17.855,90.089 20.767,91.394 17.748,91.378 				"/>
			</g>
			<g>
				<polygon fill="#EFF0ED" points="18.549,94.978 19.85,96.101 18.211,96.148 				"/>
			</g>
			<g>
				<polygon fill="#EFF0ED" points="17.475,90.836 19.773,91.902 17.297,92.041 				"/>
			</g>
			<g>
				<polygon fill="#EFF0ED" points="19.483,96.604 19.057,97.292 18.593,96.734 20.06,97.13 18.625,97.507 18.305,97.592 
					18.302,97.119 18.296,96.331 				"/>
			</g>
		</g>
		<g id="under_armor_3_" clip-path="url(#clipping_mask_6_)">
			<path d="M6.901,89.538c-1.185,0.907-1.35,5.373,0,5.401c5.306,0.112,6.544-1.417,6.544-1.417l-0.991-3.134
				C12.454,90.388,10.29,90.967,6.901,89.538z"/>
			<path d="M32.774,89.538c1.185,0.907,1.35,5.373,0,5.401c-5.306,0.112-6.544-1.417-6.544-1.417l0.991-3.134
				C27.221,90.388,29.385,90.967,32.774,89.538z"/>
			<path d="M33.683,65.217l0.151,23.248c0,0,0.468-0.74-2.256-3.962c-2.862-3.386-3.544-9.119-5.173-14.982
				c-0.617-2.221-6.514-2.399-8.805-2.399c-7.418,0-9.946,2.864-9.946,2.864s-0.188-4.607-0.188-4.769H33.683z"/>
		</g>
		<g id="knee_pad_2_" clip-path="url(#clipping_mask_6_)">
			<path fill="none" stroke="#000000" stroke-width="0.5669" d="M14.317,96.447c0.195,1.295,1.63,2.354,3.189,2.354h4.38
				c1.559,0,3.058-1.06,3.331-2.354c0.273-1.294,0.974-3.413,1.559-4.708s-0.213-2.354-1.772-2.354H14.672
				c-1.559,0-2.356,1.06-1.772,2.354S14.122,95.153,14.317,96.447z"/>
		</g>
	</g>
</g>
<g id="arms">
	<g id="right">
		<path id="arms_base" inkscape:connector-curvature="0" fill="#EFF0ED" stroke="#605F61" stroke-width="0.3125" d="M85.729,108.019
			c1.463-1.132,3.679-3.146,6.063-6.383c0.618-0.84,1.247-1.76,1.877-2.767l-5.685-5.685c0,0-1.88-1.736-1.794-4.534
			c0,0,1.354-14.479-0.677-17.774c-2.927-4.75-7.1-3.993-7.1-3.993c-10.11,0.864-10.317,9.087-10.317,9.087s-0.07,9.775-0.026,14.57
			c0.046,4.795,3.344,7.492,3.344,7.492l12.537,11.191C83.951,109.224,84.627,108.871,85.729,108.019L85.729,108.019z"/>
		<g id="right_arm">
			<defs>
				<path id="SVGID_3_" d="M71.602,97.821c-0.041-0.033-3.205-2.686-3.249-7.283C68.31,85.8,68.379,76.07,68.379,75.972
					c0.009-0.32,0.33-7.975,10.059-8.807c0.038-0.006,0.261-0.043,0.63-0.043c1.143,0,4.033,0.38,6.204,3.902
					c1.959,3.178,0.649,17.456,0.636,17.6c-0.09,2.911,1.803,4.694,1.884,4.769l5.517,5.517c-0.56,0.885-1.146,1.744-1.745,2.559
					c-2.376,3.226-4.578,5.221-6.008,6.326c-0.752,0.582-1.306,0.929-1.567,1.083L71.602,97.821z"/>
			</defs>
			<clipPath id="SVGID_4_">
				<use xlink:href="#SVGID_3_"  overflow="visible"/>
			</clipPath>
			<polygon clip-path="url(#SVGID_4_)" fill="#00954D" points="87.774,89.818 64.107,91.235 64.107,76.568 87.774,76.568 			"/>
			<path clip-path="url(#SVGID_4_)" stroke="#605F61" stroke-width="0.3125" d="M87.691,92.068l-4.862,2.539l-0.671-0.897
				c0,0-4.646,3.197-6.365,4.976c-0.869,0.115-3.102-1.034-3.102-1.034l-3.642,2.309l-3.601-9.175c0,0,9.457,0.317,12.35-0.777
				c0.54-0.204,1.823-1.419,1.823-1.419l7.702,0.338L87.691,92.068z"/>
			<polygon clip-path="url(#SVGID_4_)" fill="#9AC43F" stroke="#00954D" stroke-width="0.4252" points="87.161,108.568 
				81.286,99.551 84.675,96.651 93.223,102.005 			"/>
			<g id="shadow_1_" clip-path="url(#SVGID_4_)">
				<path fill="#004A2D" d="M84.084,84.107c-0.598,1.439-2.361,2.618-3.921,2.618h-5.36c-1.56,0-3.388-1.149-4.063-2.555
					l-1.652-3.432c-0.676-1.405-1.371-3.822-1.544-5.372l-0.645-5.741c-0.173-1.55,0.96-2.817,2.52-2.817h14.996
					c1.56,0,2.756,1.273,2.658,2.829l-0.355,5.718c-0.098,1.556-0.665,4.008-1.263,5.447L84.084,84.107z"/>
			</g>
			<g clip-path="url(#SVGID_4_)">
				<path fill="#9AC43F" d="M84.084,82.733c-0.598,1.439-2.361,2.618-3.921,2.618h-5.36c-1.56,0-3.388-1.149-4.063-2.555
					l-1.652-3.432c-0.676-1.405-1.371-3.822-1.544-5.372l-0.645-5.741c-0.173-1.55,0.96-2.817,2.52-2.817h14.996
					c1.56,0,2.756,1.273,2.658,2.829l-0.355,5.718c-0.098,1.556-0.665,4.008-1.263,5.447L84.084,82.733z"/>
				<path fill="none" stroke="#000000" stroke-width="0.5669" d="M84.084,82.733c-0.598,1.439-2.361,2.618-3.921,2.618h-5.36
					c-1.56,0-3.388-1.149-4.063-2.555l-1.652-3.432c-0.676-1.405-1.371-3.822-1.544-5.372l-0.645-5.741
					c-0.173-1.55,0.96-2.817,2.52-2.817h14.996c1.56,0,2.756,1.273,2.658,2.829l-0.355,5.718c-0.098,1.556-0.665,4.008-1.263,5.447
					L84.084,82.733z"/>
			</g>
			
				<line clip-path="url(#SVGID_4_)" fill="none" stroke="#605F61" stroke-width="2.126" x1="77.341" y1="62.9" x2="77.341" y2="79.401"/>
			<g clip-path="url(#SVGID_4_)">
				<path fill="#A2A1A3" d="M83.382,70.512c-0.417,2.378-0.854,4.752-1.319,7.12c-0.118,0.595-0.214,1.179-0.362,1.782
					c-0.179,0.627-0.533,1.169-0.985,1.613c-0.456,0.44-1.013,0.776-1.626,0.96c-0.308,0.088-0.63,0.133-0.949,0.139l-0.905,0.004
					c-0.587-0.01-1.239,0.043-1.854-0.181c-0.606-0.196-1.156-0.542-1.605-0.985c-0.449-0.441-0.809-0.99-0.984-1.607
					c-0.159-0.6-0.28-1.179-0.415-1.771c-0.54-2.352-1.054-4.71-1.545-7.074c0.645,2.327,1.267,4.659,1.862,6.997l0.45,1.744
					c0.16,0.544,0.489,1.037,0.902,1.434c0.411,0.398,0.916,0.707,1.459,0.876c0.536,0.192,1.119,0.139,1.73,0.144
					c0.614-0.007,1.207,0.053,1.742-0.108c0.546-0.157,1.054-0.454,1.47-0.849c0.413-0.394,0.74-0.894,0.898-1.428l0.399-1.756
					C82.265,75.209,82.813,72.859,83.382,70.512z"/>
			</g>
			<g clip-path="url(#SVGID_4_)">
				<path fill="#00954D" d="M83.045,97.944c0.405,0.113,0.769,0.27,1.133,0.424l0.774,0.782l1.557,1.556l1.556,1.557l0.778,0.778
					c0.153,0.366,0.309,0.729,0.428,1.129c-0.4-0.119-0.763-0.274-1.129-0.428l-0.778-0.778l-1.557-1.556l-1.556-1.557l-0.782-0.774
					C83.315,98.712,83.159,98.349,83.045,97.944z"/>
			</g>
		</g>
	</g>
	<g id="left_1_">
		<path id="arms_base_2_" inkscape:connector-curvature="0" fill="#EFF0ED" stroke="#605F61" stroke-width="0.3125" d="
			M105.95,107.988c1.101,0.852,1.777,1.205,1.777,1.205l12.537-11.191c0,0,3.298-2.697,3.344-7.492
			c0.044-4.795-0.026-14.57-0.026-14.57s-0.207-8.223-10.317-9.087c0,0-4.173-0.757-7.1,3.993
			c-2.031,3.295-0.677,17.774-0.677,17.774c0.086,2.798-1.794,4.534-1.794,4.534l-5.685,5.685c0.63,1.007,1.259,1.927,1.877,2.767
			C102.27,104.841,104.486,106.856,105.95,107.988L105.95,107.988z"/>
		<g id="left_arm">
			<defs>
				<path id="SVGID_5_" d="M120.076,97.79c0.041-0.033,3.205-2.686,3.249-7.283c0.043-4.737-0.026-14.468-0.026-14.565
					c-0.009-0.32-0.33-7.975-10.059-8.807c-0.038-0.006-0.261-0.043-0.63-0.043c-1.143,0-4.033,0.38-6.204,3.902
					c-1.959,3.178-0.649,17.456-0.636,17.6c0.09,2.911-1.803,4.694-1.884,4.769l-5.517,5.517c0.56,0.885,1.146,1.744,1.745,2.559
					c2.376,3.226,4.578,5.221,6.008,6.326c0.752,0.582,1.306,0.929,1.567,1.083L120.076,97.79z"/>
			</defs>
			<clipPath id="SVGID_6_">
				<use xlink:href="#SVGID_5_"  overflow="visible"/>
			</clipPath>
			<polygon clip-path="url(#SVGID_6_)" fill="#00954D" points="103.904,89.787 127.571,91.204 127.571,76.537 103.904,76.537 			"/>
			<path clip-path="url(#SVGID_6_)" stroke="#605F61" stroke-width="0.3125" d="M103.987,92.037l4.862,2.539l0.671-0.897
				c0,0,4.646,3.197,6.365,4.976c0.869,0.115,3.102-1.034,3.102-1.034l3.642,2.309l3.601-9.175c0,0-9.457,0.317-12.35-0.777
				c-0.54-0.204-1.823-1.419-1.823-1.419l-7.702,0.338L103.987,92.037z"/>
			<g id="shadow" clip-path="url(#SVGID_6_)">
				<path fill="#004A2D" d="M107.593,84.107c0.598,1.439,2.361,2.618,3.921,2.618h5.36c1.56,0,3.388-1.149,4.063-2.555l1.652-3.432
					c0.676-1.405,1.371-3.822,1.544-5.372l0.645-5.741c0.173-1.55-0.96-2.817-2.52-2.817h-14.996c-1.56,0-2.756,1.273-2.658,2.829
					l0.355,5.718c0.098,1.556,0.665,4.008,1.263,5.447L107.593,84.107z"/>
			</g>
			<g clip-path="url(#SVGID_6_)">
				<path fill="#EFF0ED" d="M107.593,82.702c0.598,1.439,2.361,2.618,3.921,2.618h5.36c1.56,0,3.388-1.149,4.063-2.555l1.652-3.432
					c0.676-1.405,1.371-3.822,1.544-5.372l0.645-5.741c0.173-1.55-0.96-2.817-2.52-2.817h-14.996c-1.56,0-2.756,1.273-2.658,2.829
					l0.355,5.718c0.098,1.556,0.665,4.008,1.263,5.447L107.593,82.702z"/>
				<path fill="none" stroke="#000000" stroke-width="0.5669" d="M107.593,82.702c0.598,1.439,2.361,2.618,3.921,2.618h5.36
					c1.56,0,3.388-1.149,4.063-2.555l1.652-3.432c0.676-1.405,1.371-3.822,1.544-5.372l0.645-5.741
					c0.173-1.55-0.96-2.817-2.52-2.817h-14.996c-1.56,0-2.756,1.273-2.658,2.829l0.355,5.718c0.098,1.556,0.665,4.008,1.263,5.447
					L107.593,82.702z"/>
			</g>
			
				<line clip-path="url(#SVGID_6_)" fill="none" stroke="#605F61" stroke-width="2.126" x1="114.336" y1="64.286" x2="114.336" y2="79.37"/>
			<g clip-path="url(#SVGID_6_)">
				<path fill="#A2A1A3" d="M108.295,70.481c0.569,2.347,1.117,4.697,1.638,7.054l0.399,1.756c0.158,0.534,0.485,1.034,0.898,1.428
					c0.416,0.395,0.924,0.691,1.47,0.849c0.535,0.161,1.128,0.102,1.742,0.108c0.611-0.005,1.194,0.049,1.73-0.144
					c0.543-0.169,1.048-0.478,1.459-0.876c0.413-0.396,0.742-0.89,0.902-1.434l0.45-1.744c0.596-2.338,1.218-4.67,1.862-6.997
					c-0.491,2.364-1.005,4.723-1.545,7.074c-0.135,0.592-0.256,1.171-0.415,1.771c-0.176,0.617-0.535,1.166-0.984,1.607
					c-0.449,0.443-0.999,0.789-1.605,0.985c-0.615,0.224-1.268,0.171-1.854,0.181l-0.905-0.004
					c-0.319-0.006-0.642-0.051-0.949-0.139c-0.613-0.184-1.17-0.52-1.626-0.96c-0.452-0.444-0.807-0.986-0.985-1.613
					c-0.148-0.604-0.244-1.188-0.362-1.782C109.149,75.233,108.712,72.859,108.295,70.481z"/>
			</g>
			<polygon clip-path="url(#SVGID_6_)" fill="#9AC43F" stroke="#00954D" stroke-width="0.4252" points="104.411,108.568 
				110.286,99.551 106.896,96.651 98.348,102.005 			"/>
			<g clip-path="url(#SVGID_6_)">
				<path fill="#00954D" d="M108.461,97.944c-0.113,0.405-0.27,0.769-0.424,1.133l-0.782,0.774l-1.556,1.557l-1.557,1.556
					l-0.778,0.778c-0.366,0.153-0.729,0.309-1.129,0.428c0.119-0.4,0.274-0.763,0.428-1.129l0.778-0.778l1.556-1.557l1.557-1.556
					l0.774-0.782C107.693,98.213,108.056,98.057,108.461,97.944z"/>
			</g>
		</g>
	</g>
</g>
</svg>
