<?xml version="1.0" encoding="utf-8"?>
<!-- Generator: Adobe Illustrator 15.1.0, SVG Export Plug-In . SVG Version: 6.00 Build 0)  -->
<!DOCTYPE svg PUBLIC "-//W3C//DTD SVG 1.1//EN" "http://www.w3.org/Graphics/SVG/1.1/DTD/svg11.dtd">
<svg version="1.1" xmlns="http://www.w3.org/2000/svg" xmlns:xlink="http://www.w3.org/1999/xlink" x="0px" y="0px"
	 width="130.394px" height="113.386px" viewBox="0 0 130.394 113.386" enable-background="new 0 0 130.394 113.386"
	 xml:space="preserve">
<g id="toroso">
	<path id="torso" inkscape:connector-curvature="0" fill="#EFF0ED" stroke="#A2A1A3" stroke-width="0.3125" d="M7.984,63.537
		c8.732-47.294,5.343-42.679,14.268-42.856h23.44c8.926,0.177,5.535-4.438,14.264,42.856H7.984z"/>
	<g id="design_1_">
		<defs>
			<path id="clipping_mask_4_" inkscape:connector-curvature="0" d="M8.503,63.108c8.559-46.349,5.236-41.826,13.982-42h22.972
				c8.747,0.173,5.425-4.349,13.979,42H8.503z"/>
		</defs>
		<clipPath id="clipping_mask_1_">
			<use xlink:href="#clipping_mask_4_"  overflow="visible"/>
		</clipPath>
		<g id="chest_armor" clip-path="url(#clipping_mask_1_)">
			<path fill="#605F61" d="M41.94,22.568H26.406c0,0-10.625,16.375-7.999,30.266c8.783-4.724,20.95-5.307,31.532,0
				C52.565,38.943,41.94,22.568,41.94,22.568z"/>
			<linearGradient id="gradient_shading_1_" gradientUnits="userSpaceOnUse" x1="33.9707" y1="54.2954" x2="33.9707" y2="49.5121">
				<stop  offset="0" style="stop-color:#EFF0ED;stop-opacity:0"/>
				<stop  offset="1" style="stop-color:#605F61"/>
			</linearGradient>
			<path id="gradient_shading" fill="url(#gradient_shading_1_)" d="M49.317,52.76l-7.049-2.701l-4.266-0.76H29.94l-4.266,0.76
				l-7.05,2.701c0,0,11.469,1.535,15.347,1.535C37.848,54.295,49.317,52.76,49.317,52.76z"/>
			<g id="waist">
				<polyline fill="none" stroke="#A2A1A3" stroke-width="0.5669" stroke-linejoin="round" points="58.077,59.993 56.961,60.717 
					44.102,57.43 33.97,57.372 23.837,57.43 10.979,60.717 9.864,59.993 				"/>
				<polyline fill="none" stroke="#605F61" stroke-width="0.4252" stroke-linejoin="round" points="58.077,59.568 56.961,60.292 
					44.102,57.005 33.97,56.947 23.837,57.005 10.979,60.292 9.864,59.568 				"/>
				<polygon fill="none" stroke="#605F61" stroke-width="0.4252" stroke-linejoin="round" points="9.561,61.955 5.838,61.085 
					6.6,56.211 10.41,56.52 				"/>
				<polygon fill="none" stroke="#605F61" stroke-width="0.4252" stroke-linejoin="round" points="58.379,61.955 62.102,61.085 
					61.34,56.211 57.53,56.52 				"/>
			</g>
			<g id="chest_shading_1_">
				<path id="collar_1_" fill="#A2A1A3" d="M45.712,21.598c-0.027-0.027-0.071-0.028-0.099-0.002
					c-0.676,0.65-1.489,1.23-2.558,1.826c-0.893,0.489-1.864,0.904-2.886,1.232c-1.019,0.32-2.046,0.551-3.055,0.682
					c-0.787,0.105-1.826,0.226-2.885,0.226c-0.086,0-0.173-0.001-0.263-0.003c-1.143,0.018-2.292-0.109-3.144-0.223
					c-1.009-0.131-2.037-0.361-3.055-0.682c-1.021-0.328-1.993-0.742-2.887-1.232c-1.068-0.596-1.882-1.176-2.558-1.826
					c-0.028-0.025-0.072-0.025-0.099,0.002c-0.027,0.027-0.029,0.07-0.002,0.099c0.648,0.683,1.472,1.327,2.516,1.97
					c0.891,0.541,1.863,1.009,2.891,1.39c1.029,0.376,2.074,0.659,3.104,0.841c1.035,0.187,2.166,0.305,3.188,0.332
					c0.006,0.002,0.014,0.004,0.021,0.004c0.002,0,0.027-0.002,0.03-0.002c0.002,0,0.017,0.002,0.019,0.002
					c0.007,0,0.014-0.002,0.021-0.004c1.022-0.027,2.153-0.146,3.189-0.332c1.03-0.182,2.075-0.465,3.104-0.841
					c1.026-0.38,1.999-0.848,2.892-1.39c1.043-0.643,1.866-1.287,2.515-1.97C45.741,21.668,45.74,21.625,45.712,21.598z"/>
				<path fill="#A2A1A3" d="M57.862,49.291c0,0-3.074,1.264-4.635,1.725c-0.779,0.23-1.564,0.449-2.334,0.607
					c-0.361,0.076-0.82,0.139-1.018,0.123c-0.334-0.049-0.666-0.176-1.043-0.316c-1.475-0.584-3.123-1.502-4.514-1.951
					c-1.566-0.504-3.64-0.754-4.079-1.293c-0.389-0.477,1.406-6.347,1.406-6.347s1.451-5.006,1.918-5.275
					c0.451-0.26,3.976,0.826,5.3,1.303c1.043,0.376,3.043,1.619,4.15,1.568c0.678-0.031,1.877-0.391,2.803-2.215
					c0.414-0.814-0.758,0.425-0.758,0.425l-1.947,1.019l-3.715-1.68l-5.013-1.902c0,0-0.45-0.428-0.272-1.027l0.523-1.559
					l1.102-3.102c0.76-2.061,1.561-4.105,2.402-6.137c-0.271,0.514-2.035,4.35-2.035,4.35l-2.816,7.182
					c0,0.002-3.748,12.865-4.592,13.373c-0.951,0.57-4.27,0.541-4.701,0.535v-0.002c0,0-0.016,0-0.025,0c-0.008,0-0.023,0-0.023,0
					v0.002c-0.432,0.006-3.752,0.035-4.701-0.535c-0.845-0.508-4.594-13.373-4.594-13.373l-2.816-7.182c0,0-1.763-3.836-2.034-4.35
					c0.843,2.031,1.644,4.076,2.401,6.137l1.103,3.102l0.524,1.559c0.178,0.6-0.272,1.027-0.272,1.027l-5.014,1.902l-3.714,1.68
					l-1.947-1.019c0,0-1.172-1.522-0.759-0.708c0.925,1.824,2.126,2.467,2.804,2.498c1.107,0.051,3.105-1.192,4.15-1.568
					c1.324-0.477,4.848-1.563,5.299-1.303c0.467,0.27,1.918,5.275,1.918,5.275s1.795,5.871,1.406,6.347
					c-0.439,0.539-2.512,0.789-4.078,1.293c-1.393,0.449-3.04,1.367-4.514,1.951c-0.379,0.141-0.709,0.268-1.044,0.316
					c-0.197,0.016-0.656-0.047-1.017-0.123c-0.771-0.158-1.556-0.377-2.334-0.607c-1.561-0.461-4.637-1.725-4.637-1.725
					l-0.274,0.842l8.359,2.385l9.112-3.105h13.392l9.112,3.105l8.359-2.385L57.862,49.291z"/>
			</g>
			<path id="chest_outline_1_" d="M49.833,52.831c-0.732-0.047-2.17-0.573-3.834-1.183l-0.868-0.321
				c-1.956-0.729-3.979-1.483-5.862-1.608c-0.263-0.004-0.53-0.006-0.797-0.006c-0.918,0-1.838,0.021-2.67,0.038
				c-0.688,0.015-1.315,0.028-1.832,0.028s-1.145-0.014-1.832-0.028c-0.832-0.018-1.751-0.038-2.67-0.038
				c-0.267,0-0.534,0.002-0.798,0.006c-1.883,0.125-3.907,0.879-5.864,1.609l-0.865,0.32c-1.664,0.609-3.101,1.136-3.834,1.183
				L18,52.833c-1.788,0-7.986-2.431-8.249-2.534l0.191-0.564c0.687,0.239,6.432,2.477,8.021,2.477l0.103-0.004
				c0.643-0.041,2.106-0.576,3.655-1.144c2.127-0.778,4.769-1.745,6.618-1.92c-0.353-1.876-0.817-3.939-1.487-6.46
				c-0.579-2.157-1.256-4.392-2.013-6.641l-0.288-0.816c-3.988,0.924-5.693,1.869-7.341,2.782c-0.269,0.149-0.536,0.297-0.812,0.444
				c-0.399,0.213-1.013,0.468-1.665,0.468c-0.094,0-0.189-0.005-0.284-0.017c-1.024-0.122-1.924-1.438-1.962-1.495l0.477-0.357
				c0.253,0.324,0.944,1.16,1.559,1.232c0.068,0.008,0.137,0.012,0.205,0.012c0.556,0,1.102-0.246,1.377-0.393
				c0.239-0.127,0.802-0.439,0.802-0.439c1.679-0.93,3.415-1.892,7.474-2.813c-1.396-3.89-2.973-7.771-4.706-11.498l0.13-0.092
				c2.083,4.237,3.893,8.556,5.417,12.851c0.796,2.248,1.511,4.48,2.126,6.635c0.73,2.583,1.218,4.606,1.583,6.556
				c0.002-0.002,0.059-0.004,0.16-0.004c0.732,0,3.773,0.062,4.879,0.062c1.267,0,5.065-0.08,5.065-0.08
				c0.336-1.919,0.824-3.941,1.556-6.534c0.613-2.149,1.329-4.382,2.127-6.635c1.521-4.293,3.331-8.612,5.379-12.837l0.152,0.042
				c-1.719,3.764-3.295,7.645-4.671,11.572c4.041,0.884,5.775,1.846,7.453,2.776c0,0,0.568,0.315,0.803,0.439
				c0.275,0.147,0.821,0.393,1.377,0.393c0.068,0,0.137-0.003,0.205-0.012c0.612-0.072,1.304-0.908,1.519-1.225l0.509,0.311
				c-0.088,0.18-0.96,1.416-1.955,1.534c-0.095,0.011-0.189,0.017-0.283,0.017c-0.65,0-1.265-0.254-1.665-0.468
				c-0.275-0.146-0.542-0.294-0.811-0.444c-1.649-0.913-3.354-1.857-7.375-2.763l-0.095,0.341l-0.159,0.456
				c-0.757,2.247-1.434,4.481-2.014,6.641c-0.672,2.53-1.137,4.594-1.462,6.493c1.824,0.142,4.466,1.108,6.588,1.886
				c1.559,0.57,3.019,1.104,3.659,1.145l0.104,0.004c1.59,0,7.335-2.237,7.984-2.492l0.244,0.543
				c-0.279,0.141-6.489,2.571-8.266,2.571L49.833,52.831z"/>
			<g id="under_armor">
				<path id="left_shoulder" d="M6.159,37.068c0,0,6.781,1.188,7.375-0.709c2.094-8.884,4.34-9.572,4.396-16.938
					c-2.357-2.742-11.771-2.978-11.771-2.978V37.068z"/>
				<ellipse id="collar" cx="33.97" cy="19.318" rx="11.78" ry="5.313"/>
				<path id="right_shoulder" d="M50.011,19.421c0.056,7.366,2.302,8.053,4.396,16.938c0.594,1.897,7.375,0.709,7.375,0.709V16.443
					C61.782,16.443,52.368,16.679,50.011,19.421z"/>
			</g>
		</g>
		<g id="dirt" clip-path="url(#clipping_mask_1_)">
			<path fill="#692E14" d="M52.732,61.119c0.171,0.104,0.31,0.081,0.353-0.085c0.102-0.091,0.012-0.279-0.102-0.373
				c-0.157-0.087-0.398-0.006-0.432,0.199C52.423,60.92,52.617,61.066,52.732,61.119z"/>
			<path fill="#692E14" d="M48.633,60.465c0.118-0.094,0.18-0.262,0.143-0.446c-0.036-0.173-0.209-0.241-0.361-0.149
				c-0.12,0.033-0.222,0.23-0.19,0.395C48.275,60.321,48.487,60.465,48.633,60.465z"/>
			<path fill="#692E14" d="M49.464,55.57c-0.021-0.107-0.253-0.146-0.355-0.066c-0.147,0.022-0.234,0.121-0.228,0.268
				c0.058,0.186,0.194,0.187,0.329,0.179C49.347,55.844,49.503,55.73,49.464,55.57z"/>
			<path fill="#692E14" d="M51.021,55.673c0.017-0.071,0.093-0.165,0.167-0.177c0.089,0.07,0.107,0.131,0.094,0.218
				c-0.009,0.105-0.054,0.113-0.139,0.117C51.062,55.76,50.987,55.744,51.021,55.673z"/>
			<path fill="#692E14" d="M14.125,57.436c0.086,0.162-0.133,0.206-0.395,0.141c-0.136,0.053-0.436-0.011-0.473-0.227
				c-0.013-0.122,0.298-0.396,0.553-0.329C13.975,56.941,14.171,57.152,14.125,57.436z"/>
			<path fill="#692E14" d="M15.317,56.051c-0.042,0.04-0.255,0.247-0.396,0.26c-0.205-0.085-0.316-0.133-0.298-0.262
				c-0.021-0.259,0.071-0.433,0.279-0.409C15.103,55.583,15.279,55.833,15.317,56.051z"/>
			<path fill="#692E14" d="M15.488,55.184c0.017,0.193-0.046,0.302-0.172,0.26c-0.155-0.008-0.257-0.104-0.284-0.212
				c0.026-0.125,0.156-0.226,0.293-0.208C15.424,55.052,15.509,55.086,15.488,55.184z"/>
			<path fill="#692E14" d="M14.296,55.676c0.041,0.195-0.059,0.319-0.26,0.316c-0.11,0.065-0.217-0.106-0.19-0.27
				c-0.022-0.144,0.047-0.394,0.251-0.468C14.262,55.417,14.331,55.541,14.296,55.676z"/>
			<path fill="#692E14" d="M14.274,55.02c-0.052-0.19-0.019-0.329,0.083-0.432c0.064-0.043,0.155-0.066,0.209-0.113
				c0.053-0.049,0.079-0.117,0.113-0.196c0.063-0.173,0.247-0.277,0.392-0.306c0.155-0.012,0.298,0.021,0.449,0.139l0.005,0.043
				c-0.118,0.15-0.245,0.215-0.355,0.262c-0.12,0.026-0.198,0.021-0.336,0.036c-0.067,0.01-0.129,0.046-0.158,0.105
				c-0.027,0.063-0.012,0.151-0.021,0.222c-0.045,0.127-0.151,0.221-0.345,0.262L14.274,55.02z"/>
			<path fill="#692E14" d="M46.507,59.967c-0.083,0.055-0.186,0.207-0.294,0.094c-0.15-0.102-0.106-0.208-0.031-0.377
				c0.061-0.014,0.222-0.167,0.363-0.145C46.644,59.731,46.607,59.833,46.507,59.967z"/>
			<path fill="#692E14" d="M15.314,57.773c0.028,0.253-0.308,0.382-0.524,0.456c-0.254-0.144-0.593-0.422-0.569-0.711
				c0.076-0.167,0.416-0.51,0.642-0.562C15.255,57.088,15.415,57.449,15.314,57.773z"/>
			<path fill="#692E14" d="M52.146,57.647c-0.124,0.105-0.333,0.063-0.4-0.052c-0.122-0.169-0.053-0.422,0.149-0.504
				c0.149-0.009,0.26,0.035,0.343,0.183C52.338,57.481,52.34,57.648,52.146,57.647z"/>
			<path fill="#692E14" d="M47.366,56.297c0.29-0.034,0.341,0.094,0.319,0.404c-0.034,0.233-0.129,0.341-0.369,0.258
				c-0.227-0.021-0.358-0.156-0.35-0.438C47.048,56.335,47.152,56.198,47.366,56.297z"/>
			<path fill="#692E14" d="M50.636,60.202c0.112,0.1,0.067,0.327-0.07,0.379c-0.14,0.143-0.314,0.061-0.379-0.053
				c-0.127-0.066-0.049-0.312,0.104-0.445C50.413,60.015,50.559,60.08,50.636,60.202z"/>
			<path fill="#692E14" d="M51.915,61.542c-0.173,0.111-0.391-0.259-0.231-0.475c0.053-0.43,0.389-0.492,0.682-0.28
				c0.13-0.077,0.318,0.301,0.268,0.584C52.518,61.577,52.21,61.727,51.915,61.542z"/>
			<path fill="#692E14" d="M49.977,57.167c0.208,0.003,0.338,0.032,0.336,0.374c0.026,0.298-0.066,0.359-0.346,0.339
				c-0.222,0.132-0.484-0.04-0.521-0.399C49.406,57.272,49.708,57.153,49.977,57.167z"/>
			<path fill="#692E14" d="M44.825,55.431c0.231-0.206,0.573-0.272,0.863-0.182c0.282,0.137,0.492,0.355,0.816,0.276
				c0.144-0.001,0.233,0.104,0.354,0.178c0.118,0.09,0.268,0.036,0.362-0.077c0.196-0.152,0.435-0.185,0.749-0.249l0.027,0.033
				c-0.117,0.28-0.355,0.562-0.703,0.536c-0.176-0.051-0.31-0.094-0.465-0.048c-0.155,0.033-0.331,0.053-0.447-0.048
				c-0.192-0.277-0.492-0.291-0.759-0.254c-0.256-0.017-0.48-0.049-0.788-0.125L44.825,55.431z"/>
		</g>
		<g id="cammo" clip-path="url(#clipping_mask_1_)">
			<path fill="#9E2D3A" d="M40.159,30.911l-1.272,1.354l-0.597-2.397c0,0-1.028,0.627-1.04,1.015
				c-0.044,1.434-2.132,3.852-1.872,4.156c0.427,0.498,2.173-0.739,2.173-0.739s-1.143,3.873-0.945,4.313
				c0.355,0.326,1.697-1.136,1.642-1.457c-0.165-0.949,2.351-2.261,1.502-3.304c1.105-0.307,2.854-1.338,2.321-1.856
				c-0.218-0.21-1.217,0.086-1.217,0.086L40.159,30.911z"/>
			<path fill="#9E2D3A" d="M26.951,26.013c0.883,0.617-0.663,1.658-0.663,1.658l0.551,0.621l-2.233,1.442
				C24.606,29.734,26.332,25.768,26.951,26.013C27.213,26.027,27.206,26.113,26.951,26.013z"/>
			<path fill="#9E2D3A" d="M20.08,31.255c0,0-1.233-2.344-0.546-2.688c0.319-0.16,2.312,3.38,2.587,3.697
				c0.725,0.834,1.779,1.925,1.175,1.889c-0.316-0.135-0.856,0.32-1.606-0.148c-0.406,1.219-2.571,1-2.571,1s-0.011-1.048,0.24-1.24
				c0.416-0.318,1.425-0.604,1.831-1.416C21.018,31.533,20.08,31.255,20.08,31.255z"/>
			<path fill="#9E2D3A" d="M28.929,34.573c-0.222-0.667-0.215-1.38-0.179-2.086c0.027-0.713,0.21-1.417,0.543-2.042
				c0.373-0.606,0.797-1.168,1.263-1.681c0.453-0.524,0.73-0.292,0.431,0.305c-0.305,0.592-0.653,1.256-0.817,1.879
				c-0.081,0.316,0.195,0.68,0.221,1.005c0.044,0.331-0.171,0.569-0.291,0.852C29.814,33.357,29.445,33.889,28.929,34.573z"/>
			<path fill="#9E2D3A" d="M45.846,38.849c-0.625-0.125,0.125-0.781-0.232-1.265c-0.696-0.942-1.316,1.181-2.049,1.421
				c-0.899,0.296,0.499,1.106,1.161,0.952c0.678-0.157-0.245,2.322-0.286,2.455c-0.522,1.693,1.531,0.458,2.397,1.729
				c0.102,0.315-0.832,1.387-0.765,1.711c0.318,0.263,1.578-0.375,1.93-0.158c0.582,0.699-0.969,1.125-0.969,1.125
				s0.344,0.938,0.375,1.563c0.052,1.03,0.472,1.122,1.098,0.306c0.439-0.573,0.409-3.01,1.316-2.647
				c0.734,0.296-0.916-4.094-1.094-4.406c-0.344-0.604-0.984,1.331-1.813,0.563c-0.777-0.722-0.727-1.658-0.727-1.658
				S46.269,38.934,45.846,38.849z"/>
			<path fill="#9E2D3A" d="M27.461,38.88c0,0-0.886-1.286-0.854-1.833c0.021-0.354,0.854-0.354,0.854-0.354l-0.042-0.729
				c0,0-0.032-0.292,0.042-0.333c0.137-0.079,0.581,0.252,0.581,0.252l0,0l0.356,0.727l0.357,0.898l0.172,1.679l-0.053,0.048
				l-0.046-0.036c0,0-0.402-1.144-0.621-1.48c-0.097-0.15-0.491-0.52-0.491-0.52s-0.364,0.306-0.401,0.452
				c-0.05,0.197,0.188,0.792,0.188,0.792L27.461,38.88z"/>
		</g>
	</g>
</g>
<g id="helmet">
	<g id="coloring_cammo">
		<path fill="#9E2D3A" d="M91.476,34.999c-0.062-0.306-0.301-0.383-0.53-0.173l-0.212,0.193c-0.229,0.21-0.365,0.632-0.3,0.937
			l1.014,4.766c0.065,0.305,0.019,0.32-0.104,0.033l-0.849-1.998c-0.122-0.287-0.24-0.306-0.263-0.043
			c-0.023,0.264-0.123,0.237-0.222-0.058l-0.641-1.925c-0.099-0.295-0.367-0.365-0.597-0.154l-0.208,0.191
			c-0.229,0.211-0.333,0.618-0.229,0.905c0.104,0.286,0.351,0.717,0.549,0.958l0.277,0.334c0.198,0.24,0.445,0.652,0.549,0.916
			s0.021,0.285-0.182,0.049l-0.262-0.306c-0.203-0.237-0.488-0.494-0.635-0.571c-0.146-0.077-0.224,0.112-0.173,0.419l0.014,0.078
			c0.051,0.308,0.202,0.79,0.338,1.07l0.591,1.229c0.136,0.281,0.099,0.303-0.083,0.049l-0.884-1.243
			c-0.182-0.254-0.418-0.701-0.526-0.994l-0.587-1.587c-0.108-0.292-0.391-0.366-0.628-0.163l-0.529,0.454
			c-0.237,0.203-0.319,0.599-0.183,0.879l3.341,6.857c0.137,0.28,0.455,0.36,0.708,0.179l2.789-2.006
			c0.253-0.182,0.409-0.581,0.348-0.887L91.476,34.999z"/>
		<path fill="#9E2D3A" d="M101.709,34.999c0.062-0.306,0.279-0.387,0.484-0.181c0.205,0.207,0.384,0.63,0.398,0.941l0.029,0.617
			c0.016,0.312,0.282,0.549,0.593,0.527l0.28-0.02c0.311-0.022,0.407,0.123,0.214,0.322s-0.146,0.39,0.106,0.424
			c0.253,0.034,0.269,0.233,0.037,0.441l-0.058,0.051c-0.231,0.208-0.457,0.473-0.5,0.589s0.17,0.151,0.474,0.079l0.377-0.09
			c0.304-0.072,0.756-0.285,1.005-0.473l0.457-0.344c0.249-0.188,0.646-0.175,0.884,0.028l0.529,0.454
			c0.237,0.203,0.319,0.599,0.183,0.879l-3.341,6.857c-0.137,0.28-0.455,0.36-0.708,0.179l-0.183-0.132
			c-0.253-0.182-0.467-0.49-0.475-0.685c-0.008-0.195-0.054-0.535-0.102-0.756c-0.047-0.22-0.021-0.646,0.061-0.948l0.339-1.27
			c0.081-0.301,0.004-0.336-0.169-0.077l-1.263,1.881c-0.173,0.259-0.522,0.322-0.775,0.14l-0.223-0.159
			c-0.253-0.183-0.409-0.581-0.348-0.887l0.209-1.04c0.062-0.306,0.23-0.669,0.376-0.809c0.145-0.139,0.181-0.318,0.08-0.398
			c-0.101-0.081-0.132-0.396-0.07-0.702l0.029-0.144c0.062-0.306,0.239-0.632,0.394-0.725c0.154-0.093,0.412-0.376,0.573-0.628
			c0.16-0.252,0.089-0.451-0.158-0.442c-0.248,0.009-0.399-0.233-0.338-0.539L101.709,34.999z"/>
		<path fill="#9E2D3A" d="M90.399,2.359c-0.414,0.226-0.042,1.612-0.042,2.083c0,0.473,0.334,0.569,0.334,1.042
			s0.103,0.664,0.188,1.128c0.016,0.086,0.107,0.063,0.194,0.063s0.83-1.098,1.158-1.317c0.33-0.22-0.121-0.947,0.209-1.167
			c0.329-0.22,0.459,0.711,0.854,0.733c0.297,0.017,0.13,0.457,0.295,0.705c0.166,0.249,0.345,0.13,0.511,0.379
			c0.166,0.248-0.183,0.639,0.08,0.78c0.262,0.141,0.394-0.454,0.691-0.454s0.298,0.532,0.597,0.532s0.188-0.164,0.349-0.416
			c0.252-0.398,0.566-0.314,0.566-0.785c0-0.473-0.27-0.473-0.27-0.945s0.345-0.68-0.069-0.908c-0.754-0.415-1.334-0.225-2.188-0.33
			C93.001,3.38,91.155,1.946,90.399,2.359z"/>
		<path fill="#9E2D3A" d="M88.562,55.577c0.625-0.75,0.517-1.032,2.329-1.657s2.604-1.769,3.166-2.706s1.086-0.427,1.461-0.239
			s1.734-1.722,1.984-1.722s1.114,0.707,2.052,1.332s1.978,1.201,1.103,1.389s-1.729,0.257-1.541,0.632
			c1.155,2.311,1.34,3.95,0.465,2.888s-0.6-0.533-1.175,0.041c-0.728,0.728-1.462,0.647-2.024,0.46s-0.733-0.012-3.018-0.207
			C91.176,55.599,90.862,56.295,88.562,55.577z"/>
		<path fill="#9E2D3A" d="M80.357,9.818c-0.229-0.372-1.981-1.189-2.41-1.275c-0.436-0.082-0.937-0.149-1.355-0.112
			c-0.419,0.027-0.803,0.22-1.131,0.023c-0.328-0.185-0.744-0.413-1.106-0.64c-0.359-0.235-0.701-0.724-1.07-0.592
			c-0.372,0.118-0.466,0.986-0.788,1.207c-1.309,0.648-2.647,0.872-3.754,1.436c-0.028,0.014-0.036-0.002-0.064,0.012
			c-0.192,0.098-0.323,0.484-0.255,0.695c0.076,0.234,0.532,0.659,0.767,0.583c1.139-0.369,2.198-0.722,3.354-0.818
			c1.132-0.072,2.132-0.011,2.955,0.76c0.208,0.173,0.38,1.252,0.483,1.431c0.096,0.185,1.06,0.59,1.234,0.727
			c0.02,0.013-0.175,0.318-0.156,0.332c-0.487,0.185-1.564,0.813-1.937,1.117c-0.738,0.63-0.893,1.112-0.492,2.689
			c0.021,0.072,1.917-0.096,1.996-0.091c1.61,0.125,3.089-2.312,3.188-2.024c0.817,2.258,1.148,5.666,0.083,6.542
			c-1.103,0.233-2.185,1.835-2.833,2.042c-2.711,0.86-2.648,0.991-2.694,1.1c-0.106,0.253,0.297,0.656,0.55,0.762
			c0.604,0.254,4.645,0.673,5.287,0.45c0.15-0.021,0.311-0.368,0.516-0.353c0.247,0.038,0.486,0.026,0.732,0.041
			c0.521,0.044,1.051,0.265,1.278,0.09c0.264-0.16,0.076-0.426-0.25-0.803c-0.17-0.19-0.129-0.55-0.293-0.715
			c-0.185-0.175-0.153-0.256-0.187-0.365c0.001-0.382-0.04-0.686-0.011-1.034c0.202-1.357,0.312-2.654,0.417-3.99
			c0.108-1.334,0.223-2.738-0.022-4.09c-0.159-0.635-0.133-1.623-0.046-1.658c0.408-0.169,0.194-0.932,0.369-1.4
			c0.155-0.516,0.231-0.965,0.265-1.989C82.978,9.863,80.586,10.188,80.357,9.818z"/>
		<path fill="#9E2D3A" d="M113.325,47.925c-1.25-0.734-1.454-0.57-2.293-1.753c-0.277-0.39,0.925,0.312,0.925-0.167
			c0-0.757-1.691-1.015-0.947-1.151c1.991-0.365,2.128-0.203,4.025,0.503c0.691,0.257,0.837,0.535,0.821,1.273
			c-0.021,1.048-0.097,1.215-0.854,1.939C114.375,49.167,114.067,48.361,113.325,47.925z"/>
		<path fill="#9E2D3A" d="M106.329,45.626c0.641-0.146-0.21,0.648,0.089,1.233c0.555,1.087,2.7,1.571,1.511,1.842
			c-1.623,0.369-1.79-0.293-2.908-1.524C104.295,46.378,105.31,45.858,106.329,45.626z"/>
		<path fill="#9E2D3A" d="M81.351,55.016c-0.243-0.759-1.011-0.605-0.85-1.386c0.522-2.519,2.219-5.421-0.612-2.095
			c-0.625,0.734-2.053,0.529-1.745-0.003c0.199-0.368,2.058-1.766,2.189-2.165c0.146-0.395,1.055-1.373,1.295-2.978
			c0.081-0.541-0.874-0.353-0.764-0.763c0.1-0.416,0.213-0.689-0.287-1.069c-0.424,0.261-1.991,3.872-4.179,5.56
			c-3.938,1-4.104,0.896-2.579,2.146c0.119,0.151,1.461,1.433,3.385,2.415c1.157,0.592,2.587,0.771,3.977,0.979
			C81.593,55.601,81.465,55.371,81.351,55.016z"/>
		<path fill="#9E2D3A" d="M122.297,24.793c-0.142-0.314-0.466-0.625-0.749-1.007c-1.661-0.082-1.196,0.652-2.857,0.531l-1.251-0.625
			c1.536-0.112,1.886-1.783,3.125-1.75c1.382,0.037,1.634-2.008,1.74-2.826c0.137-1.055-0.607-1.568-1.888-2.468
			c-0.917-0.644-1.575-0.144-2.141,0.828c-0.557,0.955-1.005,2.391-1.939,1.807c-1.442-0.901-0.901-2.07-0.819-3.133
			c0.066-0.865,0.3-1.163-0.328-2.333c-1.208,1.003-3.112,1.433-4.341,2.412l-0.068-0.073c1.12-1.183,1.641-2.431,2.784-3.588
			c-0.529-1.027-0.239-1.671-0.865-2.045c-0.441,0.61-2.211-0.604-2.738-1.685c-0.606-1.243,0.311-2.282,0.505-3.147
			c0.218-0.968-0.208-1.62-1.397-2.609c-0.93-0.771-1.49-1.463-2.137-1.151c-0.552,0.267-0.717,1.417-1.479,2.114
			c-0.813,0.743-1.614,0.868-1.691,1.409c-0.071,0.498,0.671,1.21,0.451,2.198c-0.199,0.896-0.721,1.573-0.618,2.126
			c0.133,0.721,0.609,1.479-0.514,1.887c-0.943,0.342-0.521,4.709-0.767,3.778c-1.75-6.625-2.684-6.48-2.684-6.48
			s-0.579,1.822-0.066,2.98c0.512,1.154,0.977,2.505-0.15,3.379c-0.153,0.119-0.291,0.179-0.421,0.214
			c0.101,1.13,0.188,2.262,0.246,3.399l-0.1,0.017c-0.346-1.229-0.663-2.463-0.956-3.701c-0.26-0.267-0.494-0.654-0.754-1.011
			c-0.438-0.602-1.415-0.872-2.127-1.405c-0.709-0.532-0.645-1.896-1.065-2.663c-0.569-1.034-1.154-1.361-2.089-0.613
			c-1.245,0.997-1.401,1.998-0.995,3.188c0.396,1.158,1.378,2.482,0.259,3.557c-0.704,0.676-0.934-0.581-1.333-1.423
			c-0.344-0.726-0.972-0.955-1.772-0.699c-0.947,0.303-1.758,0.32-1.901,0.945c-0.125,0.543,0.611,1.332,0.551,2.193
			c-0.097,1.366-0.589,2.142-0.33,2.824c0.252,0.665,1.251,1.168,1.405,2.496c0.146,1.256-0.778,2.016-0.852,2.661
			c-0.084,0.734,0.313,1.845,1.344,2.853c0.736-0.009,1.57-1.952,2.417-1.917c3.983,0.164,8.888-0.204,13.916-0.167
			c0.758,0.006,1.509,0.011,2.249,0.016c0.348,0.002,0.655-0.824,1.585-2.016c0.267-0.341,1.335-0.499,1.583-0.833
			c0.787-1.056,1.917-1.667,1.917-1.667s-1.996,4.539-1.584,4.542c4.238,0.038,7.942,0.101,10.5,0.291
			C121.979,25.202,122.631,25.538,122.297,24.793z M105.403,16.61c0-0.299,0.233-0.62,0.371-0.62s0.609,0.321,0.609,0.62
			c0,0.299-0.472-0.055-0.609-0.055S105.403,16.909,105.403,16.61z M106.608,23.283c-0.23,0-0.531-0.216-0.531-0.423
			s0.301-0.292,0.531-0.292c0.229,0,0.342,0.084,0.342,0.292S106.837,23.283,106.608,23.283z M107.774,20.313
			c-0.276,0-0.769,0.133-0.769-0.121c0-0.253,0.492-0.667,0.769-0.667s0.183,0.667,0.183,0.667S108.05,20.313,107.774,20.313z"/>
	</g>
	<g id="lines" display="none">
		<line display="inline" fill="none" stroke="#A2A1A3" stroke-width="0.4252" x1="84.856" y1="29.322" x2="84.856" y2="3.311"/>
		<line display="inline" fill="none" stroke="#A2A1A3" stroke-width="0.4252" x1="108.33" y1="29.322" x2="108.33" y2="3.311"/>
	</g>
	<path fill="#246EB7" d="M98.974,44.223c0.084-0.162,0.147-0.339,0.181-0.523l1.599-10.036l22.654-0.261
		c0.779,0,1.417-0.638,1.417-1.418c0,0,0.597-1.867,0.283-2.376c-0.208-0.337-0.779-0.283-1.559-0.283c0,0-22.449,0-23.229,0
		c0,0-3.633,0-3.666,0c-0.034,0-27.02,0-27.02,0c-0.779,0-1.352-0.054-1.559,0.283c-0.313,0.51,0.283,2.376,0.283,2.376
		c0,0.78,0.638,1.418,1.417,1.418l22.654,0.261L94.03,43.7c0.033,0.186,0.097,0.361,0.181,0.523"/>
	<path d="M94.21,44.223l-10.745,7.783c-0.145,0.105-0.203,0.299-0.13,0.471c0.085,0.197,0.314,0.289,0.513,0.205l12.744-5.458
		l12.745,5.458c0.164,0.07,0.36,0.02,0.47-0.131c0.127-0.174,0.088-0.418-0.087-0.545l-10.746-7.783c0,0-1.636-0.142-2.382-0.142
		S94.21,44.223,94.21,44.223z"/>
	<g id="speaker">
		<circle cx="86.28" cy="53.696" r="0.875"/>
		<circle cx="106.905" cy="53.697" r="0.875"/>
		<polygon points="98.469,55.008 94.715,55.008 94.999,52.383 98.186,52.383 		"/>
	</g>
</g>
<g id="legs">
	<g id="base">
		<rect x="36.771" y="66.391" fill="#EFF0ED" stroke="#A2A1A3" stroke-width="0.3118" width="22.697" height="42.435"/>
		<rect x="8.489" y="66.391" fill="#EFF0ED" stroke="#A2A1A3" stroke-width="0.3118" width="22.697" height="42.435"/>
	</g>
	<g id="right_leg_details">
		<defs>
			<path id="clipping_mask_2_" inkscape:connector-curvature="0" d="M59.355,108.719H36.884V66.498h22.471V108.719z"/>
		</defs>
		<clipPath id="clipping_mask_5_">
			<use xlink:href="#clipping_mask_2_"  overflow="visible"/>
		</clipPath>
		<g id="color_1_" clip-path="url(#clipping_mask_5_)">
			<polygon fill="#9E2D3A" points="57.815,102.201 57.814,102.179 57.377,102.693 56.617,101.958 55.234,101.183 54.627,101.86 
				54.586,102.985 53.669,101.922 53.634,101.281 53.631,101.303 50.862,101.521 50.159,104.051 50.174,106.474 49.096,102.146 
				47.46,102.588 46.669,101.63 44.127,102.276 43.023,102.36 42.268,106.849 42.152,102.288 41.798,102.294 41.377,102.735 
				41.402,102.206 40.21,102.255 39.315,101.818 38.794,102.255 38.835,102.526 37.46,102.485 38.276,102.137 37.473,100.818 
				35.565,100.818 35.565,110.63 62.44,110.63 62.44,100.818 			"/>
			<g>
				<path fill="#9E2D3A" d="M45.774,97.402c-0.456-0.352-0.775-0.788-1.043-1.244c-0.294-0.448-0.336-1.003-0.475-1.511
					c-0.277-1.016-0.515-2.042-0.649-3.078c0.319,0.993,0.732,1.947,1.183,2.877c0.23,0.465,0.579,0.874,0.704,1.377
					C45.644,96.318,45.766,96.823,45.774,97.402z"/>
			</g>
			<g>
				<path fill="#9E2D3A" d="M50.44,97.319c0.088-0.531,0.213-1.048,0.346-1.562l0.192-0.773c0.037-0.127,0.052-0.263,0.107-0.383
					c0.058-0.119,0.142-0.228,0.213-0.342l1.392-2.857c-0.175,0.498-0.328,1.004-0.453,1.521l-0.403,1.54
					c-0.029,0.13,0.154,0.341,0.179,0.491c0.003,0.143-0.11,0.24-0.16,0.362l-0.389,0.699C51.162,96.464,50.856,96.913,50.44,97.319
					z"/>
			</g>
			<path fill="#9E2D3A" d="M58.502,77.13c-0.248,0-1.09-0.987-1.438-0.938c-0.289,0.041-0.108,0.916-0.313,1.125
				c-0.207,0.212-1.063,0.128-1.125,0.375c-0.05,0.185,0.131,1.147,0.563,1.5c0.242,0.198,0.774-0.173,0.875-0.063
				c0.703,0.771,1.411,1.826-0.223,2.331c-0.672,0.208-0.548-0.224-1.152-0.144c-0.729,0.099-0.943,0.578-1.501,0.736
				c-1.06,0.301-2.355,0.945-2.374,1.326c-0.02,0.381,1.55,0.021,2.642,0.191c0.586,0.087,0.98-0.013,1.76,0
				c0.651,0.009,1.343,0.159,2.081,0.107c0.078-0.006,0.303,0.112,0.38,0.107c0.199,0.552,0.445,1.229,0.736,1.603
				c-0.729,0.031-1.582,0.497-2.386,0.568c-0.981,0.088-4.358-0.695-5.213-0.577c-0.625,0.5,1.162,0.57,0.375,0.75
				c-1.573,0.362-3.203,0.848-3.254,1.214c-0.051,0.368,1.334,0.345,2.941,0.411c0.233,0.009,1.068,0.263,1.487,0.221
				c0.395-0.039,0.513-0.654,0.779-0.691c0.444-0.061,1.125,0.682,1.608,0.658c0.908-0.046,0.335-0.604,1.351-0.705
				c0.6-0.06,0.965,0.53,1.541,0.58c0.398,0.034,1.021-0.453,1.39-0.509c0.86-0.132-0.094-5.866-1.281-8.304
				C58.444,78.372,58.619,77.13,58.502,77.13z"/>
		</g>
		<g id="details" clip-path="url(#clipping_mask_5_)">
			<g>
				<path fill="#A2A1A3" d="M36.771,90.103c1.161-1.291,2.424-2.476,3.561-3.758c0.282-0.313,0.581-0.638,0.77-0.976
					c0.175-0.342,0.245-0.773,0.328-1.186c0.14-0.84,0.2-1.703,0.27-2.568c0.107,0.863,0.13,1.734,0.055,2.611
					c-0.038,0.44-0.109,0.876-0.308,1.318c-0.224,0.425-0.514,0.747-0.798,1.083C39.451,87.902,38.17,89.07,36.771,90.103z"/>
			</g>
			<g id="shading">
				<g>
					<path fill="#A2A1A3" d="M54.851,66.995c0.118,0.941,0.189,1.883,0.282,2.825l-0.008,2.824c-0.03,1.881,0.052,3.768-0.094,5.662
						c-0.109,1.883-0.216,3.762-0.402,5.648c-0.066,0.952-0.342,1.918-0.63,2.806c-0.383,0.873-0.771,1.735-1.216,2.574
						c0.229-0.92,0.479-1.829,0.676-2.748c0.289-0.901,0.539-1.76,0.606-2.691c0.184-1.861,0.291-3.744,0.4-5.62
						c0.144-1.864,0.063-3.748,0.093-5.632l0.003-2.824C54.657,68.877,54.731,67.936,54.851,66.995z"/>
					<path fill="#A2A1A3" d="M41.388,66.995c0.12,0.941,0.194,1.883,0.289,2.824l0.003,2.824c0.03,1.884-0.051,3.768,0.093,5.632
						c0.109,1.876,0.217,3.759,0.4,5.62c0.067,0.932,0.317,1.79,0.606,2.691c0.197,0.919,0.446,1.828,0.676,2.748
						c-0.444-0.839-0.833-1.701-1.216-2.574c-0.288-0.888-0.563-1.854-0.63-2.806c-0.187-1.887-0.293-3.766-0.402-5.648
						c-0.146-1.895-0.063-3.781-0.094-5.662l-0.008-2.824C41.199,68.877,41.27,67.936,41.388,66.995z"/>
				</g>
			</g>
		</g>
		<g id="under_armor_1_" clip-path="url(#clipping_mask_5_)">
			<path d="M35.159,89.538c-1.185,0.907-1.35,5.373,0,5.401c5.306,0.112,6.544-1.417,6.544-1.417l-0.991-3.134
				C40.711,90.388,38.547,90.967,35.159,89.538z"/>
			<path d="M34.273,65.217l-0.151,23.248c0,0-0.467-0.74,2.256-3.962c2.862-3.386,3.544-9.119,5.173-14.982
				c0.617-2.221,6.514-2.399,8.805-2.399c7.418,0,9.946,2.864,9.946,2.864s0.188-4.607,0.188-4.769H34.273z"/>
			<path d="M61.032,89.538c1.185,0.907,1.35,5.373,0,5.401c-5.306,0.112-6.544-1.417-6.544-1.417l0.991-3.134
				C55.479,90.388,57.643,90.967,61.032,89.538z"/>
		</g>
		<g id="knee_pad" clip-path="url(#clipping_mask_5_)">
			<path fill="none" stroke="#000000" stroke-width="0.5669" d="M53.64,96.447c-0.195,1.295-1.63,2.354-3.189,2.354h-4.379
				c-1.56,0-3.059-1.06-3.331-2.354c-0.272-1.294-0.975-3.413-1.559-4.708s0.213-2.354,1.772-2.354h10.33
				c1.56,0,2.356,1.06,1.772,2.354S53.835,95.153,53.64,96.447z"/>
		</g>
	</g>
	<g id="Left_leg_details">
		<defs>
			<path id="clipping_mask_3_" inkscape:connector-curvature="0" d="M8.602,66.498h22.471v42.222H8.602V66.498z"/>
		</defs>
		<clipPath id="clipping_mask_6_">
			<use xlink:href="#clipping_mask_3_"  overflow="visible"/>
		</clipPath>
		<g id="color_2_" clip-path="url(#clipping_mask_6_)">
			<g>
				<path fill="#9E2D3A" d="M22.446,97.402c0.008-0.579,0.13-1.084,0.281-1.579c0.125-0.503,0.473-0.912,0.704-1.377
					c0.45-0.93,0.863-1.884,1.183-2.877c-0.134,1.036-0.372,2.063-0.65,3.078c-0.138,0.508-0.18,1.063-0.474,1.511
					C23.222,96.614,22.902,97.05,22.446,97.402z"/>
			</g>
			<g>
				<path fill="#9E2D3A" d="M17.78,97.319c-0.167-0.52-0.323-1.025-0.5-1.523c-0.091-0.248-0.189-0.492-0.295-0.731
					c-0.045-0.122-0.123-0.233-0.148-0.361c-0.03-0.127-0.009-0.272-0.06-0.394c-0.105-0.239-0.284-0.448-0.431-0.663
					c-0.126-0.226-0.194-0.478-0.284-0.722c-0.198-0.48-0.343-0.993-0.531-1.522c0.271,0.126,0.514,0.296,0.717,0.492
					c0.22,0.188,0.408,0.4,0.564,0.633c0.154,0.231,0.363,0.443,0.404,0.73c0.031,0.293-0.025,0.608,0.097,0.854
					c0.056,0.124,0.339,0.169,0.46,0.277c0.096,0.115,0.071,0.271,0.108,0.405c0.045,0.278,0.079,0.558,0.105,0.836
					C17.993,96.193,17.963,96.764,17.78,97.319z"/>
			</g>
			<g>
				<path fill="#9E2D3A" d="M22.545,96.916c-0.132-0.497-0.142-0.987-0.163-1.479c-0.006-0.489,0.087-0.973,0.148-1.459
					c0.111-0.972,0.239-1.942,0.381-2.912l0.057,0.004c0.021,0.979,0.026,1.959,0.015,2.938c0,0.489,0.032,0.98-0.035,1.466
					c-0.082,0.483-0.153,0.969-0.346,1.446L22.545,96.916z"/>
			</g>
			<path fill="#9E2D3A" d="M9.44,87.068c0.678-0.029,0.532,1.108,1.137,1.182c0.293,0.036,2.288-0.325,2.529-0.682
				c0.152-0.224-1.012-0.636-1.083-0.583c0.28-0.194,0.522-0.429,0.727-0.701c-0.277,0.522-5.234-0.63-5.66-1.213
				c-0.411-0.563,0.889-1.158,1.194-1.387c1.071-0.799-0.843-1.761-0.094-2.449c0.182-0.167,2.582,1.682,2.598,1.414
				c-0.149-0.515-0.203-1.037-0.16-1.568c0.539-0.429,6.575,3.001,6.012-0.487c-0.175-1.105-2.172,0.842-2.624,0.396
				c-0.43-0.424-2.188-3.113-2.496-1.199c-0.194,1.209-2.529-0.77-2.716-0.992c-1.202-1.43,1.225-1.984,0.524-2.576
				c0.503,0.028,1.003-0.004,1.499-0.098c0.785-0.447,0.391-1.255,1.546-1.035c0.583,0.11,4.813,0.589,4.629-0.831
				c-0.189-0.177-0.42-0.245-0.692-0.203c1.466,0.287,4.203-2.518,1.613-2.096c-0.464,0.296-0.937,0.576-1.419,0.843
				c-0.24-0.231-0.511-0.421-0.811-0.569c0.195-0.002-1.475,0.938-1.352,0.65c0.048,0.277,0.079,0.556,0.092,0.837
				c-1.154,0.41-3.145-0.538-4.13,0.175c-0.507,0.366-0.962-0.185-1.308,0.088c-0.566,0.446-1.346,1.361-2.023,1.962
				C3.774,78.781,3.741,87.339,9.44,87.068C10.021,87.042,9.378,87.071,9.44,87.068z"/>
			<polygon fill="#9E2D3A" points="30.747,100.818 29.944,102.137 29.996,102.163 29.822,102.244 29.906,102.258 29.487,103.943 
				29.381,102.451 28.852,102.602 28.862,103.099 27.252,102.208 26.546,101.646 26.524,100.713 25.473,101.968 26.523,100.684 
				26.472,100.67 25.474,101.917 24.706,102.49 23.99,102.153 24.126,102.155 23.956,102.139 22.639,102.344 22.228,103.232 
				22.273,107.027 21.596,103.38 18.648,102.985 18.648,103.86 17.94,106.069 17.822,103.303 17.159,103.583 17.018,102.943 
				17.174,102.349 16.487,101.833 15.947,101.991 15.203,102.044 15.549,102.49 15.065,102.49 15.039,102.933 13.773,106.569 
				13.468,102.975 13.533,102.893 12.496,102.26 12.529,102.227 12.059,102.407 12.161,102.411 11.922,102.339 12.058,102.346 
				10.731,102.222 9.424,101.037 5.78,100.818 5.78,110.63 32.654,110.63 32.654,100.818 30.747,100.818 30.747,100.818 			"/>
		</g>
		<g id="details_1_" clip-path="url(#clipping_mask_6_)">
			<g id="shading_1_">
				<g>
					<path fill="#A2A1A3" d="M15.173,89.334c-0.448-0.837-0.836-1.7-1.217-2.573c-0.285-0.893-0.562-1.849-0.629-2.807
						c-0.186-1.887-0.292-3.766-0.402-5.648c-0.146-1.889-0.063-3.784-0.094-5.662l-0.005-2.824c0.094-0.942,0.166-1.884,0.28-2.825
						c0.116,0.941,0.19,1.883,0.287,2.824l0.005,2.824c0.03,1.887-0.052,3.763,0.093,5.632c0.109,1.876,0.217,3.759,0.4,5.62
						c0.067,0.927,0.315,1.794,0.608,2.69C14.698,87.503,14.948,88.414,15.173,89.334z"/>
					<path fill="#A2A1A3" d="M24.501,89.334c0.226-0.921,0.475-1.831,0.674-2.749c0.293-0.896,0.541-1.764,0.608-2.69
						c0.183-1.861,0.291-3.744,0.4-5.62c0.145-1.869,0.063-3.745,0.093-5.632l0.005-2.824c0.097-0.941,0.171-1.883,0.287-2.824
						c0.114,0.941,0.186,1.883,0.28,2.825l-0.005,2.824c-0.03,1.878,0.052,3.773-0.094,5.662c-0.109,1.883-0.216,3.762-0.402,5.648
						c-0.067,0.958-0.344,1.914-0.629,2.807C25.338,87.634,24.95,88.498,24.501,89.334z"/>
				</g>
			</g>
			<g>
				<path fill="#A2A1A3" d="M31.145,90.103c-1.399-1.033-2.68-2.201-3.877-3.475c-0.285-0.336-0.574-0.658-0.798-1.083
					c-0.198-0.442-0.269-0.878-0.307-1.318c-0.075-0.877-0.053-1.748,0.055-2.611c0.069,0.865,0.129,1.729,0.27,2.568
					c0.083,0.412,0.153,0.844,0.328,1.186c0.189,0.338,0.487,0.662,0.77,0.976C28.721,87.627,29.984,88.812,31.145,90.103z"/>
			</g>
		</g>
		<g id="under_armor_2_" clip-path="url(#clipping_mask_6_)">
			<path d="M32.798,89.538c1.185,0.907,1.35,5.373,0,5.401c-5.306,0.112-6.544-1.417-6.544-1.417l0.991-3.134
				C27.246,90.388,29.41,90.967,32.798,89.538z"/>
			<path d="M33.683,65.217l0.151,23.248c0,0,0.468-0.74-2.256-3.962c-2.862-3.386-3.544-9.119-5.173-14.982
				c-0.617-2.221-6.514-2.399-8.805-2.399c-7.418,0-9.946,2.864-9.946,2.864s-0.188-4.607-0.188-4.769H33.683z"/>
			<path d="M6.921,89.538c-1.185,0.907-1.35,5.373,0,5.401c5.306,0.112,6.544-1.417,6.544-1.417l-0.991-3.134
				C12.474,90.388,10.31,90.967,6.921,89.538z"/>
		</g>
		<g id="knee_pad_1_" clip-path="url(#clipping_mask_6_)">
			<path fill="none" stroke="#000000" stroke-width="0.5669" d="M14.317,96.447c0.195,1.295,1.63,2.354,3.189,2.354h4.38
				c1.559,0,3.058-1.06,3.331-2.354c0.273-1.294,0.974-3.413,1.559-4.708s-0.213-2.354-1.772-2.354H14.672
				c-1.559,0-2.356,1.06-1.772,2.354S14.122,95.153,14.317,96.447z"/>
		</g>
	</g>
	<g id="dirt_1_">
		<path fill="#692E14" d="M27.896,80.696c-0.142,0.237-0.406,0.394-0.644,0.317c-0.186-0.122-0.263-0.522-0.228-0.702
			c0.175-0.204,0.444-0.368,0.504-0.211C27.915,80.194,28.058,80.492,27.896,80.696z"/>
		<path fill="#692E14" d="M22.714,76.347c-0.108,0.186-0.393,0.404-0.542,0.254c-0.251-0.044-0.369-0.425-0.35-0.604
			c0.191-0.248,0.453-0.251,0.586-0.212C22.642,75.911,22.772,76.143,22.714,76.347z"/>
		<path fill="#692E14" d="M52.613,80.647c-0.121,0.221-0.234,0.233-0.432,0.185c-0.229-0.103-0.4-0.383-0.245-0.577
			c0.041-0.172,0.361-0.325,0.539-0.264C52.714,80.159,52.794,80.409,52.613,80.647z"/>
		<path fill="#692E14" d="M24.449,76.77c0.036-0.029,0.091,0.018,0.113,0.111c0.014,0.075,0.008,0.115-0.073,0.139
			c-0.074,0.012-0.15-0.002-0.197-0.071C24.255,76.878,24.324,76.79,24.449,76.77z"/>
		<path fill="#692E14" d="M23.522,75.839c0.106-0.04,0.173,0.07,0.202,0.174c0.015,0.112-0.056,0.197-0.132,0.197
			c-0.129,0.043-0.17-0.001-0.222-0.095C23.358,76,23.401,75.89,23.522,75.839z"/>
		<path fill="#692E14" d="M19.962,72.45c0.11,0.232,0.166,0.404,0.207,0.594c0.063,0.18,0.017,0.378,0.009,0.593
			c-0.007,0.213,0.129,0.39,0.307,0.499c0.183,0.113,0.288,0.215,0.357,0.394l0.101,0.258l-0.03-0.187
			c0.027,0.171,0.289,0.329,0.542,0.375c0.257,0.044,0.535,0.063,0.778-0.088c0.243-0.151,0.459-0.339,0.717-0.358
			c0.251-0.051,0.511-0.067,0.821,0.016l0.02,0.053c-0.188,0.262-0.436,0.401-0.696,0.485c-0.254,0.115-0.558,0.036-0.839-0.04
			c-0.281-0.078-0.534-0.016-0.805-0.014c-0.257,0.003-0.585,0.034-0.836-0.274l0.07,0.071c-0.292-0.031-0.466-0.254-0.508-0.488
			c-0.048-0.238-0.091-0.441-0.234-0.62c-0.145-0.178-0.281-0.39-0.26-0.623c-0.001-0.224,0.059-0.471,0.224-0.65L19.962,72.45z"/>
		<path fill="#692E14" d="M50.01,80.616c0.109-0.292,0.355-0.45,0.55-0.31c0.331,0.124,0.348,0.425,0.283,0.599
			c-0.23,0.245-0.499,0.399-0.707,0.231C49.998,81.009,49.834,80.816,50.01,80.616z"/>
		<path fill="#692E14" d="M28.506,81.155c0.012,0.201-0.071,0.366-0.366,0.379c-0.17,0.018-0.321-0.203-0.229-0.368
			c-0.091-0.203,0.16-0.368,0.301-0.305C28.446,80.831,28.606,80.924,28.506,81.155z"/>
		<path fill="#692E14" d="M28.544,78.951c-0.133,0.276-0.353,0.469-0.557,0.449c-0.265,0.035-0.742-0.216-0.691-0.531
			c0.117-0.327,0.284-0.434,0.717-0.492C28.217,78.457,28.448,78.612,28.544,78.951z"/>
		<path fill="#692E14" d="M21.695,71.118c0.03,0.201-0.059,0.298-0.243,0.271c-0.211-0.044-0.461-0.134-0.477-0.342
			c0.056-0.143,0.23-0.229,0.47-0.255C21.684,70.796,21.692,70.958,21.695,71.118z"/>
		<path fill="#692E14" d="M22.197,73.001c0.044,0.281-0.123,0.432-0.429,0.383c-0.122-0.062-0.382-0.211-0.41-0.466
			c0.041-0.217,0.203-0.387,0.517-0.413C22.211,72.494,22.268,72.79,22.197,73.001z"/>
		<path fill="#692E14" d="M23.869,70.574c-0.01,0.285-0.296,0.543-0.68,0.61c-0.228-0.023-0.608-0.392-0.665-0.651
			c0.083-0.332,0.418-0.608,0.655-0.666C23.466,69.891,23.813,70.22,23.869,70.574z"/>
		<path fill="#692E14" d="M51.161,79.135c0.094-0.028,0.134,0.036,0.164,0.088c0.025,0.089-0.004,0.13-0.067,0.164
			c-0.071,0.012-0.116-0.013-0.148-0.088C51.077,79.226,51.094,79.157,51.161,79.135z"/>
		<path fill="#692E14" d="M50.293,78.233c0.075-0.061,0.209,0.005,0.188,0.109c0.093,0.128-0.012,0.288-0.128,0.284
			c-0.086,0.033-0.204-0.051-0.244-0.185C50.104,78.367,50.128,78.247,50.293,78.233z"/>
	</g>
</g>
<g id="arms">
	<g id="right">
		<path id="arms_base" inkscape:connector-curvature="0" fill="#EFF0ED" stroke="#A2A1A3" stroke-width="0.3125" d="M85.729,108.019
			c1.463-1.132,3.679-3.146,6.063-6.383c0.618-0.84,1.247-1.76,1.877-2.767l-5.685-5.685c0,0-1.88-1.736-1.794-4.534
			c0,0,1.354-14.479-0.677-17.774c-2.927-4.75-7.1-3.993-7.1-3.993c-10.11,0.864-10.317,9.087-10.317,9.087s-0.07,9.775-0.026,14.57
			c0.046,4.795,3.344,7.492,3.344,7.492l12.537,11.191C83.951,109.224,84.627,108.871,85.729,108.019L85.729,108.019z"/>
		<g id="right_arm">
			<defs>
				<path id="SVGID_1_" d="M71.602,97.821c-0.041-0.033-3.205-2.686-3.249-7.283C68.31,85.8,68.379,76.07,68.379,75.972
					c0.009-0.32,0.33-7.975,10.059-8.807c0.038-0.006,0.261-0.043,0.63-0.043c1.143,0,4.033,0.38,6.204,3.902
					c1.959,3.178,0.649,17.456,0.636,17.6c-0.09,2.911,1.803,4.694,1.884,4.769l5.517,5.517c-0.56,0.885-1.146,1.744-1.745,2.559
					c-2.376,3.226-4.578,5.221-6.008,6.326c-0.752,0.582-1.306,0.929-1.567,1.083L71.602,97.821z"/>
			</defs>
			<clipPath id="SVGID_2_">
				<use xlink:href="#SVGID_1_"  overflow="visible"/>
			</clipPath>
			<path clip-path="url(#SVGID_2_)" fill="#9E2D3A" d="M83.848,84.684c-5.691-2.345-11.384-4.688-17.075-7.033
				c0.456,0.875,0.912,1.75,1.368,2.625c0.714,1.368,1.141,1.445,0.056,2.561c-0.782,0.806,0.381,1.413,1.038,2.161
				c0.627,0.714,1.148,1.521,1.705,2.292c-0.836-0.442-1.672-0.885-2.508-1.327c-0.309,1.203-1.327,3.178-0.712,4.303
				c0.531,0.973,0.479,1.395,1.56,1.406c0.964,0.01,1.927,0.021,2.891,0.03c0.718-1.146,2.02-2.103,2.02-2.103l0.781-0.406v-0.688
				l0.719-0.438l0.594,0.719l0.969,0.094c0,0-0.649,1.238-0.561,1.67c0.362,1.77,0.856,1.076,2.597,0.651
				c2.113-0.517,3.094-0.261,3.844-2.292c0.418-1.132-0.355-0.957-0.117-1.685C83.292,86.378,83.571,85.531,83.848,84.684
				L83.848,84.684z"/>
			<path clip-path="url(#SVGID_2_)" stroke="#605F61" stroke-width="0.3125" d="M87.691,92.068l-4.862,2.539l-0.671-0.897
				c0,0-4.646,3.197-6.365,4.976c-0.869,0.115-3.102-1.034-3.102-1.034l-3.642,2.309l-3.601-9.175c0,0,9.457,0.317,12.35-0.777
				c0.54-0.204,1.823-1.419,1.823-1.419l7.702,0.338L87.691,92.068z"/>
			<polygon clip-path="url(#SVGID_2_)" fill="#9E2D3A" stroke="#6F1923" stroke-width="0.4252" points="87.441,107.734 
				81.107,101.401 84.957,101.943 84.467,100.229 92.024,102.818 			"/>
			<g id="shadow_1_" clip-path="url(#SVGID_2_)">
				<path fill="#6F1923" d="M84.084,84.107c-0.598,1.439-2.361,2.618-3.921,2.618h-5.36c-1.56,0-3.388-1.149-4.063-2.555
					l-1.652-3.432c-0.676-1.405-1.371-3.822-1.544-5.372l-0.645-5.741c-0.173-1.55,0.96-2.817,2.52-2.817h14.996
					c1.56,0,2.756,1.273,2.658,2.829l-0.355,5.718c-0.098,1.556-0.665,4.008-1.263,5.447L84.084,84.107z"/>
			</g>
			<g clip-path="url(#SVGID_2_)">
				<path fill="#EFF0ED" d="M84.084,82.733c-0.598,1.439-2.361,2.618-3.921,2.618h-5.36c-1.56,0-3.388-1.149-4.063-2.555
					l-1.652-3.432c-0.676-1.405-1.371-3.822-1.544-5.372l-0.645-5.741c-0.173-1.55,0.96-2.817,2.52-2.817h14.996
					c1.56,0,2.756,1.273,2.658,2.829l-0.355,5.718c-0.098,1.556-0.665,4.008-1.263,5.447L84.084,82.733z"/>
				<path fill="none" stroke="#000000" stroke-width="0.5669" d="M84.084,82.733c-0.598,1.439-2.361,2.618-3.921,2.618h-5.36
					c-1.56,0-3.388-1.149-4.063-2.555l-1.652-3.432c-0.676-1.405-1.371-3.822-1.544-5.372l-0.645-5.741
					c-0.173-1.55,0.96-2.817,2.52-2.817h14.996c1.56,0,2.756,1.273,2.658,2.829l-0.355,5.718c-0.098,1.556-0.665,4.008-1.263,5.447
					L84.084,82.733z"/>
			</g>
			
				<line clip-path="url(#SVGID_2_)" fill="none" stroke="#605F61" stroke-width="2.126" x1="87.627" y1="74.568" x2="67.138" y2="74.568"/>
			<g clip-path="url(#SVGID_2_)">
				<path fill="#A2A1A3" d="M83.382,70.512c-0.417,2.378-0.854,4.752-1.319,7.12c-0.118,0.595-0.214,1.179-0.362,1.782
					c-0.179,0.627-0.533,1.169-0.985,1.613c-0.456,0.44-1.013,0.776-1.626,0.96c-0.308,0.088-0.63,0.133-0.949,0.139l-0.905,0.004
					c-0.587-0.01-1.239,0.043-1.854-0.181c-0.606-0.196-1.156-0.542-1.605-0.985c-0.449-0.441-0.809-0.99-0.984-1.607
					c-0.159-0.6-0.28-1.179-0.415-1.771c-0.54-2.352-1.054-4.71-1.545-7.074c0.645,2.327,1.267,4.659,1.862,6.997l0.45,1.744
					c0.16,0.544,0.489,1.037,0.902,1.434c0.411,0.398,0.916,0.707,1.459,0.876c0.536,0.192,1.119,0.139,1.73,0.144
					c0.614-0.007,1.207,0.053,1.742-0.108c0.546-0.157,1.054-0.454,1.47-0.849c0.413-0.394,0.74-0.894,0.898-1.428l0.399-1.756
					C82.265,75.209,82.813,72.859,83.382,70.512z"/>
			</g>
		</g>
	</g>
	<g id="left_1_">
		<path id="arms_base_2_" inkscape:connector-curvature="0" fill="#EFF0ED" stroke="#A2A1A3" stroke-width="0.3125" d="
			M105.95,107.988c1.101,0.852,1.777,1.205,1.777,1.205l12.537-11.191c0,0,3.298-2.697,3.344-7.492
			c0.044-4.795-0.026-14.57-0.026-14.57s-0.207-8.223-10.317-9.087c0,0-4.173-0.757-7.1,3.993
			c-2.031,3.295-0.677,17.774-0.677,17.774c0.086,2.798-1.794,4.534-1.794,4.534l-5.685,5.685c0.63,1.007,1.259,1.927,1.877,2.767
			C102.27,104.841,104.486,106.856,105.95,107.988L105.95,107.988z"/>
		<g id="left_arm">
			<defs>
				<path id="SVGID_3_" d="M120.076,97.79c0.041-0.033,3.205-2.686,3.249-7.283c0.043-4.737-0.026-14.468-0.026-14.565
					c-0.009-0.32-0.33-7.975-10.059-8.807c-0.038-0.006-0.261-0.043-0.63-0.043c-1.143,0-4.033,0.38-6.204,3.902
					c-1.959,3.178-0.649,17.456-0.636,17.6c0.09,2.911-1.803,4.694-1.884,4.769l-5.517,5.517c0.56,0.885,1.146,1.744,1.745,2.559
					c2.376,3.226,4.578,5.221,6.008,6.326c0.752,0.582,1.306,0.929,1.567,1.083L120.076,97.79z"/>
			</defs>
			<clipPath id="SVGID_4_">
				<use xlink:href="#SVGID_3_"  overflow="visible"/>
			</clipPath>
			<path clip-path="url(#SVGID_4_)" fill="#9E2D3A" d="M111.875,91.074l4.252-0.693l0.719-0.406l0.875,0.5l0.303-1.078l0.76-0.672
				l0.972,2.307c0,0,4.81,0.943,1.955-2.548c-1.343-1.642,4.035-1.142,3.465-3.185c-1.127-4.035-6.995-2.255-5.863-6.29
				c1.141-4.061-10.985,1.229-13.791,3.782c-1.641,1.493,3.807-1.352,4.734,0.663c0.941,2.048-2.124,1.534-2.161,3.787
				c-0.022,1.38,1.04,0.337,1.9,1.416C111.001,89.918,111.875,91.074,111.875,91.074z"/>
			<path clip-path="url(#SVGID_4_)" stroke="#605F61" stroke-width="0.3125" d="M103.987,92.037l4.862,2.539l0.671-0.897
				c0,0,4.646,3.197,6.365,4.976c0.869,0.115,3.102-1.034,3.102-1.034l3.642,2.309l3.601-9.175c0,0-9.457,0.317-12.35-0.777
				c-0.54-0.204-1.823-1.419-1.823-1.419l-7.702,0.338L103.987,92.037z"/>
			<polygon clip-path="url(#SVGID_4_)" fill="#9E2D3A" stroke="#6F1923" stroke-width="0.4252" points="104.237,107.703 
				110.571,101.37 106.721,101.912 107.21,100.198 99.654,102.787 			"/>
			<g id="shadow" clip-path="url(#SVGID_4_)">
				<path fill="#6F1923" d="M107.593,84.107c0.598,1.439,2.361,2.618,3.921,2.618h5.36c1.56,0,3.388-1.149,4.063-2.555l1.652-3.432
					c0.676-1.405,1.371-3.822,1.544-5.372l0.645-5.741c0.173-1.55-0.96-2.817-2.52-2.817h-14.996c-1.56,0-2.756,1.273-2.658,2.829
					l0.355,5.718c0.098,1.556,0.665,4.008,1.263,5.447L107.593,84.107z"/>
			</g>
			<g clip-path="url(#SVGID_4_)">
				<path fill="#EFF0ED" d="M107.593,82.702c0.598,1.439,2.361,2.618,3.921,2.618h5.36c1.56,0,3.388-1.149,4.063-2.555l1.652-3.432
					c0.676-1.405,1.371-3.822,1.544-5.372l0.645-5.741c0.173-1.55-0.96-2.817-2.52-2.817h-14.996c-1.56,0-2.756,1.273-2.658,2.829
					l0.355,5.718c0.098,1.556,0.665,4.008,1.263,5.447L107.593,82.702z"/>
				<path fill="none" stroke="#000000" stroke-width="0.5669" d="M107.593,82.702c0.598,1.439,2.361,2.618,3.921,2.618h5.36
					c1.56,0,3.388-1.149,4.063-2.555l1.652-3.432c0.676-1.405,1.371-3.822,1.544-5.372l0.645-5.741
					c0.173-1.55-0.96-2.817-2.52-2.817h-14.996c-1.56,0-2.756,1.273-2.658,2.829l0.355,5.718c0.098,1.556,0.665,4.008,1.263,5.447
					L107.593,82.702z"/>
			</g>
			
				<line clip-path="url(#SVGID_4_)" fill="none" stroke="#605F61" stroke-width="2.126" x1="114.336" y1="64.286" x2="114.336" y2="79.37"/>
			<g clip-path="url(#SVGID_4_)">
				<path fill="#A2A1A3" d="M108.295,70.481c0.569,2.347,1.117,4.697,1.638,7.054l0.399,1.756c0.158,0.534,0.485,1.034,0.898,1.428
					c0.416,0.395,0.924,0.691,1.47,0.849c0.535,0.161,1.128,0.102,1.742,0.108c0.611-0.005,1.194,0.049,1.73-0.144
					c0.543-0.169,1.048-0.478,1.459-0.876c0.413-0.396,0.742-0.89,0.902-1.434l0.45-1.744c0.596-2.338,1.218-4.67,1.862-6.997
					c-0.491,2.364-1.005,4.723-1.545,7.074c-0.135,0.592-0.256,1.171-0.415,1.771c-0.176,0.617-0.535,1.166-0.984,1.607
					c-0.449,0.443-0.999,0.789-1.605,0.985c-0.615,0.224-1.268,0.171-1.854,0.181l-0.905-0.004
					c-0.319-0.006-0.642-0.051-0.949-0.139c-0.613-0.184-1.17-0.52-1.626-0.96c-0.452-0.444-0.807-0.986-0.985-1.613
					c-0.148-0.604-0.244-1.188-0.362-1.782C109.149,75.233,108.712,72.859,108.295,70.481z"/>
			</g>
		</g>
	</g>
</g>
</svg>
