<?xml version="1.0" encoding="utf-8"?>
<!-- Generator: Adobe Illustrator 15.1.0, SVG Export Plug-In . SVG Version: 6.00 Build 0)  -->
<!DOCTYPE svg PUBLIC "-//W3C//DTD SVG 1.1//EN" "http://www.w3.org/Graphics/SVG/1.1/DTD/svg11.dtd">
<svg version="1.1" id="explosion-sign" xmlns="http://www.w3.org/2000/svg" xmlns:xlink="http://www.w3.org/1999/xlink" x="0px"
	 y="0px" width="62.362px" height="56.693px" viewBox="0 0 62.362 56.693" enable-background="new 0 0 62.362 56.693"
	 xml:space="preserve">
<g id="explosion-sign_1_">
	<path id="base" fill="#FFCD03" d="M6.071,52.693c-2.339,0-3.295-1.656-2.126-3.682L29.055,5.519c1.17-2.025,3.083-2.025,4.253,0
		l25.109,43.492c1.169,2.025,0.213,3.682-2.126,3.682H6.071z"/>
	<path id="outline" fill="none" stroke="#000000" stroke-width="0.7087" d="M8.103,49.563c-0.78,0-1.099-0.552-0.709-1.228
		L30.47,8.367c0.39-0.675,1.027-0.675,1.417,0l23.076,39.968c0.39,0.676,0.071,1.228-0.709,1.228H8.103z"/>
	<g id="brick">
		<rect x="15.171" y="39.191" transform="matrix(0.9943 -0.1063 0.1063 0.9943 -4.4909 2.2147)" width="6.704" height="8.059"/>
		<rect x="15.81" y="37.309" transform="matrix(0.9943 -0.1062 0.1062 0.9943 -3.9302 2.1192)" width="4.249" height="1.312"/>
	</g>
	<g id="explotion">
		<path d="M23.427,36.667c-0.015,0.031-0.006,0.069,0.024,0.09c0.032,0.022,0.076,0.014,0.099-0.019L36.946,17.13l-2.244-3.887
			L23.427,36.667z"/>
		<path d="M28.075,33.06c-0.024,0.027-0.025,0.068,0,0.096c0.026,0.029,0.07,0.031,0.1,0.005l11.811-10.766l-0.746-1.293
			L28.075,33.06z"/>
		<path d="M28.32,35.316c0,0-1.272,1.211-1.875,1.859c-0.019,0.02-0.025,0.05-0.014,0.076c0.016,0.037,0.058,0.055,0.094,0.039
			l0.006-0.003c1.664-0.699,4.624-2.436,4.624-2.436s10.594-7.191,11.502-7.83l-1.745-3.023
			C38.644,25.982,28.32,35.316,28.32,35.316z"/>
		<path d="M29.645,37.667c-0.03,0.018-0.044,0.055-0.03,0.088c0.015,0.037,0.056,0.055,0.093,0.039l15.532-6.301l-1.216-2.105
			L29.645,37.667z"/>
		<path d="M28.854,39.474c-0.035,0.006-0.062,0.039-0.058,0.076c0.003,0.039,0.038,0.067,0.077,0.064l20.003-1.822l-1.055-1.827
			L28.854,39.474z"/>
		<path d="M34.982,40.727c-0.002,0.039,0.027,0.073,0.066,0.075l16.14,0.996l-0.745-1.291l-15.391,0.153
			C35.016,40.662,34.985,40.69,34.982,40.727z"/>
		<path d="M52.247,43.631l-22.375-1.97c-0.036-0.004-0.069,0.021-0.076,0.059c-0.007,0.038,0.02,0.074,0.059,0.082l23.682,4.063
			L52.247,43.631z"/>
		<path d="M50.47,49.466l-24.464-5.49c-0.036-0.009-0.072,0.012-0.083,0.049c-0.012,0.037,0.01,0.076,0.048,0.088l18.362,5.45h6.355
			C50.618,49.527,50.551,49.484,50.47,49.466z"/>
		<path d="M38.839,48.918l-5.82-1.751c-0.029-0.009-0.063,0.002-0.08,0.029c-0.022,0.032-0.014,0.076,0.02,0.099l3.397,2.268h3.116
			C39.376,49.267,39.159,49.015,38.839,48.918z"/>
		<path d="M25.768,46.105c-0.031-0.012-0.068,0-0.086,0.031c-0.02,0.034-0.008,0.078,0.026,0.098l5.825,3.329h3.766L25.768,46.105z"
			/>
		<path d="M22.745,34.683l6.156-23.6l-4.775,8.176l-1.52,15.396c-0.005,0.035,0.017,0.068,0.052,0.078
			C22.696,34.744,22.735,34.72,22.745,34.683z"/>
		<path d="M20.371,33.48l0.574-8.616l-1.491,2.583l0.775,6.038c0.005,0.033,0.031,0.06,0.066,0.062
			C20.335,33.548,20.369,33.519,20.371,33.48z"/>
		<path d="M18.799,35.011c0.017,0.023,0.047,0.037,0.077,0.029c0.038-0.01,0.062-0.049,0.053-0.088l-0.083-1.207l-1.055-3.418
			L16.8,32.043L18.799,35.011z"/>
	</g>
	<g id="rocks">
		<polygon points="26.847,22.106 26.676,23.823 27.829,23.794 29.738,21.794 29.801,20.698 28.051,20.698 		"/>
		<polygon points="25.199,41.982 28.301,41.982 29.567,39.339 26.051,40.482 		"/>
		<polygon points="35.366,36.208 35.252,36.488 37.553,36.41 37.924,35.287 		"/>
		<polygon points="33.409,43.544 34.401,44.857 36.442,44.857 35.024,43.685 		"/>
		<polygon points="30.722,44.169 31.289,45.419 33.181,45.56 31.801,44.515 		"/>
		<polygon points="25.873,47.373 26.079,46.666 25.666,46.261 24.597,46.107 		"/>
		<polygon points="24.642,36.074 26.142,34.324 24.071,35.335 		"/>
		<polygon points="22.597,26.105 22.597,29.794 23.375,30.826 24.676,22.794 		"/>
		<polygon points="35.301,22.981 36.613,21.669 35.988,20.731 33.056,21.572 33.789,22.981 		"/>
		<polygon points="28.122,39.202 26.088,39.707 26.214,39.291 27.743,38.534 		"/>
		<polygon points="22.479,22.519 20.696,24.926 20.696,25.994 22.055,25.286 		"/>
	</g>
</g>
</svg>
