<?xml version="1.0" encoding="UTF-8" standalone="no"?>
<!-- Created with Inkscape (http://www.inkscape.org/) -->

<svg
   xmlns:dc="http://purl.org/dc/elements/1.1/"
   xmlns:cc="http://creativecommons.org/ns#"
   xmlns:rdf="http://www.w3.org/1999/02/22-rdf-syntax-ns#"
   xmlns:svg="http://www.w3.org/2000/svg"
   xmlns="http://www.w3.org/2000/svg"
   xmlns:xlink="http://www.w3.org/1999/xlink"
   xmlns:sodipodi="http://sodipodi.sourceforge.net/DTD/sodipodi-0.dtd"
   xmlns:inkscape="http://www.inkscape.org/namespaces/inkscape"
   width="52.375"
   height="43.213669"
   id="svg2"
   version="1.1"
   inkscape:version="0.48.2 r9819"
   sodipodi:docname="breastplate.spartan.[CMF1 spartan].svg">
  <defs
     id="defs4">
    <linearGradient
       inkscape:collect="always"
       id="linearGradient4011">
      <stop
         style="stop-color:#ffffff;stop-opacity:1;"
         offset="0"
         id="stop4013" />
      <stop
         style="stop-color:#ffffff;stop-opacity:0;"
         offset="1"
         id="stop4015" />
    </linearGradient>
    <linearGradient
       inkscape:collect="always"
       id="linearGradient3997">
      <stop
         style="stop-color:#ffffff;stop-opacity:1;"
         offset="0"
         id="stop3999" />
      <stop
         style="stop-color:#ffffff;stop-opacity:0;"
         offset="1"
         id="stop4001" />
    </linearGradient>
    <inkscape:path-effect
       effect="skeletal"
       id="path-effect4237"
       is_visible="true"
       pattern="M 0,5 C 0,2.24 2.24,0 5,0 7.76,0 10,2.24 10,5 10,7.76 7.76,10 5,10 2.24,10 0,7.76 0,5 z"
       copytype="single_stretched"
       prop_scale="1"
       scale_y_rel="false"
       spacing="0"
       normal_offset="0"
       tang_offset="0"
       prop_units="false"
       vertical_pattern="false"
       fuse_tolerance="0" />
    <clipPath
       id="clipPath2999"
       clipPathUnits="userSpaceOnUse">
      <path
         id="path3001"
         d="M 0,792 612,792 612,0 0,0 0,792 z"
         inkscape:connector-curvature="0" />
    </clipPath>
    <radialGradient
       gradientUnits="userSpaceOnUse"
       gradientTransform="matrix(0.75988491,-0.03632001,0.13155835,2.7524547,16.986326,-78.268899)"
       r="12.650181"
       fy="46.658409"
       fx="96.306435"
       cy="46.658409"
       cx="96.306435"
       id="radialGradient3972"
       xlink:href="#linearGradient3966"
       inkscape:collect="always" />
    <clipPath
       clipPathUnits="userSpaceOnUse"
       id="clipPath2999-4">
      <path
         inkscape:connector-curvature="0"
         d="M 0,792 612,792 612,0 0,0 0,792 z"
         id="path3001-0" />
    </clipPath>
    <linearGradient
       id="linearGradient3966">
      <stop
         id="stop3968"
         offset="0"
         style="stop-color:#c0ac02;stop-opacity:1;" />
      <stop
         id="stop3970"
         offset="1"
         style="stop-color:#fdea41;stop-opacity:0;" />
    </linearGradient>
    <radialGradient
       inkscape:collect="always"
       xlink:href="#linearGradient3997"
       id="radialGradient4003"
       cx="165.81134"
       cy="47.693741"
       fx="165.81134"
       fy="47.693741"
       r="3.8123069"
       gradientTransform="matrix(0.64374811,-0.18781617,0.31213841,1.069868,43.640483,27.15595)"
       gradientUnits="userSpaceOnUse" />
    <radialGradient
       inkscape:collect="always"
       xlink:href="#linearGradient3997"
       id="radialGradient4007"
       gradientUnits="userSpaceOnUse"
       gradientTransform="matrix(-0.64374811,-0.18781617,-0.31213841,1.069868,293.73143,27.15595)"
       cx="165.81134"
       cy="47.693741"
       fx="165.81134"
       fy="47.693741"
       r="3.8123069" />
    <radialGradient
       inkscape:collect="always"
       xlink:href="#linearGradient4011"
       id="radialGradient4017"
       cx="169.32254"
       cy="41.784931"
       fx="169.32254"
       fy="41.784931"
       r="6.982676"
       gradientTransform="matrix(0.31036379,-0.01814613,0.03701409,0.63307367,114.75293,21.468668)"
       gradientUnits="userSpaceOnUse" />
    <linearGradient
       id="linearGradient3966-2">
      <stop
         style="stop-color:#c0ac02;stop-opacity:1;"
         offset="0"
         id="stop3968-4" />
      <stop
         style="stop-color:#fdea41;stop-opacity:0;"
         offset="1"
         id="stop3970-5" />
    </linearGradient>
    <clipPath
       id="clipPath2999-4-8"
       clipPathUnits="userSpaceOnUse">
      <path
         id="path3001-0-8"
         d="M 0,792 612,792 612,0 0,0 0,792 z"
         inkscape:connector-curvature="0" />
    </clipPath>
    <radialGradient
       inkscape:collect="always"
       xlink:href="#linearGradient3966-2"
       id="radialGradient3972-4"
       cx="96.306435"
       cy="46.658409"
       fx="96.306435"
       fy="46.658409"
       r="12.650181"
       gradientTransform="matrix(0.75988491,-0.03632001,0.13155835,2.7524547,16.986326,-78.268899)"
       gradientUnits="userSpaceOnUse" />
    <clipPath
       clipPathUnits="userSpaceOnUse"
       id="clipPath2999-0">
      <path
         inkscape:connector-curvature="0"
         d="M 0,792 612,792 612,0 0,0 0,792 z"
         id="path3001-9" />
    </clipPath>
    <inkscape:path-effect
       fuse_tolerance="0"
       vertical_pattern="false"
       prop_units="false"
       tang_offset="0"
       normal_offset="0"
       spacing="0"
       scale_y_rel="false"
       prop_scale="1"
       copytype="single_stretched"
       pattern="M 0,5 C 0,2.24 2.24,0 5,0 7.76,0 10,2.24 10,5 10,7.76 7.76,10 5,10 2.24,10 0,7.76 0,5 z"
       is_visible="true"
       id="path-effect4237-4"
       effect="skeletal" />
  </defs>
  <sodipodi:namedview
     id="base"
     pagecolor="#ffffff"
     bordercolor="#666666"
     borderopacity="1.0"
     inkscape:pageopacity="0.0"
     inkscape:pageshadow="2"
     inkscape:zoom="2.55"
     inkscape:cx="1.914192"
     inkscape:cy="0.70251535"
     inkscape:document-units="px"
     inkscape:current-layer="layer12"
     showgrid="false"
     fit-margin-top="0"
     fit-margin-left="0"
     fit-margin-right="0"
     fit-margin-bottom="0"
     inkscape:window-width="1280"
     inkscape:window-height="968"
     inkscape:window-x="-4"
     inkscape:window-y="-4"
     inkscape:window-maximized="1"
     showguides="true"
     inkscape:guide-bbox="true"
     inkscape:snap-global="false">
    <sodipodi:guide
       orientation="0,1"
       position="11.28133,21.517799"
       id="guide3274" />
    <sodipodi:guide
       orientation="1,0"
       position="26.13159,26.634501"
       id="guide3960" />
  </sodipodi:namedview>
  <metadata
     id="metadata7">
    <rdf:RDF>
      <cc:Work
         rdf:about="">
        <dc:format>image/svg+xml</dc:format>
        <dc:type
           rdf:resource="http://purl.org/dc/dcmitype/StillImage" />
        <dc:title></dc:title>
      </cc:Work>
    </rdf:RDF>
  </metadata>
  <g
     inkscape:groupmode="layer"
     id="layer12"
     inkscape:label="spartan"
     style="display:inline"
     transform="translate(-142.76812,-31.473222)">
    <path
       style="fill:#a3a2a4;stroke:none"
       d="m 158.15625,31.71875 1,2.65625 c 5.1701,2.066457 8.62511,1.911153 9.3125,5.34375 l -0.1875,1.5 -0.125,3.5 c -0.0452,0.22245 -0.0725,0.420717 -0.125,0.65625 -1.62911,1.169877 -0.94553,2.738899 -2.53125,2.875 -3.66607,0.314658 -9.66415,-0.770244 -13.3125,-3.1875 l -1.46875,6 0.625,3.71875 4.5,2.84375 0.90625,1.1875 c 0.20263,1.914529 0.0495,3.910053 0.9375,5.6875 -0.21574,1.947566 -1.01882,3.896184 1.03125,5.84375 l 1.5625,0.21875 6.3125,0.25 0,0.1875 2.625,-0.09375 2.625,0.09375 0,-0.1875 6.3125,-0.25 1.5625,-0.21875 c 2.05007,-1.947566 1.24699,-3.896184 1.03125,-5.84375 0.888,-1.777447 0.73487,-3.772971 0.9375,-5.6875 l 0.90625,-1.1875 4.5,-2.84375 0.625,-3.71875 -1.46875,-6 c -3.64835,2.417256 -9.64643,3.502158 -13.3125,3.1875 -1.58572,-0.136101 -0.90214,-1.705123 -2.53125,-2.875 -0.0525,-0.235533 -0.0798,-0.4338 -0.125,-0.65625 l -0.125,-3.5 -0.1875,-1.5 c 0.68739,-3.432597 4.1424,-3.277293 9.3125,-5.34375 l 1,-2.65625 -8.96875,2.4375 -2.03125,0 -0.125,0 -2.03125,0 z m -4.625,17.65625 c 0.83821,0.01749 2.11971,0.497136 3.40625,0.78125 2.60078,0.574346 5.18561,1.097233 3.90625,1.34375 -1.27936,0.246517 -2.30518,0.857329 -3.125,1.59375 -0.74522,0.66942 -1.08808,1.480237 -1.84375,1.5625 -0.75567,0.08226 -2.35157,-0.272668 -3,-1.40625 -0.64843,-1.133582 -0.64421,-3.243655 0,-3.71875 0.16106,-0.118774 0.37685,-0.162079 0.65625,-0.15625 z m 31.375,0 c 0.2794,-0.0058 0.49519,0.03748 0.65625,0.15625 0.64421,0.475095 0.64843,2.585168 0,3.71875 -0.64843,1.133582 -2.24433,1.48851 -3,1.40625 -0.75567,-0.08226 -1.09853,-0.89308 -1.84375,-1.5625 -0.81982,-0.736421 -1.84564,-1.347233 -3.125,-1.59375 -1.27936,-0.246517 1.30547,-0.769404 3.90625,-1.34375 1.28654,-0.284114 2.56804,-0.76376 3.40625,-0.78125 z m -19.5,2.8125 c 0.72833,-0.0084 2.17613,0.03494 2.59426,0.15625 l 0.17064,3.86359 c -1.37594,0.373641 -8.75239,-0.133158 -9.0149,-0.92609 -0.27523,-0.831369 1.49233,-2.127583 3.03125,-2.65625 0.76946,-0.264333 2.08021,-0.424317 3.21875,-0.4375 z m 7.625,0 c 1.13854,0.01318 2.44929,0.173167 3.21875,0.4375 1.53892,0.528667 3.30648,1.824881 3.03125,2.65625 -0.26251,0.792932 -7.63896,1.59537 -9.0149,1.221729 l -0.0511,-4.085319 c 0.41813,-0.121308 2.08766,-0.238591 2.81599,-0.23016 z M 160,58.46875 c 0.61949,-0.04867 2.84832,0.06537 7.97224,1.21875 l 0.12803,4.563008 c -2.759,-0.190814 -7.50379,-0.319082 -9.25647,-1.74157 C 158.59439,62.30655 158.16899,61.560773 158.25,61.25 l 0.5625,-2.125 c 0.081,-0.310774 0.27281,-0.581884 0.59375,-0.59375 0.24202,-0.0089 0.38089,-0.04578 0.59375,-0.0625 z m 17.8125,0 c 0.28562,-0.02251 0.46536,-0.01254 0.625,0 0.21286,0.01672 0.35173,0.0536 0.59375,0.0625 0.32094,0.01187 0.51275,0.282976 0.59375,0.59375 l 0.5625,2.125 c 0.081,0.310773 -0.34439,1.20437 -0.59375,1.406758 -1.75268,1.422488 -6.49747,1.329026 -9.25647,1.51984 l -0.24152,-4.563008 c 3.80348,-0.856155 6.89408,-1.08001 7.71679,-1.14484 z M 161.34375,65 c 1.4307,0.05828 4.84897,0.727379 6.81054,0.90625 l -0.21032,3.347238 c -1.7747,0.09312 -4.77847,0.03616 -7.76788,-0.81548 -0.30887,-0.08799 -0.47714,-1.0572 -0.51984,-1.375508 L 159.5,65.78125 c -0.0427,-0.318308 0.28238,-0.405416 0.5625,-0.5625 0.33704,-0.189002 0.77405,-0.23941 1.28125,-0.21875 z m 15.75,0 c 0.5072,-0.02066 0.94421,0.02975 1.28125,0.21875 0.28012,0.157084 0.6052,0.244192 0.5625,0.5625 l -0.15625,1.28125 c -0.0427,0.318308 -0.13706,0.991879 -0.44593,1.079869 -2.98941,0.851645 -5.69754,1.352054 -7.47224,1.258938 l -0.50596,-3.495057 c 1.96157,-0.178871 5.30593,-0.847973 6.73663,-0.90625 z"
       id="path4125"
       inkscape:connector-curvature="0"
       sodipodi:nodetypes="ccccccscccccccccccccccccccccscccccccccccsssssscsccsssssccccsscsssccscccccccccsccccccccsccsccssssccsccs" />
    <path
       style="font-size:medium;font-style:normal;font-variant:normal;font-weight:normal;font-stretch:normal;text-indent:0;text-align:start;text-decoration:none;line-height:normal;letter-spacing:normal;word-spacing:normal;text-transform:none;direction:ltr;block-progression:tb;writing-mode:lr-tb;text-anchor:start;baseline-shift:baseline;color:#000000;fill:#1b2a34;fill-opacity:1;stroke:none;stroke-width:0.875;marker:none;visibility:visible;display:inline;overflow:visible;enable-background:accumulate;font-family:Sans;-inkscape-font-specification:Sans"
       d="m 157.4375,30.75 0.28125,0.90625 c 0.80528,2.476469 0.92591,3.866541 0.6875,4.625 -0.11921,0.37923 -0.31477,0.62927 -0.59375,0.84375 -0.27898,0.21448 -0.66843,0.385013 -1.125,0.5625 -0.38246,0.148679 -0.71072,0.2431 -1.03125,0.25 -0.32053,0.0069 -0.63451,-0.06756 -1,-0.375 -0.72845,-0.612749 -1.11682,-2.339047 -2.09375,-5.90625 -0.003,-0.01237 -0.0595,0.07492 -0.0625,0.0625 l -0.90625,0.125 -0.40625,0.09375 -0.0312,0 c 2.80085,11.984795 -1.33047,21.2628 -6,28.75 l 0.21875,1.03125 c 1.95296,-2.738085 3.72088,-5.837884 5.0625,-9.25 0.005,0.537317 0.037,1.021779 0.125,1.4375 0.0847,0.400131 0.20495,0.72726 0.46875,0.96875 0.008,0.0086 0.023,0.02258 0.0312,0.03125 0.98677,1.028394 2.92237,2.289734 4.28125,2.84375 l 0,0.03125 c 0.007,0.0028 0.0245,-0.0027 0.0312,0 0.16496,0.07861 0.21559,0.163356 0.25,0.21875 0.037,0.05951 0.0673,0.139204 0.0937,0.28125 0.04,0.213993 0.30339,0.542194 0.59375,0.84375 -0.078,2.155687 0.10081,4.042056 0.78125,5.40625 -0.38109,1.711921 -0.53628,3.530686 0.53125,5.3125 -4.39891,-0.499395 -8.8497,-1.251133 -13.34375,-2.28125 l -0.21875,0.96875 c 17.29705,3.964795 33.88413,3.978261 49.875,0.59375 l -0.1875,-1 c -4.34095,0.918773 -8.72311,1.563279 -13.15625,1.96875 1.23713,-1.846429 1.10857,-3.72014 0.71875,-5.5 0.7055,-1.368124 0.89156,-3.283031 0.8125,-5.46875 0.29036,-0.301556 0.55374,-0.629757 0.59375,-0.84375 0.0266,-0.142046 0.0255,-0.221736 0.0625,-0.28125 0.0345,-0.05552 0.11541,-0.139887 0.28125,-0.21875 0.0114,-0.0046 0.0198,-0.02658 0.0312,-0.03125 1.35888,-0.554016 3.29448,-1.815356 4.28125,-2.84375 0.0108,-0.0091 0.0211,-0.02184 0.0312,-0.03125 0.2638,-0.24149 0.38407,-0.568619 0.46875,-0.96875 0.088,-0.415721 0.12007,-0.900183 0.125,-1.4375 1.34162,3.412116 3.10954,6.511915 5.0625,9.25 l 0.21875,-1.03125 c -4.66953,-7.4872 -8.80085,-16.765205 -6,-28.75 l -0.0312,0 -0.40625,-0.09375 -0.9375,-0.125 c -0.003,0.01242 -0.0595,-0.07487 -0.0625,-0.0625 -0.97693,3.567203 -1.33405,5.293501 -2.0625,5.90625 -0.36549,0.30744 -0.67947,0.3819 -1,0.375 -0.32053,-0.0069 -0.64879,-0.101321 -1.03125,-0.25 -0.45657,-0.177487 -0.84602,-0.34802 -1.125,-0.5625 -0.27898,-0.21448 -0.47454,-0.46452 -0.59375,-0.84375 -0.23841,-0.758459 -0.11778,-2.148531 0.6875,-4.625 L 181,30.75 l -0.875,0.375 c -4.2013,1.766111 -7.09646,1.903338 -10.90625,2.1875 -3.80978,-0.284162 -6.70495,-0.421389 -10.90625,-2.1875 l -0.875,-0.375 z m 1.3125,1.375 c 1.1351,0.857162 2.47211,1.182369 3.53125,1.625 1.61189,0.673637 2.90209,1.236724 4.4375,1.40625 0.75863,0.08376 1.52906,-0.34194 2.5,-0.28125 0.97095,-0.06069 1.74137,0.36501 2.5,0.28125 1.53541,-0.169526 2.82561,-0.732613 4.4375,-1.40625 1.05914,-0.442631 2.39615,-0.767838 3.53125,-1.625 -0.5944,2.030034 -0.80181,3.446107 -0.5,4.40625 0.17148,0.545536 0.51288,0.978829 0.90625,1.28125 0.39337,0.302421 0.82949,0.499736 1.3125,0.6875 0.40341,0.156824 0.8706,0.30166 1.375,0.3125 0.5044,0.01084 1.05609,-0.136525 1.5625,-0.5625 0.45319,-0.381203 0.88259,-1.036039 1.3125,-1.875 -0.3469,3.559793 -0.0971,6.946317 0.5625,10.125 -3.22217,1.662533 -6.18143,2.322784 -7.8125,2.5 -1.09132,0.11857 -3.61,0.13828 -5.46875,0.15625 l -0.0312,0 -0.0312,0 c -0.0717,-0.03683 -0.18945,-0.12392 -0.3125,-0.21875 -0.2461,-0.18965 -0.55317,-0.484156 -0.84375,-0.78125 -0.29058,-0.297094 -0.54858,-0.58673 -0.75,-0.84375 -0.10071,-0.12851 -0.1987,-0.26032 -0.25,-0.34375 -0.0192,-0.03129 -0.0518,-0.02984 -0.0625,-0.03125 l 0,-0.03125 -0.28125,-6.375 c -0.32852,0.241479 -0.51185,1.014151 -0.46875,1.4375 l 0,4.96875 0,0.03125 0.0312,0 c 0.018,0.194229 0.0816,0.28497 0.15625,0.40625 0.0746,0.12128 0.16898,0.231732 0.28125,0.375 0.22455,0.286536 0.50455,0.622649 0.8125,0.9375 0.30795,0.314851 0.61533,0.619558 0.90625,0.84375 0.14546,0.112096 0.29999,0.21065 0.4375,0.28125 0.12091,0.06208 0.2565,0.111 0.4375,0.09375 0.0249,-0.0024 0.0351,0.0057 0.0625,0 1.84905,-0.01762 4.28159,-0.02726 5.46875,-0.15625 1.70118,-0.184834 4.6342,-0.857878 7.875,-2.5 0.15849,0.687891 0.33579,1.363349 0.53125,2.03125 l -0.0312,0 c 0.24144,0.961339 0.38421,2.151678 0.375,3.15625 -0.005,0.502286 -0.0526,0.970478 -0.125,1.3125 -0.0724,0.342022 -0.18094,0.561742 -0.21875,0.59375 l -0.0312,0 0,0.03125 c -0.84907,0.895719 -2.88507,2.233475 -4.09375,2.71875 -0.29112,0.129682 -0.50074,0.299944 -0.625,0.5 -0.12426,0.200056 -0.16057,0.38723 -0.1875,0.53125 -0.0539,0.288039 -0.0353,0.418531 -0.4375,0.65625 l -0.1875,0.09375 0.0312,0.21875 c 0.0849,2.230678 -0.112,4.13499 -0.75,5.28125 l -0.0625,0.125 0.0312,0.15625 c 0.41026,1.814733 0.55142,3.476969 -0.71875,5.21875 l 0.375,0.25 c -7.13338,0.630186 -14.39422,0.596018 -21.78125,-0.1875 l 0.0937,-0.0625 c -1.27017,-1.741781 -1.12901,-3.404017 -0.71875,-5.21875 L 157.875,64.5 157.8125,64.375 c -0.638,-1.14626 -0.83492,-3.050572 -0.75,-5.28125 l 0,-0.21875 -0.1875,-0.09375 c -0.40224,-0.237719 -0.35239,-0.368211 -0.40625,-0.65625 -0.0269,-0.14402 -0.0632,-0.331194 -0.1875,-0.53125 -0.12426,-0.200056 -0.33388,-0.370318 -0.625,-0.5 l -0.0312,0 c -1.20868,-0.485275 -3.21343,-1.823031 -4.0625,-2.71875 l 0,-0.03125 -0.0312,0 c -0.0378,-0.03201 -0.14636,-0.251728 -0.21875,-0.59375 -0.0724,-0.342022 -0.12039,-0.810214 -0.125,-1.3125 -0.009,-1.004572 0.13356,-2.194911 0.375,-3.15625 l -0.0312,0 c 0.19546,-0.667901 0.37276,-1.343359 0.53125,-2.03125 3.2408,1.642122 6.17382,2.315166 7.875,2.5 1.18716,0.128986 3.6197,0.138627 5.46875,0.15625 0.0274,0.0057 0.0376,-0.0024 0.0625,0 0.181,0.01725 0.31659,-0.03167 0.4375,-0.09375 0.13751,-0.0706 0.29204,-0.169154 0.4375,-0.28125 0.29092,-0.224192 0.5983,-0.528899 0.90625,-0.84375 0.30795,-0.314851 0.58795,-0.650964 0.8125,-0.9375 0.11227,-0.143268 0.20663,-0.25372 0.28125,-0.375 0.0746,-0.12128 0.13829,-0.212021 0.15625,-0.40625 l 0.0312,0 0,-0.03125 -0.0312,-4.96875 c 0.0431,-0.423349 -0.14023,-1.196021 -0.46875,-1.4375 l -0.25,6.375 0,0.03125 c -0.001,-0.01139 -0.024,-0.03133 -0.0625,0.03125 -0.0513,0.08343 -0.14929,0.21524 -0.25,0.34375 -0.20142,0.25702 -0.45942,0.546656 -0.75,0.84375 -0.29058,0.297094 -0.59765,0.5916 -0.84375,0.78125 -0.12305,0.09483 -0.24077,0.181923 -0.3125,0.21875 l -0.0312,0 -0.0312,0 c -1.859,-0.01797 -4.37768,-0.03768 -5.469,-0.15625 -1.63107,-0.177216 -4.59033,-0.837467 -7.8125,-2.5 0.65963,-3.178683 0.9094,-6.565207 0.5625,-10.125 0.42991,0.838961 0.85931,1.493797 1.3125,1.875 0.50641,0.425975 1.0581,0.57334 1.5625,0.5625 0.5044,-0.01084 0.97159,-0.155676 1.375,-0.3125 0.48301,-0.187764 0.91913,-0.385079 1.3125,-0.6875 0.39337,-0.302421 0.73477,-0.735714 0.90625,-1.28125 0.30181,-0.960143 0.0944,-2.376216 -0.5,-4.40625 z m -2.9375,0.9375 c -1.15154,0 -2.09375,0.900741 -2.09375,2.03125 0,1.130509 0.94221,2.0625 2.09375,2.0625 1.15154,0 2.125,-0.931991 2.125,-2.0625 0,-1.130509 -0.97346,-2.03125 -2.125,-2.03125 z m 26.8125,0 c -1.15154,0 -2.125,0.900741 -2.125,2.03125 0,1.130509 0.97346,2.0625 2.125,2.0625 1.15154,0 2.09375,-0.931991 2.09375,-2.0625 0,-1.130509 -0.94221,-2.03125 -2.09375,-2.03125 z m -26.8125,0.875 c 0.70117,0 1.25,0.522271 1.25,1.15625 0,0.633979 -0.54883,1.1875 -1.25,1.1875 -0.70117,0 -1.21875,-0.553521 -1.21875,-1.1875 0,-0.633979 0.51758,-1.15625 1.21875,-1.15625 z m 26.8125,0 c 0.70117,0 1.21875,0.522271 1.21875,1.15625 0,0.633979 -0.51758,1.1875 -1.21875,1.1875 -0.70117,0 -1.25,-0.553521 -1.25,-1.1875 0,-0.633979 0.54883,-1.15625 1.25,-1.15625 z m -22.6875,17.84375 c -1.70448,0.136141 -2.19986,0.668732 -2.75,1.40625 -0.27507,0.368759 -0.51305,0.695815 -0.78125,0.9375 -0.2682,0.241685 -0.55995,0.400554 -0.96875,0.4375 -0.29962,0.02708 -0.60539,-0.038 -1,-0.28125 -0.39461,-0.243248 -0.8601,-0.681606 -1.40625,-1.40625 -0.24544,-0.310887 -0.83919,0.157863 -0.59375,0.46875 0.58228,0.772593 1.08513,1.280224 1.59375,1.59375 0.50862,0.313526 1.01309,0.416181 1.46875,0.375 0.57644,-0.0521 1.05255,-0.306271 1.40625,-0.625 0.3537,-0.318729 0.60674,-0.702875 0.875,-1.0625 0.53651,-0.71925 1.01633,-1.362251 2.125,-1.5 0.39391,-0.04759 0.75732,-0.36017 0.0312,-0.34375 z m 18.5625,0 c -0.72607,-0.01642 -0.39391,0.29616 0,0.34375 1.10867,0.137749 1.61974,0.78075 2.15625,1.5 0.26826,0.359625 0.5213,0.743771 0.875,1.0625 0.3537,0.318729 0.82981,0.5729 1.40625,0.625 0.45566,0.04118 0.96013,-0.06147 1.46875,-0.375 0.50862,-0.313526 1.01147,-0.821157 1.59375,-1.59375 0.24544,-0.310887 -0.34831,-0.779637 -0.59375,-0.46875 -0.54615,0.724644 -1.01164,1.163002 -1.40625,1.40625 -0.39461,0.24325 -0.70038,0.30833 -1,0.28125 -0.4088,-0.03695 -0.70055,-0.195815 -0.96875,-0.4375 -0.2682,-0.241685 -0.50618,-0.568741 -0.78125,-0.9375 -0.55014,-0.737518 -1.04552,-1.270109 -2.75,-1.40625 z m -10.4375,1.75 0.0312,3.25 c -0.011,0.05083 -0.088,0.214048 -0.1875,0.3125 -0.0995,0.09845 -0.19719,0.128628 -0.25,0.125 -1.77627,-0.02452 -3.40187,0.04688 -5.125,-0.03125 -0.79284,-0.03595 -2.77394,-0.354481 -4.03125,-0.8125 0.0737,0.499061 0.45557,0.657478 0.75,0.75 1.1595,0.364371 2.5631,0.531352 3.25,0.5625 1.74907,0.07931 3.36469,0.007 5.125,0.03125 0.27008,0.01855 0.49475,-0.12147 0.65625,-0.28125 0.1615,-0.15978 0.26868,-0.329003 0.3125,-0.53125 l 0,-0.03125 0,-0.03125 c 0.0282,-1.098891 0.20116,-2.538317 -0.53125,-3.3125 z m 2.3125,0 c -0.73241,0.774183 -0.55945,2.213609 -0.53125,3.3125 l 0,0.03125 0,0.03125 c 0.0438,0.202247 0.151,0.37147 0.3125,0.53125 0.1615,0.15978 0.38617,0.2998 0.65625,0.28125 1.76031,-0.02425 3.37593,0.04806 5.125,-0.03125 0.6869,-0.03115 2.05925,-0.198129 3.21875,-0.5625 0.29443,-0.09252 0.6763,-0.250939 0.75,-0.75 -1.25731,0.458019 -3.20716,0.77655 -4,0.8125 -1.72313,0.07813 -3.34873,0.0067 -5.125,0.03125 -0.0528,0.0036 -0.1505,-0.02655 -0.25,-0.125 -0.0995,-0.09845 -0.1765,-0.26167 -0.1875,-0.3125 l 0.0312,-3.25 z m -2.3125,7.03125 0.0312,3.28125 c -0.011,0.05083 -0.088,0.214048 -0.1875,0.3125 -0.0995,0.09845 -0.19719,0.128628 -0.25,0.125 -1.77627,-0.02452 -2.80812,-0.17187 -4.53125,-0.25 -0.79284,-0.03595 -3.18684,-0.648764 -4.3125,-1.34375 0.0737,0.499061 0.47204,0.803367 0.75,0.9375 1.02785,0.49602 2.84435,0.875102 3.53125,0.90625 1.74907,0.07931 2.77094,0.22575 4.53125,0.25 0.27008,0.01855 0.49475,-0.12147 0.65625,-0.28125 0.1615,-0.15978 0.26868,-0.329003 0.3125,-0.53125 l 0,-0.03125 0,-0.03125 c 0.0282,-1.098891 0.20116,-2.569567 -0.53125,-3.34375 z m 2.3125,0 c -0.73241,0.774183 -0.55945,2.244859 -0.53125,3.34375 l 0,0.03125 0,0.03125 c 0.0438,0.202247 0.151,0.37147 0.3125,0.53125 0.1615,0.15978 0.38617,0.2998 0.65625,0.28125 1.76031,-0.02425 2.78218,-0.17069 4.53125,-0.25 0.6869,-0.03115 2.47215,-0.41023 3.5,-0.90625 0.27796,-0.134133 0.6763,-0.438439 0.75,-0.9375 -1.12566,0.694986 -3.48841,1.3078 -4.28125,1.34375 -1.72313,0.07813 -2.75498,0.22548 -4.53125,0.25 -0.0528,0.0036 -0.1505,-0.02655 -0.25,-0.125 -0.0995,-0.09845 -0.1765,-0.26167 -0.1875,-0.3125 l 0.0312,-3.28125 z m -2.40625,5.09375 -0.125,3.09375 c -0.011,0.05083 -0.088,0.214048 -0.1875,0.3125 -0.0995,0.09845 -0.19719,0.128628 -0.25,0.125 -2.74625,-0.283097 -5.3387,0.0392 -7.65625,-1.34375 0.0737,0.499061 0.47204,0.803367 0.75,0.9375 2.24736,0.894699 5.14049,1.027317 7.03125,1.0625 0.27008,0.01855 0.49475,-0.12147 0.65625,-0.28125 0.1615,-0.15978 0.26868,-0.329003 0.3125,-0.53125 l 0,-0.03125 0,-0.03125 c 0.0282,-1.098891 0.20116,-2.538317 -0.53125,-3.3125 z m 2.5,0 c -0.73241,0.774183 -0.55945,2.213609 -0.53125,3.3125 l 0,0.03125 0,0.03125 c 0.0438,0.202247 0.151,0.37147 0.3125,0.53125 0.1615,0.15978 0.38617,0.2998 0.65625,0.28125 1.89076,-0.03518 4.78389,-0.167801 7.03125,-1.0625 0.27796,-0.134133 0.6763,-0.438439 0.75,-0.9375 -2.31755,1.38295 -4.94125,1.060653 -7.6875,1.34375 -0.0528,0.0036 -0.1505,-0.02655 -0.25,-0.125 -0.0995,-0.09845 -0.1765,-0.26167 -0.1875,-0.3125 l -0.0937,-3.09375 z M 143.6875,69.71875 143,74.5 l 52.09375,0 -0.84375,-4.21875 c -15.92224,3.369985 -33.33325,3.386754 -50.5625,-0.5625 z"
       id="path3274"
       inkscape:connector-curvature="0" />
    <path
       transform="translate(-218.16938,-378.37561)"
       id="path4124"
       style="fill:none;stroke:#231f20;stroke-width:0.3125;stroke-linecap:butt;stroke-linejoin:miter;stroke-miterlimit:4;stroke-opacity:1;stroke-dasharray:none;display:inline"
       d="m 361.13813,452.9203 c 8.7325,-47.29375 5.3425,-42.67875 14.2675,-42.85625 l 23.44,0 c 8.92625,0.1775 5.535,-4.4375 14.265,42.85625 l -51.9725,0 z"
       inkscape:connector-curvature="0" />
  </g>
</svg>
