<?xml version="1.0" encoding="UTF-8" standalone="no"?>
<!-- Created with Inkscape (http://www.inkscape.org/) -->

<svg
   xmlns:dc="http://purl.org/dc/elements/1.1/"
   xmlns:cc="http://creativecommons.org/ns#"
   xmlns:rdf="http://www.w3.org/1999/02/22-rdf-syntax-ns#"
   xmlns:svg="http://www.w3.org/2000/svg"
   xmlns="http://www.w3.org/2000/svg"
   xmlns:xlink="http://www.w3.org/1999/xlink"
   xmlns:sodipodi="http://sodipodi.sourceforge.net/DTD/sodipodi-0.dtd"
   xmlns:inkscape="http://www.inkscape.org/namespaces/inkscape"
   width="51.66938"
   height="54.96875"
   id="svg2"
   version="1.1"
   inkscape:version="0.48.2 r9819"
   sodipodi:docname="kimono.[CMF3 Samurai].svg">
  <defs
     id="defs4">
    <linearGradient
       inkscape:collect="always"
       id="linearGradient4011">
      <stop
         style="stop-color:#ffffff;stop-opacity:1;"
         offset="0"
         id="stop4013" />
      <stop
         style="stop-color:#ffffff;stop-opacity:0;"
         offset="1"
         id="stop4015" />
    </linearGradient>
    <linearGradient
       inkscape:collect="always"
       id="linearGradient3997">
      <stop
         style="stop-color:#ffffff;stop-opacity:1;"
         offset="0"
         id="stop3999" />
      <stop
         style="stop-color:#ffffff;stop-opacity:0;"
         offset="1"
         id="stop4001" />
    </linearGradient>
    <inkscape:path-effect
       effect="skeletal"
       id="path-effect4237"
       is_visible="true"
       pattern="M 0,5 C 0,2.24 2.24,0 5,0 7.76,0 10,2.24 10,5 10,7.76 7.76,10 5,10 2.24,10 0,7.76 0,5 z"
       copytype="single_stretched"
       prop_scale="1"
       scale_y_rel="false"
       spacing="0"
       normal_offset="0"
       tang_offset="0"
       prop_units="false"
       vertical_pattern="false"
       fuse_tolerance="0" />
    <clipPath
       id="clipPath2999"
       clipPathUnits="userSpaceOnUse">
      <path
         id="path3001"
         d="M 0,792 612,792 612,0 0,0 0,792 z"
         inkscape:connector-curvature="0" />
    </clipPath>
    <radialGradient
       gradientUnits="userSpaceOnUse"
       gradientTransform="matrix(0.75988491,-0.03632001,0.13155835,2.7524547,16.986326,-78.268899)"
       r="12.650181"
       fy="46.658409"
       fx="96.306435"
       cy="46.658409"
       cx="96.306435"
       id="radialGradient3972"
       xlink:href="#linearGradient3966"
       inkscape:collect="always" />
    <clipPath
       clipPathUnits="userSpaceOnUse"
       id="clipPath2999-4">
      <path
         inkscape:connector-curvature="0"
         d="M 0,792 612,792 612,0 0,0 0,792 z"
         id="path3001-0" />
    </clipPath>
    <linearGradient
       id="linearGradient3966">
      <stop
         id="stop3968"
         offset="0"
         style="stop-color:#c0ac02;stop-opacity:1;" />
      <stop
         id="stop3970"
         offset="1"
         style="stop-color:#fdea41;stop-opacity:0;" />
    </linearGradient>
    <radialGradient
       inkscape:collect="always"
       xlink:href="#linearGradient3997"
       id="radialGradient4003"
       cx="165.81134"
       cy="47.693741"
       fx="165.81134"
       fy="47.693741"
       r="3.8123069"
       gradientTransform="matrix(0.64374811,-0.18781617,0.31213841,1.069868,43.640483,27.15595)"
       gradientUnits="userSpaceOnUse" />
    <radialGradient
       inkscape:collect="always"
       xlink:href="#linearGradient3997"
       id="radialGradient4007"
       gradientUnits="userSpaceOnUse"
       gradientTransform="matrix(-0.64374811,-0.18781617,-0.31213841,1.069868,293.73143,27.15595)"
       cx="165.81134"
       cy="47.693741"
       fx="165.81134"
       fy="47.693741"
       r="3.8123069" />
    <radialGradient
       inkscape:collect="always"
       xlink:href="#linearGradient4011"
       id="radialGradient4017"
       cx="169.32254"
       cy="41.784931"
       fx="169.32254"
       fy="41.784931"
       r="6.982676"
       gradientTransform="matrix(0.31036379,-0.01814613,0.03701409,0.63307367,114.75293,21.468668)"
       gradientUnits="userSpaceOnUse" />
    <linearGradient
       id="linearGradient3966-2">
      <stop
         style="stop-color:#c0ac02;stop-opacity:1;"
         offset="0"
         id="stop3968-4" />
      <stop
         style="stop-color:#fdea41;stop-opacity:0;"
         offset="1"
         id="stop3970-5" />
    </linearGradient>
    <clipPath
       id="clipPath2999-4-8"
       clipPathUnits="userSpaceOnUse">
      <path
         id="path3001-0-8"
         d="M 0,792 612,792 612,0 0,0 0,792 z"
         inkscape:connector-curvature="0" />
    </clipPath>
    <radialGradient
       inkscape:collect="always"
       xlink:href="#linearGradient3966-2"
       id="radialGradient3972-4"
       cx="96.306435"
       cy="46.658409"
       fx="96.306435"
       fy="46.658409"
       r="12.650181"
       gradientTransform="matrix(0.75988491,-0.03632001,0.13155835,2.7524547,16.986326,-78.268899)"
       gradientUnits="userSpaceOnUse" />
    <clipPath
       clipPathUnits="userSpaceOnUse"
       id="clipPath2999-0">
      <path
         inkscape:connector-curvature="0"
         d="M 0,792 612,792 612,0 0,0 0,792 z"
         id="path3001-9" />
    </clipPath>
    <inkscape:path-effect
       fuse_tolerance="0"
       vertical_pattern="false"
       prop_units="false"
       tang_offset="0"
       normal_offset="0"
       spacing="0"
       scale_y_rel="false"
       prop_scale="1"
       copytype="single_stretched"
       pattern="M 0,5 C 0,2.24 2.24,0 5,0 7.76,0 10,2.24 10,5 10,7.76 7.76,10 5,10 2.24,10 0,7.76 0,5 z"
       is_visible="true"
       id="path-effect4237-4"
       effect="skeletal" />
  </defs>
  <sodipodi:namedview
     id="base"
     pagecolor="#ffffff"
     bordercolor="#666666"
     borderopacity="1.0"
     inkscape:pageopacity="0.0"
     inkscape:pageshadow="2"
     inkscape:zoom="3.14"
     inkscape:cx="-8.9322192"
     inkscape:cy="35.497398"
     inkscape:document-units="px"
     inkscape:current-layer="layer30"
     showgrid="false"
     fit-margin-top="0"
     fit-margin-left="0"
     fit-margin-right="0"
     fit-margin-bottom="0"
     inkscape:window-width="1280"
     inkscape:window-height="968"
     inkscape:window-x="-4"
     inkscape:window-y="-4"
     inkscape:window-maximized="1"
     showguides="true"
     inkscape:guide-bbox="true"
     inkscape:snap-global="false">
    <sodipodi:guide
       orientation="0,1"
       position="11.03133,80.955299"
       id="guide3274" />
    <sodipodi:guide
       orientation="1,0"
       position="25.88159,86.072001"
       id="guide3960" />
  </sodipodi:namedview>
  <metadata
     id="metadata7">
    <rdf:RDF>
      <cc:Work
         rdf:about="">
        <dc:format>image/svg+xml</dc:format>
        <dc:type
           rdf:resource="http://purl.org/dc/dcmitype/StillImage" />
        <dc:title></dc:title>
      </cc:Work>
    </rdf:RDF>
  </metadata>
  <g
     inkscape:groupmode="layer"
     id="layer30"
     inkscape:label="samurai"
     style="display:inline"
     transform="translate(-143.01812,-79.15564)">
    <path
       style="fill:#635f61;fill-opacity:1;stroke:#000000;stroke-width:0.5;stroke-linecap:butt;stroke-linejoin:miter;stroke-miterlimit:4;stroke-opacity:1;stroke-dasharray:none"
       d="m 171.75,91.875 0,14.15625 c 3.0157,-0.0328 5.51436,-0.27386 7.78125,-1.65625 l 0,-12.5 -7.78125,0 z"
       id="path4194"
       inkscape:connector-curvature="0" />
    <path
       style="font-size:medium;font-style:normal;font-variant:normal;font-weight:normal;font-stretch:normal;text-indent:0;text-align:start;text-decoration:none;line-height:normal;letter-spacing:normal;word-spacing:normal;text-transform:none;direction:ltr;block-progression:tb;writing-mode:lr-tb;text-anchor:start;baseline-shift:baseline;color:#000000;fill:#1b2a34;fill-opacity:1;stroke:none;stroke-width:0.91433096;marker:none;visibility:visible;display:inline;overflow:visible;enable-background:accumulate;font-family:Sans;-inkscape-font-specification:Sans"
       d="m 171.75,91.875 0,3.125 c 0.39613,0.514992 0.92544,0.875 1.59375,0.875 l 0.96875,0 c 1.05814,0 1.75278,-0.867313 2.125,-1.90625 0.37221,1.038937 1.06686,1.90625 2.125,1.90625 l 0.9375,0 c 0.0103,0 0.0209,1.44e-4 0.0312,0 l 0,-0.9375 c -0.0103,2.53e-4 -0.0209,0 -0.0312,0 l -0.9375,0 C 177.73012,94.9375 177,94.110415 177,92.90625 l 0,-1.03125 -1.125,0 0,1.03125 c 0,1.204163 -0.73013,2.03125 -1.5625,2.03125 l -0.96875,0 c -0.83238,0 -1.5625,-0.827085 -1.5625,-2.03125 l 0,-1.03125 -0.0312,0 z m 0,4.03125 0,3.625 c 0.39613,0.51499 0.92544,0.875 1.59375,0.875 l 0.96875,0 c 1.05814,0 1.75278,-0.867313 2.125,-1.90625 0.37221,1.038937 1.06686,1.90625 2.125,1.90625 l 0.9375,0 c 0.0103,0 0.0209,1.4e-4 0.0312,0 l 0,-0.9375 c -0.0103,2.53e-4 -0.0209,0 -0.0312,0 l -0.9375,0 C 177.73012,99.46875 177,98.641665 177,97.4375 l 0,-1.53125 -1.125,0 0,1.53125 c 0,1.204163 -0.73013,2.03125 -1.5625,2.03125 l -0.96875,0 c -0.83238,0 -1.5625,-0.827085 -1.5625,-2.03125 l 0,-1.53125 -0.0312,0 z m 0,4.0625 0,3.625 c 0.39613,0.51499 0.92544,0.875 1.59375,0.875 l 0.96875,0 c 1.05814,0 1.75278,-0.86732 2.125,-1.90625 0.37221,1.03893 1.06686,1.90625 2.125,1.90625 l 0.78125,0 c 0.0611,-0.0355 0.12669,-0.0567 0.1875,-0.0937 l 0,-0.84375 c -0.0103,2.5e-4 -0.0209,0 -0.0312,0 l -0.9375,0 C 177.73012,103.53125 177,102.70416 177,101.5 l 0,-1.53125 -1.125,0 0,1.53125 c 0,1.20416 -0.73013,2.03125 -1.5625,2.03125 l -0.96875,0 c -0.83238,0 -1.5625,-0.82709 -1.5625,-2.03125 l 0,-1.53125 -0.0312,0 z"
       id="rect4134"
       inkscape:connector-curvature="0" />
    <g
       id="g4290">
      <path
         id="path4202"
         d="m 181.78125,91.875 1.25,12.5 c 3.13469,1.80075 6.39268,1.66886 10.78125,1.65625 0.13166,-3.8e-4 0.24129,1.1e-4 0.375,0 0.0878,2.5e-4 0.16303,-3.3e-4 0.25,0 l 0,-14.15625 -1.6875,0 -0.28125,0 -10.6875,0 z"
         style="fill:#635f61;fill-opacity:1;stroke:#000000;stroke-width:0.5;stroke-linecap:butt;stroke-linejoin:miter;stroke-miterlimit:4;stroke-opacity:1;stroke-dasharray:none"
         inkscape:connector-curvature="0" />
      <path
         id="path4204"
         d="m 184.3125,91.875 0.0937,1.03125 c 0.12155,1.204163 -0.54263,2.03125 -1.375,2.03125 l -0.9375,0 c -0.0103,0 -0.0211,2.53e-4 -0.0312,0 l 0.0937,0.9375 c 0.0103,1.44e-4 0.0209,0 0.0312,0 l 0.9375,0 c 1.05814,0 1.67015,-0.867313 1.9375,-1.90625 0.47708,1.038937 1.25436,1.90625 2.3125,1.90625 l 0.96875,0 c 1.00326,0 1.60273,-0.794619 1.90625,-1.75 0.4954,0.960466 1.24338,1.75 2.25,1.75 l 0.96875,0 c 0.37622,0 0.70399,-0.122439 0.96875,-0.3125 l 0,-1.1875 c -0.25052,0.357292 -0.64632,0.5625 -1.0625,0.5625 l -0.96875,0 c -0.83238,0 -1.62845,-0.827085 -1.75,-2.03125 l -0.0937,-1.03125 -1.03125,0 0.0937,1.03125 c 0.12155,1.204163 -0.54263,2.03125 -1.375,2.03125 l -0.96875,0 c -0.83238,0 -1.62845,-0.827085 -1.75,-2.03125 l -0.0937,-1.03125 -1.125,0 z m 0.40625,4.03125 0.15625,1.53125 c 0.12155,1.204163 -0.54263,2.03125 -1.375,2.03125 l -0.9375,0 c -0.0103,0 -0.0211,2.53e-4 -0.0312,0 l 0.0937,0.9375 c 0.0103,1.4e-4 0.0209,0 0.0312,0 l 0.9375,0 c 1.05814,0 1.67015,-0.867313 1.9375,-1.90625 0.47708,1.038937 1.25436,1.90625 2.3125,1.90625 l 0.96875,0 c 1.00326,0 1.57148,-0.794619 1.875,-1.75 0.4954,0.960466 1.27463,1.75 2.28125,1.75 l 0.96875,0 c 0.1773,0 0.34838,-0.0476 0.5,-0.0937 l 0,-1 c -0.17578,0.09635 -0.38566,0.15625 -0.59375,0.15625 l -0.96875,0 c -0.83238,0 -1.62845,-0.827085 -1.75,-2.03125 l -0.15625,-1.53125 -1.03125,0 0.15625,1.53125 c 0.12155,1.204163 -0.54263,2.03125 -1.375,2.03125 l -0.96875,0 c -0.83238,0 -1.62845,-0.827085 -1.75,-2.03125 l -0.15625,-1.53125 -1.125,0 z m 0.40625,4.0625 0.15625,1.53125 c 0.12155,1.20416 -0.54263,2.03125 -1.375,2.03125 l -0.9375,0 c -0.0103,0 -0.0211,2.5e-4 -0.0312,0 l 0.0937,0.84375 c 0.0645,0.0371 0.12282,0.0584 0.1875,0.0937 l 0.78125,0 c 1.05814,0 1.67015,-0.86732 1.9375,-1.90625 0.47708,1.03893 1.25436,1.90625 2.3125,1.90625 l 0.96875,0 c 1.00326,0 1.60273,-0.79462 1.90625,-1.75 0.4954,0.96046 1.24338,1.75 2.25,1.75 l 0.96875,0 c 0.0311,0 0.0634,0.002 0.0937,0 l 0,-0.96875 c -0.0605,0.009 -0.12466,0.0312 -0.1875,0.0312 l -0.96875,0 c -0.83238,0 -1.62845,-0.82709 -1.75,-2.03125 l -0.15625,-1.53125 -1.03125,0 L 190.5,101.5 c 0.12155,1.20416 -0.54263,2.03125 -1.375,2.03125 l -0.96875,0 c -0.83238,0 -1.62845,-0.82709 -1.75,-2.03125 l -0.15625,-1.53125 -1.125,0 z"
         style="font-size:medium;font-style:normal;font-variant:normal;font-weight:normal;font-stretch:normal;text-indent:0;text-align:start;text-decoration:none;line-height:normal;letter-spacing:normal;word-spacing:normal;text-transform:none;direction:ltr;block-progression:tb;writing-mode:lr-tb;text-anchor:start;baseline-shift:baseline;color:#000000;fill:#1b2a34;fill-opacity:1;stroke:none;stroke-width:0.91433096;marker:none;visibility:visible;display:inline;overflow:visible;enable-background:accumulate;font-family:Sans;-inkscape-font-specification:Sans"
         inkscape:connector-curvature="0" />
    </g>
    <g
       id="g4286">
      <path
         id="path4211"
         d="m 143.46875,91.875 0,14.15625 c 4.2898,0.0155 7.53781,0.11722 10.625,-1.65625 l 1.28125,-12.5 -10.6875,0 -0.28125,0 -0.9375,0 z"
         style="fill:#635f61;fill-opacity:1;stroke:#000000;stroke-width:0.5;stroke-linecap:butt;stroke-linejoin:miter;stroke-miterlimit:4;stroke-opacity:1;stroke-dasharray:none"
         inkscape:connector-curvature="0" />
      <path
         id="path4213"
         d="m 146.59375,91.875 -0.125,1.03125 c -0.12155,1.204163 -0.91763,2.03125 -1.75,2.03125 l -0.96875,0 c -0.0937,0 -0.19305,-0.01091 -0.28125,-0.03125 l 0,0.96875 c 0.0594,0.0059 0.12502,0 0.1875,0 l 0.96875,0 c 1.00326,0 1.72235,-0.794619 2.21875,-1.75 0.3015,0.960466 0.93088,1.75 1.9375,1.75 l 0.96875,0 c 1.05814,0 1.83541,-0.867313 2.3125,-1.90625 0.26734,1.038937 0.87936,1.90625 1.9375,1.90625 l 0.9375,0 c 0.0103,0 0.0209,1.44e-4 0.0312,0 l 0.0937,-0.9375 c -0.0103,2.53e-4 -0.0209,0 -0.0312,0 l -0.9375,0 c -0.83238,0 -1.49655,-0.827085 -1.375,-2.03125 l 0.125,-1.03125 -1.125,0 -0.125,1.03125 c -0.12155,1.204163 -0.91763,2.03125 -1.75,2.03125 l -0.96875,0 c -0.83238,0 -1.49655,-0.827085 -1.375,-2.03125 l 0.125,-1.03125 -1.03125,0 z m -0.40625,4.03125 -0.15625,1.53125 c -0.12155,1.204163 -0.94888,2.03125 -1.78125,2.03125 l -0.78125,0 0,0.9375 0.6875,0 c 1.00326,0 1.7536,-0.794619 2.25,-1.75 0.3015,0.960466 0.89963,1.75 1.90625,1.75 l 0.96875,0 c 1.05814,0 1.83541,-0.867313 2.3125,-1.90625 0.26734,1.038937 0.87936,1.90625 1.9375,1.90625 l 0.9375,0 c 0.0103,0 0.0209,1.4e-4 0.0312,0 l 0.0937,-0.9375 c -0.0103,2.53e-4 -0.0209,0 -0.0312,0 l -0.9375,0 c -0.83238,0 -1.4653,-0.827085 -1.34375,-2.03125 l 0.15625,-1.53125 -1.125,0 -0.15625,1.53125 c -0.12155,1.204163 -0.94888,2.03125 -1.78125,2.03125 l -0.96875,0 c -0.83238,0 -1.4653,-0.827085 -1.34375,-2.03125 l 0.15625,-1.53125 -1.03125,0 z m -0.4375,4.0625 -0.15625,1.53125 c -0.12155,1.20416 -0.91763,2.03125 -1.75,2.03125 l -0.375,0 0,0.9375 0.28125,0 c 1.00326,0 1.7536,-0.79462 2.25,-1.75 0.3015,0.96046 0.89963,1.75 1.90625,1.75 l 0.96875,0 c 1.05814,0 1.83541,-0.86732 2.3125,-1.90625 0.26734,1.03893 0.87936,1.90625 1.9375,1.90625 l 0.78125,0 c 0.0647,-0.0355 0.12296,-0.0567 0.1875,-0.0937 l 0.0937,-0.84375 c -0.0103,2.5e-4 -0.0209,0 -0.0312,0 l -0.9375,0 c -0.83238,0 -1.49655,-0.82709 -1.375,-2.03125 L 152,99.96875 l -1.125,0 -0.15625,1.53125 c -0.12155,1.20416 -0.91763,2.03125 -1.75,2.03125 l -0.96875,0 c -0.83238,0 -1.49655,-0.82709 -1.375,-2.03125 l 0.15625,-1.53125 -1.03125,0 z"
         style="font-size:medium;font-style:normal;font-variant:normal;font-weight:normal;font-stretch:normal;text-indent:0;text-align:start;text-decoration:none;line-height:normal;letter-spacing:normal;word-spacing:normal;text-transform:none;direction:ltr;block-progression:tb;writing-mode:lr-tb;text-anchor:start;baseline-shift:baseline;color:#000000;fill:#1b2a34;fill-opacity:1;stroke:none;stroke-width:0.91433096;marker:none;visibility:visible;display:inline;overflow:visible;enable-background:accumulate;font-family:Sans;-inkscape-font-specification:Sans"
         inkscape:connector-curvature="0" />
    </g>
    <path
       style="fill:#635f61;fill-opacity:1;stroke:#000000;stroke-width:0.5;stroke-linecap:butt;stroke-linejoin:miter;stroke-miterlimit:4;stroke-opacity:1;stroke-dasharray:none"
       d="m 157.875,91.875 0,12.5 c 2.39365,1.4597 5.04028,1.64343 8.28125,1.65625 l 0,-14.15625 -8.28125,0 z"
       id="path4215"
       inkscape:connector-curvature="0" />
    <path
       style="font-size:medium;font-style:normal;font-variant:normal;font-weight:normal;font-stretch:normal;text-indent:0;text-align:start;text-decoration:none;line-height:normal;letter-spacing:normal;word-spacing:normal;text-transform:none;direction:ltr;block-progression:tb;writing-mode:lr-tb;text-anchor:start;baseline-shift:baseline;color:#000000;fill:#1b2a34;fill-opacity:1;stroke:none;stroke-width:0.91433096;marker:none;visibility:visible;display:inline;overflow:visible;enable-background:accumulate;font-family:Sans;-inkscape-font-specification:Sans"
       d="m 160.40625,91.875 0,1.03125 c 0,1.204163 -0.73013,2.03125 -1.5625,2.03125 l -0.9375,0 c -0.0103,0 -0.0211,2.53e-4 -0.0312,0 l 0,0.9375 c 0.0103,1.44e-4 0.0209,0 0.0312,0 l 0.9375,0 c 1.05814,0 1.75278,-0.867313 2.125,-1.90625 0.37221,1.038937 1.06686,1.90625 2.125,1.90625 l 0.96875,0 c 1.00326,0 1.66254,-0.794619 2.0625,-1.75 0.009,0.02183 0.0219,0.04085 0.0312,0.0625 l 0,-2.3125 -0.53125,0 0,1.03125 c 0,1.204163 -0.73013,2.03125 -1.5625,2.03125 l -0.96875,0 c -0.83238,0 -1.5625,-0.827085 -1.5625,-2.03125 l 0,-1.03125 -1.125,0 z m 0,4.03125 0,1.53125 c 0,1.204163 -0.73013,2.03125 -1.5625,2.03125 l -0.9375,0 c -0.0103,0 -0.0211,2.53e-4 -0.0312,0 l 0,0.9375 c 0.0103,1.4e-4 0.0209,0 0.0312,0 l 0.9375,0 c 1.05814,0 1.75278,-0.867313 2.125,-1.90625 0.37221,1.038937 1.06686,1.90625 2.125,1.90625 l 0.96875,0 c 1.00326,0 1.66254,-0.794619 2.0625,-1.75 0.009,0.02183 0.0219,0.04085 0.0312,0.0625 l 0,-2.8125 -0.53125,0 0,1.53125 c 0,1.204163 -0.73013,2.03125 -1.5625,2.03125 l -0.96875,0 c -0.83238,0 -1.5625,-0.827085 -1.5625,-2.03125 l 0,-1.53125 -1.125,0 z m 0,4.0625 0,1.53125 c 0,1.20416 -0.73013,2.03125 -1.5625,2.03125 l -0.9375,0 c -0.0103,0 -0.0211,2.5e-4 -0.0312,0 l 0,0.84375 c 0.0608,0.0371 0.1264,0.0584 0.1875,0.0937 l 0.78125,0 c 1.05814,0 1.75278,-0.86732 2.125,-1.90625 0.37221,1.03893 1.06686,1.90625 2.125,1.90625 l 0.96875,0 c 1.00326,0 1.66254,-0.79462 2.0625,-1.75 0.009,0.0218 0.0219,0.0409 0.0312,0.0625 l 0,-2.8125 -0.53125,0 0,1.53125 c 0,1.20416 -0.73013,2.03125 -1.5625,2.03125 l -0.96875,0 c -0.83238,0 -1.5625,-0.82709 -1.5625,-2.03125 l 0,-1.53125 -1.125,0 z"
       id="path4217"
       inkscape:connector-curvature="0" />
    <g
       id="g4282"
       transform="translate(34.614913,-3.4819543)">
      <path
         style="fill:#635f61;fill-opacity:1;stroke:#000000;stroke-width:0.5;stroke-linecap:butt;stroke-linejoin:miter;stroke-miterlimit:4;stroke-opacity:1;stroke-dasharray:none"
         d="m 157.625,79.46875 0,6.90625 21.65625,0 0,-6.90625 -10.6875,0 -0.28125,0 -10.6875,0 z"
         transform="translate(-34.614913,3.4819543)"
         id="path4194-1"
         inkscape:connector-curvature="0" />
      <path
         style="font-size:medium;font-style:normal;font-variant:normal;font-weight:normal;font-stretch:normal;text-indent:0;text-align:start;text-decoration:none;line-height:normal;letter-spacing:normal;word-spacing:normal;text-transform:none;direction:ltr;block-progression:tb;writing-mode:lr-tb;text-anchor:start;baseline-shift:baseline;color:#000000;fill:#1b2a34;fill-opacity:1;stroke:none;stroke-width:0.91433096;marker:none;visibility:visible;display:inline;overflow:visible;enable-background:accumulate;font-family:Sans;-inkscape-font-specification:Sans"
         d="m 160.15625,79.46875 0,1.03125 c 0,1.204163 -0.73013,2.03125 -1.5625,2.03125 l -0.9375,0 c -0.0103,0 -0.0211,2.53e-4 -0.0312,0 l 0,0.9375 c 0.0103,1.44e-4 0.0209,0 0.0312,0 l 0.9375,0 c 1.05814,0 1.75278,-0.867313 2.125,-1.90625 0.37221,1.038937 1.06686,1.90625 2.125,1.90625 l 0.96875,0 c 1.00326,0 1.66254,-0.794619 2.0625,-1.75 0.39845,0.960466 1.08713,1.75 2.09375,1.75 l 0.96875,0 c 1.00326,0 1.66254,-0.794619 2.0625,-1.75 0.39845,0.960466 1.08713,1.75 2.09375,1.75 l 0.96875,0 c 1.05814,0 1.75278,-0.867313 2.125,-1.90625 0.37221,1.038937 1.06686,1.90625 2.125,1.90625 l 0.9375,0 c 0.0103,0 0.0209,1.44e-4 0.0312,0 l 0,-0.9375 c -0.0103,2.53e-4 -0.0209,0 -0.0312,0 l -0.9375,0 c -0.83238,0 -1.5625,-0.827085 -1.5625,-2.03125 l 0,-1.03125 -1.125,0 0,1.03125 c 0,1.204163 -0.73013,2.03125 -1.5625,2.03125 l -0.96875,0 c -0.83238,0 -1.5625,-0.827085 -1.5625,-2.03125 l 0,-1.03125 -1.03125,0 0,1.03125 c 0,1.204163 -0.73013,2.03125 -1.5625,2.03125 l -0.96875,0 c -0.83238,0 -1.5625,-0.827085 -1.5625,-2.03125 l 0,-1.03125 -1.03125,0 0,1.03125 c 0,1.204163 -0.73013,2.03125 -1.5625,2.03125 l -0.96875,0 c -0.83238,0 -1.5625,-0.827085 -1.5625,-2.03125 l 0,-1.03125 -1.125,0 z m 0,4.03125 0,1.53125 c 0,0.54453 -0.1657,0.99505 -0.40625,1.34375 l 0.84375,0 c 0.042,-0.09647 0.0891,-0.180953 0.125,-0.28125 0.0359,0.100297 0.083,0.184777 0.125,0.28125 l 0.84375,0 c -0.24055,-0.348699 -0.40625,-0.79922 -0.40625,-1.34375 l 0,-1.53125 -1.125,0 z m 5.21875,0 0,1.53125 c 0,0.54453 -0.1657,0.99505 -0.40625,1.34375 l 0.84375,0 c 0.0193,-0.0427 0.0443,-0.08157 0.0625,-0.125 0.0181,0.04366 0.0432,0.08211 0.0625,0.125 l 0.875,0 c -0.24055,-0.348699 -0.40625,-0.79922 -0.40625,-1.34375 l 0,-1.53125 -1.03125,0 z m 5.125,0 0,1.53125 c 0,0.54453 -0.1657,0.99505 -0.40625,1.34375 l 0.84375,0 c 0.0193,-0.0427 0.0443,-0.08157 0.0625,-0.125 0.0181,0.04366 0.0432,0.08211 0.0625,0.125 l 0.875,0 c -0.24055,-0.348699 -0.40625,-0.79922 -0.40625,-1.34375 l 0,-1.53125 -1.03125,0 z m 5.125,0 0,1.53125 c 0,0.54453 -0.1657,0.99505 -0.40625,1.34375 l 0.84375,0 c 0.042,-0.09647 0.0891,-0.180953 0.125,-0.28125 0.0359,0.100297 0.083,0.184777 0.125,0.28125 l 0.84375,0 C 176.9157,86.026301 176.75,85.57578 176.75,85.03125 l 0,-1.53125 -1.125,0 z"
         transform="translate(-34.614913,3.4819543)"
         id="path4217-7"
         inkscape:connector-curvature="0" />
    </g>
    <g
       id="g4300"
       transform="translate(0,-12.256978)">
      <path
         style="fill:#635f61;fill-opacity:1;stroke:#000000;stroke-width:0.5;stroke-linecap:butt;stroke-linejoin:miter;stroke-miterlimit:4;stroke-opacity:1;stroke-dasharray:none"
         d="m 143.46875,79.625 0,6.75 11.21875,0 0.6875,-6.75 -10.6875,0 -0.28125,0 -0.9375,0 z"
         transform="translate(0,12.256978)"
         id="path4302"
         inkscape:connector-curvature="0" />
      <path
         style="font-size:medium;font-style:normal;font-variant:normal;font-weight:normal;font-stretch:normal;text-indent:0;text-align:start;text-decoration:none;line-height:normal;letter-spacing:normal;word-spacing:normal;text-transform:none;direction:ltr;block-progression:tb;writing-mode:lr-tb;text-anchor:start;baseline-shift:baseline;color:#000000;fill:#1b2a34;fill-opacity:1;stroke:none;stroke-width:0.91433096;marker:none;visibility:visible;display:inline;overflow:visible;enable-background:accumulate;font-family:Sans;-inkscape-font-specification:Sans"
         d="m 146.59375,79.625 -0.125,1.03125 c -0.12155,1.204163 -0.91763,2.03125 -1.75,2.03125 l -0.96875,0 c -0.0937,0 -0.19305,-0.01091 -0.28125,-0.03125 l 0,0.96875 c 0.0594,0.0059 0.12502,0 0.1875,0 l 0.96875,0 c 1.00326,0 1.72235,-0.794619 2.21875,-1.75 0.3015,0.960466 0.93088,1.75 1.9375,1.75 l 0.96875,0 c 1.05814,0 1.83541,-0.867313 2.3125,-1.90625 0.26734,1.038937 0.87936,1.90625 1.9375,1.90625 l 0.9375,0 c 0.0103,0 0.0209,1.44e-4 0.0312,0 l 0.0937,-0.9375 c -0.0103,2.53e-4 -0.0209,0 -0.0312,0 l -0.9375,0 c -0.83238,0 -1.49655,-0.827085 -1.375,-2.03125 l 0.125,-1.03125 -1.125,0 -0.125,1.03125 c -0.12155,1.204163 -0.91763,2.03125 -1.75,2.03125 l -0.96875,0 c -0.83238,0 -1.49655,-0.827085 -1.375,-2.03125 l 0.125,-1.03125 -1.03125,0 z m -0.40625,4.03125 -0.15625,1.53125 c -0.0473,0.468735 -0.21763,0.859581 -0.4375,1.1875 l 1.65625,0 c -0.14918,-0.328223 -0.2349,-0.717876 -0.1875,-1.1875 l 0.15625,-1.53125 -1.03125,0 z m 5.125,0 -0.15625,1.53125 c -0.0473,0.468735 -0.21763,0.859581 -0.4375,1.1875 l 0.8125,0 c 0.0212,-0.04324 0.0423,-0.08109 0.0625,-0.125 0.012,0.04684 0.049,0.07892 0.0625,0.125 l 0.78125,0 c -0.14519,-0.326138 -0.20305,-0.723896 -0.15625,-1.1875 l 0.15625,-1.53125 -1.125,0 z"
         transform="translate(0,12.256978)"
         id="path4304"
         inkscape:connector-curvature="0" />
    </g>
    <g
       transform="matrix(-1,0,0,1,337.55343,-12.256978)"
       id="g4318">
      <path
         id="path4320"
         transform="translate(0,12.256978)"
         d="m 143.46875,79.625 0,6.75 11.21875,0 0.6875,-6.75 -10.6875,0 -0.28125,0 -0.9375,0 z"
         style="fill:#635f61;fill-opacity:1;stroke:#000000;stroke-width:0.5;stroke-linecap:butt;stroke-linejoin:miter;stroke-miterlimit:4;stroke-opacity:1;stroke-dasharray:none"
         inkscape:connector-curvature="0" />
      <path
         id="path4322"
         transform="translate(0,12.256978)"
         d="m 146.59375,79.625 -0.125,1.03125 c -0.12155,1.204163 -0.91763,2.03125 -1.75,2.03125 l -0.96875,0 c -0.0937,0 -0.19305,-0.01091 -0.28125,-0.03125 l 0,0.96875 c 0.0594,0.0059 0.12502,0 0.1875,0 l 0.96875,0 c 1.00326,0 1.72235,-0.794619 2.21875,-1.75 0.3015,0.960466 0.93088,1.75 1.9375,1.75 l 0.96875,0 c 1.05814,0 1.83541,-0.867313 2.3125,-1.90625 0.26734,1.038937 0.87936,1.90625 1.9375,1.90625 l 0.9375,0 c 0.0103,0 0.0209,1.44e-4 0.0312,0 l 0.0937,-0.9375 c -0.0103,2.53e-4 -0.0209,0 -0.0312,0 l -0.9375,0 c -0.83238,0 -1.49655,-0.827085 -1.375,-2.03125 l 0.125,-1.03125 -1.125,0 -0.125,1.03125 c -0.12155,1.204163 -0.91763,2.03125 -1.75,2.03125 l -0.96875,0 c -0.83238,0 -1.49655,-0.827085 -1.375,-2.03125 l 0.125,-1.03125 -1.03125,0 z m -0.40625,4.03125 -0.15625,1.53125 c -0.0473,0.468735 -0.21763,0.859581 -0.4375,1.1875 l 1.65625,0 c -0.14918,-0.328223 -0.2349,-0.717876 -0.1875,-1.1875 l 0.15625,-1.53125 -1.03125,0 z m 5.125,0 -0.15625,1.53125 c -0.0473,0.468735 -0.21763,0.859581 -0.4375,1.1875 l 0.8125,0 c 0.0212,-0.04324 0.0423,-0.08109 0.0625,-0.125 0.012,0.04684 0.049,0.07892 0.0625,0.125 l 0.78125,0 c -0.14519,-0.326138 -0.20305,-0.723896 -0.15625,-1.1875 l 0.15625,-1.53125 -1.125,0 z"
         style="font-size:medium;font-style:normal;font-variant:normal;font-weight:normal;font-stretch:normal;text-indent:0;text-align:start;text-decoration:none;line-height:normal;letter-spacing:normal;word-spacing:normal;text-transform:none;direction:ltr;block-progression:tb;writing-mode:lr-tb;text-anchor:start;baseline-shift:baseline;color:#000000;fill:#1b2a34;fill-opacity:1;stroke:none;stroke-width:0.91433096;marker:none;visibility:visible;display:inline;overflow:visible;enable-background:accumulate;font-family:Sans;-inkscape-font-specification:Sans"
         inkscape:connector-curvature="0" />
    </g>
    <path
       transform="translate(-218.16938,-378.37561)"
       inkscape:connector-curvature="0"
       d="m 384.32188,512.3378 -22.6975,0 0,-42.43375 22.6975,0 0,42.43375 z"
       style="fill:none;stroke:#231f20;stroke-width:0.3125;stroke-linecap:butt;stroke-linejoin:miter;stroke-miterlimit:4;stroke-opacity:1;stroke-dasharray:none;display:inline"
       id="path3033" />
    <path
       transform="translate(-218.16938,-378.37561)"
       id="path4076"
       style="fill:none;stroke:#231f20;stroke-width:0.3125;stroke-linecap:butt;stroke-linejoin:miter;stroke-miterlimit:4;stroke-opacity:1;stroke-dasharray:none;display:inline"
       d="m 412.60471,512.3378 -22.6975,0 0,-42.43375 22.6975,0 0,42.43375 z"
       inkscape:connector-curvature="0" />
    <path
       transform="translate(-218.16938,-378.37561)"
       inkscape:connector-curvature="0"
       d="m 412.67313,464.75155 -51.33,0 0,-7.06625 51.33,0 0,7.06625 z"
       style="fill:none;stroke:#231f20;stroke-width:0.3125;stroke-linecap:butt;stroke-linejoin:miter;stroke-miterlimit:4;stroke-opacity:1;stroke-dasharray:none;display:inline"
       id="path3037" />
  </g>
</svg>
