<?xml version="1.0" encoding="UTF-8" standalone="no"?>
<!-- Created with Inkscape (http://www.inkscape.org/) -->

<svg
   xmlns:dc="http://purl.org/dc/elements/1.1/"
   xmlns:cc="http://creativecommons.org/ns#"
   xmlns:rdf="http://www.w3.org/1999/02/22-rdf-syntax-ns#"
   xmlns:svg="http://www.w3.org/2000/svg"
   xmlns="http://www.w3.org/2000/svg"
   xmlns:xlink="http://www.w3.org/1999/xlink"
   version="1.1"
   width="26.55"
   height="21.33"
   viewBox="0 0 26.55 21.33"
   id="Layer_2"
   xml:space="preserve"><metadata
   id="metadata42"><rdf:RDF><cc:Work
       rdf:about=""><dc:format>image/svg+xml</dc:format><dc:type
         rdf:resource="http://purl.org/dc/dcmitype/StillImage" /><dc:title></dc:title></cc:Work></rdf:RDF></metadata><defs
   id="defs40" />
<g
   id="mouth">
	<g
   id="lips">
		<path
   d="M 5.017,13.98 C 4.521,13.6 4.62,13.37 5.237,13.46 l 0.892,0.14 c 0.617,0.1 1.627,0.23 2.246,0.31 L 9.081,14 c 0.619,0.1 1.629,0.1 2.239,-0.1 l 0,-0 c 0.62,-0.11 1.35,-0.1 1.63,0.1 0.28,0.15 0.73,0.15 1,0 0.28,-0.15 0.96,-0.17 1.51,-0.1 0.56,0.12 1.52,0.26 2.14,0.3 l 0,0 c 0.62,0 1.63,-0 2.24,-0.14 l 1.41,-0.28 c 0.61,-0.12 0.72,0.11 0.24,0.5 l -0.66,0.54 c -0.49,0.4 -1.16,0.98 -1.51,1.31 -0.35,0.32 -0.75,0.94 -0.9,1.36 -0.15,0.43 -0.7,1.06 -1.22,1.4 l -0.37,0.24 c -0.52,0.34 -1.46,0.61 -2.09,0.6 l -0.42,-0 c -0.62,-0 -1.64,-0 -2.26,-0 l -0.32,-0 c -0.62,-0 -1.58,-0.26 -2.127,-0.56 L 9.529,19.09 C 8.981,18.79 8.422,18.15 8.287,17.65 8.152,17.16 7.748,16.43 7.389,16.02 7.03,15.62 6.33,14.98 5.834,14.6 L 5.017,13.98 z"
   id="path5"
   style="fill:#9e2d3a" />
	</g>
	<path
   d="m 19.61,13.97 c -1.15,0.22 -1.57,0.64 -2.73,0.75 -1.17,0.1 -2.34,0.17 -3.5,0.14 -2.34,-0 -4.25,-0.34 -6.498,-1.15 -0.08,-0 -0.177,0 -0.209,0.12 -0.04,0.12 0,0.24 0.1,0.29 0.45,0.23 1.063,0.84 1.323,1.18 0.358,0.48 0.468,1.12 0.828,1.96 0.36,0.84 1.088,1.55 2.048,1.56 l 4.14,0.1 c 0.96,0 1.73,-0.49 1.94,-1.12 0.21,-0.64 0.67,-1.51 1.03,-1.89 0.47,-0.51 0.86,-1.23 1.6,-1.48 0.1,-0 0.15,-0.14 0.13,-0.25 -0,-0.12 -0.11,-0.19 -0.2,-0.17 z"
   id="outline"
   style="fill:#091724" />
	<g
   id="teeth">
		<defs
   id="defs9">
			<path
   d="M 10.97,18.54 C 10.21,18.52 9.669,17.62 9.419,17.03 9.293,16.74 9.197,16.46 9.111,16.22 8.945,15.74 8.711,15.49 8.805,15.24 c 0.05,-0.13 0.389,-0.19 0.368,-0.21 1.527,0.35 2.437,0.39 4.197,0.4 0.19,0 0.38,0 0.57,0 0.87,0 1.96,-0.19 3.12,-0.3 0.4,-0 0.58,0.14 0.62,0.34 0.14,0.58 -0.93,1.44 -1.15,2.09 -0.11,0.36 -0.64,1.03 -1.37,1.03 l -4.19,-0.1 z"
   id="SVGID_1_" />
		</defs>
		<clipPath
   id="SVGID_2_">
			<use
   id="use13"
   style="overflow:visible"
   x="0"
   y="0"
   width="26.55"
   height="21.33"
   xlink:href="#SVGID_1_" />
		</clipPath>
		<path
   d="m 16.42,17.13 c -0.44,-0.14 -0.43,-0.29 0,-0.33 l 1.69,-0.23 c 0.46,-0.1 0.73,-0.53 0.61,-0.98 0,0 -0.1,0.15 -0.16,-0.3 -0.1,-0.45 -0.53,-0.83 -1,-0.84 L 9.686,14.27 c -0.468,-0 -1.019,0.33 -1.224,0.75 l -0.393,0.64 c -0.224,0.41 -0.03,0.82 0.426,0.91 l 1.366,0.21 c 0.469,0 0.599,0.15 0.289,0.24 -0.304,0.1 -1.188,0.53 -1.223,0.88 -0.04,0.34 -0.06,0.62 -0.12,1.47 0,0 0,0 0,0.1 0,0 0.38,0 0.845,-0.1 l 2.838,-0.12 c 0.46,-0.1 1.21,-0.1 1.67,0 l 3.19,0.1 c 0.47,0 0.89,0 0.93,0 0,-0 0.14,-0.41 0.1,-0.85 -0,-0.44 -0.48,-1.01 -0.93,-1.09 -0.44,-0.1 -1.03,-0.29 -1.03,-0.29 z"
   clip-path="url(#SVGID_2_)"
   id="path15"
   style="fill:#ffffff" />
	</g>
</g>
<g
   transform="translate(7.47,0)"
   id="eyes">
	<g
   id="g18">
		<path
   d="m 3.935,10.85 c -0.374,0.22 -0.718,0.27 -1.061,0.32 -0.351,0 -0.698,0.1 -1.045,0.12 -0.343,0.1 -0.694,0.12 -1.038,0.21 -0.342,0.1 -0.695,0.18 -1.037,0.29 l -0.075,-0.12 c 0.288,-0.25 0.608,-0.45 0.951,-0.61 0.344,-0.15 0.693,-0.31 1.063,-0.39 0.367,-0.1 0.739,-0.17 1.116,-0.21 0.383,-0 0.77,0 1.125,0.25 v 0.14 z m 3.739,0 c 0.374,0.22 0.718,0.27 1.061,0.32 0.351,0 0.698,0.1 1.045,0.12 0.34,0.1 0.69,0.12 1.04,0.21 0.34,0.1 0.69,0.18 1.03,0.29 l 0.1,-0.12 C 11.64,11.42 11.32,11.22 10.98,11.06 10.64,10.91 10.29,10.75 9.915,10.67 9.548,10.58 9.176,10.5 8.799,10.46 c -0.384,-0 -0.77,0 -1.125,0.25 v 0.14 z"
   id="path20"
   style="fill:#d7d6d0" />
		<path
   d="M 1.442,11.3 C 0.827,11.16 0.351,10.64 0.058,10.13 -0.225,9.634 -0.452,9.126 -0.3,8.52 -0.147,7.914 0.208,7.774 0.54,7.312 0.928,6.77 1.745,6.618 2.36,6.762 2.975,6.906 3.436,7.487 3.729,7.998 4.012,8.491 4.182,8.97 4.03,9.577 3.878,10.18 3.849,10.63 3.365,10.94 2.862,11.27 2.058,11.44 1.442,11.3 z"
   id="path22"
   style="fill:#d7d6d0" />
		<path
   d="m 9.381,11.25 c 0.629,0.13 1.119,0 1.619,-0.33 0.48,-0.34 0.72,-0.78 0.86,-1.413 C 11.99,8.871 12.03,8.24 11.73,7.734 11.42,7.209 10.96,6.951 10.33,6.817 9.71,6.683 9.054,6.668 8.556,7.019 8.076,7.359 7.608,7.927 7.47,8.563 7.334,9.199 7.749,9.778 8.047,10.29 c 0.31,0.52 0.71,0.82 1.334,0.96 z"
   id="path24"
   style="fill:#d7d6d0" />
	</g>
	<g
   id="path4393_1_">
		<circle
   cx="2.098"
   cy="9.367"
   r="1.75"
   id="circle27"
   style="fill:#f0f0ed" />
		<path
   d="M 3.99,9.375 C 4.003,9.853 3.83,10.37 3.489,10.76 3.15,11.15 2.624,11.38 2.099,11.37 1.574,11.38 1.05,11.15 0.696,10.77 0.318,10.4 0.192,9.857 0.194,9.368 0.177,8.88 0.287,8.319 0.675,7.944 1.041,7.56 1.549,7.322 2.113,7.333 c 0.502,-0 1.062,0.23 1.385,0.635 0.347,0.395 0.489,0.91 0.492,1.4 v 0 z m -0.283,-0 C 3.713,8.939 3.478,8.544 3.174,8.292 2.85,8.045 2.5,7.908 2.084,7.902 1.343,7.901 0.59,8.52 0.504,9.367 c 0.051,0.853 0.812,1.503 1.595,1.493 0.767,0 1.595,-0.6 1.608,-1.5 v 0 z"
   id="path29"
   style="fill:#091724" />
	</g>
	<path
   d="m 2.731,9.566 c 0,0.164 -0.118,0.337 -0.199,0.454 -0.105,0.15 -0.196,0.22 -0.383,0.22 -0.332,0 -0.624,-0.22 -0.62,-0.674 0,-0.446 0.289,-0.643 0.62,-0.643 0.331,0 0.582,0.265 0.582,0.643 z"
   id="path4395_1_"
   style="fill:#091724" />
	<g
   id="path4399_1_">
		<circle
   cx="9.569"
   cy="9.367"
   r="1.75"
   id="circle33"
   style="fill:#f0f0ed" />
		<path
   d="M 11.53,9.378 C 11.58,10.4 10.66,11.43 9.556,11.35 8.506,11.3 7.688,10.37 7.662,9.36 7.63,8.885 7.762,8.315 8.146,7.944 8.507,7.561 9.035,7.327 9.569,7.334 c 0.531,-0 1.071,0.224 1.421,0.613 0.36,0.386 0.55,0.908 0.54,1.42 l 0,0.01 z M 11.11,9.367 C 11.11,8.53 10.33,7.888 9.569,7.9 8.789,7.896 8.076,8.519 7.974,9.375 7.95,9.778 8.123,10.22 8.44,10.5 c 0.316,0.28 0.721,0.41 1.141,0.38 0.769,-0 1.519,-0.67 1.529,-1.523 l 0,0.01 z"
   id="path35"
   style="fill:#091724" />
	</g>
	<path
   d="m 10.15,9.545 c 0,0.391 -0.203,0.695 -0.541,0.695 -0.169,0 -0.276,-0.1 -0.39,-0.2 C 9.105,9.919 8.988,9.763 8.99,9.54 c 0,-0.422 0.28,-0.633 0.618,-0.633 0.338,0 0.542,0.247 0.542,0.638 z"
   id="path4401_1_"
   style="fill:#091724" />
</g>
</svg>