<?xml version="1.0" encoding="UTF-8" standalone="no"?>
<!-- Created with Inkscape (http://www.inkscape.org/) -->

<svg
   xmlns:dc="http://purl.org/dc/elements/1.1/"
   xmlns:cc="http://creativecommons.org/ns#"
   xmlns:rdf="http://www.w3.org/1999/02/22-rdf-syntax-ns#"
   xmlns:svg="http://www.w3.org/2000/svg"
   xmlns="http://www.w3.org/2000/svg"
   version="1.0"
   width="112.8"
   height="21.39"
   viewBox="0 0 112.8 21.39"
   id="Egon-Spengler"
   xml:space="preserve"><metadata
   id="metadata77"><rdf:RDF><cc:Work
       rdf:about=""><dc:format>image/svg+xml</dc:format><dc:type
         rdf:resource="http://purl.org/dc/dcmitype/StillImage" /><dc:title></dc:title></cc:Work></rdf:RDF></metadata><defs
   id="defs75" />
<path
   d="M 112.8,21.39 H 0 V 0 h 112.8 v 21.39 l 0,0 z"
   id="base"
   style="fill:#f4d7b3" />
<g
   id="design-1_1_">
	<g
   transform="translate(115.2,85.95)"
   id="eyes_1_">
		<path
   d="m -89.84,-77.06 c 0.19,-0.67 -2.64,-0.67 -3.98,-0.44 -0,0 3.79,1.1 3.98,0.44 z"
   id="path4166"
   style="fill:#091724;display:none" />
		<path
   d="m -86.1,-77.01 c -0.21,-0.66 2.63,-0.73 3.98,-0.54 0,0 -3.77,1.21 -3.98,0.54 z"
   id="path4157"
   style="fill:#091724;display:none" />
		
			<path
   d="m -85.93,-75.88 c 0,0.96 0.79,1.74 1.75,1.74 0.96,0 1.75,-0.78 1.75,-1.74 0,-0.97 -0.79,-1.75 -1.75,-1.75 -0.96,0 -1.75,0.78 -1.75,1.75 z"
   id="path4148"
   style="fill:#091724" />
		
			<path
   d="m -84.9,-76.52 c -0,0.37 0.26,0.68 0.59,0.68 0.33,0 0.6,-0.3 0.6,-0.68 0,0 0,0 0,0 0,-0.38 -0.27,-0.68 -0.6,-0.68 -0.33,-0 -0.59,0.3 -0.59,0.67 0,0 0,0 0,0 z"
   id="path4150"
   style="fill:#ffffff" />
		
			<path
   d="m -89.97,-75.88 c 0,0.96 -0.79,1.74 -1.75,1.74 -0.96,0 -1.74,-0.78 -1.74,-1.74 0,-0.97 0.78,-1.75 1.74,-1.75 0.96,0 1.75,0.78 1.75,1.75 z"
   id="path4152"
   style="fill:#091724" />
		
			<path
   d="m -91,-76.52 c 0,0.37 -0.26,0.68 -0.59,0.68 -0.33,0 -0.6,-0.3 -0.6,-0.68 0,0 0,0 0,0 0,-0.38 0.27,-0.68 0.6,-0.68 0.32,-0 0.59,0.3 0.59,0.67 0,0 0,0 0,0 z"
   id="path4155"
   style="fill:#ffffff" />
	</g>
	<path
   d="m 18.69,7.431 c 0.94,-0.888 2.09,-1.554 3.38,-1.901 0.64,-0.186 1.32,-0.224 2,-0.14 0.68,0.113 1.33,0.398 1.83,0.852 0.1,0.08 0.1,0.216 0,0.303 -0.1,0.07 -0.16,0.09 -0.24,0.05 l -0,-0 C 25.11,6.342 24.56,6.178 23.98,6.14 23.41,6.08 22.83,6.159 22.24,6.27 21.08,6.53 19.95,7.048 18.87,7.655 l -0,0 c -0.1,0.04 -0.15,0.01 -0.19,-0.05 -0,-0.06 -0,-0.13 0,-0.174 z m 16.97,0.225 c 0.1,-0.04 0.1,-0.125 0.1,-0.193 l 0,-0 C 35.4,6.889 34.96,6.324 34.39,5.913 33.83,5.482 33.12,5.238 32.41,5.186 31.69,5.119 31,5.285 30.36,5.478 29.72,5.692 29.13,5.987 28.55,6.209 l -0,0 c -0.1,0.03 -0.14,0.12 -0.13,0.216 0,0.118 0.11,0.206 0.23,0.196 0.7,-0.06 1.31,-0.286 1.93,-0.424 0.6,-0.171 1.21,-0.259 1.8,-0.256 0.59,0 1.15,0.192 1.68,0.481 0.53,0.307 0.98,0.72 1.43,1.202 0.1,0.05 0.12,0.06 0.18,0.03 z"
   id="brows"
   style="fill:#fee683;stroke:#ffce08;stroke-width:0.1417" />
	<g
   id="mouth">
		<path
   d="m 29.7,16.85 c 0.1,0.1 -0.28,0.29 -0.85,0.33 -1.51,0.12 -4.45,-0.1 -4.21,-0.44 -0.47,0.76 2.71,0.75 4.15,0.72 0.1,0 0,0.15 -0.16,0.26 0.61,-0.1 1.21,-0.74 1.07,-0.87 z"
   id="path14"
   style="fill:#091724" />
		<path
   d="m 31.38,15.88 c -0.46,-0.36 -1.15,-0.22 -1.71,-0.22 -1.08,0 -2.16,0.1 -3.24,0.12 -1.06,0.1 -2.12,0.18 -3.18,0.32 -1.28,0.18 -0,0.36 0.44,0.36 2.01,-0 4.02,-0.13 6.04,-0.15 0.52,-0 1.42,-0.22 1.5,0.39 0,0.22 0.83,-0.27 0.15,-0.82 -0.18,-0.14 0.31,0.25 0,0 z"
   id="path16"
   style="fill:#091724" />
	</g>
	<g
   id="glasses">
		<path
   d="m 28.23,10.68 c 0,-0.49 -0.47,-0.879 -1.06,-0.879 -0.59,0 -1.06,0.389 -1.06,0.879"
   id="path19"
   style="fill:none;stroke:#ec2127;stroke-width:0.7514;stroke-linecap:round" />
		<g
   id="g21">
			<g
   id="g23">
				<path
   d="M 34.11,9.698 40.4,7.809 c 0.16,-0.05 0.32,0.04 0.37,0.203 0,0.157 -0,0.322 -0.19,0.374 L 34.37,10.5 c -0.22,0.1 -0.46,-0.1 -0.54,-0.27 -0.1,-0.21 0.1,-0.454 0.27,-0.528 0,-10e-4 0,-0 0,-0 z"
   id="path25"
   style="fill:#ec2127" />
			</g>
			<ellipse
   cx="31.18"
   cy="10.52"
   rx="2.924"
   ry="3"
   id="ellipse27"
   style="fill:none;stroke:#ec2127;stroke-width:0.7252" />
		</g>
		<g
   id="g29">
			<g
   id="g31">
				<path
   d="M 20.01,10.5 13.8,8.387 C 13.64,8.333 13.56,8.161 13.61,8.003 13.67,7.848 13.83,7.764 13.99,7.81 l 6.28,1.889 c 0.22,0.07 0.35,0.301 0.28,0.521 -0.1,0.22 -0.3,0.35 -0.52,0.28 -0,0 -0,0 -0,0 z"
   id="path33"
   style="fill:#ec2127" />
			</g>
			<ellipse
   cx="23.2"
   cy="10.52"
   rx="2.924"
   ry="3"
   id="ellipse35"
   style="fill:none;stroke:#ec2127;stroke-width:0.7252" />
		</g>
	</g>
	<g
   transform="translate(-41.02,-141.1)"
   id="cheekbones">
		<path
   d="m 62.42,156 c -0.1,-0.3 -2.09,-1 -2.09,-1 l 1.5,1.2 c 0.29,2.4 1.13,4 1.78,4.7 -0.57,-1 -0.88,-2.4 -0.96,-2.8 -0.1,-0.5 -0.12,-1.8 -0.23,-2.1 z"
   id="path4146"
   style="fill:#dd8b5e" />
		<path
   d="m 74,156 c 0.11,-0.3 2.1,-1 2.1,-1 l -1.5,1.2 c -0.29,2.4 -1.13,4 -1.78,4.7 0.56,-1 0.88,-2.4 0.96,-2.8 0.1,-0.5 0.12,-1.8 0.22,-2.1 z"
   id="path4149"
   style="fill:#dd8b5e" />
	</g>
</g>
<g
   id="design-2">
	<g
   transform="translate(115.2,85.95)"
   id="eyes_2_">
		<path
   d="m -25.16,-77.5 c -0.21,-0.65 2.63,-0.72 3.98,-0.53 0,0 -3.77,1.17 -3.98,0.53 z"
   id="path4157_1_"
   style="fill:#091724;display:none" />
		<path
   d="m -28.9,-77.56 c 0.19,-0.65 -2.64,-0.66 -3.98,-0.43 0,0 3.79,1.08 3.98,0.43 z"
   id="path4166_1_"
   style="fill:#091724;display:none" />
		
			<path
   d="m -24.98,-76.41 c 0,0.94 0.78,1.71 1.74,1.71 0.96,0 1.74,-0.77 1.74,-1.71 0,-0.94 -0.78,-1.7 -1.74,-1.7 -0.96,0 -1.74,0.76 -1.74,1.7 z"
   id="path4148_1_"
   style="fill:#091724" />
		
			<path
   d="m -23.96,-77.03 c 0,0.36 0.26,0.66 0.59,0.67 0.33,0 0.6,-0.3 0.6,-0.67 0,0 0,0 0,0 0,-0.37 -0.27,-0.67 -0.6,-0.67 -0.32,0 -0.59,0.3 -0.59,0.66 0,0 0,0 0,0 z"
   id="path4150_1_"
   style="fill:#ffffff" />
		
			<path
   d="m -29.03,-76.41 c 0,0.94 -0.78,1.71 -1.75,1.71 -0.96,0 -1.74,-0.77 -1.74,-1.71 0,-0.94 0.78,-1.7 1.74,-1.7 0.97,0 1.75,0.76 1.75,1.7 z"
   id="path4152_1_"
   style="fill:#091724" />
		
			<path
   d="m -30.05,-77.03 c 0,0.36 -0.27,0.66 -0.6,0.67 -0.33,0 -0.59,-0.3 -0.59,-0.67 0,0 0,0 0,0 -0,-0.37 0.26,-0.67 0.59,-0.67 0.33,0 0.59,0.3 0.6,0.66 0,0 0,0 0,0 z"
   id="path4155_1_"
   style="fill:#ffffff" />
	</g>
	<path
   d="m 79.64,7.855 c 0.94,-0.888 2.08,-1.554 3.37,-1.901 0.64,-0.186 1.33,-0.224 2.01,-0.14 0.67,0.113 1.33,0.398 1.82,0.852 0.1,0.08 0.1,0.216 0,0.303 -0.1,0.07 -0.17,0.09 -0.25,0.05 l -0,-0 C 86.06,6.766 85.5,6.602 84.93,6.564 c -0.58,-0.06 -1.16,0.02 -1.74,0.13 -1.16,0.26 -2.3,0.778 -3.38,1.385 l 0,0 c -0.1,0.04 -0.16,0.01 -0.2,-0.05 -0,-0.06 -0,-0.13 0,-0.174 z M 96.6,8.08 c 0.1,-0.04 0.1,-0.125 0.1,-0.193 l 0,-0 C 96.34,7.313 95.9,6.748 95.33,6.337 94.77,5.906 94.06,5.662 93.35,5.61 92.63,5.543 91.94,5.709 91.3,5.902 90.66,6.116 90.07,6.411 89.5,6.633 l -0,0 c -0.1,0.03 -0.14,0.12 -0.13,0.216 0,0.118 0.11,0.206 0.23,0.196 0.7,-0.06 1.31,-0.286 1.93,-0.424 0.6,-0.171 1.21,-0.259 1.8,-0.256 0.59,0 1.15,0.192 1.68,0.481 0.53,0.307 0.98,0.72 1.43,1.202 0,0.05 0.12,0.06 0.18,0.03 z"
   id="brows_1_"
   style="fill:#fee683;stroke:#ffce08;stroke-width:0.1417" />
	<g
   id="mouth_1_">
		<path
   d="m 90.64,17 c 0.1,0.1 -0.28,0.28 -0.85,0.32 -1.51,0.12 -4.44,-0.1 -4.21,-0.43 -0.47,0.76 2.71,0.74 4.15,0.72 0.1,-0 0,0.14 -0.16,0.25 0.61,-0.1 1.21,-0.74 1.07,-0.86 z"
   id="path50"
   style="fill:#091724" />
		<path
   d="m 92.33,16.21 c -0.47,-0.37 -1.15,-0.24 -1.71,-0.24 -1.08,0 -2.17,0 -3.25,0.1 -1.06,0.1 -2.12,0.15 -3.17,0.29 -1.29,0.16 -0,0.36 0.42,0.36 2.02,0 4.03,-0.1 6.05,-0.1 0.52,0 1.42,-0.21 1.5,0.4 0,0.22 0.83,-0.26 0.16,-0.81 -0.18,-0.14 0.3,0.25 0,0 z"
   id="path52"
   style="fill:#091724" />
	</g>
	<g
   id="glasses_1_">
		<g
   id="g55">
			<ellipse
   cx="84.88"
   cy="13.57"
   rx="2.035"
   ry="1.877"
   id="ellipse57"
   style="fill:none;stroke:#ec2127;stroke-width:0.4985" />
			<g
   id="g59">
				<path
   d="M 82.6,13.34 77,11.48 c -0.14,-0.1 -0.22,-0.2 -0.17,-0.34 0,-0.14 0.19,-0.22 0.33,-0.17 l 5.67,1.66 c 0.2,0 0.31,0.26 0.25,0.46 -0.1,0.2 -0.26,0.31 -0.46,0.25 -0,0 -0,0 -0,0 z"
   id="path61"
   style="fill:#ec2127" />
			</g>
		</g>
		<path
   d="m 89.35,13.49 c 0,-0.43 -0.55,-0.77 -1.23,-0.77 -0.68,0 -1.23,0.34 -1.23,0.77"
   id="path63"
   style="fill:none;stroke:#ec2127;stroke-width:0.5007;stroke-linecap:round" />
		<g
   id="g65">
			<ellipse
   cx="91.42"
   cy="13.57"
   rx="2.035"
   ry="1.877"
   id="ellipse67"
   style="fill:none;stroke:#ec2127;stroke-width:0.4985" />
			<g
   id="g69">
				<path
   d="m 93.47,12.62 5.67,-1.66 c 0.14,-0 0.29,0 0.33,0.19 0,0.14 -0,0.29 -0.17,0.33 l -5.61,1.86 c -0.19,0.1 -0.4,-0 -0.47,-0.24 -0.1,-0.19 0,-0.41 0.24,-0.47 0,0 0,0 0,-0 z"
   id="path71"
   style="fill:#ec2127" />
			</g>
		</g>
	</g>
</g>
</svg>