<?xml version="1.0" encoding="utf-8"?>
<!-- Generator: Adobe Illustrator 15.1.0, SVG Export Plug-In . SVG Version: 6.00 Build 0)  -->
<!DOCTYPE svg PUBLIC "-//W3C//DTD SVG 1.1//EN" "http://www.w3.org/Graphics/SVG/1.1/DTD/svg11.dtd">
<svg version="1.1" xmlns="http://www.w3.org/2000/svg" xmlns:xlink="http://www.w3.org/1999/xlink" x="0px" y="0px"
	 width="164.41px" height="56.69px" viewBox="0 0 164.41 56.69" enable-background="new 0 0 164.41 56.69" xml:space="preserve">
<g id="base">
	<path id="front_1_" fill="none" stroke="#A2A0A2" stroke-width="0.2835" d="M73.754,4.083c-1.212-0.583-4.321-0.619-5.642-0.358
		c-2.404,0.474-8.149,0.553-8.149,0.553C59.496,4.285,58.73,4.29,58.262,4.29H26.226c-0.468,0-1.233-0.005-1.7-0.012
		c0,0-5.745-0.079-8.15-0.553c-1.319-0.26-4.429-0.224-5.642,0.358c-2.351,1.129-7.934,5.358-7.25,7.5
		c0.269,0.84,5.507,2.539,10.394,4.608c2.782,1.179,6.301,3.36,6.301,3.36c0.397,0.247,0.79,0.825,0.874,1.285l5.405,29.995
		c0.09,0.459,0.546,0.835,1.014,0.835l13.923,0.001c0.468,0,1.233,0,1.701,0h13.923c0.468,0,0.924-0.376,1.014-0.835l5.405-29.996
		c0.083-0.46,0.477-1.039,0.874-1.286c0,0,3.489-2.167,6.255-3.34c4.899-2.079,10.17-3.785,10.438-4.628
		C81.688,9.442,76.105,5.212,73.754,4.083z"/>
	<path id="back_1_" fill="none" stroke="#A2A0A2" stroke-width="0.2835" d="M153.658,4.083c-1.212-0.583-4.321-0.619-5.642-0.358
		c-2.404,0.474-8.149,0.553-8.149,0.553c-0.468,0.006-1.233,0.012-1.701,0.012h-32.031c-0.468,0-1.232-0.005-1.699-0.012
		c0,0-5.743-0.079-8.147-0.553c-1.319-0.26-4.428-0.224-5.64,0.358c-2.351,1.129-7.932,5.358-7.248,7.5
		c0.269,0.84,5.505,2.539,10.391,4.608c2.781,1.179,6.298,3.36,6.298,3.36c0.397,0.247,0.79,0.825,0.874,1.285l5.403,29.995
		c0.09,0.459,0.546,0.835,1.014,0.835l13.919,0.001c0.467,0,1.232,0,1.7,0h13.923c0.468,0,0.924-0.376,1.014-0.835l5.405-29.996
		c0.083-0.46,0.477-1.039,0.874-1.286c0,0,3.489-2.167,6.255-3.34c4.899-2.079,10.17-3.785,10.438-4.628
		C161.591,9.442,156.008,5.212,153.658,4.083z"/>
</g>
<g id="front">
	<defs>
		<polygon id="SVGID_1_" points="63.899,6.519 20.603,6.519 17.603,16 22.103,18.559 27.853,51 56.649,51 62.399,18.559 66.899,16 
					"/>
	</defs>
	<clipPath id="SVGID_2_">
		<use xlink:href="#SVGID_1_"  overflow="visible"/>
	</clipPath>
	<g id="stripe" clip-path="url(#SVGID_2_)">
		<polygon fill="#266EB7" points="56.995,48.5 27.494,48.5 27.328,46.583 57.161,46.583 		"/>
		<line fill="none" stroke="#091724" stroke-width="0.7087" x1="27.328" y1="46.583" x2="57.161" y2="46.583"/>
		<line fill="none" stroke="#091724" stroke-width="0.7087" x1="27.494" y1="48.5" x2="56.995" y2="48.5"/>
	</g>
	
		<rect id="dash" x="52.974" y="43.309" clip-path="url(#SVGID_2_)" fill="#BC9246" stroke="#091724" stroke-width="0.7087" width="4.021" height="1.833"/>
	<g id="top_stripe" clip-path="url(#SVGID_2_)">
		<defs>
			<polygon id="SVGID_3_" points="50.727,4.625 50.727,10.069 33.761,10.069 33.761,4.625 16.619,4.625 16.619,24.25 67.87,24.25 
				67.87,4.625 			"/>
		</defs>
		<clipPath id="SVGID_4_">
			<use xlink:href="#SVGID_3_"  overflow="visible"/>
		</clipPath>
		<path clip-path="url(#SVGID_4_)" fill="#266EB7" d="M62.869,16.813c-2.595-4.282-11.075-7.273-20.624-7.273
			c-9.548,0-18.03,2.991-20.625,7.273l-1.713-0.965c2.98-4.918,11.957-8.222,22.338-8.222c10.381,0,19.357,3.304,22.337,8.222
			L62.869,16.813z"/>
		<path clip-path="url(#SVGID_4_)" fill="none" stroke="#091724" stroke-width="0.7087" d="M62.869,16.813
			c-2.595-4.282-11.075-7.273-20.624-7.273c-9.548,0-18.03,2.991-20.625,7.273"/>
		<path clip-path="url(#SVGID_4_)" fill="none" stroke="#091724" stroke-width="0.7087" d="M19.907,15.847
			c2.98-4.918,11.957-8.222,22.338-8.222c10.381,0,19.357,3.304,22.337,8.222"/>
	</g>
	<g id="neckband" clip-path="url(#SVGID_2_)">
		<path fill="#266EB7" d="M51.048,5.762c-3.352,3.494-8.744,5.625-8.804,5.651c-0.061-0.026-5.452-2.157-8.804-5.651L29.93,6.52
			c3.617,4.194,12.043,8.076,12.314,8.19c0.271-0.115,8.697-3.997,12.314-8.19L51.048,5.762z"/>
		<path fill="none" stroke="#091724" stroke-width="0.7087" d="M29.93,6.52c3.617,4.194,12.043,8.076,12.314,8.19
			c0.271-0.115,8.697-3.997,12.314-8.19"/>
		<path fill="none" stroke="#091724" stroke-width="0.7087" d="M33.44,5.762c3.352,3.494,8.743,5.625,8.804,5.651
			c0.061-0.026,5.453-2.157,8.804-5.651"/>
		<path fill="none" stroke="#BC9246" stroke-width="0.8504" d="M31.678,6.018c2.676,3.451,10.568,7.13,10.568,7.13
			s7.889-3.679,10.565-7.13"/>
		<path fill="#BC9246" stroke="#091724" stroke-width="0.7087" stroke-linejoin="round" d="M42.602,15.373
			c-0.196,0.242-0.518,0.242-0.714,0c0,0-0.925-0.987-1.37-1.661c-0.565-0.855-1.255-2.427-1.255-2.427
			c-0.104-0.294,0.064-0.57,0.373-0.614c0,0,1.137-0.192,2.609-0.192c1.472,0,2.608,0.192,2.608,0.192
			c0.309,0.043,0.477,0.32,0.373,0.614c0,0-0.689,1.572-1.254,2.427C43.527,14.386,42.602,15.373,42.602,15.373z"/>
		<path fill="#266EB7" d="M42.245,14.074c-0.285-0.329-0.595-0.706-0.781-0.986c-0.241-0.364-0.529-0.918-0.765-1.403
			c0.419-0.038,0.955-0.072,1.545-0.072c0.593,0,1.13,0.034,1.547,0.072c-0.231,0.473-0.522,1.036-0.766,1.403
			C42.838,13.372,42.522,13.754,42.245,14.074z"/>
	</g>
	<g id="Number" clip-path="url(#SVGID_2_)">
		<g id="Two">
			<polygon fill="#BC9246" stroke="#091724" stroke-width="0.7087" stroke-miterlimit="10" points="31.332,41.709 31.332,29.2 
				34.291,26.292 39.25,26.292 39.25,23.542 37.148,23.542 37.148,25.542 31.123,25.542 31.123,17.708 42.001,17.708 45.042,20.75 
				45.042,29.5 42.021,32.521 37.148,32.521 37.148,35.042 39.334,35.042 39.334,33.334 45.042,33.334 45.042,41.709 			"/>
			<polygon fill="#266EB7" points="32.324,40.717 32.324,29.616 34.697,27.284 40.242,27.284 40.242,22.55 36.156,22.55 
				36.156,24.55 32.115,24.55 32.115,18.701 36.156,18.701 36.156,20.044 37.427,18.701 41.589,18.701 44.05,21.161 44.05,29.089 
				41.61,31.529 36.156,31.529 36.156,36.034 40.326,36.034 40.326,34.326 44.05,34.326 44.05,40.717 			"/>
		</g>
		<g id="One">
			<path fill="#BC9246" stroke="#000000" stroke-width="0.7087" stroke-miterlimit="10" d="M53.365,41.709h-8.298v-6.51h1.116
				v-9.866h-1.116V20.9c0,0,0.994-0.406,1.71-1.271c0.719-0.867,1.19-1.921,1.19-1.921h4.689v17.491h0.708V41.709z"/>
			<path fill="#266EB7" d="M46.058,40.717v-4.525h1.117v-11.85h-1.117v-2.836c0.421-0.248,0.996-0.655,1.483-1.243
				c0.443-0.536,0.803-1.132,1.036-1.562h3.088v17.491h0.707v4.525H46.058z"/>
		</g>
	</g>
</g>
<g id="back">
	<defs>
		<polygon id="SVGID_5_" points="143.802,6.519 100.513,6.519 97.514,16 102.013,18.559 107.761,51 136.552,51 142.302,18.559 
			146.802,16 		"/>
	</defs>
	<clipPath id="SVGID_6_">
		<use xlink:href="#SVGID_5_"  overflow="visible"/>
	</clipPath>
	<g id="stripe_1_" clip-path="url(#SVGID_6_)">
		<polygon fill="#266EB7" points="136.898,48.5 107.402,48.5 107.236,46.583 137.064,46.583 		"/>
		<line fill="none" stroke="#091724" stroke-width="0.7087" x1="107.236" y1="46.583" x2="137.064" y2="46.583"/>
		<line fill="none" stroke="#091724" stroke-width="0.7087" x1="107.402" y1="48.5" x2="136.898" y2="48.5"/>
	</g>
	<g id="top_stripe_1_" clip-path="url(#SVGID_6_)">
		<path fill="#266EB7" d="M142.772,16.813c-2.595-4.282-11.075-7.273-20.624-7.273c-9.546,0-18.024,2.991-20.618,7.273l-1.713-0.965
			c2.979-4.918,11.953-8.222,22.331-8.222c10.381,0,19.357,3.304,22.337,8.222L142.772,16.813z"/>
		<path fill="none" stroke="#091724" stroke-width="0.7087" d="M142.772,16.813c-2.595-4.282-11.075-7.273-20.624-7.273
			c-9.546,0-18.024,2.991-20.618,7.273"/>
		<path fill="none" stroke="#091724" stroke-width="0.7087" d="M99.817,15.847c2.979-4.918,11.953-8.222,22.331-8.222
			c10.381,0,19.357,3.304,22.337,8.222"/>
	</g>
	<g id="Number_1_" clip-path="url(#SVGID_6_)">
		<g id="Two_1_">
			<polygon fill="#BC9246" stroke="#091724" stroke-width="0.7087" stroke-miterlimit="10" points="111.239,41.709 111.239,29.2 
				114.197,26.292 119.155,26.292 119.155,23.542 117.054,23.542 117.054,25.542 111.03,25.542 111.03,17.708 121.905,17.708 
				124.946,20.75 124.946,29.5 121.925,32.521 117.054,32.521 117.054,35.042 119.239,35.042 119.239,33.334 124.946,33.334 
				124.946,41.709 			"/>
			<polygon fill="#266EB7" points="112.231,40.717 112.231,29.616 114.602,27.284 120.146,27.284 120.146,22.55 116.062,22.55 
				116.062,24.55 112.022,24.55 112.022,18.701 116.062,18.701 116.062,20.044 117.333,18.701 121.493,18.701 123.954,21.161 
				123.954,29.089 121.513,31.529 116.062,31.529 116.062,36.034 120.23,36.034 120.23,34.326 123.954,34.326 123.954,40.717 			"/>
		</g>
		<g id="One_1_">
			<path fill="#BC9246" stroke="#000000" stroke-width="0.7087" stroke-miterlimit="10" d="M133.268,41.709h-8.298v-6.51h1.116
				v-9.866h-1.116V20.9c0,0,0.994-0.406,1.71-1.271c0.719-0.867,1.19-1.921,1.19-1.921h4.689v17.491h0.708V41.709z"/>
			<path fill="#266EB7" d="M125.961,40.717v-4.525h1.117v-11.85h-1.117v-2.836c0.421-0.248,0.996-0.655,1.483-1.243
				c0.443-0.536,0.803-1.132,1.036-1.562h3.088v17.491h0.707v4.525H125.961z"/>
		</g>
	</g>
	<g id="neckband_1_" clip-path="url(#SVGID_6_)">
		<path fill="#266EB7" stroke="#091724" stroke-width="0.7087" d="M122.007,10.196c-6.622,0-11.221-1.538-12.187-2.984l-0.524-0.787
			l0.451-0.676c0.023-0.244-0.043-0.786-0.125-1.128l2.755-0.662c0.113,0.473,0.24,1.181,0.202,1.875
			c1.208,0.591,4.369,1.528,9.428,1.528c5.074,0,8.24-0.942,9.44-1.533c-0.03-0.652,0.085-1.312,0.189-1.756l2.76,0.645
			c-0.082,0.358-0.133,0.827-0.117,1.047l0.441,0.661l-0.525,0.788C133.231,8.658,128.631,10.196,122.007,10.196z M134.397,4.716
			l-1.38-0.322l1.381,0.32C134.398,4.715,134.397,4.716,134.397,4.716L134.397,4.716z"/>
		<path fill="none" stroke="#BC9246" stroke-width="0.8504" d="M122.007,8.778c-6.83,0-10.521-1.625-11.008-2.354
			c0.487-0.729,4.179-2.353,11.008-2.353c6.831,0,10.523,1.625,11.01,2.353C132.531,7.154,128.839,8.778,122.007,8.778z"/>
	</g>
</g>
</svg>
