<?xml version="1.0" encoding="UTF-8" standalone="no"?>
<!-- Created with Inkscape (http://www.inkscape.org/) -->

<svg
   xmlns:dc="http://purl.org/dc/elements/1.1/"
   xmlns:cc="http://creativecommons.org/ns#"
   xmlns:rdf="http://www.w3.org/1999/02/22-rdf-syntax-ns#"
   xmlns:svg="http://www.w3.org/2000/svg"
   xmlns="http://www.w3.org/2000/svg"
   xmlns:xlink="http://www.w3.org/1999/xlink"
   xmlns:sodipodi="http://sodipodi.sourceforge.net/DTD/sodipodi-0.dtd"
   xmlns:inkscape="http://www.inkscape.org/namespaces/inkscape"
   width="52.375"
   height="43.213669"
   id="svg2"
   version="1.1"
   inkscape:version="0.48.2 r9819"
   sodipodi:docname="man_tie.svg">
  <defs
     id="defs4">
    <linearGradient
       inkscape:collect="always"
       id="linearGradient4011">
      <stop
         style="stop-color:#ffffff;stop-opacity:1;"
         offset="0"
         id="stop4013" />
      <stop
         style="stop-color:#ffffff;stop-opacity:0;"
         offset="1"
         id="stop4015" />
    </linearGradient>
    <linearGradient
       inkscape:collect="always"
       id="linearGradient3997">
      <stop
         style="stop-color:#ffffff;stop-opacity:1;"
         offset="0"
         id="stop3999" />
      <stop
         style="stop-color:#ffffff;stop-opacity:0;"
         offset="1"
         id="stop4001" />
    </linearGradient>
    <inkscape:path-effect
       effect="skeletal"
       id="path-effect4237"
       is_visible="true"
       pattern="M 0,5 C 0,2.24 2.24,0 5,0 7.76,0 10,2.24 10,5 10,7.76 7.76,10 5,10 2.24,10 0,7.76 0,5 z"
       copytype="single_stretched"
       prop_scale="1"
       scale_y_rel="false"
       spacing="0"
       normal_offset="0"
       tang_offset="0"
       prop_units="false"
       vertical_pattern="false"
       fuse_tolerance="0" />
    <clipPath
       id="clipPath2999"
       clipPathUnits="userSpaceOnUse">
      <path
         id="path3001"
         d="M 0,792 612,792 612,0 0,0 0,792 z"
         inkscape:connector-curvature="0" />
    </clipPath>
    <radialGradient
       gradientUnits="userSpaceOnUse"
       gradientTransform="matrix(0.75988491,-0.03632001,0.13155835,2.7524547,16.986326,-78.268899)"
       r="12.650181"
       fy="46.658409"
       fx="96.306435"
       cy="46.658409"
       cx="96.306435"
       id="radialGradient3972"
       xlink:href="#linearGradient3966"
       inkscape:collect="always" />
    <clipPath
       clipPathUnits="userSpaceOnUse"
       id="clipPath2999-4">
      <path
         inkscape:connector-curvature="0"
         d="M 0,792 612,792 612,0 0,0 0,792 z"
         id="path3001-0" />
    </clipPath>
    <linearGradient
       id="linearGradient3966">
      <stop
         id="stop3968"
         offset="0"
         style="stop-color:#c0ac02;stop-opacity:1;" />
      <stop
         id="stop3970"
         offset="1"
         style="stop-color:#fdea41;stop-opacity:0;" />
    </linearGradient>
    <radialGradient
       inkscape:collect="always"
       xlink:href="#linearGradient3997"
       id="radialGradient4003"
       cx="165.81134"
       cy="47.693741"
       fx="165.81134"
       fy="47.693741"
       r="3.8123069"
       gradientTransform="matrix(0.64374811,-0.18781617,0.31213841,1.069868,43.640483,27.15595)"
       gradientUnits="userSpaceOnUse" />
    <radialGradient
       inkscape:collect="always"
       xlink:href="#linearGradient3997"
       id="radialGradient4007"
       gradientUnits="userSpaceOnUse"
       gradientTransform="matrix(-0.64374811,-0.18781617,-0.31213841,1.069868,293.73143,27.15595)"
       cx="165.81134"
       cy="47.693741"
       fx="165.81134"
       fy="47.693741"
       r="3.8123069" />
    <radialGradient
       inkscape:collect="always"
       xlink:href="#linearGradient4011"
       id="radialGradient4017"
       cx="169.32254"
       cy="41.784931"
       fx="169.32254"
       fy="41.784931"
       r="6.982676"
       gradientTransform="matrix(0.31036379,-0.01814613,0.03701409,0.63307367,114.75293,21.468668)"
       gradientUnits="userSpaceOnUse" />
    <linearGradient
       id="linearGradient3966-2">
      <stop
         style="stop-color:#c0ac02;stop-opacity:1;"
         offset="0"
         id="stop3968-4" />
      <stop
         style="stop-color:#fdea41;stop-opacity:0;"
         offset="1"
         id="stop3970-5" />
    </linearGradient>
    <clipPath
       id="clipPath2999-4-8"
       clipPathUnits="userSpaceOnUse">
      <path
         id="path3001-0-8"
         d="M 0,792 612,792 612,0 0,0 0,792 z"
         inkscape:connector-curvature="0" />
    </clipPath>
    <radialGradient
       inkscape:collect="always"
       xlink:href="#linearGradient3966-2"
       id="radialGradient3972-4"
       cx="96.306435"
       cy="46.658409"
       fx="96.306435"
       fy="46.658409"
       r="12.650181"
       gradientTransform="matrix(0.75988491,-0.03632001,0.13155835,2.7524547,16.986326,-78.268899)"
       gradientUnits="userSpaceOnUse" />
    <clipPath
       clipPathUnits="userSpaceOnUse"
       id="clipPath2999-0">
      <path
         inkscape:connector-curvature="0"
         d="M 0,792 612,792 612,0 0,0 0,792 z"
         id="path3001-9" />
    </clipPath>
    <inkscape:path-effect
       fuse_tolerance="0"
       vertical_pattern="false"
       prop_units="false"
       tang_offset="0"
       normal_offset="0"
       spacing="0"
       scale_y_rel="false"
       prop_scale="1"
       copytype="single_stretched"
       pattern="M 0,5 C 0,2.24 2.24,0 5,0 7.76,0 10,2.24 10,5 10,7.76 7.76,10 5,10 2.24,10 0,7.76 0,5 z"
       is_visible="true"
       id="path-effect4237-4"
       effect="skeletal" />
    <mask
       maskUnits="userSpaceOnUse"
       id="mask3912">
      <rect
         style="fill:#ffffff;fill-opacity:1;stroke:#1b2a34;stroke-width:0.5;stroke-linecap:round;stroke-linejoin:round;stroke-miterlimit:4;stroke-opacity:1;stroke-dasharray:none;stroke-dashoffset:0"
         id="rect3914"
         width="4.8988528"
         height="8.1846695"
         x="159.63092"
         y="63.971344"
         ry="0.89285713" />
    </mask>
    <mask
       maskUnits="userSpaceOnUse"
       id="mask3969">
      <path
         inkscape:connector-curvature="0"
         d="M 143.71945,73.924911 C 152.19968,27.9974 148.90761,32.47908 157.57479,32.306708 l 22.76285,0 c 8.66839,0.172372 5.37511,-4.309308 13.85291,41.618203 l -50.4711,0 z"
         style="fill:#ffffff;fill-opacity:1;stroke:#231f20;stroke-width:0.3034724;stroke-linecap:butt;stroke-linejoin:miter;stroke-miterlimit:4;stroke-opacity:1;stroke-dasharray:none;display:inline"
         id="path3971" />
    </mask>
  </defs>
  <sodipodi:namedview
     id="base"
     pagecolor="#ffffff"
     bordercolor="#666666"
     borderopacity="1.0"
     inkscape:pageopacity="0.0"
     inkscape:pageshadow="2"
     inkscape:zoom="2.26"
     inkscape:cx="30.616053"
     inkscape:cy="23.741364"
     inkscape:document-units="px"
     inkscape:current-layer="layer1"
     showgrid="false"
     fit-margin-top="0"
     fit-margin-left="0"
     fit-margin-right="0"
     fit-margin-bottom="0"
     inkscape:window-width="1400"
     inkscape:window-height="1024"
     inkscape:window-x="1276"
     inkscape:window-y="-4"
     inkscape:window-maximized="1"
     showguides="true"
     inkscape:guide-bbox="true"
     inkscape:snap-global="false">
    <sodipodi:guide
       orientation="0,1"
       position="11.28133,21.517799"
       id="guide3274" />
    <sodipodi:guide
       orientation="1,0"
       position="26.13159,26.634501"
       id="guide3960" />
  </sodipodi:namedview>
  <metadata
     id="metadata7">
    <rdf:RDF>
      <cc:Work
         rdf:about="">
        <dc:format>image/svg+xml</dc:format>
        <dc:type
           rdf:resource="http://purl.org/dc/dcmitype/StillImage" />
        <dc:title></dc:title>
      </cc:Work>
    </rdf:RDF>
  </metadata>
  <g
     inkscape:groupmode="layer"
     id="layer3"
     inkscape:label="Layer"
     style="display:inline"
     transform="translate(-142.76812,-31.473222)">
    <g
       id="g3943"
       mask="url(#mask3969)">
      <g
         id="g3936">
        <path
           style="fill:none;stroke:#000000;stroke-width:0.625;stroke-linecap:round;stroke-linejoin:round;stroke-miterlimit:4;stroke-opacity:1;stroke-dasharray:none"
           d="m 175.95097,56.041447 10e-6,-6.339815"
           id="path3916"
           inkscape:connector-curvature="0"
           sodipodi:nodetypes="cc" />
        <path
           sodipodi:type="arc"
           style="fill:#1b2a34;fill-opacity:1;stroke:none"
           id="path3920"
           sodipodi:cx="177.93745"
           sodipodi:cy="47.3559"
           sodipodi:rx="1.4792899"
           sodipodi:ry="6.1496196"
           d="m 176.46016,47.036485 c 0.0424,-3.391757 0.73824,-5.998312 1.55413,-5.821904 0.72749,0.157295 1.31914,2.492942 1.39452,5.505059 l -1.47136,0.63626 z"
           sodipodi:start="3.1935566"
           sodipodi:end="6.1795365" />
        <rect
           style="fill:#ffffff;fill-opacity:1;stroke:#1b2a34;stroke-width:0.625;stroke-linecap:round;stroke-linejoin:round;stroke-miterlimit:4;stroke-opacity:1;stroke-dasharray:none;stroke-dashoffset:0"
           id="rect3918"
           width="9.42519"
           height="3.2967033"
           x="174.85207"
           y="46.447193"
           ry="0.89285713" />
      </g>
      <g
         id="g3871">
        <path
           sodipodi:type="inkscape:offset"
           inkscape:radius="0"
           inkscape:original="M 187.875 29.78125 L 182.25 65.09375 C 184.59737 54.743359 186.63452 40.606024 187.875 29.78125 z "
           style="fill:none;stroke:#1b2a34;stroke-width:5.125;stroke-linecap:butt;stroke-linejoin:miter;stroke-miterlimit:4;stroke-opacity:1;stroke-dasharray:none"
           id="path3863"
           d="m 187.875,29.78125 -5.625,35.3125 c 2.34737,-10.350391 4.38452,-24.487726 5.625,-35.3125 z" />
        <path
           sodipodi:type="inkscape:offset"
           inkscape:radius="0"
           inkscape:original="M 187.875 29.78125 L 182.25 65.09375 C 184.59737 54.743359 186.63452 40.606024 187.875 29.78125 z "
           xlink:href="#path3857"
           style="fill:none;stroke:#7b2e2f;stroke-width:4;stroke-linecap:butt;stroke-linejoin:miter;stroke-miterlimit:4;stroke-opacity:1;stroke-dasharray:none"
           id="path3861"
           inkscape:href="#path3857"
           d="m 187.875,29.78125 -5.625,35.3125 c 2.34737,-10.350391 4.38452,-24.487726 5.625,-35.3125 z" />
        <path
           style="font-size:medium;font-style:normal;font-variant:normal;font-weight:normal;font-stretch:normal;text-indent:0;text-align:start;text-decoration:none;line-height:normal;letter-spacing:normal;word-spacing:normal;text-transform:none;direction:ltr;block-progression:tb;writing-mode:lr-tb;text-anchor:start;baseline-shift:baseline;color:#000000;fill:#635f61;fill-opacity:1;stroke:#1b2a34;stroke-width:0.375;stroke-miterlimit:4;stroke-dasharray:none;marker:none;visibility:visible;display:inline;overflow:visible;enable-background:accumulate;font-family:Sans;-inkscape-font-specification:Sans"
           d="m 183.1403,45.586431 c -0.8107,0 -1.58288,0.749707 -1.70437,1.683244 l -0.47697,3.665129 c -0.12149,0.933537 0.45203,1.710394 1.26272,1.710394 l 4.55023,0 c 0.81068,0 1.56283,-0.776857 1.68433,-1.710394 l 0.47696,-3.665129 c 0.1215,-0.933537 -0.43199,-1.683244 -1.24268,-1.683244 l -4.55022,0 z m -0.14133,1.085964 4.55023,0 c 0.30454,0 0.48659,0.246583 0.44095,0.59728 l -0.47697,3.665129 c -0.0457,0.350698 -0.2954,0.62443 -0.59995,0.62443 l -4.55022,0 c -0.30456,0 -0.50663,-0.273732 -0.46099,-0.62443 l 0.47696,-3.665129 c 0.0457,-0.350697 0.31544,-0.59728 0.61999,-0.59728 z"
           id="rect3865"
           inkscape:connector-curvature="0" />
      </g>
      <use
         height="147.96875"
         width="289.36462"
         transform="matrix(-1,0,0,1,338.2113,0)"
         id="use3876"
         xlink:href="#g3871"
         y="0"
         x="0" />
      <g
         id="g3926">
        <g
           id="g3888">
          <path
             style="fill:none;stroke:#1b2a34;stroke-width:7.19999981;stroke-linecap:butt;stroke-linejoin:miter;stroke-miterlimit:4;stroke-opacity:1;stroke-dasharray:none"
             d="m 193.81735,64.741649 c -16.06662,3.547775 -33.69,5.46501 -49.75662,0"
             id="path3886"
             inkscape:connector-curvature="0"
             sodipodi:nodetypes="cc" />
          <path
             sodipodi:nodetypes="cc"
             inkscape:connector-curvature="0"
             id="path3878"
             d="m 193.81735,64.741649 c -16.06662,3.547775 -33.69,5.46501 -49.75662,0"
             style="fill:none;stroke:#795b53;stroke-width:6.30000019;stroke-linecap:butt;stroke-linejoin:miter;stroke-miterlimit:4;stroke-opacity:1;stroke-dasharray:none" />
        </g>
        <path
           style="fill:none;stroke:#1b2a34;stroke-width:0.5;stroke-linecap:round;stroke-linejoin:round;stroke-miterlimit:4;stroke-opacity:1;stroke-dasharray:none"
           d="m 171.03093,64.69122 c 0,0 10.23778,1.961089 10.27491,2.968251 0.0371,1.007162 -10.75601,3.765093 -10.75601,3.765093"
           id="path3892"
           inkscape:connector-curvature="0"
           sodipodi:nodetypes="czc" />
        <path
           sodipodi:type="arc"
           style="fill:#1b2a34;stroke:none"
           id="path3898"
           sodipodi:cx="172.34547"
           sodipodi:cy="68.049515"
           sodipodi:rx="0.71810615"
           sodipodi:ry="0.5685007"
           d="m 173.06358,68.049515 c 0,0.313974 -0.32151,0.5685 -0.71811,0.5685 -0.39659,0 -0.7181,-0.254526 -0.7181,-0.5685 0,-0.313974 0.32151,-0.568501 0.7181,-0.568501 0.3966,0 0.71811,0.254527 0.71811,0.568501 z"
           transform="matrix(1.5,0,0,1.7894737,-86.591635,-53.813066)" />
        <rect
           style="fill:#795b53;fill-opacity:1;stroke:#1b2a34;stroke-width:0.62863064;stroke-miterlimit:4;stroke-dasharray:none"
           id="rect3900"
           width="4.9036951"
           height="9.9338017"
           x="176.84262"
           y="90.084328"
           ry="1.3341333"
           transform="matrix(0.98848244,-0.15133561,0,1,0,0)" />
        <path
           style="font-size:medium;font-style:normal;font-variant:normal;font-weight:normal;font-stretch:normal;text-indent:0;text-align:start;text-decoration:none;line-height:normal;letter-spacing:normal;word-spacing:normal;text-transform:none;direction:ltr;block-progression:tb;writing-mode:lr-tb;text-anchor:start;baseline-shift:baseline;color:#000000;fill:#f2f3f2;fill-opacity:1;stroke:#1b2a34;stroke-width:0.5;stroke-miterlimit:4;stroke-dasharray:none;marker:none;visibility:visible;display:inline;overflow:visible;enable-background:accumulate;font-family:Sans;-inkscape-font-specification:Sans"
           d="m 164.3125,63.15625 c -0.44717,0.02081 -0.84906,0.0333 -1.28125,0.15625 -0.43219,0.122948 -0.87395,0.406003 -1.15625,0.84375 -0.5646,0.875493 -0.69196,2.10514 -0.75,4.40625 -0.0583,2.313313 -0.15856,2.695002 0.21875,3.578126 0.18866,0.441562 0.64117,0.763354 1.03125,0.875 0.39008,0.111646 0.73528,0.123807 1.1875,0.1875 l 0.21875,-1.46875 c -1.50114,-0.519723 -1.07401,-1.375246 -1.1562,-3.140626 0.0565,-2.238201 0.30386,-3.32086 0.5,-3.625 0.0981,-0.15207 0.13232,-0.167491 0.3125,-0.21875 0.18018,-0.05126 0.49333,-0.07309 0.9375,-0.09375 l -0.0625,-1.5 z"
           id="path3904"
           inkscape:connector-curvature="0"
           sodipodi:nodetypes="csscssccccsccc"
           mask="url(#mask3912)" />
        <rect
           style="fill:#a3a2a4;fill-opacity:1;stroke:#1b2a34;stroke-width:0.5;stroke-linecap:round;stroke-linejoin:round;stroke-miterlimit:4;stroke-opacity:1;stroke-dasharray:none;stroke-dashoffset:0"
           id="rect3902"
           width="5.4945054"
           height="1.7857143"
           x="167.16232"
           y="54.513885"
           ry="0.89285713"
           transform="matrix(0.99699844,0.07742164,-0.07742164,0.99699844,0,0)" />
      </g>
      <path
         sodipodi:nodetypes="ccccccccccc"
         inkscape:connector-curvature="0"
         id="path3840"
         d="m 168.84562,35.90625 0,0.21875 -1.75,1.8125 -3.43512,27.84375 c 1.65401,1.987447 5.27887,5.3125 5.27887,5.3125 0,0 3.86396,-3.780259 5.13049,-5.3125 l -3.25549,-27.84375 -1.75,-1.8125 0,-0.21875 -0.125,0.125 z"
         style="fill:#957976;stroke:#1b2a34;stroke-width:0.625;stroke-linecap:round;stroke-linejoin:miter;stroke-miterlimit:4;stroke-opacity:1;stroke-dasharray:none" />
      <path
         sodipodi:nodetypes="cccccccccccsc"
         inkscape:connector-curvature="0"
         style="font-size:medium;font-style:normal;font-variant:normal;font-weight:normal;font-stretch:normal;text-indent:0;text-align:start;text-decoration:none;line-height:normal;letter-spacing:normal;word-spacing:normal;text-transform:none;direction:ltr;block-progression:tb;writing-mode:lr-tb;text-anchor:start;baseline-shift:baseline;color:#000000;fill:#1b2a34;fill-opacity:1;stroke:none;stroke-width:1px;marker:none;visibility:visible;display:inline;overflow:visible;enable-background:accumulate;font-family:Sans;-inkscape-font-specification:Sans"
         d="m 168.87687,32.65625 c -6.33281,-0.07983 -5.55802,4.262036 -6.125,5.1875 -3.61042,-0.809007 -6.5409,-1.882372 -9.1875,-2.71875 2.35444,1.804635 5.85117,3.33658 9.73323,4.170734 l 0.28125,0.0625 0.1875,-0.1875 c 5.14742,-4.65478 5.04277,-5.951034 10.70065,0.09737 l 0.1875,0.1875 0.28125,-0.0625 c 3.88206,-0.834154 7.05543,-2.46347 9.40987,-4.268105 -2.6466,0.836378 -5.54583,1.909743 -9.15625,2.71875 -0.56682,-0.925202 0.20198,-5.264796 -6.125,-5.1875 -0.0666,8.13e-4 -0.11937,-0.0018 -0.1875,0 z"
         id="path3066" />
      <rect
         ry="2.5316455"
         y="32.973618"
         x="165.79044"
         height="5.0632911"
         width="6.329114"
         id="rect3070"
         style="fill:#957976;fill-opacity:1;stroke:#1b2a34;stroke-width:0.375;stroke-linecap:round;stroke-linejoin:round;stroke-miterlimit:4;stroke-opacity:1;stroke-dasharray:none;stroke-dashoffset:0" />
      <path
         id="path3056"
         d="m 168.87687,32.65625 c -6.33281,-0.07983 -5.55802,4.262036 -6.125,5.1875 -3.61042,-0.809007 -6.5409,-1.882372 -9.1875,-2.71875 2.35444,1.804635 5.46169,2.947096 9.34375,3.78125 l 0.28125,0.0625 0.1875,-0.1875 c 1.85583,-1.767545 -0.61362,-5.214214 5.5,-5.125 0.0662,9.66e-4 0.11925,-0.0018 0.1875,0 6.11362,-0.08921 3.64417,3.357455 5.5,5.125 l 0.1875,0.1875 0.28125,-0.0625 c 3.88206,-0.834154 6.95806,-1.976615 9.3125,-3.78125 -2.6466,0.836378 -5.54583,1.909743 -9.15625,2.71875 -0.56682,-0.925202 0.20198,-5.264796 -6.125,-5.1875 -0.0666,8.13e-4 -0.11937,-0.0018 -0.1875,0 z"
         style="font-size:medium;font-style:normal;font-variant:normal;font-weight:normal;font-stretch:normal;text-indent:0;text-align:start;text-decoration:none;line-height:normal;letter-spacing:normal;word-spacing:normal;text-transform:none;direction:ltr;block-progression:tb;writing-mode:lr-tb;text-anchor:start;baseline-shift:baseline;color:#000000;fill:#1b2a34;fill-opacity:1;stroke:none;stroke-width:1px;marker:none;visibility:visible;display:inline;overflow:visible;enable-background:accumulate;font-family:Sans;-inkscape-font-specification:Sans"
         inkscape:connector-curvature="0" />
      <path
         sodipodi:nodetypes="cccc"
         inkscape:connector-curvature="0"
         id="path3855"
         d="m 167.68293,37.986965 -0.91088,7.152504 c 1.25951,-5.219777 2.0066,-4.086928 2.25799,-7.024208 z"
         style="fill:#1b2a34;stroke:#1b2a34;stroke-width:0.25;stroke-linecap:round;stroke-linejoin:round;stroke-miterlimit:4;stroke-dasharray:none" />
    </g>
  </g>
  <g
     inkscape:label="template"
     inkscape:groupmode="layer"
     id="layer1"
     transform="translate(-360.9375,-409.84883)"
     style="display:inline">
    <path
       inkscape:connector-curvature="0"
       d="m 361.13813,452.9203 c 8.7325,-47.29375 5.3425,-42.67875 14.2675,-42.85625 l 23.44,0 c 8.92625,0.1775 5.535,-4.4375 14.265,42.85625 l -51.9725,0 z"
       style="fill:none;stroke:#231f20;stroke-width:0.3125;stroke-linecap:butt;stroke-linejoin:miter;stroke-miterlimit:4;stroke-opacity:1;stroke-dasharray:none"
       id="path3093" />
    <path
       id="path4124"
       style="fill:none;stroke:#231f20;stroke-width:0.3125;stroke-linecap:butt;stroke-linejoin:miter;stroke-miterlimit:4;stroke-opacity:1;stroke-dasharray:none"
       d="m 361.13813,452.9203 c 8.7325,-47.29375 5.3425,-42.67875 14.2675,-42.85625 l 23.44,0 c 8.92625,0.1775 5.535,-4.4375 14.265,42.85625 l -51.9725,0 z"
       inkscape:connector-curvature="0" />
  </g>
</svg>
