<?xml version="1.0" encoding="utf-8"?>
<!-- Generator: Adobe Illustrator 15.1.0, SVG Export Plug-In . SVG Version: 6.00 Build 0)  -->
<!DOCTYPE svg PUBLIC "-//W3C//DTD SVG 1.1//EN" "http://www.w3.org/Graphics/SVG/1.1/DTD/svg11.dtd">
<svg version="1.1" xmlns="http://www.w3.org/2000/svg" xmlns:xlink="http://www.w3.org/1999/xlink" x="0px" y="0px"
	 width="56.693px" height="56.693px" viewBox="0 0 56.693 56.693" enable-background="new 0 0 56.693 56.693" xml:space="preserve">
<g id="torso">
	<path id="Torso" fill="#ED1C24" stroke="#ED1C24" stroke-miterlimit="10" d="M28.203,46.685H6.306l5.514-33.212
		c0,0,0.029-1.144,1.05-2.333c0.837-0.976,2.283-1.088,2.283-1.088h13.05h13.048c0,0,1.447,0.112,2.285,1.088
		c1.021,1.19,1.051,2.333,1.051,2.333l5.512,33.212H28.203z"/>
	<path id="back-base" fill="#EC2127" d="M2.216,49.822C10.948,2.528,7.558,7.143,16.483,6.965h23.439
		c8.926,0.177,5.535-4.438,14.266,42.857H2.216z"/>
</g>
<g id="design">
	<defs>
		<path id="SVGID_1_" d="M2.726,49.397c1.934-10.488,3.279-18.484,4.268-24.346C9.864,8,10.099,7.338,13.253,7.338
			c0.33,0,0.689,0.012,1.08,0.024c0.482,0.016,1.014,0.033,1.6,0.033c0.182,0,0.367-0.002,0.559-0.005h23.432
			c0.184,0.003,0.369,0.005,0.551,0.005c0.588,0,1.117-0.018,1.6-0.033c0.393-0.013,0.75-0.024,1.082-0.024
			c3.152,0,3.387,0.662,6.256,17.701c0.986,5.864,2.334,13.862,4.268,24.358H2.726z"/>
	</defs>
	<clipPath id="SVGID_2_">
		<use xlink:href="#SVGID_1_"  overflow="visible"/>
	</clipPath>
	<g id="colar" clip-path="url(#SVGID_2_)">
		<path d="M36.975,8.038c0,0-4.805,1.417-8.73,1.417c-3.606,0-8.816-1.417-8.816-1.417L17.69,9.489l0.404,1.634
			c0,0,0.545,1.251,4.499,1.907c2.889,0.478,5.212,0.469,5.212,0.469l0.564-0.002c0,0,2.435,0.031,5.44-0.467
			c3.952-0.656,4.498-1.907,4.498-1.907l0.405-1.627L36.975,8.038z"/>
		<g>
			<path fill="#E5A739" d="M25.421,12.493c0,0,0.184-0.168,0.245-0.402c0.008-0.031-0.133-0.079-0.125-0.112
				c0.03-0.137,0.205-0.269,0.207-0.407c0-0.026-0.148-0.069-0.151-0.097c-0.008-0.112,0.114-0.224,0.08-0.351
				c-0.008-0.029-0.164-0.073-0.172-0.103c-0.03-0.107-0.033-0.169-0.067-0.261c-0.006-0.017-0.16-0.049-0.165-0.064
				c-0.066-0.169-0.252-0.092-0.324-0.123c-0.026-0.011-0.064-0.019-0.11-0.024c0.066-0.097,0.171-0.267,0.14-0.333
				c-0.014-0.032-0.062-0.061-0.125-0.086c0.041-0.111,0.097-0.284,0.066-0.364c-0.056-0.141-0.314-0.103-0.499-0.074l0.025-0.246
				l-0.022-0.002l-0.051-0.005l-0.023-0.003l-0.026,0.247c-0.176-0.067-0.421-0.158-0.506-0.032
				c-0.045,0.07-0.028,0.252-0.008,0.369c-0.068,0.013-0.122,0.031-0.142,0.059c-0.044,0.058,0.024,0.246,0.069,0.354
				c-0.046-0.004-0.085-0.005-0.114,0c-0.075,0.015-0.241-0.1-0.341,0.052c-0.007,0.014-0.166,0.013-0.173,0.028
				c-0.054,0.082-0.069,0.143-0.123,0.241c-0.013,0.026-0.177,0.038-0.189,0.064c-0.059,0.117,0.036,0.251,0.005,0.359
				c-0.008,0.027-0.162,0.038-0.166,0.064c-0.028,0.135,0.112,0.301,0.115,0.441c0,0.034-0.146,0.052-0.144,0.083
				c0.011,0.242,0.157,0.445,0.157,0.445s-0.183,0.031-0.215,0.078c-0.049,0.073,0.013,0.351,0.013,0.351
				c0.061-0.109,0.237-0.177,0.439-0.156c0.204,0.022-0.022,0.123,0.066,0.212c0.365,0.374,0.182-0.056,0.982,0.047
				c0.803,0.066,0.535,0.448,0.969,0.158c0.107-0.069-0.092-0.215,0.11-0.194c0.202,0.021,0.36,0.125,0.397,0.245
				c0,0,0.119-0.259,0.086-0.341C25.592,12.562,25.421,12.493,25.421,12.493z M23.168,11.318c0.051-0.491,0.43-0.573,0.667-0.603
				c-0.163,0.16-0.245,0.379-0.273,0.629c-0.041,0.397,0.159,0.76,0.424,0.956C23.986,12.3,23.065,12.289,23.168,11.318z
				 M24.261,9.998c-0.105-0.005-0.198-0.002-0.34,0.01c-0.021-0.139-0.025-0.267-0.008-0.294c0.021-0.033,0.148-0.01,0.375,0.076
				L24.261,9.998z M24.433,9.805c0.239-0.037,0.368-0.033,0.382,0.004c0.013,0.03-0.019,0.154-0.069,0.286
				c-0.135-0.042-0.226-0.064-0.329-0.081L24.433,9.805z M24.201,12.353c0.303-0.135,0.572-0.449,0.613-0.846
				c0.026-0.249-0.008-0.481-0.135-0.672c0.227,0.078,0.584,0.208,0.531,0.7C25.109,12.504,24.201,12.353,24.201,12.353z"/>
			<path fill="#E5A739" d="M30.791,12.615c-0.033,0.082,0.087,0.341,0.087,0.341c0.035-0.12,0.195-0.223,0.396-0.245
				c0.204-0.021,0.005,0.125,0.11,0.194c0.436,0.29,0.165-0.092,0.97-0.158c0.801-0.103,0.616,0.327,0.981-0.047
				c0.089-0.09-0.136-0.19,0.066-0.212c0.201-0.021,0.378,0.046,0.441,0.156c0,0,0.061-0.278,0.011-0.351
				c-0.031-0.047-0.214-0.078-0.214-0.078s0.146-0.204,0.158-0.445c0.001-0.031-0.146-0.049-0.146-0.083
				c0.003-0.14,0.144-0.306,0.117-0.441c-0.005-0.026-0.16-0.037-0.168-0.064c-0.03-0.108,0.065-0.242,0.006-0.359
				c-0.014-0.027-0.176-0.038-0.189-0.064c-0.054-0.098-0.069-0.159-0.121-0.241c-0.009-0.015-0.167-0.014-0.176-0.028
				c-0.098-0.152-0.265-0.038-0.34-0.052c-0.028-0.005-0.068-0.005-0.113,0c0.045-0.108,0.112-0.297,0.069-0.354
				c-0.022-0.028-0.074-0.046-0.142-0.059c0.018-0.117,0.036-0.298-0.011-0.369c-0.084-0.126-0.329-0.035-0.505,0.032l-0.024-0.247
				L32.03,9.441l-0.05,0.005l-0.021,0.002l0.024,0.246c-0.185-0.029-0.444-0.067-0.501,0.074c-0.029,0.08,0.026,0.252,0.069,0.364
				c-0.064,0.026-0.112,0.055-0.128,0.086c-0.03,0.066,0.076,0.236,0.141,0.333c-0.045,0.005-0.084,0.013-0.11,0.024
				c-0.07,0.031-0.257-0.047-0.322,0.123c-0.006,0.015-0.159,0.047-0.165,0.064c-0.034,0.091-0.037,0.154-0.067,0.261
				c-0.009,0.029-0.165,0.074-0.172,0.103c-0.034,0.127,0.087,0.238,0.079,0.351c-0.001,0.028-0.15,0.071-0.15,0.097
				c0.003,0.138,0.176,0.27,0.206,0.407c0.008,0.033-0.133,0.081-0.123,0.112c0.061,0.234,0.245,0.402,0.245,0.402
				S30.812,12.562,30.791,12.615z M32.417,12.3c0.267-0.195,0.465-0.559,0.424-0.956c-0.026-0.25-0.11-0.469-0.273-0.629
				c0.238,0.029,0.617,0.112,0.668,0.603C33.337,12.289,32.417,12.3,32.417,12.3z M32.114,9.79c0.228-0.086,0.355-0.109,0.377-0.076
				c0.017,0.027,0.011,0.155-0.009,0.294c-0.141-0.012-0.235-0.016-0.339-0.01L32.114,9.79z M31.987,10.015
				c-0.103,0.017-0.194,0.039-0.33,0.081c-0.049-0.132-0.081-0.255-0.068-0.286c0.015-0.038,0.143-0.042,0.382-0.004L31.987,10.015z
				 M31.192,11.535c-0.052-0.492,0.306-0.622,0.532-0.7c-0.129,0.191-0.161,0.423-0.135,0.672c0.04,0.397,0.312,0.711,0.611,0.846
				C32.201,12.353,31.295,12.504,31.192,11.535z"/>
		</g>
	</g>
	<g id="pockets_and_buttons_1_" clip-path="url(#SVGID_2_)">
		<g>
			<g>
				<g>
					<circle fill="#E5A739" cx="30.251" cy="18.352" r="0.955"/>
					<path d="M30.251,17.68c0.37,0,0.671,0.301,0.671,0.671c0,0.371-0.301,0.672-0.671,0.672s-0.671-0.301-0.671-0.672
						C29.58,17.981,29.881,17.68,30.251,17.68 M30.251,17.113c-0.686,0-1.238,0.555-1.238,1.238c0,0.685,0.553,1.239,1.238,1.239
						c0.682,0,1.238-0.554,1.238-1.239C31.489,17.668,30.933,17.113,30.251,17.113L30.251,17.113z"/>
				</g>
				<g>
					<circle fill="#E5A739" cx="30.251" cy="25.515" r="0.955"/>
					<path d="M30.251,24.844c0.37,0,0.671,0.301,0.671,0.671c0,0.371-0.301,0.672-0.671,0.672s-0.671-0.301-0.671-0.672
						C29.58,25.145,29.881,24.844,30.251,24.844 M30.251,24.277c-0.686,0-1.238,0.555-1.238,1.238c0,0.685,0.553,1.239,1.238,1.239
						c0.682,0,1.238-0.554,1.238-1.239C31.489,24.832,30.933,24.277,30.251,24.277L30.251,24.277z"/>
				</g>
				<g>
					<circle fill="#E5A739" cx="30.251" cy="32.679" r="0.955"/>
					<path d="M30.251,32.008c0.37,0,0.671,0.301,0.671,0.671s-0.301,0.671-0.671,0.671s-0.671-0.301-0.671-0.671
						S29.881,32.008,30.251,32.008 M30.251,31.44c-0.686,0-1.238,0.555-1.238,1.238c0,0.686,0.553,1.238,1.238,1.238
						c0.682,0,1.238-0.553,1.238-1.238C31.489,31.995,30.933,31.44,30.251,31.44L30.251,31.44z"/>
				</g>
				<g>
					<circle fill="#E5A739" cx="30.251" cy="39.843" r="0.955"/>
					<path d="M30.251,39.172c0.37,0,0.671,0.301,0.671,0.671s-0.301,0.671-0.671,0.671s-0.671-0.301-0.671-0.671
						S29.881,39.172,30.251,39.172 M30.251,38.604c-0.686,0-1.238,0.555-1.238,1.238c0,0.685,0.553,1.238,1.238,1.238
						c0.682,0,1.238-0.554,1.238-1.238C31.489,39.159,30.933,38.604,30.251,38.604L30.251,38.604z"/>
				</g>
				<g>
					<circle fill="#E5A739" cx="30.251" cy="47.006" r="0.955"/>
					<path d="M30.251,46.335c0.37,0,0.671,0.301,0.671,0.671s-0.301,0.671-0.671,0.671s-0.671-0.301-0.671-0.671
						S29.881,46.335,30.251,46.335 M30.251,45.768c-0.686,0-1.238,0.555-1.238,1.238c0,0.686,0.553,1.238,1.238,1.238
						c0.682,0,1.238-0.553,1.238-1.238C31.489,46.322,30.933,45.768,30.251,45.768L30.251,45.768z"/>
				</g>
			</g>
			
				<line fill="none" stroke="#000000" stroke-width="0.6434" stroke-miterlimit="10" x1="28.042" y1="13.487" x2="28.042" y2="49.378"/>
		</g>
		<g>
			<g>
				<path fill="none" stroke="#000000" stroke-width="0.7087" stroke-linejoin="round" stroke-miterlimit="10" d="M46.125,19.366
					l-0.01,4.635c0,0-1.908-1.732-2.967-1.732c-0.876-0.002-3.416,1.383-3.416,1.383s-2.458-1.385-3.307-1.385
					c-1.06,0.002-2.967,1.734-2.967,1.734l-0.011-4.634h6.389L46.125,19.366z"/>
				<path fill="none" stroke="#000000" stroke-width="0.7087" stroke-linejoin="round" stroke-miterlimit="10" d="M45.812,23.583
					l-0.161,7.035c0,0.356-0.288,0.645-0.645,0.645H34.568c-0.357,0-0.646-0.288-0.646-0.645l-0.16-7.035"/>
				<g>
					<circle fill="#E5A739" cx="39.787" cy="21.409" r="0.955"/>
					<path d="M39.787,20.737c0.37,0,0.671,0.301,0.671,0.672s-0.301,0.672-0.671,0.672s-0.671-0.301-0.671-0.672
						S39.417,20.737,39.787,20.737 M39.787,20.17c-0.685,0-1.238,0.555-1.238,1.239c0,0.684,0.554,1.239,1.238,1.239
						c0.684,0,1.238-0.555,1.238-1.239C41.025,20.726,40.471,20.17,39.787,20.17L39.787,20.17z"/>
				</g>
				<g>
					
						<line fill="none" stroke="#000000" stroke-width="0.5669" stroke-linejoin="round" stroke-miterlimit="10" x1="37.933" y1="31.263" x2="37.933" y2="22.976"/>
					
						<line fill="none" stroke="#000000" stroke-width="0.5669" stroke-linejoin="round" stroke-miterlimit="10" x1="41.641" y1="31.263" x2="41.641" y2="22.976"/>
				</g>
			</g>
			<g>
				<path fill="none" stroke="#000000" stroke-width="0.7087" stroke-linejoin="round" stroke-miterlimit="10" d="M22.955,19.366
					l-0.01,4.635c0,0-1.908-1.732-2.967-1.732c-0.875-0.002-3.416,1.383-3.416,1.383s-2.458-1.385-3.307-1.385
					c-1.06,0.002-2.967,1.734-2.967,1.734l-0.01-4.634h6.388L22.955,19.366z"/>
				<path fill="none" stroke="#000000" stroke-width="0.7087" stroke-linejoin="round" stroke-miterlimit="10" d="M22.641,23.583
					l-0.161,7.035c0,0.356-0.288,0.645-0.645,0.645H11.398c-0.357,0-0.645-0.288-0.645-0.645l-0.161-7.035"/>
				<g>
					<circle fill="#E5A739" cx="16.617" cy="21.409" r="0.955"/>
					<path d="M16.617,20.737c0.371,0,0.672,0.301,0.672,0.672s-0.301,0.672-0.672,0.672s-0.672-0.301-0.672-0.672
						S16.246,20.737,16.617,20.737 M16.617,20.17c-0.684,0-1.239,0.555-1.239,1.239c0,0.684,0.555,1.239,1.239,1.239
						c0.684,0,1.239-0.555,1.239-1.239C17.855,20.726,17.3,20.17,16.617,20.17L16.617,20.17z"/>
				</g>
				<g>
					
						<line fill="none" stroke="#000000" stroke-width="0.5669" stroke-linejoin="round" stroke-miterlimit="10" x1="14.762" y1="31.263" x2="14.762" y2="22.976"/>
					
						<line fill="none" stroke="#000000" stroke-width="0.5669" stroke-linejoin="round" stroke-miterlimit="10" x1="18.471" y1="31.263" x2="18.471" y2="22.976"/>
				</g>
			</g>
		</g>
		<g display="none">
			<path display="inline" fill="none" stroke="#000000" stroke-width="0.4825" stroke-linejoin="round" stroke-miterlimit="10" d="
				M47.398,43.844l-0.012,4.483c0,0-2.262-1.736-3.519-1.736c-1.037-0.003-4.049,1.387-4.049,1.387s-2.915-1.39-3.923-1.39
				c-1.256,0.003-3.518,1.739-3.518,1.739l-0.012-4.482h7.574L47.398,43.844z"/>
			<path display="inline" fill="none" stroke="#000000" stroke-width="0.4825" stroke-linejoin="round" stroke-miterlimit="10" d="
				M24.039,43.844l-0.012,4.483c0,0-2.261-1.736-3.518-1.736c-1.038-0.003-4.05,1.387-4.05,1.387s-2.915-1.39-3.921-1.39
				c-1.256,0.003-3.518,1.739-3.518,1.739l-0.012-4.482h7.575L24.039,43.844z"/>
		</g>
	</g>
	<g id="belts_and_pouches" clip-path="url(#SVGID_2_)">
		<path fill="#692F16" stroke="#000000" stroke-width="0.5102" stroke-linejoin="bevel" stroke-miterlimit="10" d="M4.92,36.884
			l0.441-2.519c0.082-0.052,12.046-2.279,22.131-10.373c6.744-5.411,18.146-16.554,18.266-16.697l1.229,0.57l0.888,0.909
			c-0.501,0.591-11.851,11.644-18.785,17.208C18.882,34.173,5.003,36.831,4.92,36.884z"/>
		<polygon fill="#692F16" stroke="#000000" stroke-width="0.6917" stroke-linejoin="round" stroke-miterlimit="10" points="
			53.968,43.029 2.436,43.029 3.3,37.666 53.104,37.666 		"/>
		<g>
			
				<path fill="#A2A0A2" stroke="#000000" stroke-width="0.4252" stroke-linecap="round" stroke-linejoin="round" stroke-miterlimit="10" d="
				M29.58,36.546h-3.587c-0.629,0-1.143,0.511-1.143,1.142v5.319c0,0.631,0.513,1.142,1.143,1.142h3.587
				c0.63,0,1.143-0.511,1.143-1.142v-5.319C30.723,37.057,30.21,36.546,29.58,36.546z M29.647,43.007h-3.655v-5.354h3.655V43.007z"
				/>
			
				<path fill="#A2A0A2" stroke="#000000" stroke-width="0.4252" stroke-linecap="round" stroke-linejoin="round" stroke-miterlimit="10" d="
				M27.063,39.583h-2.112c-0.18,0-0.327-0.192-0.327-0.423c0-0.232,0.146-0.421,0.327-0.421h2.112c0.18,0,0.326,0.188,0.326,0.421
				C27.389,39.391,27.243,39.583,27.063,39.583z"/>
			
				<path fill="#A2A0A2" stroke="#000000" stroke-width="0.4252" stroke-linecap="round" stroke-linejoin="round" stroke-miterlimit="10" d="
				M27.389,41.532c0-0.232-0.146-0.42-0.326-0.42h-2.112c-0.18,0-0.327,0.188-0.327,0.42c0,0.231,0.146,0.424,0.327,0.424h2.112
				C27.243,41.956,27.389,41.764,27.389,41.532z"/>
		</g>
		<g>
			<g>
				<circle cx="22.32" cy="39.41" r="0.467"/>
				<circle cx="18.541" cy="39.409" r="0.467"/>
				<circle cx="14.762" cy="39.408" r="0.467"/>
				<circle cx="10.984" cy="39.407" r="0.466"/>
				<circle cx="7.205" cy="39.406" r="0.467"/>
			</g>
			<g>
				<circle cx="22.32" cy="41.289" r="0.467"/>
				<circle cx="18.541" cy="41.288" r="0.467"/>
				<circle cx="14.762" cy="41.288" r="0.467"/>
				<circle cx="10.984" cy="41.287" r="0.466"/>
				<circle cx="7.205" cy="41.286" r="0.467"/>
			</g>
		</g>
		<g>
			<circle cx="32.462" cy="40.348" r="0.466"/>
			<circle cx="36.612" cy="40.348" r="0.466"/>
			<circle cx="40.761" cy="40.348" r="0.467"/>
			<circle cx="44.91" cy="40.348" r="0.467"/>
			<circle cx="49.06" cy="40.348" r="0.467"/>
		</g>
		<g>
			<path fill="#692E14" stroke="#000000" stroke-width="0.7579" stroke-miterlimit="10" d="M17.331,46.957
				c0,0.419-0.339,0.758-0.758,0.758H9.666c-0.418,0-0.758-0.339-0.758-0.758l-0.189-9.5c0-0.42,0.339-0.759,0.758-0.759h7.285
				c0.419,0,0.758,0.339,0.758,0.759L17.331,46.957z"/>
			<path fill="none" stroke="#000000" stroke-width="0.5684" stroke-linejoin="round" stroke-miterlimit="10" d="M8.953,40.02
				c0,0,1.749-0.093,2.317,0.189c0.453,0.225,0.983,1.137,1.861,1.137c0.794,0,1.407-0.914,1.86-1.137
				c0.606-0.298,2.295-0.189,2.295-0.189"/>
			<circle fill="#E5A739" stroke="#000000" stroke-width="0.379" stroke-miterlimit="10" cx="13.119" cy="39.553" r="0.804"/>
		</g>
		<g display="none">
			
				<path display="inline" fill="#692E14" stroke="#000000" stroke-width="0.6434" stroke-linejoin="round" stroke-miterlimit="10" d="
				M10.416,48.327c0,0.521,0.423,0.945,0.945,0.945h2.408c0.522,0,0.945-0.424,0.945-0.945V36.633c0-0.522-0.423-0.945-0.945-0.945
				H6.96c-0.522,0-0.944,0.423-0.944,0.945c0,0-0.185,1.387,0.019,1.853c0.571,1.305,2.613,3.396,3.238,4.674
				C9.85,44.336,10.416,48.327,10.416,48.327z"/>
			<path display="inline" fill="none" stroke="#000000" stroke-width="0.4825" stroke-linecap="round" stroke-miterlimit="10" d="
				M6.144,38.468c0,0,1.636,1.608,4.143,1.608c2.411,0,4.208-1.608,4.208-1.608"/>
			
				<circle display="inline" fill="#E5A739" stroke="#000000" stroke-width="0.3217" stroke-miterlimit="10" cx="10.205" cy="38.593" r="0.683"/>
		</g>
		<g>
			<path fill="#A2A0A2" stroke="#000000" stroke-width="0.4252" stroke-miterlimit="10" d="M24.521,29.974
				c-0.29,0-0.473-0.222-0.585-0.388l-0.083-0.127l0.121-0.087c0,0,0.526-0.383,0.696-0.495l1.532-1.03
				c0.023-0.017,0.047-0.073,0.047-0.165c-0.001-0.099-0.029-0.192-0.057-0.233l-0.913-1.361c-0.051-0.077-0.21-0.174-0.316-0.174
				l-1.579,1.039c-0.169,0.114-0.691,0.439-0.691,0.439l-0.129,0.079l-0.083-0.126c-0.372-0.557-0.159-0.852,0.362-1.2l1.532-1.03
				c0.229-0.154,0.491-0.235,0.756-0.235c0.382,0,0.715,0.167,0.912,0.458l1.128,1.692c0.151,0.225,0.204,0.503,0.148,0.785
				c-0.064,0.332-0.274,0.64-0.574,0.84l-1.534,1.031C24.905,29.888,24.706,29.974,24.521,29.974L24.521,29.974z"/>
			<path fill="#A2A0A2" stroke="#000000" stroke-width="0.4252" stroke-miterlimit="10" d="M25.107,27.796
				c-0.176,0-0.352-0.101-0.458-0.261c-0.091-0.131-0.125-0.291-0.096-0.435c0.024-0.122,0.092-0.225,0.189-0.289l1.297-0.87
				c0.072-0.048,0.157-0.074,0.245-0.074c0.176,0,0.353,0.101,0.462,0.262c0.167,0.252,0.125,0.577-0.096,0.723l-1.298,0.871
				C25.282,27.77,25.196,27.796,25.107,27.796z"/>
		</g>
	</g>
	<g id="layard" clip-path="url(#SVGID_2_)">
		<g>
			<path fill="#F0F0ED" stroke="#091724" stroke-width="0.4504" stroke-miterlimit="10" d="M1.802,34.581l-0.311-0.913
				c4.389-1.487,8.792-0.683,12.677,0.028c2.884,0.528,5.607,1.026,7.841,0.484c7.33-1.777,5.909-17.705,5.895-17.866l0.961-0.091
				c0.065,0.69,1.504,16.923-6.628,18.894c-2.433,0.59-5.255,0.074-8.241-0.473C10.225,33.957,5.952,33.173,1.802,34.581z"/>
			<path fill="#F0F0ED" stroke="#091724" stroke-width="0.4504" stroke-miterlimit="10" d="M28.271,16.429
				c-0.133,0-0.265-0.055-0.359-0.16l-0.481-0.535c-1.255,0.075-6.94,0.199-10.078-3.027c-1.629-1.675-2.289-3.968-1.959-6.814
				l0.958,0.111c-0.294,2.544,0.275,4.573,1.693,6.031c3.151,3.241,9.481,2.727,9.545,2.722c0.152-0.015,0.3,0.045,0.401,0.157
				l0.368,0.41l0.756-0.471c0.084-0.052,0.175-0.076,0.286-0.071c0.049,0.003,5.595,0.315,8.849-2.74
				c1.575-1.479,2.376-3.53,2.376-6.093h0.964c0,2.842-0.902,5.13-2.682,6.8c-3.283,3.077-8.435,3.04-9.411,3.003l-0.972,0.604
				C28.446,16.405,28.358,16.429,28.271,16.429z"/>
			
				<path fill="#FFFFFF" stroke="#000000" stroke-width="0.4504" stroke-linecap="round" stroke-linejoin="round" stroke-miterlimit="10" d="
				M28.871,16.145c0.263-0.076,0.453-0.226,0.465-0.42c0.025-0.297-0.355-0.568-0.85-0.603c-0.492-0.036-0.905,0.176-0.927,0.475
				c-0.013,0.194,0.153,0.37,0.4,0.483c-0.261,0.076-0.452,0.227-0.466,0.42c-0.021,0.298,0.358,0.567,0.85,0.604
				c0.49,0.036,0.909-0.176,0.929-0.476C29.285,16.436,29.118,16.26,28.871,16.145z"/>
		</g>
	</g>
</g>
</svg>
