<?xml version="1.0" encoding="UTF-8" standalone="no"?>
<!-- Created with Inkscape (http://www.inkscape.org/) -->

<svg
   xmlns:dc="http://purl.org/dc/elements/1.1/"
   xmlns:cc="http://creativecommons.org/ns#"
   xmlns:rdf="http://www.w3.org/1999/02/22-rdf-syntax-ns#"
   xmlns:svg="http://www.w3.org/2000/svg"
   xmlns="http://www.w3.org/2000/svg"
   xmlns:xlink="http://www.w3.org/1999/xlink"
   xmlns:sodipodi="http://sodipodi.sourceforge.net/DTD/sodipodi-0.dtd"
   xmlns:inkscape="http://www.inkscape.org/namespaces/inkscape"
   width="52.38813"
   height="43.401779"
   id="svg2"
   version="1.1"
   inkscape:version="0.48.1 "
   sodipodi:docname="tlg-shave-a-sheep-shepherd.svg">
  <defs
     id="defs4">
    <linearGradient
       inkscape:collect="always"
       id="linearGradient4011">
      <stop
         style="stop-color:#ffffff;stop-opacity:1;"
         offset="0"
         id="stop4013" />
      <stop
         style="stop-color:#ffffff;stop-opacity:0;"
         offset="1"
         id="stop4015" />
    </linearGradient>
    <linearGradient
       inkscape:collect="always"
       id="linearGradient3997">
      <stop
         style="stop-color:#ffffff;stop-opacity:1;"
         offset="0"
         id="stop3999" />
      <stop
         style="stop-color:#ffffff;stop-opacity:0;"
         offset="1"
         id="stop4001" />
    </linearGradient>
    <inkscape:path-effect
       effect="skeletal"
       id="path-effect4237"
       is_visible="true"
       pattern="M 0,5 C 0,2.24 2.24,0 5,0 7.76,0 10,2.24 10,5 10,7.76 7.76,10 5,10 2.24,10 0,7.76 0,5 z"
       copytype="single_stretched"
       prop_scale="1"
       scale_y_rel="false"
       spacing="0"
       normal_offset="0"
       tang_offset="0"
       prop_units="false"
       vertical_pattern="false"
       fuse_tolerance="0" />
    <clipPath
       id="clipPath2999"
       clipPathUnits="userSpaceOnUse">
      <path
         id="path3001"
         d="M 0,792 612,792 612,0 0,0 0,792 z"
         inkscape:connector-curvature="0" />
    </clipPath>
    <radialGradient
       gradientUnits="userSpaceOnUse"
       gradientTransform="matrix(0.75988491,-0.03632001,0.13155835,2.7524547,16.986326,-78.268899)"
       r="12.650181"
       fy="46.658409"
       fx="96.306435"
       cy="46.658409"
       cx="96.306435"
       id="radialGradient3972"
       xlink:href="#linearGradient3966"
       inkscape:collect="always" />
    <clipPath
       clipPathUnits="userSpaceOnUse"
       id="clipPath2999-4">
      <path
         inkscape:connector-curvature="0"
         d="M 0,792 612,792 612,0 0,0 0,792 z"
         id="path3001-0" />
    </clipPath>
    <linearGradient
       id="linearGradient3966">
      <stop
         id="stop3968"
         offset="0"
         style="stop-color:#c0ac02;stop-opacity:1;" />
      <stop
         id="stop3970"
         offset="1"
         style="stop-color:#fdea41;stop-opacity:0;" />
    </linearGradient>
    <radialGradient
       inkscape:collect="always"
       xlink:href="#linearGradient3997"
       id="radialGradient4003"
       cx="165.81134"
       cy="47.693741"
       fx="165.81134"
       fy="47.693741"
       r="3.8123069"
       gradientTransform="matrix(0.64374811,-0.18781617,0.31213841,1.069868,43.640483,27.15595)"
       gradientUnits="userSpaceOnUse" />
    <radialGradient
       inkscape:collect="always"
       xlink:href="#linearGradient3997"
       id="radialGradient4007"
       gradientUnits="userSpaceOnUse"
       gradientTransform="matrix(-0.64374811,-0.18781617,-0.31213841,1.069868,293.73143,27.15595)"
       cx="165.81134"
       cy="47.693741"
       fx="165.81134"
       fy="47.693741"
       r="3.8123069" />
    <radialGradient
       inkscape:collect="always"
       xlink:href="#linearGradient4011"
       id="radialGradient4017"
       cx="169.32254"
       cy="41.784931"
       fx="169.32254"
       fy="41.784931"
       r="6.982676"
       gradientTransform="matrix(0.31036379,-0.01814613,0.03701409,0.63307367,114.75293,21.468668)"
       gradientUnits="userSpaceOnUse" />
    <linearGradient
       id="linearGradient3966-2">
      <stop
         style="stop-color:#c0ac02;stop-opacity:1;"
         offset="0"
         id="stop3968-4" />
      <stop
         style="stop-color:#fdea41;stop-opacity:0;"
         offset="1"
         id="stop3970-5" />
    </linearGradient>
    <clipPath
       id="clipPath2999-4-8"
       clipPathUnits="userSpaceOnUse">
      <path
         id="path3001-0-8"
         d="M 0,792 612,792 612,0 0,0 0,792 z"
         inkscape:connector-curvature="0" />
    </clipPath>
    <radialGradient
       inkscape:collect="always"
       xlink:href="#linearGradient3966-2"
       id="radialGradient3972-4"
       cx="96.306435"
       cy="46.658409"
       fx="96.306435"
       fy="46.658409"
       r="12.650181"
       gradientTransform="matrix(0.75988491,-0.03632001,0.13155835,2.7524547,16.986326,-78.268899)"
       gradientUnits="userSpaceOnUse" />
    <clipPath
       clipPathUnits="userSpaceOnUse"
       id="clipPath2999-0">
      <path
         inkscape:connector-curvature="0"
         d="M 0,792 612,792 612,0 0,0 0,792 z"
         id="path3001-9" />
    </clipPath>
    <inkscape:path-effect
       fuse_tolerance="0"
       vertical_pattern="false"
       prop_units="false"
       tang_offset="0"
       normal_offset="0"
       spacing="0"
       scale_y_rel="false"
       prop_scale="1"
       copytype="single_stretched"
       pattern="M 0,5 C 0,2.24 2.24,0 5,0 7.76,0 10,2.24 10,5 10,7.76 7.76,10 5,10 2.24,10 0,7.76 0,5 z"
       is_visible="true"
       id="path-effect4237-4"
       effect="skeletal" />
  </defs>
  <sodipodi:namedview
     id="base"
     pagecolor="#ffffff"
     bordercolor="#666666"
     borderopacity="1.0"
     inkscape:pageopacity="0.0"
     inkscape:pageshadow="2"
     inkscape:zoom="10.343761"
     inkscape:cx="19.460247"
     inkscape:cy="9.0624329"
     inkscape:document-units="px"
     inkscape:current-layer="layer36"
     showgrid="false"
     fit-margin-top="0"
     fit-margin-left="0"
     fit-margin-right="0"
     fit-margin-bottom="0"
     inkscape:window-width="1280"
     inkscape:window-height="1002"
     inkscape:window-x="1358"
     inkscape:window-y="-8"
     inkscape:window-maximized="1"
     showguides="true"
     inkscape:guide-bbox="true"
     inkscape:snap-global="false">
    <sodipodi:guide
       orientation="0,1"
       position="11.28133,21.705909"
       id="guide3274" />
    <sodipodi:guide
       orientation="1,0"
       position="26.13159,26.822611"
       id="guide3960" />
  </sodipodi:namedview>
  <metadata
     id="metadata7">
    <rdf:RDF>
      <cc:Work
         rdf:about="">
        <dc:format>image/svg+xml</dc:format>
        <dc:type
           rdf:resource="http://purl.org/dc/dcmitype/StillImage" />
        <dc:title />
      </cc:Work>
    </rdf:RDF>
  </metadata>
  <g
     inkscape:groupmode="layer"
     id="layer36"
     inkscape:label="torso"
     transform="translate(-142.76812,-31.473222)"
     style="display:inline">
    <path
       inkscape:connector-curvature="0"
       d="m 142.96875,74.54469 c 8.73249,-47.29375 5.3425,-42.67875 14.26749,-42.85625 l 23.44001,0 c 8.92625,0.1775 5.535,-4.4375 14.265,42.85625 l -51.9725,0 z"
       style="fill:#dcc392;stroke:#dcc392;stroke-width:0.31250000000000000;stroke-linecap:butt;stroke-linejoin:miter;stroke-miterlimit:4;stroke-opacity:1;stroke-dasharray:none;display:inline;fill-opacity:1"
       id="path4150" />
    <g
       id="g3092"
       transform="matrix(1.1416887,0,0,1.1416887,36.687511,-33.586981)">
      <g
         id="overall"
         transform="translate(93.179792,56.147151)">
        <g
           id="g7">
          <path
             id="path9"
             d="m 43.861,38.247 c 0,0 -0.653,-2.689 -1.965,-5.573 C 40.235,29.022 38.2,24.377 37.505,22.087 36.376,18.363 35.464,14.12 35.464,14.12 c 0,0 0.019,-0.361 -0.389,-0.948 -0.197,-0.284 -1.213,-0.316 -1.213,-0.316 0,0 -5.208,0.535 -7.075,0.6 -0.562,0.02 -2.547,-0.254 -3.39,-0.255 -0.799,0 -2.725,0.132 -3.257,0.114 -1.975,-0.067 -8.656,-0.473 -8.656,-0.473 0,0 -0.761,0.098 -1.062,0.473 -0.356,0.48 -0.381,0.625 -0.381,0.625 0,0 -1.163,5.265 -2.25,8.576 -0.722,2.199 -2.563,6.655 -4.19,10.195 -1.312,2.854 -2.108,5.538 -2.108,5.538"
             inkscape:connector-curvature="0"
             style="fill:#96866d" />
          <path
             id="path11"
             d="M 43.691,38.288 C 43.073,36.267 42.493,34.208 41.502,32.319 41.018,31.366 40.688,30.343 40.286,29.354 39.913,28.351 39.427,27.4 38.96,26.436 38.001,24.526 37.385,22.44 36.808,20.388 36.24,18.325 35.732,16.251 35.273,14.161 L 35.269,14.145 35.268,14.109 C 35.266,13.997 35.203,13.801 35.13,13.651 35.086,13.573 35.052,13.492 34.999,13.417 34.949,13.339 34.9,13.252 34.87,13.249 34.777,13.189 34.579,13.136 34.406,13.108 34.227,13.078 34.037,13.06 33.857,13.051 l 0.025,-10e-4 c -1.861,0.187 -3.722,0.366 -5.59,0.508 l -1.405,0.086 c -0.498,0.016 -0.957,-0.05 -1.425,-0.089 -0.941,-0.085 -1.841,-0.212 -2.771,-0.146 -0.934,0.026 -1.857,0.119 -2.816,0.085 l -2.804,-0.141 -5.599,-0.326 0.035,-10e-4 c -0.256,0.04 -0.533,0.118 -0.745,0.244 -0.12,0.081 -0.165,0.106 -0.254,0.244 -0.086,0.118 -0.159,0.228 -0.225,0.344 -0.033,0.061 -0.06,0.109 -0.065,0.148 l -0.048,0.212 -0.096,0.423 -0.196,0.849 c -0.266,1.126 -0.543,2.25 -0.837,3.37 -0.573,2.24 -1.266,4.471 -2.146,6.613 -0.854,2.153 -1.763,4.281 -2.713,6.393 -0.986,2.09 -1.841,4.231 -2.521,6.431 l -0.335,-0.1 C 2.009,35.976 2.87,33.811 3.854,31.718 4.798,29.611 5.702,27.484 6.55,25.337 7.424,23.198 8.106,21.005 8.677,18.764 8.969,17.647 9.245,16.526 9.51,15.402 l 0.196,-0.843 0.096,-0.422 0.047,-0.211 c 0.021,-0.104 0.068,-0.185 0.104,-0.25 0.076,-0.135 0.164,-0.266 0.248,-0.382 0.033,-0.048 0.092,-0.129 0.161,-0.195 0.065,-0.06 0.134,-0.111 0.206,-0.153 0.288,-0.167 0.579,-0.246 0.892,-0.296 l 0.015,-0.002 0.021,10e-4 5.597,0.322 2.797,0.138 c 0.91,0.032 1.853,-0.06 2.787,-0.087 1.935,-0.112 3.719,0.446 5.587,0.146 1.859,-0.143 3.721,-0.323 5.578,-0.51 l 0.015,-10e-4 0.012,0 c 0.206,0.009 0.4,0.027 0.603,0.062 0.205,0.041 0.396,0.065 0.632,0.211 0.14,0.099 0.174,0.198 0.23,0.278 0.059,0.084 0.102,0.181 0.151,0.271 0.085,0.2 0.168,0.373 0.177,0.648 l -0.005,-0.051 c 0.459,2.079 0.967,4.151 1.533,6.204 0.287,1.028 0.572,2.049 0.964,3.034 0.371,0.995 0.829,1.958 1.142,2.981 0.354,1.006 0.714,2.014 1.199,2.966 0.456,0.964 0.998,1.89 1.394,2.881 0.813,1.98 1.684,3.954 2.143,6.063 l -0.341,0.083 z"
             inkscape:connector-curvature="0" />
        </g>
        <g
           id="g13">
          <path
             id="path15"
             d="m 30.516,1.531 c 0,0 -0.22,3.862 -0.55,6.33 -0.419,3.13 -1.17,6.458 -1.17,6.458 l 5.058,0.833 c 0,0 0.724,-3.666 1.139,-6.652 0.506,-3.641 0.582,-6.986 0.582,-6.986"
             inkscape:connector-curvature="0"
             style="fill:#96866d" />
          <path
             id="path17"
             d="m 30.516,1.531 c 0.021,1.08 -10e-4,2.159 -0.048,3.237 -0.044,1.079 -0.141,2.155 -0.308,3.226 -0.342,2.135 -0.762,4.248 -1.17,6.37 l -0.162,-0.241 c 0.846,0.122 1.697,0.212 2.541,0.341 0.841,0.153 1.683,0.297 2.517,0.489 l -0.229,0.16 0,0 c 0.429,-2.248 0.868,-4.502 1.125,-6.775 0.251,-2.272 0.432,-4.543 0.793,-6.824 0.125,1.152 0.095,2.305 0.046,3.455 -0.068,1.149 -0.201,2.294 -0.382,3.432 -0.376,2.271 -0.747,4.535 -1.188,6.791 v 0 c -0.014,0.101 -0.105,0.172 -0.206,0.162 l -0.024,-0.002 c -0.852,-0.086 -1.695,-0.219 -2.54,-0.343 -0.842,-0.148 -1.677,-0.335 -2.517,-0.491 L 28.756,14.517 C 28.65,14.497 28.579,14.395 28.6,14.288 l 0.002,-0.011 c 0.511,-2.085 0.893,-4.208 1.142,-6.339 0.225,-2.13 0.484,-4.268 0.772,-6.407 z"
             inkscape:connector-curvature="0" />
        </g>
        <g
           id="g19">
          <path
             id="path21"
             d="m 9.036,1.656 c 0,0 0.333,3.741 0.935,6.721 0.482,2.392 1.544,6.82 1.544,6.82 l 4.877,-0.981 c 0,0 -1.001,-4.041 -1.535,-6.655 -0.445,-2.18 -0.801,-6.036 -0.801,-6.036"
             inkscape:connector-curvature="0"
             style="fill:#96866d" />
          <path
             id="path23"
             d="m 9.036,1.656 c 0.476,2.258 0.628,4.548 1.076,6.796 0.492,2.24 1.02,4.476 1.6,6.697 l -0.237,-0.151 c 0.796,-0.245 1.61,-0.407 2.433,-0.52 0.822,-0.117 1.635,-0.282 2.453,-0.42 l -0.125,0.197 c -0.51,-2.094 -1.007,-4.189 -1.454,-6.3 -0.251,-1.054 -0.411,-2.127 -0.5,-3.202 -0.099,-1.075 -0.191,-2.149 -0.226,-3.228 0.319,2.132 0.648,4.261 1.027,6.366 0.447,2.103 0.951,4.197 1.465,6.286 0.021,0.087 -0.032,0.174 -0.119,0.196 0,0 -0.006,0.001 -0.006,0.001 -0.808,0.188 -1.621,0.351 -2.424,0.561 -0.803,0.213 -1.615,0.379 -2.444,0.461 l -0.026,0.003 c -0.1,0.01 -0.19,-0.058 -0.211,-0.154 C 10.839,12.996 10.312,10.761 9.871,8.503 9.418,6.245 9.006,3.969 9.036,1.656 z"
             inkscape:connector-curvature="0" />
        </g>
        <g
           id="g25">
          <path
             id="path27"
             d="m 30.769,30.597 c 0,0.47 -0.381,0.851 -0.851,0.851 0,0 -5.597,0.283 -7.462,0.283 -1.709,0 -6.837,-0.283 -6.837,-0.283 -0.47,0 -0.851,-0.381 -0.851,-0.851 V 19.548 c 0,-0.47 0.381,-0.851 0.851,-0.851 0,0 5.081,-0.283 6.775,-0.283 1.881,0 7.524,0.283 7.524,0.283 0.47,0 0.851,0.381 0.851,0.851 v 11.049 z"
             inkscape:connector-curvature="0"
             style="fill:#96866d" />
          <path
             id="path29"
             d="m 31.018,30.622 c -0.009,0.111 -0.049,0.357 -0.155,0.51 -0.093,0.163 -0.232,0.295 -0.392,0.387 -0.159,0.098 -0.347,0.136 -0.527,0.139 L 29.51,31.66 c -0.584,0.006 -1.169,-0.003 -1.753,0.02 l -3.502,0.151 c -2.341,0.125 -4.686,-0.013 -7.018,-0.085 l -1.759,-0.104 c -0.382,-0.043 -0.683,-0.307 -0.831,-0.636 -0.133,-0.372 -0.062,-0.66 -0.08,-0.946 l 0.015,-3.504 c -0.017,-1.168 -0.159,-2.336 -0.12,-3.503 0.026,-1.176 0.097,-2.319 0.137,-3.521 0.008,-0.122 0.042,-0.337 0.14,-0.482 0.084,-0.153 0.213,-0.278 0.362,-0.365 0.148,-0.093 0.323,-0.13 0.494,-0.139 l 0.433,-0.02 1.75,-0.085 3.504,-0.126 c 2.347,-0.042 4.677,0.108 7.012,0.199 l 1.76,0.045 c 0.359,0.027 0.664,0.269 0.82,0.588 0.142,0.361 0.085,0.655 0.113,0.939 0.074,1.168 -0.006,2.336 0.057,3.504 0.083,1.168 0,2.336 -0.054,3.503 -0.045,1.168 0.044,2.336 0.028,3.504 l 0,0.025 z m -0.499,-0.025 c -0.016,-1.168 0.073,-2.336 0.028,-3.504 -0.054,-1.167 -0.137,-2.335 -0.054,-3.503 0.063,-1.168 -0.018,-2.336 0.057,-3.504 10e-4,-0.293 0.051,-0.603 -0.02,-0.795 -0.081,-0.208 -0.279,-0.396 -0.508,-0.43 -0.564,-0.069 -1.16,-0.093 -1.738,-0.135 -2.332,-0.083 -4.67,-0.259 -6.995,-0.168 l -3.497,0.17 -1.748,0.096 -0.442,0.03 c -0.118,0.011 -0.238,0.036 -0.336,0.104 -0.101,0.062 -0.187,0.149 -0.24,0.254 -0.063,0.104 -0.075,0.187 -0.088,0.354 0.04,1.133 0.111,2.327 0.137,3.487 0.039,1.167 -0.103,2.335 -0.12,3.503 l 0.015,3.504 c 0.01,0.291 -0.026,0.607 0.053,0.788 0.089,0.197 0.291,0.365 0.497,0.383 l 1.739,0.091 c 2.333,0.124 4.658,0.335 6.987,0.232 1.166,-0.037 2.334,-0.057 3.499,-0.131 0.583,-0.03 1.164,-0.094 1.746,-0.146 l 0.442,-0.043 c 0.107,-0.017 0.215,-0.042 0.303,-0.104 0.09,-0.058 0.166,-0.138 0.211,-0.232 0.055,-0.096 0.06,-0.148 0.072,-0.325 l 0,0.024 z"
             inkscape:connector-curvature="0" />
        </g>
        <g
           id="g31">
          <path
             id="path33"
             d="m 14.77,22.038 c 1.336,-0.111 2.67,-0.126 4.002,-0.068 1.331,0.112 2.665,0.21 3.997,0.115 2.662,-0.165 5.327,-0.247 7.999,-0.047 l 0.002,0.043 c -2.661,0.315 -5.329,0.363 -8.001,0.236 -1.335,-0.1 -2.668,-0.059 -4.004,0.005 -1.334,0.006 -2.667,-0.066 -3.997,-0.241 l 0.002,-0.043 z"
             inkscape:connector-curvature="0" />
        </g>
        <g
           id="g35">
          <path
             id="path37"
             d="m 14.404,11.759 0.004,0.007 c 0.161,0.246 0.262,0.573 0.231,0.897 -0.026,0.326 -0.218,0.652 -0.512,0.831 -0.599,0.401 -1.439,0.07 -1.674,-0.51 -0.224,-0.545 -0.247,-1.248 0.294,-1.691 0.267,-0.199 0.641,-0.246 0.946,-0.13 0.307,0.112 0.549,0.336 0.711,0.596 z m -0.212,0.132 c -0.287,-0.442 -0.871,-0.504 -1.263,-0.31 -0.208,0.095 -0.406,0.291 -0.464,0.549 -0.081,0.257 0.021,0.537 0.186,0.729 0.334,0.388 0.875,0.503 1.249,0.27 0.356,-0.219 0.568,-0.779 0.292,-1.238 z"
             inkscape:connector-curvature="0" />
        </g>
        <g
           id="g39">
          <path
             id="path41"
             d="m 32.91,12.689 c -0.16,0.565 -0.874,0.976 -1.479,0.731 -0.609,-0.177 -0.996,-0.944 -0.693,-1.498 0.286,-0.505 0.848,-0.829 1.461,-0.699 0.63,0.139 0.942,0.907 0.715,1.459 l -0.004,0.007 z m -0.234,-0.088 c 0.15,-0.465 -0.218,-0.874 -0.592,-1.055 -0.196,-0.098 -0.449,-0.152 -0.682,-0.069 -0.243,0.064 -0.408,0.295 -0.445,0.522 -0.076,0.463 0.219,0.873 0.613,1.016 0.379,0.13 0.931,0.046 1.108,-0.421 l -0.002,0.007 z"
             inkscape:connector-curvature="0" />
        </g>
        <g
           id="g43">
          <path
             id="path45"
             d="m 8.313,35.759 c 2.374,0.453 4.771,0.719 7.172,0.884 1.201,0.078 2.398,0.251 3.604,0.278 1.205,0.021 2.413,-0.012 3.614,-0.084 4.819,-0.036 9.618,-0.693 14.338,-1.709 -2.316,0.698 -4.703,1.135 -7.096,1.488 -2.394,0.348 -4.811,0.57 -7.231,0.646 -1.214,-0.025 -2.422,-0.067 -3.631,-0.115 -1.208,-0.038 -2.423,0.006 -3.63,-0.11 -2.407,-0.243 -4.821,-0.575 -7.14,-1.278 z"
             inkscape:connector-curvature="0" />
        </g>
        <g
           id="g47">
          <path
             id="path49"
             d="m 23.072,29.814 c 0.569,-0.12 1.134,-0.149 1.696,-0.191 0.562,-0.037 1.126,0.008 1.675,-0.015 0.513,0 1.018,-0.287 1.517,-0.533 0.5,-0.256 0.993,-0.536 1.475,-0.833 l 0.029,0.041 c -0.444,0.354 -0.898,0.696 -1.373,1.015 -0.481,0.291 -0.971,0.648 -1.605,0.724 -1.152,0.186 -2.29,0.127 -3.415,-0.156 l 10e-4,-0.052 z"
             inkscape:connector-curvature="0" />
        </g>
      </g>
      <g
         id="green_shirt"
         transform="translate(93.179792,56.147151)">
        <rect
           id="rect52"
           height="8.5039997"
           width="8.5039997"
           stroke-miterlimit="10"
           display="none"
           y="-7.0209999"
           x="18.424999"
           style="fill:none;stroke:#000000;stroke-width:0.42519999;stroke-linejoin:round;stroke-miterlimit:10;display:none" />
        <g
           id="g54">
          <path
             id="path56"
             d="m 29.826,1.413 c 0,0 -1.724,1.059 -3.045,2.419 0.822,0.387 2.152,1.472 2.152,1.472 0,0 -2.343,1.295 -3.066,1.837 -0.802,0.601 -3.189,2.422 -3.189,2.422 0,0 -2.478,-2.082 -3.347,-2.735 -0.655,-0.492 -2.753,-1.524 -2.753,-1.524 0,0 1.173,-1.085 1.996,-1.472 -1.322,-1.36 -3.045,-2.419 -3.045,-2.419"
             inkscape:connector-curvature="0"
             style="fill:#0d9f49" />
          <path
             id="path58"
             d="M 29.836,1.431 C 28.766,2.16 27.749,2.982 26.874,3.923 L 26.836,3.715 c 0.411,0.188 0.783,0.424 1.15,0.667 0.363,0.249 0.729,0.49 1.065,0.776 l 0,0 c 0.08,0.066 0.092,0.186 0.025,0.266 -0.015,0.019 -0.034,0.034 -0.054,0.045 L 27.374,6.395 C 26.832,6.715 26.283,7.024 25.791,7.4 L 22.75,9.662 C 22.705,9.698 22.639,9.693 22.596,9.658 L 22.591,9.654 C 21.603,8.898 20.637,8.113 19.675,7.329 19.206,6.92 18.728,6.569 18.172,6.273 17.623,5.986 17.066,5.709 16.481,5.496 16.378,5.459 16.325,5.346 16.362,5.243 16.371,5.218 16.385,5.196 16.402,5.177 l 0.028,-0.03 0,0 C 16.742,4.859 17.077,4.61 17.417,4.361 17.76,4.117 18.112,3.882 18.509,3.703 l -0.042,0.23 C 17.595,2.99 16.582,2.165 15.514,1.432 l 0.022,-0.036 c 1.117,0.667 2.184,1.428 3.137,2.337 0.056,0.053 0.058,0.142 0.005,0.197 -0.01,0.011 -0.021,0.019 -0.034,0.026 l -0.013,0.007 c -0.696,0.38 -1.313,0.955 -1.911,1.498 v 0 L 16.669,5.112 c 0.529,0.341 1.079,0.632 1.621,0.943 0.54,0.292 1.13,0.589 1.61,0.989 0.982,0.771 1.927,1.58 2.847,2.421 l 0.005,0.004 -0.154,-0.004 2.996,-2.324 c 0.509,-0.398 1.06,-0.719 1.601,-1.048 L 28.839,5.139 28.814,5.45 v 0 C 28.141,4.921 27.469,4.349 26.725,3.95 L 26.715,3.945 C 26.653,3.912 26.63,3.835 26.663,3.774 l 0.023,-0.032 c 0.949,-0.911 2.013,-1.675 3.128,-2.346 l 0.022,0.035 z"
             inkscape:connector-curvature="0" />
        </g>
        <g
           id="g60">
          <path
             id="path62"
             d="m 19.134,1.445 c 0.046,0.728 0.196,1.444 0.424,2.127 0.208,0.693 0.548,1.317 0.929,1.939 0.744,1.242 1.531,2.468 2.396,3.624 L 22.548,9.129 c 0.899,-1.128 1.709,-2.345 2.451,-3.59 0.387,-0.621 0.7,-1.254 0.896,-1.956 0.214,-0.689 0.352,-1.41 0.397,-2.139 0.023,0.731 -0.045,1.468 -0.196,2.192 -0.154,0.721 -0.461,1.425 -0.813,2.063 -0.695,1.298 -1.51,2.52 -2.405,3.695 -0.07,0.092 -0.2,0.109 -0.292,0.04 C 22.569,9.421 22.554,9.405 22.542,9.389 21.689,8.191 20.894,6.964 20.202,5.67 19.856,5.031 19.527,4.348 19.358,3.628 19.193,2.91 19.112,2.175 19.134,1.445 z"
             inkscape:connector-curvature="0" />
        </g>
        <g
           id="g64">
          <ellipse
             id="ellipse66"
             ry="0.77999997"
             rx="0.74800003"
             cy="9.5710001"
             cx="22.674999"
             transform="matrix(0.7422,0.6701,-0.6701,0.7422,12.2587,-12.7279)"
             sodipodi:cx="22.674999"
             sodipodi:cy="9.5710001"
             sodipodi:rx="0.74800003"
             sodipodi:ry="0.77999997"
             style="fill:#0d9f49"
             d="m 23.422999,9.5710001 c 0,0.4307819 -0.334891,0.7799999 -0.748,0.7799999 -0.413109,0 -0.748,-0.349218 -0.748,-0.7799999 0,-0.4307821 0.334891,-0.78 0.748,-0.78 0.413109,0 0.748,0.3492179 0.748,0.78 z" />
          <path
             id="path68"
             d="m 23.339,10.193 c -0.309,0.332 -0.918,0.396 -1.281,0.042 -0.35,-0.291 -0.408,-0.914 -0.078,-1.29 0.301,-0.396 0.965,-0.491 1.362,-0.083 0.361,0.327 0.355,0.985 0.009,1.32 l -0.012,0.011 z m -0.23,-0.229 c 0.208,-0.251 0.207,-0.628 -0.058,-0.84 -0.203,-0.162 -0.569,-0.145 -0.794,0.071 -0.224,0.21 -0.288,0.622 -0.011,0.871 0.237,0.215 0.658,0.167 0.874,-0.113 l -0.011,0.011 z"
             inkscape:connector-curvature="0" />
        </g>
      </g>
    </g>
  </g>
</svg>
