<?xml version="1.0" encoding="UTF-8" standalone="no"?>
<!-- Created with Inkscape (http://www.inkscape.org/) -->

<svg
   xmlns:dc="http://purl.org/dc/elements/1.1/"
   xmlns:cc="http://creativecommons.org/ns#"
   xmlns:rdf="http://www.w3.org/1999/02/22-rdf-syntax-ns#"
   xmlns:svg="http://www.w3.org/2000/svg"
   xmlns="http://www.w3.org/2000/svg"
   xmlns:xlink="http://www.w3.org/1999/xlink"
   xmlns:sodipodi="http://sodipodi.sourceforge.net/DTD/sodipodi-0.dtd"
   xmlns:inkscape="http://www.inkscape.org/namespaces/inkscape"
   width="53.09375"
   height="108.625"
   id="svg2"
   version="1.1"
   inkscape:version="0.48.2 r9819"
   sodipodi:docname="master_minifig_template_upload.svg">
  <defs
     id="defs4">
    <linearGradient
       inkscape:collect="always"
       id="linearGradient4011">
      <stop
         style="stop-color:#ffffff;stop-opacity:1;"
         offset="0"
         id="stop4013" />
      <stop
         style="stop-color:#ffffff;stop-opacity:0;"
         offset="1"
         id="stop4015" />
    </linearGradient>
    <linearGradient
       inkscape:collect="always"
       id="linearGradient3997">
      <stop
         style="stop-color:#ffffff;stop-opacity:1;"
         offset="0"
         id="stop3999" />
      <stop
         style="stop-color:#ffffff;stop-opacity:0;"
         offset="1"
         id="stop4001" />
    </linearGradient>
    <inkscape:path-effect
       effect="skeletal"
       id="path-effect4237"
       is_visible="true"
       pattern="M 0,5 C 0,2.24 2.24,0 5,0 7.76,0 10,2.24 10,5 10,7.76 7.76,10 5,10 2.24,10 0,7.76 0,5 z"
       copytype="single_stretched"
       prop_scale="1"
       scale_y_rel="false"
       spacing="0"
       normal_offset="0"
       tang_offset="0"
       prop_units="false"
       vertical_pattern="false"
       fuse_tolerance="0" />
    <clipPath
       id="clipPath2999"
       clipPathUnits="userSpaceOnUse">
      <path
         id="path3001"
         d="M 0,792 612,792 612,0 0,0 0,792 z"
         inkscape:connector-curvature="0" />
    </clipPath>
    <radialGradient
       gradientUnits="userSpaceOnUse"
       gradientTransform="matrix(0.75988491,-0.03632001,0.13155835,2.7524547,16.986326,-78.268899)"
       r="12.650181"
       fy="46.658409"
       fx="96.306435"
       cy="46.658409"
       cx="96.306435"
       id="radialGradient3972"
       xlink:href="#linearGradient3966"
       inkscape:collect="always" />
    <clipPath
       clipPathUnits="userSpaceOnUse"
       id="clipPath2999-4">
      <path
         inkscape:connector-curvature="0"
         d="M 0,792 612,792 612,0 0,0 0,792 z"
         id="path3001-0" />
    </clipPath>
    <linearGradient
       id="linearGradient3966">
      <stop
         id="stop3968"
         offset="0"
         style="stop-color:#c0ac02;stop-opacity:1;" />
      <stop
         id="stop3970"
         offset="1"
         style="stop-color:#fdea41;stop-opacity:0;" />
    </linearGradient>
    <radialGradient
       inkscape:collect="always"
       xlink:href="#linearGradient3997"
       id="radialGradient4003"
       cx="165.81134"
       cy="47.693741"
       fx="165.81134"
       fy="47.693741"
       r="3.8123069"
       gradientTransform="matrix(0.64374811,-0.18781617,0.31213841,1.069868,43.640483,27.15595)"
       gradientUnits="userSpaceOnUse" />
    <radialGradient
       inkscape:collect="always"
       xlink:href="#linearGradient3997"
       id="radialGradient4007"
       gradientUnits="userSpaceOnUse"
       gradientTransform="matrix(-0.64374811,-0.18781617,-0.31213841,1.069868,293.73143,27.15595)"
       cx="165.81134"
       cy="47.693741"
       fx="165.81134"
       fy="47.693741"
       r="3.8123069" />
    <radialGradient
       inkscape:collect="always"
       xlink:href="#linearGradient4011"
       id="radialGradient4017"
       cx="169.32254"
       cy="41.784931"
       fx="169.32254"
       fy="41.784931"
       r="6.982676"
       gradientTransform="matrix(0.31036379,-0.01814613,0.03701409,0.63307367,114.75293,21.468668)"
       gradientUnits="userSpaceOnUse" />
    <linearGradient
       id="linearGradient3966-2">
      <stop
         style="stop-color:#c0ac02;stop-opacity:1;"
         offset="0"
         id="stop3968-4" />
      <stop
         style="stop-color:#fdea41;stop-opacity:0;"
         offset="1"
         id="stop3970-5" />
    </linearGradient>
    <clipPath
       id="clipPath2999-4-8"
       clipPathUnits="userSpaceOnUse">
      <path
         id="path3001-0-8"
         d="M 0,792 612,792 612,0 0,0 0,792 z"
         inkscape:connector-curvature="0" />
    </clipPath>
    <radialGradient
       inkscape:collect="always"
       xlink:href="#linearGradient3966-2"
       id="radialGradient3972-4"
       cx="96.306435"
       cy="46.658409"
       fx="96.306435"
       fy="46.658409"
       r="12.650181"
       gradientTransform="matrix(0.75988491,-0.03632001,0.13155835,2.7524547,16.986326,-78.268899)"
       gradientUnits="userSpaceOnUse" />
    <clipPath
       clipPathUnits="userSpaceOnUse"
       id="clipPath2999-0">
      <path
         inkscape:connector-curvature="0"
         d="M 0,792 612,792 612,0 0,0 0,792 z"
         id="path3001-9" />
    </clipPath>
    <inkscape:path-effect
       fuse_tolerance="0"
       vertical_pattern="false"
       prop_units="false"
       tang_offset="0"
       normal_offset="0"
       spacing="0"
       scale_y_rel="false"
       prop_scale="1"
       copytype="single_stretched"
       pattern="M 0,5 C 0,2.24 2.24,0 5,0 7.76,0 10,2.24 10,5 10,7.76 7.76,10 5,10 2.24,10 0,7.76 0,5 z"
       is_visible="true"
       id="path-effect4237-4"
       effect="skeletal" />
  </defs>
  <sodipodi:namedview
     id="base"
     pagecolor="#ffffff"
     bordercolor="#666666"
     borderopacity="1.0"
     inkscape:pageopacity="0.0"
     inkscape:pageshadow="2"
     inkscape:zoom="2.35"
     inkscape:cx="65.93159"
     inkscape:cy="32.018356"
     inkscape:document-units="px"
     inkscape:current-layer="layer12"
     showgrid="false"
     fit-margin-top="0"
     fit-margin-left="0"
     fit-margin-right="0"
     fit-margin-bottom="0"
     inkscape:window-width="1280"
     inkscape:window-height="968"
     inkscape:window-x="-4"
     inkscape:window-y="-4"
     inkscape:window-maximized="1"
     showguides="true"
     inkscape:guide-bbox="true"
     inkscape:snap-global="false">
    <sodipodi:guide
       orientation="0,1"
       position="84.34383,86.955299"
       id="guide3274" />
    <sodipodi:guide
       orientation="1,0"
       position="99.19409,92.072001"
       id="guide3960" />
  </sodipodi:namedview>
  <metadata
     id="metadata7">
    <rdf:RDF>
      <cc:Work
         rdf:about="">
        <dc:format>image/svg+xml</dc:format>
        <dc:type
           rdf:resource="http://purl.org/dc/dcmitype/StillImage" />
        <dc:title></dc:title>
      </cc:Work>
    </rdf:RDF>
  </metadata>
  <g
     inkscape:groupmode="layer"
     id="layer12"
     inkscape:label="toga"
     transform="translate(-69.70562,-31.49939)">
    <g
       inkscape:groupmode="layer"
       id="layer25"
       inkscape:label="shades">
      <path
         sodipodi:nodetypes="scscs"
         inkscape:connector-curvature="0"
         id="path4019"
         d="m 86.508897,76.586666 c 2.10894,-4.219377 4.371176,-8.209466 6.486032,-12.090193 -3.0247,3.304439 -5.303869,7.328098 -7.418737,11.565801 -2.911384,5.833736 -5.5114,12.073107 -7.690638,18.418574 3.143915,-5.929824 5.740395,-12.126241 8.623343,-17.894182 z"
         style="font-size:medium;font-style:normal;font-variant:normal;font-weight:normal;font-stretch:normal;text-indent:0;text-align:start;text-decoration:none;line-height:normal;letter-spacing:normal;word-spacing:normal;text-transform:none;direction:ltr;block-progression:tb;writing-mode:lr-tb;text-anchor:start;baseline-shift:baseline;color:#000000;fill:#a1a5a2;fill-opacity:1;stroke:none;stroke-width:1.0629921;marker:none;visibility:visible;display:inline;overflow:visible;enable-background:accumulate;font-family:Sans;-inkscape-font-specification:Sans" />
      <path
         sodipodi:nodetypes="scscs"
         inkscape:connector-curvature="0"
         id="path4025"
         d="m 79.898786,74.83197 c 1.860302,-3.112266 3.940209,-5.990779 6.018018,-8.835497 -2.725262,2.084055 -4.749558,4.833162 -6.557196,7.785865 -2.060061,3.365026 -3.838731,6.994478 -5.067804,10.932885 2.039977,-3.290078 3.709209,-6.708298 5.606982,-9.883253 z"
         style="font-size:medium;font-style:normal;font-variant:normal;font-weight:normal;font-stretch:normal;text-indent:0;text-align:start;text-decoration:none;line-height:normal;letter-spacing:normal;word-spacing:normal;text-transform:none;direction:ltr;block-progression:tb;writing-mode:lr-tb;text-anchor:start;baseline-shift:baseline;color:#000000;fill:#a1a5a2;fill-opacity:1;stroke:none;stroke-width:1px;marker:none;visibility:visible;display:inline;overflow:visible;enable-background:accumulate;font-family:Sans;-inkscape-font-specification:Sans" />
      <path
         sodipodi:nodetypes="sssccssscs"
         inkscape:connector-curvature="0"
         id="path4031"
         d="m 97.213679,70.433973 c -1.293283,2.804536 -2.612439,5.636363 -3.625,7.78125 -0.50628,1.072443 -0.931217,1.977965 -1.25,2.625 -0.159392,0.323518 -0.310757,0.569624 -0.40625,0.75 -0.04775,0.09019 -0.0675,0.174175 0.40625,0.34375 0.603794,-0.07106 0.713262,-0.327969 0.875,-0.65625 0.323477,-0.656562 0.773722,-1.581164 1.28125,-2.65625 1.015056,-2.150171 2.331074,-4.944071 3.625,-7.75 2.587851,-5.611859 4.640631,-11.390625 4.640631,-11.390625 0,0 -2.960314,5.344054 -5.546881,10.953125 z"
         style="font-size:medium;font-style:normal;font-variant:normal;font-weight:normal;font-stretch:normal;text-indent:0;text-align:start;text-decoration:none;line-height:normal;letter-spacing:normal;word-spacing:normal;text-transform:none;direction:ltr;block-progression:tb;writing-mode:lr-tb;text-anchor:start;baseline-shift:baseline;color:#000000;fill:#a1a5a2;fill-opacity:1;stroke:none;stroke-width:1px;marker:none;visibility:visible;display:inline;overflow:visible;enable-background:accumulate;font-family:Sans;-inkscape-font-specification:Sans" />
      <path
         sodipodi:nodetypes="cccccccc"
         inkscape:connector-curvature="0"
         id="path4033"
         d="m 70.678795,71.811153 c 3.875969,-0.953117 7.751938,-4.151229 11.627907,-6.860465 6.163897,-2.789591 10.682369,-7.224607 15.348837,-11.511628 3.812871,1.382586 7.301151,-5.673795 10.813951,-12.093023 l 0.23256,3.488372 c -3.21705,8.403971 -7.36434,9.186046 -9.651162,9.069767 0.288618,1.588897 -2.725559,7.110161 -15.232558,12.093024 -4.919963,6.240809 -9.817694,6.617202 -13.255814,7.44186"
         style="fill:#a1a5a2;fill-opacity:1;stroke:none;display:inline" />
      <path
         sodipodi:nodetypes="sccscs"
         inkscape:connector-curvature="0"
         id="path4039"
         d="m 103.65118,55.215223 c 2.33869,-2.628715 4.80289,-5.189292 5.875,-9.3125 l -0.96875,-0.25 c -1.00318,3.858117 -3.29964,6.226142 -5.65625,8.875 -2.35661,2.648858 -4.751777,5.581333 -5.125001,10.421875 1.328419,-4.439931 3.536311,-7.10566 5.875001,-9.734375 z"
         style="font-size:medium;font-style:normal;font-variant:normal;font-weight:normal;font-stretch:normal;text-indent:0;text-align:start;text-decoration:none;line-height:normal;letter-spacing:normal;word-spacing:normal;text-transform:none;direction:ltr;block-progression:tb;writing-mode:lr-tb;text-anchor:start;baseline-shift:baseline;color:#000000;fill:#a1a5a2;fill-opacity:1;stroke:none;stroke-width:1px;marker:none;visibility:visible;display:inline;overflow:visible;enable-background:accumulate;font-family:Sans;-inkscape-font-specification:Sans" />
      <path
         sodipodi:nodetypes="cccc"
         inkscape:connector-curvature="0"
         id="path4045"
         d="m 85.432429,53.308973 -0.4375,-0.90625 c -4.51474,2.254365 -6.977014,6.351741 -8.84375,10.6875 2.731702,-3.817967 5.070154,-7.678505 9.28125,-9.78125 z"
         style="font-size:medium;font-style:normal;font-variant:normal;font-weight:normal;font-stretch:normal;text-indent:0;text-align:start;text-decoration:none;line-height:normal;letter-spacing:normal;word-spacing:normal;text-transform:none;direction:ltr;block-progression:tb;writing-mode:lr-tb;text-anchor:start;baseline-shift:baseline;color:#000000;fill:#a1a5a2;fill-opacity:1;stroke:none;stroke-width:1px;marker:none;visibility:visible;display:inline;overflow:visible;enable-background:accumulate;font-family:Sans;-inkscape-font-specification:Sans" />
      <path
         sodipodi:nodetypes="sscccssscs"
         inkscape:connector-curvature="0"
         id="path4047"
         d="m 89.213679,51.715223 c 0.848005,-1.341238 1.500592,-2.508532 2.03125,-3.125 0.265329,-0.308234 0.509794,-0.465765 0.625,-0.5 0.115206,-0.03424 0.152302,-0.01373 0.34375,0.15625 l 0.65625,-0.75 c -0.36402,-0.323209 -0.851496,-0.471456 -1.28125,-0.34375 -0.429754,0.127706 -0.769827,0.436197 -1.09375,0.8125 -0.647846,0.752606 -1.28853,1.864506 -2.125,3.1875 -1.67294,2.645987 -4.02182,5.992106 -7.6875,8.453125 4.357576,-1.686268 6.835239,-5.208148 8.53125,-7.890625 z"
         style="font-size:medium;font-style:normal;font-variant:normal;font-weight:normal;font-stretch:normal;text-indent:0;text-align:start;text-decoration:none;line-height:normal;letter-spacing:normal;word-spacing:normal;text-transform:none;direction:ltr;block-progression:tb;writing-mode:lr-tb;text-anchor:start;baseline-shift:baseline;color:#000000;fill:#a1a5a2;fill-opacity:1;stroke:none;stroke-width:1px;marker:none;visibility:visible;display:inline;overflow:visible;enable-background:accumulate;font-family:Sans;-inkscape-font-specification:Sans" />
      <path
         sodipodi:nodetypes="sscccsccsscs"
         inkscape:connector-curvature="0"
         id="path4049"
         d="m 103.99326,45.355764 c 0.99121,-0.79705 1.95035,-1.695292 2.625,-2.84375 0.67465,-1.148458 1.04833,-2.543537 0.84375,-4.28125 l -0.0625,-0.625 -0.59375,0.21875 c -3.96856,0.439351 -2.60331,0.960954 -3.91638,1.608768 -2.3703,1.169409 -4.753306,2.750088 -7.083622,5.000607 3.916428,-2.455522 7.304072,-4.188877 10.625002,-5.390625 0.019,1.177164 -0.17764,2.154014 -0.65625,2.96875 -0.57615,0.980791 -1.45154,1.794799 -2.40625,2.5625 -1.90943,1.535401 -4.242192,2.879481 -4.312502,5.453125 0.949152,-1.83139 2.955082,-3.077776 4.937502,-4.671875 z"
         style="font-size:medium;font-style:normal;font-variant:normal;font-weight:normal;font-stretch:normal;text-indent:0;text-align:start;text-decoration:none;line-height:normal;letter-spacing:normal;word-spacing:normal;text-transform:none;direction:ltr;block-progression:tb;writing-mode:lr-tb;text-anchor:start;baseline-shift:baseline;color:#000000;fill:#a1a5a2;fill-opacity:1;stroke:none;stroke-width:1px;marker:none;visibility:visible;display:inline;overflow:visible;enable-background:accumulate;font-family:Sans;-inkscape-font-specification:Sans" />
      <path
         sodipodi:nodetypes="csccc"
         inkscape:connector-curvature="0"
         id="path4063"
         d="m 69.981121,111.81115 c 6.649653,-9.2656 9.814666,-9.72046 17.150653,-13.373587 8.6071,-4.286114 16.015576,-7.112762 18.663306,-15.114782 -5.4409,8.332162 -26.411702,13.653955 -35.813959,21.744179 z"
         style="fill:#a1a5a2;fill-opacity:1;stroke:none;display:inline" />
      <path
         sodipodi:nodetypes="scscs"
         inkscape:connector-curvature="0"
         id="path4065"
         d="m 76.932429,114.74647 c -0.02848,-2.5658 -0.368191,-5.12416 0.484375,-9.4375 -1.873694,4.1637 -1.51196,6.98315 -1.484375,9.46875 0.02759,2.4856 -0.215311,4.63035 -2.34375,8.42188 3.043958,-3.33982 3.372225,-5.88733 3.34375,-8.45313 z"
         style="font-size:medium;font-style:normal;font-variant:normal;font-weight:normal;font-stretch:normal;text-indent:0;text-align:start;text-decoration:none;line-height:normal;letter-spacing:normal;word-spacing:normal;text-transform:none;direction:ltr;block-progression:tb;writing-mode:lr-tb;text-anchor:start;baseline-shift:baseline;color:#000000;fill:#a1a5a2;fill-opacity:1;stroke:none;stroke-width:1px;marker:none;visibility:visible;display:inline;overflow:visible;enable-background:accumulate;font-family:Sans;-inkscape-font-specification:Sans" />
      <path
         sodipodi:nodetypes="cccccccc"
         inkscape:connector-curvature="0"
         id="path4071"
         d="m 106.26019,65.880921 c 1.40283,-2.984496 7.56765,-6.434109 4.76744,-9.651163 0.29044,-2.148809 3.72837,-0.53206 5.46512,0.348837 l 0.5814,17.906977 -1.51163,-5.581396 c 2.40152,-2.44186 0.15267,-4.883721 -0.93024,-7.325581 -1.4028,3.348987 -4.54373,2.282395 -6.86046,8.023256 z"
         style="fill:#a1a5a2;fill-opacity:1;stroke:none;display:inline" />
      <path
         inkscape:connector-curvature="0"
         id="path4073"
         d="m 111.36993,43.027723 -1.5,4.3125 0.9375,0.34375 1.5,-4.3125 -0.9375,-0.34375 z"
         style="font-size:medium;font-style:normal;font-variant:normal;font-weight:normal;font-stretch:normal;text-indent:0;text-align:start;text-decoration:none;line-height:normal;letter-spacing:normal;word-spacing:normal;text-transform:none;direction:ltr;block-progression:tb;writing-mode:lr-tb;text-anchor:start;baseline-shift:baseline;color:#000000;fill:#a1a5a2;fill-opacity:1;fill-rule:nonzero;stroke:none;stroke-width:1px;marker:none;visibility:visible;display:inline;overflow:visible;enable-background:accumulate;font-family:Sans;-inkscape-font-specification:Sans" />
      <path
         sodipodi:nodetypes="cccccc"
         inkscape:connector-curvature="0"
         id="path4075"
         d="m 111.71368,49.090223 0.9375,-2.859375 -2.75,4.171875 0.71875,0.65625 2.73438,-2.5 z"
         style="font-size:medium;font-style:normal;font-variant:normal;font-weight:normal;font-stretch:normal;text-indent:0;text-align:start;text-decoration:none;line-height:normal;letter-spacing:normal;word-spacing:normal;text-transform:none;direction:ltr;block-progression:tb;writing-mode:lr-tb;text-anchor:start;baseline-shift:baseline;color:#000000;fill:#a1a5a2;fill-opacity:1;stroke:none;stroke-width:1px;marker:none;visibility:visible;display:inline;overflow:visible;enable-background:accumulate;font-family:Sans;-inkscape-font-specification:Sans" />
      <path
         inkscape:connector-curvature="0"
         id="path4081"
         d="m 111.15118,95.308973 c -6.93991,1.181458 -10.04036,3.089345 0.5625,7.656247 -12.346207,5.9398 -19.562016,3.00939 -41.500001,25.59375 l -0.21875,2.4375 c 1.898152,-1.41634 3.364465,-3.47099 5.8125,-4.0625 0.956252,-0.38867 1.664287,0.63419 2.3125,2.09375 l -6.28125,8.71875 c 1.972849,-1.51591 4.85983,-6.58963 4.53125,0.8125 l 2.34375,-11.40625 c 0.542636,-0.039 1.082364,-0.95014 1.625,1.625 l 1.03125,-4.28125 c -0.06027,-2.19205 1.749034,-2.52543 3.5,-2.90625 1.444958,0.91553 0.380969,4.34763 0.125,6.96875 l 2.90625,-12.09375 c 1.340028,-2.36588 5.030849,-4.20465 6.84375,-2.34375 0.95409,-1.84857 1.698044,-2.3145 2.34375,-2.3125 l 2.3125,-2.4375 c 1.627901,-0.0611 3.247091,1.3986 4.875001,3.5 0.12303,-3.48162 2.58717,-4.65193 5.46875,-5.375 -1.40252,13.51791 -0.75983,24.68325 3.5,29.65625 -1.90526,-10.89147 -1.57774,-21.76478 -0.71875,-32.65625 1.50423,-0.5923 2.89946,-0.01 4.09375,2.1875 -0.81498,10 0.84096,25.59157 3.8125,29.3125 l -1.71875,-24.3125 c 0.96899,0.34584 1.93726,0.29157 2.90625,1.1875 l 0,-9.5625 -2.6875,-0.34375 0,-2.4375 -3.59375,-2.093747 4.1875,0.125 0,-3.03125 -8.375,-0.21875 z m -2.53125,2.59375 c 0.82546,0.0222 1.81253,0.388647 1.9375,0.65625 0.19995,0.428165 -0.47439,0.527837 -0.78125,0.84375 -0.23783,0.24484 -0.0391,0.753447 -0.375,0.781247 -0.3359,0.0278 -2.26941,-1.017468 -1.875,-1.874997 0.1479,-0.321573 0.59848,-0.419568 1.09375,-0.40625 z"
         style="fill:#a1a5a2;fill-opacity:1;stroke:none;display:inline" />
      <path
         sodipodi:nodetypes="cccc"
         inkscape:connector-curvature="0"
         id="path4083"
         d="m 95.678795,130.4158 c 0.312958,0.6012 -1.225875,3.42454 1.860465,0.69768 l -7.209302,7.67441 z"
         style="fill:#a1a5a2;fill-opacity:1;stroke:none;display:inline" />
      <path
         sodipodi:nodetypes="ccccc"
         inkscape:connector-curvature="0"
         id="path4085"
         d="m 103.35321,124.02045 c 0.11628,0.93024 2.20931,10.46512 2.20931,10.46512 l -1.16279,1.51163 c -0.64064,-2.46477 -0.7355,-6.38494 -2.20931,-6.62791 z"
         style="fill:#a1a5a2;fill-opacity:1;stroke:none;display:inline" />
    </g>
    <g
       inkscape:groupmode="layer"
       id="layer23"
       inkscape:label="lines">
      <path
         sodipodi:nodetypes="cccc"
         inkscape:connector-curvature="0"
         id="path3174-1"
         d="m 73.933606,53.774712 c 13.495527,-2.619376 22.633326,-12.259656 31.491054,-18.898461 1.15586,1.017486 3.04749,2.525483 5.18519,4.19753 -2.73468,6.199266 -7.19952,14.159916 -11.861429,14.577475"
         style="fill:none;stroke:#000000;stroke-width:1.0629921;stroke-linecap:butt;stroke-linejoin:miter;stroke-miterlimit:4;stroke-opacity:1;stroke-dasharray:none;display:inline" />
      <path
         sodipodi:nodetypes="cc"
         inkscape:connector-curvature="0"
         id="path3176"
         d="m 113.81015,39.464618 c -0.0982,6.086593 0.73591,11.468135 1.60494,15.297749"
         style="fill:none;stroke:#000000;stroke-width:1.0629921;stroke-linecap:butt;stroke-linejoin:miter;stroke-miterlimit:4;stroke-opacity:1;stroke-dasharray:none;display:inline" />
      <path
         sodipodi:nodetypes="cc"
         inkscape:connector-curvature="0"
         id="path3178"
         d="m 109.11879,42.169774 c 0.52098,14.011095 -5.57104,20.574624 -0.98765,26.296296"
         style="fill:none;stroke:#000000;stroke-width:1.0629921;stroke-linecap:butt;stroke-linejoin:miter;stroke-miterlimit:4;stroke-opacity:1;stroke-dasharray:none;display:inline" />
      <path
         sodipodi:nodetypes="cc"
         inkscape:connector-curvature="0"
         id="path3180"
         d="M 70.106445,105.00928 C 92.037671,88.581688 98.844937,96.541526 106.64966,81.058663"
         style="fill:none;stroke:#000000;stroke-width:1.0629921;stroke-linecap:butt;stroke-linejoin:miter;stroke-miterlimit:4;stroke-opacity:1;stroke-dasharray:none;display:inline" />
      <path
         sodipodi:nodetypes="czc"
         inkscape:connector-curvature="0"
         id="path3182"
         d="m 101.34101,50.935206 c 2.22691,-6.094947 -3.032058,3.817007 -10.740737,9.506173 -7.708679,5.689166 -18.214057,5.745777 -11.975309,6.91358"
         style="fill:none;stroke:#000000;stroke-width:1.0629921;stroke-linecap:butt;stroke-linejoin:miter;stroke-miterlimit:4;stroke-opacity:1;stroke-dasharray:none;display:inline" />
      <path
         sodipodi:nodetypes="cc"
         inkscape:connector-curvature="0"
         id="path3184"
         d="M 82.328668,65.132737 C 79.402382,67.597398 77.719136,70.317444 71.0941,71.55249"
         style="fill:none;stroke:#000000;stroke-width:1.0629921;stroke-linecap:butt;stroke-linejoin:miter;stroke-miterlimit:4;stroke-opacity:1;stroke-dasharray:none;display:inline" />
      <path
         sodipodi:nodetypes="ccc"
         inkscape:connector-curvature="0"
         id="path3186"
         d="m 113.68669,58.342614 c 0.92325,7.123738 -5.79791,3.006189 -5.67901,9.753086 l -3.7037,29.62963"
         style="fill:none;stroke:#000000;stroke-width:1.0629921;stroke-linecap:butt;stroke-linejoin:miter;stroke-miterlimit:4;stroke-opacity:1;stroke-dasharray:none;display:inline" />
      <path
         sodipodi:nodetypes="cccsc"
         inkscape:connector-curvature="0"
         id="path3188"
         d="m 115.41509,66.367305 5.06173,29.012346 c -14.51714,-0.374132 -23.426174,1.90856 -8.27161,7.160489 -7.1271,5.24645 -12.793852,4.01365 -19.361421,7.32617 -5.87759,2.96452 -12.304054,10.08616 -22.613887,18.72322"
         style="fill:none;stroke:#000000;stroke-width:1.0629921;stroke-linecap:butt;stroke-linejoin:miter;stroke-miterlimit:4;stroke-opacity:1;stroke-dasharray:none;display:inline" />
      <path
         inkscape:connector-curvature="0"
         id="path3190"
         d="M 79.118791,120.56484 77.63731,136.61422"
         style="fill:none;stroke:#000000;stroke-width:1.0629921;stroke-linecap:butt;stroke-linejoin:miter;stroke-miterlimit:4;stroke-opacity:1;stroke-dasharray:none;display:inline" />
      <path
         sodipodi:nodetypes="cccc"
         inkscape:connector-curvature="0"
         id="path3192"
         d="m 82.853359,117.5332 -1.0625,-0.125 c -0.579111,5.27575 -1.437756,10.01427 -1.8125,14.76562 1.439192,-4.54258 2.291041,-9.32071 2.875,-14.64062 z"
         style="font-size:medium;font-style:normal;font-variant:normal;font-weight:normal;font-stretch:normal;text-indent:0;text-align:start;text-decoration:none;line-height:normal;letter-spacing:normal;word-spacing:normal;text-transform:none;direction:ltr;block-progression:tb;writing-mode:lr-tb;text-anchor:start;baseline-shift:baseline;color:#000000;fill:#000000;fill-opacity:1;stroke:none;stroke-width:1.0629921;marker:none;visibility:visible;display:inline;overflow:visible;enable-background:accumulate;font-family:Sans;-inkscape-font-specification:Sans" />
      <path
         sodipodi:nodetypes="cc"
         inkscape:connector-curvature="0"
         id="path3194"
         d="m 87.884223,113.28089 c 1.088798,7.19587 -2.39774,13.97581 -4.691358,20.86419"
         style="fill:none;stroke:#000000;stroke-width:1.0629921;stroke-linecap:butt;stroke-linejoin:miter;stroke-miterlimit:4;stroke-opacity:1;stroke-dasharray:none;display:inline" />
      <path
         sodipodi:nodetypes="cc"
         inkscape:connector-curvature="0"
         id="path3196"
         d="m 94.797803,108.83644 c 0.755615,10.82942 -3.621356,19.45916 -7.28395,28.39506"
         style="fill:none;stroke:#000000;stroke-width:1.0629921;stroke-linecap:butt;stroke-linejoin:miter;stroke-miterlimit:4;stroke-opacity:1;stroke-dasharray:none;display:inline" />
      <path
         sodipodi:nodetypes="cccccc"
         inkscape:connector-curvature="0"
         id="path3198"
         d="m 94.697109,133.87695 c 3.747381,-7.82158 4.737011,-17.38129 5.687501,-26.34375 l -1.062501,-0.125 c -1.147038,10.81579 -2.302711,22.36135 -7.71875,30.79687 3.306161,-1.58609 4.546561,-4.41164 6.15625,-7.01562 z"
         style="font-size:medium;font-style:normal;font-variant:normal;font-weight:normal;font-stretch:normal;text-indent:0;text-align:start;text-decoration:none;line-height:normal;letter-spacing:normal;word-spacing:normal;text-transform:none;direction:ltr;block-progression:tb;writing-mode:lr-tb;text-anchor:start;baseline-shift:baseline;color:#000000;fill:#000000;fill-opacity:1;stroke:none;stroke-width:1.0629921;marker:none;visibility:visible;display:inline;overflow:visible;enable-background:accumulate;font-family:Sans;-inkscape-font-specification:Sans" />
      <path
         sodipodi:nodetypes="cccc"
         inkscape:connector-curvature="0"
         id="path3200"
         d="m 98.165859,107.87695 -1.0625,-0.0625 -0.34375,11.26563 z"
         style="font-size:medium;font-style:normal;font-variant:normal;font-weight:normal;font-stretch:normal;text-indent:0;text-align:start;text-decoration:none;line-height:normal;letter-spacing:normal;word-spacing:normal;text-transform:none;direction:ltr;block-progression:tb;writing-mode:lr-tb;text-anchor:start;baseline-shift:baseline;color:#000000;fill:#000000;fill-opacity:1;stroke:none;stroke-width:1.0629921;marker:none;visibility:visible;display:inline;overflow:visible;enable-background:accumulate;font-family:Sans;-inkscape-font-specification:Sans" />
      <path
         sodipodi:nodetypes="cc"
         inkscape:connector-curvature="0"
         id="path3202"
         d="m 104.67435,106.61422 c -0.76844,9.95241 0.39533,20.16245 -4.938275,29.50617"
         style="fill:none;stroke:#000000;stroke-width:1.0629921;stroke-linecap:butt;stroke-linejoin:miter;stroke-miterlimit:4;stroke-opacity:1;stroke-dasharray:none;display:inline" />
      <path
         sodipodi:nodetypes="cc"
         inkscape:connector-curvature="0"
         id="path3204"
         d="m 106.77311,137.47842 c -1.71445,-4.81946 -2.16876,-10.05898 -2.96296,-15.18519"
         style="fill:none;stroke:#000000;stroke-width:1.0629921;stroke-linecap:butt;stroke-linejoin:miter;stroke-miterlimit:4;stroke-opacity:1;stroke-dasharray:none;display:inline" />
      <path
         sodipodi:nodetypes="scccccs"
         inkscape:connector-curvature="0"
         id="path3206"
         d="m 104.44711,133.97065 c -0.0706,-0.69832 -0.0111,-1.5322 -0.64062,-2.29688 -0.35055,1.17604 -0.52863,1.93342 -0.85938,2.57813 -0.33073,0.64471 -0.85596,1.19745 -1.125,2.125 0.88916,-0.0577 1.39997,-0.63736 1.8125,-1.28125 0.17796,0.50826 0.45195,1.01122 1.28125,1.03125 -0.23943,-0.91824 -0.39815,-1.45793 -0.46875,-2.15625 z"
         style="font-size:medium;font-style:normal;font-variant:normal;font-weight:normal;font-stretch:normal;text-indent:0;text-align:start;text-decoration:none;line-height:normal;letter-spacing:normal;word-spacing:normal;text-transform:none;direction:ltr;block-progression:tb;writing-mode:lr-tb;text-anchor:start;baseline-shift:baseline;color:#000000;fill:#000000;fill-opacity:1;stroke:none;stroke-width:1.0629921;marker:none;visibility:visible;display:inline;overflow:visible;enable-background:accumulate;font-family:Sans;-inkscape-font-specification:Sans" />
      <path
         sodipodi:nodetypes="cc"
         inkscape:connector-curvature="0"
         id="path3208"
         d="m 114.05706,136.49076 c -3.83828,-14.08066 -1.5704,-28.07737 -0.61728,-38.888887"
         style="fill:none;stroke:#000000;stroke-width:1.0629921;stroke-linecap:butt;stroke-linejoin:miter;stroke-miterlimit:4;stroke-opacity:1;stroke-dasharray:none;display:inline" />
      <path
         sodipodi:nodetypes="cc"
         inkscape:connector-curvature="0"
         id="path3210"
         d="m 111.85531,102.3444 -0.39084,-6.470922"
         style="fill:none;stroke:#000000;stroke-width:1.0629921;stroke-linecap:butt;stroke-linejoin:miter;stroke-miterlimit:4;stroke-opacity:1;stroke-dasharray:none;display:inline" />
      <path
         sodipodi:nodetypes="ccc"
         inkscape:connector-curvature="0"
         id="path3212"
         d="m 111.79391,95.585632 c 2.07407,2.000004 4.88836,4.329316 7.94217,5.349578 l -0.37037,-5.555559"
         style="fill:none;stroke:#000000;stroke-width:1.0629921;stroke-linecap:butt;stroke-linejoin:miter;stroke-miterlimit:4;stroke-opacity:1;stroke-dasharray:none;display:inline" />
      <path
         sodipodi:nodetypes="ccc"
         inkscape:connector-curvature="0"
         id="path3214"
         d="m 118.87188,101.18212 0,1.72839 c 1.39918,0.37358 2.79835,-0.0237 4.19753,1.85186"
         style="fill:none;stroke:#000000;stroke-width:1.0629921;stroke-linecap:butt;stroke-linejoin:miter;stroke-miterlimit:4;stroke-opacity:1;stroke-dasharray:none;display:inline" />
      <path
         sodipodi:nodetypes="cc"
         inkscape:connector-curvature="0"
         id="path3216"
         d="m 119.48916,103.5278 c -1.04637,10.9606 -1.24027,21.83596 0.98766,32.46913"
         style="fill:none;stroke:#000000;stroke-width:1.0629921;stroke-linecap:butt;stroke-linejoin:miter;stroke-miterlimit:4;stroke-opacity:1;stroke-dasharray:none;display:inline" />
      <path
         sodipodi:nodetypes="cccc"
         inkscape:connector-curvature="0"
         id="path3218"
         d="m 78.822109,128.5332 -0.875,-0.625 -6.109375,9.5625 z"
         style="font-size:medium;font-style:normal;font-variant:normal;font-weight:normal;font-stretch:normal;text-indent:0;text-align:start;text-decoration:none;line-height:normal;letter-spacing:normal;word-spacing:normal;text-transform:none;direction:ltr;block-progression:tb;writing-mode:lr-tb;text-anchor:start;baseline-shift:baseline;color:#000000;fill:#000000;fill-opacity:1;stroke:none;stroke-width:1.0629921;marker:none;visibility:visible;display:inline;overflow:visible;enable-background:accumulate;font-family:Sans;-inkscape-font-specification:Sans" />
      <path
         sodipodi:nodetypes="ccc"
         inkscape:connector-curvature="0"
         id="path3220"
         d="m 109.11879,61.799404 c 4.52917,-2.369081 0.60809,-3.788168 1.35803,-6.296297 2.93801,-9.185764 10.6863,5.94666 6.66666,20"
         style="fill:none;stroke:#000000;stroke-width:1.0629921;stroke-linecap:butt;stroke-linejoin:miter;stroke-miterlimit:4;stroke-opacity:1;stroke-dasharray:none;display:inline" />
      <path
         sodipodi:nodetypes="cc"
         inkscape:connector-curvature="0"
         id="path3222"
         d="m 111.9583,56.367305 c 3.50417,2.17576 6.26074,5.438921 6.17284,12.839506"
         style="fill:none;stroke:#000000;stroke-width:1.0629921;stroke-linecap:butt;stroke-linejoin:miter;stroke-miterlimit:4;stroke-opacity:1;stroke-dasharray:none;display:inline" />
      <path
         sodipodi:nodetypes="cc"
         inkscape:connector-curvature="0"
         id="path3224"
         d="m 112.94595,55.00928 c 3.77869,2.106081 4.08726,7.682286 5.4321,12.222222"
         style="fill:none;stroke:#000000;stroke-width:1.0629921;stroke-linecap:butt;stroke-linejoin:miter;stroke-miterlimit:4;stroke-opacity:1;stroke-dasharray:none;display:inline" />
      <path
         sodipodi:nodetypes="zzzzz"
         inkscape:connector-curvature="0"
         id="path3226"
         d="m 105.39396,33.086457 c -0.5193,1.069718 3.55326,4.997305 5.55556,5.679013 2.0023,0.681708 3.64335,0.508652 4.19753,-1.358025 0.55418,-1.866677 -2.38519,-3.819525 -4.19753,-4.567901 -1.81234,-0.748376 -5.03626,-0.822805 -5.55556,0.246913 z"
         style="fill:none;stroke:#000000;stroke-width:1.0629921;stroke-linecap:butt;stroke-linejoin:miter;stroke-miterlimit:4;stroke-opacity:1;stroke-dasharray:none;display:inline" />
      <path
         sodipodi:nodetypes="cc"
         inkscape:connector-curvature="0"
         id="path3228"
         d="m 110.33224,34.691395 c 0.65843,-2.905569 1.31687,-2.256397 1.9753,-0.246913"
         style="fill:none;stroke:#000000;stroke-width:1.0629921;stroke-linecap:butt;stroke-linejoin:miter;stroke-miterlimit:4;stroke-opacity:1;stroke-dasharray:none;display:inline" />
    </g>
    <path
       transform="translate(-218.16938,-378.37561)"
       inkscape:connector-curvature="0"
       d="m 333.20813,412.6428 c 0,0 -0.36125,-2.52875 -2.385,-2.6075 l -14.00375,0 -1.61625,0 -1.565,0 -1.61875,0 -14.00125,0 c -2.02625,0.0788 -2.3875,2.6075 -2.3875,2.6075 l -7.605,40.71 0,64.98375 26.355,0 0.08,0 26.3525,0 0,-64.98375 -7.605,-40.71 z"
       style="fill:none;stroke:#231f20;stroke-width:0.3125;stroke-linecap:butt;stroke-linejoin:miter;stroke-miterlimit:4;stroke-opacity:1;stroke-dasharray:none;display:inline"
       id="path3013" />
  </g>
</svg>
