<?xml version="1.0" encoding="UTF-8" standalone="no"?>
<!-- Created with Inkscape (http://www.inkscape.org/) -->

<svg
   xmlns:dc="http://purl.org/dc/elements/1.1/"
   xmlns:cc="http://creativecommons.org/ns#"
   xmlns:rdf="http://www.w3.org/1999/02/22-rdf-syntax-ns#"
   xmlns:svg="http://www.w3.org/2000/svg"
   xmlns="http://www.w3.org/2000/svg"
   xmlns:xlink="http://www.w3.org/1999/xlink"
   xmlns:sodipodi="http://sodipodi.sourceforge.net/DTD/sodipodi-0.dtd"
   xmlns:inkscape="http://www.inkscape.org/namespaces/inkscape"
   width="52.375"
   height="43.213669"
   id="svg2"
   version="1.1"
   inkscape:version="0.48.2 r9819"
   sodipodi:docname="sandy_cheeks.svg"
   inkscape:export-filename="C:\Dokumente und Einstellungen\John\Desktop\minifigs\done\sandy_cheeks.png"
   inkscape:export-xdpi="860.14453"
   inkscape:export-ydpi="860.14453">
  <defs
     id="defs4">
    <linearGradient
       inkscape:collect="always"
       id="linearGradient4267">
      <stop
         style="stop-color:#f5da69;stop-opacity:1;"
         offset="0"
         id="stop4269" />
      <stop
         style="stop-color:#f5da69;stop-opacity:0;"
         offset="1"
         id="stop4271" />
    </linearGradient>
    <linearGradient
       id="linearGradient4255">
      <stop
         style="stop-color:#f6da6d;stop-opacity:1;"
         offset="0"
         id="stop4257" />
      <stop
         id="stop4263"
         offset="0.78899086"
         style="stop-color:#f6da6d;stop-opacity:0.72941176;" />
      <stop
         style="stop-color:#f6da6d;stop-opacity:0;"
         offset="1"
         id="stop4259" />
    </linearGradient>
    <clipPath
       id="clipPath2999"
       clipPathUnits="userSpaceOnUse">
      <path
         id="path3001"
         d="M 0,792 612,792 612,0 0,0 0,792 z"
         inkscape:connector-curvature="0" />
    </clipPath>
    <radialGradient
       inkscape:collect="always"
       xlink:href="#linearGradient4255"
       id="radialGradient4261"
       cx="397.16574"
       cy="425.44281"
       fx="397.16574"
       fy="425.44281"
       r="1.6571538"
       gradientTransform="matrix(1.3234838,0,0,1.4850841,-128.47667,-206.66797)"
       gradientUnits="userSpaceOnUse" />
    <radialGradient
       inkscape:collect="always"
       xlink:href="#linearGradient4267"
       id="radialGradient4273"
       cx="178.99635"
       cy="47.067188"
       fx="178.99635"
       fy="47.067188"
       r="2.3881536"
       gradientTransform="matrix(1.4281974,-0.05659276,0.08040591,2.029156,-80.430268,-38.309583)"
       gradientUnits="userSpaceOnUse" />
  </defs>
  <sodipodi:namedview
     id="base"
     pagecolor="#ffffff"
     bordercolor="#666666"
     borderopacity="1.0"
     inkscape:pageopacity="0.0"
     inkscape:pageshadow="2"
     inkscape:zoom="3.64"
     inkscape:cx="34.442757"
     inkscape:cy="33.352051"
     inkscape:document-units="px"
     inkscape:current-layer="layer1"
     showgrid="false"
     fit-margin-top="0"
     fit-margin-left="0"
     fit-margin-right="0"
     fit-margin-bottom="0"
     inkscape:window-width="1280"
     inkscape:window-height="968"
     inkscape:window-x="-4"
     inkscape:window-y="-4"
     inkscape:window-maximized="1"
     showguides="true"
     inkscape:guide-bbox="true" />
  <metadata
     id="metadata7">
    <rdf:RDF>
      <cc:Work
         rdf:about="">
        <dc:format>image/svg+xml</dc:format>
        <dc:type
           rdf:resource="http://purl.org/dc/dcmitype/StillImage" />
        <dc:title></dc:title>
      </cc:Work>
    </rdf:RDF>
  </metadata>
  <g
     inkscape:label="Ebene 1"
     inkscape:groupmode="layer"
     id="layer1"
     transform="translate(-360.9375,-409.84883)"
     style="display:inline">
    <path
       inkscape:connector-curvature="0"
       d="m 288.01313,453.4178 0.0125,-0.065 0,-0.0663 -0.0125,0.13125 z"
       style="fill:#ffffff;fill-opacity:1;fill-rule:nonzero;stroke:none"
       id="path3003" />
    <path
       inkscape:connector-curvature="0"
       d="m 288.01313,453.4178 0.0125,-0.065 0,-0.0663 -0.0125,0.13125 z"
       style="fill:none;stroke:#231f20;stroke-width:0.3125;stroke-linecap:butt;stroke-linejoin:miter;stroke-miterlimit:4;stroke-opacity:1;stroke-dasharray:none"
       id="path3005" />
    <path
       inkscape:connector-curvature="0"
       d="m 340.81313,453.28655 0,0.0663 0.0125,0.065 -0.0125,-0.13125 z"
       style="fill:#ffffff;fill-opacity:1;fill-rule:nonzero;stroke:none"
       id="path3007" />
    <path
       inkscape:connector-curvature="0"
       d="m 340.81313,453.28655 0,0.0663 0.0125,0.065 -0.0125,-0.13125 z"
       style="fill:none;stroke:#231f20;stroke-width:0.3125;stroke-linecap:butt;stroke-linejoin:miter;stroke-miterlimit:4;stroke-opacity:1;stroke-dasharray:none"
       id="path3009" />
    <path
       inkscape:connector-curvature="0"
       d="m 333.20813,412.6428 c 0,0 -0.36125,-2.52875 -2.385,-2.6075 l -14.00375,0 -1.61625,0 -1.565,0 -1.61875,0 -14.00125,0 c -2.02625,0.0788 -2.3875,2.6075 -2.3875,2.6075 l -7.605,40.71 0,64.98375 26.355,0 0.08,0 26.3525,0 0,-64.98375 -7.605,-40.71 z"
       style="fill:none;stroke:#231f20;stroke-width:0.3125;stroke-linecap:butt;stroke-linejoin:miter;stroke-miterlimit:4;stroke-opacity:1;stroke-dasharray:none"
       id="path3013" />
    <path
       inkscape:connector-curvature="0"
       d="m 218.32563,453.4178 0.0125,-0.065 0,-0.0663 -0.0125,0.13125 z"
       style="fill:#ffffff;fill-opacity:1;fill-rule:nonzero;stroke:none"
       id="path3015" />
    <path
       inkscape:connector-curvature="0"
       d="m 218.32563,453.4178 0.0125,-0.065 0,-0.0663 -0.0125,0.13125 z"
       style="fill:none;stroke:#231f20;stroke-width:0.3125;stroke-linecap:butt;stroke-linejoin:miter;stroke-miterlimit:4;stroke-opacity:1;stroke-dasharray:none"
       id="path3017" />
    <path
       inkscape:connector-curvature="0"
       d="m 271.12563,453.28655 0,0.0663 0.0125,0.065 -0.0125,-0.13125 z"
       style="fill:#ffffff;fill-opacity:1;fill-rule:nonzero;stroke:none"
       id="path3019" />
    <path
       inkscape:connector-curvature="0"
       d="m 271.12563,453.28655 0,0.0663 0.0125,0.065 -0.0125,-0.13125 z"
       style="fill:none;stroke:#231f20;stroke-width:0.3125;stroke-linecap:butt;stroke-linejoin:miter;stroke-miterlimit:4;stroke-opacity:1;stroke-dasharray:none"
       id="path3021" />
    <path
       inkscape:connector-curvature="0"
       d="m 263.52063,412.6428 c 0,0 -0.36125,-2.52875 -2.385,-2.6075 l -14.00375,0 -1.61625,0 -1.565,0 -1.61875,0 -14.00125,0 c -2.02625,0.0788 -2.3875,2.6075 -2.3875,2.6075 l -7.605,40.71 0,64.98375 26.355,0 0.08,0 26.3525,0 0,-64.98375 -7.605,-40.71 z"
       style="fill:none;stroke:#231f20;stroke-width:0.3125;stroke-linecap:butt;stroke-linejoin:miter;stroke-miterlimit:4;stroke-opacity:1;stroke-dasharray:none"
       id="path3025" />
    <path
       inkscape:connector-curvature="0"
       d="m 361.62563,526.17905 22.695,0 0,-11.205 -22.695,0 0,11.205 z"
       style="fill:none;stroke:#231f20;stroke-width:0.3125;stroke-linecap:butt;stroke-linejoin:miter;stroke-miterlimit:4;stroke-opacity:1;stroke-dasharray:none"
       id="path3029" />
    <path
       inkscape:connector-curvature="0"
       d="m 384.32188,512.3378 -22.6975,0 0,-42.43375 22.6975,0 0,42.43375 z"
       style="fill:none;stroke:#231f20;stroke-width:0.3125;stroke-linecap:butt;stroke-linejoin:miter;stroke-miterlimit:4;stroke-opacity:1;stroke-dasharray:none"
       id="path3033" />
    <path
       inkscape:connector-curvature="0"
       d="m 412.67313,464.75155 -51.33,0 0,-7.06625 51.33,0 0,7.06625 z"
       style="fill:none;stroke:#231f20;stroke-width:0.3125;stroke-linecap:butt;stroke-linejoin:miter;stroke-miterlimit:4;stroke-opacity:1;stroke-dasharray:none"
       id="path3037" />
    <path
       inkscape:connector-curvature="0"
       d="m 362.25313,493.9003 21.44125,0"
       style="fill:#ffffff;fill-opacity:1;fill-rule:nonzero;stroke:none"
       id="path3039" />
    <path
       inkscape:connector-curvature="0"
       d="m 362.25313,493.9003 21.44125,0"
       style="fill:none;stroke:#231f20;stroke-width:0.3125;stroke-linecap:butt;stroke-linejoin:miter;stroke-miterlimit:4;stroke-opacity:1;stroke-dasharray:none"
       id="path3041" />
    <path
       inkscape:connector-curvature="0"
       d="m 389.85563,526.17905 22.695,0 0,-11.205 -22.695,0 0,11.205 z"
       style="fill:none;stroke:#231f20;stroke-width:0.3125;stroke-linecap:butt;stroke-linejoin:miter;stroke-miterlimit:4;stroke-opacity:1;stroke-dasharray:none"
       id="path3045" />
    <path
       inkscape:connector-curvature="0"
       d="m 412.55063,512.33905 -22.695,0 0,-42.435 22.695,0 0,42.435 z"
       style="fill:none;stroke:#231f20;stroke-width:0.3125;stroke-linecap:butt;stroke-linejoin:miter;stroke-miterlimit:4;stroke-opacity:1;stroke-dasharray:none"
       id="path3049" />
    <path
       inkscape:connector-curvature="0"
       d="m 390.48313,493.90155 21.44,0"
       style="fill:#ffffff;fill-opacity:1;fill-rule:nonzero;stroke:none"
       id="path3051" />
    <path
       inkscape:connector-curvature="0"
       d="m 390.48313,493.90155 21.44,0"
       style="fill:none;stroke:#231f20;stroke-width:0.3125;stroke-linecap:butt;stroke-linejoin:miter;stroke-miterlimit:4;stroke-opacity:1;stroke-dasharray:none"
       id="path3053" />
    <path
       inkscape:connector-curvature="0"
       d="m 454.95438,449.1028 c -0.545,-1.0275 -0.275,-1.92125 -0.275,-1.92125 l -0.009,-0.0113 -2.4375,-3.60375 c -2.38375,3.23625 -4.59875,5.25125 -6.0625,6.38375 0.465,0.56 1.42375,1.62125 2.245,1.9625 0.04,0.0175 0.0787,0.0437 0.11875,0.0562 1.14625,0.38625 7.29375,-1.20875 6.42,-2.86625 z"
       style="fill:none;stroke:#231f20;stroke-width:0.3125;stroke-linecap:butt;stroke-linejoin:miter;stroke-miterlimit:4;stroke-opacity:1;stroke-dasharray:none"
       id="path3057" />
    <path
       inkscape:connector-curvature="0"
       d="m 467.66938,458.3678 c 1.68125,-1.40125 0.74125,-3.3675 0.74125,-3.3675 l -6.7025,-10.8775 c -0.82375,-1.04 -1.9275,-0.1775 -1.9275,-0.1775 l -5.11,3.225 0.009,0.0113 c 0,0 -0.27,0.89375 0.275,1.92125 0.87375,1.6575 -5.27375,3.2525 -6.42,2.86625 -0.04,-0.0125 -0.0788,-0.0387 -0.11875,-0.0562 -0.15875,1.3 0.3025,4.04625 4.44625,8.85 4.4575,5.1675 13.12375,-0.99375 14.8075,-2.395 z"
       style="fill:none;stroke:#231f20;stroke-width:0.3125;stroke-linecap:butt;stroke-linejoin:miter;stroke-miterlimit:4;stroke-opacity:1;stroke-dasharray:none"
       id="path3061" />
    <path
       inkscape:connector-curvature="0"
       d="m 446.17063,449.9503 c 1.46375,-1.1325 3.67875,-3.1475 6.0625,-6.38375 0.61875,-0.84 1.2475,-1.75875 1.8775,-2.76625 l -5.685,-5.68375 c 0,0 -1.88,-1.7375 -1.79375,-4.535 0,0 1.355,-14.47875 -0.67625,-17.77375 -2.9275,-4.75 -7.1,-3.99375 -7.1,-3.99375 -10.11,0.86375 -10.3175,9.08625 -10.3175,9.08625 0,0 -0.07,9.77625 -0.0263,14.57125 0.0462,4.795 3.34375,7.49125 3.34375,7.49125 l 12.5375,11.1925 c 0,0 0.67625,-0.35375 1.7775,-1.205 z"
       style="fill:none;stroke:#231f20;stroke-width:0.3125;stroke-linecap:butt;stroke-linejoin:miter;stroke-miterlimit:4;stroke-opacity:1;stroke-dasharray:none"
       id="path3065" />
    <path
       inkscape:connector-curvature="0"
       d="m 496.68688,449.5203 c -0.4925,-1.05375 -1.3675,-1.37625 -1.3675,-1.37625 l -0.002,-0.0138 -1.40625,-4.12 c 4.02125,0.0513 6.9625,-0.49875 8.75,-0.98375 0.16625,0.70875 0.43375,2.1125 0.2125,2.975 -0.0125,0.04 -0.015,0.0888 -0.0275,0.1275 -0.38375,1.1475 -5.365,5.09 -6.15875,3.39125 z"
       style="fill:none;stroke:#231f20;stroke-width:0.3125;stroke-linecap:butt;stroke-linejoin:miter;stroke-miterlimit:4;stroke-opacity:1;stroke-dasharray:none"
       id="path3069" />
    <path
       inkscape:connector-curvature="0"
       d="m 496.40813,465.2503 c -2.13125,0.49625 -3.135,-1.4375 -3.135,-1.4375 l -4.6325,-11.9075 c -0.33375,-1.285 1.02125,-1.645 1.02125,-1.645 l 5.655,-2.13 0.002,0.0138 c 0,0 0.875,0.3225 1.3675,1.37625 0.79375,1.69875 5.775,-2.24375 6.15875,-3.39125 0.0125,-0.0387 0.015,-0.0875 0.0275,-0.1275 1.1325,0.6575 3.04375,2.68125 4.3775,8.8825 1.4325,6.6725 -8.70875,9.86875 -10.8425,10.36625 z"
       style="fill:none;stroke:#231f20;stroke-width:0.3125;stroke-linecap:butt;stroke-linejoin:miter;stroke-miterlimit:4;stroke-opacity:1;stroke-dasharray:none"
       id="path3073" />
    <path
       inkscape:connector-curvature="0"
       d="m 502.66063,443.02655 c -1.7875,0.485 -4.72875,1.035 -8.75,0.98375 -1.0425,-0.0112 -2.15375,-0.0637 -3.3375,-0.17125 l -1.105,-7.96125 c 0,0 -0.25125,-2.5475 -2.53375,-4.165 0,0 -12.3675,-7.6525 -13.77125,-11.26125 -2.0225,-5.19875 1.0975,-8.07125 1.0975,-8.07125 6.7875,-7.5425 13.47,-2.74875 13.47,-2.74875 0,0 7.84,5.84 11.63875,8.76625 3.79625,2.9275 3.9575,7.1875 3.9575,7.1875 l 1.3675,16.75 c 0,0 -0.69125,0.32625 -2.03375,0.69125 z"
       style="fill:none;stroke:#231f20;stroke-width:0.3125;stroke-linecap:butt;stroke-linejoin:miter;stroke-miterlimit:4;stroke-opacity:1;stroke-dasharray:none"
       id="path3077" />
    <path
       inkscape:connector-curvature="0"
       d="m 406.43813,399.93655 -112.8,0 0,-21.39125 112.8,0 0,21.39125 z"
       style="fill:none;stroke:#231f20;stroke-width:0.3125;stroke-linecap:butt;stroke-linejoin:miter;stroke-miterlimit:4;stroke-opacity:1;stroke-dasharray:none"
       id="path3081" />
    <path
       inkscape:connector-curvature="0"
       d="m 436.24063,492.5503 0,15.2025 -7.6025,0 0,10.58375 26.75375,0 0,-39.64875 0,-0.89375 c 0,0 -2.08625,-8.1975 -11.4025,-8.1975 l -0.67,0 c 0,0 -11.62625,0.0738 -11.92375,11.17875 l 0,0.37375 c 0,0 -0.2975,5.215 4.91875,8.645 l -0.0738,2.75625 z"
       style="fill:none;stroke:#231f20;stroke-width:0.3125;stroke-linecap:butt;stroke-linejoin:miter;stroke-miterlimit:4;stroke-opacity:1;stroke-dasharray:none"
       id="path3085" />
    <path
       inkscape:connector-curvature="0"
       d="m 481.02938,492.5503 0,15.2025 7.60125,0 0,10.58375 -26.75375,0 0,-39.64875 0,-0.89375 c 0,0 2.08625,-8.1975 11.40125,-8.1975 l 0.67125,0 c 0,0 11.62625,0.0738 11.92375,11.17875 l 0,0.37375 c 0,0 0.29875,5.215 -4.9175,8.645 l 0.0738,2.75625 z"
       style="fill:none;stroke:#231f20;stroke-width:0.3125;stroke-linecap:butt;stroke-linejoin:miter;stroke-miterlimit:4;stroke-opacity:1;stroke-dasharray:none"
       id="path3089" />
    <path
       inkscape:connector-curvature="0"
       d="m 361.13813,452.9203 c 8.7325,-47.29375 5.3425,-42.67875 14.2675,-42.85625 l 23.44,0 c 8.92625,0.1775 5.535,-4.4375 14.265,42.85625 l -51.9725,0 z"
       style="fill:none;stroke:#231f20;stroke-width:0.3125;stroke-linecap:butt;stroke-linejoin:miter;stroke-miterlimit:4;stroke-opacity:1;stroke-dasharray:none"
       id="path3093" />
    <path
       inkscape:connector-curvature="0"
       d="m 288.01313,453.1053 52.8,-0.065"
       style="fill:none;stroke:#231f20;stroke-width:0.3125;stroke-linecap:butt;stroke-linejoin:miter;stroke-miterlimit:4;stroke-opacity:1;stroke-dasharray:none"
       id="path3095" />
    <path
       style="fill:none;stroke:#000000;stroke-width:0.69999999;stroke-linecap:butt;stroke-linejoin:miter;stroke-miterlimit:4;stroke-opacity:1;stroke-dasharray:none"
       d="m 170.13503,65.363508 c -0.0624,-2.245311 -1.81318,-3.225615 -1.99744,-4.675179 -0.18427,-1.449565 1.41403,-2.837079 1.41622,-4.273513 0.002,-1.436435 -1.28756,-2.430908 -1.28306,-3.911492 0.005,-1.480584 1.4268,-3.104545 1.51332,-4.520405 0.0865,-1.415861 -0.75445,-2.357547 -0.74743,-3.668653 0.007,-1.311106 1.88303,-3.214663 1.4161,-5.400321"
       id="path3464"
       inkscape:connector-curvature="0"
       transform="translate(218.16938,378.37561)"
       sodipodi:nodetypes="czzzzzc" />
    <path
       style="font-size:medium;font-style:normal;font-variant:normal;font-weight:normal;font-stretch:normal;text-indent:0;text-align:start;text-decoration:none;line-height:normal;letter-spacing:normal;word-spacing:normal;text-transform:none;direction:ltr;block-progression:tb;writing-mode:lr-tb;text-anchor:start;baseline-shift:baseline;color:#000000;fill:#000000;fill-opacity:1;stroke:none;stroke-width:0.60000002;marker:none;visibility:visible;display:inline;overflow:visible;enable-background:accumulate;font-family:Sans;-inkscape-font-specification:Sans"
       d="m 386.79438,410.68811 0,0.3125 -0.0625,2.09375 0,0.0312 c -0.0777,0.63033 -0.28318,1.10898 -0.46875,1.53125 -0.18904,0.43016 -0.39339,0.80748 -0.375,1.25 0.0295,0.71013 0.38808,1.22443 0.90625,1.46875 0.51817,0.24432 1.17308,0.30088 1.90625,0.34375 l 0.0312,0 c 0.84679,-0.0505 1.42781,-0.20447 1.84375,-0.53125 0.41594,-0.32678 0.56708,-0.82408 0.53125,-1.40625 -0.0278,-0.45205 -0.19498,-0.88227 -0.375,-1.3125 -0.18002,-0.43023 -0.36844,-0.88083 -0.40625,-1.3125 l -0.1875,-2.15625 0,-0.28125 -0.28125,0 -2.78125,-0.0312 -0.28125,0 z m 2.75116,3.544 c 0.31893,0.59793 0.73998,1.7577 0.53587,2.06589 -0.2041,0.30819 -0.67225,0.41513 -1.43981,0.46528 -0.57795,0.004 -1.08971,-0.0735 -1.35642,-0.52199 -0.26672,-0.44847 0.27435,-1.71746 0.5845,-2.34136 0.31014,-0.6239 0.39598,-1.00805 0.7808,-0.98967 0.38482,0.0184 0.57613,0.72392 0.89506,1.32185 z"
       id="path4234"
       inkscape:connector-curvature="0"
       sodipodi:nodetypes="ccccscsccscsccccccczzczzzz" />
    <path
       style="fill:#f2e6b6;fill-opacity:1;stroke:#000000;stroke-width:0.56281078;stroke-linecap:butt;stroke-linejoin:miter;stroke-miterlimit:4;stroke-opacity:1;stroke-dasharray:none"
       d="m 403.1109,417.57243 -10.13645,0 c -1.73216,4.38549 -1.25312,10.9551 -0.77973,11.27718 0.47339,0.32207 9.35849,0.79506 10.03899,0.0429 0.6805,-0.75219 -0.11021,-5.51622 0.87719,-11.32006 z"
       id="path4240"
       inkscape:connector-curvature="0"
       sodipodi:nodetypes="cczzc" />
    <path
       style="fill:#933b51;fill-opacity:1;stroke:#000000;stroke-width:0.56281078;stroke-linecap:butt;stroke-linejoin:miter;stroke-miterlimit:4;stroke-opacity:1;stroke-dasharray:none"
       d="m 399.74833,421.94609 -4.97076,0 c -0.71895,-0.54236 -0.81827,-0.92125 -0.7783,-1.25804 0.14938,-1.25842 2.2882,-1.0741 3.21494,-1.87213 0.71839,0.80102 2.77968,0.50956 3.18671,2.08292 0.075,0.29006 -0.096,0.6291 -0.65259,1.04725 z"
       id="path4242"
       inkscape:connector-curvature="0"
       sodipodi:nodetypes="ccscsc" />
    <path
       style="fill:#f9e3b1;fill-opacity:1;stroke:#000000;stroke-width:0.56281078;stroke-miterlimit:4"
       d="m 394.8263,421.86033 4.7271,0 0,3.17133 c 0.0325,0.8846 -1.59195,1.58917 -2.38792,2.10279 -0.83926,-0.58658 -2.27457,-1.30181 -2.33918,-2.10279 -0.0969,-1.14238 -0.0233,-2.13472 0,-3.17133 z"
       id="rect4248"
       inkscape:connector-curvature="0"
       sodipodi:nodetypes="cccccc" />
    <path
       sodipodi:nodetypes="cccccc"
       inkscape:connector-curvature="0"
       id="path4275"
       d="m 394.8263,421.86033 4.7271,0 0,3.17133 c 0.0325,0.8846 -1.59195,1.58917 -2.38792,2.10279 -0.83926,-0.58658 -2.27457,-1.30181 -2.33918,-2.10279 -0.0969,-1.14238 -0.0233,-2.13472 0,-3.17133 z"
       style="fill:none;stroke:#000000;stroke-width:0.56281078;stroke-miterlimit:4" />
    <path
       sodipodi:nodetypes="cccccc"
       inkscape:connector-curvature="0"
       id="path4277"
       d="m 395.49484,422.43938 3.37623,0 0,2.47497 c 0.0232,0.69036 -1.13702,1.24022 -1.70552,1.64106 -0.59942,-0.45779 -1.62456,-1.01596 -1.67071,-1.64106 -0.0692,-0.89155 -0.0166,-1.66598 0,-2.47497 z"
       style="fill:#f9dd60;fill-opacity:1;stroke:none" />
    <path
       style="fill:#d7849e;fill-opacity:1;stroke:none"
       d="m 395.24578,419.85942 c 0,0 -0.74941,0.43555 -0.26811,1.17953 0.4813,0.74398 2.82737,-0.24592 4.82603,0.57904 l -5.02102,0.17157 -0.73122,-0.96507 c 0,0 0.21937,-0.87929 0.31686,-0.87929 0.0975,0 0.87746,-0.0858 0.87746,-0.0858 z"
       id="path4279"
       inkscape:connector-curvature="0"
       sodipodi:nodetypes="czcccsc" />
    <path
       sodipodi:nodetypes="ccscsc"
       inkscape:connector-curvature="0"
       id="path4281"
       d="m 399.74833,421.94609 -4.97076,0 c -0.71895,-0.54236 -0.81827,-0.92125 -0.7783,-1.25804 0.14938,-1.25842 2.2882,-1.0741 3.21494,-1.87213 0.71839,0.80102 2.77968,0.50956 3.18671,2.08292 0.075,0.29006 -0.096,0.6291 -0.65259,1.04725 z"
       style="fill:none;stroke:#000000;stroke-width:0.56281078;stroke-linecap:butt;stroke-linejoin:miter;stroke-miterlimit:4;stroke-opacity:1;stroke-dasharray:none" />
  </g>
  <g
     inkscape:groupmode="layer"
     id="layer2"
     inkscape:label="female"
     style="display:none"
     sodipodi:insensitive="true"
     transform="translate(-142.76812,-31.473222)">
    <path
       transform="translate(-218.16938,-378.37561)"
       id="path3325"
       style="fill:none;stroke:#231f20;stroke-width:0.3125;stroke-linecap:butt;stroke-linejoin:miter;stroke-miterlimit:4;stroke-opacity:1;stroke-dasharray:none"
       d="m 360.93313,453.0725 c 8.7325,-47.29375 5.3425,-42.67875 14.2675,-42.85625 l 23.44,0 c 8.92625,0.1775 5.535,-4.4375 14.265,42.85625 l -51.9725,0 z"
       inkscape:connector-curvature="0" />
    <path
       style="fill:none;stroke:#231f20;stroke-width:0.3125;stroke-linecap:butt;stroke-linejoin:miter;stroke-miterlimit:4;stroke-opacity:1;stroke-dasharray:none"
       d="m 153.96875,31.78125 c -0.27345,-0.0021 -0.51296,0.01438 -0.75,0.03125 -0.2517,0.01598 -0.50065,0.04528 -0.71875,0.09375 -0.19414,0.04649 -0.36055,0.103301 -0.53125,0.1875 -1.79689,0.886304 -2.41272,4.126231 -4.4375,15.34375 -0.79249,4.39047 3.12451,9.636 2.34375,17.375 -0.42679,4.23039 -5.79223,6.78828 -7.125,9.875 l 52,0 c -1.33277,-3.08672 -6.69821,-5.64461 -7.125,-9.875 -0.78076,-7.739 3.13624,-12.98453 2.34375,-17.375 -2.02478,-11.217519 -2.64061,-14.457446 -4.4375,-15.34375 -0.1707,-0.0842 -0.33711,-0.141007 -0.53125,-0.1875 -0.01,-0.0021 -0.0215,0.0021 -0.0312,0 -0.18742,-0.04293 -0.41185,-0.07634 -0.625,-0.09375 -0.3229,-0.02336 -0.6732,-0.03967 -1.0625,-0.03125 -0.21166,0.0041 -0.42118,0.02383 -0.65625,0.03125 -0.63668,0.02078 -1.3262,0.04776 -2.15625,0.03125 l -23.4375,0 c -0.83005,0.01651 -1.51957,-0.01047 -2.15625,-0.03125 -0.0104,-3.4e-4 -0.0209,3.37e-4 -0.0312,0 -0.31503,-0.0099 -0.60155,-0.0291 -0.875,-0.03125 z"
       id="path3093-4"
       inkscape:connector-curvature="0" />
    <path
       style="font-size:medium;font-style:normal;font-variant:normal;font-weight:normal;font-stretch:normal;text-indent:0;text-align:start;text-decoration:none;line-height:normal;letter-spacing:normal;word-spacing:normal;text-transform:none;direction:ltr;block-progression:tb;writing-mode:lr-tb;text-anchor:start;baseline-shift:baseline;color:#000000;fill:#000000;fill-opacity:1;stroke:none;stroke-width:1px;marker:none;visibility:visible;display:inline;overflow:visible;enable-background:accumulate;font-family:Sans;-inkscape-font-specification:Sans"
       d="m 158.0625,51.90625 c -2.81526,-0.490583 -5.46923,-1.869284 -7.14063,-4.15625 0.95017,3.105013 3.92775,4.629051 6.95313,5.15625 3.02538,0.527199 6.12462,0.104993 7.73437,-1.515625 -1.79108,0.553195 -4.73161,1.006208 -7.54687,0.515625 z"
       id="path3331"
       inkscape:connector-curvature="0"
       sodipodi:nodetypes="scscs" />
    <path
       sodipodi:nodetypes="scscs"
       inkscape:connector-curvature="0"
       id="path3337"
       d="m 179.15211,51.90625 c 2.81526,-0.490583 5.46923,-1.869284 7.14063,-4.15625 -0.95017,3.105013 -3.92775,4.629051 -6.95313,5.15625 -3.02538,0.527199 -6.12462,0.104993 -7.73437,-1.515625 1.79108,0.553195 4.73161,1.006208 7.54687,0.515625 z"
       style="font-size:medium;font-style:normal;font-variant:normal;font-weight:normal;font-stretch:normal;text-indent:0;text-align:start;text-decoration:none;line-height:normal;letter-spacing:normal;word-spacing:normal;text-transform:none;direction:ltr;block-progression:tb;writing-mode:lr-tb;text-anchor:start;baseline-shift:baseline;color:#000000;fill:#000000;fill-opacity:1;stroke:none;stroke-width:1px;marker:none;visibility:visible;display:inline;overflow:visible;enable-background:accumulate;font-family:Sans;-inkscape-font-specification:Sans" />
    <path
       style="fill:#000000;stroke:#000000;stroke-width:0.16397245px;stroke-linecap:butt;stroke-linejoin:miter;stroke-opacity:1"
       d="m 166.62324,39.010544 c -0.0701,0.008 -0.10942,0.04897 -0.1076,0.143476 0.0117,0.604843 0.96367,1.121513 1.53211,2.428842 0.55894,1.285466 0.69801,2.809398 0.84037,2.972001 0.009,0.01017 0.0179,0.0019 0.0256,-0.02562 0.008,0.02753 0.0168,0.03578 0.0257,0.02562 0.14234,-0.162603 0.28142,-1.686535 0.84035,-2.972001 0.56844,-1.307329 1.52559,-1.823999 1.53724,-2.428842 -0.32476,-0.43968 -1.48281,0.608395 -2.40322,0.614897 -1.24814,-0.05292 -1.46604,-0.734365 -2.29049,-0.758373 z"
       id="path3350"
       inkscape:connector-curvature="0"
       sodipodi:nodetypes="csscccsccc" />
  </g>
</svg>
