<?xml version="1.0" encoding="UTF-8" standalone="no"?>
<!-- Generator: Adobe Illustrator 15.1.0, SVG Export Plug-In . SVG Version: 6.00 Build 0)  -->

<svg
   xmlns:dc="http://purl.org/dc/elements/1.1/"
   xmlns:cc="http://creativecommons.org/ns#"
   xmlns:rdf="http://www.w3.org/1999/02/22-rdf-syntax-ns#"
   xmlns:svg="http://www.w3.org/2000/svg"
   xmlns="http://www.w3.org/2000/svg"
   xmlns:sodipodi="http://sodipodi.sourceforge.net/DTD/sodipodi-0.dtd"
   xmlns:inkscape="http://www.inkscape.org/namespaces/inkscape"
   version="1.1"
   id="Layer_1"
   x="0px"
   y="0px"
   width="59.527px"
   height="51.023px"
   viewBox="0 0 59.527 51.023"
   enable-background="new 0 0 59.527 51.023"
   xml:space="preserve"
   inkscape:version="0.48.1 "
   sodipodi:docname="cmf-s4-lawn-gnome copy.svg"
   inkscape:export-filename="D:\Bricks\Decals\designs\cmf-replicas\cmf-s4-lawn-gnome\cmf-s4-lawn-gnome copy.png"
   inkscape:export-xdpi="600"
   inkscape:export-ydpi="600"><metadata
   id="metadata63"><rdf:RDF><cc:Work
       rdf:about=""><dc:format>image/svg+xml</dc:format><dc:type
         rdf:resource="http://purl.org/dc/dcmitype/StillImage" /><dc:title></dc:title></cc:Work></rdf:RDF></metadata><defs
   id="defs61" /><sodipodi:namedview
   pagecolor="#ffffff"
   bordercolor="#666666"
   borderopacity="1"
   objecttolerance="10"
   gridtolerance="10"
   guidetolerance="10"
   inkscape:pageopacity="0"
   inkscape:pageshadow="2"
   inkscape:window-width="1160"
   inkscape:window-height="480"
   id="namedview59"
   showgrid="false"
   inkscape:zoom="5.703"
   inkscape:cx="29.76"
   inkscape:cy="25.6"
   inkscape:window-x="1366"
   inkscape:window-y="0"
   inkscape:window-maximized="0"
   inkscape:current-layer="Layer_1" />
<path
   id="path4124"
   connector-curvature="0"
   fill="#ED1C24"
   stroke="#000000"
   stroke-width="0.3125"
   d="M3.777,46.966  C12.51-0.328,9.12,4.287,18.045,4.11h23.44c8.926,0.177,5.535-4.438,14.265,42.856H3.777z" />
<g
   id="g4">
	<circle
   fill="#E5BA78"
   stroke="#000000"
   stroke-width="0.5669"
   cx="32.19"
   cy="13.058"
   r="1.375"
   id="circle6" />
	<circle
   fill="#E5BA78"
   stroke="#000000"
   stroke-width="0.5669"
   cx="32.19"
   cy="19.12"
   r="1.375"
   id="circle8" />
	<circle
   fill="#E5BA78"
   stroke="#000000"
   stroke-width="0.5669"
   cx="32.19"
   cy="25.495"
   r="1.375"
   id="circle10" />
</g>
<path
   fill="none"
   stroke="#000000"
   stroke-width="0.7087"
   d="M29.738,6.979c-1.041,10.917,0.097,18.721-0.083,24.866  c-0.035,1.196-0.141,2.397-0.167,3.576c-0.055,2.459,0.592,3.782,0.051,11.532"
   id="path12" />
<g
   id="g14">
	<path
   d="M33.63,5.237c-0.785,0.071-1.602,0.139-2.34,0.304c-0.338,0.086-0.608,0.296-0.828,0.566   c-0.212,0.268-0.331,0.589-0.346,0.916h-0.705C29.4,6.379,28.898,5.709,28.239,5.53C27.5,5.36,26.685,5.29,25.898,5.214   c-0.068-0.004-0.12-0.064-0.116-0.132c0.004-0.064,0.061-0.114,0.125-0.116c0.808,0.001,1.595-0.013,2.43,0.095   c0.912,0.164,1.646,0.944,1.779,1.894h-0.705c0.062-0.469,0.279-0.914,0.595-1.246c0.305-0.326,0.733-0.588,1.182-0.659   c0.837-0.112,1.624-0.102,2.433-0.107c0.081-0.001,0.147,0.064,0.147,0.146C33.768,5.167,33.705,5.23,33.63,5.237z"
   id="path16" />
</g>
<g
   id="g18">
	<g
   id="g20">
		<path
   d="M29.445,6.858c-1.788,0.021-3.647-0.025-5.353,0.206c-1.646,0.353-3.092,1.5-4.54,2.564    c-0.736,0.533-1.483,1.09-2.401,1.463c-0.46,0.175-0.983,0.301-1.528,0.231c-0.529-0.067-1.014-0.292-1.425-0.584    c-0.837-0.592-1.366-1.524-1.569-2.474c-0.221-0.957-0.125-1.928,0.082-2.833c0.036-0.157,0.192-0.255,0.349-0.22    c0.149,0.034,0.246,0.181,0.223,0.33c-0.131,0.866-0.13,1.743,0.063,2.554c0.196,0.808,0.651,1.538,1.313,1.98    c0.678,0.459,1.432,0.559,2.197,0.247c0.769-0.299,1.502-0.818,2.231-1.336c1.459-1.031,2.939-2.24,4.884-2.644    c0.949-0.162,1.853-0.129,2.764-0.132c0.909,0.008,1.815,0.03,2.722,0.062c0.162,0.006,0.289,0.142,0.283,0.304    c-0.006,0.157-0.134,0.281-0.289,0.283H29.445z"
   id="path22" />
		<path
   d="M29.513,6.271c0.907-0.031,1.813-0.053,2.722-0.062c0.911,0.003,1.814-0.03,2.764,0.132    c1.944,0.403,3.425,1.613,4.884,2.644c0.729,0.519,1.463,1.037,2.231,1.336c0.765,0.312,1.518,0.212,2.195-0.248    c0.662-0.442,1.117-1.172,1.313-1.98c0.194-0.811,0.195-1.688,0.064-2.554c-0.025-0.159,0.083-0.309,0.242-0.334    c0.151-0.024,0.295,0.077,0.33,0.224c0.206,0.906,0.302,1.877,0.081,2.833c-0.203,0.95-0.731,1.881-1.568,2.473    c-0.412,0.292-0.896,0.518-1.425,0.584c-0.545,0.071-1.068-0.056-1.528-0.23c-0.917-0.373-1.664-0.931-2.401-1.463    c-1.447-1.063-2.893-2.21-4.539-2.564c-1.705-0.231-3.564-0.184-5.353-0.205H29.52c-0.162-0.002-0.292-0.135-0.29-0.297    C29.231,6.404,29.357,6.277,29.513,6.271z"
   id="path24" />
	</g>
</g>
<g
   id="g26">
	<path
   id="belt"
   d="M52.646,35.303c0,0-0.125-1.773-0.217-2.358c-0.079-0.503-0.442-1.99-0.442-1.99   c-0.469-0.068-11.336-1.502-21.656-1.578c-0.102-0.001-0.463,0-0.566,0c-0.091,0,0.091,0,0,0s0.091,0,0,0c-0.104,0,0.102-0.001,0,0   c-10.32,0.076-21.754,1.51-22.223,1.578c0,0-0.365,1.491-0.444,1.996c-0.091,0.583-0.215,2.353-0.215,2.353   c0.113-0.017,13.511-1.363,23.731-1.393C40.834,33.939,52.532,35.286,52.646,35.303z" />
	<g
   id="g29">
		<path
   fill="#E5BA78"
   stroke="#000000"
   stroke-width="0.5669"
   d="M30.56,35.313c-0.061-0.001-1.438-0.035-2.381-0.976    c-1.066-1.066-0.971-2.654-0.966-2.722l0,0c-0.001,0-0.122-1.594,0.966-2.683c0.94-0.939,2.307-0.975,2.364-0.976h2.849    c0.43,0,0.779,0.35,0.779,0.779s-0.35,0.779-0.779,0.779H30.56c-0.076,0.005-0.821,0.063-1.277,0.521    c-0.657,0.657-0.657,2.54,0,3.197c0.486,0.487,1.288,0.521,1.296,0.521h2.813c0.43,0,0.779,0.35,0.779,0.779    s-0.35,0.779-0.779,0.779H30.56z"
   id="path31" />
		<path
   fill="#E5BA78"
   stroke="#000000"
   stroke-width="0.5669"
   d="M29.736,32.351h-3.718c-0.353,0-0.638-0.32-0.638-0.716    s0.285-0.716,0.638-0.716h3.718c0.353,0,0.638,0.32,0.638,0.716S30.089,32.351,29.736,32.351z"
   id="path33" />
	</g>
</g>
<g
   id="g35">
	<path
   d="M44.785,30.595c0.254-0.319,0.458-0.625,0.667-0.983c0.203-0.351,0.392-0.718,0.567-1.094   c0.35-0.751,0.66-1.539,0.921-2.336c0.027-0.092,0.123-0.144,0.215-0.116c0.08,0.023,0.13,0.104,0.123,0.185   c-0.091,0.857-0.231,1.704-0.425,2.554c-0.099,0.424-0.212,0.849-0.351,1.272c-0.134,0.414-0.313,0.864-0.511,1.261l-0.01,0.021   c-0.177,0.353-0.605,0.496-0.958,0.32c-0.353-0.177-0.495-0.605-0.319-0.958C44.728,30.676,44.756,30.632,44.785,30.595z"
   id="path37" />
</g>
<g
   id="g39">
	<path
   d="M16.187,30.964c0.091-0.256,0.136-0.438,0.157-0.717c0.019-0.259,0.008-0.534-0.024-0.813   c-0.066-0.557-0.209-1.133-0.411-1.681l0.178-0.109c0.39,0.473,0.728,0.983,1.011,1.553c0.139,0.286,0.262,0.588,0.354,0.914   c0.092,0.307,0.144,0.721,0.141,1.048L16.187,30.964z"
   id="path41" />
</g>
<path
   fill="none"
   stroke="#000000"
   stroke-width="0.5669"
   stroke-linecap="round"
   stroke-dasharray="0.8504,1.7008"
   d="M7.951,37.62  c0,0,12.034-1.134,22.125-1.134c11.281,0,22.125,1.134,22.125,1.134"
   id="path43" />
<g
   id="g45">
	<path
   fill="#DCC392"
   stroke="#000000"
   stroke-width="0.5669"
   d="M34.248,44.198c0.401,0,0.726-0.325,0.726-0.727v-4.675   c0-0.4-0.324-0.726-0.726-0.726s-0.726,0.325-0.726,0.726v4.675C33.522,43.873,33.847,44.198,34.248,44.198z"
   id="path47" />
	<path
   fill="#DCC392"
   stroke="#000000"
   stroke-width="0.5669"
   d="M42.546,44.585c0.373,0.018,0.704-0.255,0.754-0.632   c0.013-0.103,0.314-2.493-0.081-4.756c-0.066-0.395-0.443-0.661-0.839-0.591c-0.396,0.068-0.659,0.444-0.59,0.839   c0.355,2.049,0.071,4.299,0.068,4.32c-0.051,0.398,0.229,0.762,0.627,0.813C42.506,44.582,42.525,44.584,42.546,44.585z"
   id="path49" />
	<path
   fill="#DCC392"
   stroke="#000000"
   stroke-width="0.5669"
   d="M50.742,45.282c0.368,0,0.683-0.277,0.722-0.65   c0.011-0.109,0.264-2.687-0.631-4.879c-0.151-0.371-0.572-0.552-0.946-0.397c-0.372,0.151-0.55,0.575-0.398,0.946   c0.755,1.85,0.533,4.158,0.53,4.181c-0.04,0.399,0.25,0.756,0.649,0.797C50.692,45.281,50.718,45.282,50.742,45.282z"
   id="path51" />
	<path
   fill="#DCC392"
   stroke="#000000"
   stroke-width="0.5669"
   d="M25.279,44.198c-0.401,0-0.726-0.325-0.726-0.727v-4.675   c0-0.4,0.325-0.726,0.726-0.726c0.401,0,0.726,0.325,0.726,0.726v4.675C26.005,43.873,25.681,44.198,25.279,44.198z"
   id="path53" />
	<path
   fill="#DCC392"
   stroke="#000000"
   stroke-width="0.5669"
   d="M16.953,44.585c-0.374,0.014-0.703-0.262-0.748-0.64   c-0.012-0.102-0.29-2.495,0.126-4.754c0.072-0.395,0.45-0.657,0.845-0.583c0.395,0.071,0.655,0.451,0.583,0.845   c-0.376,2.045-0.114,4.298-0.111,4.319c0.047,0.399-0.237,0.76-0.636,0.807C16.992,44.582,16.973,44.584,16.953,44.585z"
   id="path55" />
	<path
   fill="#DCC392"
   stroke="#000000"
   stroke-width="0.5669"
   d="M8.785,45.282c-0.368,0-0.683-0.277-0.721-0.65   c-0.011-0.109-0.264-2.687,0.63-4.879c0.151-0.371,0.573-0.552,0.947-0.397c0.372,0.151,0.549,0.575,0.398,0.946   c-0.755,1.85-0.533,4.158-0.53,4.181c0.04,0.399-0.25,0.756-0.649,0.797C8.834,45.281,8.81,45.282,8.785,45.282z"
   id="path57" />
</g>
</svg>