<?xml version="1.0" encoding="UTF-8" standalone="no"?>
<svg
   xmlns:dc="http://purl.org/dc/elements/1.1/"
   xmlns:cc="http://creativecommons.org/ns#"
   xmlns:rdf="http://www.w3.org/1999/02/22-rdf-syntax-ns#"
   xmlns:svg="http://www.w3.org/2000/svg"
   xmlns="http://www.w3.org/2000/svg"
   xmlns:sodipodi="http://sodipodi.sourceforge.net/DTD/sodipodi-0.dtd"
   xmlns:inkscape="http://www.inkscape.org/namespaces/inkscape"
   version="1.1"
   id="Layer_1"
   x="0px"
   y="0px"
   width="113.386px"
   height="45.354px"
   viewBox="0 0 113.386 45.354"
   enable-background="new 0 0 113.386 45.354"
   xml:space="preserve"
   inkscape:version="0.48.1 "
   sodipodi:docname="roger-rabbit.svg"
   inkscape:export-filename="D:\Bricks\Decals\designs\roger-rabbit\roger-rabbit.png"
   inkscape:export-xdpi="600"
   inkscape:export-ydpi="600"><metadata
   id="metadata97"><rdf:RDF><cc:Work
       rdf:about=""><dc:format>image/svg+xml</dc:format><dc:type
         rdf:resource="http://purl.org/dc/dcmitype/StillImage" /></cc:Work></rdf:RDF></metadata><defs
   id="defs95" /><sodipodi:namedview
   pagecolor="#ffffff"
   bordercolor="#666666"
   borderopacity="1"
   objecttolerance="10"
   gridtolerance="10"
   guidetolerance="10"
   inkscape:pageopacity="0"
   inkscape:pageshadow="2"
   inkscape:window-width="1280"
   inkscape:window-height="1002"
   id="namedview93"
   showgrid="false"
   inkscape:zoom="4.3719599"
   inkscape:cx="36.9202"
   inkscape:cy="-3.0602389"
   inkscape:window-x="1358"
   inkscape:window-y="-8"
   inkscape:window-maximized="1"
   inkscape:current-layer="layer4" />
<g
   id="g3"
   style="display:inline">
	
	
	
</g><g
   inkscape:groupmode="layer"
   id="layer4"
   inkscape:label="torso front"
   style="display:inline"><path
     id="torso_template"
     connector-curvature="0"
     d="M 2.1562493,44.131745 C 10.88825,-3.1622543 7.4982493,1.4527457 16.42325,1.2747457 h 23.443 c 8.929,0.177 5.537,-4.438 14.269,42.8559993 H 2.1562493 z"
     inkscape:connector-curvature="0"
     style="fill:#eff0ef;stroke:#231f20;stroke-width:0.3125;display:inline" /><g
     transform="translate(-0.04375069,-2.543e-4)"
     style="display:inline"
     id="g6"><g
       id="g8"><path
         d="m 52.439,43.699 c 0,0 -0.749,-2.946 -2.25,-6.104 -1.902,-4.001 -4.232,-9.088 -5.027,-11.598 -1.292,-4.078 -2.337,-8.727 -2.337,-8.727 0,0 0.021,-0.396 -0.445,-1.038 -0.226,-0.312 -1.388,-0.347 -1.388,-0.347 0,0 -1.794,-0.375 -4.676,-0.109 -1.63,0.15 -3.442,2.151 -8.065,2.085 -4.191,-0.06 -6.11,-1.707 -8.677,-2.339 -2.251,-0.555 -4.199,0.347 -4.199,0.347 0,0 -0.871,0.107 -1.215,0.518 -0.408,0.526 -0.437,0.684 -0.437,0.684 0,0 -1.332,5.768 -2.575,9.394 -0.826,2.408 -2.934,7.289 -4.796,11.167 -1.5,3.128 -2.412,6.067 -2.412,6.067"
         id="path10"
         style="fill:#ed1d23;fill-opacity:1"
         inkscape:connector-curvature="0" /><path
         d="m 52.271,43.742 c -0.572,-2.264 -1.432,-4.459 -2.492,-6.545 -1.019,-2.119 -1.998,-4.257 -2.93,-6.418 -0.938,-2.15 -1.82,-4.361 -2.422,-6.637 -0.658,-2.261 -1.258,-4.534 -1.796,-6.827 l -0.003,-0.014 -10e-4,-0.042 c -0.004,-0.13 -0.079,-0.348 -0.167,-0.515 -0.046,-0.088 -0.098,-0.175 -0.154,-0.26 -0.052,-0.082 -0.133,-0.191 -0.15,-0.174 -0.295,-0.15 -0.768,-0.192 -1.167,-0.213 l -0.017,-0.001 -0.021,-0.003 c -1.05,-0.181 -2.158,-0.214 -3.243,-0.183 -0.536,0.023 -1.11,0.045 -1.611,0.123 -0.495,0.102 -0.989,0.349 -1.49,0.569 -1.997,0.964 -4.253,1.471 -6.469,1.354 -1.106,-0.022 -2.215,-0.167 -3.288,-0.451 -1.074,-0.281 -2.103,-0.703 -3.119,-1.122 -1.014,-0.41 -2.05,-0.817 -3.128,-0.906 -1.076,-0.087 -2.188,0.087 -3.178,0.495 l 0,0 -0.014,0.006 -0.021,0.003 c -0.297,0.048 -0.606,0.133 -0.863,0.276 -0.256,0.124 -0.404,0.403 -0.577,0.662 -0.149,0.21 -0.157,0.579 -0.247,0.875 l -0.216,0.933 c -0.292,1.242 -0.596,2.481 -0.919,3.717 -0.325,1.235 -0.665,2.467 -1.054,3.689 -0.394,1.224 -0.875,2.41 -1.364,3.59 -0.983,2.358 -2.028,4.688 -3.119,6.996 -1.142,2.28 -2.093,4.633 -2.923,7.032 L 3.775,43.647 c 0.735,-2.455 1.75,-4.821 2.859,-7.115 1.075,-2.308 2.104,-4.639 3.071,-6.993 0.983,-2.35 1.796,-4.741 2.482,-7.199 0.35,-1.224 0.681,-2.454 0.999,-3.687 l 0.235,-0.926 0.116,-0.463 c 0.025,-0.136 0.083,-0.35 0.184,-0.483 0.089,-0.14 0.188,-0.277 0.285,-0.4 0.099,-0.142 0.255,-0.262 0.403,-0.339 0.306,-0.16 0.624,-0.237 0.955,-0.284 l -0.034,0.01 0,0 c 1.045,-0.429 2.173,-0.602 3.292,-0.512 1.129,0.092 2.172,0.521 3.188,0.938 1.016,0.427 2.027,0.858 3.088,1.129 1.058,0.278 2.149,0.419 3.244,0.44 1.093,0.008 2.189,-0.102 3.244,-0.365 1.06,-0.259 2.054,-0.695 3.038,-1.187 0.499,-0.235 1.002,-0.482 1.589,-0.608 0.587,-0.091 1.117,-0.105 1.681,-0.127 1.115,-0.026 2.221,0.007 3.342,0.206 l -0.037,-0.004 c 0.23,0.01 0.448,0.031 0.674,0.067 0.226,0.041 0.447,0.077 0.695,0.212 0.185,0.116 0.209,0.211 0.28,0.304 0.063,0.097 0.121,0.197 0.174,0.302 0.101,0.22 0.195,0.415 0.205,0.722 L 43.022,17.23 c 0.516,2.286 1.082,4.567 1.727,6.822 0.619,2.268 1.501,4.426 2.457,6.576 0.948,2.146 1.947,4.271 2.937,6.401 0.998,2.139 1.802,4.361 2.467,6.631 l -0.339,0.082 z"
         id="path12"
         inkscape:connector-curvature="0" /></g><g
       id="g14"><path
         d="m 15.186,1.68 c 0,0 -0.513,6.771 -0.564,9.032 -0.051,2.265 0.121,6.892 1.058,9 0.412,0.927 1.701,2.319 3.209,2.319 1.698,0 3.004,-1.855 3.075,-2.911 C 22.122,16.75 20.142,13.412 19.438,9.961 18.851,7.085 19.034,1.669 19.034,1.669"
         id="path16"
         style="fill:#ed1d23;fill-opacity:1"
         inkscape:connector-curvature="0" /><path
         d="m 15.186,1.68 c -0.01,1.869 -0.105,3.73 -0.228,5.59 -0.129,1.859 -0.295,3.715 -0.189,5.574 0.083,1.854 0.231,3.721 0.661,5.512 0.11,0.442 0.249,0.89 0.428,1.287 0.193,0.406 0.464,0.756 0.776,1.08 0.647,0.616 1.477,1.026 2.303,1.056 0.849,0.018 1.663,-0.513 2.205,-1.214 0.273,-0.35 0.507,-0.747 0.615,-1.169 0.094,-0.4 0.055,-0.891 -0.006,-1.328 -0.296,-1.809 -1.087,-3.526 -1.675,-5.296 -0.302,-0.885 -0.577,-1.784 -0.785,-2.703 -0.196,-0.926 -0.295,-1.862 -0.33,-2.798 -0.07,-1.87 -0.057,-3.738 0.072,-5.601 0.033,1.865 0.066,3.729 0.233,5.581 0.095,0.923 0.167,1.849 0.35,2.75 0.175,0.906 0.45,1.793 0.753,2.67 0.586,1.761 1.384,3.467 1.699,5.351 0.061,0.481 0.113,0.939 10e-4,1.453 -0.127,0.481 -0.352,0.918 -0.64,1.31 -0.569,0.764 -1.428,1.434 -2.475,1.497 -1.068,0.064 -1.972,-0.572 -2.61,-1.275 -0.33,-0.351 -0.628,-0.754 -0.828,-1.195 -0.198,-0.456 -0.325,-0.907 -0.434,-1.369 -0.41,-1.846 -0.523,-3.72 -0.578,-5.588 C 14.447,9.106 14.678,5.381 15.186,1.68 z"
         id="path18"
         inkscape:connector-curvature="0" /></g><g
       id="g20"><path
         d="m 37.323,1.678 c 0,0 -0.453,5.097 -0.889,8.354 -0.553,4.131 -1.528,6.35 -1.871,8.523 -0.164,1.042 -0.188,3.015 2.11,3.447 3.16,0.596 3.921,-1.18 4.241,-2.349 0.581,-2.127 0.813,-4.426 0.849,-8.778 0.018,-2.307 -0.701,-9.22 -0.701,-9.22"
         id="path22"
         style="fill:#ed1d23;fill-opacity:1"
         inkscape:connector-curvature="0" /><path
         d="m 37.323,1.678 c -0.149,3.774 -0.375,7.556 -1.218,11.269 -0.401,1.851 -0.991,3.665 -1.321,5.494 -0.15,0.891 -0.099,1.87 0.451,2.519 0.542,0.657 1.488,0.813 2.377,0.885 0.889,0.067 1.809,-0.141 2.382,-0.805 0.587,-0.648 0.781,-1.6 0.984,-2.505 0.382,-1.829 0.5,-3.712 0.547,-5.592 0.007,-0.938 0.03,-1.89 -0.014,-2.816 L 41.323,7.313 C 41.192,5.434 41.066,3.552 41.062,1.655 c 0.378,1.859 0.605,3.735 0.768,5.619 0.085,0.941 0.133,1.886 0.159,2.836 0.019,0.96 -0.028,1.896 -0.061,2.844 -0.071,1.889 -0.165,3.792 -0.557,5.663 -0.22,0.909 -0.362,1.911 -1.032,2.72 -0.665,0.824 -1.784,1.097 -2.752,1.046 -0.499,-0.018 -0.974,-0.084 -1.464,-0.243 -0.484,-0.156 -0.95,-0.451 -1.273,-0.871 -0.656,-0.865 -0.635,-1.967 -0.457,-2.896 0.354,-1.886 1.021,-3.651 1.369,-5.501 0.393,-1.838 0.539,-3.714 0.788,-5.584 0.24,-1.87 0.494,-3.741 0.773,-5.61 z"
         id="path24"
         inkscape:connector-curvature="0" /></g><g
       id="g26"><ellipse
         d="m 20.216,18.708 c 0,1.171396 -0.726641,2.121 -1.623,2.121 -0.896358,0 -1.623,-0.949604 -1.623,-2.121 0,-1.171396 0.726642,-2.121 1.623,-2.121 0.896359,0 1.623,0.949604 1.623,2.121 z"
         transform="matrix(0.9421,-0.3354,0.3354,0.9421,-5.1982,7.3206)"
         cx="18.593"
         cy="18.708"
         rx="1.623"
         ry="2.1210001"
         id="ellipse28"
         style="fill:#ffcf00;fill-opacity:1"
         sodipodi:cx="18.593"
         sodipodi:cy="18.708"
         sodipodi:rx="1.623"
         sodipodi:ry="2.1210001" /><path
         d="m 20.241,18.125 c 0.169,0.469 0.251,1.014 0.144,1.537 -0.096,0.519 -0.45,1.053 -1.008,1.247 -0.556,0.204 -1.165,0.014 -1.579,-0.315 -0.443,-0.325 -0.678,-0.817 -0.845,-1.305 -0.159,-0.469 -0.27,-1.01 -0.14,-1.529 0.112,-0.512 0.456,-1.034 1.004,-1.228 0.548,-0.204 1.147,-0.011 1.554,0.318 0.42,0.328 0.707,0.788 0.87,1.275 z m -0.238,0.079 c -0.311,-0.869 -1.23,-1.593 -2.059,-1.316 -0.818,0.308 -1.069,1.45 -0.77,2.331 0.361,0.834 1.247,1.56 2.059,1.288 0.788,-0.296 1.094,-1.42 0.77,-2.303 z"
         id="path30"
         inkscape:connector-curvature="0" /></g><g
       id="g32"><ellipse
         d="m 39.402999,18.881001 c 0,1.065909 -0.727089,1.929999 -1.624,1.929999 -0.89691,0 -1.624,-0.86409 -1.624,-1.929999 0,-1.06591 0.72709,-1.93 1.624,-1.93 0.896911,0 1.624,0.86409 1.624,1.93 z"
         transform="matrix(0.9441,0.3296,-0.3296,0.9441,8.3352,-11.3978)"
         cx="37.778999"
         cy="18.881001"
         rx="1.624"
         ry="1.9299999"
         id="ellipse34"
         style="fill:#ffcf00;fill-opacity:1"
         sodipodi:cx="37.778999"
         sodipodi:cy="18.881001"
         sodipodi:rx="1.624"
         sodipodi:ry="1.9299999" /><path
         d="m 39.428,19.462 c -0.153,0.45 -0.439,0.896 -0.854,1.194 -0.406,0.304 -0.989,0.435 -1.502,0.248 -0.521,-0.172 -0.893,-0.635 -1.038,-1.124 -0.172,-0.497 -0.062,-1.021 0.101,-1.473 0.158,-0.453 0.402,-0.93 0.844,-1.208 0.417,-0.288 0.993,-0.414 1.5,-0.226 0.513,0.174 0.875,0.634 1.014,1.117 0.146,0.487 0.109,1.007 -0.063,1.466 l -0.002,0.006 z m -0.234,-0.087 c 0.29,-0.831 -0.056,-1.871 -0.843,-2.132 -0.785,-0.263 -1.66,0.333 -1.996,1.141 -0.233,0.844 0.091,1.846 0.857,2.118 0.754,0.262 1.692,-0.279 1.983,-1.132 l -10e-4,0.005 z"
         id="path36"
         inkscape:connector-curvature="0" /></g><g
       id="g38"><path
         d="m 13.434,39.07 c 2.38,0.931 4.909,1.359 7.43,1.64 1.262,0.134 2.525,0.327 3.799,0.369 1.273,0.033 2.548,-0.005 3.819,-0.096 2.542,-0.061 5.083,-0.297 7.594,-0.728 2.508,-0.438 4.991,-1.045 7.401,-1.89 -2.344,1.028 -4.845,1.657 -7.353,2.153 -2.514,0.483 -5.066,0.778 -7.628,0.887 -1.282,-0.007 -2.563,-0.042 -3.841,-0.1 -1.277,-0.052 -2.564,-0.031 -3.838,-0.203 -2.529,-0.358 -5.094,-0.862 -7.383,-2.032 z"
         id="path40"
         inkscape:connector-curvature="0" /></g></g><g
     transform="translate(-0.04375069,-2.543e-4)"
     style="display:inline"
     id="g42"><g
       id="fill"><path
         d="M 35.243,3.325 C 33.53,0.091 28.801,6.158 28.801,6.158 L 27.748,6.17 c 0,0 -5.285,-5.955 -6.696,-2.685 -1.029,2.385 3.136,4.293 3.136,4.293 0,0 -2.727,0.983 -1.314,3.05 1.391,2.037 4.723,-0.967 4.723,-0.967 l 1.695,-0.02 c 0,0 3.606,2.925 4.808,0.859 1.22,-2.098 -1.595,-3.018 -1.595,-3.018 0,0 3.987,-1.998 2.738,-4.357 z"
         id="path45"
         inkscape:connector-curvature="0"
         style="fill:#0f8bc8" /><path
         d="M 35.136,3.384 C 34.849,2.777 34.245,2.388 33.586,2.513 32.939,2.611 32.338,2.97 31.791,3.36 30.698,4.165 29.746,5.169 28.885,6.223 v 0 L 28.855,6.263 28.803,6.264 27.749,6.29 27.697,6.291 27.658,6.25 C 26.853,5.395 26,4.567 25.062,3.859 24.593,3.506 24.102,3.181 23.576,2.937 23.059,2.701 22.466,2.527 21.953,2.709 c -0.511,0.183 -0.816,0.736 -0.915,1.277 -0.092,0.551 0.121,1.112 0.455,1.572 0.675,0.938 1.699,1.601 2.722,2.159 h 0 l 0.14,0.065 -0.145,0.06 c -0.689,0.285 -1.406,0.762 -1.621,1.491 -0.186,0.716 0.249,1.544 0.854,1.929 0.664,0.375 1.498,0.144 2.169,-0.185 0.688,-0.34 1.331,-0.795 1.895,-1.312 h 0 l 0.038,-0.034 0.049,0 1.695,-0.022 0.046,0 0.04,0.031 c 0.613,0.474 1.284,0.899 1.991,1.211 0.689,0.295 1.524,0.532 2.153,0.159 0.569,-0.385 0.935,-1.253 0.665,-1.924 C 33.903,8.498 33.18,8.046 32.48,7.76 l 0,0 -0.176,-0.058 0.165,-0.09 c 0.822,-0.45 1.606,-1.015 2.21,-1.726 0.296,-0.357 0.544,-0.762 0.642,-1.204 0.109,-0.44 0.027,-0.9 -0.185,-1.298 z m 0.215,-0.118 c 0.231,0.443 0.318,0.98 0.188,1.468 -0.117,0.49 -0.391,0.916 -0.705,1.284 -0.644,0.733 -1.442,1.288 -2.293,1.738 L 32.53,7.608 h 0 c 0.75,0.262 1.523,0.689 1.879,1.486 0.17,0.396 0.152,0.857 0.008,1.25 -0.145,0.386 -0.362,0.777 -0.751,1.006 -0.8,0.451 -1.692,0.152 -2.409,-0.148 -0.739,-0.329 -1.414,-0.76 -2.05,-1.255 l 0.086,0.03 -1.695,0.017 0.087,-0.034 -10e-4,0 c -0.62,0.5 -1.271,0.949 -1.994,1.281 -0.701,0.308 -1.574,0.58 -2.325,0.156 C 22.998,11.192 22.764,10.835 22.587,10.484 22.417,10.122 22.334,9.693 22.45,9.293 22.7,8.485 23.447,8.011 24.166,7.714 L 24.16,7.839 h 0 C 23.076,7.342 22.043,6.675 21.288,5.705 20.931,5.216 20.682,4.582 20.788,3.946 20.897,3.35 21.231,2.703 21.867,2.469 22.5,2.251 23.141,2.462 23.683,2.704 c 0.552,0.256 1.055,0.59 1.533,0.95 0.951,0.729 1.825,1.543 2.622,2.436 l -0.091,-0.04 1.053,0.003 -0.082,0.041 0,0 c 0.87,-1.075 1.821,-2.086 2.938,-2.918 0.562,-0.402 1.176,-0.782 1.896,-0.897 0.356,-0.054 0.749,-0.007 1.073,0.185 0.325,0.185 0.562,0.498 0.726,0.802 z"
         id="path47"
         inkscape:connector-curvature="0" /></g><path
       stroke-miterlimit="10"
       d="M 26.427,6.144 C 25.334,6.156 24.405,5.283 24.355,4.198 24.344,3.955 24.381,3.713 24.467,3.476 c 1.18,0.779 2.294,1.885 2.83,2.446 -0.272,0.142 -0.569,0.219 -0.87,0.222 z m 6.647,5.123 c 0.05,-0.119 0.084,-0.244 0.101,-0.374 0.04,-0.308 -0.012,-0.61 -0.147,-0.853 C 32.898,9.811 32.71,9.664 32.497,9.629 32.46,9.623 32.424,9.62 32.389,9.621 c -0.421,0.005 -0.795,0.433 -0.869,0.996 -0.018,0.132 -0.016,0.268 0.004,0.405 0.472,0.187 0.889,0.279 1.242,0.275 0.107,-0.001 0.212,-0.011 0.308,-0.03 z m -9.19,-4.358 c -0.04,-0.87 -0.78,-1.569 -1.648,-1.56 -0.271,0.003 -0.53,0.075 -0.758,0.209 0.264,0.367 0.634,0.734 1.103,1.093 0.463,0.355 0.93,0.63 1.23,0.793 0.057,-0.175 0.082,-0.355 0.073,-0.535 z M 35.087,3.387 C 34.881,3 34.621,2.749 34.382,2.623 c -0.67,0.207 -1.099,0.818 -1.067,1.521 0.037,0.793 0.649,1.443 1.436,1.539 0.606,-0.799 0.72,-1.57 0.336,-2.296 z m -4.956,6.21 C 30.773,9.59 31.373,9.025 31.557,8.254 31.776,7.336 31.356,6.425 30.621,6.225 c -0.1,-0.027 -0.203,-0.04 -0.306,-0.039 -0.642,0.007 -1.242,0.573 -1.426,1.343 -0.107,0.451 -0.066,0.912 0.116,1.298 0.177,0.376 0.469,0.636 0.819,0.73 0.102,0.028 0.204,0.042 0.307,0.04 l 0,0 z m -3.9,1.134 c 0.562,-0.351 1.38,-1.005 1.342,-1.056 -0.297,-0.397 -0.782,-0.678 -1.344,-0.719 -0.948,-0.07 -1.745,0.562 -1.777,1.41 -0.013,0.348 0.127,0.713 0.324,0.976 0.022,0.03 0.891,-0.259 1.455,-0.611 z"
       id="path49"
       style="fill:#ffcf00;fill-opacity:1;stroke:#e5a739;stroke-width:0.1;stroke-miterlimit:10"
       inkscape:connector-curvature="0" /><g
       id="g51"><path
         d="m 25.882,7.56 c 0.859,0.017 1.7,0.205 2.507,0.26 0.372,0.03 0.806,-0.051 1.22,-0.083 C 30.029,7.7 30.452,7.66 30.884,7.66 30.488,7.834 30.079,7.955 29.664,8.061 29.243,8.157 28.839,8.244 28.362,8.243 27.483,8.13 26.673,7.916 25.882,7.56 z"
         id="path53"
         inkscape:connector-curvature="0" /></g><path
       stroke-miterlimit="10"
       d="M 28.785,5.883 C 28.627,5.891 28.492,6.013 28.382,6.21 28.232,5.99 28.061,5.866 27.888,5.874 27.43,5.895 27.136,6.842 27.23,7.989 c 0.093,1.146 0.54,2.057 0.997,2.037 0.157,-0.008 0.293,-0.13 0.403,-0.327 0.151,0.219 0.321,0.343 0.493,0.335 0.458,-0.022 0.594,-0.957 0.5,-2.102 C 29.53,6.786 29.242,5.861 28.785,5.883 z"
       id="path55"
       inkscape:connector-curvature="0"
       style="fill:#0f8bc8;stroke:#000000;stroke-width:0.28349999;stroke-miterlimit:10" /><path
       stroke-miterlimit="10"
       d="M 28.555,7.969 C 28.111,7.974 27.678,7.816 27.356,7.533 27.364,6.609 27.641,6.027 27.9,6.015 l 0,0 c 0.118,-10e-4 0.245,0.095 0.366,0.271 l 0.131,0.192 0.11,-0.197 c 0.063,-0.114 0.165,-0.251 0.29,-0.257 0.244,-0.003 0.536,0.517 0.661,1.682 -0.266,0.169 -0.577,0.26 -0.903,0.263 z"
       id="path57"
       style="fill:#ffcf00;fill-opacity:1;stroke:#e5a739;stroke-width:0.1;stroke-miterlimit:10"
       inkscape:connector-curvature="0" /><path
       d="M 35.243,3.325 C 33.53,0.091 29.06,5.935 29.06,5.935 L 27.699,6 c 0,0 -3.893,-3.943 -5.591,-3.492 2.324,0.918 3.871,2.323 5.238,3.809 C 27.463,6.413 27.699,6 27.699,6 l 1.361,-0.065 0.179,0.298 c 0.771,-0.988 3.953,-4.715 5.08,-2.652 0.973,1.781 -0.888,3.101 -2.575,4.336 1.938,0.138 3.181,2.71 0.894,3.099 -0.921,0.156 -2.417,-1.145 -3.089,-1.718 -0.081,-0.069 -0.124,0.44 -0.179,0.396 0,0 -0.48,-0.642 -0.703,-0.641 -0.234,0.002 -0.839,0.739 -0.839,0.739 L 27.363,9.297 27.21,9.435 c -0.47,0.422 -2.753,2.188 -3.764,1.893 0.438,0.51 2.397,0.113 4.151,-1.465 0.419,-0.051 1.696,-0.02 1.696,-0.02 0,0 3.606,2.925 4.808,0.859 1.22,-2.098 -1.595,-3.018 -1.595,-3.018 0,0 3.986,-2 2.737,-4.359 z"
       id="path59"
       inkscape:connector-curvature="0"
       style="opacity:0.25" /></g></g>

<g
   inkscape:groupmode="layer"
   id="layer5"
   inkscape:label="torso back"
   style="display:inline"><g
     transform="translate(0.046751,-2.544e-4)"
     id="g61"><path
       style="fill:#eff0ef;stroke:#231f20;stroke-width:0.3125"
       inkscape:connector-curvature="0"
       id="torso_template_1_"
       connector-curvature="0"
       d="M 59.205,44.132 C 67.936,-3.162 64.546,1.453 73.471,1.275 h 23.443 c 8.929,0.177 5.537,-4.438 14.269,42.856 H 59.205 z" /><g
       id="g64"><path
         inkscape:connector-curvature="0"
         d="m 94.285,1.521 c 0,0 -1.167,2.74 -5.036,6.946 -7.666,8.333 -17.669,9.757 -18.34,16.519 -0.029,0.299 7.771,-0.121 7.771,-0.121 0,0 0.515,-0.617 1.812,-2.119 2.543,-2.944 8.135,-7.13 12.401,-12.243 4.601,-5.513 5.464,-8.866 5.464,-8.866"
         id="path66"
         style="fill:#ed1d23;fill-opacity:1" /><path
         inkscape:connector-curvature="0"
         d="m 94.339,1.544 c -0.751,1.582 -1.76,3.01 -2.818,4.389 -1.075,1.369 -2.212,2.687 -3.46,3.906 -2.489,2.449 -5.4,4.412 -8.351,6.237 -1.472,0.921 -2.96,1.816 -4.361,2.827 -1.386,1.014 -2.727,2.161 -3.549,3.662 -0.408,0.746 -0.665,1.571 -0.752,2.417 -0.003,-0.016 0.001,0.064 -0.006,-0.031 0.002,0.017 0.009,0.009 -0.013,-0.03 -0.064,-0.057 -0.017,-0.017 -0.028,-0.027 l 0.06,0.015 0.149,0.019 0.317,0.021 0.646,0.013 1.299,-0.013 c 1.733,-0.038 3.469,-0.111 5.201,-0.194 h 0.001 l -0.08,0.039 c 0.828,-0.978 1.624,-1.976 2.518,-2.906 0.894,-0.923 1.84,-1.788 2.786,-2.649 1.893,-1.721 3.82,-3.405 5.597,-5.242 1.793,-1.817 3.502,-3.719 5.01,-5.777 1.487,-2.051 2.909,-4.235 3.707,-6.619 l 0.291,0.075 c -0.833,2.48 -2.26,4.642 -3.764,6.717 -1.529,2.063 -3.225,3.999 -5.063,5.785 -1.845,1.78 -3.735,3.505 -5.625,5.229 -0.94,0.865 -1.88,1.732 -2.761,2.652 -0.868,0.926 -1.687,1.917 -2.524,2.878 l -0.033,0.038 -0.047,0.002 v 0.001 c -1.735,0.095 -3.47,0.179 -5.208,0.228 l -1.305,0.021 -0.656,-0.009 -0.332,-0.019 -0.174,-0.021 c -0.03,-0.006 -0.062,-0.013 -0.099,-0.024 -0.036,-0.021 -0.016,0.013 -0.1,-0.063 -0.034,-0.046 -0.035,-0.065 -0.035,-0.063 -0.011,-0.108 -0.002,-0.042 -0.003,-0.071 0.084,-0.881 0.347,-1.748 0.768,-2.529 0.845,-1.577 2.228,-2.747 3.632,-3.764 1.42,-1.017 2.914,-1.908 4.389,-2.823 2.953,-1.813 5.845,-3.755 8.345,-6.157 1.248,-1.196 2.398,-2.503 3.48,-3.854 1.065,-1.361 2.087,-2.78 2.843,-4.332 l 0.108,0.046 z"
         id="path68" /></g><g
       id="g70"><path
         inkscape:connector-curvature="0"
         d="m 76.023,1.521 c 0,0 1.167,2.74 5.036,6.946 5.27,5.729 14.934,10.501 17.522,14.041 0.95,1.298 0.108,3.753 0.108,3.753 0,0 -6.065,0.102 -7.063,-1.396 C 89.616,21.844 83.922,18.302 77.413,10.503 72.812,4.99 71.949,1.637 71.949,1.637"
         id="path72"
         style="fill:#ed1d23;fill-opacity:1" /><path
         inkscape:connector-curvature="0"
         d="m 76.092,1.491 c 1.303,2.593 3.182,4.871 5.145,7.005 1.995,2.115 4.316,3.898 6.687,5.584 2.375,1.687 4.826,3.268 7.182,5.004 1.162,0.884 2.359,1.756 3.313,2.912 0.231,0.28 0.476,0.607 0.594,0.983 0.122,0.371 0.161,0.752 0.161,1.127 -0.013,0.751 -0.173,1.48 -0.427,2.172 l -0.015,0.039 H 98.693 C 97.104,26.331 95.511,26.268 93.937,25.99 93.165,25.824 92.342,25.676 91.695,25.107 91.197,24.44 90.729,23.86 90.16,23.294 87.921,21.068 85.446,19.061 83.17,16.846 80.873,14.651 78.702,12.322 76.705,9.848 75.71,8.606 74.773,7.318 73.931,5.966 73.1,4.607 72.318,3.215 71.827,1.668 l 0.254,-0.065 c 0.472,1.48 1.255,2.883 2.079,4.221 0.837,1.339 1.771,2.619 2.762,3.851 1.995,2.457 4.154,4.781 6.438,6.975 2.265,2.217 4.731,4.211 6.979,6.473 0.551,0.558 1.074,1.224 1.512,1.833 0.551,0.505 1.369,0.689 2.123,0.855 1.548,0.297 3.139,0.383 4.719,0.392 l -0.054,0.039 c 0.182,-0.697 0.286,-1.422 0.26,-2.13 -0.02,-0.724 -0.246,-1.367 -0.767,-1.871 -0.965,-1.05 -2.1,-1.968 -3.262,-2.837 -2.336,-1.731 -4.773,-3.34 -7.123,-5.076 C 85.402,12.593 83.079,10.792 81.079,8.645 79.122,6.481 77.259,4.192 75.958,1.551 l 0.134,-0.06 z"
         id="path74" /></g><g
       id="g76"><path
         inkscape:connector-curvature="0"
         d="m 109.415,43.698 c 0,0 -0.748,-2.271 -2.25,-4.705 -1.901,-3.084 -3.382,-7.004 -4.177,-8.938 -1.292,-3.144 -3.165,-6.463 -3.632,-6.958 -0.226,-0.24 -1.389,-0.268 -1.389,-0.268 0,0 -1.793,-0.289 -4.676,-0.084 -1.63,0.115 -3.441,0.383 -8.064,0.333 -4.191,-0.047 -6.109,-0.041 -8.677,-0.529 -2.251,-0.427 -4.313,-0.288 -5.415,0.667 -0.408,0.406 -2.476,4.405 -3.72,7.201 -0.826,1.856 -2.226,5.618 -4.087,8.606 -1.5,2.41 -2.412,4.676 -2.412,4.676"
         id="path78"
         style="fill:#ed1c24;fill-opacity:1" /><path
         inkscape:connector-curvature="0"
         d="m 109.249,43.753 c -0.306,-0.954 -0.723,-1.884 -1.166,-2.79 -0.441,-0.916 -1.024,-1.729 -1.539,-2.622 -1.029,-1.771 -1.86,-3.641 -2.639,-5.522 -0.773,-1.89 -1.479,-3.786 -2.389,-5.6 -0.454,-0.906 -0.932,-1.802 -1.441,-2.675 C 99.82,24.113 99.557,23.666 99.265,23.289 99.254,23.273 99.213,23.233 99.23,23.245 99.207,23.228 99.172,23.197 99.167,23.203 99.159,23.2 99.091,23.17 99.043,23.159 98.937,23.128 98.818,23.106 98.697,23.09 98.458,23.057 98.205,23.039 97.962,23.033 h -0.009 l -0.019,-0.002 c -2.037,-0.251 -4.117,-0.141 -6.186,0.07 -2.086,0.174 -4.182,0.131 -6.265,0.092 -2.084,-0.053 -4.168,0.014 -6.26,-0.125 -1.045,-0.054 -2.09,-0.23 -3.105,-0.447 -1.007,-0.192 -2.059,-0.258 -3.065,-0.079 -0.501,0.092 -0.993,0.243 -1.421,0.497 -0.212,0.14 -0.42,0.263 -0.53,0.468 -0.137,0.212 -0.266,0.438 -0.392,0.663 -0.501,0.907 -0.961,1.841 -1.416,2.776 -0.903,1.878 -1.762,3.757 -2.559,5.685 -0.814,1.92 -1.671,3.834 -2.715,5.656 -1.118,1.774 -2.101,3.584 -2.943,5.479 l -0.324,-0.131 c 0.754,-1.958 1.814,-3.796 2.889,-5.563 1.018,-1.803 1.854,-3.706 2.654,-5.625 0.768,-1.936 1.66,-3.842 2.635,-5.683 0.482,-0.927 0.978,-1.845 1.503,-2.751 0.133,-0.227 0.268,-0.451 0.418,-0.673 0.151,-0.256 0.415,-0.409 0.637,-0.546 0.475,-0.269 0.999,-0.414 1.522,-0.5 1.055,-0.154 2.11,-0.085 3.157,0.044 1.032,0.168 2.048,0.318 3.081,0.42 2.065,0.177 4.154,0.201 6.235,0.212 2.083,-0.004 4.159,-0.131 6.226,-0.319 2.072,-0.192 4.185,-0.307 6.288,-0.022 l -0.027,-0.002 c 0.265,0.01 0.521,0.031 0.783,0.07 0.132,0.02 0.264,0.045 0.4,0.086 0.074,0.024 0.127,0.037 0.229,0.096 0.055,0.031 0.065,0.046 0.093,0.067 0.059,0.059 0.061,0.065 0.089,0.1 0.325,0.433 0.57,0.87 0.828,1.315 0.505,0.889 0.972,1.796 1.42,2.712 0.933,1.815 1.665,3.73 2.447,5.597 0.792,1.868 1.643,3.711 2.631,5.473 1.04,1.739 1.971,3.581 2.688,5.503 l -0.33,0.107 z"
         id="path80" /></g><g
       id="g82"><path
         style="fill:#0f8bc8"
         inkscape:connector-curvature="0"
         d="m 93.013,39.394 c 0,0.568 -0.424,1.029 -0.947,1.029 0,0 -5.137,0.771 -6.854,0.771 -1.687,10e-4 -6.728,-0.771 -6.728,-0.771 -0.524,0 -0.948,-0.461 -0.948,-1.029 0,0 -0.228,-2.38 -0.236,-3.177 -0.01,-0.86 0.119,-2.228 0.188,-3.433 0.088,-1.474 0.048,-2.828 0.048,-2.828 0,-0.568 0.424,-1.029 0.948,-1.029 0,0 5.045,0.257 6.728,0.257 1.714,0 6.854,-0.257 6.854,-0.257 0.523,0 0.947,0.461 0.947,1.029 0,0 0.054,0.939 -0.008,1.992 -0.055,0.939 -0.228,3.254 -0.229,3.785 -0.003,1.239 0.237,3.661 0.237,3.661 z"
         id="path84" /><path
         inkscape:connector-curvature="0"
         d="m 93.185,39.401 c -0.001,0.117 -0.03,0.302 -0.083,0.43 -0.054,0.14 -0.132,0.27 -0.232,0.381 -0.199,0.224 -0.499,0.366 -0.804,0.359 l 0.021,-10e-4 -3.396,0.422 c -1.134,0.145 -2.257,0.32 -3.415,0.374 -1.167,0.017 -2.297,-0.121 -3.432,-0.266 -1.133,-0.145 -2.262,-0.306 -3.391,-0.478 l 0.03,0.002 c -0.667,0.007 -1.167,-0.625 -1.147,-1.231 l 0.001,0.019 c -0.109,-1.473 -0.326,-2.969 -0.178,-4.47 0.113,-1.485 0.252,-2.953 0.246,-4.434 0.016,-0.35 -0.07,-0.775 0.16,-1.151 0.195,-0.364 0.642,-0.599 1.043,-0.538 l 2.222,0.122 c 1.48,0.078 2.967,0.117 4.443,0.118 1.478,-0.03 2.961,-0.114 4.441,-0.19 l 2.221,-0.126 c 0.414,-0.065 0.909,0.199 1.102,0.584 0.109,0.19 0.16,0.409 0.163,0.625 l 0.018,0.553 c 0.025,1.505 -0.155,2.979 -0.227,4.458 -0.101,1.456 0.075,2.942 0.192,4.414 v 0.01 0.014 z M 92.84,39.392 c -0.123,-1.475 -0.31,-2.946 -0.211,-4.45 0.068,-1.484 0.246,-2.964 0.214,-4.43 L 92.824,29.953 C 92.82,29.799 92.785,29.644 92.708,29.514 92.549,29.243 92.287,29.087 91.955,29.122 l -2.225,0.081 c -1.484,0.047 -2.966,0.102 -4.455,0.104 -1.491,-0.02 -2.969,-0.127 -4.453,-0.172 l -2.225,-0.089 c -0.344,-0.04 -0.655,0.146 -0.812,0.436 -0.176,0.284 -0.1,0.647 -0.104,1.026 0.038,1.488 -0.071,2.982 -0.155,4.456 -0.117,1.465 0.085,2.932 0.207,4.411 l 10e-4,0.013 v 0.006 c -0.01,0.43 0.339,0.838 0.749,0.827 h 0.013 l 0.018,0.002 c 1.125,0.168 2.254,0.323 3.382,0.463 1.128,0.12 2.263,0.29 3.376,0.335 2.255,-0.032 4.53,-0.379 6.771,-0.744 l 0.01,-0.002 h 0.013 c 0.217,-0.003 0.423,-0.108 0.563,-0.275 0.07,-0.082 0.125,-0.179 0.161,-0.282 0.034,-0.114 0.049,-0.19 0.05,-0.326 z"
         id="path86" /></g><g
       id="tail"><ellipse
         d="m 89.432003,35.52 c 0,2.153911 -1.843691,3.900001 -4.118,3.900001 -2.274309,0 -4.118,-1.74609 -4.118,-3.900001 0,-2.15391 1.843691,-3.9 4.118,-3.9 2.274309,0 4.118,1.74609 4.118,3.9 z"
         style="fill:#eff0ef;fill-rule:evenodd"
         sodipodi:ry="3.9000001"
         sodipodi:rx="4.118"
         sodipodi:cy="35.52"
         sodipodi:cx="85.314003"
         clip-rule="evenodd"
         cx="85.314003"
         cy="35.52"
         rx="4.118"
         ry="3.9000001"
         id="ellipse89" /><path
         style="fill-rule:evenodd"
         inkscape:connector-curvature="0"
         clip-rule="evenodd"
         d="m 81.668,33.102 c -0.276,-0.839 0.736,-0.374 1.16,-0.707 0.229,-0.175 0.759,-1.604 1.088,-1.151 0.438,0.603 0.626,0.241 1.113,-0.246 0.251,-0.175 0.551,-0.486 0.691,0.036 0.131,0.483 0.831,0.31 1.307,0.405 0.395,0.079 0.145,0.229 0.182,0.48 0.298,0.238 0.824,0.302 1.172,0.485 0.413,0.218 -0.137,0.236 0.047,0.439 0.171,0.188 0.721,0.43 0.887,0.589 0.615,0.596 -0.048,0.573 0.322,1.065 0.032,0.042 0.149,0.142 0.186,0.2 0.062,0.104 -0.078,0.176 -0.067,0.23 0.072,0.408 0.627,0.813 -0.329,0.758 -0.088,0.381 0.192,0.719 0.238,1.082 0.101,0.813 -0.236,0.127 -0.461,0.321 0.037,0.445 0.139,1.016 -0.407,1.086 -0.689,0.015 -0.268,0.253 -0.595,0.727 -0.078,0.115 -0.87,0.171 -1.119,0.324 -0.173,0.107 -0.258,0.624 -0.464,0.671 -0.245,0.089 -0.844,-0.63 -0.76,-0.036 0.083,0.593 -0.583,0.074 -0.718,-0.03 -0.297,-0.227 -0.677,-0.169 -0.591,0.287 -0.194,0.198 -0.897,-0.728 -1.109,-0.813 -0.11,0.166 -0.1,0.355 -0.295,0.389 -0.205,0.035 -0.756,-0.841 -0.85,-1.016 -0.12,-0.229 -0.116,0.288 -0.48,0.038 -0.208,-0.146 -0.073,-1.507 -0.331,-0.925 -0.067,0.124 -0.154,0.283 -0.296,0.295 -0.468,-0.012 0.075,-1.188 -0.147,-1.771 -0.225,0 -0.421,0.073 -0.592,0.222 -0.355,-0.205 0.383,-1.07 0.406,-1.293 0.032,-0.299 -0.668,-0.079 -0.377,-0.481 0.435,-0.601 1.501,-0.85 1.189,-1.66 -0.046,-0.141 0.006,0.016 0,0 z m 2.254,-0.85 c -0.415,-0.476 -0.54,0.446 -0.643,0.671 -0.233,0.506 -0.842,-0.041 -0.946,0.254 -0.156,0.452 0.592,0.531 -0.169,0.808 -0.637,0.23 -0.688,0.52 -0.311,1.001 0.254,0.321 -0.657,0.454 -0.628,0.775 0.131,0.104 0.231,0.229 0.305,0.378 0.191,0.335 -0.112,0.562 -0.01,0.878 1.219,-0.329 0.156,0.475 0.628,0.924 0.634,-0.474 0.536,0.287 0.701,0.628 0.373,0.372 0.762,-0.191 0.997,0.11 0.284,0.45 0.069,0.605 0.69,0.285 0.521,-0.269 0.543,0.258 1.083,-0.063 0.263,-0.264 0.539,-0.065 0.776,0.11 0.21,-0.176 0.16,-0.383 0.331,-0.554 0.41,-0.066 0.769,0.148 0.92,-0.192 0.085,-0.145 -0.091,-0.341 0.226,-0.657 0.355,-0.355 0.737,0.16 0.542,-0.442 -0.104,-0.32 -0.163,-0.59 0.217,-0.725 0.419,-0.15 0.159,-0.756 -0.02,-1.05 -0.172,-0.395 0.396,-0.333 0.553,-0.406 0,-0.164 -0.613,-1.449 -0.664,-1.485 -0.272,-0.189 -0.611,-0.18 -0.886,-0.361 -0.381,-0.332 0.588,-0.291 -0.456,-0.605 -0.872,-0.262 -1.055,-0.431 -1.872,-0.835 -0.519,-0.258 -0.796,1.211 -1.364,0.553 -0.081,-0.092 0.046,0.054 0,0 z"
         id="path91" /></g></g></g></svg>