<?xml version="1.0" encoding="UTF-8" standalone="no"?>
<!-- Created with Inkscape (http://www.inkscape.org/) -->

<svg
   xmlns:dc="http://purl.org/dc/elements/1.1/"
   xmlns:cc="http://creativecommons.org/ns#"
   xmlns:rdf="http://www.w3.org/1999/02/22-rdf-syntax-ns#"
   xmlns:svg="http://www.w3.org/2000/svg"
   xmlns="http://www.w3.org/2000/svg"
   version="1.1"
   width="57"
   height="18.58"
   viewBox="0 0 57 18.58"
   id="gopher"
   xml:space="preserve"><metadata
   id="metadata179"><rdf:RDF><cc:Work
       rdf:about=""><dc:format>image/svg+xml</dc:format><dc:type
         rdf:resource="http://purl.org/dc/dcmitype/StillImage" /><dc:title></dc:title></cc:Work></rdf:RDF></metadata><defs
   id="defs177" />
<rect
   width="57"
   height="18.58"
   x="0"
   y="0"
   id="rect3"
   style="fill:#606062" />
<g
   id="face-1">
	<g
   id="teeth">
		<g
   id="g7">
			<polygon
   points="13.8,11.31 11.73,11.31 12.29,14.73 13.94,14.87 15.76,14.73 16.04,11.31 13.82,11.31 "
   id="polygon9"
   style="fill:#f0f0ed" />
			<path
   d="m 13.82,11.53 h -2.09 l 0.21,-0.25 0.56,3.42 -0.19,-0.18 c 0.54,0.11 1.09,0.16 1.64,0.21 h -0 c 0.6,-0.1 1.21,-0.1 1.81,-0.21 l -0.19,0.2 0.28,-3.42 0.21,0.23 h -2.22 z m 0,-0.43 h 2.22 c 0.12,0 0.21,0.1 0.21,0.21 l 0,0 -0.28,3.42 0,0 c -0,0.1 -0.1,0.18 -0.2,0.18 -0.61,-0 -1.21,0 -1.82,0.1 h -0 c -0.55,-0 -1.1,-0.1 -1.65,-0.1 -0.1,0 -0.18,-0.1 -0.19,-0.16 l 0,-0 -0.57,-3.42 c -0,-0.12 0.1,-0.23 0.17,-0.25 l 0,0 h 2.09 z"
   id="path11"
   style="fill:#091724" />
		</g>
		<g
   id="g13">
			<path
   d="m 14.1,11.5 -0.15,2.91 c 0,0 -0,0.1 -0.1,0.1 -0,0 -0.1,-0 -0.1,-0.1 L 13.67,11.5 c -0,-0.12 0.1,-0.22 0.2,-0.22 0.12,-0 0.22,0.1 0.23,0.2 0,0 0,0 0,0 z"
   id="path15"
   style="fill:#091724" />
		</g>
	</g>
	<g
   id="g17">
		<g
   id="g19">
			<path
   d="m 17.78,11.57 c -0.31,0.45 -1.06,0.83 -1.66,0.86 -0.6,0 -1.34,-0.1 -1.65,-0.19 -0.3,-0.13 -0.54,-0.9 -0.54,-1.72 0,-0.817 0.56,-1.485 1.24,-1.485 0.69,0 1.69,0.387 2.22,0.859 0.53,0.476 0.71,1.226 0.39,1.676 z"
   id="path21"
   style="fill:#a2a0a2;stroke:#091724;stroke-width:0.5669;stroke-miterlimit:10" />
		</g>
		<g
   id="g23">
			<path
   d="m 9.981,11.57 c 0.309,0.45 1.059,0.83 1.669,0.86 0.6,0 1.34,-0.1 1.64,-0.19 0.3,-0.13 0.55,-0.9 0.55,-1.72 0,-0.817 -0.56,-1.485 -1.25,-1.485 -0.69,0 -1.68,0.387 -2.21,0.859 C 9.847,10.37 9.668,11.12 9.981,11.57 z"
   id="path25"
   style="fill:#a2a0a2;stroke:#091724;stroke-width:0.5669;stroke-miterlimit:10" />
		</g>
	</g>
	<g
   id="nose">
		<path
   d="m 15.57,8.905 c 0,0.265 -0.18,0.577 -0.51,0.693 -0.33,0.117 -0.72,0.492 -0.86,0.832 -0.13,0.34 -0.39,0.35 -0.56,0 C 13.47,10.1 13.06,9.729 12.72,9.607 12.38,9.486 12.18,9.17 12.26,8.905 12.35,8.64 12.77,8.321 13.2,8.194 c 0.43,-0.127 1.12,-0.126 1.53,0 0.41,0.126 0.79,0.446 0.84,0.711 z"
   id="path28"
   style="fill:#091724" />
	</g>
	<g
   transform="translate(110.7,-48.39)"
   id="eyes">
		
			<path
   d="m -94.76,54.35 c 0,0.96 0.78,1.74 1.74,1.74 0.97,0 1.75,-0.78 1.75,-1.74 0,-0.96 -0.78,-1.75 -1.75,-1.75 -0.96,0 -1.74,0.79 -1.74,1.75 z"
   id="path5352-1_2_"
   style="fill:#091724" />
		
			<path
   d="m -93.74,53.71 c 0,0.38 0.26,0.68 0.59,0.68 0.33,0 0.6,-0.3 0.6,-0.67 0,-0 0,-0 0,-0 0,-0.37 -0.26,-0.68 -0.59,-0.68 -0.33,0 -0.6,0.3 -0.6,0.68 0,0 0,0 0,0 z"
   id="path5354-4_2_"
   style="fill:#ffffff" />
		
			<path
   d="m -98.81,54.35 c 0,0.96 -0.78,1.74 -1.79,1.74 -0.9,0 -1.7,-0.78 -1.7,-1.74 0,-0.96 0.8,-1.75 1.7,-1.75 1.01,0 1.79,0.79 1.79,1.75 z"
   id="path5270-2_2_"
   style="fill:#091724" />
		
			<path
   d="m -99.83,53.71 c 0,0.38 -0.27,0.68 -0.57,0.68 -0.4,0 -0.6,-0.3 -0.6,-0.67 0,-0 0,-0 0,-0 0,-0.37 0.2,-0.68 0.6,-0.68 0.3,0 0.57,0.3 0.57,0.68 0,0 0,0 0,0 z"
   id="path5272-2_2_"
   style="fill:#ffffff" />
	</g>
	<g
   id="g35">
		<g
   id="g37">
			<path
   d="m 17.37,9.618 c 0.43,0.198 0.77,0.562 1.02,0.962 0.26,0.39 0.43,0.82 0.66,1.19 0.2,0.39 0.47,0.71 0.82,0.94 0.36,0.24 0.79,0.37 1.24,0.48 -0.46,0.1 -0.95,0 -1.39,-0.19 -0.46,-0.21 -0.8,-0.61 -1.04,-1.02 -0.44,-0.84 -0.66,-1.68 -1.31,-2.362 z"
   id="path39"
   style="fill:#091724" />
		</g>
		<g
   id="g41">
			<path
   d="M 10.39,9.618 C 9.743,10.3 9.529,11.14 9.085,11.98 8.843,12.39 8.501,12.79 8.049,13 c -0.447,0.21 -0.933,0.25 -1.392,0.19 0.447,-0.11 0.88,-0.24 1.232,-0.48 0.354,-0.23 0.627,-0.55 0.827,-0.94 0.232,-0.37 0.4,-0.8 0.659,-1.19 0.252,-0.4 0.589,-0.764 1.015,-0.962 z"
   id="path43"
   style="fill:#091724" />
		</g>
	</g>
	<g
   id="g45">
		<g
   id="g47">
			<path
   d="M 12.07,10.03 C 10.7,9.669 9.333,9.355 7.947,9.104 6.557,8.885 5.14,8.808 3.728,8.905 c -0,0 -0.02,-0 -0.02,-0.01 0,-0 0,-0.01 0.01,-0.01 1.407,-0.179 2.84,-0.169 4.253,0 1.415,0.145 2.822,0.48 4.102,1.121 0,0 0,0 0,0 -0,0 -0,0 -0,0 z"
   id="path49"
   style="fill:#f0f0ed" />
		</g>
		<g
   id="g51">
			<path
   d="m 11.45,11.34 c -0.68,-0 -1.36,-0 -2.031,0 -0.674,0 -1.348,0 -2.023,0.1 -1.347,0.11 -2.688,0.32 -4.008,0.64 -0,0 -0.02,0 -0.02,-0 -0,-0 0,-0 0,-0 1.3,-0.39 2.638,-0.68 3.994,-0.83 1.351,-0.18 2.746,-0.2 4.076,0.11 0,0 0,0 0,0 0,0 0,0 -0,0 z"
   id="path53"
   style="fill:#f0f0ed" />
		</g>
		<g
   id="g55">
			<path
   d="m 11,10.53 c -0.67,-0.1 -1.337,-0.16 -2.007,-0.2 -0.668,-0.1 -1.339,-0.1 -2.011,-0.13 -1.345,-0 -2.695,0.1 -4.039,0.2 -0,0 -0.02,-0 -0.02,-0 -10e-4,0 0,-0 0.01,-0 1.333,-0.23 2.685,-0.375 4.043,-0.393 1.354,-0.04 2.738,0.06 4.028,0.523 0,0 0,0 0,0 0,0 -0,0 -0,0 z"
   id="path57"
   style="fill:#f0f0ed" />
		</g>
		<g
   id="g59">
			<path
   d="m 16.39,10.71 c 1.36,-0.46 2.8,-0.59 4.23,-0.54 1.42,0 2.84,0.22 4.21,0.59 0,0 0,0 0,0 0,0 -0,0 -0,0 -1.38,-0.29 -2.8,-0.41 -4.21,-0.39 -1.4,0 -2.8,0.17 -4.21,0.34 -0,0 -0,-0 -0,-0 -0,-0 0,-0 0,-0 z"
   id="path61"
   style="fill:#f0f0ed" />
		</g>
		<g
   id="g63">
			<path
   d="m 15.69,10.04 c 1.23,-0.605 2.59,-0.892 3.95,-1.019 1.36,-0.152 2.73,-0.175 4.08,-0.08 0,0 0,0 0,0.02 0,0 0,0.01 -0,0.01 -1.36,-0.02 -2.71,0.07 -4.05,0.272 -0.67,0.111 -1.33,0.237 -1.99,0.381 -0.66,0.126 -1.32,0.281 -1.98,0.444 -0,0 -0,0 -0,-0 0,-0 0,-0 0,-0 z"
   id="path65"
   style="fill:#f0f0ed" />
		</g>
		<g
   id="g67">
			<path
   d="m 16.52,11.46 c 1.36,-0.13 2.73,0.11 4.03,0.48 1.32,0.36 2.59,0.82 3.83,1.37 0,0 0,0 0,0 -0,0 -0,0 -0,0 -1.27,-0.47 -2.56,-0.88 -3.87,-1.18 -0.66,-0.14 -1.32,-0.26 -1.98,-0.37 -0.66,-0.12 -1.33,-0.22 -2,-0.3 -0,0 -0,-0 -0,-0 0,0 0,-0 0,-0 z"
   id="path69"
   style="fill:#f0f0ed" />
		</g>
	</g>
	<g
   id="g71">
		<ellipse
   cx="16.22"
   cy="11.59"
   rx="0.124"
   ry="0.117"
   id="ellipse73"
   style="fill:#091724" />
		<ellipse
   cx="15.47"
   cy="10.74"
   rx="0.118"
   ry="0.111"
   id="ellipse75"
   style="fill:#091724" />
		<ellipse
   cx="16.45"
   cy="11.05"
   rx="0.118"
   ry="0.111"
   id="ellipse77"
   style="fill:#091724" />
		<ellipse
   cx="16.3"
   cy="10.36"
   rx="0.118"
   ry="0.111"
   id="ellipse79"
   style="fill:#091724" />
		<ellipse
   cx="11.67"
   cy="10.84"
   rx="0.106"
   ry="0.1"
   id="ellipse81"
   style="fill:#091724" />
		<ellipse
   cx="12.25"
   cy="10.47"
   rx="0.118"
   ry="0.111"
   id="ellipse83"
   style="fill:#091724" />
		<ellipse
   cx="11.13"
   cy="10.89"
   rx="0.118"
   ry="0.111"
   id="ellipse85"
   style="fill:#091724" />
		<ellipse
   cx="11.37"
   cy="10.24"
   rx="0.124"
   ry="0.117"
   id="ellipse87"
   style="fill:#091724" />
		<ellipse
   cx="15.79"
   cy="11.11"
   rx="0.106"
   ry="0.1"
   id="ellipse89"
   style="fill:#091724" />
		<ellipse
   cx="11.57"
   cy="11.7"
   rx="0.118"
   ry="0.111"
   id="ellipse91"
   style="fill:#091724" />
	</g>
	<g
   id="g93">
		<g
   id="g95">
			<path
   d="m 16.01,7.504 c 0.46,-0.151 0.9,-0.198 1.33,-0.279 0.44,-0.07 0.88,-0.06 1.32,-0.103 0.87,-0.08 1.81,-0.371 2.71,-0.118 0,0 0,0.02 0,0.04 0,0.01 -0,0.02 -0,0.02 -0.9,-0.08 -1.72,0.319 -2.62,0.508 -0.44,0.11 -0.89,0.229 -1.36,0.222 -0.46,-0.02 -0.92,-0.06 -1.37,-0.23 -0,-0 -0,-0.02 -0,-0.04 0,-0 0,-0.01 0,-0.02 z"
   id="path97"
   style="fill:#091724" />
		</g>
		<g
   id="g99">
			<path
   d="M 11.75,7.561 C 11.31,7.735 10.84,7.77 10.38,7.791 9.918,7.797 9.465,7.678 9.021,7.568 8.124,7.379 7.301,6.977 6.402,7.06 c -0.02,0 -0.03,-0.01 -0.03,-0.02 -0,-0.01 0,-0.03 0.02,-0.03 0.906,-0.253 1.842,0.04 2.708,0.118 0.442,0.05 0.883,0.04 1.32,0.103 0.44,0.08 0.87,0.127 1.33,0.279 0,0 0,0.02 0,0.04 -0,0 -0,0.02 -0,0.02 z"
   id="path101"
   style="fill:#091724" />
		</g>
	</g>
</g>
<g
   id="face-2">
	<g
   id="teeth_1_">
		<g
   id="g105">
			<polygon
   points="43.04,11.31 40.96,11.31 41.52,14.73 43.17,14.87 44.99,14.73 45.27,11.31 43.05,11.31 "
   id="polygon107"
   style="fill:#f0f0ed" />
			<path
   d="m 43.05,11.53 h -2.09 l 0.21,-0.25 0.57,3.42 -0.2,-0.18 c 0.55,0.11 1.1,0.16 1.65,0.21 h -0 c 0.61,-0.1 1.21,-0.1 1.81,-0.21 l -0.19,0.2 0.28,-3.42 0.21,0.23 h -2.22 z m 0,-0.43 h 2.22 c 0.12,0 0.22,0.1 0.22,0.21 l -0,0 -0.28,3.42 0,0 c -0,0.1 -0.1,0.18 -0.19,0.18 -0.61,-0 -1.22,0 -1.82,0.1 h -0 c -0.55,-0 -1.1,-0.1 -1.65,-0.1 -0.1,0 -0.17,-0.1 -0.19,-0.16 l 0,-0 -0.57,-3.42 c -0,-0.12 0.1,-0.23 0.18,-0.25 l 0,0 h 2.09 z"
   id="path109"
   style="fill:#091724" />
		</g>
		<g
   id="g111">
			<path
   d="m 43.33,11.5 -0.14,2.91 c -0,0 -0,0.1 -0.1,0.1 -0,0 -0.1,-0 -0.1,-0.1 L 42.9,11.5 c 0,-0.12 0.1,-0.22 0.2,-0.22 0.12,-0 0.22,0.1 0.23,0.2 0,0 0,0 0,0 z"
   id="path113"
   style="fill:#091724" />
		</g>
	</g>
	<g
   id="g115">
		<g
   id="g117">
			<path
   d="m 47.02,11.57 c -0.32,0.45 -1.06,0.83 -1.67,0.86 -0.6,0 -1.34,-0.1 -1.64,-0.19 -0.3,-0.13 -0.55,-0.9 -0.55,-1.72 0,-0.817 0.56,-1.485 1.25,-1.485 0.68,0 1.68,0.387 2.21,0.859 0.53,0.476 0.71,1.226 0.4,1.676 z"
   id="path119"
   style="fill:#a2a0a2;stroke:#091724;stroke-width:0.5669;stroke-miterlimit:10" />
		</g>
		<g
   id="g121">
			<path
   d="m 39.22,11.57 c 0.31,0.45 1.06,0.83 1.66,0.86 0.6,0 1.34,-0.1 1.64,-0.19 0.31,-0.13 0.55,-0.9 0.55,-1.72 0,-0.817 -0.56,-1.485 -1.24,-1.485 -0.69,0 -1.69,0.387 -2.22,0.859 -0.53,0.476 -0.71,1.226 -0.39,1.676 z"
   id="path123"
   style="fill:#a2a0a2;stroke:#091724;stroke-width:0.5669;stroke-miterlimit:10" />
		</g>
	</g>
	<g
   id="nose_1_">
		<path
   d="m 44.81,8.905 c 0,0.265 -0.19,0.577 -0.52,0.693 -0.33,0.117 -0.71,0.492 -0.85,0.832 -0.14,0.34 -0.39,0.35 -0.56,0 C 42.71,10.1 42.29,9.729 41.95,9.607 41.61,9.486 41.41,9.17 41.5,8.905 c 0.1,-0.265 0.51,-0.584 0.93,-0.711 0.43,-0.127 1.12,-0.126 1.53,0 0.42,0.126 0.8,0.446 0.85,0.711 z"
   id="path126"
   style="fill:#091724" />
	</g>
	<g
   transform="translate(110.7,-48.39)"
   id="eyes_1_">
		
			<path
   d="m -65.53,54.35 c 0,0.96 0.78,1.74 1.75,1.74 0.96,0 1.74,-0.78 1.74,-1.74 0,-0.96 -0.78,-1.75 -1.74,-1.75 -0.97,0 -1.75,0.79 -1.75,1.75 z"
   id="path5352-1_1_"
   style="fill:#091724" />
		
			<path
   d="m -64.51,53.71 c 0,0.38 0.27,0.68 0.6,0.68 0.32,0 0.59,-0.3 0.59,-0.67 0,-0 0,-0 0,-0 0,-0.37 -0.26,-0.68 -0.59,-0.68 -0.33,0 -0.6,0.3 -0.6,0.68 0,0 0,0 0,0 z"
   id="path5354-4_1_"
   style="fill:#ffffff" />
		
			<path
   d="m -69.58,54.35 c 0,0.96 -0.78,1.74 -1.74,1.74 -0.96,0 -1.74,-0.78 -1.74,-1.74 0,-0.96 0.78,-1.75 1.74,-1.75 0.96,0 1.74,0.79 1.74,1.75 z"
   id="path5270-2_1_"
   style="fill:#091724" />
		
			<path
   d="m -70.6,53.71 c 0,0.38 -0.26,0.68 -0.59,0.68 -0.33,0 -0.6,-0.3 -0.6,-0.67 0,-0 0,-0 0,-0 0,-0.37 0.27,-0.68 0.59,-0.68 0.33,0 0.6,0.3 0.6,0.68 0,0 0,0 0,0 z"
   id="path5272-2_1_"
   style="fill:#ffffff" />
	</g>
	<g
   id="g133">
		<g
   id="g135">
			<path
   d="m 46.61,9.618 c 0.42,0.198 0.76,0.562 1.01,0.962 0.26,0.39 0.43,0.82 0.66,1.19 0.2,0.39 0.47,0.71 0.83,0.94 0.35,0.24 0.78,0.37 1.23,0.48 -0.46,0.1 -0.95,0 -1.39,-0.19 -0.45,-0.21 -0.8,-0.61 -1.04,-1.02 -0.44,-0.84 -0.66,-1.68 -1.3,-2.362 z"
   id="path137"
   style="fill:#091724" />
		</g>
		<g
   id="g139">
			<path
   d="m 39.62,9.618 c -0.64,0.682 -0.86,1.522 -1.3,2.362 -0.24,0.41 -0.59,0.81 -1.04,1.02 -0.45,0.21 -0.93,0.25 -1.39,0.19 0.45,-0.11 0.88,-0.24 1.23,-0.48 0.36,-0.23 0.63,-0.55 0.83,-0.94 0.23,-0.37 0.4,-0.8 0.66,-1.19 0.25,-0.4 0.59,-0.764 1.01,-0.962 z"
   id="path141"
   style="fill:#091724" />
		</g>
	</g>
	<g
   id="g143">
		<ellipse
   cx="45.45"
   cy="11.59"
   rx="0.124"
   ry="0.117"
   id="ellipse145"
   style="fill:#091724" />
		<ellipse
   cx="44.7"
   cy="10.74"
   rx="0.118"
   ry="0.111"
   id="ellipse147"
   style="fill:#091724" />
		<ellipse
   cx="45.68"
   cy="11.05"
   rx="0.118"
   ry="0.111"
   id="ellipse149"
   style="fill:#091724" />
		<ellipse
   cx="45.53"
   cy="10.36"
   rx="0.118"
   ry="0.111"
   id="ellipse151"
   style="fill:#091724" />
		<ellipse
   cx="40.91"
   cy="10.84"
   rx="0.106"
   ry="0.1"
   id="ellipse153"
   style="fill:#091724" />
		<ellipse
   cx="41.49"
   cy="10.47"
   rx="0.117"
   ry="0.111"
   id="ellipse155"
   style="fill:#091724" />
		<ellipse
   cx="40.37"
   cy="10.89"
   rx="0.118"
   ry="0.111"
   id="ellipse157"
   style="fill:#091724" />
		<ellipse
   cx="40.6"
   cy="10.24"
   rx="0.123"
   ry="0.117"
   id="ellipse159"
   style="fill:#091724" />
		<ellipse
   cx="45.02"
   cy="11.11"
   rx="0.106"
   ry="0.1"
   id="ellipse161"
   style="fill:#091724" />
		<ellipse
   cx="40.8"
   cy="11.7"
   rx="0.117"
   ry="0.111"
   id="ellipse163"
   style="fill:#091724" />
	</g>
	<g
   id="g165">
		<g
   id="g167">
			<path
   d="m 45.25,7.504 c 0.45,-0.151 0.89,-0.198 1.33,-0.279 0.43,-0.07 0.88,-0.06 1.32,-0.103 0.86,-0.08 1.8,-0.371 2.7,-0.118 0,0 0,0.02 0,0.04 -0,0.01 -0,0.02 -0,0.02 -0.9,-0.08 -1.73,0.319 -2.62,0.508 -0.45,0.11 -0.9,0.229 -1.36,0.222 -0.46,-0.02 -0.93,-0.06 -1.37,-0.23 -0,-0 -0,-0.02 -0,-0.04 0,-0 0,-0.01 0,-0.02 z"
   id="path169"
   style="fill:#091724" />
		</g>
		<g
   id="g171">
			<path
   d="M 40.98,7.561 C 40.54,7.735 40.07,7.77 39.61,7.791 39.15,7.798 38.7,7.679 38.25,7.569 37.36,7.38 36.53,6.977 35.64,7.061 c -0,0 -0,-0.01 -0,-0.03 -0,-0.01 0,-0.03 0,-0.03 0.9,-0.253 1.84,0.04 2.7,0.117 0.45,0.05 0.89,0.04 1.32,0.104 0.44,0.08 0.88,0.127 1.33,0.279 0,0 0,0.02 0,0.04 0,0 -0,0.01 -0,0.02 z"
   id="path173"
   style="fill:#091724" />
		</g>
	</g>
</g>
</svg>