<?xml version="1.0" encoding="UTF-8" standalone="no"?>
<!-- Created with Inkscape (http://www.inkscape.org/) -->

<svg
   xmlns:dc="http://purl.org/dc/elements/1.1/"
   xmlns:cc="http://creativecommons.org/ns#"
   xmlns:rdf="http://www.w3.org/1999/02/22-rdf-syntax-ns#"
   xmlns:svg="http://www.w3.org/2000/svg"
   xmlns="http://www.w3.org/2000/svg"
   version="1.0"
   width="57"
   height="38.56"
   viewBox="0 0 57 38.56"
   id="monkey"
   xml:space="preserve"><metadata
   id="metadata69"><rdf:RDF><cc:Work
       rdf:about=""><dc:format>image/svg+xml</dc:format><dc:type
         rdf:resource="http://purl.org/dc/dcmitype/StillImage" /><dc:title></dc:title></cc:Work></rdf:RDF></metadata><defs
   id="defs67" />
<g
   id="reddish_brown">
	<rect
   width="57"
   height="18.58"
   x="0"
   y="0"
   id="rect4"
   style="fill:#692f16" />
	<g
   id="face-1">
		<path
   d="M 20.73,3.792 C 19.55,2.628 17.64,2.009 16.48,2.415 15.33,2.821 14.9,3.159 14.33,3.16 13.76,3.161 13.33,2.821 12.17,2.415 11.02,2.009 9.11,2.628 7.926,3.791 6.742,4.955 6.445,6.899 7.266,8.112 c 0.821,1.213 1.456,2.848 1.41,3.638 -0.05,0.79 1.084,4.54 5.654,4.54 4.57,0 5.7,-3.75 5.65,-4.54 -0,-0.79 0.59,-2.424 1.41,-3.638 0.82,-1.213 0.53,-3.157 -0.66,-4.32 z"
   id="path7"
   style="fill:#dcc291" />
		<g
   transform="translate(110.7,-48.39)"
   id="g3420_1_">
			
				<path
   d="m -94.31,54.35 c 0,0.96 0.78,1.74 1.74,1.74 0.97,0 1.75,-0.78 1.75,-1.74 0,-0.96 -0.78,-1.75 -1.75,-1.75 -0.96,0 -1.74,0.79 -1.74,1.75 z"
   id="path5352-1_1_"
   style="fill:#091724" />
			
				<path
   d="m -93.29,53.71 c 0,0.38 0.26,0.68 0.59,0.68 0.33,0 0.6,-0.3 0.6,-0.68 0,0 0,0 0,0 0,-0.38 -0.27,-0.68 -0.59,-0.68 -0.33,0 -0.6,0.3 -0.6,0.68 0,0 0,0 0,0 z"
   id="path5354-4_1_"
   style="fill:#ffffff" />
			
				<path
   d="m -98.36,54.35 c 0,0.96 -0.78,1.74 -1.74,1.74 -1,0 -1.8,-0.78 -1.8,-1.74 0,-0.96 0.8,-1.75 1.8,-1.75 0.96,0 1.74,0.79 1.74,1.75 z"
   id="path5270-2_1_"
   style="fill:#091724" />
			
				<path
   d="m -99.38,53.71 c 0,0.38 -0.27,0.68 -0.6,0.68 -0.32,0 -0.62,-0.3 -0.62,-0.68 0,0 0,0 0,0 0,-0.38 0.3,-0.68 0.62,-0.68 0.33,0 0.6,0.3 0.6,0.68 0,0 0,0 0,0 z"
   id="path5272-2_1_"
   style="fill:#ffffff" />
		</g>
		<g
   id="path3894_1_">
			<path
   d="m 10.04,10.83 c 0.66,0.31 1.38,0.46 2.1,0.58 0.72,0.1 1.46,0.16 2.2,0.16 0.73,0 1.47,-0 2.2,-0.14 0.71,-0.11 1.45,-0.26 2.06,-0.59 l 0,0 c 0.1,-0.1 0.23,-0 0.29,0.1 0.1,0.1 0,0.21 -0.1,0.27 -0.66,0.5 -1.43,0.72 -2.19,0.88 -0.77,0.14 -1.54,0.2 -2.32,0.2 -0.77,-0 -1.54,-0.1 -2.3,-0.24 -0.76,-0.15 -1.52,-0.4 -2.189,-0.82 l -0,-0 c -0.1,-0.1 -0.128,-0.19 -0.06,-0.29 0.06,-0.1 0.173,-0.12 0.268,-0.1 z"
   id="path15"
   style="fill:#091724" />
		</g>
		<path
   d="m 16.72,9.295 c 0,0.156 -0.38,0.146 -0.67,0.25 -0.3,0.104 -0.51,0.318 -0.79,0.318 -0.55,0 -0.54,-0.256 -0.54,-0.568 0,-0.312 0.44,-0.568 1,-0.568 0.55,0 1,0.255 1,0.568 z m -4.78,0 c 0,0.156 0.38,0.146 0.67,0.25 0.3,0.104 0.51,0.318 0.79,0.318 0.55,0 0.54,-0.256 0.54,-0.568 0,-0.312 -0.44,-0.568 -1,-0.568 -0.55,0 -1,0.255 -1,0.568 z"
   id="path17"
   style="fill:#091724" />
	</g>
	<g
   id="face-2">
		<path
   d="M 49.07,3.792 C 47.89,2.628 45.98,2.009 44.83,2.415 c -1.16,0.406 -1.56,0.737 -2.12,0.744 -0.58,0 -1.04,-0.338 -2.19,-0.744 -1.16,-0.406 -3.07,0.214 -4.25,1.377 -1.18,1.164 -1.48,3.107 -0.66,4.321 0.82,1.213 1.45,2.847 1.41,3.637 -0.1,0.79 1.08,4.54 5.65,4.54 4.57,0 5.7,-3.75 5.65,-4.54 -0,-0.79 0.59,-2.423 1.41,-3.637 0.82,-1.214 0.53,-3.158 -0.66,-4.321 z"
   id="path20"
   style="fill:#dcc291" />
		<g
   transform="translate(110.7,-48.39)"
   id="g3420_2_">
			
				<path
   d="m -65.97,54.35 c 0,0.96 0.78,1.74 1.74,1.74 0.96,0 1.75,-0.78 1.75,-1.74 0,-0.96 -0.79,-1.75 -1.75,-1.75 -0.96,0 -1.74,0.79 -1.74,1.75 z"
   id="path5352-1_2_"
   style="fill:#091724" />
			
				<path
   d="m -64.95,53.71 c 0,0.38 0.26,0.68 0.59,0.68 0.33,0 0.6,-0.3 0.6,-0.67 0,-0 0,-0 0,-0 0,-0.37 -0.27,-0.68 -0.59,-0.68 -0.33,0 -0.6,0.3 -0.6,0.68 0,0 0,0 0,0 z"
   id="path5354-4_2_"
   style="fill:#ffffff" />
			
				<path
   d="m -70.02,54.35 c 0,0.96 -0.78,1.74 -1.75,1.74 -0.96,0 -1.74,-0.78 -1.74,-1.74 0,-0.96 0.78,-1.75 1.74,-1.75 0.97,0 1.75,0.79 1.75,1.75 z"
   id="path5270-2_2_"
   style="fill:#091724" />
			
				<path
   d="m -71.04,53.71 c 0,0.38 -0.27,0.68 -0.6,0.68 -0.32,0 -0.59,-0.3 -0.59,-0.67 0,-0 0,-0 0,-0 -0,-0.37 0.26,-0.68 0.59,-0.68 0.33,0 0.6,0.3 0.6,0.68 0,0 0,0 0,0 z"
   id="path5272-2_2_"
   style="fill:#ffffff" />
		</g>
		<g
   id="path3894_2_">
			<path
   d="m 38.38,10.83 c 0.66,0.31 1.38,0.46 2.1,0.58 0.73,0.1 1.46,0.16 2.2,0.16 0.73,0 1.47,-0 2.2,-0.14 0.72,-0.11 1.45,-0.26 2.06,-0.59 l 0,0 c 0.1,-0.1 0.23,-0 0.29,0.1 0,0.1 0,0.21 -0.1,0.27 -0.66,0.5 -1.44,0.72 -2.19,0.88 -0.77,0.14 -1.54,0.2 -2.32,0.2 -0.77,-0 -1.54,-0.1 -2.3,-0.24 -0.76,-0.15 -1.52,-0.4 -2.19,-0.82 l 0,-0 c -0.1,-0.1 -0.13,-0.19 -0.1,-0.29 0.1,-0.1 0.18,-0.12 0.27,-0.1 z"
   id="path28"
   style="fill:#091724" />
		</g>
		<g
   id="g30">
			<path
   d="m 44.29,8.834 c 0.1,0.147 -0.3,0.548 -0.77,0.889 -0.47,0.337 -1.23,0.337 -1.7,0 C 41.35,9.382 41,8.982 41.05,8.834 c 0.1,-0.147 0.44,-0.308 0.87,-0.357 0.43,-0.05 1.11,-0.05 1.53,0 0.41,0.05 0.79,0.21 0.84,0.357 z"
   id="path32"
   style="fill:#091724" />
		</g>
	</g>
</g>
<g
   id="black">
	<rect
   width="57"
   height="18.58"
   x="0"
   y="19.98"
   id="rect35"
   style="fill:#091724" />
	<g
   id="face-1_1_">
		<path
   d="m 20.73,23.77 c -1.18,-1.16 -3.09,-1.78 -4.25,-1.37 -1.15,0.4 -1.6,0.75 -2.18,0.74 -0.56,0 -0.97,-0.34 -2.13,-0.74 -1.15,-0.41 -3.06,0.21 -4.245,1.37 -1.184,1.17 -1.481,3.11 -0.66,4.32 0.821,1.22 1.456,2.86 1.41,3.64 -0.05,0.79 1.084,4.54 5.655,4.54 4.57,0 5.7,-3.75 5.65,-4.54 -0.1,-0.78 0.59,-2.42 1.41,-3.64 0.82,-1.21 0.53,-3.15 -0.66,-4.32 z"
   id="path38"
   style="fill:#606062" />
		<g
   transform="translate(110.7,-48.39)"
   id="g3420_4_">
			
				<path
   d="m -94.31,74.33 c 0,0.97 0.78,1.75 1.74,1.75 0.97,0 1.75,-0.78 1.75,-1.75 0,-0.96 -0.78,-1.74 -1.75,-1.74 -0.96,0 -1.74,0.78 -1.74,1.74 z"
   id="path5352-1_4_"
   style="fill:#091724" />
			
				<path
   d="m -93.29,73.69 c 0,0.38 0.26,0.69 0.59,0.69 0.33,0 0.6,-0.31 0.6,-0.68 0,0 0,-0 0,-0 0,-0.37 -0.27,-0.68 -0.59,-0.68 -0.33,0 -0.6,0.3 -0.6,0.68 0,0 0,0 0,0 z"
   id="path5354-4_4_"
   style="fill:#ffffff" />
			
				<path
   d="m -98.36,74.33 c 0,0.97 -0.78,1.75 -1.74,1.75 -1,0 -1.8,-0.78 -1.8,-1.75 0,-0.96 0.8,-1.74 1.8,-1.74 0.96,0 1.74,0.78 1.74,1.74 z"
   id="path5270-2_4_"
   style="fill:#091724" />
			
				<path
   d="m -99.38,73.69 c 0,0.38 -0.27,0.69 -0.6,0.69 -0.32,0 -0.62,-0.31 -0.62,-0.68 0,0 0,-0 0,-0 0,-0.37 0.3,-0.68 0.62,-0.68 0.33,0 0.6,0.3 0.6,0.68 0,0 0,0 0,0 z"
   id="path5272-2_4_"
   style="fill:#ffffff" />
		</g>
		<g
   id="path3894_4_">
			<path
   d="m 10.04,30.81 c 0.66,0.31 1.38,0.46 2.1,0.58 0.72,0.1 1.46,0.17 2.2,0.16 0.73,0 1.47,-0 2.2,-0.14 0.71,-0.11 1.45,-0.25 2.06,-0.59 l 0,0 c 0.1,-0.1 0.23,-0 0.29,0.1 0.1,0.1 0,0.21 -0.1,0.27 -0.66,0.5 -1.43,0.72 -2.19,0.88 -0.77,0.15 -1.54,0.2 -2.32,0.2 -0.77,-0 -1.54,-0.1 -2.3,-0.23 -0.76,-0.16 -1.52,-0.41 -2.189,-0.83 l -0,-0 c -0.1,-0.1 -0.128,-0.19 -0.06,-0.29 0.06,-0.1 0.173,-0.12 0.268,-0.1 z"
   id="path46"
   style="fill:#091724" />
		</g>
		<path
   d="m 16.72,29.28 c 0,0.15 -0.38,0.14 -0.67,0.25 -0.3,0.1 -0.51,0.32 -0.79,0.32 -0.55,0 -0.54,-0.26 -0.54,-0.57 0,-0.31 0.44,-0.57 1,-0.57 0.55,0 1,0.26 1,0.57 z m -4.78,0 c 0,0.15 0.38,0.14 0.67,0.25 0.3,0.1 0.51,0.32 0.79,0.32 0.55,0 0.54,-0.26 0.54,-0.57 0,-0.31 -0.44,-0.57 -1,-0.57 -0.55,0 -1,0.26 -1,0.57 z"
   id="path48"
   style="fill:#091724" />
	</g>
	<g
   id="face-2_1_">
		<path
   d="m 49.07,23.77 c -1.18,-1.16 -3.09,-1.78 -4.24,-1.37 -1.16,0.4 -1.61,0.75 -2.19,0.74 -0.56,0 -0.98,-0.34 -2.13,-0.74 -1.15,-0.41 -3.06,0.21 -4.24,1.37 -1.19,1.17 -1.48,3.11 -0.66,4.32 0.82,1.22 1.45,2.86 1.41,3.64 -0.1,0.79 1.08,4.54 5.65,4.54 4.57,0 5.7,-3.75 5.65,-4.54 -0,-0.78 0.59,-2.42 1.41,-3.64 0.82,-1.21 0.53,-3.15 -0.66,-4.32 z"
   id="path51"
   style="fill:#606062" />
		<g
   transform="translate(110.7,-48.39)"
   id="g3420_3_">
			
				<path
   d="m -65.97,74.33 c 0,0.97 0.78,1.75 1.74,1.75 0.96,0 1.75,-0.78 1.75,-1.75 0,-0.96 -0.79,-1.74 -1.75,-1.74 -0.96,0 -1.74,0.78 -1.74,1.74 z"
   id="path5352-1_3_"
   style="fill:#091724" />
			
				<path
   d="m -64.95,73.69 c 0,0.38 0.26,0.69 0.59,0.69 0.33,0 0.6,-0.31 0.6,-0.68 0,0 0,-0 0,-0 0,-0.37 -0.27,-0.68 -0.59,-0.68 -0.33,0 -0.6,0.3 -0.6,0.68 0,0 0,0 0,0 z"
   id="path5354-4_3_"
   style="fill:#ffffff" />
			
				<path
   d="m -70.02,74.33 c 0,0.97 -0.78,1.75 -1.75,1.75 -0.96,0 -1.74,-0.78 -1.74,-1.75 0,-0.96 0.78,-1.74 1.74,-1.74 0.97,0 1.75,0.78 1.75,1.74 z"
   id="path5270-2_3_"
   style="fill:#091724" />
			
				<path
   d="m -71.04,73.69 c 0,0.38 -0.27,0.69 -0.6,0.69 -0.32,0 -0.59,-0.31 -0.59,-0.68 0,0 0,-0 0,-0 -0,-0.37 0.26,-0.68 0.59,-0.68 0.33,0 0.6,0.3 0.6,0.68 0,0 0,0 0,0 z"
   id="path5272-2_3_"
   style="fill:#ffffff" />
		</g>
		<g
   id="path3894_3_">
			<path
   d="m 38.38,30.81 c 0.66,0.31 1.38,0.46 2.1,0.58 0.73,0.1 1.46,0.17 2.2,0.16 0.73,0 1.47,-0 2.2,-0.14 0.72,-0.11 1.45,-0.25 2.06,-0.59 l 0,0 c 0.1,-0.1 0.23,-0 0.29,0.1 0,0.1 0,0.21 -0.1,0.27 -0.66,0.5 -1.44,0.72 -2.19,0.88 -0.77,0.15 -1.54,0.2 -2.32,0.2 -0.77,-0 -1.54,-0.1 -2.3,-0.23 -0.76,-0.16 -1.52,-0.41 -2.19,-0.83 l 0,-0 c -0.1,-0.1 -0.13,-0.19 -0.1,-0.29 0.1,-0.1 0.18,-0.12 0.27,-0.1 z"
   id="path59"
   style="fill:#091724" />
		</g>
		<g
   id="g61">
			<path
   d="m 44.29,28.82 c 0.1,0.14 -0.3,0.55 -0.77,0.89 -0.47,0.34 -1.23,0.34 -1.7,0 -0.47,-0.35 -0.82,-0.75 -0.77,-0.89 0.1,-0.15 0.44,-0.31 0.87,-0.36 0.43,-0.1 1.11,-0.1 1.53,0 0.41,0.1 0.79,0.21 0.84,0.36 z"
   id="path63"
   style="fill:#091724" />
		</g>
	</g>
</g>
</svg>