<?xml version="1.0" encoding="UTF-8" standalone="no"?>
<!-- Generator: Adobe Illustrator 15.1.0, SVG Export Plug-In . SVG Version: 6.00 Build 0)  -->

<svg
   xmlns:dc="http://purl.org/dc/elements/1.1/"
   xmlns:cc="http://creativecommons.org/ns#"
   xmlns:rdf="http://www.w3.org/1999/02/22-rdf-syntax-ns#"
   xmlns:svg="http://www.w3.org/2000/svg"
   xmlns="http://www.w3.org/2000/svg"
   xmlns:xlink="http://www.w3.org/1999/xlink"
   xmlns:sodipodi="http://sodipodi.sourceforge.net/DTD/sodipodi-0.dtd"
   xmlns:inkscape="http://www.inkscape.org/namespaces/inkscape"
   version="1.1"
   x="0px"
   y="0px"
   width="53.858px"
   height="102.047px"
   viewBox="-0.742 -0.885 53.858 102.047"
   enable-background="new -0.742 -0.885 53.858 102.047"
   xml:space="preserve"
   id="svg2"
   inkscape:version="0.48.1 "
   sodipodi:docname="cmf-s3-samurai.svg"
   inkscape:export-filename="D:\Bricks\Decals\designs\cmf-replicas\cmf-s3-samurai\cmf-s3-samurai.png"
   inkscape:export-xdpi="600"
   inkscape:export-ydpi="600"><metadata
   id="metadata354"><rdf:RDF><cc:Work
       rdf:about=""><dc:format>image/svg+xml</dc:format><dc:type
         rdf:resource="http://purl.org/dc/dcmitype/StillImage" /><dc:title></dc:title></cc:Work></rdf:RDF></metadata><defs
   id="defs352" /><sodipodi:namedview
   pagecolor="#ffffff"
   bordercolor="#666666"
   borderopacity="1"
   objecttolerance="10"
   gridtolerance="10"
   guidetolerance="10"
   inkscape:pageopacity="0"
   inkscape:pageshadow="2"
   inkscape:window-width="1160"
   inkscape:window-height="480"
   id="namedview350"
   showgrid="false"
   inkscape:zoom="2.8516273"
   inkscape:cx="26.929001"
   inkscape:cy="51.198837"
   inkscape:window-x="1366"
   inkscape:window-y="0"
   inkscape:window-maximized="0"
   inkscape:current-layer="svg2" />
<g
   id="torso_1_"
   sodipodi:docname="space.[CMF6 Intergalactic Girl]"
   inkscape:version="0.48.2 r9819">
	<path
   id="torso"
   inkscape:connector-curvature="0"
   fill="#8F2733"
   d="M0.201,43.359C8.933-3.935,5.543,0.68,14.468,0.503h23.44   c8.926,0.178,5.535-4.438,14.266,42.856H0.201z" />
	<path
   id="yellow_fill_belt"
   fill="#DCC392"
   d="M0.201,43.346h51.973c-0.756-4.094-1.418-7.789-2.008-11.142   c0,0-9.979,1.25-22.979,1.134C12.25,33.205,2.352,32.205,2.352,32.205C1.762,35.557,0.957,39.253,0.201,43.346z" />
	<path
   id="yellow_fill"
   fill="#DCC392"
   d="M6.326,32.494l-2.352-0.312c5.31-7.08,11.345-12.955,16.171-17.763   c4.745-4.728,8.662-8.579,12.099-13.712l2.547-0.142c-3.533,5.272-8.498,10.269-13.304,15.058   C16.702,20.392,11.562,25.512,6.326,32.494z" />
	<path
   id="yellow_fill_colar"
   fill="#DCC392"
   d="M25.189,8.906c-0.14-0.123-3.876-2.045-7.315-8.198l2.248-0.142   c3.03,4.377,6.298,7.034,6.331,7.063L25.189,8.906z" />
	<g
   id="flowers">
		<path
   fill="#DCC392"
   d="M44.92,25.845c-0.502-0.032-1.27-0.121-1.449,0.15c-0.229,0.343-0.283,1.308-0.283,1.308    s1.16,0.784,1.523,0.728c0.486-0.074,1.211-0.021,0.98-1.029C45.615,26.664,45.381,26.168,44.92,25.845z"
   id="path10" />
		<path
   fill="#DCC392"
   d="M44.959,28.379c-0.363,0.158-0.826,0.531-0.824,0.992c0.004,0.461,0.381,0.68,0.842,0.676    c0.459-0.004,0.83-0.381,0.826-0.842C45.797,28.744,45.527,28.406,44.959,28.379z"
   id="path12" />
		<path
   fill="#DCC392"
   d="M31.65,24.904c-0.346,0.127-0.514,1.68-0.514,1.68s0.498,0.563,0.908,0.586    c0.324,0.02,0.826-0.371,1.094-0.607c0.26-0.232,0.672-1.052,0.449-1.316C32.92,24.456,32.643,24.541,31.65,24.904z"
   id="path14" />
		<path
   fill="#DCC392"
   d="M46.752,31.998c0.344-0.133,1.148-1.061,1.148-1.061s-0.072-0.777-0.439-0.961    c-0.291-0.145-1.092-0.199-1.43-0.086c-0.33,0.111-1.031,0.703-0.928,1.035C45.408,31.914,46.295,32.177,46.752,31.998z"
   id="path16" />
		<path
   fill="#DCC392"
   d="M34.625,25.295c-0.363,0.16-0.826,0.533-0.824,0.993c0.004,0.462,0.381,0.681,0.842,0.675    c0.459-0.004,0.83-0.381,0.826-0.842C35.463,25.661,35.193,25.323,34.625,25.295z"
   id="path18" />
		<path
   fill="#DCC392"
   d="M45.719,15.896c-0.006-0.46-0.275-0.798-0.844-0.826c-0.363,0.159-0.826,0.532-0.824,0.993    c0.004,0.461,0.381,0.68,0.842,0.675C45.352,16.734,45.723,16.357,45.719,15.896z"
   id="path20" />
		<path
   fill="#DCC392"
   d="M34.586,22.762c-0.502-0.032-1.27-0.122-1.449,0.149c-0.229,0.344-0.283,1.309-0.283,1.309    s1.16,0.784,1.523,0.728c0.486-0.074,1.211-0.021,0.98-1.028C35.281,23.58,35.047,23.084,34.586,22.762z"
   id="path22" />
		<path
   fill="#DCC392"
   d="M43.676,1.787c-0.34-0.075-1.246,0.073-1.328,0.411c-0.248,1.003,0.377,1.686,0.861,1.767    c0.363,0.062,1.531-0.319,1.531-0.319s0.051-0.109,0.1-0.261c-0.174-0.511-0.352-0.937-0.541-1.288    C44.078,1.949,43.842,1.823,43.676,1.787z"
   id="path24" />
		<path
   fill="#DCC392"
   d="M39.793,2.07c0.131,0.485,0.381,0.846,0.693,0.929c0.398,0.106,1.377,0.026,1.377,0.026    s0.369-1.35,0.199-1.677c-0.227-0.437-0.408-1.141-1.289-0.6C40.477,0.929,39.949,1.529,39.793,2.07z"
   id="path26" />
		<path
   fill="#DCC392"
   d="M42.689,1.378c0.336,0.197,0.742,0.12,1.006-0.144c-0.404-0.413-0.869-0.617-1.43-0.714    C42.16,0.86,42.344,1.176,42.689,1.378z"
   id="path28" />
		<path
   fill="#DCC392"
   d="M43.92,32.57c0.396-0.113,1.193-0.686,1.193-0.686s-0.377-1.348-0.689-1.541    c-0.42-0.258-0.938-0.769-1.416,0.148c-0.16,0.309-0.305,1.094-0.16,1.639C43.209,32.478,43.609,32.66,43.92,32.57z"
   id="path30" />
		<path
   fill="#DCC392"
   d="M29.691,19.729c0,0-0.072-0.778-0.439-0.961c-0.291-0.145-1.092-0.2-1.43-0.085    c-0.33,0.111-1.031,0.703-0.928,1.036c0.305,0.987,1.191,1.251,1.648,1.072C28.887,20.656,29.691,19.729,29.691,19.729z"
   id="path32" />
		<path
   fill="#DCC392"
   d="M45.805,14.845c-0.051,0.344,0.166,1.237,0.508,1.294c0.438,0.073,0.799-0.014,1.076-0.169    c-0.146-0.866-0.285-1.688-0.418-2.46c-0.166-0.01-0.332,0.009-0.449,0.097C46.262,13.801,45.854,14.491,45.805,14.845z"
   id="path34" />
		<path
   fill="#DCC392"
   d="M42.379,30.252c0.324,0.021,0.826-0.369,1.094-0.607c0.26-0.23,0.672-1.051,0.449-1.315    c-0.668-0.79-0.945-0.704-1.938-0.343c-0.346,0.127-0.514,1.682-0.514,1.682S41.969,30.228,42.379,30.252z"
   id="path36" />
		<path
   fill="#DCC392"
   d="M42.295,16.944c0.324,0.021,0.826-0.37,1.094-0.607c0.26-0.231,0.672-1.051,0.449-1.316    c-0.668-0.79-0.945-0.705-1.938-0.342c-0.346,0.127-0.514,1.681-0.514,1.681S41.885,16.92,42.295,16.944z"
   id="path38" />
		<path
   fill="#DCC392"
   d="M45.607,13.694c-0.076-0.339-0.311-0.835-0.771-1.157c-0.502-0.032-1.27-0.122-1.449,0.15    c-0.229,0.343-0.283,1.308-0.283,1.308s1.16,0.784,1.523,0.728C45.113,14.648,45.838,14.701,45.607,13.694z"
   id="path40" />
		<path
   fill="#DCC392"
   d="M42.924,17.183c-0.16,0.309-0.305,1.094-0.16,1.639c0.361,0.348,0.762,0.529,1.072,0.439    c0.396-0.113,1.193-0.686,1.193-0.686s-0.377-1.348-0.689-1.541C43.92,16.777,43.402,16.266,42.924,17.183z"
   id="path42" />
		<path
   fill="#DCC392"
   d="M19.938,32.794c-0.154-0.286-0.777-0.792-1.119-0.895c-0.333-0.1-1.248-0.021-1.354,0.311    c-0.111,0.34-0.11,0.646-0.049,0.909c0.828,0.03,1.675,0.059,2.558,0.084C19.999,33.055,20,32.909,19.938,32.794z"
   id="path44" />
		<path
   fill="#DCC392"
   d="M21.334,31.917c0.24-0.279,0.512-1.477,0.512-1.477s-0.431-0.653-0.841-0.642    c-0.325,0.01-1.057,0.339-1.301,0.6c-0.24,0.252-0.578,1.106-0.331,1.35C20.11,32.475,21.014,32.29,21.334,31.917z"
   id="path46" />
		<path
   fill="#DCC392"
   d="M17.997,29.407c-0.09-1.031-0.367-1.121-1.385-1.397c-0.356-0.096-1.39,1.077-1.39,1.077    s0.083,0.745,0.405,1.001c0.252,0.204,0.888,0.175,1.244,0.135C17.217,30.183,18.026,29.752,17.997,29.407z"
   id="path48" />
		<path
   fill="#DCC392"
   d="M20.208,29.344c0.133-0.32,0.228-0.86,0.037-1.39c-0.391-0.315-0.968-0.832-1.271-0.714    c-0.384,0.149-0.986,0.905-0.986,0.905s0.496,1.311,0.826,1.474C19.253,29.839,19.815,30.3,20.208,29.344z"
   id="path50" />
		<path
   fill="#DCC392"
   d="M15.549,32.87c0.389,0.137,1.37,0.129,1.37,0.129s0.469-1.318,0.325-1.657    c-0.193-0.452-0.322-1.169-1.241-0.695c-0.309,0.16-0.88,0.718-1.076,1.246C15.021,32.385,15.243,32.764,15.549,32.87z"
   id="path52" />
		<path
   fill="#DCC392"
   d="M24.799,19.283c-0.161,0.308-0.304,1.094-0.161,1.638c0.361,0.349,0.761,0.53,1.073,0.44    c0.396-0.114,1.193-0.686,1.193-0.686s-0.376-1.348-0.69-1.541C25.794,18.877,25.276,18.366,24.799,19.283z"
   id="path54" />
		<path
   fill="#DCC392"
   d="M33.586,29.486c0.396-0.113,1.193-0.686,1.193-0.686s-0.377-1.348-0.689-1.541    c-0.42-0.258-0.938-0.768-1.416,0.148c-0.16,0.309-0.305,1.094-0.16,1.639C32.875,29.394,33.275,29.576,33.586,29.486z"
   id="path56" />
		<path
   fill="#DCC392"
   d="M46.605,26.914c-0.26,0.195-0.668,0.886-0.717,1.24c-0.051,0.344,0.166,1.236,0.508,1.293    c1.021,0.17,1.652-0.503,1.699-0.993c0.035-0.366-0.434-1.501-0.434-1.501S46.934,26.668,46.605,26.914z"
   id="path58" />
		<path
   fill="#DCC392"
   d="M47.377,16.667c-0.291-0.145-1.092-0.199-1.43-0.086c-0.33,0.111-1.031,0.703-0.928,1.036    c0.305,0.987,1.191,1.251,1.648,1.072c0.262-0.102,0.787-0.66,1.025-0.923c-0.055-0.322-0.111-0.657-0.164-0.967    C47.484,16.745,47.436,16.697,47.377,16.667z"
   id="path60" />
		<path
   fill="#DCC392"
   d="M28.396,15.706c-0.26,0.195-0.668,0.885-0.717,1.239c-0.051,0.344,0.166,1.237,0.508,1.294    c1.021,0.17,1.652-0.503,1.699-0.994c0.035-0.366-0.434-1.5-0.434-1.5S28.725,15.459,28.396,15.706z"
   id="path62" />
		<path
   fill="#DCC392"
   d="M17.868,31.419c0.377,0.262,0.898,0.167,1.161-0.211c0.261-0.381,0.236-0.812-0.213-1.162    c-0.388-0.08-0.982-0.043-1.246,0.335C17.307,30.76,17.489,31.156,17.868,31.419z"
   id="path64" />
		<path
   fill="#DCC392"
   d="M36.418,28.916c0.344-0.135,1.148-1.063,1.148-1.063s-0.072-0.777-0.439-0.961    c-0.291-0.145-1.092-0.199-1.43-0.086c-0.33,0.111-1.031,0.703-0.928,1.037C35.074,28.83,35.961,29.094,36.418,28.916z"
   id="path66" />
		<path
   fill="#DCC392"
   d="M37.328,23.871c0,0-0.729-0.287-1.057-0.039c-0.26,0.195-0.668,0.885-0.717,1.238    c-0.051,0.345,0.166,1.237,0.508,1.295c1.021,0.17,1.652-0.504,1.699-0.994C37.797,25.005,37.328,23.871,37.328,23.871z"
   id="path68" />
		<path
   fill="#DCC392"
   d="M23.46,18.65c0.182,0.166,0.457,0.379,0.71,0.394c0.324,0.02,0.826-0.37,1.093-0.607    c0.26-0.231,0.672-1.051,0.45-1.316c-0.133-0.158-0.25-0.272-0.361-0.365c-0.316,0.317-0.634,0.635-0.953,0.954    C24.087,18.022,23.773,18.337,23.46,18.65z"
   id="path70" />
		<path
   fill="#DCC392"
   d="M26.501,16.823c0.487-0.074,1.211-0.021,0.981-1.029c-0.051-0.226-0.18-0.518-0.391-0.785    c-0.487,0.491-0.978,0.984-1.473,1.48C25.951,16.674,26.323,16.85,26.501,16.823z"
   id="path72" />
		<path
   fill="#DCC392"
   d="M26.75,17.17c-0.364,0.159-0.827,0.532-0.824,0.993c0.004,0.461,0.38,0.68,0.842,0.676    c0.459-0.004,0.83-0.381,0.826-0.842C27.588,17.535,27.318,17.198,26.75,17.17z"
   id="path74" />
		<path
   fill="#DCC392"
   d="M8.045,13.403c-0.268,0.292-0.542,0.821-0.353,1.241c0.19,0.42,0.623,0.469,1.043,0.278    c0.418-0.189,0.605-0.685,0.416-1.104C8.959,13.398,8.576,13.198,8.045,13.403z"
   id="path76" />
		<path
   fill="#DCC392"
   d="M7.163,25.056c-0.14,0.371-0.197,0.963,0.135,1.282c0.333,0.319,0.753,0.203,1.071-0.131    c0.318-0.331,0.307-0.86-0.026-1.179C8.009,24.711,7.579,24.668,7.163,25.056z"
   id="path78" />
		<path
   fill="#DCC392"
   d="M9.792,13.8c1.003-0.257,1.308-1.128,1.153-1.595c-0.116-0.349-1.003-1.197-1.003-1.197    S9.16,11.039,8.96,11.398c-0.159,0.284-0.253,1.08-0.155,1.423C8.897,13.156,9.457,13.885,9.792,13.8z"
   id="path80" />
		<path
   fill="#DCC392"
   d="M6.986,11.101c-0.472,0.173-1.211,0.402-1.266,0.723c-0.069,0.406,0.27,1.311,0.27,1.311    s1.378,0.249,1.688,0.05c0.415-0.265,1.1-0.509,0.481-1.337C7.953,11.569,7.538,11.21,6.986,11.101z"
   id="path82" />
		<path
   fill="#DCC392"
   d="M7.629,17.687c0.472,0.173,0.911,0.177,1.16-0.031c0.316-0.264,0.814-1.109,0.814-1.109    s-0.889-1.081-1.254-1.131c-0.488-0.066-1.168-0.324-1.234,0.708C7.092,16.471,7.278,17.248,7.629,17.687z"
   id="path84" />
		<path
   fill="#DCC392"
   d="M7.986,3.226c0,0,0.623,0.418,1.026,0.338c0.319-0.062,0.707-0.566,0.905-0.863    c0.194-0.289,0.387-1.187,0.105-1.387C9.577,1,9.297,0.898,9.005,0.956C8.59,1.254,8.237,1.717,7.91,2.426    C7.929,2.839,7.986,3.226,7.986,3.226z"
   id="path86" />
		<path
   fill="#DCC392"
   d="M9.407,22.863c-0.238-0.281-1.377-0.737-1.377-0.737s-0.713,0.322-0.766,0.729    c-0.042,0.322,0.168,1.097,0.387,1.378c0.211,0.276,1.001,0.745,1.281,0.54C9.767,24.161,9.725,23.239,9.407,22.863z"
   id="path88" />
		<path
   fill="#DCC392"
   d="M11.148,15.99c0.26-0.261,0.622-1.435,0.622-1.435s-0.38-0.683-0.79-0.702    c-0.325-0.015-1.08,0.259-1.343,0.5c-0.257,0.235-0.659,1.06-0.43,1.322C9.884,16.455,10.802,16.338,11.148,15.99z"
   id="path90" />
		<path
   fill="#DCC392"
   d="M11.89,0.449c-0.005,0.07-0.015,0.147-0.008,0.202c0.037,0.346,0.471,1.155,0.816,1.125    c0.962-0.085,1.405-0.793,1.397-1.283C13.256,0.497,12.524,0.467,11.89,0.449z"
   id="path92" />
		<path
   fill="#DCC392"
   d="M13.861,2.02c-0.318-0.067-1.107,0.081-1.405,0.276c-0.292,0.19-0.822,0.939-0.638,1.235    c0.543,0.879,1.468,0.912,1.865,0.624c0.299-0.216,0.845-1.315,0.845-1.315S14.263,2.105,13.861,2.02z"
   id="path94" />
		<path
   fill="#DCC392"
   d="M8.195,26.811c-0.478,0.12-1.204,0.136-0.882,1.117c0.023,0.07,0.069,0.159,0.121,0.252    c0.356-0.421,0.731-0.864,1.124-1.324C8.408,26.813,8.277,26.791,8.195,26.811z"
   id="path96" />
		<path
   fill="#DCC392"
   d="M6.74,24.991c0.287-0.4,0.832-0.882-0.051-1.42c-0.296-0.183-0.814-0.36-1.367-0.256    c-0.373,0.337-0.974,0.825-0.905,1.144c0.088,0.402,0.739,1.116,0.739,1.116S6.527,25.291,6.74,24.991z"
   id="path98" />
		<path
   fill="#DCC392"
   d="M11.013,3.138c-0.471-0.145-1.1-0.508-1.332,0.5c-0.078,0.338-0.02,1.135,0.256,1.625    c0.437,0.247,0.87,0.322,1.149,0.156c0.354-0.209,0.982-0.963,0.982-0.963S11.365,3.246,11.013,3.138z"
   id="path100" />
		<path
   fill="#DCC392"
   d="M10.053,24.38c-0.307,0.107-0.905,0.643-1.06,0.964c-0.108,0.226-0.169,0.756-0.083,1.099    c0.541-0.635,1.108-1.296,1.695-1.978C10.424,24.381,10.219,24.322,10.053,24.38z"
   id="path102" />
		<path
   fill="#DCC392"
   d="M6.404,25.764c-1.033-0.074-1.166,0.186-1.599,1.148c-0.15,0.336,0.846,1.54,0.846,1.54    s0.75,0.035,1.053-0.242c0.241-0.218,0.312-0.85,0.329-1.206C7.047,26.656,6.748,25.789,6.404,25.764z"
   id="path104" />
		<path
   fill="#DCC392"
   d="M12.063,1.69c-0.121-0.444-0.467-0.704-1.024-0.588c-0.312,0.246-0.667,0.723-0.548,1.168    c0.12,0.445,0.539,0.563,0.984,0.442C11.917,2.594,12.182,2.135,12.063,1.69z"
   id="path106" />
		<path
   fill="#DCC392"
   d="M9.555,0.666c0.412,0.12,0.955,0.249,1.155,0.163c0.241-0.104,0.552-0.192,0.722-0.389    C10.684,0.431,10.073,0.472,9.555,0.666z"
   id="path108" />
		<path
   fill="#DCC392"
   d="M5.375,15.991c0,0,0.683,0.312,1.067,0.168c0.305-0.113,0.606-0.672,0.755-0.998    c0.145-0.317,0.19-1.233-0.12-1.385c-0.871-0.423-1.125-0.278-1.776,0.342c-0.052,0.303-0.105,0.62-0.159,0.937    C5.226,15.514,5.375,15.991,5.375,15.991z"
   id="path110" />
		<path
   fill="#DCC392"
   d="M33.316,9.154c-0.346,0.127-0.514,1.68-0.514,1.68s0.498,0.563,0.908,0.586    c0.324,0.02,0.826-0.371,1.094-0.607c0.26-0.232,0.672-1.052,0.449-1.316C34.586,8.706,34.309,8.791,33.316,9.154z"
   id="path112" />
		<path
   fill="#DCC392"
   d="M36.291,9.545c-0.363,0.16-0.826,0.533-0.824,0.993c0.004,0.462,0.381,0.681,0.842,0.675    c0.459-0.004,0.83-0.381,0.826-0.842C37.129,9.911,36.859,9.573,36.291,9.545z"
   id="path114" />
		<path
   fill="#DCC392"
   d="M36.252,7.012c-0.502-0.032-1.27-0.122-1.449,0.149C34.574,7.506,34.52,8.47,34.52,8.47    s1.16,0.784,1.523,0.728c0.486-0.074,1.211-0.021,0.98-1.028C36.947,7.83,36.713,7.334,36.252,7.012z"
   id="path116" />
		<path
   fill="#DCC392"
   d="M35.252,13.736c0.396-0.113,1.193-0.686,1.193-0.686s-0.377-1.348-0.689-1.541    c-0.42-0.258-0.938-0.768-1.416,0.148c-0.16,0.309-0.305,1.094-0.16,1.639C34.541,13.644,34.941,13.826,35.252,13.736z"
   id="path118" />
		<path
   fill="#DCC392"
   d="M38.084,13.166c0.344-0.135,1.148-1.063,1.148-1.063s-0.072-0.777-0.439-0.961    c-0.291-0.145-1.092-0.199-1.43-0.086c-0.33,0.111-1.031,0.703-0.928,1.037C36.74,13.08,37.627,13.344,38.084,13.166z"
   id="path120" />
		<path
   fill="#DCC392"
   d="M38.994,8.121c0,0-0.729-0.287-1.057-0.039c-0.26,0.195-0.668,0.885-0.717,1.238    c-0.051,0.345,0.166,1.237,0.508,1.295c1.021,0.17,1.652-0.504,1.699-0.994C39.463,9.255,38.994,8.121,38.994,8.121z"
   id="path122" />
		<path
   fill="#DCC392"
   d="M18.486,8.343c-0.353-0.105-1.418,1.036-1.418,1.036s0.062,0.749,0.375,1.014    c0.248,0.21,0.884,0.198,1.24,0.17c0.347-0.03,1.168-0.439,1.149-0.784C19.771,8.745,19.497,8.646,18.486,8.343z"
   id="path124" />
		<path
   fill="#DCC392"
   d="M20.632,10.439c-0.387-0.09-0.981-0.069-1.255,0.3c-0.274,0.372-0.104,0.773,0.269,1.045    c0.37,0.272,0.893,0.193,1.166-0.178C21.083,11.235,21.07,10.802,20.632,10.439z"
   id="path126" />
		<path
   fill="#DCC392"
   d="M22.12,8.389c-0.382-0.327-0.944-0.86-1.25-0.75c-0.388,0.138-1.011,0.877-1.011,0.877    s0.459,1.324,0.784,1.497c0.434,0.232,0.981,0.71,1.401-0.235C22.186,9.46,22.295,8.923,22.12,8.389z"
   id="path128" />
		<path
   fill="#DCC392"
   d="M17.287,13.17c0.385,0.147,1.366,0.167,1.366,0.167s0.507-1.305,0.372-1.647    c-0.181-0.458-0.29-1.176-1.222-0.729c-0.313,0.151-0.899,0.692-1.111,1.215C16.773,12.67,16.984,13.055,17.287,13.17z"
   id="path130" />
		<path
   fill="#DCC392"
   d="M19.895,14.412c0.356,0.099,1.556-0.161,1.556-0.161s0.409-0.666,0.225-1.033    c-0.146-0.29-0.754-0.814-1.092-0.926c-0.331-0.109-1.247-0.056-1.364,0.273C18.872,13.537,19.423,14.28,19.895,14.412z"
   id="path132" />
		<path
   fill="#DCC392"
   d="M23.649,10.921c0,0-0.411-0.667-0.822-0.665c-0.325,0.001-1.065,0.308-1.316,0.561    c-0.248,0.246-0.609,1.09-0.37,1.341c0.715,0.749,1.625,0.588,1.956,0.224C23.344,12.109,23.649,10.921,23.649,10.921z"
   id="path134" />
	</g>
	<path
   fill="none"
   stroke="#001423"
   stroke-width="0.625"
   d="M3.85,32.387C13.074,19.66,25.595,10.42,32.338,0.467 M10.435,32.626   C19.658,19.898,32.24,10.42,38.982,0.467 M14.324,20.164l3.578,3.179"
   id="path136" />
	
		<path
   id="colar_outline"
   inkscape:connector-curvature="0"
   sodipodi:nodetypes="cc"
   fill="none"
   stroke="#001423"
   stroke-width="0.625"
   d="   M23.338,10.727c-3.203-2.299-6.886-7.962-8.579-10.261" />
	<g
   id="belt_outline"
   inkscape:connector-curvature="0"
   sodipodi:nodetypes="cc">
		<path
   fill="#001423"
   d="M2.097,31.805c1.998,0.212,3.986,0.397,5.986,0.561c1.998,0.156,4.001,0.236,6.003,0.322    c4.005,0.161,8.015,0.222,12.024,0.229c4.009-0.015,8.021-0.034,12.026-0.263c4.006-0.199,8.01-0.419,12.011-0.707l0.041,0.623    c-4.004,0.291-8.011,0.599-12.026,0.729c-4.016,0.085-8.027,0.36-12.048,0.391c-4.02,0.113-8.041-0.09-12.054-0.293    c-4.013-0.245-8.02-0.527-12.038-0.685L2.097,31.805z"
   id="path140" />
	</g>
	<g
   id="wrinkles_2">
		<g
   id="path4114"
   inkscape:connector-curvature="0"
   sodipodi:nodetypes="cc">
			<path
   fill="#001423"
   d="M4.265,35.081c0.914-0.086,1.694,0.145,2.536,0.283c0.838,0.099,1.682,0.141,2.526,0.14     c0.844-0.003,1.689-0.026,2.538-0.056c0.853,0.019,1.702-0.051,2.565-0.025c0.021,0.001,0.038,0.018,0.037,0.039     c0,0.016-0.014,0.03-0.027,0.035c-0.822,0.319-1.672,0.466-2.528,0.597c-0.858,0.107-1.729,0.054-2.593,0.01     c-0.864-0.024-1.729-0.093-2.586-0.219c-0.853-0.084-1.752-0.189-2.486-0.731c-0.018-0.012-0.023-0.037-0.011-0.056     C4.243,35.089,4.254,35.082,4.265,35.081z"
   id="path144" />
		</g>
		<path
   id="path4116"
   inkscape:connector-curvature="0"
   sodipodi:nodetypes="cccc"
   d="M1.09,38.921l-0.217,1.146    c3.581,1.059,7.21,1.581,10.607,1.399c0.754-0.041,0.794-0.211,1.532-0.249c-1.046-0.168-2.733-0.367-2.733-0.367    s-1.929-0.024-3.518-0.313c-0.992-0.182-4.393-0.995-4.393-0.995L1.09,38.921z" />
		<g
   id="g147">
			<path
   fill="#001423"
   d="M17.737,39.306c1.956,0.134,3.914,0.254,5.87,0.354c0.978,0.061,1.958,0.066,2.931,0.16     c0.976,0.107,1.945,0.075,2.91,0.016c1.948,0.01,3.918,0.013,5.87-0.145c1.955-0.131,3.912-0.256,5.861-0.461     c0.044-0.005,0.082,0.026,0.087,0.069c0.004,0.042-0.025,0.08-0.066,0.086l-0.005,0.001c-1.942,0.296-3.893,0.513-5.843,0.735     c-1.951,0.232-3.907,0.391-5.883,0.419c-1.995-0.072-3.95-0.119-5.903-0.372c-1.952-0.213-3.9-0.445-5.846-0.691     c-0.048-0.006-0.082-0.049-0.075-0.097C17.651,39.336,17.692,39.303,17.737,39.306z"
   id="path149" />
		</g>
		<g
   id="g151">
			<path
   fill="#001423"
   d="M30.479,36.226c0.834-0.12,1.67-0.178,2.505-0.25c0.835-0.087,1.671-0.124,2.507-0.154l2.508-0.097     l2.498-0.19c1.644-0.152,3.299-0.349,4.956-0.601c1.647-0.288,3.293-0.618,4.854-1.389l0.196,1.109     c-1.64,0.361-3.288,0.663-4.945,0.92c-1.654,0.266-3.319,0.514-5.009,0.691c-0.839,0.089-1.676,0.155-2.514,0.211     c-0.84,0.018-1.677,0.061-2.517,0.047c-1.679-0.007-3.356-0.043-5.035-0.132L30.479,36.226z"
   id="path153" />
		</g>
	</g>
	<g
   id="wrinkles_1">
		<g
   id="g156">
			<path
   fill="#001423"
   d="M37.352,32.665c0.044-0.476,0.137-1.015,0.276-1.483c0.138-0.482,0.319-0.947,0.533-1.392     c0.435-0.888,0.98-1.7,1.655-2.408c0.044-0.046,0.117-0.047,0.163-0.003c0.042,0.04,0.047,0.104,0.014,0.15l-0.005,0.007     c-0.549,0.753-0.971,1.61-1.261,2.483c-0.144,0.438-0.252,0.886-0.316,1.334c-0.068,0.462-0.086,0.873-0.067,1.351     c0.01,0.275-0.204,0.506-0.479,0.517s-0.506-0.204-0.517-0.479c0-0.021,0-0.041,0.002-0.062L37.352,32.665z"
   id="path158" />
		</g>
		<g
   id="g160">
			<path
   fill="#001423"
   d="M23.918,32.747c0.058-0.574,0.18-1.144,0.27-1.715c0.127-0.569,0.229-1.14,0.396-1.705     c0.02-0.067,0.091-0.105,0.158-0.086c0.051,0.015,0.085,0.059,0.091,0.107c0.069,0.585,0.074,1.165,0.104,1.746     c-0.008,0.579,0.018,1.16-0.022,1.736c-0.019,0.275-0.257,0.483-0.533,0.465s-0.484-0.257-0.465-0.532     C23.917,32.759,23.918,32.752,23.918,32.747z"
   id="path162" />
		</g>
		<g
   id="g164">
			<path
   fill="#001423"
   d="M9.696,24.493c-0.053-0.172-0.083-0.283-0.149-0.419c-0.061-0.134-0.134-0.265-0.22-0.389     c-0.168-0.25-0.386-0.489-0.621-0.678L8.696,23c-0.057-0.046-0.066-0.129-0.02-0.186c0.039-0.049,0.106-0.063,0.16-0.037     c0.318,0.153,0.597,0.348,0.857,0.588c0.129,0.119,0.25,0.25,0.361,0.394c0.113,0.138,0.218,0.324,0.292,0.451     c0.098,0.171,0.039,0.389-0.131,0.487c-0.171,0.099-0.389,0.039-0.487-0.131C9.715,24.544,9.704,24.516,9.696,24.493z"
   id="path166" />
		</g>
		<g
   id="g168">
			<path
   fill="#001423"
   d="M19.02,14.854c-0.356-0.624-0.707-1.302-1.003-1.968c-0.298-0.678-0.567-1.356-0.754-2.087     c-0.025-0.098,0.034-0.198,0.132-0.223c0.089-0.022,0.18,0.024,0.215,0.107l0.005,0.012c0.269,0.641,0.629,1.271,1.005,1.87     c0.387,0.607,0.787,1.166,1.237,1.741c0.17,0.218,0.132,0.533-0.086,0.704c-0.218,0.17-0.534,0.132-0.705-0.086     c-0.015-0.019-0.027-0.038-0.039-0.058L19.02,14.854z"
   id="path170" />
		</g>
	</g>
	<path
   fill="#001423"
   d="M32.393,0.566H19.975l0.518,0.794c1.489,2.048,3.03,4.165,5.943,6.257L32.393,0.566z"
   id="path172" />
	<path
   fill="#DCC392"
   d="M25.063,5.157c0.25,0.517,0.875,0.969,1.546,1.452c1.547-0.983,3.204-3.702,3.204-3.702   S27.125,4.469,25.063,5.157z"
   id="path174" />
	<path
   fill="#DCC392"
   d="M24.625,4.626c0,0-1.016-0.39-2.156-2.483c0.172,0.063,1.969,1.333,3.674,1.827   C25.354,4.559,24.625,4.626,24.625,4.626z"
   id="path176" />
	<path
   id="mask_outline"
   inkscape:connector-curvature="0"
   fill="none"
   stroke="#8F2733"
   stroke-width="0.3118"
   d="M0.201,43.346   C8.934-3.948,5.543,0.668,14.469,0.49h23.439c8.926,0.178,5.535-4.438,14.266,42.856H0.201z" />
</g>
<g
   id="legs">
	<g
   id="g180">
		<path
   id="path3037"
   connector-curvature="0"
   fill="#8F2733"
   stroke="#8F2733"
   stroke-width="0.3125"
   d="M51.853,52.117    H0.522v-7.066h51.33V52.117L51.853,52.117z" />
		<polygon
   fill="#8F2733"
   stroke="#8F2733"
   stroke-width="0.3125"
   points="34.604,57.269 29.087,57.269 23.501,57.269     15.129,57.269 0.804,57.269 0.804,99.703 23.501,99.703 23.501,81.265 29.087,81.265 29.087,99.703 51.784,99.703 51.784,57.269       "
   id="polygon183" />
	</g>
	<g
   id="right_armor_plate">
		<g
   id="g186">
			<defs
   id="defs188">
				<rect
   id="SVGID_1_"
   x="37.887"
   y="57.497"
   width="13.511"
   height="23.344" />
			</defs>
			<clipPath
   id="SVGID_2_">
				<use
   xlink:href="#SVGID_1_"
   overflow="visible"
   id="use192" />
			</clipPath>
			
				<path
   clip-path="url(#SVGID_2_)"
   fill="#A2A1A3"
   stroke="#001423"
   stroke-width="0.4252"
   stroke-linejoin="round"
   stroke-miterlimit="10"
   d="     M52.688,73.028c0,0-5.165,0.282-6.416,0.283c-1.342,0.001-5.226-0.283-5.226-0.283s-0.266-5.743-0.398-7.655     c-0.146-2.104-0.877-8.124-0.877-8.124h12.917V73.028z"
   id="path194" />
		</g>
		<g
   id="g196">
			<defs
   id="defs198">
				<path
   id="SVGID_3_"
   d="M51.412,57.674H40.055c0,0,0.73,6.02,0.877,8.124c0.133,1.912,0.398,7.655,0.398,7.655l0.708,4.342h9.374      V57.674z" />
			</defs>
			<clipPath
   id="SVGID_4_">
				<use
   xlink:href="#SVGID_3_"
   overflow="visible"
   id="use202" />
			</clipPath>
			<g
   clip-path="url(#SVGID_4_)"
   id="g204">
				<path
   fill="none"
   stroke="#BA7B49"
   stroke-width="0.9921"
   stroke-linejoin="round"
   stroke-miterlimit="10"
   d="M40.209,61.961      l1.313-0.733c0,0,0.983,0.671,1.608,0.671c0.813,0,1.829-0.671,1.829-0.671l1.024,0.671l1.023-0.671      c0,0,1.017,0.671,1.829,0.671c0.625,0,1.608-0.671,1.608-0.671l1.313,0.733"
   id="path206" />
				<path
   fill="none"
   stroke="#BA7B49"
   stroke-width="0.9921"
   stroke-linejoin="round"
   stroke-miterlimit="10"
   d="M40.209,66.991      l1.313-0.733c0,0,0.983,0.671,1.608,0.671c0.813,0,1.829-0.671,1.829-0.671l1.024,0.671l1.023-0.671      c0,0,1.017,0.671,1.829,0.671c0.625,0,1.608-0.671,1.608-0.671l1.313,0.733"
   id="path208" />
				<path
   fill="none"
   stroke="#BA7B49"
   stroke-width="0.9921"
   stroke-linejoin="round"
   stroke-miterlimit="10"
   d="M40.209,72.026      l1.313-0.733c0,0,0.983,0.671,1.608,0.671c0.813,0,1.829-0.671,1.829-0.671l1.024,0.671l1.023-0.671      c0,0,1.017,0.671,1.829,0.671c0.625,0,1.608-0.671,1.608-0.671l1.313,0.733"
   id="path210" />
			</g>
			<g
   clip-path="url(#SVGID_4_)"
   id="g212">
				<path
   fill="none"
   stroke="#001423"
   stroke-width="0.3118"
   stroke-linejoin="round"
   stroke-miterlimit="10"
   d="M40.209,61.509      l1.313-0.733c0,0,0.983,0.671,1.608,0.671c0.813,0,1.829-0.671,1.829-0.671l1.024,0.671l1.023-0.671      c0,0,1.017,0.671,1.829,0.671c0.625,0,1.608-0.671,1.608-0.671l1.313,0.733 M42.678,61.321v-1.219 M43.952,60.102v1.219       M48.209,61.321v-1.219 M49.483,60.102v1.219 M42.739,59.756l1.109-1.109 M42.739,58.646l1.109,1.109 M49.396,58.647      l-1.109,1.109 M48.287,58.647l1.109,1.109"
   id="path214" />
				<path
   fill="none"
   stroke="#001423"
   stroke-width="0.3118"
   stroke-linejoin="round"
   stroke-miterlimit="10"
   d="M40.209,66.522      l1.313-0.733c0,0,0.983,0.671,1.608,0.671c0.813,0,1.829-0.671,1.829-0.671l1.024,0.671l1.023-0.671      c0,0,1.017,0.671,1.829,0.671c0.625,0,1.608-0.671,1.608-0.671l1.313,0.733 M42.678,66.335v-1.219 M43.952,65.116v1.219       M48.209,66.335v-1.219 M49.483,65.116v1.219 M42.739,64.769l1.109-1.109 M42.739,63.66l1.109,1.109 M49.396,63.661      l-1.109,1.109 M48.287,63.661l1.109,1.109"
   id="path216" />
				<path
   fill="none"
   stroke="#001423"
   stroke-width="0.3118"
   stroke-linejoin="round"
   stroke-miterlimit="10"
   d="M40.209,71.528      l1.313-0.733c0,0,0.983,0.671,1.608,0.671c0.813,0,1.829-0.671,1.829-0.671l1.024,0.671l1.023-0.671      c0,0,1.017,0.671,1.829,0.671c0.625,0,1.608-0.671,1.608-0.671l1.313,0.733 M42.678,71.341v-1.219 M43.952,70.122v1.219       M48.209,71.341v-1.219 M49.483,70.122v1.219 M42.739,69.775l1.109-1.109 M42.739,68.666l1.109,1.109 M49.396,68.667      l-1.109,1.109 M48.287,68.667l1.109,1.109"
   id="path218" />
			</g>
		</g>
	</g>
	<g
   id="mid_armor_plate_1_">
		<g
   id="mid_armor_plate">
			<defs
   id="defs222">
				<rect
   id="SVGID_5_"
   x="12.968"
   y="57.497"
   width="26.149"
   height="23.344" />
			</defs>
			<clipPath
   id="SVGID_6_">
				<use
   xlink:href="#SVGID_5_"
   overflow="visible"
   id="use226" />
			</clipPath>
			
				<path
   clip-path="url(#SVGID_6_)"
   fill="#A2A1A3"
   stroke="#001423"
   stroke-width="0.4252"
   stroke-linejoin="round"
   stroke-miterlimit="10"
   d="     M27.477,57.249h-2.868h-9.624c0,0,0.076,6.095,0.169,8.124c0.088,1.917,0.398,7.655,0.398,7.655s8.866,0.442,10.491,0.358     c1.625,0.084,10.49-0.358,10.49-0.358s0.312-5.738,0.398-7.655c0.093-2.029,0.169-8.124,0.169-8.124H27.477z"
   id="path228" />
		</g>
		<g
   id="g230">
			<defs
   id="defs232">
				<path
   id="SVGID_7_"
   d="M26.059,57.674h-0.032h-10.9c0,0,0.022,6.02,0.169,8.124c0.133,1.912,0.398,7.655,0.398,7.655      l0.991,4.342h9.342h0.032H35.4l0.991-4.342c0,0,0.266-5.743,0.398-7.655c0.146-2.104,0.169-8.124,0.169-8.124H26.059z" />
			</defs>
			<clipPath
   id="SVGID_8_">
				<use
   xlink:href="#SVGID_7_"
   overflow="visible"
   id="use236" />
			</clipPath>
			<g
   clip-path="url(#SVGID_8_)"
   id="g238">
				<path
   fill="none"
   stroke="#BA7B49"
   stroke-width="0.9921"
   stroke-linejoin="round"
   stroke-miterlimit="10"
   d="M14.717,61.961      l1.313-0.733c0,0,0.983,0.671,1.608,0.671c0.813,0,1.829-0.671,1.829-0.671l1.024,0.671l1.023-0.671      c0,0,1.017,0.671,1.829,0.671c0.625,0,1.608-0.671,1.608-0.671l1.235,0.733l1.234-0.733c0,0,0.983,0.671,1.608,0.671      c0.813,0,1.829-0.671,1.829-0.671l1.023,0.671l1.024-0.671c0,0,1.017,0.671,1.829,0.671c0.625,0,1.608-0.671,1.608-0.671      l1.313,0.733"
   id="path240" />
				<path
   fill="none"
   stroke="#BA7B49"
   stroke-width="0.9921"
   stroke-linejoin="round"
   stroke-miterlimit="10"
   d="M14.717,66.991      l1.313-0.733c0,0,0.983,0.671,1.608,0.671c0.813,0,1.829-0.671,1.829-0.671l1.024,0.671l1.023-0.671      c0,0,1.017,0.671,1.829,0.671c0.625,0,1.608-0.671,1.608-0.671l1.235,0.733l1.234-0.733c0,0,0.983,0.671,1.608,0.671      c0.813,0,1.829-0.671,1.829-0.671l1.023,0.671l1.024-0.671c0,0,1.017,0.671,1.829,0.671c0.625,0,1.608-0.671,1.608-0.671      l1.313,0.733"
   id="path242" />
				<path
   fill="none"
   stroke="#BA7B49"
   stroke-width="0.9921"
   stroke-linejoin="round"
   stroke-miterlimit="10"
   d="M14.717,72.026      l1.313-0.733c0,0,0.983,0.671,1.608,0.671c0.813,0,1.829-0.671,1.829-0.671l1.024,0.671l1.023-0.671      c0,0,1.017,0.671,1.829,0.671c0.625,0,1.608-0.671,1.608-0.671l1.235,0.733l1.234-0.733c0,0,0.983,0.671,1.608,0.671      c0.813,0,1.829-0.671,1.829-0.671l1.023,0.671l1.024-0.671c0,0,1.017,0.671,1.829,0.671c0.625,0,1.608-0.671,1.608-0.671      l1.313,0.733"
   id="path244" />
			</g>
			<g
   clip-path="url(#SVGID_8_)"
   id="g246">
				<path
   fill="none"
   stroke="#001423"
   stroke-width="0.3118"
   stroke-linejoin="round"
   stroke-miterlimit="10"
   d="M26.109,61.509      l1.313-0.733c0,0,0.983,0.671,1.608,0.671c0.813,0,1.829-0.671,1.829-0.671l1.023,0.671l1.024-0.671      c0,0,1.017,0.671,1.829,0.671c0.625,0,1.608-0.671,1.608-0.671l1.313,0.733 M35.188,60.102v1.219 M33.914,61.321v-1.219       M29.657,60.102v1.219 M28.383,61.321v-1.219 M34.018,58.646l1.109,1.109 M34.018,59.756l1.109-1.109 M29.579,59.757      l-1.109-1.109 M28.47,59.757l1.109-1.109"
   id="path248" />
				<path
   fill="none"
   stroke="#001423"
   stroke-width="0.3118"
   stroke-linejoin="round"
   stroke-miterlimit="10"
   d="M26.109,66.522      l1.313-0.733c0,0,0.983,0.671,1.608,0.671c0.813,0,1.829-0.671,1.829-0.671l1.023,0.671l1.024-0.671      c0,0,1.017,0.671,1.829,0.671c0.625,0,1.608-0.671,1.608-0.671l1.313,0.733 M35.188,65.116v1.219 M33.914,66.335v-1.219       M29.657,65.116v1.219 M28.383,66.335v-1.219 M34.018,63.66l1.109,1.109 M34.018,64.769l1.109-1.109 M29.579,64.77l-1.109-1.109       M28.47,64.77l1.109-1.109"
   id="path250" />
				<path
   fill="none"
   stroke="#001423"
   stroke-width="0.3118"
   stroke-linejoin="round"
   stroke-miterlimit="10"
   d="M26.109,71.528      l1.313-0.733c0,0,0.983,0.671,1.608,0.671c0.813,0,1.829-0.671,1.829-0.671l1.023,0.671l1.024-0.671      c0,0,1.017,0.671,1.829,0.671c0.625,0,1.608-0.671,1.608-0.671l1.313,0.733 M35.188,70.122v1.219 M33.914,71.341v-1.219       M29.657,70.122v1.219 M28.383,71.341v-1.219 M34.018,68.666l1.109,1.109 M34.018,69.775l1.109-1.109 M29.579,69.776      l-1.109-1.109 M28.47,69.776l1.109-1.109"
   id="path252" />
				<path
   fill="none"
   stroke="#001423"
   stroke-width="0.3118"
   stroke-linejoin="round"
   stroke-miterlimit="10"
   d="M14.717,61.509      l1.313-0.733c0,0,0.983,0.671,1.608,0.671c0.813,0,1.829-0.671,1.829-0.671l1.024,0.671l1.023-0.671      c0,0,1.017,0.671,1.829,0.671c0.625,0,1.608-0.671,1.608-0.671l1.313,0.733 M17.186,61.321v-1.219 M18.46,60.102v1.219       M22.717,61.321v-1.219 M23.991,60.102v1.219 M17.247,59.756l1.109-1.109 M17.247,58.646l1.109,1.109 M23.904,58.647      l-1.109,1.109 M22.795,58.647l1.109,1.109"
   id="path254" />
				<path
   fill="none"
   stroke="#001423"
   stroke-width="0.3118"
   stroke-linejoin="round"
   stroke-miterlimit="10"
   d="M14.717,66.522      l1.313-0.733c0,0,0.983,0.671,1.608,0.671c0.813,0,1.829-0.671,1.829-0.671l1.024,0.671l1.023-0.671      c0,0,1.017,0.671,1.829,0.671c0.625,0,1.608-0.671,1.608-0.671l1.313,0.733 M17.186,66.335v-1.219 M18.46,65.116v1.219       M22.717,66.335v-1.219 M23.991,65.116v1.219 M17.247,64.769l1.109-1.109 M17.247,63.66l1.109,1.109 M23.904,63.661      l-1.109,1.109 M22.795,63.661l1.109,1.109"
   id="path256" />
				<path
   fill="none"
   stroke="#001423"
   stroke-width="0.3118"
   stroke-linejoin="round"
   stroke-miterlimit="10"
   d="M14.717,71.528      l1.313-0.733c0,0,0.983,0.671,1.608,0.671c0.813,0,1.829-0.671,1.829-0.671l1.024,0.671l1.023-0.671      c0,0,1.017,0.671,1.829,0.671c0.625,0,1.608-0.671,1.608-0.671l1.313,0.733 M17.186,71.341v-1.219 M18.46,70.122v1.219       M22.717,71.341v-1.219 M23.991,70.122v1.219 M17.247,69.775l1.109-1.109 M17.247,68.666l1.109,1.109 M23.904,68.667      l-1.109,1.109 M22.795,68.667l1.109,1.109"
   id="path258" />
			</g>
		</g>
	</g>
	<g
   id="left_armor_plate">
		<g
   id="g261">
			<defs
   id="defs263">
				<rect
   id="SVGID_9_"
   x="0.971"
   y="57.496"
   width="13.513"
   height="23.344" />
			</defs>
			<clipPath
   id="SVGID_10_">
				<use
   xlink:href="#SVGID_9_"
   overflow="visible"
   id="use267" />
			</clipPath>
			
				<path
   clip-path="url(#SVGID_10_)"
   fill="#A2A1A3"
   stroke="#001423"
   stroke-width="0.4252"
   stroke-linejoin="round"
   stroke-miterlimit="10"
   d="     M-0.32,73.027c0,0,5.165,0.282,6.416,0.283c1.342,0.001,5.227-0.283,5.227-0.283s0.266-5.743,0.398-7.655     c0.146-2.104,0.877-8.124,0.877-8.124H-0.32V73.027z"
   id="path269" />
		</g>
		<g
   id="g271">
			<defs
   id="defs273">
				<path
   id="SVGID_11_"
   d="M0.957,57.673h11.359c0,0-0.731,6.02-0.877,8.124c-0.133,1.912-0.398,7.655-0.398,7.655l-0.708,4.342      H0.957V57.673z" />
			</defs>
			<clipPath
   id="SVGID_12_">
				<use
   xlink:href="#SVGID_11_"
   overflow="visible"
   id="use277" />
			</clipPath>
			<g
   clip-path="url(#SVGID_12_)"
   id="g279">
				<path
   fill="none"
   stroke="#BA7B49"
   stroke-width="0.9921"
   stroke-linejoin="round"
   stroke-miterlimit="10"
   d="M0.612,61.96      l1.313-0.733c0,0,0.983,0.671,1.608,0.671c0.813,0,1.829-0.671,1.829-0.671l1.023,0.671l1.024-0.671c0,0,1.017,0.671,1.83,0.671      c0.625,0,1.609-0.671,1.609-0.671l1.313,0.733"
   id="path281" />
				<path
   fill="none"
   stroke="#BA7B49"
   stroke-width="0.9921"
   stroke-linejoin="round"
   stroke-miterlimit="10"
   d="M0.612,66.99      l1.313-0.733c0,0,0.983,0.671,1.608,0.671c0.813,0,1.829-0.671,1.829-0.671l1.023,0.671l1.024-0.671c0,0,1.017,0.671,1.83,0.671      c0.625,0,1.609-0.671,1.609-0.671l1.313,0.733"
   id="path283" />
				<path
   fill="none"
   stroke="#BA7B49"
   stroke-width="0.9921"
   stroke-linejoin="round"
   stroke-miterlimit="10"
   d="M0.612,72.025      l1.313-0.733c0,0,0.983,0.671,1.608,0.671c0.813,0,1.829-0.671,1.829-0.671l1.023,0.671l1.024-0.671c0,0,1.017,0.671,1.83,0.671      c0.625,0,1.609-0.671,1.609-0.671l1.313,0.733"
   id="path285" />
			</g>
			<g
   clip-path="url(#SVGID_12_)"
   id="g287">
				<path
   fill="none"
   stroke="#001423"
   stroke-width="0.3118"
   stroke-linejoin="round"
   stroke-miterlimit="10"
   d="M0.612,61.508      l1.313-0.733c0,0,0.983,0.671,1.608,0.671c0.813,0,1.829-0.671,1.829-0.671l1.023,0.671l1.024-0.671c0,0,1.017,0.671,1.83,0.671      c0.625,0,1.609-0.671,1.609-0.671l1.313,0.733 M9.692,60.101v1.219 M8.417,61.32v-1.219 M4.16,60.101v1.219 M2.885,61.32v-1.219       M8.521,58.645l1.11,1.109 M8.521,59.755l1.11-1.109 M4.082,59.756l-1.109-1.109 M2.972,59.756l1.109-1.109"
   id="path289" />
				<path
   fill="none"
   stroke="#001423"
   stroke-width="0.3118"
   stroke-linejoin="round"
   stroke-miterlimit="10"
   d="M0.612,66.521      l1.313-0.733c0,0,0.983,0.671,1.608,0.671c0.813,0,1.829-0.671,1.829-0.671l1.023,0.671l1.024-0.671c0,0,1.017,0.671,1.83,0.671      c0.625,0,1.609-0.671,1.609-0.671l1.313,0.733 M9.692,65.115v1.219 M8.417,66.334v-1.219 M4.16,65.115v1.219 M2.885,66.334      v-1.219 M8.521,63.659l1.11,1.109 M8.521,64.768l1.11-1.109 M4.082,64.769L2.972,63.66 M2.972,64.769l1.109-1.109"
   id="path291" />
				<path
   fill="none"
   stroke="#001423"
   stroke-width="0.3118"
   stroke-linejoin="round"
   stroke-miterlimit="10"
   d="M0.612,71.527      l1.313-0.733c0,0,0.983,0.671,1.608,0.671c0.813,0,1.829-0.671,1.829-0.671l1.023,0.671l1.024-0.671c0,0,1.017,0.671,1.83,0.671      c0.625,0,1.609-0.671,1.609-0.671l1.313,0.733 M9.692,70.121v1.219 M8.417,71.34v-1.219 M4.16,70.121v1.219 M2.885,71.34v-1.219       M8.521,68.665l1.11,1.109 M8.521,69.774l1.11-1.109 M4.082,69.775l-1.109-1.109 M2.972,69.775l1.109-1.109"
   id="path293" />
			</g>
		</g>
	</g>
	<g
   id="belt_armor">
		<g
   id="plates">
			<defs
   id="defs297">
				<rect
   id="SVGID_13_"
   x="0.974"
   y="45.366"
   width="50.359"
   height="6.431" />
			</defs>
			<clipPath
   id="SVGID_14_">
				<use
   xlink:href="#SVGID_13_"
   overflow="visible"
   id="use301" />
			</clipPath>
			
				<path
   clip-path="url(#SVGID_14_)"
   fill="#A2A1A3"
   stroke="#001423"
   stroke-width="0.4252"
   stroke-linejoin="round"
   stroke-miterlimit="10"
   d="     M52.691,52.396l-13.457-0.003l-0.877-7.274h14.334V52.396z M27.479,45.119h-2.868h-9.624l0.169,8.124h21.778l0.169-8.124H27.479z      M-0.317,52.395l13.459-0.003l0.877-7.274H-0.317V52.395z"
   id="path303" />
		</g>
		<g
   id="right_armor_details">
			<defs
   id="defs306">
				<polygon
   id="SVGID_15_"
   points="51.273,45.544 38.641,45.544 39.518,52.535 51.273,52.487     " />
			</defs>
			<clipPath
   id="SVGID_16_">
				<use
   xlink:href="#SVGID_15_"
   overflow="visible"
   id="use310" />
			</clipPath>
			<g
   clip-path="url(#SVGID_16_)"
   id="g312">
				<path
   fill="none"
   stroke="#BA7B49"
   stroke-width="0.9921"
   stroke-linejoin="round"
   stroke-miterlimit="10"
   d="M38.513,49.123      l1.781,0.725l1.23-0.75c0,0,0.983,0.671,1.608,0.671c0.813,0,1.829-0.671,1.829-0.671l1.024,0.671l1.023-0.671      c0,0,1.017,0.671,1.829,0.671c0.625,0,1.608-0.671,1.608-0.671l1.313,0.733"
   id="path314" />
				<path
   fill="none"
   stroke="#001423"
   stroke-width="0.3118"
   stroke-linejoin="round"
   stroke-miterlimit="10"
   d="M38.654,48.529      l1.567,0.907l1.303-0.791c0,0,0.983,0.671,1.608,0.671c0.813,0,1.829-0.671,1.829-0.671l1.024,0.671l1.023-0.671      c0,0,1.017,0.671,1.829,0.671c0.625,0,1.608-0.671,1.608-0.671l1.313,0.733 M42.681,49.191v-1.219 M43.955,47.972v1.219       M48.212,49.191v-1.219 M49.486,47.972v1.219 M42.742,47.626l1.109-1.109 M42.742,46.516l1.109,1.109 M49.399,46.517      l-1.109,1.109 M48.29,46.517l1.109,1.109"
   id="path316" />
			</g>
		</g>
		<g
   id="mid_armor_details">
			<g
   id="g319">
				<defs
   id="defs321">
					<polygon
   id="SVGID_17_"
   points="26.062,45.544 26.029,45.544 15.129,45.544 15.298,53.668 36.793,53.668 36.962,45.544             " />
				</defs>
				<clipPath
   id="SVGID_18_">
					<use
   xlink:href="#SVGID_17_"
   overflow="visible"
   id="use325" />
				</clipPath>
				<g
   clip-path="url(#SVGID_18_)"
   id="g327">
					<path
   fill="none"
   stroke="#BA7B49"
   stroke-width="0.9921"
   stroke-linejoin="round"
   stroke-miterlimit="10"
   d="M14.72,49.831       l1.313-0.733c0,0,0.983,0.671,1.608,0.671c0.813,0,1.829-0.671,1.829-0.671l1.024,0.671l1.023-0.671       c0,0,1.017,0.671,1.829,0.671c0.625,0,1.608-0.671,1.608-0.671l1.235,0.733l1.234-0.733c0,0,0.983,0.671,1.608,0.671       c0.813,0,1.829-0.671,1.829-0.671l1.023,0.671l1.024-0.671c0,0,1.017,0.671,1.829,0.671c0.625,0,1.608-0.671,1.608-0.671       l1.313,0.733"
   id="path329" />
				</g>
				<g
   clip-path="url(#SVGID_18_)"
   id="g331">
					<path
   fill="none"
   stroke="#001423"
   stroke-width="0.3118"
   stroke-linejoin="round"
   stroke-miterlimit="10"
   d="M26.112,49.379       l1.313-0.733c0,0,0.983,0.671,1.608,0.671c0.813,0,1.829-0.671,1.829-0.671l1.023,0.671l1.024-0.671       c0,0,1.017,0.671,1.829,0.671c0.625,0,1.608-0.671,1.608-0.671l1.313,0.733 M35.191,47.972v1.219 M33.917,49.191v-1.219        M29.66,47.972v1.219 M28.386,49.191v-1.219 M34.021,46.516l1.109,1.109 M34.021,47.626l1.109-1.109 M29.582,47.627       l-1.109-1.109 M28.473,47.627l1.109-1.109"
   id="path333" />
					<path
   fill="none"
   stroke="#001423"
   stroke-width="0.3118"
   stroke-linejoin="round"
   stroke-miterlimit="10"
   d="M14.72,49.379       l1.313-0.733c0,0,0.983,0.671,1.608,0.671c0.813,0,1.829-0.671,1.829-0.671l1.024,0.671l1.023-0.671       c0,0,1.017,0.671,1.829,0.671c0.625,0,1.608-0.671,1.608-0.671l1.313,0.733 M17.188,49.191v-1.219 M18.463,47.972v1.219        M22.72,49.191v-1.219 M23.994,47.972v1.219 M17.25,47.626l1.109-1.109 M17.25,46.516l1.109,1.109 M23.907,46.517l-1.109,1.109        M22.798,46.517l1.109,1.109"
   id="path335" />
				</g>
			</g>
		</g>
		<g
   id="left_armor_details">
			<defs
   id="defs338">
				<polygon
   id="SVGID_19_"
   points="1.098,45.543 13.734,45.543 12.857,52.534 1.098,52.486     " />
			</defs>
			<clipPath
   id="SVGID_20_">
				<use
   xlink:href="#SVGID_19_"
   overflow="visible"
   id="use342" />
			</clipPath>
			<g
   clip-path="url(#SVGID_20_)"
   id="g344">
				<path
   fill="none"
   stroke="#BA7B49"
   stroke-width="0.9921"
   stroke-linejoin="round"
   stroke-miterlimit="10"
   d="M0.612,49.83      l1.313-0.733c0,0,0.983,0.671,1.608,0.671c0.813,0,1.829-0.671,1.829-0.671l1.024,0.671l1.025-0.671c0,0,1.017,0.671,1.83,0.671      c0.625,0,1.609-0.671,1.609-0.671l1.231,0.75l1.782-0.725"
   id="path346" />
				<path
   fill="none"
   stroke="#001423"
   stroke-width="0.3118"
   stroke-linejoin="round"
   stroke-miterlimit="10"
   d="M0.612,49.378      l1.313-0.733c0,0,0.983,0.671,1.608,0.671c0.813,0,1.829-0.671,1.829-0.671l1.024,0.671l1.025-0.671c0,0,1.017,0.671,1.83,0.671      c0.625,0,1.609-0.671,1.609-0.671l1.303,0.791l1.568-0.907 M9.692,47.971v1.219 M8.418,49.19v-1.219 M4.16,47.971v1.219       M2.885,49.19v-1.219 M8.521,46.515l1.109,1.109 M8.521,47.625l1.109-1.109 M4.082,47.626l-1.109-1.109 M2.972,47.626      l1.109-1.109"
   id="path348" />
			</g>
		</g>
	</g>
</g>
</svg>