<?xml version="1.0" encoding="utf-8"?>
<!-- Generator: Adobe Illustrator 15.1.0, SVG Export Plug-In . SVG Version: 6.00 Build 0)  -->
<!DOCTYPE svg PUBLIC "-//W3C//DTD SVG 1.1//EN" "http://www.w3.org/Graphics/SVG/1.1/DTD/svg11.dtd">
<svg version="1.1" xmlns="http://www.w3.org/2000/svg" xmlns:xlink="http://www.w3.org/1999/xlink" x="0px" y="0px"
	 width="56.693px" height="96.378px" viewBox="0 0 56.693 96.378" enable-background="new 0 0 56.693 96.378" xml:space="preserve">
<g id="Leg_Left">
	<rect x="3.337" y="53.688" fill="#FFCD03" stroke="#FFCD03" stroke-miterlimit="10" width="22.467" height="41.754"/>
	<g>
		<defs>
			<rect id="SVGID_1_" x="2.723" y="53.165" width="23.699" height="42.443"/>
		</defs>
		<clipPath id="SVGID_2_">
			<use xlink:href="#SVGID_1_"  overflow="visible"/>
		</clipPath>
		<path clip-path="url(#SVGID_2_)" fill="#ED1C24" stroke="#001423" stroke-width="0.7087" stroke-miterlimit="10" d="
			M51.647,73.666c0,0-42.125,6.207-50.987-2.964c-3.797-3.929,0-19.064,0-19.064h50.987V73.666z"/>
	</g>
	<g id="Shadows">
		<path fill="#BE2826" d="M11.803,74.372c0.103-1.283,0.399-1.641,0.194-3.437c-0.179-1.579-0.851-3.207-0.81-4.226
			c0.038-0.916,1.161-4.59,1.303-4.545c0.159,0.051-0.061,3.817-0.021,4.668c0.042,0.914,1.017,3.006,1.17,4.596
			c0.04,0.415,0.318,3.252,0.318,3.252L11.803,74.372z"/>
		<path fill="#BE2826" d="M7.831,64.256c-0.267-0.074-0.621,1.185-0.835,2.793c-0.114,0.856,0.137,2.209,0.107,2.737
			C7,71.582,6.405,72.997,6.405,72.997l1.847,0.646c0,0,0.165-2.456,0.184-3.396c0.016-0.759-0.265-2.106-0.57-3.332
			C7.517,65.504,8.06,64.319,7.831,64.256z"/>
		<path fill="#BE2826" d="M26.465,55.258c0,0-4.54,0.225-7.438,0.166c-3.085-0.063-12.105-2.064-12.105-2.064
			s9.189,0.628,12.254,0.697c2.711,0.061,7.289-0.174,7.289-0.174V55.258z"/>
		<path fill="#BE2826" d="M26.465,57.7c0,0-4.54,0.399-7.438,0.34c-3.085-0.062-10.931-2.101-11.028-2.924
			c-0.039-0.326,7.938,1.836,11.002,1.906c2.711,0.061,7.463-0.698,7.463-0.698V57.7z"/>
		<path fill="#BE2826" d="M4.376,61.407c-0.211-0.022,0.284-2.402,0.237-2.781C4.54,58.016,5.347,56.3,5.51,56.296
			c0.383-0.012-0.28,1.955-0.266,2.337C5.297,59.977,4.67,61.44,4.376,61.407z"/>
	</g>
	<g id="Groin_Protection">
		<g>
			<polyline fill="#692E14" stroke="#001423" stroke-width="0.2835" stroke-miterlimit="10" points="24.709,53.157 24.709,66.361 
				22.686,67.581 20.605,66.361 20.605,53.157 			"/>
			<circle fill="#FBAB18" stroke="#001423" stroke-width="0.2835" stroke-miterlimit="10" cx="22.657" cy="55.152" r="1.23"/>
			<circle fill="#FBAB18" stroke="#001423" stroke-width="0.2835" stroke-miterlimit="10" cx="22.657" cy="58.119" r="1.23"/>
			<circle fill="#FBAB18" stroke="#001423" stroke-width="0.2835" stroke-miterlimit="10" cx="22.657" cy="61.086" r="1.23"/>
			<circle fill="#FBAB18" stroke="#001423" stroke-width="0.2835" stroke-miterlimit="10" cx="22.657" cy="64.052" r="1.23"/>
			<circle fill="none" stroke="#001423" stroke-width="0.2835" stroke-miterlimit="10" cx="22.657" cy="68.601" r="1.077"/>
			<path fill="#FBAB18" stroke="#001423" stroke-width="0.2835" stroke-miterlimit="10" d="M23.887,70.949
				c0-0.68-0.55-1.23-1.229-1.23c-0.68,0-1.23,0.551-1.23,1.23c0,0.55,0.192,1,0.69,1.157l0.516,0.981l0.565-0.981
				C23.695,71.949,23.887,71.5,23.887,70.949z"/>
		</g>
		<g>
			<polyline fill="#692E14" stroke="#001423" stroke-width="0.2835" stroke-miterlimit="10" points="19.477,53.26 19.477,66.464 
				17.454,67.684 15.374,66.464 15.374,53.26 			"/>
			<circle fill="#FBAB18" stroke="#001423" stroke-width="0.2835" stroke-miterlimit="10" cx="17.425" cy="55.254" r="1.231"/>
			<circle fill="#FBAB18" stroke="#001423" stroke-width="0.2835" stroke-miterlimit="10" cx="17.425" cy="58.221" r="1.231"/>
			<circle fill="#FBAB18" stroke="#001423" stroke-width="0.2835" stroke-miterlimit="10" cx="17.425" cy="61.188" r="1.231"/>
			<circle fill="#FBAB18" stroke="#001423" stroke-width="0.2835" stroke-miterlimit="10" cx="17.425" cy="64.155" r="1.231"/>
			<circle fill="none" stroke="#001423" stroke-width="0.2835" stroke-miterlimit="10" cx="17.425" cy="68.704" r="1.077"/>
			<path fill="#FBAB18" stroke="#001423" stroke-width="0.2835" stroke-miterlimit="10" d="M18.656,71.052
				c0-0.68-0.551-1.23-1.231-1.23c-0.68,0-1.23,0.55-1.23,1.23c0,0.55,0.193,1,0.691,1.157l0.515,0.981l0.564-0.981
				C18.463,72.052,18.656,71.603,18.656,71.052z"/>
		</g>
	</g>
</g>
<g id="Right_leg">
	<rect x="31.025" y="53.745" fill="#FFCD03" stroke="#FFCD03" stroke-miterlimit="10" width="22.467" height="41.753"/>
	<g>
		<defs>
			<rect id="SVGID_3_" x="30.407" y="53.222" width="23.699" height="42.443"/>
		</defs>
		<clipPath id="SVGID_4_">
			<use xlink:href="#SVGID_3_"  overflow="visible"/>
		</clipPath>
		<path clip-path="url(#SVGID_4_)" fill="#ED1C24" stroke="#001423" stroke-width="0.7087" stroke-miterlimit="10" d="M5.182,73.722
			c0,0,42.125,6.208,50.987-2.963c3.797-3.929,0-19.063,0-19.063H5.182V73.722z"/>
	</g>
	<g id="Shadows_1_">
		<path fill="#BE2826" d="M46.944,74.08c-0.103-1.275,0.649-1.676,0.851-3.437c0.179-1.58-1.068-3.208-1.109-4.227
			c-0.037-0.915-0.287-4.591-0.43-4.545c-0.158,0.051-0.813,3.818-0.853,4.668c-0.022,0.491-0.123,1.5,0.115,2.407
			c0.171,0.655,0.143,1.73-0.237,2.364c-0.359,0.601-1.364,3.251-1.364,3.251L46.944,74.08z"/>
		<path fill="#BE2826" d="M50.917,63.79c0.267-0.074,0.096,1.184,0.31,2.792c0.115,0.857,0.909,2.558,0.939,3.086
			c0.103,1.796-0.348,2.863-0.348,2.863l-1.847,0.82c0,0,0.88-2.281,0.861-3.221c-0.015-0.758-0.78-2.455-0.476-3.681
			C50.708,65.038,50.688,63.853,50.917,63.79z"/>
		<path fill="#BE2826" d="M30.364,55.314c0,0,4.54,0.398,7.438,0.34c3.085-0.063,12.454-2.238,12.454-2.238
			s-9.538,0.802-12.603,0.872c-2.711,0.061-7.289-0.349-7.289-0.349V55.314z"/>
		<path fill="#BE2826" d="M30.364,57.756c0,0,4.54-0.125,7.438-0.184c3.085-0.063,8.665-1.925,8.763-2.749
			c0.038-0.326-5.672,1.662-8.737,1.731c-2.711,0.061-7.463-0.174-7.463-0.174V57.756z"/>
		<path fill="#BE2826" d="M48.925,64.965c0.136,0.021,0.027-0.949,0.083-1.789c0.053-0.793,0.271-1.45,0.358-1.667
			c0.288-0.717,0.039-3.063-0.158-3.123c-0.247-0.074-0.015,0.638-0.092,1.386c-0.068,0.65-0.453,1.327-0.52,1.541
			C48.097,62.928,48.559,64.908,48.925,64.965z"/>
	</g>
	<g id="Groin_Protection_1_">
		<g>
			<polyline fill="#692E14" stroke="#001423" stroke-width="0.2835" stroke-miterlimit="10" points="32.12,53.213 32.12,66.417 
				34.144,67.638 36.225,66.417 36.225,53.213 			"/>
			<circle fill="#FBAB18" stroke="#001423" stroke-width="0.2835" stroke-miterlimit="10" cx="34.172" cy="55.208" r="1.23"/>
			<circle fill="#FBAB18" stroke="#001423" stroke-width="0.2835" stroke-miterlimit="10" cx="34.172" cy="58.175" r="1.23"/>
			<circle fill="#FBAB18" stroke="#001423" stroke-width="0.2835" stroke-miterlimit="10" cx="34.172" cy="61.142" r="1.23"/>
			<circle fill="#FBAB18" stroke="#001423" stroke-width="0.2835" stroke-miterlimit="10" cx="34.172" cy="64.109" r="1.23"/>
			<circle fill="none" stroke="#001423" stroke-width="0.2835" stroke-miterlimit="10" cx="34.172" cy="68.657" r="1.077"/>
			<path fill="#FBAB18" stroke="#001423" stroke-width="0.2835" stroke-miterlimit="10" d="M32.942,71.006
				c0-0.68,0.55-1.231,1.229-1.231c0.68,0,1.23,0.551,1.23,1.231c0,0.55-0.192,0.999-0.691,1.156l-0.515,0.981l-0.564-0.981
				C33.134,72.005,32.942,71.556,32.942,71.006z"/>
		</g>
		<g>
			<polyline fill="#692E14" stroke="#001423" stroke-width="0.2835" stroke-miterlimit="10" points="37.352,53.316 37.352,66.52 
				39.375,67.74 41.456,66.52 41.456,53.316 			"/>
			<circle fill="#FBAB18" stroke="#001423" stroke-width="0.2835" stroke-miterlimit="10" cx="39.404" cy="55.311" r="1.23"/>
			<circle fill="#FBAB18" stroke="#001423" stroke-width="0.2835" stroke-miterlimit="10" cx="39.404" cy="58.278" r="1.23"/>
			<circle fill="#FBAB18" stroke="#001423" stroke-width="0.2835" stroke-miterlimit="10" cx="39.404" cy="61.245" r="1.23"/>
			<circle fill="#FBAB18" stroke="#001423" stroke-width="0.2835" stroke-miterlimit="10" cx="39.404" cy="64.211" r="1.23"/>
			<circle fill="none" stroke="#001423" stroke-width="0.2835" stroke-miterlimit="10" cx="39.404" cy="68.76" r="1.077"/>
			<path fill="#FBAB18" stroke="#001423" stroke-width="0.2835" stroke-miterlimit="10" d="M38.174,71.109
				c0-0.68,0.551-1.231,1.23-1.231c0.68,0,1.23,0.551,1.23,1.231c0,0.55-0.193,1-0.691,1.157l-0.515,0.981l-0.564-0.981
				C38.366,72.108,38.174,71.659,38.174,71.109z"/>
		</g>
	</g>
</g>
<g id="belt">
	<rect id="belt_base" x="2.785" y="44.692" fill="#692E14" width="51.124" height="7.117"/>
	<g id="details">
		<defs>
			<rect id="SVGID_5_" x="3.337" y="45.467" width="50.214" height="5.46"/>
		</defs>
		<clipPath id="SVGID_6_">
			<use xlink:href="#SVGID_5_"  overflow="visible"/>
		</clipPath>
		<polyline clip-path="url(#SVGID_6_)" fill="none" stroke="#001423" stroke-width="0.2835" stroke-miterlimit="10" points="
			24.779,52.375 24.779,44.681 20.591,44.681 20.591,52.375 		"/>
		<polyline clip-path="url(#SVGID_6_)" fill="none" stroke="#001423" stroke-width="0.2835" stroke-miterlimit="10" points="
			19.599,52.375 19.599,44.681 15.411,44.681 15.411,52.375 		"/>
		<polyline clip-path="url(#SVGID_6_)" fill="none" stroke="#001423" stroke-width="0.2835" stroke-miterlimit="10" points="
			41.45,52.375 41.45,44.681 37.262,44.681 37.262,52.375 		"/>
		<polyline clip-path="url(#SVGID_6_)" fill="none" stroke="#001423" stroke-width="0.2835" stroke-miterlimit="10" points="
			36.27,52.375 36.27,44.681 32.081,44.681 32.081,52.375 		"/>
		<g clip-path="url(#SVGID_6_)">
			<path fill="#FBAB18" stroke="#001423" stroke-width="0.2835" stroke-miterlimit="10" d="M54.089,50.86h-9.273
				c0,0-0.57-0.9-0.852-1.169c-0.349-0.334-1.421-0.997-1.416-1.48c0.006-0.469,1.072-1.092,1.416-1.412
				c0.284-0.266,0.852-1.171,0.852-1.171h9.273V50.86z"/>
			<path fill="#FBAB18" stroke="#001423" stroke-width="0.2835" stroke-miterlimit="10" d="M2.728,50.86H12
				c0,0,0.571-0.9,0.852-1.169c0.35-0.334,1.421-0.997,1.416-1.48c-0.005-0.469-1.072-1.092-1.416-1.412
				C12.569,46.533,12,45.628,12,45.628H2.728V50.86z"/>
		</g>
	</g>
</g>
<g id="torso">
	<path id="torso_1_" inkscape:connector-curvature="0" fill="#ED1C24" stroke="#231F20" stroke-width="0.3125" d="M2.36,43.478
		C11.093-3.814,7.702,0.8,16.628,0.623h23.439c8.927,0.177,5.535-4.438,14.266,42.855H2.36z"/>
	<g>
		<defs>
			<path id="clipping_mask_2_" d="M2.769,43.083c1.942-10.538,3.295-18.564,4.285-24.444c2.77-16.441,2.995-17.785,6.343-17.785
				c0.332,0,0.691,0.013,1.085,0.025c0.48,0.016,1.01,0.033,1.597,0.033c0.181,0,0.365-0.002,0.557-0.006h23.434
				c0.184,0.004,0.37,0.006,0.55,0.006c0.587,0,1.116-0.018,1.597-0.033c0.394-0.013,0.753-0.025,1.085-0.025
				c3.348,0,3.574,1.343,6.34,17.771c0.99,5.884,2.342,13.913,4.285,24.458H2.769z"/>
		</defs>
		<clipPath id="clipping_mask_1_">
			<use xlink:href="#clipping_mask_2_"  overflow="visible"/>
		</clipPath>
		<g id="chest_plates" clip-path="url(#clipping_mask_1_)">
			<polygon id="armor_color" fill="#E3E2DB" points="47.553,0.809 34.913,0.809 33.724,3.042 30.66,5.466 28.402,11.642 
				26.143,5.466 23.125,3.247 21.89,0.809 9.25,0.809 2.27,40.42 28.402,41.466 54.534,40.42 			"/>
			<g>
				<g>
					<g>
						<path fill="none" stroke="#605F61" stroke-width="0.7087" d="M28.4,14.926v26.299c0,0-8.838-0.248-11.785-0.283
							c-3.598-0.044-14.388-0.698-14.388-0.698"/>
					</g>
				</g>
				<g>
					<g>
						<path fill="none" stroke="#605F61" stroke-width="0.7087" d="M28.4,20.194c0,0-6.732-0.032-11.785-0.174
							c-4.539-0.127-7.65-0.522-7.65-0.522"/>
					</g>
				</g>
				<path fill="none" stroke="#605F61" stroke-width="0.7087" d="M28.4,25.451c0,0-8.219-0.108-11.784-0.174
					c-4.488-0.084-8.854-0.698-8.854-0.698"/>
				<path fill="none" stroke="#605F61" stroke-width="0.7087" d="M28.4,30.719c0,0-6.014-0.041-11.785-0.174
					c-5.359-0.123-11.63-0.697-11.63-0.697"/>
				<path fill="none" stroke="#605F61" stroke-width="0.7087" d="M28.4,35.975c0,0-6.732-0.01-11.784-0.174
					c-4.54-0.147-13.357-0.697-13.357-0.697"/>
			</g>
			<g>
				<g>
					<g>
						<path fill="none" stroke="#605F61" stroke-width="0.7087" d="M28.403,11.436v29.789c0,0,8.839-0.248,11.785-0.283
							c3.598-0.044,14.388-0.698,14.388-0.698"/>
					</g>
				</g>
				<g>
					<g>
						<path fill="none" stroke="#605F61" stroke-width="0.7087" d="M28.403,20.194c0,0,6.732-0.032,11.785-0.174
							c4.539-0.127,6.777-0.697,6.777-0.697"/>
					</g>
				</g>
				<path fill="none" stroke="#605F61" stroke-width="0.7087" d="M28.403,25.451c8.234,0.066,8.183-0.108,11.784-0.174
					c4.489-0.084,8.33-0.698,8.33-0.698"/>
				<path fill="none" stroke="#605F61" stroke-width="0.7087" d="M28.403,30.719c0,0,6.014-0.041,11.785-0.174
					c5.358-0.123,12.328-0.697,12.328-0.697"/>
				<path fill="none" stroke="#605F61" stroke-width="0.7087" d="M28.403,35.975c0,0,6.732-0.01,11.784-0.174
					c4.541-0.147,13.357-0.697,13.357-0.697"/>
			</g>
			<path fill="#605F61" d="M4.165,31.991l-0.241-1.318c0,0,3.562-4.739,4.599-9.125c1.219-5.153,0.298-10.622,0.298-10.622
				l1.182,1.735c0,0,0.791,4.859-0.432,9.277C7.871,28.078,4.165,31.991,4.165,31.991z"/>
			<path fill="#605F61" d="M52.731,31.991l0.242-1.318c0,0-3.562-4.739-4.599-9.125c-1.219-5.153-0.298-10.622-0.298-10.622
				l-1.181,1.735c0,0-0.792,4.859,0.432,9.277C49.025,28.078,52.731,31.991,52.731,31.991z"/>
			<path fill="none" stroke="#605F61" stroke-width="0.8504" d="M35.248,0.65c0,0-1.02,2.037-2.269,3.054
				c-1.293,1.053-2.601,1.511-2.601,1.511l-1.976,6.603l-1.977-6.602c0,0-1.307-0.459-2.6-1.512
				c-1.25-1.017-2.269-3.054-2.269-3.054"/>
		</g>
		<g id="lacing_2_" clip-path="url(#clipping_mask_1_)">
			<path id="lacing_1_" fill="#692E14" d="M32.76,19.577c-0.207-0.819-1.038-1.142-1.857-0.935c-0.601,0.151-1.822,1.21-2.433,1.766
				c-0.616-0.61-1.82-1.743-2.416-1.892c-0.82-0.206-1.65,0.29-1.856,1.109c-0.207,0.819,0.29,1.65,1.109,1.856
				c0.346,0.087,1.03-0.021,1.707-0.175c-0.294,0.486-0.321,1.095-0.331,1.47c-0.019,0.693,0.588,1.641,1.299,2.738
				c-0.666,1.044-1.258,2.021-1.273,2.75c-0.016,0.809,0.58,1.69,1.258,2.621c-0.648,0.991-1.239,1.923-1.231,2.667
				c0.01,0.838,0.558,1.567,1.152,2.334c-0.662,1.015-1.231,2.058-1.204,2.947c0.042,1.471,0.759,2.37,1.966,2.463l0.109,0.004
				c0.378,0,0.714-0.155,0.973-0.449c0.523-0.593,0.615-1.643,0.551-2.165c-0.141-1.126-0.71-2.023-1.322-2.837l0.263-0.387
				c0.692-1.006,1.053-1.552,1.062-1.989c0.014-0.808-0.582-1.689-1.259-2.619c0.679-1.05,1.179-1.926,1.179-2.689
				c0-0.705-0.525-1.619-1.187-2.657c0.655-1.029,1.24-1.992,1.267-2.708c0.024-0.664-0.194-1.2-0.511-1.584
				c0.729,0.174,1.5,0.309,1.875,0.215C32.469,21.227,32.965,20.396,32.76,19.577z M25.477,20.809
				c-0.449-0.113-0.72-0.568-0.607-1.016c0.113-0.448,0.567-0.72,1.016-0.607c0.447,0.112,1.79,1.313,1.79,1.313
				S25.925,20.922,25.477,20.809z M29.592,38.796c0.048,0.393-0.107,1.78-0.874,1.806c-0.743,0.025-1.307-0.777-1.337-1.793
				c-0.016-0.59,0.593-1.422,1.069-2.183C28.925,37.288,29.489,37.976,29.592,38.796z M29.588,33.457
				c-0.018,0.218-1.187,1.841-1.187,1.841s-0.962-1.269-0.968-1.756c-0.004-0.429,0.492-1.43,1.082-2.076
				C28.995,32.138,29.597,32.995,29.588,33.457z M29.508,28.167c0,0.493-0.602,1.428-1.03,2.106
				c-0.477-0.671-1.079-1.527-1.069-1.992c0.009-0.43,0.616-1.366,1.094-2.132C28.914,26.812,29.508,27.738,29.508,28.167z
				 M28.499,24.876c-0.473-0.739-1.126-1.712-1.118-2.079c0.037-1.424,0.549-1.713,1.146-1.713c0.002,0,0.003,0,0.004,0
				c0.201,0.043,1.093,0.738,1.058,1.686C29.573,23.195,28.97,24.121,28.499,24.876z M31.481,20.761
				c-0.449,0.113-2.025-0.309-2.025-0.309s1.168-1.026,1.616-1.139c0.449-0.113,0.903-0.015,1.016,0.433
				C32.201,20.193,31.929,20.648,31.481,20.761z"/>
			<g id="latches_1_">
				<g>
					<polygon fill="#FBAB18" stroke="#605F61" stroke-width="0.2835" points="27.728,22.323 26.688,22.323 26.34,21.938 
						23.227,21.938 23.227,23.592 26.34,23.592 26.688,23.208 27.728,23.208 					"/>
					<polygon fill="#FBAB18" stroke="#605F61" stroke-width="0.2835" points="27.728,27.765 26.688,27.765 26.34,27.38 
						23.227,27.38 23.227,29.035 26.34,29.035 26.688,28.65 27.728,28.65 					"/>
					<polygon fill="#FBAB18" stroke="#605F61" stroke-width="0.2835" points="27.728,33 26.688,33 26.34,32.616 23.227,32.616 
						23.227,34.27 26.34,34.27 26.688,33.885 27.728,33.885 					"/>
					<polygon fill="#FBAB18" stroke="#605F61" stroke-width="0.2835" points="27.728,38.197 26.688,38.197 26.34,37.813 
						23.227,37.813 23.227,39.467 26.34,39.467 26.688,39.082 27.728,39.082 					"/>
				</g>
				<g>
					<polygon fill="#FBAB18" stroke="#605F61" stroke-width="0.2835" points="29.217,22.322 30.256,22.322 30.605,21.938 
						33.719,21.938 33.719,23.591 30.605,23.591 30.256,23.207 29.217,23.207 					"/>
					<polygon fill="#FBAB18" stroke="#605F61" stroke-width="0.2835" points="29.217,27.765 30.256,27.765 30.605,27.379 
						33.719,27.379 33.719,29.034 30.605,29.034 30.256,28.65 29.217,28.65 					"/>
					<polygon fill="#FBAB18" stroke="#605F61" stroke-width="0.2835" points="29.217,33 30.256,33 30.605,32.615 33.719,32.615 
						33.719,34.27 30.605,34.27 30.256,33.885 29.217,33.885 					"/>
					<polygon fill="#FBAB18" stroke="#605F61" stroke-width="0.2835" points="29.217,38.197 30.256,38.197 30.605,37.812 
						33.719,37.812 33.719,39.466 30.605,39.466 30.256,39.082 29.217,39.082 					"/>
				</g>
			</g>
		</g>
		<g id="Shoulder_Plates_1_" clip-path="url(#clipping_mask_1_)">
			<g>
				<g>
					<polyline fill="none" stroke="#605F61" stroke-width="0.7087" points="19.877,0.038 24.433,11.007 16.376,14.697 9.396,0.384 
											"/>
					<polyline fill="none" stroke="#605F61" stroke-width="0.7087" points="14.934,11.971 10.832,14.055 7.73,8.313 					"/>
					
						<line fill="none" stroke="#605F61" stroke-width="0.7087" stroke-miterlimit="10" x1="13.134" y1="7.76" x2="21.559" y2="4.49"/>
				</g>
				<g>
					<polyline fill="none" stroke="#605F61" stroke-width="0.7087" points="36.928,0.038 32.372,11.007 40.428,14.697 47.41,0.384 
											"/>
					<polyline fill="none" stroke="#605F61" stroke-width="0.7087" points="41.869,11.971 45.971,14.055 49.073,8.313 					"/>
					
						<line fill="none" stroke="#605F61" stroke-width="0.7087" stroke-miterlimit="10" x1="43.531" y1="7.76" x2="35.106" y2="4.49"/>
				</g>
			</g>
			<g id="latches">
				<g>
					<path fill="#FBAB18" stroke="#605F61" stroke-width="0.2835" d="M19.081,7.066c-0.041,0.248-0.536,0.563-0.775,0.647
						c-0.237,0.084-0.818,0.155-1.009-0.011c-0.125-0.108-0.129-0.484-0.216-0.624c-0.111-0.182-0.524-0.411-0.595-0.613
						c-0.071-0.201,0.108-0.638,0.081-0.85c-0.023-0.165-0.264-0.458-0.236-0.623c0.04-0.248,0.536-0.562,0.775-0.646
						c0.237-0.084,0.82-0.157,1.008,0.01c0.124,0.11,0.121,0.491,0.208,0.632c0.111,0.182,0.531,0.404,0.604,0.605
						c0.072,0.201-0.108,0.642-0.08,0.854C18.868,6.612,19.108,6.904,19.081,7.066z"/>
					<g>
						<circle fill="#605F61" cx="17.294" cy="4.876" r="0.144"/>
						<circle fill="#605F61" cx="18.118" cy="7.184" r="0.144"/>
					</g>
					<g>
						<circle fill="#605F61" cx="18.362" cy="5.796" r="0.144"/>
						<circle fill="#605F61" cx="17.049" cy="6.264" r="0.144"/>
					</g>
				</g>
				<g>
					<path fill="#FBAB18" stroke="#605F61" stroke-width="0.2835" d="M37.864,7.066c0.041,0.248,0.536,0.563,0.775,0.647
						c0.238,0.084,0.818,0.155,1.009-0.011c0.125-0.108,0.129-0.484,0.217-0.624c0.111-0.182,0.525-0.411,0.595-0.613
						c0.071-0.201-0.109-0.638-0.08-0.85c0.022-0.165,0.263-0.458,0.236-0.623c-0.041-0.248-0.537-0.562-0.775-0.646
						c-0.238-0.084-0.82-0.157-1.009,0.01c-0.125,0.11-0.12,0.491-0.208,0.632c-0.111,0.182-0.531,0.404-0.604,0.605
						c-0.073,0.201,0.108,0.642,0.08,0.854C38.078,6.612,37.837,6.904,37.864,7.066z"/>
					<g>
						<circle fill="#605F61" cx="39.651" cy="4.876" r="0.144"/>
						<circle fill="#605F61" cx="38.828" cy="7.184" r="0.144"/>
					</g>
					<g>
						<circle fill="#605F61" cx="38.583" cy="5.796" r="0.144"/>
						<circle fill="#605F61" cx="39.896" cy="6.264" r="0.144"/>
					</g>
				</g>
			</g>
		</g>
		<g id="cape_2_" display="none" clip-path="url(#clipping_mask_1_)">
			
				<path id="cape_1_" display="inline" fill="#ED1C24" stroke="#001423" stroke-width="0.2835" stroke-linejoin="round" stroke-miterlimit="10" d="
				M47.769,1.813c0,0,1.19,1.67-6.097,4.307c-4.027,1.458-5.806,0.884-7.378,1.078c-1.742,0.215-7.262,2.309-13.86,1.744
				C15.775,8.542,10.162,4.834,8.852,3.086c0.05-1.878,1.351-2.691,1.351-2.691l9.277,0.074c0,0,2.964,6.319,13.891,3.549
				c1.273-0.323,3.06-3.75,3.06-3.75l10.198,0.06L47.769,1.813z"/>
			<g id="wrinkles" display="inline">
				<g>
					<path fill="#BE2826" d="M19.187,1.484c0.467,0.992,1.288,1.748,2.174,2.345c0.897,0.594,1.875,1.067,2.893,1.426
						c1.011,0.379,2.06,0.658,3.123,0.857c0.531,0.101,1.068,0.178,1.607,0.215c0.537,0.037,1.087,0.065,1.616-0.073
						c-1.052,0.329-2.183,0.212-3.259,0.072c-1.085-0.157-2.149-0.442-3.185-0.806c-1.025-0.387-2.027-0.866-2.92-1.514
						C20.349,3.366,19.557,2.521,19.187,1.484z"/>
				</g>
				<g>
					<path fill="#BE2826" d="M14.288,0.951c0.728,0.819,1.598,1.491,2.469,2.144c0.881,0.641,1.795,1.236,2.759,1.741
						c0.952,0.525,1.957,0.951,2.994,1.273c1.038,0.312,2.12,0.506,3.218,0.485C24.635,6.72,23.517,6.6,22.449,6.318
						c-1.068-0.285-2.092-0.72-3.068-1.233c-0.966-0.533-1.894-1.133-2.757-1.818C15.769,2.579,14.938,1.839,14.288,0.951z"/>
				</g>
				<g>
					<path fill="#BE2826" d="M29.869,7.373c-1.157-0.108-2.264,0.087-3.373,0.399c-0.558,0.122-1.167,0.24-1.758,0.093
						c-0.591-0.138-1.082-0.497-1.486-0.902c0.472,0.327,0.985,0.601,1.529,0.688c0.544,0.092,1.099-0.012,1.65-0.155
						c0.557-0.122,1.126-0.269,1.711-0.3C28.725,7.155,29.313,7.223,29.869,7.373z"/>
				</g>
				<g>
					<path fill="#BE2826" d="M36.219,4.207c1.034-0.391,2.09-0.689,3.114-1.071c0.517-0.175,1.022-0.379,1.508-0.617
						c0.487-0.236,0.938-0.544,1.38-0.876c-0.37,0.408-0.788,0.788-1.275,1.067c-0.481,0.287-1,0.494-1.517,0.692
						C38.379,3.757,37.313,4.042,36.219,4.207z"/>
				</g>
				<g>
					<path fill="#BE2826" d="M41.577,3.566c0.487-0.433,0.986-0.823,1.378-1.311c0.429-0.461,0.683-1.028,0.981-1.613
						c-0.054,0.319-0.111,0.644-0.245,0.95C43.566,1.9,43.378,2.18,43.171,2.439C42.729,2.935,42.188,3.332,41.577,3.566z"/>
				</g>
				<g>
					<path fill="#BE2826" d="M34.766,5.5c1.056-0.45,2.231-0.476,3.353-0.499c0.565,0.009,1.127,0.015,1.686,0.006
						c0.548-0.028,1.137-0.016,1.606-0.343c-0.412,0.42-1.041,0.498-1.593,0.561c-0.568,0.056-1.135,0.046-1.698,0.06
						c-0.563-0.01-1.124,0-1.683,0.022C35.878,5.335,35.32,5.379,34.766,5.5z"/>
				</g>
				<g>
					<polygon fill="#BE2826" points="32.903,4.438 33.352,5.202 32.685,4.619 					"/>
				</g>
				<g>
					<path fill="#BE2826" d="M34.006,3.969c0.06,0.271,0.12,0.534,0.132,0.825c0.012,0.177-0.09,0.296-0.152,0.414
						c-0.073,0.117-0.15,0.229-0.23,0.34c0.088-0.244,0.222-0.533,0.193-0.741c-0.039-0.248-0.128-0.509-0.214-0.757L34.006,3.969z"
						/>
				</g>
				<g>
					<path fill="#BE2826" d="M32.919,7.181c0.034-0.288,0.068-0.569,0.156-0.855c0.043-0.16,0.178-0.261,0.28-0.349
						c0.11-0.091,0.224-0.175,0.34-0.255c-0.102,0.098-0.201,0.199-0.293,0.304c-0.09,0.11-0.187,0.208-0.194,0.334
						c-0.034,0.266-0.021,0.552-0.005,0.826L32.919,7.181z"/>
				</g>
				<g>
					<path fill="#BE2826" d="M34.447,6.87l-0.029-0.313c-0.006-0.086-0.051-0.163-0.099-0.259c-0.097-0.181-0.209-0.357-0.325-0.53
						c0.15,0.145,0.298,0.293,0.436,0.454c0.063,0.077,0.146,0.172,0.185,0.291l0.108,0.294L34.447,6.87z"/>
				</g>
				<g>
					<path fill="#BE2826" d="M33.836,6.333c-0.053-0.081-0.099-0.162-0.136-0.245c-0.066-0.078-0.075-0.166,0.06-0.274l0.028-0.004
						c0.16,0.064,0.177,0.15,0.136,0.245c-0.012,0.09-0.032,0.181-0.06,0.274L33.836,6.333z"/>
				</g>
			</g>
			<path display="inline" fill="#FBAB18" stroke="#001423" stroke-width="0.2835" stroke-miterlimit="10" d="M33.892,3.079
				c-1.375,0-2.489,1.114-2.489,2.488c0,1.373,1.115,2.487,2.489,2.487c1.373,0,2.487-1.114,2.487-2.487
				C36.379,4.192,35.264,3.079,33.892,3.079z M33.892,7.182c-0.894,0-1.616-0.724-1.616-1.615c0-0.893,0.722-1.616,1.616-1.616
				c0.892,0,1.614,0.724,1.614,1.616C35.506,6.458,34.784,7.182,33.892,7.182z"/>
		</g>
		<path clip-path="url(#clipping_mask_1_)" fill="#FFCD03" stroke="#9E2D3A" stroke-width="0.4394" d="M34.2,0.545
			c0,1.318-2.854,4.128-5.729,4.128s-5.729-2.811-5.729-4.128C33.155,0.545,23.788,0.545,34.2,0.545z"/>
	</g>
</g>
</svg>
