<?xml version="1.0" encoding="utf-8"?>
<!-- Generator: Adobe Illustrator 15.1.0, SVG Export Plug-In . SVG Version: 6.00 Build 0)  -->
<!DOCTYPE svg PUBLIC "-//W3C//DTD SVG 1.1//EN" "http://www.w3.org/Graphics/SVG/1.1/DTD/svg11.dtd">
<svg version="1.1" id="torso_2_" xmlns="http://www.w3.org/2000/svg" xmlns:xlink="http://www.w3.org/1999/xlink" x="0px" y="0px"
	 width="53.858px" height="45.354px" viewBox="0 0 53.858 45.354" enable-background="new 0 0 53.858 45.354" xml:space="preserve">
<path id="torso_1_" inkscape:connector-curvature="0" fill="#7D8A56" stroke="#000000" stroke-width="0.4252" stroke-linejoin="round" stroke-miterlimit="10" d="
	M0.943,44.131C9.675-3.161,6.285,1.453,15.21,1.276H38.65c8.927,0.177,5.535-4.438,14.266,42.855H0.943z"/>
<g id="details">
	<defs>
		<path id="clipping_mask_2_" d="M1.351,43.792c1.942-10.538,3.295-18.564,4.285-24.444C8.406,2.907,8.631,1.563,11.979,1.563
			c0.332,0,0.691,0.013,1.085,0.025c0.48,0.016,1.01,0.033,1.597,0.033c0.181,0,0.365-0.002,0.557-0.006h23.434
			c0.184,0.004,0.37,0.006,0.55,0.006c0.587,0,1.116-0.018,1.597-0.033c0.394-0.013,0.753-0.025,1.085-0.025
			c3.348,0,3.574,1.343,6.34,17.771c0.99,5.884,2.342,13.913,4.285,24.458H1.351z"/>
	</defs>
	<clipPath id="clipping_mask_1_">
		<use xlink:href="#clipping_mask_2_"  overflow="visible"/>
	</clipPath>
	<g id="stitches" clip-path="url(#clipping_mask_1_)">
		
			<path fill="none" stroke="#616E42" stroke-width="0.4252" stroke-linecap="round" stroke-linejoin="round" stroke-miterlimit="10" stroke-dasharray="0.5669,0.8504" d="
			M9.05,42.701c0,0,0.175-13.581,0.163-18.108C9.205,21.805,9.05,13.444,9.05,13.444V2.636"/>
		
			<path fill="none" stroke="#616E42" stroke-width="0.4252" stroke-linecap="round" stroke-linejoin="round" stroke-miterlimit="10" stroke-dasharray="0.5669,0.8504" d="
			M15.01,42.701v-6.052c0,0,0.153-1.686,0.162-2.248c0.017-1.019-0.162-4.067-0.162-4.067s0.165-5.526,0.162-7.369
			c-0.001-0.873-0.145-3.268-0.136-5.74c0.008-2.136,0.168-4.33,0.136-5.649c-0.02-0.837-0.162-3.344-0.162-3.344V2.35"/>
		
			<polyline fill="none" stroke="#616E42" stroke-width="0.4252" stroke-linecap="round" stroke-linejoin="round" stroke-miterlimit="10" stroke-dasharray="0.5669,0.8504" points="
			38.849,42.701 38.686,30.86 38.849,21.005 38.686,13.16 38.849,2.35 		"/>
		
			<path fill="none" stroke="#616E42" stroke-width="0.4252" stroke-linecap="round" stroke-linejoin="round" stroke-miterlimit="10" stroke-dasharray="0.5669,0.8504" d="
			M32.888,42.701c0,0-0.166-6.691-0.161-8.923c0.007-3.372,0.205-10.118,0.161-13.49c-0.027-2.202-0.165-6.602-0.161-8.803
			c0.003-1.877,0.161-7.507,0.161-7.507"/>
		
			<polyline fill="none" stroke="#616E42" stroke-width="0.4252" stroke-linecap="round" stroke-linejoin="round" stroke-miterlimit="10" stroke-dasharray="0.5669,0.8504" points="
			26.929,42.701 27.092,30.338 27.092,21.668 26.767,12.923 26.929,6.269 		"/>
		
			<path fill="none" stroke="#616E42" stroke-width="0.4252" stroke-linecap="round" stroke-linejoin="round" stroke-miterlimit="10" stroke-dasharray="0.5669,0.8504" d="
			M21.458,42.212c0,0-0.079-0.969-0.163-1.33c-0.293-2.485-0.163-11.451-0.163-11.451v-6.48c0,0,0.169-7.931,0.163-10.575
			c-0.004-2.072-0.341-4.434-0.163-6.131c0.46-0.294,0.879-0.817,0.879-0.817S25.537,5.32,26.6,5.335
			c1.482,0.02,3.973,0.088,3.973,0.088"/>
		
			<path fill="none" stroke="#616E42" stroke-width="0.4252" stroke-linecap="round" stroke-linejoin="round" stroke-miterlimit="10" stroke-dasharray="0.5669,0.8504" d="
			M44.808,42.701c0,0-0.166-12.505-0.162-16.673c0.004-3.421,0.162-13.684,0.162-13.684V2.636"/>
	</g>
	<g id="pockets" clip-path="url(#clipping_mask_1_)">
		<g>
			<path fill="#7D8A56" d="M11.871,41.13c0,0.359-0.291,0.651-0.651,0.651H-2.118V29.174l13.338-0.163
				c0.36,0,0.651,0.292,0.651,0.652V41.13z"/>
			<path d="M12.029,41.146c0.008,0.336-0.285,0.726-0.655,0.782c-0.359,0.032-0.615,0.011-0.927,0.02l-1.794,0.006l-3.589,0.014
				l-7.178,0.027h-0.002c-0.117,0-0.212-0.096-0.212-0.213V29.174c0-0.116,0.094-0.211,0.21-0.213l0,0
				c2.153,0.041,4.305,0.011,6.458,0.01c2.152-0.002,4.304-0.068,6.456-0.102c0.256,0.012,0.542-0.078,0.874,0.123
				c0.138,0.094,0.246,0.229,0.308,0.384c0.068,0.16,0.053,0.334,0.058,0.454l0.015,1.614l0.007,3.229l-0.024,6.457L12.029,41.146z
				 M11.712,41.13l-0.024-6.457l0.007-3.229l0.015-1.614c0.021-0.283-0.037-0.444-0.214-0.581c-0.134-0.117-0.428-0.083-0.698-0.086
				c-2.152,0.02-4.305,0.005-6.457,0.056c-2.152,0.052-4.304,0.074-6.455,0.168l0,0l0.209-0.213v12.607l-0.212-0.213h0.002
				l7.178,0.027l3.589,0.014l1.794,0.006c0.285-0.003,0.629,0.013,0.866-0.006c0.225-0.054,0.394-0.226,0.4-0.495L11.712,41.13z"/>
		</g>
		<g>
			<path fill="#7D8A56" d="M41.989,41.13c0,0.359,0.292,0.651,0.65,0.651h13.337V29.174l-13.337-0.163
				c-0.358,0-0.65,0.292-0.65,0.652V41.13z"/>
			<path d="M42.146,41.115c0.006,0.27,0.176,0.442,0.4,0.496c0.237,0.018,0.581,0.003,0.866,0.006l1.795-0.007l3.589-0.014
				l7.178-0.027h0.002l-0.213,0.213V29.174l0.21,0.213l0,0c-2.15-0.128-4.303-0.173-6.455-0.179l-6.456-0.029
				c-1.335-0.318-0.771,1.3-0.881,2.267c0.011,1.076,0.022,2.152,0.01,3.229l-0.044,6.456L42.146,41.115z M41.831,41.13
				l-0.044-6.456c-0.013-1.076-0.001-2.152,0.01-3.229l0.015-1.614c0.005-0.119-0.011-0.297,0.059-0.46
				c0.063-0.158,0.174-0.296,0.313-0.392c0.145-0.095,0.332-0.138,0.479-0.135l0.403,0.008l6.455,0.129
				c2.152,0.047,4.305,0.055,6.458-0.021l0,0c0.116,0.002,0.21,0.097,0.21,0.213v12.607c0,0.117-0.096,0.213-0.213,0.213h-0.002
				l-7.178-0.027l-3.589-0.014l-1.795-0.007c-0.313-0.008-0.568,0.013-0.927-0.02c-0.37-0.057-0.662-0.445-0.654-0.781L41.831,41.13
				z"/>
		</g>
		
			<polygon id="pocket_stitches_1_" fill="none" stroke="#616E42" stroke-width="0.2835" stroke-linecap="round" stroke-linejoin="round" stroke-miterlimit="10" stroke-dasharray="0.4252,0.8504" points="
			-0.085,40.854 11.058,41.017 11.058,29.875 -0.085,30.037 		"/>
		
			<polygon id="pocket_stitches" fill="none" stroke="#616E42" stroke-width="0.2835" stroke-linecap="round" stroke-linejoin="round" stroke-miterlimit="10" stroke-dasharray="0.4252,0.8504" points="
			53.943,40.854 42.8,41.017 42.8,29.875 53.943,30.037 		"/>
	</g>
	
		<line clip-path="url(#clipping_mask_1_)" fill="none" stroke="#616E42" stroke-width="0.4252" stroke-linecap="round" stroke-linejoin="round" stroke-miterlimit="10" stroke-dasharray="0.5669,0.8504" x1="1.787" y1="43.313" x2="52.072" y2="43.313"/>
	<g clip-path="url(#clipping_mask_1_)">
		<path d="M21.64,43.412c-0.453,0.003-0.931-0.231-1.199-0.619c-0.137-0.191-0.224-0.42-0.254-0.654
			c-0.022-0.248-0.007-0.428-0.013-0.646l-0.008-2.502l-0.012-5.004l-0.001-10.009c-0.039-3.336,0.106-6.672,0.01-10.008
			c-0.037-1.668-0.025-3.336-0.012-5.004l0.033-2.502c0.006-0.218-0.002-0.397,0.016-0.646c0.019-0.211,0.126-0.469,0.254-0.641
			c0.27-0.371,0.626-0.628,1.022-0.827h0c0.018-0.009,0.037-0.013,0.055-0.013h0.007c1.375-0.001,2.75,0.021,4.125,0.051
			c1.374,0.054,2.75,0.015,4.122,0.2c0.012,0.001,0.021,0.012,0.019,0.024c-0.001,0.01-0.009,0.018-0.019,0.019
			c-1.378,0.147-2.752,0.062-4.127,0.072c-1.375-0.015-2.75-0.038-4.125-0.084l0.062-0.013v0c-0.344,0.177-0.679,0.432-0.894,0.743
			C20.458,5.66,20.5,6.03,20.508,6.463l0.033,2.502c0.013,1.668,0.025,3.336-0.012,5.004c-0.096,3.336,0.049,6.672,0.01,10.008
			l-0.001,10.009l-0.012,5.004l-0.008,2.502c-0.005,0.435-0.034,0.807,0.197,1.106c0.211,0.3,0.558,0.483,0.941,0.484
			c0.09,0,0.164,0.074,0.163,0.164c0,0.09-0.073,0.163-0.162,0.164H21.64z"/>
	</g>
	<line clip-path="url(#clipping_mask_1_)" fill="none" x1="17.318" y1="34.467" x2="17.318" y2="11.56"/>
	<g id="buttons" clip-path="url(#clipping_mask_1_)">
		<g>
			
				<circle fill="none" stroke="#000000" stroke-width="0.4252" stroke-linecap="round" stroke-linejoin="round" stroke-miterlimit="10" cx="18.212" cy="11.56" r="1.139"/>
			<g>
				<path d="M20.225,13.582c-0.508,0.033-1.016,0.046-1.523,0.063c-0.508,0.015-1.016,0.045-1.523-0.001l-0.018-0.001
					c-0.021-0.002-0.041-0.012-0.054-0.027l-0.001-0.001c-0.329-0.268-0.625-0.566-0.902-0.89c-0.259-0.339-0.55-0.652-0.636-1.166
					c0.048-0.548,0.394-0.822,0.644-1.165c0.275-0.324,0.563-0.627,0.874-0.917c0.025-0.024,0.061-0.036,0.093-0.036
					c1.016-0.012,2.031,0.02,3.046,0.063c0.041,0.002,0.073,0.037,0.071,0.078c-0.001,0.039-0.033,0.069-0.071,0.071
					c-1.016,0.043-2.031,0.076-3.046,0.063l0.093-0.036c-0.301,0.277-0.595,0.571-0.864,0.879c-0.244,0.3-0.544,0.68-0.544,0.981
					c0.052,0.318,0.343,0.671,0.585,0.98c0.255,0.318,0.53,0.628,0.8,0.94l0.001,0.001l-0.071-0.028
					c0.508-0.047,1.016-0.016,1.523-0.001c0.507,0.017,1.015,0.029,1.523,0.063c0.023,0.001,0.041,0.022,0.04,0.045
					C20.263,13.564,20.246,13.581,20.225,13.582z"/>
			</g>
		</g>
		<g>
			
				<circle fill="none" stroke="#000000" stroke-width="0.4252" stroke-linecap="round" stroke-linejoin="round" stroke-miterlimit="10" cx="18.212" cy="34.467" r="1.139"/>
			<g>
				<path d="M20.225,36.521c-1.016,0.025-2.031,0.08-3.046,0.029h-0.012c-0.024-0.002-0.045-0.013-0.06-0.028l-0.001-0.001
					c-0.306-0.291-0.595-0.594-0.868-0.918c-0.256-0.336-0.556-0.643-0.644-1.139c0.037-0.527,0.371-0.821,0.617-1.163
					c0.274-0.324,0.559-0.631,0.872-0.919c0.026-0.024,0.062-0.037,0.095-0.037c0.508-0.001,1.016-0.012,1.523,0.051
					c0.507,0.015,1.015,0.008,1.523-0.034c0.069-0.006,0.129,0.046,0.135,0.115c0.006,0.068-0.046,0.129-0.115,0.135
					c-0.007,0.001-0.014,0-0.021,0c-0.508-0.042-1.016-0.049-1.523-0.034c-0.508,0.063-1.016,0.052-1.523,0.051l0.095-0.037
					c-0.298,0.279-0.596,0.57-0.865,0.878c-0.247,0.301-0.559,0.66-0.571,0.982c0.049,0.337,0.333,0.694,0.577,1.007
					c0.259,0.318,0.542,0.624,0.834,0.912l0.001,0.001l-0.071-0.028c1.016-0.051,2.031,0.004,3.046,0.029
					c0.041,0.001,0.073,0.035,0.072,0.076C20.296,36.489,20.264,36.52,20.225,36.521z"/>
			</g>
		</g>
		<g>
			
				<circle fill="none" stroke="#000000" stroke-width="0.4252" stroke-linecap="round" stroke-linejoin="round" stroke-miterlimit="10" cx="18.212" cy="23.013" r="1.139"/>
			<g>
				<path d="M20.225,25.102c-1.016,0.021-2.031,0.039-3.046,0.026c-0.035,0.001-0.07-0.016-0.094-0.037
					c-0.303-0.297-0.588-0.604-0.856-0.932c-0.256-0.34-0.565-0.632-0.664-1.146c0.037-0.553,0.366-0.847,0.62-1.188
					c0.283-0.318,0.586-0.611,0.923-0.869l0.001-0.001c0.015-0.016,0.035-0.025,0.056-0.026l0.014-0.001
					c0.508-0.035,1.016-0.022,1.523-0.008c0.507,0.011,1.015,0.02,1.523,0.045c0.037,0.002,0.065,0.033,0.063,0.07
					c-0.001,0.035-0.03,0.062-0.063,0.063c-0.508,0.025-1.016,0.034-1.523,0.045c-0.508,0.014-1.016,0.026-1.523-0.008l0.07-0.027
					l-0.001,0.001l-0.813,0.928c-0.239,0.302-0.558,0.661-0.567,0.958c0.041,0.318,0.313,0.691,0.559,1
					c0.263,0.313,0.549,0.615,0.846,0.897l-0.094-0.037c1.016-0.013,2.031,0.005,3.046,0.026c0.061,0.001,0.108,0.052,0.107,0.111
					C20.331,25.054,20.283,25.101,20.225,25.102z"/>
			</g>
		</g>
	</g>
	<g id="collar" clip-path="url(#clipping_mask_1_)">
		<g>
			<g>
				<path fill="#7D8A56" d="M21.789,8.459c0,0-2.287-1.928-3.794-3.61c-0.922-1.028-2.674-3.868-2.674-3.868l2.604-0.939
					c0,0,3.262,3.1,4.459,3.454c1.212,0.358,3.474,0.823,3.474,0.823s-1.903,0.701-2.875,1.971
					C22.484,6.941,21.789,8.459,21.789,8.459z"/>
				<path d="M21.652,8.622c-1.241-1.113-2.466-2.235-3.592-3.469c-0.291-0.302-0.534-0.653-0.8-0.973
					c-0.28-0.313-0.515-0.658-0.761-0.994c-0.231-0.346-0.473-0.685-0.681-1.045c-0.204-0.363-0.394-0.733-0.628-1.079
					c-0.046-0.068-0.028-0.161,0.04-0.207l0.027-0.015l0.012-0.004c0.429-0.171,0.845-0.378,1.283-0.522l1.308-0.454
					c0.07-0.026,0.148-0.006,0.2,0.042c1.103,1.057,2.246,2.106,3.507,2.95c0.318,0.206,0.633,0.404,0.975,0.49
					c0.365,0.102,0.738,0.192,1.111,0.28c0.745,0.182,1.502,0.316,2.246,0.505l0.005,0.001c0.105,0.027,0.169,0.134,0.142,0.24
					c-0.016,0.063-0.063,0.112-0.119,0.135c-0.897,0.351-1.804,0.814-2.499,1.494c-0.358,0.332-0.596,0.758-0.834,1.193
					c-0.229,0.439-0.434,0.896-0.611,1.357c-0.041,0.105-0.158,0.157-0.263,0.117c-0.023-0.009-0.044-0.022-0.063-0.038
					L21.652,8.622z M21.731,8.128l0.604-1.08c0.247-0.437,0.527-0.882,0.894-1.249c0.736-0.726,1.609-1.268,2.562-1.665l0.028,0.376
					c-0.764-0.124-1.509-0.322-2.261-0.5C23.183,3.917,22.81,3.82,22.434,3.71c-0.406-0.112-0.749-0.341-1.07-0.557
					c-0.646-0.444-1.235-0.946-1.827-1.444c-0.594-0.495-1.175-1.002-1.745-1.527l0.2,0.042l-1.297,0.485
					c-0.43,0.168-0.882,0.274-1.321,0.417L15.453,0.9c0.203,0.359,0.458,0.689,0.704,1.022c0.243,0.335,0.457,0.688,0.69,1.029
					c0.455,0.687,0.858,1.418,1.444,1.99C19.364,6.073,20.529,7.129,21.731,8.128z"/>
			</g>
		</g>
		<g>
			<g>
				<g>
					<path fill="#7D8A56" d="M32.07,8.459c0,0,2.287-1.928,3.794-3.61c0.922-1.028,2.674-3.868,2.674-3.868l-2.604-0.939
						c0,0-3.264,3.1-4.462,3.454c-1.21,0.358-3.311,0.823-3.311,0.823s1.741,0.701,2.715,1.971
						C31.375,6.941,32.07,8.459,32.07,8.459z"/>
					<path d="M32.127,8.128c1.202-0.999,2.367-2.055,3.441-3.188c0.586-0.571,0.989-1.303,1.443-1.99
						c0.233-0.34,0.448-0.694,0.69-1.029c0.245-0.333,0.5-0.663,0.703-1.022l0.079,0.226c-0.438-0.142-0.891-0.248-1.32-0.417
						l-1.296-0.485l0.199-0.042c-0.561,0.516-1.132,1.014-1.716,1.501c-0.581,0.489-1.16,0.982-1.791,1.423
						c-0.321,0.216-0.633,0.438-1.042,0.575l-1.1,0.307c-0.737,0.184-1.467,0.391-2.215,0.522l0.03-0.374
						c0.921,0.418,1.75,0.984,2.448,1.712c0.344,0.369,0.618,0.801,0.856,1.229L32.127,8.128z M31.876,8.548
						c-0.173-0.451-0.374-0.897-0.595-1.328c-0.232-0.426-0.462-0.845-0.802-1.18c-0.66-0.685-1.527-1.171-2.392-1.539
						c-0.101-0.043-0.146-0.159-0.104-0.259c0.024-0.057,0.073-0.097,0.129-0.113l0.007-0.001c0.728-0.199,1.472-0.338,2.201-0.527
						l1.091-0.287c0.313-0.097,0.639-0.305,0.945-0.506c1.236-0.837,2.358-1.868,3.443-2.907c0.054-0.052,0.134-0.065,0.2-0.042
						l1.307,0.454c0.438,0.145,0.854,0.352,1.283,0.522l0.011,0.004c0.076,0.031,0.113,0.117,0.083,0.194l-0.016,0.028
						c-0.233,0.345-0.423,0.715-0.628,1.079c-0.207,0.361-0.449,0.699-0.681,1.045c-0.246,0.336-0.48,0.681-0.761,0.994
						c-0.267,0.32-0.509,0.671-0.8,0.973c-1.126,1.234-2.352,2.356-3.593,3.469l-0.005,0.004c-0.083,0.075-0.212,0.068-0.287-0.016
						C31.898,8.592,31.885,8.57,31.876,8.548z"/>
				</g>
			</g>
		</g>
	</g>
</g>
</svg>
