<?xml version="1.0" encoding="UTF-8" standalone="no"?>
<!-- Created with Inkscape (http://www.inkscape.org/) -->

<svg
   xmlns:dc="http://purl.org/dc/elements/1.1/"
   xmlns:cc="http://creativecommons.org/ns#"
   xmlns:rdf="http://www.w3.org/1999/02/22-rdf-syntax-ns#"
   xmlns:svg="http://www.w3.org/2000/svg"
   xmlns="http://www.w3.org/2000/svg"
   xmlns:xlink="http://www.w3.org/1999/xlink"
   xmlns:sodipodi="http://sodipodi.sourceforge.net/DTD/sodipodi-0.dtd"
   xmlns:inkscape="http://www.inkscape.org/namespaces/inkscape"
   width="52.375"
   height="43.28064"
   id="svg2"
   version="1.1"
   inkscape:version="0.48.2 r9819"
   sodipodi:docname="lion_king.svg">
  <title
     id="title3255">King of The Lion Faction</title>
  <defs
     id="defs4">
    <linearGradient
       inkscape:collect="always"
       id="linearGradient4011">
      <stop
         style="stop-color:#ffffff;stop-opacity:1;"
         offset="0"
         id="stop4013" />
      <stop
         style="stop-color:#ffffff;stop-opacity:0;"
         offset="1"
         id="stop4015" />
    </linearGradient>
    <linearGradient
       inkscape:collect="always"
       id="linearGradient3997">
      <stop
         style="stop-color:#ffffff;stop-opacity:1;"
         offset="0"
         id="stop3999" />
      <stop
         style="stop-color:#ffffff;stop-opacity:0;"
         offset="1"
         id="stop4001" />
    </linearGradient>
    <inkscape:path-effect
       effect="skeletal"
       id="path-effect4237"
       is_visible="true"
       pattern="M 0,5 C 0,2.24 2.24,0 5,0 7.76,0 10,2.24 10,5 10,7.76 7.76,10 5,10 2.24,10 0,7.76 0,5 z"
       copytype="single_stretched"
       prop_scale="1"
       scale_y_rel="false"
       spacing="0"
       normal_offset="0"
       tang_offset="0"
       prop_units="false"
       vertical_pattern="false"
       fuse_tolerance="0" />
    <clipPath
       id="clipPath2999"
       clipPathUnits="userSpaceOnUse">
      <path
         id="path3001"
         d="M 0,792 612,792 612,0 0,0 0,792 z"
         inkscape:connector-curvature="0" />
    </clipPath>
    <radialGradient
       gradientUnits="userSpaceOnUse"
       gradientTransform="matrix(0.75988491,-0.03632001,0.13155835,2.7524547,16.986326,-78.268899)"
       r="12.650181"
       fy="46.658409"
       fx="96.306435"
       cy="46.658409"
       cx="96.306435"
       id="radialGradient3972"
       xlink:href="#linearGradient3966"
       inkscape:collect="always" />
    <clipPath
       clipPathUnits="userSpaceOnUse"
       id="clipPath2999-4">
      <path
         inkscape:connector-curvature="0"
         d="M 0,792 612,792 612,0 0,0 0,792 z"
         id="path3001-0" />
    </clipPath>
    <linearGradient
       id="linearGradient3966">
      <stop
         id="stop3968"
         offset="0"
         style="stop-color:#c0ac02;stop-opacity:1;" />
      <stop
         id="stop3970"
         offset="1"
         style="stop-color:#fdea41;stop-opacity:0;" />
    </linearGradient>
    <radialGradient
       inkscape:collect="always"
       xlink:href="#linearGradient3997"
       id="radialGradient4003"
       cx="165.81134"
       cy="47.693741"
       fx="165.81134"
       fy="47.693741"
       r="3.8123069"
       gradientTransform="matrix(0.64374811,-0.18781617,0.31213841,1.069868,43.640483,27.15595)"
       gradientUnits="userSpaceOnUse" />
    <radialGradient
       inkscape:collect="always"
       xlink:href="#linearGradient3997"
       id="radialGradient4007"
       gradientUnits="userSpaceOnUse"
       gradientTransform="matrix(-0.64374811,-0.18781617,-0.31213841,1.069868,293.73143,27.15595)"
       cx="165.81134"
       cy="47.693741"
       fx="165.81134"
       fy="47.693741"
       r="3.8123069" />
    <radialGradient
       inkscape:collect="always"
       xlink:href="#linearGradient4011"
       id="radialGradient4017"
       cx="169.32254"
       cy="41.784931"
       fx="169.32254"
       fy="41.784931"
       r="6.982676"
       gradientTransform="matrix(0.31036379,-0.01814613,0.03701409,0.63307367,114.75293,21.468668)"
       gradientUnits="userSpaceOnUse" />
    <linearGradient
       id="linearGradient3966-2">
      <stop
         style="stop-color:#c0ac02;stop-opacity:1;"
         offset="0"
         id="stop3968-4" />
      <stop
         style="stop-color:#fdea41;stop-opacity:0;"
         offset="1"
         id="stop3970-5" />
    </linearGradient>
    <clipPath
       id="clipPath2999-4-8"
       clipPathUnits="userSpaceOnUse">
      <path
         id="path3001-0-8"
         d="M 0,792 612,792 612,0 0,0 0,792 z"
         inkscape:connector-curvature="0" />
    </clipPath>
    <radialGradient
       inkscape:collect="always"
       xlink:href="#linearGradient3966-2"
       id="radialGradient3972-4"
       cx="96.306435"
       cy="46.658409"
       fx="96.306435"
       fy="46.658409"
       r="12.650181"
       gradientTransform="matrix(0.75988491,-0.03632001,0.13155835,2.7524547,16.986326,-78.268899)"
       gradientUnits="userSpaceOnUse" />
    <clipPath
       clipPathUnits="userSpaceOnUse"
       id="clipPath2999-0">
      <path
         inkscape:connector-curvature="0"
         d="M 0,792 612,792 612,0 0,0 0,792 z"
         id="path3001-9" />
    </clipPath>
    <inkscape:path-effect
       fuse_tolerance="0"
       vertical_pattern="false"
       prop_units="false"
       tang_offset="0"
       normal_offset="0"
       spacing="0"
       scale_y_rel="false"
       prop_scale="1"
       copytype="single_stretched"
       pattern="M 0,5 C 0,2.24 2.24,0 5,0 7.76,0 10,2.24 10,5 10,7.76 7.76,10 5,10 2.24,10 0,7.76 0,5 z"
       is_visible="true"
       id="path-effect4237-4"
       effect="skeletal" />
    <linearGradient
       inkscape:collect="always"
       id="linearGradient4011-4">
      <stop
         style="stop-color:#ffffff;stop-opacity:1;"
         offset="0"
         id="stop4013-0" />
      <stop
         style="stop-color:#ffffff;stop-opacity:0;"
         offset="1"
         id="stop4015-9" />
    </linearGradient>
    <linearGradient
       inkscape:collect="always"
       id="linearGradient3997-4">
      <stop
         style="stop-color:#ffffff;stop-opacity:1;"
         offset="0"
         id="stop3999-8" />
      <stop
         style="stop-color:#ffffff;stop-opacity:0;"
         offset="1"
         id="stop4001-8" />
    </linearGradient>
    <inkscape:path-effect
       effect="skeletal"
       id="path-effect4237-2"
       is_visible="true"
       pattern="M 0,5 C 0,2.24 2.24,0 5,0 7.76,0 10,2.24 10,5 10,7.76 7.76,10 5,10 2.24,10 0,7.76 0,5 z"
       copytype="single_stretched"
       prop_scale="1"
       scale_y_rel="false"
       spacing="0"
       normal_offset="0"
       tang_offset="0"
       prop_units="false"
       vertical_pattern="false"
       fuse_tolerance="0" />
    <clipPath
       id="clipPath2999-45"
       clipPathUnits="userSpaceOnUse">
      <path
         id="path3001-5"
         d="M 0,792 612,792 612,0 0,0 0,792 z"
         inkscape:connector-curvature="0" />
    </clipPath>
    <radialGradient
       gradientUnits="userSpaceOnUse"
       gradientTransform="matrix(0.75988491,-0.03632001,0.13155835,2.7524547,16.986326,-78.268899)"
       r="12.650181"
       fy="46.658409"
       fx="96.306435"
       cy="46.658409"
       cx="96.306435"
       id="radialGradient3972-1"
       xlink:href="#linearGradient3966-1"
       inkscape:collect="always" />
    <clipPath
       clipPathUnits="userSpaceOnUse"
       id="clipPath2999-4-7">
      <path
         inkscape:connector-curvature="0"
         d="M 0,792 612,792 612,0 0,0 0,792 z"
         id="path3001-0-1" />
    </clipPath>
    <linearGradient
       id="linearGradient3966-1">
      <stop
         id="stop3968-5"
         offset="0"
         style="stop-color:#c0ac02;stop-opacity:1;" />
      <stop
         id="stop3970-2"
         offset="1"
         style="stop-color:#fdea41;stop-opacity:0;" />
    </linearGradient>
    <radialGradient
       inkscape:collect="always"
       xlink:href="#linearGradient3997-4"
       id="radialGradient4003-7"
       cx="165.81134"
       cy="47.693741"
       fx="165.81134"
       fy="47.693741"
       r="3.8123069"
       gradientTransform="matrix(0.64374811,-0.18781617,0.31213841,1.069868,43.640483,27.15595)"
       gradientUnits="userSpaceOnUse" />
    <radialGradient
       inkscape:collect="always"
       xlink:href="#linearGradient3997-4"
       id="radialGradient4007-6"
       gradientUnits="userSpaceOnUse"
       gradientTransform="matrix(-0.64374811,-0.18781617,-0.31213841,1.069868,293.73143,27.15595)"
       cx="165.81134"
       cy="47.693741"
       fx="165.81134"
       fy="47.693741"
       r="3.8123069" />
    <radialGradient
       inkscape:collect="always"
       xlink:href="#linearGradient4011-4"
       id="radialGradient4017-1"
       cx="169.32254"
       cy="41.784931"
       fx="169.32254"
       fy="41.784931"
       r="6.982676"
       gradientTransform="matrix(0.31036379,-0.01814613,0.03701409,0.63307367,114.75293,21.468668)"
       gradientUnits="userSpaceOnUse" />
    <linearGradient
       id="linearGradient3966-2-4">
      <stop
         style="stop-color:#c0ac02;stop-opacity:1;"
         offset="0"
         id="stop3968-4-2" />
      <stop
         style="stop-color:#fdea41;stop-opacity:0;"
         offset="1"
         id="stop3970-5-3" />
    </linearGradient>
    <clipPath
       id="clipPath2999-4-8-2"
       clipPathUnits="userSpaceOnUse">
      <path
         id="path3001-0-8-2"
         d="M 0,792 612,792 612,0 0,0 0,792 z"
         inkscape:connector-curvature="0" />
    </clipPath>
    <radialGradient
       inkscape:collect="always"
       xlink:href="#linearGradient3966-2-4"
       id="radialGradient3972-4-1"
       cx="96.306435"
       cy="46.658409"
       fx="96.306435"
       fy="46.658409"
       r="12.650181"
       gradientTransform="matrix(0.75988491,-0.03632001,0.13155835,2.7524547,16.986326,-78.268899)"
       gradientUnits="userSpaceOnUse" />
    <clipPath
       clipPathUnits="userSpaceOnUse"
       id="clipPath2999-0-6">
      <path
         inkscape:connector-curvature="0"
         d="M 0,792 612,792 612,0 0,0 0,792 z"
         id="path3001-9-8" />
    </clipPath>
    <inkscape:path-effect
       fuse_tolerance="0"
       vertical_pattern="false"
       prop_units="false"
       tang_offset="0"
       normal_offset="0"
       spacing="0"
       scale_y_rel="false"
       prop_scale="1"
       copytype="single_stretched"
       pattern="M 0,5 C 0,2.24 2.24,0 5,0 7.76,0 10,2.24 10,5 10,7.76 7.76,10 5,10 2.24,10 0,7.76 0,5 z"
       is_visible="true"
       id="path-effect4237-4-5"
       effect="skeletal" />
    <inkscape:path-effect
       effect="skeletal"
       id="path-effect4237-4-2"
       is_visible="true"
       pattern="M 0,5 C 0,2.24 2.24,0 5,0 7.76,0 10,2.24 10,5 10,7.76 7.76,10 5,10 2.24,10 0,7.76 0,5 z"
       copytype="single_stretched"
       prop_scale="1"
       scale_y_rel="false"
       spacing="0"
       normal_offset="0"
       tang_offset="0"
       prop_units="false"
       vertical_pattern="false"
       fuse_tolerance="0" />
    <clipPath
       id="clipPath2999-0-61"
       clipPathUnits="userSpaceOnUse">
      <path
         id="path3001-9-89"
         d="M 0,792 612,792 612,0 0,0 0,792 z"
         inkscape:connector-curvature="0" />
    </clipPath>
    <radialGradient
       gradientUnits="userSpaceOnUse"
       gradientTransform="matrix(0.75988491,-0.03632001,0.13155835,2.7524547,16.986326,-78.268899)"
       r="12.650181"
       fy="46.658409"
       fx="96.306435"
       cy="46.658409"
       cx="96.306435"
       id="radialGradient3972-4-7"
       xlink:href="#linearGradient3966-2-2"
       inkscape:collect="always" />
    <clipPath
       clipPathUnits="userSpaceOnUse"
       id="clipPath2999-4-8-8">
      <path
         inkscape:connector-curvature="0"
         d="M 0,792 612,792 612,0 0,0 0,792 z"
         id="path3001-0-8-5" />
    </clipPath>
    <linearGradient
       id="linearGradient3966-2-2">
      <stop
         id="stop3968-4-21"
         offset="0"
         style="stop-color:#c0ac02;stop-opacity:1;" />
      <stop
         id="stop3970-5-6"
         offset="1"
         style="stop-color:#fdea41;stop-opacity:0;" />
    </linearGradient>
    <radialGradient
       gradientUnits="userSpaceOnUse"
       gradientTransform="matrix(0.31036379,-0.01814613,0.03701409,0.63307367,114.75293,21.468668)"
       r="6.982676"
       fy="41.784931"
       fx="169.32254"
       cy="41.784931"
       cx="169.32254"
       id="radialGradient4017-3"
       xlink:href="#linearGradient4011-40"
       inkscape:collect="always" />
    <radialGradient
       r="3.8123069"
       fy="47.693741"
       fx="165.81134"
       cy="47.693741"
       cx="165.81134"
       gradientTransform="matrix(-0.64374811,-0.18781617,-0.31213841,1.069868,293.73143,27.15595)"
       gradientUnits="userSpaceOnUse"
       id="radialGradient4007-2"
       xlink:href="#linearGradient3997-8"
       inkscape:collect="always" />
    <radialGradient
       gradientUnits="userSpaceOnUse"
       gradientTransform="matrix(0.64374811,-0.18781617,0.31213841,1.069868,43.640483,27.15595)"
       r="3.8123069"
       fy="47.693741"
       fx="165.81134"
       cy="47.693741"
       cx="165.81134"
       id="radialGradient4003-4"
       xlink:href="#linearGradient3997-8"
       inkscape:collect="always" />
    <linearGradient
       id="linearGradient3966-27">
      <stop
         style="stop-color:#c0ac02;stop-opacity:1;"
         offset="0"
         id="stop3968-6" />
      <stop
         style="stop-color:#fdea41;stop-opacity:0;"
         offset="1"
         id="stop3970-1" />
    </linearGradient>
    <clipPath
       id="clipPath2999-4-1"
       clipPathUnits="userSpaceOnUse">
      <path
         id="path3001-0-15"
         d="M 0,792 612,792 612,0 0,0 0,792 z"
         inkscape:connector-curvature="0" />
    </clipPath>
    <radialGradient
       inkscape:collect="always"
       xlink:href="#linearGradient3966-27"
       id="radialGradient3972-7"
       cx="96.306435"
       cy="46.658409"
       fx="96.306435"
       fy="46.658409"
       r="12.650181"
       gradientTransform="matrix(0.75988491,-0.03632001,0.13155835,2.7524547,16.986326,-78.268899)"
       gradientUnits="userSpaceOnUse" />
    <clipPath
       clipPathUnits="userSpaceOnUse"
       id="clipPath2999-5">
      <path
         inkscape:connector-curvature="0"
         d="M 0,792 612,792 612,0 0,0 0,792 z"
         id="path3001-1" />
    </clipPath>
    <inkscape:path-effect
       fuse_tolerance="0"
       vertical_pattern="false"
       prop_units="false"
       tang_offset="0"
       normal_offset="0"
       spacing="0"
       scale_y_rel="false"
       prop_scale="1"
       copytype="single_stretched"
       pattern="M 0,5 C 0,2.24 2.24,0 5,0 7.76,0 10,2.24 10,5 10,7.76 7.76,10 5,10 2.24,10 0,7.76 0,5 z"
       is_visible="true"
       id="path-effect4237-5"
       effect="skeletal" />
    <linearGradient
       id="linearGradient3997-8"
       inkscape:collect="always">
      <stop
         id="stop3999-82"
         offset="0"
         style="stop-color:#ffffff;stop-opacity:1;" />
      <stop
         id="stop4001-4"
         offset="1"
         style="stop-color:#ffffff;stop-opacity:0;" />
    </linearGradient>
    <linearGradient
       id="linearGradient4011-40"
       inkscape:collect="always">
      <stop
         id="stop4013-9"
         offset="0"
         style="stop-color:#ffffff;stop-opacity:1;" />
      <stop
         id="stop4015-4"
         offset="1"
         style="stop-color:#ffffff;stop-opacity:0;" />
    </linearGradient>
    <inkscape:path-effect
       effect="skeletal"
       id="path-effect4237-4-7"
       is_visible="true"
       pattern="M 0,5 C 0,2.24 2.24,0 5,0 7.76,0 10,2.24 10,5 10,7.76 7.76,10 5,10 2.24,10 0,7.76 0,5 z"
       copytype="single_stretched"
       prop_scale="1"
       scale_y_rel="false"
       spacing="0"
       normal_offset="0"
       tang_offset="0"
       prop_units="false"
       vertical_pattern="false"
       fuse_tolerance="0" />
    <clipPath
       id="clipPath2999-0-1"
       clipPathUnits="userSpaceOnUse">
      <path
         id="path3001-9-892"
         d="M 0,792 612,792 612,0 0,0 0,792 z"
         inkscape:connector-curvature="0" />
    </clipPath>
    <radialGradient
       gradientUnits="userSpaceOnUse"
       gradientTransform="matrix(0.75988491,-0.03632001,0.13155835,2.7524547,16.986326,-78.268899)"
       r="12.650181"
       fy="46.658409"
       fx="96.306435"
       cy="46.658409"
       cx="96.306435"
       id="radialGradient3972-4-6"
       xlink:href="#linearGradient3966-2-21"
       inkscape:collect="always" />
    <clipPath
       clipPathUnits="userSpaceOnUse"
       id="clipPath2999-4-8-5">
      <path
         inkscape:connector-curvature="0"
         d="M 0,792 612,792 612,0 0,0 0,792 z"
         id="path3001-0-8-7" />
    </clipPath>
    <linearGradient
       id="linearGradient3966-2-21">
      <stop
         id="stop3968-4-6"
         offset="0"
         style="stop-color:#c0ac02;stop-opacity:1;" />
      <stop
         id="stop3970-5-8"
         offset="1"
         style="stop-color:#fdea41;stop-opacity:0;" />
    </linearGradient>
    <radialGradient
       gradientUnits="userSpaceOnUse"
       gradientTransform="matrix(0.31036379,-0.01814613,0.03701409,0.63307367,114.75293,21.468668)"
       r="6.982676"
       fy="41.784931"
       fx="169.32254"
       cy="41.784931"
       cx="169.32254"
       id="radialGradient4017-2"
       xlink:href="#linearGradient4011-409"
       inkscape:collect="always" />
    <radialGradient
       r="3.8123069"
       fy="47.693741"
       fx="165.81134"
       cy="47.693741"
       cx="165.81134"
       gradientTransform="matrix(-0.64374811,-0.18781617,-0.31213841,1.069868,293.73143,27.15595)"
       gradientUnits="userSpaceOnUse"
       id="radialGradient4007-3"
       xlink:href="#linearGradient3997-82"
       inkscape:collect="always" />
    <radialGradient
       gradientUnits="userSpaceOnUse"
       gradientTransform="matrix(0.64374811,-0.18781617,0.31213841,1.069868,43.640483,27.15595)"
       r="3.8123069"
       fy="47.693741"
       fx="165.81134"
       cy="47.693741"
       cx="165.81134"
       id="radialGradient4003-2"
       xlink:href="#linearGradient3997-82"
       inkscape:collect="always" />
    <linearGradient
       id="linearGradient3966-6">
      <stop
         style="stop-color:#c0ac02;stop-opacity:1;"
         offset="0"
         id="stop3968-1" />
      <stop
         style="stop-color:#fdea41;stop-opacity:0;"
         offset="1"
         id="stop3970-4" />
    </linearGradient>
    <clipPath
       id="clipPath2999-4-2"
       clipPathUnits="userSpaceOnUse">
      <path
         id="path3001-0-7"
         d="M 0,792 612,792 612,0 0,0 0,792 z"
         inkscape:connector-curvature="0" />
    </clipPath>
    <radialGradient
       inkscape:collect="always"
       xlink:href="#linearGradient3966-6"
       id="radialGradient3972-5"
       cx="96.306435"
       cy="46.658409"
       fx="96.306435"
       fy="46.658409"
       r="12.650181"
       gradientTransform="matrix(0.75988491,-0.03632001,0.13155835,2.7524547,16.986326,-78.268899)"
       gradientUnits="userSpaceOnUse" />
    <clipPath
       clipPathUnits="userSpaceOnUse"
       id="clipPath2999-7">
      <path
         inkscape:connector-curvature="0"
         d="M 0,792 612,792 612,0 0,0 0,792 z"
         id="path3001-11" />
    </clipPath>
    <inkscape:path-effect
       fuse_tolerance="0"
       vertical_pattern="false"
       prop_units="false"
       tang_offset="0"
       normal_offset="0"
       spacing="0"
       scale_y_rel="false"
       prop_scale="1"
       copytype="single_stretched"
       pattern="M 0,5 C 0,2.24 2.24,0 5,0 7.76,0 10,2.24 10,5 10,7.76 7.76,10 5,10 2.24,10 0,7.76 0,5 z"
       is_visible="true"
       id="path-effect4237-51"
       effect="skeletal" />
    <linearGradient
       id="linearGradient3997-82"
       inkscape:collect="always">
      <stop
         id="stop3999-4"
         offset="0"
         style="stop-color:#ffffff;stop-opacity:1;" />
      <stop
         id="stop4001-5"
         offset="1"
         style="stop-color:#ffffff;stop-opacity:0;" />
    </linearGradient>
    <linearGradient
       id="linearGradient4011-409"
       inkscape:collect="always">
      <stop
         id="stop4013-4"
         offset="0"
         style="stop-color:#ffffff;stop-opacity:1;" />
      <stop
         id="stop4015-8"
         offset="1"
         style="stop-color:#ffffff;stop-opacity:0;" />
    </linearGradient>
  </defs>
  <sodipodi:namedview
     id="base"
     pagecolor="#ffffff"
     bordercolor="#666666"
     borderopacity="1.0"
     inkscape:pageopacity="0.0"
     inkscape:pageshadow="2"
     inkscape:zoom="8.3824447"
     inkscape:cx="-13.415467"
     inkscape:cy="15.330399"
     inkscape:document-units="px"
     inkscape:current-layer="layer1"
     showgrid="false"
     fit-margin-top="0"
     fit-margin-left="0"
     fit-margin-right="0"
     fit-margin-bottom="0"
     inkscape:window-width="1600"
     inkscape:window-height="848"
     inkscape:window-x="-8"
     inkscape:window-y="-8"
     inkscape:window-maximized="1"
     showguides="true"
     inkscape:guide-bbox="true"
     inkscape:snap-global="false">
    <sodipodi:guide
       orientation="1,0"
       position="26.13159,26.634501"
       id="guide3960" />
  </sodipodi:namedview>
  <metadata
     id="metadata7">
    <rdf:RDF>
      <cc:Work
         rdf:about="">
        <dc:format>image/svg+xml</dc:format>
        <dc:type
           rdf:resource="http://purl.org/dc/dcmitype/StillImage" />
        <dc:title>King of The Lion Faction</dc:title>
        <dc:creator>
          <cc:Agent>
            <dc:title>John P. Gerdeman</dc:title>
          </cc:Agent>
        </dc:creator>
        <dc:source>jpgerdeman.github.com/minifig-svg-decals</dc:source>
        <cc:license
           rdf:resource="http://creativecommons.org/licenses/by-nc-sa/3.0/" />
        <dc:rights>
          <cc:Agent>
            <dc:title>Design by The Lego company</dc:title>
          </cc:Agent>
        </dc:rights>
      </cc:Work>
      <cc:License
         rdf:about="http://creativecommons.org/licenses/by-nc-sa/3.0/">
        <cc:permits
           rdf:resource="http://creativecommons.org/ns#Reproduction" />
        <cc:permits
           rdf:resource="http://creativecommons.org/ns#Distribution" />
        <cc:requires
           rdf:resource="http://creativecommons.org/ns#Notice" />
        <cc:requires
           rdf:resource="http://creativecommons.org/ns#Attribution" />
        <cc:prohibits
           rdf:resource="http://creativecommons.org/ns#CommercialUse" />
        <cc:permits
           rdf:resource="http://creativecommons.org/ns#DerivativeWorks" />
        <cc:requires
           rdf:resource="http://creativecommons.org/ns#ShareAlike" />
      </cc:License>
    </rdf:RDF>
  </metadata>
  <g
     inkscape:groupmode="layer"
     id="layer4"
     inkscape:label="king"
     style="display:inline"
     transform="translate(-142.76812,-31.40625)">
    <g
       inkscape:groupmode="layer"
       id="layer5"
       inkscape:label="coat"
       style="display:inline">
      <path
         transform="translate(-218.16938,-378.37561)"
         id="path4100"
         style="opacity:0.98653199;fill:#c4281b;stroke:#c4281b;stroke-width:0.3125;stroke-linecap:butt;stroke-linejoin:miter;stroke-miterlimit:4;stroke-opacity:1;stroke-dasharray:none;display:inline"
         d="m 361.13813,452.9203 c 8.7325,-47.29375 5.3425,-42.67875 14.2675,-42.85625 l 23.44,0 c 8.92625,0.1775 5.535,-4.4375 14.265,42.85625 l -51.9725,0 z"
         inkscape:connector-curvature="0" />
      <path
         style="fill:#ff281b;fill-opacity:1;stroke:none"
         d="m 154.22961,74.403795 -1.81269,-20.543806 -0.30212,-7.854985 4.83384,-4.984894 11.63142,7.099697 13.59517,-6.34441 2.87009,5.135951 0.60423,4.380665 -1.0574,13.595166 0.30211,9.667674 z"
         id="path4107"
         inkscape:connector-curvature="0"
         sodipodi:nodetypes="ccccccccccc" />
      <path
         style="fill:#1b2a34;stroke:none;display:inline"
         d="m 158.34334,46.348102 c -0.99602,6.636028 -0.62354,12.450953 0.78031,17.647059 -0.96781,-6.773483 -0.77284,-12.694265 0.66026,-17.707083 z"
         id="path3952"
         inkscape:connector-curvature="0"
         sodipodi:nodetypes="cccc" />
      <path
         transform="translate(-218.16938,-378.37561)"
         sodipodi:nodetypes="cccc"
         inkscape:connector-curvature="0"
         id="path3954"
         d="m 382.09495,424.72371 c -0.99602,6.63603 -0.62354,12.45096 0.78031,17.64706 -0.96781,-6.77348 -0.77284,-12.69426 0.66026,-17.70708 z"
         style="fill:#1b2a34;stroke:none;display:inline" />
      <path
         transform="translate(-218.16938,-378.37561)"
         style="fill:#1b2a34;stroke:none;display:inline"
         d="m 392.93837,424.72371 c 0.99602,6.63603 0.62354,12.45096 -0.78031,17.64706 0.96781,-6.77348 0.77284,-12.69426 -0.66026,-17.70708 z"
         id="path3956"
         inkscape:connector-curvature="0"
         sodipodi:nodetypes="cccc" />
      <path
         transform="translate(-218.16938,-378.37561)"
         sodipodi:nodetypes="cccc"
         inkscape:connector-curvature="0"
         id="path3958"
         d="m 398.34053,424.72371 c 0.99602,6.63603 0.62354,12.45096 -0.78031,17.64706 0.96781,-6.77348 0.77284,-12.69426 -0.66026,-17.70708 z"
         style="fill:#1b2a34;stroke:none;display:inline" />
      <path
         style="fill:#f5cd2f;stroke:none"
         d="m 159.05292,31.719911 8.54225,2.878365 1.29991,1.207057 0.27855,0.928505 0.27855,0.742804 0.64996,-2.042711 0.83565,-0.649954 8.35655,-3.156917 z"
         id="path4113"
         inkscape:connector-curvature="0" />
      <path
         style="fill:none;stroke:#000000;stroke-width:0.625;stroke-linecap:butt;stroke-linejoin:miter;stroke-miterlimit:4;stroke-opacity:1;stroke-dasharray:none"
         d="m 159.14578,31.719911 c 0,0 8.50979,2.638569 9.16963,3.325491 0.90067,0.937653 1.13677,3.731147 1.13677,3.731147"
         id="path4109"
         inkscape:connector-curvature="0"
         sodipodi:nodetypes="csc" />
      <path
         sodipodi:nodetypes="csc"
         inkscape:connector-curvature="0"
         id="path4111"
         d="m 179.63788,31.719911 c 0,0 -8.50979,2.638569 -9.16963,3.325491 -0.90067,0.937653 -1.13677,3.731147 -1.13677,3.731147"
         style="fill:none;stroke:#000000;stroke-width:0.625;stroke-linecap:butt;stroke-linejoin:miter;stroke-miterlimit:4;stroke-opacity:1;stroke-dasharray:none" />
    </g>
    <g
       inkscape:groupmode="layer"
       id="layer3"
       inkscape:label="fur"
       style="display:inline"
       sodipodi:insensitive="true">
      <path
         style="fill:#f2f3f2;stroke:#1b2a34;stroke-opacity:1;display:inline"
         d="m 153.59375,43.125 c -0.086,0.0015 -0.19518,0.0059 -0.28125,0.03125 -0.2406,0.07072 -0.66808,0.151265 -0.96875,0.1875 -0.30067,0.03625 -0.74482,0.235671 -1,0.4375 -0.41538,0.328525 -0.47561,0.434537 -0.40625,0.9375 0.055,0.398855 0.0149,0.645474 -0.15625,0.875 -0.31031,0.415594 -0.3209,0.912989 -0.0312,1.4375 0.21855,0.397004 0.21788,0.440187 -0.0937,0.8125 -0.33937,0.405497 -0.43312,0.981273 -0.21875,1.34375 0.0805,0.136154 0.009,0.399628 -0.1875,0.75 -0.32144,0.573513 -0.29755,1.151042 0.0625,1.46875 0.27831,0.245596 0.25117,0.522233 -0.125,1 -0.34288,0.435487 -0.3308,0.612031 0.25,1.59375 0.16888,0.285458 0.16239,0.359777 -0.0625,0.59375 -0.42029,0.437002 -0.35144,1.039467 0.15625,1.34375 0.45574,0.273159 0.4606,0.246061 0.15625,1.3125 -0.0542,0.189906 0.0182,0.492847 0.15625,0.71875 0.1608,0.262462 0.26088,0.324114 0.53125,0.3125 -0.0199,0.02168 -0.0346,0.04819 -0.0625,0.0625 -0.13013,0.325671 -0.21555,0.678526 -0.1875,1.03125 -0.007,0.191415 0.0354,0.377906 0.15625,0.53125 0.0715,0.09329 0.10426,0.209826 0.15625,0.3125 0.0407,0.06702 0.11525,0.09872 0.1875,0.125 -0.47172,0.297344 -0.6334,0.878023 -0.3125,1.5 0.17006,0.329607 0.14432,0.404112 -0.125,0.8125 -0.24087,0.365279 -0.27622,0.539744 -0.15625,0.78125 0.0832,0.167519 0.12331,0.576499 0.0937,0.90625 -0.0542,0.605885 0.22323,1.01716 0.6875,1.03125 0.28869,0.0088 0.22368,0.390603 -0.125,0.71875 -0.22143,0.208378 -0.28864,0.392292 -0.21875,0.625 0.0537,0.178681 0.12028,0.586627 0.15625,0.90625 0.0387,0.344113 0.10172,0.491814 0.25,0.59375 -0.15394,0.18709 -0.32373,0.363072 -0.40625,0.59375 -0.1719,0.349384 -0.33993,0.780942 -0.125,1.15625 0.0553,0.0897 0.10668,0.188299 0.15625,0.28125 -0.26625,0.0634 -0.39808,0.199533 -0.40625,0.46875 -0.006,0.209041 -0.15708,0.528736 -0.375,0.71875 -0.41436,0.361278 -0.42205,0.738903 0,1.25 0.4822,0.583935 4.37826,0.302909 4.75,-0.34375 0.13937,-0.242433 0.0966,-0.521647 -0.0625,-0.65625 0.19504,-0.376527 0.19155,-0.840868 -0.0625,-1.1875 -0.11785,-0.370102 0.3318,-0.546161 0.4375,-0.84375 0.0792,-0.341667 -0.26596,-0.670205 -0.0625,-1 0.0205,-0.0486 0.0179,-0.107117 0.0312,-0.15625 0.0468,0.0079 0.0989,0.03763 0.15625,0.03125 0.16329,-0.01814 0.24317,-0.06873 0.28125,-0.1875 0.11677,-0.0758 0.12388,-0.264696 0,-0.59375 -0.008,-0.318346 -0.01,-0.728172 0,-1 0.0117,-0.317753 -0.0918,-0.864907 -0.25,-1.21875 -0.24078,-0.538436 -0.27629,-0.726434 -0.125,-1.0625 0.1292,-0.286924 0.16308,-0.521895 0.0625,-0.8125 -0.0773,-0.223685 -0.13431,-0.63082 -0.125,-0.9375 0.01,-0.317225 -0.0972,-0.642629 -0.21875,-0.75 -0.27664,-0.244143 -0.25155,-0.519749 0.0625,-0.96875 0.23585,-0.337205 0.24323,-0.393443 0.0312,-0.875 -0.12992,-0.295153 -0.18111,-0.677076 -0.125,-0.875 0.0594,-0.209515 -0.011,-0.517398 -0.15625,-0.78125 -0.17348,-0.315138 -0.18777,-0.542738 -0.0937,-0.84375 0.16787,-0.537734 0.12824,-0.761253 -0.21875,-1.28125 -0.23107,-0.346275 -0.26286,-0.501494 -0.125,-0.78125 0.12193,-0.247277 0.13575,-0.480853 0.0312,-0.8125 -0.10913,-0.346554 -0.114,-0.528311 0.0312,-0.78125 0.0809,-0.140695 0.15251,-0.329011 0.15625,-0.53125 6.5e-4,-0.01186 -0.0302,-0.01893 -0.0312,-0.03125 -3e-4,-0.009 1.7e-4,-0.02201 0,-0.03125 -0.002,-0.0755 0.0134,-0.174273 0,-0.25 -0.0479,-0.269691 -0.12487,-0.81528 -0.15625,-1.21875 -0.0399,-0.512712 -0.17332,-0.884057 -0.46875,-1.28125 -0.0893,-0.120106 -0.15313,-0.207032 -0.21875,-0.28125 0.28302,-0.397236 0.4602,-0.938891 0.15625,-1.625 0.0521,-0.02066 0.1507,-0.07979 0.1875,-0.09375 0.59009,-0.223771 0.81004,-0.661107 0.9375,-1.84375 0.10432,-0.968295 0.0712,-1.141886 -0.3125,-2.03125 -0.45642,-1.057769 -1.02321,-1.633226 -1.625,-1.625 z"
         id="path3130"
         inkscape:connector-curvature="0" />
      <path
         style="fill:#f2f3f2;stroke:#1b2a34;stroke-opacity:1;display:inline"
         d="m 153.34375,31.65625 c -2.00012,0.144691 -2.83745,1.220283 -3.9375,6.40625 0.0108,0.01013 0.0206,0.02082 0.0312,0.03125 0.32819,0.118538 0.76061,0.577525 1.25,0.375 -0.0615,0.590724 0.33784,0.702978 0.78125,0.9375 0.10003,0.04353 0.2467,0.06337 0.375,0.09375 -0.1382,0.307502 0.0873,0.589809 0.59375,0.65625 0.36416,0.04778 0.46796,0.155926 0.53125,0.53125 0.0423,0.250874 0.13222,0.545306 0.21875,0.65625 0.0809,0.103716 0.20901,0.132156 0.34375,0.15625 0.0361,0.113626 0.0824,0.209888 0.21875,0.21875 0.42039,0.07421 0.49147,0.25856 0.625,0.65625 -0.26882,0.920442 0.56414,0.721742 1.21875,0.71875 0.0563,0.02092 0.12687,0.04517 0.1875,0.0625 0.20534,0.726504 0.56794,1.685578 0.78125,1.9375 0.13994,0.165285 0.29769,0.531416 0.34375,0.84375 0.17313,1.173967 1.17598,1.652196 1.96875,0.9375 0.51071,-0.460398 0.75875,-0.337638 1.125,0.4375 0.33502,0.709057 0.34221,1.119419 0.0312,1.28125 -0.12531,0.06525 -0.25642,0.36655 -0.3125,0.65625 -0.13597,0.702381 0.35891,1.28925 1.125,1.3125 0.44899,0.01363 0.81845,0.04348 0.71875,0.5 -0.16013,0.733236 0.19796,0.748668 0.71875,0.6875 0.29586,-0.03475 0.58981,0.383306 0.71875,0.59375 0.2175,0.355003 0.27015,0.341324 0.5,0.125 0.0126,-0.01187 0.0203,-0.02002 0.0312,-0.03125 0.0137,0.01581 0.017,0.04806 0.0312,0.0625 0.27282,0.06957 0.7358,0.174034 0.8125,0.5 0.11912,0.381703 0.98113,0.06749 1.09375,0.5 0.34364,0.09759 0.29991,0.538212 0.5625,0.78125 0.50895,-0.05978 1.03319,0.08893 1.15625,0.375 0.26208,0.158439 0.39477,0.59584 0.5625,0.75 0.18318,0.342946 0.65425,0.388378 0.96875,0.5625 0.42208,-0.01838 0.88355,-0.231278 1.09375,0.125 0.54812,0.227894 0.30322,-0.720369 0.46875,-1 0.19468,-0.340889 0.79939,-0.339411 1.25,-0.4375 0.071,-0.268004 0.28595,-0.451122 0.5,-0.5625 0.43509,0.04077 0.62699,-0.112578 0.8125,-0.34375 0.12945,-0.449481 0.76366,-0.52072 1.21875,-0.40625 0.42621,0.06179 0.42467,-0.478656 0.5625,-0.65625 0.12305,-0.336186 0.37002,-0.369661 0.6875,-0.625 -0.10127,0.314854 -0.0605,0.492338 0.0937,0.65625 0.32725,0.347739 0.6848,0.214163 1.09375,-0.4375 0.2357,-0.375583 0.50755,-0.660763 0.65625,-0.65625 0.32359,0.0098 0.70738,-0.360059 0.84375,-0.84375 0.0828,-0.293855 0.23342,-0.407674 0.71875,-0.5 0.50543,-0.09614 0.65243,-0.202763 0.90625,-0.65625 0.19224,-0.343465 0.51286,-0.635222 0.8125,-0.75 0.48952,-0.187521 0.76262,-0.667388 0.78125,-1.28125 0.007,-0.222845 0.21797,-0.42983 0.59375,-0.65625 0.40488,-0.24395 0.60729,-0.524995 0.78125,-1 0.13217,-0.360835 0.38574,-0.820046 0.5625,-1.03125 0.17678,-0.211213 0.44518,-0.820106 0.59375,-1.34375 0.0419,-0.14752 0.0663,-0.253431 0.0937,-0.375 0.21506,-0.05812 0.42648,-0.113508 0.46875,-0.375 0.0806,-0.176931 0.20528,-0.337202 0.34375,-0.46875 -0.0426,0.126529 -0.0596,0.251165 -0.0625,0.34375 -0.01,0.302476 0.0651,0.399689 0.28125,0.40625 0.31438,0.0095 0.6203,-0.416413 0.78125,-1.09375 0.0655,-0.275621 0.19241,-0.44098 0.375,-0.46875 0.45145,-0.06865 0.79061,-0.441224 0.90625,-0.96875 0.0583,-0.266117 0.19741,-0.535247 0.3125,-0.625 0.28081,-0.219015 0.28096,-0.726027 0,-0.84375 -0.0312,-0.01307 -0.0503,0.0031 -0.0937,0 -0.0653,-0.0045 -0.14247,-0.01571 -0.21875,0 -0.0224,0.0046 -0.0405,0.0227 -0.0625,0.03125 0.0147,-0.01849 0.0148,-0.04882 0.0312,-0.0625 0.46257,-0.0037 0.91004,-0.365844 1.0625,-0.40625 -0.0893,-0.495034 0.12512,-1.102383 0.28125,-1.6875 -0.15766,-0.675525 -0.31317,-1.296985 -0.46875,-1.8125 -0.9352,-1.059787 -2.10255,-2.100672 -2.6875,-3.40625 -1.03782,-0.195412 -2.40819,-0.02277 -4.40625,-0.0625 l -2.6875,0 c 0.005,0.07553 0.12413,0.155691 0.40625,0.25 0.61644,0.06338 0.97923,0.353067 1.34375,0.65625 0.48684,0.379802 0.0494,0.931592 -0.53125,0.78125 -0.40455,-0.01567 -0.0848,0.667203 -0.375,0.78125 -0.52442,0.08365 -0.17553,0.920377 -0.46875,1.25 -0.38672,0.144602 -1.01203,0.114571 -1.375,0.3125 -0.49958,0.04828 0.0403,1.006479 -0.59375,1.09375 -0.009,0.0098 -0.022,0.02136 -0.0312,0.03125 -0.008,-0.0092 -0.0225,-0.02357 -0.0312,-0.03125 -0.0883,-0.07787 -0.14639,-0.09974 -0.21875,-0.09375 -0.0723,0.0061 -0.13912,0.0619 -0.25,0.15625 -0.1496,0.127351 -0.46466,0.225513 -0.6875,0.21875 -0.26157,-0.0079 -0.53928,0.130993 -0.8125,0.40625 -0.23277,0.234489 -0.57321,0.411616 -0.75,0.40625 -0.17678,-0.0054 -0.49855,0.184739 -0.71875,0.40625 -0.27064,0.272278 -0.6154,0.411417 -1.0625,0.46875 -0.96246,0.12342 -1.48368,0.530328 -1.34375,0.875 -0.23203,-0.281253 -0.53817,-0.628572 -0.9375,-0.59375 -0.6343,-0.06515 -0.54965,0.876423 -0.90625,0.375 0.0114,-0.376605 -0.034,-0.446193 -0.40625,-0.5 -0.23791,-0.03439 -0.64651,-0.257602 -0.90625,-0.5 -0.25975,-0.242392 -0.62822,-0.431907 -0.8125,-0.4375 -0.18429,-0.0056 -0.47343,-0.199413 -0.65625,-0.40625 -0.21159,-0.239367 -0.43634,-0.334908 -0.65625,-0.34375 -0.16151,-0.0068 -0.30177,0.07117 -0.4375,0.1875 -0.0196,-0.02332 -0.0409,-0.04026 -0.0625,-0.0625 -0.27748,-0.387936 -1.11758,-0.222134 -1.25,-0.625 0.11091,-0.675589 -0.92697,-0.195855 -0.75,-0.9375 -0.28087,-0.128793 -0.7102,-0.08008 -0.71875,-0.5 -0.0643,-0.349878 -0.71109,-0.292876 -0.78125,-0.1875 -0.1476,-0.457273 -0.27212,-0.869462 -0.9375,-0.71875 -0.39174,0.169121 -0.28066,-0.867983 -0.46875,-1.125 -0.082,-0.35966 -0.41917,-0.250142 -0.6875,-0.5625 -0.22087,-0.245684 -0.33089,-0.681522 -0.5,-1.03125 l -1.375,0 c -1.67344,0.03328 -2.93762,-0.101322 -3.90625,-0.03125 z M 170.625,39.8125 c 0.0603,0.05224 0.15078,0.112467 0.25,0.15625 -0.0769,0.01749 -0.15961,-0.06072 -0.25,-0.15625 z"
         id="path3194"
         inkscape:connector-curvature="0" />
      <path
         id="path3199"
         d="m 184.65884,43.125 c 0.086,0.0015 0.19518,0.0059 0.28125,0.03125 0.2406,0.07072 0.66808,0.151265 0.96875,0.1875 0.30067,0.03625 0.74482,0.235671 1,0.4375 0.41538,0.328525 0.47561,0.434537 0.40625,0.9375 -0.055,0.398855 -0.0149,0.645474 0.15625,0.875 0.31031,0.415594 0.3209,0.912989 0.0312,1.4375 -0.21855,0.397004 -0.21788,0.440187 0.0937,0.8125 0.33937,0.405497 0.43312,0.981273 0.21875,1.34375 -0.0805,0.136154 -0.009,0.399628 0.1875,0.75 0.32144,0.573513 0.29755,1.151042 -0.0625,1.46875 -0.27831,0.245596 -0.25117,0.522233 0.125,1 0.34288,0.435487 0.3308,0.612031 -0.25,1.59375 -0.16888,0.285458 -0.16239,0.359777 0.0625,0.59375 0.42029,0.437002 0.35144,1.039467 -0.15625,1.34375 -0.45574,0.273159 -0.4606,0.246061 -0.15625,1.3125 0.0542,0.189906 -0.0182,0.492847 -0.15625,0.71875 -0.1608,0.262462 -0.26088,0.324114 -0.53125,0.3125 0.0199,0.02168 0.0346,0.04819 0.0625,0.0625 0.13013,0.325671 0.21555,0.678526 0.1875,1.03125 0.007,0.191415 -0.0354,0.377906 -0.15625,0.53125 -0.0715,0.09329 -0.10426,0.209826 -0.15625,0.3125 -0.0407,0.06702 -0.11525,0.09872 -0.1875,0.125 0.47172,0.297344 0.6334,0.878023 0.3125,1.5 -0.17006,0.329607 -0.14432,0.404112 0.125,0.8125 0.24087,0.365279 0.27622,0.539744 0.15625,0.78125 -0.0832,0.167519 -0.12331,0.576499 -0.0937,0.90625 0.0542,0.605885 -0.22323,1.01716 -0.6875,1.03125 -0.28869,0.0088 -0.22368,0.390603 0.125,0.71875 0.22143,0.208378 0.28864,0.392292 0.21875,0.625 -0.0537,0.178681 -0.12028,0.586627 -0.15625,0.90625 -0.0387,0.344113 -0.10172,0.491814 -0.25,0.59375 0.15394,0.18709 0.32373,0.363072 0.40625,0.59375 0.1719,0.349384 0.33993,0.780942 0.125,1.15625 -0.0553,0.0897 -0.10668,0.188299 -0.15625,0.28125 0.26625,0.0634 0.39808,0.199533 0.40625,0.46875 0.006,0.209041 0.15708,0.528736 0.375,0.71875 0.41436,0.361278 0.42205,0.738903 0,1.25 -0.4822,0.583935 -4.37826,0.302909 -4.75,-0.34375 -0.13937,-0.242433 -0.0966,-0.521647 0.0625,-0.65625 -0.19504,-0.376527 -0.19155,-0.840868 0.0625,-1.1875 0.11785,-0.370102 -0.3318,-0.546161 -0.4375,-0.84375 -0.0792,-0.341667 0.26596,-0.670205 0.0625,-1 -0.0205,-0.0486 -0.0179,-0.107117 -0.0312,-0.15625 -0.0468,0.0079 -0.0989,0.03763 -0.15625,0.03125 -0.16329,-0.01814 -0.24317,-0.06873 -0.28125,-0.1875 -0.11677,-0.0758 -0.12388,-0.264696 0,-0.59375 0.008,-0.318346 0.01,-0.728172 0,-1 -0.0117,-0.317753 0.0918,-0.864907 0.25,-1.21875 0.24078,-0.538436 0.27629,-0.726434 0.125,-1.0625 -0.1292,-0.286924 -0.16308,-0.521895 -0.0625,-0.8125 0.0773,-0.223685 0.13431,-0.63082 0.125,-0.9375 -0.01,-0.317225 0.0972,-0.642629 0.21875,-0.75 0.27664,-0.244143 0.25155,-0.519749 -0.0625,-0.96875 -0.23585,-0.337205 -0.24323,-0.393443 -0.0312,-0.875 0.12992,-0.295153 0.18111,-0.677076 0.125,-0.875 -0.0594,-0.209515 0.011,-0.517398 0.15625,-0.78125 0.17348,-0.315138 0.18777,-0.542738 0.0937,-0.84375 -0.16787,-0.537734 -0.12824,-0.761253 0.21875,-1.28125 0.23107,-0.346275 0.26286,-0.501494 0.125,-0.78125 -0.12193,-0.247277 -0.13575,-0.480853 -0.0312,-0.8125 0.10913,-0.346554 0.114,-0.528311 -0.0312,-0.78125 -0.0809,-0.140695 -0.15251,-0.329011 -0.15625,-0.53125 -6.5e-4,-0.01186 0.0302,-0.01893 0.0312,-0.03125 3e-4,-0.009 -1.7e-4,-0.02201 0,-0.03125 0.002,-0.0755 -0.0134,-0.174273 0,-0.25 0.0479,-0.269691 0.12487,-0.81528 0.15625,-1.21875 0.0399,-0.512712 0.17332,-0.884057 0.46875,-1.28125 0.0893,-0.120106 0.15313,-0.207032 0.21875,-0.28125 -0.28302,-0.397236 -0.4602,-0.938891 -0.15625,-1.625 -0.0521,-0.02066 -0.1507,-0.07979 -0.1875,-0.09375 -0.59009,-0.223771 -0.81004,-0.661107 -0.9375,-1.84375 -0.10432,-0.968295 -0.0712,-1.141886 0.3125,-2.03125 0.45642,-1.057769 1.02321,-1.633226 1.625,-1.625 z"
         style="fill:#f2f3f2;stroke:#1b2a34;stroke-opacity:1;display:inline"
         inkscape:connector-curvature="0" />
      <path
         style="fill:#1b2a34;stroke:none;display:inline"
         d="m 155.28455,46.934012 c 0.24236,0.744998 0.067,1.715709 -0.65538,1.858908 -1.07367,0.212822 -2.68171,1.292723 -2.81838,1.097486 0.66519,0.812813 1.33038,1.424135 1.99557,0.295639 l 1.10864,1.478197 0,-1.626017 c 1.63808,-1.034738 1.27351,-2.069475 0.36955,-3.104213 z"
         id="path3946"
         inkscape:connector-curvature="0"
         sodipodi:nodetypes="csccccc" />
      <path
         style="fill:#1b2a34;stroke:none;display:inline"
         d="m 187.73097,55.064094 c -0.23861,0.206172 -0.71896,0.211661 -0.88692,0.295639 -0.57759,0.288796 -1.58339,-0.264354 -1.99557,0.14782 -0.16571,0.165714 -0.14781,0.49614 -0.14781,0.739098 0,0.07791 0.27681,0.01882 0.22172,0.07391 -0.77205,0.772054 -0.40911,1.318929 0.88692,0.886918 0.83546,-0.278486 0.23523,-0.886918 1.4782,-0.886918"
         id="path3948"
         inkscape:connector-curvature="0"
         sodipodi:nodetypes="cscsssc" />
      <path
         style="fill:#1b2a34;stroke:none;display:inline"
         d="m 182.40946,45.307996 c 0.31863,0.426218 0.15958,1.210693 1.18256,1.108648 -0.52142,0.826339 -0.67525,1.560781 0.36955,1.995565 -0.85407,0.792539 1.18494,1.862972 1.1345,3.241466 -0.0132,0.361646 -0.35107,0.636268 -1.28232,0.749665 -1.02969,-0.387656 -0.41717,-1.322715 -0.36955,-2.069475 -0.72519,-0.964801 -1.29965,-1.972669 -0.66519,-3.325943 -0.88511,-0.566642 -0.86076,-1.133284 -0.36955,-1.699926 z"
         id="path3950"
         inkscape:connector-curvature="0"
         sodipodi:nodetypes="cccscccc" />
      <path
         style="fill:#1b2a34;stroke:none"
         d="m 152.49494,57.800998 c 0.92606,1.420902 1.81951,2.821744 0,2.553064 l -1.01312,-0.405248 -0.0811,-1.25627 z"
         id="path3998"
         inkscape:connector-curvature="0"
         sodipodi:nodetypes="ccccc" />
      <path
         style="fill:#1b2a34;stroke:none"
         d="m 186.41423,62.542403 c -1.38231,-0.369642 0.89472,1.405647 -1.29679,2.026242 0.64192,0.101031 0.95137,0.534533 1.05364,1.17522 l 0.68892,-0.729447 0.28368,-2.309916 z"
         id="path4000"
         inkscape:connector-curvature="0"
         sodipodi:nodetypes="cccccc" />
      <path
         style="fill:#1b2a34;stroke:none"
         d="m 162.8693,36.809134 c -0.37823,0.621383 -2.08028,0.418755 -2.43149,0.729447 -0.0323,1.692665 1.73931,0.981627 2.06677,0.648398 0.32746,-0.333229 1.82749,1.637868 2.06677,-0.364724 z"
         id="path4002"
         inkscape:connector-curvature="0"
         sodipodi:nodetypes="cczcc" />
      <path
         style="fill:#1b2a34;stroke:none"
         d="m 175.87777,36.930709 c -1.64913,3.8071 3.703,0.260108 1.21575,-0.567348"
         id="path4004"
         inkscape:connector-curvature="0"
         sodipodi:nodetypes="cc" />
      <path
         style="fill:#1b2a34;stroke:none"
         d="m 176.0804,46.980867 c 1.21599,1.075251 1.93427,-0.303187 2.87726,-0.283674 0.72051,0.01253 0.75536,1.122484 0.74514,1.295828 -0.0244,0.413443 -1.1462,0.66151 -1.51511,-0.201657 -0.70243,1.797903 -2.01273,0.17895 -2.10729,-0.810497 z"
         id="path4006"
         inkscape:connector-curvature="0"
         sodipodi:nodetypes="ccscc" />
    </g>
    <g
       inkscape:groupmode="layer"
       id="layer7"
       inkscape:label="Belt"
       style="display:inline"
       sodipodi:insensitive="true">
      <path
         style="font-size:medium;font-style:normal;font-variant:normal;font-weight:normal;font-stretch:normal;text-indent:0;text-align:start;text-decoration:none;line-height:normal;letter-spacing:normal;word-spacing:normal;text-transform:none;direction:ltr;block-progression:tb;writing-mode:lr-tb;text-anchor:start;baseline-shift:baseline;color:#000000;fill:#694020;fill-opacity:1;stroke:#1b2a34;stroke-width:0.5;stroke-miterlimit:4;stroke-dasharray:none;marker:none;visibility:visible;display:inline;overflow:visible;enable-background:accumulate;font-family:Sans;-inkscape-font-specification:Sans"
         d="m 144.46875,67.15625 -0.25,1.375 c 15.95101,2.831644 32.38949,3.330693 49.59375,0 l -0.25,-1.375 c -17.01544,3.294139 -33.27788,2.807652 -49.09375,0 z"
         id="path4047"
         inkscape:connector-curvature="0" />
      <g
         id="g4067">
        <path
           sodipodi:nodetypes="scccccccssss"
           inkscape:connector-curvature="0"
           id="rect4055"
           d="m 167.96875,67.5 c -0.42991,0 -0.78125,0.351336 -0.78125,0.78125 0.0654,0.959349 -0.28125,0.84375 -0.28125,0.84375 l -1.5625,-1.5625 -2.21875,2.21875 2.28125,2.28125 1.5625,-1.5625 c 0,0 0.21875,-0.07978 0.21875,0.6875 0,0.429914 0.35134,0.78125 0.78125,0.78125 0.42991,0 0.78125,-0.351336 0.78125,-0.78125 l 0,-2.90625 C 168.75,67.851336 168.39866,67.5 167.96875,67.5 z"
           style="fill:#e29c41;fill-opacity:1;stroke:#1b2a34;stroke-width:0.5;stroke-linecap:round;stroke-miterlimit:4;stroke-opacity:1;stroke-dasharray:none;stroke-dashoffset:0" />
        <rect
           transform="matrix(0.70710678,-0.70710678,0.70710678,0.70710678,0,0)"
           ry="0"
           y="165.99332"
           x="67.259575"
           height="0.63661879"
           width="0.62262714"
           id="rect4053"
           style="fill:#1b2a34;stroke:none" />
      </g>
      <g
         id="g4071"
         transform="matrix(-1,0,0,1,337.80095,0)">
        <path
           style="fill:#e29c41;fill-opacity:1;stroke:#1b2a34;stroke-width:0.5;stroke-linecap:round;stroke-miterlimit:4;stroke-opacity:1;stroke-dasharray:none;stroke-dashoffset:0"
           d="m 167.96875,67.5 c -0.42991,0 -0.78125,0.351336 -0.78125,0.78125 0.0654,0.959349 -0.28125,0.84375 -0.28125,0.84375 l -1.5625,-1.5625 -2.21875,2.21875 2.28125,2.28125 1.5625,-1.5625 c 0,0 0.21875,-0.07978 0.21875,0.6875 0,0.429914 0.35134,0.78125 0.78125,0.78125 0.42991,0 0.78125,-0.351336 0.78125,-0.78125 l 0,-2.90625 C 168.75,67.851336 168.39866,67.5 167.96875,67.5 z"
           id="path4073"
           inkscape:connector-curvature="0"
           sodipodi:nodetypes="scccccccssss" />
        <rect
           style="fill:#1b2a34;stroke:none"
           id="rect4075"
           width="0.62262714"
           height="0.63661879"
           x="67.259575"
           y="165.99332"
           ry="0"
           transform="matrix(0.70710678,-0.70710678,0.70710678,0.70710678,0,0)" />
      </g>
      <g
         id="g4087">
        <path
           inkscape:connector-curvature="0"
           id="path4077"
           d="m 175.4375,63.375 a 0.65006498,0.65006498 0 0 0 -0.0937,0.03125 c -4.10222,1.308362 -8.0557,2.251143 -12.78125,0.125 a 0.65045807,0.65045807 0 1 0 -0.53125,1.1875 c 5.11129,2.299701 9.55359,1.265938 13.71875,-0.0625 A 0.65941054,0.65941054 0 1 0 175.4375,63.375 z"
           style="font-size:medium;font-style:normal;font-variant:normal;font-weight:normal;font-stretch:normal;text-indent:0;text-align:start;text-decoration:none;line-height:normal;letter-spacing:normal;word-spacing:normal;text-transform:none;direction:ltr;block-progression:tb;writing-mode:lr-tb;text-anchor:start;baseline-shift:baseline;color:#000000;fill:#694020;fill-opacity:1;stroke:#1b2a34;stroke-width:0.375;stroke-miterlimit:4;stroke-dasharray:none;marker:none;visibility:visible;display:inline;overflow:visible;enable-background:accumulate;font-family:Sans;-inkscape-font-specification:Sans" />
        <rect
           transform="matrix(0.97867555,0.20541221,-0.20541221,0.97867555,0,0)"
           ry="0.64793956"
           y="27.875595"
           x="174.10378"
           height="3.6384299"
           width="1.2958791"
           id="rect4083"
           style="fill:#a05f34;stroke:#1b2a34;stroke-width:0.375;stroke-linecap:round;stroke-miterlimit:4;stroke-opacity:1;stroke-dasharray:none;stroke-dashoffset:0" />
        <rect
           style="fill:#a05f34;stroke:#1b2a34;stroke-width:0.375;stroke-linecap:round;stroke-miterlimit:4;stroke-opacity:1;stroke-dasharray:none;stroke-dashoffset:0"
           id="rect4085"
           width="1.2958791"
           height="3.6384299"
           x="-156.85165"
           y="97.135445"
           ry="0.64793956"
           transform="matrix(-0.97867555,0.20541221,0.20541221,0.97867555,0,0)" />
      </g>
      <g
         id="g4092"
         transform="translate(0,-6.0308222)">
        <path
           style="font-size:medium;font-style:normal;font-variant:normal;font-weight:normal;font-stretch:normal;text-indent:0;text-align:start;text-decoration:none;line-height:normal;letter-spacing:normal;word-spacing:normal;text-transform:none;direction:ltr;block-progression:tb;writing-mode:lr-tb;text-anchor:start;baseline-shift:baseline;color:#000000;fill:#694020;fill-opacity:1;stroke:#1b2a34;stroke-width:0.375;stroke-miterlimit:4;stroke-dasharray:none;marker:none;visibility:visible;display:inline;overflow:visible;enable-background:accumulate;font-family:Sans;-inkscape-font-specification:Sans"
           d="m 175.4375,63.375 a 0.65006498,0.65006498 0 0 0 -0.0937,0.03125 c -4.10222,1.308362 -8.0557,2.251143 -12.78125,0.125 a 0.65045807,0.65045807 0 1 0 -0.53125,1.1875 c 5.11129,2.299701 9.55359,1.265938 13.71875,-0.0625 A 0.65941054,0.65941054 0 1 0 175.4375,63.375 z"
           id="path4094"
           inkscape:connector-curvature="0" />
        <rect
           style="fill:#a05f34;stroke:#1b2a34;stroke-width:0.375;stroke-linecap:round;stroke-miterlimit:4;stroke-opacity:1;stroke-dasharray:none;stroke-dashoffset:0"
           id="rect4096"
           width="1.2958791"
           height="3.6384299"
           x="174.10378"
           y="27.875595"
           ry="0.64793956"
           transform="matrix(0.97867555,0.20541221,-0.20541221,0.97867555,0,0)" />
        <rect
           transform="matrix(-0.97867555,0.20541221,0.20541221,0.97867555,0,0)"
           ry="0.64793956"
           y="97.135445"
           x="-156.85165"
           height="3.6384299"
           width="1.2958791"
           id="rect4098"
           style="fill:#a05f34;stroke:#1b2a34;stroke-width:0.375;stroke-linecap:round;stroke-miterlimit:4;stroke-opacity:1;stroke-dasharray:none;stroke-dashoffset:0" />
      </g>
    </g>
    <g
       inkscape:groupmode="layer"
       id="layer6"
       inkscape:label="necklace"
       style="display:inline"
       sodipodi:insensitive="true">
      <path
         style="opacity:0.98653199;fill:#e29c41;fill-opacity:1;stroke:#1b2a34;stroke-width:0.59100002;stroke-linecap:butt;stroke-linejoin:miter;stroke-miterlimit:4;stroke-opacity:1;stroke-dasharray:none;display:inline"
         d="m 184.6875,31.6875 c -0.63435,1.596483 -0.92913,2.844362 -2.1875,4.625 -1.40509,1.988251 -4.12141,4.745795 -9.9375,9.09375 l 1.34375,1.78125 c 5.91001,-4.418163 8.81399,-7.265166 10.4375,-9.5625 1.40111,-1.982631 1.83474,-3.484683 2.375,-4.90625 -0.53931,-0.715642 -1.17971,-0.950685 -2.03125,-1.03125 z"
         id="path4118"
         inkscape:connector-curvature="0" />
      <rect
         transform="matrix(-0.70371277,0.71048458,0.71048458,0.70371277,0,0)"
         ry="1.1346953"
         y="153.01106"
         x="-96.159531"
         height="6.7676473"
         width="2.2693906"
         id="rect4038"
         style="fill:#e29b3f;fill-opacity:1;stroke:#1b2a34;stroke-width:0.59125;stroke-linecap:round;stroke-miterlimit:4;stroke-opacity:1;stroke-dasharray:none;stroke-dashoffset:0" />
      <rect
         style="fill:#e29b3f;fill-opacity:1;stroke:#1b2a34;stroke-width:0.59100002;stroke-linecap:round;stroke-miterlimit:4;stroke-opacity:1;stroke-dasharray:none;stroke-dashoffset:0"
         id="rect4040"
         width="2.2693906"
         height="6.7676473"
         x="-84.158974"
         y="162.40813"
         ry="1.1346953"
         transform="matrix(-0.62746599,0.77864397,0.77864397,0.62746599,0,0)" />
      <rect
         transform="matrix(-0.55236264,0.83360393,0.83360393,0.55236264,0,0)"
         ry="1.1346953"
         y="169.97142"
         x="-72.746086"
         height="6.7676473"
         width="2.2693906"
         id="rect4042"
         style="fill:#e29b3f;fill-opacity:1;stroke:#1b2a34;stroke-width:0.59125;stroke-linecap:round;stroke-miterlimit:4;stroke-opacity:1;stroke-dasharray:none;stroke-dashoffset:0" />
      <rect
         style="fill:#e29b3f;fill-opacity:1;stroke:#1b2a34;stroke-width:0.59125;stroke-linecap:round;stroke-miterlimit:4;stroke-opacity:1;stroke-dasharray:none;stroke-dashoffset:0"
         id="rect4044"
         width="2.2693906"
         height="6.7676473"
         x="-115.91278"
         y="136.28821"
         ry="1.1346953"
         transform="matrix(-0.80700474,0.59054496,0.59054496,0.80700474,0,0)" />
      <g
         id="g4027">
        <path
           inkscape:connector-curvature="0"
           id="path4021"
           d="m 152.1875,32.03125 c 0.70573,1.622288 1.00149,3.296416 2.625,5.59375 1.62351,2.297334 4.52749,5.144337 10.4375,9.5625 l 1.34375,-1.78125 c -5.81609,-4.347955 -8.53241,-7.105499 -9.9375,-9.09375 -1.25715,-1.778911 -1.53268,-3.01405 -2.16573,-4.608286 -0.50417,-0.498858 -1.31438,-0.03627 -2.30302,0.327036 z"
           style="font-size:medium;font-style:normal;font-variant:normal;font-weight:normal;font-stretch:normal;text-indent:0;text-align:start;text-decoration:none;line-height:normal;letter-spacing:normal;word-spacing:normal;text-transform:none;direction:ltr;block-progression:tb;writing-mode:lr-tb;text-anchor:start;baseline-shift:baseline;color:#000000;fill:#e29b3f;fill-opacity:1;stroke:#1b2a34;stroke-width:0.625;stroke-miterlimit:4;stroke-opacity:1;stroke-dasharray:none;marker:none;visibility:visible;display:inline;overflow:visible;enable-background:accumulate;font-family:Sans;-inkscape-font-specification:Sans"
           sodipodi:nodetypes="csccscc" />
        <rect
           transform="matrix(0.70371277,0.71048458,-0.71048458,0.70371277,0,0)"
           ry="1.1346953"
           y="-87.952347"
           x="142.50719"
           height="6.7676473"
           width="2.2693906"
           id="rect4013"
           style="fill:#e29b3f;fill-opacity:1;stroke:#1b2a34;stroke-width:0.59125;stroke-linecap:round;stroke-miterlimit:4;stroke-opacity:1;stroke-dasharray:none;stroke-dashoffset:0" />
        <rect
           style="fill:#e29b3f;fill-opacity:1;stroke:#1b2a34;stroke-width:0.59125;stroke-linecap:round;stroke-miterlimit:4;stroke-opacity:1;stroke-dasharray:none;stroke-dashoffset:0"
           id="rect4015"
           width="2.2693906"
           height="6.7676473"
           x="128.64838"
           y="-101.67178"
           ry="1.1346953"
           transform="matrix(0.62746599,0.77864397,-0.77864397,0.62746599,0,0)" />
        <rect
           transform="matrix(0.55236264,0.83360393,-0.83360393,0.55236264,0,0)"
           ry="1.1346953"
           y="-112.74835"
           x="114.58969"
           height="6.7676473"
           width="2.2693906"
           id="rect4017"
           style="fill:#e29b3f;fill-opacity:1;stroke:#1b2a34;stroke-width:0.59125;stroke-linecap:round;stroke-miterlimit:4;stroke-opacity:1;stroke-dasharray:none;stroke-dashoffset:0" />
        <rect
           style="fill:#e29b3f;fill-opacity:1;stroke:#1b2a34;stroke-width:0.59125;stroke-linecap:round;stroke-miterlimit:4;stroke-opacity:1;stroke-dasharray:none;stroke-dashoffset:0"
           id="rect4019"
           width="2.2693906"
           height="6.7676473"
           x="157.78578"
           y="-63.997242"
           ry="1.1346953"
           transform="matrix(0.80700474,0.59054496,-0.59054496,0.80700474,0,0)" />
      </g>
      <path
         sodipodi:type="arc"
         style="fill:#e29b3f;fill-opacity:1;stroke:#1b2a34;stroke-width:0.61175579;stroke-miterlimit:4;stroke-dasharray:none"
         id="path4011"
         sodipodi:cx="169.0696"
         sodipodi:cy="46.818768"
         sodipodi:rx="7.2539449"
         sodipodi:ry="7.2539449"
         d="m 176.32354,46.818768 c 0,4.006243 -3.2477,7.253944 -7.25394,7.253944 -4.00625,0 -7.25395,-3.247701 -7.25395,-7.253944 0,-4.006244 3.2477,-7.253945 7.25395,-7.253945 4.00624,0 7.25394,3.247701 7.25394,7.253945 z"
         transform="matrix(0.96648045,0,0,0.96648045,5.9102864,2.2177415)" />
      <g
         transform="matrix(0.0300438,0,0,0.0300438,156.49102,42.668404)"
         style="display:inline"
         inkscape:label="outline"
         id="layer2-9">
        <path
           inkscape:connector-curvature="0"
           id="path3010"
           transform="translate(-16.574431,-8.0033426)"
           d="m 472.71875,0 c -2.01776,0.0541155 -3.79441,0.25796825 -5.25,0.59375 -2.65446,0.612345 -7.2672,1.09375 -10.25,1.09375 -7.22306,0 -22.1697,2.651167 -31.4375,5.5625 -11.82833,3.715685 -16.71343,4.52608 -26.96875,4.5625 -6.80898,0.02418 -10.83752,-0.459636 -13.90625,-1.6875 C 381.3699,8.710036 378.69541,8.514663 370.125,9 c -8.90323,0.504185 -11.49652,1.071684 -17.375,3.78125 -3.79969,1.751389 -7.67189,4.040567 -8.625,5.09375 -0.95312,1.053183 -4.32175,3.291414 -7.46875,4.96875 -4.13028,2.201418 -7.87826,5.550389 -13.53125,12.09375 -4.30721,4.985609 -10.11531,11.582163 -12.90625,14.65625 -5.7006,6.27894 -13.8106,18.29974 -14.90625,22.09375 -0.39707,1.375 -1.81456,4.13911 -3.15625,6.125 -2.05083,3.03552 -2.41895,4.64012 -2.21875,10.0625 0.19168,5.1917 -0.18267,7.14131 -1.96875,10.03125 -1.26174,2.041537 -2.28173,3.27543 -3.53125,3.875 -0.003,0.005 -0.0279,-0.005 -0.0312,0 -11.74112,17.65035 -34.21617,60.28682 8.25,112 8.24424,4.69156 17.89749,14.99445 19.28125,21.1875 1.31776,5.89764 3.39439,8.71875 6.40625,8.71875 1.38775,0 5.955,-1.59555 10.15625,-3.5625 6.29621,-2.94779 8.06048,-3.40072 9.96875,-2.53125 3.88851,1.77172 3.09086,6.35329 -2.0625,11.90625 -2.40262,2.58894 -5.09172,6.09165 -5.96875,7.8125 -0.87703,1.72085 -2.21324,3.38559 -3,3.6875 -0.78677,0.30191 -2.8847,3.6255 -4.65625,7.375 -4.11555,8.71058 -4.16042,13.27498 -0.1875,18.21875 1.6078,2.00069 3.87904,5.52397 5.0625,7.84375 3.47224,6.80614 18.40453,17.2209 24.75,17.25 3.35702,0.0154 4.05679,-1.86816 4.21875,-11.40625 0.10225,-6.0214 0.64562,-9.67634 1.65625,-11.21875 1.78158,-2.71905 8.27878,-4.87919 11.90625,-3.96875 5.42533,1.36167 7.46927,14.85901 3.5625,23.46875 -2.44498,5.38826 -2.48199,8.80101 -0.1875,13.78125 2.83466,6.1527 10.06638,14.0111 15.65625,17.03125 18.4247,9.95469 19.23612,10.78906 21.125,21.3125 0.83913,4.675 1.92878,9.625 2.40625,11 0.47747,1.375 1.13941,3.74086 1.46875,5.25 0.88723,4.06554 5.75464,5.80492 13.21875,4.71875 10.24548,-1.49092 17.54608,-3.00447 19.40625,-4 0.99253,-0.53119 5.65638,-0.96875 10.375,-0.96875 4.71862,0 9.35746,-0.41114 10.3125,-0.90625 0.95504,-0.49511 4.675,-2.05723 8.25,-3.5 3.575,-1.44277 9.875,-4.88405 14,-7.625 4.125,-2.74094 8.92967,-5.88545 10.65625,-7 6.57813,-4.24638 11.87104,-14.83351 12.78125,-25.5625 0.67889,-8.00234 0.63709,-8.22209 -3.375,-16.90625 -2.23623,-4.84031 -6.11618,-11.27177 -8.59375,-14.28125 -7.24813,-8.80424 -7.35975,-12.82354 -0.46875,-15.21875 5.2007,-1.80768 6.9786,-4.5419 7,-10.8125 0.0192,-5.61752 1.39053,-8.02503 5.59375,-9.78125 3.23731,-1.35263 6.03789,-1.20168 10.125,0.65625 11.57771,1.64291 22.53642,-3.51247 33.34375,-10.34375 1.81781,-1.53458 4.20703,-3.23929 7.1875,-5.125 3.16291,-2.00114 7.21291,-4.91218 9,-6.46875 1.78709,-1.55657 4.6,-3.55031 6.25,-4.40625 7.87703,-4.08621 14.09738,-13.84569 19.53125,-30.65625 3.27068,-10.11839 3.4529,-10.40955 9.40625,-15.15625 12.33811,-9.83738 26.5625,-27.7738 26.5625,-33.5 0,-0.93696 1.575,-4.52653 3.5,-7.96875 1.925,-3.44223 3.505,-7.08312 3.5,-8.09375 -0.022,-4.14351 -5.24904,-12.23596 -12.8125,-19.84375 -16.2739,-16.36928 -21.83829,-21.39016 -27.6875,-25.0625 -3.3,-2.07185 -7.575,-5.0318 -9.5,-6.5625 -3.9839,-3.16787 -17.46477,-9.62421 -22,-10.53125 -3.77754,-0.75551 -8.96733,-6.51167 -9.125,-10.125 -0.2007,-4.59918 0.14276,-5.5282 4.28125,-11.71875 3.83978,-5.74371 3.98774,-6.27765 3.59375,-12.5 -0.68191,-10.769385 -10.69273,-29 -15.9375,-29 -1.09763,0 -4.65097,1.635013 -7.875,3.625 -7.18987,4.437835 -8.31522,4.237998 -16.9375,-3.15625 -3.575,-3.065829 -8.975,-7.074246 -12,-8.90625 C 506.85694,4.845247 487.36021,0.24482 474.8125,0 c -0.72391,-0.01412425 -1.42116,-0.0180385 -2.09375,0 z M 485,19.125 c 0.66715,-0.02675 1.3467,-0.01778 2.03125,0 9.58367,0.248941 20.53132,4.510489 26,10.40625 10.84328,11.690107 19.42461,18.69411 24.59375,20.09375 2.65096,0.71779 2.66034,0.74129 -1.03125,1.96875 -4.99437,1.66064 -5.59368,4.0886 -2.3125,9.6875 1.46342,2.49714 3.73858,7.73249 5.0625,11.625 4.58226,13.47239 12.31785,22.39281 23.0625,26.625 3.23346,1.27362 8.6223,3.42606 11.96875,4.78125 6.73628,2.72794 26.78444,17.28429 32.71875,23.75 5.31496,5.79089 9.6875,12.18479 9.6875,14.15625 0,0.916 -0.91967,2.93893 -2.03125,4.5 -1.11157,1.56106 -2.6309,4.64617 -3.40625,6.84375 -1.95681,5.54618 -4.50246,9.128 -6.4375,9.125 -0.92469,-0.002 -2.7111,-2.03171 -4.125,-4.6875 -1.7182,-3.22737 -4.58729,-6.20398 -9.1875,-9.53125 -7.2699,-5.25821 -11.89658,-6.83473 -26.3125,-8.84375 -7.86398,-1.09594 -9.65267,-1.05764 -14,0.34375 -2.74127,0.88367 -7.66492,2.08205 -10.90625,2.65625 -7.95364,1.40898 -10.66721,3.38068 -16,11.5 -4.13732,6.29919 -6.6116,12.46422 -8.21875,20.5 -1.50276,7.51377 3.55834,22.85395 11.28125,34.1875 6.31627,9.26927 12.08408,14.08182 20.40625,17 4.20387,1.47409 7.4375,3.19008 7.4375,3.9375 0,0.72863 -2.475,2.80545 -5.5,4.625 -6.99626,4.20828 -12.0821,4.46584 -14.6875,0.75 -6.87292,-9.80223 -9.22347,-10.5515 -15.4375,-4.9375 -4.27841,3.86529 -7.99442,4.48753 -10.4375,1.75 -3.11222,-3.4873 -11.43701,-16.74327 -11.4375,-18.21875 -8e-4,-2.3728 -3.91621,-12.11679 -6.125,-15.21875 -4.11162,-5.77425 -6.41728,-3.20154 -8.40625,9.34375 -0.81623,5.1483 -2.23632,10.71769 -3.125,12.40625 -2.19798,4.17637 -7.46588,7.68605 -11,7.28125 -2.49945,-0.28628 -2.81906,-0.6907 -2.5625,-3.40625 0.21765,-2.30374 -0.8634,-4.77522 -4.3125,-9.8125 -2.9715,-4.33976 -4.9831,-8.64899 -5.71875,-12.15625 -1.05087,-5.01005 -0.96835,-5.65937 1.0625,-8.40625 1.2113,-1.63837 2.1875,-3.8882 2.1875,-5 0,-2.0222 -0.55238,-2.28529 -7.6875,-3.46875 -7.44699,-1.2352 -9.94323,-3.09256 -13.34375,-10 -2.90121,-5.89318 -3.17597,-7.23809 -2.6875,-12.625 0.30087,-3.31815 1.31469,-7.19752 2.25,-8.625 1.28676,-1.96384 1.67765,-4.77732 1.65625,-11.53125 -0.0272,-8.59149 0.0821,-9.06993 3.09375,-12.5 1.82574,-2.07941 6.07108,-4.87409 10.1875,-6.75 9.20001,-4.19258 10.53125,-5.60794 10.53125,-11.1875 0,-5.57457 -1.00779,-7.62685 -6.8125,-13.625 -7.30504,-7.54847 -11.91479,-6.04785 -10.78125,3.5 0.34331,2.89166 0.27185,5.78441 -0.15625,6.4375 -0.85724,1.30775 -5.56935,3.3125 -7.78125,3.3125 -1.99098,0 -9.01775,-15.2956 -10.375,-22.59375 -1.33352,-7.17059 -0.89857,-8.86011 2.71875,-10.25 13.6452,-5.24294 31.10136,-1.23995 43.96875,10.09375 3.59045,3.1625 7.13159,5.75 7.875,5.75 3.2656,0 1.00193,-4.54377 -5.40625,-10.875 -5.57778,-5.5108 -7.87881,-7.02343 -13.25,-8.78125 -15.18686,-4.97015 -28.25862,-5.01322 -38.6875,-0.125 -6.12814,2.87238 -6.3047,3.25124 -5.1875,12.25 0.9779,7.87672 4.77871,18.22462 9.375,25.53125 1.21093,1.925 2.49562,5.18041 2.875,7.21875 0.62082,3.33561 0.30783,4.10986 -3.09375,7.875 -2.07865,2.30083 -5.80202,5.06236 -8.28125,6.125 -5.93048,2.54191 -7.76051,4.29273 -10.625,10.21875 -2.4522,5.0731 -2.838,7.24615 -1.78125,10 1.01802,2.65291 3.69355,1.76676 7.59375,-2.5 3.27507,-3.58287 4.14332,-4.02664 7.5,-3.75 l 3.8125,0.3125 -0.21875,4.5 c -0.1282,2.475 -0.51447,7.26427 -0.84375,10.625 -0.51702,5.2769 -0.22676,7.00124 2.21875,12.75 1.72478,4.05453 5.20678,9.3412 8.875,13.53125 5.63817,6.44025 6.32964,7.81257 10.78125,21.25 2.61529,7.89443 4.73395,15.33595 4.71875,16.53125 -0.0152,1.19531 -1.17683,3.53483 -2.59375,5.21875 -1.41693,1.68392 -2.43614,3.84591 -2.25,4.8125 1.11425,5.7858 19.84399,5.98391 27.09375,0.28125 1.41235,-1.11096 4.06692,-2 5.96875,-2 6.31587,0 10.11004,6.88549 11.34375,20.5 0.60314,6.65589 0.49218,7.53568 -1.125,8.15625 -1.33399,0.5119 -2.66443,-0.26689 -5,-2.96875 -1.80585,-2.08905 -4.10198,-3.6875 -5.3125,-3.6875 -3.40128,0 -7.48877,7.14683 -8.25,14.40625 -0.5501,5.24597 -0.24777,7.01127 2.0625,12.59375 2.64529,6.39204 4.59404,9.62085 15.5625,25.46875 8.26915,11.94777 10.27614,20.56206 6.5,27.96875 -3.92591,7.70044 -9.4765,13.115 -15.9375,15.53125 -3.37612,1.26258 -7.06853,2.00756 -8.34375,1.6875 -2.82053,-0.70791 -9.38639,-13.44894 -10.8125,-20.96875 -2.05885,-10.85631 -6.34138,-15.21695 -10.46875,-10.65625 -2.28316,2.52286 -4.51887,17.68844 -3.75,25.46875 0.75038,7.59323 -1.00973,12.56301 -5.46875,15.4375 -4.45467,2.87168 -12.26602,3.95949 -13.9375,1.9375 -0.61694,-0.74632 -1.44454,-3.175 -1.84375,-5.375 -1.88403,-10.38264 -10.66917,-21.91511 -20.15625,-26.5 -3.40284,-1.64452 -6.46615,-3 -6.8125,-3 -1.53146,0 -7.66668,-5.50694 -9.59375,-8.625 -1.90565,-3.0834 -2.04017,-4.30794 -1.40625,-12.15625 0.3873,-4.79493 0.7621,-12.34616 0.8125,-16.78125 0.0909,-8.00267 0.032,-8.12612 -4.875,-15.90625 -6.12885,-9.71734 -9.14617,-11.8456 -15.8125,-11.125 -2.68207,0.28991 -5.83207,1.24223 -7,2.09375 -13.50127,9.84356 -15.20112,11.3446 -16.21875,14.4375 -0.59915,1.82101 -1.92037,3.77454 -2.9375,4.34375 -1.51774,0.84937 -2.34434,0.46949 -4.5625,-2.1875 -3.39716,-4.06925 -4.28756,-8.40697 -2.5,-11.90625 0.75278,-1.47363 1.67493,-4.16927 2.0625,-5.96875 0.52868,-2.45462 1.54764,-3.60547 4.0625,-4.65625 1.84364,-0.77032 4.38372,-2.95795 5.65625,-4.84375 1.27254,-1.8858 4.01833,-5.86594 6.09375,-8.875 5.82857,-8.45066 6.25017,-13.79563 2.6875,-33.71875 -0.97232,-5.43737 -7.34915,-20.19362 -13.4375,-31.125 -2.00389,-3.59791 -5.95081,-3.80343 -8.15625,-0.4375 -1.59947,2.44109 -1.63338,3.37371 -0.40625,10.8125 2.37221,14.38017 2.3882,19.59886 0.125,24.875 -2.79055,6.50555 -5.59992,7.7362 -10.96875,4.71875 -2.28071,-1.28184 -5.57646,-4.52235 -7.5,-7.375 -1.88518,-2.79575 -6.42869,-8.24375 -10.09375,-12.09375 -9.15549,-9.61747 -9.99605,-10.93246 -14.59375,-22.53125 -4.68824,-11.82722 -5.68946,-19.2191 -4.03125,-29.96875 1.73565,-11.25174 5.40393,-17.61251 12.9375,-22.5 7.23839,-4.696 8.16815,-6.88512 5.34375,-12.59375 -1.88614,-3.81221 -1.94192,-4.42707 -0.59375,-8.75 3.27012,-10.485683 4.54538,-15.9956 5.125,-22.53125 0.6353,-7.16357 1.13108,-8.19157 11.03125,-22.59375 8.4811,-12.33781 17.06595,-19.577878 32.125,-27.0625 13.97697,-6.946808 16.19057,-7.350655 40.125,-7.46875 18.20812,-0.08984 23.0246,-0.454176 31.375,-2.3125 5.61196,-1.248904 13.28457,-2.1875 17.8125,-2.1875 6.98238,0 8.88254,0.428108 15.53125,3.5 10.59517,4.89527 14.28125,4.476598 14.28125,-1.625 0,-4.04235 3.83092,-6.512375 11.25,-7.28125 0.64685,-0.06704 1.3016,-0.129501 1.96875,-0.15625 z m 30.8125,71.65625 c -0.28867,0.01127 -0.50811,0.03936 -0.59375,0.125 -1.35398,1.35398 1.10013,5.47212 6.25,10.5 4.83219,4.71773 5.87062,5.28125 9.71875,5.28125 6.41727,0 10.7783,-1.7794 10.40625,-4.25 -0.33049,-2.1947 -8.63764,-7.38594 -14.09375,-8.8125 -1.77326,-0.46364 -5.11733,-1.40952 -7.4375,-2.09375 -1.74012,-0.513172 -3.384,-0.783817 -4.25,-0.75 z m 38.4375,70.375 c 0.20967,-0.0106 0.43614,-0.012 0.65625,0 1.05653,0.0577 2.29652,0.35527 4.1875,0.875 13.64253,3.74958 15.70405,4.44391 18.03125,5.96875 3.07233,2.01306 6.66132,11.14867 7.375,18.75 0.48989,5.2178 0.32612,5.73639 -2.65625,8.71875 -1.7454,1.74541 -5.06638,3.68522 -7.375,4.3125 -2.30861,0.62728 -5.89512,1.7701 -7.96875,2.53125 -10.51638,3.86014 -17.26414,0.71583 -22.96875,-10.65625 -6.471,-12.89988 -4.57561,-23.23876 5.1875,-28.34375 2.75327,-1.43965 4.06357,-2.08199 5.53125,-2.15625 z"
           style="fill:#1b2a34" />
        <path
           inkscape:connector-curvature="0"
           id="path3023"
           transform="translate(-16.574431,-8.0033426)"
           d="m 484.96875,19.125 c -0.66715,0.02675 -1.3219,0.08921 -1.96875,0.15625 -7.41908,0.768875 -11.25,3.2389 -11.25,7.28125 0,6.101598 -3.68608,6.52027 -14.28125,1.625 -6.64871,-3.071892 -8.54887,-3.5 -15.53125,-3.5 -4.52793,0 -12.20054,0.938596 -17.8125,2.1875 -8.3504,1.858324 -13.16688,2.22266 -31.375,2.3125 -23.93443,0.118095 -26.14803,0.521942 -40.125,7.46875 -15.05905,7.484622 -23.6439,14.72469 -32.125,27.0625 -9.90017,14.40218 -10.39595,15.43018 -11.03125,22.59375 -0.57962,6.53565 -1.85488,12.045567 -5.125,22.53125 -1.34817,4.32293 -1.29239,4.93779 0.59375,8.75 2.8244,5.70863 1.89464,7.89775 -5.34375,12.59375 -7.53357,4.88749 -11.20185,11.24826 -12.9375,22.5 -1.65821,10.74965 -0.65699,18.14153 4.03125,29.96875 4.5977,11.59879 5.43826,12.91378 14.59375,22.53125 3.66506,3.85 8.20857,9.298 10.09375,12.09375 1.92354,2.85265 5.21929,6.09316 7.5,7.375 5.36883,3.01745 8.1782,1.7868 10.96875,-4.71875 2.2632,-5.27614 2.24721,-10.49483 -0.125,-24.875 -1.22713,-7.43879 -1.19322,-8.37141 0.40625,-10.8125 2.20544,-3.36593 6.15236,-3.16041 8.15625,0.4375 6.08835,10.93138 12.46518,25.68763 13.4375,31.125 3.56267,19.92312 3.14107,25.26809 -2.6875,33.71875 -2.07542,3.00906 -4.82121,6.9892 -6.09375,8.875 -1.27253,1.8858 -3.81261,4.07343 -5.65625,4.84375 -2.51486,1.05078 -3.53382,2.20163 -4.0625,4.65625 -0.38757,1.79948 -1.30972,4.49512 -2.0625,5.96875 -1.78756,3.49928 -0.89716,7.837 2.5,11.90625 2.21816,2.65699 3.04476,3.03687 4.5625,2.1875 1.01713,-0.56921 2.33835,-2.52274 2.9375,-4.34375 1.01763,-3.0929 2.71748,-4.59394 16.21875,-14.4375 1.16793,-0.85152 4.31793,-1.80384 7,-2.09375 6.66633,-0.7206 9.68365,1.40766 15.8125,11.125 4.907,7.78013 4.9659,7.90358 4.875,15.90625 -0.0504,4.43509 -0.4252,11.98632 -0.8125,16.78125 -0.63392,7.84831 -0.4994,9.07285 1.40625,12.15625 1.92707,3.11806 8.06229,8.625 9.59375,8.625 0.34635,0 3.40966,1.35548 6.8125,3 9.48708,4.58489 18.27222,16.11736 20.15625,26.5 0.39921,2.2 1.22681,4.62868 1.84375,5.375 1.67148,2.02199 9.48283,0.93418 13.9375,-1.9375 4.45902,-2.87449 6.21913,-7.84427 5.46875,-15.4375 -0.76887,-7.78031 1.46684,-22.94589 3.75,-25.46875 4.12737,-4.5607 8.4099,-0.20006 10.46875,10.65625 1.42611,7.51981 7.99197,20.26084 10.8125,20.96875 1.27522,0.32006 4.96763,-0.42492 8.34375,-1.6875 6.461,-2.41625 12.01159,-7.83081 15.9375,-15.53125 3.77614,-7.40669 1.76915,-16.02098 -6.5,-27.96875 -10.96846,-15.8479 -12.91721,-19.07671 -15.5625,-25.46875 -2.31027,-5.58248 -2.6126,-7.34778 -2.0625,-12.59375 0.76123,-7.25942 4.84872,-14.40625 8.25,-14.40625 1.21052,0 3.50665,1.59845 5.3125,3.6875 2.33557,2.70186 3.66601,3.48065 5,2.96875 1.61718,-0.62057 1.72814,-1.50036 1.125,-8.15625 -1.23371,-13.61451 -5.02788,-20.5 -11.34375,-20.5 -1.90183,0 -4.5564,0.88904 -5.96875,2 -7.24976,5.70266 -25.9795,5.50455 -27.09375,-0.28125 -0.18614,-0.96659 0.83307,-3.12858 2.25,-4.8125 1.41692,-1.68392 2.57855,-4.02344 2.59375,-5.21875 0.0152,-1.1953 -2.10346,-8.63682 -4.71875,-16.53125 -4.45161,-13.43743 -5.14308,-14.80975 -10.78125,-21.25 -3.66822,-4.19005 -7.15022,-9.47672 -8.875,-13.53125 -2.44551,-5.74876 -2.73577,-7.4731 -2.21875,-12.75 0.32928,-3.36073 0.71555,-8.15 0.84375,-10.625 l 0.21875,-4.5 -3.8125,-0.3125 c -3.35668,-0.27664 -4.22493,0.16713 -7.5,3.75 -3.9002,4.26676 -6.57573,5.15291 -7.59375,2.5 -1.05675,-2.75385 -0.67095,-4.9269 1.78125,-10 2.86449,-5.92602 4.69452,-7.67684 10.625,-10.21875 2.47923,-1.06264 6.2026,-3.82417 8.28125,-6.125 3.40158,-3.76514 3.71457,-4.53939 3.09375,-7.875 -0.37938,-2.03834 -1.66407,-5.29375 -2.875,-7.21875 -4.59629,-7.30663 -8.3971,-17.65453 -9.375,-25.53125 -1.1172,-8.99876 -0.94064,-9.37762 5.1875,-12.25 10.42888,-4.88822 23.50064,-4.84515 38.6875,0.125 5.37119,1.75782 7.67222,3.27045 13.25,8.78125 6.40818,6.33123 8.67185,10.875 5.40625,10.875 -0.74341,0 -4.28455,-2.5875 -7.875,-5.75 C 461.66386,77.6038 444.2077,73.60081 430.5625,78.84375 c -3.61732,1.38989 -4.05227,3.07941 -2.71875,10.25 1.35725,7.29815 8.38402,22.59375 10.375,22.59375 2.2119,0 6.92401,-2.00475 7.78125,-3.3125 0.4281,-0.65309 0.49956,-3.54584 0.15625,-6.4375 -1.13354,-9.54785 3.47621,-11.04847 10.78125,-3.5 5.80471,5.99815 6.8125,8.05043 6.8125,13.625 0,5.57956 -1.33124,6.99492 -10.53125,11.1875 -4.11642,1.87591 -8.36176,4.67059 -10.1875,6.75 -3.01165,3.43007 -3.12095,3.90851 -3.09375,12.5 0.0214,6.75393 -0.36949,9.56741 -1.65625,11.53125 -0.93531,1.42748 -1.94913,5.30685 -2.25,8.625 -0.48847,5.38691 -0.21371,6.73182 2.6875,12.625 3.40052,6.90744 5.89676,8.7648 13.34375,10 7.13512,1.18346 7.6875,1.44655 7.6875,3.46875 0,1.1118 -0.9762,3.36163 -2.1875,5 -2.03085,2.74688 -2.11337,3.3962 -1.0625,8.40625 0.73565,3.50726 2.74725,7.81649 5.71875,12.15625 3.4491,5.03728 4.53015,7.50876 4.3125,9.8125 -0.25656,2.71555 0.063,3.11997 2.5625,3.40625 3.53412,0.4048 8.80202,-3.10488 11,-7.28125 0.88868,-1.68856 2.30877,-7.25795 3.125,-12.40625 1.98897,-12.54529 4.29463,-15.118 8.40625,-9.34375 2.20879,3.10196 6.1242,12.84595 6.125,15.21875 4.9e-4,1.47548 8.32528,14.73145 11.4375,18.21875 2.44308,2.73753 6.15909,2.11529 10.4375,-1.75 6.21403,-5.614 8.56458,-4.86473 15.4375,4.9375 2.6054,3.71584 7.69124,3.45828 14.6875,-0.75 3.025,-1.81955 5.5,-3.89637 5.5,-4.625 0,-0.74742 -3.23363,-2.46341 -7.4375,-3.9375 -8.32217,-2.91818 -14.08998,-7.73073 -20.40625,-17 -7.72291,-11.33355 -12.78401,-26.67373 -11.28125,-34.1875 1.60715,-8.03578 4.08143,-14.20081 8.21875,-20.5 5.33279,-8.11932 8.04636,-10.09102 16,-11.5 3.24133,-0.5742 8.16498,-1.77258 10.90625,-2.65625 4.34733,-1.40139 6.13602,-1.43969 14,-0.34375 14.41592,2.00902 19.0426,3.58554 26.3125,8.84375 4.60021,3.32727 7.4693,6.30388 9.1875,9.53125 1.4139,2.65579 3.20031,4.6855 4.125,4.6875 1.93504,0.003 4.48069,-3.57882 6.4375,-9.125 0.77535,-2.19758 2.29468,-5.28269 3.40625,-6.84375 1.11158,-1.56107 2.03125,-3.584 2.03125,-4.5 0,-1.97146 -4.37254,-8.36536 -9.6875,-14.15625 -5.93431,-6.46571 -25.98247,-21.02206 -32.71875,-23.75 -3.34645,-1.35519 -8.73529,-3.50763 -11.96875,-4.78125 -10.74465,-4.23219 -18.48024,-13.15261 -23.0625,-26.625 -1.32392,-3.89251 -3.59908,-9.12786 -5.0625,-11.625 -3.28118,-5.5989 -2.68187,-8.02686 2.3125,-9.6875 3.69159,-1.22746 3.68221,-1.25096 1.03125,-1.96875 C 532.42461,48.22536 523.84328,41.221357 513,29.53125 507.53132,23.635489 496.58367,19.373941 487,19.125 c -0.68455,-0.01778 -1.3641,-0.02675 -2.03125,0 z m 30.8125,71.65625 c 0.866,-0.03382 2.50988,0.236828 4.25,0.75 2.32017,0.68423 5.66424,1.63011 7.4375,2.09375 5.45611,1.42656 13.76326,6.6178 14.09375,8.8125 0.37205,2.4706 -3.98898,4.25 -10.40625,4.25 -3.84813,0 -4.88656,-0.56352 -9.71875,-5.28125 -5.14987,-5.02788 -7.60398,-9.14602 -6.25,-10.5 0.0856,-0.08564 0.30508,-0.11373 0.59375,-0.125 z M 292.6875,213.8125 c 0.079,0.0962 0.17099,0.1849 0.25,0.28125 l 0.21875,0 c -0.15522,-0.0921 -0.31443,-0.19297 -0.46875,-0.28125 z"
           style="fill:#e29b3f;stroke:#000000;stroke-width:1px;stroke-linecap:butt;stroke-linejoin:miter;stroke-opacity:1" />
      </g>
    </g>
    <g
       inkscape:label="template"
       inkscape:groupmode="layer"
       id="layer1"
       transform="translate(-218.16938,-378.37561)"
       style="display:inline"
       sodipodi:insensitive="true">
      <path
         inkscape:connector-curvature="0"
         d="m 361.13813,452.9203 c 8.7325,-47.29375 5.3425,-42.67875 14.2675,-42.85625 l 23.44,0 c 8.92625,0.1775 5.535,-4.4375 14.265,42.85625 l -51.9725,0 z"
         style="opacity:0.98653199;fill:none;stroke:#1b2a34;stroke-width:0.3125;stroke-linecap:butt;stroke-linejoin:miter;stroke-miterlimit:4;stroke-opacity:1;stroke-dasharray:none;display:inline"
         id="path3247" />
    </g>
  </g>
</svg>
