<?xml version="1.0" encoding="utf-8"?>
<!-- Generator: Adobe Illustrator 15.1.0, SVG Export Plug-In . SVG Version: 6.00 Build 0)  -->
<!DOCTYPE svg PUBLIC "-//W3C//DTD SVG 1.1//EN" "http://www.w3.org/Graphics/SVG/1.1/DTD/svg11.dtd">
<svg version="1.1" xmlns="http://www.w3.org/2000/svg" xmlns:xlink="http://www.w3.org/1999/xlink" x="0px" y="0px"
	 width="107.716px" height="45.354px" viewBox="0 0 107.716 45.354" enable-background="new 0 0 107.716 45.354"
	 xml:space="preserve">
<g id="base">
	<path id="front-base" fill="#FFFFFF" stroke="#A2A0A2" stroke-width="0.3125" d="M0.943,44.132
		C9.675-3.162,6.286,1.453,15.21,1.275H38.65c8.926,0.177,5.535-4.438,14.266,42.856H0.943z"/>
	<path id="back-base" fill="#FFFFFF" stroke="#A2A0A2" stroke-width="0.3125" d="M54.801,44.132
		C63.534-3.162,60.143,1.453,69.069,1.275h23.439c8.926,0.177,5.535-4.438,14.266,42.856H54.801z"/>
</g>
<g id="front-torso">
	<defs>
		<path id="SVGID_1_" d="M1.454,43.707C3.386,33.219,4.733,25.223,5.72,19.361C8.592,2.31,8.826,1.648,11.979,1.648
			c0.331,0,0.689,0.012,1.082,0.024c0.481,0.016,1.012,0.033,1.6,0.033c0.181,0,0.366-0.002,0.558-0.005H38.65
			c0.183,0.003,0.369,0.005,0.55,0.005c0.588,0,1.118-0.018,1.6-0.033c0.393-0.013,0.751-0.024,1.082-0.024
			c3.153,0,3.388,0.662,6.256,17.701c0.987,5.864,2.334,13.862,4.268,24.358H1.454z"/>
	</defs>
	<clipPath id="SVGID_2_">
		<use xlink:href="#SVGID_1_"  overflow="visible"/>
	</clipPath>
	<polygon id="skin" clip-path="url(#SVGID_2_)" fill="#FFCE08" points="28.782,8.178 23.977,8.178 17.598,3.554 16.748,-1.376 
		35.583,-1.376 35.449,3.891 	"/>
	<path id="shirt" clip-path="url(#SVGID_2_)" fill="#606062" stroke="#091724" stroke-width="0.4252" d="M34.083,2.604
		c-1.381,1.02-4.299,2.129-7.154,2.129s-5.915-1.109-7.296-2.129l-1.954,0.283l6.804,5.195h4.894l6.802-5.195L34.083,2.604z"/>
	<g id="overlap" clip-path="url(#SVGID_2_)">
		<g>
			<path fill="#FFFFFF" d="M22.199,42.601c-0.005,0.298,0.234,0.558,0.532,0.576l3.409,0.213c0.298,0.019,0.546-0.21,0.551-0.508
				l0.111-6.458c0.005-0.298,0.003-0.786-0.005-1.084l-0.084-3.166c-0.008-0.298-0.035-0.785-0.06-1.083l-0.098-1.168
				c-0.025-0.298-0.042-0.785-0.039-1.083l0.028-2.229c0.004-0.298,0.013-0.786,0.021-1.084l0.231-8.729
				c0.008-0.298,0.01-0.787,0.005-1.085l-0.112-7.06c-0.005-0.298-0.225-0.43-0.49-0.292l-0.274,0.143
				c-0.265,0.138-0.724,0.276-1.021,0.308l-2.177,0.231c-0.297,0.031-0.54,0.301-0.54,0.6v7.072c0,0.298-0.003,0.787-0.007,1.085
				l-0.115,8.354c-0.004,0.298,0.022,0.784,0.058,1.08l0.225,1.856c0.036,0.296,0.046,0.781,0.022,1.079l-0.119,1.479
				c-0.023,0.298-0.036,0.785-0.028,1.083l0.078,2.796c0.008,0.298,0.011,0.786,0.005,1.084L22.199,42.601z"/>
			<path fill="#091724" d="M22.458,42.579c0.011,0.137,0.011,0.119,0.04,0.182c0.029,0.047,0.066,0.096,0.117,0.121
				c0.057,0.032,0.081,0.041,0.177,0.049l0.302,0.022l1.208,0.09l1.208,0.088l0.604,0.045l0.038,0.003
				c-0.031-0.001,0.013-0.001,0.016-0.002l0.074-0.002c0.019-0.013,0.034-0.007,0.064-0.024c0.056-0.022,0.103-0.064,0.133-0.116
				c0.035-0.056,0.041-0.102,0.044-0.188l0.003-0.303l0.005-0.605l0.012-1.211l0.023-2.422l0.018-2.416l-0.073-2.415
				c-0.036-0.81-0.03-1.613-0.09-2.404c-0.058-0.798-0.143-1.62-0.109-2.442c0.028-1.613,0.079-3.233,0.133-4.846l0.081-4.843
				c0.102-3.223,0.036-6.442,0.039-9.677l-0.01-0.605c-0.03-0.171-0.05-0.17-0.163-0.158c-0.274,0.144-0.729,0.381-1.127,0.458
				C24.381,9.1,23.61,9.171,22.799,9.282l-0.038,0.004c0.035-0.006-0.011,0.003-0.013,0.004l-0.074,0.017
				c-0.023,0.019-0.026,0.011-0.056,0.035c-0.054,0.027-0.092,0.08-0.127,0.128c-0.029,0.053-0.046,0.109-0.048,0.164l0,0.296
				l0.004,1.211l0.007,2.422c0.041,3.229-0.056,6.465-0.11,9.69l-0.028,2.421c-0.036,0.818,0.059,1.563,0.169,2.38
				c0.103,0.78,0.238,1.639,0.133,2.465c-0.066,0.812-0.17,1.597-0.142,2.389c0.087,3.227,0.001,6.477-0.017,9.697L22.458,42.579z
				 M21.938,42.596c0.062-3.236,0.273-6.445,0.047-9.674c-0.047-0.825,0.03-1.649,0.088-2.446c0.108-0.786-0.006-1.542-0.103-2.359
				c-0.101-0.782-0.189-1.648-0.141-2.447l0.039-2.422l0.054-9.684l0.007-2.422l0.004-1.211l0.003-0.31
				c0.005-0.147,0.051-0.288,0.123-0.41c0.077-0.117,0.172-0.225,0.296-0.295c0.051-0.039,0.149-0.07,0.218-0.093l0.074-0.014
				l0.061-0.01l0.038-0.003c0.793-0.077,1.635-0.121,2.388-0.225c0.401-0.078,0.668-0.222,1.118-0.426
				c0.134-0.04,0.329-0.021,0.455,0.103c0.125,0.116,0.157,0.298,0.159,0.404l0.009,0.605l0.138,4.842
				c0.019,0.807,0.057,1.612,0.056,2.429c-0.003,0.815-0.051,1.616-0.074,2.425c-0.121,3.228-0.259,6.454-0.229,9.681
				c0.221,3.162,0.383,6.468,0.245,9.681l-0.061,2.421l-0.03,1.211l-0.015,0.605l-0.008,0.303c-0.002,0.114-0.029,0.276-0.107,0.391
				c-0.07,0.122-0.179,0.224-0.308,0.282c-0.058,0.034-0.145,0.053-0.223,0.067L26.184,43.6l-0.06,0.001l-0.038-0.002l-0.605-0.031
				l-1.209-0.063l-1.209-0.061l-0.302-0.016c-0.105-0.001-0.284-0.034-0.4-0.109c-0.129-0.068-0.23-0.179-0.307-0.301
				c-0.078-0.11-0.117-0.332-0.115-0.396L21.938,42.596z"/>
		</g>
		<g id="buttons">
			<g>
				<circle fill="#FFFFFF" cx="24.463" cy="41.316" r="0.906"/>
				<path fill="#091724" d="M25.581,41.338c0.039,0.546-0.49,1.173-1.118,1.135c-0.616-0.019-1.123-0.56-1.135-1.156
					c-0.062-0.619,0.534-1.175,1.135-1.13c0.597,0.007,1.135,0.526,1.119,1.13L25.581,41.338z M25.157,41.316
					c0.008-0.366-0.322-0.714-0.694-0.683c-0.368,0.021-0.641,0.332-0.678,0.683c-0.036,0.372,0.325,0.699,0.678,0.656
					c0.341-0.014,0.681-0.255,0.695-0.678L25.157,41.316z"/>
			</g>
			<g>
				<circle fill="#FFFFFF" cx="24.467" cy="34.028" r="0.906"/>
				<path fill="#091724" d="M25.585,34.05c0.039,0.546-0.49,1.173-1.118,1.135c-0.616-0.019-1.123-0.559-1.135-1.156
					c-0.051-0.618,0.512-1.176,1.157-1.129c0.552,0.005,1.123,0.526,1.096,1.129L25.585,34.05z M25.161,34.028
					c-0.002-0.366-0.299-0.713-0.716-0.684c-0.323,0.022-0.628,0.333-0.655,0.684c-0.036,0.372,0.325,0.699,0.678,0.656
					c0.342-0.014,0.681-0.255,0.695-0.678L25.161,34.028z"/>
			</g>
			<g>
				<circle fill="#FFFFFF" cx="24.472" cy="26.74" r="0.906"/>
				<path fill="#091724" d="M25.589,26.762c0.039,0.546-0.49,1.173-1.118,1.135c-0.616-0.019-1.123-0.56-1.135-1.156
					c-0.062-0.619,0.534-1.175,1.135-1.13c0.597,0.007,1.135,0.526,1.119,1.13L25.589,26.762z M25.166,26.74
					c0.008-0.366-0.322-0.714-0.694-0.683c-0.368,0.021-0.641,0.332-0.678,0.683c-0.036,0.372,0.325,0.699,0.678,0.656
					c0.341-0.014,0.681-0.255,0.695-0.678L25.166,26.74z"/>
			</g>
			<g>
				<circle fill="#FFFFFF" cx="24.476" cy="19.451" r="0.906"/>
				<path fill="#091724" d="M25.594,19.473c0.027,0.545-0.465,1.174-1.143,1.134c-0.565-0.016-1.109-0.559-1.109-1.155
					c-0.062-0.619,0.534-1.175,1.135-1.13c0.597,0.008,1.134,0.527,1.119,1.13L25.594,19.473z M25.17,19.451
					c0.008-0.366-0.322-0.714-0.694-0.682c-0.369,0.02-0.641,0.332-0.678,0.682c-0.025,0.373,0.299,0.698,0.703,0.657
					c0.291-0.016,0.667-0.255,0.67-0.679L25.17,19.451z"/>
			</g>
			<g>
				<circle fill="#FFFFFF" cx="24.48" cy="12.163" r="0.906"/>
				<path fill="#091724" d="M25.598,12.185c0.039,0.546-0.49,1.173-1.118,1.135c-0.616-0.019-1.123-0.559-1.135-1.156
					c-0.062-0.619,0.534-1.175,1.135-1.13c0.597,0.007,1.135,0.527,1.119,1.13L25.598,12.185z M25.174,12.163
					c0.008-0.366-0.322-0.714-0.694-0.682c-0.368,0.02-0.641,0.332-0.678,0.682c-0.036,0.372,0.325,0.699,0.678,0.656
					c0.341-0.014,0.681-0.255,0.695-0.678L25.174,12.163z"/>
			</g>
		</g>
	</g>
	<g id="pockets" clip-path="url(#SVGID_2_)">
		<g id="pocket_r">
			<g>
				<path fill="#A2A0A2" d="M49.009,39.203c0.026,0.438-0.316,1.048-0.882,1.121c-0.446,0.045-0.801,0.052-1.207,0.078
					c-0.779,0.037-1.591,0.102-2.357,0.156l-2.352,0.14c-0.787,0.016-1.573,0.063-2.358,0.121l-0.017,0.001l-2.722,0.062
					c-0.46,0.007-0.893,0.028-1.376,0.023c-0.334-0.003-0.608-0.234-0.766-0.448c-0.167-0.226-0.271-0.486-0.289-0.778v-0.008
					c-0.009-0.152,0.106-0.283,0.26-0.292c0.152-0.01,0.283,0.106,0.292,0.259c0.001,0.007,0.001,0.015,0.001,0.021
					c-0.006,0.322,0.271,0.735,0.525,0.702l1.346-0.01l2.723-0.006h-0.017c0.785-0.068,1.568-0.154,2.353-0.246
					c0.787-0.044,1.576-0.064,2.367-0.085c0.801-0.035,1.568-0.055,2.359-0.123c0.38-0.03,0.811-0.053,1.15-0.093
					c0.248-0.059,0.428-0.284,0.415-0.627c-0.006-0.151,0.111-0.279,0.263-0.285c0.149-0.006,0.276,0.109,0.285,0.258L49.009,39.203
					z"/>
			</g>
			<g>
				<path fill="#091724" d="M48.971,38.892c0.026,0.438-0.318,1.048-0.882,1.121c-0.483,0.031-0.812,0.006-1.226,0.012
					c-0.786,0.004-1.574-0.011-2.347,0.035c-1.564,0.091-3.138,0.213-4.702,0.367l-0.014,0.001h-0.008l-2.303,0.055l-1.151,0.011
					l-0.576,0.006c-0.194,0.019-0.557-0.076-0.74-0.256c-0.204-0.175-0.336-0.414-0.39-0.665c-0.044-0.284-0.025-0.419-0.039-0.627
					L34.557,37.8c-0.03-0.767-0.035-1.535-0.046-2.303v-0.011c-0.002-0.147,0.114-0.269,0.261-0.274
					c2.301-0.092,4.598-0.156,6.897-0.22c2.294-0.04,4.587-0.133,6.875-0.261c0.15-0.011,0.281,0.104,0.291,0.254l0.001,0.012
					c0.029,1.29,0.075,2.58,0.136,3.869L48.971,38.892z M48.419,38.868c-0.03-1.284-0.075-2.568-0.136-3.852l0.292,0.266
					c-2.299,0.11-4.599,0.184-6.897,0.205c-2.293,0.019-4.588,0.123-6.875,0.275l0.261-0.285c0.038,0.768,0.086,1.533,0.092,2.302
					l0.023,1.151c0.001,0.421-0.006,0.696,0.214,0.876c0.111,0.088,0.172,0.122,0.363,0.126l0.576,0.001l1.151,0.003l2.303-0.026
					l-0.016,0.001l4.719-0.37c0.799-0.053,1.588-0.043,2.375-0.052c0.374-0.006,0.834,0.007,1.138-0.014
					C48.243,39.422,48.424,39.205,48.419,38.868z"/>
			</g>
			<g>
				<circle fill="#F0F0ED" cx="41.784" cy="38.464" r="0.75"/>
				<path fill="#091724" d="M42.694,38.299l0.016,0.15c0.048,0.45-0.371,0.984-0.892,0.972c-0.511,0.004-0.945-0.431-0.972-0.923
					c-0.07-0.51,0.406-0.989,0.904-0.969C42.199,37.519,42.617,37.862,42.694,38.299z M42.356,38.437
					c-0.009-0.3-0.288-0.573-0.592-0.536c-0.305,0.027-0.52,0.293-0.54,0.584c-0.02,0.309,0.29,0.567,0.579,0.522
					C42.083,38.985,42.35,38.779,42.356,38.437z"/>
			</g>
		</g>
		<g id="pocket_l">
			<g>
				<path fill="#A2A0A2" d="M5.4,39.172c0.009,0.189,0.019,0.232,0.071,0.339c0.052,0.09,0.118,0.177,0.205,0.22
					c0.115,0.081,0.509,0.073,0.799,0.109c0.619,0.048,1.235,0.12,1.856,0.146c1.204,0.045,2.472,0.05,3.703,0.131
					c1.242,0.096,2.473,0.113,3.729,0.134l1.86,0.084l0.465,0.026c-0.019,0.003,0.073,0.001,0.08-0.002l0.041-0.012
					c0.04-0.014,0.084-0.035,0.125-0.069c0.171-0.134,0.283-0.398,0.287-0.618v-0.006c0.003-0.152,0.129-0.274,0.281-0.271
					c0.153,0.003,0.274,0.129,0.271,0.282c0,0.004,0,0.01-0.001,0.015c-0.029,0.397-0.199,0.744-0.505,1.009
					c-0.077,0.066-0.169,0.124-0.274,0.164c-0.048,0.02-0.113,0.037-0.184,0.046c-0.069,0.007-0.057,0.009-0.152,0.007l-0.465-0.024
					l-1.858-0.12c-1.225-0.063-2.477-0.095-3.715-0.069c-1.247-0.027-2.468-0.13-3.732-0.195c-0.618-0.059-1.238-0.09-1.857-0.136
					c-0.317-0.052-0.583,0.033-1.02-0.162c-0.189-0.099-0.325-0.263-0.424-0.438c-0.101-0.166-0.137-0.438-0.138-0.557v-0.015
					c-0.001-0.152,0.121-0.277,0.273-0.278C5.27,38.908,5.392,39.025,5.4,39.172z"/>
			</g>
			<g>
				<path fill="#091724" d="M5.439,38.86c-0.006,0.342,0.175,0.55,0.409,0.606c0.319,0.032,0.756,0.048,1.129,0.071l2.331,0.109
					c1.566,0.109,3.086,0.215,4.644,0.174l2.344-0.013c0.389,0.009,0.778,0.003,1.166,0.024c0.363,0.006,0.878,0.077,0.937-0.05
					c0.213-0.154,0.233-0.371,0.237-0.81l0.044-1.166c0.023-0.777,0.072-1.554,0.116-2.33l0.26,0.285
					c-2.287-0.151-4.582-0.257-6.875-0.278c-2.298-0.02-4.599-0.09-6.898-0.202l0.292-0.266c-0.06,1.289-0.105,2.579-0.135,3.869
					V38.86z M4.887,38.866c0.061-1.289,0.105-2.579,0.135-3.869c0.003-0.15,0.128-0.271,0.279-0.267l0.012,0.001
					c2.289,0.13,4.581,0.219,6.875,0.259l6.897,0.222c0.148,0.004,0.264,0.127,0.261,0.274l0,0.011
					c-0.015,0.777-0.022,1.556-0.07,2.332l-0.058,1.165c-0.015,0.194,0,0.372-0.063,0.638c-0.064,0.241-0.209,0.464-0.421,0.613
					c-0.105,0.071-0.223,0.132-0.378,0.163c-0.077,0.019-0.105,0.011-0.16,0.018l-0.036,0.002l-0.065-0.002l-0.073-0.004
					l-0.582-0.037c-0.388-0.03-0.777-0.034-1.166-0.052c-0.758-0.021-1.55,0.002-2.324-0.003c-1.554,0.028-3.135-0.071-4.674-0.164
					l-2.331-0.093c-0.403-0.024-0.746-0.025-1.198-0.071c-0.548-0.08-0.885-0.68-0.862-1.11V38.866z"/>
			</g>
			<g>
				<circle fill="#F0F0ED" cx="12.074" cy="38.464" r="0.75"/>
				<path fill="#091724" d="M11.5,38.426c-0.001,0.351,0.272,0.56,0.555,0.581c0.289,0.044,0.599-0.214,0.58-0.522
					c-0.021-0.292-0.236-0.557-0.54-0.584c-0.308-0.037-0.59,0.24-0.594,0.543V38.426z M11.148,38.432
					c0.004-0.5,0.465-0.914,0.958-0.902c0.499-0.021,0.975,0.459,0.905,0.968c-0.027,0.494-0.462,0.927-0.973,0.924
					c-0.52,0.013-0.938-0.521-0.891-0.972V38.432z"/>
			</g>
		</g>
	</g>
	<g id="belt_folds" clip-path="url(#SVGID_2_)">
		<g>
			<path fill="none" stroke="#C8C0B4" stroke-width="0.4252" stroke-linejoin="round" d="M18.945,33.41l-0.989-0.49
				c-0.128-0.063-0.318-0.035-0.422,0.063l-0.379,0.358c-0.104,0.098-0.228,0.067-0.275-0.067l-0.098-0.277
				c-0.047-0.135-0.203-0.252-0.346-0.261l-1.234-0.073c-0.143-0.009-0.357,0.049-0.477,0.127l-0.69,0.451
				c-0.12,0.078-0.224,0.026-0.231-0.117l-0.011-0.191c-0.007-0.144-0.13-0.26-0.273-0.26l-0.684-0.001
				c-0.143,0-0.333,0.091-0.423,0.202l-0.154,0.189c-0.09,0.111-0.244,0.117-0.342,0.013l-0.264-0.279
				c-0.098-0.104-0.294-0.199-0.437-0.212l-0.669-0.058c-0.143-0.013-0.357,0.04-0.478,0.116l-0.504,0.319
				c-0.121,0.076-0.278,0.037-0.35-0.086l-0.09-0.155c-0.072-0.123-0.247-0.237-0.389-0.253l-0.766-0.085
				c-0.142-0.016-0.349,0.046-0.459,0.137l-0.366,0.302c-0.11,0.091-0.24,0.055-0.288-0.08L6.754,32.45
				c-0.048-0.135-0.204-0.254-0.346-0.265l-0.854-0.063c-0.142-0.011-0.32,0.08-0.395,0.201l-0.153,0.25
				c-0.075,0.121-0.225,0.145-0.333,0.051l-0.736-0.636 M49.658,32.367l-0.439,0.565c-0.088,0.112-0.247,0.128-0.354,0.034
				l-0.423-0.371c-0.107-0.094-0.313-0.167-0.455-0.162l-0.215,0.008c-0.143,0.005-0.349,0.085-0.456,0.179l-0.131,0.111
				c-0.107,0.094-0.308,0.205-0.443,0.249l-0.687,0.219c-0.136,0.044-0.341,0.009-0.455-0.076l-0.791-0.591
				c-0.114-0.085-0.322-0.129-0.461-0.097l-0.321,0.073c-0.139,0.032-0.3,0.166-0.356,0.297l-0.124,0.288
				c-0.057,0.131-0.189,0.159-0.294,0.062l-0.396-0.369c-0.104-0.098-0.308-0.174-0.45-0.17L42,32.627
				c-0.143,0.004-0.31,0.112-0.37,0.242l-0.107,0.23c-0.061,0.13-0.184,0.145-0.273,0.033l-0.222-0.271
				c-0.09-0.111-0.28-0.201-0.423-0.199L40.1,32.669c-0.143,0.002-0.266,0.12-0.273,0.263l-0.012,0.211
				c-0.008,0.143-0.09,0.171-0.183,0.063l-0.282-0.332c-0.093-0.108-0.286-0.194-0.429-0.191L38.046,32.7
				c-0.143,0.003-0.271,0.122-0.284,0.265l-0.024,0.243c-0.014,0.143-0.099,0.169-0.19,0.059l-0.275-0.331
				c-0.092-0.11-0.283-0.198-0.426-0.196l-1.012,0.015c-0.143,0.002-0.332,0.096-0.421,0.207l-0.184,0.23
				c-0.089,0.111-0.254,0.132-0.367,0.044l-0.354-0.273c-0.113-0.088-0.296-0.084-0.405,0.007l-0.191,0.16
				c-0.109,0.091-0.303,0.111-0.429,0.045L33.25,33.05c-0.126-0.066-0.335-0.07-0.464-0.009l-0.573,0.274 M32.005,32.16l0.752-0.569
				c0.114-0.087,0.302-0.088,0.417-0.004l0.557,0.407c0.115,0.084,0.273,0.055,0.351-0.065l0.138-0.215
				c0.077-0.12,0.256-0.235,0.397-0.256l0.021-0.002c0.142-0.021,0.366,0.003,0.501,0.052l0.39,0.143
				c0.135,0.049,0.355,0.053,0.491,0.008l0.557-0.183c0.136-0.045,0.343-0.014,0.459,0.069l0.566,0.403
				c0.116,0.083,0.304,0.078,0.417-0.01l0.535-0.417c0.113-0.088,0.322-0.161,0.465-0.163l0.317-0.003
				c0.143-0.002,0.339,0.083,0.437,0.188l0.147,0.159c0.098,0.104,0.261,0.109,0.364,0.011l0.223-0.215
				c0.104-0.099,0.305-0.176,0.447-0.172l0.677,0.02c0.143,0.004,0.353,0.079,0.466,0.165l0.524,0.399
				c0.113,0.086,0.27,0.059,0.347-0.062l0.234-0.364c0.077-0.12,0.258-0.225,0.4-0.232l0.712-0.038
				c0.144-0.008,0.356,0.052,0.476,0.131l0.585,0.393c0.119,0.079,0.306,0.07,0.416-0.021l0.52-0.429
				c0.11-0.091,0.311-0.127,0.445-0.079l0.582,0.202c0.135,0.048,0.348,0.03,0.474-0.038l0.403-0.218
				c0.126-0.068,0.338-0.083,0.472-0.032l0.78,0.294 M4.24,30.798l0.699,0.607c0.107,0.094,0.294,0.107,0.414,0.029l0.586-0.379
				c0.12-0.078,0.334-0.135,0.477-0.127l0.319,0.017c0.143,0.008,0.317,0.116,0.388,0.24L7.132,31.2
				c0.071,0.124,0.192,0.128,0.27,0.009c0.078-0.119,0.258-0.21,0.401-0.203l0.018,0.002c0.143,0.007,0.348,0.089,0.458,0.182
				l0.509,0.433c0.109,0.093,0.271,0.077,0.361-0.034l0.248-0.308c0.09-0.111,0.262-0.192,0.382-0.181
				c0.12,0.012,0.301,0.104,0.401,0.206l0.334,0.339c0.101,0.102,0.264,0.101,0.364-0.002l0.271-0.279
				c0.1-0.103,0.298-0.179,0.44-0.17l0.072,0.004c0.143,0.009,0.349,0.091,0.459,0.183l0.519,0.431
				c0.11,0.092,0.297,0.101,0.416,0.021l0.575-0.387c0.119-0.079,0.307-0.071,0.418,0.019l0.479,0.385
				c0.111,0.09,0.249,0.056,0.306-0.075l0.092-0.214c0.057-0.131,0.22-0.229,0.362-0.217l0.227,0.018
				c0.142,0.012,0.349,0.096,0.46,0.186l0.524,0.428c0.111,0.09,0.298,0.099,0.416,0.018l0.571-0.389
				c0.118-0.081,0.332-0.144,0.475-0.14l0.381,0.01c0.143,0.004,0.322,0.105,0.399,0.226l0.301,0.475"/>
		</g>
		<g>
			<path fill="#C8C0B4" d="M31.751,34.526c-0.141-0.609-0.233-1.183-0.386-1.757c-0.113-0.583-0.298-1.14-0.396-1.762
				c0.42,0.475,0.643,1.067,0.809,1.666C31.89,33.281,31.963,33.923,31.751,34.526z"/>
		</g>
		<g>
			<path fill="#C8C0B4" d="M19.98,34.495c-0.212-0.604-0.139-1.245-0.027-1.853c0.166-0.599,0.388-1.191,0.809-1.666
				c-0.098,0.622-0.282,1.179-0.395,1.762C20.213,33.313,20.12,33.886,19.98,34.495z"/>
		</g>
	</g>
	<g id="belt_knot" clip-path="url(#SVGID_2_)">
		<polygon fill="#F0F0ED" points="31.169,34.272 20.551,34.132 21.114,31.668 30.719,31.697 		"/>
		<g>
			<path fill="#F0F0ED" d="M31.222,34.253c-1.072,0.051-2.213,0.07-3.334,0.07c-3.715,0-7.224-0.216-7.415-0.228"/>
			<path fill="#091724" d="M31.222,34.253c-1.783,0.255-3.586,0.271-5.38,0.263c-1.794-0.06-3.589-0.138-5.369-0.42
				c1.799-0.071,3.587-0.015,5.376-0.005C27.64,34.149,29.424,34.157,31.222,34.253z"/>
		</g>
		<g>
			<path fill="#F0F0ED" d="M21.058,31.549c0.059,0.004,5.133,0.367,9.619,0.155"/>
			<path fill="#091724" d="M21.058,31.549c1.611-0.069,3.21-0.016,4.812-0.009c1.601,0.055,3.198,0.062,4.807,0.164
				c-1.596,0.251-3.209,0.267-4.815,0.261C24.255,31.907,22.647,31.83,21.058,31.549z"/>
		</g>
		<g>
			<g>
				<path fill="#F0F0ED" d="M25.916,33.819c0.069-0.43-0.226-0.837-0.655-0.905l-0.705-0.113c-0.429-0.068-0.836,0.226-0.905,0.655
					l-0.718,4.487c-0.069,0.43,0.226,0.836,0.655,0.905l0.705,0.112c0.429,0.068,0.836-0.226,0.905-0.655L25.916,33.819z"/>
				<path fill="none" stroke="#091724" stroke-width="0.4252" d="M25.916,33.819c0.069-0.43-0.226-0.837-0.655-0.905l-0.705-0.113
					c-0.429-0.068-0.836,0.226-0.905,0.655l-0.718,4.487c-0.069,0.43,0.226,0.836,0.655,0.905l0.705,0.112
					c0.429,0.068,0.836-0.226,0.905-0.655L25.916,33.819z"/>
			</g>
			<path fill="#F0F0ED" stroke="#091724" stroke-width="0.4252" d="M23.532,33.379c-1.354-0.353-3.301-1.05-3.669-2.199
				c-0.094-0.293-0.168-0.875,0.392-1.48c0.219-0.234,0.527-0.364,0.867-0.362c1.248,0.009,3.189,2.006,3.965,2.865l-0.577,0.521
				l-0.176,0.842C24.114,33.52,23.838,33.458,23.532,33.379z"/>
			<polygon fill="#F0F0ED" stroke="#091724" stroke-width="0.4252" stroke-linecap="round" stroke-linejoin="round" points="
				26.03,32.848 28.2,39.515 27.312,41.035 25.697,40.335 23.502,33.675 			"/>
			<path fill="#F0F0ED" stroke="#091724" stroke-width="0.4252" d="M24.548,31.865c0.861-0.921,1.994-2.638,3.668-2.556
				c0.53,0.026,0.985,0.322,1.147,0.826c0.19,0.594-0.857,2.787-4.553,3.468l-0.165-0.682l-0.592-0.501
				C24.185,32.266,24.353,32.074,24.548,31.865z"/>
			<g>
				<path fill="#58595B" d="M23.682,32.16c-0.282-0.127-0.513-0.28-0.722-0.473c-0.179-0.229-0.395-0.438-0.684-0.505
					c-0.282-0.075-0.539-0.176-0.802-0.263c-0.058-0.023-0.138-0.043-0.182-0.054l-0.05-0.012c0.004,0.011,0.056-0.043,0.054-0.075
					c-0.016-0.002,0.074,0.183,0.136,0.278l0.009,0.015c0.035,0.054,0.02,0.125-0.034,0.16c-0.049,0.032-0.113,0.022-0.15-0.021
					c-0.111-0.126-0.237-0.173-0.274-0.468c-0.001-0.112,0.127-0.207,0.198-0.213c0.062-0.011,0.12-0.012,0.166-0.004
					c0.099,0.01,0.158,0.032,0.236,0.057c0.288,0.089,0.56,0.229,0.784,0.431c0.218,0.211,0.487,0.32,0.768,0.442
					c0.25,0.158,0.457,0.386,0.571,0.68c0.004,0.01-0.001,0.021-0.01,0.024C23.692,32.163,23.687,32.162,23.682,32.16z"/>
			</g>
			<g>
				<path fill="#F0F0ED" d="M23.406,33.942c-0.049,0.196-0.042,0.385,0.042,0.541c0.254,0.475,1.068,0.506,1.817,0.07
					c0.748-0.437,1.148-1.176,0.894-1.649c-0.078-0.146-0.214-0.245-0.381-0.306c0.16-0.271,0.211-0.527,0.108-0.72
					c-0.127-0.236-0.452-0.324-0.86-0.271C24.7,31.649,24.317,31.781,23.941,32c-0.337,0.198-0.62,0.434-0.822,0.675
					c-0.307,0.362-0.434,0.732-0.296,0.989C22.918,33.843,23.132,33.932,23.406,33.942z"/>
				<path fill="#091724" d="M23.585,33.974c-0.112,0.386,0.098,0.663,0.478,0.709c0.367,0.051,0.779-0.056,1.115-0.266
					c0.339-0.205,0.635-0.499,0.786-0.84c0.17-0.34,0.056-0.707-0.256-0.784h0c-0.109-0.045-0.162-0.17-0.117-0.28l0.009-0.02
					c0.21-0.411,0.151-0.658-0.297-0.687c-0.401-0.049-0.889,0.088-1.265,0.322c-0.396,0.239-0.743,0.532-0.97,0.907
					c-0.101,0.181-0.165,0.395-0.098,0.522c0.048,0.133,0.233,0.194,0.442,0.202h0.018c0.092,0.004,0.164,0.081,0.161,0.173
					C23.592,33.947,23.589,33.961,23.585,33.974z M23.217,34.103c-0.219-0.039-0.461-0.146-0.57-0.403
					c-0.13-0.324,0.006-0.613,0.127-0.835c0.271-0.442,0.688-0.769,1.106-1.013c0.445-0.233,0.901-0.423,1.442-0.427
					c0.135,0.01,0.274,0.025,0.414,0.087c0.069,0.035,0.136,0.069,0.208,0.143c0.041,0.037,0.053,0.06,0.071,0.083
					c0.015,0.015,0.057,0.085,0.064,0.112c0.129,0.334-0.004,0.626-0.122,0.854l-0.107-0.299h0.001
					c0.122,0.056,0.232,0.103,0.347,0.224c0.066,0.063,0.084,0.104,0.115,0.147c0.049,0.087,0.068,0.134,0.086,0.207
					c0.072,0.271,0.002,0.533-0.098,0.748c-0.213,0.432-0.567,0.746-0.96,0.967c-0.396,0.21-0.84,0.369-1.324,0.314
					c-0.238-0.033-0.491-0.124-0.668-0.364C23.234,34.513,23.21,34.287,23.217,34.103z"/>
			</g>
		</g>
	</g>
	<g id="hood" clip-path="url(#SVGID_2_)">
		<path fill="#014A2D" stroke="#091724" stroke-width="0.4447" stroke-linejoin="round" d="M24.371,7.327
			c0,0-6.561-4.683-5.748-9.399c-0.479,0.193-0.85,0.437-1.169,0.705C14.665,4.801,22.513,5.588,24.371,7.327z"/>
		<path fill="#F0F0ED" stroke="#091724" stroke-width="0.6236" stroke-linejoin="round" d="M24.371,7.321
			c-1.858-1.738-9.564-2.383-6.775-8.552c0.02-0.043,0.033-0.083,0.054-0.125c-1.715-0.005-5.329,2.264-5.329,2.264
			s1.938,6.622,12.438,7.237C24.737,7.896,24.595,7.531,24.371,7.321z"/>
		<path fill="#014A2D" stroke="#091724" stroke-width="0.4447" stroke-linejoin="round" d="M29.49,7.327c0,0,6.56-4.683,5.747-9.399
			c0.479,0.193,0.851,0.437,1.169,0.705C39.195,4.801,31.347,5.588,29.49,7.327z"/>
		<path fill="#F0F0ED" stroke="#091724" stroke-width="0.6236" stroke-linejoin="round" d="M29.348,7.463
			c1.857-1.738,9.705-2.525,6.916-8.694c-0.02-0.043-0.033-0.083-0.053-0.125c1.714-0.005,5.47,2.264,5.47,2.264
			s-2.22,6.622-12.72,7.237C28.981,7.896,29.124,7.673,29.348,7.463z"/>
		<g id="cords">
			<g>
				<g>
					<path fill="#E3E2DB" d="M19.005,19.882c-0.11,0-0.22-0.042-0.304-0.127c-0.164-0.168-0.162-0.437,0.006-0.602l1.667-1.661
						c0.708-0.933,0.785-2.09,0.874-3.429c0.122-1.833,0.274-4.115,2.218-6.508c0.147-0.183,0.416-0.21,0.598-0.062
						c0.182,0.148,0.21,0.416,0.062,0.598c-1.773,2.183-1.91,4.226-2.029,6.028c-0.094,1.414-0.183,2.75-1.045,3.886l-0.086,0.115
						l-1.664,1.64C19.22,19.842,19.112,19.882,19.005,19.882z"/>
					<path fill="#091724" d="M18.987,20.066c-0.047-0.001-0.186-0.02-0.271-0.074c-0.081-0.033-0.181-0.143-0.211-0.187
						c-0.13-0.196-0.135-0.398-0.061-0.59c0.102-0.204,0.223-0.271,0.312-0.374l0.297-0.296l1.188-1.187l-0.017,0.02
						c0.547-0.714,0.699-1.648,0.781-2.572c0.082-0.931,0.118-1.886,0.287-2.83c0.165-0.942,0.449-1.874,0.895-2.725
						c0.223-0.425,0.481-0.83,0.76-1.218c0.143-0.198,0.278-0.375,0.447-0.574c0.189-0.225,0.596-0.236,0.8-0.014
						c0.249,0.215,0.17,0.646-0.014,0.811c-0.141,0.19-0.281,0.381-0.4,0.575c-0.251,0.386-0.464,0.8-0.652,1.219
						c-0.381,0.84-0.602,1.744-0.706,2.668c-0.113,0.923-0.113,1.868-0.238,2.824c-0.116,0.946-0.433,1.94-1.059,2.697l-0.01,0.012
						l-0.01,0.011l-0.954,0.931l-0.477,0.465l-0.238,0.233c-0.083,0.089-0.289,0.19-0.431,0.176L18.987,20.066z M19.005,19.698
						c0.081-0.014,0.094-0.006,0.17-0.073l0.236-0.235l0.472-0.47l0.944-0.94l-0.02,0.022c1.188-1.458,0.959-3.462,1.21-5.333
						c0.113-0.95,0.352-1.9,0.758-2.778c0.196-0.443,0.459-0.849,0.739-1.243c0.232-0.409,0.773-0.745,0.502-1.025
						c-0.115-0.139-0.335-0.143-0.454,0.005c-0.131,0.164-0.282,0.363-0.411,0.552c-0.268,0.381-0.497,0.788-0.699,1.206
						c-0.405,0.836-0.678,1.729-0.824,2.648c-0.152,0.919-0.177,1.855-0.248,2.805c-0.073,0.937-0.238,1.958-0.856,2.767
						l-0.018,0.02l-1.191,1.183l-0.298,0.296c-0.098,0.102-0.217,0.204-0.234,0.257c-0.034,0.066-0.013,0.174,0.01,0.213
						c0.09,0.096,0.08,0.107,0.228,0.123L19.005,19.698z"/>
				</g>
				<g>
					<path fill="#E3E2DB" d="M19.909,17.748c0.024-0.154,0.148-0.353,0.277-0.442l0.278-0.194c0.128-0.089,0.283-0.044,0.345,0.099
						l0.303,0.705c0.062,0.143-0.015,0.256-0.171,0.251l-0.809-0.024c-0.156-0.005-0.264-0.135-0.239-0.289L19.909,17.748z"/>
					<path fill="none" stroke="#091724" stroke-width="0.2835" stroke-linecap="round" stroke-linejoin="round" d="M19.909,17.748
						c0.024-0.154,0.148-0.353,0.277-0.442l0.278-0.194c0.128-0.089,0.283-0.044,0.345,0.099l0.303,0.705
						c0.062,0.143-0.015,0.256-0.171,0.251l-0.809-0.024c-0.156-0.005-0.264-0.135-0.239-0.289L19.909,17.748z"/>
				</g>
			</g>
			<g>
				<g>
					<path fill="#E3E2DB" d="M33.579,19.467c-0.161,0-0.316-0.093-0.388-0.25l-0.814-1.799l0.044-0.15
						c0.006-0.022,0.62-2.205,0.12-4.217c-0.675-2.716-2.777-4.91-2.799-4.932c-0.163-0.169-0.159-0.438,0.01-0.602
						c0.17-0.163,0.438-0.157,0.602,0.01c0.093,0.096,2.283,2.383,3.014,5.318c0.48,1.937,0.054,3.935-0.088,4.502l0.688,1.519
						c0.097,0.214,0.002,0.466-0.212,0.563C33.697,19.455,33.637,19.467,33.579,19.467z"/>
					<path fill="#091724" d="M33.552,19.649c-0.066-0.002-0.274-0.047-0.374-0.156c-0.117-0.099-0.171-0.244-0.205-0.32
						l-0.251-0.562l-0.501-1.124c-0.017-0.038-0.019-0.081-0.008-0.118v-0.002c0.46-1.747,0.505-3.651-0.196-5.327
						c-0.33-0.845-0.779-1.645-1.297-2.396c-0.259-0.375-0.535-0.74-0.829-1.087l-0.225-0.255c-0.036-0.038-0.096-0.104-0.122-0.145
						c-0.054-0.084-0.082-0.166-0.094-0.244c-0.046-0.338,0.188-0.658,0.544-0.688c0.163-0.014,0.331,0.041,0.452,0.15
						c0.107,0.101,0.168,0.178,0.251,0.269c0.155,0.177,0.304,0.357,0.449,0.541c0.289,0.368,0.561,0.749,0.814,1.141
						c0.517,0.778,0.99,1.599,1.306,2.49c0.671,1.776,0.613,3.767,0.177,5.573l-0.01-0.111v0.001l0.525,1.142
						c0.067,0.211,0.217,0.318,0.221,0.676c-0.007,0.298-0.317,0.563-0.602,0.554L33.552,19.649z M33.579,19.283
						c0.141-0.008,0.22-0.092,0.242-0.219c0.03-0.07-0.114-0.32-0.185-0.497l-0.512-1.147l-0.001-0.001
						c-0.016-0.036-0.018-0.077-0.01-0.112c0.208-0.882,0.311-1.798,0.289-2.704c0.005-0.905-0.14-1.806-0.447-2.672
						c-0.294-0.868-0.768-1.664-1.279-2.418c-0.25-0.382-0.518-0.753-0.802-1.111c-0.143-0.178-0.289-0.354-0.439-0.524
						c-0.072-0.08-0.159-0.181-0.223-0.237c-0.051-0.045-0.119-0.067-0.187-0.061c-0.116-0.004-0.258,0.153-0.221,0.281
						c-0.028,0.074,0.235,0.298,0.36,0.463c0.306,0.356,0.591,0.728,0.858,1.112c0.533,0.769,0.998,1.591,1.345,2.468
						c0.753,1.761,0.663,3.762,0.172,5.561l-0.001,0.002l-0.008-0.118l0.514,1.118l0.257,0.559c0.05,0.108,0.074,0.165,0.118,0.195
						c0.046,0.042,0.051,0.046,0.185,0.064L33.579,19.283z"/>
				</g>
				<g>
					<path fill="#E3E2DB" d="M32.438,17.817c-0.089-0.128-0.135-0.358-0.104-0.51l0.069-0.333c0.031-0.152,0.175-0.227,0.318-0.166
						l0.703,0.302c0.144,0.062,0.166,0.197,0.05,0.301l-0.603,0.539c-0.116,0.104-0.283,0.084-0.372-0.044L32.438,17.817z"/>
					<path fill="none" stroke="#091724" stroke-width="0.2835" stroke-linejoin="round" d="M32.438,17.817
						c-0.089-0.128-0.135-0.358-0.104-0.51l0.069-0.333c0.031-0.152,0.175-0.227,0.318-0.166l0.703,0.302
						c0.144,0.062,0.166,0.197,0.05,0.301l-0.603,0.539c-0.116,0.104-0.283,0.084-0.372-0.044L32.438,17.817z"/>
				</g>
			</g>
		</g>
	</g>
	<path id="wrinkles" clip-path="url(#SVGID_2_)" fill="#C8C0B4" d="M34.673,28.729c0,0,0.331-0.587,0.487-1.097
		c0.157-0.518,0.434-1.047,0.554-1.579c0.239-1.066,0.277-2.152,0.414-3.245c0.013,1.102,0.124,2.207,0.029,3.313
		c-0.047,0.553-0.23,1.219-0.219,1.779c0.025,1.167,0.903,1.866,0.903,1.866s-0.909-0.293-1.48-0.354
		c-0.571-0.077-1.793,0.236-1.793,0.236S34.466,29.089,34.673,28.729z M11.951,23.769c-0.911-0.352-1.621-0.958-2.18-1.673
		c-0.555-0.715-1.034-1.52-1.362-2.409c-0.633-1.787-0.824-3.741-0.863-5.676l-0.071-0.003c-0.164,1.936-0.149,3.924,0.395,5.853
		c0.267,0.954,0.648,1.936,1.364,2.697c0.699,0.747,1.687,1.313,2.707,1.281L11.951,23.769z M12.707,18.798
		c0.06-0.021,0.091-0.085,0.071-0.145l-0.003-0.008c-0.213-0.627-0.368-1.283-0.48-1.936c-0.107-0.656-0.191-1.316-0.201-1.982
		c-0.079-1.333,0.078-2.665,0.248-4.028c-0.572,1.256-0.806,2.651-0.814,4.043c0.029,0.695,0.091,1.394,0.26,2.072
		c0.172,0.677,0.4,1.34,0.787,1.938C12.602,18.794,12.656,18.815,12.707,18.798z M41.475,25.975c0.714-0.424,1.281-1.04,1.758-1.708
		c0.478-0.675,0.766-1.461,1.001-2.244c0.489-1.567,0.555-3.244,0.225-4.812l-0.07,0.01c0.124,1.587-0.112,3.175-0.689,4.615
		c-0.295,0.721-0.698,1.38-1.067,2.056c-0.37,0.681-0.775,1.343-1.205,2.03L41.475,25.975z M17.347,29.215
		c0,0-1.317-1.255-1.474-2.132c-0.628,1.003-1.537,1.097-1.568,1.85C16.156,28.682,17.347,29.215,17.347,29.215z M37.932,9.396
		c0.921,1.037,1.567,2.258,2.088,3.514c0.253,0.635,0.426,1.294,0.69,1.922c0.266,0.629,0.533,1.258,0.877,1.888l0.072-0.015
		c0.053-0.725-0.068-1.429-0.245-2.112c-0.181-0.685-0.52-1.315-0.855-1.936c-0.659-1.244-1.493-2.422-2.574-3.313L37.932,9.396z"/>
</g>
<g id="back-torso">
	<defs>
		<path id="SVGID_3_" d="M55.311,43.707c1.934-10.488,3.279-18.484,4.268-24.346C62.45,2.31,62.684,1.648,65.836,1.648
			c0.332,0,0.689,0.012,1.082,0.024c0.482,0.016,1.012,0.033,1.6,0.033c0.182,0,0.367-0.002,0.559-0.005h23.432
			c0.182,0.003,0.369,0.005,0.549,0.005c0.588,0,1.119-0.018,1.6-0.033c0.393-0.013,0.752-0.024,1.082-0.024
			c3.154,0,3.389,0.662,6.256,17.701c0.988,5.864,2.334,13.862,4.268,24.358H55.311z"/>
	</defs>
	<clipPath id="SVGID_4_">
		<use xlink:href="#SVGID_3_"  overflow="visible"/>
	</clipPath>
	<g id="belt_folds_1_" clip-path="url(#SVGID_4_)">
		<g>
			<path fill="none" stroke="#C8C0B4" stroke-width="0.4252" stroke-linejoin="round" d="M58.098,31.223l0.698,0.607
				c0.108,0.094,0.294,0.107,0.414,0.029l0.586-0.379c0.12-0.078,0.334-0.135,0.478-0.127l0.318,0.017
				c0.144,0.008,0.317,0.116,0.389,0.24l0.008,0.015c0.071,0.124,0.192,0.128,0.271,0.009s0.258-0.21,0.401-0.203l0.018,0.002
				c0.144,0.007,0.349,0.089,0.458,0.182l0.51,0.433c0.109,0.093,0.271,0.077,0.361-0.034l0.246-0.308
				c0.09-0.111,0.262-0.192,0.383-0.181s0.302,0.104,0.402,0.206l0.334,0.339c0.101,0.102,0.264,0.101,0.363-0.002l0.271-0.279
				c0.1-0.103,0.297-0.18,0.439-0.17l0.074,0.004c0.143,0.01,0.349,0.091,0.459,0.183l0.518,0.431
				c0.11,0.092,0.297,0.101,0.416,0.021l0.574-0.387c0.119-0.079,0.307-0.071,0.418,0.019l0.48,0.385
				c0.111,0.09,0.249,0.056,0.306-0.075l0.092-0.214c0.057-0.131,0.22-0.229,0.362-0.217l0.227,0.018
				c0.143,0.012,0.35,0.096,0.46,0.186l0.525,0.428c0.11,0.09,0.298,0.099,0.416,0.018l0.57-0.389
				c0.118-0.081,0.325-0.106,0.459-0.059l0.689,0.248c0.134,0.048,0.337,0.018,0.451-0.069l0.156-0.119
				c0.114-0.087,0.324-0.158,0.467-0.158l0.381-0.002c0.143,0,0.354,0.067,0.471,0.15l0.563,0.401
				c0.116,0.083,0.303,0.08,0.416-0.008l0.535-0.416c0.113-0.088,0.321-0.166,0.464-0.175l0.227-0.013
				c0.143-0.009,0.303,0.093,0.356,0.225l0.088,0.217c0.054,0.132,0.19,0.169,0.304,0.082l0.488-0.375
				c0.113-0.087,0.302-0.091,0.418-0.009l0.566,0.399c0.116,0.082,0.311,0.086,0.431,0.01l0.498-0.32
				c0.12-0.076,0.336-0.145,0.479-0.15l0.072-0.003c0.143-0.006,0.339,0.075,0.437,0.18l0.266,0.286
				c0.098,0.104,0.261,0.109,0.363,0.01l0.342-0.331c0.103-0.1,0.285-0.188,0.406-0.197s0.291,0.076,0.378,0.189l0.24,0.313
				c0.087,0.113,0.229,0.112,0.313-0.002l0.227-0.304c0.085-0.114,0.272-0.208,0.415-0.208h0.355c0.143,0,0.31,0.105,0.371,0.234
				l0.1,0.209c0.062,0.129,0.169,0.133,0.238,0.008l0.164-0.289c0.069-0.125,0.238-0.19,0.374-0.146l0.348,0.112
				c0.136,0.044,0.362,0.059,0.503,0.033l0.404-0.075c0.141-0.025,0.351,0.022,0.466,0.106l0.557,0.407
				c0.115,0.084,0.273,0.055,0.35-0.065l0.139-0.215c0.076-0.12,0.255-0.235,0.396-0.255l0.021-0.004
				c0.142-0.02,0.366,0.004,0.501,0.053l0.389,0.143c0.135,0.049,0.355,0.053,0.491,0.008l0.557-0.183
				c0.136-0.045,0.343-0.014,0.459,0.069l0.566,0.403c0.116,0.083,0.304,0.078,0.417-0.01l0.535-0.417
				c0.113-0.088,0.322-0.161,0.465-0.163l0.318-0.003c0.143-0.002,0.339,0.083,0.437,0.188l0.146,0.159
				c0.098,0.104,0.261,0.109,0.364,0.011l0.223-0.215c0.104-0.099,0.305-0.176,0.447-0.172l0.678,0.02
				c0.143,0.004,0.353,0.079,0.466,0.165l0.523,0.399c0.113,0.086,0.27,0.059,0.347-0.062l0.234-0.364
				c0.077-0.12,0.258-0.225,0.4-0.232l0.713-0.038c0.143-0.008,0.356,0.052,0.476,0.131l0.584,0.393
				c0.119,0.079,0.306,0.07,0.416-0.021l0.52-0.429c0.11-0.091,0.311-0.127,0.445-0.079l0.582,0.202
				c0.135,0.048,0.348,0.03,0.474-0.038l0.404-0.218c0.126-0.068,0.338-0.083,0.472-0.032l0.78,0.294 M103.516,32.792l-0.44,0.565
				c-0.088,0.113-0.247,0.128-0.354,0.034l-0.422-0.371c-0.107-0.094-0.299-0.117-0.426-0.051l-0.318,0.167
				c-0.127,0.066-0.34,0.079-0.474,0.029l-0.514-0.193c-0.134-0.05-0.316,0-0.406,0.111l-0.334,0.417
				c-0.09,0.111-0.257,0.132-0.371,0.047l-0.791-0.591c-0.114-0.085-0.322-0.129-0.461-0.097l-0.32,0.073
				c-0.139,0.032-0.3,0.166-0.356,0.297l-0.125,0.288c-0.057,0.131-0.189,0.159-0.294,0.062l-0.396-0.369
				c-0.104-0.098-0.308-0.174-0.45-0.17l-0.404,0.011c-0.143,0.004-0.31,0.112-0.37,0.242l-0.107,0.23
				c-0.061,0.13-0.184,0.145-0.274,0.034l-0.221-0.273c-0.091-0.11-0.281-0.2-0.424-0.198l-0.504,0.007
				c-0.143,0.002-0.266,0.119-0.273,0.263l-0.012,0.211c-0.008,0.144-0.09,0.171-0.182,0.063l-0.283-0.332
				c-0.092-0.108-0.285-0.194-0.428-0.191l-0.875,0.019c-0.143,0.003-0.271,0.122-0.285,0.265l-0.023,0.243
				c-0.014,0.143-0.1,0.169-0.191,0.059l-0.275-0.331c-0.092-0.11-0.283-0.198-0.426-0.196l-1.012,0.015
				c-0.143,0.002-0.332,0.096-0.421,0.207l-0.184,0.23c-0.089,0.111-0.254,0.132-0.366,0.044l-0.355-0.273
				c-0.112-0.088-0.295-0.084-0.404,0.007l-0.191,0.16c-0.109,0.091-0.285,0.087-0.391-0.01l-0.123-0.113
				c-0.105-0.097-0.309-0.174-0.451-0.173l-0.688,0.01c-0.143,0.001-0.29,0.116-0.327,0.254l-0.029,0.105
				c-0.037,0.138-0.132,0.153-0.211,0.034l-0.115-0.174c-0.079-0.119-0.253-0.175-0.386-0.122l-0.145,0.056
				c-0.133,0.053-0.35,0.048-0.48-0.009l-0.26-0.112c-0.131-0.057-0.272,0.008-0.313,0.145l-0.039,0.127
				c-0.041,0.137-0.151,0.159-0.243,0.05l-0.158-0.185c-0.092-0.109-0.285-0.196-0.428-0.193l-0.688,0.015
				c-0.143,0.003-0.319,0.105-0.392,0.229l-0.064,0.112c-0.072,0.123-0.216,0.143-0.318,0.043l-0.176-0.173
				c-0.103-0.1-0.304-0.18-0.446-0.178l-0.504,0.007c-0.143,0.002-0.268,0.119-0.277,0.262l-0.004,0.071
				c-0.01,0.143-0.103,0.179-0.206,0.08l-0.242-0.228c-0.104-0.099-0.295-0.13-0.425-0.071l-0.18,0.083
				c-0.13,0.059-0.347,0.067-0.48,0.02l-0.254-0.092c-0.134-0.048-0.303,0.014-0.374,0.137l-0.098,0.17
				c-0.071,0.123-0.202,0.133-0.291,0.021l-0.143-0.182c-0.089-0.112-0.277-0.214-0.42-0.227l-0.873-0.074
				c-0.143-0.013-0.331,0.069-0.42,0.181l-0.184,0.23c-0.089,0.111-0.254,0.132-0.366,0.044l-0.355-0.273
				c-0.112-0.088-0.295-0.084-0.404,0.007l-0.191,0.16c-0.109,0.091-0.303,0.111-0.429,0.045l-0.234-0.124
				c-0.126-0.066-0.329-0.06-0.451,0.015l-0.215,0.132c-0.122,0.074-0.324,0.079-0.449,0.011l-0.621-0.34
				c-0.125-0.068-0.313-0.045-0.416,0.054l-0.379,0.356c-0.104,0.099-0.228,0.068-0.275-0.066l-0.098-0.277
				c-0.048-0.135-0.19-0.191-0.317-0.125l-0.512,0.269c-0.127,0.066-0.269,0.01-0.315-0.125l-0.043-0.123
				c-0.047-0.135-0.201-0.229-0.343-0.211l-0.418,0.056c-0.142,0.019-0.349,0.107-0.46,0.197l-0.354,0.286
				c-0.111,0.09-0.209,0.047-0.217-0.097l-0.01-0.191c-0.008-0.144-0.132-0.26-0.274-0.26l-0.684-0.001
				c-0.143,0-0.333,0.091-0.423,0.202l-0.154,0.189c-0.09,0.111-0.243,0.117-0.342,0.014l-0.264-0.281
				c-0.099-0.104-0.295-0.198-0.438-0.211l-0.668-0.058c-0.143-0.013-0.357,0.04-0.479,0.116l-0.504,0.319
				c-0.121,0.076-0.278,0.037-0.35-0.086l-0.09-0.155c-0.071-0.123-0.246-0.237-0.388-0.253l-0.768-0.085
				c-0.142-0.016-0.348,0.046-0.458,0.137l-0.367,0.302c-0.11,0.091-0.239,0.055-0.287-0.08l-0.104-0.291
				c-0.048-0.135-0.203-0.258-0.345-0.272l-0.432-0.047c-0.142-0.015-0.349,0.046-0.459,0.137l-0.449,0.363
				c-0.11,0.091-0.29,0.088-0.397-0.006l-0.735-0.636"/>
		</g>
	</g>
	<g id="hood_2_" clip-path="url(#SVGID_4_)">
		<path id="shadow_2_" fill="#C8C0B4" d="M94.547,2.029c0,1.764-0.908,4.001-2.242,6.732c-1.25,2.562-2.842,5.251-4.768,6.823
			c-2.025,1.655-5.482,2.468-7.955,2.276c-4.998-0.389-9.035-6.338-10.273-8.431c-1.547-2.616-3.172-5.637-3.172-7.4
			C66.137,0.268,94.547,0.268,94.547,2.029z"/>
		<path id="hood_3_" fill="#F0F0ED" stroke="#091724" stroke-width="0.6236" d="M94.598,0.953c0,1.764-0.906,4.001-2.24,6.732
			c-1.252,2.562-2.844,5.251-4.77,6.823c-2.025,1.653-5.48,2.466-7.953,2.274c-4.998-0.388-9.035-6.337-10.273-8.43
			c-1.547-2.616-3.174-5.637-3.174-7.4c0-1.761,4.547-2.607,9.563-3.037c3.236-0.277,6.912-1.149,10.148-0.873
			C90.915-2.527,94.598-0.809,94.598,0.953z"/>
	</g>
	<path id="wrinkles_2_" clip-path="url(#SVGID_4_)" fill="#C8C0B4" d="M85.364,11.512c-0.02-0.058-0.08-0.087-0.139-0.068
		l-0.008,0.002c-0.605,0.209-1.24,0.363-1.869,0.474c-0.633,0.106-1.27,0.19-1.914,0.203c-1.285,0.083-2.574-0.063-3.891-0.22
		c1.217,0.547,2.564,0.766,3.908,0.767c0.672-0.032,1.348-0.095,2.002-0.261c0.652-0.17,1.291-0.394,1.867-0.77
		C85.362,11.613,85.379,11.562,85.364,11.512z M79.895,14.774c-0.48-0.167-0.938-0.332-1.387-0.52
		c-0.445-0.186-0.9-0.35-1.328-0.585c-0.848-0.479-1.588-1.161-2.15-1.986l-0.037,0.022c0.453,0.897,1.143,1.691,1.998,2.266
		c0.424,0.29,0.871,0.561,1.371,0.704c0.494,0.14,1.014,0.217,1.529,0.146L79.895,14.774z"/>
	<g id="wrinkles_1_" clip-path="url(#SVGID_4_)">
		<g>
			<path fill="#C8C0B4" d="M68.704,28.665c-1.088-0.451-2.008-1.287-2.726-2.232c-0.729-0.948-1.266-2.021-1.697-3.119
				c-0.416-1.106-0.727-2.245-0.921-3.401c-0.195-1.155-0.304-2.326-0.238-3.497c0.574,2.26,1.14,4.475,1.953,6.593
				c0.398,1.06,0.873,2.086,1.449,3.052C67.108,27.021,67.806,27.913,68.704,28.665z"/>
		</g>
		<g>
			<path fill="#C8C0B4" d="M93.567,13.509c0.366,0.872,0.551,1.792,0.605,2.719c0.009,0.467-0.035,0.935-0.026,1.398
				c0.008,0.463,0.063,0.923,0.117,1.387c0.119,0.926,0.122,1.869,0,2.804c-0.152,0.924-0.436,1.865-0.999,2.632l-0.051-0.025
				c0.228-0.904,0.356-1.787,0.45-2.687c0.12-0.896,0.193-1.802,0.289-2.72c0.044-0.459,0.061-0.921,0.01-1.379
				c-0.05-0.458-0.171-0.909-0.259-1.36c-0.141-0.907-0.211-1.817-0.191-2.757L93.567,13.509z"/>
		</g>
		<g>
			<path fill="#C8C0B4" d="M99.213,21.556c0.135,1.558-0.021,3.157-0.566,4.679c-0.277,0.75-0.608,1.535-1.213,2.12
				c-0.589,0.585-1.346,1.019-2.154,1.133l-0.035-0.078c0.599-0.537,1.116-1.041,1.555-1.62c0.428-0.574,0.893-1.144,1.221-1.819
				c0.326-0.672,0.573-1.393,0.748-2.136c0.188-0.74,0.317-1.504,0.359-2.275L99.213,21.556z"/>
		</g>
		<g>
			<path fill="#C8C0B4" d="M70.096,19.999c-0.134-0.586-0.42-1.089-0.71-1.595l-0.91-1.513c-0.292-0.517-0.589-1.04-0.811-1.606
				c-0.218-0.557-0.423-1.176-0.319-1.786c0.135,0.586,0.42,1.088,0.711,1.594l0.909,1.513c0.291,0.517,0.588,1.04,0.81,1.606
				C69.995,18.77,70.199,19.388,70.096,19.999z"/>
		</g>
		<g>
			<path fill="#C8C0B4" d="M78.585,29.3c0.496-0.109,0.994-0.166,1.494-0.208c0.499-0.053,1.002-0.03,1.505-0.016l0.033,0.12
				c-0.438,0.2-0.862,0.432-1.26,0.7c-0.097,0.066-0.204,0.138-0.278,0.204c-0.009-0.02-0.01,0.08,0.014-0.083
				c-0.06-0.123-0.118-0.067-0.096-0.083l0.022-0.002l0.087-0.008l0.18-0.018l0.72-0.06c0.961-0.066,1.925-0.082,2.894,0.002
				l0.002,0.031c-0.956,0.181-1.916,0.261-2.88,0.287l-0.724,0.007l-0.182-0.001l-0.093-0.002L80,30.171
				c0.011-0.017-0.072,0.041-0.133-0.096c0.027-0.191,0.057-0.11,0.069-0.15c0.118-0.077,0.223-0.124,0.334-0.179
				c0.439-0.207,0.87-0.421,1.288-0.663l0.033,0.12c-0.498,0.073-0.995,0.154-1.497,0.16c-0.501,0.017-1.003,0.019-1.508-0.032
				L78.585,29.3z"/>
		</g>
		<g>
			<path fill="#C8C0B4" d="M61.403,39.07c0.313-0.862,0.802-1.652,1.32-2.405c0.257-0.379,0.501-0.772,0.828-1.095
				c0.339-0.311,0.675-0.624,1.106-0.841l0.041,0.039c-0.194,0.438-0.463,0.8-0.719,1.173c-0.265,0.364-0.6,0.668-0.899,1.003
				c-0.588,0.679-1.169,1.368-1.627,2.149L61.403,39.07z"/>
		</g>
		<g>
			<path fill="#C8C0B4" d="M97.028,34.892c0.468,0.113,0.865,0.344,1.263,0.575c0.389,0.244,0.71,0.579,1.037,0.901
				s0.645,0.657,0.926,1.026c0.26,0.373,0.545,0.789,0.537,1.271h-0.057c-0.066-0.438-0.391-0.777-0.694-1.087
				c-0.311-0.314-0.654-0.599-1.009-0.868c-0.357-0.268-0.745-0.493-1.08-0.79c-0.327-0.309-0.668-0.6-0.954-0.982L97.028,34.892z"
				/>
		</g>
	</g>
</g>
</svg>
