<?xml version="1.0" encoding="utf-8"?>
<!-- Generator: Adobe Illustrator 15.1.0, SVG Export Plug-In . SVG Version: 6.00 Build 0)  -->
<!DOCTYPE svg PUBLIC "-//W3C//DTD SVG 1.1//EN" "http://www.w3.org/Graphics/SVG/1.1/DTD/svg11.dtd">
<svg version="1.1" xmlns="http://www.w3.org/2000/svg" xmlns:xlink="http://www.w3.org/1999/xlink" x="0px" y="0px"
	 width="56.693px" height="56.69px" viewBox="0 0 56.693 56.69" enable-background="new 0 0 56.693 56.69" xml:space="preserve">
<g id="base">
	<path id="front-base" fill="#676C68" stroke="#676C68" stroke-width="0.3125" d="M2.359,49.8
		C11.091,2.506,7.702,7.121,16.626,6.943h23.44c8.926,0.177,5.535-4.438,14.266,42.856H2.359z"/>
</g>
<g id="Baron_von_Richthofen">
	<defs>
		<path id="SVGID_1_" d="M2.871,49.374C4.804,38.887,6.15,30.892,7.138,25.029C10.01,7.979,10.243,7.316,13.396,7.316
			c0.331,0,0.689,0.012,1.082,0.024c0.481,0.016,1.012,0.033,1.6,0.033c0.181,0,0.366-0.002,0.558-0.005h23.432
			c0.183,0.003,0.369,0.005,0.55,0.005c0.588,0,1.118-0.018,1.6-0.033c0.393-0.013,0.751-0.024,1.082-0.024
			c3.153,0,3.388,0.662,6.256,17.701c0.987,5.865,2.334,13.862,4.268,24.357H2.871z"/>
	</defs>
	<clipPath id="SVGID_2_">
		<use xlink:href="#SVGID_1_"  overflow="visible"/>
	</clipPath>
	<polygon id="shirt" clip-path="url(#SVGID_2_)" fill="#F0F0ED" points="33.951,9.646 28.348,11.489 22.742,9.646 22.742,5.417 
		33.951,5.417 	"/>
	
		<path id="contour" clip-path="url(#SVGID_2_)" fill="none" stroke="#9E2D3A" stroke-width="0.4252" stroke-linejoin="round" stroke-miterlimit="10" d="
		M17.918,49.375l-6.905-36.126c0,0,1.311,0.726,2.754,0.453c1.139-0.216,1.73-1.262,1.73-1.262s1.67,1.277,3.805,0.888
		c1.855-0.339,3.161-2.014,3.161-2.014s2.359,1.937,5.883,1.817c3.524,0.12,5.884-1.816,5.884-1.816s1.305,1.675,3.16,2.014
		c2.135,0.39,3.805-0.888,3.805-0.888s0.592,1.046,1.73,1.262c1.443,0.273,2.754-0.453,2.754-0.453l-6.904,36.126"/>
	<g id="medals" clip-path="url(#SVGID_2_)">
		<g>
			<polygon fill="#F0F0ED" stroke="#091724" stroke-width="0.3118" stroke-linejoin="round" stroke-miterlimit="10" points="
				17.314,27.686 14.214,30.704 13.789,28.356 16.15,26.229 			"/>
			<polygon fill="#091724" points="13.848,28.927 15.826,27.103 16.453,27.887 14.08,30.208 			"/>
		</g>
		<g>
			<path fill="#4F4F50" d="M49.001,30.003l-1.198,0.723c-0.029,0.018-0.098,0.036-0.13,0.036h-0.312V30.45
				c0-0.033,0.019-0.1,0.035-0.128l0.723-1.202c0.047-0.079,0.05-0.169,0.009-0.242c-0.041-0.071-0.12-0.114-0.212-0.114h-2.269
				c-0.092,0-0.171,0.043-0.212,0.114c-0.041,0.072-0.038,0.164,0.01,0.244l0.723,1.198c0.018,0.03,0.036,0.097,0.036,0.13v0.312
				h-0.312c-0.033,0-0.1-0.019-0.128-0.035l-1.202-0.725c-0.16-0.096-0.355,0.018-0.355,0.203v2.269
				c0,0.186,0.188,0.303,0.357,0.202l1.198-0.721c0.03-0.018,0.097-0.036,0.13-0.036h0.312v0.312c0,0.032-0.019,0.101-0.035,0.128
				l-0.725,1.202c-0.047,0.078-0.05,0.169-0.009,0.241c0.041,0.071,0.12,0.114,0.212,0.114h2.269c0.092,0,0.171-0.043,0.212-0.114
				c0.041-0.072,0.038-0.162-0.01-0.243l-0.721-1.198c-0.018-0.029-0.036-0.098-0.036-0.13v-0.312h0.312
				c0.032,0,0.101,0.019,0.128,0.035l1.202,0.723c0.161,0.098,0.355-0.018,0.355-0.203v-2.269
				C49.358,30.02,49.169,29.904,49.001,30.003z"/>
			<g>
				<path fill="#091724" d="M47.2,31.475c0.005-0.005,0.061-0.009,0.125-0.009h0.348c0.064,0,0.161,0.027,0.216,0.06l1.2,0.722
					c0.055,0.032,0.1,0.008,0.1-0.057v-2.269c0-0.064-0.045-0.089-0.1-0.057l-1.2,0.724c-0.055,0.032-0.151,0.06-0.216,0.06h-0.348
					c-0.064,0-0.12-0.004-0.125-0.009s-0.009-0.061-0.009-0.125v-0.348c0-0.064,0.027-0.161,0.06-0.216l0.722-1.201
					c0.032-0.055,0.008-0.1-0.057-0.1h-2.269c-0.064,0-0.089,0.045-0.057,0.1l0.724,1.201c0.032,0.055,0.06,0.151,0.06,0.216v0.348
					c0,0.064-0.004,0.12-0.009,0.125s-0.061,0.009-0.125,0.009h-0.348c-0.064,0-0.161-0.027-0.216-0.06l-1.2-0.724
					c-0.055-0.032-0.1-0.008-0.1,0.057v2.269c0,0.064,0.045,0.089,0.1,0.057l1.2-0.722c0.055-0.032,0.151-0.06,0.216-0.06h0.348
					c0.064,0,0.12,0.004,0.125,0.009s0.009,0.061,0.009,0.125v0.348c0,0.064-0.027,0.161-0.06,0.216l-0.724,1.2
					c-0.032,0.055-0.008,0.1,0.057,0.1h2.269c0.064,0,0.089-0.045,0.057-0.1l-0.722-1.2c-0.032-0.055-0.06-0.151-0.06-0.216V31.6
					C47.191,31.535,47.195,31.479,47.2,31.475z"/>
				<path fill="none" stroke="#F0F0ED" stroke-width="0.3402" stroke-linejoin="round" stroke-miterlimit="10" d="M47.2,31.475
					c0.005-0.005,0.061-0.009,0.125-0.009h0.348c0.064,0,0.161,0.027,0.216,0.06l1.2,0.722c0.055,0.032,0.1,0.008,0.1-0.057v-2.269
					c0-0.064-0.045-0.089-0.1-0.057l-1.2,0.724c-0.055,0.032-0.151,0.06-0.216,0.06h-0.348c-0.064,0-0.12-0.004-0.125-0.009
					s-0.009-0.061-0.009-0.125v-0.348c0-0.064,0.027-0.161,0.06-0.216l0.722-1.201c0.032-0.055,0.008-0.1-0.057-0.1h-2.269
					c-0.064,0-0.089,0.045-0.057,0.1l0.724,1.201c0.032,0.055,0.06,0.151,0.06,0.216v0.348c0,0.064-0.004,0.12-0.009,0.125
					s-0.061,0.009-0.125,0.009h-0.348c-0.064,0-0.161-0.027-0.216-0.06l-1.2-0.724c-0.055-0.032-0.1-0.008-0.1,0.057v2.269
					c0,0.064,0.045,0.089,0.1,0.057l1.2-0.722c0.055-0.032,0.151-0.06,0.216-0.06h0.348c0.064,0,0.12,0.004,0.125,0.009
					s0.009,0.061,0.009,0.125v0.348c0,0.064-0.027,0.161-0.06,0.216l-0.724,1.2c-0.032,0.055-0.008,0.1,0.057,0.1h2.269
					c0.064,0,0.089-0.045,0.057-0.1l-0.722-1.2c-0.032-0.055-0.06-0.151-0.06-0.216V31.6C47.191,31.535,47.195,31.479,47.2,31.475z"
					/>
			</g>
		</g>
		<g>
			<path fill="#A2A0A2" stroke="#091724" stroke-width="0.2835" stroke-linejoin="round" stroke-miterlimit="10" d="M48.74,38.525
				c0.009-0.073-0.075-0.162-0.069-0.238c0.005-0.074,0.1-0.146,0.1-0.224c0-0.076-0.095-0.15-0.1-0.225
				c-0.006-0.076,0.078-0.163,0.069-0.237c-0.012-0.076-0.116-0.133-0.132-0.206c-0.017-0.074,0.056-0.175,0.034-0.247
				c-0.021-0.071-0.133-0.108-0.159-0.18c-0.027-0.07,0.027-0.182-0.004-0.248c-0.032-0.067-0.147-0.084-0.185-0.148
				c-0.038-0.065-0.001-0.186-0.044-0.244c-0.042-0.062-0.159-0.055-0.206-0.109c-0.047-0.057-0.032-0.182-0.085-0.23
				c-0.053-0.052-0.165-0.02-0.223-0.063c-0.058-0.042-0.067-0.169-0.128-0.204c-0.063-0.037-0.165,0.021-0.23-0.006
				c-0.063-0.028-0.102-0.146-0.167-0.166l-0.429-0.809l-0.43,0.809c-0.065,0.022-0.104,0.138-0.167,0.166
				c-0.065,0.027-0.167-0.031-0.229,0.006c-0.061,0.035-0.071,0.162-0.129,0.204c-0.057,0.044-0.17,0.012-0.222,0.062
				c-0.052,0.051-0.039,0.176-0.086,0.231s-0.164,0.049-0.206,0.109c-0.043,0.059-0.006,0.18-0.044,0.245
				c-0.037,0.064-0.152,0.079-0.185,0.148c-0.031,0.066,0.023,0.178-0.004,0.248c-0.026,0.071-0.138,0.108-0.159,0.182
				c-0.021,0.07,0.051,0.171,0.034,0.245c-0.016,0.073-0.12,0.13-0.132,0.206c-0.009,0.074,0.075,0.161,0.069,0.237
				c-0.005,0.074-0.1,0.148-0.1,0.225c0,0.077,0.095,0.149,0.1,0.224c0.006,0.078-0.078,0.165-0.069,0.238
				c0.012,0.076,0.116,0.132,0.132,0.205c0.017,0.074-0.056,0.175-0.034,0.247c0.021,0.073,0.133,0.11,0.159,0.18
				c0.027,0.07-0.027,0.183,0.004,0.248c0.032,0.07,0.147,0.085,0.185,0.148c0.038,0.065,0.001,0.187,0.044,0.246
				c0.042,0.061,0.159,0.053,0.206,0.108s0.034,0.182,0.085,0.231c0.053,0.05,0.165,0.018,0.223,0.062s0.068,0.169,0.128,0.205
				c0.063,0.036,0.165-0.022,0.23,0.007c0.064,0.027,0.102,0.146,0.169,0.165c0.067,0.02,0.154-0.064,0.224-0.056
				c0.069,0.01,0.133,0.116,0.204,0.116c0.07,0,0.134-0.106,0.203-0.116c0.069-0.009,0.156,0.075,0.224,0.056
				c0.067-0.019,0.104-0.138,0.169-0.165c0.065-0.029,0.168,0.029,0.229-0.006c0.061-0.037,0.071-0.162,0.129-0.206
				c0.057-0.044,0.17-0.012,0.222-0.062s0.039-0.176,0.086-0.231s0.164-0.047,0.206-0.108c0.043-0.06,0.006-0.181,0.044-0.245
				c0.037-0.063,0.152-0.079,0.185-0.147c0.031-0.067-0.023-0.18,0.004-0.25c0.026-0.069,0.138-0.107,0.159-0.18
				s-0.051-0.173-0.034-0.247C48.624,38.657,48.729,38.602,48.74,38.525z"/>
			<path fill="#868584" d="M46.783,40.411c-0.056-0.043-0.107-0.075-0.177-0.085c-0.005,0-0.01,0-0.015,0
				c-0.102,0-0.158,0.025-0.2,0.044c0.001-0.04-0.046-0.105-0.128-0.14l-0.037-0.016l-0.086-0.009L46.01,40.22
				c0.04-0.048,0.009-0.123-0.062-0.177c-0.073-0.056-0.156-0.063-0.212-0.067c0.007-0.051-0.009-0.13-0.064-0.195
				c-0.06-0.071-0.14-0.096-0.193-0.112c0.01-0.057,0.008-0.138-0.036-0.214c-0.046-0.078,2.637-2.858,2.681-2.782
				c0.046,0.079,0.119,0.119,0.167,0.146c-0.013,0.06-0.023,0.141,0.009,0.224c0.03,0.083,0.097,0.136,0.14,0.171
				c-0.02,0.062-0.043,0.14-0.023,0.227c0.018,0.086,0.071,0.146,0.11,0.188c-0.024,0.063-0.06,0.137-0.053,0.228
				c0.006,0.085,0.05,0.151,0.081,0.2c-0.031,0.065-0.075,0.132-0.081,0.22c-0.007,0.087,0.028,0.162,0.054,0.216
				c-0.039,0.052-0.094,0.111-0.112,0.199c-0.019,0.085,0.005,0.163,0.022,0.22c-0.045,0.044-0.106,0.094-0.139,0.178
				c-0.031,0.081-0.021,0.162-0.012,0.221c-0.045,0.03-0.116,0.069-0.162,0.146c-0.045,0.077-0.047,0.158-0.048,0.218
				c-0.043,0.014-0.123,0.038-0.183,0.109c-0.056,0.065-0.071,0.144-0.083,0.201c-0.002,0-0.004,0-0.007,0
				c-0.04,0-0.118,0.009-0.188,0.063c-0.068,0.053-0.1,0.127-0.122,0.182c-0.046-0.008-0.08-0.011-0.107-0.011
				c-0.04,0-0.065,0.007-0.088,0.018c-0.078,0.032-0.125,0.098-0.159,0.146c-0.009-0.027-0.069-0.055-0.142-0.055
				C46.888,40.336,46.826,40.376,46.783,40.411z"/>
			<path fill="#868584" stroke="#606062" stroke-width="0.2393" stroke-linejoin="round" stroke-miterlimit="10" d="M47.875,37.964
				c0,0.108-0.069,0.21-0.08,0.312c-0.015,0.107,0.025,0.225,0,0.324c-0.028,0.104-0.12,0.179-0.159,0.273
				c-0.044,0.097-0.043,0.223-0.098,0.305c-0.06,0.089-0.17,0.12-0.241,0.186c-0.078,0.069-0.131,0.181-0.219,0.22
				c-0.091,0.038-0.197-0.006-0.296-0.006c-0.098,0-0.204,0.044-0.295,0.006c-0.088-0.039-0.141-0.15-0.219-0.22
				c-0.071-0.065-0.182-0.098-0.241-0.186c-0.055-0.082-0.054-0.208-0.098-0.305c-0.039-0.095-0.131-0.169-0.159-0.273
				c-0.025-0.1,0.015-0.217,0-0.324c-0.011-0.102-0.08-0.203-0.08-0.312c0-0.107,0.069-0.209,0.08-0.312
				c0.015-0.106-0.025-0.224,0-0.323c0.028-0.104,0.12-0.18,0.159-0.272c0.044-0.099,0.043-0.225,0.098-0.306
				c0.06-0.089,0.17-0.122,0.241-0.187c0.078-0.069,0.131-0.18,0.219-0.218c0.091-0.039,0.197,0.004,0.295,0.004
				c0.099,0,0.205-0.043,0.296-0.004c0.088,0.038,0.141,0.148,0.219,0.218c0.071,0.064,0.182,0.098,0.241,0.187
				c0.055,0.081,0.054,0.207,0.098,0.306c0.039,0.093,0.131,0.169,0.159,0.272c0.025,0.1-0.015,0.217,0,0.323
				C47.806,37.755,47.875,37.856,47.875,37.964z"/>
			<path fill="#A2A0A2" d="M46.917,39.392c-0.045-0.007-0.091-0.013-0.135-0.013s-0.089,0.006-0.134,0.013l-0.142-0.059
				c-0.033-0.042-0.068-0.084-0.106-0.118c-0.035-0.032-0.08-0.062-0.127-0.089c-0.001-0.001-0.002-0.002-0.002-0.002
				c0.217-0.352,0.99-1.379,1.323-1.763c0.004,0.007,0.007,0.014,0.009,0.021c0.005,0.018,0,0.063-0.004,0.103
				c-0.005,0.058-0.011,0.124-0.001,0.195c0.006,0.064,0.028,0.125,0.049,0.18c0.014,0.04,0.029,0.081,0.029,0.104
				c0,0.024-0.016,0.066-0.03,0.106c-0.02,0.054-0.041,0.114-0.049,0.185c-0.009,0.065-0.003,0.132,0.002,0.189
				c0.004,0.04,0.009,0.085,0.003,0.106c-0.006,0.02-0.029,0.053-0.055,0.088c-0.032,0.044-0.069,0.095-0.096,0.159
				c-0.025,0.055-0.039,0.116-0.051,0.171c-0.008,0.035-0.019,0.084-0.028,0.099c-0.121,0.083-0.167,0.11-0.21,0.149
				c-0.036,0.032-0.071,0.074-0.104,0.116L46.992,39.4C46.968,39.4,46.942,39.396,46.917,39.392z"/>
			<path fill="none" stroke="#868584" stroke-width="0.1386" stroke-linejoin="round" stroke-miterlimit="10" d="M45.421,39.134
				c0.012-0.04,0.009-0.113-0.021-0.189c-0.03-0.074-0.077-0.128-0.121-0.168c0.02-0.035,0.03-0.11,0.011-0.193
				c-0.017-0.074-0.053-0.133-0.088-0.178c0.022-0.059,0.038-0.124,0.032-0.2c-0.005-0.076-0.032-0.141-0.062-0.19
				c0.031-0.055,0.057-0.117,0.063-0.192c0.006-0.076-0.012-0.144-0.033-0.198c0.038-0.048,0.072-0.106,0.089-0.179
				c0.017-0.075,0.01-0.144-0.003-0.199c0.045-0.042,0.087-0.095,0.114-0.165c0.027-0.067,0.031-0.134,0.028-0.19
				c0.049-0.032,0.098-0.077,0.136-0.139c0.037-0.063,0.053-0.126,0.06-0.181c0.054-0.023,0.108-0.058,0.155-0.112
				c0.046-0.052,0.072-0.106,0.089-0.156c0.055-0.013,0.112-0.035,0.168-0.076c0.051-0.036,0.088-0.081,0.115-0.125
				c0.059-0.001,0.114-0.013,0.165-0.033c0.111-0.047,0.175-0.122,0.214-0.173l0.06-0.02l0.192-0.346l0.193,0.351l0.061,0.018
				c0.049,0.062,0.108,0.127,0.203,0.167l0.066,0.028l0.107,0.007c0.029,0.047,0.067,0.093,0.123,0.133
				c0.053,0.038,0.109,0.059,0.16,0.07c0.018,0.053,0.043,0.104,0.086,0.154c0.053,0.059,0.113,0.096,0.165,0.118"/>
		</g>
		<g>
			<path fill="#4F4F50" d="M30.657,15.819c0.002-0.021,0.004-0.042,0.004-0.063s-0.002-0.042-0.004-0.063l0.835-0.902
				c0.045-0.048,0.051-0.119,0.015-0.174c-0.035-0.055-0.103-0.077-0.165-0.056l-0.868,0.303c-0.234-0.559-0.674-0.999-1.234-1.233
				l0.305-0.87c0.021-0.062-0.002-0.13-0.057-0.166c-0.053-0.036-0.125-0.03-0.174,0.015l-0.901,0.837
				c-0.043-0.007-0.087-0.005-0.13,0l-0.901-0.836c-0.048-0.044-0.119-0.051-0.174-0.015c-0.054,0.036-0.078,0.104-0.056,0.166
				l0.303,0.869c-0.56,0.234-1,0.674-1.234,1.234l-0.869-0.303c-0.063-0.021-0.129,0.001-0.166,0.056
				c-0.036,0.055-0.029,0.126,0.015,0.174l0.836,0.9c-0.003,0.021-0.005,0.043-0.005,0.065s0.002,0.044,0.005,0.065l-0.836,0.9
				c-0.044,0.048-0.05,0.12-0.015,0.174c0.036,0.055,0.103,0.077,0.166,0.056l0.869-0.303c0.234,0.56,0.674,1,1.234,1.234
				l-0.303,0.869c-0.021,0.062,0.002,0.13,0.056,0.166c0.024,0.016,0.051,0.023,0.078,0.023c0.035,0,0.069-0.013,0.096-0.038
				l0.902-0.836c0.042,0.005,0.085,0.004,0.128,0l0.902,0.836c0.049,0.044,0.119,0.051,0.175,0.015
				c0.054-0.036,0.077-0.104,0.056-0.166l-0.305-0.87c0.561-0.234,1-0.674,1.234-1.233l0.868,0.303
				c0.063,0.021,0.13-0.001,0.165-0.056c0.036-0.055,0.03-0.126-0.015-0.174L30.657,15.819z"/>
			<g>
				<path fill="#DCC291" d="M30.606,15.527c0,0.195-0.196,0.361-0.244,0.541c-0.05,0.186,0.035,0.428-0.059,0.59
					c-0.096,0.165-0.349,0.211-0.482,0.345s-0.18,0.387-0.345,0.482c-0.162,0.094-0.404,0.008-0.59,0.058
					c-0.179,0.048-0.346,0.244-0.54,0.244c-0.195,0-0.361-0.196-0.541-0.245c-0.186-0.05-0.427,0.036-0.59-0.058
					c-0.165-0.096-0.211-0.349-0.345-0.482s-0.387-0.18-0.482-0.345c-0.094-0.163-0.008-0.404-0.058-0.59
					c-0.048-0.18-0.245-0.346-0.245-0.54c0-0.195,0.196-0.361,0.245-0.541c0.05-0.186-0.036-0.427,0.058-0.59
					c0.096-0.165,0.349-0.211,0.482-0.345s0.18-0.387,0.345-0.482c0.163-0.094,0.404-0.008,0.59-0.058
					c0.18-0.048,0.346-0.245,0.54-0.245c0.195,0,0.361,0.196,0.541,0.245c0.186,0.049,0.428-0.036,0.591,0.058
					c0.165,0.095,0.211,0.349,0.345,0.482s0.387,0.18,0.481,0.345c0.095,0.163,0.009,0.404,0.059,0.59
					C30.41,15.166,30.606,15.333,30.606,15.527z"/>
				<path fill="none" stroke="#091724" stroke-width="0.2835" stroke-miterlimit="10" d="M30.606,15.527
					c0,0.195-0.196,0.361-0.244,0.541c-0.05,0.186,0.035,0.428-0.059,0.59c-0.096,0.165-0.349,0.211-0.482,0.345
					s-0.18,0.387-0.345,0.482c-0.162,0.094-0.404,0.008-0.59,0.058c-0.179,0.048-0.346,0.244-0.54,0.244
					c-0.195,0-0.361-0.196-0.541-0.245c-0.186-0.05-0.427,0.036-0.59-0.058c-0.165-0.096-0.211-0.349-0.345-0.482
					s-0.387-0.18-0.482-0.345c-0.094-0.163-0.008-0.404-0.058-0.59c-0.048-0.18-0.245-0.346-0.245-0.54
					c0-0.195,0.196-0.361,0.245-0.541c0.05-0.186-0.036-0.427,0.058-0.59c0.096-0.165,0.349-0.211,0.482-0.345
					s0.18-0.387,0.345-0.482c0.163-0.094,0.404-0.008,0.59-0.058c0.18-0.048,0.346-0.245,0.54-0.245
					c0.195,0,0.361,0.196,0.541,0.245c0.186,0.049,0.428-0.036,0.591,0.058c0.165,0.095,0.211,0.349,0.345,0.482
					s0.387,0.18,0.481,0.345c0.095,0.163,0.009,0.404,0.059,0.59C30.41,15.166,30.606,15.333,30.606,15.527z"/>
			</g>
			<path fill="#5B77BA" stroke="#091724" stroke-width="0.2835" stroke-linejoin="round" stroke-miterlimit="10" d="M28.408,15.548
				l2.981,1.041l-0.984-1.062l0.984-1.062l-2.981,1.041c-0.007-0.018-0.021-0.032-0.04-0.04l1.042-2.981l-1.063,0.986l-1.063-0.986
				l1.041,2.981c-0.019,0.007-0.033,0.021-0.039,0.04l-2.982-1.041l0.986,1.062l-0.986,1.062l2.982-1.041
				c0.006,0.019,0.021,0.033,0.039,0.04l-1.041,2.981l1.063-0.985l1.063,0.985l-1.042-2.981
				C28.387,15.582,28.401,15.567,28.408,15.548z"/>
			<g>
				<g>
					<g>
						<path fill="#96866D" d="M26.719,16.533l0.115-0.089c0.014-0.011,0.035-0.008,0.046,0.006c0.011,0.014,0.008,0.035-0.006,0.046
							c-0.004,0.003-0.008,0.005-0.013,0.006L26.719,16.533z"/>
						<path fill="#96866D" d="M27.168,16.243l0.175-0.083c0.036-0.017,0.078-0.001,0.095,0.034c0.017,0.036,0.001,0.078-0.034,0.094
							l-0.175,0.083c-0.036,0.017-0.078,0.001-0.095-0.034C27.118,16.302,27.133,16.26,27.168,16.243z"/>
						<path fill="#96866D" d="M27.695,15.995l0.128-0.061c0.035-0.017,0.078-0.001,0.094,0.034c0.009,0.02,0.009,0.041,0.001,0.059
							l-0.058,0.129c-0.016,0.036-0.058,0.052-0.094,0.036c-0.036-0.016-0.052-0.058-0.036-0.094l0.057-0.129l0.095,0.093
							l-0.128,0.061c-0.035,0.017-0.078,0.001-0.094-0.034C27.645,16.053,27.66,16.011,27.695,15.995z"/>
						<path fill="#96866D" d="M27.695,16.53l-0.083,0.187c-0.016,0.036-0.058,0.052-0.094,0.036
							c-0.036-0.016-0.052-0.058-0.036-0.094l0.083-0.187c0.016-0.036,0.058-0.052,0.094-0.036
							C27.695,16.452,27.711,16.494,27.695,16.53z"/>
						<path fill="#96866D" d="M27.411,17.074l-0.086,0.117l0.029-0.142c0.003-0.018,0.021-0.029,0.038-0.025
							c0.017,0.003,0.028,0.021,0.025,0.038C27.415,17.065,27.413,17.07,27.411,17.074z"/>
					</g>
					<g>
						<path fill="#96866D" d="M29.975,16.526l-0.143-0.028c-0.018-0.003-0.029-0.021-0.025-0.039
							c0.003-0.018,0.021-0.029,0.038-0.025c0.005,0.001,0.01,0.003,0.014,0.006L29.975,16.526z"/>
						<path fill="#96866D" d="M29.443,16.368l-0.187-0.083c-0.036-0.016-0.053-0.058-0.036-0.093
							c0.016-0.036,0.058-0.052,0.093-0.036l0.187,0.083c0.036,0.016,0.053,0.058,0.036,0.093
							C29.521,16.368,29.479,16.384,29.443,16.368z"/>
						<path fill="#96866D" d="M28.883,16.12l-0.13-0.057l0.093-0.095l0.061,0.128c0.017,0.036,0.002,0.078-0.034,0.095
							c-0.035,0.017-0.078,0.001-0.094-0.034l-0.061-0.128c-0.017-0.035-0.001-0.078,0.034-0.094
							c0.02-0.009,0.041-0.009,0.059-0.001l0.129,0.058c0.036,0.016,0.052,0.058,0.036,0.093
							C28.961,16.12,28.919,16.136,28.883,16.12z"/>
						<path fill="#96866D" d="M29.073,16.447l0.083,0.176c0.017,0.035,0.001,0.078-0.034,0.094s-0.077,0.001-0.095-0.034
							l-0.083-0.176c-0.017-0.035-0.001-0.078,0.034-0.094S29.056,16.412,29.073,16.447z"/>
						<path fill="#96866D" d="M29.286,16.99l0.032,0.142l-0.089-0.115c-0.011-0.014-0.009-0.034,0.006-0.045
							c0.014-0.011,0.034-0.008,0.045,0.005C29.283,16.981,29.285,16.986,29.286,16.99z"/>
					</g>
					<g>
						<path fill="#96866D" d="M29.975,14.521L29.86,14.61c-0.015,0.011-0.035,0.009-0.046-0.006
							c-0.012-0.014-0.009-0.035,0.006-0.046c0.004-0.003,0.008-0.005,0.013-0.006L29.975,14.521z"/>
						<path fill="#96866D" d="M29.526,14.811l-0.176,0.083c-0.035,0.017-0.078,0.001-0.095-0.034
							c-0.017-0.036-0.001-0.078,0.034-0.094l0.176-0.083c0.035-0.017,0.077-0.001,0.094,0.034
							C29.576,14.752,29.562,14.794,29.526,14.811z"/>
						<path fill="#96866D" d="M29,15.059l-0.128,0.061c-0.035,0.017-0.078,0.001-0.094-0.034c-0.009-0.02-0.009-0.041-0.001-0.059
							l0.058-0.129c0.016-0.036,0.058-0.052,0.093-0.036c0.036,0.016,0.052,0.058,0.036,0.093l-0.057,0.13l-0.095-0.093l0.128-0.061
							c0.035-0.017,0.077-0.001,0.094,0.034C29.05,15,29.035,15.042,29,15.059z"/>
						<path fill="#96866D" d="M28.999,14.524l0.083-0.187c0.016-0.036,0.058-0.052,0.093-0.036c0.036,0.016,0.053,0.058,0.036,0.094
							l-0.082,0.187c-0.016,0.036-0.058,0.052-0.094,0.036C29,14.602,28.983,14.56,28.999,14.524z"/>
						<path fill="#96866D" d="M29.283,13.98l0.086-0.117l-0.028,0.142c-0.004,0.018-0.021,0.029-0.038,0.025
							s-0.029-0.021-0.025-0.038C29.278,13.988,29.28,13.984,29.283,13.98z"/>
					</g>
					<g>
						<path fill="#96866D" d="M26.719,14.527l0.143,0.028c0.018,0.003,0.029,0.021,0.025,0.038
							c-0.003,0.018-0.021,0.029-0.038,0.026c-0.005-0.001-0.009-0.003-0.013-0.006L26.719,14.527z"/>
						<path fill="#96866D" d="M27.251,14.686l0.187,0.083c0.036,0.016,0.052,0.058,0.036,0.093
							c-0.016,0.036-0.058,0.052-0.093,0.036l-0.187-0.083c-0.036-0.016-0.052-0.058-0.036-0.093
							C27.173,14.686,27.215,14.669,27.251,14.686z"/>
						<path fill="#96866D" d="M27.811,14.934l0.13,0.057l-0.093,0.095l-0.061-0.128c-0.017-0.035-0.001-0.078,0.034-0.094
							c0.036-0.017,0.078-0.001,0.094,0.034l0.061,0.128c0.017,0.035,0.001,0.078-0.034,0.094c-0.02,0.009-0.041,0.009-0.059,0.001
							l-0.129-0.058c-0.036-0.016-0.052-0.058-0.036-0.093C27.733,14.934,27.775,14.917,27.811,14.934z"/>
						<path fill="#96866D" d="M27.622,14.607l-0.083-0.176c-0.017-0.035-0.001-0.078,0.034-0.094
							c0.036-0.017,0.078-0.001,0.094,0.034l0.083,0.176c0.017,0.035,0.001,0.078-0.034,0.094
							C27.681,14.657,27.639,14.642,27.622,14.607z"/>
						<path fill="#96866D" d="M27.409,14.063l-0.032-0.142l0.089,0.115c0.011,0.014,0.008,0.034-0.006,0.045
							c-0.014,0.011-0.034,0.008-0.045-0.005C27.412,14.072,27.41,14.068,27.409,14.063z"/>
					</g>
				</g>
			</g>
		</g>
	</g>
	<g id="buttons" clip-path="url(#SVGID_2_)">
		<g>
			<g>
				<ellipse fill="#E5A739" cx="37.595" cy="39.916" rx="1.021" ry="0.959"/>
				<path fill="#091724" d="M38.733,39.922c0.032,0.586-0.531,1.148-1.138,1.112c-0.599,0.002-1.157-0.502-1.168-1.117
					c-0.028-0.629,0.554-1.151,1.176-1.139c0.6-0.039,1.194,0.529,1.13,1.138V39.922z M38.499,39.916
					c-0.043-0.466-0.472-0.769-0.913-0.778c-0.419-0.018-0.858,0.334-0.865,0.779c-0.031,0.458,0.432,0.827,0.875,0.799
					c0.435-0.007,0.894-0.317,0.903-0.806V39.916z"/>
			</g>
			<g>
				<ellipse fill="#E5A739" cx="38.195" cy="36.693" rx="1.021" ry="0.959"/>
				<path fill="#091724" d="M39.334,36.699c0.032,0.587-0.532,1.148-1.139,1.112c-0.598,0.002-1.157-0.501-1.168-1.117
					c-0.032-0.629,0.563-1.151,1.167-1.139c0.617-0.039,1.2,0.529,1.14,1.138V36.699z M39.1,36.693
					c-0.039-0.466-0.479-0.77-0.904-0.778c-0.437-0.018-0.865,0.334-0.875,0.779c-0.031,0.458,0.432,0.827,0.875,0.799
					c0.436-0.007,0.895-0.317,0.904-0.806V36.693z"/>
			</g>
			<g>
				<ellipse fill="#E5A739" cx="38.795" cy="33.471" rx="1.021" ry="0.959"/>
				<path fill="#091724" d="M39.934,33.477c0.032,0.586-0.531,1.148-1.138,1.112c-0.599,0.002-1.157-0.502-1.168-1.117
					c-0.028-0.629,0.554-1.151,1.176-1.139c0.6-0.039,1.194,0.529,1.13,1.138V33.477z M39.699,33.471
					c-0.043-0.466-0.472-0.769-0.913-0.778c-0.419-0.018-0.858,0.334-0.865,0.779c-0.031,0.458,0.432,0.827,0.875,0.799
					c0.435-0.007,0.894-0.317,0.903-0.806V33.471z"/>
			</g>
			<g>
				<ellipse fill="#E5A739" cx="39.396" cy="30.248" rx="1.021" ry="0.959"/>
				<path fill="#091724" d="M40.533,30.254c0.032,0.586-0.531,1.148-1.137,1.112c-0.599,0.002-1.157-0.502-1.168-1.117
					c-0.028-0.629,0.553-1.151,1.175-1.139c0.6-0.039,1.194,0.53,1.13,1.138V30.254z M40.299,30.248
					c-0.043-0.466-0.471-0.769-0.912-0.778c-0.419-0.018-0.858,0.334-0.865,0.779c-0.031,0.458,0.432,0.827,0.874,0.799
					c0.436-0.007,0.894-0.318,0.903-0.806V30.248z"/>
			</g>
			<g>
				<ellipse fill="#E5A739" cx="39.996" cy="27.025" rx="1.021" ry="0.959"/>
				<path fill="#091724" d="M41.134,27.031c0.032,0.586-0.531,1.148-1.138,1.112c-0.599,0.001-1.157-0.502-1.168-1.118
					c-0.028-0.629,0.554-1.151,1.176-1.138c0.6-0.04,1.194,0.529,1.13,1.137V27.031z M40.899,27.025
					c-0.043-0.466-0.472-0.769-0.913-0.779c-0.419-0.017-0.858,0.334-0.865,0.779c-0.031,0.458,0.432,0.828,0.875,0.799
					c0.435-0.007,0.894-0.317,0.903-0.806V27.025z"/>
			</g>
		</g>
		<g>
			<g>
				<ellipse fill="#E5A739" cx="19.098" cy="39.916" rx="1.021" ry="0.959"/>
				<path fill="#091724" d="M18.194,39.91c0.01,0.488,0.469,0.799,0.904,0.806c0.443,0.028,0.906-0.341,0.875-0.799
					c-0.007-0.445-0.447-0.797-0.866-0.779c-0.442,0.01-0.87,0.313-0.913,0.778V39.91z M17.96,39.916
					c-0.064-0.608,0.531-1.177,1.13-1.138c0.622-0.013,1.205,0.51,1.175,1.139c-0.01,0.616-0.569,1.119-1.168,1.117
					c-0.606,0.036-1.169-0.526-1.138-1.112V39.916z"/>
			</g>
			<g>
				<ellipse fill="#E5A739" cx="18.498" cy="36.693" rx="1.021" ry="0.959"/>
				<path fill="#091724" d="M17.594,36.688c0.01,0.488,0.469,0.799,0.904,0.806c0.443,0.028,0.906-0.341,0.875-0.799
					c-0.007-0.445-0.447-0.797-0.866-0.779c-0.442,0.01-0.87,0.313-0.913,0.778V36.688z M17.36,36.693
					c-0.064-0.608,0.531-1.177,1.13-1.138c0.622-0.013,1.205,0.51,1.175,1.139c-0.01,0.616-0.569,1.119-1.168,1.117
					c-0.606,0.036-1.169-0.526-1.138-1.112V36.693z"/>
			</g>
			<g>
				<ellipse fill="#E5A739" cx="17.898" cy="33.471" rx="1.021" ry="0.959"/>
				<path fill="#091724" d="M16.994,33.465c0.01,0.488,0.468,0.799,0.903,0.806c0.443,0.028,0.906-0.341,0.875-0.799
					c-0.007-0.445-0.447-0.797-0.866-0.779c-0.441,0.01-0.869,0.313-0.913,0.778V33.465z M16.76,33.471
					c-0.064-0.608,0.531-1.177,1.13-1.138c0.622-0.013,1.204,0.51,1.175,1.139c-0.01,0.615-0.569,1.119-1.167,1.117
					c-0.606,0.036-1.169-0.526-1.138-1.112V33.471z"/>
			</g>
			<g>
				<ellipse fill="#E5A739" cx="17.298" cy="30.248" rx="1.021" ry="0.959"/>
				<path fill="#091724" d="M16.394,30.242c0.01,0.488,0.469,0.799,0.904,0.806c0.443,0.028,0.906-0.341,0.875-0.799
					c-0.011-0.445-0.439-0.797-0.875-0.779c-0.424,0.009-0.865,0.313-0.904,0.778V30.242z M16.159,30.248
					c-0.061-0.608,0.522-1.177,1.139-1.138c0.605-0.012,1.2,0.51,1.167,1.139c-0.011,0.616-0.57,1.119-1.168,1.117
					c-0.606,0.036-1.169-0.526-1.138-1.112V30.248z"/>
			</g>
			<g>
				<ellipse fill="#E5A739" cx="16.698" cy="27.025" rx="1.021" ry="0.959"/>
				<path fill="#091724" d="M15.793,27.019c0.01,0.488,0.469,0.799,0.904,0.806c0.443,0.029,0.906-0.34,0.875-0.799
					c-0.011-0.445-0.439-0.796-0.875-0.779c-0.424,0.009-0.865,0.312-0.904,0.778V27.019z M15.559,27.025
					c-0.061-0.608,0.522-1.177,1.139-1.138c0.605-0.012,1.2,0.509,1.167,1.139c-0.011,0.616-0.57,1.119-1.168,1.118
					c-0.606,0.036-1.169-0.526-1.138-1.112V27.025z"/>
			</g>
		</g>
		<g>
			<ellipse fill="#E5A739" cx="16.174" cy="15.333" rx="1.021" ry="0.959"/>
			<path fill="#091724" d="M17.312,15.339c0.032,0.586-0.531,1.148-1.138,1.112c-0.598,0.001-1.157-0.502-1.167-1.118
				c-0.029-0.629,0.553-1.151,1.175-1.138c0.6-0.04,1.195,0.529,1.13,1.137V15.339z M17.078,15.333
				c-0.043-0.466-0.471-0.769-0.913-0.778c-0.419-0.017-0.859,0.334-0.866,0.779c-0.031,0.458,0.432,0.828,0.875,0.799
				c0.435-0.007,0.893-0.317,0.903-0.806V15.333z"/>
		</g>
		<g>
			<ellipse fill="#E5A739" cx="40.52" cy="15.332" rx="1.021" ry="0.959"/>
			<path fill="#091724" d="M41.658,15.338c0.032,0.586-0.531,1.148-1.138,1.112c-0.598,0.002-1.158-0.501-1.169-1.117
				c-0.033-0.629,0.563-1.151,1.167-1.139c0.616-0.04,1.2,0.528,1.14,1.137V15.338z M41.424,15.332
				c-0.039-0.466-0.48-0.769-0.905-0.777c-0.437-0.017-0.864,0.333-0.874,0.779c-0.031,0.458,0.432,0.827,0.876,0.798
				c0.436-0.007,0.894-0.317,0.903-0.806V15.332z"/>
		</g>
	</g>
	<g id="collar" clip-path="url(#SVGID_2_)">
		<path fill="#676C68" stroke="#091724" stroke-width="0.5102" stroke-linejoin="round" stroke-miterlimit="10" d="M28.409,12.271
			c0,0,0.063-2.506,1.039-2.879c3.68-0.877,5.061-3.299,5.061-3.299s2.738-0.675,2.546-0.031
			C35.255,12.081,28.409,12.271,28.409,12.271z"/>
		<path fill="#676C68" stroke="#091724" stroke-width="0.5102" stroke-linejoin="round" stroke-miterlimit="10" d="M28.284,12.271
			c0,0-0.063-2.506-1.039-2.879c-3.68-0.877-5.061-3.299-5.061-3.299s-2.738-0.675-2.546-0.031
			C21.438,12.081,28.284,12.271,28.284,12.271z"/>
		<g>
			
				<path fill="none" stroke="#9E2D3A" stroke-width="0.4252" stroke-linecap="round" stroke-linejoin="round" stroke-miterlimit="10" d="
				M29.205,11.629c0,0,0.167-1.072,0.375-1.363c0.292-0.408,3.959-0.825,5.571-3.846"/>
			
				<path fill="none" stroke="#9E2D3A" stroke-width="0.4252" stroke-linecap="round" stroke-linejoin="round" stroke-miterlimit="10" d="
				M27.488,11.629c0,0-0.167-1.072-0.375-1.363c-0.292-0.408-3.959-0.825-5.571-3.846"/>
		</g>
	</g>
	<g id="belt" clip-path="url(#SVGID_2_)">
		
			<rect x="1.418" y="42.91" fill="#692F16" stroke="#091724" stroke-width="0.6986" stroke-miterlimit="10" width="53.857" height="5.406"/>
		<path fill="#692F16" stroke="#091724" stroke-width="0.7135" stroke-miterlimit="10" d="M45.972,48.316h-4.291V42.91h4.291
			c0,0,1.417,1.559,1.417,2.703S45.972,48.316,45.972,48.316z"/>
		<path fill="#692F16" stroke="#091724" stroke-width="0.7135" stroke-miterlimit="10" d="M41.759,48.311
			c0,0.174-0.119,0.315-0.265,0.315h-1.752c-0.146,0-0.265-0.142-0.265-0.315v-5.395c0-0.174,0.119-0.315,0.265-0.315h1.752
			c0.146,0,0.265,0.142,0.265,0.315V48.311z"/>
		<g>
			<circle fill="#091724" cx="5.673" cy="45.613" r="0.422"/>
			<circle fill="#091724" cx="9.555" cy="45.613" r="0.422"/>
			<circle fill="#091724" cx="13.438" cy="45.613" r="0.422"/>
			<circle fill="#091724" cx="17.32" cy="45.613" r="0.422"/>
			<circle fill="#091724" cx="21.203" cy="45.613" r="0.422"/>
			<circle fill="#091724" cx="25.085" cy="45.613" r="0.422"/>
			<circle fill="#091724" cx="28.968" cy="45.613" r="0.422"/>
			<circle fill="#091724" cx="32.85" cy="45.613" r="0.422"/>
			<circle fill="#091724" cx="36.732" cy="45.613" r="0.422"/>
		</g>
		<g>
			<path fill="#A2A0A2" stroke="#091724" stroke-width="0.2835" stroke-linejoin="round" stroke-miterlimit="10" d="M24.043,48.036
				h-2.502c-0.156,0-0.284-0.121-0.284-0.27v-4.309c0-0.146,0.128-0.268,0.284-0.268h2.502c0,0,0.029-0.297-0.142-0.566
				c-0.198-0.316-0.455-0.283-0.455-0.283h-1.906c-0.625,0-1.134,0.5-1.134,1.117v4.309c0,0.617,0.509,1.119,1.134,1.119h1.906
				c0,0,0.257,0.031,0.455-0.283C24.072,48.331,24.043,48.036,24.043,48.036z"/>
			<path fill="#A2A0A2" stroke="#091724" stroke-width="0.2212" stroke-miterlimit="10" d="M21.059,45.968h2.131
				c0.119,0,0.216-0.16,0.216-0.355s-0.097-0.354-0.216-0.354h-2.131c-0.119,0-0.216,0.158-0.216,0.354S20.94,45.968,21.059,45.968z
				"/>
		</g>
	</g>
	<g id="epaulettes" clip-path="url(#SVGID_2_)">
		<polygon fill="#4F4F50" stroke="#091724" stroke-width="0.4252" stroke-linejoin="round" stroke-miterlimit="10" points="
			44.742,8.957 38.485,8.457 37.978,7.695 38.102,6.152 44.923,6.697 		"/>
		<polygon fill="#4F4F50" stroke="#091724" stroke-width="0.4252" stroke-linejoin="round" stroke-miterlimit="10" points="
			11.454,8.957 17.71,8.457 18.218,7.695 18.094,6.152 11.273,6.697 		"/>
	</g>
</g>
</svg>
