<?xml version="1.0" encoding="utf-8"?>
<!-- Generator: Adobe Illustrator 15.1.0, SVG Export Plug-In . SVG Version: 6.00 Build 0)  -->
<!DOCTYPE svg PUBLIC "-//W3C//DTD SVG 1.1//EN" "http://www.w3.org/Graphics/SVG/1.1/DTD/svg11.dtd">
<svg version="1.1" xmlns="http://www.w3.org/2000/svg" xmlns:xlink="http://www.w3.org/1999/xlink" x="0px" y="0px"
	 width="113.384px" height="56.69px" viewBox="0 0 113.384 56.69" enable-background="new 0 0 113.384 56.69" xml:space="preserve">
<g id="base">
	<path id="front-base" fill="#A2A0A2" stroke="#A2A0A2" stroke-width="0.3125" d="M2.359,49.8
		C11.091,2.506,7.702,7.121,16.626,6.943h23.44c8.926,0.177,5.535-4.438,14.266,42.856H2.359z"/>
	<path id="back-base" fill="#A2A0A2" stroke="#A2A0A2" stroke-width="0.3125" d="M59.051,49.801
		c8.732-47.295,5.342-42.68,14.268-42.857h23.439c8.926,0.177,5.535-4.438,14.266,42.857H59.051z"/>
</g>
<g id="design">
	<defs>
		<path id="SVGID_1_" d="M2.87,49.375c1.933-10.488,3.279-18.483,4.267-24.346c2.872-17.051,3.106-17.713,6.259-17.713
			c0.331,0,0.689,0.012,1.082,0.024c0.481,0.016,1.012,0.033,1.6,0.033c0.181,0,0.366-0.002,0.558-0.005h23.432
			c0.183,0.003,0.369,0.005,0.55,0.005c0.588,0,1.118-0.018,1.6-0.033c0.393-0.013,0.751-0.024,1.082-0.024
			c3.153,0,3.388,0.662,6.256,17.701c0.987,5.865,2.334,13.862,4.268,24.358H2.87z"/>
	</defs>
	<clipPath id="SVGID_2_">
		<use xlink:href="#SVGID_1_"  overflow="visible"/>
	</clipPath>
	<g id="under_coat" clip-path="url(#SVGID_2_)">
		<defs>
			<polygon id="SVGID_3_" points="35.292,11.208 30.975,14.725 24.167,12.833 20.875,10.292 17.524,4.625 38.21,4.625 			"/>
		</defs>
		<clipPath id="SVGID_4_">
			<use xlink:href="#SVGID_3_"  overflow="visible"/>
		</clipPath>
		<rect id="skin" x="23.458" y="5.417" clip-path="url(#SVGID_4_)" fill="#FFCE08" width="11.208" height="4.792"/>
		<g id="scarf" clip-path="url(#SVGID_4_)">
			<path fill="#014A2D" stroke="#000000" stroke-width="0.341" stroke-linecap="round" stroke-linejoin="round" d="M32.001,9.717
				c0,0-5.694,4.372-7.295,4.313c-4.732-0.176-6.501-8.375-6.501-8.375s4.504-0.815,4.644,0C23.55,9.729,32.001,9.717,32.001,9.717z
				"/>
			<path fill="#014A2D" stroke="#000000" stroke-width="0.341" stroke-linecap="round" stroke-linejoin="round" d="M23.065,15.385
				c-0.931-0.607-0.434-0.787-0.714-1.059c-0.354-0.342-1.071-0.227-1.248-1.288C20.325,8.625,32.374,12.28,34.63,5.855
				c1.53-0.263,4.286,0,4.286,0S36.5,16.708,23.065,15.385z"/>
			<g>
				<path d="M18.152,3.634c0.688,1.046,1.327,2.1,2.077,3.075c0.722,0.995,1.528,1.914,2.524,2.669
					c-1.186-0.468-2.087-1.443-2.853-2.425C19.173,5.927,18.537,4.832,18.152,3.634z"/>
			</g>
			<g>
				<path d="M28.348,11.983c1.294-0.417,2.551-0.836,3.753-1.382c1.204-0.54,2.335-1.198,3.339-2.118
					c-0.331,0.6-0.813,1.111-1.35,1.545c-0.536,0.439-1.142,0.781-1.766,1.07c-0.63,0.274-1.279,0.503-1.948,0.646
					C29.709,11.891,29.032,11.996,28.348,11.983z"/>
			</g>
			<g>
				<path d="M25.24,12.933c-0.073-0.365,0.166-0.696,0.396-0.938c0.249-0.246,0.566-0.382,0.871-0.508
					c0.613-0.253,1.252-0.394,1.892-0.487l0.008,0.035c-0.615,0.194-1.221,0.416-1.775,0.713c-0.275,0.154-0.52,0.344-0.759,0.52
					c-0.242,0.176-0.464,0.375-0.596,0.665L25.24,12.933z"/>
			</g>
			<g>
				<path d="M21.923,5.089c0.159,0.299,0.244,0.588,0.359,0.873c0.107,0.285,0.165,0.584,0.27,0.873
					c0.214,0.574,0.52,1.118,0.875,1.639c0.007,0.009,0.004,0.022-0.005,0.028c-0.008,0.006-0.02,0.004-0.026-0.003
					c-0.448-0.444-0.848-0.954-1.143-1.53c-0.151-0.285-0.304-0.579-0.366-0.899c-0.048-0.322-0.079-0.652-0.004-0.975
					c0.002-0.012,0.014-0.02,0.025-0.017C21.915,5.079,21.92,5.083,21.923,5.089z"/>
			</g>
		</g>
	</g>
	<g id="shadows" clip-path="url(#SVGID_2_)">
		<g>
			<path fill="#606062" d="M18.856,29.349l11.655-4.863l11.742-4.634c0.219-0.086,0.465,0.021,0.552,0.239
				c0.085,0.215-0.019,0.458-0.23,0.547l-0.015,0.006l-2.91,1.226l-2.943,1.137l-5.89,2.27l-5.962,2.082l-2.982,1.038L18.856,29.349
				z"/>
		</g>
		<g>
			<path fill="#606062" d="M23.04,23.644l-8.929-3.756c-0.217-0.091-0.318-0.34-0.227-0.557c0.091-0.216,0.34-0.318,0.557-0.227
				c0.005,0.002,0.012,0.005,0.017,0.008l8.756,4.144c0.106,0.05,0.151,0.177,0.101,0.283C23.266,23.642,23.144,23.687,23.04,23.644
				z"/>
		</g>
		<g>
			<path fill="#606062" d="M35.799,15.549l7.624,0.2c0.234,0.006,0.42,0.202,0.414,0.437c-0.006,0.235-0.202,0.42-0.437,0.414
				c-0.014,0-0.027-0.001-0.04-0.002l-7.571-0.907c-0.039-0.005-0.067-0.04-0.063-0.079C35.731,15.575,35.763,15.548,35.799,15.549z
				"/>
		</g>
		<g>
			<path fill="#606062" d="M19.554,15.397l-6.115,1.4c-0.229,0.053-0.458-0.09-0.51-0.32c-0.052-0.229,0.091-0.458,0.32-0.51
				c0.016-0.003,0.032-0.006,0.047-0.008l6.234-0.702c0.039-0.004,0.074,0.023,0.078,0.063
				C19.613,15.356,19.589,15.389,19.554,15.397z"/>
		</g>
	</g>
	<g id="top_collar" clip-path="url(#SVGID_2_)">
		<path fill="#606062" stroke="#091724" stroke-width="0.6236" stroke-linejoin="round" d="M18.442,5.63
			c0,0,0.464,5.245,6.793,7.526c-4.583,2.25-11.859,2.779-11.859,2.779c-0.438,0.165-0.699-0.071-0.581-0.524l2.284-9.646
			L18.442,5.63z"/>
		<path fill="#606062" stroke="#091724" stroke-width="0.6236" stroke-linejoin="round" d="M37.128,5.671
			c0,0,0.164,4.496-4.325,7.284c-0.332,0.207-0.937,0.918-0.937,0.918s2.582,1.203,3.63,1.33c5.212,0.63,7.818,0.66,7.818,0.66
			c0.453,0.117,0.71-0.153,0.57-0.6l-2.463-9.376L37.128,5.671z"/>
	</g>
	<g id="collar_outline" clip-path="url(#SVGID_2_)">
		<path fill="#A2A0A2" stroke="#091724" stroke-width="0.6236" stroke-linecap="round" stroke-linejoin="round" d="M23.41,23.024
			l-8.668-3.851c0,0-0.567-0.277-0.626-0.844c-0.047-0.605,0.515-0.878,0.515-0.878l6.938-2.542l1.639-1.802
			c0.253-0.393,0.752-0.445,0.752-0.445s3.284,1.172,6.875,1.78"/>
		<path fill="#A2A0A2" stroke="#091724" stroke-width="0.6236" stroke-linejoin="round" d="M32.803,12.955
			c1.041,0.951,2.121,2.523,2.121,2.523l6.841,3.349c0.969,0.594,0.469,1.188-0.25,1.469l-22.048,8.498
			c-0.439,0.16-0.557-0.005-0.26-0.367C19.207,28.427,28.4,16.612,32.803,12.955z"/>
		
			<line fill="none" stroke="#091724" stroke-width="0.6236" stroke-linejoin="round" x1="19.025" y1="28.692" x2="20.25" y2="51.25"/>
		<g>
			<path fill="#091724" d="M36.671,18.434c0.413,0.071,0.78,0.236,1.151,0.394c0.358,0.187,0.72,0.365,1.035,0.64
				c0.074,0.064,0.082,0.176,0.018,0.249c-0.041,0.048-0.104,0.068-0.162,0.059c-0.413-0.07-0.78-0.236-1.151-0.394
				c-0.358-0.187-0.719-0.366-1.035-0.64c-0.074-0.064-0.082-0.175-0.019-0.249C36.55,18.444,36.612,18.424,36.671,18.434z"/>
		</g>
		<g>
			<path fill="#091724" d="M16.316,18.218c0.338-0.246,0.713-0.395,1.085-0.551c0.383-0.126,0.763-0.261,1.18-0.296
				c0.097-0.008,0.183,0.064,0.191,0.161c0.005,0.063-0.024,0.122-0.072,0.157c-0.338,0.247-0.713,0.395-1.085,0.551
				c-0.383,0.126-0.763,0.26-1.18,0.296c-0.097,0.009-0.183-0.063-0.191-0.161C16.238,18.313,16.268,18.253,16.316,18.218z"/>
		</g>
	</g>
	<g clip-path="url(#SVGID_2_)">
		<g>
			<ellipse fill="#F0F0ED" cx="21.991" cy="32.5" rx="1.156" ry="1.031"/>
			<path d="M23.36,32.512c0.02,0.71-0.687,1.313-1.369,1.266c-0.678-0.001-1.354-0.539-1.385-1.277
				c-0.028-0.752,0.693-1.332,1.385-1.312c0.698-0.032,1.403,0.577,1.369,1.312V32.512z M22.935,32.5
				c-0.023-0.465-0.504-0.751-0.944-0.751c-0.446-0.012-0.911,0.304-0.928,0.751c-0.043,0.461,0.469,0.819,0.928,0.785
				c0.456-0.015,0.936-0.307,0.944-0.797V32.5z"/>
		</g>
		<g>
			<ellipse fill="#F0F0ED" cx="34.981" cy="32.5" rx="1.156" ry="1.031"/>
			<path d="M36.35,32.512c0.021,0.71-0.687,1.313-1.368,1.266c-0.679-0.001-1.354-0.539-1.385-1.277
				c-0.028-0.752,0.693-1.332,1.385-1.312c0.698-0.032,1.403,0.577,1.369,1.312L36.35,32.512z M35.925,32.5
				c-0.022-0.465-0.504-0.751-0.943-0.751c-0.446-0.012-0.911,0.304-0.928,0.751c-0.043,0.461,0.469,0.819,0.928,0.785
				c0.456-0.015,0.936-0.307,0.944-0.797L35.925,32.5z"/>
		</g>
		<g>
			<ellipse fill="#F0F0ED" cx="22.133" cy="39.656" rx="1.156" ry="1.031"/>
			<path d="M23.501,39.668c0.02,0.71-0.687,1.313-1.369,1.266c-0.678-0.001-1.354-0.539-1.385-1.277
				c-0.028-0.752,0.693-1.332,1.385-1.312c0.698-0.032,1.403,0.577,1.369,1.312V39.668z M23.077,39.656
				c-0.023-0.465-0.504-0.751-0.944-0.751c-0.446-0.012-0.911,0.304-0.928,0.751c-0.043,0.461,0.469,0.819,0.928,0.785
				c0.456-0.015,0.936-0.307,0.944-0.797V39.656z"/>
		</g>
		<g>
			<ellipse fill="#F0F0ED" cx="34.84" cy="39.656" rx="1.156" ry="1.031"/>
			<path d="M36.208,39.668c0.021,0.71-0.687,1.313-1.368,1.266c-0.679-0.001-1.354-0.539-1.385-1.277
				c-0.028-0.752,0.693-1.332,1.385-1.312c0.698-0.032,1.403,0.577,1.369,1.312L36.208,39.668z M35.783,39.656
				c-0.022-0.465-0.504-0.751-0.943-0.751c-0.446-0.012-0.911,0.304-0.928,0.751c-0.043,0.461,0.469,0.819,0.928,0.785
				c0.456-0.015,0.936-0.307,0.944-0.797L35.783,39.656z"/>
		</g>
		<g>
			<ellipse fill="#F0F0ED" cx="22.274" cy="46.813" rx="1.156" ry="1.031"/>
			<path d="M23.643,46.824c0.02,0.71-0.687,1.313-1.369,1.266c-0.678-0.001-1.354-0.539-1.385-1.277
				c-0.028-0.752,0.693-1.332,1.385-1.312c0.698-0.032,1.403,0.577,1.369,1.312V46.824z M23.218,46.813
				c-0.023-0.465-0.504-0.751-0.944-0.751c-0.446-0.012-0.911,0.304-0.928,0.751c-0.043,0.461,0.469,0.819,0.928,0.785
				c0.456-0.015,0.936-0.307,0.944-0.797V46.813z"/>
		</g>
		<g>
			<ellipse fill="#F0F0ED" cx="34.698" cy="46.813" rx="1.156" ry="1.031"/>
			<path d="M36.066,46.824c0.021,0.71-0.687,1.313-1.368,1.266c-0.679-0.001-1.354-0.539-1.385-1.277
				c-0.028-0.752,0.693-1.332,1.385-1.312c0.698-0.032,1.403,0.577,1.369,1.312L36.066,46.824z M35.642,46.813
				c-0.022-0.465-0.504-0.751-0.943-0.751c-0.446-0.012-0.911,0.304-0.928,0.751c-0.043,0.461,0.469,0.819,0.928,0.785
				c0.456-0.015,0.936-0.307,0.944-0.797L35.642,46.813z"/>
		</g>
	</g>
</g>
<g id="back">
	<defs>
		<path id="SVGID_5_" d="M59.561,49.375c1.934-10.488,3.279-18.484,4.268-24.346c2.871-17.051,3.105-17.713,6.26-17.713
			c0.33,0,0.689,0.012,1.08,0.024c0.482,0.016,1.014,0.033,1.6,0.033c0.182,0,0.367-0.002,0.559-0.005h23.432
			c0.184,0.003,0.369,0.005,0.551,0.005c0.588,0,1.117-0.018,1.6-0.033c0.393-0.013,0.75-0.024,1.082-0.024
			c3.152,0,3.387,0.662,6.256,17.701c0.986,5.864,2.334,13.862,4.268,24.358H59.561z"/>
	</defs>
	<clipPath id="SVGID_6_">
		<use xlink:href="#SVGID_5_"  overflow="visible"/>
	</clipPath>
	<g id="outlines_2_" clip-path="url(#SVGID_6_)">
		<g>
			<path fill="#606062" d="M63.329,36.484l1.372-5.746l1.325-5.751c0.415-1.916,0.852-3.852,1.069-5.771
				c0.141-1.934,0.112-3.916,0.23-5.881l0.131-0.003c0.185,1.97,0.255,3.931,0.151,5.929c-0.228,1.996-0.69,3.904-1.119,5.832
				c-0.895,3.841-1.929,7.644-3.035,11.425L63.329,36.484z"/>
		</g>
		<g>
			<path fill="#606062" d="M106.618,36.518c-1.106-3.781-2.141-7.584-3.035-11.425c-0.429-1.928-0.892-3.836-1.119-5.832
				c-0.104-1.998-0.033-3.959,0.151-5.929l0.131,0.003c0.118,1.966,0.09,3.947,0.23,5.881c0.218,1.919,0.654,3.855,1.069,5.771
				l1.325,5.751l1.372,5.746L106.618,36.518z"/>
		</g>
		<g>
			<path fill="#606062" d="M85.229,9.25c0.007,2.601,0.051,5.202,0.028,7.802c-0.019,2.601-0.039,5.202-0.007,7.802
				c0.04,5.202-0.052,10.403-0.071,15.604c0,0.078-0.063,0.143-0.143,0.143c-0.077-0.002-0.141-0.064-0.141-0.143
				c-0.02-5.201-0.111-10.402-0.071-15.604c0.032-2.601,0.012-5.202-0.007-7.802c-0.022-2.601,0.021-5.202,0.028-7.802
				c0.001-0.105,0.086-0.191,0.192-0.19C85.143,9.06,85.228,9.145,85.229,9.25z"/>
		</g>
		<g>
			<path fill="#606062" d="M84.162,51.834c0.137-1.738,0.427-3.449,0.709-5.162c0.02-0.113,0.128-0.191,0.242-0.174
				c0.093,0.016,0.161,0.09,0.174,0.18c0.258,1.779,0.525,3.559,0.625,5.365c-0.456-1.75-0.743-3.525-1.041-5.301l0.416,0.004
				C84.958,48.451,84.637,50.156,84.162,51.834z"/>
		</g>
	</g>
	<g id="belt_2_" clip-path="url(#SVGID_6_)">
		<g>
			<path d="M72.03,40.709c3.026,0.137,6.054,0.268,9.08,0.365c3.025,0.102,6.057,0.045,9.085,0.039c0.051,0,0.1,0.016,0.139,0.043
				l0,0c1.043,0.742,2.015,1.563,2.847,2.553c0.085,0.1,0.073,0.248-0.021,0.336c-0.912,0.832-1.883,1.535-2.864,2.244h-0.001
				c-0.041,0.031-0.094,0.045-0.143,0.047c-3.03-0.037-6.059-0.059-9.093-0.141l-9.09-0.217l0,0
				c-0.133-0.006-0.238-0.115-0.237-0.248v-0.004c0.132-0.795,0.178-1.59,0.197-2.385c0.024-0.398-0.006-0.797-0.009-1.193
				c-0.027-0.398-0.069-0.797-0.146-1.195c-0.021-0.113,0.052-0.221,0.164-0.242c0.016-0.004,0.032-0.004,0.048-0.004L72.03,40.709z
				 M72.231,41.207c-0.056,0.314-0.104,0.627-0.132,0.941c-0.011,0.398-0.048,0.797-0.03,1.193c0.006,0.797,0.037,1.594,0.155,2.391
				v0.002l-0.237-0.248l0,0l9.085,0.193c3.019,0.088,6.054,0.119,9.081,0.164l-0.142,0.045l0,0c0.966-0.697,1.946-1.41,2.811-2.201
				l-0.021,0.334c-0.782-0.934-1.744-1.748-2.743-2.459h-0.001l0.139,0.043l-9.095-0.143C78.143,41.402,75.188,41.307,72.231,41.207
				z"/>
		</g>
		<g>
			<ellipse fill="#F0F0ED" cx="79.016" cy="43.568" rx="1.042" ry="0.912"/>
			<path d="M80.247,43.58c0.01,0.641-0.619,1.162-1.241,1.121c-0.577-0.01-1.216-0.451-1.236-1.145
				c-0.017-0.654,0.624-1.174,1.257-1.15c0.595-0.029,1.253,0.5,1.221,1.162V43.58z M79.868,43.568
				c-0.026-0.412-0.446-0.66-0.863-0.662c-0.38-0.004-0.816,0.254-0.827,0.674c-0.027,0.383,0.412,0.719,0.848,0.682
				c0.39-0.014,0.839-0.268,0.843-0.703V43.568z"/>
		</g>
		<g>
			<ellipse fill="#F0F0ED" cx="88.681" cy="43.568" rx="1.042" ry="0.912"/>
			<path d="M89.912,43.58c0.015,0.641-0.629,1.162-1.231,1.121c-0.597-0.004-1.221-0.463-1.246-1.133
				c-0.017-0.678,0.624-1.18,1.257-1.162c0.595-0.029,1.254,0.5,1.221,1.162V43.58z M89.533,43.568
				c-0.026-0.412-0.446-0.66-0.863-0.662c-0.379-0.01-0.816,0.266-0.827,0.662c-0.031,0.406,0.423,0.725,0.838,0.693
				c0.409-0.014,0.845-0.268,0.853-0.703V43.568z"/>
		</g>
		<g>
			<path d="M90.196,41.113c1.473,0.021,2.944,0.021,4.417,0.01c1.473-0.02,2.945-0.078,4.416-0.135h0.037
				c0.117-0.006,0.215,0.086,0.22,0.203l-0.003,0.043c-0.068,0.395-0.117,0.789-0.142,1.184c-0.03,0.393-0.028,0.787-0.043,1.182
				c0.016,0.395,0.013,0.789,0.043,1.182c0.024,0.395,0.073,0.789,0.142,1.184c0.02,0.113-0.058,0.223-0.172,0.242l-0.031,0.002
				l-0.035,0.002l-8.851,0.125l0.002-0.492c2.943,0.014,5.891-0.027,8.832-0.125l-0.237,0.246c0.068-0.395,0.117-0.789,0.142-1.184
				c0.03-0.393,0.027-0.787,0.043-1.182c-0.015-0.395-0.013-0.789-0.043-1.182c-0.024-0.395-0.073-0.789-0.142-1.184l0.254,0.246
				l-4.425,0.068c-1.475,0.033-2.95,0.055-4.426,0.057L90.196,41.113z"/>
		</g>
		<g>
			<path d="M71.667,39.172c0.269,0.695,0.407,1.428,0.505,2.154c0.1,0.729,0.101,1.463,0.124,2.193
				c-0.043,0.73-0.067,1.461-0.176,2.186c-0.11,0.723-0.244,1.443-0.49,2.148l-0.005,0.014c-0.012,0.033-0.05,0.053-0.084,0.041
				c-0.029-0.012-0.047-0.039-0.044-0.07c0.147-1.436,0.229-2.881,0.251-4.326c0.021-1.443-0.016-2.891-0.212-4.322
				c-0.006-0.035,0.02-0.068,0.056-0.074c0.03-0.004,0.06,0.014,0.07,0.043L71.667,39.172z"/>
		</g>
		<g>
			<path d="M99.342,39.488c0.027,0.748-0.026,1.477-0.064,2.197c-0.035,0.721-0.112,1.424-0.075,2.123
				c-0.032,0.701,0.047,1.4,0.094,2.121c0.047,0.719,0.109,1.449,0.083,2.197l-0.001,0.016c-0.001,0.037-0.031,0.064-0.067,0.064
				c-0.031-0.002-0.057-0.025-0.063-0.055c-0.274-1.43-0.59-2.869-0.594-4.342c0.002-1.473,0.285-2.916,0.557-4.348
				c0.007-0.035,0.041-0.059,0.077-0.053c0.03,0.006,0.052,0.033,0.053,0.063L99.342,39.488z"/>
		</g>
		<g>
			<path d="M68.547,47.137c0.18-0.445,0.44-0.854,0.739-1.232c0.146-0.189,0.279-0.406,0.489-0.533
				c0.215-0.119,0.433-0.232,0.717-0.242c0.019,0,0.035,0.016,0.035,0.035c0,0.004-0.001,0.008-0.002,0.012
				c-0.091,0.27-0.244,0.438-0.382,0.627c-0.147,0.172-0.352,0.281-0.534,0.42c-0.352,0.289-0.701,0.596-1.014,0.943
				c-0.01,0.012-0.028,0.014-0.04,0.004C68.546,47.162,68.543,47.148,68.547,47.137z"/>
		</g>
		<g>
			<path d="M70.217,40.988c-0.223,0.094-0.414,0.041-0.598-0.01c-0.179-0.068-0.295-0.229-0.412-0.369
				c-0.243-0.275-0.428-0.592-0.549-0.924c-0.006-0.016,0.002-0.031,0.017-0.037c0.011-0.004,0.022,0,0.03,0.006
				c0.255,0.236,0.522,0.439,0.796,0.609c0.143,0.08,0.304,0.119,0.414,0.23c0.107,0.125,0.221,0.232,0.319,0.439
				c0.011,0.018,0.005,0.041-0.013,0.051C70.222,40.986,70.217,40.986,70.217,40.988z"/>
		</g>
		<g>
			<path d="M100.051,42.041c0.018-0.256,0.116-0.428,0.203-0.609c0.097-0.172,0.267-0.281,0.408-0.416
				c0.138-0.139,0.271-0.279,0.394-0.43c0.124-0.146,0.249-0.299,0.299-0.482l0.001-0.006c0.005-0.016,0.02-0.023,0.035-0.02
				c0.012,0.002,0.02,0.014,0.021,0.025c0.029,0.441-0.196,0.826-0.387,1.184c-0.099,0.182-0.179,0.381-0.34,0.512
				c-0.171,0.121-0.337,0.246-0.593,0.281c-0.02,0.002-0.038-0.012-0.041-0.031C100.051,42.047,100.051,42.043,100.051,42.041z"/>
		</g>
		<g>
			<path d="M100.264,45.984c0.22,0.023,0.342,0.123,0.471,0.221c0.117,0.105,0.148,0.27,0.202,0.414
				c0.105,0.289,0.227,0.598,0.178,0.932c-0.002,0.016-0.017,0.025-0.032,0.023c-0.01-0.002-0.018-0.008-0.021-0.018l-0.003-0.006
				c-0.108-0.264-0.326-0.475-0.509-0.695c-0.102-0.107-0.232-0.191-0.282-0.332c-0.039-0.148-0.09-0.289-0.048-0.504
				C100.223,45.998,100.242,45.984,100.264,45.984z"/>
		</g>
	</g>
	<g id="collar_2_" clip-path="url(#SVGID_6_)">
		<ellipse fill="#606062" cx="85.037" cy="6.75" rx="13.5" ry="4.083"/>
		<path d="M98.679,6.762c-0.007,0.69-0.509,1.256-1.001,1.626c-0.505,0.395-1.074,0.676-1.647,0.927
			c-1.155,0.492-2.364,0.815-3.583,1.066c-2.439,0.496-4.929,0.703-7.41,0.675c-2.48-0.023-4.965-0.233-7.399-0.733
			c-1.213-0.262-2.423-0.564-3.581-1.038c-0.575-0.245-1.148-0.512-1.662-0.896c-0.499-0.373-1.02-0.889-1.041-1.655
			c0.007-0.707,0.521-1.285,1.018-1.657c0.51-0.398,1.081-0.68,1.657-0.932c1.158-0.493,2.37-0.817,3.591-1.066
			c2.445-0.492,4.932-0.693,7.42-0.689c2.48-0.01,4.974,0.229,7.4,0.77c1.209,0.284,2.416,0.594,3.569,1.075
			c0.571,0.249,1.142,0.518,1.65,0.902c0.495,0.366,1.001,0.9,1.02,1.613V6.762z M98.396,6.75c-0.002-0.56-0.423-1.053-0.895-1.406
			c-0.474-0.369-1.026-0.642-1.589-0.875c-1.132-0.464-2.329-0.769-3.54-0.97c-2.424-0.405-4.88-0.533-7.337-0.555
			c-2.449,0.015-4.912,0.182-7.317,0.636c-1.199,0.235-2.393,0.527-3.519,0.979c-0.558,0.23-1.109,0.49-1.582,0.844
			c-0.472,0.347-0.884,0.796-0.896,1.363c-0.001,0.506,0.404,1.018,0.873,1.364c0.469,0.368,1.019,0.644,1.577,0.881
			c1.126,0.471,2.321,0.785,3.528,1.007c2.416,0.446,4.882,0.604,7.338,0.592c2.455-0.04,4.916-0.2,7.327-0.65
			c1.201-0.233,2.396-0.526,3.526-0.979c0.561-0.23,1.114-0.492,1.592-0.85c0.475-0.348,0.899-0.81,0.913-1.393V6.75z"/>
	</g>
</g>
</svg>
