<?xml version="1.0" encoding="UTF-8" standalone="no"?>
<!-- Created with Inkscape (http://www.inkscape.org/) -->

<svg
   xmlns:dc="http://purl.org/dc/elements/1.1/"
   xmlns:cc="http://creativecommons.org/ns#"
   xmlns:rdf="http://www.w3.org/1999/02/22-rdf-syntax-ns#"
   xmlns:svg="http://www.w3.org/2000/svg"
   xmlns="http://www.w3.org/2000/svg"
   xmlns:xlink="http://www.w3.org/1999/xlink"
   xmlns:sodipodi="http://sodipodi.sourceforge.net/DTD/sodipodi-0.dtd"
   xmlns:inkscape="http://www.inkscape.org/namespaces/inkscape"
   width="289.36462"
   height="147.96875"
   id="svg2"
   version="1.1"
   inkscape:version="0.48.2 r9819"
   sodipodi:docname="master_minifig_template.svg">
  <defs
     id="defs4">
    <linearGradient
       inkscape:collect="always"
       id="linearGradient4011">
      <stop
         style="stop-color:#ffffff;stop-opacity:1;"
         offset="0"
         id="stop4013" />
      <stop
         style="stop-color:#ffffff;stop-opacity:0;"
         offset="1"
         id="stop4015" />
    </linearGradient>
    <linearGradient
       inkscape:collect="always"
       id="linearGradient3997">
      <stop
         style="stop-color:#ffffff;stop-opacity:1;"
         offset="0"
         id="stop3999" />
      <stop
         style="stop-color:#ffffff;stop-opacity:0;"
         offset="1"
         id="stop4001" />
    </linearGradient>
    <inkscape:path-effect
       effect="skeletal"
       id="path-effect4237"
       is_visible="true"
       pattern="M 0,5 C 0,2.24 2.24,0 5,0 7.76,0 10,2.24 10,5 10,7.76 7.76,10 5,10 2.24,10 0,7.76 0,5 z"
       copytype="single_stretched"
       prop_scale="1"
       scale_y_rel="false"
       spacing="0"
       normal_offset="0"
       tang_offset="0"
       prop_units="false"
       vertical_pattern="false"
       fuse_tolerance="0" />
    <clipPath
       id="clipPath2999"
       clipPathUnits="userSpaceOnUse">
      <path
         id="path3001"
         d="M 0,792 612,792 612,0 0,0 0,792 z"
         inkscape:connector-curvature="0" />
    </clipPath>
    <radialGradient
       gradientUnits="userSpaceOnUse"
       gradientTransform="matrix(0.75988491,-0.03632001,0.13155835,2.7524547,16.986326,-78.268899)"
       r="12.650181"
       fy="46.658409"
       fx="96.306435"
       cy="46.658409"
       cx="96.306435"
       id="radialGradient3972"
       xlink:href="#linearGradient3966"
       inkscape:collect="always" />
    <clipPath
       clipPathUnits="userSpaceOnUse"
       id="clipPath2999-4">
      <path
         inkscape:connector-curvature="0"
         d="M 0,792 612,792 612,0 0,0 0,792 z"
         id="path3001-0" />
    </clipPath>
    <linearGradient
       id="linearGradient3966">
      <stop
         id="stop3968"
         offset="0"
         style="stop-color:#c0ac02;stop-opacity:1;" />
      <stop
         id="stop3970"
         offset="1"
         style="stop-color:#fdea41;stop-opacity:0;" />
    </linearGradient>
    <radialGradient
       inkscape:collect="always"
       xlink:href="#linearGradient3997"
       id="radialGradient4003"
       cx="165.81134"
       cy="47.693741"
       fx="165.81134"
       fy="47.693741"
       r="3.8123068"
       gradientTransform="matrix(0.64374811,-0.18781617,0.31213841,1.069868,43.640483,27.15595)"
       gradientUnits="userSpaceOnUse" />
    <radialGradient
       inkscape:collect="always"
       xlink:href="#linearGradient3997"
       id="radialGradient4007"
       gradientUnits="userSpaceOnUse"
       gradientTransform="matrix(-0.64374811,-0.18781617,-0.31213841,1.069868,293.73143,27.15595)"
       cx="165.81134"
       cy="47.693741"
       fx="165.81134"
       fy="47.693741"
       r="3.8123068" />
    <radialGradient
       inkscape:collect="always"
       xlink:href="#linearGradient4011"
       id="radialGradient4017"
       cx="169.32254"
       cy="41.784931"
       fx="169.32254"
       fy="41.784931"
       r="6.982676"
       gradientTransform="matrix(0.31036379,-0.01814613,0.03701409,0.63307367,114.75293,21.468668)"
       gradientUnits="userSpaceOnUse" />
    <linearGradient
       id="linearGradient3966-2">
      <stop
         style="stop-color:#c0ac02;stop-opacity:1;"
         offset="0"
         id="stop3968-4" />
      <stop
         style="stop-color:#fdea41;stop-opacity:0;"
         offset="1"
         id="stop3970-5" />
    </linearGradient>
    <clipPath
       id="clipPath2999-4-8"
       clipPathUnits="userSpaceOnUse">
      <path
         id="path3001-0-8"
         d="M 0,792 612,792 612,0 0,0 0,792 z"
         inkscape:connector-curvature="0" />
    </clipPath>
    <radialGradient
       inkscape:collect="always"
       xlink:href="#linearGradient3966-2"
       id="radialGradient3972-4"
       cx="96.306435"
       cy="46.658409"
       fx="96.306435"
       fy="46.658409"
       r="12.650181"
       gradientTransform="matrix(0.75988491,-0.03632001,0.13155835,2.7524547,16.986326,-78.268899)"
       gradientUnits="userSpaceOnUse" />
    <clipPath
       clipPathUnits="userSpaceOnUse"
       id="clipPath2999-0">
      <path
         inkscape:connector-curvature="0"
         d="M 0,792 612,792 612,0 0,0 0,792 z"
         id="path3001-9" />
    </clipPath>
    <inkscape:path-effect
       fuse_tolerance="0"
       vertical_pattern="false"
       prop_units="false"
       tang_offset="0"
       normal_offset="0"
       spacing="0"
       scale_y_rel="false"
       prop_scale="1"
       copytype="single_stretched"
       pattern="M 0,5 C 0,2.24 2.24,0 5,0 7.76,0 10,2.24 10,5 10,7.76 7.76,10 5,10 2.24,10 0,7.76 0,5 z"
       is_visible="true"
       id="path-effect4237-4"
       effect="skeletal" />
  </defs>
  <sodipodi:namedview
     id="base"
     pagecolor="#ffffff"
     bordercolor="#666666"
     borderopacity="1.0"
     inkscape:pageopacity="0.0"
     inkscape:pageshadow="2"
     inkscape:zoom="2.56"
     inkscape:cx="77.412682"
     inkscape:cy="96.08404"
     inkscape:document-units="px"
     inkscape:current-layer="layer1"
     showgrid="false"
     fit-margin-top="0"
     fit-margin-left="0"
     fit-margin-right="0"
     fit-margin-bottom="0"
     inkscape:window-width="1400"
     inkscape:window-height="1024"
     inkscape:window-x="1276"
     inkscape:window-y="-4"
     inkscape:window-maximized="1"
     showguides="true"
     inkscape:guide-bbox="true"
     inkscape:snap-global="false">
    <sodipodi:guide
       orientation="0,1"
       position="154.04945,94.799659"
       id="guide3274" />
    <sodipodi:guide
       orientation="1,0"
       position="168.89971,99.916361"
       id="guide3960" />
  </sodipodi:namedview>
  <metadata
     id="metadata7">
    <rdf:RDF>
      <cc:Work
         rdf:about="">
        <dc:format>image/svg+xml</dc:format>
        <dc:type
           rdf:resource="http://purl.org/dc/dcmitype/StillImage" />
        <dc:title></dc:title>
      </cc:Work>
    </rdf:RDF>
  </metadata>
  <g
     inkscape:label="template"
     inkscape:groupmode="layer"
     id="layer1"
     transform="translate(-218.16938,-378.37561)"
     style="display:inline"
     sodipodi:insensitive="true">
    <path
       inkscape:connector-curvature="0"
       d="m 288.01313,453.4178 0.0125,-0.065 0,-0.0663 -0.0125,0.13125 z"
       style="fill:#ffffff;fill-opacity:1;fill-rule:nonzero;stroke:none"
       id="path3003" />
    <path
       inkscape:connector-curvature="0"
       d="m 288.01313,453.4178 0.0125,-0.065 0,-0.0663 -0.0125,0.13125 z"
       style="fill:none;stroke:#231f20;stroke-width:0.3125;stroke-linecap:butt;stroke-linejoin:miter;stroke-miterlimit:4;stroke-opacity:1;stroke-dasharray:none"
       id="path3005" />
    <path
       inkscape:connector-curvature="0"
       d="m 340.81313,453.28655 0,0.0663 0.0125,0.065 -0.0125,-0.13125 z"
       style="fill:#ffffff;fill-opacity:1;fill-rule:nonzero;stroke:none"
       id="path3007" />
    <path
       inkscape:connector-curvature="0"
       d="m 340.81313,453.28655 0,0.0663 0.0125,0.065 -0.0125,-0.13125 z"
       style="fill:none;stroke:#231f20;stroke-width:0.3125;stroke-linecap:butt;stroke-linejoin:miter;stroke-miterlimit:4;stroke-opacity:1;stroke-dasharray:none"
       id="path3009" />
    <path
       inkscape:connector-curvature="0"
       d="m 333.20813,412.6428 c 0,0 -0.36125,-2.52875 -2.385,-2.6075 l -14.00375,0 -1.61625,0 -1.565,0 -1.61875,0 -14.00125,0 c -2.02625,0.0788 -2.3875,2.6075 -2.3875,2.6075 l -7.605,40.71 0,64.98375 26.355,0 0.08,0 26.3525,0 0,-64.98375 -7.605,-40.71 z"
       style="fill:none;stroke:#231f20;stroke-width:0.3125;stroke-linecap:butt;stroke-linejoin:miter;stroke-miterlimit:4;stroke-opacity:1;stroke-dasharray:none"
       id="path3013" />
    <path
       inkscape:connector-curvature="0"
       d="m 218.32563,453.4178 0.0125,-0.065 0,-0.0663 -0.0125,0.13125 z"
       style="fill:#ffffff;fill-opacity:1;fill-rule:nonzero;stroke:none"
       id="path3015" />
    <path
       inkscape:connector-curvature="0"
       d="m 218.32563,453.4178 0.0125,-0.065 0,-0.0663 -0.0125,0.13125 z"
       style="fill:none;stroke:#231f20;stroke-width:0.3125;stroke-linecap:butt;stroke-linejoin:miter;stroke-miterlimit:4;stroke-opacity:1;stroke-dasharray:none"
       id="path3017" />
    <path
       inkscape:connector-curvature="0"
       d="m 271.12563,453.28655 0,0.0663 0.0125,0.065 -0.0125,-0.13125 z"
       style="fill:#ffffff;fill-opacity:1;fill-rule:nonzero;stroke:none"
       id="path3019" />
    <path
       inkscape:connector-curvature="0"
       d="m 271.12563,453.28655 0,0.0663 0.0125,0.065 -0.0125,-0.13125 z"
       style="fill:none;stroke:#231f20;stroke-width:0.3125;stroke-linecap:butt;stroke-linejoin:miter;stroke-miterlimit:4;stroke-opacity:1;stroke-dasharray:none"
       id="path3021" />
    <path
       inkscape:connector-curvature="0"
       d="m 263.52063,412.6428 c 0,0 -0.36125,-2.52875 -2.385,-2.6075 l -14.00375,0 -1.61625,0 -1.565,0 -1.61875,0 -14.00125,0 c -2.02625,0.0788 -2.3875,2.6075 -2.3875,2.6075 l -7.605,40.71 0,64.98375 26.355,0 0.08,0 26.3525,0 0,-64.98375 -7.605,-40.71 z"
       style="fill:none;stroke:#231f20;stroke-width:0.3125;stroke-linecap:butt;stroke-linejoin:miter;stroke-miterlimit:4;stroke-opacity:1;stroke-dasharray:none"
       id="path3025" />
    <path
       inkscape:connector-curvature="0"
       d="m 361.62563,526.17905 22.695,0 0,-11.205 -22.695,0 0,11.205 z"
       style="fill:none;stroke:#231f20;stroke-width:0.3125;stroke-linecap:butt;stroke-linejoin:miter;stroke-miterlimit:4;stroke-opacity:1;stroke-dasharray:none"
       id="path3029" />
    <path
       inkscape:connector-curvature="0"
       d="m 384.32188,512.3378 -22.6975,0 0,-42.43375 22.6975,0 0,42.43375 z"
       style="fill:none;stroke:#231f20;stroke-width:0.3125;stroke-linecap:butt;stroke-linejoin:miter;stroke-miterlimit:4;stroke-opacity:1;stroke-dasharray:none"
       id="path3033" />
    <path
       inkscape:connector-curvature="0"
       d="m 412.67313,464.75155 -51.33,0 0,-7.06625 51.33,0 0,7.06625 z"
       style="fill:none;stroke:#231f20;stroke-width:0.3125;stroke-linecap:butt;stroke-linejoin:miter;stroke-miterlimit:4;stroke-opacity:1;stroke-dasharray:none"
       id="path3037" />
    <path
       inkscape:connector-curvature="0"
       d="m 362.25313,493.9003 21.44125,0"
       style="fill:#ffffff;fill-opacity:1;fill-rule:nonzero;stroke:none"
       id="path3039" />
    <path
       inkscape:connector-curvature="0"
       d="m 362.25313,493.9003 21.44125,0"
       style="fill:none;stroke:#231f20;stroke-width:0.3125;stroke-linecap:butt;stroke-linejoin:miter;stroke-miterlimit:4;stroke-opacity:1;stroke-dasharray:none"
       id="path3041" />
    <path
       inkscape:connector-curvature="0"
       d="m 389.85563,526.17905 22.695,0 0,-11.205 -22.695,0 0,11.205 z"
       style="fill:none;stroke:#231f20;stroke-width:0.3125;stroke-linecap:butt;stroke-linejoin:miter;stroke-miterlimit:4;stroke-opacity:1;stroke-dasharray:none"
       id="path3045" />
    <path
       inkscape:connector-curvature="0"
       d="m 390.48313,493.90155 21.44,0"
       style="fill:#ffffff;fill-opacity:1;fill-rule:nonzero;stroke:none"
       id="path3051" />
    <path
       inkscape:connector-curvature="0"
       d="m 390.48313,493.90155 21.44,0"
       style="fill:none;stroke:#231f20;stroke-width:0.3125;stroke-linecap:butt;stroke-linejoin:miter;stroke-miterlimit:4;stroke-opacity:1;stroke-dasharray:none"
       id="path3053" />
    <path
       inkscape:connector-curvature="0"
       d="m 454.95438,449.1028 c -0.545,-1.0275 -0.275,-1.92125 -0.275,-1.92125 l -0.009,-0.0113 -2.4375,-3.60375 c -2.38375,3.23625 -4.59875,5.25125 -6.0625,6.38375 0.465,0.56 1.42375,1.62125 2.245,1.9625 0.04,0.0175 0.0787,0.0437 0.11875,0.0562 1.14625,0.38625 7.29375,-1.20875 6.42,-2.86625 z"
       style="fill:none;stroke:#231f20;stroke-width:0.3125;stroke-linecap:butt;stroke-linejoin:miter;stroke-miterlimit:4;stroke-opacity:1;stroke-dasharray:none"
       id="path3057" />
    <path
       inkscape:connector-curvature="0"
       d="m 467.66938,458.3678 c 1.68125,-1.40125 0.74125,-3.3675 0.74125,-3.3675 l -6.7025,-10.8775 c -0.82375,-1.04 -1.9275,-0.1775 -1.9275,-0.1775 l -5.11,3.225 0.009,0.0113 c 0,0 -0.27,0.89375 0.275,1.92125 0.87375,1.6575 -5.27375,3.2525 -6.42,2.86625 -0.04,-0.0125 -0.0788,-0.0387 -0.11875,-0.0562 -0.15875,1.3 0.3025,4.04625 4.44625,8.85 4.4575,5.1675 13.12375,-0.99375 14.8075,-2.395 z"
       style="fill:none;stroke:#231f20;stroke-width:0.3125;stroke-linecap:butt;stroke-linejoin:miter;stroke-miterlimit:4;stroke-opacity:1;stroke-dasharray:none"
       id="path3061" />
    <path
       inkscape:connector-curvature="0"
       d="m 446.17063,449.9503 c 1.46375,-1.1325 3.67875,-3.1475 6.0625,-6.38375 0.61875,-0.84 1.2475,-1.75875 1.8775,-2.76625 l -5.685,-5.68375 c 0,0 -1.88,-1.7375 -1.79375,-4.535 0,0 1.355,-14.47875 -0.67625,-17.77375 -2.9275,-4.75 -7.1,-3.99375 -7.1,-3.99375 -10.11,0.86375 -10.3175,9.08625 -10.3175,9.08625 0,0 -0.07,9.77625 -0.0263,14.57125 0.0462,4.795 3.34375,7.49125 3.34375,7.49125 l 12.5375,11.1925 c 0,0 0.67625,-0.35375 1.7775,-1.205 z"
       style="fill:none;stroke:#231f20;stroke-width:0.3125;stroke-linecap:butt;stroke-linejoin:miter;stroke-miterlimit:4;stroke-opacity:1;stroke-dasharray:none"
       id="path3065" />
    <path
       inkscape:connector-curvature="0"
       d="m 496.68688,449.5203 c -0.4925,-1.05375 -1.3675,-1.37625 -1.3675,-1.37625 l -0.002,-0.0138 -1.40625,-4.12 c 4.02125,0.0513 6.9625,-0.49875 8.75,-0.98375 0.16625,0.70875 0.43375,2.1125 0.2125,2.975 -0.0125,0.04 -0.015,0.0888 -0.0275,0.1275 -0.38375,1.1475 -5.365,5.09 -6.15875,3.39125 z"
       style="fill:none;stroke:#231f20;stroke-width:0.3125;stroke-linecap:butt;stroke-linejoin:miter;stroke-miterlimit:4;stroke-opacity:1;stroke-dasharray:none"
       id="path3069" />
    <path
       inkscape:connector-curvature="0"
       d="m 496.40813,465.2503 c -2.13125,0.49625 -3.135,-1.4375 -3.135,-1.4375 l -4.6325,-11.9075 c -0.33375,-1.285 1.02125,-1.645 1.02125,-1.645 l 5.655,-2.13 0.002,0.0138 c 0,0 0.875,0.3225 1.3675,1.37625 0.79375,1.69875 5.775,-2.24375 6.15875,-3.39125 0.0125,-0.0387 0.015,-0.0875 0.0275,-0.1275 1.1325,0.6575 3.04375,2.68125 4.3775,8.8825 1.4325,6.6725 -8.70875,9.86875 -10.8425,10.36625 z"
       style="fill:none;stroke:#231f20;stroke-width:0.3125;stroke-linecap:butt;stroke-linejoin:miter;stroke-miterlimit:4;stroke-opacity:1;stroke-dasharray:none"
       id="path3073" />
    <path
       inkscape:connector-curvature="0"
       d="m 502.66063,443.02655 c -1.7875,0.485 -4.72875,1.035 -8.75,0.98375 -1.0425,-0.0112 -2.15375,-0.0637 -3.3375,-0.17125 l -1.105,-7.96125 c 0,0 -0.25125,-2.5475 -2.53375,-4.165 0,0 -12.3675,-7.6525 -13.77125,-11.26125 -2.0225,-5.19875 1.0975,-8.07125 1.0975,-8.07125 6.7875,-7.5425 13.47,-2.74875 13.47,-2.74875 0,0 7.84,5.84 11.63875,8.76625 3.79625,2.9275 3.9575,7.1875 3.9575,7.1875 l 1.3675,16.75 c 0,0 -0.69125,0.32625 -2.03375,0.69125 z"
       style="fill:none;stroke:#231f20;stroke-width:0.3125;stroke-linecap:butt;stroke-linejoin:miter;stroke-miterlimit:4;stroke-opacity:1;stroke-dasharray:none"
       id="path3077" />
    <path
       inkscape:connector-curvature="0"
       d="m 406.43813,399.93655 -112.8,0 0,-21.39125 112.8,0 0,21.39125 z"
       style="fill:none;stroke:#231f20;stroke-width:0.3125;stroke-linecap:butt;stroke-linejoin:miter;stroke-miterlimit:4;stroke-opacity:1;stroke-dasharray:none"
       id="path3081" />
    <path
       inkscape:connector-curvature="0"
       d="m 436.24063,492.5503 0,15.2025 -7.6025,0 0,10.58375 26.75375,0 0,-39.64875 0,-0.89375 c 0,0 -2.08625,-8.1975 -11.4025,-8.1975 l -0.67,0 c 0,0 -11.62625,0.0738 -11.92375,11.17875 l 0,0.37375 c 0,0 -0.2975,5.215 4.91875,8.645 l -0.0738,2.75625 z"
       style="fill:none;stroke:#231f20;stroke-width:0.3125;stroke-linecap:butt;stroke-linejoin:miter;stroke-miterlimit:4;stroke-opacity:1;stroke-dasharray:none"
       id="path3085" />
    <path
       inkscape:connector-curvature="0"
       d="m 481.02938,492.5503 0,15.2025 7.60125,0 0,10.58375 -26.75375,0 0,-39.64875 0,-0.89375 c 0,0 2.08625,-8.1975 11.40125,-8.1975 l 0.67125,0 c 0,0 11.62625,0.0738 11.92375,11.17875 l 0,0.37375 c 0,0 0.29875,5.215 -4.9175,8.645 l 0.0738,2.75625 z"
       style="fill:none;stroke:#231f20;stroke-width:0.3125;stroke-linecap:butt;stroke-linejoin:miter;stroke-miterlimit:4;stroke-opacity:1;stroke-dasharray:none"
       id="path3089" />
    <path
       inkscape:connector-curvature="0"
       d="m 361.13813,452.9203 c 8.7325,-47.29375 5.3425,-42.67875 14.2675,-42.85625 l 23.44,0 c 8.92625,0.1775 5.535,-4.4375 14.265,42.85625 l -51.9725,0 z"
       style="fill:none;stroke:#231f20;stroke-width:0.3125;stroke-linecap:butt;stroke-linejoin:miter;stroke-miterlimit:4;stroke-opacity:1;stroke-dasharray:none"
       id="path3093" />
    <path
       inkscape:connector-curvature="0"
       d="m 288.01313,453.1053 52.8,-0.065"
       style="fill:none;stroke:#231f20;stroke-width:0.3125;stroke-linecap:butt;stroke-linejoin:miter;stroke-miterlimit:4;stroke-opacity:1;stroke-dasharray:none"
       id="path3095" />
    <path
       id="path4124"
       style="fill:none;stroke:#231f20;stroke-width:0.3125;stroke-linecap:butt;stroke-linejoin:miter;stroke-miterlimit:4;stroke-opacity:1;stroke-dasharray:none"
       d="m 361.13813,452.9203 c 8.7325,-47.29375 5.3425,-42.67875 14.2675,-42.85625 l 23.44,0 c 8.92625,0.1775 5.535,-4.4375 14.265,42.85625 l -51.9725,0 z"
       inkscape:connector-curvature="0" />
    <path
       id="path4076"
       style="fill:none;stroke:#231f20;stroke-width:0.3125;stroke-linecap:butt;stroke-linejoin:miter;stroke-miterlimit:4;stroke-opacity:1;stroke-dasharray:none"
       d="m 412.60471,512.3378 -22.6975,0 0,-42.43375 22.6975,0 0,42.43375 z"
       inkscape:connector-curvature="0" />
  </g>
</svg>
