<?xml version="1.0" encoding="utf-8"?>
<!-- Generator: Adobe Illustrator 15.1.0, SVG Export Plug-In . SVG Version: 6.00 Build 0)  -->
<!DOCTYPE svg PUBLIC "-//W3C//DTD SVG 1.1//EN" "http://www.w3.org/Graphics/SVG/1.1/DTD/svg11.dtd">
<svg version="1.1" xmlns="http://www.w3.org/2000/svg" xmlns:xlink="http://www.w3.org/1999/xlink" x="0px" y="0px"
	 width="53.858px" height="45.354px" viewBox="0 0 53.858 45.354" enable-background="new 0 0 53.858 45.354" xml:space="preserve">
<g id="base">
	<path id="front-base_1_" fill="#DCC291" stroke="#684431" stroke-width="0.3118" stroke-linejoin="round" d="M0.943,44.132
		C9.675-3.162,6.286,1.453,15.21,1.275H38.65c8.926,0.177,5.535-4.438,14.266,42.856H0.943z"/>
</g>
<g id="front-torso">
	<defs>
		<path id="SVGID_1_" d="M1.113,43.99c1.966-10.651,3.33-18.752,4.327-24.676C8.236,2.72,8.463,1.39,11.979,1.39
			c0.334,0,1.091,0,1.091,0h27.72c0,0,0.758,0,1.092,0c3.516,0,3.744,1.329,6.535,17.912c0.998,5.926,2.361,14.029,4.328,24.688
			H1.113z"/>
	</defs>
	<clipPath id="SVGID_2_">
		<use xlink:href="#SVGID_1_"  overflow="visible"/>
	</clipPath>
	<g id="t-shirt" clip-path="url(#SVGID_2_)">
		<g>
			<path fill="#96866D" d="M26.874,8.279c0.696-0.283,1.337-0.391,2.011-0.4c0.336,0.021,0.688,0.092,1.027,0.058
				c0.338-0.037,0.656-0.17,0.956-0.336c0.591-0.356,1.171-0.645,1.747-0.961c0.597-0.276,1.193-0.557,1.898-0.766
				c0.024-0.007,0.05,0.006,0.057,0.03c0.004,0.013,0.002,0.026-0.004,0.036c-0.368,0.642-0.912,1.127-1.522,1.499
				c-0.631,0.331-1.322,0.569-2.042,0.608c-0.357,0.029-0.703,0.059-1.036,0.161c-0.333,0.097-0.658,0.272-1.002,0.375
				c-0.688,0.145-1.417,0.085-2.09-0.218c-0.023-0.01-0.035-0.037-0.025-0.06C26.854,8.292,26.864,8.283,26.874,8.279z"/>
			<path fill="#96866D" d="M18.666,5.249c0.372,0.281,0.75,0.54,1.121,0.802c0.38,0.251,0.779,0.47,1.192,0.647
				c0.396,0.211,0.814,0.385,1.251,0.496c0.438,0.099,0.886,0.165,1.352,0.181c-0.439,0.231-0.947,0.292-1.442,0.258
				c-0.499-0.033-0.969-0.207-1.423-0.388c-0.425-0.245-0.844-0.493-1.191-0.832C19.179,6.075,18.865,5.704,18.666,5.249z"/>
			<path fill="#96866D" d="M26.003,39.104c1.019-0.495,1.903-0.829,2.883-1.128c0.494-0.118,1.039-0.173,1.51-0.397
				c0.473-0.217,0.887-0.545,1.244-0.93c0.712-0.776,1.43-1.484,2.141-2.215c0.75-0.692,1.507-1.378,2.391-2.032l0.096,0.061
				c-0.294,1.087-0.905,2.009-1.622,2.819c-0.313,2.737-2.782,1.835-4.813,3.5c-0.84,0.688-2.146,1.079-3.22,0.789L26.003,39.104z"
				/>
			<path fill="#96866D" d="M23.847,35.768c-0.558-1.321-1.616-2.283-2.273-3.541c-0.306-0.636-0.416-1.334-0.809-1.93
				c-0.205-0.292-3.558-1.152-5.745-0.59c-1.412-0.725-0.048-7.775,0.264-8.544c0.016-0.039,0.061-0.058,0.1-0.042
				c0.019,0.008,0.034,0.025,0.042,0.042c0.598,1.304,1.458,2.27,1.889,3.703c0.464,1.411,1.8,2.201,2.519,3.443
				c0.405,0.591,0.806,1.184,1.319,1.693c0.479,0.536,1.065,0.998,1.544,1.556c0.465,0.565,0.832,1.216,1.101,1.924
				c0.24,0.703,0.443,1.521,0.19,2.279c-0.013,0.04-0.056,0.062-0.096,0.048C23.871,35.803,23.855,35.786,23.847,35.768z"/>
			<path fill="#96866D" d="M16.96,39.349c0.741,0.043,1.371,0.167,1.977,0.454c0.292,0.167,0.575,0.393,0.888,0.529
				c0.315,0.128,0.789-0.512,1.125-0.47c0.674,0.086,1.217,0.792,1.892,0.802c0.666,0.086,1.317,0.253,1.97,0.614
				c0.026,0.015,0.036,0.048,0.021,0.074c-0.007,0.013-0.018,0.021-0.029,0.025c-0.704,0.258-1.41,0.316-2.099,0.243
				c-0.679-0.151-1.344-0.339-2.055-0.343c-0.706-0.036-1.384-0.254-2.013-0.587c-0.318-0.157-0.62-0.354-0.913-0.561
				c-0.293-0.204-0.581-0.417-0.819-0.698c-0.019-0.021-0.016-0.054,0.006-0.072c0.01-0.009,0.023-0.014,0.036-0.013L16.96,39.349z"
				/>
		</g>
		<g id="Science_Dog_logo">
			<path fill="#8F2733" d="M21.089,20.452c0.641-0.142,1.286-0.259,1.934-0.356c0.018,0.044,0.033,0.09,0.052,0.132
				c-0.539,0.142-1.075,0.291-1.608,0.446C21.343,20.586,21.218,20.515,21.089,20.452z M22.696,22.31
				c0.377-0.353,0.759-0.702,1.142-1.05c-0.021-0.017-0.04-0.038-0.061-0.055c-0.392,0.29-0.781,0.582-1.161,0.887
				C22.649,22.164,22.67,22.237,22.696,22.31z M32.347,20.345c-0.019,0-0.038,0.006-0.057,0.006
				c0.146,0.021,0.295,0.028,0.441,0.051C32.608,20.373,32.484,20.345,32.347,20.345z M32.291,20.351
				c-0.635-0.088-1.271-0.171-1.909-0.219c-0.016,0.048-0.035,0.094-0.053,0.141c0.417,0.075,0.835,0.147,1.25,0.229
				C31.818,20.416,32.058,20.36,32.291,20.351z M38.591,23.01c-0.145-0.539-0.543-0.865-0.908-1.114
				c-0.378-0.249-0.776-0.433-1.179-0.591c-0.437-0.167-0.878-0.307-1.322-0.43c0.135-0.15,0.281-0.287,0.412-0.441
				c0.448-0.516,0.841-1.081,1.174-1.701c0.157-0.316,0.307-0.646,0.354-1.041c0.021-0.199,0.022-0.4-0.075-0.655l-0.06-0.117
				c-0.019-0.031,0.001-0.008-0.05-0.084l-0.056-0.065c-0.071-0.091-0.156-0.161-0.249-0.221c-0.375-0.233-0.766-0.249-1.124-0.254
				c-0.362,0.002-0.71,0.053-1.05,0.119c-0.68,0.137-1.339,0.324-1.973,0.572c-0.7,0.264-1.381,0.565-2.049,0.891
				c0.024,0.078,0.051,0.153,0.068,0.235c0.703-0.255,1.408-0.5,2.119-0.715c0.642-0.179,1.279-0.372,1.925-0.477
				c0.623-0.104,1.346-0.163,1.775,0.104c0.05,0.032,0.098,0.065,0.13,0.109l0.029,0.029c-0.023-0.043,0.012,0.02,0.014,0.024
				c0.02,0.035,0.046,0.077,0.059,0.107c0.015,0.063,0.045,0.204,0.026,0.34c-0.022,0.278-0.141,0.58-0.277,0.867
				c-0.281,0.58-0.672,1.119-1.055,1.662c-0.154,0.209-0.325,0.408-0.485,0.612c-0.125-0.03-0.25-0.058-0.374-0.088l-0.198,0.411
				c0.086,0.024,0.172,0.049,0.258,0.073c-0.218,0.269-0.449,0.529-0.672,0.795c-0.006,0.072-0.001,0.141-0.015,0.215
				c-0.012,0.061-0.034,0.121-0.051,0.182c0.375-0.352,0.74-0.716,1.095-1.091c0.512,0.147,1.019,0.305,1.502,0.508
				c0.379,0.157,0.746,0.338,1.068,0.56c0.319,0.219,0.598,0.501,0.661,0.797c0.164,0.599-0.64,1.156-1.331,1.49
				c-0.155-0.161-0.371-0.264-0.612-0.264c-0.465,0-0.84,0.373-0.851,0.836c-0.293,0.096-0.586,0.191-0.881,0.283
				c-0.332-0.331-0.671-0.653-1.023-0.961c-0.227-0.201-0.47-0.381-0.7-0.576c-0.104,0.084-0.208,0.161-0.318,0.23
				c0.239,0.223,0.488,0.437,0.723,0.663c0.26,0.26,0.518,0.521,0.773,0.782c-0.984,0.268-1.983,0.493-2.988,0.705
				c0.011,0.05,0.029,0.101,0.038,0.15c1.101-0.116,2.198-0.272,3.285-0.512c0.33,0.347,0.653,0.699,0.955,1.067
				c0.616,0.766,1.24,1.605,1.433,2.497c0.101,0.429-0.004,0.873-0.312,1.09c-0.313,0.223-0.817,0.236-1.286,0.181
				c-0.962-0.119-1.91-0.485-2.844-0.842c-0.97-0.396-1.921-0.842-2.862-1.315c-0.08,0.009-0.158,0.026-0.239,0.026
				c-0.085,0-0.167-0.012-0.25-0.021c1.025,0.625,2.082,1.204,3.18,1.71c0.93,0.428,1.898,0.793,2.951,0.953
				c0.519,0.059,1.11,0.104,1.66-0.247c0.556-0.38,0.68-1.101,0.558-1.645c-0.27-1.104-0.944-1.925-1.594-2.718
				c-0.256-0.297-0.525-0.579-0.795-0.861c0.225-0.055,0.446-0.125,0.669-0.19c0.149,0.247,0.409,0.421,0.719,0.421
				c0.471,0,0.854-0.383,0.854-0.854c0-0.044-0.019-0.081-0.024-0.123c0.392-0.186,0.78-0.396,1.13-0.706
				c0.172-0.158,0.337-0.346,0.449-0.585c0.056-0.12,0.094-0.247,0.112-0.404C38.626,23.315,38.624,23.125,38.591,23.01z
				 M29.948,21.852c-0.15-0.108-0.302-0.215-0.454-0.321c-0.03,0.025-0.062,0.042-0.093,0.064c0.155,0.13,0.309,0.261,0.462,0.392
				C29.888,21.941,29.92,21.897,29.948,21.852z M24.721,28.351c-0.205,0.05-0.4,0.092-0.597,0.135
				c-0.691,0.369-1.392,0.716-2.099,1.046c-0.145-0.124-0.327-0.206-0.532-0.206c-0.449,0-0.81,0.357-0.827,0.802
				c-0.764,0.301-1.538,0.579-2.32,0.67c-0.453,0.051-0.943,0.015-1.199-0.229c-0.277-0.257-0.333-0.691-0.229-1.121
				c0.202-0.878,0.773-1.711,1.354-2.48c0.223-0.292,0.465-0.57,0.707-0.85c0.097,0.022,0.191,0.054,0.289,0.074
				c0.677,0.145,1.359,0.249,2.042,0.342c0.015-0.096,0.04-0.192,0.065-0.29c-0.672-0.145-1.343-0.295-2.002-0.476
				c-0.025-0.008-0.05-0.016-0.075-0.022c0.299-0.334,0.604-0.663,0.909-0.992c0.125-0.131,0.26-0.254,0.387-0.384
				c-0.119-0.065-0.232-0.146-0.347-0.231c-0.113,0.105-0.235,0.201-0.348,0.309c-0.388,0.364-0.758,0.747-1.118,1.141
				c-0.57-0.172-1.135-0.354-1.662-0.604c-0.676-0.31-1.45-0.838-1.303-1.415c0.146-0.598,0.912-1.072,1.583-1.42
				c0.414-0.212,0.848-0.389,1.288-0.557c0.075,0.066,0.156,0.125,0.232,0.19c-0.012-0.267,0.023-0.511,0.101-0.723
				c0,0-0.32,0.024-0.375,0.042c-0.294-0.319-0.582-0.643-0.85-0.98c-0.412-0.546-0.824-1.105-1.041-1.718
				c-0.231-0.577-0.17-1.324,0.338-1.47c0.538-0.204,1.264-0.115,1.922-0.002c0.23,0.041,0.459,0.1,0.688,0.155
				c0.006,0.456,0.375,0.823,0.832,0.823c0.302,0,0.554-0.169,0.701-0.409c0.516,0.157,1.03,0.324,1.543,0.499
				c0.017-0.1,0.04-0.193,0.065-0.287c-0.487-0.217-0.981-0.419-1.48-0.609c0-0.01,0.005-0.018,0.005-0.027
				c0-0.46-0.373-0.833-0.833-0.833c-0.285,0-0.524,0.152-0.674,0.37c-0.248-0.066-0.495-0.132-0.747-0.187
				c-0.703-0.124-1.428-0.281-2.231-0.019c-0.197,0.076-0.396,0.214-0.537,0.407l-0.048,0.076l-0.033,0.059l-0.013,0.03L16.2,17.099
				c-0.036,0.072-0.063,0.211-0.089,0.314c-0.066,0.42,0.026,0.815,0.159,1.167c0.281,0.701,0.709,1.293,1.191,1.82
				c0.26,0.287,0.532,0.559,0.812,0.823c-0.372,0.138-0.74,0.292-1.104,0.463c-0.375,0.182-0.744,0.387-1.09,0.651
				c-0.334,0.265-0.692,0.595-0.818,1.114c-0.055,0.249-0.019,0.535,0.096,0.769c0.109,0.232,0.273,0.409,0.441,0.561
				c0.342,0.3,0.723,0.498,1.105,0.671c0.504,0.22,1.02,0.385,1.539,0.527c-0.193,0.223-0.391,0.44-0.577,0.671
				c-0.611,0.793-1.23,1.618-1.501,2.678c-0.124,0.516-0.064,1.208,0.414,1.638c0.512,0.43,1.121,0.395,1.627,0.343
				c0.848-0.123,1.63-0.399,2.382-0.732c0.145,0.243,0.4,0.415,0.705,0.415c0.46,0,0.833-0.373,0.833-0.833
				c0-0.115-0.023-0.225-0.065-0.324c0.871-0.466,1.725-0.96,2.545-1.504C24.777,28.337,24.749,28.344,24.721,28.351z"/>
			<path fill-rule="evenodd" clip-rule="evenodd" fill="#091724" d="M23.169,14l1.527,2.078c0,0-0.686,0.018-0.901,0.088
				c-0.173,0.057-0.626,0.374-0.626,0.374V14z M28.917,16.283c0,0,0.638,0.066,0.831,0.153c0.168,0.075,0.581,0.451,0.581,0.451
				l0.257-2.566L28.917,16.283z M19.012,20.723l0.95-0.63L18.55,19.08L19.012,20.723z M33.189,20.35l0.719,0.693l0.667-1.386
				L33.189,20.35z M24.439,22.339c-0.885,0.676-3.438,3.559-2.771,5.197c0.713,1.75,3.151,0.159,4.965,0.23
				c0.872,0.034,1.715,0.813,2.771,0.577c2.315-0.518,0.801-3.26-0.116-4.503c-0.921-1.25-1.806-2.471-3.579-2.079
				C25.217,21.871,24.784,22.076,24.439,22.339z M22.028,21.62c0.694,0.968,0.748,2.116,0.121,2.565
				c-0.628,0.45-1.699,0.031-2.393-0.936s-0.747-2.116-0.12-2.566S21.334,20.653,22.028,21.62z M32.712,23.519
				c-0.843,0.846-1.993,1.065-2.569,0.49c-0.576-0.574-0.359-1.725,0.483-2.57s1.993-1.065,2.569-0.49
				C33.772,21.523,33.555,22.674,32.712,23.519z M26.08,18.706c0.224,1.316-0.271,2.498-1.104,2.64s-1.691-0.81-1.915-2.125
				c-0.224-1.316,0.27-2.498,1.104-2.64C24.998,16.438,25.855,17.39,26.08,18.706z M29.146,16.868
				c0.833,0.142,1.327,1.324,1.104,2.64c-0.224,1.315-1.081,2.268-1.915,2.125c-0.834-0.142-1.328-1.324-1.104-2.64
				C27.455,17.678,28.312,16.726,29.146,16.868z"/>
		</g>
		<rect x="19.642" y="0.557" fill="#F4D7B3" width="14.574" height="3.171"/>
		<path fill="#692F16" stroke="#091724" stroke-width="0.4535" d="M26.929,5.409c-4.816,0-8.651-1.943-9.131-4.568h1.767
			c0.65,1.357,3.477,2.696,7.365,2.696c3.889,0,6.716-1.338,7.365-2.696h1.765C35.58,3.466,31.745,5.409,26.929,5.409z"/>
	</g>
	<g id="jacket-body" clip-path="url(#SVGID_2_)">
		<path fill="#0B75BC" stroke="#091724" stroke-width="0.6236" stroke-linecap="round" stroke-linejoin="round" d="M33.071,45.413
			l20.362-0.008L53.324,1.949c0,0-14.15-0.898-15.965-0.018c-1.353,0.656-0.857-0.662-1.57,0.661
			c-0.714,1.323-1.001,1.229-1.416,2.674c-0.517,1.8,0.445,1.506,0.411,3.76c-0.017,1.087-0.269,2.346-0.474,3.716
			c-0.173,1.161-0.521,2.387-0.907,3.647c0.091,1.248,0.19,2.653,0.282,4.163c0.078,1.287,0.26,2.661,0.312,4.136
			c0.046,1.308-0.073,2.689-0.067,4.145c0.005,1.321,0.393,2.709,0.352,4.152c-0.038,1.33-0.119,2.717-0.208,4.15
			c-0.082,1.334-0.586,2.682-0.721,4.105C33.225,42.577,33.071,45.413,33.071,45.413z"/>
		<path fill="#0B75BC" stroke="#091724" stroke-width="0.6236" stroke-linecap="round" stroke-linejoin="round" d="M15.316,45.353
			L0.235,45.354L0.442,2.347c0,0,14.07-0.971,15.401-0.19c1.452,0.853,0.686-0.64,1.576,0.789s1.521,1.128,1.76,2.794
			c0.185,1.279-0.923,1.654-0.87,2.291c0.083,0.994,0.614,1.634,1.013,2.655c0.275,0.704,0.416,1.618,0.527,2.843
			c0.072,0.79,0.231,1.744,0.148,2.891c-0.066,0.917-0.287,1.828-0.441,2.765c-0.145,0.881-0.393,1.772-0.594,2.722
			c-0.183,0.863-0.213,1.803-0.425,2.762c-0.189,0.857-0.438,1.747-0.638,2.708c-0.18,0.86-0.617,1.718-0.797,2.683
			c-0.162,0.867-0.016,1.835-0.172,2.802c-0.141,0.875-0.387,1.773-0.519,2.739c-0.12,0.882-0.215,1.804-0.324,2.77
			c-0.1,0.887-0.442,1.786-0.53,2.75c-0.081,0.893-0.161,1.822-0.229,2.786C15.265,44.802,15.316,45.353,15.316,45.353z"/>
		<g id="buttons">
			<circle fill="#A2A0A2" stroke="#091724" stroke-width="0.2835" stroke-miterlimit="10" cx="17.549" cy="11.082" r="0.583"/>
			<circle fill="#A2A0A2" stroke="#091724" stroke-width="0.2835" stroke-miterlimit="10" cx="18.344" cy="16.161" r="0.584"/>
			<circle fill="#A2A0A2" stroke="#091724" stroke-width="0.2835" stroke-miterlimit="10" cx="17.705" cy="21.272" r="0.585"/>
			<path fill="#A2A0A2" stroke="#091724" stroke-width="0.2835" stroke-miterlimit="10" d="M16.594,25.705
				c0.304,0.104,0.468,0.435,0.365,0.742c-0.102,0.303-0.433,0.469-0.738,0.367c-0.306-0.102-0.466-0.437-0.365-0.74
				C15.958,25.769,16.288,25.602,16.594,25.705z"/>
			<path fill="#A2A0A2" stroke="#091724" stroke-width="0.2835" stroke-miterlimit="10" d="M15.646,30.764
				c0.312,0.077,0.502,0.395,0.425,0.71c-0.075,0.31-0.391,0.504-0.704,0.429c-0.313-0.075-0.501-0.396-0.426-0.708
				C15.018,30.882,15.333,30.687,15.646,30.764z"/>
			<path fill="#A2A0A2" stroke="#091724" stroke-width="0.2835" stroke-miterlimit="10" d="M14.774,35.843
				c0.312,0.078,0.502,0.396,0.425,0.712c-0.076,0.309-0.392,0.502-0.705,0.428c-0.313-0.075-0.504-0.399-0.426-0.71
				C14.147,35.961,14.46,35.765,14.774,35.843z"/>
			<path fill="#A2A0A2" stroke="#091724" stroke-width="0.2835" stroke-miterlimit="10" d="M13.898,40.921
				c0.311,0.082,0.502,0.396,0.424,0.713c-0.075,0.309-0.391,0.496-0.704,0.428c-0.312-0.081-0.5-0.399-0.425-0.71
				C13.27,41.04,13.583,40.847,13.898,40.921z"/>
		</g>
	</g>
	<g id="vest" clip-path="url(#SVGID_2_)">
		<path fill="#684431" d="M52.745,43.99c-1.967-10.659-3.33-18.763-4.328-24.688c-1.709-3.22-2.206-3.623-3.269-9.686
			c-0.565-3.226,0.628-4.569,0.168-5.774c-0.819-2.146-1.749-2.452-3.435-2.452c-0.334,0-1.092,0-1.092,0h-2.558
			c-0.966,4.118-3.227,13.119-5.312,16.622c0.447,4.626,2.418,10.138,2.582,15.11c0.19,5.845-0.818,10.537-0.892,10.869H52.745z"/>
		<path fill="#684431" d="M14.575,29.413c2.416-6.75,3.396-9.563,3.587-13.93c0.208-4.732-1.339-10.966-2.223-14.094H13.07
			c0,0-0.757,0-1.091,0c-1.701,0-2.632,0.312-3.457,2.513c1.125,7.93-1.992,12.918-3.014,15.173
			c-0.997,5.924-2.43,14.264-4.396,24.915h12.136C13.328,41.573,13.641,34.051,14.575,29.413z"/>
		<g>
			<path fill="#091724" d="M8.349,3.093c0.485,1.554,0.625,3.2,0.627,4.831c-0.053,1.631-0.217,3.266-0.625,4.854
				c-0.41,1.59-0.995,3.125-1.744,4.57c-0.724,1.459-1.598,2.828-2.479,4.184c0.71-1.457,1.478-2.879,2.123-4.353
				c0.632-1.476,1.216-2.975,1.575-4.527c0.329-1.56,0.604-3.145,0.671-4.745C8.604,6.308,8.571,4.697,8.349,3.093z"/>
		</g>
		<g>
			<path fill="#091724" d="M45.611,3.306c-0.208,0.791-0.259,1.594-0.263,2.399c-0.014,0.805,0.041,1.61,0.107,2.413
				c0.115,1.604,0.339,3.222,0.569,4.805c0.27,1.578,0.783,3.101,1.546,4.512c0.758,1.403,1.798,2.731,2.261,4.309
				c-0.643-1.505-1.747-2.705-2.597-4.115c-0.886-1.394-1.429-2.995-1.737-4.61c-0.302-1.62-0.436-3.237-0.524-4.874
				C44.956,6.525,44.953,4.822,45.611,3.306z"/>
		</g>
		<g id="shades">
			<path fill="#503221" d="M18.114,15.27c0,0-3.204,11.922-4.027,12.031c0.55-1.906,0.527-6.469,0.54-12.188
				c0.002-0.54,1.11-0.625,1.11-0.625s-1.153-1.976-2.671-2.733c-0.574-0.287-0.822,0.449-1.142,0.443
				c-0.555-0.01-0.061-7.616,1.158-8.46c1.262-0.874,3.748,4.86,3.748,4.86L18.114,15.27z M35.018,14.349
				c0,0,1.983,16.866,2.704,16.452c0.114-0.065-2.125-12.594-0.279-16.804c-0.002-0.54-0.989-0.423-0.989-0.423
				s2.958-2.024,4.439-2.852c1.033-0.577,1.164,0.443,1.504,0.414c0.557-0.048,0.669-4.366-0.279-6.854
				c-0.546-1.431-5.193,3.254-5.193,3.254L35.018,14.349z"/>
			<path fill="#503221" d="M44.134,37.714c0.403,0.199,0.819,0.351,1.232,0.403c0.488,0.065,0.975,0.035,1.364-0.173
				c-0.955-0.234-1.782-0.544-2.58-0.996c-0.728-0.398-1.395-0.931-2.136-1.518c-0.187-0.234-0.371-0.467-0.563-0.703
				c0.335,0.849,0.768,1.685,1.357,2.455c0.587,0.767,1.313,1.472,2.154,1.974c0.798,0.474,1.54,0.885,2.138,1.498
				c0.602,0.606,1.008,1.408,1.319,2.262c0.003-0.835-0.267-1.796-0.912-2.601c-0.629-0.82-1.513-1.34-2.266-1.803
				C44.854,38.29,44.487,38.017,44.134,37.714z"/>
			<path fill="#503221" d="M2.926,41.81c0.694,0.057,1.375-0.195,1.983-0.639c0.299-0.244,0.558-0.58,0.849-0.819
				c0.287-0.242,0.604-0.415,0.929-0.593c0.662-0.334,1.269-0.875,1.775-1.536c0.477-0.685,0.833-1.536,0.839-2.368l-0.077-0.022
				c-0.499,0.666-0.919,1.216-1.379,1.765c-0.432,0.574-0.902,1.116-1.377,1.736c-0.241,0.303-0.51,0.575-0.817,0.749
				C5.346,40.266,5,40.321,4.685,40.446c-0.618,0.289-1.191,0.688-1.772,1.269L2.926,41.81z"/>
		</g>
		<g>
			<g>
				<path fill="#091724" d="M46.968,25.038c0,0,1.729,5.107,1.005,7.141c-0.283,0.797-1.034,1.18-2.984,1.275
					c-1.584,0.078-3.825-0.333-4.401-1.408c-1.09-2.032-1.891-9.054-1.891-9.054L46.968,25.038z"/>
				<path fill="#091724" d="M47.264,24.938c0.562,2.021,1.095,4.026,1.161,6.177c-0.006,0.535-0.024,1.116-0.384,1.683
					c-0.386,0.56-1.005,0.795-1.531,0.943c-1.073,0.277-2.168,0.373-3.262,0.167c-0.544-0.086-1.075-0.263-1.592-0.495
					c-0.5-0.258-1.035-0.567-1.37-1.155c-0.488-1.037-0.695-2.038-0.923-3.065c-0.42-2.047-0.689-4.101-0.977-6.161v-0.004
					c-0.02-0.171,0.103-0.326,0.273-0.346c0.038-0.004,0.076-0.001,0.111,0.007l8.271,2.046l0.015,0.004
					C47.162,24.765,47.237,24.844,47.264,24.938z M46.719,25.298l-8.098-2.003l0.385-0.338l0.001,0.004
					c0.193,2.049,0.49,4.099,0.905,6.111c0.227,0.99,0.43,2.036,0.89,2.892c0.508,0.734,1.611,0.985,2.566,1.115
					c0.987,0.102,2.012,0.125,2.991-0.05c0.479-0.087,0.946-0.244,1.217-0.581c0.26-0.345,0.32-0.86,0.339-1.35
					c0.021-1-0.158-2.019-0.389-3.012C47.307,27.146,47.029,26.211,46.719,25.298z"/>
			</g>
			<g>
				<path fill="#684431" d="M45.696,21.936c1.401,1.269,1.98,3.878,1.98,3.878s-1.574,0.329-3.359,0.28
					c-1.786-0.049-3.75-0.192-4.465-0.573c-1.016-0.543-1.658-4.3-1.658-4.3S43.235,22.045,45.696,21.936z"/>
				<path fill="#091724" d="M45.891,21.73c0.257,0.277,0.509,0.597,0.712,0.913c0.205,0.323,0.376,0.66,0.548,0.995
					c0.336,0.68,0.577,1.38,0.802,2.113v0.001c0.036,0.149-0.055,0.3-0.204,0.336c-0.003,0.001-0.012,0.003-0.015,0.003
					c-1.062,0.2-2.117,0.297-3.19,0.29c-1.062-0.022-2.112-0.07-3.174-0.201c-0.533-0.08-1.058-0.139-1.617-0.394
					c-0.142-0.066-0.288-0.195-0.39-0.312c-0.098-0.117-0.185-0.238-0.256-0.361c-0.147-0.245-0.261-0.496-0.361-0.748
					c-0.395-1.014-0.634-2.043-0.831-3.094v-0.003l-0.004-0.055c-0.012-0.144,0.096-0.27,0.239-0.281
					c0.03-0.002,0.062,0.001,0.09,0.009c0.605,0.166,1.22,0.317,1.838,0.427c0.615,0.131,1.24,0.196,1.862,0.284
					c0.623,0.086,1.252,0.108,1.878,0.14c0.626,0.002,1.259-0.022,1.865-0.139c0.074-0.014,0.146,0.012,0.194,0.063L45.891,21.73z
					 M45.582,22.216c-1.247,0.029-2.464-0.083-3.68-0.209c-1.257-0.138-2.504-0.308-3.754-0.506l0.325-0.328l0.001,0.003
					c0.188,1.01,0.43,2.035,0.798,2.979c0.182,0.447,0.43,0.966,0.737,1.127c0.397,0.185,0.933,0.267,1.433,0.336
					c2.056,0.226,4.165,0.32,6.177-0.081L47.4,25.875l-0.001-0.001c-0.123-0.695-0.37-1.389-0.659-2.041
					c-0.143-0.329-0.327-0.637-0.53-0.925C46.024,22.645,45.825,22.419,45.582,22.216z"/>
			</g>
			<path fill="#684431" d="M39.737,26.47c0,0,0.328,4.453,1.322,5.562c0.764,0.852,3.576,1.183,3.988,0.859
				c0.318-0.375-0.622-4.819-0.498-6.133C43.598,26.864,39.737,26.47,39.737,26.47z"/>
			<path fill="#684431" d="M47.775,31.946c-0.04,0.099-0.999,0.805-1.566,0.604c-0.451-0.65-0.976-5.599-0.797-5.81
				c0.066-0.078,1.534-0.245,1.615-0.183C47.225,26.713,47.872,31.715,47.775,31.946z"/>
			<g>
				<ellipse fill="#684431" cx="43.542" cy="24.378" rx="0.803" ry="0.646"/>
				<path fill="#091724" d="M44.523,24.4c0.004,0.487-0.507,0.924-0.98,0.869c-0.451-0.013-0.972-0.328-1.028-0.891
					c-0.01-0.596,0.567-0.923,1.026-0.923c0.199-0.01,0.516,0.061,0.693,0.227c0.212,0.154,0.298,0.445,0.291,0.695L44.523,24.4z
					 M44.164,24.378c-0.084-0.249-0.35-0.33-0.622-0.369c-0.277-0.012-0.552,0.156-0.578,0.369
					c-0.038,0.247,0.292,0.426,0.578,0.401c0.264-0.043,0.604-0.103,0.624-0.424L44.164,24.378z"/>
			</g>
		</g>
		<g>
			<g>
				<path fill="#091724" d="M6.692,24.487c0,0-1.729,5.107-1.005,7.141c0.283,0.797,1.034,1.18,2.984,1.275
					c1.584,0.078,3.825-0.333,4.401-1.408c1.09-2.032,1.891-9.054,1.891-9.054L6.692,24.487z"/>
				<path fill="#091724" d="M6.934,24.749c-0.331,0.904-0.595,1.844-0.807,2.785c-0.229,0.994-0.393,2.02-0.333,3.012
					c0.041,0.483,0.139,0.989,0.39,1.275c0.255,0.28,0.688,0.406,1.156,0.469c0.958,0.107,1.96,0.081,2.914-0.01
					c0.479-0.065,0.961-0.124,1.41-0.267c0.441-0.135,0.868-0.354,1.068-0.672c0.459-0.809,0.685-1.86,0.925-2.84
					c0.447-2.001,0.782-4.046,0.995-6.092l0-0.004l0.384,0.338L6.934,24.749z M6.617,24.185l8.271-2.046
					c0.167-0.042,0.336,0.06,0.378,0.227c0.009,0.037,0.011,0.076,0.007,0.111l0,0.004c-0.307,2.058-0.614,4.107-1.065,6.141
					c-0.242,1.017-0.472,2.023-0.958,3.014c-0.308,0.537-0.827,0.823-1.319,1.042c-0.504,0.209-1.027,0.342-1.554,0.432
					c-1.061,0.195-2.133,0.103-3.186-0.107c-0.516-0.125-1.1-0.327-1.47-0.831c-0.351-0.509-0.407-1.078-0.436-1.607
					c0-2.141,0.521-4.169,1.112-6.176c0.03-0.103,0.112-0.176,0.209-0.2L6.617,24.185z"/>
			</g>
			<g>
				<path fill="#684431" d="M7.964,21.385c-1.401,1.269-1.98,3.878-1.98,3.878s1.574,0.329,3.359,0.28
					c1.786-0.049,3.75-0.192,4.465-0.573c1.016-0.543,1.658-4.3,1.658-4.3S10.425,21.494,7.964,21.385z"/>
				<path fill="#091724" d="M8.094,21.651c-0.251,0.206-0.453,0.437-0.643,0.706c-0.203,0.288-0.387,0.597-0.53,0.925
					c-0.289,0.652-0.537,1.346-0.66,2.041v0.001l-0.219-0.339c2.011,0.401,4.121,0.307,6.176,0.081
					c0.5-0.069,1.035-0.151,1.433-0.336c0.308-0.161,0.555-0.68,0.738-1.127c0.368-0.944,0.609-1.969,0.798-2.979l0-0.003
					l0.325,0.327c-0.636,0.033-1.267,0.062-1.895,0.122c-0.63,0.037-1.253,0.126-1.881,0.176c-0.628,0.049-1.251,0.145-1.88,0.197
					C9.275,21.515,8.692,21.588,8.094,21.651z M7.977,21.102c1.223,0.04,2.479-0.08,3.72-0.209c1.244-0.137,2.489-0.306,3.723-0.502
					c0.154-0.025,0.3,0.079,0.326,0.233c0.005,0.031,0.004,0.065,0,0.095l0,0.003c-0.197,1.05-0.437,2.08-0.831,3.093
					c-0.101,0.252-0.214,0.503-0.361,0.749c-0.071,0.122-0.158,0.243-0.256,0.36c-0.102,0.116-0.248,0.245-0.39,0.313
					c-0.56,0.254-1.083,0.313-1.617,0.393c-1.062,0.131-2.112,0.179-3.173,0.201c-1.074,0.007-2.129-0.09-3.191-0.29
					c-0.151-0.028-0.25-0.174-0.222-0.325c0-0.002,0.002-0.011,0.003-0.014l0-0.001c0.224-0.733,0.466-1.434,0.801-2.113
					c0.172-0.335,0.343-0.672,0.548-0.995c0.203-0.316,0.455-0.636,0.712-0.913c0.05-0.054,0.119-0.08,0.187-0.078L7.977,21.102z"/>
			</g>
			<path fill="#684431" d="M13.923,25.919c0,0-0.328,4.453-1.322,5.562c-0.764,0.852-3.859,1.183-4.271,0.859
				c-0.318-0.375,0.226-4.758,0.498-6.133c0.262,0.029,0.321,0.021,0.885-0.008c0.08-0.004-0.663,4.737-0.337,5.905
				c0.071,0.105,0.243,0.138,0.365,0.03c-0.154-1.406,0.619-5.964,0.717-5.971C11.829,26.075,13.923,25.919,13.923,25.919z"/>
			<path fill="#684431" d="M5.885,31.396C5.925,31.494,6.884,32.2,7.452,32c-0.006-0.98,0.51-4.574,0.797-5.81
				c-0.066-0.078-1.534-0.245-1.615-0.183C6.435,26.162,5.789,31.164,5.885,31.396z"/>
			<g>
				<ellipse fill="#684431" cx="10.063" cy="23.729" rx="0.82" ry="0.664"/>
				<path fill="#091724" d="M11.024,23.746c0.017,0.473-0.453,0.944-0.981,0.892c-0.415-0.02-0.999-0.305-1.018-0.937
					c0.019-0.525,0.563-0.91,1.038-0.91c0.499-0.059,0.997,0.44,0.962,0.937L11.024,23.746z M10.742,23.729
					c-0.021-0.156-0.152-0.228-0.245-0.336c-0.114-0.11-0.246-0.181-0.434-0.148c-0.329,0.063-0.555,0.255-0.582,0.513
					c-0.004,0.045,0.037,0.226,0.164,0.286c0.146,0.077,0.215,0.104,0.438,0.104c0.229-0.042,0.626-0.082,0.66-0.438L10.742,23.729z
					"/>
			</g>
		</g>
		<g>
			<path fill="#684431" d="M13.116,44.769c0,0,0.393-12.382,1.709-15.772c1.375-3.541,3.409-11.092,3.416-12.948
				c0.024-6.688-1.5-12.528-3.046-17.3C11.991,0,12.508,10.94,12.508,10.94s2.233-2.671,3.921-2.421
				c-1.188,0.761-2.467,2.035-2.467,2.035s2.611,1.905,2.952,3.805c0.042,0.23,1.057,0.787,1.036,1.037
				c-0.086,0.116-1.878-0.343-1.96-0.182c-0.713,1.407-1.107,6.925-3.219,13.224c-1.78,5.308-1.889,16.33-1.889,16.33"/>
			<path fill="#091724" d="M12.891,44.762c0.117-3.92,0.318-7.833,0.804-11.736c0.127-0.976,0.273-1.95,0.494-2.922
				c0.109-0.479,0.257-0.986,0.44-1.44c0.17-0.454,0.33-0.912,0.485-1.373c0.616-1.848,1.152-3.726,1.662-5.608
				c0.25-0.942,0.489-1.888,0.702-2.837c0.2-0.94,0.428-1.923,0.462-2.825c0.006-1.959-0.115-3.885-0.349-5.823
				c-0.474-3.864-1.423-7.663-2.651-11.367l0.353,0.167c-0.864,0.366-1.333,1.425-1.648,2.396c-0.315,1.003-0.497,2.059-0.623,3.118
				c-0.243,2.121-0.287,4.281-0.208,6.414l-0.542-0.182c0.541-0.625,1.121-1.185,1.786-1.68c0.333-0.244,0.69-0.468,1.086-0.64
				c0.396-0.165,0.847-0.289,1.331-0.222c0.175,0.024,0.297,0.186,0.273,0.361c-0.013,0.095-0.066,0.174-0.141,0.223L16.602,8.79
				c-0.858,0.563-1.662,1.271-2.41,1.996l-0.038-0.495c0.879,0.674,1.672,1.421,2.326,2.335c0.319,0.458,0.602,0.966,0.737,1.553
				l0.023,0.11c-0.027-0.094,0.003,0,0.002-0.008c0.009,0.024,0.001-0.017-0.003-0.02c-0.021-0.029,0.043,0.043,0.076,0.069
				l0.296,0.237c0.106,0.083,0.214,0.165,0.327,0.263c0.056,0.049,0.114,0.104,0.175,0.17c0.052,0.096,0.156,0.112,0.172,0.424
				c0.003,0.056-0.015,0.108-0.046,0.149l-0.02,0.025c-0.037,0.048-0.093,0.092-0.149,0.117l-0.067,0.022
				c-0.055,0.013-0.056,0.009-0.086,0.013l-0.101,0.001l-0.15-0.012l-0.264-0.036l-0.499-0.083l-0.484-0.075l-0.224-0.023
				l-0.083-0.001c-0.007,0-0.008,0.002,0.012-0.003c0.02-0.007,0.041-0.01,0.09-0.049c0.037-0.029,0.062-0.061,0.084-0.109
				l-0.006,0.014c-0.246,0.542-0.37,1.213-0.507,1.855l-0.755,3.94c-0.515,2.63-1.206,5.255-2.067,7.785
				c-0.746,2.52-1.064,5.188-1.355,7.83c-0.267,2.652-0.43,5.322-0.5,7.987c-0.001,0.125-0.104,0.225-0.228,0.224
				c-0.123-0.002-0.222-0.105-0.223-0.228c0.022-2.685,0.138-5.361,0.358-8.038c0.233-2.674,0.547-5.351,1.301-7.975
				c0.852-2.541,1.493-5.108,2.027-7.725l0.769-3.939c0.147-0.661,0.258-1.323,0.563-2.003l0.007-0.014
				c0.028-0.057,0.062-0.096,0.104-0.133c0.066-0.051,0.108-0.062,0.147-0.076c0.061-0.017,0.101-0.02,0.136-0.022
				c0.065-0.003,0.119-0.002,0.167,0.001l0.274,0.029l0.507,0.081l0.49,0.083l0.233,0.033l0.1,0.008l0.025,0l-0.025,0.005
				c-0.013,0.003-0.024,0.007-0.037,0.013c-0.047,0.019-0.095,0.057-0.124,0.099l-0.066,0.174c0.019,0.171,0.019,0.083-0.006,0.075
				c-0.029-0.032-0.068-0.07-0.112-0.108L17.2,15.097l-0.327-0.265c-0.065-0.063-0.102-0.081-0.201-0.217
				c-0.021-0.031-0.056-0.095-0.057-0.104c-0.012-0.04,0.001,0.025-0.032-0.102l-0.019-0.085c-0.102-0.457-0.34-0.904-0.628-1.318
				c-0.583-0.827-1.358-1.565-2.167-2.188l-0.011-0.009c-0.141-0.108-0.167-0.31-0.059-0.451l0.032-0.036
				c0.787-0.756,1.594-1.466,2.524-2.074l0.126,0.588c-0.631-0.083-1.347,0.3-1.951,0.736c-0.613,0.447-1.186,0.993-1.687,1.564
				l-0.008,0.009c-0.111,0.126-0.304,0.139-0.43,0.028c-0.066-0.058-0.101-0.139-0.104-0.22c-0.065-2.178-0.005-4.346,0.257-6.512
				c0.139-1.081,0.325-2.162,0.662-3.217c0.17-0.527,0.379-1.049,0.679-1.538c0.296-0.482,0.71-0.955,1.299-1.19
				c0.137-0.055,0.292,0.012,0.347,0.149l0.006,0.019c1.199,3.733,2.191,7.555,2.703,11.461c0.251,1.946,0.387,3.933,0.389,5.888
				c-0.037,1.057-0.265,1.992-0.463,2.964c-0.21,0.962-0.446,1.915-0.695,2.865c-0.496,1.9-1.058,3.781-1.689,5.644
				c-0.16,0.465-0.325,0.931-0.501,1.392c-0.185,0.452-0.313,0.888-0.426,1.361c-0.22,0.936-0.37,1.897-0.502,2.861
				c-0.497,3.863-0.735,7.774-0.924,11.675c-0.004,0.125-0.109,0.223-0.233,0.218C12.985,44.989,12.889,44.884,12.891,44.762z"/>
		</g>
		<g>
			<path fill="#684431" d="M38.784-0.92c0,0-2.432,10.986-5.643,18.309c-1.107,2.525,2.926,9.942,2.342,19.192
				c-0.184,2.907-1.033,8.916-1.033,8.916s1.041,0.005,1.691-0.728c1.275-1.435,1.019-3.374,1.431-5.523
				c1.619-8.444-3.556-20.793-0.872-24.666c0.314-0.456-1.916,0.033-1.916,0.033s3.416-3.99,5.25-4.99
				c-0.855-1.291-2.518-1.384-2.518-1.384s2.754-0.661,4.088,1.422c1.959-5.958-0.82-10.582-0.82-10.582H38.784z"/>
			<path fill="#091724" d="M38.96-0.693c-0.848,3.824-1.845,7.61-3.026,11.346c-0.603,1.896-1.252,3.78-1.997,5.631l-0.561,1.364
				c-0.134,0.39-0.129,0.875-0.094,1.345c0.082,0.951,0.313,1.916,0.53,2.876c0.941,3.837,1.896,7.759,1.996,11.773
				c0.078,2.004-0.106,4.01-0.34,5.978c-0.229,1.976-0.494,3.943-0.76,5.913l-0.259-0.3c0.641-0.032,1.285-0.291,1.659-0.851
				c0.4-0.522,0.631-1.188,0.754-1.874c0.126-0.689,0.178-1.41,0.262-2.136c0.072-0.73,0.242-1.46,0.324-2.149
				c0.342-2.836,0.057-5.727-0.335-8.576c-0.398-2.857-0.965-5.695-1.324-8.589c-0.167-1.447-0.302-2.915-0.131-4.411
				c0.095-0.743,0.276-1.511,0.717-2.19c0.033-0.046,0.059-0.103,0.025-0.033c-0.025,0.063-0.007,0.175,0.038,0.234
				c0.048,0.064,0.082,0.069,0.086,0.075c0.028,0.006-0.067-0.011-0.134-0.008c-0.152,0-0.325,0.017-0.496,0.039
				c-0.344,0.045-0.697,0.11-1.039,0.183c-0.184,0.041-0.366-0.075-0.407-0.258c-0.024-0.108,0.009-0.219,0.074-0.298
				c0.801-0.926,1.623-1.82,2.485-2.688c0.432-0.433,0.873-0.857,1.337-1.264c0.468-0.404,0.941-0.802,1.518-1.127l-0.125,0.507
				c-0.241-0.355-0.573-0.65-0.97-0.854c-0.387-0.205-0.854-0.341-1.272-0.382L37.472,8.58c-0.188-0.019-0.326-0.186-0.308-0.374
				c0.015-0.153,0.129-0.272,0.271-0.302c0.429-0.089,0.82-0.113,1.234-0.102c0.409,0.013,0.821,0.071,1.222,0.194
				c0.803,0.231,1.541,0.772,1.987,1.489l-0.586,0.074c0.554-1.687,0.807-3.475,0.68-5.251c-0.058-0.888-0.207-1.771-0.438-2.631
				c-0.232-0.854-0.544-1.712-0.959-2.472l0.208,0.118L38.96-0.693z M38.784-1.146l2-0.017c0.087-0.002,0.166,0.048,0.208,0.118
				c0.471,0.829,0.794,1.688,1.055,2.58c0.256,0.89,0.427,1.805,0.503,2.729c0.159,1.848-0.056,3.733-0.635,5.5
				c-0.057,0.171-0.241,0.265-0.412,0.208c-0.074-0.024-0.135-0.074-0.174-0.135c-0.375-0.586-0.955-1.006-1.629-1.199
				c-0.665-0.197-1.433-0.201-2.104-0.065l-0.061-0.678c0.566,0.052,1.065,0.201,1.556,0.45c0.485,0.245,0.922,0.619,1.237,1.082
				c0.109,0.16,0.068,0.378-0.092,0.487L40.21,9.93l-0.007,0.004c-0.482,0.269-0.948,0.648-1.396,1.035
				c-0.448,0.39-0.882,0.804-1.308,1.227c-0.848,0.848-1.67,1.736-2.457,2.64l-0.333-0.556c0.366-0.077,0.726-0.142,1.1-0.19
				c0.188-0.022,0.376-0.042,0.586-0.042c0.113,0.007,0.203-0.008,0.4,0.065c0.045,0.021,0.121,0.052,0.194,0.152
				c0.076,0.092,0.097,0.258,0.058,0.362c-0.06,0.156-0.093,0.172-0.106,0.203c-0.354,0.54-0.529,1.216-0.617,1.902
				c-0.165,1.386-0.044,2.827,0.117,4.25c0.344,2.855,0.907,5.702,1.286,8.583c0.375,2.875,0.647,5.808,0.277,8.732
				c-0.094,0.748-0.26,1.431-0.332,2.142c-0.086,0.712-0.139,1.438-0.276,2.172c-0.137,0.733-0.384,1.478-0.872,2.108l-0.171,0.211
				c-0.086,0.091-0.146,0.156-0.229,0.224c-0.156,0.134-0.33,0.245-0.513,0.33c-0.37,0.17-0.743,0.263-1.163,0.276
				c-0.141,0.004-0.258-0.106-0.263-0.246l0.002-0.043l0.002-0.011c0.281-1.961,0.528-3.93,0.743-5.898
				c0.22-1.972,0.388-3.933,0.298-5.898c-0.122-3.945-1.069-7.794-2.034-11.647c-0.228-0.97-0.455-1.946-0.539-2.974
				c-0.031-0.514-0.052-1.046,0.138-1.602c0.193-0.501,0.392-0.917,0.578-1.386c0.748-1.826,1.404-3.693,2.015-5.576
				c1.206-3.769,2.255-7.597,3.176-11.447C38.587-1.073,38.681-1.144,38.784-1.146z"/>
		</g>
		<g>
			<g>
				<path fill="#091724" d="M33.745,18.984c0.251-0.284,0.512-0.181,0.77-0.199c0.258,0.003,0.517,0.043,0.776,0.115
					c0.04,0.011,0.063,0.052,0.052,0.091c-0.007,0.025-0.025,0.043-0.048,0.051c-0.257,0.083-0.514,0.135-0.771,0.15
					c-0.258-0.007-0.514,0.108-0.778-0.164C33.734,19.015,33.734,18.997,33.745,18.984z"/>
			</g>
			<g>
				<path fill="#091724" d="M34.097,22.044c0.126-0.029,0.247-0.093,0.376-0.094c0.128-0.01,0.258-0.004,0.384-0.027l0.381-0.056
					c0.127-0.014,0.251-0.062,0.388,0.007l0.008,0.004c0.077,0.039,0.107,0.133,0.068,0.209c-0.011,0.022-0.027,0.042-0.047,0.055
					c-0.119,0.087-0.248,0.091-0.373,0.119l-0.379,0.074c-0.125,0.035-0.258-0.001-0.387,0.001l-0.39-0.026l-0.008,0
					c-0.075-0.005-0.132-0.07-0.127-0.145C33.996,22.106,34.04,22.057,34.097,22.044z"/>
			</g>
			<g>
				<path fill="#091724" d="M34.996,25.904c0.1-0.112,0.208-0.17,0.318-0.209c0.111-0.039,0.221-0.093,0.336-0.104
					c0.114-0.022,0.227-0.049,0.348-0.027c0.119,0.011,0.236,0.005,0.363,0.065l0.038,0.019c0.032,0.016,0.046,0.054,0.03,0.086
					c-0.009,0.02-0.026,0.031-0.045,0.036l-0.682,0.145l-0.34,0.073c-0.112,0.031-0.232,0.017-0.359-0.043
					c-0.014-0.006-0.019-0.021-0.013-0.033C34.992,25.909,34.995,25.905,34.996,25.904z"/>
			</g>
			<g>
				<path fill="#091724" d="M35.639,29.995c0.047-0.078,0.1-0.112,0.152-0.147c0.053-0.039,0.104-0.08,0.165-0.069
					c0.116-0.006,0.238,0.022,0.346-0.04c0.108-0.055,0.227-0.051,0.344-0.049c0.116-0.008,0.244,0.055,0.365,0.079
					c0.012,0.002,0.019,0.013,0.017,0.023c-0.001,0.002-0.001,0.004-0.002,0.006l-0.007,0.012c-0.046,0.081-0.098,0.121-0.15,0.159
					c-0.052,0.044-0.103,0.09-0.161,0.091c-0.112,0.03-0.235,0-0.353,0.002c-0.12-0.019-0.227,0.047-0.339,0.078
					c-0.054,0.03-0.116,0.007-0.179-0.013c-0.062-0.016-0.122-0.032-0.19-0.091C35.634,30.026,35.631,30.008,35.639,29.995z"/>
			</g>
			<g>
				<path fill="#091724" d="M36,34.063c0.114-0.027,0.229-0.062,0.344-0.082h0.346l0.692,0.046l0.015,0.001
					c0.086,0.006,0.151,0.08,0.146,0.166c-0.006,0.082-0.074,0.146-0.156,0.146l-0.69-0.002c-0.229,0.052-0.46,0.088-0.691,0.009
					l-0.018-0.006c-0.076-0.026-0.116-0.108-0.09-0.184C35.914,34.107,35.954,34.073,36,34.063z"/>
			</g>
			<g>
				<path fill="#091724" d="M35.87,38.212c0.251-0.159,0.485-0.147,0.714-0.079c0.232,0.035,0.472-0.013,0.685,0.217
					c0.011,0.012,0.01,0.03-0.001,0.04c-0.001,0.001-0.002,0.002-0.003,0.003c-0.254,0.184-0.479,0.09-0.714,0.079
					c-0.237,0.022-0.47-0.012-0.685-0.217c-0.011-0.011-0.012-0.027-0.001-0.038C35.867,38.215,35.868,38.213,35.87,38.212z"/>
			</g>
			<g>
				<path fill="#091724" d="M35.487,41.706c0.112-0.013,0.221-0.008,0.322,0.028c0.101,0.037,0.198,0.09,0.308,0.09
					c0.214,0.023,0.437,0.012,0.615,0.183c0.062,0.061,0.064,0.159,0.004,0.222c-0.019,0.021-0.043,0.034-0.068,0.042
					c-0.236,0.07-0.429-0.041-0.63-0.118c-0.098-0.05-0.208-0.048-0.314-0.061c-0.106-0.014-0.206-0.059-0.301-0.122
					c-0.065-0.045-0.083-0.135-0.039-0.2C35.408,41.733,35.447,41.711,35.487,41.706z"/>
			</g>
		</g>
	</g>
	<g id="jacket-collar" clip-path="url(#SVGID_2_)">
		<path fill="#0B75BC" stroke="#091724" stroke-width="0.6236" stroke-linecap="round" stroke-linejoin="round" d="M19.364,5.77
			c-1.719-1.438-3.291,0.802-4.142,1.945c-1.188-2.188,0.998-9.007,0.998-9.007s2.235-0.341,2.079,0.156
			C17.942,0,19.364,5.77,19.364,5.77z"/>
		<path fill="#0B75BC" stroke="#091724" stroke-width="0.6236" stroke-linecap="round" stroke-linejoin="round" d="M34.476,5.214
			c0,0,2.638-0.039,4.388,2.211c0.906-2.75-1.227-8.719-1.227-8.719s-2.234-0.341-2.079,0.156C35.915,0,34.476,5.214,34.476,5.214z"
			/>
	</g>
</g>
</svg>
