<?xml version="1.0" encoding="utf-8"?>
<!-- Generator: Adobe Illustrator 15.1.0, SVG Export Plug-In . SVG Version: 6.00 Build 0)  -->
<!DOCTYPE svg PUBLIC "-//W3C//DTD SVG 1.1//EN" "http://www.w3.org/Graphics/SVG/1.1/DTD/svg11.dtd">
<svg version="1.1" xmlns="http://www.w3.org/2000/svg" xmlns:xlink="http://www.w3.org/1999/xlink" x="0px" y="0px"
	 width="113.386px" height="45.354px" viewBox="0 0 113.386 45.354" enable-background="new 0 0 113.386 45.354"
	 xml:space="preserve">
<g id="base">
	<path id="front-base_1_" fill="#FFFFFF" stroke="#F0F0ED" stroke-width="0.3125" d="M0.943,44.132
		C9.675-3.162,6.286,1.453,15.21,1.275H38.65c8.926,0.177,5.535-4.438,14.266,42.856H0.943z"/>
	<path id="back-base" fill="#8F2733" stroke="#F0F0ED" stroke-width="0.3125" d="M60.471,44.132
		C69.204-3.162,65.813,1.453,74.739,1.275h23.439c8.926,0.177,5.535-4.438,14.266,42.856H60.471z"/>
</g>
<g id="front-torso">
	<defs>
		<path id="SVGID_1_" d="M1.113,43.99c1.965-10.651,3.33-18.752,4.327-24.676C8.235,2.72,8.463,1.39,11.979,1.39
			c0.333,0,1.091,0,1.091,0h27.72c0,0,0.758,0,1.092,0c3.516,0,3.744,1.329,6.535,17.912c0.998,5.926,2.361,14.029,4.328,24.688
			H1.113z"/>
	</defs>
	<clipPath id="SVGID_2_">
		<use xlink:href="#SVGID_1_"  overflow="visible"/>
	</clipPath>
	<g id="t-shirt" clip-path="url(#SVGID_2_)">
		<g>
			<g>
				<path fill="#E3E2DB" d="M26.874,8.279c0.696-0.283,1.337-0.391,2.011-0.4c0.336,0.021,0.688,0.092,1.027,0.058
					c0.338-0.037,0.656-0.17,0.956-0.336c0.591-0.356,1.171-0.645,1.747-0.961c0.597-0.276,1.193-0.557,1.898-0.766
					c0.024-0.007,0.05,0.006,0.057,0.03c0.004,0.013,0.002,0.026-0.004,0.036c-0.368,0.642-0.912,1.127-1.522,1.499
					c-0.631,0.331-1.322,0.569-2.042,0.608c-0.357,0.029-0.703,0.059-1.036,0.161c-0.333,0.097-0.658,0.272-1.002,0.375
					c-0.688,0.145-1.417,0.085-2.09-0.218c-0.023-0.01-0.035-0.037-0.025-0.06C26.854,8.292,26.864,8.283,26.874,8.279z"/>
			</g>
			<g>
				<path fill="#E3E2DB" d="M18.666,5.249c0.372,0.281,0.75,0.54,1.121,0.802c0.38,0.251,0.779,0.47,1.192,0.647
					c0.396,0.211,0.814,0.385,1.251,0.496c0.438,0.099,0.886,0.165,1.352,0.181c-0.439,0.231-0.947,0.292-1.442,0.258
					c-0.499-0.033-0.969-0.207-1.423-0.388c-0.425-0.245-0.844-0.493-1.191-0.832C19.179,6.075,18.865,5.704,18.666,5.249z"/>
			</g>
			<g>
				<path fill="#E3E2DB" d="M28.838,39.104c1.019-0.495,1.903-0.829,2.883-1.128c0.493-0.118,1.038-0.173,1.509-0.397
					c0.473-0.218,0.887-0.545,1.245-0.931c0.711-0.775,1.429-1.483,2.14-2.215c0.75-0.691,1.507-1.377,2.391-2.031l0.096,0.061
					c-0.294,1.087-0.905,2.009-1.622,2.819c-0.763,0.767-1.637,1.443-2.646,1.874c-0.499,0.224-0.977,0.455-1.426,0.743
					c-0.446,0.288-0.852,0.686-1.335,0.954c-0.968,0.492-2.146,0.654-3.22,0.364L28.838,39.104z"/>
			</g>
			<g>
				<path fill="#E3E2DB" d="M22.429,38.602c-0.558-1.32-1.475-2.283-2.131-3.541c-0.306-0.636-0.557-1.334-0.95-1.93
					c-0.204-0.292-0.414-0.58-0.694-0.814c-0.279-0.235-0.588-0.446-0.877-0.674c-1.412-0.725-1.035-2.809-2.348-3.623
					c-0.271-0.252-0.557-0.5-0.808-0.777c-0.252-0.278-0.421-0.612-0.574-0.957c-0.289-0.678-0.493-1.519-0.18-2.287
					c0.016-0.039,0.061-0.058,0.1-0.042c0.019,0.008,0.034,0.025,0.042,0.042c0.598,1.304,1.458,2.27,1.889,3.702
					c0.465,1.412,1.8,2.201,2.519,3.444c0.405,0.59,0.806,1.183,1.319,1.693c0.479,0.535,1.065,0.997,1.544,1.555
					c0.465,0.565,0.832,1.216,1.101,1.924c0.24,0.703,0.444,1.521,0.19,2.279c-0.013,0.04-0.056,0.062-0.096,0.048
					C22.454,38.637,22.438,38.62,22.429,38.602z"/>
			</g>
		</g>
		<g id="Science_Dog_logo">
			<path fill="#8F2733" d="M21.089,20.452c0.641-0.142,1.286-0.259,1.934-0.356c0.018,0.044,0.033,0.09,0.052,0.132
				c-0.539,0.142-1.075,0.291-1.608,0.446C21.343,20.586,21.218,20.515,21.089,20.452z M22.696,22.31
				c0.377-0.353,0.759-0.702,1.142-1.05c-0.021-0.017-0.04-0.038-0.061-0.055c-0.392,0.29-0.781,0.582-1.161,0.887
				C22.649,22.164,22.67,22.237,22.696,22.31z M32.347,20.345c-0.019,0-0.038,0.006-0.057,0.006
				c0.146,0.021,0.295,0.028,0.441,0.051C32.608,20.373,32.484,20.345,32.347,20.345z M32.291,20.351
				c-0.635-0.088-1.271-0.171-1.909-0.219c-0.016,0.048-0.035,0.094-0.053,0.141c0.417,0.075,0.835,0.147,1.25,0.229
				C31.818,20.416,32.058,20.36,32.291,20.351z M38.591,23.01c-0.145-0.539-0.543-0.865-0.908-1.114
				c-0.378-0.249-0.776-0.433-1.179-0.591c-0.437-0.167-0.878-0.307-1.322-0.43c0.135-0.15,0.281-0.287,0.412-0.441
				c0.448-0.516,0.841-1.081,1.174-1.701c0.157-0.316,0.307-0.646,0.354-1.041c0.021-0.199,0.022-0.4-0.075-0.655l-0.06-0.117
				c-0.019-0.031,0.001-0.008-0.05-0.084l-0.056-0.065c-0.071-0.091-0.156-0.161-0.249-0.221c-0.375-0.233-0.766-0.249-1.124-0.254
				c-0.362,0.002-0.71,0.053-1.05,0.119c-0.68,0.137-1.339,0.324-1.973,0.572c-0.7,0.264-1.381,0.565-2.049,0.891
				c0.024,0.078,0.051,0.153,0.068,0.235c0.703-0.255,1.408-0.5,2.119-0.715c0.642-0.179,1.279-0.372,1.925-0.477
				c0.623-0.104,1.346-0.163,1.775,0.104c0.05,0.032,0.098,0.065,0.13,0.109l0.029,0.029c-0.023-0.043,0.012,0.02,0.014,0.024
				c0.02,0.035,0.046,0.077,0.059,0.107c0.015,0.063,0.045,0.204,0.026,0.34c-0.022,0.278-0.141,0.58-0.277,0.867
				c-0.281,0.58-0.672,1.119-1.055,1.662c-0.154,0.209-0.325,0.408-0.485,0.612c-0.125-0.03-0.25-0.058-0.374-0.088l-0.198,0.411
				c0.086,0.024,0.172,0.049,0.258,0.073c-0.218,0.269-0.449,0.529-0.672,0.795c-0.006,0.072-0.001,0.141-0.015,0.215
				c-0.012,0.061-0.034,0.121-0.051,0.182c0.375-0.352,0.74-0.716,1.095-1.091c0.512,0.147,1.019,0.305,1.502,0.508
				c0.379,0.157,0.746,0.338,1.068,0.56c0.319,0.219,0.598,0.501,0.661,0.797c0.164,0.599-0.64,1.156-1.331,1.49
				c-0.155-0.161-0.371-0.264-0.612-0.264c-0.465,0-0.84,0.373-0.851,0.836c-0.293,0.096-0.586,0.191-0.881,0.283
				c-0.332-0.331-0.671-0.653-1.023-0.961c-0.227-0.201-0.47-0.381-0.7-0.576c-0.104,0.084-0.208,0.161-0.318,0.23
				c0.239,0.223,0.488,0.437,0.723,0.663c0.26,0.26,0.518,0.521,0.773,0.782c-0.984,0.268-1.983,0.493-2.988,0.705
				c0.011,0.05,0.029,0.101,0.038,0.15c1.101-0.116,2.198-0.272,3.285-0.512c0.33,0.347,0.653,0.699,0.955,1.067
				c0.616,0.766,1.24,1.605,1.433,2.497c0.101,0.429-0.004,0.873-0.312,1.09c-0.313,0.223-0.817,0.236-1.286,0.181
				c-0.962-0.119-1.91-0.485-2.844-0.842c-0.97-0.396-1.921-0.842-2.862-1.315c-0.08,0.009-0.158,0.026-0.239,0.026
				c-0.085,0-0.167-0.012-0.25-0.021c1.025,0.625,2.082,1.204,3.18,1.71c0.93,0.428,1.898,0.793,2.951,0.953
				c0.519,0.059,1.11,0.104,1.66-0.247c0.556-0.38,0.68-1.101,0.558-1.645c-0.27-1.104-0.944-1.925-1.594-2.718
				c-0.256-0.297-0.525-0.579-0.795-0.861c0.225-0.055,0.446-0.125,0.669-0.19c0.149,0.247,0.409,0.421,0.719,0.421
				c0.471,0,0.854-0.383,0.854-0.854c0-0.044-0.019-0.081-0.024-0.123c0.392-0.186,0.78-0.396,1.13-0.706
				c0.172-0.158,0.337-0.346,0.449-0.585c0.056-0.12,0.094-0.247,0.112-0.404C38.626,23.315,38.624,23.125,38.591,23.01z
				 M29.948,21.852c-0.15-0.108-0.302-0.215-0.454-0.321c-0.03,0.025-0.062,0.042-0.093,0.064c0.155,0.13,0.309,0.261,0.462,0.392
				C29.888,21.941,29.92,21.897,29.948,21.852z M24.721,28.351c-0.205,0.05-0.4,0.092-0.597,0.135
				c-0.691,0.369-1.392,0.716-2.099,1.046c-0.145-0.124-0.327-0.206-0.532-0.206c-0.449,0-0.81,0.357-0.827,0.802
				c-0.764,0.301-1.538,0.579-2.32,0.67c-0.453,0.051-0.943,0.015-1.199-0.229c-0.277-0.257-0.333-0.691-0.229-1.121
				c0.202-0.878,0.773-1.711,1.354-2.48c0.223-0.292,0.465-0.57,0.707-0.85c0.097,0.022,0.191,0.054,0.289,0.074
				c0.677,0.145,1.359,0.249,2.042,0.342c0.015-0.096,0.04-0.192,0.065-0.29c-0.672-0.145-1.343-0.295-2.002-0.476
				c-0.025-0.008-0.05-0.016-0.075-0.022c0.299-0.334,0.604-0.663,0.909-0.992c0.125-0.131,0.26-0.254,0.387-0.384
				c-0.119-0.065-0.232-0.146-0.347-0.231c-0.113,0.105-0.235,0.201-0.348,0.309c-0.388,0.364-0.758,0.747-1.118,1.141
				c-0.57-0.172-1.135-0.354-1.662-0.604c-0.676-0.31-1.45-0.838-1.303-1.415c0.146-0.598,0.912-1.072,1.583-1.42
				c0.414-0.212,0.848-0.389,1.288-0.557c0.075,0.066,0.156,0.125,0.232,0.19c-0.012-0.267,0.023-0.511,0.101-0.723
				c0,0-0.32,0.024-0.375,0.042c-0.294-0.319-0.582-0.643-0.85-0.98c-0.412-0.546-0.824-1.105-1.041-1.718
				c-0.231-0.577-0.17-1.324,0.338-1.47c0.538-0.204,1.264-0.115,1.922-0.002c0.23,0.041,0.459,0.1,0.688,0.155
				c0.006,0.456,0.375,0.823,0.832,0.823c0.302,0,0.554-0.169,0.701-0.409c0.516,0.157,1.03,0.324,1.543,0.499
				c0.017-0.1,0.04-0.193,0.065-0.287c-0.487-0.217-0.981-0.419-1.48-0.609c0-0.01,0.005-0.018,0.005-0.027
				c0-0.46-0.373-0.833-0.833-0.833c-0.285,0-0.524,0.152-0.674,0.37c-0.248-0.066-0.495-0.132-0.747-0.187
				c-0.703-0.124-1.428-0.281-2.231-0.019c-0.197,0.076-0.396,0.214-0.537,0.407l-0.048,0.076l-0.033,0.059l-0.013,0.03L16.2,17.099
				c-0.036,0.072-0.063,0.211-0.089,0.314c-0.066,0.42,0.026,0.815,0.159,1.167c0.281,0.701,0.709,1.293,1.191,1.82
				c0.26,0.287,0.532,0.559,0.812,0.823c-0.372,0.138-0.74,0.292-1.104,0.463c-0.375,0.182-0.744,0.387-1.09,0.651
				c-0.334,0.265-0.692,0.595-0.818,1.114c-0.055,0.249-0.019,0.535,0.096,0.769c0.109,0.232,0.273,0.409,0.441,0.561
				c0.342,0.3,0.723,0.498,1.105,0.671c0.504,0.22,1.02,0.385,1.539,0.527c-0.193,0.223-0.391,0.44-0.577,0.671
				c-0.611,0.793-1.23,1.618-1.501,2.678c-0.124,0.516-0.064,1.208,0.414,1.638c0.512,0.43,1.121,0.395,1.627,0.343
				c0.848-0.123,1.63-0.399,2.382-0.732c0.145,0.243,0.4,0.415,0.705,0.415c0.46,0,0.833-0.373,0.833-0.833
				c0-0.115-0.023-0.225-0.065-0.324c0.871-0.466,1.725-0.96,2.545-1.504C24.777,28.337,24.749,28.344,24.721,28.351z"/>
			<path fill-rule="evenodd" clip-rule="evenodd" fill="#091724" d="M23.169,14l1.527,2.078c0,0-0.686,0.018-0.901,0.088
				c-0.173,0.057-0.626,0.374-0.626,0.374V14z M28.917,16.283c0,0,0.638,0.066,0.831,0.153c0.168,0.075,0.581,0.451,0.581,0.451
				l0.257-2.566L28.917,16.283z M19.012,20.723l0.95-0.63L18.55,19.08L19.012,20.723z M33.189,20.35l0.719,0.693l0.667-1.386
				L33.189,20.35z M24.439,22.339c-0.885,0.676-3.438,3.559-2.771,5.197c0.713,1.75,3.151,0.159,4.965,0.23
				c0.872,0.034,1.715,0.813,2.771,0.577c2.315-0.518,0.801-3.26-0.116-4.503c-0.921-1.25-1.806-2.471-3.579-2.079
				C25.217,21.871,24.784,22.076,24.439,22.339z M22.028,21.62c0.694,0.968,0.748,2.116,0.121,2.565
				c-0.628,0.45-1.699,0.031-2.393-0.936s-0.747-2.116-0.12-2.566S21.334,20.653,22.028,21.62z M32.712,23.519
				c-0.843,0.846-1.993,1.065-2.569,0.49c-0.576-0.574-0.359-1.725,0.483-2.57s1.993-1.065,2.569-0.49
				C33.772,21.523,33.555,22.674,32.712,23.519z M26.08,18.706c0.224,1.316-0.271,2.498-1.104,2.64s-1.691-0.81-1.915-2.125
				c-0.224-1.316,0.27-2.498,1.104-2.64C24.998,16.438,25.855,17.39,26.08,18.706z M29.146,16.868
				c0.833,0.142,1.327,1.324,1.104,2.64c-0.224,1.315-1.081,2.268-1.915,2.125c-0.834-0.142-1.328-1.324-1.104-2.64
				C27.455,17.678,28.312,16.726,29.146,16.868z"/>
		</g>
		<rect x="19.642" y="0.557" fill="#F4D7B3" width="14.574" height="3.171"/>
		<path fill="#8F2733" stroke="#091724" stroke-width="0.4535" d="M26.929,5.409c-4.816,0-8.651-1.943-9.131-4.568h1.767
			c0.65,1.357,3.477,2.696,7.365,2.696c3.889,0,6.716-1.338,7.365-2.696h1.765C35.58,3.466,31.745,5.409,26.929,5.409z"/>
	</g>
	<g id="hoodie" clip-path="url(#SVGID_2_)">
		<g>
			<path fill="#8F2733" d="M16.281,0c0,0,0.295,4.989,1.312,9.724c0.525,2.445,0.098,5.022,0.044,6.42
				c-0.109,2.854-1.03,8.36-1.321,11.188c-0.303,2.938-0.72,7.433-1.592,10.254c-1.192,3.854-3.848,7.769-3.848,7.769H0V0H16.281z"
				/>
			<path fill="#091724" d="M16.635-0.021c0.13,1.922,0.341,3.852,0.614,5.764c0.139,0.957,0.294,1.91,0.478,2.857
				c0.184,0.925,0.417,1.923,0.455,2.922c0.109,2.01-0.191,3.91-0.27,5.867c-0.171,1.951-0.447,3.876-0.702,5.803
				c-0.254,1.933-0.493,3.835-0.698,5.772c-0.083,0.97-0.273,1.93-0.504,2.881c-0.232,0.951-0.33,1.919-0.487,2.881
				c-0.159,0.962-0.346,1.921-0.615,2.866c-0.276,0.94-0.629,1.857-1.02,2.753c-0.807,1.783-1.681,3.525-2.715,5.207l-0.001,0.002
				l-0.105,0.155h-0.188H0h-0.354v-0.354V0v-0.354H0h16.612L16.635-0.021z M15.954,0.354H0L0.354,0v45.354L0,45h10.876l-0.293,0.155
				l0.001-0.001c2.004-3.263,3.788-6.762,4.248-10.552c0.3-1.894,0.449-3.819,0.671-5.743c0.212-1.922,0.485-3.888,0.771-5.796
				c0.153-0.959,0.21-1.93,0.273-2.896c0.07-0.965,0.213-1.918,0.312-2.868c0.09-0.916,0.141-1.949,0.251-2.896
				c0.092-0.955,0.145-1.895,0.112-2.827c-0.019-0.469-0.062-0.921-0.13-1.371L16.83,8.772c-0.17-0.967-0.312-1.936-0.437-2.906
				C16.163,4.034,16.037,2.199,15.954,0.354z"/>
		</g>
		<g>
			<path fill="#8F2733" d="M37.321,0c0,0-0.488,4.749-1.68,9.757c-0.55,2.313-0.588,5.789-0.666,7.167
				c-0.243,4.28,3.274,9.325,3.037,16.971c-0.233,7.519,3.555,11.46,3.555,11.46h12.291V0H37.321z"/>
			<path fill="#091724" d="M37.631,0.354c-0.187,1.844-0.428,3.672-0.729,5.498c-0.16,0.965-0.336,1.928-0.533,2.887
				c-0.205,0.979-0.421,1.876-0.511,2.826c-0.213,1.895-0.23,3.838-0.284,5.775c0.038,1.775,0.662,3.633,1.242,5.473
				c1.303,3.691,1.651,7.751,1.833,11.671c-0.002,1.869,0.178,3.773,0.711,5.582c0.259,0.906,0.597,1.791,1.013,2.637
				c0.398,0.847,0.874,1.694,1.445,2.401l0.005,0.005L41.567,45h12.291l-0.354,0.354V0l0.354,0.354H37.631z M37.006-0.354h16.852
				h0.354V0v45.354v0.354h-0.354H41.567h-0.152L41.311,45.6l-0.009-0.01c-2.609-3.128-3.651-7.173-3.657-11.12
				c0.037-1.945-0.034-3.838-0.256-5.768c-0.11-0.96-0.3-1.916-0.627-2.831c-0.365-0.904-0.686-1.816-0.954-2.752
				c-0.552-1.862-1.194-3.741-1.215-5.809c0.078-1.948,0.117-3.899,0.362-5.861c0.105-0.984,0.354-1.97,0.56-2.897
				c0.208-0.945,0.388-1.896,0.566-2.848c0.356-1.902,0.66-3.823,0.887-5.74L37.006-0.354z"/>
		</g>
		<g id="hood_inside_1_">
			
				<path fill="#8F2733" stroke="#091724" stroke-width="0.5669" stroke-linecap="round" stroke-linejoin="round" stroke-miterlimit="10" d="
				M35.166,14.832c4.334-4.917,8-6.883,7.399-15.074c-0.12-1.641-5.462-1.929-5.449-0.283C37.141,2.865,35,10.499,35.166,14.832z"/>
			<g id="hood_inside_2_">
				
					<path fill="#8F2733" stroke="#091724" stroke-width="0.5669" stroke-linecap="round" stroke-linejoin="round" stroke-miterlimit="10" d="
					M17.637,16.145c-3.305-7.438-7.075-6.938-6.543-16.419c0.092-1.643,5.983-1.489,5.59,0c-0.506,1.917,0.398,6.94,1.079,10.58
					C18.438,13.912,17.637,16.145,17.637,16.145z"/>
			</g>
		</g>
		<g id="hood_wrinkles">
			<g>
				<path fill="#091724" d="M17.249,10.999c-0.345-0.996-0.93-1.824-1.639-2.538c-0.708-0.715-1.528-1.391-2.167-2.284
					c-0.638-0.89-1.015-1.968-1.105-3.035C12.231,2.073,12.365,1.014,12.616,0c0.042,2.075,0.217,4.174,1.404,5.768
					c0.56,0.811,1.334,1.494,2.002,2.329C16.708,8.915,17.181,9.952,17.249,10.999z"/>
				<path fill="#091724" d="M36.033,11.433c0.039-1.13,0.746-2.14,1.425-2.976c0.686-0.858,1.367-1.679,1.884-2.603
					c1.074-1.83,1.508-3.959,1.808-6.137c0.264,2.175-0.053,4.513-1.194,6.49c-0.566,0.983-1.318,1.835-2.082,2.612
					C37.126,9.605,36.353,10.361,36.033,11.433z"/>
			</g>
		</g>
		<g id="laces">
			<ellipse fill="none" stroke="#091724" stroke-width="0.4252" cx="15.791" cy="10.644" rx="0.729" ry="0.688"/>
			
				<ellipse transform="matrix(-0.3853 -0.9228 0.9228 -0.3853 41.7267 49.7759)" fill="none" stroke="#091724" stroke-width="0.4252" cx="37.441" cy="10.991" rx="0.729" ry="0.688"/>
			
				<path fill="none" stroke="#091724" stroke-width="0.8504" stroke-linecap="round" stroke-linejoin="round" stroke-miterlimit="10" d="
				M14.145,18.979c1.5-1.688-0.313-5.375,1.625-8.25"/>
			
				<path fill="none" stroke="#091724" stroke-width="0.8504" stroke-linecap="round" stroke-linejoin="round" stroke-miterlimit="10" d="
				M38.799,18.837c-0.342-2.263,0.596-4.575-1.342-7.825"/>
		</g>
		<path id="wrinkles" fill="#68151F" d="M43.794,18.063c0.125-0.568,0.276-1.126,0.508-1.641c0.137-0.317,0.297-0.62,0.473-0.909
			c0.104-0.236,0.234-0.455,0.41-0.608l0.07,0.049c-0.075,0.871-0.027,1.617-0.121,2.436c-0.058,0.401-0.176,0.822-0.175,1.242
			c-0.005,0.419,0.086,0.829,0.208,1.224c0.266,0.784,0.463,1.555,0.688,2.304c0.197,0.772,0.365,1.508,0.643,2.317l-0.056,0.072
			c-0.68-0.393-1.11-1.216-1.387-2.016c-0.242-0.833-0.366-1.709-0.319-2.588c0.013-0.438,0.021-0.866-0.035-1.288
			c-0.044-0.376-0.153-0.755-0.207-1.144c-0.056,0.239-0.108,0.48-0.152,0.724c-0.122,0.541-0.202,1.091-0.272,1.644
			c-0.063,0.554-0.108,1.113-0.105,1.688c-0.119-0.265-0.176-0.558-0.246-0.85c-0.04-0.294-0.063-0.591-0.079-0.891
			C43.611,19.229,43.689,18.637,43.794,18.063z M7.44,20.168c-0.236,0.851-0.529,1.834-0.432,2.863
			c0.077,1.03,0.534,1.917,1.104,2.525c-0.353-0.837-0.603-1.7-0.574-2.554c0.019-0.856,0.282-1.663,0.544-2.553
			c0.275-0.94,0.325-1.951,0.233-2.912c-0.094-0.968-0.346-1.874-0.678-2.723c0.02,0.304,0.043,0.601,0.066,0.899
			c-0.143,0.934-0.27,1.777-0.53,2.566c-0.276,0.874-0.671,1.664-1.211,2.485c0.427-0.113,0.804-0.422,1.116-0.802
			c0.267-0.32,0.468-0.715,0.629-1.135C7.655,19.29,7.573,19.74,7.44,20.168z M2.707,44.916C3.396,44.812,4,44.409,4.49,43.838
			c0.234-0.307,0.409-0.693,0.637-0.993c0.224-0.302,0.492-0.543,0.767-0.791c0.567-0.478,1.033-1.144,1.373-1.903
			c0.306-0.776,0.457-1.688,0.271-2.498l-0.08-0.004c-0.333,0.763-0.615,1.395-0.936,2.035c-0.289,0.658-0.621,1.294-0.94,2.007
			c-0.165,0.35-0.364,0.677-0.622,0.917c-0.254,0.249-0.578,0.383-0.855,0.577c-0.535,0.424-1,0.944-1.432,1.643L2.707,44.916z
			 M46.98,38.176c0,0.565,0.086,1.107,0.204,1.637c0.12,0.527,0.259,1.051,0.501,1.532c0.229,0.487,0.473,0.964,0.623,1.481
			c0.164,0.511,0.263,1.054,0.416,1.578c0.161,0.523,0.361,1.022,0.612,1.533c0.063,0.11,0.131,0.234,0.231,0.372
			c0.018,0.029,0.065,0.082,0.099,0.119c0.036,0.034,0.096,0.076,0.146,0.101c0.039,0.022,0.186,0.041,0.271-0.006
			c0.1-0.043,0.12-0.086,0.169-0.151c0.088-0.174,0.055-0.162,0.071-0.223c0.007-0.055,0.006-0.079,0.005-0.104
			c0-0.056-0.005-0.101-0.012-0.138c-0.043-0.314-0.105-0.563-0.162-0.833l-0.37-1.553c-0.058-0.258-0.106-0.517-0.132-0.775
			c-0.034-0.258-0.045-0.52,0.039-0.762l-0.053-0.042c-0.341,0.478-0.294,1.104-0.293,1.646c0.017,0.559,0.097,1.104,0.176,1.64
			c0.041,0.261,0.092,0.54,0.109,0.765l0.003,0.062c0.002,0.011,0.002,0.02,0.002-0.002c0.011-0.026-0.02,0.02,0.049-0.125
			c0.039-0.055,0.057-0.072,0.14-0.121c0.071-0.046,0.201-0.022,0.226-0.005c0.026,0.007,0.059,0.03,0.069,0.044l-0.022-0.028
			c-0.053-0.074-0.115-0.179-0.183-0.297c-0.261-0.409-0.481-0.89-0.721-1.353c-0.24-0.464-0.511-0.924-0.697-1.424
			c-0.2-0.493-0.291-1.033-0.383-1.568c-0.193-1.067-0.587-2.052-1.072-3.018L46.98,38.176z"/>
	</g>
</g>
<g id="back-torso">
	<defs>
		<path id="SVGID_3_" d="M60.641,43.99c1.965-10.651,3.329-18.752,4.327-24.676C67.763,2.72,67.992,1.39,71.507,1.39
			c0.333,0,1.091,0,1.091,0h27.72c0,0,0.758,0,1.092,0c3.516,0,3.744,1.329,6.535,17.912c0.998,5.926,2.361,14.029,4.328,24.688
			H60.641z"/>
	</defs>
	<clipPath id="SVGID_4_">
		<use xlink:href="#SVGID_3_"  overflow="visible"/>
	</clipPath>
	<g id="hood_2_" clip-path="url(#SVGID_4_)">
		<path fill="#68151F" d="M98.448,7.809c-1.252,2.562-2.844,5.251-4.77,6.823c-2.025,1.653-5.48,2.466-7.953,2.274
			c-4.998-0.388-9.035-6.337-10.273-8.43c-1.318-2.229-2.686-4.746-3.063-6.535c-0.095,0.067-0.161,0.137-0.161,0.21
			c0,1.764,1.625,4.784,3.172,7.4c1.238,2.093,5.275,8.042,10.273,8.431c2.473,0.191,5.93-0.622,7.955-2.276
			c1.926-1.571,3.518-4.261,4.768-6.823c1.334-2.731,2.242-4.969,2.242-6.732c0-0.028-0.027-0.055-0.042-0.083
			C100.342,3.659,99.544,5.564,98.448,7.809z"/>
		<g id="hood_3_">
			<path fill="#091724" d="M100.886,1.083c-0.027,1.655-0.631,3.201-1.242,4.674c-0.638,1.475-1.327,2.919-2.111,4.325
				c-0.789,1.399-1.673,2.766-2.803,3.95c-1.12,1.235-2.628,2.011-4.173,2.507c-1.552,0.488-3.182,0.732-4.821,0.625
				c-1.663-0.131-3.201-0.854-4.521-1.789c-2.631-1.917-4.658-4.509-6.274-7.278c-0.809-1.383-1.596-2.783-2.227-4.277
				c-0.311-0.748-0.588-1.521-0.694-2.366c-0.01-0.212-0.047-0.427,0.018-0.683c0.067-0.269,0.198-0.468,0.352-0.646
				c0.315-0.341,0.689-0.563,1.064-0.746c1.521-0.695,3.12-0.961,4.705-1.217c1.584-0.249,3.201-0.367,4.768-0.539
				c3.137-0.371,6.338-1.071,9.589-0.696c1.609,0.172,3.2,0.496,4.729,1.046c0.761,0.281,1.512,0.609,2.2,1.067
				c0.651,0.453,1.405,1.068,1.442,2.038V1.083z M100.49,1.077c-0.023-0.694-0.659-1.265-1.287-1.67
				c-0.649-0.416-1.378-0.723-2.12-0.971c-1.492-0.492-3.06-0.764-4.623-0.931c-3.139-0.34-6.279,0.37-9.463,0.722
				c-1.607,0.17-3.178,0.277-4.751,0.518c-1.557,0.241-3.149,0.513-4.544,1.147C73.361,0.052,73.04,0.252,72.81,0.5
				c-0.233,0.26-0.28,0.486-0.236,0.896c0.087,0.744,0.341,1.494,0.637,2.219c0.599,1.455,1.367,2.853,2.157,4.231
				c0.783,1.381,1.681,2.688,2.691,3.906c1.01,1.214,2.137,2.341,3.426,3.238c1.282,0.893,2.748,1.557,4.289,1.665
				c1.55,0.089,3.133-0.15,4.618-0.63c1.483-0.477,2.892-1.244,3.943-2.376c1.091-1.117,1.975-2.443,2.767-3.812
				c0.787-1.373,1.489-2.808,2.134-4.256c0.62-1.45,1.216-2.95,1.254-4.509V1.077z"/>
		</g>
	</g>
	<path clip-path="url(#SVGID_4_)" fill="none" d="M60.981,43.831c1.934-10.488,3.279-18.484,4.268-24.346
		C68.12,2.434,68.354,1.772,71.506,1.772c0.332,0,0.689,0.012,1.082,0.024c0.482,0.016,1.012,0.033,1.6,0.033
		c0.182,0,0.367-0.002,0.559-0.005h23.432c0.182,0.003,0.369,0.005,0.549,0.005c0.588,0,1.119-0.018,1.6-0.033
		c0.393-0.013,0.752-0.024,1.082-0.024c3.154,0,3.389,0.662,6.256,17.701c0.988,5.864,2.334,13.862,4.268,24.358H60.981z"/>
	<g clip-path="url(#SVGID_4_)">
		<path fill="#68151F" d="M86.167,14.945l0.004-0.046c-0.48-0.167-0.938-0.332-1.387-0.52c-0.445-0.186-0.9-0.35-1.328-0.585
			c-0.848-0.479-1.588-1.161-2.15-1.986l-0.037,0.022c0.453,0.897,1.143,1.691,1.998,2.266c0.424,0.29,0.871,0.561,1.371,0.704
			C85.132,14.938,85.652,15.016,86.167,14.945z"/>
		<path fill="#68151F" d="M68.913,35.694c-0.327,0.322-0.571,0.716-0.828,1.095c-0.519,0.753-1.007,1.543-1.32,2.405l0.051,0.023
			c0.458-0.781,1.039-1.471,1.627-2.149c0.3-0.335,0.635-0.639,0.899-1.003c0.256-0.373,0.524-0.734,0.719-1.173l-0.041-0.039
			C69.587,35.07,69.251,35.384,68.913,35.694z"/>
		<path fill="#68151F" d="M71.885,26.185c-0.576-0.966-1.051-1.992-1.449-3.052c-0.813-2.118-1.379-4.333-1.953-6.593
			c-0.065,1.171,0.043,2.342,0.238,3.497c0.029,0.172,0.078,0.341,0.112,0.512c-0.011,0.404-0.022,0.808-0.025,1.207l-0.004,1.733
			c0.005,0.576-0.012,1.148-0.029,1.722c-0.024,0.574-0.076,1.143-0.18,1.727c0.326-0.503,0.497-1.092,0.613-1.674
			c0.121-0.586,0.154-1.182,0.163-1.772c-0.004-0.35-0.022-0.699-0.051-1.047c0.104,0.332,0.198,0.667,0.321,0.994
			c0.432,1.099,0.969,2.171,1.697,3.119c0.718,0.945,1.638,1.781,2.726,2.232C73.167,28.037,72.469,27.146,71.885,26.185z"/>
		<path fill="#68151F" d="M74.328,16.73l-0.909-1.513c-0.291-0.506-0.576-1.008-0.711-1.594c-0.104,0.61,0.102,1.229,0.319,1.786
			c0.222,0.566,0.519,1.089,0.811,1.606l0.91,1.513c0.29,0.506,0.576,1.008,0.71,1.595c0.103-0.61-0.102-1.229-0.32-1.786
			C74.916,17.77,74.619,17.248,74.328,16.73z"/>
		<path fill="#68151F" d="M105.615,37.519c-0.281-0.369-0.599-0.704-0.926-1.026s-0.648-0.657-1.037-0.901
			c-0.397-0.231-0.795-0.462-1.263-0.575l-0.031,0.047c0.286,0.383,0.627,0.674,0.954,0.982c0.335,0.297,0.723,0.522,1.08,0.79
			c0.354,0.27,0.698,0.554,1.009,0.868c0.304,0.31,0.628,0.649,0.694,1.087h0.057C106.16,38.308,105.875,37.892,105.615,37.519z"/>
		<path fill="#68151F" d="M91.501,11.568l-0.008,0.002c-0.605,0.209-1.24,0.363-1.869,0.474c-0.633,0.106-1.27,0.19-1.914,0.203
			c-1.285,0.083-2.574-0.063-3.891-0.22c1.217,0.547,2.564,0.766,3.908,0.767c0.672-0.032,1.348-0.095,2.002-0.261
			c0.652-0.17,1.291-0.394,1.867-0.77c0.041-0.027,0.059-0.079,0.043-0.128C91.621,11.578,91.56,11.549,91.501,11.568z"/>
		<path fill="#68151F" d="M101.379,18.482c0.065-0.54,0.195-1.077,0.263-1.621c0.09-1.087,0.028-2.187-0.254-3.262l-0.064,0.004
			c-0.179,1.09-0.248,2.16-0.235,3.238c0.027,0.539,0.093,1.084,0.075,1.625s-0.113,1.076-0.24,1.602
			c-0.264,1.052-0.5,2.093-0.787,3.115c-0.259,1.032-0.556,2.036-0.971,3.049l0.055,0.039c0.783-0.799,1.27-1.846,1.6-2.896
			c0.297-1.067,0.45-2.164,0.465-3.26C101.298,19.565,101.311,19.021,101.379,18.482z"/>
	</g>
	<g clip-path="url(#SVGID_4_)">
		<path fill="#091724" d="M76.501-0.123c1.509,0.811,3.15,1.396,4.812,1.834c0.838,0.202,1.675,0.426,2.524,0.443
			c0.861,0.04,1.73,0.002,2.596-0.027c1.72-0.104,3.491-0.157,5.141-0.493c1.67-0.422,3.292-1.006,4.848-1.762l0.135,0.255
			c-1.518,0.87-3.166,1.541-4.875,1.936c-1.763,0.339-3.489,0.364-5.236,0.424c-0.872,0.026-1.742,0.022-2.619,0.009
			c-0.894,0.001-1.759-0.21-2.608-0.404c-1.702-0.426-3.354-1.058-4.866-1.969L76.501-0.123z"/>
	</g>
</g>
</svg>
