<?xml version="1.0" encoding="UTF-8" standalone="no"?>
<!-- Created with Inkscape (http://www.inkscape.org/) -->

<svg
   xmlns:dc="http://purl.org/dc/elements/1.1/"
   xmlns:cc="http://creativecommons.org/ns#"
   xmlns:rdf="http://www.w3.org/1999/02/22-rdf-syntax-ns#"
   xmlns:svg="http://www.w3.org/2000/svg"
   xmlns="http://www.w3.org/2000/svg"
   xmlns:xlink="http://www.w3.org/1999/xlink"
   xmlns:sodipodi="http://sodipodi.sourceforge.net/DTD/sodipodi-0.dtd"
   xmlns:inkscape="http://www.inkscape.org/namespaces/inkscape"
   width="52.38813"
   height="43.401779"
   id="svg2"
   version="1.1"
   inkscape:version="0.48.2 r9819"
   sodipodi:docname="female.[Wonder Woman]">
  <defs
     id="defs4">
    <linearGradient
       inkscape:collect="always"
       id="linearGradient4011">
      <stop
         style="stop-color:#ffffff;stop-opacity:1;"
         offset="0"
         id="stop4013" />
      <stop
         style="stop-color:#ffffff;stop-opacity:0;"
         offset="1"
         id="stop4015" />
    </linearGradient>
    <linearGradient
       inkscape:collect="always"
       id="linearGradient3997">
      <stop
         style="stop-color:#ffffff;stop-opacity:1;"
         offset="0"
         id="stop3999" />
      <stop
         style="stop-color:#ffffff;stop-opacity:0;"
         offset="1"
         id="stop4001" />
    </linearGradient>
    <inkscape:path-effect
       effect="skeletal"
       id="path-effect4237"
       is_visible="true"
       pattern="M 0,5 C 0,2.24 2.24,0 5,0 7.76,0 10,2.24 10,5 10,7.76 7.76,10 5,10 2.24,10 0,7.76 0,5 z"
       copytype="single_stretched"
       prop_scale="1"
       scale_y_rel="false"
       spacing="0"
       normal_offset="0"
       tang_offset="0"
       prop_units="false"
       vertical_pattern="false"
       fuse_tolerance="0" />
    <clipPath
       id="clipPath2999"
       clipPathUnits="userSpaceOnUse">
      <path
         id="path3001"
         d="M 0,792 612,792 612,0 0,0 0,792 z"
         inkscape:connector-curvature="0" />
    </clipPath>
    <radialGradient
       gradientUnits="userSpaceOnUse"
       gradientTransform="matrix(0.75988491,-0.03632001,0.13155835,2.7524547,16.986326,-78.268899)"
       r="12.650181"
       fy="46.658409"
       fx="96.306435"
       cy="46.658409"
       cx="96.306435"
       id="radialGradient3972"
       xlink:href="#linearGradient3966"
       inkscape:collect="always" />
    <clipPath
       clipPathUnits="userSpaceOnUse"
       id="clipPath2999-4">
      <path
         inkscape:connector-curvature="0"
         d="M 0,792 612,792 612,0 0,0 0,792 z"
         id="path3001-0" />
    </clipPath>
    <linearGradient
       id="linearGradient3966">
      <stop
         id="stop3968"
         offset="0"
         style="stop-color:#c0ac02;stop-opacity:1;" />
      <stop
         id="stop3970"
         offset="1"
         style="stop-color:#fdea41;stop-opacity:0;" />
    </linearGradient>
    <radialGradient
       inkscape:collect="always"
       xlink:href="#linearGradient3997"
       id="radialGradient4003"
       cx="165.81134"
       cy="47.693741"
       fx="165.81134"
       fy="47.693741"
       r="3.8123069"
       gradientTransform="matrix(0.64374811,-0.18781617,0.31213841,1.069868,43.640483,27.15595)"
       gradientUnits="userSpaceOnUse" />
    <radialGradient
       inkscape:collect="always"
       xlink:href="#linearGradient3997"
       id="radialGradient4007"
       gradientUnits="userSpaceOnUse"
       gradientTransform="matrix(-0.64374811,-0.18781617,-0.31213841,1.069868,293.73143,27.15595)"
       cx="165.81134"
       cy="47.693741"
       fx="165.81134"
       fy="47.693741"
       r="3.8123069" />
    <radialGradient
       inkscape:collect="always"
       xlink:href="#linearGradient4011"
       id="radialGradient4017"
       cx="169.32254"
       cy="41.784931"
       fx="169.32254"
       fy="41.784931"
       r="6.982676"
       gradientTransform="matrix(0.31036379,-0.01814613,0.03701409,0.63307367,114.75293,21.468668)"
       gradientUnits="userSpaceOnUse" />
    <linearGradient
       id="linearGradient3966-2">
      <stop
         style="stop-color:#c0ac02;stop-opacity:1;"
         offset="0"
         id="stop3968-4" />
      <stop
         style="stop-color:#fdea41;stop-opacity:0;"
         offset="1"
         id="stop3970-5" />
    </linearGradient>
    <clipPath
       id="clipPath2999-4-8"
       clipPathUnits="userSpaceOnUse">
      <path
         id="path3001-0-8"
         d="M 0,792 612,792 612,0 0,0 0,792 z"
         inkscape:connector-curvature="0" />
    </clipPath>
    <radialGradient
       inkscape:collect="always"
       xlink:href="#linearGradient3966-2"
       id="radialGradient3972-4"
       cx="96.306435"
       cy="46.658409"
       fx="96.306435"
       fy="46.658409"
       r="12.650181"
       gradientTransform="matrix(0.75988491,-0.03632001,0.13155835,2.7524547,16.986326,-78.268899)"
       gradientUnits="userSpaceOnUse" />
    <clipPath
       clipPathUnits="userSpaceOnUse"
       id="clipPath2999-0">
      <path
         inkscape:connector-curvature="0"
         d="M 0,792 612,792 612,0 0,0 0,792 z"
         id="path3001-9" />
    </clipPath>
    <inkscape:path-effect
       fuse_tolerance="0"
       vertical_pattern="false"
       prop_units="false"
       tang_offset="0"
       normal_offset="0"
       spacing="0"
       scale_y_rel="false"
       prop_scale="1"
       copytype="single_stretched"
       pattern="M 0,5 C 0,2.24 2.24,0 5,0 7.76,0 10,2.24 10,5 10,7.76 7.76,10 5,10 2.24,10 0,7.76 0,5 z"
       is_visible="true"
       id="path-effect4237-4"
       effect="skeletal" />
  </defs>
  <sodipodi:namedview
     id="base"
     pagecolor="#ffffff"
     bordercolor="#666666"
     borderopacity="1.0"
     inkscape:pageopacity="0.0"
     inkscape:pageshadow="2"
     inkscape:zoom="3.14"
     inkscape:cx="17.762777"
     inkscape:cy="-19.937401"
     inkscape:document-units="px"
     inkscape:current-layer="layer36"
     showgrid="false"
     fit-margin-top="0"
     fit-margin-left="0"
     fit-margin-right="0"
     fit-margin-bottom="0"
     inkscape:window-width="1280"
     inkscape:window-height="968"
     inkscape:window-x="-4"
     inkscape:window-y="-4"
     inkscape:window-maximized="1"
     showguides="true"
     inkscape:guide-bbox="true"
     inkscape:snap-global="false">
    <sodipodi:guide
       orientation="0,1"
       position="11.28133,21.705909"
       id="guide3274" />
    <sodipodi:guide
       orientation="1,0"
       position="26.13159,26.822611"
       id="guide3960" />
  </sodipodi:namedview>
  <metadata
     id="metadata7">
    <rdf:RDF>
      <cc:Work
         rdf:about="">
        <dc:format>image/svg+xml</dc:format>
        <dc:type
           rdf:resource="http://purl.org/dc/dcmitype/StillImage" />
        <dc:title></dc:title>
      </cc:Work>
    </rdf:RDF>
  </metadata>
  <g
     inkscape:groupmode="layer"
     id="layer36"
     inkscape:label="torso"
     transform="translate(-142.76812,-31.473222)"
     style="display:inline">
    <path
       style="display:inline;font-size:medium;font-style:normal;font-variant:normal;font-weight:normal;font-stretch:normal;text-indent:0;text-align:start;text-decoration:none;line-height:normal;letter-spacing:normal;word-spacing:normal;text-transform:none;direction:ltr;block-progression:tb;writing-mode:lr-tb;text-anchor:start;baseline-shift:baseline;color:#000000;fill:#bf8613;fill-opacity:1;stroke:none;stroke-width:0.70866143999999998;marker:none;visibility:visible;overflow:visible;enable-background:accumulate;font-family:Sans;-inkscape-font-specification:Sans"
       d="m 156.18925,34.32594 c -0.87152,0.01196 -1.80213,0.03684 -2.78125,0.0625 -0.37633,0 -0.37633,0.71875 0,0.71875 3.91318,-0.102557 7.09817,-0.153564 8.71875,0.21875 1.33931,0.307695 3.22274,1.153054 4.4375,1.78125 1.74378,0.938901 1.99688,0.454954 0.28125,-0.46875 -1.19172,-0.616282 -2.97963,-1.636349 -4.5625,-2 -0.91002,-0.209069 -2.1492,-0.290478 -3.65625,-0.3125 -0.75352,-0.01101 -1.56597,-0.01196 -2.4375,0 z m 23.09375,0 c -1.50705,0.02202 -2.74622,0.103431 -3.65625,0.3125 -1.58287,0.363651 -3.37077,1.383718 -4.5625,2 -1.71563,0.923704 -1.46252,1.407651 0.28125,0.46875 1.21477,-0.628196 3.09819,-1.473555 4.4375,-1.78125 1.62058,-0.372314 4.80558,-0.321307 8.71875,-0.21875 0.37634,0 0.37634,-0.71875 0,-0.71875 -0.97912,-0.02566 -1.90972,-0.05054 -2.78125,-0.0625 -0.87152,-0.01196 -1.68397,-0.01101 -2.4375,0 z m -10.6875,13.40625 c -0.19516,0.05375 -0.48617,0.830462 -0.5625,1.40625 -0.11833,0.372112 -0.14762,0.658513 -0.25,0.84375 -0.10237,0.185237 -0.24785,0.312088 -0.6875,0.46875 -0.87929,0.313325 -2.88662,0.529608 -7.15625,0.5625 -3.38788,0.0261 -5.53739,-0.221062 -6.9375,-0.5625 -0.0589,-0.04204 -0.1136,-0.06688 -0.1875,-0.0625 -0.27242,-0.07214 -0.5707,-0.141393 -0.78125,-0.21875 -1.28334,-0.471524 -1.43566,-0.95822 -1.46875,-1.1875 -0.32101,-1.664198 -0.95636,-1.252517 -0.71875,0.09375 0.0716,0.495753 0.51356,1.226817 1.9375,1.75 0.15922,0.0585 0.37692,0.101599 0.5625,0.15625 -0.23884,0.511919 -0.52271,0.820411 -0.90625,0.9375 -0.46374,0.141574 -1.14965,0.03402 -2.09375,-0.5 -0.15345,-0.151293 -1.07953,-0.467742 -1.1875,-0.28125 -0.10797,0.186492 0.63614,0.817257 0.84375,0.875 0.65901,0.37276 1.25199,0.574575 1.78125,0.625 -0.007,0.01403 -0.0267,0.01637 -0.0312,0.03125 -0.26042,0.725498 -0.59875,1.827176 -1.0625,1.96875 -0.84364,0.473648 -1.97615,-0.67132 -2.1875,-0.28125 -0.19827,0.365932 1.45667,1.028365 2.21875,0.9375 -0.25316,0.716872 -0.56637,1.68012 -1,1.8125 -0.84364,0.473648 -1.5074,-0.51507 -1.71875,-0.125 -0.19653,0.362718 1.03505,0.906173 1.75,0.8125 0.79979,0.744184 1.9774,1.115026 3.1875,1.3125 1.19732,0.195387 2.42146,0.220182 3.4375,0.1875 -0.0162,0.26546 -0.01,0.53342 0,0.8125 0.0167,0.46953 0.0851,0.958474 0.1875,1.375 0.0551,0.224283 0.12931,0.411017 0.21875,0.59375 -9.5e-4,0.09238 -0.013,1.39927 0.0937,2.84375 0.0553,0.748035 0.13872,1.509583 0.28125,2.15625 0.10305,0.467495 0.19258,0.887427 0.40625,1.1875 l -0.0312,0 c 0.008,1.375171 0.0233,2.688776 0.21875,3.75 0.32005,1.464439 1.82669,2.546981 2.03125,2.34375 0.20457,-0.203231 -0.89988,-0.36898 -1.3125,-2.46875 -0.15541,-0.843998 -0.20455,-1.976925 -0.21875,-3.15625 0.12745,0.04617 0.27636,0.08632 0.4375,0.125 2.97808,0.497145 6.04247,0.814926 9,0.21875 0.33783,-0.100138 0.62724,-0.231898 0.8125,-0.5 0.13373,-0.187867 0.1398,-0.844684 0,-0.9375 -0.11077,-0.07355 -0.31756,0.364137 -0.59375,0.5625 -0.007,0.01078 -0.13641,0.107514 -0.40625,0.1875 -2.8648,0.469415 -5.80153,0.343763 -8.65625,-0.21875 -0.3099,-0.07439 -0.51935,-0.158531 -0.5625,-0.1875 -0.0671,-0.04505 -0.3077,-0.473618 -0.4375,-1.0625 -0.12979,-0.588882 -0.22737,-1.333607 -0.28125,-2.0625 -0.0635,-0.859052 -0.087,-1.584747 -0.0937,-2.125 0.13671,0.03903 0.29136,0.06604 0.46875,0.09375 0.37758,0.05898 0.85507,0.09741 1.40625,0.125 3.13735,0.138418 5.98473,0.0375 9.21875,-0.125 0.54854,-0.03718 1.01975,-0.691835 0.71875,-0.78125 -0.19059,-0.05662 -0.36345,0.218397 -0.96875,0.21875 -3.25733,0.07752 -5.71823,0.153045 -8.9375,0 -0.53717,-0.02689 -1.0093,-0.07276 -1.34375,-0.125 -0.16722,-0.02612 -0.28525,-0.06577 -0.375,-0.09375 -0.0898,-0.02798 -0.13015,-0.06873 -0.0937,-0.03125 -0.0952,-0.09805 -0.22573,-0.365807 -0.3125,-0.71875 -0.0868,-0.352943 -0.14095,-0.78951 -0.15625,-1.21875 -0.0153,-0.42924 0.008,-0.841161 0.0625,-1.1875 0.0547,-0.346339 0.16915,-0.625924 0.21875,-0.6875 0.0641,-0.07962 0.46627,-0.458698 1.09375,-0.84375 0.62749,-0.385052 1.48183,-0.813585 2.5625,-1.15625 2.16135,-0.685331 5.17861,-1.00362 8.8125,0.15625 l 0.125,0.53125 0.0937,-0.53125 c 3.63389,-1.15987 6.65116,-0.841581 8.8125,-0.15625 1.08068,0.342665 1.93502,0.771198 2.5625,1.15625 0.62749,0.385052 1.02961,0.76413 1.09375,0.84375 0.0496,0.06158 0.16403,0.341161 0.21875,0.6875 0.0547,0.346339 0.0778,0.75826 0.0625,1.1875 -0.0153,0.42924 -0.0695,0.865807 -0.15625,1.21875 -0.0868,0.352943 -0.21728,0.6207 -0.3125,0.71875 0.0364,-0.03748 -0.004,0.0033 -0.0937,0.03125 -0.0898,0.02798 -0.20777,0.06763 -0.375,0.09375 -0.33444,0.05224 -0.80658,0.09811 -1.34375,0.125 -3.21927,0.153045 -5.68016,0.07752 -8.9375,0 -0.6053,-3.53e-4 -0.77816,-0.27537 -0.96875,-0.21875 -0.30099,0.08941 0.17022,0.74407 0.71875,0.78125 3.23403,0.1625 6.08141,0.263418 9.21875,0.125 0.55118,-0.02759 1.02868,-0.06602 1.40625,-0.125 0.17739,-0.02771 0.33204,-0.05472 0.46875,-0.09375 -0.007,0.540253 -0.0302,1.265948 -0.0937,2.125 -0.0539,0.728893 -0.15145,1.473618 -0.28125,2.0625 -0.12979,0.588882 -0.37039,1.01745 -0.4375,1.0625 -0.0431,0.02897 -0.25259,0.11311 -0.5625,0.1875 -2.85471,0.562513 -5.79144,0.688165 -8.65625,0.21875 -0.26984,-0.07999 -0.39875,-0.17672 -0.40625,-0.1875 -0.27619,-0.198363 -0.48298,-0.63605 -0.59375,-0.5625 -0.13979,0.09282 -0.13372,0.749633 0,0.9375 0.18526,0.268102 0.47468,0.399862 0.8125,0.5 2.95754,0.596176 6.02193,0.278395 9,-0.21875 0.16115,-0.03868 0.31006,-0.07883 0.4375,-0.125 -0.0142,1.179325 -0.0633,2.312252 -0.21875,3.15625 -0.41261,2.09977 -1.51706,2.265519 -1.3125,2.46875 0.20457,0.203231 1.7112,-0.879311 2.03125,-2.34375 0.19542,-1.061224 0.21065,-2.374829 0.21875,-3.75 l -0.0312,0 c 0.21367,-0.300073 0.30321,-0.720005 0.40625,-1.1875 0.14254,-0.646667 0.22595,-1.408215 0.28125,-2.15625 0.10678,-1.44448 0.0947,-2.75137 0.0937,-2.84375 0.0894,-0.182733 0.16362,-0.369467 0.21875,-0.59375 0.10239,-0.416526 0.17077,-0.90547 0.1875,-1.375 0.01,-0.27908 0.0162,-0.54704 0,-0.8125 1.01604,0.03268 2.24019,0.0079 3.4375,-0.1875 1.21011,-0.197474 2.38772,-0.568316 3.1875,-1.3125 0.71496,0.09367 1.94653,-0.449782 1.75,-0.8125 -0.21135,-0.39007 -0.8751,0.598648 -1.71875,0.125 -0.43363,-0.13238 -0.74683,-1.095628 -1,-1.8125 0.76209,0.09087 2.41702,-0.571568 2.21875,-0.9375 -0.21135,-0.39007 -1.34385,0.754898 -2.1875,0.28125 -0.46374,-0.141574 -0.80207,-1.243252 -1.0625,-1.96875 -0.005,-0.01488 -0.0247,-0.01722 -0.0312,-0.03125 0.52927,-0.05043 1.12225,-0.25224 1.78125,-0.625 0.20762,-0.05774 0.95172,-0.688508 0.84375,-0.875 -0.10797,-0.186492 -1.03405,0.129957 -1.1875,0.28125 -0.94409,0.53402 -1.63,0.641574 -2.09375,0.5 -0.38354,-0.117089 -0.6674,-0.425581 -0.90625,-0.9375 0.18559,-0.05465 0.40329,-0.09775 0.5625,-0.15625 1.42395,-0.523183 1.86595,-1.254247 1.9375,-1.75 0.23762,-1.346267 -0.39773,-1.757948 -0.71875,-0.09375 -0.0331,0.22928 -0.1854,0.715976 -1.46875,1.1875 -0.21054,0.07736 -0.50882,0.14661 -0.78125,0.21875 -0.0739,-0.0044 -0.12859,0.02046 -0.1875,0.0625 -1.4001,0.341438 -3.54961,0.5886 -6.9375,0.5625 -4.26962,-0.03289 -6.27695,-0.249175 -7.15625,-0.5625 -0.43964,-0.156662 -0.58512,-0.283513 -0.6875,-0.46875 -0.10237,-0.185237 -0.13167,-0.471638 -0.25,-0.84375 -0.0763,-0.575788 -0.36734,-1.3525 -0.5625,-1.40625 -0.15179,-0.04181 -0.24792,0.352909 -0.125,1.625 0.0999,0.314292 0.12947,0.60632 0.3125,0.9375 0.18304,0.33118 0.5488,0.618314 1.09375,0.8125 1.08991,0.388371 3.08638,0.56071 7.375,0.59375 3.22661,0.02486 5.42038,-0.172566 6.90625,-0.5 0.30768,0.680158 0.76888,1.18042 1.40625,1.375 0.0908,0.02775 0.18651,0.0165 0.28125,0.03125 -0.0569,0.09555 -0.10885,0.210218 -0.0625,0.3125 0.23547,0.655959 0.6043,1.577675 1.09375,2.0625 -0.1289,0.09765 -0.19314,0.255867 -0.125,0.40625 0.22714,0.632758 0.53723,1.534321 1,2.03125 -0.63965,0.497646 -1.56156,0.83156 -2.59375,1 -1.16739,0.19051 -2.42866,0.19497 -3.4375,0.15625 -0.0646,-0.317827 -0.16554,-0.591282 -0.34375,-0.8125 -0.1988,-0.246791 -0.60746,-0.586539 -1.28125,-1 -0.67378,-0.413461 -1.57818,-0.857092 -2.71875,-1.21875 -1.14057,-0.361658 -2.51387,-0.63387 -4.0625,-0.65625 -1.53001,-0.02211 -3.23133,0.163788 -5.09375,0.75 -1.85067,-0.578919 -3.54068,-0.771992 -5.0625,-0.75 -1.54862,0.02238 -2.92193,0.294592 -4.0625,0.65625 -1.14057,0.361658 -2.04496,0.805289 -2.71875,1.21875 -0.67378,0.413461 -1.08244,0.753209 -1.28125,1 -0.1782,0.221218 -0.27919,0.494673 -0.34375,0.8125 -1.00884,0.03872 -2.2701,0.03426 -3.4375,-0.15625 -1.03218,-0.16844 -1.9541,-0.502354 -2.59375,-1 0.46278,-0.496929 0.77287,-1.398492 1,-2.03125 0.0681,-0.150383 0.004,-0.308595 -0.125,-0.40625 0.48946,-0.484825 0.85829,-1.406541 1.09375,-2.0625 0.0463,-0.102282 -0.006,-0.216946 -0.0625,-0.3125 0.0948,-0.01475 0.19044,-0.0035 0.28125,-0.03125 0.63738,-0.19458 1.09858,-0.694842 1.40625,-1.375 1.48588,0.327434 3.67964,0.524856 6.90625,0.5 4.28863,-0.03304 6.2851,-0.205379 7.375,-0.59375 0.54495,-0.194186 0.91072,-0.48132 1.09375,-0.8125 0.18304,-0.33118 0.21256,-0.623208 0.3125,-0.9375 0.12293,-1.272091 0.0268,-1.666805 -0.125,-1.625 z m 0.4375,9.59375 c -0.27668,-0.08521 -0.59507,1.467153 -0.5625,2.375 l -0.0312,14.9375 1,0 0.0312,-14.9375 c -0.006,-0.727112 -0.20311,-2.302816 -0.4375,-2.375 z m -20.5,7.59375 c 0.0183,3.261866 0.0212,6.519384 -0.25,9.78125 l 1.375,-0.09375 c -0.0286,-3.655321 0.41486,-7.955641 -1.125,-9.6875 z m 40.84375,0 c -1.53985,1.731859 -1.09644,6.032179 -1.125,9.6875 l 1.375,0.09375 c -0.27123,-3.261866 -0.26833,-6.519384 -0.25,-9.78125 z"
       id="path3154-1"
       inkscape:connector-curvature="0" />
    <path
       inkscape:connector-curvature="0"
       d="m 142.96875,74.54469 c 8.73249,-47.29375 5.3425,-42.67875 14.26749,-42.85625 l 23.44001,0 c 8.92625,0.1775 5.535,-4.4375 14.265,42.85625 l -51.9725,0 z"
       style="display:inline;fill:none;stroke:#231f20;stroke-width:0.31250000000000000;stroke-linecap:butt;stroke-linejoin:miter;stroke-miterlimit:4;stroke-opacity:1;stroke-dasharray:none"
       id="path4150" />
  </g>
</svg>
