<?xml version="1.0" encoding="UTF-8" standalone="no"?>
<!-- Created with Inkscape (http://www.inkscape.org/) -->

<svg
   xmlns:dc="http://purl.org/dc/elements/1.1/"
   xmlns:cc="http://creativecommons.org/ns#"
   xmlns:rdf="http://www.w3.org/1999/02/22-rdf-syntax-ns#"
   xmlns:svg="http://www.w3.org/2000/svg"
   xmlns="http://www.w3.org/2000/svg"
   xmlns:xlink="http://www.w3.org/1999/xlink"
   xmlns:sodipodi="http://sodipodi.sourceforge.net/DTD/sodipodi-0.dtd"
   xmlns:inkscape="http://www.inkscape.org/namespaces/inkscape"
   width="52.38813"
   height="43.401779"
   id="svg2"
   version="1.1"
   inkscape:version="0.48.1 "
   sodipodi:docname="male.[Bare Chest and Muscles Pattern].svg">
  <defs
     id="defs4">
    <linearGradient
       inkscape:collect="always"
       id="linearGradient4011">
      <stop
         style="stop-color:#ffffff;stop-opacity:1;"
         offset="0"
         id="stop4013" />
      <stop
         style="stop-color:#ffffff;stop-opacity:0;"
         offset="1"
         id="stop4015" />
    </linearGradient>
    <linearGradient
       inkscape:collect="always"
       id="linearGradient3997">
      <stop
         style="stop-color:#ffffff;stop-opacity:1;"
         offset="0"
         id="stop3999" />
      <stop
         style="stop-color:#ffffff;stop-opacity:0;"
         offset="1"
         id="stop4001" />
    </linearGradient>
    <inkscape:path-effect
       effect="skeletal"
       id="path-effect4237"
       is_visible="true"
       pattern="M 0,5 C 0,2.24 2.24,0 5,0 7.76,0 10,2.24 10,5 10,7.76 7.76,10 5,10 2.24,10 0,7.76 0,5 z"
       copytype="single_stretched"
       prop_scale="1"
       scale_y_rel="false"
       spacing="0"
       normal_offset="0"
       tang_offset="0"
       prop_units="false"
       vertical_pattern="false"
       fuse_tolerance="0" />
    <clipPath
       id="clipPath2999"
       clipPathUnits="userSpaceOnUse">
      <path
         id="path3001"
         d="M 0,792 612,792 612,0 0,0 0,792 z"
         inkscape:connector-curvature="0" />
    </clipPath>
    <radialGradient
       gradientUnits="userSpaceOnUse"
       gradientTransform="matrix(0.75988491,-0.03632001,0.13155835,2.7524547,16.986326,-78.268899)"
       r="12.650181"
       fy="46.658409"
       fx="96.306435"
       cy="46.658409"
       cx="96.306435"
       id="radialGradient3972"
       xlink:href="#linearGradient3966"
       inkscape:collect="always" />
    <clipPath
       clipPathUnits="userSpaceOnUse"
       id="clipPath2999-4">
      <path
         inkscape:connector-curvature="0"
         d="M 0,792 612,792 612,0 0,0 0,792 z"
         id="path3001-0" />
    </clipPath>
    <linearGradient
       id="linearGradient3966">
      <stop
         id="stop3968"
         offset="0"
         style="stop-color:#c0ac02;stop-opacity:1;" />
      <stop
         id="stop3970"
         offset="1"
         style="stop-color:#fdea41;stop-opacity:0;" />
    </linearGradient>
    <radialGradient
       inkscape:collect="always"
       xlink:href="#linearGradient3997"
       id="radialGradient4003"
       cx="165.81134"
       cy="47.693741"
       fx="165.81134"
       fy="47.693741"
       r="3.8123069"
       gradientTransform="matrix(0.64374811,-0.18781617,0.31213841,1.069868,43.640483,27.15595)"
       gradientUnits="userSpaceOnUse" />
    <radialGradient
       inkscape:collect="always"
       xlink:href="#linearGradient3997"
       id="radialGradient4007"
       gradientUnits="userSpaceOnUse"
       gradientTransform="matrix(-0.64374811,-0.18781617,-0.31213841,1.069868,293.73143,27.15595)"
       cx="165.81134"
       cy="47.693741"
       fx="165.81134"
       fy="47.693741"
       r="3.8123069" />
    <radialGradient
       inkscape:collect="always"
       xlink:href="#linearGradient4011"
       id="radialGradient4017"
       cx="169.32254"
       cy="41.784931"
       fx="169.32254"
       fy="41.784931"
       r="6.982676"
       gradientTransform="matrix(0.31036379,-0.01814613,0.03701409,0.63307367,114.75293,21.468668)"
       gradientUnits="userSpaceOnUse" />
    <linearGradient
       id="linearGradient3966-2">
      <stop
         style="stop-color:#c0ac02;stop-opacity:1;"
         offset="0"
         id="stop3968-4" />
      <stop
         style="stop-color:#fdea41;stop-opacity:0;"
         offset="1"
         id="stop3970-5" />
    </linearGradient>
    <clipPath
       id="clipPath2999-4-8"
       clipPathUnits="userSpaceOnUse">
      <path
         id="path3001-0-8"
         d="M 0,792 612,792 612,0 0,0 0,792 z"
         inkscape:connector-curvature="0" />
    </clipPath>
    <radialGradient
       inkscape:collect="always"
       xlink:href="#linearGradient3966-2"
       id="radialGradient3972-4"
       cx="96.306435"
       cy="46.658409"
       fx="96.306435"
       fy="46.658409"
       r="12.650181"
       gradientTransform="matrix(0.75988491,-0.03632001,0.13155835,2.7524547,16.986326,-78.268899)"
       gradientUnits="userSpaceOnUse" />
    <clipPath
       clipPathUnits="userSpaceOnUse"
       id="clipPath2999-0">
      <path
         inkscape:connector-curvature="0"
         d="M 0,792 612,792 612,0 0,0 0,792 z"
         id="path3001-9" />
    </clipPath>
    <inkscape:path-effect
       fuse_tolerance="0"
       vertical_pattern="false"
       prop_units="false"
       tang_offset="0"
       normal_offset="0"
       spacing="0"
       scale_y_rel="false"
       prop_scale="1"
       copytype="single_stretched"
       pattern="M 0,5 C 0,2.24 2.24,0 5,0 7.76,0 10,2.24 10,5 10,7.76 7.76,10 5,10 2.24,10 0,7.76 0,5 z"
       is_visible="true"
       id="path-effect4237-4"
       effect="skeletal" />
  </defs>
  <sodipodi:namedview
     id="base"
     pagecolor="#ffffff"
     bordercolor="#666666"
     borderopacity="1.0"
     inkscape:pageopacity="0.0"
     inkscape:pageshadow="2"
     inkscape:zoom="6.28"
     inkscape:cx="31.008149"
     inkscape:cy="16.267409"
     inkscape:document-units="px"
     inkscape:current-layer="layer36"
     showgrid="false"
     fit-margin-top="0"
     fit-margin-left="0"
     fit-margin-right="0"
     fit-margin-bottom="0"
     inkscape:window-width="1280"
     inkscape:window-height="1002"
     inkscape:window-x="1358"
     inkscape:window-y="-8"
     inkscape:window-maximized="1"
     showguides="true"
     inkscape:guide-bbox="true"
     inkscape:snap-global="false">
    <sodipodi:guide
       orientation="0,1"
       position="11.28133,21.705909"
       id="guide3274" />
    <sodipodi:guide
       orientation="1,0"
       position="26.13159,26.822611"
       id="guide3960" />
  </sodipodi:namedview>
  <metadata
     id="metadata7">
    <rdf:RDF>
      <cc:Work
         rdf:about="">
        <dc:format>image/svg+xml</dc:format>
        <dc:type
           rdf:resource="http://purl.org/dc/dcmitype/StillImage" />
        <dc:title />
      </cc:Work>
    </rdf:RDF>
  </metadata>
  <g
     inkscape:groupmode="layer"
     id="layer36"
     inkscape:label="torso"
     transform="translate(-142.76812,-31.473222)"
     style="display:inline">
    <path
       inkscape:connector-curvature="0"
       d="m 142.96875,74.54469 c 8.73249,-47.29375 5.3425,-42.67875 14.26749,-42.85625 l 23.44001,0 c 8.92625,0.1775 5.535,-4.4375 14.265,42.85625 l -51.9725,0 z"
       style="fill:#f4d7b4;fill-opacity:1;stroke:#de8b5f;stroke-width:0.3125;stroke-linecap:butt;stroke-linejoin:miter;stroke-miterlimit:4;stroke-opacity:1;stroke-dasharray:none;display:inline"
       id="path4150" />
    <g
       style="opacity:0.5;display:inline"
       id="Muscles"
       transform="matrix(1.1644213,0,0,1.1644144,135.95147,19.922934)">
      <path
         style="fill:#f26926"
         inkscape:connector-curvature="0"
         d="m 37.875,13.75 c 0.074,0.259 1.169,-0.355 3.39,-0.033 2.063,0.299 2.72,0.893 2.829,0.752 0.168,-0.216 0.128,-1.01 -0.016,-1.094 -0.188,-0.109 -2.162,-0.44 -2.891,-0.406 -0.849,0.039 -3.406,0.453 -3.312,0.781 z"
         id="path5" />
      <path
         style="fill:#f26926"
         inkscape:connector-curvature="0"
         d="m 42.688,35.958 c -0.379,-0.345 -1.665,1.526 -2.259,4.051 -0.688,2.921 -1.449,5.283 -1.337,6.033 0.888,0.313 1.366,0.271 2.479,0 0.283,-0.625 0.341,-3.823 0.387,-5.097 0.101,-3.632 0.959,-4.778 0.73,-4.987 z"
         id="path7" />
      <path
         style="fill:#f26926"
         inkscape:connector-curvature="0"
         d="m 18.833,13.75 c -0.074,0.259 -1.169,-0.355 -3.39,-0.033 -2.063,0.299 -2.72,0.893 -2.829,0.752 -0.168,-0.216 -0.128,-1.01 0.016,-1.094 0.188,-0.109 2.162,-0.44 2.891,-0.406 0.85,0.039 3.406,0.453 3.312,0.781 z"
         id="path9" />
      <path
         style="fill:#f26926"
         inkscape:connector-curvature="0"
         d="m 46.406,30.578 c -0.171,-0.063 -0.484,0.671 -1.469,0.688 -0.859,0.016 -0.924,-0.377 -1.141,-0.595 -0.189,-0.19 -0.172,-0.749 0.029,-0.867 2.002,0.07 2.377,-0.981 2.268,-1.212 -0.125,-0.265 -0.453,0.298 -1.545,0.403 -0.98,0.095 -1.188,-0.396 -1.185,-0.409 0.005,-0.025 -0.298,-0.662 -0.099,-0.883 0.265,-0.295 0.605,-0.26 1.291,-0.468 1.084,-0.329 1.304,-1.346 1.132,-1.486 -0.124,-0.102 -0.47,0.61 -1.601,0.872 -0.653,0.151 -1.049,0.237 -1.133,-0.034 -0.199,-0.647 1.404,-1.243 2.286,-1.819 0.321,-0.627 0.099,-2.265 0.036,-2.423 -0.98,1.701 -3.117,2.544 -3.215,2.624 -0.021,0.017 -2.699,0.879 -5.641,0.968 -1.908,0.058 -3.525,0.134 -4.486,0.021 -1.236,-0.146 -1.657,-0.252 -1.994,-0.655 -0.191,-0.229 -0.206,-0.384 -0.072,-0.745 0.02,-0.051 0.078,-0.102 0.067,-0.167 -0.014,-0.084 -0.116,-0.127 -0.176,-0.189 -0.289,-0.299 -0.597,-0.568 -0.665,-0.83 -0.107,-0.412 -0.2,-0.858 -0.279,-1.326 -0.069,-0.408 -0.146,-2.329 -0.185,-2.86 -0.039,-0.54 0.245,-2.309 0.182,-2.702 -0.055,-0.339 0.603,-1.342 1.034,-1.768 0.967,-0.954 5.213,-2.192 7.98,-2.545 5.031,-0.641 5.568,0.51 5.732,0.107 0.127,-0.311 -1.248,-1.014 -5.227,-0.89 -0.259,0.008 -1.287,0.309 -1.428,0.262 -0.303,-0.101 -0.765,-0.573 -0.884,-0.479 -0.197,0.155 0.023,0.425 -0.071,0.659 -0.073,0.181 -0.287,0.253 -0.494,0.2 -0.314,-0.081 -0.902,-0.772 -1.069,-0.736 -0.201,0.043 -0.381,0.781 -0.595,0.967 -0.302,0.263 -1.112,0.3 -1.597,0.114 -0.2,-0.077 -0.257,0.04 -0.135,-0.421 0.122,-0.461 0.501,-0.963 0.267,-1.095 -0.066,-0.038 -1.505,0.057 -1.521,0.333 -0.012,0.213 0.409,0.107 0.48,0.299 0.122,0.327 -0.207,0.899 -0.419,1.109 -0.327,0.325 -1.498,1.005 -1.54,1.013 -0.449,0.091 -0.974,0.118 -0.974,0.118 v 12.366 c 0,0 0.203,-0.406 0.408,-0.53 0.222,-0.134 0.46,0.016 0.489,0.037 0.403,0.303 1.206,0.88 2.475,1.206 1.119,0.287 2.602,0.347 4.492,0.295 2.763,-0.076 5.241,-0.247 5.25,-0.091 0.003,0.045 -0.271,0.447 -1.174,1.003 -0.849,0.523 -1.748,0.7 -1.67,0.934 0.045,0.134 0.931,-0.116 1.835,-0.563 0.858,-0.425 1.695,-1.121 1.697,-1.063 0.026,0.786 0,1.567 -0.194,1.982 -0.237,0.507 -1.197,1.02 -1.747,1.201 -0.783,0.259 -1.463,0.19 -1.507,0.114 -0.114,-0.198 -0.876,-0.771 -1.075,-0.883 -0.455,-0.255 -1.05,-0.426 -1.55,-0.575 -0.611,-0.183 -2.143,0.289 -2.542,-0.208 -0.097,-0.121 -0.218,-0.238 -0.342,-0.331 -0.203,-0.151 -1.216,0.682 -2.908,0.638 -0.882,0.143 -1.413,-0.473 -1.68,-0.77 -0.069,-0.077 -0.205,-0.129 -0.248,-0.145 v -0.006 c 0,0 -0.007,0.002 -0.009,0.003 -0.002,0 -0.01,-0.003 -0.01,-0.003 v 0.007 c -0.043,0.016 -0.179,0.068 -0.248,0.145 -0.268,0.296 -0.798,0.912 -1.68,0.77 -1.693,0.044 -2.706,-0.789 -2.909,-0.638 -0.124,0.092 -0.245,0.209 -0.342,0.33 -0.399,0.497 -1.931,0.025 -2.542,0.208 -0.5,0.149 -1.095,0.32 -1.55,0.575 -0.199,0.112 -0.961,0.685 -1.075,0.883 -0.044,0.076 -0.724,0.145 -1.507,-0.114 -0.55,-0.182 -1.51,-0.694 -1.747,-1.201 -0.194,-0.415 -0.221,-1.196 -0.194,-1.981 0.002,-0.059 0.839,0.637 1.697,1.063 0.904,0.447 1.79,0.696 1.835,0.563 0.078,-0.234 -0.821,-0.41 -1.67,-0.934 -0.903,-0.557 -1.177,-0.959 -1.174,-1.004 0.009,-0.155 2.487,0.016 5.25,0.092 1.891,0.051 3.373,-0.009 4.493,-0.296 1.269,-0.325 2.072,-0.903 2.476,-1.206 0.028,-0.021 0.267,-0.17 0.488,-0.037 0.206,0.124 0.409,0.53 0.409,0.53 V 13.732 c 0,0 -0.525,-0.026 -0.974,-0.118 -0.042,-0.008 -1.213,-0.688 -1.541,-1.013 -0.212,-0.21 -0.542,-0.782 -0.419,-1.109 0.071,-0.192 0.493,-0.086 0.481,-0.299 -0.016,-0.276 -1.455,-0.371 -1.521,-0.333 -0.235,0.132 0.145,0.634 0.267,1.095 0.122,0.461 0.065,0.345 -0.135,0.421 -0.485,0.186 -1.295,0.148 -1.597,-0.114 -0.214,-0.187 -0.394,-0.924 -0.595,-0.967 -0.167,-0.036 -0.755,0.655 -1.069,0.736 -0.207,0.053 -0.421,-0.019 -0.494,-0.2 -0.095,-0.233 0.126,-0.504 -0.071,-0.659 -0.119,-0.093 -0.581,0.378 -0.884,0.479 -0.141,0.047 -1.169,-0.254 -1.428,-0.262 -3.979,-0.124 -5.354,0.579 -5.227,0.89 0.164,0.402 0.701,-0.748 5.732,-0.107 2.768,0.353 7.015,1.591 7.981,2.545 0.432,0.425 1.089,1.428 1.035,1.768 -0.063,0.393 0.221,2.162 0.182,2.702 -0.039,0.531 -0.116,2.452 -0.186,2.86 -0.079,0.468 -0.171,0.915 -0.278,1.326 -0.068,0.261 -0.376,0.531 -0.666,0.83 -0.06,0.062 -0.162,0.105 -0.176,0.189 -0.011,0.065 0.048,0.116 0.067,0.167 0.134,0.36 0.119,0.516 -0.072,0.745 -0.337,0.402 -0.758,0.51 -1.995,0.655 -0.961,0.112 -2.579,0.036 -4.487,-0.021 -2.941,-0.089 -5.62,-0.951 -5.641,-0.968 -0.098,-0.08 -2.234,-0.923 -3.215,-2.624 -0.063,0.159 -0.285,1.796 0.036,2.423 0.882,0.576 2.485,1.171 2.286,1.819 -0.084,0.271 -0.479,0.185 -1.133,0.034 -1.131,-0.262 -1.477,-0.975 -1.601,-0.872 -0.172,0.141 0.048,1.157 1.132,1.486 0.686,0.208 1.026,0.173 1.291,0.468 0.199,0.223 -0.104,0.858 -0.099,0.884 0.003,0.014 -0.204,0.504 -1.185,0.409 -1.092,-0.105 -1.42,-0.668 -1.545,-0.403 -0.109,0.23 0.266,1.282 2.268,1.212 0.201,0.118 0.219,0.677 0.029,0.867 -0.217,0.218 -0.281,0.61 -1.141,0.595 -0.984,-0.018 -1.298,-0.751 -1.469,-0.688 -0.172,0.063 0.046,1.267 1.14,1.422 0.82,0.116 1.406,-0.494 1.799,-0.405 0.369,0.084 0.405,0.499 1.873,1.499 0.603,0.41 2.474,1.371 2.882,1.605 0,0.125 -0.002,0.244 0.004,0.385 0.014,0.335 0.538,0.831 0.525,1.166 -0.009,0.226 -0.348,1.016 -0.333,1.75 0.016,0.786 1.031,2.132 1.024,2.917 -0.002,0.271 -0.007,0.568 0.009,1.425 0.013,0.69 0.108,1.247 0.274,1.783 0.107,0.349 0.404,1.017 0.584,1.334 0.422,0.744 1.984,0.729 2.017,0.574 0.037,-0.18 -1.22,-0.205 -1.517,-0.991 -0.225,-0.596 -0.503,-2.142 -0.167,-2.684 0.433,-0.435 3.036,-0.413 4.042,-0.274 0.858,0.119 2.594,0.197 3.417,0.583 0.515,0.575 0.178,2.442 0.209,3.083 0.067,0.146 0.216,0.193 0.26,0.204 v 0.005 c 0,0 0.007,-0.002 0.009,-0.002 0.002,0 0.01,0.002 0.01,0.002 v -0.005 c 0.044,-0.011 0.194,-0.058 0.261,-0.204 0.031,-0.641 -0.306,-2.508 0.208,-3.083 0.823,-0.386 2.558,-0.464 3.417,-0.583 1.006,-0.139 3.609,-0.16 4.042,0.274 0.336,0.542 0.058,2.088 -0.167,2.684 -0.297,0.786 -1.554,0.812 -1.517,0.991 0.032,0.154 1.595,0.17 2.017,-0.574 0.18,-0.317 0.477,-0.985 0.584,-1.334 0.166,-0.536 0.262,-1.093 0.274,-1.783 0.016,-0.856 0.011,-1.154 0.009,-1.425 -0.007,-0.785 1.009,-2.131 1.024,-2.917 0.015,-0.734 -0.324,-1.524 -0.333,-1.75 -0.013,-0.335 0.512,-0.831 0.525,-1.166 0.006,-0.141 0.004,-0.26 0.004,-0.385 0.408,-0.234 2.279,-1.195 2.882,-1.605 1.468,-1 1.504,-1.415 1.873,-1.499 0.393,-0.089 0.979,0.521 1.799,0.405 1.104,-0.157 1.322,-1.361 1.15,-1.424 z m -30.369,2.016 c -0.627,-0.206 -2.05,-1.154 -2.22,-1.483 -0.149,-0.289 -0.006,-1.226 -0.006,-1.226 0,0 0.412,0.066 0.661,0.23 0.654,0.432 1.233,0.894 1.761,1.187 0.958,0.532 1.567,0.504 1.758,0.987 0.17,0.432 -0.017,0.867 -1.954,0.305 z m 3.192,0.927 c 0.188,-0.617 0.163,-1.558 1.604,-2.162 0.805,-0.632 2.691,-1.15 3.692,-1.296 0.735,-0.107 2.402,0.616 2.863,1.2 0.438,0.554 0.699,1.791 0.65,2.496 -0.023,0.337 0.017,1.385 -0.229,1.616 -0.672,0.632 -2.887,0.278 -3.809,0.254 -1.177,-0.031 -3.313,0.017 -4.646,-0.75 -0.326,-0.188 -0.234,-0.998 -0.125,-1.358 z m 8.626,7.812 C 27.47,41.72 25.464,41.5 24.917,41.5 c -0.772,0 -3.996,-0.246 -4.542,-0.792 -0.206,-0.206 -0.976,-1.578 -0.976,-1.87 0,-0.313 0.046,-1.93 0.267,-2.15 0.486,-0.486 3.792,0.146 4.479,0.146 0.63,0 3.015,0.385 3.289,0.639 0.42,0.391 0.608,1.429 0.608,1.611 10e-4,0.301 0.026,2.036 -0.187,2.249 z m 8.478,-0.625 c -0.546,0.546 -3.77,0.792 -4.541,0.792 -0.547,0 -2.552,0.22 -2.938,-0.167 -0.213,-0.213 -0.188,-1.948 -0.188,-2.25 0,-0.183 0.189,-1.221 0.609,-1.611 0.273,-0.254 2.657,-0.639 3.287,-0.639 0.688,0 3.993,-0.632 4.479,-0.146 0.221,0.221 0.267,1.838 0.267,2.15 10e-4,0.293 -0.769,1.665 -0.975,1.871 z m 1.021,-5.829 c -1.334,0.767 -3.47,0.719 -4.646,0.75 -0.922,0.024 -3.136,0.378 -3.808,-0.254 -0.246,-0.231 -0.206,-1.279 -0.229,-1.616 -0.049,-0.705 0.213,-1.942 0.65,-2.496 0.461,-0.584 2.127,-1.308 2.862,-1.2 1,0.146 2.887,0.664 3.691,1.296 1.441,0.604 1.417,1.545 1.604,2.162 0.111,0.36 0.203,1.17 -0.124,1.358 z m 5.538,-3.769 c -0.17,0.329 -1.593,1.277 -2.22,1.483 -1.938,0.563 -2.124,0.127 -1.954,-0.305 0.19,-0.483 0.8,-0.455 1.758,-0.987 0.527,-0.293 1.106,-0.755 1.761,-1.187 0.249,-0.164 0.661,-0.23 0.661,-0.23 0,0 0.143,0.937 -0.006,1.226 z"
         id="path11" />
      <path
         style="fill:#f26926"
         inkscape:connector-curvature="0"
         d="m 14.021,35.958 c 0.379,-0.345 1.665,1.526 2.259,4.051 0.688,2.921 1.449,5.283 1.337,6.033 -0.888,0.313 -1.366,0.271 -2.479,0 -0.283,-0.625 -0.341,-3.823 -0.387,-5.097 -0.101,-3.632 -0.959,-4.778 -0.73,-4.987 z"
         id="path13" />
    </g>
  </g>
</svg>
