<?xml version="1.0" encoding="UTF-8" standalone="no"?>
<!-- Created with Inkscape (http://www.inkscape.org/) -->

<svg
   xmlns:dc="http://purl.org/dc/elements/1.1/"
   xmlns:cc="http://creativecommons.org/ns#"
   xmlns:rdf="http://www.w3.org/1999/02/22-rdf-syntax-ns#"
   xmlns:svg="http://www.w3.org/2000/svg"
   xmlns="http://www.w3.org/2000/svg"
   xmlns:sodipodi="http://sodipodi.sourceforge.net/DTD/sodipodi-0.dtd"
   xmlns:inkscape="http://www.inkscape.org/namespaces/inkscape"
   width="154.62097"
   height="176.19733"
   id="svg2"
   version="1.1"
   inkscape:version="0.48.2 r9819"
   sodipodi:docname="batlords.svg">
  <sodipodi:namedview
     id="base"
     pagecolor="#ffffff"
     bordercolor="#666666"
     borderopacity="1.0"
     inkscape:pageopacity="0.0"
     inkscape:pageshadow="2"
     inkscape:zoom="2.98"
     inkscape:cx="70.368892"
     inkscape:cy="105.08814"
     inkscape:document-units="px"
     inkscape:current-layer="layer1"
     showgrid="false"
     fit-margin-top="0"
     fit-margin-left="0"
     fit-margin-right="0"
     fit-margin-bottom="0"
     inkscape:window-width="1280"
     inkscape:window-height="968"
     inkscape:window-x="-4"
     inkscape:window-y="-4"
     inkscape:window-maximized="1" />
  <defs
     id="defs4" />
  <metadata
     id="metadata7">
    <rdf:RDF>
      <cc:Work
         rdf:about="">
        <dc:format>image/svg+xml</dc:format>
        <dc:type
           rdf:resource="http://purl.org/dc/dcmitype/StillImage" />
        <dc:title />
      </cc:Work>
    </rdf:RDF>
  </metadata>
  <g
     transform="translate(-434.76475,-559.66449)"
     id="layer1"
     inkscape:groupmode="layer"
     inkscape:label="Layer 1">
    <path
       id="path3210"
       d="m 441.63933,559.80207 c -2.22533,0.0769 -4.43057,0.48255 -6.58872,1.22014 15.06875,22.49693 11.77788,41.19479 6.10067,59.4205 19.60707,16.97725 16.74917,36.63731 16.04475,56.00412 20.29924,-9.40268 23.50661,2.01783 22.08442,28.18509 8.75734,-2.16839 18.47809,-5.07715 22.75549,-0.0609 7.46023,8.74847 6.78128,28.02802 8.90697,30.99139 l 0,0.30503 c 0.16731,0.0765 0.34511,0.0435 0.48805,0 0.13646,0.0355 0.26867,0.0724 0.42705,0 l 0,-0.30503 c 2.14109,-2.90429 1.43197,-22.22556 8.90698,-30.99139 4.27739,-5.01614 13.99817,-2.10738 22.75548,0.0609 -1.42218,-26.16726 1.78521,-37.58777 22.08442,-28.18509 -0.70442,-19.36681 -3.5623,-39.02687 16.04476,-56.00412 -5.6772,-18.22571 -8.96806,-36.92358 6.10066,-59.4205 -2.15815,-0.73759 -4.36339,-1.14322 -6.58872,-1.22014 -15.57733,-0.53865 -34.23031,17.04004 -52.77077,43.68078 -0.26078,0.37471 -0.22353,0.29088 -0.18292,0.24403 -0.0307,0.0137 -0.12104,0.0636 -0.30504,0.24402 l 0,3.90443 c 0,7.65393 -6.13358,13.78751 -13.7875,13.78751 l -2.6843,0 -0.0609,0 -2.68429,0 c -7.65393,0 -13.78751,-6.13358 -13.78751,-13.78751 l 0,-3.90443 c -0.1839,-0.18038 -0.27438,-0.23043 -0.30503,-0.24402 0.0406,0.0468 0.0777,0.1306 -0.18292,-0.24403 -18.54045,-26.64076 -37.19344,-44.21943 -52.77078,-43.68078 z m 53.25883,19.40013 c 1.19926,4.30972 2.26052,9.96688 2.92832,17.99696 -0.0572,0.46678 -0.12202,0.92041 -0.12202,1.40316 l 0,7.68684 c 0,6.36484 5.10442,11.46925 11.46926,11.46925 l 4.20946,0 c 6.36484,0 11.46925,-5.10441 11.46925,-11.46925 l 0,-7.68684 c 0,-0.12533 0.004,-0.24176 0,-0.36604 0.66405,-8.62361 1.7365,-14.53189 2.98933,-19.03408 -3.7967,1.99937 -7.67864,3.82087 -11.04221,8.41892 -1.08057,-0.33469 -2.22296,-0.48806 -3.41637,-0.48806 l -4.20946,0 c -1.1513,0 -2.24725,0.1757 -3.29436,0.48806 -3.36259,-4.59391 -7.18608,-6.42037 -10.9812,-8.41892 z"
       style="fill:#1b2a34;stroke:none"
       inkscape:connector-curvature="0" />
    <g
       id="g4318"
       style="stroke:#c4281b"
       transform="matrix(1.9522135,0,0,1.9522135,-492.2186,-628.68501)">
      <path
         sodipodi:nodetypes="ccc"
         transform="translate(434.76475,559.66449)"
         inkscape:connector-curvature="0"
         id="path4284"
         d="m 61.396131,65.347873 c -1.703891,-2.332265 -7.859947,-8.945044 -15.30698,-11.7746 2.674976,2.994332 5.909121,5.730585 5.803196,10.00841"
         style="fill:none;stroke:#c4281b;stroke-width:2;stroke-linecap:round;stroke-linejoin:round;stroke-miterlimit:4;stroke-opacity:1;stroke-dasharray:none" />
      <path
         sodipodi:nodetypes="ccc"
         transform="translate(434.76475,559.66449)"
         inkscape:connector-curvature="0"
         id="path4286"
         d="m 63.91926,79.309185 c -2.397677,-1.105503 -8.397556,-1.972852 -14.970564,-0.336417 2.767535,1.700536 4.961575,4.739226 7.064761,7.989908"
         style="fill:none;stroke:#c4281b;stroke-width:2;stroke-linecap:round;stroke-linejoin:round;stroke-miterlimit:4;stroke-opacity:1;stroke-dasharray:none" />
      <path
         sodipodi:nodetypes="ccc"
         transform="translate(434.76475,559.66449)"
         inkscape:connector-curvature="0"
         id="path4288"
         d="m 65.264929,97.05519 c -3.670137,1.271596 -7.485475,2.36169 -9.419681,5.8032 3.448276,-0.97748 6.896552,-0.65098 10.344828,3.28006"
         style="fill:none;stroke:#c4281b;stroke-width:2;stroke-linecap:round;stroke-linejoin:round;stroke-miterlimit:4;stroke-opacity:1;stroke-dasharray:none" />
      <path
         sodipodi:nodetypes="csc"
         transform="translate(434.76475,559.66449)"
         inkscape:connector-curvature="0"
         id="path4290"
         d="m 72.75021,81.580001 c -2.101257,5.008179 -4.019874,12.20084 -3.562954,18.337012 0.371283,4.986127 2.422165,11.258167 7.59996,15.052387"
         style="fill:none;stroke:#c4281b;stroke-width:2;stroke-linecap:round;stroke-linejoin:miter;stroke-miterlimit:4;stroke-opacity:1;stroke-dasharray:none" />
      <path
         style="fill:none;stroke:#c4281b;stroke-width:2;stroke-linecap:round;stroke-linejoin:round;stroke-miterlimit:4;stroke-opacity:1;stroke-dasharray:none"
         d="m 532.51134,625.01236 c 1.70389,-2.33226 7.85994,-8.94504 15.30698,-11.7746 -2.67498,2.99433 -5.90912,5.73059 -5.8032,10.00841"
         id="path4292"
         inkscape:connector-curvature="0"
         sodipodi:nodetypes="ccc" />
      <path
         style="fill:none;stroke:#c4281b;stroke-width:2;stroke-linecap:round;stroke-linejoin:round;stroke-miterlimit:4;stroke-opacity:1;stroke-dasharray:none"
         d="m 529.98821,638.97367 c 2.39767,-1.1055 8.39755,-1.97285 14.97056,-0.33641 -2.76753,1.70053 -4.96157,4.73922 -7.06476,7.98991"
         id="path4294"
         inkscape:connector-curvature="0"
         sodipodi:nodetypes="ccc" />
      <path
         style="fill:none;stroke:#c4281b;stroke-width:2;stroke-linecap:round;stroke-linejoin:round;stroke-miterlimit:4;stroke-opacity:1;stroke-dasharray:none"
         d="m 528.64254,656.71968 c 3.67014,1.2716 7.48547,2.36169 9.41968,5.8032 -3.44828,-0.97748 -6.89655,-0.65098 -10.34483,3.28006"
         id="path4296"
         inkscape:connector-curvature="0"
         sodipodi:nodetypes="ccc" />
      <path
         style="fill:none;stroke:#c4281b;stroke-width:2;stroke-linecap:round;stroke-linejoin:miter;stroke-miterlimit:4;stroke-opacity:1;stroke-dasharray:none"
         d="m 521.15726,641.24449 c 2.10125,5.00818 4.01987,12.20084 3.56295,18.33701 -0.37128,4.98613 -2.42216,11.25817 -7.59996,15.05239"
         id="path4298"
         inkscape:connector-curvature="0"
         sodipodi:nodetypes="csc" />
    </g>
    <path
       style="fill:#c4281b;stroke:none"
       d="m 501.60889,603.0558 c 0,0 1.33565,7.17831 7.19879,8.90698 0.29449,0.0777 0.59677,0.19424 0.9151,0.24403 0.14095,0.026 0.28145,0.0412 0.42704,0.0609 0.19784,0.0223 0.4032,-0.0117 0.61007,0 0.28411,0.0209 0.55291,0.0646 0.85409,0.0609 0.35513,-0.01 0.70675,-0.0156 1.03712,-0.0609 0.14017,-0.0156 0.29135,-0.0398 0.42705,-0.0609 0.31016,-0.0572 0.62712,-0.15911 0.9151,-0.24403 5.86314,-1.72871 7.19878,-8.90698 7.19878,-8.90698 l -3.84342,0 -1.28114,4.75853 -1.15912,-4.75853 -7.01577,0 -1.15913,4.75853 -1.28114,-4.75853 -3.84342,0 z"
       id="path4300"
       inkscape:connector-curvature="0" />
    <g
       id="g4314"
       transform="matrix(1.9522135,0,0,1.9522135,-492.25124,-628.68501)">
      <path
         sodipodi:open="true"
         sodipodi:end="6.1681933"
         sodipodi:start="0"
         transform="translate(434.76475,559.66449)"
         d="m 77.363676,67.233025 c 0,0.639168 -0.500584,1.157316 -1.118086,1.157316 -0.617501,0 -1.118085,-0.518148 -1.118085,-1.157316 0,-0.639169 0.500584,-1.157317 1.118085,-1.157317 0.567869,0 1.045545,0.440615 1.110702,1.024528"
         sodipodi:ry="1.1573166"
         sodipodi:rx="1.1180855"
         sodipodi:cy="67.233025"
         sodipodi:cx="76.24559"
         id="path4310"
         style="fill:#c4281b;fill-opacity:1;stroke:none"
         sodipodi:type="arc" />
      <path
         sodipodi:type="arc"
         style="fill:#c4281b;fill-opacity:1;stroke:none"
         id="path4312"
         sodipodi:cx="76.24559"
         sodipodi:cy="67.233025"
         sodipodi:rx="1.1180855"
         sodipodi:ry="1.1573166"
         d="m 77.363676,67.233025 c 0,0.639168 -0.500584,1.157316 -1.118086,1.157316 -0.617501,0 -1.118085,-0.518148 -1.118085,-1.157316 0,-0.639169 0.500584,-1.157317 1.118085,-1.157317 0.567869,0 1.045545,0.440615 1.110702,1.024528"
         transform="translate(440.96326,559.66449)"
         sodipodi:start="0"
         sodipodi:end="6.1681933"
         sodipodi:open="true" />
    </g>
  </g>
</svg>
