<?xml version="1.0" encoding="UTF-8" standalone="no"?>
<!-- Created with Inkscape (http://www.inkscape.org/) -->

<svg
   xmlns:dc="http://purl.org/dc/elements/1.1/"
   xmlns:cc="http://creativecommons.org/ns#"
   xmlns:rdf="http://www.w3.org/1999/02/22-rdf-syntax-ns#"
   xmlns:svg="http://www.w3.org/2000/svg"
   xmlns="http://www.w3.org/2000/svg"
   xmlns:sodipodi="http://sodipodi.sourceforge.net/DTD/sodipodi-0.dtd"
   xmlns:inkscape="http://www.inkscape.org/namespaces/inkscape"
   width="287.81308"
   height="191.48347"
   id="svg2"
   version="1.1"
   inkscape:version="0.48.2 r9819"
   sodipodi:docname="Neues Dokument 1">
  <defs
     id="defs4" />
  <sodipodi:namedview
     id="base"
     pagecolor="#ffffff"
     bordercolor="#666666"
     borderopacity="1.0"
     inkscape:pageopacity="0.0"
     inkscape:pageshadow="2"
     inkscape:zoom="1.2448873"
     inkscape:cx="157.52012"
     inkscape:cy="7.3413844"
     inkscape:document-units="px"
     inkscape:current-layer="layer2"
     showgrid="false"
     showguides="true"
     inkscape:guide-bbox="true"
     inkscape:snap-global="false"
     fit-margin-top="0"
     fit-margin-left="0"
     fit-margin-right="0"
     fit-margin-bottom="0"
     inkscape:window-width="1600"
     inkscape:window-height="848"
     inkscape:window-x="-8"
     inkscape:window-y="-8"
     inkscape:window-maximized="1">
    <sodipodi:guide
       orientation="0,1"
       position="-37.55472,-5.0327611"
       id="guide2996" />
    <sodipodi:guide
       orientation="0,1"
       position="112.96593,88.270539"
       id="guide2998" />
    <sodipodi:guide
       orientation="0,1"
       position="131.82165,112.65293"
       id="guide3000" />
    <sodipodi:guide
       orientation="0,1"
       position="147.75149,62.587749"
       id="guide3002" />
    <sodipodi:guide
       orientation="1,0"
       position="65.50154,112.65293"
       id="guide3004" />
    <sodipodi:guide
       orientation="1,0"
       position="223.49946,80.793269"
       id="guide3006" />
    <inkscape:grid
       type="xygrid"
       id="grid3034"
       empspacing="5"
       visible="true"
       enabled="true"
       snapvisiblegridlinesonly="true" />
  </sodipodi:namedview>
  <metadata
     id="metadata7">
    <rdf:RDF>
      <cc:Work
         rdf:about="">
        <dc:format>image/svg+xml</dc:format>
        <dc:type
           rdf:resource="http://purl.org/dc/dcmitype/StillImage" />
        <dc:title></dc:title>
      </cc:Work>
    </rdf:RDF>
  </metadata>
  <g
     inkscape:groupmode="layer"
     id="layer2"
     inkscape:label="crown"
     style="display:inline"
     transform="translate(-228.0625,-436.46875)">
    <path
       style="fill:#f5cd2f;fill-opacity:1;stroke:none"
       d="m 335.59375,436.46875 c -8.85123,11.21737 -15.03924,26.08979 -17.90625,42.96875 -11.73157,-9.56616 -24.4158,-16.13392 -36.9375,-19.03125 -0.11974,0.27407 -0.22707,0.56719 -0.34375,0.84375 7.76777,16.00911 12.56674,35.25198 13.15625,56.0625 0.17756,6.26739 -0.0494,12.40169 -0.625,18.375 l 158.34375,0 c -0.57556,-5.97331 -0.80256,-12.10761 -0.625,-18.375 0.58951,-20.81052 5.38848,-40.05339 13.15625,-56.0625 -0.11668,-0.27656 -0.19276,-0.56968 -0.3125,-0.84375 -12.5217,2.89733 -25.23718,9.46509 -36.96875,19.03125 -2.86701,-16.87896 -9.02377,-31.75138 -17.875,-42.96875 -13.87393,7.28535 -26.60849,19.86567 -36.53125,36.15625 -9.92398,-16.29731 -22.65338,-28.86883 -36.53125,-36.15625 z"
       id="path3010"
       inkscape:connector-curvature="0" />
    <path
       sodipodi:type="arc"
       style="fill:#1b2a34;fill-opacity:1;stroke:none"
       id="path3008"
       sodipodi:cx="372.56299"
       sodipodi:cy="540.33191"
       sodipodi:rx="78.998962"
       sodipodi:ry="25.032591"
       d="m 451.56195,540.33191 c 0,13.82512 -35.36904,25.03259 -78.99896,25.03259 -43.62992,0 -78.99896,-11.20747 -78.99896,-25.03259 0,-13.82512 35.36904,-25.03259 78.99896,-25.03259 43.62992,0 78.99896,11.20747 78.99896,25.03259 z" />
    <g
       id="g3047"
       transform="translate(1.3877235,0)">
      <path
         transform="translate(3.0517578e-5,0)"
         sodipodi:type="arc"
         style="fill:#1b2a34;fill-opacity:1;stroke:none"
         id="path3039"
         sodipodi:cx="370.72165"
         sodipodi:cy="499.27908"
         sodipodi:rx="11.597548"
         sodipodi:ry="11.597548"
         d="m 382.3192,499.27908 c 0,6.40515 -5.1924,11.59755 -11.59755,11.59755 -6.40515,0 -11.59755,-5.1924 -11.59755,-11.59755 0,-6.40515 5.1924,-11.59754 11.59755,-11.59754 6.40515,0 11.59755,5.19239 11.59755,11.59754 z" />
      <path
         transform="translate(-48.789687,5.5988166)"
         d="m 382.3192,499.27908 c 0,6.40515 -5.1924,11.59755 -11.59755,11.59755 -6.40515,0 -11.59755,-5.1924 -11.59755,-11.59755 0,-6.40515 5.1924,-11.59754 11.59755,-11.59754 6.40515,0 11.59755,5.19239 11.59755,11.59754 z"
         sodipodi:ry="11.597548"
         sodipodi:rx="11.597548"
         sodipodi:cy="499.27908"
         sodipodi:cx="370.72165"
         id="path3041"
         style="fill:#1b2a34;fill-opacity:1;stroke:none"
         sodipodi:type="arc" />
      <path
         sodipodi:type="arc"
         style="fill:#1b2a34;fill-opacity:1;stroke:none"
         id="path3045"
         sodipodi:cx="370.72165"
         sodipodi:cy="499.27908"
         sodipodi:rx="11.597548"
         sodipodi:ry="11.597548"
         d="m 382.3192,499.27908 c 0,6.40515 -5.1924,11.59755 -11.59755,11.59755 -6.40515,0 -11.59755,-5.1924 -11.59755,-11.59755 0,-6.40515 5.1924,-11.59754 11.59755,-11.59754 6.40515,0 11.59755,5.19239 11.59755,11.59754 z"
         transform="matrix(-1,0,0,1,790.23299,5.5988166)" />
    </g>
    <path
       sodipodi:nodetypes="cscsccsc"
       inkscape:connector-curvature="0"
       id="path3851"
       d="m 515.87559,595.65625 c -13.47972,6.67371 -16.37016,10.5863 -16.33353,12.16745 0.0846,3.65251 9.68141,1.16101 15.77103,8.75151 -13.4907,-0.37197 -21.94628,4.286 -37.40625,8.48729 -15.45997,4.20129 -36.1385,5.14296 -68.46875,-6.375 l 6.71875,-18.84375 c 29.67539,10.57215 44.19197,9.25099 56.5,5.90625 12.30803,-3.34474 24.23054,-10.61729 43.21875,-10.09375 z"
       style="font-size:medium;font-style:normal;font-variant:normal;font-weight:normal;font-stretch:normal;text-indent:0;text-align:start;text-decoration:none;line-height:normal;letter-spacing:normal;word-spacing:normal;text-transform:none;direction:ltr;block-progression:tb;writing-mode:lr-tb;text-anchor:start;baseline-shift:baseline;color:#000000;fill:#f5cd2f;fill-opacity:1;stroke:none;stroke-width:20;marker:none;visibility:visible;display:inline;overflow:visible;enable-background:accumulate;font-family:Sans;-inkscape-font-specification:Sans" />
    <rect
       transform="matrix(-0.85600577,-0.51696627,-0.51696627,0.85600577,0,0)"
       ry="4.0618877"
       y="292.61536"
       x="-672.02661"
       height="29.589338"
       width="16.318954"
       id="rect3853"
       style="fill:#1b2a34;fill-opacity:1;stroke:none" />
    <path
       style="font-size:medium;font-style:normal;font-variant:normal;font-weight:normal;font-stretch:normal;text-indent:0;text-align:start;text-decoration:none;line-height:normal;letter-spacing:normal;word-spacing:normal;text-transform:none;direction:ltr;block-progression:tb;writing-mode:lr-tb;text-anchor:start;baseline-shift:baseline;color:#000000;fill:#f5cd2f;fill-opacity:1;stroke:none;stroke-width:20;marker:none;visibility:visible;display:inline;overflow:visible;enable-background:accumulate;font-family:Sans;-inkscape-font-specification:Sans"
       d="m 228.0625,595.65625 c 13.47972,6.67371 16.37016,10.5863 16.33353,12.16745 -0.0846,3.65251 -9.68141,1.16101 -15.77103,8.75151 13.4907,-0.37197 21.94628,4.286 37.40625,8.48729 15.45997,4.20129 36.1385,5.14296 68.46875,-6.375 l -6.71875,-18.84375 c -29.67539,10.57215 -44.19197,9.25099 -56.5,5.90625 -12.30803,-3.34474 -24.23054,-10.61729 -43.21875,-10.09375 z"
       id="path3830"
       inkscape:connector-curvature="0"
       sodipodi:nodetypes="cscsccsc" />
    <rect
       style="fill:#1b2a34;fill-opacity:1;stroke:none"
       id="rect3832"
       width="16.318954"
       height="29.589338"
       x="-35.211277"
       y="677.20624"
       ry="4.0618877"
       transform="matrix(0.85600577,-0.51696627,0.51696627,0.85600577,0,0)" />
    <path
       style="font-size:medium;font-style:normal;font-variant:normal;font-weight:normal;font-stretch:normal;text-indent:0;text-align:start;text-decoration:none;line-height:normal;letter-spacing:normal;word-spacing:normal;text-transform:none;direction:ltr;block-progression:tb;writing-mode:lr-tb;text-anchor:start;baseline-shift:baseline;color:#000000;fill:#f5cd2f;fill-opacity:1;stroke:#f5cd2f;stroke-width:4;stroke-linejoin:round;stroke-miterlimit:4;stroke-opacity:1;stroke-dasharray:none;marker:none;visibility:visible;display:inline;overflow:visible;enable-background:accumulate;font-family:Sans;-inkscape-font-specification:Sans"
       d="m 373.39092,579.59375 c -14.81757,-0.11107 -30.10079,2.87104 -46.53125,9.28125 l 5.09375,13.0625 c 30.27042,-11.80975 53.33384,-11.02323 79.78125,-0.0625 l 5.34375,-12.9375 c -14.52715,-6.02056 -28.86993,-9.23268 -43.6875,-9.34375 z"
       id="path3845"
       inkscape:connector-curvature="0" />
  </g>
</svg>
