<?xml version="1.0" encoding="UTF-8" standalone="no"?>
<!-- Created with Inkscape (http://www.inkscape.org/) -->

<svg
   xmlns:dc="http://purl.org/dc/elements/1.1/"
   xmlns:cc="http://creativecommons.org/ns#"
   xmlns:rdf="http://www.w3.org/1999/02/22-rdf-syntax-ns#"
   xmlns:svg="http://www.w3.org/2000/svg"
   xmlns="http://www.w3.org/2000/svg"
   xmlns:xlink="http://www.w3.org/1999/xlink"
   xmlns:sodipodi="http://sodipodi.sourceforge.net/DTD/sodipodi-0.dtd"
   xmlns:inkscape="http://www.inkscape.org/namespaces/inkscape"
   width="89.596436"
   height="143.01219"
   id="svg2"
   version="1.1"
   inkscape:version="0.48.2 r9819"
   sodipodi:docname="minifig_template.svg">
  <defs
     id="defs4">
    <linearGradient
       inkscape:collect="always"
       id="linearGradient4011">
      <stop
         style="stop-color:#ffffff;stop-opacity:1;"
         offset="0"
         id="stop4013" />
      <stop
         style="stop-color:#ffffff;stop-opacity:0;"
         offset="1"
         id="stop4015" />
    </linearGradient>
    <linearGradient
       inkscape:collect="always"
       id="linearGradient3997">
      <stop
         style="stop-color:#ffffff;stop-opacity:1;"
         offset="0"
         id="stop3999" />
      <stop
         style="stop-color:#ffffff;stop-opacity:0;"
         offset="1"
         id="stop4001" />
    </linearGradient>
    <inkscape:path-effect
       effect="skeletal"
       id="path-effect4237"
       is_visible="true"
       pattern="M 0,5 C 0,2.24 2.24,0 5,0 7.76,0 10,2.24 10,5 10,7.76 7.76,10 5,10 2.24,10 0,7.76 0,5 z"
       copytype="single_stretched"
       prop_scale="1"
       scale_y_rel="false"
       spacing="0"
       normal_offset="0"
       tang_offset="0"
       prop_units="false"
       vertical_pattern="false"
       fuse_tolerance="0" />
    <clipPath
       id="clipPath2999"
       clipPathUnits="userSpaceOnUse">
      <path
         id="path3001"
         d="M 0,792 612,792 612,0 0,0 0,792 z"
         inkscape:connector-curvature="0" />
    </clipPath>
    <radialGradient
       gradientUnits="userSpaceOnUse"
       gradientTransform="matrix(0.75988491,-0.03632001,0.13155835,2.7524547,16.986326,-78.268899)"
       r="12.650181"
       fy="46.658409"
       fx="96.306435"
       cy="46.658409"
       cx="96.306435"
       id="radialGradient3972"
       xlink:href="#linearGradient3966"
       inkscape:collect="always" />
    <clipPath
       clipPathUnits="userSpaceOnUse"
       id="clipPath2999-4">
      <path
         inkscape:connector-curvature="0"
         d="M 0,792 612,792 612,0 0,0 0,792 z"
         id="path3001-0" />
    </clipPath>
    <linearGradient
       id="linearGradient3966">
      <stop
         id="stop3968"
         offset="0"
         style="stop-color:#c0ac02;stop-opacity:1;" />
      <stop
         id="stop3970"
         offset="1"
         style="stop-color:#fdea41;stop-opacity:0;" />
    </linearGradient>
    <radialGradient
       inkscape:collect="always"
       xlink:href="#linearGradient3997"
       id="radialGradient4003"
       cx="165.81134"
       cy="47.693741"
       fx="165.81134"
       fy="47.693741"
       r="3.8123069"
       gradientTransform="matrix(0.64374811,-0.18781617,0.31213841,1.069868,43.640483,27.15595)"
       gradientUnits="userSpaceOnUse" />
    <radialGradient
       inkscape:collect="always"
       xlink:href="#linearGradient3997"
       id="radialGradient4007"
       gradientUnits="userSpaceOnUse"
       gradientTransform="matrix(-0.64374811,-0.18781617,-0.31213841,1.069868,293.73143,27.15595)"
       cx="165.81134"
       cy="47.693741"
       fx="165.81134"
       fy="47.693741"
       r="3.8123069" />
    <radialGradient
       inkscape:collect="always"
       xlink:href="#linearGradient4011"
       id="radialGradient4017"
       cx="169.32254"
       cy="41.784931"
       fx="169.32254"
       fy="41.784931"
       r="6.982676"
       gradientTransform="matrix(0.31036379,-0.01814613,0.03701409,0.63307367,114.75293,21.468668)"
       gradientUnits="userSpaceOnUse" />
    <linearGradient
       id="linearGradient3966-2">
      <stop
         style="stop-color:#c0ac02;stop-opacity:1;"
         offset="0"
         id="stop3968-4" />
      <stop
         style="stop-color:#fdea41;stop-opacity:0;"
         offset="1"
         id="stop3970-5" />
    </linearGradient>
    <clipPath
       id="clipPath2999-4-8"
       clipPathUnits="userSpaceOnUse">
      <path
         id="path3001-0-8"
         d="M 0,792 612,792 612,0 0,0 0,792 z"
         inkscape:connector-curvature="0" />
    </clipPath>
    <radialGradient
       inkscape:collect="always"
       xlink:href="#linearGradient3966-2"
       id="radialGradient3972-4"
       cx="96.306435"
       cy="46.658409"
       fx="96.306435"
       fy="46.658409"
       r="12.650181"
       gradientTransform="matrix(0.75988491,-0.03632001,0.13155835,2.7524547,16.986326,-78.268899)"
       gradientUnits="userSpaceOnUse" />
    <clipPath
       clipPathUnits="userSpaceOnUse"
       id="clipPath2999-0">
      <path
         inkscape:connector-curvature="0"
         d="M 0,792 612,792 612,0 0,0 0,792 z"
         id="path3001-9" />
    </clipPath>
    <inkscape:path-effect
       fuse_tolerance="0"
       vertical_pattern="false"
       prop_units="false"
       tang_offset="0"
       normal_offset="0"
       spacing="0"
       scale_y_rel="false"
       prop_scale="1"
       copytype="single_stretched"
       pattern="M 0,5 C 0,2.24 2.24,0 5,0 7.76,0 10,2.24 10,5 10,7.76 7.76,10 5,10 2.24,10 0,7.76 0,5 z"
       is_visible="true"
       id="path-effect4237-4"
       effect="skeletal" />
  </defs>
  <sodipodi:namedview
     id="base"
     pagecolor="#ffffff"
     bordercolor="#666666"
     borderopacity="1.0"
     inkscape:pageopacity="0.0"
     inkscape:pageshadow="2"
     inkscape:zoom="0.75239742"
     inkscape:cx="-70.605817"
     inkscape:cy="53.505634"
     inkscape:document-units="px"
     inkscape:current-layer="layer1"
     showgrid="false"
     fit-margin-top="0"
     fit-margin-left="0"
     fit-margin-right="0"
     fit-margin-bottom="0"
     inkscape:window-width="1600"
     inkscape:window-height="848"
     inkscape:window-x="-8"
     inkscape:window-y="-8"
     inkscape:window-maximized="1"
     showguides="true"
     inkscape:guide-bbox="true"
     inkscape:snap-global="false">
    <sodipodi:guide
       orientation="0,1"
       position="259.79945,116.7181"
       id="guide3274" />
    <sodipodi:guide
       orientation="1,0"
       position="274.64971,121.8348"
       id="guide3960" />
  </sodipodi:namedview>
  <metadata
     id="metadata7">
    <rdf:RDF>
      <cc:Work
         rdf:about="">
        <dc:format>image/svg+xml</dc:format>
        <dc:type
           rdf:resource="http://purl.org/dc/dcmitype/StillImage" />
        <dc:title></dc:title>
      </cc:Work>
    </rdf:RDF>
  </metadata>
  <g
     inkscape:label="template"
     inkscape:groupmode="layer"
     id="layer1"
     transform="translate(-112.41938,-405.25061)"
     style="display:inline">
    <path
       style="fill:#27462c;stroke:#1b2a34;stroke-width:1px;stroke-linecap:butt;stroke-linejoin:miter;stroke-opacity:1"
       d="m 38.875,0.78125 c -1.071456,4.152387 -0.602934,9.598121 -4.375,11.5 -0.0083,0.0042 -0.02294,-0.0041 -0.03125,0 -1.232506,0.123906 -2.50419,0.561863 -4,1.25 -1.927122,0.886559 -5.004019,1.454625 -3.96875,3.6875 0.721507,1.556153 -9.575953,3.543955 -9.0625,7.75 0.389932,3.194198 2.061053,3.107498 5.84375,5.0625 -2.725865,4.798804 2.359148,7.926568 7.78125,7.40625 -1.139504,-8.382901 3.135197,-7.583796 7.03125,-7.40625 -3.289996,-11.072463 13.84301,-6.440097 8.71875,5.46875 -2.335678,5.428144 -14.202322,8.930644 -16.65625,16.1875 -1.337303,0.431138 -5.161748,2.024564 -5.5625,3.84375 -0.970822,0.16473 -2.334877,0.14971 -4.5,-0.28125 -6.490005,-1.29181 -3.690971,-8.172202 -5.53125,-11.5 -2.05005,-3.707127 -5.911938,-4.067555 -9,-1.53125 1.876986,1.185881 3.948553,1.684772 3.84375,3.53125 -7.31868,-1.042062 -5.47419,3.539724 -6.59375,6.3125 2.80484,-2.40404 7.391682,-4.961876 7.34375,0.8125 -0.02351,2.83179 -2.130274,5.44323 -5.21875,2.875 0.0824,2.79995 3.576585,5.93375 6.59375,5.28125 L 12.5625,58.3125 c 1.877523,0.87206 4.639504,1.54954 4.09375,2.90625 -1.650939,2.32775 0.06894,6.14231 4.875,1.75 1.868734,-1.58023 2.735191,-2.14896 4.25,-2.3125 1.151578,1.16887 2.879553,1.96048 4.84375,2.125 2.186192,7.28707 10.496853,5.517613 12.53125,14.4375 -3.64969,-2.57641 -7.518184,-3.36188 -11.6875,-1.78125 -8.341589,-9.763167 -6.002207,7.99967 -7.8125,15.03125 C 22.40954,90.88478 21.18407,91.08151 19.9375,91.125 11.692272,91.41261 15.032875,83.7639 8.90625,81.71875 6.326184,80.8575 3.0909,82.77498 1.0625,85.78125 4.93664,85.20813 7.009285,85.42591 8,86.15625 c 2.672246,1.96994 -8.56108,1.6698 -3.0625,10.9375 1.614102,-3.52541 4.590502,-5.69127 5.625,-5.71875 0.619319,-0.0164 4.679737,5.97746 4.125,8.59375 -0.18135,0.85529 -2.107667,0.34547 -4.65625,-1.90625 1.08958,3.01814 2.343996,5.3255 4.15625,5.625 1.943587,0.32122 7.068125,-0.97751 8.125,-7.5625 2.421819,-1.76865 6.501828,-1.21325 9.9375,-1.5625 -1.437906,-1.15465 -2.625,-2.21875 -2.625,-2.21875 0.673512,-0.88422 3.142861,-0.94564 4.1875,-5.40625 l -3.59375,2 c 2.751397,-3.64364 -0.388682,-4.90207 1.75,-6.0625 0.195934,-0.10631 0.55278,-0.18443 1,-0.25 -0.04617,0.2065 -0.0625,0.41055 -0.0625,0.625 0,1.92192 1.923566,3.55874 4.65625,4.28125 0.01513,0.41521 0.113862,0.82538 0.34375,1.1875 -0.0438,7.92891 -23.192743,17.03416 -22.65625,35.84375 0.265064,9.29323 4.376209,16.76817 15.625,17.875 6.723278,0.66154 12.19671,-3.40126 13.96875,-7.0625 0.73163,-1.51163 3.23167,-5.48052 2.75,-9.78125 -0.96714,-8.63525 -4.3567,-8.3141 -2.4375,-14.625 1.08953,-3.58269 3.75668,-4.71637 10.875,-2.78125 C 50.98372,100.73438 41.9892,105.36206 41,112.53125 c -1.0606,7.68663 2.84831,8.78291 2.53125,13.71875 -0.36739,5.71927 -5.893882,11.90661 -11.5625,12.03125 -6.199335,0.1363 -10.915861,-6.30941 -11.8125,-13.71875 -0.687077,-5.67763 2.29249,-9.92927 5.53125,-13.53125 C 37.015399,98.43295 64.88516,93.69452 57,62.96875 56.0835,59.39748 67.60046,57.993523 62.25,77.40625 68.67713,85.21889 67.46487,92.70679 60.90625,100 67.96835,114.92435 60.17042,115.02692 58.9375,121.65625 109.11209,75.74196 86.963014,6.260598 62,7.40625 60.335799,7.48263 58.668596,7.86158 57,8.59375 52.81674,8.117297 49.43692,8.756571 47.84375,11.90625 60.75867,9.464184 65.60467,23.39946 63.875,36.53125 62.45546,47.308513 56.22736,58.06241 49.59375,54.40625 44.24838,50.506168 53.95849,43.44319 55.96875,32 56.973447,26.280808 55.050613,20.748123 44.15625,16.6875 c 0.955588,-1.163376 1.091976,-3.202348 0.40625,-6.15625 -1.396401,1.83726 -2.791102,2.821219 -4.1875,3.53125 -0.158311,-0.09815 -0.346512,-0.222918 -0.5,-0.3125 4.002553,-4.001199 1.230516,-11.567699 -1,-12.96875 z m -11.28125,21.28125 4,0.09375 L 31.5,26.125 27.8125,26.03125 28.28125,30.625 23.375,30.0625 22.96875,25.125 27.5625,25.78125 27.59375,22.0625 z"
       id="path3108"
       inkscape:connector-curvature="0"
       transform="translate(112.41938,405.25061)" />
    <path
       style="fill:#27462c;stroke:#1b2a34;stroke-width:1px;stroke-linecap:butt;stroke-linejoin:miter;stroke-opacity:1"
       d="m 33.94081,12.538668 c 4.3844,-1.629743 3.80087,-7.399433 4.9229,-11.747818 2.51909,1.582312 5.74836,11.027952 -0.89508,14.32115 2.20039,-0.859182 4.40077,-1.692167 6.60116,-4.587243 0.96966,4.177002 0.29836,6.563861 -2.01391,7.160575"
       id="path3110"
       inkscape:connector-curvature="0"
       sodipodi:nodetypes="ccccc"
       transform="translate(112.41938,405.25061)" />
    <path
       style="fill:none;stroke:#1b2a34"
       d="m 32.89283,83.24346 c 0,2.5841 3.462586,4.6875 7.71875,4.6875 2.642516,0 4.967079,-0.81081 6.349874,-2.04408"
       id="path3116"
       inkscape:connector-curvature="0"
       sodipodi:nodetypes="csc"
       transform="translate(112.41938,405.25061)" />
    <path
       style="fill:none;stroke:#1b2a34;stroke-width:1px;stroke-linecap:butt;stroke-linejoin:miter;stroke-opacity:1"
       d="m 61.103431,100.17922 c 6.88122,-6.97162 14.53098,-12.40616 17.20193,-27.798317"
       id="path3130"
       inkscape:connector-curvature="0"
       sodipodi:nodetypes="cc"
       transform="translate(112.41938,405.25061)" />
    <path
       style="fill:none;stroke:#1b2a34;stroke-width:1px;stroke-linecap:butt;stroke-linejoin:miter;stroke-opacity:1"
       d="M 70.186048,37.564185 C 76.553598,61.689243 66.58408,73.50977 62.617198,77.61029"
       id="path3132"
       inkscape:connector-curvature="0"
       sodipodi:nodetypes="cc"
       transform="translate(112.41938,405.25061)" />
    <path
       style="fill:#1b2a34;stroke:none"
       d="m 27.907873,17.09358 3.64658,-1.701737 -0.486211,1.458631 z"
       id="path3144"
       inkscape:connector-curvature="0"
       transform="translate(112.41938,405.25061)" />
    <path
       sodipodi:type="arc"
       style="fill:none;stroke:#1b2a34"
       id="path3146"
       sodipodi:cx="-0.87767214"
       sodipodi:cy="106.04303"
       sodipodi:rx="8.0340757"
       sodipodi:ry="5.6035991"
       d="m 7.1564036,106.04303 a 8.0340757,5.6035991 0 0 1 -14.5450651,3.28285"
       transform="matrix(0.88235294,0,0,1,144.54619,356.41971)"
       sodipodi:start="0"
       sodipodi:end="2.5156679"
       sodipodi:open="true" />
    <path
       style="fill:none;stroke:#1b2a34;stroke-width:1px;stroke-linecap:butt;stroke-linejoin:miter;stroke-opacity:1"
       d="m 57.812475,61.220543 c -1.197366,0.12202 -5.039934,1.77698 -3.720684,3.62528 -1.855196,0.13796 -2.910118,-0.52436 -2.480455,-2.67126"
       id="path3151"
       inkscape:connector-curvature="0"
       sodipodi:nodetypes="ccc"
       transform="translate(112.41938,405.25061)" />
    <path
       style="fill:#6e99c9;stroke:none"
       d="M 41.875,9.0625 C 42.130996,5.487429 40.382366,1.72807 40.296466,2.283489 40.210566,2.838907 41.721714,5.891597 41.875,9.0625 z M 62,7.40625 c -1.664201,0.07638 -3.331404,0.45533 -5,1.1875 -4.18326,-0.476453 -7.56308,0.162821 -9.15625,3.3125 0.319055,-0.06033 0.628271,-0.115652 0.9375,-0.15625 C 50.583344,9.80085 53.521127,9.416273 57,9.8125 58.668596,9.08033 60.335799,8.70138 62,8.625 75.900872,7.987034 88.940783,29.257697 89.09375,56.15625 89.336589,28.681629 76.111104,6.758635 62,7.40625 z m -17.4375,3.125 c -1.271903,1.673457 -2.540851,2.617088 -3.8125,3.3125 -0.250085,0.394558 -0.527663,0.777781 -0.875,1.125 0.153488,0.08958 0.341689,0.21435 0.5,0.3125 1.396398,-0.710031 2.791099,-1.69399 4.1875,-3.53125 0.214289,0.923094 0.352441,1.754403 0.40625,2.5 0.06328,-1.018824 -0.06668,-2.255979 -0.40625,-3.71875 z m 0.15625,6.375 c -0.135609,0.389101 -0.329144,0.715902 -0.5625,1 8.749349,3.261119 11.724123,7.474629 12.03125,11.96875 0.152859,-4.843864 -2.408808,-9.443827 -11.46875,-12.96875 z m 19.46875,15.1875 c -0.02623,1.471019 -0.118206,2.962406 -0.3125,4.4375 -1.41954,10.777263 -7.64764,21.53116 -14.28125,17.875 -0.924206,-0.674318 -1.389564,-1.442787 -1.53125,-2.3125 -0.19004,1.389403 0.194907,2.55623 1.53125,3.53125 6.63361,3.65616 12.86171,-7.097737 14.28125,-17.875 0.248514,-1.88674 0.3399,-3.787294 0.3125,-5.65625 z"
       id="path3178"
       inkscape:connector-curvature="0"
       sodipodi:nodetypes="cccsccccscsccccccccccccscccsc"
       transform="translate(112.41938,405.25061)" />
  </g>
</svg>
