<?xml version="1.0" encoding="UTF-8" standalone="no"?>
<!-- Created with Inkscape (http://www.inkscape.org/) -->

<svg
   xmlns:dc="http://purl.org/dc/elements/1.1/"
   xmlns:cc="http://creativecommons.org/ns#"
   xmlns:rdf="http://www.w3.org/1999/02/22-rdf-syntax-ns#"
   xmlns:svg="http://www.w3.org/2000/svg"
   xmlns="http://www.w3.org/2000/svg"
   xmlns:sodipodi="http://sodipodi.sourceforge.net/DTD/sodipodi-0.dtd"
   xmlns:inkscape="http://www.inkscape.org/namespaces/inkscape"
   width="164.22786"
   height="308.10013"
   id="svg2"
   version="1.1"
   inkscape:version="0.48.2 r9819"
   sodipodi:docname="dragon_old.svg">
  <defs
     id="defs4" />
  <sodipodi:namedview
     id="base"
     pagecolor="#ffffff"
     bordercolor="#666666"
     borderopacity="1.0"
     inkscape:pageopacity="0.0"
     inkscape:pageshadow="2"
     inkscape:zoom="1.9127176"
     inkscape:cx="82.11393"
     inkscape:cy="151.79344"
     inkscape:document-units="px"
     inkscape:current-layer="layer1"
     showgrid="false"
     inkscape:window-width="1600"
     inkscape:window-height="848"
     inkscape:window-x="-8"
     inkscape:window-y="-8"
     inkscape:window-maximized="1"
     fit-margin-top="0"
     fit-margin-left="0"
     fit-margin-right="0"
     fit-margin-bottom="0" />
  <metadata
     id="metadata7">
    <rdf:RDF>
      <cc:Work
         rdf:about="">
        <dc:format>image/svg+xml</dc:format>
        <dc:type
           rdf:resource="http://purl.org/dc/dcmitype/StillImage" />
        <dc:title></dc:title>
      </cc:Work>
    </rdf:RDF>
  </metadata>
  <g
     inkscape:label="Ebene 1"
     inkscape:groupmode="layer"
     id="layer1"
     transform="translate(-95.428542,-420.71238)">
    <path
       style="fill:#287f46"
       d="m 143.97603,569.34602 c -0.11411,0.0324 -0.22763,0.0735 -0.34375,0.125 -0.95445,0.42304 -4.17455,1.02353 -7.15625,1.34375 -2.98171,0.32021 -5.56852,1.04173 -5.75,1.59375 -0.18147,0.55201 1.62609,2.57701 4.03125,4.5 2.40516,1.92298 5.18927,4.85 6.15625,6.5 2.10778,3.59662 4.45225,11.89694 4.46875,15.78125 0.0136,3.19676 -2.51478,8.60511 -4.875,10.40625 -2.47044,1.88526 -6.59569,1.53017 -8.6875,-0.78125 -2.83078,-3.12798 -5.53454,-4.31208 -9.375,-4.0625 -3.14399,0.20432 -7.5789,4.28781 -7.00901,5.18078 0.46318,0.62165 1.75496,-0.50475 4.47776,-0.0245 2.30072,0.40577 5.54493,0.46258 5.28223,2.35364 -0.0826,0.59476 -3.24842,0.80261 -4.81348,1.14636 -5.22535,1.14769 -8.3205,8.87933 -5.59375,12.40625 3.04664,3.94068 1.83689,0.567 3.53125,-1.8125 1.6744,-2.35147 3.49249,-3.62775 4.88348,-3.97075 0.91711,-0.22613 4.21969,-0.0859 4.5386,0.498 1.05188,1.92592 -1.54307,3.06087 -3.76583,4.879 -2.14731,1.75641 -3.04416,5.21003 -1.03125,8.25 3.35049,5.06003 3.16807,5.23254 4.46875,-0.28125 1.33996,-5.6803 10.29748,-5.30438 11.8125,0.4375 1.32482,5.02103 0.49488,6.51365 5.34375,1.4375 2.07292,-2.17008 2.30163,-4.27061 0.3125,-9.03125 -1.37671,-3.29495 -1.3614,-3.79177 0.15625,-5.46875 0.91797,-1.01434 2.85399,-1.867 4.28125,-1.875 1.89124,-0.0112 4.34966,0.0438 5.18547,-0.76665 0.83934,-0.81387 0.053,-2.49782 0.47078,-4.73335 0.93307,-4.9923 6.10866,-10.46875 9.875,-10.46875 3.54352,0 7.5625,4.12811 7.5625,7.78125 0,2.18349 -1.76102,4.77772 -7.28125,10.78125 -8.98405,9.77061 -10.47494,12.09748 -12.375,19.25 -2.71399,10.21649 -0.76018,17.18577 8.3125,29.5 7.74382,10.51058 9.31593,14.4986 10,25.4375 0.33457,5.3501 1.01616,10.28269 1.53125,10.9375 1.54999,1.97043 3.72772,0.31133 4.6875,-3.5625 3.91223,-15.50955 -0.0914,-25.57261 -3.6875,-42.0625 0.0689,-14.87524 5.57156,-20.23324 14.3125,-28.5 8.97538,-7.07794 19.49556,-14.84797 25.09375,-25.125 4.64878,-8.93193 5.74587,-14.19026 5.15625,-24.53125 -0.43351,-7.60318 -1.02826,-10.00673 -3.71875,-15.21875 -3.71099,-7.18895 -11.17605,-14.6875 -14.625,-14.6875 -1.29138,0 -3.81884,0.6461 -5.625,1.4375 -1.80616,0.7914 -4.49291,1.69013 -5.96875,2 -0.50082,0.10515 -0.9412,0.28469 -1.34375,0.5 0.59591,2.00701 0.9375,4.13267 0.9375,6.34375 0,11.84961 -9.22453,21.46875 -20.59375,21.46875 -11.36922,0 -20.59375,-9.61914 -20.59375,-21.46875 -0.1177,-3.72335 0.51262,-6.06412 0.71875,-7.28125 0.69108,-2.98948 2.55756,-6.22296 6.53125,-9.0625 2.43604,-2.16277 5.3759,-3.73696 8.59375,-4.53125 1.49545,-0.58087 3.05822,-1.11071 4.6875,-1.5625 3.58371,-0.99374 6.76422,-2.04546 7.0625,-2.34375 0.89424,-0.89423 3.14005,-7.87894 3.15625,-9.8125 0.0234,-2.79727 2.79627,-7.59639 8.46875,-14.6875 10.19472,-12.77935 15.22954,-30.04566 6.15625,-49.90625 -0.6781,-0.87518 -0.99782,-6.75557 -0.84375,-16 0.20035,-12.02111 -0.0758,-15.48151 -1.5625,-19.59375 -1.27319,-3.52173 -2.29485,-5.3396 -3.65625,-5.0625 l 0,-3e-5 c -1.75037,0.35627 -4.03954,4.15761 -8.0625,12.0625 l -6.125,12 -9.21875,0.1875 c -7.53863,0.15896 -9.99214,0.59944 -13.4375,2.5 -4.62707,2.55244 -7.57855,7.37011 -7.65625,12.4375 0.39146,9.86495 14.16038,12.45204 23.09375,8.8125 5.60722,-1.97835 7.49232,-1.81742 9.3125,0.78125 2.20702,3.15096 1.9338,6.07623 -0.8125,8.65625 -1.30421,1.22523 -3.21792,3.77105 -4.25,5.6875 -2.1465,3.98581 -1.68415,4.32098 4.84375,6.59375 4.6004,1.60169 4.02594,1.65348 5.78125,-0.6875 2.23862,-2.98555 4.58337,-0.74393 3.28125,3.1875 -0.77804,2.34909 -1.58368,2.89554 -4.6875,3.15625 -2.20934,0.18558 -4.7488,-0.3278 -6.15625,-1.25 -3.39746,-2.2261 -5.85177,-1.95469 -9.4375,1.0625 -2.47753,2.0847 -3.05263,3.28348 -2.8125,5.75 0.25451,2.61417 1.43954,3.08223 5.53125,5.90625 4.73709,3.26944 3.97599,4.99065 7.1875,1.75 2.21114,-2.2312 3.89087,0.57661 1.65625,3.5 -3.63289,4.75263 -5.56036,3.16636 -10.71875,-0.28125 -2.26303,-1.5125 -5.31147,-3.54039 -6.75,-4.5 -1.43854,-0.9596 -3.29707,-1.747 -4.125,-1.75 -2.14116,-0.007 -12.96875,7.03712 -12.96875,8.4375 0,1.73739 4.90317,5.31306 9.6875,8.53125 3.64421,2.45128 3.5044,3.5644 6.5,0.59375 2.5659,-2.54454 3.8125,-1.99741 3.8125,0.34375 0,2.23506 -4.47067,6.09375 -7.0625,6.09375 -0.97471,0 -4.83013,-2.04361 -8.59375,-4.53125 -11.12368,-7.35243 -14.31702,-7.19674 -20.59375,1.03125 -5.16501,6.77066 -4.93442,10.41757 0.75,12.28125 4.48014,0.92992 16.22367,5.03389 17.46386,2.02707 0.94635,-2.1478 5.03614,-5.76496 5.03614,-3.99582 0,0.46349 -1.06503,2.82599 -2.34375,5.25 -1.5147,2.87135 -3.10665,4.53673 -4.5625,4.75 -1.22903,0.18005 -6.22299,-0.81262 -11.125,-2.21875 -4.90202,-1.40613 -9.62852,-2.29118 -10.46875,-1.96875 -3.26563,1.25314 -1.2048,13.30598 3.28125,19.1875 l 2.625,3.40625 6.46875,-0.65625 c 9.45168,-0.84501 9.77549,0.45794 9.625,-5.65625 -0.10221,-4.15256 2.13707,-4.9037 3.59375,-1.25 1.00064,2.79601 0.72426,6.82285 0.46875,8.78125 z m 11.3125,-145.4375 c -0.92953,0 -1.95351,0.67718 -2.28125,1.53125 -0.81198,2.11598 1.75893,17.51692 3.126,19.16413 0.68682,0.82757 2.96424,-0.0157 6.62889,-0.0157 5.24916,0 6.75589,0.60889 6.75589,-1.21286 0,-5.13301 -10.48671,-19.46685 -14.22953,-19.46685 z m 1.84375,31.78125 c 4.36014,0 7.90625,3.39509 7.90625,7.59375 0,4.19866 -3.54611,7.59375 -7.90625,7.59375 -4.36014,0 -7.90625,-3.39509 -7.90625,-7.59375 0,-4.19866 3.54611,-7.59375 7.90625,-7.59375 z m -48.21875,110.25 c -4.1518,0.1863 -7.41566,2.29878 -8.5,5.03125 -0.37097,0.93484 -0.628847,2.58924 0.0864,2.79237 0.54937,0.15601 2.2375,-0.84813 3.50733,-1.44862 3.3305,-1.57496 5.10347,0.0184 5.69142,0.96973 0.9745,1.57677 -1.8756,3.62402 -3.94142,3.62402 -3.26054,0 -6.343747,3.16089 -6.343747,6.53125 0,1.97878 0.57376,4.5805 1.268357,5.16234 0.58292,0.48829 1.21531,-0.80226 2.01289,-1.59984 1.53392,-1.53392 4.30302,-2.98523 4.67046,-1.7244 0.17854,0.61262 -1.28754,2.34446 -1.67046,4.0994 -0.8464,3.87909 0.89042,6.27768 3.8125,6.53125 4.16519,0.36145 1.90625,-0.67493 1.90625,-1.46875 0,-1.82607 1.93024,-4.43071 6.375,-4.53125 5.24196,-0.11857 5.61673,2.82368 4.9375,4.59375 -0.29681,0.77332 -0.19931,2.0532 0.0312,2.90625 0.77038,2.85096 0.30115,2.60656 4.9375,-0.53125 1.69531,-1.14736 2.71145,-3.23739 2.90625,-5.25 0.22865,-2.36231 -0.36635,-3.88222 3.0625,-4.53125 1.64647,-0.31165 2.75,-1.89646 2.75,-2.59375 0,-2.21307 -7.88948,-6.67873 -10.59375,-6 -3.44019,0.86343 -7.23437,-1.97192 -9.5,-7.09375 -1.0482,-2.36963 -2.62966,-4.57227 -3.5,-4.90625 -1.17156,-0.44957 -2.52232,-0.6246 -3.90625,-0.5625 z"
       id="path3042"
       inkscape:connector-curvature="0"
       sodipodi:nodetypes="ccscsssssscsssssssssssssscsssssssssccccssssscssccccscsccsssscccsccssssssssssssssscsssssssccssssscccscccsssssccsscccsssscsssssscsssssssssccc" />
    <g
       id="g3082"
       transform="translate(107.17583,-44.867986)">
      <path
         style="fill:#c4281b"
         d="m 132.15625,451.71875 c -1.00716,0.10458 -1.95272,1.36379 -3.40625,2.25 -1.79922,1.09699 -4.43667,1.998 -5.875,2 -8.92148,0.0128 -15.45614,17.64753 -9.90625,26.75 2.38643,3.91403 4.6629,4.17081 6.25,0.6875 1.67979,-3.68675 6.14099,-5.84733 9.03125,-4.34375 1.23253,0.6412 2.41048,1.36099 3.75,1.46875 0.83861,-0.36449 1.50752,-1.53877 2.625,-2.65625 1.96638,-1.96638 2.24177,-1.9781 8.75,-0.46875 9.9501,2.30759 15.44572,2.05104 19.84375,-0.9375 C 167.60119,473.49081 168,473.42765 168,475.75 c 0,0.98129 -2.37645,4.13129 -5.28125,7 -3.585,3.54047 -6.07437,5.19185 -7.75,5.15625 L 152.5,487.875 c -4.09503,-0.35483 -6.90127,0.14631 -13,2.53125 -4.45889,1.70287 -9.5,6.51296 -9.5,9.0625 0,0.74699 0.43236,2.5267 0.96875,3.9375 1.19974,3.15555 0.40547,5.2284 5.09375,0.15625 2.67883,-2.89817 10.49528,-4.59375 16.75,-4.59375 5.01445,0 7.45053,-1.91784 11.75,-9.28125 0.66587,-1.14039 1.38855,-2.2658 2.09375,-3.34375 0.13479,-0.26477 0.25274,-0.52745 0.40625,-0.8125 1.16739,-2.1677 3.06339,-4.65985 4.65625,-6.15625 0.56431,-0.53015 0.95623,-1.02541 1.21875,-1.5 0.26252,-0.47459 0.39565,-0.92849 0.4375,-1.375 0.0837,-0.89301 -0.20586,-1.93774 -1.125,-3.25 -0.73947,-1.05573 -0.97519,-1.21085 -1.8125,-1.28125 -0.82203,-0.0692 -2.51916,0.26669 -5.15625,1.1875 -0.0301,0.0122 -0.0635,0.0192 -0.0937,0.0312 -4.92324,1.97951 -10.89552,2.25637 -15.96875,0.6875 -3.29483,-1.01891 -6.26012,-2.98161 -8.03125,-5.8125 -0.0637,-0.10185 -0.12699,-0.2084 -0.1875,-0.3125 -0.0548,-0.0838 -0.10432,-0.16458 -0.15625,-0.25 -0.57718,-0.94954 -0.97248,-2.00204 -1.125,-3.1875 -0.10364,-0.54552 -0.1955,-1.1015 -0.21875,-1.6875 l 0,-0.0625 0,-0.0625 c 0.0379,-2.46917 0.67228,-4.86376 1.78125,-7.03125 L 141.5,454.625 c -3.74167,2.15805 -7.17373,-3.03964 -9.34375,-2.90625 z"
         transform="translate(-107.17583,44.867986)"
         id="path3070"
         inkscape:connector-curvature="0" />
      <path
         sodipodi:nodetypes="cssssssssccccsc"
         inkscape:connector-curvature="0"
         id="path3076"
         d="m 22.621338,537.92332 c -3.979156,5.21694 -9.38812,7.80032 -15.7264095,7.51111 -2.103887,-0.096 -4.139526,-0.8274 -5.140363,-0.53569 -0.85001199,0.24776 -0.77687199,1.45443 -1.23381999,2.07934 -0.851409,1.16437 -1.98484401,1.55731 -3.29376101,1.14188 -2.836114,-0.90015 -9.3314405,-8.3737 -8.9588995,-10.30815 0.444467,-2.30793 11.70551751,-6.56952 13.4762805,-5.09992 0.732267,0.60773 1.331394,1.85986 1.331394,2.78251 0,1.41823 -0.653231,2.9743 0.50388,3.66555 0.973486,0.58156 3.598944,0.41201 5.29612,0.41201 16.3073195,-4.1816 4.2806525,-18.25432 32.7000005,-12.7527 1.65,-0.0435 4.4625,-0.39306 6.25,-0.77672 6.696913,0.52901 3.079406,3.27665 -0.140191,5.10743 0,0 -3.096193,1.05345 -5.197811,1.03631 -5.231416,-0.0427 -13.583639,-4.84773 -19.86642,5.73704 z"
         style="fill:#c4281b" />
    </g>
    <path
       style="fill:#c4281b"
       d="m 197.0625,453.15625 c -1.73845,0.0473 -3.10947,0.60146 -4.03125,1.53125 0.0182,1.65021 0.0602,3.12525 0.125,4.34375 0.0708,1.33071 0.17345,2.40691 0.28125,3.125 0.0539,0.35905 0.16446,0.66309 0.21875,0.8125 l 0,0.0312 c 0.009,0.01 0.026,0.0585 0.0312,0.0625 l 0.0625,0.15625 c 0.0582,0.12723 0.0968,0.23623 0.15625,0.375 2.88425,6.4266 4.32268,12.61148 4.625,18.5 0.14187,1.17888 0.22075,2.23102 0.21875,3.09375 -0.01,4.15269 -0.51741,7.49406 -1.5625,10.5625 -0.0106,0.0313 -0.0205,0.0625 -0.0312,0.0937 -1.85428,7.17415 -5.35643,13.66419 -9.8125,19.25 -2.79997,3.50021 -4.8596,6.41692 -6.1875,8.71875 -0.85287,1.4784 -1.3546,2.68712 -1.625,3.59375 0.29347,0.39201 0.60885,0.7026 0.875,0.96875 0.90831,0.90831 2.07683,0.84854 8.9375,-0.46875 8.39011,-1.61096 9.07167,-2.50998 7,-8.84375 -0.92029,-2.81362 -1.42721,-5.51102 -1.125,-6 0.3022,-0.48899 3.09875,-1.20783 6.1875,-1.59375 5.6654,-0.70784 9.34375,-3.0142 9.34375,-5.875 0,-0.79908 -1.8,-2.91953 -4,-4.6875 -2.2,-1.76797 -4,-3.63961 -4,-4.15625 0,-0.51664 2.3123,-3.07804 5.125,-5.71875 2.8127,-2.6407 4.89613,-5.41815 4.65625,-6.15625 -0.23989,-0.73811 -2.05045,-2.11545 -4.03125,-3.0625 -1.98081,-0.94704 -3.88264,-2.17491 -4.21875,-2.71875 -0.33612,-0.54385 0.76839,-2.85212 2.4375,-5.15625 1.6691,-2.30413 3.03125,-4.82034 3.03125,-5.59375 0,-0.7734 -2.03251,-2.33219 -4.53125,-3.4375 -4.54192,-2.00911 -4.54307,-2.00465 -4.25,-6.6875 0.27732,-4.43103 0.14838,-4.70519 -2.40625,-5 -0.51485,-0.0594 -1.03252,-0.0752 -1.5,-0.0625 z m 18.21875,106.6875 c -1.76788,-0.011 -1.72479,1.51385 -0.0625,4.625 0.78129,1.46226 2.00137,3.62159 2.96875,6.84375 1.12334,3.1038 1.5765,6.17104 1.875,11.40625 0.59933,10.51127 -0.64175,16.40577 -5.375,25.5 l 0,0.0312 c -5.85484,10.74818 -16.55587,18.57115 -25.46875,25.59375 -0.0472,0.0446 -0.078,0.0806 -0.125,0.125 -4.29847,4.06694 -7.66197,7.33058 -9.9375,11.21875 -2.27498,3.88724 -3.59535,8.49345 -3.65625,15.5625 1.66479,7.60249 3.42591,13.97109 4.4375,20.21875 2.66408,1.07089 6.13206,-0.94532 11.84375,-7.4375 1.59587,-1.9229 -0.79634,-4.82563 -6.28125,-7.625 -3.71344,-1.89526 -4.91258,-3.80421 -2.5,-3.96875 0.6875,-0.0469 3.57427,0.01 6.40625,0.0937 2.83199,0.0842 5.44333,-0.34017 5.8125,-0.9375 0.87604,-1.41746 -2.41583,-6.66044 -6.90625,-11 -1.96128,-1.89539 -3.5625,-3.80789 -3.5625,-4.25 0,-1.66151 4.57992,-0.71628 11.21875,2.34375 4.0812,1.88115 7.20718,2.7936 7.71875,2.25 0.4817,-0.51185 0.39171,-3.76786 -0.1875,-7.40625 -2.28869,-14.37662 -1.68938,-14.98432 9.28125,-9.5625 10.22024,5.05098 10.97015,4.9025 10.90625,-2.1875 -0.0285,-3.1625 -1.09184,-9.8 -2.375,-14.75 -2.98444,-11.51289 -2.75734,-11.80919 7.59375,-10.90625 6.82378,0.59524 7.8985,0.45482 8.46875,-1.03125 1.19255,-3.10772 -2.00672,-9.85286 -7.4375,-15.71875 -2.94746,-3.18361 -5.10597,-6.15015 -4.8125,-6.625 0.29348,-0.47485 3.71904,-1.43255 7.59375,-2.125 6.47633,-1.15738 7.03125,-1.45714 7.03125,-3.71875 0,-3.41485 -5.90747,-8.63627 -14.78125,-13.0625 -3.68803,-1.83958 -8.31249,-3.49146 -9.6875,-3.5 z M 203.875,616.3125 c -1.28097,1.13019 -2.64556,2.39553 -4.09375,3.9375 1.41103,-1.28233 2.79598,-2.58269 4.09375,-3.9375 z M 156.75,690.125 c -1.823,0.0465 -3.25133,0.50415 -4,1.40625 -0.59891,0.72164 -0.87853,2.00626 -0.78125,3.53125 0.92884,8.3546 10.36744,31.39807 22.15625,33.75 13.00377,-2.36157 22.14453,-25.58879 22.1875,-33.75 0.0973,-1.52499 -0.2136,-2.80961 -0.8125,-3.53125 -1.71126,-2.06195 -6.95575,-1.86761 -12.40625,0.46875 l -2.375,1.03125 c -0.16221,3.28962 -0.65109,6.73169 -1.59375,10.46875 -0.54533,2.20106 -1.36886,3.93324 -2.8125,5.03125 -0.72182,0.549 -1.70119,0.9233 -2.71875,0.78125 -1.01756,-0.14205 -1.89873,-0.76688 -2.5,-1.53125 -0.35977,-0.45736 -0.4005,-0.72959 -0.5,-1.03125 -0.0995,-0.30166 -0.1703,-0.60948 -0.25,-0.96875 -0.15941,-0.71854 -0.32593,-1.60074 -0.46875,-2.625 -0.28564,-2.04853 -0.51747,-4.65604 -0.6875,-7.375 -0.0482,-0.77035 -0.0996,-1.42639 -0.15625,-2.125 L 165.15625,692 c -3.06591,-1.3142 -6.0624,-1.93479 -8.40625,-1.875 z"
       id="path3099"
       inkscape:connector-curvature="0"
       sodipodi:nodetypes="ccssccccccscccscssscsssssssssssscccscsccccscccsccsssssssssssscsssccccsscccscccsssccssccs" />
    <path
       style="fill:#c4281b"
       d="m 197.90625,420.71875 c -0.96041,-0.0618 -1.73419,0.32793 -2.5,1.09375 -1.86003,1.86003 -1.52719,3.08226 2.96875,10.4375 2.30365,3.76871 6.57599,12.06628 9.46875,18.4375 5.86345,12.91409 7.34375,20.6592 7.34375,38.03125 0,15.01929 -3.76192,25.71183 -13,36.8125 -5.48933,6.59611 -9.52405,9.09635 -18.25,11.375 -3.11536,0.81353 -6.61648,2.81808 -8.625,3.5 -0.32443,0.11074 -1.21526,0.28505 -2.28125,0.53125 -0.17975,0.0625 -0.29941,0.121 -0.5,0.1875 -1.32201,0.43823 -3.0563,0.96443 -4.875,1.46875 -1.56215,0.43318 -3.0575,0.9397 -4.5,1.5 l -0.0937,0.0312 -0.125,0.0312 c -2.9122,0.71884 -5.57045,2.16221 -7.78125,4.125 l -0.0937,0.0625 -0.0625,0.0625 c -3.63021,2.5941 -5.18526,5.36517 -5.78125,7.90625 -0.003,0.0121 -0.0283,0.0191 -0.0312,0.0312 -0.25367,1.44068 -0.76379,3.37921 -0.65625,6.78125 l 0,0.0312 0,0.0312 c 0,10.86355 8.38997,19.5625 18.6875,19.5625 9.65393,0 17.63429,-7.65552 18.59375,-17.5625 0.002,-0.0206 -0.002,-0.0419 0,-0.0625 -0.31435,-5.08738 -3.2496,-7.79968 -5.8125,-9.125 -4.42891,-2.82354 -10.77442,-1.67213 -14.8125,1.25 -4.37189,3.1637 -6.112,8.36524 -1.78125,11.8125 3.94801,2.76528 10.78125,1.7707 10.78125,-1.5625 0,-1.34034 -0.70917,-1.875 -2.4375,-1.875 -3.53596,0 -4.26467,-2.03661 -1.53125,-4.25 2.47372,-2.00311 6.74533,-1.70466 8.1875,0.5625 2.82649,4.4434 -2.28456,12.66725 -7.875,12.65625 -4.77812,-0.009 -10.20586,-1.95619 -11.8125,-4.25 -2.40115,-3.42812 -1.92753,-9.49584 1.03125,-13.375 4.70599,-6.16988 12.44181,-8.3436 22.875,-6.375 5.41199,1.02117 7.21547,0.96554 12.6875,-0.53125 3.506,-0.95902 8.85,-2.01592 11.875,-2.34375 0,0 5.49673,0.0332 8.125,0.75 1.67863,3.14984 8.96198,7.15625 11.4375,7.15625 2.80618,0 3.93169,-1.85357 4.9375,-8 1.03575,-6.32943 6.47262,-11.4092 14,-13.09375 4.51462,-0.63533 15.89179,-1.50504 7.53125,-11.71875 -5.804,-7.23725 -7.7661,-18.76339 -4.40625,-25.84375 0.57131,-1.19778 2.43412,-4.53613 4.15625,-6.3125 1.94272,-2.00476 3.81896,-4.02889 5.03125,-5.84375 0.93546,-1.27567 1.63145,-2.59019 1.65625,-4.125 -0.16367,-2.1145 -2.87567,-5.2533 -7.5625,-6.40625 -1.43033,-0.35186 -4.49048,-2.3336 -6.78125,-4.40625 -4.66527,-4.22104 -6.125,-9.19529 -6.125,-20.78125 0,-7.83137 -1.14325,-8.9359 -9.375,-9 -8.28595,-0.0645 -12.44827,-2.2916 -21.71875,-11.6875 -5.1671,-5.23701 -8.07461,-7.55145 -10.1875,-7.6875 z m 4.6875,7.90625 c 0.96055,0 8.30059,11.43431 11.90625,18.53125 1.9466,3.83144 4.57402,10.42905 5.8125,14.65625 1.73001,5.90488 1.98858,8.22206 1.1875,10 -0.95795,2.12614 -1.10032,1.94682 -1.75,-2.1875 -1.5913,-10.12653 -9.54016,-29.07026 -14.46875,-34.46875 -1.85927,-2.03653 -3.70497,-6.53125 -2.6875,-6.53125 z m 32.9375,17.09375 c 0.91872,-0.005 0.56051,1.99892 -1.9375,13.40625 -2.39295,10.92761 -4.5572,17.52977 -7.59375,23.25 -1.5394,2.8999 -2.8125,5.90736 -2.8125,6.6875 0,0.78015 -2.06854,12.48827 -2.65625,12.21875 -2.1707,-0.99548 0.43713,-6.06666 0.125,-11.8125 -0.3067,-5.64585 1.26651,-5.92833 2.09375,-6.90625 3.02446,-3.57538 7.18327,-13.60768 9.75,-28.9375 0.72783,-4.34701 1.77379,-7.5496 2.5625,-7.8125 0.18165,-0.0605 0.3375,-0.0931 0.46875,-0.0937 z m 22.59375,36.25 c 0.5478,-0.002 -0.6749,1.8846 -0.9375,2.28125 -1.13501,1.69917 -3.1908,3.22278 -5.125,5.21875 -1.00999,1.04225 -2.31423,2.07366 -3.28125,3.09375 -0.9854,0.36026 -2.49254,2.02007 -4.59375,3.5625 -2.80162,2.05658 -8.6868,6.07081 -13.09375,8.9375 -6.84536,4.45285 -8.36059,5.95964 -10.40625,10.375 -2.24381,4.84302 -3.38085,5.9629 -4.71875,4.625 -0.30685,-0.30686 0.81045,-3.27519 2.46875,-6.59375 2.45237,-4.90763 4.04887,-6.69847 8.625,-9.5625 9.92917,-6.2143 17.48554,-11.5471 23.125,-16.3125 3.025,-2.55616 6.2875,-4.93048 7.25,-5.28125 0.34986,-0.24334 0.56109,-0.34326 0.6875,-0.34375 z m -39.84375,42.6875 c 2.70183,-0.0287 6.34552,0.31058 11.90625,0.9375 14.22026,1.6032 22.41601,3.00976 23.4375,4.03125 0.80673,0.98132 0.17722,2.66257 -6,1.21875 -1.60758,-0.14979 -7.08093,-0.99954 -12.15625,-1.875 -5.1564,-0.88945 -12.37545,-1.41349 -16.375,-1.1875 -6.82932,0.38589 -7.30951,0.58542 -10.28125,4.125 -3.19863,3.80982 -5.625,4.78379 -5.625,2.28125 0,-0.77822 2.30315,-3.25322 5.125,-5.5 3.59599,-2.86317 5.46569,-3.98346 9.96875,-4.03125 z m -22.875,14.5625 c 2.08565,-0.0173 4.46421,0.30081 8.40625,0.9375 11.13639,1.79869 18.64866,4.14325 21.3125,6.625 4.29266,3.99923 1.74094,5.76307 -3.34375,2.3125 -8.60159,-5.13706 -18.43587,-5.06445 -19.75,-5.78125 -4.51775,-1.36765 -7.38624,-1.94563 -16.59375,1.40625 -4.58686,1.66979 -6.55981,2.00269 -7.375,1.1875 -1.44874,-1.44874 2.51865,-3.52745 10.75,-5.625 2.71537,-0.69194 4.5081,-1.04519 6.59375,-1.0625 z"
       id="path3912"
       inkscape:connector-curvature="0"
       sodipodi:nodetypes="csssssscccsccccccccccsscccscsssscssssccssccccccssssscssssssscsssssssccccscssscsssccssccsssssssssccssss" />
  </g>
</svg>
