<?xml version="1.0" encoding="UTF-8" standalone="no"?>
<!-- Created with Inkscape (http://www.inkscape.org/) -->

<svg
   xmlns:dc="http://purl.org/dc/elements/1.1/"
   xmlns:cc="http://creativecommons.org/ns#"
   xmlns:rdf="http://www.w3.org/1999/02/22-rdf-syntax-ns#"
   xmlns:svg="http://www.w3.org/2000/svg"
   xmlns="http://www.w3.org/2000/svg"
   xmlns:sodipodi="http://sodipodi.sourceforge.net/DTD/sodipodi-0.dtd"
   xmlns:inkscape="http://www.inkscape.org/namespaces/inkscape"
   width="210mm"
   height="297mm"
   id="svg2"
   version="1.1"
   inkscape:version="0.48.2 r9819"
   sodipodi:docname="lego_horse_silhouette.svg">
  <defs
     id="defs4" />
  <sodipodi:namedview
     id="base"
     pagecolor="#ffffff"
     bordercolor="#666666"
     borderopacity="1.0"
     inkscape:pageopacity="0.0"
     inkscape:pageshadow="2"
     inkscape:zoom="0.59"
     inkscape:cx="-29.573608"
     inkscape:cy="498.12564"
     inkscape:document-units="px"
     inkscape:current-layer="layer1"
     showgrid="false"
     inkscape:window-width="1280"
     inkscape:window-height="968"
     inkscape:window-x="-4"
     inkscape:window-y="-4"
     inkscape:window-maximized="1" />
  <metadata
     id="metadata7">
    <rdf:RDF>
      <cc:Work
         rdf:about="">
        <dc:format>image/svg+xml</dc:format>
        <dc:type
           rdf:resource="http://purl.org/dc/dcmitype/StillImage" />
        <dc:title></dc:title>
      </cc:Work>
    </rdf:RDF>
  </metadata>
  <g
     inkscape:label="Horse"
     inkscape:groupmode="layer"
     id="layer1">
    <g
       id="g3047">
      <path
         sodipodi:nodetypes="ccssscc"
         inkscape:connector-curvature="0"
         id="path3013"
         d="m 505.20833,554.79274 c 79.41419,11.52279 8.96991,109.84623 55.90278,123.95833 0.86207,3.97299 -2.86651,4.44529 -5.57586,8.05768 -2.1755,2.90062 1.59132,3.94803 -0.77492,7.72184 -1.35434,2.15998 -6.2304,2.77278 -8.72716,5.57885 -3.37648,3.79477 -4.41615,9.87393 -5.40817,13.01663 -35.04919,-51.61559 -27.96413,-105.3379 -35.41667,-158.33333 z"
         style="fill:#000000;stroke:#ffffff;stroke-width:1px;stroke-linecap:butt;stroke-linejoin:miter;stroke-opacity:1" />
      <path
         sodipodi:nodetypes="cccsccc"
         inkscape:connector-curvature="0"
         id="path3006"
         d="m 241.31944,536.73718 21.52778,36.11111 c 13.3868,-4.77769 15.09733,-17.59782 27.25293,-16.03113 7.60397,-12.71703 17.45132,-12.67257 30.43796,-18.93039 17.10313,-8.24142 27.26499,-26.06236 54.46189,-31.0107 l -48.26389,-26.38889 c -52.05465,49.58855 -68.57706,52.71187 -85.41667,56.25 z"
         style="fill:#26180f;fill-opacity:1;stroke:#000000;stroke-width:1px;stroke-linecap:butt;stroke-linejoin:miter;stroke-opacity:1" />
      <path
         sodipodi:nodetypes="ccszsssssscccc"
         inkscape:connector-curvature="0"
         id="path3004"
         d="m 448.61111,472.50107 c 19.62845,-40.31928 46.49972,-38.99232 56.25,-136.11111 0,0 6.50173,-6.84133 12.26995,-14.64568 5.76823,-7.80435 9.62207,-18.88314 7.86894,-20.42376 -1.75313,-1.54062 -5.75591,-2.95999 -10.35703,-1.30169 -6.82251,2.45892 -14.96057,9.18738 -19.03059,12.07302 -4.96913,3.52312 -4.25272,-3.96625 -12.42103,-9.01974 -8.90081,-5.50666 -26.71802,-9.3723 -34.28743,-10.11229 -23.98973,-2.34522 -46.0445,-15.68927 -57.99028,-12.18104 -15.10417,4.43578 -18.41719,28.28043 -12.4818,41.24559 3.07514,6.71727 25.04038,10.89337 25.04038,10.89337 9.00695,11.75308 4.08182,20.81535 19.44445,36.45833 -13.39299,17.16257 -34.23958,26.87154 -51.73611,39.93056 z"
         style="fill:#000000;fill-opacity:1;stroke:#ffffff;stroke-width:1px;stroke-linecap:butt;stroke-linejoin:miter;stroke-opacity:1" />
      <path
         sodipodi:nodetypes="ccsccsscscscssccsc"
         inkscape:connector-curvature="0"
         id="path3002"
         d="m 352.08333,518.3344 70.13889,93.40278 c 28.9077,65.57408 -7.3736,105.34067 -24.39056,121.81687 -4.8577,4.70333 -5.08323,14.62767 -9.28999,20.19702 l 50.69444,-0.69444 c -0.19923,-9.16659 -2.40218,-20.41301 4.23933,-24.08539 5.68303,-3.14241 10.68911,-9.6809 12.15912,-19.85566 1.14267,-7.90901 17.24619,-15.78563 22.14322,-31.7534 0,0 40.97222,-97.56944 40.97222,-98.95833 0,-1.38889 -61.11111,-96.875 -61.11111,-96.875 -4.96108,-78.90923 -31.34417,-77.93151 -52.96547,-84.52612 -34.61604,-10.55809 -51.01758,25.64665 -60.92342,48.06779 -5.43091,10.14458 -51.06151,-2.33669 -62.68345,13.37111 -18.77734,25.37878 -35.06919,29.76596 -41.50975,43.58452 -7.95803,17.07439 -7.36708,28.53352 -5.1818,44.43325 l 49.65278,-18.75 c -7.04043,-24.93756 1.83538,-28.03334 9.02232,-31.60761 22.67015,-11.27451 11.04959,1.7159 59.03323,22.23261 z"
         style="fill:#000000;fill-opacity:1;stroke:#ffffff;stroke-width:1px;stroke-linecap:butt;stroke-linejoin:miter;stroke-opacity:1" />
      <path
         inkscape:connector-curvature="0"
         id="path3008"
         d="m 478.8125,558.625 c -27.61424,0 -50,24.08884 -50,53.8125 0,0.1688 -10e-4,0.33157 0,0.5 l -0.6875,-0.15625 c -0.80453,7.06433 -0.0549,14.2289 5.9375,23.625 4.66538,10.06715 12.18498,18.33561 21.40625,23.59375 9.95937,8.9184 23.31823,19.45802 41.15625,32.21875 3.75933,2.6893 5.66736,19.95828 -1.5625,28.65625 -3.18559,3.83246 -5.55732,0.95086 -7.65625,3.8125 -3.67332,5.00813 -6.50309,15.45732 -11.375,23.15625 l 10.78125,20.84375 48.59375,-4.1875 2.4375,-17.34375 c -6.56825,-9.08773 3.89478,-21.8139 3.9375,-23.625 0.0427,-1.8111 -4.6067,-13.57198 -4.9375,-23.9375 -0.25544,-8.00404 5.83573,-15.19503 -0.78125,-20.46875 -11.85787,-9.4507 -13.3727,-31.81504 -13.5,-40.625 3.97963,-7.72285 6.25,-16.60541 6.25,-26.0625 0,-29.72366 -22.38576,-53.8125 -50,-53.8125 z"
         style="fill:#000000;stroke:#ffffff;stroke-width:1px;stroke-linecap:butt;stroke-linejoin:miter;stroke-opacity:1" />
      <path
         inkscape:connector-curvature="0"
         id="path3015"
         d="m 392.53125,395.125 c -26.46483,0.16326 -40.11364,30.319 -48.78125,49.9375 -5.43091,10.14458 -51.06556,-2.3328 -62.6875,13.375 -18.77734,25.37878 -35.05944,29.77519 -41.5,43.59375 -7.79125,16.71654 -7.38356,28.08015 -5.3125,43.46875 l 7.0625,-42.4375 c 8.19105,-7.09018 16.92625,-13.75628 23.84375,-21.71875 7.22984,-8.322 12.65515,-17.87131 20.96875,-21.6875 25.83486,2.0591 45.29395,4.6153 58.65625,0.375 18.99567,-6.02796 13.72037,-41.16268 58.59375,-35.3125 17.92941,2.33746 35.68064,15.05973 53.34375,45.4375 -6.71299,-67.3958 -31.50981,-66.8971 -52.03125,-73.15625 -4.327,-1.31976 -8.37556,-1.89832 -12.15625,-1.875 z"
         style="fill:#666666;stroke:#000000;stroke-width:1px;stroke-linecap:butt;stroke-linejoin:miter;stroke-opacity:1" />
      <path
         inkscape:connector-curvature="0"
         style="fill:#000000;stroke:#ffffff;stroke-width:1px;stroke-linecap:butt;stroke-linejoin:miter;stroke-opacity:1"
         d="m 478.8125,558.625 c -27.61424,0 -50,24.08884 -50,53.8125 0,0.1688 -10e-4,0.33157 0,0.5 l -0.6875,-0.15625 c -0.80453,7.06433 -0.0549,14.2289 5.9375,23.625 4.66538,10.06715 12.18498,18.33561 21.40625,23.59375 9.95937,8.9184 23.31823,19.45802 41.15625,32.21875 3.75933,2.6893 5.66736,19.95828 -1.5625,28.65625 -3.18559,3.83246 -5.55732,0.95086 -7.65625,3.8125 -3.67332,5.00813 -6.50309,15.45732 -11.375,23.15625 l 10.78125,20.84375 48.59375,-4.1875 2.4375,-17.34375 c -6.56825,-9.08773 3.89478,-21.8139 3.9375,-23.625 0.0427,-1.8111 -4.6067,-13.57198 -4.9375,-23.9375 -0.25544,-8.00404 5.83573,-15.19503 -0.78125,-20.46875 -11.85787,-9.4507 -13.3727,-31.81504 -13.5,-40.625 3.97963,-7.72285 6.25,-16.60541 6.25,-26.0625 0,-29.72366 -22.38576,-53.8125 -50,-53.8125 z"
         id="path3022" />
      <path
         inkscape:connector-curvature="0"
         id="path3017"
         d="m 498.25,693.6875 c 0,0 0.35275,1.53943 0.59375,2.5625 0.23373,0.77738 0.46038,1.6428 0.625,2.5625 1.85308,8.15332 5.16844,23.72192 4.5625,28.40625 -0.83174,6.42984 -7.43946,14.16173 -11.96875,23.09375 -2.94403,5.80579 -5.14316,11.85235 -6.5,15.9375 l 1.25,2.4375 4.34375,-0.375 c 4.06963,-6.61517 4.66129,-14.32389 7.4375,-19.4375 13.44879,-24.77185 7.30067,-37.88616 -0.34375,-55.1875 z"
         style="fill:#666666;fill-opacity:1;stroke:none" />
    </g>
  </g>
  <g
     inkscape:groupmode="layer"
     id="layer2"
     inkscape:label="Ebene"
     sodipodi:insensitive="true">
    <g
       id="g3043"
       transform="translate(-88.888889,-369.44444)">
      <path
         sodipodi:nodetypes="csscsccscc"
         inkscape:connector-curvature="0"
         id="path3039"
         d="m 539.15344,899.45213 c -31.96776,-29.97677 -6.40552,-88.41077 45.68631,-120.33522 24.91409,-15.26859 54.9705,-23.63664 82.26928,-32.85166 35.6118,-12.02117 66.53074,-22.51321 75.21901,-21.41629 22.84835,24.69675 16.80968,39.24009 -17.01375,68.1736 -9.11839,7.80012 -19.99792,19.5908 -33.2508,28.12269 14.6512,14.10239 -16.9025,31.39132 -25.39682,47.08995 8.15655,1.56306 -10.06475,16.02828 -15.85864,23.26232 -16.64582,20.78337 -40.4368,34.2473 -96.83978,14.30382 -3.61504,2.84572 -5.85686,10.84101 -14.81481,-6.34921 z"
         style="fill:#000000;fill-opacity:1;stroke:#ffffff;stroke-width:1px;stroke-linecap:butt;stroke-linejoin:miter;stroke-opacity:1" />
      <path
         sodipodi:nodetypes="cscczc"
         inkscape:connector-curvature="0"
         id="path3041"
         d="m 540.18127,836.95433 c 21.48278,-42.08823 64.296,-63.92788 76.02015,-67.47397 22.5485,-6.82005 103.2329,-35.31992 129.41792,-41.28736 l 0.90634,1.20846 c 0,0 -97.60405,31.2428 -132.61099,44.14215 -35.00694,12.89935 -73.73342,63.41072 -73.73342,63.41072 z"
         style="fill:#666666;fill-opacity:1;stroke:none" />
    </g>
  </g>
</svg>
