<?xml version="1.0" encoding="UTF-8" standalone="no"?>
<!-- Created with Inkscape (http://www.inkscape.org/) -->

<svg
   xmlns:dc="http://purl.org/dc/elements/1.1/"
   xmlns:cc="http://creativecommons.org/ns#"
   xmlns:rdf="http://www.w3.org/1999/02/22-rdf-syntax-ns#"
   xmlns:svg="http://www.w3.org/2000/svg"
   xmlns="http://www.w3.org/2000/svg"
   xmlns:xlink="http://www.w3.org/1999/xlink"
   xmlns:sodipodi="http://sodipodi.sourceforge.net/DTD/sodipodi-0.dtd"
   xmlns:inkscape="http://www.inkscape.org/namespaces/inkscape"
   width="52.375"
   height="43.213669"
   id="svg2"
   version="1.1"
   inkscape:version="0.48.2 r9819"
   sodipodi:docname="skull.[CMF4 Skater].svg">
  <defs
     id="defs4">
    <linearGradient
       inkscape:collect="always"
       id="linearGradient4011">
      <stop
         style="stop-color:#ffffff;stop-opacity:1;"
         offset="0"
         id="stop4013" />
      <stop
         style="stop-color:#ffffff;stop-opacity:0;"
         offset="1"
         id="stop4015" />
    </linearGradient>
    <linearGradient
       inkscape:collect="always"
       id="linearGradient3997">
      <stop
         style="stop-color:#ffffff;stop-opacity:1;"
         offset="0"
         id="stop3999" />
      <stop
         style="stop-color:#ffffff;stop-opacity:0;"
         offset="1"
         id="stop4001" />
    </linearGradient>
    <inkscape:path-effect
       effect="skeletal"
       id="path-effect4237"
       is_visible="true"
       pattern="M 0,5 C 0,2.24 2.24,0 5,0 7.76,0 10,2.24 10,5 10,7.76 7.76,10 5,10 2.24,10 0,7.76 0,5 z"
       copytype="single_stretched"
       prop_scale="1"
       scale_y_rel="false"
       spacing="0"
       normal_offset="0"
       tang_offset="0"
       prop_units="false"
       vertical_pattern="false"
       fuse_tolerance="0" />
    <clipPath
       id="clipPath2999"
       clipPathUnits="userSpaceOnUse">
      <path
         id="path3001"
         d="M 0,792 612,792 612,0 0,0 0,792 z"
         inkscape:connector-curvature="0" />
    </clipPath>
    <radialGradient
       gradientUnits="userSpaceOnUse"
       gradientTransform="matrix(0.75988491,-0.03632001,0.13155835,2.7524547,16.986326,-78.268899)"
       r="12.650181"
       fy="46.658409"
       fx="96.306435"
       cy="46.658409"
       cx="96.306435"
       id="radialGradient3972"
       xlink:href="#linearGradient3966"
       inkscape:collect="always" />
    <clipPath
       clipPathUnits="userSpaceOnUse"
       id="clipPath2999-4">
      <path
         inkscape:connector-curvature="0"
         d="M 0,792 612,792 612,0 0,0 0,792 z"
         id="path3001-0" />
    </clipPath>
    <linearGradient
       id="linearGradient3966">
      <stop
         id="stop3968"
         offset="0"
         style="stop-color:#c0ac02;stop-opacity:1;" />
      <stop
         id="stop3970"
         offset="1"
         style="stop-color:#fdea41;stop-opacity:0;" />
    </linearGradient>
    <radialGradient
       inkscape:collect="always"
       xlink:href="#linearGradient3997"
       id="radialGradient4003"
       cx="165.81134"
       cy="47.693741"
       fx="165.81134"
       fy="47.693741"
       r="3.8123069"
       gradientTransform="matrix(0.64374811,-0.18781617,0.31213841,1.069868,43.640483,27.15595)"
       gradientUnits="userSpaceOnUse" />
    <radialGradient
       inkscape:collect="always"
       xlink:href="#linearGradient3997"
       id="radialGradient4007"
       gradientUnits="userSpaceOnUse"
       gradientTransform="matrix(-0.64374811,-0.18781617,-0.31213841,1.069868,293.73143,27.15595)"
       cx="165.81134"
       cy="47.693741"
       fx="165.81134"
       fy="47.693741"
       r="3.8123069" />
    <radialGradient
       inkscape:collect="always"
       xlink:href="#linearGradient4011"
       id="radialGradient4017"
       cx="169.32254"
       cy="41.784931"
       fx="169.32254"
       fy="41.784931"
       r="6.982676"
       gradientTransform="matrix(0.31036379,-0.01814613,0.03701409,0.63307367,114.75293,21.468668)"
       gradientUnits="userSpaceOnUse" />
    <linearGradient
       id="linearGradient3966-2">
      <stop
         style="stop-color:#c0ac02;stop-opacity:1;"
         offset="0"
         id="stop3968-4" />
      <stop
         style="stop-color:#fdea41;stop-opacity:0;"
         offset="1"
         id="stop3970-5" />
    </linearGradient>
    <clipPath
       id="clipPath2999-4-8"
       clipPathUnits="userSpaceOnUse">
      <path
         id="path3001-0-8"
         d="M 0,792 612,792 612,0 0,0 0,792 z"
         inkscape:connector-curvature="0" />
    </clipPath>
    <radialGradient
       inkscape:collect="always"
       xlink:href="#linearGradient3966-2"
       id="radialGradient3972-4"
       cx="96.306435"
       cy="46.658409"
       fx="96.306435"
       fy="46.658409"
       r="12.650181"
       gradientTransform="matrix(0.75988491,-0.03632001,0.13155835,2.7524547,16.986326,-78.268899)"
       gradientUnits="userSpaceOnUse" />
    <clipPath
       clipPathUnits="userSpaceOnUse"
       id="clipPath2999-0">
      <path
         inkscape:connector-curvature="0"
         d="M 0,792 612,792 612,0 0,0 0,792 z"
         id="path3001-9" />
    </clipPath>
    <inkscape:path-effect
       fuse_tolerance="0"
       vertical_pattern="false"
       prop_units="false"
       tang_offset="0"
       normal_offset="0"
       spacing="0"
       scale_y_rel="false"
       prop_scale="1"
       copytype="single_stretched"
       pattern="M 0,5 C 0,2.24 2.24,0 5,0 7.76,0 10,2.24 10,5 10,7.76 7.76,10 5,10 2.24,10 0,7.76 0,5 z"
       is_visible="true"
       id="path-effect4237-4"
       effect="skeletal" />
    <inkscape:path-effect
       effect="skeletal"
       id="path-effect4237-4-5"
       is_visible="true"
       pattern="M 0,5 C 0,2.24 2.24,0 5,0 7.76,0 10,2.24 10,5 10,7.76 7.76,10 5,10 2.24,10 0,7.76 0,5 z"
       copytype="single_stretched"
       prop_scale="1"
       scale_y_rel="false"
       spacing="0"
       normal_offset="0"
       tang_offset="0"
       prop_units="false"
       vertical_pattern="false"
       fuse_tolerance="0" />
    <clipPath
       id="clipPath2999-0-6"
       clipPathUnits="userSpaceOnUse">
      <path
         id="path3001-9-8"
         d="M 0,792 612,792 612,0 0,0 0,792 z"
         inkscape:connector-curvature="0" />
    </clipPath>
    <radialGradient
       gradientUnits="userSpaceOnUse"
       gradientTransform="matrix(0.75988491,-0.03632001,0.13155835,2.7524547,16.986326,-78.268899)"
       r="12.650181"
       fy="46.658409"
       fx="96.306435"
       cy="46.658409"
       cx="96.306435"
       id="radialGradient3972-4-1"
       xlink:href="#linearGradient3966-2-4"
       inkscape:collect="always" />
    <clipPath
       clipPathUnits="userSpaceOnUse"
       id="clipPath2999-4-8-2">
      <path
         inkscape:connector-curvature="0"
         d="M 0,792 612,792 612,0 0,0 0,792 z"
         id="path3001-0-8-2" />
    </clipPath>
    <linearGradient
       id="linearGradient3966-2-4">
      <stop
         id="stop3968-4-2"
         offset="0"
         style="stop-color:#c0ac02;stop-opacity:1;" />
      <stop
         id="stop3970-5-3"
         offset="1"
         style="stop-color:#fdea41;stop-opacity:0;" />
    </linearGradient>
    <radialGradient
       gradientUnits="userSpaceOnUse"
       gradientTransform="matrix(0.31036379,-0.01814613,0.03701409,0.63307367,114.75293,21.468668)"
       r="6.982676"
       fy="41.784931"
       fx="169.32254"
       cy="41.784931"
       cx="169.32254"
       id="radialGradient4017-1"
       xlink:href="#linearGradient4011-4"
       inkscape:collect="always" />
    <radialGradient
       r="3.8123069"
       fy="47.693741"
       fx="165.81134"
       cy="47.693741"
       cx="165.81134"
       gradientTransform="matrix(-0.64374811,-0.18781617,-0.31213841,1.069868,293.73143,27.15595)"
       gradientUnits="userSpaceOnUse"
       id="radialGradient4007-6"
       xlink:href="#linearGradient3997-4"
       inkscape:collect="always" />
    <radialGradient
       gradientUnits="userSpaceOnUse"
       gradientTransform="matrix(0.64374811,-0.18781617,0.31213841,1.069868,43.640483,27.15595)"
       r="3.8123069"
       fy="47.693741"
       fx="165.81134"
       cy="47.693741"
       cx="165.81134"
       id="radialGradient4003-7"
       xlink:href="#linearGradient3997-4"
       inkscape:collect="always" />
    <linearGradient
       id="linearGradient3966-1">
      <stop
         style="stop-color:#c0ac02;stop-opacity:1;"
         offset="0"
         id="stop3968-5" />
      <stop
         style="stop-color:#fdea41;stop-opacity:0;"
         offset="1"
         id="stop3970-2" />
    </linearGradient>
    <clipPath
       id="clipPath2999-4-7"
       clipPathUnits="userSpaceOnUse">
      <path
         id="path3001-0-1"
         d="M 0,792 612,792 612,0 0,0 0,792 z"
         inkscape:connector-curvature="0" />
    </clipPath>
    <radialGradient
       inkscape:collect="always"
       xlink:href="#linearGradient3966-1"
       id="radialGradient3972-1"
       cx="96.306435"
       cy="46.658409"
       fx="96.306435"
       fy="46.658409"
       r="12.650181"
       gradientTransform="matrix(0.75988491,-0.03632001,0.13155835,2.7524547,16.986326,-78.268899)"
       gradientUnits="userSpaceOnUse" />
    <clipPath
       clipPathUnits="userSpaceOnUse"
       id="clipPath2999-45">
      <path
         inkscape:connector-curvature="0"
         d="M 0,792 612,792 612,0 0,0 0,792 z"
         id="path3001-5" />
    </clipPath>
    <inkscape:path-effect
       fuse_tolerance="0"
       vertical_pattern="false"
       prop_units="false"
       tang_offset="0"
       normal_offset="0"
       spacing="0"
       scale_y_rel="false"
       prop_scale="1"
       copytype="single_stretched"
       pattern="M 0,5 C 0,2.24 2.24,0 5,0 7.76,0 10,2.24 10,5 10,7.76 7.76,10 5,10 2.24,10 0,7.76 0,5 z"
       is_visible="true"
       id="path-effect4237-2"
       effect="skeletal" />
    <linearGradient
       id="linearGradient3997-4"
       inkscape:collect="always">
      <stop
         id="stop3999-8"
         offset="0"
         style="stop-color:#ffffff;stop-opacity:1;" />
      <stop
         id="stop4001-8"
         offset="1"
         style="stop-color:#ffffff;stop-opacity:0;" />
    </linearGradient>
    <linearGradient
       id="linearGradient4011-4"
       inkscape:collect="always">
      <stop
         id="stop4013-0"
         offset="0"
         style="stop-color:#ffffff;stop-opacity:1;" />
      <stop
         id="stop4015-9"
         offset="1"
         style="stop-color:#ffffff;stop-opacity:0;" />
    </linearGradient>
  </defs>
  <sodipodi:namedview
     id="base"
     pagecolor="#ffffff"
     bordercolor="#666666"
     borderopacity="1.0"
     inkscape:pageopacity="0.0"
     inkscape:pageshadow="2"
     inkscape:zoom="5.76"
     inkscape:cx="21.866171"
     inkscape:cy="23.461591"
     inkscape:document-units="px"
     inkscape:current-layer="layer1"
     showgrid="false"
     fit-margin-top="0"
     fit-margin-left="0"
     fit-margin-right="0"
     fit-margin-bottom="0"
     inkscape:window-width="1280"
     inkscape:window-height="968"
     inkscape:window-x="-4"
     inkscape:window-y="-4"
     inkscape:window-maximized="1"
     showguides="true"
     inkscape:guide-bbox="true"
     inkscape:snap-global="false">
    <sodipodi:guide
       orientation="0,1"
       position="11.28133,21.517799"
       id="guide3274" />
    <sodipodi:guide
       orientation="1,0"
       position="26.13159,26.634501"
       id="guide3960" />
  </sodipodi:namedview>
  <metadata
     id="metadata7">
    <rdf:RDF>
      <cc:Work
         rdf:about="">
        <dc:format>image/svg+xml</dc:format>
        <dc:type
           rdf:resource="http://purl.org/dc/dcmitype/StillImage" />
        <dc:title></dc:title>
      </cc:Work>
    </rdf:RDF>
  </metadata>
  <g
     inkscape:label="template"
     inkscape:groupmode="layer"
     id="layer1"
     transform="translate(-360.9375,-409.84883)"
     style="display:inline">
    <use
       x="0"
       y="0"
       xlink:href="#path3877"
       id="use3888"
       transform="matrix(-1,0,0,1,774.44538,-0.51986171)"
       width="52.375"
       height="43.213669" />
    <path
       style="fill:#f2f3f2;stroke:#1b2a34;stroke-width:0.62500000000000000;stroke-miterlimit:4;stroke-dasharray:none"
       d="m 20.28125,20.65625 c -0.236781,-0.0291 -0.483769,0.02836 -0.6875,0.1875 l -2.625,2.03125 C 16.685393,22.179948 16.023147,21.6875 15.25,21.6875 c -1.030863,0 -1.84375,0.86798 -1.84375,1.9375 0,1.06952 0.812887,1.9375 1.84375,1.9375 0.561547,0.04694 0.710249,0.03394 0.914621,-0.607813 -0.221562,0.268805 -0.258371,0.922042 -0.258371,1.295313 0,0.863348 0.717517,1.5625 1.59375,1.5625 0.876233,0 1.59375,-0.699152 1.59375,-1.5625 0,-0.657411 -0.416632,-1.206495 -1,-1.4375 l 2.84375,-2.21875 c 0.407462,-0.318272 0.474522,-0.905038 0.15625,-1.3125 L 20.90625,21 c -0.159136,-0.203731 -0.388219,-0.31465 -0.625,-0.34375 z"
       transform="translate(360.9375,409.84883)"
       id="path3877"
       inkscape:connector-curvature="0"
       sodipodi:nodetypes="sccssccsssccccs" />
    <use
       x="0"
       y="0"
       xlink:href="#path3877"
       id="use3884"
       transform="matrix(0.25881905,0.96592583,-0.96592583,0.25881905,698.96161,-55.185805)"
       width="52.375"
       height="43.213669" />
    <use
       x="0"
       y="0"
       xlink:href="#path3877"
       id="use3886"
       transform="matrix(-1,0,0,-1,774.31396,855.79165)"
       width="52.375"
       height="43.213669" />
    <path
       style="fill:#f2f3f2;stroke:none"
       d="m 26.501767,11.340877 c -9.382465,1.074544 -9.399001,7.602854 -5.229682,10.176679 -1.07386,3.424976 0.0901,5.358072 4.664311,5.017668 3.72818,0.645315 6.036095,-0.376637 5.441696,-4.805654 5.181809,-7.109639 0.263917,-8.808724 -4.876325,-10.388693 z"
       id="path3890"
       inkscape:connector-curvature="0"
       transform="translate(360.9375,409.84883)"
       sodipodi:nodetypes="ccccc" />
    <path
       inkscape:connector-curvature="0"
       d="m 361.13813,452.9203 c 8.7325,-47.29375 5.3425,-42.67875 14.2675,-42.85625 l 23.44,0 c 8.92625,0.1775 5.535,-4.4375 14.265,42.85625 l -51.9725,0 z"
       style="fill:none;stroke:#231f20;stroke-width:0.3125;stroke-linecap:butt;stroke-linejoin:miter;stroke-miterlimit:4;stroke-opacity:1;stroke-dasharray:none"
       id="path3093" />
    <path
       id="path4124"
       style="fill:none;stroke:#231f20;stroke-width:0.3125;stroke-linecap:butt;stroke-linejoin:miter;stroke-miterlimit:4;stroke-opacity:1;stroke-dasharray:none"
       d="m 361.13813,452.9203 c 8.7325,-47.29375 5.3425,-42.67875 14.2675,-42.85625 l 23.44,0 c 8.92625,0.1775 5.535,-4.4375 14.265,42.85625 l -51.9725,0 z"
       inkscape:connector-curvature="0" />
    <use
       x="0"
       y="0"
       xlink:href="#path3075"
       id="use3863"
       transform="matrix(-1,0,0,1,774.20037,0)"
       width="52.375"
       height="43.213669" />
    <path
       style="fill:#1b2a34;stroke:none"
       d="m 24.589431,16.282387 c -0.893061,-0.0918 -2.623255,1.297753 -2.588361,2.311037 0.03489,1.013284 1.156228,1.739218 2.064526,1.602318 0.908298,-0.1369 1.674167,-1.57029 1.663947,-2.372664 -0.01022,-0.802374 -0.247051,-1.448889 -1.140112,-1.540691 z"
       id="path3873"
       inkscape:connector-curvature="0"
       transform="translate(360.9375,409.84883)"
       sodipodi:nodetypes="zzzzz" />
    <path
       style="fill:#1b2a34;stroke:none"
       d="m 28.225463,15.943435 c -0.911673,9.88e-4 -1.37194,0.626256 -1.417436,1.479063 -0.0455,0.852807 0.975471,2.313955 1.879643,2.434292 0.904172,0.120337 1.834956,-0.481394 1.910457,-1.448249 0.0755,-0.966855 -1.460991,-2.466094 -2.372664,-2.465106 z"
       id="path3875"
       inkscape:connector-curvature="0"
       transform="translate(360.9375,409.84883)"
       sodipodi:nodetypes="zzzzz" />
    <path
       style="font-size:medium;font-style:normal;font-variant:normal;font-weight:normal;font-stretch:normal;text-indent:0;text-align:start;text-decoration:none;line-height:normal;letter-spacing:normal;word-spacing:normal;text-transform:none;direction:ltr;block-progression:tb;writing-mode:lr-tb;text-anchor:start;baseline-shift:baseline;color:#000000;fill:#1b2a34;fill-opacity:1;stroke:none;stroke-width:1;marker:none;visibility:visible;display:inline;overflow:visible;enable-background:accumulate;font-family:Sans;-inkscape-font-specification:Sans"
       d="m 25.28125,10.96875 c -1.4491,0.0848 -2.962394,0.60711 -4.25,1.53125 -1.47155,1.05616 -2.61846,2.67586 -2.8125,4.75 -0.0922,0.98544 0.16345,1.9969 0.875,2.90625 0.36685,0.468828 0.861285,0.903264 1.46875,1.3125 l -0.125,0 c -0.0531,0.81657 -0.17261,1.64743 -0.15625,2.4375 0.0164,0.79007 0.18723,1.5689 0.78125,2.15625 0.46944,0.46417 1.10835,0.67456 1.90625,0.75 0.7979,0.0754 1.80501,0.05915 3.21875,0.03125 l 0.15625,-2.9375 c -0.166787,-0.328405 -0.333573,-0.304618 -0.50036,0 l 0,0.875 c 0,0.54241 -0.23848,0.96875 -0.78089,0.96875 L 25,25.75 c -0.54241,0 -0.96875,-0.42634 -0.96875,-0.96875 l 0,-0.90625 c -0.126812,-0.157316 -0.277651,-0.51823 -0.6875,0 l 0,0.8125 c 0,0.54241 -0.45759,0.96875 -1,0.96875 l -0.0625,0 c -0.54241,0 -0.96875,-0.42634 -0.96875,-0.96875 -0.05316,-0.902845 0.0303,-1.874908 0.09375,-2.71875 0.366932,0.194608 1.175059,0.0063 1.5625,-0.09375 -1.56436,-0.876241 -2.52611,-1.58706 -3.09375,-2.3125 -0.56764,-0.72544 -0.72666,-1.46618 -0.65625,-2.21875 l 0,-0.03125 c 0.17326,-1.74724 1.09994,-3.08487 2.375,-4 1.28276,-0.92066 3.1784,-1.38034 4.5625,-1.34375 l 0,-1 c -0.203113,-0.0054 -0.667986,-0.01211 -0.875,0 z"
       transform="translate(360.9375,409.84883)"
       id="path3075"
       inkscape:connector-curvature="0"
       sodipodi:nodetypes="cscscccsccccssssccssscccsccsccc" />
  </g>
</svg>
