<?xml version="1.0" encoding="UTF-8" standalone="no"?>
<!-- Created with Inkscape (http://www.inkscape.org/) -->

<svg
   xmlns:dc="http://purl.org/dc/elements/1.1/"
   xmlns:cc="http://creativecommons.org/ns#"
   xmlns:rdf="http://www.w3.org/1999/02/22-rdf-syntax-ns#"
   xmlns:svg="http://www.w3.org/2000/svg"
   xmlns="http://www.w3.org/2000/svg"
   xmlns:sodipodi="http://sodipodi.sourceforge.net/DTD/sodipodi-0.dtd"
   xmlns:inkscape="http://www.inkscape.org/namespaces/inkscape"
   width="154.62097"
   height="176.19733"
   id="svg2"
   version="1.1"
   inkscape:version="0.48.2 r9819"
   sodipodi:docname="lion.svg">
  <defs
     id="defs4" />
  <sodipodi:namedview
     id="base"
     pagecolor="#ffffff"
     bordercolor="#666666"
     borderopacity="1.0"
     inkscape:pageopacity="0.0"
     inkscape:pageshadow="2"
     inkscape:zoom="1.96"
     inkscape:cx="37.157782"
     inkscape:cy="82.724102"
     inkscape:document-units="px"
     inkscape:current-layer="layer1"
     showgrid="false"
     fit-margin-top="0"
     fit-margin-left="0"
     fit-margin-right="0"
     fit-margin-bottom="0"
     inkscape:window-width="1280"
     inkscape:window-height="968"
     inkscape:window-x="-4"
     inkscape:window-y="-4"
     inkscape:window-maximized="1" />
  <metadata
     id="metadata7">
    <rdf:RDF>
      <cc:Work
         rdf:about="">
        <dc:format>image/svg+xml</dc:format>
        <dc:type
           rdf:resource="http://purl.org/dc/dcmitype/StillImage" />
        <dc:title></dc:title>
      </cc:Work>
    </rdf:RDF>
  </metadata>
  <g
     inkscape:label="Layer 1"
     inkscape:groupmode="layer"
     id="layer1"
     transform="translate(-434.76475,-559.66449)">
    <path
       style="fill:#c7c1b7;fill-opacity:1;stroke:none"
       d="m 466.15336,577.39027 c -1.77716,0.18075 -2.42423,5.92522 -1.625,14.75 0.88051,9.72198 3.46963,17.25844 7.4375,21.78125 1.27802,1.45675 2.34773,3.14341 2.40625,3.71875 0.0585,0.57534 -3.08045,5.08714 -7,10.0625 -3.91954,4.97535 -6.94956,9.48744 -6.71875,10 0.23081,0.51257 1.86926,1.16342 3.65625,1.4375 3.81415,0.585 4.20501,1.57127 1.4375,3.84375 -2.79762,2.29722 -1.12997,3.91158 3.53125,3.4375 4.51614,-0.45931 5.95289,0.83386 3.96875,3.53125 -1.65518,2.25018 -0.8324,3.20439 2.40625,2.875 2.65034,-0.26955 2.79102,0.0278 1.4375,2.78125 -0.85384,1.73692 -0.18304,2.59455 5.5,6.875 7.6554,5.76601 9.59119,8.58406 12.96875,18.84375 2.6496,8.04841 5.44585,12.2138 10.03125,14.9375 1.71892,1.02104 4.00733,1.54229 6.34375,1.59375 0.094,0.002 0.18709,-5.6e-4 0.28125,0 2.33642,-0.0515 4.62483,-0.57271 6.34375,-1.59375 4.5854,-2.7237 7.38165,-6.88909 10.03125,-14.9375 3.37756,-10.25969 5.31335,-13.07774 12.96875,-18.84375 5.68304,-4.28045 6.35384,-5.13808 5.5,-6.875 -1.35352,-2.75345 -1.21284,-3.0508 1.4375,-2.78125 3.23865,0.32939 4.06143,-0.62482 2.40625,-2.875 -1.98414,-2.69739 -0.54739,-3.99056 3.96875,-3.53125 4.66122,0.47408 6.32887,-1.14028 3.53125,-3.4375 -2.76751,-2.27248 -2.37665,-3.25875 1.4375,-3.84375 1.78699,-0.27408 3.42544,-0.92493 3.65625,-1.4375 0.23081,-0.51256 -2.79921,-5.02465 -6.71875,-10 -3.91955,-4.97536 -7.0585,-9.48716 -7,-10.0625 0.0585,-0.57534 1.12823,-2.262 2.40625,-3.71875 3.96787,-4.52281 6.55699,-12.05927 7.4375,-21.78125 0.79923,-8.82478 0.15216,-14.56925 -1.625,-14.75 -0.49464,-0.0503 -6.52241,4.3096 -13.4375,9.6875 l -12.59375,9.78125 -9.28125,-0.9375 c -2.90294,-0.29583 -6.76774,-0.45375 -10.46875,-0.46875 -0.0938,-3.8e-4 -0.18766,1.9e-4 -0.28125,0 -3.70194,0.0149 -7.56501,0.17284 -10.46875,0.46875 l -9.28125,0.9375 -12.59375,-9.78125 c -6.91509,-5.3779 -12.94286,-9.73781 -13.4375,-9.6875 z m 2.71875,5.75 c 1.17694,-0.1197 5.58553,5.39803 10.03125,12.53125 3.20809,5.14745 3.21668,5.19007 1.84375,9.09375 -0.76099,2.16374 -1.96447,5.0753 -2.65625,6.4375 -1.76494,3.47543 -2.59991,2.25839 -3.53125,-5.125 -0.44414,-3.52101 -1.38318,-7.02095 -2.125,-7.75 -0.81642,-0.80236 -1.26494,-2.62523 -1.09375,-4.65625 0.18792,-2.22947 -0.2683,-3.93424 -1.375,-5.125 -1.90739,-2.05223 -2.54995,-5.25814 -1.09375,-5.40625 z m 86.40625,0 c 1.4562,0.14811 0.81364,3.35402 -1.09375,5.40625 -1.1067,1.19076 -1.56292,2.89553 -1.375,5.125 0.17119,2.03102 -0.27733,3.85389 -1.09375,4.65625 -0.74182,0.72905 -1.68086,4.22899 -2.125,7.75 -0.93134,7.38339 -1.76631,8.60043 -3.53125,5.125 -0.69178,-1.3622 -1.89526,-4.27376 -2.65625,-6.4375 -1.37293,-3.90368 -1.36434,-3.9463 1.84375,-9.09375 4.44572,-7.13322 8.85431,-12.65095 10.03125,-12.53125 z m -58.46875,46.65625 c 1.62038,0.10028 3.37176,1.12335 4.78125,3.28125 2.18253,3.34137 3.06901,10.89528 1.53125,12.78125 -3.11523,3.82065 -9.52715,-0.39947 -11.1875,-7.34375 -1.18475,-4.95515 1.18001,-8.39915 4.1875,-8.6875 0.22556,-0.0216 0.45602,-0.0457 0.6875,-0.0312 z m 30.53125,0 c 0.23148,-0.0144 0.46194,0.01 0.6875,0.0312 3.00749,0.28835 5.37225,3.73235 4.1875,8.6875 -1.66035,6.94428 -8.07227,11.1644 -11.1875,7.34375 -1.53776,-1.88597 -0.65128,-9.43988 1.53125,-12.78125 1.40949,-2.1579 3.16087,-3.18097 4.78125,-3.28125 z m -21,48.4375 c 0.11444,-0.002 0.23834,0.014 0.34375,0.0312 0.61986,0.10162 2.81806,0.20184 5.25,0.25 0.10268,0.002 0.17773,-0.002 0.28125,0 2.43194,-0.0482 4.63014,-0.14838 5.25,-0.25 0.21083,-0.0346 0.43886,-0.0209 0.6875,0 0.74589,0.0627 1.59415,0.33623 2.125,0.75 1.87123,1.45842 -0.2283,7.76409 -3.46875,10.40625 -1.71185,1.39579 -3.16455,1.96384 -4.75,1.75 -1.57611,0.20472 -3.01553,-0.36125 -4.71875,-1.75 -3.24045,-2.64216 -5.33998,-8.94783 -3.46875,-10.40625 0.53085,-0.41377 1.37911,-0.68734 2.125,-0.75 0.12432,-0.0104 0.22931,-0.0295 0.34375,-0.0312 z m -5.53125,18.9375 c 0.59362,4.10624 2.37518,11.67328 2.90625,11.78125 0.84693,-0.0394 1.83444,-6.10763 2.15625,-8.25 -1.7671,-1.055 -3.46049,-1.83052 -5.0625,-3.53125 z m 22.5,0 c -1.60201,1.70073 -3.2954,2.47625 -5.0625,3.53125 0.32181,2.14237 1.34057,8.2106 2.1875,8.25 0.53107,-0.10797 2.28138,-7.67501 2.875,-11.78125 z"
       id="rect3139"
       inkscape:connector-curvature="0"
       sodipodi:nodetypes="ssscsssssssssssccssssssssssssssccccsccccssssssssssssssssssscssscccccssscccccccscscsccccccccccc" />
    <path
       style="fill:#615f5c"
       d="m 499.12211,559.66491 c -37.3344,0.028 -52.14452,0.15308 -58.34375,0.8125 -2.81784,0.29973 -3.86706,0.71225 -4.4375,1.28125 -2.10314,2.09755 -2.09982,31.07583 0,50.59375 3.59182,33.38621 16.58828,64.87842 37.21875,90.21875 12.724,15.62883 33.63735,33.76309 38.375,33.28125 0.0324,-0.003 0.078,-0.0443 0.125,-0.0625 0.0579,0.0228 0.1169,0.0585 0.15625,0.0625 4.73765,0.48184 25.651,-17.65242 38.375,-33.28125 20.63047,-25.34033 33.62693,-56.83254 37.21875,-90.21875 2.09982,-19.51792 2.10314,-48.4962 0,-50.59375 -0.57044,-0.569 -1.61966,-0.98152 -4.4375,-1.28125 -6.19923,-0.65942 -21.00935,-0.78451 -58.34375,-0.8125 -2.61113,-0.002 -8.55741,0.004 -12.8125,0 -0.0917,1.1e-4 -0.18785,-10e-5 -0.28125,0 -4.25509,0.004 -10.20137,-0.002 -12.8125,0 z m -32.96875,18 c 0.49464,-0.0503 6.52241,4.3096 13.4375,9.6875 l 12.59375,9.78125 9.28125,-0.9375 c 2.90374,-0.2959 6.76681,-0.45382 10.46875,-0.46875 0.0936,2e-4 0.18743,-3.8e-4 0.28125,0 3.70101,0.015 7.56581,0.17293 10.46875,0.46875 l 9.28125,0.9375 12.59375,-9.78125 c 6.91509,-5.3779 12.94286,-9.73781 13.4375,-9.6875 1.77716,0.18075 2.42423,5.92522 1.625,14.75 -0.88051,9.72198 -3.46963,17.25844 -7.4375,21.78125 -1.27802,1.45675 -2.34773,3.14341 -2.40625,3.71875 -0.0585,0.57534 3.08045,5.08714 7,10.0625 3.91954,4.97535 6.94956,9.48744 6.71875,10 -0.23081,0.51257 -1.86926,1.16342 -3.65625,1.4375 -3.81415,0.585 -4.20501,1.57127 -1.4375,3.84375 2.79762,2.29722 1.12997,3.91158 -3.53125,3.4375 -4.51614,-0.45931 -5.95289,0.83386 -3.96875,3.53125 1.65518,2.25018 0.8324,3.20439 -2.40625,2.875 -2.65034,-0.26955 -2.79102,0.0278 -1.4375,2.78125 0.85384,1.73692 0.18304,2.59455 -5.5,6.875 -7.6554,5.76601 -9.59119,8.58406 -12.96875,18.84375 -2.6496,8.04841 -5.44585,12.2138 -10.03125,14.9375 -1.71892,1.02104 -4.00733,1.54229 -6.34375,1.59375 -0.0942,-5.6e-4 -0.18722,0.002 -0.28125,0 -2.33642,-0.0515 -4.62483,-0.57271 -6.34375,-1.59375 -4.5854,-2.7237 -7.38165,-6.88909 -10.03125,-14.9375 -3.37756,-10.25969 -5.31335,-13.07774 -12.96875,-18.84375 -5.68304,-4.28045 -6.35384,-5.13808 -5.5,-6.875 1.35352,-2.75345 1.21284,-3.0508 -1.4375,-2.78125 -3.23865,0.32939 -4.06143,-0.62482 -2.40625,-2.875 1.98414,-2.69739 0.54739,-3.99056 -3.96875,-3.53125 -4.66122,0.47408 -6.32887,-1.14028 -3.53125,-3.4375 2.76751,-2.27248 2.37665,-3.25875 -1.4375,-3.84375 -1.78699,-0.27408 -3.42544,-0.92493 -3.65625,-1.4375 -0.23081,-0.51256 2.79921,-5.02465 6.71875,-10 3.91955,-4.97536 7.0585,-9.48716 7,-10.0625 -0.0585,-0.57534 -1.12823,-2.262 -2.40625,-3.71875 -3.96787,-4.52281 -6.55699,-12.05927 -7.4375,-21.78125 -0.79923,-8.82478 -0.15216,-14.56925 1.625,-14.75 z m 2.71875,5.75 c -1.4562,0.14811 -0.81364,3.35402 1.09375,5.40625 1.1067,1.19076 1.56292,2.89553 1.375,5.125 -0.17119,2.03102 0.27733,3.85389 1.09375,4.65625 0.74182,0.72905 1.68086,4.22899 2.125,7.75 0.93134,7.38339 1.76631,8.60043 3.53125,5.125 0.69178,-1.3622 1.89526,-4.27376 2.65625,-6.4375 1.37293,-3.90368 1.36434,-3.9463 -1.84375,-9.09375 -4.44572,-7.13322 -8.85431,-12.65095 -10.03125,-12.53125 z m 86.40625,0 c -1.17694,-0.1197 -5.58553,5.39803 -10.03125,12.53125 -3.20809,5.14745 -3.21668,5.19007 -1.84375,9.09375 0.76099,2.16374 1.96447,5.0753 2.65625,6.4375 1.76494,3.47543 2.59991,2.25839 3.53125,-5.125 0.44414,-3.52101 1.38318,-7.02095 2.125,-7.75 0.81642,-0.80236 1.26494,-2.62523 1.09375,-4.65625 -0.18792,-2.22947 0.2683,-3.93424 1.375,-5.125 1.90739,-2.05223 2.54995,-5.25814 1.09375,-5.40625 z m -58.46875,46.65625 c -0.23148,-0.0144 -0.46194,0.01 -0.6875,0.0312 -3.00749,0.28835 -5.37225,3.73235 -4.1875,8.6875 1.66035,6.94428 8.07227,11.1644 11.1875,7.34375 1.53776,-1.88597 0.65128,-9.43988 -1.53125,-12.78125 -1.40949,-2.1579 -3.16087,-3.18097 -4.78125,-3.28125 z m 30.53125,0 c -1.62038,0.10028 -3.37176,1.12335 -4.78125,3.28125 -2.18253,3.34137 -3.06901,10.89528 -1.53125,12.78125 3.11523,3.82065 9.52715,-0.39947 11.1875,-7.34375 1.18475,-4.95515 -1.18001,-8.39915 -4.1875,-8.6875 -0.22556,-0.0216 -0.45602,-0.0457 -0.6875,-0.0312 z m -21,48.4375 c -0.11444,0.002 -0.21943,0.0208 -0.34375,0.0312 -0.74589,0.0627 -1.59415,0.33623 -2.125,0.75 -1.87123,1.45842 0.2283,7.76409 3.46875,10.40625 1.70322,1.38875 3.14264,1.95472 4.71875,1.75 1.58545,0.21384 3.03815,-0.35421 4.75,-1.75 3.24045,-2.64216 5.33998,-8.94783 3.46875,-10.40625 -0.53085,-0.41377 -1.37911,-0.68734 -2.125,-0.75 -0.24864,-0.0209 -0.47667,-0.0346 -0.6875,0 -0.61986,0.10162 -2.81806,0.20184 -5.25,0.25 -0.10352,-0.002 -0.17857,0.002 -0.28125,0 -2.43194,-0.0482 -4.63014,-0.14838 -5.25,-0.25 -0.10541,-0.0173 -0.22931,-0.033 -0.34375,-0.0312 z m -5.53125,18.9375 c 1.60201,1.70073 3.2954,2.47625 5.0625,3.53125 -0.32181,2.14237 -1.30932,8.2106 -2.15625,8.25 -0.53107,-0.10797 -2.31263,-7.67501 -2.90625,-11.78125 z m 22.5,0 c -0.59362,4.10624 -2.34393,11.67328 -2.875,11.78125 -0.84693,-0.0394 -1.86569,-6.10763 -2.1875,-8.25 1.7671,-1.055 3.46049,-1.83052 5.0625,-3.53125 z"
       id="path3091"
       inkscape:connector-curvature="0" />
  </g>
</svg>
